<svg width="16" height="16" viewBox="0 0 16 16" xmlns="http://www.w3.org/2000/svg"><path fill-rule="evenodd" clip-rule="evenodd" d="M3.48 1h9.04C13.89 1 15 2.138 15 3.543v8.914C15 13.862 13.89 15 12.52 15H3.48C2.11 15 1 13.862 1 12.457V3.543C1 2.138 2.11 1 3.48 1Zm7.233 11h2.038a.25.25 0 0 0 .229-.35L9.446 3.296A.474.474 0 0 0 9 3H6.976a.475.475 0 0 0-.446.296L3.02 11.65a.251.251 0 0 0 .23.35h5.518a.273.273 0 0 0 .25-.379l-.663-1.476a.233.233 0 0 0-.215-.142H6.624a.117.117 0 0 1-.108-.162l1.38-3.283a.097.097 0 0 1 .186.002l2.213 5.17a.445.445 0 0 0 .418.27Z"/></svg>