<svg xmlns="http://www.w3.org/2000/svg" xlink="http://www.w3.org/1999/xlink" width="22" height="22" viewBox="0 0 22 22"><path d="M11,21 C5.4771525,21 1,16.5228475 1,11 C1,5.4771525 5.4771525,1 11,1 C16.5228475,1 21,5.4771525 21,11 C21,16.5228475 16.5228475,21 11,21 Z M11,13 C12.1045695,13 13,12.1045695 13,11 C13,9.8954305 12.1045695,9 11,9 C9.8954305,9 9,9.8954305 9,11 C9,12.1045695 9.8954305,13 11,13 Z M17,13 C18.1045695,13 19,12.1045695 19,11 C19,9.8954305 18.1045695,9 17,9 C15.8954305,9 15,9.8954305 15,11 C15,12.1045695 15.8954305,13 17,13 Z M5,13 C6.1045695,13 7,12.1045695 7,11 C7,9.8954305 6.1045695,9 5,9 C3.8954305,9 3,9.8954305 3,11 C3,12.1045695 3.8954305,13 5,13 Z"/></svg>
