<svg xmlns="http://www.w3.org/2000/svg" xlink="http://www.w3.org/1999/xlink" width="16" height="16" viewBox="0 0 16 16"><path d="M7.5,15 C3.35786438,15 0,11.6421356 0,7.5 C0,3.35786438 3.35786438,0 7.5,0 C11.6421356,0 15,3.35786438 15,7.5 C15,11.6421356 11.6421356,15 7.5,15 Z M7.5,9 C8.32842712,9 9,8.32842712 9,7.5 C9,6.67157288 8.32842712,6 7.5,6 C6.67157288,6 6,6.67157288 6,7.5 C6,8.32842712 6.67157288,9 7.5,9 Z M3.5,9 C4.32842712,9 5,8.32842712 5,7.5 C5,6.67157288 4.32842712,6 3.5,6 C2.67157288,6 2,6.67157288 2,7.5 C2,8.32842712 2.67157288,9 3.5,9 Z M11.5,9 C12.3284271,9 13,8.32842712 13,7.5 C13,6.67157288 12.3284271,6 11.5,6 C10.6715729,6 10,6.67157288 10,7.5 C10,8.32842712 10.6715729,9 11.5,9 Z"/></svg>
