<svg xmlns="http://www.w3.org/2000/svg" xlink="http://www.w3.org/1999/xlink" width="12" height="12" viewBox="0 0 12 12"><path d="M6,12 C2.6862915,12 0,9.3137085 0,6 C0,2.6862915 2.6862915,0 6,0 C9.3137085,0 12,2.6862915 12,6 C12,9.3137085 9.3137085,12 6,12 Z M2.5,5 C2.22385763,5 2,5.22385763 2,5.5 L2,6.5 C2,6.77614237 2.22385763,7 2.5,7 L3.5,7 C3.77614237,7 4,6.77614237 4,6.5 L4,5.5 C4,5.22385763 3.77614237,5 3.5,5 L2.5,5 Z M5.5,5 C5.22385763,5 5,5.22385763 5,5.5 L5,6.5 C5,6.77614237 5.22385763,7 5.5,7 L6.5,7 C6.77614237,7 7,6.77614237 7,6.5 L7,5.5 C7,5.22385763 6.77614237,5 6.5,5 L5.5,5 Z M8.5,5 C8.22385763,5 8,5.22385763 8,5.5 L8,6.5 C8,6.77614237 8.22385763,7 8.5,7 L9.5,7 C9.77614237,7 10,6.77614237 10,6.5 L10,5.5 C10,5.22385763 9.77614237,5 9.5,5 L8.5,5 Z"/></svg>
