<svg xmlns="http://www.w3.org/2000/svg" xlink="http://www.w3.org/1999/xlink" width="22" height="22" viewBox="0 0 22 22"><path d="M20.5003779,10 C21.0623779,10 21.5773779,10.314 21.8343779,10.813 C22.0913779,11.313 22.0473779,11.915 21.7213779,12.372 L16.7213779,19.372 C16.4403779,19.766 15.9853779,20 15.5003779,20 L2.5,20 C1.672,20 1,19.329 1,18.5 L1,5 C1,3.346 2.346,2 4,2 L7.648,2 C8.372,2 9.042,2.36 9.441,2.963 L10.799,5 L16.0003779,5 C17.6553779,5 19.0003779,6.346 19.0003779,8 L19.0003779,10 L20.5003779,10 Z M14.7293779,17 L17.5853779,13 L8.272,13 L5.416,17 L14.7293779,17 Z M4,5 L4,13.819 L6.28,10.628 C6.561,10.234 7.016,10 7.5,10 L16.0003779,10 L16.0003779,8 L10.346,8 C9.625,8 8.956,7.642 8.555,7.042 L7.194,5 L4,5 Z"/></svg>
