<svg xmlns="http://www.w3.org/2000/svg" xlink="http://www.w3.org/1999/xlink" width="16" height="16" viewBox="0 0 16 16"><path d="M15.82,7.788 C16.082,8.275 16.056,8.866 15.751,9.329 L12.304,14.551 C12.118,14.832 11.805,15 11.469,15 L1,15 C0.448,15 0,14.552 0,14 L0,3.5 C0,2.122 1.121,1 2.5,1 L5.001,1 C5.335,1 5.648,1.167 5.833,1.445 L7.535,4 L11.5,4 C12.879,4 14,5.122 14,6.5 L14,7 L14.504,7 C15.054,7 15.559,7.302 15.82,7.788 Z M10.931,13 L13.572,9 L5.075,9 L2.434,13 L10.931,13 Z M2.5,3 C2.225,3 2,3.224 2,3.5 L2,10.026 L3.702,7.449 C3.887,7.168 4.201,7 4.536,7 L12,7 L12,6.5 C12,6.224 11.776,6 11.5,6 L7,6 C6.666,6 6.354,5.833 6.168,5.555 L4.466,3 L2.5,3 Z"/></svg>
