<svg xmlns="http://www.w3.org/2000/svg" xlink="http://www.w3.org/1999/xlink" width="12" height="12" viewBox="0 0 12 12"><path d="M11.401,5 C11.88,5 12.164,5.534 11.897,5.931 L8,11 L0.449,11 C0.163,11 -0.023,10.749 0.004,10.5 L0,10.5 L0,2.5 C0,1.671 0.672,1 1.5,1 L3.797,1 L5.297,3 L8.5,3 C9.328,3 10,3.671 10,4.5 L10,5 L11.401,5 Z M7.508,10 L10.582,6 L4.504,6 L1.545,10 L7.508,10 Z M1,2.5 L1,9.055 L3.701,5.405 C3.889,5.15 4.188,5 4.504,5 L9,5 L9,4.5 C9,4.224 8.776,4 8.5,4 L4.797,4 L3.297,2 L1.5,2 C1.225,2 1,2.224 1,2.5 Z"/></svg>
