<svg xmlns="http://www.w3.org/2000/svg" xlink="http://www.w3.org/1999/xlink" width="22" height="22" viewBox="0 0 22 22"><path d="M16,1 C18.8,1 21,3.2 21,6 L21,16 C21,18.8 18.8,21 16,21 L6,21 C3.2,21 1,18.8 1,16 L1,6 C1,3.2 3.2,1 6,1 L16,1 Z M19,16 L19,6 C19,4.3 17.7,3 16,3 L6,3 C4.3,3 3,4.3 3,6 L3,16 C3,17.7 4.3,19 6,19 L16,19 C17.7,19 19,17.7 19,16 Z M11,6 C13.8,6 16,8.2 16,11 C16,13.8 13.8,16 11,16 C8.2,16 6,13.8 6,11 C6,8.2 8.2,6 11,6 Z M11,14 C12.7,14 14,12.7 14,11 C14,9.3 12.7,8 11,8 C9.3,8 8,9.3 8,11 C8,12.7 9.3,14 11,14 Z M16,5 C16.6,5 17,5.4 17,6 C17,6.6 16.6,7 16,7 C15.4,7 15,6.6 15,6 C15,5.4 15.4,5 16,5 Z"/></svg>
