<svg xmlns="http://www.w3.org/2000/svg" xlink="http://www.w3.org/1999/xlink" width="16" height="16" viewBox="0 0 16 16"><path d="M11.0002,1 C13.2002,1 15.0002,2.8 15.0002,5 L15.0002,11 C15.0002,13.2 13.2002,15 11.0002,15 L5.0002,15 C2.8002,15 1.0002,13.2 1.0002,11 L1.0002,5 C1.0002,2.8 2.8002,1 5.0002,1 L11.0002,1 Z M13.2002,11 L13.2002,5 C13.2002,3.8 12.2002,2.8 11.0002,2.8 L5.0002,2.8 C3.8002,2.8 2.8002,3.8 2.8002,5 L2.8002,11 C2.8002,12.2 3.8002,13.2 5.0002,13.2 L11.0002,13.2 C12.2002,13.2 13.2002,12.2 13.2002,11 Z M8,4.9006 C9.7,4.9006 11.1,6.2996 11.1,7.9996 C11.1,9.7006 9.7,11.0996 8,11.0996 C6.3,11.0996 4.9,9.7006 4.9,7.9996 C4.9,6.2996 6.3,4.9006 8,4.9006 Z M8,10.0996 C9.2,10.0996 10.1,9.2006 10.1,7.9996 C10.1,6.9006 9.1,5.9006 8,5.9006 C6.9,5.9006 5.9,6.7996 5.9,7.9996 C5.9,9.0996 6.8,10.0996 8,10.0996 Z M11.2002,4 C11.6412,4 12.0002,4.358 12.0002,4.8 C12.0002,5.242 11.6412,5.6 11.2002,5.6 C10.7582,5.6 10.4002,5.242 10.4002,4.8 C10.4002,4.358 10.7582,4 11.2002,4 Z"/></svg>
