<svg xmlns="http://www.w3.org/2000/svg" xlink="http://www.w3.org/1999/xlink" width="12" height="12" viewBox="0 0 12 12"><path d="M10,0 C11.1,0 12,0.9 12,2 L12,10 C12,11.1 11.1,12 10,12 L2,12 C0.9,12 0,11.1 0,10 L0,2 C0,0.9 0.9,0 2,0 L10,0 Z M11,10 L11,2 C11,1.4 10.6,1 10,1 L2,1 C1.4,1 1,1.4 1,2 L1,10 C1,10.6 1.4,11 2,11 L10,11 C10.6,11 11,10.6 11,10 Z M6,3 C7.7,3 9,4.3 9,6 C9,7.7 7.7,9 6,9 C4.3,9 3,7.7 3,6 C3,4.3 4.3,3 6,3 Z M6,8 C7.1,8 8,7.1 8,6 C8,4.9 7.1,4 6,4 C4.9,4 4,4.9 4,6 C4,7.1 4.9,8 6,8 Z M9.5,2 C9.776,2 10,2.224 10,2.5 C10,2.776 9.776,3 9.5,3 C9.224,3 9,2.776 9,2.5 C9,2.224 9.224,2 9.5,2 Z"/></svg>
