<svg xmlns="http://www.w3.org/2000/svg" xlink="http://www.w3.org/1999/xlink" width="44" height="44" viewBox="0 0 44 44"><path d="M3,19 L3,14 L6,14 L6,19 L3,19 Z M3,29 L3,24 L6,24 L6,29 L3,29 Z M37,19 L37,14 L40,14 L40,19 L37,19 Z M37,29 L37,24 L40,24 L40,29 L37,29 Z M14,6 L14,3 L19,3 L19,6 L14,6 Z M24,6 L24,3 L29,3 L29,6 L24,6 Z M14,40 L14,37 L19,37 L19,40 L14,40 Z M24,40 L24,37 L29,37 L29,40 L24,40 Z M6,35 C6,36.103 6.897,37 8,37 L9,37 L9,40 L8,40 C5.243,40 3,37.757 3,35 L3,34 L6,34 L6,35 Z M3,8 C3,5.243 5.243,3 8,3 L9,3 L9,6 L8,6 C6.897,6 6,6.897 6,8 L6,9 L3,9 L3,8 Z M37,35 L37,34 L40,34 L40,35 C40,37.757 37.757,40 35,40 L34,40 L34,37 L35,37 C36.103,37 37,36.103 37,35 Z M35,3 C37.757,3 40,5.243 40,8 L40,9 L37,9 L37,8 C37,6.897 36.103,6 35,6 L34,6 L34,3 L35,3 Z M24,12 L24,23 L30.5,23 L21.5,33 L12.5,23 L19,23 L19,12 L24,12 Z"/></svg>
