<svg xmlns="http://www.w3.org/2000/svg" xlink="http://www.w3.org/1999/xlink" width="22" height="22" viewBox="0 0 22 22"><path d="M0,9 L0,5.999 L2,5.999 L2,9 L0,9 Z M3,0 L3,2 L3.002,2 C2.449,2 2,2.449 2,3.002 L2,3 L0,3 C0.002,1.347 1.346,0.001 3,0 Z M0,15 L0,12 L2,12 L2,15 L0,15 Z M19,3.002 C19,2.449 18.551,2 17.998,2 L18,2 L18,0 C19.654,0.001 20.998,1.347 21,3 L19,3 L19,3.002 Z M12,2 L12,0 L15,0 L15,2 L12,2 Z M6,2 L6,0 L9,0 L9,2 L6,2 Z M2,17.998 C2,18.551 2.449,19 3.002,19 L3,19 L3,21 C1.346,20.999 0.002,19.653 0,18 L2,18 L2,17.998 Z M19,9 L19,6 L21,6 L21,9 L19,9 Z M19,15 L19,12 L21,12 L21,15 L19,15 Z M19,17.998 L19,18 L21,18 C20.998,19.653 19.654,20.999 18,21 L18,19 L17.998,19 C18.551,19 19,18.551 19,17.998 Z M6,21 L6,19 L9,19 L9,21 L6,21 Z M12,21 L12,19 L15,19 L15,21 L12,21 Z M12,5 L12,12 L15.5,12 L10.5,17 L5.5,12 L9,12 L9,5 L12,5 Z"/></svg>
