<svg xmlns="http://www.w3.org/2000/svg" xlink="http://www.w3.org/1999/xlink" width="12" height="12" viewBox="0 0 12 12"><path d="M0,9.6709 L0,8.9999 L1,8.9999 L1,9.6709 L1,11.5799 C0.396,11.1589 0,10.4629 0,9.6709 Z M0,7 L0,5 L1,5 L1,7 L0,7 Z M3,12 L3,11 L5,11 L5,12 L3,12 Z M11,7 L11,5 L12,5 L12,7 L11,7 Z M11,9.6709 L11,8.9999 L12,8.9999 L12,9.6709 C12,10.4629 11.604,11.1589 11,11.5799 L11,9.6709 Z M7,12 L7,11 L9,11 L9,12 L7,12 Z M6.8301,3 L6.8301,6 L9.0001,6 L6.0001,9.5 L3.0001,6 L5.1701,6 L5.1701,3 L6.8301,3 Z M0,2.3291 C0,1.5371 0.396,0.8411 1,0.4201 L1,2.3291 L1,3.0001 L0,3.0001 L0,2.3291 Z M3,1 L3,0 L5,0 L5,1 L3,1 Z M7,1 L7,0 L9,0 L9,1 L7,1 Z M11,0.4199 C11.604,0.8409 12,1.5369 12,2.3289 L12,2.9999 L11,2.9999 L11,2.3289 L11,0.4199 Z"/></svg>
