<svg xmlns="http://www.w3.org/2000/svg" width="24" height="24" viewBox="0 0 24 24">
  <path fill-rule="evenodd" d="M3 7.979C3 5.78 4.79 4 7 4h10c2.21 0 4 1.781 4 3.979v4.973c0 2.197-1.79 3.979-4 3.979h-1.086c-.265 0-.52.104-.707.291l-2.5 2.487a1.004 1.004 0 0 1-1.414 0l-2.5-2.487a1.003 1.003 0 0 0-.707-.291H7c-2.21 0-4-1.782-4-3.979V7.979ZM14.201 8c.481 0 .933.181 1.272.51a1.703 1.703 0 0 1 0 2.463l-2.88 2.79A.846.846 0 0 1 12 14a.846.846 0 0 1-.592-.238l-2.881-2.79a1.703 1.703 0 0 1 0-2.462c.34-.329.791-.51 1.272-.51.386 0 .754.117 1.065.339l1.136.81 1.136-.81c.311-.222.68-.339 1.065-.339Z" clip-rule="evenodd"/>
</svg>
