<svg width="22" height="22" viewBox="0 0 22 22" fill="none" xmlns="http://www.w3.org/2000/svg">
<path d="M5.53012 17.7812C5.23612 18.0742 4.76112 18.0722 4.46912 17.7792C4.17712 17.4862 4.17712 17.0112 4.47112 16.7182L7.68012 13.5222L4.47112 10.3242C4.17712 10.0322 4.17712 9.55724 4.46912 9.26424C4.76112 8.97024 5.23612 8.96924 5.53012 9.26224L8.74212 12.4632L11.0232 10.1912L13.2582 12.4192L16.4712 9.21824C16.6172 9.07224 16.8092 9.00024 17.0002 9.00024C17.1932 9.00024 17.3852 9.07324 17.5322 9.22024C17.8232 9.51424 17.8232 9.98825 17.5302 10.2812L14.3212 13.4782L17.5302 16.6752C17.8232 16.9672 17.8232 17.4422 17.5322 17.7362C17.2402 18.0292 16.7652 18.0302 16.4712 17.7372L11.0232 12.3082L5.53012 17.7812Z" fill="#333333"/>
<path fill-rule="evenodd" clip-rule="evenodd" d="M12.2491 1.36867C11.4889 0.877043 10.511 0.877113 9.75084 1.36886L2.05072 6.35014C1.39559 6.77395 1 7.50101 1 8.28128V18.7C1 19.9703 2.02974 21 3.3 21H18.7C19.9703 21 21 19.9703 21 18.7V8.27953C21 7.49914 20.6043 6.77198 19.949 6.3482L12.2491 1.36867ZM10.8372 3.04811C10.9363 2.98397 11.0639 2.98396 11.163 3.04809L18.8629 8.02762C18.9484 8.08289 19 8.17774 19 8.27953V18.7C19 18.8657 18.8657 19 18.7 18.994L3.3 19C3.13431 19 3 18.8657 3 18.7V8.28128C3 8.1795 3.0516 8.08467 3.13705 8.02939L10.8372 3.04811Z" fill="#333333"/>
</svg>
