<svg width="16" height="16" viewBox="0 0 16 16" fill="none" xmlns="http://www.w3.org/2000/svg">
<path d="M13.8535 13.8538C13.6585 14.0487 13.3415 14.0487 13.1465 13.8538L7.99949 8.70776L2.85349 13.8538C2.65849 14.0487 2.34149 14.0487 2.14649 13.8538C1.95149 13.6587 1.95149 13.3418 2.14649 13.1467L5.29249 9.99976L2.14649 6.85376C1.95149 6.65876 1.95149 6.34176 2.14649 6.14676C2.24449 6.04876 2.37249 5.99976 2.49949 5.99976C2.62749 5.99976 2.75549 6.04876 2.85349 6.14676L5.99949 9.29276L7.99949 7.29276L9.99949 9.29276L13.1465 6.14676C13.2445 6.04876 13.3725 5.99976 13.4995 5.99976C13.6275 5.99976 13.7555 6.04876 13.8535 6.14676C14.0485 6.34176 14.0485 6.65876 13.8535 6.85376L10.7075 9.99976L13.8535 13.1467C14.0485 13.3418 14.0485 13.6587 13.8535 13.8538Z" fill="#333333"/>
<path fill-rule="evenodd" clip-rule="evenodd" d="M8.81388 0.242931C8.31845 -0.077033 7.6815 -0.0769857 7.18611 0.24305L0.914704 4.29463C0.344429 4.66305 0 5.29562 0 5.97455V14C0 15.1046 0.895431 16 2 16H14C15.1046 16 16 15.1046 16 14V5.97315C16 5.29411 15.6555 4.66146 15.0851 4.29307L8.81388 0.242931ZM7.72876 1.08301C7.89389 0.976332 8.10621 0.976316 8.27135 1.08297L14.5425 5.13311C14.8277 5.3173 15 5.63363 15 5.97315V14C15 14.5523 14.5523 15 14 15H2C1.44772 15 1 14.5523 1 14V5.97455C1 5.63509 1.17221 5.3188 1.45735 5.13459L7.72876 1.08301Z" fill="#333333"/>
</svg>
