<svg width="12" height="12" viewBox="0 0 12 12" fill="none" xmlns="http://www.w3.org/2000/svg">
<path d="M2.85349 9.85376C2.65849 10.0487 2.34149 10.0487 2.14649 9.85376C1.95149 9.65876 1.95149 9.34176 2.14649 9.14676L3.79249 7.49976L2.14649 5.85376C1.95149 5.65876 1.95149 5.34176 2.14649 5.14676C2.24449 5.04876 2.37249 4.99976 2.50049 4.99976C2.62749 4.99976 2.75549 5.04876 2.85349 5.14676L4.50049 6.79276L6.00049 5.29276L7.50049 6.79276L9.14649 5.14676C9.24449 5.04876 9.37249 4.99976 9.50049 4.99976C9.62749 4.99976 9.75549 5.04876 9.85349 5.14676C10.0485 5.34176 10.0485 5.65876 9.85349 5.85376L8.20749 7.49976L9.85349 9.14676C10.0485 9.34176 10.0485 9.65876 9.85349 9.85376C9.65849 10.0487 9.34149 10.0487 9.14649 9.85376L6.00049 6.70776L2.85349 9.85376Z" fill="#333333"/>
<path fill-rule="evenodd" clip-rule="evenodd" d="M6.82648 0.252087C6.32325 -0.082154 5.66863 -0.0818927 5.16567 0.25275L0.669093 3.24452C0.251135 3.52261 0 3.99134 0 4.49336V10.5C0 11.3284 0.671572 12 1.5 12H10.5C11.3284 12 12 11.3284 12 10.5V4.49273C12 3.99029 11.7484 3.52122 11.3299 3.24323L6.82648 0.252087ZM5.7196 1.08531C5.88726 0.97376 6.10547 0.973673 6.27321 1.08509L10.7766 4.07623C10.9161 4.16889 11 4.32525 11 4.49273V10.5C11 10.7761 10.7761 11 10.5 11H1.5C1.22386 11 1 10.7761 1 10.5V4.49336C1 4.32602 1.08371 4.16977 1.22303 4.07708L5.7196 1.08531Z" fill="#333333"/>
</svg>
