<svg width="16" height="16" viewBox="0 0 16 16" xmlns="http://www.w3.org/2000/svg"><path fill-rule="evenodd" clip-rule="evenodd" d="m6.562 2 .136.545c.409 1.636-.59 3.09-1.862 3.627-.476.201-.99.488-1.358.845C3.138 7.347 3 7.652 3 8c0 1.156.5 2.463 1.239 3.714.567.96 1.203 1.769 1.645 2.286h4.296a12.77 12.77 0 0 0 1.584-2.078C12.473 10.752 13 9.399 13 8c0-.348-.138-.653-.478-.983-.368-.357-.882-.644-1.358-.845-1.272-.538-2.27-1.991-1.862-3.627L9.438 2H6.562ZM5.28 0a1 1 0 0 0-.97 1.243l.446 1.787c.134.536-.191 1.085-.7 1.3C2.875 4.83 1 5.946 1 8c0 3.35 2.805 6.7 3.717 7.7.179.196.432.3.697.3h5.21a.92.92 0 0 0 .649-.257C12.174 14.858 15 11.783 15 8c0-2.054-1.875-3.17-3.057-3.67-.509-.215-.834-.764-.7-1.3l.446-1.787A1 1 0 0 0 10.72 0H5.281Z"/></svg>