<svg xmlns="http://www.w3.org/2000/svg" xlink="http://www.w3.org/1999/xlink" width="22" height="22" viewBox="0 0 22 22"><path d="M20.8301,5.3232 C20.7641,5.0632 20.5301,4.9132 20.2951,4.9132 C20.1621,4.9132 20.0261,4.9652 19.9201,5.0712 L17.5021,7.4812 C16.9651,8.0142 16.0951,8.0142 15.5571,7.4812 L14.4481,6.3752 C13.9101,5.8422 13.9101,4.9732 14.4481,4.4382 L16.8371,2.0582 C16.9451,1.9522 16.9951,1.8152 16.9951,1.6792 C16.9971,1.4432 16.8421,1.2122 16.5781,1.1502 C16.1531,1.0522 15.7171,1.0002 15.2591,1.0002 C15.1061,1.0002 14.9531,1.0072 14.7981,1.0192 C12.1501,1.2302 9.7131,3.7032 9.5481,6.3462 C9.4851,7.3482 9.6881,8.2952 10.0851,9.1352 L1.6301,16.3732 C1.2501,16.6982 1.0001,17.1672 1.0001,17.6672 C1.0001,18.1682 1.1681,18.6502 1.5181,19.0072 L2.9521,20.4602 C3.3071,20.8202 3.7951,20.9982 4.3021,21.0002 C4.8071,21.0022 5.2831,20.7572 5.6151,20.3752 L12.9381,11.9222 C13.7551,12.2852 14.6701,12.4692 15.6371,12.4122 C18.3071,12.2452 20.7901,9.7972 20.9851,7.1382 C20.9951,6.9882 21.0001,6.8382 21.0001,6.6902 C21.0001,6.2022 20.9381,5.7612 20.8301,5.3232"/></svg>
