<svg xmlns="http://www.w3.org/2000/svg" xlink="http://www.w3.org/1999/xlink" width="16" height="16" viewBox="0 0 16 16"><path d="M15.8643,3.459 C15.8103,3.251 15.6243,3.131 15.4353,3.131 C15.3293,3.131 15.2213,3.172 15.1353,3.258 L13.2013,5.186 C12.7723,5.612 12.0763,5.612 11.6453,5.186 L10.7593,4.3 C10.3283,3.873 10.3283,3.179 10.7593,2.751 L12.6693,0.847 C12.7563,0.762 12.7963,0.652 12.7963,0.544 C12.7973,0.355 12.6733,0.169 12.4633,0.12 C12.1233,0.041 11.7733,0 11.4063,0 C11.2853,0 11.1633,0.005 11.0393,0.016 C8.9203,0.184 6.9703,2.163 6.8393,4.277 C6.7883,5.079 6.9503,5.836 7.2673,6.508 L0.5043,12.299 C0.2003,12.559 0.0003,12.934 0.0003,13.333 C0.0003,13.734 0.1353,14.12 0.4153,14.405 L1.5613,15.568 C1.8453,15.856 2.2363,15.999 2.6413,16 C3.0453,16.001 3.4263,15.806 3.6923,15.5 L9.5513,8.737 C10.2043,9.028 10.9353,9.176 11.7093,9.129 C13.8453,8.996 15.8323,7.037 15.9883,4.911 C15.9963,4.791 16.0003,4.671 16.0003,4.552 C16.0003,4.161 15.9503,3.81 15.8643,3.459"/></svg>
