<svg xmlns="http://www.w3.org/2000/svg" xlink="http://www.w3.org/1999/xlink" width="12" height="12" viewBox="0 0 12 12"><path d="M11.898,2.594 C11.858,2.438 11.718,2.348 11.577,2.348 C11.497,2.348 11.416,2.379 11.352,2.443 L9.901,3.889 C9.579,4.209 9.057,4.209 8.734,3.889 L8.069,3.225 C7.746,2.905 7.746,2.384 8.069,2.063 L9.502,0.635 C9.567,0.571 9.597,0.489 9.597,0.408 C9.598,0.266 9.505,0.127 9.347,0.09 C9.092,0.031 8.83,7.10542736e-15 8.555,7.10542736e-15 C8.464,7.10542736e-15 8.372,0.004 8.279,0.012 C6.69,0.138 5.228,1.622 5.129,3.208 C5.091,3.809 5.213,4.377 5.451,4.881 L0.378,9.224 C0.15,9.419 3.55271368e-15,9.7 3.55271368e-15,10 C3.55271368e-15,10.301 0.101,10.59 0.311,10.804 L1.171,11.676 C1.384,11.892 1.677,11.999 1.981,12 C2.284,12.001 2.57,11.854 2.769,11.625 L7.163,6.553 C7.653,6.771 8.202,6.882 8.782,6.847 C10.384,6.747 11.874,5.278 11.991,3.683 C11.997,3.593 12,3.503 12,3.414 C12,3.121 11.963,2.857 11.898,2.594"/></svg>
