<svg xmlns="http://www.w3.org/2000/svg" width="30" height="30" fill="none" viewBox="0 0 30 30">
  <path fill="#FF642D" d="M25.81 14.865c0 .547-.283.636-.984.636-.746 0-.882-.123-.961-.68-.147-1.419-1.12-2.624-2.747-2.758-.52-.045-.645-.235-.645-.871 0-.592.09-.87.554-.87 2.827.01 4.782 2.254 4.782 4.543Zm4.114 0c0-4.254-2.916-8.753-9.654-8.753H6.885c-.272 0-.441.134-.441.38 0 .134.102.257.192.324.486.38 1.21.803 2.16 1.272.926.458 1.65.76 2.373 1.05.306.123.419.256.419.424 0 .234-.17.38-.498.38H.464c-.317 0-.464.2-.464.401 0 .168.057.313.203.458.86.893 2.239 1.965 4.24 3.204a61.4 61.4 0 0 0 5.652 3.07c.294.134.385.29.385.458-.011.19-.159.346-.498.346H5.11c-.271 0-.43.145-.43.368 0 .123.102.28.238.402 1.108.994 2.882 2.077 5.245 3.07 3.154 1.33 6.354 2.122 9.949 2.122 6.817 0 9.812-5.035 9.812-8.976Zm-8.897 6.04c-3.346 0-6.138-2.69-6.138-6.04 0-3.305 2.792-5.95 6.138-5.95 3.437 0 6.116 2.645 6.116 5.95-.01 3.35-2.69 6.04-6.116 6.04Z"/>
</svg>
