<svg width="24" height="25" viewBox="0 0 24 25" fill="none" xmlns="http://www.w3.org/2000/svg">
<g clip-path="url(#clip0_2_6287)">
<path d="M12.935 9.4446C13.1114 9.26173 13.301 9.08763 13.5035 8.92363C16.1734 6.7616 20.0892 7.17176 22.2497 9.83974C24.107 12.1334 24.0624 15.349 22.317 17.5799C22.3037 17.6109 22.2903 17.6422 22.2767 17.6737C21.8357 18.197 21.3389 18.6863 20.7872 19.133C16.0951 22.9326 8.72081 22.212 4.9239 17.5232C2.47783 14.5025 2.11322 10.5719 3.41794 7.14148C3.64883 7.60717 3.91902 8.06041 4.22965 8.49731C6.37953 11.1511 10.2665 11.5701 12.935 9.4446Z" fill="#B880FF"/>
<path d="M2.69359 5.62662C3.03462 6.04776 3.73761 6.05879 4.09547 5.65186C4.13483 5.6071 4.1749 5.56274 4.21568 5.51879C5.12845 4.53516 6.82141 5.10807 6.34133 6.36115C6.23489 6.63898 6.07509 6.90083 5.86127 7.13125C5.51817 7.50098 5.08503 7.73693 4.62538 7.83741C3.92297 7.99096 3.16049 8.01398 2.44993 7.90419C1.86462 7.81375 1.3067 7.51112 0.901359 7.01057C0.74181 6.81354 0.617171 6.59977 0.526707 6.37689C-0.00632404 5.06368 1.80168 4.5252 2.69359 5.62662Z" fill="black"/>
<path d="M13.0317 19.6519C12.0882 21.3049 10.7011 22.1335 8.937 22.0737C7.2612 22.0169 6.02181 21.6186 5.23717 20.8391C4.93013 20.5341 5.03579 20.023 5.4367 19.8739C7.27455 19.1907 8.67843 18.6224 9.64454 18.1713C9.77166 18.1119 9.91682 18.0997 10.054 18.1369C11.0363 18.4029 11.8954 18.6169 12.6306 18.7787C13.0259 18.8658 13.2285 19.307 13.0317 19.6519Z" fill="black"/>
<path d="M12.8986 19.77C11.9767 21.3872 10.6057 22.1889 8.85135 22.113C7.18477 22.0408 5.94874 21.6369 5.16111 20.8624C4.8529 20.5593 4.95299 20.0575 5.35011 19.9148C6.23232 19.5976 7.78233 21.3184 9.42793 21.3142C11.1781 21.3098 12.9978 19.5961 12.8986 19.77Z" fill="black"/>
<path d="M12.5949 16.5082C13.8331 18.0372 16.0503 18.2941 17.5472 17.082C19.0441 15.8699 19.2537 13.6477 18.0155 12.1187C16.7773 10.5896 14.5601 10.3327 13.0633 11.5449C11.5664 12.757 11.3568 14.9791 12.5949 16.5082Z" fill="white"/>
<path d="M13.5119 16.1283C14.5155 17.3677 16.3337 17.5588 17.5731 16.5552C18.8124 15.5516 19.0035 13.7333 17.9999 12.494C16.9963 11.2547 15.1781 11.0636 13.9387 12.0672C12.6994 13.0708 12.5083 14.889 13.5119 16.1283Z" fill="black"/>
<path d="M14.9283 14.9564C15.4757 15.6324 16.4675 15.7366 17.1435 15.1892C17.8195 14.6418 17.9237 13.65 17.3763 12.974C16.8289 12.298 15.8371 12.1938 15.1611 12.7412C14.4852 13.2886 14.3809 14.2804 14.9283 14.9564Z" fill="white"/>
<path d="M19.6253 19.0794C18.9388 19.4755 18.1156 19.2106 17.1678 18.4212C16.9637 18.2512 16.9385 17.9467 17.1115 17.741C17.2845 17.5353 17.5902 17.5064 17.7942 17.6764C18.4662 18.236 18.9134 18.38 19.148 18.2446C19.4117 18.0925 19.5435 17.7 19.4832 16.9837C19.4439 16.5168 20.0282 16.2661 20.3339 16.6186C20.5479 16.8654 20.7286 16.9975 20.8574 17.0299C20.9301 17.0482 20.9847 17.032 21.0742 16.9484C21.3136 16.7248 21.341 16.246 21.0606 15.4508C20.9722 15.2001 21.1052 14.9229 21.3577 14.8316C21.6102 14.7403 21.8866 14.8695 21.975 15.1202C22.3689 16.2373 22.3196 17.1009 21.7316 17.6499C21.3231 18.0313 20.8664 18.0982 20.4102 17.8978C20.3051 18.4337 20.0489 18.835 19.6253 19.0794Z" fill="black"/>
</g>
<defs>
<clipPath id="clip0_2_6287">
<rect width="24" height="24" fill="white" transform="translate(0 0.5)"/>
</clipPath>
</defs>
</svg>
