<svg xmlns="http://www.w3.org/2000/svg" xlink="http://www.w3.org/1999/xlink" width="22" height="22" viewBox="0 0 22 22"><path d="M9,1 C12.313,1 15,3.689 15,7.007 C15,12.137 11.635,16.287 9.913,18.496 C9.67,18.808 9.338,18.987 9,19 C8.662,18.987 8.33,18.808 8.087,18.496 C6.365,16.287 3,12.137 3,7.007 C3,3.689 5.687,1 9,1 Z M16.8115,4.3857 C18.1475,5.4867 18.9995,7.1537 18.9995,9.0197 C18.9995,14.1447 15.6345,18.2897 13.9135,20.4957 C13.6695,20.8077 13.3375,20.9877 12.9995,20.9997 C12.6625,20.9877 12.3305,20.8077 12.0865,20.4957 C11.9495,20.3207 11.7985,20.1267 11.6425,19.9267 C11.6565,19.9097 11.6725,19.8987 11.6855,19.8807 L11.8405,19.6827 C13.7315,17.2667 17.2495,12.7697 17.2495,7.0197 C17.2495,6.0977 17.0915,5.2137 16.8115,4.3857 Z M9,10 C10.656,10 12,8.657 12,7 C12,5.343 10.656,4 9,4 C7.344,4 6,5.343 6,7 C6,8.657 7.344,10 9,10 Z"/></svg>
