<svg xmlns="http://www.w3.org/2000/svg" xlink="http://www.w3.org/1999/xlink" width="16" height="16" viewBox="0 0 16 16"><path d="M12,5.091 C12,2.273 9.727,0 7,0 C4.273,0 2,2.273 2,5.091 C2,7.545 3.455,10 4.636,11.818 C5.636,13.273 6.417,14 7,14 C7.583,14 8.364,13.273 9.364,11.818 C10.545,10.091 12,7.545 12,5.091 M7,7 C5.896,7 5,6.105 5,5 C5,3.895 5.896,3 7,3 C8.104,3 9,3.895 9,5 C9,6.105 8.104,7 7,7 M13.237,3.249 C13.405,3.835 13.5,4.451 13.5,5.091 C13.5,7.337 12.552,9.814 10.6,12.668 C9.837,13.778 9.164,14.521 8.517,14.97 C9.107,15.651 9.601,16 10,16 C10.583,16 11.364,15.273 12.364,13.818 C13.545,12.091 15,9.545 15,7.091 C15,5.546 14.303,4.182 13.237,3.249"/></svg>
