<svg xmlns="http://www.w3.org/2000/svg" xlink="http://www.w3.org/1999/xlink" width="12" height="12" viewBox="0 0 12 12"><path d="M4.5,0 C6.434,0 8,1.571 8,3.509 C8,6.875 6,9.437 4.944,10.735 C4.823,10.885 4.659,10.967 4.5,10.979 C4.341,10.967 4.177,10.885 4.056,10.735 C3,9.437 1,6.875 1,3.509 C1,1.571 2.566,0 4.5,0 Z M4.5,5 C5.328,5 6,4.328 6,3.5 C6,2.672 5.328,2 4.5,2 C3.672,2 3,2.672 3,3.5 C3,4.328 3.672,5 4.5,5 Z M8.6436,1.2285 C10.0116,1.7055 10.9996,2.9965 10.9996,4.5305 C10.9996,7.8965 8.9996,10.4585 7.9446,11.7565 C7.8236,11.9065 7.6596,11.9885 7.4996,11.9995 C7.3406,11.9885 7.1766,11.9065 7.0556,11.7565 C6.8646,11.5215 6.6366,11.2295 6.4006,10.9135 C7.5186,9.4735 9.2496,6.8805 9.2496,3.5085 C9.2496,2.6785 9.0176,1.9095 8.6436,1.2285 Z"/></svg>
