<svg xmlns="http://www.w3.org/2000/svg" width="12" height="12" viewBox="0 0 12 12"><path fill="red" fill-rule="evenodd" d="M5.996 1.801s-3.75 0-4.692.245a1.55 1.55 0 00-1.06 1.067C0 4.054 0 6.003 0 6.003s0 1.958.245 2.884c.14.511.548.92 1.06 1.06.948.252 4.691.252 4.691.252s3.758 0 4.7-.245c.51-.14.918-.54 1.052-1.06C12 7.961 12 6.011 12 6.011s.007-1.957-.252-2.898a1.482 1.482 0 00-1.053-1.052c-.94-.26-4.699-.26-4.699-.26z"/><path fill="#FFF" fill-rule="nonzero" d="M7.923 6.004l-3.12-1.801v3.594z"/></svg>