<svg width="32" height="24" viewBox="0 0 32 24" fill="none" xmlns="http://www.w3.org/2000/svg">
  <path d="M32 21.82c0 1.2-.9 2.18-2 2.18H2c-1.1 0-2-.98-2-2.18V2.18C0 .98.9 0 2 0h28c1.1 0 2 .98 2 2.18v19.64Z" fill="#1D2832"/>
  <path d="M16 7.5A6.02 6.02 0 0 0 6 12a6.02 6.02 0 0 0 10 4.5v-9Z" fill="#ED0006"/>
  <path d="M20 6c-1.5 0-2.9.6-4 1.5v8.9a6.02 6.02 0 0 0 10-4.5C26 8.6 23.3 6 20 6Z" fill="#F9A001"/>
  <path d="M14 12c0 1.8.8 3.4 2 4.5 1.2-1.1 2-2.7 2-4.5 0-1.8-.8-3.4-2-4.5-1.2 1.1-2 2.7-2 4.5Z" fill="#FF5E00"/>
</svg>
