<svg xmlns="http://www.w3.org/2000/svg" xlink="http://www.w3.org/1999/xlink" width="22" height="22" viewBox="0 0 22 22"><path d="M10.9997,0.9997 C16.5237,0.9997 20.9997,5.4767 20.9997,10.9997 C20.9997,16.5227 16.5237,20.9997 10.9997,20.9997 C5.4767,20.9997 0.9997,16.5227 0.9997,10.9997 C0.9997,5.4767 5.4767,0.9997 10.9997,0.9997 Z M13.2197,10.6807 C13.9707,10.1307 15.2497,9.3767 15.2497,7.4997 C15.2497,5.4067 13.3927,3.9997 10.9997,3.9997 C8.7937,3.9997 6.7497,5.7947 6.7497,7.9997 L9.2497,7.9997 C9.2497,6.8967 9.8977,5.9997 10.9997,5.9997 C11.6017,5.9997 12.4997,6.3807 12.4997,7.4997 C12.4997,8.3627 12.3317,8.6507 11.6717,9.1347 C10.8107,9.7647 9.7497,10.5597 9.7497,12.9997 L11.9997,12.9997 C11.9997,11.5747 12.4857,11.2187 13.2197,10.6807 Z M10.9997,17.6247 C11.8977,17.6247 12.6247,16.8977 12.6247,15.9997 C12.6247,15.1027 11.8977,14.3747 10.9997,14.3747 C10.1027,14.3747 9.3747,15.1027 9.3747,15.9997 C9.3747,16.8977 10.1027,17.6247 10.9997,17.6247 Z"/></svg>
