<svg xmlns="http://www.w3.org/2000/svg" xlink="http://www.w3.org/1999/xlink" width="16" height="16" viewBox="0 0 16 16"><path d="M8.0001,-0.0005 C12.4181,-0.0005 16.0001,3.5815 16.0001,7.9995 C16.0001,12.4185 12.4181,15.9995 8.0001,15.9995 C3.5821,15.9995 0.0001,12.4185 0.0001,7.9995 C0.0001,3.5815 3.5821,-0.0005 8.0001,-0.0005 Z M9.9531,8.0825 C10.8481,7.4945 11.5001,6.7955 11.5001,5.6655 C11.5001,3.8615 9.9951,2.4995 8.0001,2.4995 C6.0701,2.4995 4.5001,4.0705 4.5001,5.9995 L6.5001,5.9995 C6.5001,5.1725 7.1731,4.3305 8.0001,4.3305 C8.7231,4.3305 9.3651,4.8645 9.3651,5.6655 C9.3651,5.9785 9.0911,6.3955 8.6581,6.8365 C7.9191,7.5895 7.0001,7.8945 7.0001,9.9995 L9.0001,9.9995 C9.0001,9.3875 9.0581,8.6705 9.9531,8.0825 Z M8.0001,13.2495 C8.6901,13.2495 9.2501,12.6905 9.2501,11.9995 C9.2501,11.3095 8.6901,10.7495 8.0001,10.7495 C7.3091,10.7495 6.7501,11.3095 6.7501,11.9995 C6.7501,12.6905 7.3091,13.2495 8.0001,13.2495 Z"/></svg>
