<svg xmlns="http://www.w3.org/2000/svg" xlink="http://www.w3.org/1999/xlink" width="12" height="12" viewBox="0 0 12 12"><path d="M7.4824,5.8589 C6.9004,6.2059 6.6604,6.6539 6.6604,6.9999 L5.2504,6.9999 C5.2504,6.0699 5.6624,5.6239 6.1984,5.1999 C6.7344,4.7759 7.0004,4.4069 7.0004,4.0469 C7.0004,3.5639 6.8714,2.9999 6.0004,2.9999 C5.3104,2.9999 4.7504,3.8109 4.7504,4.4999 L3.2504,4.4999 C3.2504,2.9839 4.4834,1.7499 6.0004,1.7499 C7.7214,1.7499 8.5004,2.7409 8.5004,3.9999 C8.5004,5.0349 8.0644,5.5119 7.4824,5.8589 M6.0004,9.9999 C5.4474,9.9999 5.0004,9.5519 5.0004,8.9999 C5.0004,8.4479 5.4474,7.9999 6.0004,7.9999 C6.5524,7.9999 7.0004,8.4479 7.0004,8.9999 C7.0004,9.5519 6.5524,9.9999 6.0004,9.9999 M6.0004,-0.0001 C2.6864,-0.0001 0.0004,2.6869 0.0004,5.9999 C0.0004,9.3139 2.6864,11.9999 6.0004,11.9999 C9.3134,11.9999 12.0004,9.3139 12.0004,5.9999 C12.0004,2.6869 9.3134,-0.0001 6.0004,-0.0001"/></svg>
