<svg xmlns="http://www.w3.org/2000/svg" xlink="http://www.w3.org/1999/xlink" width="22" height="22" viewBox="0 0 22 22"><path d="M18.4998,1 C19.8808,1 20.9998,2.119 20.9998,3.5 L20.9998,18.5 C20.9998,19.881 19.8808,21 18.4998,21 L3.4998,21 C2.1188,21 0.9998,19.881 0.9998,18.5 L0.9998,3.5 C0.9998,2.119 2.1188,1 3.4998,1 L18.4998,1 Z M18.7998,16 L18.7998,4 C18.7998,3.008 17.9918,2.2 16.9998,2.2 L4.9998,2.2 C4.0078,2.2 3.1998,3.008 3.1998,4 L3.1998,16 C3.1998,16.992 4.0078,17.8 4.9998,17.8 L16.9998,17.8 C17.9918,17.8 18.7998,16.992 18.7998,16 Z M17,2.8 C17.662,2.8 18.2,3.338 18.2,4 L18.2,16 C18.2,16.662 17.662,17.2 17,17.2 L5,17.2 C4.338,17.2 3.8,16.662 3.8,16 L3.8,4 C3.8,3.338 4.338,2.8 5,2.8 L17,2.8 Z M12,7 L12,5 L10,5 L10,7 L8,7 L8,5 L6,5 L6,7 L6,9 L6,11 L8,11 L8,9 L10,9 L10,11 L12,11 L12,9 L12,7 Z"/></svg>
