<svg xmlns="http://www.w3.org/2000/svg" xlink="http://www.w3.org/1999/xlink" width="16" height="16" viewBox="0 0 16 16"><path d="M14,0 L2,0 C0.9,0 0,0.9 0,2 L0,14 C0,15.1 0.9,16 2,16 L14,16 C15.1,16 16,15.1 16,14 L16,2 C16,0.9 15.1,0 14,0 L14,0 Z M14.75,12.5 C14.75,13.19 14.19,13.75 13.5,13.75 L2.5,13.75 C1.81,13.75 1.25,13.19 1.25,12.5 L1.25,2.5 C1.25,1.81 1.81,1.25 2.5,1.25 L13.5,1.25 C14.19,1.25 14.75,1.81 14.75,2.5 L14.75,12.5 Z M13.5,1.75 L2.5,1.75 C2.087,1.75 1.75,2.087 1.75,2.5 L1.75,12.5 C1.75,12.913 2.087,13.25 2.5,13.25 L13.5,13.25 C13.913,13.25 14.25,12.913 14.25,12.5 L14.25,2.5 C14.25,2.087 13.913,1.75 13.5,1.75 L13.5,1.75 Z M9,9 L7,9 L7,7 L5,7 L5,9 L3,9 L3,3 L5,3 L5,5 L7,5 L7,3 L9,3 L9,9 Z"/></svg>
