<svg xmlns="http://www.w3.org/2000/svg" xlink="http://www.w3.org/1999/xlink" width="12" height="12" viewBox="0 0 12 12"><path d="M10,-0.0002 C11.104,-0.0002 12,0.8958 12,1.9998 L12,9.9998 C12,11.1048 11.104,11.9998 10,11.9998 L2,11.9998 C0.896,11.9998 0,11.1048 0,9.9998 L0,1.9998 C0,0.8958 0.896,-0.0002 2,-0.0002 L10,-0.0002 Z M10.75,8.8438 L10.75,2.1568 C10.75,1.6568 10.344,1.2498 9.844,1.2498 L2.156,1.2498 C1.656,1.2498 1.25,1.6568 1.25,2.1568 L1.25,8.8438 C1.25,9.3438 1.656,9.7498 2.156,9.7498 L9.844,9.7498 C10.344,9.7498 10.75,9.3438 10.75,8.8438 Z M9.844,1.75 C10.067,1.75 10.25,1.933 10.25,2.156 L10.25,8.844 C10.25,9.067 10.067,9.25 9.844,9.25 L2.156,9.25 C1.933,9.25 1.75,9.067 1.75,8.844 L1.75,2.156 C1.75,1.933 1.933,1.75 2.156,1.75 L9.844,1.75 Z M7,7 L7,3 L5.666,3 L5.666,4.333 L4.334,4.333 L4.334,3 L3,3 L3,7 L4.334,7 L4.334,5.667 L5.666,5.667 L5.666,7 L7,7 Z"/></svg>
