<svg xmlns="http://www.w3.org/2000/svg" xlink="http://www.w3.org/1999/xlink" width="22" height="22" viewBox="0 0 22 22"><path d="M19.416,1.1953 C20.074,0.7133 21,1.1783 21,1.9983 L21,19.0023 C21,19.8213 20.074,20.2873 19.416,19.8043 C17.006,18.0423 14,15.0003 8,15.0003 L8,6.0003 C14,6.0003 17.006,2.9583 19.416,1.1953 Z M5,14.3906 L6.92,20.0156 C7.188,20.7996 6.768,21.6526 5.984,21.9196 C5.824,21.9746 5.66,21.9996 5.5,21.9996 C4.875,21.9996 4.293,21.6086 4.08,20.9846 L1.693,13.9926 C0.669,13.1666 0,11.9176 0,10.4996 C0,8.0146 2.015,5.9996 4.5,5.9996 L5,5.9996 L5,14.3906 Z"/></svg>
