<svg xmlns="http://www.w3.org/2000/svg" xlink="http://www.w3.org/1999/xlink" width="16" height="16" viewBox="0 0 16 16"><path d="M15.2021,1.1005 C15.5301,0.8545 16.0001,1.0885 16.0001,1.4995 L16.0001,14.5005 C16.0001,14.9115 15.5301,15.1465 15.2021,14.8995 L12.1331,12.5985 C10.7481,11.5615 9.0641,10.9995 7.3351,10.9995 L7.0001,10.9995 L7.0001,4.9995 L7.3351,4.9995 C9.0641,4.9995 10.7481,4.4395 12.1331,3.4015 L15.2021,1.1005 Z M5,10.9999 L6.228,14.6839 C6.402,15.2079 6.119,15.7739 5.596,15.9479 C5.49,15.9829 5.384,15.9999 5.279,15.9999 C4.86,15.9999 4.471,15.7349 4.331,15.3159 L2.806,10.7399 C1.577,10.1999 0.768,8.8669 1.06,7.3959 C1.343,5.9719 2.681,4.9999 4.132,4.9999 L5,4.9999 L5,10.9999 Z"/></svg>
