<svg xmlns="http://www.w3.org/2000/svg" xlink="http://www.w3.org/1999/xlink" width="12" height="12" viewBox="0 0 12 12"><path d="M11.0586,0.1602 C11.4086,-0.1818 11.9996,0.0592 11.9996,0.5432 L11.9996,10.4562 C11.9996,10.9402 11.4086,11.1812 11.0586,10.8402 C9.8696,9.6782 7.6556,8.0002 4.9996,8.0002 L4.9996,3.0002 C7.6556,3.0002 9.8696,1.3222 11.0586,0.1602 Z M3,8 L3.953,10.87 C4.107,11.313 3.873,11.798 3.43,11.953 C3.338,11.985 3.242,12 3.15,12 C2.799,12 2.469,11.78 2.348,11.43 L0.961,7.457 C0.381,6.999 0,6.297 0,5.5 C0,4.119 1.119,3 2.5,3 C2.672,3 2.838,2.967 3,3 L3,8 Z"/></svg>
