<svg xmlns="http://www.w3.org/2000/svg" width="24" height="24" viewBox="0 0 24 24"><path d="M19.4 1.279a.427.427 0 0 0-.8 0l-.812 2.194a.533.533 0 0 1-.316.315L15.28 4.6a.427.427 0 0 0 0 .8l2.194.812c.146.054.26.17.315.316L18.6 8.72a.427.427 0 0 0 .8 0l.812-2.194a.533.533 0 0 1 .316-.315L22.72 5.4a.427.427 0 0 0 0-.8l-2.194-.812a.533.533 0 0 1-.315-.315L19.4 1.279Z"/><path d="M21 10.835V17a1 1 0 0 1-1 1H2a1 1 0 0 1-1-1V4a1 1 0 0 1 1-1h11v2H3v11h16v-5.165h2ZM3 22a1 1 0 1 0 0-2H2a1 1 0 1 0 0 2h1ZM12 21a1 1 0 0 1-1 1H7a1 1 0 1 1 0-2h4a1 1 0 0 1 1 1ZM20 22a1 1 0 1 0 0-2h-5a1 1 0 1 0 0 2h5Z"/></svg>