<svg xmlns="http://www.w3.org/2000/svg" width="16" height="16" viewBox="0 0 16 16"><path d="M13.375.261a.4.4 0 0 0-.75 0l-.574 1.552a.4.4 0 0 1-.236.237l-1.552.574a.4.4 0 0 0 0 .75l1.552.575a.4.4 0 0 1 .236.236l.574 1.552a.4.4 0 0 0 .75 0l.575-1.552a.4.4 0 0 1 .236-.236l1.552-.575a.4.4 0 0 0 0-.75l-1.552-.574a.4.4 0 0 1-.236-.237L13.375.261Z"/><path d="M15.002 8.116V11a1 1 0 0 1-1 1h-12a1 1 0 0 1-1-1V2a1 1 0 0 1 1-1h6v2h-5v7h10V8.116h2ZM3 15.002a1 1 0 1 1-2 0 1 1 0 0 1 2 0ZM7.001 16.003a1 1 0 0 0 0-2h-1a1 1 0 0 0 0 2h1ZM15.002 15a1 1 0 0 1-1 1h-3a1 1 0 1 1 0-2h3a1 1 0 0 1 1 1Z"/></svg>