<svg width="16" height="16" viewBox="0 0 16 16" xmlns="http://www.w3.org/2000/svg"><path fill-rule="evenodd" clip-rule="evenodd" d="M2 1a1 1 0 0 1 1-1h10a1 1 0 1 1 0 2v1.172a3 3 0 0 1-.879 2.121L9.414 8l2.707 2.707A3 3 0 0 1 13 12.828V14a1 1 0 1 1 0 2H3a1 1 0 1 1 0-2v-1.172a3 3 0 0 1 .879-2.121L6.586 8 3.879 5.293A3 3 0 0 1 3 3.172V2a1 1 0 0 1-1-1Zm7.883 13C9.456 13.016 8 12 8 12s-1.456 1.016-1.883 2H5v-1.172a1 1 0 0 1 .293-.707L8 9.414l2.707 2.707a1 1 0 0 1 .293.707V14H9.883ZM5 2h6v1.172a1 1 0 0 1-.293.707L8 6.586 5.293 3.879A1 1 0 0 1 5 3.172V2Z"/></svg>