<svg width="16" height="16" viewBox="0 0 16 16" fill="none" xmlns="http://www.w3.org/2000/svg"><path d="M1.032 11.807c-.155.254-.33.549-.465.783a.48.48 0 0 0 .16.652l3.105 1.916a.477.477 0 0 0 .662-.163c.121-.209.282-.48.456-.769 1.23-2.036 2.47-1.787 4.699-.719l3.079 1.469a.475.475 0 0 0 .642-.24l1.479-3.353a.48.48 0 0 0-.24-.627c-.649-.307-1.941-.92-3.104-1.48C7.31 7.23 3.753 7.365 1.032 11.807Z" fill="url(#a)"/><path d="M14.956 4.191c.155-.254.33-.55.478-.783a.48.48 0 0 0-.162-.651L12.166.84a.476.476 0 0 0-.659.163c-.124.208-.284.479-.459.768-1.23 2.036-2.467 1.787-4.698.719L3.26 1.03a.477.477 0 0 0-.64.24L1.142 4.622a.48.48 0 0 0 .24.628c.649.306 1.944.917 3.104 1.48 4.193 2.028 7.75 1.894 10.47-2.539Z" fill="url(#b)"/><defs><linearGradient id="a" x1="14.756" y1="16.14" x2="5.349" y2="10.746" gradientUnits="userSpaceOnUse"><stop stop-color="#0050D3"/><stop offset=".94" stop-color="#007FFC"/><stop offset="1" stop-color="#0082FF"/></linearGradient><linearGradient id="b" x1="1.233" y1="-.148" x2="10.64" y2="5.243" gradientUnits="userSpaceOnUse"><stop stop-color="#0050D3"/><stop offset=".94" stop-color="#007FFC"/><stop offset="1" stop-color="#0082FF"/></linearGradient></defs></svg>