<svg xmlns="http://www.w3.org/2000/svg" xlink="http://www.w3.org/1999/xlink" width="22" height="22" viewBox="0 0 22 22"><path d="M11,1 C16.523,1 21,5.478 21,11 C21,16.522 16.523,21 11,21 C5.477,21 1,16.522 1,11 C1,5.478 5.477,1 11,1 Z M11,18.5 C15.136,18.5 18.5,15.136 18.5,11 C18.5,6.864 15.136,3.5 11,3.5 C6.864,3.5 3.5,6.864 3.5,11 C3.5,15.136 6.864,18.5 11,18.5 Z M8.5,10 C7.672,10 7,9.328 7,8.5 C7,7.672 7.672,7 8.5,7 C9.328,7 10,7.672 10,8.5 C10,9.328 9.328,10 8.5,10 Z M13.5,7 C14.328,7 15,7.672 15,8.5 C15,9.328 14.328,10 13.5,10 C12.672,10 12,9.328 12,8.5 C12,7.672 12.672,7 13.5,7 Z M11,11.6699 C12.669,11.6699 14.15,12.7159 14.686,14.2729 C14.834,14.7059 14.604,15.1779 14.17,15.3269 C14.081,15.3579 13.99,15.3719 13.9,15.3719 C13.556,15.3719 13.233,15.1559 13.115,14.8119 C12.811,13.9259 11.961,13.3299 11,13.3299 C10.039,13.3299 9.189,13.9249 8.885,14.8109 C8.734,15.2449 8.259,15.4739 7.83,15.3259 C7.396,15.1769 7.166,14.7039 7.314,14.2719 C7.85,12.7149 9.331,11.6699 11,11.6699 Z"/></svg>
