<svg xmlns="http://www.w3.org/2000/svg" xlink="http://www.w3.org/1999/xlink" width="12" height="12" viewBox="0 0 12 12"><path d="M6,0 C9.313,0 12,2.687 12,6 C12,9.313 9.313,12 6,12 C2.687,12 0,9.313 0,6 C0,2.687 2.687,0 6,0 Z M6,11 C8.757,11 11,8.757 11,6 C11,3.243 8.757,1 6,1 C3.243,1 1,3.243 1,6 C1,8.757 3.243,11 6,11 Z M6,6 C7.654,6 9,7.346 9,9 L8,9 C8,7.897 7.103,7 6,7 C4.897,7 4,7.897 4,9 L3,9 C3,7.346 4.346,6 6,6 Z M4,5 C3.447,5 3,4.552 3,4 C3,3.448 3.447,3 4,3 C4.553,3 5,3.448 5,4 C5,4.552 4.553,5 4,5 Z M8,3 C8.553,3 9,3.448 9,4 C9,4.552 8.553,5 8,5 C7.447,5 7,4.552 7,4 C7,3.448 7.447,3 8,3 Z"/></svg>
