<svg xmlns="http://www.w3.org/2000/svg" width="22" height="22" viewBox="0 0 22 22"><path d="M11 1c5.523 0 10 4.478 10 10s-4.477 10-10 10C5.476 21 1 16.522 1 11S5.476 1 11 1zm.154 10.762l-2.6 7.561a8.506 8.506 0 002.446.354 8.781 8.781 0 002.884-.492l-.062-.116-2.668-7.307zM3.077 7.469A8.646 8.646 0 002.323 11c0 3.438 2 6.4 4.892 7.808zm15.538-.63a8.173 8.173 0 01-.6 3.999L15.361 18.5a8.675 8.675 0 003.254-11.661zM11 2.323A8.667 8.667 0 003.754 6.23l.553.016c.813 0 2.019-.092 2.264-.111l.044-.004c.477-.024.531.661.061.715 0 0-.469.061-.999.085l3.168 9.4 1.901-5.692-1.354-3.708a15.364 15.364 0 01-.908-.077c-.469-.031-.415-.747.055-.723 0 0 1.43.115 2.284.115.812 0 2.019-.092 2.264-.111l.044-.004c.468-.024.531.661.061.715 0 0-.47.054-1 .085l3.14 9.331.868-2.893c.37-1.2.653-2.061.653-2.807 0-1.078-.385-1.816-.707-2.385-.447-.723-.854-1.331-.854-2.038 0-.8.6-1.539 1.462-1.539h.107a8.643 8.643 0 00-5.86-2.277z"/></svg>