<svg xmlns="http://www.w3.org/2000/svg" width="16" height="16" viewBox="0 0 16 16"><path d="M8 0a8 8 0 110 16A8 8 0 018 0zm.123 8.609l-2.08 6.049A6.788 6.788 0 008 14.941c.806 0 1.582-.141 2.307-.393l-.049-.093-2.135-5.846zm-6.46-3.433A6.887 6.887 0 001.057 8c0 2.751 1.6 5.12 3.914 6.246zm12.43-.505a6.553 6.553 0 01-.48 3.2L11.488 14a6.938 6.938 0 003.452-6 6.907 6.907 0 00-.849-3.329zM8 1.059a6.933 6.933 0 00-5.797 3.126l.443.012c.726 0 1.846-.093 1.846-.093.382-.018.425.53.05.573 0 0-.376.05-.8.067l2.535 7.521 1.52-4.554-1.083-2.967a11.58 11.58 0 01-.726-.061c-.376-.025-.333-.597.043-.579 0 0 1.145.093 1.827.093.726 0 1.847-.093 1.847-.093.375-.018.424.53.05.573 0 0-.376.043-.8.067l2.51 7.465.695-2.313c.295-.96.523-1.65.523-2.247 0-.861-.308-1.452-.566-1.908-.357-.578-.684-1.064-.684-1.631 0-.639.481-1.23 1.17-1.23h.086A6.917 6.917 0 008 1.059z"/></svg>