<svg xmlns="http://www.w3.org/2000/svg" width="12" height="12" viewBox="0 0 12 12"><path d="M6 0a6 6 0 11-6 6 6 6 0 016-6zm.089 6.438l-1.5 4.358c.445.132.919.204 1.41.204.58 0 1.14-.102 1.663-.283l-.035-.067-1.538-4.212zM1.435 3.965A4.99 4.99 0 003.819 10.5zm8.954-.364a4.73 4.73 0 01-.346 2.306l-1.53 4.415a5.002 5.002 0 001.876-6.72zm-4.39-2.6a4.993 4.993 0 00-4.174 2.251l.319.008c.522 0 1.329-.066 1.329-.066.275-.014.307.381.036.412 0 0-.27.035-.576.05l1.826 5.416 1.095-3.28-.78-2.137a8.285 8.285 0 01-.523-.045c-.27-.017-.24-.43.03-.416 0 0 .826.066 1.318.066.522 0 1.33-.066 1.33-.066.269-.014.305.381.035.412 0 0-.271.031-.576.05l1.808 5.376.5-1.667c.213-.69.377-1.188.377-1.618 0-.62-.22-1.046-.407-1.374-.258-.417-.493-.767-.493-1.175 0-.46.347-.887.843-.887h.062A4.985 4.985 0 006 1.001z"/></svg>