<svg xmlns="http://www.w3.org/2000/svg" xlink="http://www.w3.org/1999/xlink" width="22" height="22" viewBox="0 0 22 22"><path d="M18.195,1.0003 C19.742,1.0003 21,2.2583 21,3.8043 L21,14.1953 C21,15.7413 19.742,17.0003 18.195,17.0003 L7.805,17.0003 C6.258,17.0003 5,15.7413 5,14.1953 L5,3.8043 C5,2.2583 6.258,1.0003 7.805,1.0003 L18.195,1.0003 Z M19,14.1953 L19,3.8043 C19,3.3613 18.639,3.0003 18.195,3.0003 L7.805,3.0003 C7.361,3.0003 7,3.3613 7,3.8043 L7,14.1953 C7,14.6393 7.361,15.0003 7.805,15.0003 L18.195,15.0003 C18.639,15.0003 19,14.6393 19,14.1953 Z M14,18.1953 L14,18.0003 L16,18.0003 L16,18.1953 C16,19.7413 14.742,21.0003 13.195,21.0003 L3.805,21.0003 C2.258,21.0003 1,19.7413 1,18.1953 L1,8.8043 C1,7.2583 2.258,6.0003 3.805,6.0003 L4,6.0003 L4,8.0003 L3.805,8.0003 C3.361,8.0003 3,8.3613 3,8.8043 L3,18.1953 C3,18.6393 3.361,19.0003 3.805,19.0003 L13.195,19.0003 C13.639,19.0003 14,18.6393 14,18.1953 Z M14,5 L14,8 L17,8 L17,10 L14,10 L14,13 L12,13 L12,10 L9,10 L9,8 L12,8 L12,5 L14,5 Z"/></svg>
