<svg xmlns="http://www.w3.org/2000/svg" xlink="http://www.w3.org/1999/xlink" width="16" height="16" viewBox="0 0 16 16"><path d="M13.502,1.0004 C14.879,1.0004 16,2.1204 16,3.4974 L16,10.5024 C16,11.8794 14.879,13.0004 13.502,13.0004 L6.498,13.0004 C5.121,13.0004 4,11.8794 4,10.5024 L4,3.4974 C4,2.1204 5.121,1.0004 6.498,1.0004 L13.502,1.0004 Z M14,10.5024 L14,3.4974 C14,3.2234 13.776,3.0004 13.502,3.0004 L6.498,3.0004 C6.224,3.0004 6,3.2234 6,3.4974 L6,10.5024 C6,10.7764 6.224,11.0004 6.498,11.0004 L13.502,11.0004 C13.776,11.0004 14,10.7764 14,10.5024 Z M11,4 L11,6 L13,6 L13,8 L11,8 L11,10 L9,10 L9,8 L7,8 L7,6 L9,6 L9,4 L11,4 Z M7,14 L10.502,14 L12.949,14 C12.719,15.14 11.709,16 10.502,16 L3.498,16 C2.121,16 1,14.879 1,13.502 L1,6.498 C1,5.291 1.861,4.282 3,4.05 L3,6.498 L3,11 L3,13.502 C3,13.777 3.224,14 3.498,14 L7,14 Z"/></svg>
