<svg xmlns="http://www.w3.org/2000/svg" xlink="http://www.w3.org/1999/xlink" width="12" height="12" viewBox="0 0 12 12"><path d="M10.5,0 C11.328,0 12,0.672 12,1.5 L12,8.5 C12,9.328 11.328,10 10.5,10 L3.5,10 C2.672,10 2,9.328 2,8.5 L2,1.5 C2,0.672 2.672,0 3.5,0 L10.5,0 Z M11,8.5 L11,1.5 C11,1.225 10.775,1 10.5,1 L3.5,1 C3.225,1 3,1.225 3,1.5 L3,8.5 C3,8.775 3.225,9 3.5,9 L10.5,9 C10.775,9 11,8.775 11,8.5 Z M1.5,11 L9.908,11 C9.701,11.581 9.152,12 8.5,12 L1.5,12 C0.672,12 0,11.328 0,10.5 L0,3.5 C0,2.848 0.419,2.299 1,2.092 L1,10.5 C1,10.775 1.225,11 1.5,11 Z M8,2 L8,4 L10,4 L10,6 L8,6 L8,8 L6,8 L6,6 L4,6 L4,4 L6,4 L6,2 L8,2 Z"/></svg>
