<svg width="240" height="240" viewBox="0 0 240 240" fill="none" xmlns="http://www.w3.org/2000/svg">
<g id="access denied">
<g id="error_pic_access_denied">
<g id="sign">
<g id="sign_pillar">
<path id="shadow" d="M184 112.3L172 123V35.5H184V112.3Z" fill="#EEF0F1"/>
<rect id="pillar_left" x="172" y="36" width="4" height="204" fill="#CBD1D3"/>
<path id="pillar_right2" d="M180 83H184V204C184 205.105 183.105 206 182 206C180.895 206 180 205.105 180 204V83Z" fill="#CBD1D3"/>
<path id="pillar_right1" d="M180 215C180 213.895 180.895 213 182 213V213C183.105 213 184 213.895 184 215V236H180V215Z" fill="#CBD1D3"/>
<circle id="sign_circle" cx="178" cy="29" r="7" fill="white" stroke="#CBD1D3" stroke-width="4"/>
<path id="flag" d="M230.805 59.4194L230.629 60L230.805 60.5806L237.303 82H182V38H237.303L230.805 59.4194Z" stroke="#CBD1D3" stroke-width="4"/>
</g>
<g id="sign_lock">
<g id="Vector">
<path fill-rule="evenodd" clip-rule="evenodd" d="M199 57V71H217V57H199ZM196 53C195.448 53 195 53.4477 195 54V72C195 73.6569 196.343 75 198 75H218C219.657 75 221 73.6569 221 72V54C221 53.4477 220.552 53 220 53H196Z" fill="#CBD1D3"/>
<path fill-rule="evenodd" clip-rule="evenodd" d="M213 53V52C213 49.2386 210.761 47 208 47C205.239 47 203 49.2386 203 52V53H213ZM208 43C203.029 43 199 47.0294 199 52V57H217V52C217 47.0294 212.971 43 208 43Z" fill="#CBD1D3"/>
</g>
<path id="Vector_2" d="M206.293 63.99L205.838 68.087C205.815 68.2909 205.881 68.4954 206.017 68.6485C206.154 68.8015 206.35 68.889 206.556 68.889H209.444C209.65 68.889 209.846 68.8015 209.983 68.6485C210.119 68.4955 210.185 68.2909 210.162 68.087L209.707 63.99C210.447 63.4519 210.889 62.6006 210.889 61.6667C210.889 60.0735 209.593 58.7778 208 58.7778C206.407 58.7778 205.111 60.0735 205.111 61.6667C205.111 62.6006 205.553 63.4519 206.293 63.99Z" fill="#CBD1D3"/>
</g>
</g>
<g id="road">
<rect id="road_3" x="232" y="236" width="8" height="4" rx="2" fill="#CBD1D3"/>
<path id="road_2" d="M166 238C166 236.895 166.895 236 168 236H226C227.105 236 228 236.895 228 238C228 239.105 227.105 240 226 240H168C166.895 240 166 239.105 166 238Z" fill="#CBD1D3"/>
<path id="road_1" d="M0 238C0 236.895 0.895431 236 2 236H158C159.105 236 160 236.895 160 238C160 239.105 159.105 240 158 240H2C0.895429 240 0 239.105 0 238Z" fill="#CBD1D3"/>
</g>
<g id="rover">
<g id="connector">
<path id="Vector_3" d="M52 168H48V186H52V168Z" fill="#CBD1D3"/>
<path id="Vector_4" d="M124 168H120V186H124V168Z" fill="#CBD1D3"/>
</g>
<path id="wheelConnector" fill-rule="evenodd" clip-rule="evenodd" d="M33 192C33 188.686 35.6863 186 39 186H131C134.314 186 137 188.686 137 192V198H133V192C133 190.895 132.105 190 131 190H87V198H83V190H39C37.8954 190 37 190.895 37 192V198H33V192Z" fill="#CBD1D3"/>
<g id="wheel1">
<path id="Vector_5" d="M51 216C51 224.837 43.8366 232 35 232C26.1634 232 19 224.837 19 216C19 207.163 26.1634 200 35 200C43.8366 200 51 207.163 51 216Z" fill="white"/>
<path id="Vector_6" fill-rule="evenodd" clip-rule="evenodd" d="M44.9983 198.682C35.4341 193.16 23.2043 196.437 17.6824 206.002C12.1605 215.566 15.4374 227.796 25.0017 233.318C34.5659 238.84 46.7957 235.563 52.3176 225.998C57.8395 216.434 54.5626 204.204 44.9983 198.682ZM30.6706 213.5C32.0511 211.109 35.1085 210.29 37.4996 211.671C39.8906 213.051 40.7099 216.109 39.3294 218.5C37.9489 220.891 34.8915 221.71 32.5004 220.329C30.1094 218.949 29.2901 215.891 30.6706 213.5ZM21.1459 208.001C16.7284 215.653 19.3499 225.437 27.0013 229.854C34.6527 234.272 44.4366 231.65 48.8541 223.999C52.933 216.934 51.0106 208.051 44.6685 203.253L41.1195 209.4C44.1353 212.191 44.9342 216.791 42.7929 220.499C40.3081 224.803 34.8047 226.278 30.5008 223.793C26.1968 221.308 24.7222 215.805 27.2071 211.501C29.3483 207.792 33.7309 206.184 37.656 207.4L41.205 201.253C33.8789 198.16 25.2248 200.936 21.1459 208.001Z" fill="#CBD1D3"/>
<path id="Vector_7" d="M30.6699 213.5C32.0506 211.109 35.1085 210.289 37.5 211.67C39.8914 213.051 40.7108 216.109 39.3301 218.5C37.9494 220.891 34.8914 221.711 32.5 220.33C30.1085 218.949 29.2891 215.891 30.6699 213.5Z" fill="#EEF0F1"/>
</g>
<g id="wheel2">
<path id="Vector_8" d="M101 216C101 224.837 93.8366 232 85 232C76.1634 232 69 224.837 69 216C69 207.163 76.1634 200 85 200C93.8366 200 101 207.163 101 216Z" fill="white"/>
<path id="Vector_9" fill-rule="evenodd" clip-rule="evenodd" d="M99.1421 230.142C106.953 222.332 106.953 209.668 99.1421 201.858C91.3316 194.047 78.6683 194.047 70.8579 201.858C63.0474 209.668 63.0474 222.332 70.8579 230.142C78.6683 237.953 91.3316 237.953 99.1421 230.142ZM88.5355 212.464C90.4882 214.417 90.4882 217.583 88.5355 219.536C86.5829 221.488 83.4171 221.488 81.4645 219.536C79.5118 217.583 79.5118 214.417 81.4645 212.464C83.4171 210.512 86.5829 210.512 88.5355 212.464ZM96.3137 204.686C90.0653 198.438 79.9347 198.438 73.6863 204.686C67.4379 210.935 67.4379 221.065 73.6863 227.314C79.4557 233.083 88.5351 233.525 94.812 228.64L89.792 223.62C86.3149 225.811 81.6647 225.393 78.636 222.364C75.1213 218.849 75.1213 213.151 78.636 209.636C82.1508 206.121 87.8492 206.121 91.364 209.636C94.3926 212.665 94.8115 217.315 92.6205 220.792L97.6404 225.812C102.525 219.535 102.083 210.456 96.3137 204.686Z" fill="#CBD1D3"/>
<path id="Vector_10" d="M90 216C90 218.761 87.7614 221 85 221C82.2386 221 80 218.761 80 216C80 213.239 82.2386 211 85 211C87.7614 211 90 213.239 90 216Z" fill="#EEF0F1"/>
</g>
<g id="wheel3">
<path id="Vector_11" d="M151 216C151 224.837 143.837 232 135 232C126.164 232 119 224.837 119 216C119 207.163 126.164 200 135 200C143.837 200 151 207.163 151 216Z" fill="white"/>
<path id="Vector_12" fill-rule="evenodd" clip-rule="evenodd" d="M120.858 230.142C128.668 237.953 141.332 237.953 149.142 230.142C156.953 222.332 156.953 209.668 149.142 201.858C141.332 194.047 128.668 194.047 120.858 201.858C113.047 209.668 113.047 222.332 120.858 230.142ZM138.536 219.536C136.583 221.488 133.417 221.488 131.464 219.536C129.512 217.583 129.512 214.417 131.464 212.464C133.417 210.512 136.583 210.512 138.536 212.464C140.488 214.417 140.488 217.583 138.536 219.536ZM146.314 227.314C152.562 221.065 152.562 210.935 146.314 204.686C140.065 198.438 129.935 198.438 123.686 204.686C117.917 210.456 117.475 219.535 122.36 225.812L127.38 220.792C125.189 217.315 125.607 212.665 128.636 209.636C132.151 206.121 137.849 206.121 141.364 209.636C144.879 213.151 144.879 218.849 141.364 222.364C138.335 225.393 133.685 225.811 130.208 223.62L125.188 228.64C131.465 233.525 140.544 233.083 146.314 227.314Z" fill="#CBD1D3"/>
<path id="Vector_13" d="M138.536 219.536C136.583 221.488 133.417 221.488 131.464 219.536C129.512 217.583 129.512 214.417 131.464 212.464C133.417 210.512 136.583 210.512 138.536 212.464C140.488 214.417 140.488 217.583 138.536 219.536Z" fill="#EEF0F1"/>
</g>
<g id="body">
<g id="ad head">
<g id="head 2">
<path id="Vector_14" d="M89 97H85V110H89V97Z" fill="#CBD1D3"/>
<path id="Vector_15" d="M100 97H96V110H100V97Z" fill="#CBD1D3"/>
<path id="Vector_16" d="M93 97H89V110H93V97Z" fill="#EBEBEB"/>
</g>
<g id="head 3">
<path id="Vector_17" fill-rule="evenodd" clip-rule="evenodd" d="M78 118C78 113.582 81.5817 110 86 110H99C103.418 110 107 113.582 107 118V129H103V118C103 115.791 101.209 114 99 114H86C83.7909 114 82 115.791 82 118V129H78V118Z" fill="#CBD1D3"/>
<path id="Vector_18" d="M82 118C82 115.791 83.7909 114 86 114H99C101.209 114 103 115.791 103 118V129H82V118Z" fill="white"/>
<path id="Vector_19" d="M82 118C82 115.791 83.7909 114 86 114H88.5C88.5 114 86.033 115 86.033 119.5C86.033 124 86 129 86 129H82V118Z" fill="#EBEBEB"/>
</g>
<g id="head 1">
<path id="Vector_20" fill-rule="evenodd" clip-rule="evenodd" d="M59 63C59 61.8954 59.8954 61 61 61H121C122.105 61 123 61.8954 123 63V95C123 96.105 122.105 97 121 97H61C59.8954 97 59 96.105 59 95V63ZM119 93V65H79V93H119Z" fill="#CBD1D3"/>
<path id="Vector_21" d="M119 65H79V93H119V65Z" fill="white"/>
<path id="Vector_22" d="M75 65H63V93H75V65Z" fill="#EEF0F1"/>
<g id="Group">
<path id="Vector_23" fill-rule="evenodd" clip-rule="evenodd" d="M119.794 82.9948C119.862 82.9983 119.931 83 120 83C122.209 83 124 81.2091 124 79C124 76.7909 122.209 75 120 75C119.926 75 119.853 75.002 119.78 75.006C117.673 75.1203 116 76.8648 116 79C116 81.1401 117.681 82.8877 119.794 82.9948ZM120 71C124.418 71 128 74.5817 128 79C128 83.4183 124.418 87 120 87H110C105.582 87 102 83.4183 102 79C102 74.5817 105.582 71 110 71H120ZM108.597 75.2531C107.08 75.8216 106 77.2847 106 79C106 80.7153 107.08 82.1784 108.597 82.7469C109.033 82.9105 109.506 83 110 83H113.07C112.39 81.8233 112 80.4571 112 79C112 77.5429 112.39 76.1767 113.07 75H110C109.506 75 109.033 75.0895 108.597 75.2531Z" fill="#CBD1D3"/>
<path id="Vector_24" fill-rule="evenodd" clip-rule="evenodd" d="M113.07 75H110C107.791 75 106 76.7909 106 79C106 81.2091 107.791 83 110 83H113.07C112.39 81.8233 112 80.4571 112 79C112 77.5429 112.39 76.1767 113.07 75Z" fill="#EEF0F1"/>
<path id="eye circle" d="M120 84C122.761 84 125 81.7614 125 79C125 76.2386 122.761 74 120 74C117.239 74 115 76.2386 115 79C115 81.7614 117.239 84 120 84Z" fill="#EEF0F1"/>
</g>
</g>
</g>
<path id="Vector_25" fill-rule="evenodd" clip-rule="evenodd" d="M45.6111 159.022C35.4974 149.76 42.1028 133 55.8666 133H15.1098C5.48124 133 0.428679 144.339 6.90907 151.403L26.7541 173.038C27.9002 174.288 29.5243 175 31.2272 175H67C64.466 175 62.025 174.053 60.163 172.348L45.6111 159.022Z" fill="#EEF0F1"/>
<path id="Vector_26" d="M45.82 159.022C35.8609 149.76 42.3653 133 55.9186 133H124.045C127.334 133 130 135.686 130 139V169C130 172.314 127.334 175 124.045 175H66.8818C64.3865 175 61.9828 174.053 60.1493 172.348L45.82 159.022Z" fill="white"/>
<path id="Vector_27" fill-rule="evenodd" clip-rule="evenodd" d="M3.93256 154.096C-4.82781 144.462 2.00238 129 15.0185 129L15.0171 120C15.0171 116.686 17.7014 114 21.0127 114H42.5116C44.1018 114 45.6268 114.632 46.7511 115.757L59.9841 129H124.007C129.526 129 134 133.477 134 139V169C134 174.523 129.526 179 124.007 179H30.9964C28.1827 179 25.4995 177.813 23.6058 175.73L3.93256 154.096ZM124.007 133H15.0185C5.47335 133 0.464536 144.339 6.88881 151.403L26.562 173.038C27.6982 174.288 29.3082 175 30.9964 175H47.9928V162C47.9928 158.686 50.6771 156 53.9884 156H101.477C102.446 156 103.401 156.235 104.259 156.685L120.723 165.315C122.699 166.351 123.937 168.399 123.937 170.63L124.007 175C127.319 175 130.003 172.314 130.003 169V139C130.003 135.686 127.319 133 124.007 133ZM42.5116 118H21.0127C19.9089 118 19.0142 118.895 19.0142 120V129H54.4881L43.9248 118.586C43.55 118.211 43.0417 118 42.5116 118ZM101.477 160H53.9884C52.8847 160 51.9899 160.895 51.9899 162V175H119.94V170.63C119.94 169.886 119.527 169.204 118.869 168.859L102.405 160.228C102.118 160.078 101.8 160 101.477 160Z" fill="#CBD1D3"/>
<path id="Vector_28" d="M12 141C12 139.895 12.8954 139 14 139H63C64.1046 139 65 139.895 65 141C65 142.105 64.1046 143 63 143H14C12.8954 143 12 142.105 12 141Z" fill="#CBD1D3"/>
<path id="Vector_29" d="M68 141C68 139.895 68.8954 139 70 139H80C81.1046 139 82 139.895 82 141C82 142.105 81.1046 143 80 143H70C68.8954 143 68 142.105 68 141Z" fill="#CBD1D3"/>
</g>
</g>
<g id="stars">
<path id="ad star1" d="M39 24L36 15L33 24L24 26.5L33 29L36 38L39 29L48 26.5L39 24Z" fill="#CBD1D3"/>
<path id="ad star2" d="M92.25 10.913L91 7L89.75 10.913L86 12L89.75 13.087L91 17L92.25 13.087L96 12L92.25 10.913Z" fill="#CBD1D3"/>
<path id="ad star3" d="M226.25 164.913L225 161L223.75 164.913L220 166L223.75 167.087L225 171L226.25 167.087L230 166L226.25 164.913Z" fill="#CBD1D3"/>
<path id="ad star4" d="M149.25 109.913L148 106L146.75 109.913L143 111L146.75 112.087L148 116L149.25 112.087L153 111L149.25 109.913Z" fill="#CBD1D3"/>
</g>
</g>
</g>
</svg>
