<svg xmlns="http://www.w3.org/2000/svg" width="240" height="240"><path d="M104.4 104.4a58.9 58.9 0 0 0 96.3 45.4 60.8 60.8 0 0 0 10-33.5c0-34-27.7-61.5-62-61.5a62.2 62.2 0 0 0-23.3 4.5 58.7 58.7 0 0 0-21 45z" fill="#eef0f1"/><path d="M116 53V37a2 2 0 0 1 4 0v16a2 2 0 0 1-4 0zm1 143a2 2 0 0 0-2 2v16a2 2 0 0 0 4 0v-16a2 2 0 0 0-2-2zm-73-68H28a2 2 0 0 0 0 4h16a2 2 0 0 0 0-4zm11.3-58.8a2 2 0 0 0 2.8-2.8l-2-2a2 2 0 0 0-2.8 2.8zm9 9a2 2 0 0 0 2.8-2.8l-4-4a2 2 0 0 0-2.8 2.8zm-4 111.2l-4 4a2 2 0 1 0 2.8 2.8l4-4a2 2 0 0 0-2.8-2.8zm7-7l-2 2a2 2 0 1 0 2.8 2.8l2-2a2 2 0 0 0-2.8-2.8zm93.8 2a2 2 0 0 0-2.8 2.8l11 11a2 2 0 1 0 2.8-2.8zm2.6-100a14.5 14.5 0 1 1-14.5-14.6 14.5 14.5 0 0 1 14.5 14.5zm-4 0a10.5 10.5 0 1 0-10.5 10.4 10.5 10.5 0 0 0 10.5-10.5zm53 32a63.8 63.8 0 0 1-59.9 63.3 64 64 0 0 1-36 11.1c-35.4 0-64-28.5-64-63.5A63.8 63.8 0 0 1 112.4 64a64 64 0 0 1 36.2-11.2c35.3 0 64 28.5 64 63.5zm-67.6 63.3a63.8 63.8 0 0 1-60.4-63.4 63.1 63.1 0 0 1 21.7-47.6 59.7 59.7 0 0 0-49.7 58.6c0 32.8 27 59.5 60 59.5a60 60 0 0 0 28.4-7.1zm63.6-63.4c0-32.8-26.9-59.5-60-59.5s-60 26.7-60 59.5 27 59.5 60 59.5 60-26.7 60-59.5zm-87 13a7.5 7.5 0 1 1-7.5-7.5 7.5 7.5 0 0 1 7.5 7.5zm-4 0a3.5 3.5 0 1 0-3.5 3.5 3.5 3.5 0 0 0 3.5-3.5zm64-28.5a5 5 0 1 1-5-5 5 5 0 0 1 5 5zm-4 0a1 1 0 1 0-1 1 1 1 0 0 0 1-1zm-56.5-6a2.5 2.5 0 1 0 2.5 2.5 2.5 2.5 0 0 0-2.5-2.5zm-4 46a1.5 1.5 0 1 0 1.5 1.5 1.5 1.5 0 0 0-1.5-1.5zm58.5-24a3 3 0 1 0 3 3 3 3 0 0 0-3-3zm58 113l-1.1 3.8-3.9 1.2 3.8 1.2 1.2 3.8 1.2-3.8 3.8-1.2-3.8-1.2zM77.2 22.8L80 14l8.8-2.7L80 8.6 77.2-.2l-2.7 8.8-8.8 2.7 8.9 2.7zM8 175l-3 6-5 2 5 2 3 6 3-6 5-2-5-2zM219.9 42.6l-2.7-5.8-2.7 5.8-5.8 2.7 5.8 2.7 2.7 5.8 2.7-5.8 5.8-2.7zm12.8 18.2L235 56l4.8-2.2-4.8-2.2-2.2-4.8-2.2 4.8-4.8 2.2 4.8 2.2z" fill="#cbd1d3"/></svg>
