<svg width="260" height="260" viewBox="0 0 260 260" fill="none" xmlns="http://www.w3.org/2000/svg">
  <path d="M198.25 84.33c-7.05-23.19-21.02-45.39-39.97-60.79a2.46 2.46 0 0 0-2.56-.32L125.22 37c-27.25-5.04-54.52-6.13-80.8 3.55a2.45 2.45 0 0 0-1.6 2.17l-1.97 38.53c-18.18 19.18-32.4 43.33-35.83 69.5a2.46 2.46 0 0 0 1.03 2.33l32.74 22.81c7.06 23.2 21.03 45.39 39.98 60.8a2.45 2.45 0 0 0 2.55.32l30.52-13.79c27.25 5.05 54.5 6.13 80.8-3.55a2.46 2.46 0 0 0 1.6-2.17l1.96-38.52c18.18-19.2 32.4-43.33 35.81-69.52a2.46 2.46 0 0 0-1.03-2.32l-32.72-22.81Z" fill="#B780FF"/>
  <path d="M156.19 84.54a5.81 5.81 0 0 0-5.36-5.14L17.55 69.7l1.03-1.57-4.43 2.32a5.8 5.8 0 0 0-2.92 5.24l4.8 136.2 4.12 3.13 145.93-17.6-9.9-112.88Z" fill="#B780FF" stroke="#B780FF" stroke-linecap="round" stroke-linejoin="round"/>
  <path d="M173.56 201.13 20.15 215.02l-4.99-141.4a5.81 5.81 0 0 1 6.24-6l133.37 9.71a5.82 5.82 0 0 1 5.35 5.15l13.44 118.65Z" fill="#fff" stroke="#fff" stroke-linecap="round" stroke-linejoin="round"/>
  <path d="M160.84 88.85 15.4 80.37l-.24-6.74a5.81 5.81 0 0 1 6.24-6l133.37 9.7a5.82 5.82 0 0 1 5.35 5.15l.72 6.37Z" fill="#000" stroke="#000" stroke-miterlimit="10"/>
  <path d="M30.19 74.72a2.3 2.3 0 0 1-2.56 2.43 2.98 2.98 0 0 1-2.77-2.78 2.3 2.3 0 0 1 2.55-2.4 2.98 2.98 0 0 1 2.78 2.75Z" fill="#fff"/>
  <path d="M38.37 75.26a2.27 2.27 0 0 1-2.49 2.4 2.98 2.98 0 0 1-2.73-2.74 2.26 2.26 0 0 1 2.5-2.4 2.98 2.98 0 0 1 2.72 2.74ZM46.4 75.79a2.23 2.23 0 0 1-2.43 2.38 2.95 2.95 0 0 1-2.68-2.72 2.23 2.23 0 0 1 2.44-2.38 2.95 2.95 0 0 1 2.66 2.72ZM158.82 133.9a1.28 1.28 0 0 1-1.28 1.43l-76.38.2-52.56.15a1.28 1.28 0 0 1-1.28-1.24l-1.36-32.6a1.28 1.28 0 0 1 1.34-1.34l127.24 4.66a1.28 1.28 0 0 1 1.24 1.14l3.04 27.6Z" fill="#B780FF"/>
  <path d="m117.98 189.25-86.06 5.98a2.36 2.36 0 0 1-2.5-2.25l-.48-11.87a2.35 2.35 0 0 1 2.23-2.44l85.65-4.36a2.34 2.34 0 0 1 2.46 2.13l.89 10.25a2.35 2.35 0 0 1-2.2 2.56Z" fill="#000" stroke="#000" stroke-linecap="round" stroke-linejoin="round"/>
  <path d="m104.03 142.98 55.71-.66" stroke="#000" stroke-linecap="round" stroke-linejoin="round"/>
  <path d="m79.5 143.27 11.39-.13" stroke="#B780FF" stroke-linecap="round" stroke-linejoin="round"/>
  <path d="m27.42 143.89 43.57-.52" stroke="#000" stroke-linecap="round" stroke-linejoin="round"/>
  <path d="m141.74 150.05 18.8-.4" stroke="#B780FF" stroke-linecap="round" stroke-linejoin="round"/>
  <path d="m56.46 151.88 39.8-.85" stroke="#000" stroke-linecap="round" stroke-linejoin="round"/>
  <path d="m27.77 152.5 20.46-.44" stroke="#B780FF" stroke-linecap="round" stroke-linejoin="round"/>
  <path d="m141.74 157.64 19.61-.61" stroke="#000" stroke-linecap="round" stroke-linejoin="round"/>
  <path d="m113.15 158.53 25.2-.78M72.37 159.8l34.98-1.09" stroke="#B780FF" stroke-linecap="round" stroke-linejoin="round"/>
  <path d="m28.12 161.18 39.14-1.22M125.75 165.96l36.42-1.5" stroke="#000" stroke-linecap="round" stroke-linejoin="round"/>
  <path d="m91.19 167.37 28.6-1.17" stroke="#B780FF" stroke-linecap="round" stroke-linejoin="round"/>
  <path d="m62.58 168.55 23.73-.98" stroke="#000" stroke-linecap="round" stroke-linejoin="round"/>
  <path d="m28.47 169.95 27.08-1.11" stroke="#B780FF" stroke-linecap="round" stroke-linejoin="round"/>
  <path d="m128.55 97.27 26.39 1.2M69.02 94.58l7.13.32M49.29 93.68l14.72.67M25.35 92.6l18.49.83" stroke="#000" stroke-linecap="round" stroke-linejoin="round"/>
  <path d="m65.1 184.9 48.05-2.9M37.15 186.57l20.42-1.22" stroke="#B780FF" stroke-linecap="round" stroke-linejoin="round"/>
  <path d="M146.12 111.76a2.83 2.83 0 0 1-2.93 3.26 3.96 3.96 0 0 1-3.76-3.4 2.82 2.82 0 0 1 2.98-3.26 3.95 3.95 0 0 1 3.71 3.4v0ZM25.92 130.11l24.73-22.7a4.26 4.26 0 0 1 5.99.22l27.92 29.8" stroke="#fff" stroke-linecap="round" stroke-linejoin="round"/>
  <path d="m68.47 120.27 13-9.64a3.08 3.08 0 0 1 3.74.05L100.89 123M112.59 129.05l15.77-12.77a4.26 4.26 0 0 1 5.81.42l19.16 20.76" stroke="#fff" stroke-linecap="round" stroke-linejoin="round"/>
  <path d="m143.21 126.5 5.84-4.76a3.1 3.1 0 0 1 4.06.14l6.92 6.5" stroke="#fff" stroke-linecap="round" stroke-linejoin="round"/>
  <path d="m20.57 69.91-3.02-.22.5-.77a.25.25 0 0 0-.32-.36l-3.58 1.89a5.8 5.8 0 0 0-2.92 5.24l.22 6.27 3.95-1.6 2.74-5.27 2.43-5.18Z" fill="#000" stroke="#000" stroke-miterlimit="10"/>
  <path d="m15.49 82.7-.39-10.32a5.81 5.81 0 0 1 6.23-6M11.98 122.3l1.4 39.55" stroke="#fff" stroke-linecap="round" stroke-linejoin="round"/>
  <path d="m81.46 66.52 16.9 14M81.9 71.99l14.56-10.74M89.54 72.35l13.6-10.02M87.09 62.82l16.9 14M79.52 86.47l29.61-21.89M86.04 88.84 114 68.3" stroke="#000" stroke-linecap="round" stroke-linejoin="round"/>
  <path d="m92.95 75.29-.26 1.48c0 .73 0 1.51-.04 2.33-.1 1.55-.32 3.1-.67 4.6 2.17.67 9.3 1.39 11.53 1.02 2.45-.4 3.25-7.47 3.44-11.2.11-2.18-1.2-.77-1.56-2.07l-8.03.87-4.41 2.97Z" fill="#B780FF" stroke="#000" stroke-linecap="round" stroke-linejoin="round"/>
  <path d="M116.07 69.16a4.16 4.16 0 0 1 2.18-3.44.46.46 0 0 1 .43-.03c.34.2.13 1.31-.64 3.3" fill="#B780FF"/>
  <path d="M116.07 69.16a4.16 4.16 0 0 1 2.18-3.44.46.46 0 0 1 .43-.03c.34.2.13 1.31-.64 3.3" stroke="#000" stroke-linecap="round" stroke-linejoin="round"/>
  <path d="M125.74 68.99c2.32 7.2 3.17 44.35-25.61 29.37-1.68-1.82 2.61-11.85 2.61-11.85.8-.06 9.84 4.36 13.1.7 2.78-3.12 3.82-8.66 3.2-12.42-.3-1.75-1.29-2-2-3.33" fill="#B780FF"/>
  <path d="M125.74 68.99c2.32 7.2 3.17 44.35-25.61 29.37-1.68-1.82 2.61-11.85 2.61-11.85.8-.06 9.84 4.36 13.1.7 2.78-3.12 3.82-8.66 3.2-12.42-.3-1.75-1.29-2-2-3.33M106.91 72.9c.56 7.2-2.13 12.47-5.27 12.77-2.32.22-5.4-1.61-6.81-5.11" stroke="#000" stroke-linecap="round" stroke-linejoin="round"/>
  <path d="M100.13 79.28c.09.97.65 1.73 1.37 1.89.31.06.64.02.92-.12" stroke="#000" stroke-linecap="round" stroke-linejoin="round"/>
  <path d="M104.94 77.69c1.4 1.1 2.28 2.13 2.06 2.5-.2.37-1.57.09-3.25-.66" fill="#B780FF"/>
  <path d="M104.94 77.69c1.4 1.1 2.28 2.13 2.06 2.5-.2.37-1.57.09-3.25-.66" stroke="#000" stroke-linecap="round" stroke-linejoin="round"/>
  <path d="M97.41 63.1c8.05 0 14.35 3.13 15.33 7.61 1.34 6.1-6.81 13.29-17.82 15.7-2.44.55-4.93.82-7.43.83-8.04 0-14.34-3.13-15.33-7.61-1.34-6.1 6.82-13.29 17.82-15.7a34.7 34.7 0 0 1 7.43-.83Zm0-2.55c-2.68 0-5.35.28-7.97.85C76.86 64.16 68 72.55 69.67 80.13c1.3 5.94 8.66 9.62 17.82 9.62 2.68 0 5.36-.3 7.98-.88 12.58-2.77 21.43-11.16 19.76-18.74-1.3-5.92-8.65-9.58-17.82-9.58Z" fill="#000"/>
  <mask id="a" style="mask-type:alpha" maskUnits="userSpaceOnUse" x="14" y="67" width="148" height="23">
    <path d="M160.84 88.85 15.4 80.37l-.24-6.74a5.82 5.82 0 0 1 6.24-6l133.37 9.7a5.81 5.81 0 0 1 5.35 5.15l.72 6.37Z" fill="#000" stroke="#000" stroke-miterlimit="10"/>
  </mask>
  <g mask="url(#a)">
    <path d="M115.23 70.14c-1.3-5.93-8.65-9.6-17.82-9.6-2.68 0-5.35.29-7.97.86C76.86 64.16 68 72.55 69.67 80.13c1.3 5.94 8.66 9.62 17.82 9.62 2.69 0 5.36-.3 7.98-.88 12.58-2.75 21.43-11.14 19.77-18.73ZM94.94 86.4c-2.44.55-4.93.82-7.44.83-8.03 0-14.33-3.13-15.32-7.61-1.34-6.1 6.81-13.29 17.82-15.7a34.7 34.7 0 0 1 7.42-.8c8.05 0 14.35 3.12 15.33 7.6 1.35 6.08-6.82 13.25-17.81 15.68ZM81.46 66.51l16.9 14-16.9-14Zm-1.93 19.96 29.6-21.89-29.6 21.89Zm-7.32-7.33 24.26-17.88-24.26 17.88Zm2.39 4.31 28.52-21.11L74.6 83.45Zm-2.09-7.68 14.97 12.39L72.5 75.77Zm3.47-5.15L91.9 83.89 76 70.62Z" fill="#000"/>
    <path d="M75.98 70.62 91.9 83.89m23.34-13.75c-1.3-5.93-8.65-9.6-17.82-9.6-2.68 0-5.35.29-7.97.86C76.86 64.16 68 72.55 69.67 80.13c1.3 5.94 8.66 9.62 17.82 9.62 2.69 0 5.36-.3 7.98-.88 12.58-2.75 21.43-11.14 19.77-18.73ZM94.94 86.4c-2.44.55-4.93.82-7.44.83-8.03 0-14.33-3.13-15.32-7.61-1.34-6.1 6.81-13.29 17.82-15.7a34.7 34.7 0 0 1 7.42-.8c8.05 0 14.35 3.12 15.33 7.6 1.35 6.08-6.82 13.25-17.81 15.68ZM81.46 66.51l16.9 14-16.9-14Zm-1.93 19.96 29.6-21.89-29.6 21.89Zm-7.32-7.33 24.26-17.88-24.26 17.88Zm2.39 4.31 28.52-21.11L74.6 83.45Zm-2.09-7.68 14.97 12.39L72.5 75.77Z" stroke="#B780FF" stroke-miterlimit="10"/>
  </g>
  <path d="m96.66 61.45 14.9 12.72" stroke="#000" stroke-linecap="round" stroke-linejoin="round"/>
  <path d="m114.66 70.69 41-6.86" stroke="#000" stroke-miterlimit="10"/>
  <path d="M114.44 69.38a458.24 458.24 0 0 0 41.1-6.2l.22 1.28a441.46 441.46 0 0 0-30.72 5.3c-3.4.7-6.8 1.44-10.16 2.22l-.43-2.62-.01.02Z" fill="#000"/>
  <path d="m112.48 120.54 1.84 3.58c2.13 10.7-.38 13.1-.43 20.13-.07 8.62.36 18.1.07 26.4a9.42 9.42 0 0 1-6.6 8.67c-10.13 3.19-26.69 8.47-30.23 10.5a11.67 11.67 0 0 0-4.38 6.08 2.08 2.08 0 0 1-1.66 1.46c-.66.12-1.34.06-1.96-.19-1.6-.65-2.67-2.63-2.5-4.93a6.3 6.3 0 0 1 .48-1.87 57.65 57.65 0 0 1 6.93-12.28c1.76-1.2 3.83 1.27 5.48 1.62 3.05-2.01 15.45-10.97 20.8-12.08-1.13-4-5.97-23.56-6.95-28.12.63-7.05 2.22-13.07 2.85-20.11l16.26 1.14Z" fill="#B780FF"/>
  <path d="M95.7 183.04c-4.2.55-4.01-11.32-1.46-12.8-5.7 3.13-12.57 8.04-14.73 9.47-1.66-.34-3.71-2.83-5.48-1.63a56.76 56.76 0 0 0-6.93 12.27c-.25.6-.41 1.23-.47 1.87-.18 2.3.89 4.29 2.5 4.94.62.24 1.3.3 1.95.18a2.08 2.08 0 0 0 1.66-1.46c.75-2.45 2.3-4.6 4.38-6.08 2.36-1.35 10.44-4.13 18.57-6.77v.01Z" fill="#fff" stroke="#000" stroke-linecap="round" stroke-linejoin="round"/>
  <path d="M91.19 184.52c-4.2.55-3.4-10.5-.85-11.99M77.42 189.65c-.46-1.36-2.37-1.58-2.6-1.8-.85-1.42 2.84-7.63 4.68-8.14" stroke="#000" stroke-linecap="round" stroke-linejoin="round"/>
  <path d="M114.01 159.57c-.06-5.14-.18-10.37-.14-15.33.07-7.04 2.56-9.43.43-20.14l-1.84-3.57-16.26-1.14c-.63 7.04-2.22 13.07-2.85 20.11.76 3.6 3.94 16.52 5.8 23.79.64-3.79 13.61-5.78 14.86-3.72Z" fill="#fff"/>
  <path d="M113.94 170.66c.16-4.83.09-10.05.02-15.27l-2.66-.48c.95 8.55 1.52 15.1.37 18.48-1.66 4.87-7.41 6.9-7.4 6.9 1.75-.16 2.26-.71 3.09-.97a9.4 9.4 0 0 0 6.58-8.66Z" fill="#fff"/>
  <path d="M113.89 153.62v-1.9c0-1.63-.01-3.24-.04-4.83l-18.16-8.57-.23 2.46c.67 1.73 2.34 5.84 6.65 8.8 3.38 2.3 7.04 1.88 11.78 4.04Z" fill="#B780FF"/>
  <path d="M114.32 124.12c2.13 10.7-.38 13.1-.43 20.13-.03 4.95.08 10.18.14 15.33M99.18 163.29a967.63 967.63 0 0 1-5.8-23.79" stroke="#000" stroke-linecap="round" stroke-linejoin="round"/>
  <path d="M99.18 163.29c.63-3.79 13.6-5.78 14.85-3.72" stroke="#000" stroke-linecap="round" stroke-linejoin="round"/>
  <path d="M114.01 159.57c.04 3.8.05 7.55-.07 11.1a9.42 9.42 0 0 1-6.58 8.66c-10.13 3.18-26.69 8.46-30.23 10.48a11.67 11.67 0 0 0-4.38 6.09 2.08 2.08 0 0 1-1.66 1.46c-.66.12-1.34.06-1.96-.19-1.6-.65-2.67-2.63-2.5-4.93a6.3 6.3 0 0 1 .48-1.87 57.65 57.65 0 0 1 6.93-12.28c1.76-1.2 3.83 1.27 5.48 1.62 3.05-2.01 15.45-10.97 20.8-12.08-.24-.85-.65-2.39-1.15-4.34" stroke="#000" stroke-linecap="round" stroke-linejoin="round"/>
  <path d="m93.22 123.1-3.15 6.71c-3.33 16.3 39.06 27.58 48.28 33.14-.6 17.18 15.99 44.8 17.58 51.73a18.43 18.43 0 0 0-.73 6.81 1.47 1.47 0 0 0 1.02 1.28c4.32 1.31 17 4.04 23.36 3.52 1.55-.13-12.94-5.04-13.51-6.49-2.47-6.14 3.54-5.4 0-6.74a2.06 2.06 0 0 1-1.2-1.22c-3.4-9.27-10.94-40.48-14.02-53.54-.6-2.53-2-4.79-3.99-6.45-9.15-7.6-27.25-20.86-36.19-24-.91-2.6-1.84-5.87-2.76-8.47l-14.69 3.72Z" fill="#B780FF"/>
  <path d="M129.99 139.07c-7.2-5.01-14.54-9.56-19.31-11.21-.92-2.6-1.84-5.87-2.76-8.47l-14.7 3.71-3.15 6.71c-2.21 10.87 15.9 19.5 30.95 25.7-4.75-4.59 5.62-17.66 8.97-16.44Z" fill="#fff"/>
  <path d="M121 155.51c-4.73-4.59 5.64-17.66 8.99-16.44" stroke="#000" stroke-linecap="round" stroke-linejoin="round"/>
  <path d="M159.57 193.48c-3.25-12.4-6.8-27.18-8.69-35.17-.6-2.53-2-4.79-4-6.44l-1.04-.86c2.64 2.13 8.12 31.18 13.73 42.48Z" fill="#fff"/>
  <path d="M164.9 211.85c-1.49-4.07-3.77-12.35-6.14-21.47-.11 2.55-9.8 4.5-12.07 3.1 4.16 9.57 8.48 17.83 9.25 21.2a18.43 18.43 0 0 0-.72 6.81 1.47 1.47 0 0 0 1.02 1.28c4.32 1.31 17 4.04 23.36 3.52 1.55-.13 3.01-1.97 2-3.16-3.88-4.61-11.97-8.73-15.5-10.07a2.06 2.06 0 0 1-1.2-1.21Z" fill="#fff" stroke="#000" stroke-linecap="round" stroke-linejoin="round"/>
  <path d="M159.94 194.85c-.12 2.55-9.16 4.75-11.26 3.1M155.94 214.68a12.24 12.24 0 0 0 8.57 2.42 4.36 4.36 0 0 1 1.57-4.03" stroke="#000" stroke-linecap="round" stroke-linejoin="round"/>
  <path d="M90.05 129.81c-3.31 16.3 39.08 27.58 48.3 33.14-.6 17.18 15.99 44.8 17.58 51.73a18.43 18.43 0 0 0-.73 6.81 1.47 1.47 0 0 0 1.02 1.28c4.32 1.31 17 4.04 23.36 3.52 1.55-.13 2.88-1.87 2-3.16-2.18-3.24-11.97-8.73-15.5-10.07a2.05 2.05 0 0 1-1.2-1.22c-3.4-9.27-10.94-40.48-14.02-53.54-.59-2.53-1.99-4.79-3.99-6.45-9.15-7.6-27.24-20.86-36.18-24" stroke="#000" stroke-linecap="round" stroke-linejoin="round"/>
  <path d="M90.05 129.81c1.86-2.53 6.12-7.3 15.81-7.26 2.9 0 5.76.53 8.46 1.57-.57-4.44-3.87-15.57-3.83-21.09.22-.98 1.34-4.08.57-6.23l-10.42-12.34c-1.62-.32-7.08.17-8.68-.74-6.16 5.39.65 25.38 2.43 29.73.44 1.5-3.81 9.39-4.34 16.36Z" fill="#fff"/>
  <path d="M111.07 96.8c.77 2.13-.34 5.25-.57 6.23-.05 5.53 3.25 16.66 3.83 21.09a23.63 23.63 0 0 0-8.45-1.57c-9.7-.05-13.95 4.73-15.82 7.26.53-6.97 4.78-14.86 4.35-16.38-1.78-4.35-8.58-24.34-2.42-29.73 1.02.43 2.13.58 3.22.45" stroke="#000" stroke-linecap="round" stroke-linejoin="round"/>
  <path d="M104.04 110.33a28.78 28.78 0 0 0 6.64-8" stroke="#000" stroke-linecap="round" stroke-linejoin="round"/>
  <path d="M137.4 68.38a1.5 1.5 0 0 1-.25-2.96l18.26-3.06a1.5 1.5 0 0 1 .49 2.94l-18.26 3.06-.25.02Z" fill="#000"/>
  <path d="M93.57 84.3c8.86-1.58 39.24 9.37 49.36-14.38l7.92-2.43c-5.66 30.22-38.39 32.96-57.64 26.4" fill="#B780FF"/>
  <path d="M93.57 84.3a19.4 19.4 0 0 0-.36 9.57 54.63 54.63 0 0 0 10.07 2.36c-2-1.7.47-10.83 2.98-11.24-5.43-.5-10.03-1.16-12.69-.69Z" fill="#fff"/>
  <path d="M103.28 96.23c-2-1.7.47-10.83 2.98-11.24" stroke="#000" stroke-linecap="round" stroke-linejoin="round"/>
  <path d="m149.89 68.96-7.8 2.13c1.03-3.6-1.04-4.97-.76-5.14.28-.17 1.65-.89 2.34 1.16.46-.13.82-.36.49-1.7a2.3 2.3 0 0 0-1.38-1.57c.08-.43.63-.54.85-.58 1.2-.23 1.96.58 2.27 1.89" fill="#B780FF"/>
  <path d="M147.57 64.6c-.3-1.3-1.19-2.51-2.3-2.24-.44.15-.81.46-1.04.87" fill="#B780FF"/>
  <path d="M149.33 64.46c-.15-1.28-.72-2.35-1.65-2.36a1.15 1.15 0 0 0-1 .75" fill="#B780FF"/>
  <path d="M150.85 67.49c.33-1.7 0-4-.72-4.58a1.04 1.04 0 0 0-1.33-.11l-2.23.05-1.38.23-.8.73 2.6 6.04 3.86-2.36Z" fill="#B780FF"/>
  <path d="M146.05 66.56a11.32 11.32 0 0 1 3.84-.6" stroke="#000" stroke-linecap="round" stroke-linejoin="round"/>
  <path d="M150.85 67.7c.2-1.16.17-2.35-.08-3.5-.36 12.49-12.24 25.16-25.03 30.7 15.25-4.71 22.74-14.55 25.11-27.2Z" fill="#fff"/>
  <path d="M150.85 67.49c-5.66 30.22-38.39 32.96-57.64 26.4" stroke="#000" stroke-linecap="round" stroke-linejoin="round"/>
  <path d="M93.22 84.08c.66.1 1.32.13 1.98.07 9.94-.32 35.39 7.4 46.13-11.02M143.67 67.11c.46-.13.82-.36.49-1.7a2.31 2.31 0 0 0-1.39-1.57c.09-.42.64-.54.86-.58 1.2-.23 1.96.58 2.27 1.89M141.33 73.13c.43-.62 1.78-4.7.81-5.64M147.57 64.6c-.3-1.3-1.19-2.51-2.3-2.24-.3.08-.56.26-.75.51" stroke="#000" stroke-linecap="round" stroke-linejoin="round"/>
  <path d="M149.33 64.46c-.15-1.28-.72-2.35-1.65-2.36a1.15 1.15 0 0 0-1 .75" stroke="#000" stroke-linecap="round" stroke-linejoin="round"/>
  <path d="M150.54 68.99c.78-2.76.32-5.5-.43-6.08a1.04 1.04 0 0 0-1.33-.11" stroke="#000" stroke-linecap="round" stroke-linejoin="round"/>
  <path d="M146.05 66.56a11.32 11.32 0 0 1 3.84-.6" stroke="#000" stroke-linecap="round" stroke-linejoin="round"/>
  <path d="M144.16 65.4c-.1-.42-.33-.8-.66-1.1l-6.38 1.07a1.54 1.54 0 0 0 .5 3.03l6.07-1.02c.49-.12.8-.63.47-1.98Z" fill="#000"/>
  <path d="M120.05 67.14a1.03 1.03 0 0 0-1.2-.17c-1 .6.04 4.5.59 4.68.55.17.88-.15.94-3.17" fill="#B780FF"/>
  <path d="M120.05 67.14a1.03 1.03 0 0 0-1.2-.17c-1 .6.04 4.5.59 4.68.55.17.88-.15.94-3.17" stroke="#000" stroke-linecap="round" stroke-linejoin="round"/>
  <path d="M121.77 66.66a1.1 1.1 0 0 0-1.28-.32c-1.11.54-.42 4.81.15 5.05.5.2.95-.06 1.33-3.27" fill="#B780FF"/>
  <path d="M121.77 66.66a1.1 1.1 0 0 0-1.28-.32c-1.11.54-.42 4.81.15 5.05.5.2.95-.06 1.33-3.27" stroke="#000" stroke-linecap="round" stroke-linejoin="round"/>
  <path d="M123.45 66.78a1.06 1.06 0 0 0-1.16-.36c-1.07.42-.7 4.29-.18 4.53.51.25.89 0 1.45-2.85" fill="#B780FF"/>
  <path d="M123.45 66.78a1.06 1.06 0 0 0-1.16-.36c-1.07.42-.7 4.29-.18 4.53.51.25.89 0 1.45-2.85" stroke="#000" stroke-linecap="round" stroke-linejoin="round"/>
  <path d="M125.62 68.05c-.3-.94-.73-1.5-1.58-1.1-.85.4-1.2 3.6-.79 3.89.41.28.78.12 1.65-2.26" fill="#B780FF"/>
  <path d="M125.62 68.05c-.3-.94-.73-1.5-1.58-1.1-.85.4-1.2 3.6-.79 3.89.41.28.78.12 1.65-2.26" stroke="#000" stroke-linecap="round" stroke-linejoin="round"/>
  <path d="M77.42 56.29c-1.74 5.81.33 10.84 4.55 13.1 5.46 2.9 12.09-3.07 14.54-1.97.52-9.68-11.04-2.38-14.68-9.23-.85 1.73.27 3.72.47 3.93a8.48 8.48 0 0 1-4.88-5.83Z" fill="#000" stroke="#B780FF" stroke-linecap="round" stroke-linejoin="round"/>
  <path d="M92.34 73.43c-.4-3.58.56-5.5 3.56-7.17 3.35-1.86 10.07-.4 11.12 3.59l-1.63 1.08-13.05 2.5Z" fill="#000"/>
  <path d="M92.55 73.17c2.5-2.32 10.57-6.39 14.9-3.01a1.1 1.1 0 0 1 .43.78c.02.66.01 1.32-.04 1.98a.5.5 0 0 1-.24.4.5.5 0 0 1-.46.03c-1.12-.47-2.3-.77-3.51-.88-5.36-.5-9.46 2.86-10.96 4.29a.3.3 0 0 1-.52-.21l-.07-2.3a1.43 1.43 0 0 1 .47-1.08Z" fill="#fff" stroke="#000" stroke-linecap="round" stroke-linejoin="round"/>
  <path d="M96.09 75.72c-.37-1.23-.67-1.61-1.4-1.4-.89.27-1.71 2.56-.16 3.94" fill="#B780FF"/>
  <path d="M96.09 75.72c-.37-1.23-.67-1.61-1.4-1.4-.89.27-1.71 2.56-.16 3.94" stroke="#000" stroke-linecap="round" stroke-linejoin="round"/>
  <path d="m235.47 53.14-2.82-2.37-2.13.8-.53 2.28-21 5.07 5.93-13.88a1.32 1.32 0 0 0-.42-1.6l-2.92-2.43-8.14 7.12 5.41-2.03-42.7 28.52h-3.95l-.97.85 2.88 2.41c.2.2.44.35.72.4l47.6 9.4a1.35 1.35 0 0 0 1.5-1.87l-5.48-12.23 25.75-6.22a2.34 2.34 0 0 0 1.79-2.19l.37-10.32a1.94 1.94 0 0 0-.89-1.71Z" fill="#000" stroke="#000" stroke-linecap="round" stroke-linejoin="round"/>
  <path d="M210.04 40.96 161.47 73.4a1.35 1.35 0 0 0 .49 2.44l47.58 9.4a1.35 1.35 0 0 0 1.5-1.88l-5.48-12.22 25.74-6.22a2.34 2.34 0 0 0 1.8-2.2l.37-10.32a1.94 1.94 0 0 0-2.4-1.96l-24.98 6.04 5.94-13.88a1.35 1.35 0 0 0-2-1.64Z" fill="#fff" stroke="#000" stroke-linecap="round" stroke-linejoin="round"/>
  <path d="m238.53 123.63-1.42-2.33-1.22.59-.7 1.44-10.7-.3 3.83-5.93a.85.85 0 0 0 0-.92l-1.52-2.43-.98.71-.51 2.08-19.86 7.17.93-.8-7.47 1.07 1.53 2.44c.07.21.22.39.43.48l22.95 10.94a.85.85 0 0 0 1.2-1.01l-1.81-6.46 13.74.37a.85.85 0 0 0 .86-.71l1.01-5.62a.86.86 0 0 0-.29-.78Z" fill="#000" stroke="#000" stroke-linecap="round" stroke-linejoin="round"/>
  <path d="m225.76 113.38-26.33 9.51a.85.85 0 0 0-.07 1.58l22.95 10.94a.85.85 0 0 0 .93-.11.85.85 0 0 0 .26-.9l-1.82-6.46 13.75.38a.86.86 0 0 0 .85-.71l.98-5.64a.86.86 0 0 0-.47-.91.83.83 0 0 0-.36-.09l-13.5-.37 3.84-5.96a.85.85 0 0 0-1.01-1.26Z" fill="#fff" stroke="#000" stroke-linecap="round" stroke-linejoin="round"/>
  <path d="m159.14 46.55-.49-5.25a.74.74 0 0 0-.37-.57l-1.4-1.23-.84.4-.26 1.23-10 2.42 1.97-6.23a.72.72 0 0 0-.19-.74l-1.67-1.47-.3.85-.67 1.73-16.87 11.83h-1.96l-2.17 1.38 1.58 1.36c.06.09.14.16.23.2.06.04.13.07.2.08l22.9 4.15a.74.74 0 0 0 .76-1.1l-3.15-5.31 12.14-2.93a.74.74 0 0 0 .56-.8Z" fill="#000" stroke="#000" stroke-linecap="round" stroke-linejoin="round"/>
  <path d="m145 35.05-20.97 14.72a.74.74 0 0 0-.1 1.13c.11.1.25.17.39.2l22.89 4.15a.74.74 0 0 0 .76-1.11l-3.18-5.3 12.16-2.95a.74.74 0 0 0 .56-.78l-.5-5.25a.74.74 0 0 0-.3-.53.73.73 0 0 0-.6-.12l-11.95 2.9 1.97-6.23a.74.74 0 0 0-1.13-.83Z" fill="#fff" stroke="#000" stroke-linecap="round" stroke-linejoin="round"/>
  <path d="M150.5 36.94a52.5 52.5 0 0 1 12.17-3.14M162.24 38.78a29.32 29.32 0 0 1 4.78-.97" stroke="#fff" stroke-linecap="round" stroke-linejoin="round"/>
  <path d="M216.55 48.56a164.69 164.69 0 0 1 36.26-10.27M237.7 49.73a47.69 47.69 0 0 1 7.7-1.52M235.02 117.33a96.35 96.35 0 0 1 19.98 1.4M242.45 122.61c1.4 0 2.89.08 4.44.2M16.03 211.88l3.52 3.18 88.14-6.9" stroke="#B780FF" stroke-linecap="round" stroke-linejoin="round"/>
</svg>
