<svg xmlns="http://www.w3.org/2000/svg" width="240" height="240"><path d="M120.8 78c-39.2.5-71 33-71 72.2A71.8 71.8 0 0 0 61.4 189a13 13 0 0 0 11 6h6.6c2-6.8 5.5-17 10.2-22l.2.2a33.5 33.5 0 0 1-12.6-25.5 30.2 30.2 0 0 1 1-7.7 65.4 65.4 0 0 1-6.8-8.9l-1.9-2.7A16.9 16.9 0 0 1 66 119a17.3 17.3 0 0 0 3.2 9.2l1.8 2.8a74 74 0 0 0 7 8.3 31 31 0 0 0-1 6.4 33.4 33.4 0 0 0 24-32.1v-.9l3.6.9c5.7-2 11.8-3.9 18.3-3.9s12.7 2 18.3 3.9a64 64 0 0 1 3.8-.9v.9a33.4 33.4 0 0 0 24 32.1 31 31 0 0 0-1-5.8 80.8 80.8 0 0 0 7-9l1.8-2.7a17.3 17.3 0 0 0 3.2-9.2 16.9 16.9 0 0 1-3.2 9.3l-1.8 2.7a65.4 65.4 0 0 1-6.9 8.9 30.2 30.2 0 0 1 1 7.7 34 34 0 0 1-14.1 26.7c4 5 7.2 14.4 9 20.6h7.5a13.1 13.1 0 0 0 11-6 72.1 72.1 0 0 0-61.6-111z" fill="#eef0f1"/><path d="M64.8 136.8a2 2 0 0 1-.5 0 2 2 0 0 1-1.4-2.5A64.2 64.2 0 0 1 74 111.9a2 2 0 1 1 3.2 2.5 60.3 60.3 0 0 0-10.4 21 2 2 0 0 1-2 1.4zm18-29a2 2 0 0 1-1.2-3.5l1.2-1a64 64 0 0 1 7.2-5 2 2 0 1 1 2 3.5 60.3 60.3 0 0 0-6.7 4.6l-1.2 1a2 2 0 0 1-1.2.4z" fill="#fff"/><path d="M173.8 97.3a73.3 73.3 0 0 0-53-21.3 74.1 74.1 0 0 0-61.2 114.1 15 15 0 0 0 12.7 6.9h99.1a15 15 0 0 0 12.7-6.9 74 74 0 0 0-10.3-92.8zM62.9 188a69.9 69.9 0 0 1-11-37.7 70.3 70.3 0 0 1 69-70.2 70 70 0 0 1 68.6 52 71 71 0 0 1 1.7 27.9c-7.4 7.3-14 15.1-25.3 15.1h-8.1l-.2-.3a41.2 41.2 0 0 0 7.1-7.7h4.3c2.6 0 2.6-4 0-4h-1.8l1.4-3h5.4c2.6 0 2.6-4 0-4h-4a32.2 32.2 0 0 0 .3-15.4c4.9-5.4 11.5-13.7 11.6-21.4a10.8 10.8 0 0 0-1-5c-1.1-2.1-3.6-4.9-9.2-5.2-.7 0-17-1.1-31 2.4-5.8-2-11.7-3.6-17.8-3.6s-12.1 1.6-17.9 3.6c-14-3.5-30.3-2.5-31-2.4-5.6.3-8 3-9.2 5.3a10.8 10.8 0 0 0-1 4.9 18.9 18.9 0 0 0 3.6 10.3 40.6 40.6 0 0 1 2.4 3.6 54.4 54.4 0 0 0 5.7 7.5 32.2 32.2 0 0 0 .3 15.4H69c-2.6 0-2.6 4 0 4h8.1l1.4 3H75c-2.6 0-2.6 4 0 4h6a40.4 40.4 0 0 0 5.3 6.2c-4 5-7 13.2-9 19.8h-5a11 11 0 0 1-9.4-5zm5-68.6v-.5c0-3.7 2.9-5.3 6.3-5.5a95.7 95.7 0 0 1 29.9 2.3 2 2 0 0 0 1.1 0c5.7-2 11.6-3.8 17.7-3.8s12 1.8 17.6 3.8a2 2 0 0 0 1.2 0 111 111 0 0 1 29.8-2.3c3 .2 5 1.2 5.8 3a6.4 6.4 0 0 1 .6 2.5V119.4c-.3 6-5.5 12.3-9.2 16.8a35.3 35.3 0 0 0-4-7.5 2 2 0 0 0-3.3 2.2 29.2 29.2 0 0 1 4.2 25.1H145c-2.6 0-2.6 4 0 4h19a31.5 31.5 0 0 1-1.5 3H145a2 2 0 0 0-2 2h-9.4a11.7 11.7 0 0 0-4 .8 2 2 0 0 0-1.2-1 6.2 6.2 0 0 1-3.9-3.2 3.5 3.5 0 0 0 2.3-4c-.7-4-9.2-4-9.9 0a3.5 3.5 0 0 0 2.3 4 6 6 0 0 1-3.8 3.3 2 2 0 0 0 1 3.8 10 10 0 0 0 5.5-3.8 10.2 10.2 0 0 0 3.8 3.2 11.5 11.5 0 0 0-2 14.2 50.9 50.9 0 0 1-29.4-7.9 39.4 39.4 0 0 1-8.2-7.4H99c2.6 0 2.6-4 0-4H83.2a31.4 31.4 0 0 1-1.6-3H98c2.6 0 2.6-4 0-4H80a29.2 29.2 0 0 1 4.3-25 2 2 0 0 0-3.3-2.3 35.3 35.3 0 0 0-4 7.5 65 65 0 0 1-6.3-9 15.7 15.7 0 0 1-2.8-7.8v-.1zm58.1 57.2a7.6 7.6 0 0 1 7.6-7.5h9.7a4.7 4.7 0 0 1 4.7 4.6v5.8a4.7 4.7 0 0 1-4.7 4.6h-9.7a7.6 7.6 0 0 1-7.6-7.5zm33.6-9.5a39.2 39.2 0 0 1-7.6 7v-.4a8.6 8.6 0 0 0-3.1-6.6zm-78 26a60.1 60.1 0 0 1 7.7-17.2l.5.3a55 55 0 0 0 35.4 10.7h.5l2.1-.2h.2a11.7 11.7 0 0 0 5.6 1.4h9.7a8.7 8.7 0 0 0 8.7-8.6v-.4h3.5a73.3 73.3 0 0 1 5.7 14zm99.2-5a11 11 0 0 1-9.4 5h-6a90 90 0 0 0-5.3-14h5.8a28.2 28.2 0 0 0 20-8.3l4-3.9a69.7 69.7 0 0 1-9.1 21.1zM95 205v7c0 2.6-4 2.6-4 0v-7c0-2.6 4-2.6 4 0zm-9 0v7c0 2.6-4 2.6-4 0v-7c0-2.6 4-2.6 4 0zm17 0v7c0 2.6-4 2.6-4 0v-7c0-2.6 4-2.6 4 0zm111.2-73H210a89.5 89.5 0 0 0-173.8-5.9l-1.5 5.9H33V63.4a8.5 8.5 0 1 0-4 .3v68.7a8.6 8.6 0 0 0-6 8.1v22a8.7 8.7 0 0 0 8.8 8.5h3.5A89.6 89.6 0 0 0 65 219h-5.7A10.5 10.5 0 0 0 49 231a10.7 10.7 0 0 0 10.6 9h125.8a10.5 10.5 0 0 0 10.3-12 10.7 10.7 0 0 0-10.6-9h-5.4a89.6 89.6 0 0 0 29.7-48h4.8a8.7 8.7 0 0 0 8.8-8.5v-22a8.7 8.7 0 0 0-8.8-8.5zM25.9 55.3c0-5.8 9-5.8 9 0s-9 5.8-9 0zM31.8 167a4.7 4.7 0 0 1-4.8-4.5v-22a4.7 4.7 0 0 1 4.8-4.5h2.1a85.3 85.3 0 0 0-.6 23.3q.4 4 1.1 7.7zm141.4 52H159c-2.6 0-2.6 4 0 4h26a6.7 6.7 0 0 1 6.8 5.5 6.5 6.5 0 0 1-6.4 7.5H59.6a6.7 6.7 0 0 1-6.7-5.5 6.5 6.5 0 0 1 6.5-7.5H149c2.6 0 2.6-4 0-4H71.5A85.7 85.7 0 0 1 39 169.2a2 2 0 0 0 0-.7 81.2 81.2 0 0 1-1.6-8.6A85.4 85.4 0 1 1 173.2 219zm45.8-56.5a4.7 4.7 0 0 1-4.8 4.5h-2.7a85.5 85.5 0 0 0 .6-31h2.1a4.7 4.7 0 0 1 4.8 4.5zM17.5 41.3a2 2 0 0 1-.1-2.8 17 17 0 0 1 25-.3 2 2 0 0 1-3 2.8 13 13 0 0 0-19 .2 2 2 0 0 1-2.9 0zM104 143.8c0-5.2 8-5.1 8 0s-8 5.2-8 0zm28 0c0-5.2 8-5.1 8 0s-8 5.2-8 0zM78.7 43l-3.8-1.2 3.8-1.2 1.2-3.8 1.1 3.8 3.9 1.2L81 43 80 46.8zm118 10l-3.8-1.2 3.8-1.2 1.2-3.8 1.1 3.8 3.9 1.2L199 53l-1.1 3.8zm1.2 11.3l8.8-2.7 2.7-8.8 2.6 8.8 8.9 2.7L212 67l-2.7 8.8-2.7-8.8zm-51-54.6l-5-2.4 5-2.4 2.5-5 2.3 5 5.2 2.4-5.2 2.4-2.4 5.1zm93 191.1L236 202l-1.1 3.8-1.2-3.8-3.8-1.2 3.8-1.2 1.2-3.8 1.1 3.8zm-212 8.5L22 212l-2.7 5.8-2.6-5.8-5.8-2.7 5.8-2.7 2.7-5.8 2.6 5.8zm5.1 9.3l3.9 1.2L33 221l-1.1 3.8-1.2-3.8-3.8-1.2 3.8-1.2 1.2-3.8zM6 95.6l3.9 1.2L6 98 5 101.8 3.7 98l-3.8-1.2 3.8-1.2 1.2-3.8z" fill="#cbd1d3"/></svg>
