<svg width="260" height="260" viewBox="0 0 260 260" fill="none" xmlns="http://www.w3.org/2000/svg">
  <path d="M233.19 124.6c0-62.18-50.41-112.6-112.6-112.6C58.41 12 8 62.42 8 124.6c0 37.66 18.51 70.99 46.92 91.42l-10.4 28.34a2.8 2.8 0 0 0 2.62 3.77h146.9a2.8 2.8 0 0 0 2.64-3.77l-10.4-28.34a112.42 112.42 0 0 0 46.9-91.42Z" fill="#6EDAFF"/>
  <mask id="a" style="mask-type:alpha" maskUnits="userSpaceOnUse" x="8" y="12" width="226" height="237">
    <path d="M233.19 124.6c0-62.18-50.41-112.6-112.6-112.6C58.41 12 8 62.42 8 124.6c0 37.66 18.51 70.99 46.92 91.42l-10.4 28.34a2.8 2.8 0 0 0 2.62 3.77h146.9a2.8 2.8 0 0 0 2.64-3.77l-10.4-28.34a112.42 112.42 0 0 0 46.9-91.42Z" fill="#45DFA7"/>
  </mask>
  <g mask="url(#a)">
    <path d="m80.77 159.45-.87 4.33c4.56 4.66.67 14.98 0 17.94l82.21-4.9c-3.7-2.59-21.64-20.83-20.38-32.26l-60.96 14.9v0Z" fill="#000" stroke="#000" stroke-linecap="round" stroke-linejoin="round"/>
    <path d="m118.56 179.4-7.33-10.17 2.47-7.33-6.4-8.93-26.53 6.48-8.65-2.2c5.24 5.06 8.44 21.5 7.78 24.46l38.66-2.3Z" fill="#fff" stroke="#000" stroke-linecap="round" stroke-linejoin="round"/>
    <path d="m84.46 87.64 1.6-1.74a87.84 87.84 0 0 1 11.45-17.07 3.2 3.2 0 0 1 4.98.17c5.53 7.35 3.12 24.66.18 54.71-7.69-7.9-5.78-13.28-13.47-21.18l-4.74-14.89h0Z" fill="#000" stroke="#000" stroke-linecap="round" stroke-linejoin="round"/>
    <path d="m86.07 85.9-.52.57a49.69 49.69 0 0 0 11.18 13.3c.75.64-2.81-4.2-2.35-5.07 2.02-3.81 9.17-26.98 3.14-25.87a87.14 87.14 0 0 0-11.45 17.06v.01Z" fill="#fff" stroke="#000" stroke-linecap="round" stroke-linejoin="round"/>
    <path d="M145.3 127.46a42.63 42.63 0 0 1-42.63 42.63c-30.57 0-42.62-27.01-42.62-42.63 0-23.54 13.13-46.3 42.62-42.62 27.39 3.41 42.63 19.08 42.63 42.62Z" fill="#000"/>
    <path d="M113.18 112.1c1.53-4.68-.46-9.55-4.46-10.86-4-1.31-8.5 1.42-10.03 6.1-1.54 4.7.46 9.55 4.46 10.87 4 1.31 8.49-1.42 10.03-6.1Z" fill="#fff"/>
    <path d="M107.42 109.86c.68-2.07.1-4.12-1.27-4.57-1.39-.45-3.06.86-3.74 2.93-.68 2.07-.1 4.11 1.27 4.57 1.39.45 3.06-.86 3.74-2.93Z" fill="#000"/>
    <path d="M79.35 105.08c-1.69 4.65-5.16 7.86-8.43 6.8-3.28-1.08-4.68-5.77-3.14-10.47 1.54-4.7 5.45-7.64 8.73-6.56 3.28 1.07 4.74 4.98 2.84 10.23Z" fill="#fff"/>
    <path d="M75.29 103.87c.68-2.07.1-4.12-1.27-4.57-1.39-.45-3.06.86-3.74 2.93-.68 2.07-.1 4.11 1.28 4.57 1.38.45 3.05-.86 3.73-2.93Z" fill="#000"/>
    <path d="M104.46 133.26c-.75-6.52-5.36-4.72-9.96-14.95-3.2-7.12-1.5-13.66-7.1-15.1-6.12-1.57-8.26 8.1-13.7 12.7-6.18 5.21-9.37 2.85-12.43 8.85-2.76 5.39 1.16 17.52 6.69 27.2 1.47 2.2 3.17 4.31 5.1 6.27 2.02 2.05 3.68 5.27 6.22 6.9.7.44 2.97.94 3.71 1.34 5.64 3.11 11.53 3.62 19.68 3.62 2.94 0 5.8-.3 8.56-.86-13.8-13.14-5.92-28.56-6.77-35.97Z" fill="#fff"/>
    <path d="M77.94 113.74c-.67 1.25.87 4.76 3.07 5.34 2.6.67 5.08-1.65 5.47-3.08.61-2.26-7.95-3.38-8.54-2.26v0Z" fill="#000" stroke="#000" stroke-linecap="round" stroke-linejoin="round"/>
    <path d="M81.26 119.22a7.47 7.47 0 0 1-6.07 3.79 6.07 6.07 0 0 0 1.22 4.44c.23.28 1.36 1.69 3.11 1.95 2.25.33 4.78-1.34 6-4.2a5.99 5.99 0 0 1-1.82-1c-2.13-1.7-2.4-4.33-2.43-4.98Z" fill="#000"/>
    <path d="M74.78 161c-.81-1.4-1.9-2.96-2.17-3.24-8.76-9.15-12.57-21.52-12.57-30.3 0-23.54 13.14-46.3 42.63-42.62 27.38 3.41 42.62 19.08 42.62 42.62a42.64 42.64 0 0 1-33.14 41.57" stroke="#000" stroke-linecap="round" stroke-linejoin="round"/>
    <path d="m117.45 90.6 1.6-1.74a87.83 87.83 0 0 1 11.45-17.07 3.2 3.2 0 0 1 4.98.18c5.53 7.34 12.72 27.19 9.78 57.25l-23.06-23.73-4.75-14.88Z" fill="#000" stroke="#000" stroke-linecap="round" stroke-linejoin="round"/>
    <path d="M119.32 88.36s5.26-.13 11.3 11.11c.47.88 1.58 1.36 2.05.49 2.01-3.82 3.87-29.27-2.17-28.16a87.23 87.23 0 0 0-11.18 16.56Z" fill="#fff" stroke="#000" stroke-linecap="round" stroke-linejoin="round"/>
    <path d="M114.69 195.08a70 70 0 1 0 0-139.99 70 70 0 0 0 0 139.99Z" stroke="#fff" stroke-linecap="round" stroke-linejoin="round"/>
    <path d="M183.46 183.37c-.85-.13-.84-3.97-1-4.83a105.62 105.62 0 0 1 .23-36.87c1.3-5.32 4.16-5.12 4.86-10.8 5.15-41.44-20.19-73.9-55.85-77.11 24.9 3.68 32.46 83.42 32.66 93.33-15.9 14.72-65.13 29.06-105.47 20.25-4 0 2.65 14.75 2.65 14.75l11.52 9.18a287.65 287.65 0 0 0 35.26 72.58l101.18 4.4-3.04-51.64c-4.53-9.64-15.79-32.12-23-33.24h0Z" fill="#fff" stroke="#000" stroke-linecap="round" stroke-linejoin="round"/>
    <path d="M190.53 188.94c-2.53-3.1-4.97-5.24-7.07-5.57-.78-.13-.83-3.4-.96-4.57l-22.1 15.82c6.75-1.14 26.86-7.18 30.13-5.69v.01Z" fill="#000"/>
    <path d="M152.75 263.14c-12.8-21.93-4.54-46.11 10.11-52.54 8.59-3.77 19.6-2.94 28.76 8.62 1.18 1.48 3.57-1.53 5.04-.24-11.98-19.48-32.27-20.2-44.71-13.7-15.92 8.32-23.28 36.77-6 59.1l6.8-1.24v0Z" fill="#fff" stroke="#000" stroke-linecap="round" stroke-linejoin="round"/>
    <path d="M113 254.07a108.85 108.85 0 0 1-25.98-45.5" stroke="#000" stroke-linecap="round" stroke-linejoin="round"/>
    <path d="M180.72 170.09c-5.2 0-11.83 4-19.92 7.4-32.26 13.55-80.77 20.66-87.74 13.77l4.82 13.7c12.21 13.53 95.67-11 105.58-21.6 4.8-4.07 2-13.27-2.74-13.27Z" fill="#fff" stroke="#000" stroke-linecap="round" stroke-linejoin="round"/>
    <path d="m162.11 139.42-.92 1c3.2-1.27 9.66-2.53 12.87-3.8C176.1 76.6 137.8 38.1 95.14 48.47c-27.31 6.63-27.91 25.18-27.91 25.18 1.76-1.65 7.35-5.93 7.36-5.92 38.45-30.41 86.24 2 87.52 71.7Z" fill="#fff"/>
    <path d="M170.67 103.17c-10.18-40.12-41.47-62.99-75.53-54.71-27.31 6.63-27.91 25.18-27.91 25.18 1.76-1.65 6.17-5.04 6.17-5.03l1.18-.88c40.84-29.07 86.25 2 87.53 71.7l-.92.99c3.2-1.27 9.66-2.52 12.87-3.79.32-9.42-.35-18.31-1.88-26.57" stroke="#000" stroke-linecap="round" stroke-linejoin="round"/>
    <path d="M67.52 79.59c-4.19.84-7.23 5.35-9 8.5-3.19 5.75-5.56 12.82-2.46 13.97 1.38.52 4.33.27 12.88-10.31 4.88-6.04 7.05-7.76 6.51-9.38-.75-2.27-4.81-3.4-7.93-2.78ZM55.98 107.78c-.76-1.2-2.13-2.2-3.23-.95-2.38 2.76-3.15 9.56-.57 9.56 1.74 0 4.94-6.81 3.8-8.61ZM43.97 57.98l.87 3.95a6.45 6.45 0 0 0 3.65 4.57l1.82.8c.35.15.35.7 0 .85l-1.82.8c-1.83.8-3.19 2.5-3.65 4.57l-.87 3.95a.42.42 0 0 1-.83 0l-.87-3.95a6.45 6.45 0 0 0-3.65-4.58l-1.82-.8c-.35-.15-.35-.69 0-.84l1.82-.8c1.83-.8 3.19-2.5 3.65-4.57l.87-3.95c.1-.47.73-.47.83 0ZM160.73 32.6l.7 3.18a5.2 5.2 0 0 0 2.94 3.68l1.46.64c.29.12.29.56 0 .69l-1.46.63a5.2 5.2 0 0 0-2.94 3.68l-.7 3.18a.34.34 0 0 1-.67 0l-.7-3.18a5.2 5.2 0 0 0-2.94-3.68l-1.46-.63c-.29-.13-.29-.56 0-.69l1.46-.64a5.2 5.2 0 0 0 2.94-3.68l.7-3.18a.34.34 0 0 1 .67 0Z" fill="#fff"/>
    <path d="m37.8 159.66 1.46 6.63a10.84 10.84 0 0 0 6.13 7.68l3.05 1.33c.6.26.6 1.17 0 1.43l-3.05 1.33a10.85 10.85 0 0 0-6.13 7.68l-1.46 6.63a.7.7 0 0 1-1.4 0l-1.46-6.63a10.84 10.84 0 0 0-6.13-7.68l-3.04-1.33c-.6-.26-.6-1.17 0-1.43l3.04-1.33a10.85 10.85 0 0 0 6.13-7.68l1.46-6.63a.7.7 0 0 1 1.4 0Z" fill="#fff" stroke="#6EDAFF" stroke-linecap="round" stroke-linejoin="round"/>
    <path d="M98.1 181.57c1.08-.33 1.5-2.07.94-3.89-.56-1.8-1.9-3-2.98-2.67-1.08.34-1.5 2.08-.95 3.9.56 1.8 1.9 3 2.98 2.66ZM106.63 180.97c1.33-.42 1.86-2.55 1.17-4.77-.69-2.22-2.33-3.69-3.66-3.27-1.33.4-1.86 2.54-1.17 4.76.69 2.22 2.33 3.69 3.66 3.28Z" fill="#6EDAFF"/>
    <path d="M83.84 171.62a24.23 24.23 0 0 1 2.67 9.56c.4 4.87-.53 9.35-2.35 12.65M89.93 171.9a36.3 36.3 0 0 1 1.81 9c.38 4.65-.07 9.05-1.18 12.9M117.48 175.03c12.03-2.65 46.15-11.9 48.25-18.94" stroke="#000" stroke-linecap="round" stroke-linejoin="round"/>
    <path d="M80.96 182.16c-1.02-5.52-5.24-9.7-9.51-9.5l-6.4.03.78 4.12a11.52 11.52 0 0 0-.67 6.78 13.3 13.3 0 0 0 3.16 6.49l.56 2.98 5.56.03.51-.03c4.37-.4 7.06-5.28 6.01-10.9v0Z" fill="#fff" stroke="#000" stroke-linecap="round" stroke-linejoin="round"/>
    <path d="M70.17 192.8c4.13-1.31 6.07-6.83 4.33-12.31-1.75-5.5-6.51-8.88-10.65-7.57-4.13 1.32-6.07 6.83-4.33 12.32 1.75 5.5 6.51 8.88 10.65 7.56Z" fill="#fff" stroke="#000" stroke-linecap="round" stroke-linejoin="round"/>
    <path d="M165.73 175.3c2.27-.85 12.73-4.36 15-5.21 2.23-1.26-3.4-11.52-5.26-14.63l-7.74-7.13-12.49 5.05c1.8.58 4.12 8.22 2.48 8.7 3.35-1.27 11.13 11.77 8.01 13.21Z" fill="#000"/>
    <path d="m184.34 125.48-.13-.03c-.18-.06-5.75-1.54-6.1-1.6h-.03c-9.92-1.98-20.09 5.13-23.07 16.34-3.08 11.62 2.72 23.24 12.95 25.96 0 0 5.23 1.38 5.58 1.44h.02c9.9 1.98 20.09-5.13 23.07-16.34 3.02-11.36-2.47-22.72-12.3-25.76v0Z" fill="#fff" stroke="#000" stroke-linecap="round" stroke-linejoin="round"/>
    <path d="M185.07 162.62c5.64-1.97 10.28-7.05 12.07-13.83M165.41 153.62c2 4.59 5.71 8.12 10.55 9.4 1.68.45 3.36.6 5.03.47" stroke="#000" stroke-linecap="round" stroke-linejoin="round"/>
    <path d="m184.74 125.62-6.47 21.51 3.33 1.9 12.37-16.13a17.86 17.86 0 0 0-9.23-7.28Z" fill="#000"/>
    <path d="m208.8 63.3-26.57 84.49a4.4 4.4 0 1 1-8.3-2.94l32.6-82.34c.56-1.39 2.72-.71 2.28.8v0Z" fill="#fff" stroke="#000" stroke-linecap="round" stroke-linejoin="round"/>
    <path d="m203.22 60.9-1.67 4.59c-.24.67 1.7 2 4.36 2.96s5 1.2 5.24.54l1.67-4.6-9.6-3.49Z" fill="#fff" stroke="#000" stroke-linecap="round" stroke-linejoin="round"/>
    <path d="M212.82 64.4c.25-.67-1.7-2-4.36-2.96-2.65-.97-5-1.2-5.24-.54-.24.67 1.71 2 4.36 2.96 2.65.96 5 1.2 5.24.54Z" fill="#fff" stroke="#000" stroke-linecap="round" stroke-linejoin="round"/>
    <path d="M107.25 143.3c20.27 5.97 44.36 4.07 47.86 2.35 4.2-2.08 8.4 2.69 3.1 6.01-9.42 5.92-44.6-2-52.03-4.56-5.79-2-6.16-5.91 1.07-3.79Z" fill="#fff"/>
    <path d="M107.4 145.49c.85-2.71-2.62-6.21-7.75-7.81-5.14-1.6-9.99-.7-10.83 2-.85 2.72 2.62 6.22 7.76 7.82 5.13 1.6 9.98.7 10.83-2.01Z" fill="#fff"/>
    <path d="M155.11 145.64c-2.89 1.68-27.6 3.63-47.86-2.34-.88-2.18-3.75-4.41-7.56-5.61-5.12-1.62-10-.74-10.87 1.96-.88 2.7 2.57 6.21 7.7 7.83 3.94 1.24 7.72 1 9.66-.4 7.44 2.58 42.6 10.49 52.04 4.57 5.3-3.32.81-8.29-3.1-6.01h0Z" stroke="#000" stroke-linecap="round" stroke-linejoin="round"/>
    <path d="M106.19 147.09a3.2 3.2 0 0 1-.16-1.99 3.2 3.2 0 0 1 1.22-1.8" stroke="#000" stroke-linecap="round" stroke-linejoin="round"/>
  </g>
  <path d="M221.37 59.6c-.99-3.74-4.14-7.23-8.66-9-1.27-.51-2.57-.85-3.85-1.02M236.98 56.67c-2.15-8.13-9-15.7-18.82-19.57a34.2 34.2 0 0 0-19.13-1.91" stroke="#6EDAFF" stroke-linecap="round" stroke-linejoin="round"/>
  <path d="M252 55.45c-3.56-12.32-14.05-23.7-28.97-29.6a53.26 53.26 0 0 0-29.05-3.07" stroke="#6EDAFF" stroke-linecap="round" stroke-linejoin="round"/>
  <mask id="b" fill="#fff">
    <path d="M233.19 124.6c0-62.18-50.41-112.6-112.6-112.6C58.41 12 8 62.42 8 124.6c0 37.66 18.51 70.99 46.92 91.42l-10.4 28.34a2.8 2.8 0 0 0 2.62 3.77h146.9a2.8 2.8 0 0 0 2.64-3.77l-10.4-28.34a112.42 112.42 0 0 0 46.9-91.42Z"/>
  </mask>
  <path d="m54.92 216.02.93.35a1 1 0 0 0-.35-1.16l-.58.81Zm-10.4 28.34.94.35-.94-.35Zm152.16 0 .93-.34-.94.34Zm-10.4-28.34-.59-.8a1 1 0 0 0-.35 1.15l.94-.35Zm47.9-91.42C234.19 61.86 183.34 11 120.6 11v2c61.64 0 111.6 49.97 111.6 111.6h2ZM120.6 11C57.87 11 7 61.86 7 124.6h2C9 62.97 58.96 13 120.6 13v-2ZM7 124.6c0 38 18.68 71.62 47.33 92.24l1.17-1.63A111.41 111.41 0 0 1 9 124.6H7Zm46.98 91.08-10.4 28.34 1.88.69 10.4-28.34-1.88-.7Zm-10.4 28.34a3.8 3.8 0 0 0 3.56 5.1v-2a1.8 1.8 0 0 1-1.68-2.41l-1.88-.7Zm3.56 5.1h146.9v-2H47.14v2Zm146.9 0a3.8 3.8 0 0 0 3.57-5.1l-1.88.69a1.8 1.8 0 0 1-1.69 2.42v2Zm3.57-5.1-10.4-28.34-1.87.69 10.4 28.34 1.87-.69Zm-10.75-27.19a113.42 113.42 0 0 0 47.33-92.23h-2c0 37.33-18.35 70.35-46.5 90.61l1.17 1.63Z" fill="#6EDAFF" mask="url(#b)"/>
</svg>
