<svg width="260" height="260" viewBox="0 0 260 260" fill="none" xmlns="http://www.w3.org/2000/svg">
  <path d="M113.98 20.02v-7.29a2.73 2.73 0 0 0-3-2.7C50.77 16.85 4 67.9 4 129.92 4 190.68 53.23 240 114 240v7.28a2.7 2.7 0 0 0 3 2.72C177.17 243.16 223.9 192 223.98 130c0-60.74-49.24-109.97-109.97-109.97" fill="#FFB26E"/>
  <mask id="a" style="mask-type:alpha" maskUnits="userSpaceOnUse" x="4" y="10" width="223" height="240">
    <path d="M113.98 20.02v-7.29a2.73 2.73 0 0 0-3-2.7C50.77 16.85 4 67.9 4 129.92 4 190.68 11.35 247.28 114 240v7.28a2.7 2.7 0 0 0 3 2.72 120.57 120.57 0 0 0 82.63-47.31c37.33 0 24.32-45.4 24.35-72.67 0-60.74-49.24-109.97-109.97-109.97" fill="#B680FF"/>
  </mask>
  <g mask="url(#a)">
    <path d="M153.4 222.13a76.13 76.13 0 0 1 37.55-40.45M183.7 219.78c5.92-2.93 9.86-7 8.82-9.12-1.05-2.1-6.68-1.45-12.6 1.48-5.9 2.92-9.84 7-8.8 9.11 1.04 2.1 6.68 1.45 12.59-1.47ZM148.88 235.32c1.9-5.66 2-10.73.24-11.32-1.77-.6-4.73 3.52-6.63 9.19-1.89 5.66-2 10.74-.23 11.32 1.77.6 4.73-3.52 6.62-9.19Z" stroke="#fff" stroke-linecap="round" stroke-linejoin="round"/>
    <path d="M189.4 211.3c.49-.04.98.04 1.44.22-.11.9-2.43 3.9-7.95 6.63-3.19 1.57-6.44 2.51-8.66 2.51-.49.04-.98-.04-1.44-.22.1-.9 2.43-3.9 7.95-6.63 3.19-1.57 6.44-2.52 8.66-2.52Zm0-1.85c-2.43 0-5.9.92-9.47 2.71-5.91 2.92-9.86 7-8.82 9.11.42.83 1.54 1.24 3.12 1.24 2.42 0 5.9-.92 9.47-2.71 5.91-2.93 9.86-7 8.81-9.12-.41-.83-1.54-1.23-3.11-1.23ZM148.42 226.04c.27 1.27.15 4.4-1.29 8.69-1.43 4.29-3.22 6.87-4.19 7.7-.27-1.25-.14-4.38 1.29-8.67 1.43-4.3 3.22-6.87 4.19-7.72Zm.34-2.12c-1.79 0-4.5 3.95-6.27 9.26-1.9 5.66-2 10.73-.24 11.32.12.04.23.06.35.06 1.8 0 4.5-3.94 6.28-9.25 1.9-5.67 2-10.74.23-11.33a1.01 1.01 0 0 0-.35-.06Z" fill="#fff" stroke="#fff" stroke-linecap="round" stroke-linejoin="round"/>
    <path d="M148.79 223.93c1.65-.24 3.22-.86 4.6-1.8 1.1-.83 2.04-1.87 2.73-3.06M170.95 220.56a26.28 26.28 0 0 1-3.42 10.64M169.46 207.12c1.07-1.07 1.58-2.28 1.15-2.71-.43-.43-1.64.09-2.7 1.15-1.07 1.07-1.6 2.28-1.16 2.71.43.43 1.64-.08 2.7-1.15Z" stroke="#fff" stroke-linecap="round" stroke-linejoin="round"/>
    <path d="M67.66 73.8a8 8 0 0 1 3.22.17c4.03 1.07 5.74 5.09 5.98 5.7-.92 1.12-6.7 8.17-9.2 6.82-1.9-1.03-.92-2.71 1.14-5.95a.56.56 0 0 0-.35-.85c-1.3-.24-3.7 1.58-3.9 4.27-.25 3.54-1.44 4.37-2.37 4.46-.38.04-3.16-2.34-.81-7.4" fill="#fff"/>
    <path d="m66.1 80 2.7-7.12c-3.06 2.1-9.58 6.78-10.85 9.66-.95 2.18-1.09 4.97.23 5.74.69.4 2.22-.08 2.57-1.38 1.07-1.4 2.23-2.6 3.3-4.01" fill="#fff"/>
    <path d="M78.06 108.46S59.14 120.09 57.36 130c-1 5.45 4.92 17.84 14.84 26.69l8.04-8.8-2.18-7.53a64.3 64.3 0 0 0-3.93-5.76c.74.04 9.97-1.84 9.63-2.5 4.98-2.77 6.44-9.08 5.06-14.43a12.42 12.42 0 0 0-10.76-9.21Z" fill="#fff" stroke="#000" stroke-linecap="round" stroke-linejoin="round"/>
    <path d="M72.82 133.09a39.3 39.3 0 0 1 5.85 8.37l-5.85-8.38Z" fill="#fff"/>
    <path d="M72.82 133.09a39.3 39.3 0 0 1 5.85 8.37M59.89 124.37c2.76 1.2 2.9 13.18-1.48 12.68" stroke="#000" stroke-linecap="round" stroke-linejoin="round"/>
    <path d="M105.94 62.04c-4.45-.92-18.62-.76-38.28 11.76l9.2 5.87a64.83 64.83 0 0 1 22.9-3.01c-2.07 7.99-18.7 28.15-21.7 31.8a103.11 103.11 0 0 0 .1 12.88 16.04 16.04 0 0 0 3.8 9.3l.77.88 26.82 6.03a204.3 204.3 0 0 0 23.52-26.23c4.6 2.07 22.87 19.43 27.28 23.8l14.77-18.68c-8.6-2.94-25.08-16.5-28.63-20.38l-40.55-34.02Z" fill="#fff"/>
    <path d="M77.77 79.39c3.37-1.23 7.06-1.93 12.2-2.46 3.25-.34 6.53-.43 9.8-.27-2.08 7.99-18.7 28.15-21.71 31.8" stroke="#000" stroke-linecap="round" stroke-linejoin="round"/>
    <path d="M109.56 137.55a204.44 204.44 0 0 0 23.51-26.23c4.6 2.07 22.87 19.43 27.28 23.8l14.77-18.68c-8.6-2.94-25.08-16.5-28.63-20.38l-40.55-34.05c-4.45-.92-15.34-.82-32.2 8.18M79.05 120.91c-.15 5.31 2.11 10.45 3.02 11.64" stroke="#000" stroke-linecap="round" stroke-linejoin="round"/>
    <path d="M106.91 127.89c1.32.8 2.52 1.8 3.54 2.95a18.38 18.38 0 0 1 2.25 3.52 1.09 1.09 0 0 1-.4 1.41l-2.75 1.78" fill="#fff"/>
    <path d="M106.91 127.89c1.32.8 2.52 1.8 3.54 2.95a18.38 18.38 0 0 1 2.25 3.52 1.09 1.09 0 0 1-.4 1.41l-2.75 1.78" stroke="#000" stroke-linecap="round" stroke-linejoin="round"/>
    <path d="M82.73 131.52c-7.9 12.35-11.1 24.04-11.55 32.81-.45 8.78 8 16.72 13.14 19.47.3 5.93 1.47 8.94 4.08 9.48 7.75 1.58 14.01-18.91 7.67-23.34 0 0-.5-2.07-.79-3.15a85.3 85.3 0 0 0-1.04-3.59c2.6-3.27 14.64-22.26 15.32-25.65 1.12-5.58-23.3-9.66-26.83-6.03Z" fill="#fff"/>
    <path d="M82.73 131.52c-7.9 12.35-11.1 24.04-11.55 32.81-.45 8.78 8 16.72 13.14 19.47.3 5.93 1.47 8.94 4.08 9.48 7.75 1.58 14.01-18.91 7.67-23.34 0 0-.5-2.07-.79-3.15a85.3 85.3 0 0 0-1.04-3.59c2.6-3.27 14.64-22.26 15.32-25.65.62-3.14-6.85-5.86-14.55-6.63" stroke="#000" stroke-linecap="round" stroke-linejoin="round"/>
    <path d="M95.36 171.95c.33-.63.57-1.31.71-2M92.53 181.69c-.53.54-4.6 4-8.2 2.11M91.21 162.42a6.52 6.52 0 0 0 3.03.78M90.78 167.42a9.93 9.93 0 0 0 4.5-.63" stroke="#000" stroke-linecap="round" stroke-linejoin="round"/>
    <path d="M81.04 110.23a35.72 35.72 0 0 0-.88-3.8.46.46 0 0 0-.61-.26 151.52 151.52 0 0 0-1.44 1.39.94.94 0 0 0-.28.81c.12.83.22 1.73.3 2.68" fill="#fff"/>
    <path d="M81.04 110.23a35.72 35.72 0 0 0-.88-3.8.46.46 0 0 0-.61-.26 151.52 151.52 0 0 0-1.44 1.39.94.94 0 0 0-.28.81c.12.83.22 1.73.3 2.68M73.19 70.42c2.3-.46 5.52 8.01 4.26 9.13.46-.11 3.85-1.32 4.5-1.38 1.9-1.8-1.88-10.92-4.89-9.66-.69.36-3.18 1.54-3.87 1.9ZM145.55 110.7a12.8 12.8 0 0 1 8.28-8.08M148.53 109.36a12.89 12.89 0 0 1 6.83-5.53" stroke="#000" stroke-linecap="round" stroke-linejoin="round"/>
    <path d="M160.35 135.14c3.49 4.6 8.96 8.93 10.26 11.07 5.92 9.74 8.26 10.12 9.91 9.61 2.07-.64 2.85-3.24-.86-11.35 7.52 3.63 12.47-4.8 13.04-9.93.28-2.38-2.16-7.23-2.95-8.82-1.57-3.68-11.96-8.15-14.65-9.27-10.9-3.34-21.76 11.72-14.75 18.69Z" fill="#fff"/>
    <path d="M164.82 110.83c-4.66-1.41-15.64 9.49-12.72 16.42l8.25 7.89c-3.3-9.78 11.27-20.25 14.77-18.7a49.6 49.6 0 0 1-10.3-5.61Z" fill="#fff"/>
    <path d="M172.76 125.69c5.4 9.45 13.86 3.73 17.22-.21 2.3-2.7 8.85-5.6 6.79-9.76-2.96-3.77-14.95 3.88-21.65.73l-7.26-2.73" fill="#fff"/>
    <path d="m189.24 123.2.53 2.52c6.26 5.75 13.42 10.33 14.79 13.38.87 1.94.61 3.53-.6 4.7-.77.76-5.24 1.72-12.03-5.88" fill="#fff"/>
    <path d="M185.8 140.95c9.42 11.93 12.99 11.22 14.1 10.28 1.12-.95 3.48-3.83-8.9-15.35" fill="#fff"/>
    <path d="M178.1 142.9c9.42 11.94 13.02 13.7 15.65 11.85 1.16-.8 3.47-3.83-8.91-15.35" fill="#fff"/>
    <path d="M160.35 135.14c3.49 4.6 8.96 8.93 10.26 11.07 5.92 9.74 8.26 10.12 9.91 9.61 2.07-.64 2.24-4.03.18-10.12M164.82 110.83c-4.66-1.41-15.64 9.49-12.72 16.42l8.25 7.89c-3.3-9.78 11.27-20.25 14.77-18.7a49.6 49.6 0 0 1-10.3-5.61ZM175.43 129.02c5.2 4.4 11.7-.22 14.55-3.55 2.3-2.7 8.85-5.6 6.79-9.76-2.96-3.77-14.95 3.88-21.65.73" stroke="#000" stroke-linecap="round" stroke-linejoin="round"/>
    <path d="M189.77 125.72c6.26 5.75 13.42 10.33 14.79 13.38.87 1.94.73 3.66-.6 4.7-.95.76-3.3 2.25-13.12-6.13" stroke="#000" stroke-linecap="round" stroke-linejoin="round"/>
    <path d="M186.51 141.82a51.9 51.9 0 0 0 6.93 7.34c3.91 3.22 5.73 2.7 6.48 2.07.82-.7 2.38-3.09-2.46-8.62M180.7 145.72c9.42 11.93 11.94 9.97 13.06 9.03.6-.5 1.58-1.6.31-4.39-.19-.41-.4-.82-.63-1.2" stroke="#000" stroke-linecap="round" stroke-linejoin="round"/>
    <path d="M176.84 147.5a34.64 34.64 0 0 0 15.87-12.36" stroke="#000" stroke-linecap="round" stroke-linejoin="round"/>
    <path d="M136.01 101.1a28.56 28.56 0 1 0 0-57.14 28.56 28.56 0 0 0 0 57.13Z" fill="#000" stroke="#000" stroke-linecap="round" stroke-linejoin="round"/>
    <path d="M110.14 78.04a28.56 28.56 0 0 1 52.77-15.16 28.56 28.56 0 1 0-51.08 24.8 28.47 28.47 0 0 1-1.7-9.64Z" fill="#fff" stroke="#000" stroke-linecap="round" stroke-linejoin="round"/>
    <path d="M113.8 65.8c1.64-4.82 1.15-9.36-1.1-10.12-2.25-.77-5.4 2.53-7.04 7.36-1.64 4.83-1.15 9.37 1.1 10.13 2.25.77 5.4-2.53 7.04-7.36Z" stroke="#000" stroke-linecap="round" stroke-linejoin="round"/>
    <path d="M116.3 66.66c1.86-5.45 1.07-10.65-1.75-11.6-2.82-.97-6.61 2.68-8.46 8.13-1.85 5.45-1.07 10.65 1.76 11.6 2.82.97 6.6-2.68 8.46-8.13Z" fill="#fff" stroke="#000" stroke-linecap="round" stroke-linejoin="round"/>
    <path d="M113.8 65.8c1.64-4.82 1.15-9.36-1.1-10.12-2.25-.77-5.4 2.53-7.04 7.36-1.64 4.83-1.15 9.37 1.1 10.13 2.25.77 5.4-2.53 7.04-7.36Z" fill="#fff" stroke="#000" stroke-linecap="round" stroke-linejoin="round"/>
    <path d="M118.47 73.95c-1.83.37-2.58 9.88 1.95 14.47 5.06 5.13 12.66 4.56 13.54 3.15 1.46-2.3-5.68-3.89-8.77-6.63-4.41-3.91-4.5-11.44-6.72-11Z" fill="#FFB26E"/>
    <path d="M150.9 62.59c-2.56.99-.63 3.97.51 6.58 1.1 2.52.6 5.98 1.26 6.27 2.25.95 4.56-3.48 3.97-7.47-.52-3.54-3.45-6.27-5.75-5.38ZM146.3 59.77a2.04 2.04 0 1 0 0-4.08 2.04 2.04 0 0 0 0 4.08Z" fill="#fff"/>
    <path d="M98.46 106.1a78.96 78.96 0 0 1 15.18-15.82M112.81 115.21l-1.2-.92a149 149 0 0 1 9.5-11.04l1.2 1.2a143.85 143.85 0 0 0-9.5 10.76ZM78.06 79.27c-3.39 1.26-7.33 8.5-10.4 7.21-1.25-.52-.92-2.7 1.14-5.94a.56.56 0 0 0-.34-.85c-1.3-.25-3.9 1.57-3.9 4.27 0 4.16-1.45 4.36-2.38 4.46-1.69.17-2.58-4.89-.81-7.4" stroke="#000" stroke-linecap="round" stroke-linejoin="round"/>
    <path d="M73.9 70.12c-5.86 2.3-13.9 7.69-15.95 12.42-.94 2.19-.73 5.15.23 5.74.69.41 2.22-.08 2.57-1.38" stroke="#000" stroke-linecap="round" stroke-linejoin="round"/>
    <path d="M215.18 56.93a12.97 12.97 0 0 1-25.28 4.09c-.09-.25-1.71-.19-1.78-.46-.33-1.39-.53-2.81-.57-4.24 0-.62 1.73-.63 1.82-1.22a12.97 12.97 0 0 1 25.8 1.84Z" fill="#fff"/>
    <path d="M207.52 174.11c-5.01 4.02-10.85 5.09-17.09 4.44-30.7-3.17-28.26-43.1-64.83-33.32-30.12 8.07-1.77 47.67-25.12 66.72-18.52 15.13-56.23 13.65-73.24-9.2C6.9 175.38 16.3 120.09 48 101.1c10.37-6.21 23.05-7.9 37.73-2.2 0 0 1.23-1.58 1.5-1.98-8.2-3.22-25.03-8.5-43.29 3.97-32.67 22.3-42.8 75-22.48 105.95 14.72 22.42 52.3 33.32 84.55 11.66 20.55-13.8 2.3-57.34 19.6-63.34 30.92-10.72 28.97 63.22 89.08 36.87l7.72-7.66-14.88-10.26Z" fill="#fff" stroke="#000" stroke-linecap="round" stroke-linejoin="round"/>
    <path d="M171.5 169.73c-1.97-.55-6 2.98-6.41 6.02M174.5 172.27c-2.06-.77-5.92 1.27-7 4.32M123.5 145.86c-3.67 1.25-1.3 10.12 1.47 9.53M119.35 147.8c-3.52 1.63-.27 10.64 2.43 9.8M115.14 151.35c-1.97 2.47 2.3 10.69 5.06 8.4" stroke="#000" stroke-linecap="round" stroke-linejoin="round"/>
    <path d="M76.36 22.78c.06 2.43-.18 4.87-.7 7.25-3.14 13.8-16.94 29.68-36.2 29.66-19.42 0-36.92-16.16-36.92-36.91a36.91 36.91 0 0 1 73.82 0Z" fill="#fff" stroke="#FFB26E" stroke-miterlimit="10"/>
    <path d="M55.24 45.44c1.57-2.2 2.1-4.5 1.17-5.16-.92-.66-2.94.58-4.5 2.76-1.57 2.2-2.1 4.5-1.18 5.16.92.66 2.94-.58 4.51-2.76Z" stroke="#FFB26E" stroke-linecap="round" stroke-linejoin="round"/>
    <path d="M51.9 43.05c-1.05 1.47-1.63 3-1.62 4.04a8.08 8.08 0 0 0 3.08-2.76c1.06-1.48 1.64-3 1.62-4.04a8.15 8.15 0 0 0-3.08 2.76Z" fill="#FFB26E"/>
    <path d="M73.69 28.93c-.33 2.19.88 5.35 1.23 6.58-1.7 3.5-3.64 6.77-5.33 10.27-.92.2-.46-.52-4.6 2.93" fill="#fff"/>
    <path d="M73.69 28.93c-.33 2.19.88 5.35 1.23 6.58-1.7 3.5-3.64 6.77-5.33 10.27-.92.2-.46-.52-4.6 2.93" stroke="#FFB26E" stroke-linecap="round" stroke-linejoin="round"/>
    <path d="M73.78 41.33c1.4-2.9 1.8-5.6.9-6.05-.91-.44-2.8 1.55-4.2 4.45-1.4 2.9-1.8 5.6-.89 6.05.91.44 2.79-1.55 4.2-4.45Z" fill="#fff" stroke="#FFB26E" stroke-linecap="round" stroke-linejoin="round"/>
    <path d="M67.76 189.73a2.16 2.16 0 1 0 0-4.33 2.16 2.16 0 0 0 0 4.33Z" fill="#fff"/>
  </g>
  <path d="M229.05 136.87a60.3 60.3 0 0 1-5.92 21.87c.32-1.91-.31-10.4-2.97-12.08 1.03 4.5-3.59 14.17-4.51 13.83a5.43 5.43 0 0 0-1.84-2.55c.22 1.44-.32 6.9-1.38 7.83-.7-1.3-5.13-7.39-7.43-8.75.99 2.22 7.02 14.27 4.33 13.45-2.4-.57-4.9-.57-7.3 0a25.83 25.83 0 0 1 10.41 10.95c4.5 9.14 1.84 17.84 1.22 19.7a33.9 33.9 0 0 0 10.33-10.02c2.03-.82.85 12.9 0 15.95 3.4-3.75 6.13-13.38 7.17-14.55 1.53-1.53 5.3 4.42 5.89 5.44-.1-.55 0-7.44 1.38-9.46 2.85-4.11 9.03-4.85 15.25-8.32-2.01-.2-10.53-3.47-11.7-5.22-1.25-1.35 2.76-6.48 3.6-7.31-.72.18-4.46.57-5.52-.9-1.87-2.02 4.34-7.58 8.29-8.53-6.99-.99-13.57 2-17.58 4.98-.45-3.28 1.42-21.08-1.72-26.31Z" fill="#FFB26E" stroke="#000" stroke-linecap="round" stroke-linejoin="round"/>
  <path d="M231.37 186.64c4.23-2.1 5.2-8.78 2.16-14.93-3.05-6.16-8.95-9.45-13.19-7.35-4.24 2.1-5.2 8.78-2.16 14.94 3.05 6.15 8.95 9.44 13.19 7.34Z" fill="#000" stroke="#000" stroke-linecap="round" stroke-linejoin="round"/>
  <path d="M227.86 98.85c2.47 3.8 5.98 17.41 4.69 33.02M242.77 90.11c.73 9.78-4.98 53.3-5.93 59.82" stroke="#FFB26E" stroke-linecap="round" stroke-linejoin="round"/>
  <path d="M20.97 70.06a119.9 119.9 0 0 1 90.12-59.1h.2a1.77 1.77 0 0 1 1.75 1.78v8.22h.92a109.19 109.19 0 0 1 94.94 55.31h1.07a109.97 109.97 0 0 0-95.99-56.25v-7.29a2.72 2.72 0 0 0-2.7-2.72h-.3a120.77 120.77 0 0 0-90.82 59.61l.81.44Z" fill="#FFB26E"/>
  <path d="M256.24 109.97a33.6 33.6 0 0 0-9.57 18.93" stroke="#FFB26E" stroke-linecap="round" stroke-linejoin="round"/>
  <path d="M195.9 63.86c.3-.28 0-1.1-.67-1.83s-1.46-1.1-1.77-.83c-.3.28 0 1.1.67 1.83.68.73 1.46 1.1 1.77.83Z" fill="#FFB26E"/>
  <path d="M71.28 162.93a3.65 3.65 0 0 1 1.74-1.52c2.76-1.08 6.45 1.73 8.2 6.27 1.77 4.54 1.02 9.1-1.72 10.18-.81.3-1.7.31-2.52.02M213.1 171.64a18.8 18.8 0 0 0-11.05-1.16" stroke="#000" stroke-linecap="round" stroke-linejoin="round"/>
</svg>
