<svg xmlns="http://www.w3.org/2000/svg" width="240" height="240"><path d="M107 126H67.2l-10.8-14L69 101v21h38zM64 62.6a22.3 22.3 0 0 1 1-8.6H50v24l4-3.8a16.7 16.7 0 0 1 10-4.8 37.3 37.3 0 0 1 0-6.8zm63.3 79.4a19.5 19.5 0 0 0 7.7-12.2 14.8 14.8 0 0 0-8.7-2.8 11.8 11.8 0 0 0-8.7 3.8L108 140l-1 1v.9h16.4a7.6 7.6 0 0 1 3.9 0zm-.7 3H118a9.4 9.4 0 0 1 0 1 19 19 0 0 0 19 19h2v-6.7c0-7.5-5.8-13.3-12.4-13.3zM84.3 68.5a21.9 21.9 0 0 0 30.6 13 28.4 28.4 0 0 0 7.2-15c-6.3-2.4-14-4.6-14.4-4.7a5.4 5.4 0 0 1-.5-10.5 96.7 96.7 0 0 0 10.8-4.2 28.8 28.8 0 0 0-3.1-4 21.9 21.9 0 0 0-30.3 12 7 7 0 0 1-.3 13.4zM32 97.8l-4.8 5.6c-5 4.6-5 12.6 0 17.8l5.7 5.6a18.5 18.5 0 0 0 6.6-14 18 18 0 0 0-7.5-15z" fill="#eef0f1"/><path d="M201 83.6L188.6 96a60.8 60.8 0 0 1-43.3 18H109v-11h49.4c20.6 0 20.6-32 0-32h-35.1a31.7 31.7 0 0 0 1-8.3v-.2-.5a30.3 30.3 0 0 0-22-28.7 32 32 0 0 0-33.2 10.3c-.6.7-4.2 7.4-4.4 7.4H42.4A16.5 16.5 0 0 0 26 67.5V72a2 2 0 0 0 4 0v-4.5A12.5 12.5 0 0 1 42.4 55h21a31.1 31.1 0 0 0-.4 13.8 16.2 16.2 0 0 0-10.3 4.7L30 95.9V78a2 2 0 0 0-4 0v21.8l-.8.8a16.4 16.4 0 0 0 0 23.1L50 148.2a16 16 0 0 0 1.5 1.2 29 29 0 0 0 29 22.6H110v37a2 2 0 0 0 2 2h39a2 2 0 0 0 2-2v-8a14 14 0 0 0-12-13.8v-13.5l12.5 12.5a2 2 0 0 0 1.5.6 2 2 0 0 0 1.4-.6l27.4-27.5a2 2 0 0 0 0-2.9l-5.7-5.7a13.7 13.7 0 0 0-9.8-4 13.6 13.6 0 0 0-8.1 2.7l-21-21.2a16.5 16.5 0 0 0-23.3 0l-6.9 7V118h36.3a64.7 64.7 0 0 0 46-19.1l12.5-12.5a2 2 0 0 0-2.8-2.8zm-113.7-13l-.5-1a9.1 9.1 0 0 0 .4-15.4 19.9 19.9 0 0 1 26-9.6 26.9 26.9 0 0 1 7.1 16.6v2a26.4 26.4 0 0 1-6.9 16.8 20.1 20.1 0 0 1-26.1-9.3zm0-8.8c0 6.4-10 6.4-10 0 0-6.3 10-6.5 10 0zm83 25.2A12 12 0 0 1 160 98.9V75A12 12 0 0 1 170.4 87zM156 75v24h-47v-9.4A31.2 31.2 0 0 0 121.9 75zM93.4 35.8a26.8 26.8 0 0 1 12.4 3 24 24 0 0 0-21.5 12.3l-.8 1.5v.2h-.1c-12.6-1.4-13 18.8-.4 18l.7 1.5v.2l.8 1.5a23.8 23.8 0 0 0 20.2 11.8 24.5 24.5 0 0 0 3 0 27.2 27.2 0 0 1-40.5-16.4 27.3 27.3 0 0 1 26.2-33.6zm-21.9 94.7a12 12 0 0 1-1.6 14.8 12.2 12.2 0 0 1-15 1.7zm77.3 68.5H144a2 2 0 0 0 0 4h5v4h-35v-4h24a2 2 0 0 0 0-4h-24v-29a2 2 0 0 0-2-2H80.3a25.2 25.2 0 0 1-24-16 16.4 16.4 0 0 0 16.4-3.8 16 16 0 0 0 0-22.6L59 112.2l9.6-9.5a2 2 0 1 0-2.8-2.8l-11 10.8a2 2 0 0 0 0 2.9l14 14L52 144.4 28 120.9a12.4 12.4 0 0 1 0-17.5l.6-.5a2 2 0 0 0 1.3-1.3l25.6-25.3a12.2 12.2 0 0 1 8.6-3.5 31.4 31.4 0 0 0 30.9 21V105a2 2 0 0 0 4 0V93.3a30.8 30.8 0 0 0 6-1.8V141h-6v-28a2 2 0 0 0-4 0v28h-3a2 2 0 0 0 0 4h33a12.6 12.6 0 0 1 12 13v31a2 2 0 0 0 2 2 10.2 10.2 0 0 1 9.8 8zm-39-59.6l9-9a12.6 12.6 0 0 1 17.5 0l22.3 22.5a2 2 0 0 0 2.9 0 9.8 9.8 0 0 1 12.2-1.2l-4.8 4.7c-1.8 1.9 1 4.7 2.9 2.9l4.9-5 2.9 3-24.7 24.7-3-3 15.9-15.8c1.8-1.8-1-4.6-2.8-2.8l-15.8 15.8-7.8-7.8a2 2 0 0 0-.4-.3v-10a16.6 16.6 0 0 0-16-17.1h-16v-1a2 2 0 0 0 .8-.6zm109-73a2 2 0 0 1 0 2.8l-6 6a2 2 0 0 1-2.8-2.8l6-6a2 2 0 0 1 2.8 0zM192 70.2a2 2 0 0 1 2.8-2.8l5 5a2 2 0 0 1-2.8 2.8zm25.8 20.2a2 2 0 0 1-2.8 2.8l-5-5a2 2 0 0 1 2.8-2.8zM160.2 40l-3.8-1.2 3.8-1.2 1.2-3.8 1.2 3.8 3.8 1.2-3.9 1.2-1.1 3.8zm12-12l-5.8-2.7 5.8-2.7 2.7-5.8 2.7 5.8 5.8 2.7-5.8 2.7-2.7 5.8zM37.5 9.7l-5.1-2.4 5.1-2.4L40 0l2.3 5 5.2 2.4-5.2 2.4-2.3 5.1zm201.9 183.1l-3.9 1.2-1.1 3.8-1.2-3.8-3.8-1.2 3.8-1.2 1.2-3.8 1.2 3.8zM5.6 157.6l3.8 1.2-3.9 1.2-1.1 3.8-1.2-3.8-3.8-1.2 3.8-1.2 1.2-3.8zm57 68l8.8 2.7-8.8 2.7-2.7 8.8-2.7-8.8-8.8-2.7 8.8-2.7 2.7-8.8z" fill="#cbd1d3"/></svg>
