<svg width="300" height="219" xmlns="http://www.w3.org/2000/svg">
  <g fill="none" fill-rule="evenodd">
    <path d="M78.652 143.318c27.62 0 50.01-22.363 50.01-49.95 0-27.586-22.39-49.95-50.01-49.95-27.62 0-50.01 22.364-50.01 49.95 0 27.587 22.39 49.95 50.01 49.95z" fill="#DDE1E2" fill-rule="nonzero"/>
    <path d="M128.663 93.368a49.67 49.67 0 0 0-8.042-27.175s-2.853 4.163-2.317 6.839 3.684 2.88 3.36 4.843c-.323 1.963-2.645-.562-5.503 4.611s-1.429 12.311 2.679 12.845c4.108.534 9.823-1.963 9.823-1.963zM91.786 45.159a49.821 49.821 0 0 1 15.99 7.6s-5.798-.956-7.995 1.006c-2.196 1.962-5.4 6.601-7.996 0-2.595-6.6 0-8.606 0-8.606zM41.05 60.436c9.166-10.432 22.613-17.018 37.602-17.018 0 0-3.393 2.052 3.037 5.53 6.43 3.48 3.483 5.085 2.143 6.155-1.34 1.07-3.663-2.14-5.18-4.28-1.518-2.142-8.035-5.442-13.037-3.657-5.001 1.784-9.287 3.102-8.573 4.762.714 1.66 9.287-1.55 12.502-1.373 3.215.178 2.143 2.14-.893 4.46-3.036 2.319-3.394 5.173-.179 6.957 3.215 1.784 7.144 1.963 8.038.893.893-1.07-1.608-8.028 4.465-4.996s11.075 4.818 6.073 9.277c-5.001 4.459-10.716 9.456-10.895 12.309-.18 2.853 1.786 5.174.715 5.352-1.072.177-2.056-1.16-2.77-2.141-.713-.981-4.018-1.338-5.626-.714-1.607.624-4.644 3.032-2.947 5.352 1.698 2.32 4.018 1.248 6.34 2.318 2.323 1.07 4.488 5.145 4.043 6.065-.444.92-2.424-.245-4.043-3.389-1.619-3.144-4.656-1.07-6.793-1.605-2.137-.535-3.744-.892-5.888-4.638-2.143-3.746-6.58-4.795-8.394-6.958-5.194-6.194-4.823-10.881-5.894-13.022-1.072-2.141-3.846-5.639-3.846-5.639zM83.474 94.082s5.359.534 8.038 2.854c2.679 2.32 3.037 3.212 7.144 4.103 4.108.892 5.895 3.21 3.215 7.67-2.679 4.46-7.502 11.596-9.823 13.737-2.322 2.141-5.18 3.925-6.251 7.493-1.072 3.567-1.43 5.707.892 7.135 0 0-1.25 3.033-4.107-.892-2.858-3.925-.536-8.563 0-11.239.536-2.675 1.964-10.702 1.071-12.665-.892-1.963-5.001-3.212-6.073-7.315-1.072-4.102.804-12.086 5.894-10.881z" fill="#FFF" fill-rule="nonzero"/>
    <path d="M78.652 139.282c25.388 0 45.97-20.556 45.97-45.914 0-25.357-20.582-45.913-45.97-45.913-25.388 0-45.97 20.556-45.97 45.913 0 25.358 20.582 45.914 45.97 45.914zm50.01-45.914c0 27.587-22.39 49.95-50.01 49.95-27.62 0-50.01-22.363-50.01-49.95 0-27.586 22.39-49.95 50.01-49.95 27.62 0 50.01 22.364 50.01 49.95z" fill="#CBD1D3"/>
    <path d="M177.158 82.773c0 28.422 23.069 51.463 51.526 51.463 28.457 0 51.526-23.04 51.526-51.463 0-28.423-23.07-51.464-51.526-51.464-28.457 0-51.526 23.041-51.526 51.464z" fill="#FFF" fill-rule="nonzero"/>
    <path d="M228.684 130.2c-26.225 0-47.485-21.234-47.485-47.427 0-26.194 21.26-47.428 47.485-47.428 26.225 0 47.485 21.234 47.485 47.428 0 26.193-21.26 47.427-47.485 47.427zm0 4.036c-28.457 0-51.526-23.04-51.526-51.463 0-28.423 23.069-51.464 51.526-51.464 28.457 0 51.526 23.041 51.526 51.464 0 28.422-23.07 51.463-51.526 51.463z" fill="#CBD1D3"/>
    <path d="M226.913 83.982c9.112 19.572 27.375 30.375 40.791 24.13 13.417-6.247 16.905-27.178 7.793-46.75-9.113-19.572-27.376-30.375-40.792-24.129-13.416 6.246-16.905 27.177-7.792 46.749z" fill="#DDE1E2" fill-rule="nonzero"/>
    <path d="M247.754 102.253c-6.595-3.9-12.921-10.832-17.179-19.976-4.257-9.145-5.49-18.448-4.23-26.006 1.264-7.58 4.916-12.981 10.064-15.378 5.148-2.397 11.632-1.715 18.247 2.198 6.595 3.9 12.92 10.832 17.178 19.976 4.257 9.145 5.49 18.448 4.23 26.006-1.264 7.58-4.915 12.981-10.064 15.378-5.148 2.397-11.632 1.715-18.246-2.198zm19.95 5.858c-13.416 6.246-31.679-4.557-40.791-24.13-9.113-19.571-5.624-40.502 7.792-46.748 13.416-6.246 31.68 4.557 40.792 24.129 9.112 19.572 5.624 40.503-7.793 46.75z" fill="#CBD1D3"/>
    <path d="M242.391 43.544a1.725 1.725 0 0 0-1.786 1.64 1.69 1.69 0 0 0 1.617 1.78c.022 0 .555.131 1.33.36.9.265 1.85-.256 2.123-1.163a1.697 1.697 0 0 0-1.138-2.122c-1.1-.324-1.725-.478-2.146-.495zM257.695 57.032a1.698 1.698 0 0 0 2.4.207 1.717 1.717 0 0 0 .2-2.412c-3.504-4.172-6.91-7.107-10.245-8.794a1.696 1.696 0 0 0-2.285.759 1.72 1.72 0 0 0 .76 2.299c2.874 1.453 5.94 4.096 9.17 7.941zM216.75 87.278c1.258 6.344 6.93 10.564 12.667 9.425 5.737-1.138 9.367-7.204 8.108-13.548-1.259-6.344-6.93-10.564-12.667-9.425-5.738 1.138-9.368 7.204-8.109 13.548z" fill="#FFF" fill-rule="nonzero"/>
    <path d="M228.631 92.744c-3.178.63-7.016-1.707-7.918-6.253-.902-4.545 1.752-8.171 4.93-8.802 3.179-.63 7.016 1.707 7.918 6.253.902 4.545-1.751 8.171-4.93 8.802zm.786 3.96c-5.737 1.138-11.409-3.082-12.668-9.426-1.259-6.344 2.371-12.41 8.109-13.548 5.737-1.139 11.408 3.08 12.667 9.425 1.26 6.344-2.371 12.41-8.108 13.548z" fill="#CBD1D3"/>
    <path d="M225.1 85.067c.252 1.266 1.384 2.108 2.529 1.881 1.145-.227 1.87-1.438 1.618-2.704-.251-1.266-1.383-2.108-2.528-1.88-1.145.226-1.87 1.437-1.618 2.703z" fill="#CBD1D3" fill-rule="nonzero"/>
    <path d="M14.497 108a2.02 2.02 0 0 1 2.02-2.018h265.714a2.02 2.02 0 0 1 2.02 2.018v108.982a2.02 2.02 0 0 1-2.02 2.018H16.517a2.019 2.019 0 0 1-2.02-2.018V108z" fill="#EAEDED" fill-rule="nonzero"/>
    <path d="M18.538 110.018v104.946H280.21V110.018H18.538zm-2.02-4.036A2.02 2.02 0 0 0 14.496 108v108.982c0 1.115.904 2.018 2.02 2.018h265.714a2.02 2.02 0 0 0 2.02-2.018V108a2.02 2.02 0 0 0-2.02-2.018H16.517z" fill="#CBD1D3"/>
    <path fill="#FFF" fill-rule="nonzero" d="M276.169 214.963V111.027L18.538 214.963zM161.274 75.966a2.02 2.02 0 0 1 1.53-2.412l11.83-2.651a2.02 2.02 0 0 1 2.412 1.528l3.532 15.755a2.02 2.02 0 0 1-1.53 2.411l-11.83 2.652a2.02 2.02 0 0 1-2.413-1.528l-3.531-15.755z"/>
    <path d="M165.658 77.051l2.649 11.817 7.886-1.768-2.648-11.816-7.887 1.767zm-2.854-3.497a2.02 2.02 0 0 0-1.53 2.412l3.53 15.755a2.02 2.02 0 0 0 2.414 1.528l11.83-2.652a2.02 2.02 0 0 0 1.53-2.411l-3.532-15.755a2.02 2.02 0 0 0-2.413-1.528l-11.83 2.651z" fill="#CBD1D3"/>
    <path d="M166.837 59.215l31.546-7.07 9.049 40.373a2.02 2.02 0 0 1-1.53 2.411l-27.603 6.187a2.02 2.02 0 0 1-2.413-1.528l-9.049-40.373z" fill="#DDE1E2" fill-rule="nonzero"/>
    <path d="M183.733 69.55a2.02 2.02 0 0 1 1.53-2.41l15.692-3.518 2.467 11.007a2.02 2.02 0 0 1-1.53 2.41l-13.721 3.076a2.02 2.02 0 0 1-2.413-1.528l-2.025-9.036z" fill="#FFF" fill-rule="nonzero"/>
    <path d="M201.998 70.053c.384 1.751-1.091 3.562-3.294 4.045-2.204.483-4.301-.544-4.685-2.295-.384-1.75 1.09-3.561 3.294-4.044 2.204-.484 4.301.544 4.685 2.294z" fill="#FFF" fill-rule="nonzero"/>
    <path d="M199.754 71.278c.285-.35.306-.627.27-.792-.036-.164-.171-.407-.576-.605-.41-.2-1.015-.302-1.702-.15-.688.15-1.196.495-1.483.848-.285.35-.307.627-.27.792.035.164.171.407.576.605.409.2 1.014.302 1.702.15.688-.15 1.196-.495 1.483-.848zm-1.05 2.82c2.203-.483 3.678-2.294 3.294-4.045-.384-1.75-2.481-2.778-4.685-2.294-2.203.483-3.678 2.294-3.294 4.044.384 1.751 2.481 2.778 4.685 2.295z" fill="#CBD1D3"/>
    <path d="M195.322 56.967l-23.659 5.303 7.725 34.465 23.659-5.303-7.725-34.465zm-28.485 2.247l9.049 40.374a2.02 2.02 0 0 0 2.413 1.528l27.602-6.187a2.02 2.02 0 0 0 1.53-2.411l-9.048-40.374-31.546 7.07z" fill="#CBD1D3"/>
    <path d="M164.32 61.847a2.02 2.02 0 0 1 1.53-2.411l33.518-7.512a2.02 2.02 0 0 1 2.413 1.527l.22.985a2.02 2.02 0 0 1-1.53 2.411l-33.517 7.512a2.02 2.02 0 0 1-2.413-1.527l-.22-.985z" fill="#CBD1D3" fill-rule="nonzero"/>
    <path d="M13.9 85.721a2.021 2.021 0 0 1 1.703-.93H283.11c.624 0 1.207.28 1.586.775 2.196 2.865 9.955 13.12 15.019 21.498.795 1.314-.169 2.954-1.706 2.954H2.024c-1.597 0-2.563-1.763-1.702-3.106l13.579-21.19z" fill="#EAEDED" fill-rule="nonzero"/>
    <path d="M16.708 88.827L5.716 105.982h288.556c-4.362-6.763-9.78-14.015-12.168-17.155H16.708zm-1.105-4.036c-.69 0-1.33.35-1.702.93L.322 106.912c-.86 1.343.105 3.106 1.702 3.106h295.985c1.537 0 2.501-1.64 1.706-2.954-5.064-8.378-12.823-18.633-15.019-21.498a1.985 1.985 0 0 0-1.586-.775H15.603z" fill="#CBD1D3"/>
    <path fill="#DDE1E2" fill-rule="nonzero" d="M18.538 110.018h257.631L25.572 123.459l-7.034 91.504z"/>
    <path d="M96.839 110.015l2.02.001 14.934-15.224-7.23 34.016a6.958 6.958 0 0 1-8.256 5.355c-3.844-.817-6.25-4.648-5.316-8.46l3.848-15.688z" fill="#DBDFE0" fill-rule="nonzero"/>
    <path d="M107.141 94.438l13.835 2.94-8.416 39.594a7.068 7.068 0 0 1-8.386 5.44 7.068 7.068 0 0 1-5.449-8.38l8.416-39.594z" fill="#DBDFE0" fill-rule="nonzero"/>
    <path d="M117.012 96.589l13.835 2.94-9.29 43.709a7.068 7.068 0 0 1-8.387 5.439 7.068 7.068 0 0 1-5.448-8.38l9.29-43.708z" fill="#DBDFE0" fill-rule="nonzero"/>
    <path d="M126.881 98.748l13.835 2.94-7.859 36.974a7.068 7.068 0 0 1-8.386 5.44 7.068 7.068 0 0 1-5.449-8.38l7.86-36.974z" fill="#DBDFE0" fill-rule="nonzero"/>
    <path d="M138.767 99.544l13.894-2.647 4.278 22.459a7.068 7.068 0 0 1-5.625 8.262 7.068 7.068 0 0 1-8.269-5.615l-4.278-22.46z" fill="#DBDFE0" fill-rule="nonzero"/>
    <path d="M104.087 87.18l13.775 3.21-7.87 33.762a7.068 7.068 0 0 1-8.49 5.275 7.068 7.068 0 0 1-5.284-8.485l7.87-33.762z" fill="#FFF" fill-rule="nonzero"/>
    <path d="M113.01 93.404l-5.903-1.375-6.953 29.83a3.03 3.03 0 0 0 2.264 3.636c1.63.38 3.26-.632 3.64-2.26l6.952-29.83zm-8.923-6.224l-7.869 33.762a7.068 7.068 0 0 0 5.284 8.485 7.068 7.068 0 0 0 8.49-5.275l7.87-33.762-13.775-3.21z" fill="#CBD1D3"/>
    <path d="M113.892 89.62l13.775 3.21-9.189 39.422a7.068 7.068 0 0 1-8.49 5.275 7.068 7.068 0 0 1-5.284-8.485l9.188-39.422z" fill="#FFF" fill-rule="nonzero"/>
    <path d="M122.815 95.844l-5.904-1.376-8.271 35.491a3.03 3.03 0 0 0 2.264 3.637 3.03 3.03 0 0 0 3.639-2.26l8.272-35.492zm-8.923-6.224l-9.188 39.422a7.068 7.068 0 0 0 5.284 8.485 7.068 7.068 0 0 0 8.49-5.275l9.189-39.422-13.775-3.21z" fill="#CBD1D3"/>
    <path d="M123.72 91.963l13.774 3.21-10.143 43.52a7.068 7.068 0 0 1-8.491 5.274 7.068 7.068 0 0 1-5.284-8.485l10.143-43.52z" fill="#FFF" fill-rule="nonzero"/>
    <path d="M132.642 98.187l-5.904-1.376-9.226 39.588a3.03 3.03 0 0 0 2.264 3.636 3.03 3.03 0 0 0 3.639-2.26l9.227-39.588zm-8.923-6.224l-10.143 43.519a7.068 7.068 0 0 0 5.284 8.485 7.068 7.068 0 0 0 8.49-5.275l10.144-43.519-13.775-3.21z" fill="#CBD1D3"/>
    <path d="M133.544 94.314l13.775 3.21-8.58 36.814a7.068 7.068 0 0 1-8.491 5.274 7.068 7.068 0 0 1-5.284-8.485l8.58-36.813z" fill="#FFF" fill-rule="nonzero"/>
    <path d="M142.467 100.538l-5.904-1.375-7.663 32.882a3.03 3.03 0 0 0 2.264 3.636 3.03 3.03 0 0 0 3.639-2.26l7.664-32.883zm-8.923-6.224l-8.58 36.813a7.068 7.068 0 0 0 5.284 8.485 7.068 7.068 0 0 0 8.49-5.274l8.58-36.814-13.774-3.21z" fill="#CBD1D3"/>
    <path d="M140.835 96.81l13.532-4.113 6.65 21.875a7.068 7.068 0 0 1-4.71 8.816 7.068 7.068 0 0 1-8.821-4.702l-6.65-21.875z" fill="#FFF" fill-rule="nonzero"/>
    <path d="M151.675 97.734l-5.8 1.763 5.477 18.014a3.03 3.03 0 0 0 3.78 2.015 3.03 3.03 0 0 0 2.019-3.778l-5.476-18.014zm-10.84-.923l6.65 21.875a7.068 7.068 0 0 0 8.821 4.702 7.068 7.068 0 0 0 4.711-8.816l-6.65-21.875-13.532 4.114z" fill="#CBD1D3"/>
    <path d="M152.707 85.539c1.577 6.585 3.532 13.775 3.532 13.775l-3.532 1.035-3.84-.412-2.191 2.18-3.24.949-4.166-2.124-2.968.46-4.103-.955-2.526-2.033-3.535.62-4.041-.942-2.526-1.992-3.03.697-4.041-.942-2.526-1.992-3.535.58-3.835-.894s2.53-9.237 3.33-10.79c.8-1.552 2.816-7.535 6.858-10.668 8.923-6.917 16.005-9.195 26.478-4.958 7.912 3.2 9.226 9.498 11.112 14.134 1.886 4.637 1.892 2.464 2.325 4.272z" fill="#FFF" fill-rule="nonzero"/>
    <path d="M148.748 86.345v-.001l-.003-.012-.02-.095a37.32 37.32 0 0 0-.536-2.055 41.634 41.634 0 0 0-1.913-5.242c-1.863-4.175-4.43-7.774-7.566-9.097-8.162-3.443-16.653-2.327-21.754 3.076-3.105 3.29-4.776 5.676-5.84 7.603-.897 1.627-1.4 2.975-2.009 4.61-.129.346-.263.704-.406 1.08-.45 1.186-.84 2.481-1.159 3.693.927-.175 2.233-.294 3.535.075 1.616.458 2.854 1.568 3.394 2.08.052.049.102.097.15.145l1.57.366.12-.042c.686-.232 2.36-.753 4.113-.375 1.817.393 3.155 1.63 3.69 2.15l.149.148 1.605.374c.136-.043.279-.086.428-.129.792-.224 2.633-.688 4.475-.168 1.65.466 2.9 1.614 3.438 2.136l.14.138 1.892.44.254-.056c.661-.142 1.905-.375 3.13-.266 1.93.17 3.665 1.165 4.55 1.72l.066-.019.013-.015c.46-.55 1.541-1.773 3.073-2.403 1.362-.56 2.777-.536 3.798-.405-.685-2.62-1.562-6.04-2.348-9.323l-.016-.066-.012-.06v-.005zm3.96-.806c1.576 6.585 3.531 13.776 3.531 13.776l-3.532 1.034-.12-.046a9.41 9.41 0 0 0-.293-.102c-.758-.25-2.385-.692-3.427-.264-1.116.46-2.191 2.18-2.191 2.18l-3.24.949s-2.347-1.963-4.166-2.124c-1.168-.104-2.968.46-2.968.46l-4.103-.955s-1.307-1.689-2.525-2.033c-1.35-.38-3.536.62-3.536.62l-4.041-.942s-1.297-1.727-2.525-1.992c-1.188-.257-3.031.697-3.031.697l-4.04-.942s-1.318-1.649-2.526-1.992c-1.347-.382-3.536.58-3.536.58l-3.835-.894s.8-4.774 2.32-8.771c.126-.332.249-.662.371-.992 1.354-3.639 2.701-7.261 8.72-13.637 6.565-6.954 17.005-7.931 26.266-4.025 9.26 3.907 12.426 19.415 12.426 19.415z" fill="#CBD1D3"/>
    <path d="M118.56 85.8a2.02 2.02 0 0 1-2.021 2.018 2.02 2.02 0 1 1 2.02-2.018zM128.662 87.818a2.02 2.02 0 0 1-2.02 2.018 2.02 2.02 0 1 1 2.02-2.018zM138.766 89.836a2.02 2.02 0 0 1-2.02 2.019 2.02 2.02 0 1 1 2.02-2.019z" fill="#CBD1D3" fill-rule="nonzero"/>
    <path d="M263.035 160.472h-34.35v34.31h34.35v-34.31zm-38.392-4.036v42.382h42.433v-42.382h-42.433z" fill="#CBD1D3"/>
    <path d="M245.86 166.527l.335 1.768.156.317-.137.163-1.87 4.597.506-4.322-1.625-2.523h-3.427v6.845c0 3 2.274 5.47 5.205 5.813v6.84h-2.361v2.702h7.446v-2.702h-2.36v-6.84c2.93-.343 5.204-2.814 5.204-5.813v-6.845h-7.072zM147.889 52.816l4.027.338-2.024 24.104-4.027-.338z" fill="#CBD1D3" fill-rule="nonzero"/>
    <path d="M154.607 55.25c14.994-1.458 25.97-14.781 24.513-29.758-1.456-14.977-14.793-25.936-29.787-24.478-14.995 1.458-25.97 14.781-24.514 29.758 1.457 14.977 14.793 25.936 29.788 24.478z" fill="#DDE1E2" fill-rule="nonzero"/>
    <path d="M154.216 51.232c12.773-1.242 22.122-12.591 20.882-25.349-1.24-12.758-12.601-22.094-25.374-20.852-12.774 1.242-22.123 12.592-20.882 25.35 1.24 12.758 12.6 22.093 25.374 20.851zm24.904-25.74c1.456 14.977-9.519 28.3-24.513 29.758-14.995 1.458-28.331-9.501-29.788-24.478-1.456-14.977 9.52-28.3 24.514-29.758 14.994-1.458 28.33 9.501 29.787 24.478z" fill="#CBD1D3"/>
    <path d="M143.71 16.26a1.515 1.515 0 1 1-3.016.291 1.515 1.515 0 0 1 3.015-.291zM156.187 29.75a4.039 4.039 0 0 1-3.631 4.408 4.039 4.039 0 0 1-4.413-3.626 4.039 4.039 0 0 1 3.631-4.409 4.039 4.039 0 0 1 4.413 3.626zM165.412 20.237a1.515 1.515 0 1 1-3.015.292 1.515 1.515 0 0 1 3.015-.292zM156.069 18.102a2.524 2.524 0 0 1-2.27 2.755 2.524 2.524 0 0 1-2.758-2.266 2.524 2.524 0 0 1 2.27-2.755 2.524 2.524 0 0 1 2.758 2.266zM141.543 35.733a2.524 2.524 0 0 1-2.27 2.755 2.524 2.524 0 0 1-2.758-2.267 2.524 2.524 0 0 1 2.27-2.755 2.524 2.524 0 0 1 2.758 2.267z" fill="#CBD1D3" fill-rule="nonzero"/>
    <path d="M126.003 32.81c-2.922 1.93-4.922 3.742-6.056 5.262-1.172 1.571-1.008 2.234-1.002 2.256.006.022.194.678 1.993 1.456 1.74.753 4.378 1.326 7.873 1.543 6.945.43 16.365-.602 26.536-3.318 10.171-2.716 18.852-6.517 24.658-10.351 2.922-1.93 4.923-3.742 6.056-5.262 1.172-1.571 1.008-2.234 1.002-2.256-.006-.022-.194-.678-1.993-1.456-1.74-.753-4.378-1.326-7.873-1.543-.958-.06-1.964-.09-3.012-.094l-3.114-3.968c10.854-.468 18.651 1.618 19.831 6.036 1.87 7-13.583 17.206-34.514 22.794-20.93 5.589-39.413 4.444-41.282-2.556-1.127-4.222 4.045-9.61 12.92-14.446l-.37 4.86c-.574.347-1.126.695-1.653 1.043z" fill="#CBD1D3" fill-rule="nonzero"/>
    <path d="M124.007 25.302c-2.924 1.944-4.923 3.765-6.055 5.29-1.17 1.577-1.003 2.239-.997 2.26.006.023.196.678 2.002 1.448 1.747.745 4.393 1.307 7.897 1.508 6.964.4 16.404-.674 26.592-3.436 10.188-2.761 18.879-6.602 24.687-10.463 2.924-1.943 4.923-3.764 6.055-5.289 1.17-1.577 1.003-2.239.997-2.26-.006-.023-.196-.678-2.002-1.449-1.747-.745-4.393-1.307-7.897-1.508a51.53 51.53 0 0 0-3.02-.08l-3.135-3.955c10.88-.516 18.703 1.535 19.9 5.949 1.895 6.993-13.564 17.269-34.529 22.951-20.965 5.683-39.497 4.62-41.393-2.373-1.143-4.217 4.026-9.628 12.907-14.506l-.356 4.862c-.574.35-1.126.7-1.653 1.051z" fill="#CBD1D3" fill-rule="nonzero"/>
  </g>
</svg>
