<svg width="260" height="260" viewBox="0 0 260 260" fill="none" xmlns="http://www.w3.org/2000/svg">
  <path d="m107.82 18.4-83.86 83.85a4.57 4.57 0 0 0-1.34 3.24v136.83a2.6 2.6 0 0 0 2.59 2.6h136.82c1.21 0 2.38-.49 3.23-1.35l83.87-83.87a2.6 2.6 0 0 0 .73-2.26A168.88 168.88 0 0 0 110.08 17.66a2.62 2.62 0 0 0-2.26.74" fill="#6EDAFF"/>
  <mask id="a" style="mask-type:alpha" maskUnits="userSpaceOnUse" x="10" y="10" width="240" height="235">
    <path d="m107.82 18.4-97.8 75.26c-.43.43 6.58 22.5 6.58 22.5l6.02 27.98v98.18a2.6 2.6 0 0 0 2.6 2.6h136.8c1.22 0 2.39-.49 3.24-1.35l83.87-83.87a2.62 2.62 0 0 0 .74-2.26c-5.66-35.03-17.78-111.66-42.88-136.75-25.09-25.1-61.88 2.63-96.91-3.03a2.62 2.62 0 0 0-2.26.74" fill="#6EDAFF"/>
  </mask>
  <g mask="url(#a)">
    <path d="M105.12 88.83c-.07 2.5 3.31 3.35 4.43 1.12l17.33-17.88 15.45 2.1 26.12-11.8s19.2-44.35 16.77-43.76l-75.81 18.4a3.8 3.8 0 0 0-2.9 3.58l-1.39 48.24Z" fill="#000" stroke="#000" stroke-linecap="round" stroke-linejoin="round"/>
    <path d="m136.58 37.1-22.7 5.35a3.24 3.24 0 0 0-2.48 2.84l-3.86 40.86c-.07 2.52 2.64 2.3 3.76.07" stroke="#6EDAFF" stroke-linecap="round" stroke-linejoin="round"/>
    <path d="m188.3 12.53-61.83 15a6.85 6.85 0 0 0-4.87 5.27l-12.83 57.9 69.54-16.88 12.87-58.02c.42-2-1.08-3.7-2.87-3.27Z" fill="#fff" stroke="#000" stroke-linecap="round" stroke-linejoin="round"/>
    <path d="M176.9 52.75 155.24 58l5.71-25.62a4.08 4.08 0 0 1 3.02-3.08l16.05-3.93a2 2 0 0 1 2.43 2.38l-5.55 24.99Z" fill="#6EDAFF"/>
    <path d="M133.57 36.7 152 32.22M126.42 38.44l4.27-1.04M140.58 41.7l9.54-2.32M124.53 45.59l12.18-2.96" stroke="#6EDAFF" stroke-linecap="round" stroke-linejoin="round"/>
    <path d="M172.5 41.45c1.86-2.7 2.05-5.8.42-6.93-1.63-1.12-4.45.16-6.32 2.87-1.86 2.7-2.05 5.8-.42 6.92 1.63 1.13 4.45-.16 6.32-2.86Z" fill="#000" stroke="#000" stroke-linecap="round" stroke-linejoin="round"/>
    <path d="M169.86 55.6c.64-2.89-11.24-2.47-9.65-4.92 2.42-3.72 5.65-6.55 8.75-7.3 3.65-.89 6.15 1.35 6.7 5.35.22 1.62-6.16 3.94-6.64 6.04" fill="#000"/>
    <path d="M169.86 55.6c.64-2.89-11.24-2.47-9.65-4.92 2.42-3.72 5.65-6.55 8.75-7.3 3.65-.89 6.15 1.35 6.7 5.35.22 1.62-6.16 3.94-6.64 6.04" stroke="#000" stroke-linecap="round" stroke-linejoin="round"/>
    <path d="M167.78 45.28c-2.3.24-3.6-1.73-2.95-4.67.7-3.16 3.4-6.25 6.04-6.89 2.64-.64 4.2 1.4 3.5 4.57a10.36 10.36 0 0 1-3.43 5.5" stroke="#6EDAFF" stroke-linecap="round" stroke-linejoin="round"/>
    <path d="M107.78 91.22h.04-.04Z" stroke="#000" stroke-linecap="round" stroke-linejoin="round"/>
    <path d="m153.01 51.08-.75-3.1a2.96 2.96 0 0 0-3.58-2.18l-20.37 4.94a5.51 5.51 0 0 0-3.78 3.23l-14.99 35.97c-.25.54-.71.95-1.27 1.15l72.13-17.5a4.78 4.78 0 0 0 3.19-2.6l8.5-23.48a1.78 1.78 0 0 0-1.16-2.32c-.3-.1-.64-.1-.95-.03l-33.4 8.12a2.96 2.96 0 0 1-3.57-2.2Z" fill="#6EDAFF" stroke="#000" stroke-linecap="round" stroke-linejoin="round"/>
    <path d="M124.08 163.56V250h4.52v-86.84l-4.52.4Z" fill="#000" stroke="#000" stroke-linecap="round" stroke-linejoin="round"/>
    <path d="M138.34 250V142.5l-133.8 8.39v23.1l124.06-10.83V250h9.74Z" fill="#6EDAFF" stroke="#000" stroke-linecap="round" stroke-linejoin="round"/>
    <path d="m70.24 157.79-25.18 1.9M24.16 133.57l114.17 8.92" stroke="#000" stroke-linecap="round" stroke-linejoin="round"/>
    <path d="M128.6 140.34V137.77l-21.04.37.56.28-16.8-1.06-70.7-9.76 2.54 9.49a4.43 4.43 0 0 0 3.87 3.26l37.95 3.48c1.6.13 3.21.16 4.82.07l58.23-3.05a.56.56 0 0 0 .56-.5Z" fill="#000"/>
    <path d="M78.19 95a2.61 2.61 0 0 0-2.52-1.95l-60.28-.18-.4-1.02-1.93 1.6-.05.04-.04.03a2.6 2.6 0 0 0-.79 2.63l11.03 41.2 66.18-1.22-11.2-41.14Z" fill="#000"/>
    <path d="m89.71 133.47-64.36 2.8-11.19-41.74a2.61 2.61 0 0 1 2.53-3.29l60.96.2a2.61 2.61 0 0 1 2.52 1.93l9.54 40.1Z" fill="#fff"/>
    <path d="m58.53 102.29-.24 3.61a1.26 1.26 0 0 1-1.3 1.2l-22.16.32c-1 0-1.6.82-1.33 1.8l4.75 17.7a2.4 2.4 0 0 0 2.27 1.72l33.3-1.23c.91-.03 1.45-.84 1.2-1.78l-6.14-22.88a2.35 2.35 0 0 0-2.13-1.7l-6.93.04a1.24 1.24 0 0 0-1.29 1.2Z" fill="#6EDAFF"/>
    <path d="m77.64 91.43-60.96-.2a2.61 2.61 0 0 0-2.53 3.3l11.69 43.6 3.23-.25-11.63-43.45 59.7-.01 10.92 40.73 3.25-.2-11.15-41.59a2.61 2.61 0 0 0-2.52-1.93Z" fill="#000"/>
    <path d="m91.31 134.95-65.47 3.18 39.13 3.28c1.6.14 3.22.16 4.83.08l58.23-3.05a.6.6 0 0 0 .55-.6.6.6 0 0 0-.55-.6l-36.72-2.29Z" fill="#000"/>
    <path d="M16.6 90.78a2.61 2.61 0 0 0-2.52 3.28l11.2 41.9a3.2 3.2 0 0 0 2.82 2.35l38.62 3.1c.97.07 1.95.09 2.93.04l51.18-2.52" stroke="#fff" stroke-linecap="round" stroke-linejoin="round"/>
    <path d="m42.17 200.8-14.8 53.07M70.87 200.72l-6.93 53.16M105.93 200.53l14.94 53.34M77.72 204.14l9.02 49.74" stroke="#000" stroke-linecap="round" stroke-linejoin="round"/>
    <path d="m127.6 120.91-25.11.9a9.12 9.12 0 0 0-8.52 6.85l-16.93 66.2a15.48 15.48 0 0 1-17.88 11.37l8.37 1.58c3.9.74 7.9.84 11.84.31l22.9-3.07a15.48 15.48 0 0 0 12.95-11.53l17.03-66.88a4.61 4.61 0 0 0-4.64-5.73Z" fill="#fff" stroke="#000" stroke-linecap="round" stroke-linejoin="round"/>
    <path d="m78.16 190.46-2.76 10.8a8.43 8.43 0 0 1-9.74 6.2l-29.16-5.5c-3.87-.74-3.67-6.35.25-6.8l41.42-4.7" fill="#000"/>
    <path d="m78.16 190.46-2.76 10.8a8.43 8.43 0 0 1-9.74 6.2l-29.16-5.5c-3.87-.74-3.67-6.35.25-6.8l41.42-4.7" stroke="#000" stroke-linecap="round" stroke-linejoin="round"/>
    <path d="m76.48 196.96-.04.17a8.34 8.34 0 0 1-9.62 5.92l-30.22-5.82a3.38 3.38 0 0 1-1.96-1.08c-1.7 1.76-1.15 5.24 1.84 5.8l29.15 5.5a8.44 8.44 0 0 0 9.75-6.19l1.1-4.3Z" fill="#6EDAFF" stroke="#000" stroke-linecap="round" stroke-linejoin="round"/>
    <path d="M89.6 80.8a33.21 33.21 0 0 1 7.76-2.49c29.14-5.43 68.51 26.7 84.16 84.85M63.56 106.33c5.26-8.8 10.71-14.83 15.7-18.96M158.24 89.65a126.12 126.12 0 0 0-10.33-6.05M199.13 146.58a82.25 82.25 0 0 0-4.67-15.14" stroke="#fff" stroke-linecap="round" stroke-linejoin="round"/>
    <path d="m206.08 89.2-15.7.93-5.76 9.14 15.7-.92 5.76-9.14ZM184.84 103.06l3.14-.19-5.76 9.15-3.14.18 5.76-9.14ZM188.35 109.15l3.14-.19-5.76 9.15-3.14.18 5.76-9.14ZM191.86 115.24l3.14-.18-5.76 9.14-3.14.19 5.76-9.15Z" fill="#000" stroke="#000" stroke-linecap="round" stroke-linejoin="round"/>
    <path d="m195.19 118.2-.19-3.14-5.76 9.14.18 3.14 5.77-9.14Z" fill="#6EDAFF" stroke="#000" stroke-linecap="round" stroke-linejoin="round"/>
    <path d="m201.28 114.69 3.14-.19-5.76 9.15-3.14.18 5.76-9.14Z" fill="#000" stroke="#000" stroke-linecap="round" stroke-linejoin="round"/>
    <path d="m178.2 97.15 6.28-.37-5.77 9.14-6.28.37 5.77-9.14Z" fill="#6EDAFF" stroke="#000" stroke-linecap="round" stroke-linejoin="round"/>
    <path d="m175.24 100.47 3.14-.19-5.76 9.15-3.14.18 5.76-9.14Z" fill="#000" stroke="#000" stroke-linecap="round" stroke-linejoin="round"/>
    <path d="m172.29 103.8 3.14-.2-5.77 9.15-3.13.19 5.76-9.15Z" fill="#000" stroke="#000" stroke-linecap="round" stroke-linejoin="round"/>
    <path d="m169.33 107.11 3.14-.18-5.76 9.15-3.14.18 5.76-9.15Z" fill="#000" stroke="#000" stroke-linecap="round" stroke-linejoin="round"/>
    <path d="m166.2 53.75-5.76 9.15 3.13 53.36 5.76-9.15-3.13-53.36ZM178.71 105.92l5.77-9.14.36 6.28-5.76 9.14-.37-6.28ZM182.22 112.02l5.76-9.15.37 6.28-5.76 9.14-.37-6.27ZM185.73 118.1l5.76-9.13.37 6.27-5.76 9.15-.37-6.28Z" fill="#6EDAFF" stroke="#000" stroke-linecap="round" stroke-linejoin="round"/>
    <path d="m201.46 117.83-5.76 9.14-6.28.37 5.77-9.14 6.27-.37Z" fill="#000" stroke="#000" stroke-linecap="round" stroke-linejoin="round"/>
    <path d="m172.66 56.52-3.14.19 2.6 44.26 3.12-.5 2.96-3.32 6.28-.37L195 115.06l6.28-.37-.37-6.28-7.02-12.19-1.4-7.79 11-1.37-30.65-27.4-.18-3.14Z" fill="#fff" stroke="#000" stroke-linecap="round" stroke-linejoin="round"/>
    <path d="m169.34 53.63-3.14.19 3.13 53.36 3.14-.18-3.13-53.37ZM172.66 56.6l-3.13.18.18 3.13 3.14-.18-.19-3.14ZM175.99 59.54l-3.14.19.18 3.14 3.14-.19-.18-3.14ZM179.3 62.5l-3.13.19.18 3.14 3.14-.19-.18-3.14ZM182.63 65.45l-3.14.19.19 3.14 3.14-.19-.19-3.14ZM185.96 68.41l-3.14.19.18 3.14 3.14-.19-.18-3.14ZM189.28 71.36l-3.14.19.19 3.14 3.13-.19-.18-3.14ZM192.6 74.32l-3.14.18.19 3.14 3.14-.18-.19-3.14ZM195.93 77.27l-3.14.19.18 3.14 3.14-.19-.18-3.14ZM199.25 80.23l-3.14.18.19 3.14 3.14-.18-.19-3.14ZM202.58 83.18l-3.14.19.18 3.14 3.14-.19-.18-3.14Z" fill="#000" stroke="#000" stroke-linecap="round" stroke-linejoin="round"/>
    <path d="m205.9 86.14-15.7.92.19 3.14 15.7-.92-.2-3.14ZM181.34 96.9l3.14-.2-.37-6.27-3.14.18.37 6.28Z" fill="#000" stroke="#000" stroke-linecap="round" stroke-linejoin="round"/>
    <path d="m190.75 96.34 3.14-.19-.37-6.28-3.14.19.37 6.28ZM184.84 102.98l3.14-.18-.36-6.28-3.14.19.37 6.28ZM194.26 102.43l3.14-.18-.37-6.28-3.14.18.37 6.28ZM188.35 109.08l3.14-.19-.37-6.27-3.14.18.37 6.28ZM197.77 108.53l3.14-.19-.37-6.28-3.14.19.37 6.28ZM191.86 115.17 195 115l-.37-6.28-3.14.18.37 6.28ZM195.07 115.06l.18 3.14 6.28-.37-.18-3.14-6.28.37ZM201.28 114.62l3.14-.19-.37-6.28-3.14.19.37 6.28ZM178.2 97.08l3.14-.19-.19-3.14-3.14.19.19 3.14ZM175.24 100.4l3.14-.19-.19-3.13-3.13.18.18 3.14ZM172.29 103.72l3.14-.18-.19-3.14-3.14.18.19 3.14Z" fill="#000" stroke="#000" stroke-linecap="round" stroke-linejoin="round"/>
  </g>
  <path d="M204.55 188.76c17 0 30.78-4.8 30.78-10.73 0-5.93-13.78-10.74-30.78-10.74s-30.78 4.8-30.78 10.74c0 5.93 13.78 10.73 30.78 10.73ZM227.12 235.18c.3.5.46 1.06.47 1.63 0 4.48-10.32 8.1-23.04 8.1-12.72 0-23.03-3.63-23.03-8.1 0-.53.15-1.06.41-1.53" stroke="#000" stroke-linecap="round" stroke-linejoin="round"/>
  <path d="m174.58 178.03 8.23 64.18c0 4.3 9.73 7.79 21.74 7.79 12 0 21.73-3.49 21.73-7.79l8.24-64.18" stroke="#000" stroke-linecap="round" stroke-linejoin="round"/>
  <path d="M204.55 244.9c-12.75 0-22.44-3.57-22.99-7.79l.67 5.1c0 4.3 10 7.79 22.32 7.79 12.33 0 22.32-3.49 22.32-7.79l.67-5.1c-.56 4.28-10.24 7.8-22.99 7.8ZM175.94 181.98c2.46-5 14.33-8.8 28.61-8.8s26.15 3.8 28.61 8.8c1.4-1.22 2.17-2.55 2.17-3.95 0-5.93-13.78-10.74-30.78-10.74s-30.78 4.8-30.78 10.74c0 1.4.78 2.73 2.17 3.95Z" fill="#000" stroke="#000" stroke-linecap="round" stroke-linejoin="round"/>
  <path d="M206.27 194.54c1.94 2.32 21.52 11.13 26.66-4.13" stroke="#000" stroke-linecap="round" stroke-linejoin="round"/>
  <path d="M191.9 193.34c4.24 6.65 31.63 25.47 39.78 6.87" stroke="#000" stroke-linecap="round" stroke-linejoin="round"/>
  <path d="M182.4 191.23c27.9 38.42 47.15 24.16 48.12 18.01" stroke="#000" stroke-linecap="round" stroke-linejoin="round"/>
  <path d="M175.87 187.2c3.86 12.56 36.76 56.55 53.42 31.54" stroke="#000" stroke-linecap="round" stroke-linejoin="round"/>
  <path d="M176.74 194.83c6.95 24.41 41.81 52.6 51.55 31.74" stroke="#000" stroke-linecap="round" stroke-linejoin="round"/>
  <path d="M227.27 234.56c-9.52 20.43-41.49-5.81-49.14-28.9M201.05 244.9c-7.94-5-18.19-20.67-21.4-27.44M191.02 243.02c-1.6-2.2-3.24-4.63-4.9-7.28-2.06-3.32-3.8-6.56-5.37-9.64M202.83 194.54c-1.93 2.32-21.52 11.13-26.65-4.13" stroke="#000" stroke-linecap="round" stroke-linejoin="round"/>
  <path d="M217.22 193.34c-4.26 6.65-31.64 25.47-39.8 6.87" stroke="#000" stroke-linecap="round" stroke-linejoin="round"/>
  <path d="M226.71 191.23c-27.9 38.42-47 24.16-47.98 18.01" stroke="#000" stroke-linecap="round" stroke-linejoin="round"/>
  <path d="M233.34 187.2c-3.86 12.56-36.88 56.55-53.53 31.54" stroke="#000" stroke-linecap="round" stroke-linejoin="round"/>
  <path d="M232.37 194.83c-6.95 24.41-41.82 52.6-51.55 31.74" stroke="#000" stroke-linecap="round" stroke-linejoin="round"/>
  <path d="M181.84 234.56c9.51 20.43 41.48-5.81 49.13-28.9M208.05 244.9c7.94-5 18.19-20.67 21.41-27.44M218.09 243.02c1.59-2.2 3.23-4.63 4.89-7.28 2.07-3.32 3.8-6.56 5.37-9.64" stroke="#000" stroke-linecap="round" stroke-linejoin="round"/>
  <path d="M202.54 179c-.47 3.48-2.4 5.6-4.4 7.26-.2.18-.48.28-.76.28-2.1-.02-2 .77-3.17 1.62-2.85.65-5.84.43-8.56-.64a14.27 14.27 0 0 1-4.9-3.3l1.96-3.8a1.28 1.28 0 0 1 .87-.67l3.53-.78-.61-3.46c1.2-.73 2.32-1.56 3.37-2.5 1.42-1.25 2.38-2.6 3.28-3.59 1.28-1.4 7.3 2.93 10.07 4.48l-.68 5.1Z" fill="#fff" stroke="#fff" stroke-linecap="round" stroke-linejoin="round"/>
  <path d="m204.38 185.39.84-6.24a12.21 12.21 0 0 1 9.3-1.59l9.64 10.26-6.08 2.59h-12.65l-1.05-5.02Z" fill="#fff"/>
  <path d="M204.55 188.76c-16.1 0-29.3-4.3-30.65-9.79l.68 5.2.08.06c.74 6.14 13.38 10.43 29.9 10.43 16.5 0 29.2-4.66 29.89-10.43l.08-.12.68-5.14c-1.36 5.49-14.56 9.8-30.66 9.8Z" fill="#000" stroke="#000" stroke-linecap="round" stroke-linejoin="round"/>
  <path d="m196.65 177.4-1.7 5.45-5.45.53-3.55-5.35" fill="#fff"/>
  <path d="m196.65 177.4-1.7 5.45-5.45.53-3.55-5.35" stroke="#6EDAFF" stroke-linecap="round" stroke-linejoin="round"/>
  <path d="M212.95 181.98a8.53 8.53 0 0 0-2.86 5.99" fill="#fff"/>
  <path d="M212.95 181.98a8.53 8.53 0 0 0-2.86 5.99" stroke="#6EDAFF" stroke-linecap="round" stroke-linejoin="round"/>
  <path d="M204.55 188.14c17 0 30.78-4.8 30.78-10.73 0-5.93-13.78-10.74-30.78-10.74s-30.78 4.8-30.78 10.74c0 5.93 13.78 10.73 30.78 10.73Z" stroke="#fff" stroke-linecap="round" stroke-linejoin="round"/>
  <path d="M223.08 185.03a74.36 74.36 0 0 1-18.53 2.2c-10.55 0-19.7-1.77-25.28-4.74" stroke="#6EDAFF" stroke-linecap="round" stroke-linejoin="round"/>
</svg>
