<svg xmlns="http://www.w3.org/2000/svg" width="240" height="240"><path d="M118 105c21 0 30.8 27.3 14.6 40.7-16 13.4-40.9-1-37.3-21.6A23.2 23.2 0 0 1 118 105z" fill="#e5e8e9"/><path d="M179 213.2V226a12 12 0 0 1-12 12h-24a9 9 0 0 0 9-9v-18-1c0-23.3-.9-45.9-4-65.3a34.8 34.8 0 0 0-21.5-49.5 57 57 0 0 0-22-13c22.5-6.8 46.7 5 58.5 24.8 13.9 24.4 16 64 16 106zM102 181a4 4 0 0 1 4-4h23.6a4 4 0 0 1 3.3 6.2 18.3 18.3 0 0 1-16 8.8q-9.3.2-14.4-9a4 4 0 0 1-.5-2z" fill="#eef0f1"/><path d="M33 84.2a1.9 1.9 0 0 1 2.5-2.7l2.3 2.3a1.9 1.9 0 0 1-2.6 2.7zm-6.5-5.8c1.8 1.8 4.8-1 2.9-2.9l-8-7.9c-1.7-1.8-4.7 1-2.8 2.9zM154 128.5a36.5 36.5 0 1 1-29.6-35.8 36.9 36.9 0 0 1 29.6 35.8zm-4 0a32.5 32.5 0 1 0-26.3 31.9 32.8 32.8 0 0 0 26.3-31.9zm-7-1c.3 23-29 34.1-44 16.9-15-17.4.5-44.9 23.1-41a25.3 25.3 0 0 1 20.8 24.2zm-4 .1a21 21 0 1 0-20.7 21.4 21.2 21.2 0 0 0 20.6-21.4zm-3.5 52.1a6 6 0 0 1-.9 4.6A20.3 20.3 0 0 1 117 194a18 18 0 0 1-16.3-10 6 6 0 0 1 5.3-9h23.6a6 6 0 0 1 5.9 4.7zm-4.8-.4a2 2 0 0 0-1.1-.3H106a2 2 0 0 0-1.8 3c3 5.5 7.2 8.1 12.7 8a16.3 16.3 0 0 0 14.4-8 2 2 0 0 0-.6-2.7zM78.5 23l2.7-8.8 8.8-2.7L81 8.8 78.5 0l-2.7 8.8-8.8 2.7 8.8 2.7zM204 23l2.2-4.8L211 16l-4.8-2.2L204 9l-2.2 4.8L197 16l4.8 2.2zM9.8 114.1L7.5 109 5 114.1 0 116.5l5 2.4 2.4 5.1 2.4-5.1 5.2-2.4zm226.3 26.7L235 137l-1.2 3.8-3.8 1.2 3.8 1.2 1.1 3.8 1.2-3.8 3.9-1.2zM211.5 117l-2.7 5.8-5.9 2.7 5.9 2.7 2.6 5.8 2.7-5.8 5.9-2.7-5.9-2.7zm.5-48.2A2 2 0 1 0 209 66l-8.2 8.2a2 2 0 1 0 2.9 2.8zm-16.5 9.8l-2 2a2 2 0 0 0 2.9 2.8l2-2a2 2 0 1 0-2.9-2.8zm-31 27.5c5.3 9 8.4 19.3 10.6 29.5 6 27.6 6 56.1 5.9 84.4 0 6.8-.7 14.8-6.5 18.2-3 1.7-6.6 1.8-10 1.8H73.7c-5.5 0-11.5-.1-15.5-3.8-3.7-3.5-4.5-9-4.4-14s1.1-10.2 0-15.1c-8.2-.6-16.6-2-24-5.9s-13.5-10.5-15.4-18.6c-2.3-10.5 3.3-21.7 12-28s20.1-8.1 30.8-7.4c1.6-12.7 4.3-25.6 10.2-37S82.6 88.7 94.6 84L87 71A9.4 9.4 0 0 1 74.6 66c-3.5-9.7 10.2-16.5 15.8-7.7a9.3 9.3 0 0 1-.4 10.4l8.1 13.6a51 51 0 0 1 39.3-.1l7.1-12c-4-4-2.4-12.2 3-14.4s12.3 2.3 12.4 8-6.7 10.6-12.1 8.6l-7 11.5a50.8 50.8 0 0 1 23.4 21.5l.4.7zM146 64c0 6.5 10 6.4 10 0s-10-6.5-10 0zm-58-1c0-6.5-10-6.4-10 0s10 6.5 10 0zM62.4 201.4a3.6 3.6 0 0 1 3.2.7c3.3 2.8 8.8 3.6 12.5 3.9a33.2 33.2 0 0 1-2.9-8.4 3.5 3.5 0 0 1 1.2-3.4c7.5-6.5 10.9-16.7 6.6-26a31.4 31.4 0 0 0-21.4-16c-16.9-4.1-43.7 3.6-43.7 24.7 0 21.5 27.6 29 44.5 24.5zM177 213c0-40.2-2-80.8-15.7-105a53 53 0 0 0-43.7-26 57.2 57.2 0 0 0-44.9 26 116 116 0 0 0-11.6 40 35.9 35.9 0 0 1 25.5 18.6 26 26 0 0 1-7.4 30.4c1.3 6 3 8.5 4.2 9.6l3.7 3.3-5 .2c-6.2.2-13.8-.7-18.9-4.8a45.3 45.3 0 0 1-5.2 1V226a10 10 0 0 0 10 10h99a10 10 0 0 0 10-10zM58.2 176H61v3h-3.3l-.7 3h-2.6l.7-3h-2.3l-.7 3h-2.6l.7-3H48v-3h2.6l.6-2H49v-3h2.6l.8-3H55l-.8 3h2.4l.7-3h2.6l-.7 3h.8v3h-1.3zm-2.1-2h-2.3l-.6 2h2.4zm7.2 4h2.1l.4-3q.2-1.5.1-3.2l.1-3.7-3-.1v7q0 1.5.3 3zm1.1 4.3a2 2 0 0 0 1.3-.5 1.9 1.9 0 1 0-3.1-1.4 1.7 1.7 0 0 0 .5 1.4 2 2 0 0 0 1.3.5zm-18.3-10.6a8 8 0 0 1 .6 3.4 9.9 9.9 0 0 1-.4 2.6 5.4 5.4 0 0 1-1 1.9 4 4 0 0 1-1.3 1.1 4.2 4.2 0 0 1-1.9.4 5 5 0 0 1-1.2-.2 2 2 0 0 1-1-.5 3.8 3.8 0 0 1-2.2.6 4.4 4.4 0 0 1-3.2-1.3 4.3 4.3 0 0 1-.9-1.6 6.2 6.2 0 0 1-.3-2.1 5.4 5.4 0 0 1 .4-1.9 4.5 4.5 0 0 1 2.6-2.5 7.2 7.2 0 0 1 4.2-.1 13 13 0 0 1 1.5.4l-.1 6.3a.8.8 0 0 0 .2.7.8.8 0 0 0 .5.1 1.3 1.3 0 0 0 .7-.1c1-.7 1-3 1-4a5.9 5.9 0 0 0-.3-2.3 5.3 5.3 0 0 0-3.2-3 8 8 0 0 0-2.7-.4 7 7 0 0 0-2.6.4 6 6 0 0 0-2 1.4A6.3 6.3 0 0 0 32 173a8 8 0 0 0-.5 2.9 8.1 8.1 0 0 0 .4 3 5.6 5.6 0 0 0 1.3 2 5.8 5.8 0 0 0 2.2 1.3 9 9 0 0 0 2.9.5 17.3 17.3 0 0 0 3.4-.3l.2 1.9a12.5 12.5 0 0 1-1.5.3 12.8 12.8 0 0 1-5.8-.4 8 8 0 0 1-2.9-1.6 7.3 7.3 0 0 1-2-2.8 9.9 9.9 0 0 1-.6-4 9.4 9.4 0 0 1 .9-3.8 8.4 8.4 0 0 1 2-2.8 8.3 8.3 0 0 1 2.9-1.6 9.8 9.8 0 0 1 3.3-.5 11.1 11.1 0 0 1 3.4.5 7.4 7.4 0 0 1 4.5 4zm-7.1 5.9v-4.1a2.8 2.8 0 0 0-2.6.6 3.1 3.1 0 0 0-.6 2 3.4 3.4 0 0 0 .4 1.9 1.8 1.8 0 0 0 .7.6 2.3 2.3 0 0 0 1 .2 4.5 4.5 0 0 0 .7 0 1.8 1.8 0 0 0 .5-.2 2.8 2.8 0 0 1 0-.4l-.1-.6z" fill="#cbd1d3"/><circle cx="108.5" cy="122.5" r="9.5" fill="#fff"/><circle cx="128" cy="135" r="4" fill="#fff"/></svg>
