<svg width="260" height="260" viewBox="0 0 260 260" fill="none" xmlns="http://www.w3.org/2000/svg">
  <path d="M128.5 13.84 76.17 68.99 7.54 101.72a2.7 2.7 0 0 0-1.21 3.74l36.28 66.8 9.92 75.38a2.72 2.72 0 0 0 3.17 2.31l74.76-13.86 74.75 13.86a2.7 2.7 0 0 0 3.18-2.3l9.92-75.39 36.28-66.8a2.7 2.7 0 0 0-1.21-3.74l-68.63-32.73-52.32-55.15a2.7 2.7 0 0 0-3.93 0Z" fill="#45E0A8"/>
  <path d="M128.5 13.84 76.17 68.99 7.54 101.72a2.7 2.7 0 0 0-1.21 3.74l36.28 66.8 9.92 75.38a2.72 2.72 0 0 0 3.17 2.31l74.76-13.86 74.75 13.86a2.7 2.7 0 0 0 3.18-2.3l9.92-75.39 36.28-66.8a2.7 2.7 0 0 0-1.21-3.74l-68.63-32.73-52.32-55.15a2.7 2.7 0 0 0-3.93 0" stroke="#45E0A8" stroke-linecap="round" stroke-linejoin="round"/>
  <mask id="a" style="mask-type:alpha" maskUnits="userSpaceOnUse" x="6" y="10" width="249" height="240">
    <path d="M128.5 13.84 89.54 10 55.7 23.26 7.55 101.72a2.7 2.7 0 0 0-1.21 3.74l36.28 66.8 9.92 75.38a2.72 2.72 0 0 0 3.17 2.31l74.76-13.86 74.75 13.86a2.7 2.7 0 0 0 3.18-2.3l9.92-75.39 36.28-66.8a2.7 2.7 0 0 0-1.21-3.74l-68.63-32.73-52.32-55.15a2.7 2.7 0 0 0-3.93 0Z" fill="#FF642D"/>
  </mask>
  <g mask="url(#a)">
    <path d="m222.26 134.8-22.66 1.1v18.04l22.66-.9V134.8Z" fill="#000" stroke="#45E0A8" stroke-linecap="round" stroke-linejoin="round"/>
    <path d="m225.9 141.8-29.93 1.34v5.32l29.93-1.36v-5.3ZM225.9 129.3l-29.93 1.53v5.26l29.93-1.47v-5.32Z" fill="#000" stroke="#45E0A8" stroke-linecap="round" stroke-linejoin="round"/>
    <path d="M216.2 258.6h9.26V152.92l-9.27.37V258.6Z" stroke="#000" stroke-linecap="round" stroke-linejoin="round"/>
    <path d="m216.2 175.65-19.29.5v-22.12l19.28-.74v22.36Z" stroke="#000" stroke-linecap="round" stroke-linejoin="round"/>
    <path d="m216.2 197.45-19.29.25v-21.55l19.28-.5v21.8Z" stroke="#000" stroke-linecap="round" stroke-linejoin="round"/>
    <path d="M216.2 219.05H196.9V197.7l19.28-.25v21.6ZM216.2 219.05H196.9v21.7h19.28v-21.7ZM216.2 197.45l-19.29-21.3" stroke="#000" stroke-linecap="round" stroke-linejoin="round"/>
    <path d="m189.08 255.77-82.87 37.1-2.35-105.13 76.18-6.88a3.4 3.4 0 0 1 3.3 1.82c.2.4.32.83.36 1.28l5.38 71.81Z" fill="#fff" stroke="#000" stroke-linecap="round" stroke-linejoin="round"/>
    <path d="m184.18 190.44-80.01 10.9-.3-13.6 76.17-6.88a3.4 3.4 0 0 1 3.3 1.82c.2.4.32.83.36 1.28l.48 6.48Z" fill="#000"/>
    <path d="M117.67 192.96c.06 1.9-1.33 3.63-3.11 3.86-1.79.22-3.34-1.17-3.39-3.14-.05-1.96 1.38-3.67 3.18-3.85 1.8-.18 3.26 1.23 3.32 3.13Z" fill="#fff"/>
    <path d="M126.89 191.92c.07 1.84-1.22 3.5-2.89 3.7-1.67.2-3.13-1.13-3.19-3.03-.05-1.89 1.27-3.54 2.96-3.7 1.68-.17 3.05 1.19 3.12 3.03Z" fill="#45E0A8"/>
    <path d="m182.85 227.87-70.17 21.54-1.02-38.04 66.71-11.64a2.2 2.2 0 0 1 2.57 2l1.9 26.14Z" stroke="#45E0A8" stroke-linecap="round" stroke-linejoin="round"/>
    <path d="M173.93 209.2c.12 1.72-.8 3.35-2.05 3.65-1.26.3-2.42-.87-2.53-2.63-.12-1.75.83-3.38 2.1-3.63 1.28-.27 2.36.92 2.48 2.62ZM165.3 223.27l5.15-5.82a2.1 2.1 0 0 1 2.7-.38l9.34 5.9" stroke="#45E0A8" stroke-linecap="round" stroke-linejoin="round"/>
    <path d="m141.55 231.28 12.44-13.78a2.1 2.1 0 0 1 2.8-.3l12.58 8.97" stroke="#45E0A8" stroke-linecap="round" stroke-linejoin="round"/>
    <path d="M242.08 200.44 181.07 215l-.1-.83-2.22 1.56-.1.07-.14.1a2.98 2.98 0 0 0-1.12 2.53l5.18 72.99 65.44-39.02-5.93-51.96Z" fill="#45E0A8" stroke="#000" stroke-linecap="round" stroke-linejoin="round"/>
    <path d="m250.53 250.64-65.42 39.01-5.18-72.98a2.98 2.98 0 0 1 2.28-3.11l62.4-14.9 5.92 51.98Z" fill="#fff" stroke="#000" stroke-linecap="round" stroke-linejoin="round"/>
    <path d="m245.5 206.56-65 19.26-.6-9.16a2.98 2.98 0 0 1 2.28-3.1l62.41-14.89.91 7.89Z" fill="#000"/>
    <path d="M189.05 217.3c.1 1.47-.81 3.02-2.02 3.46-1.21.43-2.31-.43-2.4-1.94-.09-1.52.86-3.07 2.08-3.47 1.23-.4 2.25.47 2.34 1.95Z" fill="#fff"/>
    <path d="M196.36 215.36c.1 1.42-.79 2.9-2 3.3-1.2.4-2.28-.44-2.38-1.9-.1-1.45.82-2.93 2.04-3.3 1.21-.38 2.24.48 2.34 1.9Z" fill="#45E0A8"/>
    <path d="m245.56 239.74-56.02 27-2.28-30.5a2.72 2.72 0 0 1 1.88-2.8l53.77-17.36 2.65 23.66Z" stroke="#45E0A8" stroke-linecap="round" stroke-linejoin="round"/>
    <path d="m145.65 256.51-124.81 43 6.61-219.56A9.46 9.46 0 0 1 30.81 73l10.3-8.67 104.54 192.19Z" fill="#45E0A8" stroke="#000" stroke-linecap="round" stroke-linejoin="round"/>
    <path d="m159.54 244.8-124.82 43 4.79-219.69a5.52 5.52 0 0 1 7-5.2l99.58 27.7a6.84 6.84 0 0 1 5 6.19l8.45 148Z" fill="#fff" stroke="#000" stroke-linecap="round" stroke-linejoin="round"/>
    <path d="M151.69 107.42 39.18 83l.33-14.89a5.52 5.52 0 0 1 7-5.2l99.58 27.7a6.84 6.84 0 0 1 5 6.19l.6 10.62Z" fill="#000"/>
    <path d="M55.14 75.12c-.03 2.87-1.86 4.77-4.11 4.24-2.25-.54-4.1-3.35-4.07-6.26.04-2.92 1.92-4.78 4.18-4.2 2.27.6 4.02 3.36 4 6.22Z" fill="#fff"/>
    <path d="M68.77 78.5c0 2.79-1.7 4.65-3.83 4.15-2.11-.5-3.87-3.22-3.86-6.05.02-2.84 1.77-4.65 3.9-4.1 2.13.55 3.8 3.23 3.8 6Z" fill="#45E0A8"/>
    <path d="M145.43 184.87 56.23 193a5.55 5.55 0 0 1-6.06-5.62l.96-73.53a4.37 4.37 0 0 1 5.02-4.28l85.75 12.92a5.55 5.55 0 0 1 4.72 5.2l2.78 52.58a4.37 4.37 0 0 1-3.97 4.6v0ZM49.89 209.31l40.53-5.5M83.24 219.3l29.3-5.32M49.57 224.84c2.68-.49 2.88.63 5.56.15 2.68-.49 2.47-1.61 5.15-2.1 2.68-.48 2.88.64 5.56.15 2.68-.48 2.47-1.6 5.15-2.1 2.68-.48 2.88.64 5.56.16M108.75 227.71c3.04-.7 3.3.42 6.33-.28 3.04-.7 2.79-1.8 5.83-2.5s3.29.42 6.33-.29c3.04-.7 2.78-1.8 5.82-2.5 3.04-.69 3.3.43 6.33-.28 3.04-.7 2.79-1.8 5.83-2.5 3.04-.69 3.29.42 6.33-.28M49.46 241.83l50.69-11.57" stroke="#45E0A8" stroke-linecap="round" stroke-linejoin="round"/>
    <path d="M112.23 172.49c-6.33.17-12.03-8.4-12.3-19.1-.26-10.44 4.9-18.2 11.1-17.61 6.11.56 11.02 8.69 11.41 18.37.39 9.95-3.99 18.16-10.21 18.34Zm14.88-18.18c-.52-12.26-5.9-25.6-17.71-27.03l-26.57-3.21c-.57-.07-.94.33-.93 1.12.02.4.18.78.43 1.1a34.88 34.88 0 0 0 4.7 4.6 70.04 70.04 0 0 0 5.01 3.85c.63.44.89.88.9 1.42.01.73-.32 1.18-1 1.12l-23.49-1.96c-.75-.06-1.1.57-1.1 1.28 0 .58.17 1.14.5 1.62 2.06 3.2 5.3 7.07 9.94 11.51 3.96 3.78 8.14 7.33 12.5 10.63a1.82 1.82 0 0 1 .85 1.53c0 .63-.32 1.16-1.03 1.14l-10.66-.01c-.63 0-.97.49-.96 1.25.05.5.24.97.55 1.36 2.54 3.4 6.52 7.03 11.68 10.23 6.68 4.15 13.19 6.42 20.11 6.02 12.31-.74 16.78-16.03 16.28-27.57Z" stroke="#45E0A8" stroke-linecap="round" stroke-linejoin="round"/>
    <path d="M161.56 171.29c-5.06-10.82-17.72-18.82-34.62-10.91l-33.6 15.72c-.69.31-.93.85-.65 1.48a1.24 1.24 0 0 0 .87.6c1.7.38 3.98.6 6.95.69 2.87.07 5.04 0 7.22-.12.9-.04 1.36.15 1.56.6.29.57.03 1.14-.81 1.55L81.8 193.36c-.8.38-.94 1.06-.7 1.57a1.76 1.76 0 0 0 1.07.93c3.22 1.25 7.93 2.36 14.44 3.16 5.92.7 11.87 1.1 17.83 1.18.88 0 1.33.29 1.5.73.22.49.03 1.07-.82 1.47l-12.22 5.7c-.7.33-.9.85-.64 1.42.24.37.62.64 1.05.74 3.96 1.22 9.7 1.9 16.8 1.65 9.48-.33 18.47-2.07 27.5-6.28 17.1-8 18.63-24.32 13.95-34.34Zm-15.17 25.78a17.02 17.02 0 0 1-22.57-8.14c-3.92-8.4-.07-18.4 8.33-22.32a16.7 16.7 0 0 1 22.41 7.95 16.8 16.8 0 0 1-8.17 22.52v0Z" fill="#45E0A8" stroke="#000" stroke-linecap="round" stroke-linejoin="round"/>
    <path d="M162.29 171.35c-3.6 3.07-8.45 4.81-12.73 4.16-4.4-.67-7.33-3.86-7.85-8.53-.73-6.72 1.05-10.03 2.35-12.44.98-1.82 1.39-2.57.74-4.6a2.83 2.83 0 0 1 5.39-1.72c1.37 4.31.03 6.8-1.16 9-1.1 2.05-2.24 4.17-1.7 9.14.23 2.15 1.2 3.28 3.07 3.56 3.54.54 9.13-2.2 11.02-6.53 1.52-3.46 1.07-6.2.63-8.85-.21-1.3-.44-2.67-.34-4.03.1-1.3 4.4-5.29 5.45-4.13.77.83.31 1.7-.28 3.3-.4 1.08.5 2.48.74 3.94.48 2.97 1.15 7.04-1.03 12.03a16.07 16.07 0 0 1-4.3 5.7Z" fill="#fff" stroke="#000" stroke-linecap="round" stroke-linejoin="round"/>
    <path d="M162.16 149.57c-.22.28-.37.6-.44.94-.1 1.36.14 2.74.35 4.03.43 2.65.88 5.4-.63 8.85-1.9 4.34-7.48 7.07-11.02 6.53-1.68-.25-2.64-1.2-2.98-2.95l-.57-.7c-.44 7.04 8.77 6.88 13.07 3.1 4.85-4.27 6.02-10.67 2.22-19.8Z" fill="#000"/>
    <path d="m141.58 141.7 2.82 8.62c.18.54 1.8.5 3.64-.1 1.83-.6 3.18-1.53 3-2.07l-2.82-8.63-6.64 2.17Z" fill="#45E0A8" stroke="#000" stroke-linecap="round" stroke-linejoin="round"/>
    <path d="M118.93 120.19a2.6 2.6 0 0 1-2.99.26 67.23 67.23 0 0 1-9.43-7c-5.73-5.13-8.84-10-9.23-14.5-.22-2.56.42-3.99 4.44-7.43 1.09-.93 4.39.69 3.3 1.62-1.93 1.65-2.75 3.35-2.57 5.37.6 6.88 12.13 15.12 16.12 17.47a2.58 2.58 0 0 1 .36 4.2Z" fill="#000" stroke="#000" stroke-linecap="round" stroke-linejoin="round"/>
    <path d="m120.52 109.23-.9-1.1-3.73 3.2-.49.42-1.64 1.4c-12.03 10.27 15.02 29.25 22.75 34.24a2.98 2.98 0 0 0 3.55-.24l1.23-1.05.34-.29 2.13-1.82 1.57-1.34 1.12-.95-.25-.31c.25-.72.23-1.5-.08-2.2-3.24-7.37-14.73-30.98-25.6-29.95Z" fill="#000" stroke="#000" stroke-linecap="round" stroke-linejoin="round"/>
    <path d="m148.58 139.88 1.57-1.34a2.98 2.98 0 0 0 .79-3.46c-3.7-8.42-18.21-38.12-30.24-27.85l-2.13 1.82c-12.02 10.26 15.03 29.25 22.76 34.23a2.97 2.97 0 0 0 3.54-.24l1.58-1.33 2.13-1.83Z" fill="#45E0A8" stroke="#000" stroke-linecap="round" stroke-linejoin="round"/>
    <path d="M126.04 114.12a2.58 2.58 0 0 1-4.1-1.02c-1.68-4.32-8.02-17-14.72-18.67-1.96-.49-3.77.05-5.7 1.71a2.6 2.6 0 0 1-3.36-3.94c4.02-3.42 7.83-3.4 10.32-2.78 4.38 1.1 8.71 4.92 12.87 11.39 2.1 3.3 3.92 6.78 5.42 10.4a2.6 2.6 0 0 1-.73 2.9Z" fill="#45E0A8" stroke="#000" stroke-linecap="round" stroke-linejoin="round"/>
    <path d="M137.66 127.8c1.58-1.35 1.49-4.08-.22-6.08s-4.38-2.53-5.97-1.17c-1.6 1.36-1.5 4.08.21 6.08s4.38 2.53 5.97 1.17Z" fill="#fff" stroke="#fff" stroke-linecap="round" stroke-linejoin="round"/>
    <path d="m133.61 118.44 1.75 10.86" stroke="#45E0A8" stroke-linecap="round" stroke-linejoin="round"/>
    <path d="M144.6 144.57a.47.47 0 0 0-.68-.06c-1.05.9-2.5 1.12-3.53.52-4.32-2.52-25.9-15.68-26.94-27.28a9.1 9.1 0 0 1 2.71-7.28l-2.72 2.32-.1.1a9.59 9.59 0 0 0-.86 4.94c.45 4.96 4.36 10.65 11.64 16.91 6.22 5.35 13.1 9.56 15.77 11.12.55.32 1.17.48 1.8.48a4.4 4.4 0 0 0 2.83-1.09.47.47 0 0 0 .18-.32.48.48 0 0 0-.1-.36Z" fill="#45E0A8"/>
    <mask id="b" style="mask-type:alpha" maskUnits="userSpaceOnUse" x="128" y="145" width="41" height="32">
      <path d="M162.29 171.35c-3.6 3.07-8.45 4.81-12.73 4.16-4.4-.67-7.33-3.86-7.85-8.53-.73-6.72 1.05-10.03 2.35-12.44.98-1.82 1.38-2.57.74-4.6a2.83 2.83 0 0 1 5.39-1.72c1.37 4.31-20.13 10.12-21.3 12.32-1.11 2.05 22.51 25.23 18.43 5.82.24 2.15 1.22 3.28 3.08 3.56 3.54.54 9.13-2.2 11.02-6.53 1.52-3.46 1.07-6.2.63-8.85-.21-1.3-.44-2.67-.34-4.03.1-1.3 4.4-5.29 5.45-4.13.77.83.3 1.7-.28 3.3-.4 1.08.5 2.48.74 3.94.48 2.97 1.15 7.04-1.03 12.03a16.06 16.06 0 0 1-4.3 5.7Z" fill="#fff" stroke="#000" stroke-linecap="round" stroke-linejoin="round"/>
    </mask>
    <g mask="url(#b)">
      <path d="M161.56 171.29c-5.06-10.82-17.72-18.82-34.62-10.91l-33.6 15.72c-.69.31-.93.85-.65 1.48a1.24 1.24 0 0 0 .87.6c1.7.38 3.98.6 6.95.69 2.87.07 5.04 0 7.21-.12.9-.04 1.36.15 1.57.6.29.57.03 1.14-.81 1.55L81.8 193.36c-.8.38-.94 1.06-.7 1.57a1.76 1.76 0 0 0 1.07.93c3.22 1.25 7.93 2.36 14.44 3.16 5.92.7 11.87 1.1 17.83 1.18.88 0 1.33.29 1.5.73.22.49.03 1.07-.82 1.47l-12.22 5.7c-.7.33-.9.85-.64 1.42.24.37.62.64 1.05.74 3.96 1.22 9.7 1.9 16.8 1.65 9.48-.33 18.47-2.07 27.5-6.28 17.1-8 18.63-24.32 13.95-34.34Zm-15.17 25.78a17.02 17.02 0 0 1-22.57-8.14c-3.92-8.4-.07-18.4 8.33-22.32a16.7 16.7 0 0 1 22.41 7.95 16.83 16.83 0 0 1-8.17 22.52v-.01Z" fill="#45E0A8" stroke="#000" stroke-linecap="round" stroke-linejoin="round"/>
    </g>
    <path d="M149.56 175.51c-4.4-.67-7.33-3.86-7.85-8.53-.73-6.72 1.05-10.03 2.35-12.44m4.97 2.68c-1.1 2.05-2.24 4.17-1.7 9.14.23 2.15 1.2 3.28 3.07 3.56M65.29 47.92l25.29-2.75V10.86L52.03 36.8l13.26 11.1Z" stroke="#000" stroke-linecap="round" stroke-linejoin="round"/>
    <path d="M261.5 109 90.58 45.18V10.86L261.5 93.48v15.53ZM111.31 52.91l-23.9 2.46M129.47 59.7l-22.64 2.2M145.5 65.68l-21.5 2M159.74 71l-20.46 1.82M172.5 75.77l-19.52 1.67" stroke="#000" stroke-linecap="round" stroke-linejoin="round"/>
    <path d="M90.58 10.86 111.3 52.9V20.88l18.16 38.81V29.66l16.02 36.02V37.4L159.74 71V44.3l12.76 31.48V50.46l11.48 29.6V56l10.4 27.93v-22.9l9.44 26.43V65.6l8.63 25.1V69.76l7.92 23.88V73.6l7.28 22.77V77.12l6.72 21.76V80.37l6.23 20.84V83.38l5.78 19.98V86.17l5.38 19.2v-16.6l5.03 18.48V91.21l4.7 17.8M234.37 98.88h-19.05M65.29 47.92l195.88 65.93M76.66 42.15l13.92-31.3M240.6 101.2h-18.2M246.37 103.37H228.8M251.79 105.37h-17.05M238.92 105.14l17.87 2.1M261.46 109.01h-15.93" stroke="#000" stroke-linecap="round" stroke-linejoin="round"/>
    <path d="m180.4 128.4 16.4 2.43 20.33-1.07 3.03-3.32-21.53-7.28-22.24 6.92c.42.48.89.9 1.4 1.28h.01c.77.56 1.66.92 2.6 1.05Z" fill="#000" stroke="#000" stroke-linecap="round" stroke-linejoin="round"/>
    <path d="m172.94 85.25 18.2-1.45c1.55-.12 3.1.09 4.57.62l5.8 2.14-3.7 36.88c.66 3.38-1.83 3.9-3.24 3.97l-13.82.75a4.91 4.91 0 0 1-3.62-1.32c-2.46-2.3-6.3-8.25-7.42-23.23-.06-.89-.15-1.8-.21-2.73-.22-4.15-.12-8.32.28-12.46a3.47 3.47 0 0 1 3.16-3.17Z" fill="#45E0A8" stroke="#000" stroke-linecap="round" stroke-linejoin="round"/>
    <path d="m189.35 113.71-13.23.8a1.54 1.54 0 0 1-1.54-.99c-2.05-5.46-2.28-17.51-1.8-22.09a1.38 1.38 0 0 1 1.27-1.23l13.82-1.07a1.54 1.54 0 0 1 1.67 1.66c-.4 5.3.2 16.17 1.08 21.31a1.39 1.39 0 0 1-.72 1.46c-.17.09-.36.14-.55.15Z" fill="#000"/>
    <path d="m196.39 84.67 20.74 7.62V127a2.35 2.35 0 0 1-2.73 2.31l-12.26-2.08a5.4 5.4 0 0 1-4.16-3.44l-1.34-3.65a71.72 71.72 0 0 1-3.9-18.94v-.15c-.3-4.41.08-10.08.47-14.34a2.38 2.38 0 0 1 3.18-2.03Z" fill="#fff" stroke="#000" stroke-linecap="round" stroke-linejoin="round"/>
    <path d="M214.16 116.28v-19a1.67 1.67 0 0 0-1.14-1.59c-5.33-1.8-10.78-3.81-16.12-5.62a1.2 1.2 0 0 0-1.59 1.12c-.04 2.48.04 6.2.08 8.03.14 4.64.8 9.25 1.97 13.75a1.68 1.68 0 0 0 1.25 1.24l14.07 3.24a1.2 1.2 0 0 0 1.48-1.17Z" fill="#000"/>
    <path d="m216.2 175.65 9.26-.25M216.2 175.65l-19.29-21.62M196.91 197.7l13 14.27M183.98 80.06l-18.65 1.53" stroke="#000" stroke-linecap="round" stroke-linejoin="round"/>
    <path d="M217.13 92.3v37.46l8.77-.46V95.71l-8.77-3.42Z" fill="#000" stroke="#000" stroke-linecap="round" stroke-linejoin="round"/>
    <path d="m180.01 93.19-5.35 8.02M178.56 100.76l-2.79 4.17M191.77 131.04l35.84-1.82" stroke="#45E0A8" stroke-linecap="round" stroke-linejoin="round"/>
    <path d="M66.66 36.03C64.16 54.88 84 81.56 98.7 92.21c1.86 1.22 3.98 2.7 6.02 2.75 1.87-.99 1.14-2.83.36-4.76-1.89-3.94-4.77-7.4-7.57-10.88-1.95-2.37-3.97-4.7-5.99-7.07-7.48-9.02-18.22-20.46-20.3-32.35-.41-3.31 4.35-4.1 5-.79.4 2.66 1.48 5.37 2.85 7.97 4.3 8.02 10.37 14.88 16.3 21.9 2 2.35 4.04 4.71 6.03 7.13 3.54 4.53 9.95 11.7 9.5 17.79a6.98 6.98 0 0 1-3.7 5.44c-4.84 2.54-11.65-3.1-15.22-6-7.28-6.23-13.42-13.6-18.7-21.56-6.85-10.72-13.16-23.3-11.55-36.46.57-3.24 5.3-2.59 4.94.71Z" fill="#45E0A8"/>
    <path d="M66.66 36.03C64.16 54.88 84 81.56 98.7 92.21c1.86 1.22 3.98 2.7 6.02 2.75 1.87-.99 1.14-2.83.36-4.76-1.89-3.94-4.77-7.4-7.57-10.88-1.95-2.37-3.97-4.7-5.99-7.07-7.48-9.02-18.22-20.46-20.3-32.35-.41-3.31 4.35-4.1 5-.79.4 2.66 1.48 5.37 2.85 7.97 4.3 8.02 10.37 14.88 16.3 21.9 2 2.35 4.04 4.71 6.03 7.13 3.54 4.53 9.95 11.7 9.5 17.79a6.98 6.98 0 0 1-3.7 5.44c-4.84 2.54-11.65-3.1-15.22-6-7.28-6.23-13.42-13.6-18.7-21.56-6.85-10.72-13.16-23.3-11.55-36.46.57-3.24 5.3-2.59 4.94.71h0Z" stroke="#000" stroke-linecap="round" stroke-linejoin="round"/>
    <path d="M68.64 51.54a1.6 1.6 0 0 0-.76.04c-1.45.46-2.16 3.24-1.94 6.88M67.01 45.27a1.97 1.97 0 0 0-.85-.02c-1.57.33-2.68 2.7-2.92 5.88M71.23 58.03c-.25.11-.48.26-.7.43-2.24 1.79-1.45 5.9-1.32 6.54M74.3 63.95c-2.17 0-2.34 4.98-1.78 6.64M77.57 69.27c-1.71.7-1.18 6.1-.62 7.76M82.03 75.5c-1.76.78-.92 6.04 0 7.9M87.1 81.54c-1.47.78-.7 6.02.64 7.93M92.6 87.14c-1.72.7-.6 5.56.28 6.95M80.3 49.26c-1.26-.34-2.72 1.98-2.5 5.62M77.2 42.87c-1.55.33-3.23 2.5-2.9 5.88M83.42 54.14c-1.39-.43-2.37 4.86-1.67 6.26M87.74 59.84c-1.8 0-2.23 4.26-1.67 5.92M92.43 65.51c-1.52-.37-2 4.35-1.65 5.84M97.47 71.44c-1.3.19-2.04 3.9-1.59 5.93M102.19 77.11c-1.33.26-1.78 4.33-1.21 6.58M107.08 83.54c-1.85-.09-2.43 4.6-2.2 6.22" stroke="#000" stroke-linecap="round" stroke-linejoin="round"/>
    <path d="m52.03 36.81 21.9-14.75 2.73 20.1-24.63-5.35Z" fill="#000" stroke="#000" stroke-linecap="round" stroke-linejoin="round"/>
    <path d="m59.29 42.9 17.37-.75-24.63-5.34 7.26 6.09Z" fill="#000" stroke="#000" stroke-linecap="round" stroke-linejoin="round"/>
    <path d="M112.54 97.87c-1.69-1.7-3.49-2.98-5.32-3.44a5.31 5.31 0 0 0-2.81.03l-1.92-4.81c1.93-.66 4.01-.74 5.99-.24a15.4 15.4 0 0 1 6.2 3.42l-2.14 5.04Z" fill="#45E0A8"/>
    <path d="M112.54 97.87c-1.69-1.7-3.49-2.98-5.32-3.44a5.31 5.31 0 0 0-2.81.03M102.5 89.65c1.92-.66 4-.74 5.98-.24a15.4 15.4 0 0 1 6.2 3.42" stroke="#000" stroke-linecap="round" stroke-linejoin="round"/>
  </g>
  <path d="m51.62 36.73 38.02 7.92" stroke="#fff" stroke-linecap="round" stroke-linejoin="round"/>
  <path d="m19.48 129.66 23.13 42.6 9.92 75.38a2.72 2.72 0 0 0 3.18 2.31l74.75-13.86 74.76 13.86a2.7 2.7 0 0 0 3.17-2.3l9.92-75.39 36.28-66.8a2.7 2.7 0 0 0-1.21-3.74l-68.63-32.73-52.32-55.15a2.7 2.7 0 0 0-3.93 0" stroke="#45E0A8" stroke-linecap="round" stroke-linejoin="round"/>
</svg>
