<svg xmlns="http://www.w3.org/2000/svg" width="240" height="240"><path d="M156.3 57.9l-45.4-16h85.9c5.4 0 10 3.5 10 8s-4.6 8-10 8zm-71.5 160H76v20h19.8v-9a11 11 0 0 0-11-11zm100.2-19v5h14.8a132 132 0 0 0 3-28 144 144 0 0 0-6-42H185v16.4a14 14 0 0 0-9.2-3.4 13.9 13.9 0 0 0-14 14c0 7 6.2 13 14 13a14.4 14.4 0 0 0 11-5.2l.2 7.3a131.6 131.6 0 0 1-2 22.9zm-31.8 5.1l-.2-1a100 100 0 0 1-3-18h-1l-6 6a22.7 22.7 0 0 0-6 15v31l19.7-19.7a100.7 100.7 0 0 0 5 11.7h4.3q2.4 9 10.3 9t9.7-9h4.8a109.5 109.5 0 0 0 9-25zm56.8-13l-6-6h-1a100 100 0 0 1-3 18 85.2 85.2 0 0 1-4 14l20 20v-31a22.7 22.7 0 0 0-6-15z" fill="#eef0f1"/><path d="M187.6 153.4a14 14 0 0 0-15.7 21 14 14 0 1 1 15.7-21z" fill="#e5e8e9"/><path d="M85 216V60h82v9a9.1 9.1 0 0 0 8 9V93c-7.8 1.2-15 9.8-20.1 24.2a2 2 0 0 0 1.9 2.7h41a2 2 0 0 0 1.8-2.7c-5-14.4-12.3-22.8-20.6-24.1V77.6a9 9 0 0 0 7-8.6v-9h10.8c5.6 0 12-3.8 12-10s-6.4-10-12-10h-37.3L75.8 10a11.2 11.2 0 0 0-9.8-10c-5.7-.6-10 4.1-11 9.5L24.9 40v.1h-12C7 40 .8 43.8.8 50s6.3 10 12 10H16v9a5 5 0 0 0 5 5h10a5 5 0 0 0 5-5v-9h10v32a2 2 0 0 0 0 1.8v70.1a2 2 0 0 0 0 1.9V216a12.8 12.8 0 0 0-12 13v9a2 2 0 0 0 2 2h60a2 2 0 0 0 2-2v-9a12.9 12.9 0 0 0-13-13zm-15.7 0L81 203.6V216zM50 202h22c2.6 0 2.6-4 0-4H50v-28L79 200 63.8 216H50zm0-71h22c2.6 0 2.6-4 0-4H50V98.1L79 129l-29 30.7zm31 31H58c-2.6 0-2.6 4 0 4h23v30.2l-30.5-31.4L81 132.6zm0-71H58c-2.6 0-2.6 4 0 4h23v30.1L50.6 93 81 62.4zm113.9 25h-35.3c4.4-11 10-17.9 15.8-18.9a11 11 0 0 1 3.2 0c6.1 1.2 12 7.9 16.3 18.9zM182 69c0 6.4-11 6.7-11 0v-9h11zM59 11.7c0-3.7 2.5-8 6.7-7.7 4 .4 6.3 4 6.3 7.7V40H59zm-4 3.7V40H30.4zM4.8 50c0-3.3 3.6-6 8-6H89c2.6 0 2.6-4 0-4H76V14.4L147.6 40H101c-2.6 0-2.6 4 0 4h95.8c3.3 0 8 2 8 6s-4.7 6-8 6H83.5a2 2 0 0 0-1.5 0H12.8c-4.4 0-8-2.7-8-6zM32 69a1 1 0 0 1-1 1H21a1 1 0 0 1-1-1v-9h12zm45.8-9L50 87.8V60zM94 236H38v-7a8.9 8.9 0 0 1 9-9h38a8.9 8.9 0 0 1 9 9zm97.8-75.1c0-14.2-17.8-21.4-27.7-11.1-10.2 10.7-.6 27.7 13.7 26 7.4-1 14-7.2 14-15zm-28 0a12 12 0 0 1 23.9-1.6c.8 6.6-4.7 12.1-11.1 12.5-6.3.4-12.8-4.3-12.8-11zm41.6 22.7a2 2 0 0 0-.8-.5 141.9 141.9 0 0 0-6-49.7 2 2 0 0 0-1.8-1.4h-41a2 2 0 0 0-2 1.4 130.1 130.1 0 0 0-4.6 21.5 2 2 0 0 0 1.7 2.3c3.3.4 3-7.2 3.5-9.2a120.7 120.7 0 0 1 2.8-12h38a137.8 137.8 0 0 1 3 66h-43.4a90.8 90.8 0 0 1-2.3-12 140.4 140.4 0 0 1-.2-26.4 2 2 0 0 0-4-.3 148.5 148.5 0 0 0-.3 20 2 2 0 0 0-.4.3l-6 6A24.8 24.8 0 0 0 135 206v31a2 2 0 0 0 1.2 1.8 2 2 0 0 0 2.2-.4L156 221a100 100 0 0 0 4 9 2 2 0 0 0 1.9 1.1h2.7c1.9 5.3 6 9 11.8 9 5.7 0 9.7-3.6 11.2-9h3.3a2 2 0 0 0 1.7-1 100.4 100.4 0 0 0 4.2-9.4l17.9 17.8a2 2 0 0 0 2.2.4 2 2 0 0 0 1.2-1.8v-31a24.8 24.8 0 0 0-6.6-16.4zM139 232.2V206a20.6 20.6 0 0 1 5.4-13.6l4-3.9.1 1.6a135.1 135.1 0 0 0 2.3 14.3 118 118 0 0 0 3.6 12.4zm37.3 3.8c-2.4 0-5.5-.6-7.5-5h14.5c-1.7 4.4-4.7 5-7 5zm13.2-9H163a99.9 99.9 0 0 1-4-9.5 2 2 0 0 0-.1-1.2 88.4 88.4 0 0 1-3.2-10.3h41.5a106.5 106.5 0 0 1-7.7 21zm24.5 5.2l-15.7-15.7a84.6 84.6 0 0 0 3.7-13 96.5 96.5 0 0 0 2.7-15l3.8 3.9A20.7 20.7 0 0 1 214 206zM6 178.7l3.8 1.2-3.9 1.1-1.1 3.9-1.2-3.9-3.8-1.2 3.8-1.1 1.2-3.8zM28.5 105l5.2 2.4-5.2 2.3-2.4 5.2-2.3-5.2-5.1-2.4 5.1-2.3 2.4-5.1zm211.2-34.7L231 73l-2.7 8.9-2.7-8.9-8.8-2.6 8.8-2.7 2.7-8.8 2.6 8.8zm-122.9 87.4l3.9 1.2-3.9 1.1-1.1 3.9-1.2-3.9-3.8-1.2 3.8-1.1 1.2-3.8zm20.9-12.3l-5.9 2.6-2.7 5.9-2.6-5.9-5.8-2.7 5.8-2.6 2.7-5.8 2.6 5.8z" fill="#cbd1d3"/></svg>
