<svg width="240" height="240" xmlns="http://www.w3.org/2000/svg">
  <g fill-rule="nonzero" fill="none">
    <path d="M180.448 82C209.472 82 233 121.354 233 157.563c0 13.676-9.097 44.729-9.097 52.882 0 8.153 8.221 7.857 8.221 13.82 0 8.69-9.884 16.01-17.124 11.455-6.359-4-11.637-6.72-27.92 3.031-1.998 1.196-2.734-1.464-2.734-3.031 19.017-11.069 37.17-131.925-15.106-150.064-1.908-.662 8.11-3.656 11.208-3.656z" fill="#EEF0F1"/>
    <path d="M180.5 235.126c4.91 0 8.495-.925 12.484-2.806.729-.343 3.239-1.606 3.77-1.858 1.601-.76 2.878-1.235 4.236-1.5.707-.139 1.41-.21 2.12-.21 3.43 0 5.546 1.3 8.89 4.378l.331.305c2.188 2.018 3.07 2.565 4.044 2.565 6.49 0 11.75-5.255 11.75-11.735 0-.663-.268-1.05-1.736-2.255l-.913-.746c-3.73-3.07-5.564-5.958-5.564-10.82 0-3.743.179-4.641 4.634-25.216.344-1.587.644-2.986.924-4.32 2.35-11.16 3.53-18.56 3.53-23.345C229 121.392 205.592 86 180.5 86S132 121.392 132 157.563c0 4.83 1.21 12.2 3.59 23.034.326 1.48.674 3.033 1.076 4.798 4.89 21.494 4.865 21.377 4.865 25.05 0 4.566-1.51 7.47-4.578 10.641-.17.175-.865.883-1.032 1.056-1.062 1.103-1.296 1.521-1.296 2.123 0 6.48 5.26 11.735 11.75 11.735.782 0 1.668-.524 3.685-2.297l.375-.33c3.76-3.31 5.94-4.622 9.586-4.622 1.957 0 3.684.487 5.505 1.41.911.462 3.76 2.191 3.95 2.3 3.163 1.796 6.204 2.665 11.024 2.665zm0 4c-12.934 0-14.904-6.375-20.479-6.375-5.574 0-8.39 7.249-13.646 7.249-8.698 0-15.75-7.045-15.75-15.735 0-5.415 6.906-5.871 6.906-13.82 0-7.95-9.531-38.858-9.531-52.882C128 121.353 151.505 82 180.5 82s52.5 39.354 52.5 75.563c0 13.676-9.088 44.729-9.088 52.882 0 8.153 8.213 7.857 8.213 13.82 0 8.69-7.052 15.735-15.75 15.735-5.57 0-8.024-7.249-13.265-7.249-5.242 0-9.676 6.375-22.61 6.375z" fill="#CBD1D3"/>
    <path d="M207.5 90c7.456 0 13.5-6.044 13.5-13.5S214.956 63 207.5 63 194 69.044 194 76.5 200.044 90 207.5 90zm0 4c-9.665 0-17.5-7.835-17.5-17.5S197.835 59 207.5 59 225 66.835 225 76.5 217.165 94 207.5 94z" fill="#CBD1D3"/>
    <path d="M204.875 87a7 7 0 1 0 0-14 7 7 0 0 0 0 14z" fill="#CBD1D3"/>
    <path d="M203.125 84.375a2.625 2.625 0 1 0 0-5.25 2.625 2.625 0 0 0 0 5.25zM206.625 79.125a.875.875 0 1 0 0-1.75.875.875 0 0 0 0 1.75z" fill="#FFF"/>
    <g>
      <path d="M147 97a9 9 0 1 0 0-18 9 9 0 0 0 0 18zm0 4c-7.18 0-13-5.82-13-13s5.82-13 13-13 13 5.82 13 13-5.82 13-13 13z" fill="#CBD1D3"/>
      <path d="M147.867 94.933a5.2 5.2 0 1 0 0-10.4 5.2 5.2 0 0 0 0 10.4z" fill="#CBD1D3"/>
      <path d="M149.6 92.333a1.733 1.733 0 1 0 0-3.466 1.733 1.733 0 0 0 0 3.466zM147 88.867a.867.867 0 1 0 0-1.734.867.867 0 0 0 0 1.734z" fill="#FFF"/>
    </g>
    <path d="M167.873 111.544c-.081 3.718-3.46 5.456-10.873 5.456a2 2 0 1 1 0-4c3.215 0 5.273-.334 6.32-.872.478-.246.547-.36.554-.672.004-.214-.028-.465-.12-.95-.116-.616-.133-.714-.163-1.003-.055-.538-.032-1.018.132-1.512.458-1.383 1.675-1.991 3.242-1.991 2.642 0 4.07 1.172 6.005 3.897l.315.445C174.74 112.39 175.518 113 177 113c1.477 0 2.472-.796 4.275-3.2l.562-.75c2.12-2.812 3.637-4.05 6.163-4.05 5.556 0 8.795 2.777 9.961 8.608a2 2 0 0 1-3.922.784c-.8-3.996-2.428-5.392-6.039-5.392-.833 0-1.568.6-2.97 2.458l-.555.742c-2.51 3.346-4.327 4.8-7.475 4.8-3.138 0-4.84-1.334-6.976-4.342l-.316-.445c-.857-1.207-1.394-1.803-1.952-2.056.09.53.127.923.117 1.387zM237.752 109.092a2 2 0 0 0 .496-3.969c-6.523-.815-10.248 2.444-10.248 8.985a384.884 384.884 0 0 0 .008 2.654c.021 7.009-.535 10.271-1.256 10.361a2 2 0 0 0 .496 3.97c2.514-.315 3.763-2.418 4.324-5.713.36-2.107.449-4.432.436-8.63l-.003-.931c-.004-.868-.005-1.243-.005-1.711 0-4.126 1.608-5.534 5.752-5.016z" fill="#CBD1D3"/>
    <g transform="translate(0 156)">
      <path d="M26.72 66.464a2 2 0 0 1 2.56 3.072C25.756 72.473 24 76.571 24 82a2 2 0 1 1-4 0c0-6.571 2.244-11.807 6.72-15.536zM93.28 66.464a2 2 0 0 0-2.56 3.072C94.244 72.473 96 76.571 96 82a2 2 0 1 0 4 0c0-6.571-2.244-11.807-6.72-15.536zM61.5 68a2 2 0 1 0-4 0v14a2 2 0 1 0 4 0V68zM12.973 56.329a2 2 0 1 1-3.946-.658C9.863 50.654 13.402 48 19 48a2 2 0 1 1 0 4c-3.735 0-5.53 1.346-6.027 4.329zM25 52a2 2 0 1 1 0-4h2a2 2 0 1 1 0 4h-2z" fill="#CBD1D3"/>
      <path d="M61 2c19.333 0 29 2.667 29 8s.333 16 1 32H80c1.333-17.333.667-27.667-2-31-2.667-3.333-8.333-6.333-17-9z" fill="#EEF0F1"/>
      <path d="M89 40V16c0-6.627-5.373-12-12-12H42c-6.627 0-12 5.373-12 12v24h59zM42 0h35c8.837 0 16 7.163 16 16v28H26V16c0-8.837 7.163-16 16-16z" fill="#CBD1D3"/>
      <path d="M79 42c24.667-.533 37 3.8 37 13s-5.333 13.2-16 12H90c2-.667 3-3.833 3-9.5S88.333 46.667 79 42z" fill="#EEF0F1"/>
      <path d="M15 44C8.925 44 4 48.925 4 55s4.925 11 11 11h88c6.075 0 11-4.925 11-11s-4.925-11-11-11H15zm0-4h88c8.284 0 15 6.716 15 15 0 8.284-6.716 15-15 15H15C6.716 70 0 63.284 0 55c0-8.284 6.716-15 15-15zM50 12a1 1 0 0 0-1 1v18a1 1 0 0 0 1 1h18a1 1 0 0 0 1-1V13a1 1 0 0 0-1-1H50zm0-4h18a5 5 0 0 1 5 5v18a5 5 0 0 1-5 5H50a5 5 0 0 1-5-5V13a5 5 0 0 1 5-5z" fill="#CBD1D3"/>
      <path d="M50 12a1 1 0 0 0-1 1v18a1 1 0 0 0 1 1h18a1 1 0 0 0 1-1V13a1 1 0 0 0-1-1H50z" fill="#EEF0F1"/>
      <circle fill="#CBD1D3" cx="54" cy="20" r="2"/>
      <circle fill="#CBD1D3" cx="59" cy="26" r="2"/>
      <circle fill="#CBD1D3" cx="64" cy="20" r="2"/>
    </g>
    <g>
      <path d="M98 115a2 2 0 0 0-2 2v19a2 2 0 0 0 2 2h5a7 7 0 0 0 7-7v-9a7 7 0 0 0-7-7h-5zm0-4h5c6.075 0 11 4.925 11 11v9c0 6.075-4.925 11-11 11h-5a6 6 0 0 1-6-6v-19a6 6 0 0 1 6-6z" fill="#CBD1D3"/>
      <path d="M89 119v16h3v-16h-3zm-2-4h7a2 2 0 0 1 2 2v20a2 2 0 0 1-2 2h-7a2 2 0 0 1-2-2v-20a2 2 0 0 1 2-2z" fill="#CBD1D3"/>
      <path fill="#EEF0F1" d="M89 119v16h3v-16z"/>
      <path d="M112.228 128.987a2 2 0 1 1-.456-3.974C121.496 123.898 127 127.285 127 135c0 .256 0 .245-.014 1.151-.036 2.22-.008 3.687.157 5.267.39 3.738 1.39 5.582 2.857 5.582a2 2 0 1 1 0 4c-4.302 0-6.254-3.598-6.835-9.166-.187-1.782-.217-3.377-.179-5.747.014-.867.014-.864.014-1.087 0-4.94-3.162-6.886-10.772-6.013z" fill="#CBD1D3"/>
    </g>
    <path d="M89.5 23l2.7-8.8 8.8-2.7-9-2.7L89.5 0l-2.7 8.8-8.8 2.7 8.8 2.7 2.7 8.8zM196 34l2.2-4.8L203 27l-4.8-2.2L196 20l-2.2 4.8L189 27l4.8 2.2L196 34zM62.8 70.1L60.5 65 58 70.1l-5 2.4 5 2.4 2.4 5.1 2.4-5.1 5.2-2.4-5.2-2.4zM29.1 98.8L28 95l-1.2 3.8L23 100l3.8 1.2 1.1 3.8 1.2-3.8L33 100l-3.9-1.2zm118-60L146 35l-1.2 3.8L141 40l3.8 1.2 1.1 3.8 1.2-3.8L151 40l-3.9-1.2z" fill="#CBD1D3"/>
  </g>
</svg>
