<svg xmlns="http://www.w3.org/2000/svg" width="240" height="240"><path d="M78.4 114a2.4 2.4 0 0 0 0 .5c0 5.5 19.4 10 43.4 10s43.5-4.5 43.5-10a2.4 2.4 0 0 0 0-.5z" fill="#e5e8e9"/><path d="M160.3 84h-75c0-20.4 16.8-37 38-37a37.1 37.1 0 0 1 37 37zm-40.2 109.1a2.2 2.2 0 0 0 1.3 1.8l1.6.7a2.2 2.2 0 0 1 .2 4 2.2 2.2 0 0 0 0 4 22.2 22.2 0 0 1 3.2 2.5 10 10 0 0 0 12.1 1l7.8-5.6-27.3-16.2z" fill="#eef0f1"/><path d="M93.3 78.5a2 2 0 0 1-2-2.5 33.1 33.1 0 0 1 5.4-11.7 2 2 0 0 1 3.2 2.4A29.2 29.2 0 0 0 95.3 77a2 2 0 0 1-2 1.5zm9-16A2 2 0 0 1 101 59a11.1 11.1 0 0 0 .9-.8l.4-.4 1-.7 2-1.3a2 2 0 1 1 2.1 3.4l-1.8 1.2-1 .7a12.7 12.7 0 0 1-1 .9 2 2 0 0 1-1.3.5z" fill="#fff"/><path d="M193.2 210.7a2 2 0 1 1-3.7 1.6l-14-32a2 2 0 0 1 3.7-1.6zm-13.7-56.3a2 2 0 0 0 3.6-1.8l-3-6a2 2 0 0 0-3.6 1.8zm-115.2 1.1a2 2 0 0 0 1.8-1l3-6a2 2 0 0 0-3.6-1.9l-3 6a2 2 0 0 0 1 2.7 2 2 0 0 0 .8.2zm5.9 22.2a2 2 0 0 0-2.7 1l-15 32a2 2 0 0 0 3.6 1.7l15-32a2 2 0 0 0-1-2.7zm129.1-64a2 2 0 0 1-2 2.3h-30.2a6.8 6.8 0 0 1-2.6 3.2l11.6 20.3a2 2 0 0 1-3.5 2l-11.7-20.4a45.8 45.8 0 0 1-7 2.2 2 2 0 0 1 .3.4l21 47a2 2 0 1 1-3.7 1.6l-21-47a2 2 0 0 1-.1-1.2 153.8 153.8 0 0 1-28.6 2.4 170.1 170.1 0 0 1-26.5-2 2 2 0 0 1-.1.8l-21 47a2 2 0 1 1-3.7-1.6l21-47a53.9 53.9 0 0 1-7.1-2L73 141.5a2 2 0 1 1-3.5-2l11.1-19.4c-2-1.2-3.5-2.5-4.1-4.1H47.3a2 2 0 0 1-2-2.2 36.2 36.2 0 0 1 36-31.8h2c1.2-20.6 18.7-37 40-37a39 39 0 0 1 39 37h1a36.2 36.2 0 0 1 34 23.3 35.3 35.3 0 0 1 2 8.5zM87.3 82h71a35 35 0 0 0-35-33 35.6 35.6 0 0 0-36 33zm74.9 34H81.5c3.9 2.8 17.8 6.5 40.3 6.5s36.5-3.7 40.4-6.5zm32.8-4a32.3 32.3 0 0 0-31.7-26h-82a32.2 32.2 0 0 0-31.6 26zm-92.7-18.5a5 5 0 1 0 5 5 5 5 0 0 0-5-5zm20 0a5 5 0 1 0 5 5 5 5 0 0 0-5-5zm20 0a5 5 0 1 0 5 5 5 5 0 0 0-5-5zm13.4 124.2l-2.5 4.3a2 2 0 1 1-3.5-2l2.5-4.3a6.3 6.3 0 0 0 .7-4.3 18.8 18.8 0 0 1-1.3 2.8l-13.2 23a5.8 5.8 0 0 1-.4.6 4.4 4.4 0 0 1-3.6 1.7 4.8 4.8 0 0 1-4.7-5.4l1.2-8.6a.8.8 0 0 0-.4-.8l-20.7-12a.8.8 0 0 0-.6 0 .8.8 0 0 0-.5.4l-2 3.6a9.1 9.1 0 0 1-3 3.2 4.6 4.6 0 0 1-5.2-.2 4.7 4.7 0 0 1-1.7-5.1l6-20.4c-.1-1.6-.3-1.8-4.3-4.1a5.8 5.8 0 0 1-3-4.7 4.8 4.8 0 0 1 3.5-5h.2l6.3-1c.6-2.7 3.2-5 4.2-5.9a2 2 0 0 1 3.1.8c3 6.8 4 7.5 11.2 11.6l23 13.3 4.2 2.4c2.5 1.4 8.6 9 4.5 16zm-29.3-20.2a4.2 4.2 0 0 1-2.3 4 .2.2 0 0 0-.1.1.2.2 0 0 0 .1.2 18.1 18.1 0 0 1 3.6 2.9 8 8 0 0 0 9.7.7l5.3-3.7-21.2-12.5.5 3.7a.2.2 0 0 0 .2.1l1.6.8a4.2 4.2 0 0 1 2.6 3.7zm23.2 9.6a8.1 8.1 0 0 0-3-3.4l-7 5a12 12 0 0 1-14.5-1 21 21 0 0 0-2.7-2.3 4.2 4.2 0 0 1-.1-7.5.2.2 0 0 0 0-.2.2.2 0 0 0 0-.3l-1.7-.7a4.3 4.3 0 0 1-2.5-3.3l-1-7a17.3 17.3 0 0 1-6.7-7.9c-.8 1-1 1.7-1 2a2 2 0 0 1-1.6 2.6l-7.8 1.3a.8.8 0 0 0-.6.7 1.8 1.8 0 0 0 1 1.5c4.3 2.5 6.3 3.6 6.3 7.8a2 2 0 0 1 0 .6l-6.1 20.7a.7.7 0 0 0 .3.8.6.6 0 0 0 .7 0 5.3 5.3 0 0 0 1.5-1.8l2.1-3.6a4.8 4.8 0 0 1 6.6-1.8l20.7 12a4.8 4.8 0 0 1 2.3 4.8l-1.1 8.6a.8.8 0 0 0 .5.7c.4.2.5 0 .6 0a1.6 1.6 0 0 0 .1-.3l13.3-23c1.3-2.2 1.7-3.9 1.4-5zM78.9 22.5l2.6-8.8 8.8-2.7-8.8-2.7-2.7-8.8-2.7 8.8-8.8 2.7 8.9 2.7zm110 17l2.6-5.8 5.8-2.7-5.8-2.7-2.6-5.8-2.7 5.8-5.9 2.7 5.9 2.7zm15.4-7l-2.2 4.8-4.8 2.2 4.8 2.2 2.3 4.8 2.2-4.8 4.7-2.2-4.7-2.2zm32.2 107.9l-1.2-3.9-1.1 3.9-3.9 1.1 3.9 1.2 1.1 3.8 1.2-3.8 3.8-1.2zM7.8 108.5l-2.3 5.1L.3 116l5.2 2.4 2.3 5.1 2.4-5.1 5.1-2.4-5.1-2.4z" fill="#cbd1d3"/></svg>
