<svg xmlns="http://www.w3.org/2000/svg" width="240" height="240"><path d="M128 189.8a45.4 45.4 0 0 0 65.1 3 45.4 45.4 0 0 0 0-65 47.5 47.5 0 0 1 13 77.2 49.5 49.5 0 0 1-78.1-15.2zM92.9 81c25.7-2.2 29 37.6 3.5 39.9S67 83.3 92.9 81z" fill="#eef0f1"/><path d="M79 112.2a17 17 0 1 0 10.7-30.5c15-4.3 28.3 10.5 24.1 25a19.5 19.5 0 0 1-34.8 5.5z" fill="#e5e8e9"/><path d="M238 112.5c-4.4-4.4-16.7 1.3-36.7 16.8a51.2 51.2 0 0 0-64.6 5.6 50 50 0 0 0-5.4 64.3l-1.6 1.6a1.8 1.8 0 0 0-.2.2c-16 20.3-21.8 32.9-17.4 37.3a4.9 4.9 0 0 0 4 1.6c3.6 0 10.5-2.3 24-12 4.5-3.1 9.3-6.8 14.3-11 40 15.2 81.3-25.2 64.9-65.3 7.1-9 15.6-19.1 19.2-30.3 1-2.8 1.9-6.4-.5-8.8zm-65.6 11.8a46.6 46.6 0 0 1 37.7 19 391.1 391.1 0 0 1-20.5 23.3 2 2 0 0 0 3 2.8c7.4-8 14.1-15.6 19.8-22.6a45.7 45.7 0 0 1 2.2 4.1 442.2 442.2 0 0 1-60.9 61.5l-4-2 3.7-3.2a2 2 0 0 0-2.6-3l-4.7 4a46.7 46.7 0 0 1-10.3-9.6 2 2 0 0 0-.5-.8 2 2 0 0 0-.2-.1c-22.6-30.1.3-73.4 37.3-73.4zm-34.6 100.4c-19.5 13.8-22.8 10.8-22.8 10.8-1.2-1.1-.3-9.2 17.6-32l1.1-1.1a50.7 50.7 0 0 0 9.1 8.3c-1.4 1.2-8.4 4.8-6.5 7.5a2 2 0 0 0 2.8.4l7.2-5.5 4 2.1c-4.4 3.5-8.5 6.7-12.5 9.5zm81.1-54.4c0 31-31.6 53.2-60.9 43.7a453.1 453.1 0 0 0 58.3-58.9 45.3 45.3 0 0 1 2.6 15.2zm-1.5-22.8l-2.4-4 3.1-4a2 2 0 1 0-3.2-2.4l-2.3 3a50.7 50.7 0 0 0-8-8.3c21.7-16.8 29.4-17.6 30.6-16.5 0 0 3 3.4-10.8 22.9l-7 9.3zm-32.2 24.4a2 2 0 0 1 2.8 2.8l-5.6 5.7a2 2 0 0 1-2.8-2.8l5.6-5.7zm-23.4 23.3a2 2 0 1 1 2.6 3c-2 1.9-4.2 3.6-6.2 5.3a2 2 0 1 1-2.5-3.1c2-1.6 4-3.4 6-5.2zm19.1-52c6.5 0 6.5-9.9 0-10-6.3 0-6.4 10 0 10zm0-6a1 1 0 0 1 0 2 1 1 0 0 1 0-2zm-26 38c9 0 9-14 0-14s-9 14 0 14zm0-10c3.9 0 3.9 6 0 6-3.7 0-3.9-6 0-6zm13-28.4a1.5 1.5 0 0 1 3 0 1.5 1.5 0 0 1-3 0zm32 58a1.5 1.5 0 0 1 3 0 1.5 1.5 0 0 1-3 0zM34.5 18.4a2 2 0 1 1 2.9-2.7l9.9 10.1a2 2 0 1 1-2.9 2.8zm16 17a2 2 0 0 1 2.9-2.9l33 33.3a2 2 0 1 1-2.9 2.8zm8.3 56L.5 33.5a2 2 0 0 1 2.9-3l58.2 58.2c1.9 1.9-1 4.7-2.8 2.9zm22.4-40.8a2 2 0 0 1 2.8-2.8l3.9 4 1.7 1.7a2 2 0 0 1-2.8 2.8L85 54.5l-3.8-3.9zm14 82.8a32.2 32.2 0 0 1-22.9-9.8l-5.5-5.6L1.5 52.8a2 2 0 0 1 2.9-2.9l65.2 65.3 5.6 5.5c11.2 11.3 27 11.8 38.3 1.2a27.1 27.1 0 0 0 1.6-38.3L98.8 67.3 92.4 61a2 2 0 0 1 2.8-2.9l6.4 6.3A1229 1229 0 0 1 118 81 31.5 31.5 0 0 1 95 133.4zm-55.9-91l31.9 31.3a2 2 0 0 1-2.8 2.9L36.5 45.2a2 2 0 0 1 2.8-2.8zm33.4 60.5a22 22 0 1 0 20-23.9 21.9 21.9 0 0 0-20 23.9zM93 83a18 18 0 1 1-12.2 6.4A18 18 0 0 1 93 83zm-8.6 23.2a6.3 6.3 0 0 0 4.4 1.4 6 6 0 1 0-4.4-1.4zm2.3-5.9a2 2 0 0 1 1.4-.7 2.2 2.2 0 0 1 2.2 1.8 2 2 0 1 1-3.6-1zm14.5 3a2.5 2.5 0 0 1 5-.5c.2 3-4.8 3.7-5 .4zm102.6-43.8l-3.9-1.2 3.9-1.2 1.1-3.8 1.2 3.8 3.8 1.2-3.8 1.2-1.2 3.8zM131 15l-8-3 8-3 3-9 3 9 8 3-8 3-3 8zm84.8 32.5l-5.9-2.7 5.9-2.7 2.7-5.8L221 42l5.8 2.7-5.8 2.7-2.7 5.8zm-205 71.9l5.1 2.4-5 2.3-2.5 5.2-2.3-5.2-5.2-2.3 5.2-2.4 2.4-5.1zm45 81l5.1 2.4-5 2.3-2.5 5.2-2.3-5.2-5.2-2.3 5.2-2.4 2.4-5.1zm38.3-42.3l3.8 1.2-3.8 1.2-1.2 3.8-1.1-3.8-3.9-1.2 3.9-1.2 1.1-3.8z" fill="#cbd1d3"/></svg>
