<svg xmlns="http://www.w3.org/2000/svg" width="240" height="240"><path d="M100.2 170.3A66.4 66.4 0 0 1 56 153.4a71 71 0 0 0 63.2 38.9c39.1 0 71-32 71-71.5a71.6 71.6 0 0 0-42-65.2 67.5 67.5 0 0 1 19.1 47.2c0 37.3-30 67.5-67 67.5z" fill="#eef0f1"/><path d="M200.8 211a2.5 2.5 0 0 1-2.3 2.7h-1.1a2.3 2.3 0 0 1-.3 0 8 8 0 0 1-1.5 0 2.5 2.5 0 1 1 .3-5l1 .1h1.2a2.5 2.5 0 0 1 2.7 2.2zm-4.8-33.2H197a2.5 2.5 0 0 0 2.6-2.5 2.5 2.5 0 0 0-2.5-2.5h-1.2a2.5 2.5 0 0 0 .2 5zm10.6 27.2l-.7.6a2.5 2.5 0 0 0-.4 3.5 2.5 2.5 0 0 0 3.5.4l.9-.8a2.5 2.5 0 1 0-3.3-3.7zm-18.6.9l-.7-.6a2.5 2.5 0 0 0-3.2 3.9l.9.7a2.5 2.5 0 0 0 3.5-.5 2.5 2.5 0 0 0-.5-3.5zm-7-21a2.5 2.5 0 0 0-3.1 1.6l-.4 1a2.5 2.5 0 0 0 1.8 3.1 2.5 2.5 0 0 0 3-1.7l.3-.8a2.5 2.5 0 0 0-1.6-3.2zm32.4 5.3a2.5 2.5 0 0 0 2.4-3.3l-.4-1a2.5 2.5 0 0 0-4.7 1.7l.3.8a2.5 2.5 0 0 0 2.4 1.8zm-28.2-13.7l-1 .7a2.5 2.5 0 0 0-.3 3.6 2.5 2.5 0 0 0 3.6.3l.6-.5a2.5 2.5 0 1 0-3-4zm22 4.8a2.5 2.5 0 0 0 1.5-4.5l-1-.6a2.5 2.5 0 0 0-2.7 4.1l.7.5a2.5 2.5 0 0 0 1.5.5zm7.1 13.8a2.5 2.5 0 0 0-3 1.9l-.2.8a2.5 2.5 0 0 0 1.7 3.1 2.5 2.5 0 0 0 3-1.7l.4-1a2.5 2.5 0 0 0-1.9-3zm-32 2.4a2.5 2.5 0 0 0-4.8 1.3l.3 1a2.5 2.5 0 0 0 3.2 1.6 2.5 2.5 0 0 0 1.5-3.1l-.2-.8zm55.2-6.4c-2.2 3.9-6.3 6.4-12.3 7.6a2 2 0 0 1-2.4-1.5 2 2 0 0 1 1.6-2.4c32.2-6.5-15.6-50.9-24-58.2l-7-6a75.6 75.6 0 0 1-30.2 51.2l8.6 3.1a2 2 0 0 1 1.3 2.5 2 2 0 0 1-2.6 1.3l-11.3-4.2a74.4 74.4 0 0 1-93.9-11.1 76.1 76.1 0 0 1-21.1-55.9 261.6 261.6 0 0 1-21-18.8C12.2 87.4-5.4 66.7 2 54c2.7-4.7 8.4-7.4 16.5-8a16 16 0 0 1 31.4 3.7q9.4 2.4 20.3 6.2l5.8 2.1a2 2 0 0 1 .8.6 74.5 74.5 0 0 1 96.2 9.6 76.1 76.1 0 0 1 21 57.7 307 307 0 0 1 9.2 7.7c28.6 25 41.1 46 34.4 57.5zM21.8 50.3a12 12 0 1 0 12-12 12.1 12.1 0 0 0-12 12zm22.7 62.4A75.6 75.6 0 0 1 73 61.2a303.6 303.6 0 0 0-23.6-7.4A16 16 0 0 1 17.8 50c-6.2.6-10.5 2.6-12.5 6C1 63.6 8.5 78 26.1 95.9c5.4 5.5 11.6 11.1 18.4 16.8zm110.1 70a443.7 443.7 0 0 1-106.5-62 71.8 71.8 0 0 0 4.1 24.2c10 28 37.1 47.4 66.9 47.4a70.2 70.2 0 0 0 35.5-9.6zm35.5-60.6a72 72 0 0 0-67.5-72.7 72 72 0 0 0-74.3 66.3A435 435 0 0 0 158.8 180a72.2 72.2 0 0 0 31.3-57.9zm-33 12.8c5.2 2.3 10.3 4.3 15 6a2 2 0 0 1 1.1 2.6 2 2 0 0 1-2.5 1.2c-4.8-1.7-9.9-3.8-15.2-6.1-5.6 7.7-18.2 2-16-7.4a460.8 460.8 0 0 1-39.1-21.3 2 2 0 0 1 2-3.4l4 2.3a9.5 9.5 0 1 0-11.7 5c1.4.5 3.7 0 4.7 1.3 1 1.5-.2 3-1.7 3.2a10.5 10.5 0 0 1-5-1 13.6 13.6 0 0 1-7.7-17c-5.3-3.7-10-7.3-13.9-10.6a2 2 0 1 1 2.6-3c3.7 3.1 8.1 6.5 13.2 10.1a13.5 13.5 0 0 1 22.9 14l12 6.8a1004.4 1004.4 0 0 0 19.5 10c5.2-6.4 16-2.6 16 5.7a9 9 0 0 1-.2 1.6zm-8.9-6.6c-6.4 0-6.4 10 0 10s6.5-10 0-10zm2.5-60c8.4 0 8.4 13 0 13s-8.3-13 0-13zm0 9c3.3 0 3.3-5 0-5-3.2 0-3.2 5 0 5zm-56.5 99c-6.4 0-6.4-10 0-10s6.5 10 0 10zm0-6a1 1 0 0 0 0 2 1 1 0 0 0 0-2zm-11.5-6a1.5 1.5 0 0 0 0 3 1.5 1.5 0 0 0 0-3zm72.5-74c0 3.9 6 3.8 6 0s-6-4-6 0zm62.5-41l2.7-5.8 5.8-2.7-5.8-2.7-2.6-5.8L215 38l-5.9 2.7 5.9 2.7zm-13.5 10l1.2-3.8 3.8-1.2-3.8-1.2-1.2-3.8-1.1 3.8-3.9 1.2 3.9 1.2zM61 217l-3 9-8 2 8 3 3 9 3-9 8-3-8-2zM91.7 15.3l2.4-5.2 5.1-2.3-5-2.4L91.7.3l-2.4 5.1-5.2 2.4 5.2 2.3zm-69.5 130l-1.1 3.8-3.9 1.2 3.9 1.2 1.1 3.8 1.2-3.8 3.8-1.2-3.8-1.2z" fill="#cbd1d3"/></svg>
