<svg width="260" height="260" viewBox="0 0 260 260" fill="none" xmlns="http://www.w3.org/2000/svg">
  <path d="M58.36 212.2a105.26 105.26 0 0 0 74.67 30.93v7.25a2.61 2.61 0 0 0 2.68 2.62c61.67-1.4 111.41-51.13 112.8-112.81a2.62 2.62 0 0 0-2.62-2.66h-7.24c0-58.32-47.28-105.6-105.6-105.6V24.7a2.64 2.64 0 0 0-2.68-2.62c-28.8.63-56.3 12.02-77.11 31.93a2.62 2.62 0 0 0 0 3.74l5.1 5.12a105.28 105.28 0 0 0-30.92 74.66H20.2a2.63 2.63 0 0 0-2.63 2.66c.63 28.79 12.02 56.3 31.94 77.1a2.6 2.6 0 0 0 3.73 0l5.11-5.08Z" fill="#6EDAFF"/>
  <mask id="a" style="mask-type:alpha" maskUnits="userSpaceOnUse" x="12" y="7" width="237" height="246">
    <path d="M58.36 212.2a105.26 105.26 0 0 0 74.66 30.93v7.25a2.64 2.64 0 0 0 1.66 2.44c.33.13.68.19 1.03.18 61.67-1.4 111.41-51.13 112.8-112.81a2.62 2.62 0 0 0-2.62-2.66h-7.24c0-45.4-28.65-84.1-68.86-99.03-11.44-4.25-9.3-17.43-22.22-17.43L135.35 10.5S122 6.07 112.57 7.18C83.77 7.8 74.07 34.1 53.26 54a2.61 2.61 0 0 0 0 3.74l5.1 5.12a105.28 105.28 0 0 0-22.9 34.24c-5.32 12.81-9.59 22.88-9.57 36.75l-5.68 3.67a2.63 2.63 0 0 0-2.44 1.64c-.13.33-5.78 11-5.77 11.36.63 28.79 17.6 45.96 37.52 66.76a2.6 2.6 0 0 0 3.73 0l5.11-5.08Z" fill="#6ED9FF"/>
  </mask>
  <g mask="url(#a)">
    <path d="M110.33 200.58c.7-1.39 20.36 8.9 20.96 11.42.22.9-.71 1.75-1.43 2.44-1 .99-8.25-4.44-13.62-8.7-3.44-2.75-6.12-4.73-5.9-5.16Z" fill="#fff"/>
    <path d="m114.39 231.32 27.23-19.22 13.77.81 7.34-.8 11.6 4.32 6.53 5.28-2.6 7.75-15.53 1.86h-48.34Z" fill="#000"/>
    <path d="M88.51 66.51c-7.2 1.76-17.57 28.88-18.16 39.78a8.57 8.57 0 0 0 .48 3.44c1.72 4.62 6.88 9.5 9.12 10.28L92.68 85.3l9.46-19.7-13.63.91Z" stroke="#000" stroke-linecap="round" stroke-linejoin="round"/>
    <path d="m104.27 67.65-8.39 1.04c-21.18 21.98-20.06 64.09-5.67 77 2.45 2.19 11.04 10.32 28.65 8.8l11.9-31.32a60.76 60.76 0 0 0 10.56-23.29 61.75 61.75 0 0 0-2.81-34.86l-34.24 2.63Z" fill="#fff"/>
    <path d="M121.29 154.67c1.04-2.73-.35-5.66.69-8.39l-23.9-51.02-5.3 4.56a90.28 90.28 0 0 0-2.69 15.6c-1.05 12.96-4.57 26.16-2.05 34.9 6.75 7.44 21.15 7.63 33.25 4.35Z" fill="#6EDAFF" stroke="#000" stroke-linecap="round" stroke-linejoin="round"/>
    <path d="M138.1 106.43c14.5-12.22 34.44-17.6 42.35-12.12 10.66 7.38 3.64 31.08-5.91 56.64l-18.36-5.72-31.24-18.26 13.15-20.54Z" fill="#fff"/>
    <path d="M139.99 105.12c14.5-12.22 32.55-16.3 40.46-10.81 10.66 7.38 3.64 31.08-5.91 56.65" stroke="#000" stroke-linecap="round" stroke-linejoin="round"/>
    <path d="M156.6 107.9a80.82 80.82 0 0 1-16.98 20.57l17.2-.2a62.21 62.21 0 0 1-.22-20.37Z" fill="#6EDAFF"/>
    <path d="M174.31 174.95c6-4.66 9.51-10.15 7.87-12.26-1.64-2.11-7.83-.04-13.81 4.62-5.99 4.66-9.51 10.15-7.87 12.26 1.65 2.1 7.83.04 13.81-4.62Z" fill="#000" stroke="#000" stroke-linecap="round" stroke-linejoin="round"/>
    <path d="M122.7 121.71c5.8 0 26.95 2.09 34.12 6.57 7.25 4.53 25.6 34.6 26.1 37.54-.56 2.06-1.98 9.94-6.25 13.89-5.72 5.3-11.73 1.3-13.67 1.4-3.27-3.48-14.08-17.69-17.13-20.4-9.64-6.39-20.03-12.82-29.67-19.22l6.5-19.78ZM212.64 199.73l2.69-4.1c11.45 7.3-9.66 17.5-12.15 18.43l-13.97-1.15 23.43-13.18Z" fill="#fff" stroke="#000" stroke-linecap="round" stroke-linejoin="round"/>
    <path d="M216.93 198.53c-.8-4.68-8.56-7.36-18.41-7.86-4.96-8.59-11.06-18.9-16.06-27.55.99 2.35-2.46 7.47-8.1 11.86-5.98 4.66-12.17 6.73-13.81 4.62l28.67 33.31c16.72-2.08 28.6-8.99 27.7-14.38Z" fill="#fff" stroke="#000" stroke-linecap="round" stroke-linejoin="round"/>
    <path d="M192.43 198.81c1.6-.56 7.04-4.74 6.09-8.14M171.38 182.48c4.55-1.47 15.03-10.28 14.02-14.3M157.53 103.34c-2.16 6.58-1.17 21.94-.7 24.94" stroke="#000" stroke-linecap="round" stroke-linejoin="round"/>
    <path d="M180.86 132.78c-.85-9.44-19.08-11.07-24.4-8.35" stroke="#000" stroke-linecap="round" stroke-linejoin="round"/>
    <path d="M179.65 136.56c-1.23-9.25-20.74-9.14-22.83-8.27" stroke="#000" stroke-linecap="round" stroke-linejoin="round"/>
    <path d="M169.5 204.84a78.32 78.32 0 0 1 45.06 4.71l-8.15 6.2-23.49 8.2-13.42-19.1Z" fill="#6EDAFF"/>
    <path d="M169.5 204.84a78.32 78.32 0 0 1 45.06 4.71" stroke="#000" stroke-linecap="round" stroke-linejoin="round"/>
    <path d="M116.2 84.51c6.96 8.76 6.42 51.48 23.42 68.33l-1.74 18.32c-26.72-9.57-44-61.26-45.37-73.12" fill="#fff"/>
    <path d="m97.03 114.92.09-.05a33.5 33.5 0 0 1 10.83-5.07 1.9 1.9 0 0 0 1.4-2.23l-1.29-6.26a1.9 1.9 0 0 0-2.31-1.46 43.17 43.17 0 0 0-11.83 4.94c.76 2.92 1.8 6.36 3.1 10.13Z" fill="#6EDAFF" stroke="#000" stroke-linecap="round" stroke-linejoin="round"/>
    <path d="M153.5 171.36c1.5-.84 2.02-3.13 1.87-4.39-.7-5.63-7.65-8.73-13.75-12.75l-6.65-1.18-2.5 8.1 4.32 9.92a1.43 1.43 0 0 0-1.17.2 1.45 1.45 0 0 0-.62 1.02c-.2 5.33 10.32 5.76 10.86 1.28.3-2.52-.82-4.76-2.65-6.62" fill="#fff"/>
    <path d="M147.8 165.86c3.43 4.05 2.87 7.25 1.17 8.85a3.96 3.96 0 0 1-4.55.52l-.84-.45-3.58-9.93" fill="#fff"/>
    <path d="M150.89 163.69c5.78 6.04 1.88 10.47-1.34 10l1.34-10Z" fill="#fff"/>
    <path d="M141.62 154.22c6.1 4.02 13.05 7.13 13.75 12.75.15 1.27-.37 3.55-1.87 4.39M136.78 171.07a1.47 1.47 0 0 0-1.17.21 1.45 1.45 0 0 0-.62 1.01c-.2 5.34 10.32 5.76 10.86 1.28.3-2.52-.82-4.75-2.65-6.62" stroke="#000" stroke-linecap="round" stroke-linejoin="round"/>
    <path d="M147.8 165.86c5.49 6.48.22 10.57-3.04 9.62" stroke="#000" stroke-linecap="round" stroke-linejoin="round"/>
    <path d="M150.89 163.69c5.78 6.04 1.88 10.47-1.34 10M132.94 143.46c.9 4.06-12.66 12.89-16.12 10.28" stroke="#000" stroke-linecap="round" stroke-linejoin="round"/>
    <path d="M139.99 171.36c-5.85 1.41-17.97-10.73-23.17-17.61-13.17-17.48-21.68-42.3-23.85-52.95-.22-1.07-1.3-8.45 0-12.38M116.2 84.51c6.96 8.76 6.85 55.95 25.42 69.72M95.88 68.69c-17.59 18.26-19.8 50.4-11.8 68.16M188.77 173.72c2.69 0 6.85.95 14.53 1.76 3.75.38 7.54.34 11.28-.15a132.9 132.9 0 0 1 19.94 15.77" stroke="#000" stroke-linecap="round" stroke-linejoin="round"/>
    <path d="M223.28 189.74a65.81 65.81 0 0 0-20.46-14.3" stroke="#000" stroke-linecap="round" stroke-linejoin="round"/>
    <path d="M207.92 75.77a12.39 12.39 0 1 0 0-24.77 12.39 12.39 0 0 0 0 24.77ZM213 93.02a3.76 3.76 0 1 0 0-7.53 3.76 3.76 0 0 0 0 7.53Z" fill="#fff"/>
    <path d="M217.66 90.02c1.46 1.36 2.2 2.59 1.79 3.22-.63 1.04-4.05.1-7.63-2.11-3.57-2.2-5.96-4.83-5.32-5.86.29-.48 1.17-.53 2.38-.24" stroke="#fff" stroke-linecap="round" stroke-linejoin="round"/>
    <path d="M213 128.47a1.75 1.75 0 1 0-.01-3.51 1.75 1.75 0 0 0 0 3.5Z" fill="#fff" stroke="#fff" stroke-linecap="round" stroke-linejoin="round"/>
    <path d="M119.89 157.5c5.12 2.07 14.91-7 15.77-9.6" stroke="#000" stroke-linecap="round" stroke-linejoin="round"/>
    <path d="M151.97 42.3c0 10.36-.19 19.1-7.48 25.34-5.95 5.1-18.1 8.7-26.55 8.7a34.04 34.04 0 1 1 34.03-34.03Z" fill="#fff"/>
    <path d="M117.94 76.35a34.04 34.04 0 1 1 34.03-34.03c0 2.4 0 4.72-.11 6.93" stroke="#000" stroke-linecap="round" stroke-linejoin="round"/>
    <path d="M151.97 42.3A34.03 34.03 0 0 0 118.53 8.3c-16.33 4.63-26.77 20.37-23.62 36.43 3.33 16.98 19.63 27.22 38.53 24.4 4.58-.7 10.9-2.9 14.18-5.3 6.01-6.15 4.35-12.24 4.35-21.51Z" fill="#000"/>
    <path d="M128.03 20.22c.12 1.54 5 3 7.52 5.9 2.08 2.38 4.41 7.09 6.1 6.74 2.07-.45 2.86-6.94-.64-11.18-4-4.85-13.37-6.56-12.98-1.46Z" fill="#fff"/>
    <path d="M105.92 51.03c1.83-.56 5.09 3.4 9.57 5.7 4.3 2.2 9.97 2.03 9.97 4.81 0 3.95-6.7 4.17-12.8 1.16-6.65-3.3-8.77-11.06-6.74-11.67Z" fill="#6EDAFF"/>
    <path d="M95.86 68.65c4.06-1.77 4.81-9.04 1.68-16.24-3.13-7.2-8.96-11.62-13.02-9.85-4.06 1.76-4.8 9.03-1.68 16.24 3.13 7.2 8.96 11.61 13.02 9.85Z" fill="#6EDAFF" stroke="#000" stroke-linecap="round" stroke-linejoin="round"/>
    <path d="M92.77 67.48c3.54-1.54 4.28-7.68 1.66-13.72-2.63-6.04-7.63-9.69-11.17-8.15-3.54 1.54-4.29 7.69-1.66 13.73 2.62 6.03 7.62 9.68 11.17 8.14Z" fill="#fff" stroke="#000" stroke-linecap="round" stroke-linejoin="round"/>
    <path d="M148.43 54.96c2.81 6.88-2.61 11.47-5.73 8.26-3.96-4.08.17-11.53 2.35-13.44a14.18 14.18 0 0 1 13.23-3.2c9.68 2.45 22.64 31.41 19.5 43.22-2.37 9.02-25.8 10.02-35.68 5.46l-6.44-7.87 4.12-16.62 7.9-6.6" fill="#fff"/>
    <path d="M165.22 97.28c-6.55-.07-10.58-5.25-15.01-22.95 0 0-1.99 9.15-5.6 9.8-.68.14-1.38.1-2.04-.12.11 2.1.11 4.2 0 6.3a71.9 71.9 0 0 1-.45 4.95c5.48 2.54 15.18 3.35 23.1 2.02Z" fill="#6EDAFF"/>
    <path d="M155.37 89.57c-1.76-3.91-9.7-27.26-8.52-34.72" stroke="#000" stroke-linecap="round" stroke-linejoin="round"/>
    <path d="M149.8 72.76c0-7.47 19.52-13.63 22.44-9.38" stroke="#000" stroke-linecap="round" stroke-linejoin="round"/>
    <path d="M151.32 77.96c0-7.47 20.09-13.99 23-9.73" stroke="#000" stroke-linecap="round" stroke-linejoin="round"/>
    <path d="M147.5 63.18c-1.4 1.34-3.35 1.53-4.8.04-3.96-4.08.17-11.53 2.35-13.44a14.18 14.18 0 0 1 13.23-3.2c9.68 2.45 22.64 31.41 19.5 43.22-2.37 9.02-25.8 10.02-35.68 5.46" stroke="#000" stroke-linecap="round" stroke-linejoin="round"/>
    <path d="M142.14 78.7c.9 7.45 1.32 20.82-5.39 34.7a49.97 49.97 0 0 1-5.45 9.05" stroke="#000" stroke-linecap="round" stroke-linejoin="round"/>
    <path d="M204.23 60.17c.51-.51.18-1.67-.74-2.59-.92-.92-2.08-1.25-2.59-.74-.5.5-.17 1.66.75 2.58.92.92 2.08 1.25 2.58.75ZM208.66 70.7c.4-.4.13-1.33-.6-2.07-.74-.74-1.66-1-2.07-.6-.4.41-.14 1.34.6 2.07.73.74 1.66 1 2.06.6ZM198.58 70.54c.74-.43.86-1.63.25-2.68-.6-1.04-1.7-1.54-2.44-1.11-.74.42-.86 1.62-.25 2.67.6 1.05 1.7 1.55 2.44 1.12Z" fill="#6EDAFF"/>
    <path d="M158.45 216.21a9.58 9.58 0 0 1 1.88 2.13c6.1 9.53-6.38 28.44-27.89 42.23-21.51 13.78-43.9 17.24-50 7.7-.52-.8-.9-1.67-1.16-2.6l-3.31-7.48 4.55-2.92c3.78-9.27 13.9-20.3 27.8-29.21 13.9-8.9 28.16-13.5 38.16-13.07l4.54-2.91 5.43 6.13Z" fill="#000"/>
    <path d="M127.48 250.48c20.68-13.3 32.67-31.5 26.78-40.66-5.88-9.16-27.42-5.8-48.1 7.49-20.68 13.3-32.67 31.5-26.78 40.66 5.89 9.16 27.42 5.8 48.1-7.49Z" fill="#000" stroke="#000" stroke-linecap="round" stroke-linejoin="round"/>
    <path d="M77.97 258.19c5.89 9.18 27.46 5.85 48.18-7.43 20.72-13.29 32.76-31.5 26.87-40.67" stroke="#6EDAFF" stroke-linecap="round" stroke-linejoin="round"/>
    <path d="m153.02 210.08 5.43 6.13a9.58 9.58 0 0 1 1.88 2.13c6.1 9.53-6.38 28.44-27.89 42.23-21.51 13.78-43.9 17.24-50 7.7-.52-.8-.9-1.67-1.16-2.6l-3.31-7.48" stroke="#000" stroke-linecap="round" stroke-linejoin="round"/>
    <path d="M94.96 117.17a9.62 9.62 0 0 0-1.16-2.6c-6.1-9.53-28.5-6.08-50 7.71-21.51 13.79-34 32.7-27.89 42.22.52.8 1.15 1.52 1.88 2.13l5.43 6.14 4.54-2.92c10 .45 24.27-4.16 38.16-13.06 13.89-8.91 24.01-19.94 27.8-29.21l4.55-2.92-3.31-7.5Z" fill="#000"/>
    <path d="M78.15 109.3c-4.71.32-10.12 1.57-15.84 3.68l8.02 11.4 13.75-2.65" fill="#6EDAFF"/>
    <path d="M71.4 165.34c20.72-13.29 32.75-31.5 26.87-40.68-5.89-9.18-27.46-5.86-48.19 7.43-20.72 13.28-32.75 31.5-26.87 40.68 5.89 9.18 27.46 5.85 48.18-7.44Z" fill="#000" stroke="#000" stroke-linecap="round" stroke-linejoin="round"/>
    <path d="M23.22 172.75c-5.89-9.17 6.14-27.39 26.87-40.66 20.72-13.28 42.3-16.62 48.18-7.44" stroke="#6EDAFF" stroke-linecap="round" stroke-linejoin="round"/>
    <path d="M96.23 186.36c-5.2-8.1-1.3-38.76-9.66-51.8-3.33-5.2-17.11-2.32-30.78 6.44-13.66 8.75-22.03 20.07-18.69 25.28 8.36 13.03 37.84 22.3 43.03 30.39 5.2 8.1 1.3 38.76 9.65 51.79 3.34 5.2 17.12 2.33 30.78-6.43 13.66-8.75 22.03-20.08 18.7-25.28-8.36-13.04-37.84-22.3-43.03-30.4Z" fill="#6EDAFF"/>
    <path d="M98.27 124.66c5.89 9.18-6.15 27.4-26.87 40.67-20.72 13.27-42.3 16.6-48.18 7.42" stroke="#fff" stroke-linecap="round" stroke-linejoin="round"/>
    <path d="M86.75 134.83c3.42 5.37-4.87 16.8-18.53 25.55-13.66 8.76-27.51 11.52-30.95 6.17" stroke="#fff" stroke-linecap="round" stroke-linejoin="round"/>
    <path d="m98.27 124.66-3.31-7.5a9.62 9.62 0 0 0-1.16-2.6c-6.1-9.52-28.5-6.07-50 7.72-21.51 13.79-34 32.7-27.89 42.22.52.8 1.15 1.52 1.88 2.13l5.43 6.14" stroke="#000" stroke-linecap="round" stroke-linejoin="round"/>
    <path d="M82.96 208.3c.71-2.48 13.75-.9 29.13 3.49 15.38 4.39 27.26 9.98 26.56 12.46" stroke="#fff" stroke-linecap="round" stroke-linejoin="round"/>
    <path d="M109.53 220.75c-15.38-4.41-27.27-9.98-26.57-12.46l-.1.06c1.24 12.65.98 30.84 6.92 40.11 3.34 5.21 17.12 2.33 30.78-6.42 8.66-5.56 15.2-12.13 17.95-17.54-1.58 2.1-14.2.48-28.98-3.75ZM138.65 224.24v0Z" fill="#000" stroke="#000" stroke-linecap="round" stroke-linejoin="round"/>
    <path d="M79.02 136.84c1.83-.62 5.53 5.55 6.38 6.79 5.26 7.75 4.78 25.7 2.5 25.7-1.83 0-1.75-8-4.63-16.5-3.16-9.39-8.32-11.65-7.6-13.73.44-1.16 2.41-1.93 3.35-2.25Z" fill="#fff"/>
    <path d="m53.36 197.17-19.86-31c-.41-.64-2.07-.31-3.7.73-1.62 1.04-2.6 2.41-2.19 3.05l52.68 82.18 2.17 3.39c.41.64 2.07.32 3.7-.72 1.62-1.04 2.6-2.4 2.19-3.06l-35-54.57Z" fill="#000" stroke="#6EDAFF" stroke-linecap="round" stroke-linejoin="round"/>
    <path d="M96.23 186.36c-5.2-8.1-1.3-38.76-9.66-51.8-3.33-5.2-17.11-2.32-30.78 6.44-13.66 8.75-22.03 20.07-18.69 25.28 8.36 13.03 37.84 22.3 43.03 30.39 5.2 8.1 1.3 38.76 9.65 51.79 3.34 5.2 17.12 2.33 30.78-6.43 13.66-8.75 22.03-20.08 18.7-25.28-8.36-13.04-37.84-22.3-43.03-30.4v0Z" stroke="#000" stroke-linecap="round" stroke-linejoin="round"/>
    <path d="m113.74 158.45-19.86-30.98c-.42-.65-2.07-.33-3.7.71-1.62 1.04-2.6 2.41-2.2 3.06l52.97 82.63 2.18 3.4c.41.64 2.06.31 3.69-.73 1.62-1.05 2.6-2.4 2.2-3.05l-35.28-55.04Z" fill="#000"/>
    <path d="m113.74 158.45-6.26-9.75-13.6-21.23c-.43-.65-2.08-.33-3.7.71s-2.61 2.41-2.2 3.06l12.99 20.25 39.98 62.38 2.18 3.4c.41.64 2.06.31 3.69-.73 1.62-1.05 2.6-2.4 2.2-3.05l-18.63-29.05-3.09-4.82-13.56-21.17h0Z" stroke="#6EDAFF" stroke-linecap="round" stroke-linejoin="round"/>
    <path d="M155.8 210.63c-.14.74-.05 1.51.25 2.2 0 0 21.6 5.51 21.01 9.8-.7 5.17-17.26-4.46-27.5-4.02-8.65.39-14.55 8.75-29.31 9.76-14.37.97-30.42-3.54-36.82 3.66L63.19 259.2l27.04 15.78 63.46-10.9 32.13-22.74 4.64-17.61-14.71-10.03-18.9-8.86-1.05 5.79Z" fill="#6EDAFF"/>
    <path d="M155.4 212.91c13.85 2.8 22.08 8.62 21.66 9.73-1.83 4.88-17.26-4.47-27.5-4.03-8.65.39-14.55 8.75-29.31 9.76-14.37.97-30.42-3.54-36.82 3.66" stroke="#000" stroke-linecap="round" stroke-linejoin="round"/>
    <path d="M146.13 36.5c.24-1.07-.3-2.1-1.23-2.32-.92-.2-1.86.5-2.1 1.58-.25 1.07.3 2.11 1.22 2.32.92.2 1.87-.5 2.1-1.57Z" fill="#fff"/>
    <path d="M81.18 74.43a19.15 19.15 0 0 0 6.89 4.93M79.22 78.06a20.6 20.6 0 0 0 2.7 2.5c1.31 1 2.74 1.83 4.26 2.47M144.82 59.49a12.04 12.04 0 0 0 2.03-4.64" stroke="#000" stroke-linecap="round" stroke-linejoin="round"/>
    <path d="M129.54 172.37c4 0 6.39.36 8.15 1.04 3.93 1.52 6.04 3.65 7.47 3.94 1.98.41 4.76-.05 6.53-.7v4.1l-14.72 2.9" fill="#6EDAFF"/>
    <path d="M129.54 172.37c4 0 6.39.36 8.15 1.04 3.93 1.52 6.04 3.65 7.47 3.94 1.98.41 4.76-.05 6.53-.7" stroke="#000" stroke-linecap="round" stroke-linejoin="round"/>
    <path d="M49.54 90.36a1.46 1.46 0 1 0 0-2.93 1.46 1.46 0 0 0 0 2.93ZM173.28 51.7a1.04 1.04 0 1 0 0-2.08 1.04 1.04 0 0 0 0 2.08ZM217.66 109.28a.69.69 0 1 0 0-1.38.69.69 0 0 0 0 1.38Z" fill="#fff"/>
  </g>
  <path d="M91.8 153.33c6.72 3.96 16.95 4.11 26.36 2.1M147.69 64.15c-4.16 5.74-12.64 12.2-29.39 12.2" stroke="#000" stroke-linecap="round" stroke-linejoin="round"/>
  <path d="M49.84 217.06a2.62 2.62 0 0 0 3.71.03l5.11-5.1a104.9 104.9 0 0 0 74.42 30.84v7.22a2.61 2.61 0 0 0 2.65 2.61c61.46-1.38 111.05-50.94 112.44-112.44a2.6 2.6 0 0 0-2.61-2.65h-7.23c0-47.03-30.84-86.85-73.4-100.35" stroke="#6EDAFF" stroke-miterlimit="10"/>
</svg>
