<svg xmlns="http://www.w3.org/2000/svg" width="240" height="240"><path d="M198.6 87.2l-.6.7c-13 13-33.7 13.1-46.4.4a32 32 0 0 1-4.4-5.5 38.2 38.2 0 0 0 44.3-2.7zM99.2 166a15 15 0 0 0 19.9-1.1l9.6-9.7 9.2 9.2 8.4-8.5-9.1-9.2 11-10.9a15 15 0 0 0 1-19.9zm92.1-111a5.5 5.5 0 1 0-7.8 0 5.5 5.5 0 0 0 7.8 0zm-116 46.9l9.3 9.2 8.4-8.5-9.2-9.2z" fill="#eef0f1"/><path d="M196.2 42.4a2 2 0 0 1 0-2.9L202 34a2 2 0 0 1 2.8 2.8l-5.6 5.7a2 2 0 0 1-2.9 0zM201 51a2 2 0 0 0 2 2h7c2.5 0 2.6-4 0-4h-7a2 2 0 0 0-2 2zm-4 8.9a2 2 0 0 0 0 2.8l5.6 5.7a2 2 0 1 0 2.8-2.9l-5.6-5.6a2 2 0 0 0-2.9 0zM187 37a2 2 0 0 0 2-2v-7c0-2.5-4-2.6-4 0v7a2 2 0 0 0 2 2zm-11.4 5.4a2 2 0 1 0 2.8-2.9l-5.6-5.6a2 2 0 1 0-2.9 2.8zM157 82.5a2 2 0 0 0 1.4-3.4 20 20 0 0 1-5.8-14.8 2 2 0 0 0-4 0 24.8 24.8 0 0 0 2 10.4c.9 2 3.7 7.8 6.4 7.8zM151.6 57a2 2 0 0 0 2.6-1.1 20.6 20.6 0 0 1 1.3-2.6c1.3-2.2-2.1-4.3-3.4-2a24.5 24.5 0 0 0-1.6 3 2 2 0 0 0 1.1 2.7zm64.8 130a17.1 17.1 0 0 1 0 24.2l-23.9 24a17.3 17.3 0 0 1-24.1-.1L118.2 185a2 2 0 0 1 0-2.9l17.4-17.3-6.9-6.9-8.2 8.3a17.1 17.1 0 0 1-19.1 3.3l-3 3.1a9.5 9.5 0 0 1-6.8 2.8 9.4 9.4 0 0 1-6.6-2.8l-2.1-2.1a10 10 0 0 1-6.4 2 10.9 10.9 0 0 1-10.4-10.4 9.7 9.7 0 0 1 2-6.3l-1.6-1.6a9.4 9.4 0 0 1 0-13.4l3.4-3.4a17 17 0 0 1 4-17.9l8.1-8.2-6.8-6.9-17.3 17.4a2 2 0 0 1-2.8 0L4.9 71.6a17.1 17.1 0 0 1 0-24.1l24-24a17.1 17.1 0 0 1 24.1 0l50.1 50.2a2 2 0 0 1 0 2.8L86.5 93.1l6.9 6.9 9.5-9.6a16.9 16.9 0 0 1 17.8-3.8l3.5-3.5a9.5 9.5 0 0 1 13.3 0l1.3 1.3 5-5a35.3 35.3 0 0 1 7.4-40.4l.1-.2a2 2 0 0 1 2.8 0L175.2 60l5.5-5.6c-3.7-7.4 6.2-14.5 12-8.6a7.5 7.5 0 0 1-9.3 11.6l-5.4 5.4 22.8 22.7a2 2 0 0 1 0 2.8l-.2.2-.5.5a35 35 0 0 1-40 6.8l-5 5 .9.8a9.5 9.5 0 0 1 0 13.3l-3 3.1a17 17 0 0 1-3.5 19.1l-9.5 9.5 6.9 6.9 16.6-16.6a2 2 0 0 1 2.8 0zM184 51a3.6 3.6 0 0 0 6 2.5 3.5 3.5 0 1 0-6-2.4zM7.8 68.9l7.7 7.8L58 34.2l-7.8-7.8a13.2 13.2 0 0 0-18.5 0l-24 24a13.1 13.1 0 0 0 0 18.4zm91 6.3L81.9 58 57 82.7a2 2 0 0 1-2.9-2.8L79 55.2 60.8 37 18.4 79.4l18.1 18.2L49.2 85a2 2 0 1 1 2.8 2.8l-12.6 12.6 17 17.1zm-20.6 26.7l6.4 6.3 5.6-5.6L84 96zm1 66.2l-8.6-8.6a6 6 0 0 0-.5 2.6 6.9 6.9 0 0 0 6.5 6.6 5.8 5.8 0 0 0 2.6-.6zm65.1-103.7a30.8 30.8 0 0 0 9.1 22 31.1 31.1 0 0 0 6.7 5 1.6 1.6 0 0 1 1 .6 31 31 0 0 0 35.4-5l-43.8-43.8a30.9 30.9 0 0 0-8.4 21.2zm-2.7 23l10.7 10.6 4.1-4.1A34.9 34.9 0 0 1 145.8 83zm-17 1.2a17.1 17.1 0 0 1 2.3 2l22.6 22.6a17.3 17.3 0 0 1 1.3 1.4l2.4-2.4a5.5 5.5 0 0 0 0-7.7L138 89.2a2 2 0 0 1-1.2-1.2l-2.1-2a5.4 5.4 0 0 0-7.7 0l-2.5 2.5zm-26.7 78.9a17 17 0 0 1-1.4-1.3l-22.6-22.6a17 17 0 0 1-2-2.3l-2.6 2.4a5.4 5.4 0 0 0 0 7.7l18.5 18.5a5.4 5.4 0 0 0 7.7 0zm48.8-33.1a13 13 0 0 0 1.7-16.3L122 91.6a13 13 0 0 0-16.3 1.7l-29 29a13 13 0 0 0-1.7 16.3l26.4 26.4a13 13 0 0 0 16.2-1.7zm-14.5 21.5l5.7 5.6 5.6-5.6-5.6-5.7zm-9.7 27.7l16 16 30.3-30.2a2 2 0 1 1 2.9 2.8l-30.3 30.3 18.1 18.2 42.5-42.4-18.2-18.2-7.3 7.3a2 2 0 0 1-2.9-2.8l7.4-7.3-16-16zm91.1 6.3l-8.8-8.8-42.4 42.4 8.8 8.8a13.1 13.1 0 0 0 18.5 0l24-23.9a13.1 13.1 0 0 0 0-18.5zm-100.5-93l-9.9 10a2 2 0 0 0 2.9 2.8l9.9-9.9a2 2 0 0 0-2.9-2.8zm-15 15l-2.9 2.9c-1.8 1.8 1 4.7 2.9 2.8l2.8-2.8c1.8-1.8-1-4.7-2.8-2.8zm117.4 13.7l1.1 3.8 1.2-3.8 3.9-1.2-3.9-1.2-1.1-3.8-1.2 3.8-3.8 1.2zm15.3 8.6l-2.6-8.8-2.7 8.8-8.8 2.7 8.8 2.7 2.7 8.8 2.7-8.8 8.8-2.7zM32.6 149.3l1.2-3.8 3.9-1.2-3.9-1.2-1.1-3.8-1.2 3.8-3.8 1.2 3.8 1.2zm11 56l-1.1 3.8-3.8 1.2 3.8 1.2 1.1 3.8 1.2-3.8 3.9-1.2-3.9-1.2zm56.5-191l2.4-5.2 5.2-2.3-5.2-2.4-2.3-5.1-2.4 5.1-5.1 2.4 5 2.3zM33.8 197l-2.6-5.8-2.7 5.8-5.8 2.7 5.8 2.7 2.6 5.8 2.7-5.8 5.9-2.7z" fill="#cbd1d3"/></svg>
