<svg xmlns="http://www.w3.org/2000/svg" xlink="http://www.w3.org/1999/xlink" width="22" height="22" viewBox="0 0 22 22"><path d="M2,20.9999 L2,18.9999 L19,18.9999 L19,20.9999 L2,20.9999 Z M19.5425,2.7845 C20.1525,3.3935 20.1525,4.3825 19.5425,4.9925 L7.3575,17.1785 L3.7365,17.9855 C3.6915,17.9945 3.6465,17.9995 3.6025,17.9995 C3.2285,17.9995 2.9285,17.6505 3.0145,17.2635 L3.8225,13.6425 L16.0075,1.4565 C16.3125,1.1525 16.7125,0.9995 17.1115,0.9995 C17.5115,0.9995 17.9105,1.1525 18.2155,1.4575 L19.5425,2.7845 Z M6.8555,16.2655 L6.9105,16.2105 L4.7895,14.0895 L4.7345,14.1445 L4.1265,16.8735 L6.8555,16.2655 Z"/></svg>
