<svg xmlns="http://www.w3.org/2000/svg" width="22" height="22" viewBox="0 0 22 22"><g fill="none"><path fill="#F1F1F1" d="M2 18h18v-15h-18z"/><path fill="#AB3C31" d="M18 5v13h1.496c.83 0 1.504-.673 1.504-1.504v-11.992c0-.178-.036-.346-.093-.504l-2.907 1z"/><path fill="#D54B3D" d="M1.093 4c-.057.158-.093.326-.093.504v11.992c0 .831.674 1.504 1.504 1.504h1.496v-13l-2.907-1z"/><path fill="#000" fill-opacity=".1" d="M4 18l7-5.421-7-7.579zM13.5 18h4.5v-11.593l-7 4.593-9.68-5.918z"/><path fill="#D54B3D" d="M11 12.579l-9.514-7.34c-.547-.421-.647-1.206-.225-1.753.422-.547 1.207-.647 1.753-.225l7.986 6.16 7.986-6.16c.548-.422 1.332-.322 1.753.225.422.547.322 1.332-.225 1.753l-9.514 7.34z"/></g></svg>