<svg width="16" height="16" xmlns="http://www.w3.org/2000/svg">
  <path d="M12.36 14h2.55A1.09 1.09 0 0 0 16 12.9V5.1l-3.64 2.73V14Z" fill="#34A853"/>
  <path d="M12.36 3.09v4.73L16 5.09V3.64a1.64 1.64 0 0 0-2.62-1.31l-1.02.76Z" fill="#FBBC04"/>
  <path d="M3.64 7.82V3.09L8 6.36l4.36-3.27v4.73L8 11.09 3.64 7.82Z" fill="#EA4335"/>
  <path d="M0 3.64v1.45l3.64 2.73V3.09l-1.02-.76A1.64 1.64 0 0 0 0 3.63Z" fill="#C5221F"/>
  <path d="M1.09 14h2.55V7.82L0 5.09v7.82C0 13.5.49 14 1.09 14Z" fill="#4285F4"/>
</svg>
