<svg xmlns="http://www.w3.org/2000/svg" width="16" height="16" viewBox="0 0 16 16"><g fill="none"><path fill="#F1F1F1" d="M1 2l1 12h12.001l.999-12z"/><path fill="#AB3C31" d="M14 3v11h.501c.827 0 1.499-.671 1.499-1.499v-9.501h-2z"/><path fill="#D54B3D" d="M0 3v9.501c0 .828.672 1.499 1.499 1.499h.501v-11h-2z"/><path fill="#000" fill-opacity=".1" d="M10 14h4v-9.058l-6 3.058-7.32-4zM2 14l6-4.771-6-5.229z"/><path fill="#D54B3D" d="M8 9.229l-7.581-5.415c-.449-.32-.554-.945-.232-1.395.322-.449.947-.553 1.394-.232l6.419 4.585 6.419-4.585c.448-.321 1.073-.217 1.394.232.322.45.217 1.075-.232 1.395l-7.581 5.415z"/></g></svg>