<svg xmlns="http://www.w3.org/2000/svg" width="12" height="12" viewBox="0 0 12 12"><g fill="none"><path fill="#F1F1F1" d="M.75 1.001l1.25 9h8l1.25-9z"/><path fill="#D54B3D" d="M.001 1.744l-.001 7.254c0 .554.449 1.003 1.003 1.003h.997v-8l-1.999-.257z"/><path d="M7.5 10.001h2.5v-6.793l-4 2.293-5.824-3.27z"/><path fill="#000" fill-opacity=".1" d="M7.5 10.001h2.5v-6.793l-4 2.293-5.824-3.27zM2 10.001l4-3.578-4-4.192z"/><path fill="#AB3C31" d="M10 2.086v7.914h.997c.554 0 1.003-.449 1.003-1.003v-7.254l-2 .343z"/><path fill="#D54B3D" d="M6 6.422l-5.686-4.062c-.337-.241-.415-.709-.174-1.045.241-.337.709-.417 1.046-.175l4.814 3.438 4.814-3.438c.338-.242.806-.162 1.046.175.241.336.163.804-.174 1.045l-5.686 4.062z"/></g></svg>