<svg width="24" height="24" viewBox="0 0 24 24" xmlns="http://www.w3.org/2000/svg"><path d="M2 4a1 1 0 0 0 0 2h11a1 1 0 1 0 0-2H2ZM2 8a1 1 0 0 0 0 2h6a1 1 0 0 0 0-2H2Z"/><path fill-rule="evenodd" clip-rule="evenodd" d="M17 13a1 1 0 0 0-1 1v5a1 1 0 0 0 1 1h5a1 1 0 0 0 1-1v-5a1 1 0 0 0-1-1h-5Zm1 2v3h3v-3h-3Z"/><path d="M2 13a1 1 0 1 0 0 2h11a1 1 0 1 0 0-2H2ZM1 18a1 1 0 0 1 1-1h6a1 1 0 1 1 0 2H2a1 1 0 0 1-1-1Z"/><path fill-rule="evenodd" clip-rule="evenodd" d="M16 5a1 1 0 0 1 1-1h5a1 1 0 0 1 1 1v5a1 1 0 0 1-1 1h-5a1 1 0 0 1-1-1V5Zm2 4V6h3v3h-3Z"/></svg>