<svg xmlns="http://www.w3.org/2000/svg" xlink="http://www.w3.org/1999/xlink" width="22" height="22" viewBox="0 0 22 22"><path d="M7,17 C8.104,17 9,17.896 9,19 C9,20.104 8.104,21 7,21 C5.896,21 5,20.104 5,19 C5,17.896 5.896,17 7,17 Z M17,17 C18.104,17 19,17.896 19,19 C19,20.104 18.104,21 17,21 C15.896,21 15,20.104 15,19 C15,17.896 15.896,17 17,17 Z M17.0869,12 L6.9999,12 L6.9999,14 L17.9999,14 C18.5529,14 18.9999,14.447 18.9999,15 C18.9999,15.553 18.5529,16 17.9999,16 L6.4999,16 C5.6719,16 4.9999,15.328 4.9999,14.5 L4.9999,3.5 C4.9999,3.224 4.7759,3 4.4999,3 L0.9999,3 L0.9999,1 L4.9999,1 C6.1049,1 6.9999,1.896 6.9999,3 L6.9999,4 L20.0069,4 C20.7329,4 21.2129,4.764 20.9049,5.429 L18.3689,11.165 C18.1449,11.673 17.6429,12 17.0869,12 Z"/></svg>
