<svg xmlns="http://www.w3.org/2000/svg" xlink="http://www.w3.org/1999/xlink" width="16" height="16" viewBox="0 0 16 16"><path d="M13,8 L5,8 L5,10 L14,10 C14.553,10 15,10.447 15,11 C15,11.553 14.553,12 14,12 L4,12 C3.447,12 3,11.553 3,11 L3,2 L0,2 L0,0 L3,0 C4.104,0 5,0.896 5,2 L15,2 C15.347,2 15.668,2.18 15.851,2.475 C15.95,2.635 16,2.817 16,3 C16,3.153 15.965,3.306 15.895,3.447 L13.895,7.447 C13.725,7.786 13.379,8 13,8 Z M4.5,13 C5.328,13 6,13.671 6,14.5 C6,15.328 5.328,16 4.5,16 C3.672,16 3,15.328 3,14.5 C3,13.671 3.672,13 4.5,13 Z M13.5,13 C14.328,13 15,13.671 15,14.5 C15,15.328 14.328,16 13.5,16 C12.672,16 12,15.328 12,14.5 C12,13.671 12.672,13 13.5,13 Z"/></svg>
