<svg xmlns="http://www.w3.org/2000/svg" xlink="http://www.w3.org/1999/xlink" width="12" height="12" viewBox="0 0 12 12"><path d="M10,6 L11.916,2.14 C12.177,1.616 11.797,1 11.212,1 L4,1 C4,0.447 3.553,0 3,0 L0,0 L0,2 L2,2 L2,8 C2,8.553 2.447,9 3,9 L10,9 C10.553,9 11,8.553 11,8 C11,7.447 10.553,7 10,7 L4,7 L4,6 L10,6 Z M10,10 C9.448,10 9,10.448 9,11 C9,11.552 9.448,12 10,12 C10.552,12 11,11.552 11,11 C11,10.448 10.552,10 10,10 L10,10 Z M3,10 C2.448,10 2,10.448 2,11 C2,11.552 2.448,12 3,12 C3.552,12 4,11.552 4,11 C4,10.448 3.552,10 3,10 L3,10 Z"/></svg>
