<svg xmlns="http://www.w3.org/2000/svg" width="24" height="24" viewBox="0 0 24 24">
  <path fill-rule="evenodd" d="M22 12.048c0-2.718-2.284-4.979-5.002-4.952C17.077 4.345 14.803 2 12.048 2c-2.756 0-5.03 2.346-4.95 5.098C4.346 7.018 2 9.292 2 12.048c0 2.755 2.345 5.029 5.096 4.95C7.07 19.716 9.33 22 12.048 22s4.978-2.283 4.952-5c2.717.026 5-2.234 5-4.952ZM5.318 12A8.713 8.713 0 0 0 12 5.318 8.713 8.713 0 0 0 18.682 12 8.713 8.713 0 0 0 12 18.682 8.713 8.713 0 0 0 5.318 12Z" clip-rule="evenodd"/>
</svg>
