<svg width="24" height="24" viewBox="0 0 24 24" xmlns="http://www.w3.org/2000/svg"><path d="M15 7a1 1 0 0 1 1-1h3a1 1 0 1 1 0 2h-3a1 1 0 0 1-1-1Zm0 4a1 1 0 0 1 1-1h3a1 1 0 1 1 0 2h-3a1 1 0 0 1-1-1ZM5 6a1 1 0 0 0 0 2h3a1 1 0 0 0 0-2H5Zm0 4a1 1 0 1 0 0 2h3a1 1 0 1 0 0-2H5Zm0 4a1 1 0 1 0 0 2h3a1 1 0 1 0 0-2H5Z"/><path fill-rule="evenodd" clip-rule="evenodd" d="M10 20a1 1 0 0 1 1 1 1 1 0 1 0 2 0 1 1 0 0 1 1-1h9a1 1 0 0 0 1-1V3a1 1 0 0 0-1-1h-8a3.99 3.99 0 0 0-3 1.354A3.99 3.99 0 0 0 9 2H1a1 1 0 0 0-1 1v16a1 1 0 0 0 1 1h9Zm3-14v12.17c.313-.11.65-.17 1-.17h8V4h-7a2 2 0 0 0-2 2Zm-2 0v12.17c-.313-.11-.65-.17-1-.17H2V4h7a2 2 0 0 1 2 2Z"/></svg>