<svg width="16" height="16" viewBox="0 0 16 16" xmlns="http://www.w3.org/2000/svg"><path d="M4 4a1 1 0 0 0 0 2h1a1 1 0 0 0 0-2H4ZM3 8a1 1 0 0 1 1-1h1a1 1 0 0 1 0 2H4a1 1 0 0 1-1-1Zm7-3a1 1 0 0 1 1-1h1a1 1 0 1 1 0 2h-1a1 1 0 0 1-1-1Z"/><path fill-rule="evenodd" clip-rule="evenodd" d="M6 0c.768 0 1.47.289 2 .764A2.989 2.989 0 0 1 10 0h5a1 1 0 0 1 1 1v12a1 1 0 0 1-1 1h-5a1 1 0 0 0-1 1 1 1 0 1 1-2 0 1 1 0 0 0-1-1H1a1 1 0 0 1-1-1V1a1 1 0 0 1 1-1h5Zm1 3v9.17c-.313-.11-.65-.17-1-.17H2V2h4a1 1 0 0 1 1 1Zm2 9.17c.313-.11.65-.17 1-.17h4V2h-4a1 1 0 0 0-1 1v9.17Z"/></svg>