<svg xmlns="http://www.w3.org/2000/svg" width="22" height="22" viewBox="0 0 22 22"><path d="M19.521 9.767L22 12.246 13.247 21 8 15.753l2.478-2.48 2.769 2.768 6.274-6.274zM12 3v2.25c0 .965.785 1.75 1.75 1.75h.5C15.215 7 16 6.215 16 5.25V3a3 3 0 013 3v3H3v8c0 .6.4 1 1 1h3.984l2 2H4a3 3 0 01-3-3V6a3 3 0 013-3v2.25C4 6.215 4.785 7 5.75 7h.5C7.215 7 8 6.215 8 5.25V3h4zM8 14l-2 2v-2h2zm6-3v2h-2v-2h2zm-3 0l-2 2v-2h2zm-3 0v2H6v-2h2zM6.25 1a.75.75 0 01.75.75v3.5a.75.75 0 01-.75.75h-.5A.75.75 0 015 5.25v-3.5A.75.75 0 015.75 1zm8 0a.75.75 0 01.75.75v3.5a.75.75 0 01-.75.75h-.5a.75.75 0 01-.75-.75v-3.5a.75.75 0 01.75-.75z"/></svg>