<svg xmlns="http://www.w3.org/2000/svg" width="16" height="16" viewBox="0 0 16 16"><path d="M14.232 7.554L16 9.323 9.322 16l-3.59-3.59L7.5 10.644l1.822 1.822 4.91-4.911zM8 2v1.5a.5.5 0 00.5.5h3a.5.5 0 00.5-.5V2c1.1 0 2 .9 2 2v2H2v7h2l2 2H2c-1.1 0-2-.9-2-2V4c0-1.1.9-2 2-2v1.5a.5.5 0 00.5.5h3a.5.5 0 00.5-.5V2h2zm-3 8v2H3v-2h2zm0-3v2H3V7h2zm3 0v2H6V7h2zm3 0v2H9V7h2zM4.5 0c.3 0 .5.2.5.5v2c0 .3-.2.5-.5.5h-1c-.3 0-.5-.2-.5-.5v-2c0-.3.2-.5.5-.5h1zm6 0c.3 0 .5.2.5.5v2c0 .3-.2.5-.5.5h-1c-.3 0-.5-.2-.5-.5v-2c0-.3.2-.5.5-.5h1z"/></svg>