<svg xmlns="http://www.w3.org/2000/svg" xlink="http://www.w3.org/1999/xlink" width="22" height="22" viewBox="0 0 22 22"><path d="M20.994,0.6078 L18.412,17.9428 C18.35,18.3398 18.101,18.6838 17.742,18.8648 C17.564,18.9548 17.37,18.9998 17.177,18.9998 C16.98,18.9998 16.782,18.9528 16.602,18.8598 L12.753,16.8648 L8.041,20.7178 C7.813,20.9038 7.533,20.9998 7.25,20.9998 C7.068,20.9998 6.885,20.9598 6.715,20.8798 C6.278,20.6728 6,20.2338 6,19.7498 L6,13.3658 L1.675,11.1248 C1.258,10.9088 0.997,10.4778 1,10.0068 C1.003,9.5368 1.27,9.1088 1.69,8.8988 L20.24,0.0528 C20.314,0.0178 20.392,-0.0002 20.466,-0.0002 C20.743,-0.0002 21,0.2188 21,0.5188 C21,0.5478 20.999,0.5768 20.994,0.6078 Z M16.209,15.8408 L17.93,4.8138 L11.271,13.2808 L16.209,15.8408 Z M8.25,17.5718 L10.55,15.6918 L8.25,14.4998 L8.25,17.5718 Z M16.406,4.3228 L5.004,10.0338 L9.914,12.5788 L16.406,4.3228 Z"/></svg>
