<svg xmlns="http://www.w3.org/2000/svg" xlink="http://www.w3.org/1999/xlink" width="16" height="16" viewBox="0 0 16 16"><path d="M15.9934,0.5988 L13.9954,13.3498 C13.9444,13.6588 13.7504,13.9278 13.4714,14.0728 C13.3274,14.1498 13.1674,14.1878 13.0074,14.1878 C12.8614,14.1878 12.7144,14.1548 12.5794,14.0908 L10.0034,12.8708 L5.5574,15.8318 C5.3904,15.9438 5.1974,15.9998 5.0034,15.9998 C4.8404,15.9998 4.6784,15.9608 4.5314,15.8818 C4.2064,15.7078 4.0024,15.3688 4.0024,14.9998 L4.0024,10.0278 L0.5714,8.4028 C0.2214,8.2368 -0.0016,7.8838 0.0004,7.4958 C0.0024,7.1088 0.2274,6.7558 0.5794,6.5928 L15.3254,0.0348 C15.3804,0.0108 15.4644,-0.0002 15.5184,-0.0002 C15.6224,0.0008 15.7464,0.0298 15.8694,0.1518 C15.9914,0.2748 16.0134,0.4638 15.9934,0.5988 Z M12.2354,11.7148 L13.4764,4.1598 L8.2774,9.8398 L12.2354,11.7148 Z M6.0044,13.4358 L8.4264,11.8198 L6.0044,10.6728 L6.0044,13.4358 Z M3.3564,7.5098 L6.8574,9.1678 L12.0814,3.4608 L3.3564,7.5098 Z"/></svg>
