<svg xmlns="http://www.w3.org/2000/svg" xlink="http://www.w3.org/1999/xlink" width="12" height="12" viewBox="0 0 12 12"><path d="M0.3137,5.5153 L11.9997,0.0003 L10.5547,10.3003 C10.4957,10.7183 10.1387,11.0003 9.7517,11.0003 C9.6347,11.0003 9.5137,10.9733 9.3987,10.9183 L6.5047,9.5123 L4.2527,11.7823 C4.1037,11.9323 3.9197,12.0003 3.7397,12.0003 C3.3617,12.0003 2.9997,11.7053 2.9997,11.2583 L2.9997,7.8113 L0.3087,6.5043 C-0.1053,6.3033 -0.1013,5.7123 0.3137,5.5153 Z M9.5997,9.9043 L10.6127,2.6933 L5.7627,8.0413 L9.5997,9.9043 Z M3.9997,10.6173 L5.5547,9.0513 L3.9997,8.2973 L3.9997,10.6173 Z M9.7327,2.1753 L1.5937,6.0163 L4.8267,7.5863 L9.7327,2.1753 Z"/></svg>
