<svg xmlns="http://www.w3.org/2000/svg" width="24" height="24" fill="none" viewBox="0 0 24 24">
  <path fill="#017737" d="M10.33 10.326c0 1.311.668 2.712 2.133 2.712 1.08 0 2.184-.835 2.197-2.737 0-1.658-.874-2.763-2.159-2.763-1.054 0-2.172.732-2.172 2.788Z"/>
  <path fill="#017737" fill-rule="evenodd" d="M12 23.01c6.075 0 11-4.925 11-11s-4.925-11-11-11-11 4.925-11 11 4.925 11 11 11ZM10.175 6.29c.424-.462 1.311-1.156 2.84-1.156 2.622 0 4.395 2.069 4.382 5.14 0 3.033-1.863 5.14-4.523 5.14-1.272 0-2.082-.54-2.506-.925v4.395H7.644V7.949c0-.154-.052-.206-.206-.206H6.5v-2.39h2.3c1.054 0 1.324.527 1.375.938Z" clip-rule="evenodd"/>
</svg>
