<svg width="24" height="24" viewBox="0 0 24 24" fill="none" xmlns="http://www.w3.org/2000/svg">
<path d="M10.8978 10.3592C10.8978 11.6446 11.5723 13.0181 13.0511 13.0181C14.1407 13.0181 15.2562 12.199 15.2692 10.334C15.2692 8.70834 14.3871 7.62459 13.09 7.62459C12.0263 7.62459 10.8978 8.34289 10.8978 10.3592Z" fill="#017737"/>
<path fill-rule="evenodd" clip-rule="evenodd" d="M12 23.0098C18.0751 23.0098 23 18.0849 23 12.0098C23 5.93463 18.0751 1.00977 12 1.00977C5.92487 1.00977 1 5.93463 1 12.0098C1 18.0849 5.92487 23.0098 12 23.0098ZM10.7421 6.40222C11.1702 5.94856 12.0652 5.26807 13.6088 5.26807C16.255 5.26807 18.0451 7.29695 18.0322 10.3088C18.0322 13.2828 16.1513 15.3495 13.4661 15.3495C12.182 15.3495 11.3647 14.8202 10.9367 14.4421V18.7519H8.1867V8.02785C8.1867 7.87663 8.13481 7.82622 7.97916 7.82622H7.03223V5.4823H9.35415C10.4178 5.4823 10.6902 5.99897 10.7421 6.40222Z" fill="#017737"/>
</svg>
