<svg xmlns="http://www.w3.org/2000/svg" width="16" height="16" fill="none" viewBox="0 0 16 16">
  <path fill="#017737" d="M6.785 6.785c0 .954.486 1.972 1.551 1.972.785 0 1.59-.607 1.599-1.99 0-1.206-.636-2.01-1.57-2.01-.767 0-1.58.533-1.58 2.028Z"/>
  <path fill="#017737" fill-rule="evenodd" d="M8 16.01a8 8 0 1 0 0-16 8 8 0 0 0 0 16ZM6.673 3.85c.308-.336.953-.84 2.065-.84 1.907 0 3.197 1.504 3.187 3.738 0 2.206-1.355 3.738-3.29 3.738-.925 0-1.513-.392-1.822-.673v3.197H4.832V5.056c0-.112-.038-.149-.15-.149H4V3.169h1.673c.766 0 .963.383 1 .682Z" clip-rule="evenodd"/>
</svg>
