<svg width="16" height="16" viewBox="0 0 16 16" fill="none" xmlns="http://www.w3.org/2000/svg">
<path d="M7.19839 6.80907C7.19839 7.74389 7.68895 8.74286 8.76442 8.74286C9.55686 8.74286 10.3682 8.14714 10.3776 6.79074C10.3776 5.60847 9.73611 4.82028 8.79272 4.82028C8.01914 4.82028 7.19839 5.34268 7.19839 6.80907Z" fill="#017737"/>
<path fill-rule="evenodd" clip-rule="evenodd" d="M8 16.0098C12.4183 16.0098 16 12.428 16 8.00977C16 3.59149 12.4183 0.00976562 8 0.00976562C3.58172 0.00976562 0 3.59149 0 8.00977C0 12.428 3.58172 16.0098 8 16.0098ZM7.08518 3.93129C7.3965 3.60135 8.04744 3.10645 9.17007 3.10645C11.0946 3.10645 12.3965 4.582 12.387 6.77241C12.387 8.93533 11.0191 10.4384 9.0663 10.4384C8.13234 10.4384 7.53801 10.0534 7.22669 9.7785V12.9129H5.2267V5.11356C5.2267 5.00358 5.18897 4.96692 5.07576 4.96692H4.38708V3.26225H6.07575C6.84933 3.26225 7.04745 3.63801 7.08518 3.93129Z" fill="#017737"/>
</svg>
