<svg width="144" height="81" viewBox="0 0 144 81" fill="none" xmlns="http://www.w3.org/2000/svg">
<rect width="144" height="80" transform="translate(0 1)" fill="#F6F7F8"/>
<g filter="url(#filter0_ii)">
<rect width="40" height="32" transform="translate(0 1)" fill="#E5E6E8"/>
<path d="M12 11C12 9.89543 12.8954 9 14 9H26C27.1046 9 28 9.89543 28 11V23C28 24.1046 27.1046 25 26 25H14C12.8954 25 12 24.1046 12 23V11Z" fill="white"/>
<path d="M14 10H26V8H14V10ZM27 11V23H29V11H27ZM26 24H14V26H26V24ZM13 23V11H11V23H13ZM14 24C13.4477 24 13 23.5523 13 23H11C11 24.6569 12.3431 26 14 26V24ZM27 23C27 23.5523 26.5523 24 26 24V26C27.6569 26 29 24.6569 29 23H27ZM26 10C26.5523 10 27 10.4477 27 11H29C29 9.34315 27.6569 8 26 8V10ZM14 8C12.3431 8 11 9.34315 11 11H13C13 10.4477 13.4477 10 14 10V8Z" fill="#A6B0B3"/>
</g>
<g filter="url(#filter1_i)">
<rect width="104" height="32" transform="translate(40 1)" fill="#E5E6E8"/>
<path d="M48.6761 12.9119H51.8778V22H53.1108V12.9119H56.3125V11.8182H48.6761V12.9119ZM58.2154 22H59.4483V17.446H64.8773V22H66.1103V11.8182H64.8773V16.3523H59.4483V11.8182H58.2154V22Z" fill="#333333"/>
<path d="M73 14H83V12H73V14Z" fill="#A6B0B3"/>
<path d="M73 18H79V15.999H73V18Z" fill="#A6B0B3"/>
<path d="M76 22H73V20H76V22Z" fill="#A6B0B3"/>
</g>
<rect width="40" height="48" transform="translate(0 33)" fill="white"/>
<path d="M12 49C12 47.8954 12.8954 47 14 47H26C27.1046 47 28 47.8954 28 49V61C28 62.1046 27.1046 63 26 63H14C12.8954 63 12 62.1046 12 61V49Z" fill="white"/>
<path d="M14 48H26V46H14V48ZM27 49V61H29V49H27ZM26 62H14V64H26V62ZM13 61V49H11V61H13ZM14 62C13.4477 62 13 61.5523 13 61H11C11 62.6569 12.3431 64 14 64V62ZM27 61C27 61.5523 26.5523 62 26 62V64C27.6569 64 29 62.6569 29 61H27ZM26 48C26.5523 48 27 48.4477 27 49H29C29 47.3431 27.6569 46 26 46V48ZM14 46C12.3431 46 11 47.3431 11 49H13C13 48.4477 13.4477 48 14 48V46Z" fill="#A6B0B3"/>
<rect width="104" height="48" transform="translate(40 33)" fill="white"/>
<g clip-path="url(#clip0)">
<path d="M49.233 60H55.1989V58.9062H50.4659V49.8182H49.233V60ZM60.0511 60.1591C62.1193 60.1591 63.5114 58.5881 63.5114 56.2216C63.5114 53.8352 62.1193 52.2642 60.0511 52.2642C57.983 52.2642 56.5909 53.8352 56.5909 56.2216C56.5909 58.5881 57.983 60.1591 60.0511 60.1591ZM60.0511 59.1051C58.4801 59.1051 57.7642 57.7528 57.7642 56.2216C57.7642 54.6903 58.4801 53.3182 60.0511 53.3182C61.6222 53.3182 62.3381 54.6903 62.3381 56.2216C62.3381 57.7528 61.6222 59.1051 60.0511 59.1051ZM66.4757 55.4062C66.4757 54.0739 67.301 53.3182 68.4245 53.3182C69.5133 53.3182 70.1745 54.0291 70.1745 55.2273V60H71.3478V55.1477C71.3478 53.1989 70.3088 52.2642 68.7626 52.2642C67.6092 52.2642 66.8933 52.7812 66.5353 53.5568H66.4359V52.3636H65.3024V60H66.4757V55.4062ZM76.5742 63.0227C78.4038 63.0227 79.8754 62.1875 79.8754 60.2188V52.3636H78.7418V53.5767H78.6225C78.364 53.179 77.8867 52.2642 76.3952 52.2642C74.4663 52.2642 73.1339 53.7955 73.1339 56.142C73.1339 58.5284 74.5259 59.8807 76.3754 59.8807C77.8668 59.8807 78.3441 59.0057 78.6026 58.5881H78.7021V60.1392C78.7021 61.4119 77.8072 61.9886 76.5742 61.9886C75.1871 61.9886 74.6999 61.2578 74.3867 60.8352L73.4521 61.4915C73.9293 62.2919 74.869 63.0227 76.5742 63.0227ZM76.5344 58.8267C75.0629 58.8267 74.3072 57.7131 74.3072 56.1222C74.3072 54.571 75.043 53.3182 76.5344 53.3182C77.9663 53.3182 78.7219 54.4716 78.7219 56.1222C78.7219 57.8125 77.9464 58.8267 76.5344 58.8267ZM87.1339 49.8182H85.9606V60H87.1339V49.8182ZM89.2828 60H90.4561V52.3636H89.2828V60ZM89.8794 51.0909C90.3368 51.0909 90.7147 50.733 90.7147 50.2955C90.7147 49.858 90.3368 49.5 89.8794 49.5C89.4221 49.5 89.0442 49.858 89.0442 50.2955C89.0442 50.733 89.4221 51.0909 89.8794 51.0909ZM93.7784 55.4062C93.7784 54.0739 94.6037 53.3182 95.7273 53.3182C96.8161 53.3182 97.4773 54.0291 97.4773 55.2273V60H98.6506V55.1477C98.6506 53.1989 97.6115 52.2642 96.0653 52.2642C94.9119 52.2642 94.196 52.7812 93.8381 53.5568H93.7386V52.3636H92.6051V60H93.7784V55.4062ZM100.795 60H101.968V57.1413L102.788 56.3807L105.647 60H107.138L103.673 55.625L106.9 52.3636H105.448L102.107 55.7642H101.968V49.8182H100.795V60ZM117.756 54.0739C117.388 52.9901 116.563 52.2642 115.052 52.2642C113.441 52.2642 112.248 53.179 112.248 54.4716C112.248 55.5256 112.874 56.2315 114.276 56.5597L115.549 56.858C116.32 57.0369 116.683 57.4048 116.683 57.9318C116.683 58.5881 115.987 59.125 114.893 59.125C113.933 59.125 113.332 58.7124 113.123 57.892L112.009 58.1705C112.283 59.468 113.352 60.1591 114.913 60.1591C116.688 60.1591 117.896 59.1896 117.896 57.8722C117.896 56.8082 117.229 56.1371 115.867 55.804L114.734 55.5256C113.829 55.3018 113.421 54.9986 113.421 54.4119C113.421 53.7557 114.117 53.2784 115.052 53.2784C116.076 53.2784 116.499 53.8452 116.702 54.3722L117.756 54.0739ZM122.764 60.1591C124.832 60.1591 126.224 58.5881 126.224 56.2216C126.224 53.8352 124.832 52.2642 122.764 52.2642C120.696 52.2642 119.304 53.8352 119.304 56.2216C119.304 58.5881 120.696 60.1591 122.764 60.1591ZM122.764 59.1051C121.193 59.1051 120.477 57.7528 120.477 56.2216C120.477 54.6903 121.193 53.3182 122.764 53.3182C124.335 53.3182 125.051 54.6903 125.051 56.2216C125.051 57.7528 124.335 59.1051 122.764 59.1051ZM128.015 60H129.189V55.2273C129.189 54.1087 130.004 53.3182 130.919 53.3182C131.809 53.3182 132.43 53.8999 132.43 54.7699V60H133.623V55.0284C133.623 54.044 134.24 53.3182 135.314 53.3182C136.149 53.3182 136.865 53.7607 136.865 54.8892V60H138.038V54.8892C138.038 53.0945 137.074 52.2642 135.711 52.2642C134.618 52.2642 133.817 52.7663 133.424 53.5568H133.345C132.967 52.7415 132.301 52.2642 131.297 52.2642C130.302 52.2642 129.566 52.7415 129.248 53.5568H129.149V52.3636H128.015V60ZM143.385 60.1591C144.936 60.1591 146.07 59.3835 146.428 58.2301L145.294 57.9119C144.996 58.7074 144.305 59.1051 143.385 59.1051C142.008 59.1051 141.058 58.2152 141.004 56.5795H146.547V56.0824C146.547 53.2386 144.857 52.2642 143.266 52.2642C141.197 52.2642 139.825 53.8949 139.825 56.2415C139.825 58.5881 141.178 60.1591 143.385 60.1591ZM141.004 55.5653C141.083 54.3771 141.923 53.3182 143.266 53.3182C144.538 53.3182 145.354 54.2727 145.354 55.5653H141.004ZM150.062 60H151.215L152.886 54.1335H153.005L154.675 60H155.829L158.156 52.3636H156.923L155.272 58.1903H155.192L153.582 52.3636H152.329L150.698 58.2102H150.619L148.968 52.3636H147.735L150.062 60ZM160.88 55.4062C160.88 54.0739 161.73 53.3182 162.888 53.3182C163.992 53.3182 164.658 54.0142 164.658 55.2273V60H165.832V55.1477C165.832 53.1839 164.788 52.2642 163.227 52.2642C162.023 52.2642 161.337 52.7663 160.979 53.5568H160.88V49.8182H159.707V60H160.88V55.4062ZM171.18 60.1591C172.731 60.1591 173.865 59.3835 174.222 58.2301L173.089 57.9119C172.791 58.7074 172.1 59.1051 171.18 59.1051C169.803 59.1051 168.853 58.2152 168.798 56.5795H174.342V56.0824C174.342 53.2386 172.651 52.2642 171.061 52.2642C168.992 52.2642 167.62 53.8949 167.62 56.2415C167.62 58.5881 168.972 60.1591 171.18 60.1591ZM168.798 55.5653C168.878 54.3771 169.718 53.3182 171.061 53.3182C172.333 53.3182 173.149 54.2727 173.149 55.5653H168.798ZM176.127 60H177.3V55.1676C177.3 54.1335 178.115 53.3778 179.229 53.3778C179.542 53.3778 179.865 53.4375 179.945 53.4574V52.2642C179.811 52.2543 179.502 52.2443 179.328 52.2443C178.414 52.2443 177.618 52.7614 177.34 53.517H177.26V52.3636H176.127V60ZM184.305 60.1591C185.856 60.1591 186.99 59.3835 187.347 58.2301L186.214 57.9119C185.916 58.7074 185.225 59.1051 184.305 59.1051C182.928 59.1051 181.978 58.2152 181.923 56.5795H187.467V56.0824C187.467 53.2386 185.776 52.2642 184.186 52.2642C182.117 52.2642 180.745 53.8949 180.745 56.2415C180.745 58.5881 182.097 60.1591 184.305 60.1591ZM181.923 55.5653C182.003 54.3771 182.843 53.3182 184.186 53.3182C185.458 53.3182 186.274 54.2727 186.274 55.5653H181.923Z" fill="#0071BC"/>
</g>
<rect width="104" height="48" transform="translate(40 33)" fill="white"/>
<g clip-path="url(#clip1)">
<path d="M49.233 60H55.1989V58.9062H50.4659V49.8182H49.233V60ZM60.0511 60.1591C62.1193 60.1591 63.5114 58.5881 63.5114 56.2216C63.5114 53.8352 62.1193 52.2642 60.0511 52.2642C57.983 52.2642 56.5909 53.8352 56.5909 56.2216C56.5909 58.5881 57.983 60.1591 60.0511 60.1591ZM60.0511 59.1051C58.4801 59.1051 57.7642 57.7528 57.7642 56.2216C57.7642 54.6903 58.4801 53.3182 60.0511 53.3182C61.6222 53.3182 62.3381 54.6903 62.3381 56.2216C62.3381 57.7528 61.6222 59.1051 60.0511 59.1051ZM66.4757 55.4062C66.4757 54.0739 67.301 53.3182 68.4245 53.3182C69.5133 53.3182 70.1745 54.0291 70.1745 55.2273V60H71.3478V55.1477C71.3478 53.1989 70.3088 52.2642 68.7626 52.2642C67.6092 52.2642 66.8933 52.7812 66.5353 53.5568H66.4359V52.3636H65.3024V60H66.4757V55.4062ZM76.5742 63.0227C78.4038 63.0227 79.8754 62.1875 79.8754 60.2188V52.3636H78.7418V53.5767H78.6225C78.364 53.179 77.8867 52.2642 76.3952 52.2642C74.4663 52.2642 73.1339 53.7955 73.1339 56.142C73.1339 58.5284 74.5259 59.8807 76.3754 59.8807C77.8668 59.8807 78.3441 59.0057 78.6026 58.5881H78.7021V60.1392C78.7021 61.4119 77.8072 61.9886 76.5742 61.9886C75.1871 61.9886 74.6999 61.2578 74.3867 60.8352L73.4521 61.4915C73.9293 62.2919 74.869 63.0227 76.5742 63.0227ZM76.5344 58.8267C75.0629 58.8267 74.3072 57.7131 74.3072 56.1222C74.3072 54.571 75.043 53.3182 76.5344 53.3182C77.9663 53.3182 78.7219 54.4716 78.7219 56.1222C78.7219 57.8125 77.9464 58.8267 76.5344 58.8267ZM87.1339 49.8182H85.9606V60H87.1339V49.8182ZM89.2828 60H90.4561V52.3636H89.2828V60ZM89.8794 51.0909C90.3368 51.0909 90.7147 50.733 90.7147 50.2955C90.7147 49.858 90.3368 49.5 89.8794 49.5C89.4221 49.5 89.0442 49.858 89.0442 50.2955C89.0442 50.733 89.4221 51.0909 89.8794 51.0909ZM93.7784 55.4062C93.7784 54.0739 94.6037 53.3182 95.7273 53.3182C96.8161 53.3182 97.4773 54.0291 97.4773 55.2273V60H98.6506V55.1477C98.6506 53.1989 97.6115 52.2642 96.0653 52.2642C94.9119 52.2642 94.196 52.7812 93.8381 53.5568H93.7386V52.3636H92.6051V60H93.7784V55.4062ZM100.795 60H101.968V57.1413L102.788 56.3807L105.647 60H107.138L103.673 55.625L106.9 52.3636H105.448L102.107 55.7642H101.968V49.8182H100.795V60ZM117.756 54.0739C117.388 52.9901 116.563 52.2642 115.052 52.2642C113.441 52.2642 112.248 53.179 112.248 54.4716C112.248 55.5256 112.874 56.2315 114.276 56.5597L115.549 56.858C116.32 57.0369 116.683 57.4048 116.683 57.9318C116.683 58.5881 115.987 59.125 114.893 59.125C113.933 59.125 113.332 58.7124 113.123 57.892L112.009 58.1705C112.283 59.468 113.352 60.1591 114.913 60.1591C116.688 60.1591 117.896 59.1896 117.896 57.8722C117.896 56.8082 117.229 56.1371 115.867 55.804L114.734 55.5256C113.829 55.3018 113.421 54.9986 113.421 54.4119C113.421 53.7557 114.117 53.2784 115.052 53.2784C116.076 53.2784 116.499 53.8452 116.702 54.3722L117.756 54.0739ZM122.764 60.1591C124.832 60.1591 126.224 58.5881 126.224 56.2216C126.224 53.8352 124.832 52.2642 122.764 52.2642C120.696 52.2642 119.304 53.8352 119.304 56.2216C119.304 58.5881 120.696 60.1591 122.764 60.1591ZM122.764 59.1051C121.193 59.1051 120.477 57.7528 120.477 56.2216C120.477 54.6903 121.193 53.3182 122.764 53.3182C124.335 53.3182 125.051 54.6903 125.051 56.2216C125.051 57.7528 124.335 59.1051 122.764 59.1051ZM128.015 60H129.189V55.2273C129.189 54.1087 130.004 53.3182 130.919 53.3182C131.809 53.3182 132.43 53.8999 132.43 54.7699V60H133.623V55.0284C133.623 54.044 134.24 53.3182 135.314 53.3182C136.149 53.3182 136.865 53.7607 136.865 54.8892V60H138.038V54.8892C138.038 53.0945 137.074 52.2642 135.711 52.2642C134.618 52.2642 133.817 52.7663 133.424 53.5568H133.345C132.967 52.7415 132.301 52.2642 131.297 52.2642C130.302 52.2642 129.566 52.7415 129.248 53.5568H129.149V52.3636H128.015V60ZM143.385 60.1591C144.936 60.1591 146.07 59.3835 146.428 58.2301L145.294 57.9119C144.996 58.7074 144.305 59.1051 143.385 59.1051C142.008 59.1051 141.058 58.2152 141.004 56.5795H146.547V56.0824C146.547 53.2386 144.857 52.2642 143.266 52.2642C141.197 52.2642 139.825 53.8949 139.825 56.2415C139.825 58.5881 141.178 60.1591 143.385 60.1591ZM141.004 55.5653C141.083 54.3771 141.923 53.3182 143.266 53.3182C144.538 53.3182 145.354 54.2727 145.354 55.5653H141.004ZM150.062 60H151.215L152.886 54.1335H153.005L154.675 60H155.829L158.156 52.3636H156.923L155.272 58.1903H155.192L153.582 52.3636H152.329L150.698 58.2102H150.619L148.968 52.3636H147.735L150.062 60ZM160.88 55.4062C160.88 54.0739 161.73 53.3182 162.888 53.3182C163.992 53.3182 164.658 54.0142 164.658 55.2273V60H165.832V55.1477C165.832 53.1839 164.788 52.2642 163.227 52.2642C162.023 52.2642 161.337 52.7663 160.979 53.5568H160.88V49.8182H159.707V60H160.88V55.4062ZM171.18 60.1591C172.731 60.1591 173.865 59.3835 174.222 58.2301L173.089 57.9119C172.791 58.7074 172.1 59.1051 171.18 59.1051C169.803 59.1051 168.853 58.2152 168.798 56.5795H174.342V56.0824C174.342 53.2386 172.651 52.2642 171.061 52.2642C168.992 52.2642 167.62 53.8949 167.62 56.2415C167.62 58.5881 168.972 60.1591 171.18 60.1591ZM168.798 55.5653C168.878 54.3771 169.718 53.3182 171.061 53.3182C172.333 53.3182 173.149 54.2727 173.149 55.5653H168.798ZM176.127 60H177.3V55.1676C177.3 54.1335 178.115 53.3778 179.229 53.3778C179.542 53.3778 179.865 53.4375 179.945 53.4574V52.2642C179.811 52.2543 179.502 52.2443 179.328 52.2443C178.414 52.2443 177.618 52.7614 177.34 53.517H177.26V52.3636H176.127V60ZM184.305 60.1591C185.856 60.1591 186.99 59.3835 187.347 58.2301L186.214 57.9119C185.916 58.7074 185.225 59.1051 184.305 59.1051C182.928 59.1051 181.978 58.2152 181.923 56.5795H187.467V56.0824C187.467 53.2386 185.776 52.2642 184.186 52.2642C182.117 52.2642 180.745 53.8949 180.745 56.2415C180.745 58.5881 182.097 60.1591 184.305 60.1591ZM181.923 55.5653C182.003 54.3771 182.843 53.3182 184.186 53.3182C185.458 53.3182 186.274 54.2727 186.274 55.5653H181.923Z" fill="#0071BC"/>
</g>
<rect x="1" y="70" width="60" height="10" rx="5" fill="black" fill-opacity="0.3"/>
<rect width="80" height="11" transform="matrix(0 -1 -1 0 144 80)" fill="url(#paint0_linear)"/>
<defs>
<filter id="filter0_ii" x="0" y="1" width="40" height="32" filterUnits="userSpaceOnUse" color-interpolation-filters="sRGB">
<feFlood flood-opacity="0" result="BackgroundImageFix"/>
<feBlend mode="normal" in="SourceGraphic" in2="BackgroundImageFix" result="shape"/>
<feColorMatrix in="SourceAlpha" type="matrix" values="0 0 0 0 0 0 0 0 0 0 0 0 0 0 0 0 0 0 127 0" result="hardAlpha"/>
<feOffset dy="-1"/>
<feComposite in2="hardAlpha" operator="arithmetic" k2="-1" k3="1"/>
<feColorMatrix type="matrix" values="0 0 0 0 0.870588 0 0 0 0 0.890196 0 0 0 0 0.898039 0 0 0 1 0"/>
<feBlend mode="normal" in2="shape" result="effect1_innerShadow"/>
<feColorMatrix in="SourceAlpha" type="matrix" values="0 0 0 0 0 0 0 0 0 0 0 0 0 0 0 0 0 0 127 0" result="hardAlpha"/>
<feOffset dx="-1" dy="-1"/>
<feComposite in2="hardAlpha" operator="arithmetic" k2="-1" k3="1"/>
<feColorMatrix type="matrix" values="0 0 0 0 0.870588 0 0 0 0 0.890196 0 0 0 0 0.898039 0 0 0 1 0"/>
<feBlend mode="normal" in2="effect1_innerShadow" result="effect2_innerShadow"/>
</filter>
<filter id="filter1_i" x="40" y="1" width="104" height="32" filterUnits="userSpaceOnUse" color-interpolation-filters="sRGB">
<feFlood flood-opacity="0" result="BackgroundImageFix"/>
<feBlend mode="normal" in="SourceGraphic" in2="BackgroundImageFix" result="shape"/>
<feColorMatrix in="SourceAlpha" type="matrix" values="0 0 0 0 0 0 0 0 0 0 0 0 0 0 0 0 0 0 127 0" result="hardAlpha"/>
<feOffset dy="-1"/>
<feComposite in2="hardAlpha" operator="arithmetic" k2="-1" k3="1"/>
<feColorMatrix type="matrix" values="0 0 0 0 0.870588 0 0 0 0 0.890196 0 0 0 0 0.898039 0 0 0 1 0"/>
<feBlend mode="normal" in2="shape" result="effect1_innerShadow"/>
</filter>
<linearGradient id="paint0_linear" x1="8.21912" y1="2.26026" x2="8.21912" y2="11" gradientUnits="userSpaceOnUse">
<stop stop-opacity="0.1"/>
<stop offset="1" stop-color="white" stop-opacity="0.01"/>
</linearGradient>
<clipPath id="clip0">
<rect width="104" height="20" fill="white" transform="translate(40 45)"/>
</clipPath>
<clipPath id="clip1">
<rect width="104" height="20" fill="white" transform="translate(40 45)"/>
</clipPath>
</defs>
</svg>
