<svg xmlns="http://www.w3.org/2000/svg" width="24" height="24" fill="none" viewBox="0 0 24 24">
  <g>
    <path fill="#000" d="M17.482 11.405a1.93 1.93 0 0 1 .455 0c.082-.187.096-.513.02-.863-.106-.523-.254-.842-.562-.792-.304.05-.314.43-.207.953.065.293.172.548.294.702Zm-2.621.415c.218.097.35.16.405.104.032-.036.024-.1-.03-.187-.107-.175-.329-.354-.565-.454a1.53 1.53 0 0 0-1.497.179c-.147.107-.282.258-.264.347.006.029.028.05.079.057.121.014.54-.197 1.027-.229.34-.021.626.086.845.183Zm-.44.25c-.287.047-.441.14-.54.226-.09.075-.14.161-.14.219l.021.053.047.018a.82.82 0 0 0 .207-.06 1.82 1.82 0 0 1 .917-.094c.143.015.21.025.243-.024.007-.015.018-.044-.01-.09-.065-.11-.356-.294-.745-.247Zm2.177.924c.193.093.405.057.473-.082.071-.143-.029-.337-.222-.43-.193-.097-.405-.057-.477.082-.068.143.033.333.226.43Zm1.242-1.088c-.157-.004-.29.168-.29.386-.003.215.118.39.276.394.157.004.287-.168.29-.383.003-.215-.122-.394-.276-.397ZM7.295 15.794c-.04-.046-.104-.032-.165-.018-.05.011-.1.018-.147.022a.329.329 0 0 1-.27-.136c-.07-.111-.067-.276.012-.462l.036-.086c.129-.283.336-.756.1-1.207-.175-.34-.466-.551-.817-.595a1.05 1.05 0 0 0-.903.323c-.347.383-.4.906-.332 1.092.024.068.064.086.093.09.057.006.143-.036.2-.183l.015-.047c.024-.079.071-.226.143-.34a.628.628 0 0 1 .874-.183c.243.157.34.458.236.741-.054.15-.143.43-.122.663.04.469.326.655.584.676.251.011.426-.132.473-.236.025-.061.003-.097-.01-.115v.001Zm14.505-.856c-.01-.035-.071-.264-.157-.537l-.175-.469c.343-.515.35-.977.304-1.238-.05-.323-.183-.599-.454-.881-.27-.287-.824-.58-1.604-.798l-.409-.11c0-.019-.02-.968-.039-1.372-.01-.294-.036-.756-.179-1.207-.168-.613-.465-1.15-.834-1.493 1.017-1.056 1.654-2.22 1.65-3.216-.003-1.923-2.356-2.503-5.256-1.3l-.616.261c-.376-.368-.749-.737-1.128-1.106-3.31-2.89-13.65 8.623-10.345 11.423l.723.613a3.615 3.615 0 0 0-.2 1.644c.078.77.472 1.507 1.117 2.076.608.54 1.41.884 2.191.884 1.286 2.97 4.226 4.792 7.67 4.896 3.699.107 6.804-1.63 8.103-4.752.086-.218.448-1.206.448-2.077 0-.877-.495-1.239-.81-1.239v-.002ZM6.672 17.273c-.11.021-.23.029-.344.025-1.114-.029-2.32-1.035-2.442-2.231-.133-1.322.54-2.335 1.733-2.575.165-.036.333-.047.501-.039.67.04 1.655.551 1.877 2.009.2 1.292-.115 2.607-1.325 2.814v-.003Zm-1.246-5.571c-.741.143-1.396.565-1.798 1.146-.24-.197-.684-.584-.762-.735-.637-1.217.698-3.577 1.63-4.912 2.305-3.295 5.918-5.79 7.59-5.34.273.08 1.171 1.124 1.171 1.124s-1.672.928-3.223 2.224c-2.087 1.611-3.663 3.95-4.608 6.493Zm11.72 5.08c.024-.01.043-.038.038-.064-.003-.035-.032-.06-.068-.057 0 0-1.747.261-3.401-.347.178-.584.658-.373 1.382-.315a10.006 10.006 0 0 0 3.337-.362c.748-.215 1.73-.637 2.495-1.242.258.566.347 1.189.347 1.189s.201-.036.366.068c.157.097.272.301.193.82-.158.974-.573 1.766-1.268 2.496a5.178 5.178 0 0 1-1.526 1.138 6.734 6.734 0 0 1-.992.423c-2.621.856-5.303-.086-6.17-2.11a3.648 3.648 0 0 1-.171-.479c-.369-1.332-.057-2.933.924-3.939.057-.064.118-.14.118-.236 0-.08-.05-.161-.093-.222-.34-.498-1.525-1.343-1.289-2.983.172-1.179 1.2-2.006 2.16-1.959l.243.014c.415.025.777.08 1.117.093.573.025 1.088-.057 1.698-.566.204-.171.368-.322.648-.368.029-.004.104-.032.247-.025.15.007.293.054.418.136.491.326.56 1.114.584 1.69.015.33.054 1.124.068 1.354.033.522.169.598.444.687.158.054.305.093.516.15.648.184 1.031.37 1.271.606a.789.789 0 0 1 .233.454c.08.56-.43 1.247-1.776 1.873-1.472.684-3.254.856-4.486.72l-.433-.05c-.985-.133-1.547 1.142-.957 2.02.38.562 1.422.93 2.46.93 2.382 0 4.215-1.02 4.895-1.901l.054-.08c.036-.05.007-.074-.036-.046-.555.38-3.03 1.894-5.672 1.44 0 0-.322-.054-.616-.169-.233-.09-.72-.315-.78-.816 2.134.662 3.477.036 3.477.036ZM9.682 7.187c.82-.949 1.83-1.772 2.732-2.234.033-.018.065.018.05.046-.071.13-.21.412-.254.62-.007.032.029.057.054.04.566-.384 1.543-.796 2.402-.85.036 0 .054.047.025.069a2.11 2.11 0 0 0-.38.38.036.036 0 0 0 .03.056c.605.007 1.454.219 2.005.53.04.022.014.093-.029.083-.838-.193-2.21-.34-3.634.01-1.271.312-2.241.789-2.95 1.308-.036.025-.08-.022-.05-.058Z"/>
  </g>
  <defs>
      <path fill="#fff" d="M1 1.01h22v22H1z"/>
  </defs>
</svg>
