<svg xmlns="http://www.w3.org/2000/svg" width="16" height="16" fill="none" viewBox="0 0 16 16">
  <g clip-path="url(#a)">
    <path fill="#000" d="M11.987 7.56c.11-.013.222-.013.33 0 .06-.136.071-.373.016-.628-.078-.38-.185-.612-.409-.575-.221.036-.229.312-.151.692.047.214.125.399.213.511h.001Zm-1.906.302c.159.07.255.117.294.075.024-.026.018-.073-.021-.135a.929.929 0 0 0-.411-.33 1.112 1.112 0 0 0-1.089.13c-.107.077-.205.187-.192.252.004.021.02.036.057.041.088.011.393-.143.748-.166.247-.016.455.062.614.133Zm-.32.182a.753.753 0 0 0-.393.164c-.066.055-.102.117-.102.16l.015.038.034.013c.048 0 .152-.044.152-.044.213-.078.442-.104.666-.068.104.011.154.018.177-.018.005-.01.013-.031-.008-.065-.047-.08-.258-.214-.541-.18Zm1.583.672c.14.067.295.041.344-.06.052-.104-.021-.245-.162-.313-.14-.07-.294-.041-.346.06-.05.104.024.242.164.313Zm.904-.792c-.115-.002-.211.123-.211.281-.003.157.085.284.2.287.114.002.208-.123.211-.279.002-.156-.088-.286-.2-.289Zm-7.67 2.828c-.029-.034-.075-.023-.12-.013a.767.767 0 0 1-.107.016.24.24 0 0 1-.196-.099c-.051-.08-.049-.2.008-.336l.026-.063c.095-.205.245-.549.074-.877a.766.766 0 0 0-1.251-.198c-.252.278-.292.659-.242.794.018.05.047.063.067.065.042.005.104-.026.146-.133l.011-.034c.018-.057.052-.164.104-.247a.457.457 0 0 1 .635-.133.448.448 0 0 1 .172.539c-.038.11-.103.313-.088.482.028.341.237.476.425.492.182.008.31-.096.343-.172.019-.045.003-.07-.008-.084l.001.002Zm10.55-.622c-.008-.026-.053-.193-.115-.39l-.127-.342c.25-.375.255-.71.221-.9a1.134 1.134 0 0 0-.33-.641c-.196-.209-.6-.422-1.167-.58l-.297-.081c0-.013-.016-.703-.029-.998a3.331 3.331 0 0 0-.13-.877c-.122-.446-.338-.836-.607-1.086.74-.768 1.204-1.615 1.201-2.339C13.746.498 12.035.076 9.925.951l-.448.19c-.274-.268-.545-.537-.82-.805C6.25-1.765-1.272 6.607 1.132 8.644l.526.445c-.14.38-.19.79-.146 1.196.058.56.344 1.097.813 1.51.442.393 1.026.643 1.594.643.934 2.16 3.072 3.485 5.578 3.56 2.69.079 4.947-1.184 5.893-3.455.062-.159.325-.877.325-1.51 0-.638-.36-.901-.588-.901v-.002ZM4.124 11.828c-.08.016-.167.021-.25.018-.81-.021-1.688-.752-1.776-1.623-.097-.96.393-1.698 1.26-1.872.12-.026.243-.034.365-.029.487.029 1.203.401 1.364 1.461.146.94-.083 1.897-.963 2.048v-.003Zm-.906-4.052a2.074 2.074 0 0 0-1.307.833c-.175-.143-.498-.424-.555-.534-.464-.885.508-2.601 1.185-3.573C4.219 2.106 6.846.292 8.063.62c.198.058.851.818.851.818S7.7 2.111 6.572 3.054C5.053 4.226 3.906 5.926 3.219 7.775v.001Zm8.523 3.696c.018-.008.031-.029.028-.047-.002-.027-.023-.045-.049-.042 0 0-1.271.19-2.474-.252.13-.425.479-.271 1.005-.23a7.276 7.276 0 0 0 2.427-.262c.544-.157 1.258-.464 1.815-.904.188.412.252.865.252.865s.146-.027.266.049c.114.07.198.219.14.597-.114.708-.416 1.284-.921 1.814-.316.341-.69.623-1.11.829a4.895 4.895 0 0 1-.722.307c-1.906.623-3.856-.063-4.486-1.534a2.653 2.653 0 0 1-.126-.349c-.268-.969-.041-2.133.673-2.865.041-.047.085-.101.085-.172 0-.057-.036-.117-.067-.161-.248-.362-1.11-.977-.938-2.17.125-.857.873-1.458 1.571-1.424l.177.01c.302.018.565.058.813.068.416.018.791-.042 1.234-.412.148-.125.268-.234.471-.268.022-.002.076-.023.18-.018a.6.6 0 0 1 .304.1c.358.236.407.81.425 1.228.01.24.039.818.05.985.023.38.122.435.322.5.115.039.222.067.376.11.471.132.75.267.924.44a.574.574 0 0 1 .17.33c.057.406-.313.906-1.292 1.362-1.07.498-2.367.623-3.263.524l-.315-.037c-.716-.096-1.125.83-.695 1.469.275.409 1.033.677 1.788.677 1.732 0 3.066-.742 3.56-1.383l.04-.057c.025-.037.004-.055-.027-.034-.403.275-2.203 1.377-4.124 1.046 0 0-.235-.038-.448-.122-.17-.065-.524-.229-.568-.594 1.552.482 2.529.026 2.529.026Zm-5.427-6.98c.596-.69 1.33-1.289 1.987-1.625.024-.013.047.013.037.034-.053.094-.154.3-.186.45-.005.024.021.042.04.029.411-.279 1.122-.578 1.747-.617.026 0 .039.034.018.05-.104.08-.196.171-.276.275a.026.026 0 0 0 .021.042c.44.005 1.058.159 1.459.385.028.016.01.068-.022.06-.609-.14-1.607-.247-2.643.008-.924.227-1.63.573-2.146.951-.026.018-.057-.016-.036-.042Z"/>
  </g>
  <defs>
    <clipPath id="a">
      <path fill="#fff" d="M0 0h16v16H0z"/>
    </clipPath>
  </defs>
</svg>
