<svg xmlns="http://www.w3.org/2000/svg" width="16" height="16" fill="none" viewBox="0 0 16 16">
  <g>
    <path fill="#000" d="M11.987 7.57c.11-.013.222-.013.33 0 .06-.136.071-.373.016-.628-.078-.38-.185-.612-.409-.575-.221.036-.229.312-.151.692.047.214.126.399.214.51Zm-1.906.302c.159.07.255.117.294.075.024-.026.018-.073-.021-.135a.93.93 0 0 0-.411-.33 1.112 1.112 0 0 0-1.089.13c-.107.077-.205.187-.192.252.005.02.02.036.057.041.089.01.393-.143.748-.166a1.29 1.29 0 0 1 .614.133Zm-.32.182a.753.753 0 0 0-.393.164c-.065.055-.102.117-.102.16l.016.038.034.013a.596.596 0 0 0 .15-.044c.214-.078.443-.104.667-.068.104.01.154.018.177-.018.005-.01.013-.031-.008-.065-.047-.08-.258-.214-.541-.18Zm1.583.672c.14.067.295.041.344-.06.052-.104-.021-.245-.162-.313-.14-.07-.294-.041-.346.06-.05.104.024.242.164.313Zm.904-.792c-.115-.002-.211.123-.211.281-.003.157.085.284.2.287.114.002.208-.123.211-.279.002-.156-.088-.286-.2-.289Zm-7.67 2.828c-.028-.034-.075-.023-.12-.013a.767.767 0 0 1-.107.016.24.24 0 0 1-.195-.1c-.052-.08-.05-.2.008-.335l.026-.063c.094-.205.245-.55.073-.877a.766.766 0 0 0-1.251-.198c-.252.278-.291.659-.242.794.018.05.047.063.068.065.041.005.104-.026.146-.133l.01-.034c.018-.057.052-.164.104-.247a.457.457 0 0 1 .636-.133.448.448 0 0 1 .172.539c-.04.11-.104.312-.089.482.029.34.237.476.425.492.182.008.31-.097.344-.172.018-.045.002-.07-.008-.084v.001Zm10.55-.622c-.008-.026-.053-.193-.115-.39l-.127-.342c.25-.375.255-.71.221-.9a1.134 1.134 0 0 0-.33-.641c-.196-.209-.6-.422-1.167-.58l-.297-.081c0-.013-.016-.703-.029-.998a3.331 3.331 0 0 0-.13-.877c-.122-.446-.338-.836-.607-1.086.74-.768 1.204-1.615 1.201-2.339C13.746.508 12.035.086 9.925.961l-.448.19c-.273-.268-.544-.537-.82-.805C6.25-1.755-1.27 6.617 1.133 8.654l.526.445c-.14.38-.19.79-.146 1.196.058.56.344 1.096.813 1.51.442.393 1.026.643 1.594.643.935 2.16 3.073 3.485 5.578 3.56 2.69.078 4.947-1.185 5.893-3.455.062-.16.325-.878.325-1.51 0-.639-.36-.902-.588-.902v-.001ZM4.124 11.838c-.08.015-.166.02-.25.018-.81-.021-1.687-.753-1.776-1.623-.096-.96.393-1.698 1.26-1.872.12-.026.243-.034.365-.029.487.029 1.203.401 1.365 1.461.146.94-.084 1.896-.964 2.047v-.002Zm-.906-4.052a2.074 2.074 0 0 0-1.307.833c-.175-.143-.498-.424-.555-.534-.463-.885.508-2.601 1.185-3.573C4.219 2.116 6.847.302 8.063.63c.198.058.852.818.852.818S7.699 2.12 6.57 3.064C5.053 4.236 3.907 5.937 3.219 7.786Zm8.523 3.695c.018-.008.031-.028.028-.047-.002-.026-.023-.044-.049-.041 0 0-1.271.19-2.474-.253.13-.424.479-.27 1.005-.229a7.276 7.276 0 0 0 2.427-.263c.544-.156 1.258-.463 1.815-.903.188.411.252.864.252.864s.146-.026.266.05c.114.07.198.219.14.596-.114.709-.416 1.284-.921 1.815-.316.341-.69.623-1.11.828a4.895 4.895 0 0 1-.722.308c-1.906.622-3.856-.063-4.486-1.534a2.653 2.653 0 0 1-.125-.35c-.268-.968-.042-2.132.672-2.864.041-.047.086-.101.086-.172 0-.057-.037-.117-.068-.161-.247-.362-1.11-.977-.937-2.17.125-.857.872-1.458 1.57-1.424l.177.01c.302.018.565.058.813.068.416.018.791-.042 1.234-.412.148-.125.268-.234.471-.268.022-.002.076-.023.18-.018a.6.6 0 0 1 .304.1c.358.236.407.81.425 1.228.01.24.039.818.05.985.023.38.122.435.322.5.115.039.222.067.376.11.471.132.75.267.924.44a.574.574 0 0 1 .17.33c.057.406-.313.906-1.292 1.362-1.07.497-2.367.622-3.263.523l-.315-.036c-.716-.097-1.125.83-.695 1.469.276.409 1.033.677 1.788.677 1.732 0 3.066-.742 3.56-1.383l.04-.058c.025-.036.004-.054-.027-.034-.403.276-2.203 1.378-4.124 1.047 0 0-.235-.039-.448-.122-.17-.065-.524-.23-.568-.594 1.552.482 2.529.026 2.529.026Zm-5.427-6.98c.597-.69 1.33-1.288 1.987-1.624.024-.013.047.013.037.034-.052.094-.154.3-.185.45-.005.024.02.042.039.029.411-.279 1.122-.578 1.747-.617.026 0 .039.034.018.05-.104.08-.195.171-.276.275a.026.026 0 0 0 .021.042c.44.005 1.058.159 1.459.385.028.016.01.068-.022.06-.609-.14-1.606-.247-2.642.008-.925.227-1.63.573-2.146.95-.026.019-.058-.015-.037-.041Z"/>
  </g>
  <defs>
      <path fill="#fff" d="M0 .01h16v16H0z"/>
  </defs>
</svg>
