<svg width="16" height="16" viewBox="0 0 16 16" xmlns="http://www.w3.org/2000/svg"><path fill-rule="evenodd" clip-rule="evenodd" d="M6.057 5v1.069h6.025A2 2 0 0 1 14 8.007v2.997a3.98 3.98 0 0 1-1.177 2.825A4.027 4.027 0 0 1 9.983 15H6.017a4.027 4.027 0 0 1-2.84-1.17A3.986 3.986 0 0 1 2 11.003V8.067c0-.53.212-1.039.588-1.413a2.014 2.014 0 0 1 1.42-.585v-1.07c0-.71.19-1.406.549-2.019a4.007 4.007 0 0 1 1.499-1.467 4.033 4.033 0 0 1 4.058.07 1.002 1.002 0 0 1 .469 1.012 1.004 1.004 0 0 1-1.513.696 2.016 2.016 0 0 0-2.736.717A1.99 1.99 0 0 0 6.057 5Zm5.437 7.417c.376-.375.588-.883.588-1.413l-.01-2.937H4.099v2.937c0 .53.211 1.038.588 1.413.377.374.887.585 1.42.585h3.967c.532 0 1.043-.21 1.42-.585ZM8.805 11.7a1.007 1.007 0 0 1-1.714-.706v-1a1 1 0 0 1 .294-.706 1.007 1.007 0 0 1 1.715.707v.999a.993.993 0 0 1-.295.706Z"/></svg>