<svg width="16" height="16" viewBox="0 0 16 16" xmlns="http://www.w3.org/2000/svg"><path fill-rule="evenodd" clip-rule="evenodd" d="M15.25 8c0 .315-.028.623-.067.927.512.73.817 1.614.817 2.573a4.5 4.5 0 0 1-4.5 4.5 4.473 4.473 0 0 1-2.573-.815A7.463 7.463 0 0 1 8 15.25 7.25 7.25 0 0 1 .75 8c0-.314.027-.623.066-.927A4.461 4.461 0 0 1 0 4.5 4.5 4.5 0 0 1 4.5 0c.959 0 1.844.305 2.573.816C7.377.777 7.685.75 8 .75A7.25 7.25 0 0 1 15.25 8ZM4.138 10.438c0 .998 1.221 2.359 3.893 2.36 2.541-.001 3.831-1.288 3.831-2.953 0-1.084-.514-2.215-2.442-2.65l-1.758-.396c-.668-.147-1.428-.363-1.428-1.004 0-.642.514-1.1 1.49-1.1 1.153 0 1.573.472 1.921.863.245.275.455.51.859.51.513 0 .956-.284.956-.814 0-1.228-1.954-2.138-3.6-2.138-1.785 0-3.661.743-3.661 2.792 0 .989.334 2.053 2.25 2.54l2.383.602c.72.169.932.593.932.964 0 .617-.64 1.274-1.731 1.274-1.233 0-1.654-.572-2.01-1.056-.261-.354-.487-.661-.971-.661a.87.87 0 0 0-.914.867Z"/></svg>