<svg width="24" height="24" xmlns="http://www.w3.org/2000/svg">
  <path fill-rule="evenodd" clip-rule="evenodd" d="M6.98 1.23a.33.33 0 0 0-.59.14L3.28 19.8a.33.33 0 0 0 .19.35l.06.03a.24.24 0 0 0 .03.02l8.3 3.77a.33.33 0 0 0 .27 0l8.26-3.75a.32.32 0 0 0 .02-.01l.03-.02a.33.33 0 0 0 .16-.45L12.56 4.42a.33.33 0 0 0-.58 0l-1.15 2.06-3.85-5.25Zm3.85 5.25L3.4 19.74a.33.33 0 0 0 .12.44l8.33 3.79a.33.33 0 0 0 .27 0l8.28-3.76a.33.33 0 0 0 .11-.49l-9.7-13.24Z" fill="#F9AB00"/>
  <path d="m10.83 6.48 9.7 13.24a.33.33 0 0 1-.14.5l-8.25 3.75a.33.33 0 0 1-.28 0l-8.34-3.8a.33.33 0 0 1-.11-.43l7.42-13.26Z" fill="#E78936"/>
  <path d="M17.6 5.96a.33.33 0 0 1 .54.18l2.57 13.66a.33.33 0 0 1-.19.36l-8.4 3.81a.33.33 0 0 1-.26 0l-8.2-3.72a.33.33 0 0 1-.09-.54L17.6 5.96Z" fill="#F8CD54"/>
</svg>
