<svg width="22" height="23" viewBox="0 0 22 23" fill="none" xmlns="http://www.w3.org/2000/svg">
  <path fill-rule="evenodd" clip-rule="evenodd" d="M6.4 1.62a.3.3 0 00-.54.13L3 18.65a.3.3 0 00.18.32l.05.03.03.01 7.61 3.46a.3.3 0 00.25 0l7.57-3.44h.02l.03-.02a.3.3 0 00.14-.41L11.5 4.56a.3.3 0 00-.53-.01L9.92 6.44 6.4 1.62zm3.52 4.82l-6.8 12.15a.3.3 0 00.11.41l7.64 3.47a.3.3 0 00.25 0l7.59-3.45a.3.3 0 00.1-.44L9.92 6.44z" fill="#F9AB00"/>
  <path d="M9.93 6.44l8.88 12.14a.3.3 0 01-.12.45l-7.57 3.44a.3.3 0 01-.25 0L3.23 19a.3.3 0 01-.1-.4l6.8-12.16z" fill="#E78936"/>
  <path d="M16.13 5.97a.3.3 0 01.5.16l2.35 12.52a.3.3 0 01-.17.33l-7.7 3.5a.3.3 0 01-.24 0l-7.5-3.42a.3.3 0 01-.1-.49l12.86-12.6z" fill="#F8CD54"/>
</svg>
