<svg width="16" height="17" viewBox="0 0 16 17" fill="none" xmlns="http://www.w3.org/2000/svg">
  <path fill-rule="evenodd" clip-rule="evenodd" d="M4.6.6a.23.23 0 00-.42.1L2 13.56c-.01.1.04.2.13.24l.05.02.02.01L8 16.48a.23.23 0 00.19 0l5.77-2.62.03-.02c.12-.05.17-.2.1-.31L8.5 2.83a.23.23 0 00-.4 0l-.81 1.43L4.59.6zm2.68 3.66l-5.19 9.26a.23.23 0 00.09.31L8 16.48a.23.23 0 00.19 0l5.78-2.63a.23.23 0 00.08-.34L7.28 4.26z" fill="#F9AB00"/>
  <path d="M7.28 4.26l6.77 9.25c.08.12.04.29-.1.35L8.2 16.48a.23.23 0 01-.2 0l-5.82-2.65a.23.23 0 01-.08-.3l5.19-9.27z" fill="#E78936"/>
  <path d="M12 3.9a.23.23 0 01.39.12l1.79 9.54c.02.1-.04.21-.13.26l-5.86 2.66a.23.23 0 01-.2 0l-5.71-2.6a.23.23 0 01-.07-.37L12 3.9z" fill="#F8CD54"/>
</svg>
