<svg width="16" height="16" viewBox="0 0 16 16" xmlns="http://www.w3.org/2000/svg"><path fill-rule="evenodd" clip-rule="evenodd" d="M0 7c0 .276.112.526.292.707C.105 8.098 0 8.537 0 9c0 .463.105.902.292 1.293A.997.997 0 0 0 0 11v1a4 4 0 0 0 4 4h8a4 4 0 0 0 4-4v-1a.997.997 0 0 0-.292-.707C15.895 9.902 16 9.463 16 9c0-.463-.105-.902-.292-1.293.18-.181.292-.431.292-.707V6a6 6 0 0 0-6-6H6a6 6 0 0 0-6 6v1Zm10-5H6a4 4 0 0 0-4 4h12a4 4 0 0 0-4-4Zm3.001 8A1 1 0 0 0 13 8H3a1 1 0 0 0 0 2H13ZM2 12a2 2 0 0 0 2 2h8a2 2 0 0 0 2-2H2Z"/></svg>