<svg width="24" height="24" viewBox="0 0 24 24" xmlns="http://www.w3.org/2000/svg"><path fill-rule="evenodd" clip-rule="evenodd" d="M4 2a1 1 0 0 1 1-1h3a1 1 0 0 1 1 1v3h10a1 1 0 0 1 .949 1.316l-2 6A1 1 0 0 1 17 13H8a1 1 0 0 1-1-1V3H5a1 1 0 0 1-1-1Zm5 5v4h7.28l1.333-4H9Z"/><path d="M4 19a1 1 0 0 1 1-1h14a1 1 0 1 1 0 2H5a1 1 0 0 1-1-1ZM8.5 17a1.5 1.5 0 1 0 0-3 1.5 1.5 0 0 0 0 3ZM17 15.5a1.5 1.5 0 1 1-3 0 1.5 1.5 0 0 1 3 0ZM9.241 22.087a.08.08 0 0 1 .045.135l-.724.708.148.978c.01.064-.058.112-.118.084l-.937-.437-.936.437c-.06.028-.128-.02-.118-.084l.148-.978-.725-.708a.08.08 0 0 1 .045-.135l1.026-.168.487-.877a.084.084 0 0 1 .146 0l.487.877 1.026.168ZM17.931 22.087a.08.08 0 0 1 .045.135l-.725.708.148.978c.01.064-.058.112-.118.084l-.936-.437-.937.437c-.06.028-.127-.02-.118-.084l.148-.978-.724-.708a.08.08 0 0 1 .045-.135l1.026-.168.487-.877a.084.084 0 0 1 .146 0l.487.877 1.026.168ZM13.631 22.222a.08.08 0 0 0-.045-.135l-1.026-.168-.487-.877a.084.084 0 0 0-.146 0l-.487.877-1.026.168a.08.08 0 0 0-.045.135l.725.708-.149.978c-.01.064.059.112.118.084l.937-.437.937.437c.06.028.127-.02.118-.084l-.149-.978.725-.708Z"/></svg>