<svg width="16" height="16" viewBox="0 0 16 16" xmlns="http://www.w3.org/2000/svg"><path fill-rule="evenodd" clip-rule="evenodd" d="M3 0a1 1 0 0 0 0 2h1v4.8A1.2 1.2 0 0 0 5.2 8H6a1 1 0 1 0 0 2 1 1 0 0 0 0-2h4a1 1 0 1 0 0 2 1 1 0 0 0 0-2h.844a1.2 1.2 0 0 0 1.164-.909l.9-3.6A1.2 1.2 0 0 0 11.744 2H6v-.8A1.2 1.2 0 0 0 4.8 0H3Zm3 6V4h4.72l-.5 2H6Z"/><path d="M2 12a1 1 0 0 1 1-1h10a1 1 0 1 1 0 2H3a1 1 0 0 1-1-1Z"/><path d="M3.636 13a.081.081 0 0 0-.072.042l-.481.877-1.015.168a.08.08 0 0 0-.044.135l.716.708-.146.978c-.01.064.057.112.116.084l.926-.437.926.437c.06.028.127-.02.117-.084l-.147-.978.717-.708a.08.08 0 0 0-.045-.135l-1.014-.168-.481-.877A.081.081 0 0 0 3.636 13ZM8 13a.081.081 0 0 0-.072.042l-.482.877-1.014.168a.08.08 0 0 0-.045.135l.717.708-.147.978c-.01.064.058.112.117.084L8 15.555l.926.437c.06.028.126-.02.117-.084l-.147-.978.717-.708a.08.08 0 0 0-.045-.135l-1.014-.168-.482-.877A.081.081 0 0 0 8 13ZM12.364 13a.081.081 0 0 0-.073.042l-.481.877-1.014.168a.08.08 0 0 0-.045.135l.717.708-.147.978c-.01.064.058.112.117.084l.926-.437.926.437c.059.028.126-.02.116-.084l-.146-.978.716-.708a.08.08 0 0 0-.044-.135l-1.015-.168-.481-.877a.081.081 0 0 0-.072-.042Z"/></svg>