<svg width="24" height="24" viewBox="0 0 24 24" xmlns="http://www.w3.org/2000/svg"><path fill-rule="evenodd" clip-rule="evenodd" d="M11.998 1A10.84 10.84 0 0 0 4.87 3.69a11.353 11.353 0 0 0-3.73 6.784 11.52 11.52 0 0 0 1.45 7.646 11.054 11.054 0 0 0 5.934 4.86c.55.104.75-.244.75-.544 0-.267-.01-.976-.015-1.917-3.06.68-3.705-1.512-3.705-1.512a2.98 2.98 0 0 0-1.22-1.65c-1-.7.075-.686.075-.686.349.049.683.18.975.38.293.202.536.47.713.783.149.278.35.523.592.72a2.288 2.288 0 0 0 2.608.216c.05-.57.298-1.105.699-1.507-2.445-.285-5.01-1.252-5.01-5.574a4.425 4.425 0 0 1 1.131-3.027 4.155 4.155 0 0 1 .109-2.984s.923-.304 3.024 1.156a10.164 10.164 0 0 1 5.507 0c2.099-1.46 3.02-1.156 3.02-1.156a4.15 4.15 0 0 1 .11 2.984 4.415 4.415 0 0 1 1.13 3.027c0 4.333-2.57 5.286-5.02 5.565a2.747 2.747 0 0 1 .746 2.089c0 1.507-.013 2.724-.013 3.093 0 .302.198.653.756.543a11.055 11.055 0 0 0 5.93-4.865 11.52 11.52 0 0 0 1.442-7.645 11.353 11.353 0 0 0-3.732-6.783A10.838 10.838 0 0 0 11.998 1Z"/></svg>