<svg xmlns="http://www.w3.org/2000/svg" xlink="http://www.w3.org/1999/xlink" width="22" height="22" viewBox="0 0 22 22"><path d="M17.5713,9.0566 C17.1403,11.4256 15.8193,13.2986 14.7843,14.4806 C13.3173,16.1536 12.0003,17.1876 11.8053,20.1376 C11.8053,20.1376 10.4063,18.2826 11.0723,16.4046 C11.7383,14.5266 12.8033,13.7496 13.6653,12.6486 C14.5263,11.5456 15.7863,9.4616 15.6413,7.0386 C15.3793,3.1076 12.2123,-0.0004 8.3333,-0.0004 C12.4713,7.3326 3.0003,9.0236 3.0003,13.7496 C3.0003,18.3066 6.5823,21.9996 11.0003,21.9996 C15.4183,21.9996 19.0003,18.3066 19.0003,13.7496 C19.0003,12.0036 18.4703,10.3886 17.5713,9.0566"/></svg>
