<svg xmlns="http://www.w3.org/2000/svg" xlink="http://www.w3.org/1999/xlink" width="16" height="16" viewBox="0 0 16 16"><path d="M12.9287,6.5869 C12.6057,8.3099 11.6157,9.6719 10.8377,10.5309 C9.7387,11.7479 8.7497,12.4999 8.6037,14.6459 C8.6037,14.6459 7.5547,13.2959 8.0547,11.9309 C8.5537,10.5649 9.3537,9.9999 9.9977,9.1979 C10.6447,8.3979 11.5897,6.8819 11.4807,5.1189 C11.2837,2.2599 8.9087,-0.0001 5.9997,-0.0001 C9.1037,5.3329 1.9997,6.5629 1.9997,9.9999 C1.9997,13.3139 4.6867,15.9999 7.9997,15.9999 C11.3137,15.9999 13.9997,13.3139 13.9997,9.9999 C13.9997,8.7309 13.6037,7.5549 12.9287,6.5869"/></svg>
