<svg xmlns="http://www.w3.org/2000/svg" xlink="http://www.w3.org/1999/xlink" width="12" height="12" viewBox="0 0 12 12"><path d="M9.4199,5.3174 C9.2249,6.1324 8.6649,7.1724 7.6759,8.0934 C6.2189,9.4534 5.9529,10.9844 5.9529,10.9844 C5.9529,10.9844 5.5089,10.4124 5.4469,9.6934 C5.3459,8.9394 5.7009,8.2454 6.6699,7.0824 C8.1389,5.3174 8.0589,4.8944 8.1109,3.8384 C7.9629,1.6954 6.1819,0.0004 3.9999,0.0004 C6.3279,4.0004 0.9999,4.9214 0.9999,7.5004 C0.9999,9.9854 3.0149,12.0004 5.4999,12.0004 C7.9849,12.0004 9.9999,9.9854 9.9999,7.5004 C9.9999,6.7054 9.7829,5.9644 9.4199,5.3174"/></svg>
