<svg width="100" height="100" viewBox="0 0 100 100" fill="none" xmlns="http://www.w3.org/2000/svg">
<rect width="100" height="100" fill="white"/>
<rect x="5.5" y="10.5" width="89" height="21" rx="3.5" fill="#F9F2FF" stroke="#8649E1"/>
<rect x="29" y="18" width="54" height="6" rx="3" fill="#DCB8FF"/>
<path fill-rule="evenodd" clip-rule="evenodd" d="M15.2929 25.7071C14.9024 25.3166 14.9024 24.6834 15.2929 24.2929L18.5858 21L15.2929 17.7071C14.9024 17.3166 14.9024 16.6834 15.2929 16.2929C15.6834 15.9024 16.3166 15.9024 16.7071 16.2929L20.7071 20.2929C21.0976 20.6834 21.0976 21.3166 20.7071 21.7071L16.7071 25.7071C16.3166 26.0976 15.6834 26.0976 15.2929 25.7071Z" fill="#8649E1"/>
<rect x="5.5" y="36.5" width="89" height="53" rx="3.5" stroke="#8649E1"/>
<rect x="13" y="66" width="70" height="6" rx="3" fill="#DCB8FF"/>
<rect x="13" y="76" width="48" height="6" rx="3" fill="#DCB8FF"/>
<path d="M9 36.5H91C92.933 36.5 94.5 38.067 94.5 40V57.5H5.5V40C5.5 38.067 7.067 36.5 9 36.5Z" fill="#F9F2FF" stroke="#8649E1"/>
<rect x="29" y="44" width="47" height="6" rx="3" fill="#DCB8FF"/>
<path fill-rule="evenodd" clip-rule="evenodd" d="M13.2929 45.2929C13.6834 44.9024 14.3166 44.9024 14.7071 45.2929L18 48.5858L21.2929 45.2929C21.6834 44.9024 22.3166 44.9024 22.7071 45.2929C23.0976 45.6834 23.0976 46.3166 22.7071 46.7071L18.7071 50.7071C18.3166 51.0976 17.6834 51.0976 17.2929 50.7071L13.2929 46.7071C12.9024 46.3166 12.9024 45.6834 13.2929 45.2929Z" fill="#8649E1"/>
</svg>
