<svg width="80" height="80" viewBox="0 0 80 80" fill="none" xmlns="http://www.w3.org/2000/svg">
<rect width="80" height="80" fill="white"/>
<rect x="4.5" y="4.5" width="71" height="21" rx="3.5" fill="#F9F2FF" stroke="#8649E1"/>
<rect x="28" y="12" width="38" height="6" rx="3" fill="#DCB8FF"/>
<path fill-rule="evenodd" clip-rule="evenodd" d="M14.2929 19.7071C13.9024 19.3166 13.9024 18.6834 14.2929 18.2929L17.5858 15L14.2929 11.7071C13.9024 11.3166 13.9024 10.6834 14.2929 10.2929C14.6834 9.90237 15.3166 9.90237 15.7071 10.2929L19.7071 14.2929C20.0976 14.6834 20.0976 15.3166 19.7071 15.7071L15.7071 19.7071C15.3166 20.0976 14.6834 20.0976 14.2929 19.7071Z" fill="#8649E1"/>
<rect x="4.5" y="30.5" width="71" height="45" rx="3.5" stroke="#8649E1"/>
<rect x="12" y="56" width="54" height="6" rx="3" fill="#DCB8FF"/>
<rect x="12" y="66" width="38" height="6" rx="3" fill="#DCB8FF"/>
<path d="M4.5 34C4.5 32.067 6.067 30.5 8 30.5H72C73.933 30.5 75.5 32.067 75.5 34V51.5H4.5V34Z" fill="#F9F2FF" stroke="#8649E1"/>
<rect x="28" y="38" width="33" height="6" rx="3" fill="#DCB8FF"/>
<path fill-rule="evenodd" clip-rule="evenodd" d="M12.2929 39.2929C12.6834 38.9024 13.3166 38.9024 13.7071 39.2929L17 42.5858L20.2929 39.2929C20.6834 38.9024 21.3166 38.9024 21.7071 39.2929C22.0976 39.6834 22.0976 40.3166 21.7071 40.7071L17.7071 44.7071C17.3166 45.0976 16.6834 45.0976 16.2929 44.7071L12.2929 40.7071C11.9024 40.3166 11.9024 39.6834 12.2929 39.2929Z" fill="#8649E1"/>
</svg>
