<svg width="100" height="52" viewBox="0 0 100 52" fill="none" xmlns="http://www.w3.org/2000/svg">
<rect x="20" y="4.75952" width="80" height="6" rx="3" fill="#898D9A"/>
<rect x="20" y="23.7595" width="80" height="6" rx="3" fill="#898D9A"/>
<rect x="3" y="39.7595" width="97" height="4" rx="2" fill="#D1D4DB"/>
<rect x="3" y="47.7595" width="97" height="4" rx="2" fill="#D1D4DB"/>
<path fill-rule="evenodd" clip-rule="evenodd" d="M5.29289 12.7071C4.90237 12.3166 4.90237 11.6834 5.29289 11.2929L8.58579 8L5.29289 4.70711C4.90237 4.31658 4.90237 3.68342 5.29289 3.29289C5.68342 2.90237 6.31658 2.90237 6.70711 3.29289L10.7071 7.29289C11.0976 7.68342 11.0976 8.31658 10.7071 8.70711L6.70711 12.7071C6.31658 13.0976 5.68342 13.0976 5.29289 12.7071Z" fill="#898D9A"/>
<path fill-rule="evenodd" clip-rule="evenodd" d="M2.29289 24.2929C2.68342 23.9024 3.31658 23.9024 3.70711 24.2929L7 27.5858L10.2929 24.2929C10.6834 23.9024 11.3166 23.9024 11.7071 24.2929C12.0976 24.6834 12.0976 25.3166 11.7071 25.7071L7.70711 29.7071C7.31658 30.0976 6.68342 30.0976 6.29289 29.7071L2.29289 25.7071C1.90237 25.3166 1.90237 24.6834 2.29289 24.2929Z" fill="#898D9A"/>
</svg>
