<svg width="80" height="80" viewBox="0 0 80 80" fill="none" xmlns="http://www.w3.org/2000/svg">
<rect width="80" height="80" fill="white"/>
<rect x="5.5" y="6.5" width="69" height="21" rx="3.5" stroke="#8649E1"/>
<path d="M16.0682 20.1065C15.5095 20.1065 15.0289 19.9882 14.6264 19.7514C14.2263 19.5123 13.9186 19.1809 13.7031 18.7571C13.4901 18.3333 13.3835 17.8456 13.3835 17.294C13.3835 16.7353 13.4912 16.2453 13.7067 15.8239C13.9245 15.4001 14.2334 15.0698 14.6335 14.8331C15.0336 14.594 15.5095 14.4744 16.0611 14.4744C16.5369 14.4744 16.9536 14.5608 17.3111 14.7337C17.6686 14.9065 17.9515 15.1491 18.1598 15.4616C18.3681 15.7741 18.483 16.1411 18.5043 16.5625H17.0767C17.0365 16.2902 16.9299 16.0713 16.7571 15.9055C16.5866 15.7375 16.3629 15.6534 16.0859 15.6534C15.8516 15.6534 15.6468 15.7173 15.4716 15.8452C15.2988 15.9706 15.1638 16.1541 15.0668 16.3956C14.9697 16.6371 14.9212 16.9295 14.9212 17.2727C14.9212 17.6207 14.9685 17.9167 15.0632 18.1605C15.1603 18.4044 15.2964 18.5902 15.4716 18.718C15.6468 18.8459 15.8516 18.9098 16.0859 18.9098C16.2588 18.9098 16.4138 18.8743 16.5511 18.8033C16.6908 18.7322 16.8056 18.6293 16.8956 18.4943C16.9879 18.357 17.0483 18.1925 17.0767 18.0007H18.5043C18.4806 18.4174 18.367 18.7843 18.1634 19.1016C17.9621 19.4164 17.6839 19.6626 17.3288 19.8402C16.9737 20.0178 16.5535 20.1065 16.0682 20.1065ZM21.0282 20.103C20.6802 20.103 20.3701 20.0426 20.0978 19.9219C19.8256 19.7988 19.6101 19.6177 19.4515 19.3786C19.2953 19.1371 19.2172 18.8364 19.2172 18.4766C19.2172 18.1735 19.2728 17.919 19.3841 17.7131C19.4953 17.5071 19.6468 17.3414 19.8386 17.2159C20.0304 17.0904 20.2482 16.9957 20.492 16.9318C20.7382 16.8679 20.9963 16.8229 21.2662 16.7969C21.5834 16.7637 21.8391 16.733 22.0332 16.7045C22.2273 16.6738 22.3682 16.6288 22.4558 16.5696C22.5434 16.5104 22.5872 16.4228 22.5872 16.3068V16.2855C22.5872 16.0606 22.5162 15.8866 22.3741 15.7635C22.2344 15.6404 22.0356 15.5788 21.7775 15.5788C21.5053 15.5788 21.2886 15.6392 21.1277 15.7599C20.9667 15.8783 20.8601 16.0275 20.8081 16.2074L19.4089 16.0938C19.4799 15.7623 19.6196 15.4759 19.8279 15.2344C20.0363 14.9905 20.305 14.8035 20.6341 14.6733C20.9655 14.5407 21.349 14.4744 21.7846 14.4744C22.0877 14.4744 22.3777 14.5099 22.6547 14.581C22.934 14.652 23.1814 14.7621 23.3968 14.9112C23.6146 15.0604 23.7863 15.2521 23.9118 15.4865C24.0372 15.7185 24.1 15.9967 24.1 16.321V20H22.6653V19.2436H22.6227C22.5351 19.4141 22.4179 19.5644 22.2711 19.6946C22.1243 19.8224 21.948 19.9231 21.742 19.9964C21.536 20.0675 21.2981 20.103 21.0282 20.103ZM21.4615 19.0589C21.684 19.0589 21.8805 19.0152 22.051 18.9276C22.2214 18.8376 22.3552 18.7169 22.4522 18.5653C22.5493 18.4138 22.5978 18.2422 22.5978 18.0504V17.4716C22.5505 17.5024 22.4854 17.5308 22.4025 17.5568C22.322 17.5805 22.2309 17.603 22.1291 17.6243C22.0273 17.6432 21.9255 17.661 21.8237 17.6776C21.7219 17.6918 21.6296 17.7048 21.5467 17.7166C21.3691 17.7427 21.2141 17.7841 21.0815 17.8409C20.9489 17.8977 20.8459 17.9747 20.7725 18.0717C20.6992 18.1664 20.6625 18.2848 20.6625 18.4268C20.6625 18.6328 20.737 18.7902 20.8862 18.8991C21.0377 19.0057 21.2295 19.0589 21.4615 19.0589ZM28.1749 14.5455V15.6818H24.8901V14.5455H28.1749ZM25.6358 13.2386H27.1486V18.3239C27.1486 18.4635 27.1699 18.5724 27.2125 18.6506C27.2551 18.7263 27.3143 18.7796 27.3901 18.8104C27.4682 18.8411 27.5582 18.8565 27.66 18.8565C27.731 18.8565 27.802 18.8506 27.873 18.8388C27.9441 18.8246 27.9985 18.8139 28.0364 18.8068L28.2743 19.9325C28.1986 19.9562 28.092 19.9834 27.9547 20.0142C27.8174 20.0473 27.6505 20.0675 27.454 20.0746C27.0894 20.0888 26.7698 20.0402 26.4952 19.929C26.223 19.8177 26.0111 19.6449 25.8596 19.4105C25.708 19.1761 25.6335 18.8802 25.6358 18.5227V13.2386Z" fill="#8649E1"/>
<rect x="30" y="11" width="2" height="12" rx="1" fill="#8649E1"/>
<rect x="5.5" y="32.5" width="69" height="41" rx="3.5" stroke="#8649E1"/>
<path d="M16.0682 48.1065C15.5095 48.1065 15.0289 47.9882 14.6264 47.7514C14.2263 47.5123 13.9186 47.1809 13.7031 46.7571C13.4901 46.3333 13.3835 45.8456 13.3835 45.294C13.3835 44.7353 13.4912 44.2453 13.7067 43.8239C13.9245 43.4001 14.2334 43.0698 14.6335 42.8331C15.0336 42.594 15.5095 42.4744 16.0611 42.4744C16.5369 42.4744 16.9536 42.5608 17.3111 42.7337C17.6686 42.9065 17.9515 43.1491 18.1598 43.4616C18.3681 43.7741 18.483 44.1411 18.5043 44.5625H17.0767C17.0365 44.2902 16.9299 44.0713 16.7571 43.9055C16.5866 43.7375 16.3629 43.6534 16.0859 43.6534C15.8516 43.6534 15.6468 43.7173 15.4716 43.8452C15.2988 43.9706 15.1638 44.1541 15.0668 44.3956C14.9697 44.6371 14.9212 44.9295 14.9212 45.2727C14.9212 45.6207 14.9685 45.9167 15.0632 46.1605C15.1603 46.4044 15.2964 46.5902 15.4716 46.718C15.6468 46.8459 15.8516 46.9098 16.0859 46.9098C16.2588 46.9098 16.4138 46.8743 16.5511 46.8033C16.6908 46.7322 16.8056 46.6293 16.8956 46.4943C16.9879 46.357 17.0483 46.1925 17.0767 46.0007H18.5043C18.4806 46.4174 18.367 46.7843 18.1634 47.1016C17.9621 47.4164 17.6839 47.6626 17.3288 47.8402C16.9737 48.0178 16.5535 48.1065 16.0682 48.1065ZM21.0282 48.103C20.6802 48.103 20.3701 48.0426 20.0978 47.9219C19.8256 47.7988 19.6101 47.6177 19.4515 47.3786C19.2953 47.1371 19.2172 46.8364 19.2172 46.4766C19.2172 46.1735 19.2728 45.919 19.3841 45.7131C19.4953 45.5071 19.6468 45.3414 19.8386 45.2159C20.0304 45.0904 20.2482 44.9957 20.492 44.9318C20.7382 44.8679 20.9963 44.8229 21.2662 44.7969C21.5834 44.7637 21.8391 44.733 22.0332 44.7045C22.2273 44.6738 22.3682 44.6288 22.4558 44.5696C22.5434 44.5104 22.5872 44.4228 22.5872 44.3068V44.2855C22.5872 44.0606 22.5162 43.8866 22.3741 43.7635C22.2344 43.6404 22.0356 43.5788 21.7775 43.5788C21.5053 43.5788 21.2886 43.6392 21.1277 43.7599C20.9667 43.8783 20.8601 44.0275 20.8081 44.2074L19.4089 44.0938C19.4799 43.7623 19.6196 43.4759 19.8279 43.2344C20.0363 42.9905 20.305 42.8035 20.6341 42.6733C20.9655 42.5407 21.349 42.4744 21.7846 42.4744C22.0877 42.4744 22.3777 42.5099 22.6547 42.581C22.934 42.652 23.1814 42.7621 23.3968 42.9112C23.6146 43.0604 23.7863 43.2521 23.9118 43.4865C24.0372 43.7185 24.1 43.9967 24.1 44.321V48H22.6653V47.2436H22.6227C22.5351 47.4141 22.4179 47.5644 22.2711 47.6946C22.1243 47.8224 21.948 47.9231 21.742 47.9964C21.536 48.0675 21.2981 48.103 21.0282 48.103ZM21.4615 47.0589C21.684 47.0589 21.8805 47.0152 22.051 46.9276C22.2214 46.8376 22.3552 46.7169 22.4522 46.5653C22.5493 46.4138 22.5978 46.2422 22.5978 46.0504V45.4716C22.5505 45.5024 22.4854 45.5308 22.4025 45.5568C22.322 45.5805 22.2309 45.603 22.1291 45.6243C22.0273 45.6432 21.9255 45.661 21.8237 45.6776C21.7219 45.6918 21.6296 45.7048 21.5467 45.7166C21.3691 45.7427 21.2141 45.7841 21.0815 45.8409C20.9489 45.8977 20.8459 45.9747 20.7725 46.0717C20.6992 46.1664 20.6625 46.2848 20.6625 46.4268C20.6625 46.6328 20.737 46.7902 20.8862 46.8991C21.0377 47.0057 21.2295 47.0589 21.4615 47.0589ZM28.1749 42.5455V43.6818H24.8901V42.5455H28.1749ZM25.6358 41.2386H27.1486V46.3239C27.1486 46.4635 27.1699 46.5724 27.2125 46.6506C27.2551 46.7263 27.3143 46.7796 27.3901 46.8104C27.4682 46.8411 27.5582 46.8565 27.66 46.8565C27.731 46.8565 27.802 46.8506 27.873 46.8388C27.9441 46.8246 27.9985 46.8139 28.0364 46.8068L28.2743 47.9325C28.1986 47.9562 28.092 47.9834 27.9547 48.0142C27.8174 48.0473 27.6505 48.0675 27.454 48.0746C27.0894 48.0888 26.7698 48.0402 26.4952 47.929C26.223 47.8177 26.0111 47.6449 25.8596 47.4105C25.708 47.1761 25.6335 46.8802 25.6358 46.5227V41.2386Z" fill="#8649E1"/>
<path d="M31.1591 48.103C30.8111 48.103 30.5009 48.0426 30.2287 47.9219C29.9564 47.7988 29.741 47.6177 29.5824 47.3786C29.4261 47.1371 29.348 46.8364 29.348 46.4766C29.348 46.1735 29.4036 45.919 29.5149 45.7131C29.6262 45.5071 29.7777 45.3414 29.9695 45.2159C30.1612 45.0904 30.379 44.9957 30.6229 44.9318C30.8691 44.8679 31.1271 44.8229 31.397 44.7969C31.7143 44.7637 31.9699 44.733 32.1641 44.7045C32.3582 44.6738 32.4991 44.6288 32.5866 44.5696C32.6742 44.5104 32.718 44.4228 32.718 44.3068V44.2855C32.718 44.0606 32.647 43.8866 32.505 43.7635C32.3653 43.6404 32.1664 43.5788 31.9084 43.5788C31.6361 43.5788 31.4195 43.6392 31.2585 43.7599C31.0975 43.8783 30.991 44.0275 30.9389 44.2074L29.5398 44.0938C29.6108 43.7623 29.7505 43.4759 29.9588 43.2344C30.1671 42.9905 30.4358 42.8035 30.7649 42.6733C31.0964 42.5407 31.4799 42.4744 31.9155 42.4744C32.2185 42.4744 32.5085 42.5099 32.7855 42.581C33.0649 42.652 33.3123 42.7621 33.5277 42.9112C33.7455 43.0604 33.9171 43.2521 34.0426 43.4865C34.1681 43.7185 34.2308 43.9967 34.2308 44.321V48H32.7962V47.2436H32.7536C32.666 47.4141 32.5488 47.5644 32.402 47.6946C32.2552 47.8224 32.0788 47.9231 31.8729 47.9964C31.6669 48.0675 31.429 48.103 31.1591 48.103ZM31.5923 47.0589C31.8149 47.0589 32.0114 47.0152 32.1818 46.9276C32.3523 46.8376 32.486 46.7169 32.5831 46.5653C32.6802 46.4138 32.7287 46.2422 32.7287 46.0504V45.4716C32.6813 45.5024 32.6162 45.5308 32.5334 45.5568C32.4529 45.5805 32.3617 45.603 32.2599 45.6243C32.1581 45.6432 32.0563 45.661 31.9545 45.6776C31.8527 45.6918 31.7604 45.7048 31.6776 45.7166C31.5 45.7427 31.3449 45.7841 31.2124 45.8409C31.0798 45.8977 30.9768 45.9747 30.9034 46.0717C30.83 46.1664 30.7933 46.2848 30.7933 46.4268C30.7933 46.6328 30.8679 46.7902 31.017 46.8991C31.1686 47.0057 31.3603 47.0589 31.5923 47.0589ZM38.3377 42.5455V43.6818H34.9712V42.5455H38.3377ZM35.7418 48V42.1513C35.7418 41.7559 35.8188 41.428 35.9727 41.1676C36.1289 40.9072 36.342 40.7119 36.6119 40.5817C36.8817 40.4515 37.1883 40.3864 37.5316 40.3864C37.7636 40.3864 37.9755 40.4041 38.1673 40.4396C38.3614 40.4751 38.5058 40.5071 38.6005 40.5355L38.3306 41.6719C38.2714 41.6529 38.198 41.6352 38.1104 41.6186C38.0252 41.602 37.9376 41.5938 37.8477 41.5938C37.6251 41.5938 37.4701 41.6458 37.3825 41.75C37.2949 41.8518 37.2511 41.995 37.2511 42.1797V48H35.7418ZM40.622 48.103C40.274 48.103 39.9638 48.0426 39.6916 47.9219C39.4193 47.7988 39.2039 47.6177 39.0453 47.3786C38.889 47.1371 38.8109 46.8364 38.8109 46.4766C38.8109 46.1735 38.8665 45.919 38.9778 45.7131C39.0891 45.5071 39.2406 45.3414 39.4324 45.2159C39.6241 45.0904 39.8419 44.9957 40.0858 44.9318C40.332 44.8679 40.59 44.8229 40.8599 44.7969C41.1771 44.7637 41.4328 44.733 41.627 44.7045C41.8211 44.6738 41.9619 44.6288 42.0495 44.5696C42.1371 44.5104 42.1809 44.4228 42.1809 44.3068V44.2855C42.1809 44.0606 42.1099 43.8866 41.9679 43.7635C41.8282 43.6404 41.6293 43.5788 41.3713 43.5788C41.099 43.5788 40.8824 43.6392 40.7214 43.7599C40.5604 43.8783 40.4539 44.0275 40.4018 44.2074L39.0027 44.0938C39.0737 43.7623 39.2134 43.4759 39.4217 43.2344C39.63 42.9905 39.8987 42.8035 40.2278 42.6733C40.5592 42.5407 40.9428 42.4744 41.3784 42.4744C41.6814 42.4744 41.9714 42.5099 42.2484 42.581C42.5278 42.652 42.7752 42.7621 42.9906 42.9112C43.2084 43.0604 43.38 43.2521 43.5055 43.4865C43.631 43.7185 43.6937 43.9967 43.6937 44.321V48H42.2591V47.2436H42.2164C42.1288 47.4141 42.0117 47.5644 41.8649 47.6946C41.7181 47.8224 41.5417 47.9231 41.3358 47.9964C41.1298 48.0675 40.8919 48.103 40.622 48.103ZM41.0552 47.0589C41.2778 47.0589 41.4743 47.0152 41.6447 46.9276C41.8152 46.8376 41.9489 46.7169 42.046 46.5653C42.1431 46.4138 42.1916 46.2422 42.1916 46.0504V45.4716C42.1442 45.5024 42.0791 45.5308 41.9963 45.5568C41.9158 45.5805 41.8246 45.603 41.7228 45.6243C41.621 45.6432 41.5192 45.661 41.4174 45.6776C41.3156 45.6918 41.2233 45.7048 41.1404 45.7166C40.9629 45.7427 40.8078 45.7841 40.6752 45.8409C40.5427 45.8977 40.4397 45.9747 40.3663 46.0717C40.2929 46.1664 40.2562 46.2848 40.2562 46.4268C40.2562 46.6328 40.3308 46.7902 40.4799 46.8991C40.6315 47.0057 40.8232 47.0589 41.0552 47.0589ZM46.3801 40.7273V48H44.8674V40.7273H46.3801ZM51.1964 50.0455V47.1264H51.1502C51.0792 47.2779 50.9786 47.4283 50.8484 47.5774C50.7205 47.7242 50.5536 47.8461 50.3477 47.9432C50.1441 48.0402 49.8955 48.0888 49.6019 48.0888C49.1876 48.0888 48.8124 47.9822 48.4762 47.7692C48.1424 47.5537 47.8772 47.2377 47.6808 46.821C47.4866 46.402 47.3896 45.8883 47.3896 45.2798C47.3896 44.6548 47.4902 44.1352 47.6914 43.7209C47.8926 43.3042 48.1602 42.9929 48.494 42.7869C48.8301 42.5786 49.1983 42.4744 49.5984 42.4744C49.9038 42.4744 50.1583 42.5265 50.3619 42.6307C50.5678 42.7325 50.7335 42.8603 50.859 43.0142C50.9869 43.1657 51.0839 43.3149 51.1502 43.4616H51.2141V42.5455H52.7056V50.0455H51.1964ZM50.0813 46.8849C50.3252 46.8849 50.5311 46.8187 50.6992 46.6861C50.8697 46.5511 50.9999 46.3629 51.0898 46.1214C51.1822 45.88 51.2283 45.5971 51.2283 45.2727C51.2283 44.9484 51.1834 44.6667 51.0934 44.4276C51.0034 44.1884 50.8732 44.0038 50.7028 43.8736C50.5323 43.7434 50.3252 43.6783 50.0813 43.6783C49.8327 43.6783 49.6232 43.7457 49.4528 43.8807C49.2823 44.0156 49.1533 44.2027 49.0657 44.4418C48.9781 44.6809 48.9343 44.9579 48.9343 45.2727C48.9343 45.59 48.9781 45.8705 49.0657 46.1143C49.1557 46.3558 49.2847 46.5452 49.4528 46.6825C49.6232 46.8175 49.8327 46.8849 50.0813 46.8849ZM57.418 45.6776V42.5455H58.9308V48H57.4783V47.0092H57.4215C57.2984 47.3288 57.0936 47.5857 56.8072 47.7798C56.5231 47.974 56.1763 48.071 55.7667 48.071C55.4021 48.071 55.0813 47.9882 54.8043 47.8224C54.5273 47.6567 54.3107 47.4212 54.1545 47.1158C54.0006 46.8104 53.9225 46.4446 53.9201 46.0185V42.5455H55.4329V45.7486C55.4353 46.0705 55.5217 46.325 55.6921 46.5121C55.8626 46.6991 56.091 46.7926 56.3775 46.7926C56.5598 46.7926 56.7302 46.7512 56.8888 46.6683C57.0475 46.5831 57.1753 46.4576 57.2724 46.2919C57.3718 46.1262 57.4203 45.9214 57.418 45.6776ZM62.6266 48.1065C62.0655 48.1065 61.5826 47.9929 61.1777 47.7656C60.7753 47.536 60.4651 47.2116 60.2473 46.7926C60.0295 46.3712 59.9206 45.8729 59.9206 45.2976C59.9206 44.7365 60.0295 44.2441 60.2473 43.8203C60.4651 43.3965 60.7717 43.0663 61.1671 42.8295C61.5648 42.5928 62.0312 42.4744 62.5662 42.4744C62.9261 42.4744 63.2611 42.5324 63.5712 42.6484C63.8837 42.7621 64.156 42.9337 64.388 43.1634C64.6223 43.393 64.8046 43.6818 64.9348 44.0298C65.065 44.3755 65.1301 44.7803 65.1301 45.2443V45.6598H60.5243V44.7223H63.7061C63.7061 44.5045 63.6588 44.3116 63.5641 44.1435C63.4694 43.9754 63.338 43.844 63.1699 43.7493C63.0042 43.6522 62.8113 43.6037 62.5911 43.6037C62.3614 43.6037 62.1578 43.657 61.9803 43.7635C61.8051 43.8677 61.6678 44.0085 61.5684 44.1861C61.4689 44.3613 61.418 44.5566 61.4157 44.772V45.6634C61.4157 45.9332 61.4654 46.1664 61.5648 46.3629C61.6666 46.5594 61.8098 46.7109 61.9945 46.8175C62.1792 46.924 62.3981 46.9773 62.6515 46.9773C62.8195 46.9773 62.9734 46.9536 63.1131 46.9062C63.2528 46.8589 63.3723 46.7879 63.4718 46.6932C63.5712 46.5985 63.647 46.4825 63.699 46.3452L65.0982 46.4375C65.0272 46.7737 64.8816 47.0672 64.6614 47.3182C64.4436 47.5668 64.1619 47.7609 63.8162 47.9006C63.473 48.0379 63.0764 48.1065 62.6266 48.1065Z" fill="#DCB8FF"/>
<path d="M16.0682 64.1065C15.5095 64.1065 15.0289 63.9882 14.6264 63.7514C14.2263 63.5123 13.9186 63.1809 13.7031 62.7571C13.4901 62.3333 13.3835 61.8456 13.3835 61.294C13.3835 60.7353 13.4912 60.2453 13.7067 59.8239C13.9245 59.4001 14.2334 59.0698 14.6335 58.8331C15.0336 58.594 15.5095 58.4744 16.0611 58.4744C16.5369 58.4744 16.9536 58.5608 17.3111 58.7337C17.6686 58.9065 17.9515 59.1491 18.1598 59.4616C18.3681 59.7741 18.483 60.1411 18.5043 60.5625H17.0767C17.0365 60.2902 16.9299 60.0713 16.7571 59.9055C16.5866 59.7375 16.3629 59.6534 16.0859 59.6534C15.8516 59.6534 15.6468 59.7173 15.4716 59.8452C15.2988 59.9706 15.1638 60.1541 15.0668 60.3956C14.9697 60.6371 14.9212 60.9295 14.9212 61.2727C14.9212 61.6207 14.9685 61.9167 15.0632 62.1605C15.1603 62.4044 15.2964 62.5902 15.4716 62.718C15.6468 62.8459 15.8516 62.9098 16.0859 62.9098C16.2588 62.9098 16.4138 62.8743 16.5511 62.8033C16.6908 62.7322 16.8056 62.6293 16.8956 62.4943C16.9879 62.357 17.0483 62.1925 17.0767 62.0007H18.5043C18.4806 62.4174 18.367 62.7843 18.1634 63.1016C17.9621 63.4164 17.6839 63.6626 17.3288 63.8402C16.9737 64.0178 16.5535 64.1065 16.0682 64.1065ZM21.0282 64.103C20.6802 64.103 20.3701 64.0426 20.0978 63.9219C19.8256 63.7988 19.6101 63.6177 19.4515 63.3786C19.2953 63.1371 19.2172 62.8364 19.2172 62.4766C19.2172 62.1735 19.2728 61.919 19.3841 61.7131C19.4953 61.5071 19.6468 61.3414 19.8386 61.2159C20.0304 61.0904 20.2482 60.9957 20.492 60.9318C20.7382 60.8679 20.9963 60.8229 21.2662 60.7969C21.5834 60.7637 21.8391 60.733 22.0332 60.7045C22.2273 60.6738 22.3682 60.6288 22.4558 60.5696C22.5434 60.5104 22.5872 60.4228 22.5872 60.3068V60.2855C22.5872 60.0606 22.5162 59.8866 22.3741 59.7635C22.2344 59.6404 22.0356 59.5788 21.7775 59.5788C21.5053 59.5788 21.2886 59.6392 21.1277 59.7599C20.9667 59.8783 20.8601 60.0275 20.8081 60.2074L19.4089 60.0938C19.4799 59.7623 19.6196 59.4759 19.8279 59.2344C20.0363 58.9905 20.305 58.8035 20.6341 58.6733C20.9655 58.5407 21.349 58.4744 21.7846 58.4744C22.0877 58.4744 22.3777 58.5099 22.6547 58.581C22.934 58.652 23.1814 58.7621 23.3968 58.9112C23.6146 59.0604 23.7863 59.2521 23.9118 59.4865C24.0372 59.7185 24.1 59.9967 24.1 60.321V64H22.6653V63.2436H22.6227C22.5351 63.4141 22.4179 63.5644 22.2711 63.6946C22.1243 63.8224 21.948 63.9231 21.742 63.9964C21.536 64.0675 21.2981 64.103 21.0282 64.103ZM21.4615 63.0589C21.684 63.0589 21.8805 63.0152 22.051 62.9276C22.2214 62.8376 22.3552 62.7169 22.4522 62.5653C22.5493 62.4138 22.5978 62.2422 22.5978 62.0504V61.4716C22.5505 61.5024 22.4854 61.5308 22.4025 61.5568C22.322 61.5805 22.2309 61.603 22.1291 61.6243C22.0273 61.6432 21.9255 61.661 21.8237 61.6776C21.7219 61.6918 21.6296 61.7048 21.5467 61.7166C21.3691 61.7427 21.2141 61.7841 21.0815 61.8409C20.9489 61.8977 20.8459 61.9747 20.7725 62.0717C20.6992 62.1664 20.6625 62.2848 20.6625 62.4268C20.6625 62.6328 20.737 62.7902 20.8862 62.8991C21.0377 63.0057 21.2295 63.0589 21.4615 63.0589ZM28.1749 58.5455V59.6818H24.8901V58.5455H28.1749ZM25.6358 57.2386H27.1486V62.3239C27.1486 62.4635 27.1699 62.5724 27.2125 62.6506C27.2551 62.7263 27.3143 62.7796 27.3901 62.8104C27.4682 62.8411 27.5582 62.8565 27.66 62.8565C27.731 62.8565 27.802 62.8506 27.873 62.8388C27.9441 62.8246 27.9985 62.8139 28.0364 62.8068L28.2743 63.9325C28.1986 63.9562 28.092 63.9834 27.9547 64.0142C27.8174 64.0473 27.6505 64.0675 27.454 64.0746C27.0894 64.0888 26.7698 64.0402 26.4952 63.929C26.223 63.8177 26.0111 63.6449 25.8596 63.4105C25.708 63.1761 25.6335 62.8802 25.6358 62.5227V57.2386Z" fill="#8649E1"/>
<path d="M32.0895 64.1065C31.5284 64.1065 31.0455 63.9929 30.6406 63.7656C30.2382 63.536 29.928 63.2116 29.7102 62.7926C29.4924 62.3712 29.3835 61.8729 29.3835 61.2976C29.3835 60.7365 29.4924 60.2441 29.7102 59.8203C29.928 59.3965 30.2346 59.0663 30.63 58.8295C31.0277 58.5928 31.4941 58.4744 32.0291 58.4744C32.389 58.4744 32.724 58.5324 33.0341 58.6484C33.3466 58.7621 33.6188 58.9337 33.8509 59.1634C34.0852 59.393 34.2675 59.6818 34.3977 60.0298C34.5279 60.3755 34.593 60.7803 34.593 61.2443V61.6598H29.9872V60.7223H33.169C33.169 60.5045 33.1217 60.3116 33.027 60.1435C32.9323 59.9754 32.8009 59.844 32.6328 59.7493C32.4671 59.6522 32.2741 59.6037 32.054 59.6037C31.8243 59.6037 31.6207 59.657 31.4432 59.7635C31.268 59.8677 31.1307 60.0085 31.0312 60.1861C30.9318 60.3613 30.8809 60.5566 30.8786 60.772V61.6634C30.8786 61.9332 30.9283 62.1664 31.0277 62.3629C31.1295 62.5594 31.2727 62.7109 31.4574 62.8175C31.642 62.924 31.861 62.9773 32.1143 62.9773C32.2824 62.9773 32.4363 62.9536 32.576 62.9062C32.7157 62.8589 32.8352 62.7879 32.9347 62.6932C33.0341 62.5985 33.1098 62.4825 33.1619 62.3452L34.5611 62.4375C34.4901 62.7737 34.3445 63.0672 34.1243 63.3182C33.9065 63.5668 33.6248 63.7609 33.2791 63.9006C32.9358 64.0379 32.5393 64.1065 32.0895 64.1065ZM38.0376 66.1591C37.5476 66.1591 37.1274 66.0916 36.777 65.9567C36.429 65.8241 36.152 65.643 35.946 65.4134C35.7401 65.1837 35.6063 64.9257 35.5447 64.6392L36.9439 64.451C36.9865 64.5599 37.054 64.6617 37.1463 64.7564C37.2386 64.8511 37.3606 64.9268 37.5121 64.9837C37.666 65.0429 37.853 65.0724 38.0732 65.0724C38.4022 65.0724 38.6733 64.992 38.8864 64.831C39.1018 64.6723 39.2095 64.406 39.2095 64.032V63.0341H39.1456C39.0793 63.1856 38.9799 63.3288 38.8473 63.4638C38.7147 63.5987 38.5443 63.7088 38.3359 63.794C38.1276 63.8793 37.879 63.9219 37.5902 63.9219C37.1806 63.9219 36.8078 63.8272 36.4716 63.6378C36.1378 63.446 35.8714 63.1536 35.6726 62.7607C35.4761 62.3653 35.3778 61.8658 35.3778 61.2621C35.3778 60.6442 35.4785 60.1281 35.6797 59.7138C35.8809 59.2995 36.1484 58.9893 36.4822 58.7834C36.8184 58.5774 37.1866 58.4744 37.5866 58.4744C37.892 58.4744 38.1477 58.5265 38.3537 58.6307C38.5597 58.7325 38.7254 58.8603 38.8509 59.0142C38.9787 59.1657 39.0769 59.3149 39.1456 59.4616H39.2024V58.5455H40.7045V64.0533C40.7045 64.5173 40.5909 64.9055 40.3636 65.218C40.1364 65.5305 39.8215 65.7649 39.419 65.9212C39.0189 66.0798 38.5585 66.1591 38.0376 66.1591ZM38.0696 62.7855C38.3134 62.7855 38.5194 62.7251 38.6875 62.6044C38.858 62.4813 38.9882 62.3061 39.0781 62.0788C39.1705 61.8492 39.2166 61.5746 39.2166 61.255C39.2166 60.9354 39.1716 60.6584 39.0817 60.424C38.9917 60.1873 38.8615 60.0038 38.6911 59.8736C38.5206 59.7434 38.3134 59.6783 38.0696 59.6783C37.821 59.6783 37.6115 59.7457 37.4411 59.8807C37.2706 60.0133 37.1416 60.1979 37.054 60.4347C36.9664 60.6714 36.9226 60.9448 36.9226 61.255C36.9226 61.5698 36.9664 61.8421 37.054 62.0717C37.1439 62.299 37.273 62.4754 37.4411 62.6009C37.6115 62.724 37.821 62.7855 38.0696 62.7855ZM44.3729 64.1065C43.8213 64.1065 43.3442 63.9893 42.9418 63.755C42.5417 63.5182 42.2327 63.1892 42.0149 62.7678C41.7971 62.344 41.6882 61.8527 41.6882 61.294C41.6882 60.7306 41.7971 60.2382 42.0149 59.8168C42.2327 59.393 42.5417 59.0639 42.9418 58.8295C43.3442 58.5928 43.8213 58.4744 44.3729 58.4744C44.9245 58.4744 45.4003 58.5928 45.8004 58.8295C46.2029 59.0639 46.513 59.393 46.7308 59.8168C46.9486 60.2382 47.0575 60.7306 47.0575 61.294C47.0575 61.8527 46.9486 62.344 46.7308 62.7678C46.513 63.1892 46.2029 63.5182 45.8004 63.755C45.4003 63.9893 44.9245 64.1065 44.3729 64.1065ZM44.38 62.9347C44.6309 62.9347 44.8404 62.8636 45.0085 62.7216C45.1766 62.5772 45.3033 62.3807 45.3885 62.1321C45.4761 61.8835 45.5199 61.6006 45.5199 61.2834C45.5199 60.9661 45.4761 60.6832 45.3885 60.4347C45.3033 60.1861 45.1766 59.9896 45.0085 59.8452C44.8404 59.7008 44.6309 59.6286 44.38 59.6286C44.1267 59.6286 43.9136 59.7008 43.7408 59.8452C43.5703 59.9896 43.4413 60.1861 43.3537 60.4347C43.2685 60.6832 43.2259 60.9661 43.2259 61.2834C43.2259 61.6006 43.2685 61.8835 43.3537 62.1321C43.4413 62.3807 43.5703 62.5772 43.7408 62.7216C43.9136 62.8636 44.1267 62.9347 44.38 62.9347ZM48.0412 64V58.5455H49.5078V59.4972H49.5646C49.6641 59.1586 49.831 58.9029 50.0653 58.7301C50.2997 58.5549 50.5696 58.4673 50.875 58.4673C50.9508 58.4673 51.0324 58.4721 51.12 58.4815C51.2076 58.491 51.2846 58.504 51.3509 58.5206V59.8629C51.2798 59.8416 51.1816 59.8227 51.0561 59.8061C50.9306 59.7895 50.8158 59.7812 50.7116 59.7812C50.4891 59.7812 50.2902 59.8298 50.1151 59.9268C49.9422 60.0215 49.8049 60.1541 49.7031 60.3246C49.6037 60.495 49.554 60.6915 49.554 60.9141V64H48.0412ZM53.233 66.0455C53.0412 66.0455 52.8613 66.0301 52.6932 65.9993C52.5275 65.9709 52.3902 65.9342 52.2812 65.8892L52.6222 64.7599C52.7997 64.8144 52.9595 64.844 53.1016 64.8487C53.246 64.8535 53.3703 64.8203 53.4744 64.7493C53.581 64.6783 53.6674 64.5575 53.7337 64.3871L53.8224 64.1562L51.8658 58.5455H53.4567L54.5859 62.5511H54.6428L55.7827 58.5455H57.3842L55.2642 64.5895C55.1624 64.883 55.0239 65.1387 54.8487 65.3565C54.6759 65.5767 54.4569 65.746 54.1918 65.8643C53.9266 65.9851 53.607 66.0455 53.233 66.0455Z" fill="#DCB8FF"/>
</svg>
