<svg width="100" height="100" viewBox="0 0 100 100" fill="none" xmlns="http://www.w3.org/2000/svg">
<rect width="100" height="100" fill="white"/>
<rect x="5.5" y="10.5" width="89" height="21" rx="3.5" stroke="#8649E1"/>
<path d="M21.0682 24.1065C20.5095 24.1065 20.0289 23.9882 19.6264 23.7514C19.2263 23.5123 18.9186 23.1809 18.7031 22.7571C18.4901 22.3333 18.3835 21.8456 18.3835 21.294C18.3835 20.7353 18.4912 20.2453 18.7067 19.8239C18.9245 19.4001 19.2334 19.0698 19.6335 18.8331C20.0336 18.594 20.5095 18.4744 21.0611 18.4744C21.5369 18.4744 21.9536 18.5608 22.3111 18.7337C22.6686 18.9065 22.9515 19.1491 23.1598 19.4616C23.3681 19.7741 23.483 20.1411 23.5043 20.5625H22.0767C22.0365 20.2902 21.9299 20.0713 21.7571 19.9055C21.5866 19.7375 21.3629 19.6534 21.0859 19.6534C20.8516 19.6534 20.6468 19.7173 20.4716 19.8452C20.2988 19.9706 20.1638 20.1541 20.0668 20.3956C19.9697 20.6371 19.9212 20.9295 19.9212 21.2727C19.9212 21.6207 19.9685 21.9167 20.0632 22.1605C20.1603 22.4044 20.2964 22.5902 20.4716 22.718C20.6468 22.8459 20.8516 22.9098 21.0859 22.9098C21.2588 22.9098 21.4138 22.8743 21.5511 22.8033C21.6908 22.7322 21.8056 22.6293 21.8956 22.4943C21.9879 22.357 22.0483 22.1925 22.0767 22.0007H23.5043C23.4806 22.4174 23.367 22.7843 23.1634 23.1016C22.9621 23.4164 22.6839 23.6626 22.3288 23.8402C21.9737 24.0178 21.5535 24.1065 21.0682 24.1065ZM26.0282 24.103C25.6802 24.103 25.3701 24.0426 25.0978 23.9219C24.8256 23.7988 24.6101 23.6177 24.4515 23.3786C24.2953 23.1371 24.2172 22.8364 24.2172 22.4766C24.2172 22.1735 24.2728 21.919 24.3841 21.7131C24.4953 21.5071 24.6468 21.3414 24.8386 21.2159C25.0304 21.0904 25.2482 20.9957 25.492 20.9318C25.7382 20.8679 25.9963 20.8229 26.2662 20.7969C26.5834 20.7637 26.8391 20.733 27.0332 20.7045C27.2273 20.6738 27.3682 20.6288 27.4558 20.5696C27.5434 20.5104 27.5872 20.4228 27.5872 20.3068V20.2855C27.5872 20.0606 27.5162 19.8866 27.3741 19.7635C27.2344 19.6404 27.0356 19.5788 26.7775 19.5788C26.5053 19.5788 26.2886 19.6392 26.1277 19.7599C25.9667 19.8783 25.8601 20.0275 25.8081 20.2074L24.4089 20.0938C24.4799 19.7623 24.6196 19.4759 24.8279 19.2344C25.0363 18.9905 25.305 18.8035 25.6341 18.6733C25.9655 18.5407 26.349 18.4744 26.7846 18.4744C27.0877 18.4744 27.3777 18.5099 27.6547 18.581C27.934 18.652 28.1814 18.7621 28.3968 18.9112C28.6146 19.0604 28.7863 19.2521 28.9118 19.4865C29.0372 19.7185 29.1 19.9967 29.1 20.321V24H27.6653V23.2436H27.6227C27.5351 23.4141 27.4179 23.5644 27.2711 23.6946C27.1243 23.8224 26.948 23.9231 26.742 23.9964C26.536 24.0675 26.2981 24.103 26.0282 24.103ZM26.4615 23.0589C26.684 23.0589 26.8805 23.0152 27.051 22.9276C27.2214 22.8376 27.3552 22.7169 27.4522 22.5653C27.5493 22.4138 27.5978 22.2422 27.5978 22.0504V21.4716C27.5505 21.5024 27.4854 21.5308 27.4025 21.5568C27.322 21.5805 27.2309 21.603 27.1291 21.6243C27.0273 21.6432 26.9255 21.661 26.8237 21.6776C26.7219 21.6918 26.6296 21.7048 26.5467 21.7166C26.3691 21.7427 26.2141 21.7841 26.0815 21.8409C25.9489 21.8977 25.8459 21.9747 25.7725 22.0717C25.6992 22.1664 25.6625 22.2848 25.6625 22.4268C25.6625 22.6328 25.737 22.7902 25.8862 22.8991C26.0377 23.0057 26.2295 23.0589 26.4615 23.0589ZM33.1749 18.5455V19.6818H29.8901V18.5455H33.1749ZM30.6358 17.2386H32.1486V22.3239C32.1486 22.4635 32.1699 22.5724 32.2125 22.6506C32.2551 22.7263 32.3143 22.7796 32.3901 22.8104C32.4682 22.8411 32.5582 22.8565 32.66 22.8565C32.731 22.8565 32.802 22.8506 32.873 22.8388C32.9441 22.8246 32.9985 22.8139 33.0364 22.8068L33.2743 23.9325C33.1986 23.9562 33.092 23.9834 32.9547 24.0142C32.8174 24.0473 32.6505 24.0675 32.454 24.0746C32.0894 24.0888 31.7698 24.0402 31.4952 23.929C31.223 23.8177 31.0111 23.6449 30.8596 23.4105C30.708 23.1761 30.6335 22.8802 30.6358 22.5227V17.2386Z" fill="#8649E1"/>
<rect x="35" y="15" width="2" height="12" rx="1" fill="#8649E1"/>
<rect x="5.5" y="36.5" width="89" height="41" rx="3.5" stroke="#8649E1"/>
<path d="M21.0682 52.1065C20.5095 52.1065 20.0289 51.9882 19.6264 51.7514C19.2263 51.5123 18.9186 51.1809 18.7031 50.7571C18.4901 50.3333 18.3835 49.8456 18.3835 49.294C18.3835 48.7353 18.4912 48.2453 18.7067 47.8239C18.9245 47.4001 19.2334 47.0698 19.6335 46.8331C20.0336 46.594 20.5095 46.4744 21.0611 46.4744C21.5369 46.4744 21.9536 46.5608 22.3111 46.7337C22.6686 46.9065 22.9515 47.1491 23.1598 47.4616C23.3681 47.7741 23.483 48.1411 23.5043 48.5625H22.0767C22.0365 48.2902 21.9299 48.0713 21.7571 47.9055C21.5866 47.7375 21.3629 47.6534 21.0859 47.6534C20.8516 47.6534 20.6468 47.7173 20.4716 47.8452C20.2988 47.9706 20.1638 48.1541 20.0668 48.3956C19.9697 48.6371 19.9212 48.9295 19.9212 49.2727C19.9212 49.6207 19.9685 49.9167 20.0632 50.1605C20.1603 50.4044 20.2964 50.5902 20.4716 50.718C20.6468 50.8459 20.8516 50.9098 21.0859 50.9098C21.2588 50.9098 21.4138 50.8743 21.5511 50.8033C21.6908 50.7322 21.8056 50.6293 21.8956 50.4943C21.9879 50.357 22.0483 50.1925 22.0767 50.0007H23.5043C23.4806 50.4174 23.367 50.7843 23.1634 51.1016C22.9621 51.4164 22.6839 51.6626 22.3288 51.8402C21.9737 52.0178 21.5535 52.1065 21.0682 52.1065ZM26.0282 52.103C25.6802 52.103 25.3701 52.0426 25.0978 51.9219C24.8256 51.7988 24.6101 51.6177 24.4515 51.3786C24.2953 51.1371 24.2172 50.8364 24.2172 50.4766C24.2172 50.1735 24.2728 49.919 24.3841 49.7131C24.4953 49.5071 24.6468 49.3414 24.8386 49.2159C25.0304 49.0904 25.2482 48.9957 25.492 48.9318C25.7382 48.8679 25.9963 48.8229 26.2662 48.7969C26.5834 48.7637 26.8391 48.733 27.0332 48.7045C27.2273 48.6738 27.3682 48.6288 27.4558 48.5696C27.5434 48.5104 27.5872 48.4228 27.5872 48.3068V48.2855C27.5872 48.0606 27.5162 47.8866 27.3741 47.7635C27.2344 47.6404 27.0356 47.5788 26.7775 47.5788C26.5053 47.5788 26.2886 47.6392 26.1277 47.7599C25.9667 47.8783 25.8601 48.0275 25.8081 48.2074L24.4089 48.0938C24.4799 47.7623 24.6196 47.4759 24.8279 47.2344C25.0363 46.9905 25.305 46.8035 25.6341 46.6733C25.9655 46.5407 26.349 46.4744 26.7846 46.4744C27.0877 46.4744 27.3777 46.5099 27.6547 46.581C27.934 46.652 28.1814 46.7621 28.3968 46.9112C28.6146 47.0604 28.7863 47.2521 28.9118 47.4865C29.0372 47.7185 29.1 47.9967 29.1 48.321V52H27.6653V51.2436H27.6227C27.5351 51.4141 27.4179 51.5644 27.2711 51.6946C27.1243 51.8224 26.948 51.9231 26.742 51.9964C26.536 52.0675 26.2981 52.103 26.0282 52.103ZM26.4615 51.0589C26.684 51.0589 26.8805 51.0152 27.051 50.9276C27.2214 50.8376 27.3552 50.7169 27.4522 50.5653C27.5493 50.4138 27.5978 50.2422 27.5978 50.0504V49.4716C27.5505 49.5024 27.4854 49.5308 27.4025 49.5568C27.322 49.5805 27.2309 49.603 27.1291 49.6243C27.0273 49.6432 26.9255 49.661 26.8237 49.6776C26.7219 49.6918 26.6296 49.7048 26.5467 49.7166C26.3691 49.7427 26.2141 49.7841 26.0815 49.8409C25.9489 49.8977 25.8459 49.9747 25.7725 50.0717C25.6992 50.1664 25.6625 50.2848 25.6625 50.4268C25.6625 50.6328 25.737 50.7902 25.8862 50.8991C26.0377 51.0057 26.2295 51.0589 26.4615 51.0589ZM33.1749 46.5455V47.6818H29.8901V46.5455H33.1749ZM30.6358 45.2386H32.1486V50.3239C32.1486 50.4635 32.1699 50.5724 32.2125 50.6506C32.2551 50.7263 32.3143 50.7796 32.3901 50.8104C32.4682 50.8411 32.5582 50.8565 32.66 50.8565C32.731 50.8565 32.802 50.8506 32.873 50.8388C32.9441 50.8246 32.9985 50.8139 33.0364 50.8068L33.2743 51.9325C33.1986 51.9562 33.092 51.9834 32.9547 52.0142C32.8174 52.0473 32.6505 52.0675 32.454 52.0746C32.0894 52.0888 31.7698 52.0402 31.4952 51.929C31.223 51.8177 31.0111 51.6449 30.8596 51.4105C30.708 51.1761 30.6335 50.8802 30.6358 50.5227V45.2386Z" fill="#8649E1"/>
<path d="M36.1591 52.103C35.8111 52.103 35.5009 52.0426 35.2287 51.9219C34.9564 51.7988 34.741 51.6177 34.5824 51.3786C34.4261 51.1371 34.348 50.8364 34.348 50.4766C34.348 50.1735 34.4036 49.919 34.5149 49.7131C34.6262 49.5071 34.7777 49.3414 34.9695 49.2159C35.1612 49.0904 35.379 48.9957 35.6229 48.9318C35.8691 48.8679 36.1271 48.8229 36.397 48.7969C36.7143 48.7637 36.9699 48.733 37.1641 48.7045C37.3582 48.6738 37.4991 48.6288 37.5866 48.5696C37.6742 48.5104 37.718 48.4228 37.718 48.3068V48.2855C37.718 48.0606 37.647 47.8866 37.505 47.7635C37.3653 47.6404 37.1664 47.5788 36.9084 47.5788C36.6361 47.5788 36.4195 47.6392 36.2585 47.7599C36.0975 47.8783 35.991 48.0275 35.9389 48.2074L34.5398 48.0938C34.6108 47.7623 34.7505 47.4759 34.9588 47.2344C35.1671 46.9905 35.4358 46.8035 35.7649 46.6733C36.0964 46.5407 36.4799 46.4744 36.9155 46.4744C37.2185 46.4744 37.5085 46.5099 37.7855 46.581C38.0649 46.652 38.3123 46.7621 38.5277 46.9112C38.7455 47.0604 38.9171 47.2521 39.0426 47.4865C39.1681 47.7185 39.2308 47.9967 39.2308 48.321V52H37.7962V51.2436H37.7536C37.666 51.4141 37.5488 51.5644 37.402 51.6946C37.2552 51.8224 37.0788 51.9231 36.8729 51.9964C36.6669 52.0675 36.429 52.103 36.1591 52.103ZM36.5923 51.0589C36.8149 51.0589 37.0114 51.0152 37.1818 50.9276C37.3523 50.8376 37.486 50.7169 37.5831 50.5653C37.6802 50.4138 37.7287 50.2422 37.7287 50.0504V49.4716C37.6813 49.5024 37.6162 49.5308 37.5334 49.5568C37.4529 49.5805 37.3617 49.603 37.2599 49.6243C37.1581 49.6432 37.0563 49.661 36.9545 49.6776C36.8527 49.6918 36.7604 49.7048 36.6776 49.7166C36.5 49.7427 36.3449 49.7841 36.2124 49.8409C36.0798 49.8977 35.9768 49.9747 35.9034 50.0717C35.83 50.1664 35.7933 50.2848 35.7933 50.4268C35.7933 50.6328 35.8679 50.7902 36.017 50.8991C36.1686 51.0057 36.3603 51.0589 36.5923 51.0589ZM43.3377 46.5455V47.6818H39.9712V46.5455H43.3377ZM40.7418 52V46.1513C40.7418 45.7559 40.8188 45.428 40.9727 45.1676C41.1289 44.9072 41.342 44.7119 41.6119 44.5817C41.8817 44.4515 42.1883 44.3864 42.5316 44.3864C42.7636 44.3864 42.9755 44.4041 43.1673 44.4396C43.3614 44.4751 43.5058 44.5071 43.6005 44.5355L43.3306 45.6719C43.2714 45.6529 43.198 45.6352 43.1104 45.6186C43.0252 45.602 42.9376 45.5938 42.8477 45.5938C42.6251 45.5938 42.4701 45.6458 42.3825 45.75C42.2949 45.8518 42.2511 45.995 42.2511 46.1797V52H40.7418ZM45.622 52.103C45.274 52.103 44.9638 52.0426 44.6916 51.9219C44.4193 51.7988 44.2039 51.6177 44.0453 51.3786C43.889 51.1371 43.8109 50.8364 43.8109 50.4766C43.8109 50.1735 43.8665 49.919 43.9778 49.7131C44.0891 49.5071 44.2406 49.3414 44.4324 49.2159C44.6241 49.0904 44.8419 48.9957 45.0858 48.9318C45.332 48.8679 45.59 48.8229 45.8599 48.7969C46.1771 48.7637 46.4328 48.733 46.627 48.7045C46.8211 48.6738 46.9619 48.6288 47.0495 48.5696C47.1371 48.5104 47.1809 48.4228 47.1809 48.3068V48.2855C47.1809 48.0606 47.1099 47.8866 46.9679 47.7635C46.8282 47.6404 46.6293 47.5788 46.3713 47.5788C46.099 47.5788 45.8824 47.6392 45.7214 47.7599C45.5604 47.8783 45.4539 48.0275 45.4018 48.2074L44.0027 48.0938C44.0737 47.7623 44.2134 47.4759 44.4217 47.2344C44.63 46.9905 44.8987 46.8035 45.2278 46.6733C45.5592 46.5407 45.9428 46.4744 46.3784 46.4744C46.6814 46.4744 46.9714 46.5099 47.2484 46.581C47.5278 46.652 47.7752 46.7621 47.9906 46.9112C48.2084 47.0604 48.38 47.2521 48.5055 47.4865C48.631 47.7185 48.6937 47.9967 48.6937 48.321V52H47.2591V51.2436H47.2164C47.1288 51.4141 47.0117 51.5644 46.8649 51.6946C46.7181 51.8224 46.5417 51.9231 46.3358 51.9964C46.1298 52.0675 45.8919 52.103 45.622 52.103ZM46.0552 51.0589C46.2778 51.0589 46.4743 51.0152 46.6447 50.9276C46.8152 50.8376 46.9489 50.7169 47.046 50.5653C47.1431 50.4138 47.1916 50.2422 47.1916 50.0504V49.4716C47.1442 49.5024 47.0791 49.5308 46.9963 49.5568C46.9158 49.5805 46.8246 49.603 46.7228 49.6243C46.621 49.6432 46.5192 49.661 46.4174 49.6776C46.3156 49.6918 46.2233 49.7048 46.1404 49.7166C45.9629 49.7427 45.8078 49.7841 45.6752 49.8409C45.5427 49.8977 45.4397 49.9747 45.3663 50.0717C45.2929 50.1664 45.2562 50.2848 45.2562 50.4268C45.2562 50.6328 45.3308 50.7902 45.4799 50.8991C45.6315 51.0057 45.8232 51.0589 46.0552 51.0589ZM51.3801 44.7273V52H49.8674V44.7273H51.3801ZM56.1964 54.0455V51.1264H56.1502C56.0792 51.2779 55.9786 51.4283 55.8484 51.5774C55.7205 51.7242 55.5536 51.8461 55.3477 51.9432C55.1441 52.0402 54.8955 52.0888 54.6019 52.0888C54.1876 52.0888 53.8124 51.9822 53.4762 51.7692C53.1424 51.5537 52.8772 51.2377 52.6808 50.821C52.4866 50.402 52.3896 49.8883 52.3896 49.2798C52.3896 48.6548 52.4902 48.1352 52.6914 47.7209C52.8926 47.3042 53.1602 46.9929 53.494 46.7869C53.8301 46.5786 54.1983 46.4744 54.5984 46.4744C54.9038 46.4744 55.1583 46.5265 55.3619 46.6307C55.5678 46.7325 55.7335 46.8603 55.859 47.0142C55.9869 47.1657 56.0839 47.3149 56.1502 47.4616H56.2141V46.5455H57.7056V54.0455H56.1964ZM55.0813 50.8849C55.3252 50.8849 55.5311 50.8187 55.6992 50.6861C55.8697 50.5511 55.9999 50.3629 56.0898 50.1214C56.1822 49.88 56.2283 49.5971 56.2283 49.2727C56.2283 48.9484 56.1834 48.6667 56.0934 48.4276C56.0034 48.1884 55.8732 48.0038 55.7028 47.8736C55.5323 47.7434 55.3252 47.6783 55.0813 47.6783C54.8327 47.6783 54.6232 47.7457 54.4528 47.8807C54.2823 48.0156 54.1533 48.2027 54.0657 48.4418C53.9781 48.6809 53.9343 48.9579 53.9343 49.2727C53.9343 49.59 53.9781 49.8705 54.0657 50.1143C54.1557 50.3558 54.2847 50.5452 54.4528 50.6825C54.6232 50.8175 54.8327 50.8849 55.0813 50.8849ZM62.418 49.6776V46.5455H63.9308V52H62.4783V51.0092H62.4215C62.2984 51.3288 62.0936 51.5857 61.8072 51.7798C61.5231 51.974 61.1763 52.071 60.7667 52.071C60.4021 52.071 60.0813 51.9882 59.8043 51.8224C59.5273 51.6567 59.3107 51.4212 59.1545 51.1158C59.0006 50.8104 58.9225 50.4446 58.9201 50.0185V46.5455H60.4329V49.7486C60.4353 50.0705 60.5217 50.325 60.6921 50.5121C60.8626 50.6991 61.091 50.7926 61.3775 50.7926C61.5598 50.7926 61.7302 50.7512 61.8888 50.6683C62.0475 50.5831 62.1753 50.4576 62.2724 50.2919C62.3718 50.1262 62.4203 49.9214 62.418 49.6776ZM67.6266 52.1065C67.0655 52.1065 66.5826 51.9929 66.1777 51.7656C65.7753 51.536 65.4651 51.2116 65.2473 50.7926C65.0295 50.3712 64.9206 49.8729 64.9206 49.2976C64.9206 48.7365 65.0295 48.2441 65.2473 47.8203C65.4651 47.3965 65.7717 47.0663 66.1671 46.8295C66.5648 46.5928 67.0312 46.4744 67.5662 46.4744C67.9261 46.4744 68.2611 46.5324 68.5712 46.6484C68.8837 46.7621 69.156 46.9337 69.388 47.1634C69.6223 47.393 69.8046 47.6818 69.9348 48.0298C70.065 48.3755 70.1301 48.7803 70.1301 49.2443V49.6598H65.5243V48.7223H68.7061C68.7061 48.5045 68.6588 48.3116 68.5641 48.1435C68.4694 47.9754 68.338 47.844 68.1699 47.7493C68.0042 47.6522 67.8113 47.6037 67.5911 47.6037C67.3614 47.6037 67.1578 47.657 66.9803 47.7635C66.8051 47.8677 66.6678 48.0085 66.5684 48.1861C66.4689 48.3613 66.418 48.5566 66.4157 48.772V49.6634C66.4157 49.9332 66.4654 50.1664 66.5648 50.3629C66.6666 50.5594 66.8098 50.7109 66.9945 50.8175C67.1792 50.924 67.3981 50.9773 67.6515 50.9773C67.8195 50.9773 67.9734 50.9536 68.1131 50.9062C68.2528 50.8589 68.3723 50.7879 68.4718 50.6932C68.5712 50.5985 68.647 50.4825 68.699 50.3452L70.0982 50.4375C70.0272 50.7737 69.8816 51.0672 69.6614 51.3182C69.4436 51.5668 69.1619 51.7609 68.8162 51.9006C68.473 52.0379 68.0764 52.1065 67.6266 52.1065Z" fill="#DCB8FF"/>
<path d="M21.0682 68.1065C20.5095 68.1065 20.0289 67.9882 19.6264 67.7514C19.2263 67.5123 18.9186 67.1809 18.7031 66.7571C18.4901 66.3333 18.3835 65.8456 18.3835 65.294C18.3835 64.7353 18.4912 64.2453 18.7067 63.8239C18.9245 63.4001 19.2334 63.0698 19.6335 62.8331C20.0336 62.594 20.5095 62.4744 21.0611 62.4744C21.5369 62.4744 21.9536 62.5608 22.3111 62.7337C22.6686 62.9065 22.9515 63.1491 23.1598 63.4616C23.3681 63.7741 23.483 64.1411 23.5043 64.5625H22.0767C22.0365 64.2902 21.9299 64.0713 21.7571 63.9055C21.5866 63.7375 21.3629 63.6534 21.0859 63.6534C20.8516 63.6534 20.6468 63.7173 20.4716 63.8452C20.2988 63.9706 20.1638 64.1541 20.0668 64.3956C19.9697 64.6371 19.9212 64.9295 19.9212 65.2727C19.9212 65.6207 19.9685 65.9167 20.0632 66.1605C20.1603 66.4044 20.2964 66.5902 20.4716 66.718C20.6468 66.8459 20.8516 66.9098 21.0859 66.9098C21.2588 66.9098 21.4138 66.8743 21.5511 66.8033C21.6908 66.7322 21.8056 66.6293 21.8956 66.4943C21.9879 66.357 22.0483 66.1925 22.0767 66.0007H23.5043C23.4806 66.4174 23.367 66.7843 23.1634 67.1016C22.9621 67.4164 22.6839 67.6626 22.3288 67.8402C21.9737 68.0178 21.5535 68.1065 21.0682 68.1065ZM26.0282 68.103C25.6802 68.103 25.3701 68.0426 25.0978 67.9219C24.8256 67.7988 24.6101 67.6177 24.4515 67.3786C24.2953 67.1371 24.2172 66.8364 24.2172 66.4766C24.2172 66.1735 24.2728 65.919 24.3841 65.7131C24.4953 65.5071 24.6468 65.3414 24.8386 65.2159C25.0304 65.0904 25.2482 64.9957 25.492 64.9318C25.7382 64.8679 25.9963 64.8229 26.2662 64.7969C26.5834 64.7637 26.8391 64.733 27.0332 64.7045C27.2273 64.6738 27.3682 64.6288 27.4558 64.5696C27.5434 64.5104 27.5872 64.4228 27.5872 64.3068V64.2855C27.5872 64.0606 27.5162 63.8866 27.3741 63.7635C27.2344 63.6404 27.0356 63.5788 26.7775 63.5788C26.5053 63.5788 26.2886 63.6392 26.1277 63.7599C25.9667 63.8783 25.8601 64.0275 25.8081 64.2074L24.4089 64.0938C24.4799 63.7623 24.6196 63.4759 24.8279 63.2344C25.0363 62.9905 25.305 62.8035 25.6341 62.6733C25.9655 62.5407 26.349 62.4744 26.7846 62.4744C27.0877 62.4744 27.3777 62.5099 27.6547 62.581C27.934 62.652 28.1814 62.7621 28.3968 62.9112C28.6146 63.0604 28.7863 63.2521 28.9118 63.4865C29.0372 63.7185 29.1 63.9967 29.1 64.321V68H27.6653V67.2436H27.6227C27.5351 67.4141 27.4179 67.5644 27.2711 67.6946C27.1243 67.8224 26.948 67.9231 26.742 67.9964C26.536 68.0675 26.2981 68.103 26.0282 68.103ZM26.4615 67.0589C26.684 67.0589 26.8805 67.0152 27.051 66.9276C27.2214 66.8376 27.3552 66.7169 27.4522 66.5653C27.5493 66.4138 27.5978 66.2422 27.5978 66.0504V65.4716C27.5505 65.5024 27.4854 65.5308 27.4025 65.5568C27.322 65.5805 27.2309 65.603 27.1291 65.6243C27.0273 65.6432 26.9255 65.661 26.8237 65.6776C26.7219 65.6918 26.6296 65.7048 26.5467 65.7166C26.3691 65.7427 26.2141 65.7841 26.0815 65.8409C25.9489 65.8977 25.8459 65.9747 25.7725 66.0717C25.6992 66.1664 25.6625 66.2848 25.6625 66.4268C25.6625 66.6328 25.737 66.7902 25.8862 66.8991C26.0377 67.0057 26.2295 67.0589 26.4615 67.0589ZM33.1749 62.5455V63.6818H29.8901V62.5455H33.1749ZM30.6358 61.2386H32.1486V66.3239C32.1486 66.4635 32.1699 66.5724 32.2125 66.6506C32.2551 66.7263 32.3143 66.7796 32.3901 66.8104C32.4682 66.8411 32.5582 66.8565 32.66 66.8565C32.731 66.8565 32.802 66.8506 32.873 66.8388C32.9441 66.8246 32.9985 66.8139 33.0364 66.8068L33.2743 67.9325C33.1986 67.9562 33.092 67.9834 32.9547 68.0142C32.8174 68.0473 32.6505 68.0675 32.454 68.0746C32.0894 68.0888 31.7698 68.0402 31.4952 67.929C31.223 67.8177 31.0111 67.6449 30.8596 67.4105C30.708 67.1761 30.6335 66.8802 30.6358 66.5227V61.2386Z" fill="#8649E1"/>
<path d="M37.0895 68.1065C36.5284 68.1065 36.0455 67.9929 35.6406 67.7656C35.2382 67.536 34.928 67.2116 34.7102 66.7926C34.4924 66.3712 34.3835 65.8729 34.3835 65.2976C34.3835 64.7365 34.4924 64.2441 34.7102 63.8203C34.928 63.3965 35.2346 63.0663 35.63 62.8295C36.0277 62.5928 36.4941 62.4744 37.0291 62.4744C37.389 62.4744 37.724 62.5324 38.0341 62.6484C38.3466 62.7621 38.6188 62.9337 38.8509 63.1634C39.0852 63.393 39.2675 63.6818 39.3977 64.0298C39.5279 64.3755 39.593 64.7803 39.593 65.2443V65.6598H34.9872V64.7223H38.169C38.169 64.5045 38.1217 64.3116 38.027 64.1435C37.9323 63.9754 37.8009 63.844 37.6328 63.7493C37.4671 63.6522 37.2741 63.6037 37.054 63.6037C36.8243 63.6037 36.6207 63.657 36.4432 63.7635C36.268 63.8677 36.1307 64.0085 36.0312 64.1861C35.9318 64.3613 35.8809 64.5566 35.8786 64.772V65.6634C35.8786 65.9332 35.9283 66.1664 36.0277 66.3629C36.1295 66.5594 36.2727 66.7109 36.4574 66.8175C36.642 66.924 36.861 66.9773 37.1143 66.9773C37.2824 66.9773 37.4363 66.9536 37.576 66.9062C37.7157 66.8589 37.8352 66.7879 37.9347 66.6932C38.0341 66.5985 38.1098 66.4825 38.1619 66.3452L39.5611 66.4375C39.4901 66.7737 39.3445 67.0672 39.1243 67.3182C38.9065 67.5668 38.6248 67.7609 38.2791 67.9006C37.9358 68.0379 37.5393 68.1065 37.0895 68.1065ZM43.0376 70.1591C42.5476 70.1591 42.1274 70.0916 41.777 69.9567C41.429 69.8241 41.152 69.643 40.946 69.4134C40.7401 69.1837 40.6063 68.9257 40.5447 68.6392L41.9439 68.451C41.9865 68.5599 42.054 68.6617 42.1463 68.7564C42.2386 68.8511 42.3606 68.9268 42.5121 68.9837C42.666 69.0429 42.853 69.0724 43.0732 69.0724C43.4022 69.0724 43.6733 68.992 43.8864 68.831C44.1018 68.6723 44.2095 68.406 44.2095 68.032V67.0341H44.1456C44.0793 67.1856 43.9799 67.3288 43.8473 67.4638C43.7147 67.5987 43.5443 67.7088 43.3359 67.794C43.1276 67.8793 42.879 67.9219 42.5902 67.9219C42.1806 67.9219 41.8078 67.8272 41.4716 67.6378C41.1378 67.446 40.8714 67.1536 40.6726 66.7607C40.4761 66.3653 40.3778 65.8658 40.3778 65.2621C40.3778 64.6442 40.4785 64.1281 40.6797 63.7138C40.8809 63.2995 41.1484 62.9893 41.4822 62.7834C41.8184 62.5774 42.1866 62.4744 42.5866 62.4744C42.892 62.4744 43.1477 62.5265 43.3537 62.6307C43.5597 62.7325 43.7254 62.8603 43.8509 63.0142C43.9787 63.1657 44.0769 63.3149 44.1456 63.4616H44.2024V62.5455H45.7045V68.0533C45.7045 68.5173 45.5909 68.9055 45.3636 69.218C45.1364 69.5305 44.8215 69.7649 44.419 69.9212C44.0189 70.0798 43.5585 70.1591 43.0376 70.1591ZM43.0696 66.7855C43.3134 66.7855 43.5194 66.7251 43.6875 66.6044C43.858 66.4813 43.9882 66.3061 44.0781 66.0788C44.1705 65.8492 44.2166 65.5746 44.2166 65.255C44.2166 64.9354 44.1716 64.6584 44.0817 64.424C43.9917 64.1873 43.8615 64.0038 43.6911 63.8736C43.5206 63.7434 43.3134 63.6783 43.0696 63.6783C42.821 63.6783 42.6115 63.7457 42.4411 63.8807C42.2706 64.0133 42.1416 64.1979 42.054 64.4347C41.9664 64.6714 41.9226 64.9448 41.9226 65.255C41.9226 65.5698 41.9664 65.8421 42.054 66.0717C42.1439 66.299 42.273 66.4754 42.4411 66.6009C42.6115 66.724 42.821 66.7855 43.0696 66.7855ZM49.3729 68.1065C48.8213 68.1065 48.3442 67.9893 47.9418 67.755C47.5417 67.5182 47.2327 67.1892 47.0149 66.7678C46.7971 66.344 46.6882 65.8527 46.6882 65.294C46.6882 64.7306 46.7971 64.2382 47.0149 63.8168C47.2327 63.393 47.5417 63.0639 47.9418 62.8295C48.3442 62.5928 48.8213 62.4744 49.3729 62.4744C49.9245 62.4744 50.4003 62.5928 50.8004 62.8295C51.2029 63.0639 51.513 63.393 51.7308 63.8168C51.9486 64.2382 52.0575 64.7306 52.0575 65.294C52.0575 65.8527 51.9486 66.344 51.7308 66.7678C51.513 67.1892 51.2029 67.5182 50.8004 67.755C50.4003 67.9893 49.9245 68.1065 49.3729 68.1065ZM49.38 66.9347C49.6309 66.9347 49.8404 66.8636 50.0085 66.7216C50.1766 66.5772 50.3033 66.3807 50.3885 66.1321C50.4761 65.8835 50.5199 65.6006 50.5199 65.2834C50.5199 64.9661 50.4761 64.6832 50.3885 64.4347C50.3033 64.1861 50.1766 63.9896 50.0085 63.8452C49.8404 63.7008 49.6309 63.6286 49.38 63.6286C49.1267 63.6286 48.9136 63.7008 48.7408 63.8452C48.5703 63.9896 48.4413 64.1861 48.3537 64.4347C48.2685 64.6832 48.2259 64.9661 48.2259 65.2834C48.2259 65.6006 48.2685 65.8835 48.3537 66.1321C48.4413 66.3807 48.5703 66.5772 48.7408 66.7216C48.9136 66.8636 49.1267 66.9347 49.38 66.9347ZM53.0412 68V62.5455H54.5078V63.4972H54.5646C54.6641 63.1586 54.831 62.9029 55.0653 62.7301C55.2997 62.5549 55.5696 62.4673 55.875 62.4673C55.9508 62.4673 56.0324 62.4721 56.12 62.4815C56.2076 62.491 56.2846 62.504 56.3509 62.5206V63.8629C56.2798 63.8416 56.1816 63.8227 56.0561 63.8061C55.9306 63.7895 55.8158 63.7812 55.7116 63.7812C55.4891 63.7812 55.2902 63.8298 55.1151 63.9268C54.9422 64.0215 54.8049 64.1541 54.7031 64.3246C54.6037 64.495 54.554 64.6915 54.554 64.9141V68H53.0412ZM58.233 70.0455C58.0412 70.0455 57.8613 70.0301 57.6932 69.9993C57.5275 69.9709 57.3902 69.9342 57.2812 69.8892L57.6222 68.7599C57.7997 68.8144 57.9595 68.844 58.1016 68.8487C58.246 68.8535 58.3703 68.8203 58.4744 68.7493C58.581 68.6783 58.6674 68.5575 58.7337 68.3871L58.8224 68.1562L56.8658 62.5455H58.4567L59.5859 66.5511H59.6428L60.7827 62.5455H62.3842L60.2642 68.5895C60.1624 68.883 60.0239 69.1387 59.8487 69.3565C59.6759 69.5767 59.4569 69.746 59.1918 69.8643C58.9266 69.9851 58.607 70.0455 58.233 70.0455Z" fill="#DCB8FF"/>
</svg>
