<svg xmlns="http://www.w3.org/2000/svg" width="100" height="28" fill="none" viewBox="0 0 100 28">
  <path fill="#fff" d="M0 4a4 4 0 0 1 4-4h92a4 4 0 0 1 4 4v20a4 4 0 0 1-4 4H4a4 4 0 0 1-4-4V4Z"/>
  <path fill="#C4C7CF" fill-rule="evenodd" d="M96 2H4a2 2 0 0 0-2 2v20a2 2 0 0 0 2 2h92a2 2 0 0 0 2-2V4a2 2 0 0 0-2-2ZM4 0a4 4 0 0 0-4 4v20a4 4 0 0 0 4 4h92a4 4 0 0 0 4-4V4a4 4 0 0 0-4-4H4Z" clip-rule="evenodd"/>
  <path fill="#8A8E9B" d="M12.557 10.364V8.819h8.123v1.546h-3.147V19h-1.83v-8.636h-3.146ZM21.374 19v-7.636h1.745v1.272h.08c.139-.44.377-.78.715-1.019a1.97 1.97 0 0 1 1.169-.363c.1 0 .21.005.333.015.126.007.23.019.313.035v1.656a1.897 1.897 0 0 0-.363-.07 3.34 3.34 0 0 0-.472-.035 1.82 1.82 0 0 0-.885.214c-.259.14-.462.333-.612.582-.149.248-.223.535-.223.86V19h-1.8ZM26.925 19v-7.636h1.8V19h-1.8Zm.905-8.72a1.05 1.05 0 0 1-.736-.283.913.913 0 0 1-.309-.691c0-.272.103-.503.309-.691a1.04 1.04 0 0 1 .736-.289c.288 0 .533.096.735.289.206.188.309.419.309.69a.913.913 0 0 1-.309.692 1.038 1.038 0 0 1-.735.283ZM33.896 22.023c-.646 0-1.201-.088-1.665-.264-.464-.172-.837-.404-1.119-.696a2.41 2.41 0 0 1-.587-.97l1.621-.392c.073.15.18.297.318.443.14.149.327.271.562.368.239.099.539.149.9.149.51 0 .933-.125 1.268-.373.334-.245.502-.65.502-1.213v-1.447h-.09a2.556 2.556 0 0 1-.407.572c-.176.195-.41.36-.701.492-.289.133-.652.199-1.09.199a3.138 3.138 0 0 1-1.595-.413c-.474-.278-.852-.693-1.133-1.243-.279-.553-.418-1.246-.418-2.078 0-.838.14-1.546.418-2.123.281-.58.66-1.019 1.138-1.317a2.926 2.926 0 0 1 1.596-.453c.447 0 .815.077 1.104.23.291.148.523.329.696.541.172.209.303.406.392.592h.1v-1.263h1.775v7.76c0 .653-.156 1.194-.468 1.621-.311.428-.737.748-1.277.96-.54.212-1.154.318-1.84.318Zm.015-4.544c.381 0 .706-.093.974-.278.269-.186.473-.453.612-.801.14-.348.209-.766.209-1.253 0-.48-.07-.901-.209-1.263-.136-.36-.338-.64-.606-.84-.266-.202-.592-.303-.98-.303-.401 0-.736.104-1.004.313-.269.209-.47.496-.607.86a3.485 3.485 0 0 0-.204 1.233c0 .467.068.877.204 1.228.14.348.343.62.612.816.272.192.605.288 1 .288ZM42.646 22.023c-.646 0-1.201-.088-1.665-.264-.464-.172-.837-.404-1.119-.696a2.41 2.41 0 0 1-.587-.97l1.621-.392c.073.15.18.297.318.443.14.149.327.271.562.368.239.099.539.149.9.149.51 0 .933-.125 1.268-.373.334-.245.502-.65.502-1.213v-1.447h-.09a2.556 2.556 0 0 1-.407.572c-.176.195-.41.36-.701.492-.289.133-.652.199-1.09.199a3.138 3.138 0 0 1-1.595-.413c-.474-.278-.852-.693-1.134-1.243-.278-.553-.417-1.246-.417-2.078 0-.838.14-1.546.417-2.123.282-.58.662-1.019 1.139-1.317a2.926 2.926 0 0 1 1.596-.453c.447 0 .815.077 1.104.23.291.148.523.329.696.541.172.209.303.406.392.592h.1v-1.263h1.775v7.76c0 .653-.156 1.194-.468 1.621-.311.428-.737.748-1.277.96-.54.212-1.154.318-1.84.318Zm.015-4.544c.381 0 .706-.093.974-.278.269-.186.473-.453.612-.801.14-.348.209-.766.209-1.253 0-.48-.07-.901-.209-1.263-.136-.36-.338-.64-.606-.84-.266-.202-.592-.303-.98-.303-.401 0-.736.104-1.004.313-.269.209-.47.496-.607.86a3.485 3.485 0 0 0-.204 1.233c0 .467.068.877.204 1.228.14.348.343.62.612.816.272.192.605.288 1 .288ZM51.456 19.15c-.766 0-1.427-.16-1.984-.478a3.232 3.232 0 0 1-1.278-1.362c-.298-.59-.447-1.284-.447-2.083 0-.786.15-1.475.447-2.068a3.384 3.384 0 0 1 1.263-1.393c.54-.334 1.175-.502 1.904-.502.471 0 .915.077 1.333.23.42.148.792.38 1.113.695.325.315.58.716.766 1.203.186.484.278 1.06.278 1.73v.552h-6.259v-1.213h4.534a1.935 1.935 0 0 0-.223-.92 1.626 1.626 0 0 0-.612-.641 1.72 1.72 0 0 0-.905-.234c-.368 0-.69.09-.97.269a1.85 1.85 0 0 0-.65.696c-.153.285-.23.598-.234.94v1.058c0 .445.081.826.243 1.144.163.315.39.557.681.726.292.166.634.248 1.025.248.261 0 .498-.036.71-.109.213-.076.397-.187.552-.333.156-.146.274-.327.353-.542l1.68.189a2.619 2.619 0 0 1-.606 1.163 2.957 2.957 0 0 1-1.133.766c-.46.179-.988.268-1.581.268ZM56.374 19v-7.636h1.745v1.272h.08c.139-.44.377-.78.715-1.019a1.97 1.97 0 0 1 1.169-.363c.1 0 .21.005.333.015.126.007.23.019.313.035v1.656a1.897 1.897 0 0 0-.363-.07 3.34 3.34 0 0 0-.472-.035 1.82 1.82 0 0 0-.885.214c-.259.14-.462.333-.612.582-.149.248-.223.535-.223.86V19h-1.8Z"/>
  <path fill="#8A8E9B" fill-rule="evenodd" d="M75.293 12.293a1 1 0 0 1 1.414 0L80 15.586l3.293-3.293a1 1 0 0 1 1.414 1.414l-4 4a1 1 0 0 1-1.414 0l-4-4a1 1 0 0 1 0-1.414Z" clip-rule="evenodd"/>
</svg>
