<svg width="100" height="100" viewBox="0 0 100 100" fill="none" xmlns="http://www.w3.org/2000/svg">
<rect width="100" height="100" fill="white"/>
<rect x="9.5" y="36.5" width="81" height="27" rx="3.5" fill="#F9F2FF" stroke="#8649E1"/>
<path fill-rule="evenodd" clip-rule="evenodd" d="M73.2929 48.2929C73.6834 47.9024 74.3166 47.9024 74.7071 48.2929L78 51.5858L81.2929 48.2929C81.6834 47.9024 82.3166 47.9024 82.7071 48.2929C83.0976 48.6834 83.0976 49.3166 82.7071 49.7071L78.7071 53.7071C78.3166 54.0976 77.6834 54.0976 77.2929 53.7071L73.2929 49.7071C72.9024 49.3166 72.9024 48.6834 73.2929 48.2929Z" fill="#8649E1"/>
<path d="M21.4261 46.794V45.2727H28.5938V46.794H25.9219V54H24.098V46.794H21.4261ZM29.0604 54V47.4545H30.8203V48.5966H30.8885C31.0078 48.1903 31.2081 47.8835 31.4893 47.6761C31.7706 47.4659 32.0945 47.3608 32.4609 47.3608C32.5518 47.3608 32.6499 47.3665 32.755 47.3778C32.8601 47.3892 32.9524 47.4048 33.032 47.4247V49.0355C32.9467 49.0099 32.8288 48.9872 32.6783 48.9673C32.5277 48.9474 32.3899 48.9375 32.2649 48.9375C31.9979 48.9375 31.7592 48.9957 31.549 49.1122C31.3416 49.2259 31.1768 49.3849 31.0547 49.5895C30.9354 49.794 30.8757 50.0298 30.8757 50.2969V54H29.0604ZM33.9705 54V47.4545H35.7859V54H33.9705ZM34.8825 46.6108C34.6126 46.6108 34.381 46.5213 34.1879 46.3423C33.9975 46.1605 33.9023 45.9432 33.9023 45.6903C33.9023 45.4403 33.9975 45.2259 34.1879 45.0469C34.381 44.8651 34.6126 44.7741 34.8825 44.7741C35.1523 44.7741 35.3825 44.8651 35.5728 45.0469C35.766 45.2259 35.8626 45.4403 35.8626 45.6903C35.8626 45.9432 35.766 46.1605 35.5728 46.3423C35.3825 46.5213 35.1523 46.6108 34.8825 46.6108ZM40.1889 56.5909C39.6009 56.5909 39.0966 56.5099 38.6761 56.348C38.2585 56.1889 37.9261 55.9716 37.679 55.696C37.4318 55.4205 37.2713 55.1108 37.1974 54.767L38.8764 54.5412C38.9276 54.6719 39.0085 54.794 39.1193 54.9077C39.2301 55.0213 39.3764 55.1122 39.5582 55.1804C39.7429 55.2514 39.9673 55.2869 40.2315 55.2869C40.6264 55.2869 40.9517 55.1903 41.2074 54.9972C41.4659 54.8068 41.5952 54.4872 41.5952 54.0384V52.8409H41.5185C41.4389 53.0227 41.3196 53.1946 41.1605 53.3565C41.0014 53.5185 40.7969 53.6506 40.5469 53.7528C40.2969 53.8551 39.9986 53.9062 39.652 53.9062C39.1605 53.9062 38.7131 53.7926 38.3097 53.5653C37.9091 53.3352 37.5895 52.9844 37.3509 52.5128C37.1151 52.0384 36.9972 51.4389 36.9972 50.7145C36.9972 49.973 37.1179 49.3537 37.3594 48.8565C37.6009 48.3594 37.9219 47.9872 38.3224 47.7401C38.7259 47.4929 39.1676 47.3693 39.6477 47.3693C40.0142 47.3693 40.321 47.4318 40.5682 47.5568C40.8153 47.679 41.0142 47.8324 41.1648 48.017C41.3182 48.1989 41.4361 48.3778 41.5185 48.554H41.5866V47.4545H43.3892V54.0639C43.3892 54.6207 43.2528 55.0866 42.9801 55.4616C42.7074 55.8366 42.3295 56.1179 41.8466 56.3054C41.3665 56.4957 40.8139 56.5909 40.1889 56.5909ZM40.2273 52.5426C40.5199 52.5426 40.767 52.4702 40.9688 52.3253C41.1733 52.1776 41.3295 51.9673 41.4375 51.6946C41.5483 51.419 41.6037 51.0895 41.6037 50.706C41.6037 50.3224 41.5497 49.9901 41.4418 49.7088C41.3338 49.4247 41.1776 49.2045 40.973 49.0483C40.7685 48.892 40.5199 48.8139 40.2273 48.8139C39.929 48.8139 39.6776 48.8949 39.473 49.0568C39.2685 49.2159 39.1136 49.4375 39.0085 49.7216C38.9034 50.0057 38.8509 50.3338 38.8509 50.706C38.8509 51.0838 38.9034 51.4105 39.0085 51.6861C39.1165 51.9588 39.2713 52.1705 39.473 52.321C39.6776 52.4687 39.929 52.5426 40.2273 52.5426ZM47.7827 56.5909C47.1946 56.5909 46.6903 56.5099 46.2699 56.348C45.8523 56.1889 45.5199 55.9716 45.2727 55.696C45.0256 55.4205 44.8651 55.1108 44.7912 54.767L46.4702 54.5412C46.5213 54.6719 46.6023 54.794 46.7131 54.9077C46.8239 55.0213 46.9702 55.1122 47.152 55.1804C47.3366 55.2514 47.5611 55.2869 47.8253 55.2869C48.2202 55.2869 48.5455 55.1903 48.8011 54.9972C49.0597 54.8068 49.1889 54.4872 49.1889 54.0384V52.8409H49.1122C49.0327 53.0227 48.9134 53.1946 48.7543 53.3565C48.5952 53.5185 48.3906 53.6506 48.1406 53.7528C47.8906 53.8551 47.5923 53.9062 47.2457 53.9062C46.7543 53.9062 46.3068 53.7926 45.9034 53.5653C45.5028 53.3352 45.1832 52.9844 44.9446 52.5128C44.7088 52.0384 44.5909 51.4389 44.5909 50.7145C44.5909 49.973 44.7116 49.3537 44.9531 48.8565C45.1946 48.3594 45.5156 47.9872 45.9162 47.7401C46.3196 47.4929 46.7614 47.3693 47.2415 47.3693C47.608 47.3693 47.9148 47.4318 48.1619 47.5568C48.4091 47.679 48.608 47.8324 48.7585 48.017C48.9119 48.1989 49.0298 48.3778 49.1122 48.554H49.1804V47.4545H50.983V54.0639C50.983 54.6207 50.8466 55.0866 50.5739 55.4616C50.3011 55.8366 49.9233 56.1179 49.4403 56.3054C48.9602 56.4957 48.4077 56.5909 47.7827 56.5909ZM47.821 52.5426C48.1136 52.5426 48.3608 52.4702 48.5625 52.3253C48.767 52.1776 48.9233 51.9673 49.0312 51.6946C49.142 51.419 49.1974 51.0895 49.1974 50.706C49.1974 50.3224 49.1435 49.9901 49.0355 49.7088C48.9276 49.4247 48.7713 49.2045 48.5668 49.0483C48.3622 48.892 48.1136 48.8139 47.821 48.8139C47.5227 48.8139 47.2713 48.8949 47.0668 49.0568C46.8622 49.2159 46.7074 49.4375 46.6023 49.7216C46.4972 50.0057 46.4446 50.3338 46.4446 50.706C46.4446 51.0838 46.4972 51.4105 46.6023 51.6861C46.7102 51.9588 46.8651 52.1705 47.0668 52.321C47.2713 52.4687 47.5227 52.5426 47.821 52.5426ZM55.4105 54.1278C54.7372 54.1278 54.1577 53.9915 53.6719 53.7188C53.1889 53.4432 52.8168 53.054 52.5554 52.5511C52.294 52.0455 52.1634 51.4474 52.1634 50.7571C52.1634 50.0838 52.294 49.4929 52.5554 48.9844C52.8168 48.4759 53.1847 48.0795 53.6591 47.7955C54.1364 47.5114 54.696 47.3693 55.3381 47.3693C55.7699 47.3693 56.1719 47.4389 56.544 47.5781C56.919 47.7145 57.2457 47.9205 57.5241 48.196C57.8054 48.4716 58.0241 48.8182 58.1804 49.2358C58.3366 49.6506 58.4148 50.1364 58.4148 50.6932V51.1918H52.8878V50.0668H56.706C56.706 49.8054 56.6491 49.5739 56.5355 49.3722C56.4219 49.1705 56.2642 49.0128 56.0625 48.8991C55.8636 48.7827 55.6321 48.7244 55.3679 48.7244C55.0923 48.7244 54.848 48.7884 54.6349 48.9162C54.4247 49.0412 54.2599 49.2102 54.1406 49.4233C54.0213 49.6335 53.9602 49.8679 53.9574 50.1264V51.196C53.9574 51.5199 54.017 51.7997 54.1364 52.0355C54.2585 52.2713 54.4304 52.4531 54.652 52.581C54.8736 52.7088 55.1364 52.7727 55.4403 52.7727C55.642 52.7727 55.8267 52.7443 55.9943 52.6875C56.1619 52.6307 56.3054 52.5455 56.4247 52.4318C56.544 52.3182 56.6349 52.179 56.6974 52.0142L58.3764 52.125C58.2912 52.5284 58.1165 52.8807 57.8523 53.1818C57.5909 53.4801 57.2528 53.7131 56.8381 53.8807C56.4261 54.0455 55.9503 54.1278 55.4105 54.1278ZM59.5994 54V47.4545H61.3594V48.5966H61.4276C61.5469 48.1903 61.7472 47.8835 62.0284 47.6761C62.3097 47.4659 62.6335 47.3608 63 47.3608C63.0909 47.3608 63.1889 47.3665 63.294 47.3778C63.3991 47.3892 63.4915 47.4048 63.571 47.4247V49.0355C63.4858 49.0099 63.3679 48.9872 63.2173 48.9673C63.0668 48.9474 62.929 48.9375 62.804 48.9375C62.5369 48.9375 62.2983 48.9957 62.0881 49.1122C61.8807 49.2259 61.7159 49.3849 61.5938 49.5895C61.4744 49.794 61.4148 50.0298 61.4148 50.2969V54H59.5994Z" fill="#8649E1"/>
</svg>
