<svg width="80" height="80" viewBox="0 0 80 80" fill="none" xmlns="http://www.w3.org/2000/svg">
<rect width="80" height="80" fill="white"/>
<rect x="4.5" y="26.5" width="71" height="27" rx="3.5" fill="#F9F2FF" stroke="#8649E1"/>
<path fill-rule="evenodd" clip-rule="evenodd" d="M58.2929 38.2929C58.6834 37.9024 59.3166 37.9024 59.7071 38.2929L63 41.5858L66.2929 38.2929C66.6834 37.9024 67.3166 37.9024 67.7071 38.2929C68.0976 38.6834 68.0976 39.3166 67.7071 39.7071L63.7071 43.7071C63.3166 44.0976 62.6834 44.0976 62.2929 43.7071L58.2929 39.7071C57.9024 39.3166 57.9024 38.6834 58.2929 38.2929Z" fill="#8649E1"/>
<path d="M12.4261 36.794V35.2727H19.5938V36.794H16.9219V44H15.098V36.794H12.4261ZM20.0604 44V37.4545H21.8203V38.5966H21.8885C22.0078 38.1903 22.2081 37.8835 22.4893 37.6761C22.7706 37.4659 23.0945 37.3608 23.4609 37.3608C23.5518 37.3608 23.6499 37.3665 23.755 37.3778C23.8601 37.3892 23.9524 37.4048 24.032 37.4247V39.0355C23.9467 39.0099 23.8288 38.9872 23.6783 38.9673C23.5277 38.9474 23.3899 38.9375 23.2649 38.9375C22.9979 38.9375 22.7592 38.9957 22.549 39.1122C22.3416 39.2259 22.1768 39.3849 22.0547 39.5895C21.9354 39.794 21.8757 40.0298 21.8757 40.2969V44H20.0604ZM24.9705 44V37.4545H26.7859V44H24.9705ZM25.8825 36.6108C25.6126 36.6108 25.381 36.5213 25.1879 36.3423C24.9975 36.1605 24.9023 35.9432 24.9023 35.6903C24.9023 35.4403 24.9975 35.2259 25.1879 35.0469C25.381 34.8651 25.6126 34.7741 25.8825 34.7741C26.1523 34.7741 26.3825 34.8651 26.5728 35.0469C26.766 35.2259 26.8626 35.4403 26.8626 35.6903C26.8626 35.9432 26.766 36.1605 26.5728 36.3423C26.3825 36.5213 26.1523 36.6108 25.8825 36.6108ZM31.1889 46.5909C30.6009 46.5909 30.0966 46.5099 29.6761 46.348C29.2585 46.1889 28.9261 45.9716 28.679 45.696C28.4318 45.4205 28.2713 45.1108 28.1974 44.767L29.8764 44.5412C29.9276 44.6719 30.0085 44.794 30.1193 44.9077C30.2301 45.0213 30.3764 45.1122 30.5582 45.1804C30.7429 45.2514 30.9673 45.2869 31.2315 45.2869C31.6264 45.2869 31.9517 45.1903 32.2074 44.9972C32.4659 44.8068 32.5952 44.4872 32.5952 44.0384V42.8409H32.5185C32.4389 43.0227 32.3196 43.1946 32.1605 43.3565C32.0014 43.5185 31.7969 43.6506 31.5469 43.7528C31.2969 43.8551 30.9986 43.9062 30.652 43.9062C30.1605 43.9062 29.7131 43.7926 29.3097 43.5653C28.9091 43.3352 28.5895 42.9844 28.3509 42.5128C28.1151 42.0384 27.9972 41.4389 27.9972 40.7145C27.9972 39.973 28.1179 39.3537 28.3594 38.8565C28.6009 38.3594 28.9219 37.9872 29.3224 37.7401C29.7259 37.4929 30.1676 37.3693 30.6477 37.3693C31.0142 37.3693 31.321 37.4318 31.5682 37.5568C31.8153 37.679 32.0142 37.8324 32.1648 38.017C32.3182 38.1989 32.4361 38.3778 32.5185 38.554H32.5866V37.4545H34.3892V44.0639C34.3892 44.6207 34.2528 45.0866 33.9801 45.4616C33.7074 45.8366 33.3295 46.1179 32.8466 46.3054C32.3665 46.4957 31.8139 46.5909 31.1889 46.5909ZM31.2273 42.5426C31.5199 42.5426 31.767 42.4702 31.9688 42.3253C32.1733 42.1776 32.3295 41.9673 32.4375 41.6946C32.5483 41.419 32.6037 41.0895 32.6037 40.706C32.6037 40.3224 32.5497 39.9901 32.4418 39.7088C32.3338 39.4247 32.1776 39.2045 31.973 39.0483C31.7685 38.892 31.5199 38.8139 31.2273 38.8139C30.929 38.8139 30.6776 38.8949 30.473 39.0568C30.2685 39.2159 30.1136 39.4375 30.0085 39.7216C29.9034 40.0057 29.8509 40.3338 29.8509 40.706C29.8509 41.0838 29.9034 41.4105 30.0085 41.6861C30.1165 41.9588 30.2713 42.1705 30.473 42.321C30.6776 42.4687 30.929 42.5426 31.2273 42.5426ZM38.7827 46.5909C38.1946 46.5909 37.6903 46.5099 37.2699 46.348C36.8523 46.1889 36.5199 45.9716 36.2727 45.696C36.0256 45.4205 35.8651 45.1108 35.7912 44.767L37.4702 44.5412C37.5213 44.6719 37.6023 44.794 37.7131 44.9077C37.8239 45.0213 37.9702 45.1122 38.152 45.1804C38.3366 45.2514 38.5611 45.2869 38.8253 45.2869C39.2202 45.2869 39.5455 45.1903 39.8011 44.9972C40.0597 44.8068 40.1889 44.4872 40.1889 44.0384V42.8409H40.1122C40.0327 43.0227 39.9134 43.1946 39.7543 43.3565C39.5952 43.5185 39.3906 43.6506 39.1406 43.7528C38.8906 43.8551 38.5923 43.9062 38.2457 43.9062C37.7543 43.9062 37.3068 43.7926 36.9034 43.5653C36.5028 43.3352 36.1832 42.9844 35.9446 42.5128C35.7088 42.0384 35.5909 41.4389 35.5909 40.7145C35.5909 39.973 35.7116 39.3537 35.9531 38.8565C36.1946 38.3594 36.5156 37.9872 36.9162 37.7401C37.3196 37.4929 37.7614 37.3693 38.2415 37.3693C38.608 37.3693 38.9148 37.4318 39.1619 37.5568C39.4091 37.679 39.608 37.8324 39.7585 38.017C39.9119 38.1989 40.0298 38.3778 40.1122 38.554H40.1804V37.4545H41.983V44.0639C41.983 44.6207 41.8466 45.0866 41.5739 45.4616C41.3011 45.8366 40.9233 46.1179 40.4403 46.3054C39.9602 46.4957 39.4077 46.5909 38.7827 46.5909ZM38.821 42.5426C39.1136 42.5426 39.3608 42.4702 39.5625 42.3253C39.767 42.1776 39.9233 41.9673 40.0312 41.6946C40.142 41.419 40.1974 41.0895 40.1974 40.706C40.1974 40.3224 40.1435 39.9901 40.0355 39.7088C39.9276 39.4247 39.7713 39.2045 39.5668 39.0483C39.3622 38.892 39.1136 38.8139 38.821 38.8139C38.5227 38.8139 38.2713 38.8949 38.0668 39.0568C37.8622 39.2159 37.7074 39.4375 37.6023 39.7216C37.4972 40.0057 37.4446 40.3338 37.4446 40.706C37.4446 41.0838 37.4972 41.4105 37.6023 41.6861C37.7102 41.9588 37.8651 42.1705 38.0668 42.321C38.2713 42.4687 38.5227 42.5426 38.821 42.5426ZM46.4105 44.1278C45.7372 44.1278 45.1577 43.9915 44.6719 43.7188C44.1889 43.4432 43.8168 43.054 43.5554 42.5511C43.294 42.0455 43.1634 41.4474 43.1634 40.7571C43.1634 40.0838 43.294 39.4929 43.5554 38.9844C43.8168 38.4759 44.1847 38.0795 44.6591 37.7955C45.1364 37.5114 45.696 37.3693 46.3381 37.3693C46.7699 37.3693 47.1719 37.4389 47.544 37.5781C47.919 37.7145 48.2457 37.9205 48.5241 38.196C48.8054 38.4716 49.0241 38.8182 49.1804 39.2358C49.3366 39.6506 49.4148 40.1364 49.4148 40.6932V41.1918H43.8878V40.0668H47.706C47.706 39.8054 47.6491 39.5739 47.5355 39.3722C47.4219 39.1705 47.2642 39.0128 47.0625 38.8991C46.8636 38.7827 46.6321 38.7244 46.3679 38.7244C46.0923 38.7244 45.848 38.7884 45.6349 38.9162C45.4247 39.0412 45.2599 39.2102 45.1406 39.4233C45.0213 39.6335 44.9602 39.8679 44.9574 40.1264V41.196C44.9574 41.5199 45.017 41.7997 45.1364 42.0355C45.2585 42.2713 45.4304 42.4531 45.652 42.581C45.8736 42.7088 46.1364 42.7727 46.4403 42.7727C46.642 42.7727 46.8267 42.7443 46.9943 42.6875C47.1619 42.6307 47.3054 42.5455 47.4247 42.4318C47.544 42.3182 47.6349 42.179 47.6974 42.0142L49.3764 42.125C49.2912 42.5284 49.1165 42.8807 48.8523 43.1818C48.5909 43.4801 48.2528 43.7131 47.8381 43.8807C47.4261 44.0455 46.9503 44.1278 46.4105 44.1278ZM50.5994 44V37.4545H52.3594V38.5966H52.4276C52.5469 38.1903 52.7472 37.8835 53.0284 37.6761C53.3097 37.4659 53.6335 37.3608 54 37.3608C54.0909 37.3608 54.1889 37.3665 54.294 37.3778C54.3991 37.3892 54.4915 37.4048 54.571 37.4247V39.0355C54.4858 39.0099 54.3679 38.9872 54.2173 38.9673C54.0668 38.9474 53.929 38.9375 53.804 38.9375C53.5369 38.9375 53.2983 38.9957 53.0881 39.1122C52.8807 39.2259 52.7159 39.3849 52.5938 39.5895C52.4744 39.794 52.4148 40.0298 52.4148 40.2969V44H50.5994Z" fill="#8649E1"/>
</svg>
