<svg width="100" height="100" viewBox="0 0 100 100" fill="none" xmlns="http://www.w3.org/2000/svg">
<rect width="100" height="100" fill="white"/>
<path d="M11.6321 46.7273H13.5284L15.5312 51.6136H15.6165L17.6193 46.7273H19.5156V54H18.0241V49.2663H17.9638L16.0817 53.9645H15.0661L13.1839 49.2486H13.1236V54H11.6321V46.7273ZM22.3095 54.103C21.9615 54.103 21.6513 54.0426 21.3791 53.9219C21.1068 53.7988 20.8914 53.6177 20.7328 53.3786C20.5765 53.1371 20.4984 52.8364 20.4984 52.4766C20.4984 52.1735 20.554 51.919 20.6653 51.7131C20.7766 51.5071 20.9281 51.3414 21.1199 51.2159C21.3116 51.0904 21.5294 50.9957 21.7733 50.9318C22.0195 50.8679 22.2775 50.8229 22.5474 50.7969C22.8646 50.7637 23.1203 50.733 23.3145 50.7045C23.5086 50.6738 23.6494 50.6288 23.737 50.5696C23.8246 50.5104 23.8684 50.4228 23.8684 50.3068V50.2855C23.8684 50.0606 23.7974 49.8866 23.6554 49.7635C23.5157 49.6404 23.3168 49.5788 23.0588 49.5788C22.7865 49.5788 22.5699 49.6392 22.4089 49.7599C22.2479 49.8783 22.1414 50.0275 22.0893 50.2074L20.6902 50.0938C20.7612 49.7623 20.9009 49.4759 21.1092 49.2344C21.3175 48.9905 21.5862 48.8035 21.9153 48.6733C22.2467 48.5407 22.6303 48.4744 23.0659 48.4744C23.3689 48.4744 23.6589 48.5099 23.9359 48.581C24.2153 48.652 24.4627 48.7621 24.6781 48.9112C24.8959 49.0604 25.0675 49.2521 25.193 49.4865C25.3185 49.7185 25.3812 49.9967 25.3812 50.321V54H23.9466V53.2436H23.9039C23.8163 53.4141 23.6992 53.5644 23.5524 53.6946C23.4056 53.8224 23.2292 53.9231 23.0233 53.9964C22.8173 54.0675 22.5794 54.103 22.3095 54.103ZM22.7427 53.0589C22.9653 53.0589 23.1618 53.0152 23.3322 52.9276C23.5027 52.8376 23.6364 52.7169 23.7335 52.5653C23.8306 52.4138 23.8791 52.2422 23.8791 52.0504V51.4716C23.8317 51.5024 23.7666 51.5308 23.6838 51.5568C23.6033 51.5805 23.5121 51.603 23.4103 51.6243C23.3085 51.6432 23.2067 51.661 23.1049 51.6776C23.0031 51.6918 22.9108 51.7048 22.8279 51.7166C22.6504 51.7427 22.4953 51.7841 22.3627 51.8409C22.2302 51.8977 22.1272 51.9747 22.0538 52.0717C21.9804 52.1664 21.9437 52.2848 21.9437 52.4268C21.9437 52.6328 22.0183 52.7902 22.1674 52.8991C22.319 53.0057 22.5107 53.0589 22.7427 53.0589ZM26.5549 54V48.5455H28.0676V54H26.5549ZM27.3148 47.8423C27.0899 47.8423 26.897 47.7678 26.736 47.6186C26.5774 47.4671 26.498 47.286 26.498 47.0753C26.498 46.867 26.5774 46.6882 26.736 46.5391C26.897 46.3875 27.0899 46.3118 27.3148 46.3118C27.5397 46.3118 27.7315 46.3875 27.8901 46.5391C28.0511 46.6882 28.1316 46.867 28.1316 47.0753C28.1316 47.286 28.0511 47.4671 27.8901 47.6186C27.7315 47.7678 27.5397 47.8423 27.3148 47.8423ZM30.7923 50.8466V54H29.2795V48.5455H30.7212V49.5078H30.7852C30.9059 49.1906 31.1083 48.9396 31.3924 48.755C31.6765 48.5679 32.021 48.4744 32.4258 48.4744C32.8046 48.4744 33.1348 48.5573 33.4165 48.723C33.6983 48.8887 33.9173 49.1255 34.0735 49.4332C34.2298 49.7386 34.3079 50.1032 34.3079 50.527V54H32.7951V50.7969C32.7975 50.4631 32.7122 50.2027 32.5394 50.0156C32.3666 49.8262 32.1287 49.7315 31.8256 49.7315C31.622 49.7315 31.4421 49.7753 31.2859 49.8629C31.132 49.9505 31.0112 50.0784 30.9237 50.2464C30.8384 50.4122 30.7946 50.6122 30.7923 50.8466Z" fill="#8649E1"/>
<path fill-rule="evenodd" clip-rule="evenodd" d="M40.2929 55.7071C39.9024 55.3166 39.9024 54.6834 40.2929 54.2929L43.5858 51L40.2929 47.7071C39.9024 47.3166 39.9024 46.6834 40.2929 46.2929C40.6834 45.9024 41.3166 45.9024 41.7071 46.2929L45.7071 50.2929C46.0976 50.6834 46.0976 51.3166 45.7071 51.7071L41.7071 55.7071C41.3166 56.0976 40.6834 56.0976 40.2929 55.7071Z" fill="#DCB8FF"/>
<path d="M58.049 49.2734H56.4936C56.4652 49.0722 56.4072 48.8935 56.3196 48.7372C56.232 48.5786 56.1196 48.4437 55.9822 48.3324C55.8449 48.2211 55.6863 48.1359 55.5064 48.0767C55.3288 48.0175 55.1359 47.9879 54.9276 47.9879C54.5511 47.9879 54.2232 48.0814 53.9439 48.2685C53.6645 48.4531 53.4479 48.723 53.294 49.0781C53.1402 49.4309 53.0632 49.8594 53.0632 50.3636C53.0632 50.8821 53.1402 51.3177 53.294 51.6705C53.4503 52.0232 53.6681 52.2895 53.9474 52.4695C54.2268 52.6494 54.55 52.7393 54.9169 52.7393C55.1229 52.7393 55.3134 52.7121 55.4886 52.6577C55.6662 52.6032 55.8236 52.5239 55.9609 52.4197C56.0982 52.3132 56.2119 52.1842 56.3018 52.0327C56.3942 51.8812 56.4581 51.7083 56.4936 51.5142L58.049 51.5213C58.0088 51.8551 57.9081 52.1771 57.7472 52.4872C57.5885 52.795 57.3743 53.0708 57.1044 53.3146C56.8369 53.5561 56.5173 53.7479 56.1456 53.8899C55.7763 54.0296 55.3584 54.0994 54.892 54.0994C54.2434 54.0994 53.6634 53.9527 53.152 53.6591C52.643 53.3655 52.2405 52.9406 51.9446 52.3842C51.651 51.8279 51.5043 51.1544 51.5043 50.3636C51.5043 49.5705 51.6534 48.8958 51.9517 48.3395C52.25 47.7831 52.6548 47.3594 53.1662 47.0682C53.6776 46.7746 54.2528 46.6278 54.892 46.6278C55.3134 46.6278 55.7041 46.687 56.0639 46.8054C56.4261 46.9238 56.7469 47.0966 57.0263 47.3239C57.3056 47.5488 57.5329 47.8246 57.7081 48.1513C57.8857 48.478 57.9993 48.852 58.049 49.2734ZM62.6211 51.6776V48.5455H64.1339V54H62.6815V53.0092H62.6246C62.5015 53.3288 62.2968 53.5857 62.0103 53.7798C61.7262 53.974 61.3794 54.071 60.9698 54.071C60.6052 54.071 60.2844 53.9882 60.0075 53.8224C59.7305 53.6567 59.5138 53.4212 59.3576 53.1158C59.2037 52.8104 59.1256 52.4446 59.1232 52.0185V48.5455H60.636V51.7486C60.6384 52.0705 60.7248 52.325 60.8952 52.5121C61.0657 52.6991 61.2942 52.7926 61.5806 52.7926C61.7629 52.7926 61.9334 52.7512 62.092 52.6683C62.2506 52.5831 62.3784 52.4576 62.4755 52.2919C62.5749 52.1262 62.6235 51.9214 62.6211 51.6776ZM65.3439 54V48.5455H66.8105V49.4972H66.8674C66.9668 49.1586 67.1337 48.9029 67.3681 48.7301C67.6025 48.5549 67.8723 48.4673 68.1777 48.4673C68.2535 48.4673 68.3352 48.4721 68.4228 48.4815C68.5104 48.491 68.5873 48.504 68.6536 48.5206V49.8629C68.5826 49.8416 68.4843 49.8227 68.3588 49.8061C68.2334 49.7895 68.1185 49.7812 68.0144 49.7812C67.7918 49.7812 67.593 49.8298 67.4178 49.9268C67.245 50.0215 67.1077 50.1541 67.0059 50.3246C66.9064 50.495 66.8567 50.6915 66.8567 50.9141V54H65.3439ZM69.4357 54V48.5455H70.9023V49.4972H70.9592C71.0586 49.1586 71.2255 48.9029 71.4599 48.7301C71.6942 48.5549 71.9641 48.4673 72.2695 48.4673C72.3453 48.4673 72.427 48.4721 72.5146 48.4815C72.6022 48.491 72.6791 48.504 72.7454 48.5206V49.8629C72.6744 49.8416 72.5761 49.8227 72.4506 49.8061C72.3252 49.7895 72.2103 49.7812 72.1062 49.7812C71.8836 49.7812 71.6848 49.8298 71.5096 49.9268C71.3368 50.0215 71.1995 50.1541 71.0977 50.3246C70.9982 50.495 70.9485 50.6915 70.9485 50.9141V54H69.4357ZM75.7594 54.1065C75.1983 54.1065 74.7154 53.9929 74.3105 53.7656C73.9081 53.536 73.598 53.2116 73.3801 52.7926C73.1623 52.3712 73.0534 51.8729 73.0534 51.2976C73.0534 50.7365 73.1623 50.2441 73.3801 49.8203C73.598 49.3965 73.9045 49.0663 74.2999 48.8295C74.6976 48.5928 75.164 48.4744 75.699 48.4744C76.0589 48.4744 76.3939 48.5324 76.704 48.6484C77.0165 48.7621 77.2888 48.9337 77.5208 49.1634C77.7551 49.393 77.9374 49.6818 78.0676 50.0298C78.1979 50.3755 78.263 50.7803 78.263 51.2443V51.6598H73.6571V50.7223H76.839C76.839 50.5045 76.7916 50.3116 76.6969 50.1435C76.6022 49.9754 76.4708 49.844 76.3027 49.7493C76.137 49.6522 75.9441 49.6037 75.7239 49.6037C75.4943 49.6037 75.2907 49.657 75.1131 49.7635C74.9379 49.8677 74.8006 50.0085 74.7012 50.1861C74.6017 50.3613 74.5508 50.5566 74.5485 50.772V51.6634C74.5485 51.9332 74.5982 52.1664 74.6976 52.3629C74.7994 52.5594 74.9426 52.7109 75.1273 52.8175C75.312 52.924 75.531 52.9773 75.7843 52.9773C75.9524 52.9773 76.1062 52.9536 76.2459 52.9062C76.3856 52.8589 76.5051 52.7879 76.6046 52.6932C76.704 52.5985 76.7798 52.4825 76.8319 52.3452L78.231 52.4375C78.16 52.7737 78.0144 53.0672 77.7942 53.3182C77.5764 53.5668 77.2947 53.7609 76.949 53.9006C76.6058 54.0379 76.2092 54.1065 75.7594 54.1065ZM80.763 50.8466V54H79.2502V48.5455H80.6919V49.5078H80.7559C80.8766 49.1906 81.079 48.9396 81.3631 48.755C81.6472 48.5679 81.9917 48.4744 82.3965 48.4744C82.7753 48.4744 83.1055 48.5573 83.3873 48.723C83.669 48.8887 83.888 49.1255 84.0442 49.4332C84.2005 49.7386 84.2786 50.1032 84.2786 50.527V54H82.7658V50.7969C82.7682 50.4631 82.6829 50.2027 82.5101 50.0156C82.3373 49.8262 82.0994 49.7315 81.7963 49.7315C81.5927 49.7315 81.4128 49.7753 81.2566 49.8629C81.1027 49.9505 80.9819 50.0784 80.8944 50.2464C80.8091 50.4122 80.7653 50.6122 80.763 50.8466ZM88.3722 48.5455V49.6818H85.0874V48.5455H88.3722ZM85.8331 47.2386H87.3459V52.3239C87.3459 52.4635 87.3672 52.5724 87.4098 52.6506C87.4524 52.7263 87.5116 52.7796 87.5874 52.8104C87.6655 52.8411 87.7554 52.8565 87.8572 52.8565C87.9283 52.8565 87.9993 52.8506 88.0703 52.8388C88.1413 52.8246 88.1958 52.8139 88.2337 52.8068L88.4716 53.9325C88.3958 53.9562 88.2893 53.9834 88.152 54.0142C88.0147 54.0473 87.8478 54.0675 87.6513 54.0746C87.2867 54.0888 86.9671 54.0402 86.6925 53.929C86.4202 53.8177 86.2083 53.6449 86.0568 53.4105C85.9053 53.1761 85.8307 52.8802 85.8331 52.5227V47.2386Z" fill="#8649E1"/>
</svg>
