<svg width="106" height="100" viewBox="0 0 106 100" fill="none" xmlns="http://www.w3.org/2000/svg">
<rect width="106" height="100" fill="white"/>
<path d="M14.6321 46.7273H16.5284L18.5312 51.6136H18.6165L20.6193 46.7273H22.5156V54H21.0241V49.2663H20.9638L19.0817 53.9645H18.0661L16.1839 49.2486H16.1236V54H14.6321V46.7273ZM25.3095 54.103C24.9615 54.103 24.6513 54.0426 24.3791 53.9219C24.1068 53.7988 23.8914 53.6177 23.7328 53.3786C23.5765 53.1371 23.4984 52.8364 23.4984 52.4766C23.4984 52.1735 23.554 51.919 23.6653 51.7131C23.7766 51.5071 23.9281 51.3414 24.1199 51.2159C24.3116 51.0904 24.5294 50.9957 24.7733 50.9318C25.0195 50.8679 25.2775 50.8229 25.5474 50.7969C25.8646 50.7637 26.1203 50.733 26.3145 50.7045C26.5086 50.6738 26.6494 50.6288 26.737 50.5696C26.8246 50.5104 26.8684 50.4228 26.8684 50.3068V50.2855C26.8684 50.0606 26.7974 49.8866 26.6554 49.7635C26.5157 49.6404 26.3168 49.5788 26.0588 49.5788C25.7865 49.5788 25.5699 49.6392 25.4089 49.7599C25.2479 49.8783 25.1414 50.0275 25.0893 50.2074L23.6902 50.0938C23.7612 49.7623 23.9009 49.4759 24.1092 49.2344C24.3175 48.9905 24.5862 48.8035 24.9153 48.6733C25.2467 48.5407 25.6303 48.4744 26.0659 48.4744C26.3689 48.4744 26.6589 48.5099 26.9359 48.581C27.2153 48.652 27.4627 48.7621 27.6781 48.9112C27.8959 49.0604 28.0675 49.2521 28.193 49.4865C28.3185 49.7185 28.3812 49.9967 28.3812 50.321V54H26.9466V53.2436H26.9039C26.8163 53.4141 26.6992 53.5644 26.5524 53.6946C26.4056 53.8224 26.2292 53.9231 26.0233 53.9964C25.8173 54.0675 25.5794 54.103 25.3095 54.103ZM25.7427 53.0589C25.9653 53.0589 26.1618 53.0152 26.3322 52.9276C26.5027 52.8376 26.6364 52.7169 26.7335 52.5653C26.8306 52.4138 26.8791 52.2422 26.8791 52.0504V51.4716C26.8317 51.5024 26.7666 51.5308 26.6838 51.5568C26.6033 51.5805 26.5121 51.603 26.4103 51.6243C26.3085 51.6432 26.2067 51.661 26.1049 51.6776C26.0031 51.6918 25.9108 51.7048 25.8279 51.7166C25.6504 51.7427 25.4953 51.7841 25.3627 51.8409C25.2302 51.8977 25.1272 51.9747 25.0538 52.0717C24.9804 52.1664 24.9437 52.2848 24.9437 52.4268C24.9437 52.6328 25.0183 52.7902 25.1674 52.8991C25.319 53.0057 25.5107 53.0589 25.7427 53.0589ZM29.5549 54V48.5455H31.0676V54H29.5549ZM30.3148 47.8423C30.0899 47.8423 29.897 47.7678 29.736 47.6186C29.5774 47.4671 29.498 47.286 29.498 47.0753C29.498 46.867 29.5774 46.6882 29.736 46.5391C29.897 46.3875 30.0899 46.3118 30.3148 46.3118C30.5397 46.3118 30.7315 46.3875 30.8901 46.5391C31.0511 46.6882 31.1316 46.867 31.1316 47.0753C31.1316 47.286 31.0511 47.4671 30.8901 47.6186C30.7315 47.7678 30.5397 47.8423 30.3148 47.8423ZM33.7923 50.8466V54H32.2795V48.5455H33.7212V49.5078H33.7852C33.9059 49.1906 34.1083 48.9396 34.3924 48.755C34.6765 48.5679 35.021 48.4744 35.4258 48.4744C35.8046 48.4744 36.1348 48.5573 36.4165 48.723C36.6983 48.8887 36.9173 49.1255 37.0735 49.4332C37.2298 49.7386 37.3079 50.1032 37.3079 50.527V54H35.7951V50.7969C35.7975 50.4631 35.7122 50.2027 35.5394 50.0156C35.3666 49.8262 35.1287 49.7315 34.8256 49.7315C34.622 49.7315 34.4421 49.7753 34.2859 49.8629C34.132 49.9505 34.0112 50.0784 33.9237 50.2464C33.8384 50.4122 33.7946 50.6122 33.7923 50.8466Z" fill="#8649E1"/>
<path fill-rule="evenodd" clip-rule="evenodd" d="M43.2929 55.7071C42.9024 55.3166 42.9024 54.6834 43.2929 54.2929L46.5858 51L43.2929 47.7071C42.9024 47.3166 42.9024 46.6834 43.2929 46.2929C43.6834 45.9024 44.3166 45.9024 44.7071 46.2929L48.7071 50.2929C49.0976 50.6834 49.0976 51.3166 48.7071 51.7071L44.7071 55.7071C44.3166 56.0976 43.6834 56.0976 43.2929 55.7071Z" fill="#DCB8FF"/>
<path d="M61.049 49.2734H59.4936C59.4652 49.0722 59.4072 48.8935 59.3196 48.7372C59.232 48.5786 59.1196 48.4437 58.9822 48.3324C58.8449 48.2211 58.6863 48.1359 58.5064 48.0767C58.3288 48.0175 58.1359 47.9879 57.9276 47.9879C57.5511 47.9879 57.2232 48.0814 56.9439 48.2685C56.6645 48.4531 56.4479 48.723 56.294 49.0781C56.1402 49.4309 56.0632 49.8594 56.0632 50.3636C56.0632 50.8821 56.1402 51.3177 56.294 51.6705C56.4503 52.0232 56.6681 52.2895 56.9474 52.4695C57.2268 52.6494 57.55 52.7393 57.9169 52.7393C58.1229 52.7393 58.3134 52.7121 58.4886 52.6577C58.6662 52.6032 58.8236 52.5239 58.9609 52.4197C59.0982 52.3132 59.2119 52.1842 59.3018 52.0327C59.3942 51.8812 59.4581 51.7083 59.4936 51.5142L61.049 51.5213C61.0088 51.8551 60.9081 52.1771 60.7472 52.4872C60.5885 52.795 60.3743 53.0708 60.1044 53.3146C59.8369 53.5561 59.5173 53.7479 59.1456 53.8899C58.7763 54.0296 58.3584 54.0994 57.892 54.0994C57.2434 54.0994 56.6634 53.9527 56.152 53.6591C55.643 53.3655 55.2405 52.9406 54.9446 52.3842C54.651 51.8279 54.5043 51.1544 54.5043 50.3636C54.5043 49.5705 54.6534 48.8958 54.9517 48.3395C55.25 47.7831 55.6548 47.3594 56.1662 47.0682C56.6776 46.7746 57.2528 46.6278 57.892 46.6278C58.3134 46.6278 58.7041 46.687 59.0639 46.8054C59.4261 46.9238 59.7469 47.0966 60.0263 47.3239C60.3056 47.5488 60.5329 47.8246 60.7081 48.1513C60.8857 48.478 60.9993 48.852 61.049 49.2734ZM65.6211 51.6776V48.5455H67.1339V54H65.6815V53.0092H65.6246C65.5015 53.3288 65.2968 53.5857 65.0103 53.7798C64.7262 53.974 64.3794 54.071 63.9698 54.071C63.6052 54.071 63.2844 53.9882 63.0075 53.8224C62.7305 53.6567 62.5138 53.4212 62.3576 53.1158C62.2037 52.8104 62.1256 52.4446 62.1232 52.0185V48.5455H63.636V51.7486C63.6384 52.0705 63.7248 52.325 63.8952 52.5121C64.0657 52.6991 64.2942 52.7926 64.5806 52.7926C64.7629 52.7926 64.9334 52.7512 65.092 52.6683C65.2506 52.5831 65.3784 52.4576 65.4755 52.2919C65.5749 52.1262 65.6235 51.9214 65.6211 51.6776ZM68.3439 54V48.5455H69.8105V49.4972H69.8674C69.9668 49.1586 70.1337 48.9029 70.3681 48.7301C70.6025 48.5549 70.8723 48.4673 71.1777 48.4673C71.2535 48.4673 71.3352 48.4721 71.4228 48.4815C71.5104 48.491 71.5873 48.504 71.6536 48.5206V49.8629C71.5826 49.8416 71.4843 49.8227 71.3588 49.8061C71.2334 49.7895 71.1185 49.7812 71.0144 49.7812C70.7918 49.7812 70.593 49.8298 70.4178 49.9268C70.245 50.0215 70.1077 50.1541 70.0059 50.3246C69.9064 50.495 69.8567 50.6915 69.8567 50.9141V54H68.3439ZM72.4357 54V48.5455H73.9023V49.4972H73.9592C74.0586 49.1586 74.2255 48.9029 74.4599 48.7301C74.6942 48.5549 74.9641 48.4673 75.2695 48.4673C75.3453 48.4673 75.427 48.4721 75.5146 48.4815C75.6022 48.491 75.6791 48.504 75.7454 48.5206V49.8629C75.6744 49.8416 75.5761 49.8227 75.4506 49.8061C75.3252 49.7895 75.2103 49.7812 75.1062 49.7812C74.8836 49.7812 74.6848 49.8298 74.5096 49.9268C74.3368 50.0215 74.1995 50.1541 74.0977 50.3246C73.9982 50.495 73.9485 50.6915 73.9485 50.9141V54H72.4357ZM78.7594 54.1065C78.1983 54.1065 77.7154 53.9929 77.3105 53.7656C76.9081 53.536 76.598 53.2116 76.3801 52.7926C76.1623 52.3712 76.0534 51.8729 76.0534 51.2976C76.0534 50.7365 76.1623 50.2441 76.3801 49.8203C76.598 49.3965 76.9045 49.0663 77.2999 48.8295C77.6976 48.5928 78.164 48.4744 78.699 48.4744C79.0589 48.4744 79.3939 48.5324 79.704 48.6484C80.0165 48.7621 80.2888 48.9337 80.5208 49.1634C80.7551 49.393 80.9374 49.6818 81.0676 50.0298C81.1979 50.3755 81.263 50.7803 81.263 51.2443V51.6598H76.6571V50.7223H79.839C79.839 50.5045 79.7916 50.3116 79.6969 50.1435C79.6022 49.9754 79.4708 49.844 79.3027 49.7493C79.137 49.6522 78.9441 49.6037 78.7239 49.6037C78.4943 49.6037 78.2907 49.657 78.1131 49.7635C77.9379 49.8677 77.8006 50.0085 77.7012 50.1861C77.6017 50.3613 77.5508 50.5566 77.5485 50.772V51.6634C77.5485 51.9332 77.5982 52.1664 77.6976 52.3629C77.7994 52.5594 77.9426 52.7109 78.1273 52.8175C78.312 52.924 78.531 52.9773 78.7843 52.9773C78.9524 52.9773 79.1062 52.9536 79.2459 52.9062C79.3856 52.8589 79.5051 52.7879 79.6046 52.6932C79.704 52.5985 79.7798 52.4825 79.8319 52.3452L81.231 52.4375C81.16 52.7737 81.0144 53.0672 80.7942 53.3182C80.5764 53.5668 80.2947 53.7609 79.949 53.9006C79.6058 54.0379 79.2092 54.1065 78.7594 54.1065ZM83.763 50.8466V54H82.2502V48.5455H83.6919V49.5078H83.7559C83.8766 49.1906 84.079 48.9396 84.3631 48.755C84.6472 48.5679 84.9917 48.4744 85.3965 48.4744C85.7753 48.4744 86.1055 48.5573 86.3873 48.723C86.669 48.8887 86.888 49.1255 87.0442 49.4332C87.2005 49.7386 87.2786 50.1032 87.2786 50.527V54H85.7658V50.7969C85.7682 50.4631 85.6829 50.2027 85.5101 50.0156C85.3373 49.8262 85.0994 49.7315 84.7963 49.7315C84.5927 49.7315 84.4128 49.7753 84.2566 49.8629C84.1027 49.9505 83.9819 50.0784 83.8944 50.2464C83.8091 50.4122 83.7653 50.6122 83.763 50.8466ZM91.3722 48.5455V49.6818H88.0874V48.5455H91.3722ZM88.8331 47.2386H90.3459V52.3239C90.3459 52.4635 90.3672 52.5724 90.4098 52.6506C90.4524 52.7263 90.5116 52.7796 90.5874 52.8104C90.6655 52.8411 90.7554 52.8565 90.8572 52.8565C90.9283 52.8565 90.9993 52.8506 91.0703 52.8388C91.1413 52.8246 91.1958 52.8139 91.2337 52.8068L91.4716 53.9325C91.3958 53.9562 91.2893 53.9834 91.152 54.0142C91.0147 54.0473 90.8478 54.0675 90.6513 54.0746C90.2867 54.0888 89.9671 54.0402 89.6925 53.929C89.4202 53.8177 89.2083 53.6449 89.0568 53.4105C88.9053 53.1761 88.8307 52.8802 88.8331 52.5227V47.2386Z" fill="#8649E1"/>
</svg>
