<svg width="106" height="15" viewBox="0 0 106 15" fill="none" xmlns="http://www.w3.org/2000/svg">
<rect y="4.15356" width="18" height="6" rx="3" fill="#D1D4DB"/>
<path fill-rule="evenodd" clip-rule="evenodd" d="M25.2929 12.7071C24.9024 12.3166 24.9024 11.6834 25.2929 11.2929L28.5858 8L25.2929 4.70711C24.9024 4.31658 24.9024 3.68342 25.2929 3.29289C25.6834 2.90237 26.3166 2.90237 26.7071 3.29289L30.7071 7.29289C31.0976 7.68342 31.0976 8.31658 30.7071 8.70711L26.7071 12.7071C26.3166 13.0976 25.6834 13.0976 25.2929 12.7071Z" fill="#898D9A"/>
<rect x="39" y="4.15356" width="23" height="6" rx="3" fill="#D1D4DB"/>
<path fill-rule="evenodd" clip-rule="evenodd" d="M69.2929 12.7071C68.9024 12.3166 68.9024 11.6834 69.2929 11.2929L72.5858 8L69.2929 4.70711C68.9024 4.31658 68.9024 3.68342 69.2929 3.29289C69.6834 2.90237 70.3166 2.90237 70.7071 3.29289L74.7071 7.29289C75.0976 7.68342 75.0976 8.31658 74.7071 8.70711L70.7071 12.7071C70.3166 13.0976 69.6834 13.0976 69.2929 12.7071Z" fill="#898D9A"/>
<rect x="83" y="4.15356" width="23" height="6" rx="3" fill="#898D9A"/>
</svg>
