<svg width="80" height="80" viewBox="0 0 80 80" fill="none" xmlns="http://www.w3.org/2000/svg">
<rect width="80" height="80" fill="white"/>
<path d="M3.6321 36.7273H5.52841L7.53125 41.6136H7.61648L9.61932 36.7273H11.5156V44H10.0241V39.2663H9.96378L8.08168 43.9645H7.06605L5.18395 39.2486H5.12358V44H3.6321V36.7273ZM14.3095 44.103C13.9615 44.103 13.6513 44.0426 13.3791 43.9219C13.1068 43.7988 12.8914 43.6177 12.7328 43.3786C12.5765 43.1371 12.4984 42.8364 12.4984 42.4766C12.4984 42.1735 12.554 41.919 12.6653 41.7131C12.7766 41.5071 12.9281 41.3414 13.1199 41.2159C13.3116 41.0904 13.5294 40.9957 13.7733 40.9318C14.0195 40.8679 14.2775 40.8229 14.5474 40.7969C14.8646 40.7637 15.1203 40.733 15.3145 40.7045C15.5086 40.6738 15.6494 40.6288 15.737 40.5696C15.8246 40.5104 15.8684 40.4228 15.8684 40.3068V40.2855C15.8684 40.0606 15.7974 39.8866 15.6554 39.7635C15.5157 39.6404 15.3168 39.5788 15.0588 39.5788C14.7865 39.5788 14.5699 39.6392 14.4089 39.7599C14.2479 39.8783 14.1414 40.0275 14.0893 40.2074L12.6902 40.0938C12.7612 39.7623 12.9009 39.4759 13.1092 39.2344C13.3175 38.9905 13.5862 38.8035 13.9153 38.6733C14.2467 38.5407 14.6303 38.4744 15.0659 38.4744C15.3689 38.4744 15.6589 38.5099 15.9359 38.581C16.2153 38.652 16.4627 38.7621 16.6781 38.9112C16.8959 39.0604 17.0675 39.2521 17.193 39.4865C17.3185 39.7185 17.3812 39.9967 17.3812 40.321V44H15.9466V43.2436H15.9039C15.8163 43.4141 15.6992 43.5644 15.5524 43.6946C15.4056 43.8224 15.2292 43.9231 15.0233 43.9964C14.8173 44.0675 14.5794 44.103 14.3095 44.103ZM14.7427 43.0589C14.9653 43.0589 15.1618 43.0152 15.3322 42.9276C15.5027 42.8376 15.6364 42.7169 15.7335 42.5653C15.8306 42.4138 15.8791 42.2422 15.8791 42.0504V41.4716C15.8317 41.5024 15.7666 41.5308 15.6838 41.5568C15.6033 41.5805 15.5121 41.603 15.4103 41.6243C15.3085 41.6432 15.2067 41.661 15.1049 41.6776C15.0031 41.6918 14.9108 41.7048 14.8279 41.7166C14.6504 41.7427 14.4953 41.7841 14.3627 41.8409C14.2302 41.8977 14.1272 41.9747 14.0538 42.0717C13.9804 42.1664 13.9437 42.2848 13.9437 42.4268C13.9437 42.6328 14.0183 42.7902 14.1674 42.8991C14.319 43.0057 14.5107 43.0589 14.7427 43.0589ZM18.5549 44V38.5455H20.0676V44H18.5549ZM19.3148 37.8423C19.0899 37.8423 18.897 37.7678 18.736 37.6186C18.5774 37.4671 18.498 37.286 18.498 37.0753C18.498 36.867 18.5774 36.6882 18.736 36.5391C18.897 36.3875 19.0899 36.3118 19.3148 36.3118C19.5397 36.3118 19.7315 36.3875 19.8901 36.5391C20.0511 36.6882 20.1316 36.867 20.1316 37.0753C20.1316 37.286 20.0511 37.4671 19.8901 37.6186C19.7315 37.7678 19.5397 37.8423 19.3148 37.8423ZM22.7923 40.8466V44H21.2795V38.5455H22.7212V39.5078H22.7852C22.9059 39.1906 23.1083 38.9396 23.3924 38.755C23.6765 38.5679 24.021 38.4744 24.4258 38.4744C24.8046 38.4744 25.1348 38.5573 25.4165 38.723C25.6983 38.8887 25.9173 39.1255 26.0735 39.4332C26.2298 39.7386 26.3079 40.1032 26.3079 40.527V44H24.7951V40.7969C24.7975 40.4631 24.7122 40.2027 24.5394 40.0156C24.3666 39.8262 24.1287 39.7315 23.8256 39.7315C23.622 39.7315 23.4421 39.7753 23.2859 39.8629C23.132 39.9505 23.0112 40.0784 22.9237 40.2464C22.8384 40.4122 22.7946 40.6122 22.7923 40.8466Z" fill="#8649E1"/>
<path fill-rule="evenodd" clip-rule="evenodd" d="M30.2929 45.7071C29.9024 45.3166 29.9024 44.6834 30.2929 44.2929L33.5858 41L30.2929 37.7071C29.9024 37.3166 29.9024 36.6834 30.2929 36.2929C30.6834 35.9024 31.3166 35.9024 31.7071 36.2929L35.7071 40.2929C36.0976 40.6834 36.0976 41.3166 35.7071 41.7071L31.7071 45.7071C31.3166 46.0976 30.6834 46.0976 30.2929 45.7071Z" fill="#DCB8FF"/>
<path d="M46.049 39.2734H44.4936C44.4652 39.0722 44.4072 38.8935 44.3196 38.7372C44.232 38.5786 44.1196 38.4437 43.9822 38.3324C43.8449 38.2211 43.6863 38.1359 43.5064 38.0767C43.3288 38.0175 43.1359 37.9879 42.9276 37.9879C42.5511 37.9879 42.2232 38.0814 41.9439 38.2685C41.6645 38.4531 41.4479 38.723 41.294 39.0781C41.1402 39.4309 41.0632 39.8594 41.0632 40.3636C41.0632 40.8821 41.1402 41.3177 41.294 41.6705C41.4503 42.0232 41.6681 42.2895 41.9474 42.4695C42.2268 42.6494 42.55 42.7393 42.9169 42.7393C43.1229 42.7393 43.3134 42.7121 43.4886 42.6577C43.6662 42.6032 43.8236 42.5239 43.9609 42.4197C44.0982 42.3132 44.2119 42.1842 44.3018 42.0327C44.3942 41.8812 44.4581 41.7083 44.4936 41.5142L46.049 41.5213C46.0088 41.8551 45.9081 42.1771 45.7472 42.4872C45.5885 42.795 45.3743 43.0708 45.1044 43.3146C44.8369 43.5561 44.5173 43.7479 44.1456 43.8899C43.7763 44.0296 43.3584 44.0994 42.892 44.0994C42.2434 44.0994 41.6634 43.9527 41.152 43.6591C40.643 43.3655 40.2405 42.9406 39.9446 42.3842C39.651 41.8279 39.5043 41.1544 39.5043 40.3636C39.5043 39.5705 39.6534 38.8958 39.9517 38.3395C40.25 37.7831 40.6548 37.3594 41.1662 37.0682C41.6776 36.7746 42.2528 36.6278 42.892 36.6278C43.3134 36.6278 43.7041 36.687 44.0639 36.8054C44.4261 36.9238 44.7469 37.0966 45.0263 37.3239C45.3056 37.5488 45.5329 37.8246 45.7081 38.1513C45.8857 38.478 45.9993 38.852 46.049 39.2734ZM50.6211 41.6776V38.5455H52.1339V44H50.6815V43.0092H50.6246C50.5015 43.3288 50.2968 43.5857 50.0103 43.7798C49.7262 43.974 49.3794 44.071 48.9698 44.071C48.6052 44.071 48.2844 43.9882 48.0075 43.8224C47.7305 43.6567 47.5138 43.4212 47.3576 43.1158C47.2037 42.8104 47.1256 42.4446 47.1232 42.0185V38.5455H48.636V41.7486C48.6384 42.0705 48.7248 42.325 48.8952 42.5121C49.0657 42.6991 49.2942 42.7926 49.5806 42.7926C49.7629 42.7926 49.9334 42.7512 50.092 42.6683C50.2506 42.5831 50.3784 42.4576 50.4755 42.2919C50.5749 42.1262 50.6235 41.9214 50.6211 41.6776ZM53.3439 44V38.5455H54.8105V39.4972H54.8674C54.9668 39.1586 55.1337 38.9029 55.3681 38.7301C55.6025 38.5549 55.8723 38.4673 56.1777 38.4673C56.2535 38.4673 56.3352 38.4721 56.4228 38.4815C56.5104 38.491 56.5873 38.504 56.6536 38.5206V39.8629C56.5826 39.8416 56.4843 39.8227 56.3588 39.8061C56.2334 39.7895 56.1185 39.7812 56.0144 39.7812C55.7918 39.7812 55.593 39.8298 55.4178 39.9268C55.245 40.0215 55.1077 40.1541 55.0059 40.3246C54.9064 40.495 54.8567 40.6915 54.8567 40.9141V44H53.3439ZM57.4357 44V38.5455H58.9023V39.4972H58.9592C59.0586 39.1586 59.2255 38.9029 59.4599 38.7301C59.6942 38.5549 59.9641 38.4673 60.2695 38.4673C60.3453 38.4673 60.427 38.4721 60.5146 38.4815C60.6022 38.491 60.6791 38.504 60.7454 38.5206V39.8629C60.6744 39.8416 60.5761 39.8227 60.4506 39.8061C60.3252 39.7895 60.2103 39.7812 60.1062 39.7812C59.8836 39.7812 59.6848 39.8298 59.5096 39.9268C59.3368 40.0215 59.1995 40.1541 59.0977 40.3246C58.9982 40.495 58.9485 40.6915 58.9485 40.9141V44H57.4357ZM63.7594 44.1065C63.1983 44.1065 62.7154 43.9929 62.3105 43.7656C61.9081 43.536 61.598 43.2116 61.3801 42.7926C61.1623 42.3712 61.0534 41.8729 61.0534 41.2976C61.0534 40.7365 61.1623 40.2441 61.3801 39.8203C61.598 39.3965 61.9045 39.0663 62.2999 38.8295C62.6976 38.5928 63.164 38.4744 63.699 38.4744C64.0589 38.4744 64.3939 38.5324 64.704 38.6484C65.0165 38.7621 65.2888 38.9337 65.5208 39.1634C65.7551 39.393 65.9374 39.6818 66.0676 40.0298C66.1979 40.3755 66.263 40.7803 66.263 41.2443V41.6598H61.6571V40.7223H64.839C64.839 40.5045 64.7916 40.3116 64.6969 40.1435C64.6022 39.9754 64.4708 39.844 64.3027 39.7493C64.137 39.6522 63.9441 39.6037 63.7239 39.6037C63.4943 39.6037 63.2907 39.657 63.1131 39.7635C62.9379 39.8677 62.8006 40.0085 62.7012 40.1861C62.6017 40.3613 62.5508 40.5566 62.5485 40.772V41.6634C62.5485 41.9332 62.5982 42.1664 62.6976 42.3629C62.7994 42.5594 62.9426 42.7109 63.1273 42.8175C63.312 42.924 63.531 42.9773 63.7843 42.9773C63.9524 42.9773 64.1062 42.9536 64.2459 42.9062C64.3856 42.8589 64.5051 42.7879 64.6046 42.6932C64.704 42.5985 64.7798 42.4825 64.8319 42.3452L66.231 42.4375C66.16 42.7737 66.0144 43.0672 65.7942 43.3182C65.5764 43.5668 65.2947 43.7609 64.949 43.9006C64.6058 44.0379 64.2092 44.1065 63.7594 44.1065ZM68.763 40.8466V44H67.2502V38.5455H68.6919V39.5078H68.7559C68.8766 39.1906 69.079 38.9396 69.3631 38.755C69.6472 38.5679 69.9917 38.4744 70.3965 38.4744C70.7753 38.4744 71.1055 38.5573 71.3873 38.723C71.669 38.8887 71.888 39.1255 72.0442 39.4332C72.2005 39.7386 72.2786 40.1032 72.2786 40.527V44H70.7658V40.7969C70.7682 40.4631 70.6829 40.2027 70.5101 40.0156C70.3373 39.8262 70.0994 39.7315 69.7963 39.7315C69.5927 39.7315 69.4128 39.7753 69.2566 39.8629C69.1027 39.9505 68.9819 40.0784 68.8944 40.2464C68.8091 40.4122 68.7653 40.6122 68.763 40.8466ZM76.3722 38.5455V39.6818H73.0874V38.5455H76.3722ZM73.8331 37.2386H75.3459V42.3239C75.3459 42.4635 75.3672 42.5724 75.4098 42.6506C75.4524 42.7263 75.5116 42.7796 75.5874 42.8104C75.6655 42.8411 75.7554 42.8565 75.8572 42.8565C75.9283 42.8565 75.9993 42.8506 76.0703 42.8388C76.1413 42.8246 76.1958 42.8139 76.2337 42.8068L76.4716 43.9325C76.3958 43.9562 76.2893 43.9834 76.152 44.0142C76.0147 44.0473 75.8478 44.0675 75.6513 44.0746C75.2867 44.0888 74.9671 44.0402 74.6925 43.929C74.4202 43.8177 74.2083 43.6449 74.0568 43.4105C73.9053 43.1761 73.8307 42.8802 73.8331 42.5227V37.2386Z" fill="#8649E1"/>
</svg>
