<svg width="80" height="80" viewBox="0 0 80 80" fill="none" xmlns="http://www.w3.org/2000/svg">
<rect width="80" height="80" fill="white"/>
<path d="M8 27.5H72C73.933 27.5 75.5 29.067 75.5 31V57C75.5 58.933 73.933 60.5 72 60.5H8C6.067 60.5 4.5 58.933 4.5 57V31C4.5 29.067 6.067 27.5 8 27.5Z" stroke="#8649E1"/>
<rect x="4" y="19" width="36" height="6" rx="3" fill="#EDD9FF"/>
<path fill-rule="evenodd" clip-rule="evenodd" d="M73.8001 54.4001C74.1314 54.8419 74.0419 55.4687 73.6001 55.8001L69.6001 58.8001C69.1582 59.1314 68.5314 59.0419 68.2001 58.6001C67.8687 58.1582 67.9582 57.5314 68.4001 57.2001L72.4001 54.2001C72.8419 53.8687 73.4687 53.9582 73.8001 54.4001Z" fill="#C695FF"/>
<path fill-rule="evenodd" clip-rule="evenodd" d="M73.7894 50.3861C74.1285 50.8221 74.0499 51.4503 73.614 51.7894L64.614 58.7894C64.178 59.1285 63.5498 59.0499 63.2107 58.614C62.8716 58.178 62.9502 57.5498 63.3861 57.2107L72.3861 50.2107C72.8221 49.8716 73.4503 49.9502 73.7894 50.3861Z" fill="#C695FF"/>
<path d="M12.5895 54V52.892L15.1783 50.495C15.3984 50.282 15.5831 50.0902 15.7322 49.9197C15.8838 49.7493 15.9986 49.5824 16.0767 49.419C16.1548 49.2533 16.1939 49.0746 16.1939 48.8828C16.1939 48.6697 16.1454 48.4863 16.0483 48.3324C15.9512 48.1761 15.8187 48.0566 15.6506 47.9737C15.4825 47.8885 15.2919 47.8459 15.0788 47.8459C14.8563 47.8459 14.6622 47.8909 14.4964 47.9808C14.3307 48.0708 14.2029 48.1998 14.1129 48.3679C14.023 48.536 13.978 48.736 13.978 48.968H12.5185C12.5185 48.4922 12.6262 48.0791 12.8416 47.7287C13.0571 47.3783 13.3589 47.1072 13.7472 46.9155C14.1354 46.7237 14.5829 46.6278 15.0895 46.6278C15.6103 46.6278 16.0637 46.7202 16.4496 46.9048C16.8378 47.0871 17.1397 47.3404 17.3551 47.6648C17.5705 47.9891 17.6783 48.3608 17.6783 48.7798C17.6783 49.0545 17.6238 49.3255 17.5149 49.593C17.4084 49.8606 17.2178 50.1577 16.9432 50.4844C16.6686 50.8087 16.2815 51.1982 15.782 51.6527L14.7202 52.6932V52.7429H17.7741V54H12.5895ZM19.7868 54.0923C19.5524 54.0923 19.3511 54.0095 19.1831 53.8438C19.0173 53.6757 18.9345 53.4744 18.9345 53.2401C18.9345 53.008 19.0173 52.8092 19.1831 52.6435C19.3511 52.4777 19.5524 52.3949 19.7868 52.3949C20.014 52.3949 20.2129 52.4777 20.3833 52.6435C20.5538 52.8092 20.639 53.008 20.639 53.2401C20.639 53.3963 20.5988 53.5395 20.5183 53.6697C20.4402 53.7976 20.3372 53.9006 20.2093 53.9787C20.0815 54.0545 19.9406 54.0923 19.7868 54.0923Z" fill="#8649E1"/>
<path d="M23 50C23 48.3431 24.3431 47 26 47H55C56.6569 47 58 48.3431 58 50V50C58 51.6569 56.6569 53 55 53H26C24.3431 53 23 51.6569 23 50V50Z" fill="#EDD9FF"/>
<path d="M15.7536 34.7273V42H14.2159V36.1868H14.1733L12.5078 37.2308V35.8672L14.3082 34.7273H15.7536ZM17.9899 42.0923C17.7555 42.0923 17.5543 42.0095 17.3862 41.8438C17.2205 41.6757 17.1376 41.4744 17.1376 41.2401C17.1376 41.008 17.2205 40.8092 17.3862 40.6435C17.5543 40.4777 17.7555 40.3949 17.9899 40.3949C18.2172 40.3949 18.416 40.4777 18.5865 40.6435C18.7569 40.8092 18.8422 41.008 18.8422 41.2401C18.8422 41.3963 18.8019 41.5395 18.7214 41.6697C18.6433 41.7976 18.5403 41.9006 18.4125 41.9787C18.2846 42.0545 18.1438 42.0923 17.9899 42.0923Z" fill="#8649E1"/>
<path d="M23 38C23 36.3431 24.3431 35 26 35H47C48.6569 35 50 36.3431 50 38V38C50 39.6569 48.6569 41 47 41H26C24.3431 41 23 39.6569 23 38V38Z" fill="#EDD9FF"/>
</svg>
