<svg width="80" height="80" viewBox="0 0 80 80" fill="none" xmlns="http://www.w3.org/2000/svg">
<rect width="80" height="80" fill="white"/>
<rect x="8.5" y="26.5" width="63" height="27" rx="3.5" fill="#F9F2FF" stroke="#8649E1"/>
<path d="M38.4929 37.7827C38.4588 37.4389 38.3125 37.1719 38.054 36.9815C37.7955 36.7912 37.4446 36.696 37.0014 36.696C36.7003 36.696 36.446 36.7386 36.2386 36.8239C36.0313 36.9062 35.8722 37.0213 35.7614 37.169C35.6534 37.3168 35.5994 37.4844 35.5994 37.6719C35.5938 37.8281 35.6264 37.9645 35.6974 38.081C35.7713 38.1974 35.8722 38.2983 36 38.3835C36.1278 38.4659 36.2756 38.5384 36.4432 38.6009C36.6108 38.6605 36.7898 38.7116 36.9801 38.7543L37.7642 38.9418C38.1449 39.027 38.4943 39.1406 38.8125 39.2827C39.1307 39.4247 39.4063 39.5994 39.6392 39.8068C39.8722 40.0142 40.0526 40.2585 40.1804 40.5398C40.3111 40.821 40.3778 41.1435 40.3807 41.5071C40.3778 42.0412 40.2415 42.5043 39.9716 42.8963C39.7045 43.2855 39.3182 43.5881 38.8125 43.804C38.3097 44.017 37.7031 44.1236 36.9929 44.1236C36.2884 44.1236 35.6747 44.0156 35.152 43.7997C34.6321 43.5838 34.2259 43.2642 33.9332 42.8409C33.6435 42.4148 33.4915 41.8878 33.4773 41.2599H35.2628C35.2827 41.5526 35.3665 41.7969 35.5142 41.9929C35.6648 42.1861 35.8651 42.3324 36.1151 42.4318C36.3679 42.5284 36.6534 42.5767 36.9716 42.5767C37.2841 42.5767 37.5554 42.5312 37.7855 42.4403C38.0185 42.3494 38.1989 42.223 38.3267 42.0611C38.4545 41.8991 38.5185 41.7131 38.5185 41.5028C38.5185 41.3068 38.4602 41.142 38.3438 41.0085C38.2301 40.875 38.0625 40.7614 37.8409 40.6676C37.6222 40.5739 37.3537 40.4886 37.0355 40.4119L36.0852 40.1733C35.3494 39.9943 34.7685 39.7145 34.3423 39.3338C33.9162 38.9531 33.7045 38.4403 33.7074 37.7955C33.7045 37.267 33.8452 36.8054 34.1293 36.4105C34.4162 36.0156 34.8097 35.7074 35.3097 35.4858C35.8097 35.2642 36.3778 35.1534 37.0142 35.1534C37.6619 35.1534 38.2273 35.2642 38.7102 35.4858C39.196 35.7074 39.5739 36.0156 39.8438 36.4105C40.1136 36.8054 40.2528 37.2628 40.2614 37.7827H38.4929ZM43.4542 44.1236C43.0366 44.1236 42.6644 44.0511 42.3377 43.9062C42.011 43.7585 41.7525 43.5412 41.5621 43.2543C41.3746 42.9645 41.2809 42.6037 41.2809 42.1719C41.2809 41.8082 41.3477 41.5028 41.4812 41.2557C41.6147 41.0085 41.7965 40.8097 42.0266 40.6591C42.2567 40.5085 42.5181 40.3949 42.8107 40.3182C43.1062 40.2415 43.4158 40.1875 43.7397 40.1562C44.1204 40.1165 44.4272 40.0795 44.6602 40.0455C44.8931 40.0085 45.0621 39.9545 45.1673 39.8835C45.2724 39.8125 45.3249 39.7074 45.3249 39.5682V39.5426C45.3249 39.2727 45.2397 39.0639 45.0692 38.9162C44.9016 38.7685 44.663 38.6946 44.3533 38.6946C44.0266 38.6946 43.7667 38.767 43.5735 38.9119C43.3803 39.054 43.2525 39.233 43.19 39.4489L41.511 39.3125C41.5962 38.9148 41.7638 38.571 42.0138 38.2812C42.2638 37.9886 42.5863 37.7642 42.9812 37.608C43.3789 37.4489 43.8391 37.3693 44.3619 37.3693C44.7255 37.3693 45.0735 37.4119 45.4059 37.4972C45.7411 37.5824 46.038 37.7145 46.2965 37.8935C46.5579 38.0724 46.7638 38.3026 46.9144 38.5838C47.065 38.8622 47.1403 39.196 47.1403 39.5852V44H45.4187V43.0923H45.3675C45.2624 43.2969 45.1218 43.4773 44.9457 43.6335C44.7695 43.7869 44.5579 43.9077 44.3107 43.9957C44.0636 44.081 43.7781 44.1236 43.4542 44.1236ZM43.9741 42.8707C44.2411 42.8707 44.4769 42.8182 44.6815 42.7131C44.886 42.6051 45.0465 42.4602 45.163 42.2784C45.2795 42.0966 45.3377 41.8906 45.3377 41.6605V40.9659C45.2809 41.0028 45.2028 41.0369 45.1033 41.0682C45.0067 41.0966 44.8974 41.1236 44.7752 41.1491C44.6531 41.1719 44.5309 41.1932 44.4087 41.2131C44.2866 41.2301 44.1758 41.2457 44.0763 41.2599C43.8633 41.2912 43.6772 41.3409 43.5181 41.4091C43.359 41.4773 43.2354 41.5696 43.1474 41.6861C43.0593 41.7997 43.0153 41.9418 43.0153 42.1122C43.0153 42.3594 43.1048 42.5483 43.2837 42.679C43.4656 42.8068 43.6957 42.8707 43.9741 42.8707ZM54.4165 37.4545L52.1282 44H50.0827L47.7944 37.4545H49.712L51.0714 42.1378H51.1396L52.4947 37.4545H54.4165ZM58.1175 44.1278C57.4442 44.1278 56.8647 43.9915 56.3789 43.7188C55.896 43.4432 55.5238 43.054 55.2624 42.5511C55.0011 42.0455 54.8704 41.4474 54.8704 40.7571C54.8704 40.0838 55.0011 39.4929 55.2624 38.9844C55.5238 38.4759 55.8917 38.0795 56.3661 37.7955C56.8434 37.5114 57.4031 37.3693 58.0451 37.3693C58.4769 37.3693 58.8789 37.4389 59.2511 37.5781C59.6261 37.7145 59.9528 37.9205 60.2312 38.196C60.5124 38.4716 60.7312 38.8182 60.8874 39.2358C61.0437 39.6506 61.1218 40.1364 61.1218 40.6932V41.1918H55.5948V40.0668H59.413C59.413 39.8054 59.3562 39.5739 59.2425 39.3722C59.1289 39.1705 58.9712 39.0128 58.7695 38.8991C58.5707 38.7827 58.3391 38.7244 58.0749 38.7244C57.7994 38.7244 57.555 38.7884 57.342 38.9162C57.1317 39.0412 56.967 39.2102 56.8477 39.4233C56.7283 39.6335 56.6673 39.8679 56.6644 40.1264V41.196C56.6644 41.5199 56.7241 41.7997 56.8434 42.0355C56.9656 42.2713 57.1374 42.4531 57.359 42.581C57.5806 42.7088 57.8434 42.7727 58.1474 42.7727C58.3491 42.7727 58.5337 42.7443 58.7013 42.6875C58.869 42.6307 59.0124 42.5455 59.1317 42.4318C59.2511 42.3182 59.342 42.179 59.4045 42.0142L61.0835 42.125C60.9982 42.5284 60.8235 42.8807 60.5593 43.1818C60.2979 43.4801 59.9599 43.7131 59.5451 43.8807C59.1332 44.0455 58.6573 44.1278 58.1175 44.1278Z" fill="#8649E1"/>
<path fill-rule="evenodd" clip-rule="evenodd" d="M28.7071 36.2929C29.0976 36.6834 29.0976 37.3166 28.7071 37.7071L22.7111 43.7072C22.3206 44.0977 21.6874 44.0977 21.2969 43.7072L18.2929 40.6994C17.9024 40.3089 17.9024 39.6757 18.2929 39.2852C18.6834 38.8947 19.3166 38.8947 19.7071 39.2852L22.004 41.5859L27.2929 36.2929C27.6834 35.9024 28.3166 35.9024 28.7071 36.2929Z" fill="#8649E1"/>
</svg>
