<svg width="100" height="100" viewBox="0 0 100 100" fill="none" xmlns="http://www.w3.org/2000/svg">
<rect width="100" height="100" fill="white"/>
<rect x="11.5" y="36.5" width="77" height="27" rx="3.5" fill="#F9F2FF" stroke="#8649E1"/>
<path d="M48.4929 47.7827C48.4588 47.4389 48.3125 47.1719 48.054 46.9815C47.7955 46.7912 47.4446 46.696 47.0014 46.696C46.7003 46.696 46.446 46.7386 46.2386 46.8239C46.0313 46.9062 45.8722 47.0213 45.7614 47.169C45.6534 47.3168 45.5994 47.4844 45.5994 47.6719C45.5938 47.8281 45.6264 47.9645 45.6974 48.081C45.7713 48.1974 45.8722 48.2983 46 48.3835C46.1278 48.4659 46.2756 48.5384 46.4432 48.6009C46.6108 48.6605 46.7898 48.7116 46.9801 48.7543L47.7642 48.9418C48.1449 49.027 48.4943 49.1406 48.8125 49.2827C49.1307 49.4247 49.4063 49.5994 49.6392 49.8068C49.8722 50.0142 50.0526 50.2585 50.1804 50.5398C50.3111 50.821 50.3778 51.1435 50.3807 51.5071C50.3778 52.0412 50.2415 52.5043 49.9716 52.8963C49.7045 53.2855 49.3182 53.5881 48.8125 53.804C48.3097 54.017 47.7031 54.1236 46.9929 54.1236C46.2884 54.1236 45.6747 54.0156 45.152 53.7997C44.6321 53.5838 44.2259 53.2642 43.9332 52.8409C43.6435 52.4148 43.4915 51.8878 43.4773 51.2599H45.2628C45.2827 51.5526 45.3665 51.7969 45.5142 51.9929C45.6648 52.1861 45.8651 52.3324 46.1151 52.4318C46.3679 52.5284 46.6534 52.5767 46.9716 52.5767C47.2841 52.5767 47.5554 52.5312 47.7855 52.4403C48.0185 52.3494 48.1989 52.223 48.3267 52.0611C48.4545 51.8991 48.5185 51.7131 48.5185 51.5028C48.5185 51.3068 48.4602 51.142 48.3438 51.0085C48.2301 50.875 48.0625 50.7614 47.8409 50.6676C47.6222 50.5739 47.3537 50.4886 47.0355 50.4119L46.0852 50.1733C45.3494 49.9943 44.7685 49.7145 44.3423 49.3338C43.9162 48.9531 43.7045 48.4403 43.7074 47.7955C43.7045 47.267 43.8452 46.8054 44.1293 46.4105C44.4162 46.0156 44.8097 45.7074 45.3097 45.4858C45.8097 45.2642 46.3778 45.1534 47.0142 45.1534C47.6619 45.1534 48.2273 45.2642 48.7102 45.4858C49.196 45.7074 49.5739 46.0156 49.8438 46.4105C50.1136 46.8054 50.2528 47.2628 50.2614 47.7827H48.4929ZM53.4542 54.1236C53.0366 54.1236 52.6644 54.0511 52.3377 53.9062C52.011 53.7585 51.7525 53.5412 51.5621 53.2543C51.3746 52.9645 51.2809 52.6037 51.2809 52.1719C51.2809 51.8082 51.3477 51.5028 51.4812 51.2557C51.6147 51.0085 51.7965 50.8097 52.0266 50.6591C52.2567 50.5085 52.5181 50.3949 52.8107 50.3182C53.1062 50.2415 53.4158 50.1875 53.7397 50.1562C54.1204 50.1165 54.4272 50.0795 54.6602 50.0455C54.8931 50.0085 55.0621 49.9545 55.1673 49.8835C55.2724 49.8125 55.3249 49.7074 55.3249 49.5682V49.5426C55.3249 49.2727 55.2397 49.0639 55.0692 48.9162C54.9016 48.7685 54.663 48.6946 54.3533 48.6946C54.0266 48.6946 53.7667 48.767 53.5735 48.9119C53.3803 49.054 53.2525 49.233 53.19 49.4489L51.511 49.3125C51.5962 48.9148 51.7638 48.571 52.0138 48.2812C52.2638 47.9886 52.5863 47.7642 52.9812 47.608C53.3789 47.4489 53.8391 47.3693 54.3619 47.3693C54.7255 47.3693 55.0735 47.4119 55.4059 47.4972C55.7411 47.5824 56.038 47.7145 56.2965 47.8935C56.5579 48.0724 56.7638 48.3026 56.9144 48.5838C57.065 48.8622 57.1403 49.196 57.1403 49.5852V54H55.4187V53.0923H55.3675C55.2624 53.2969 55.1218 53.4773 54.9457 53.6335C54.7695 53.7869 54.5579 53.9077 54.3107 53.9957C54.0636 54.081 53.7781 54.1236 53.4542 54.1236ZM53.9741 52.8707C54.2411 52.8707 54.4769 52.8182 54.6815 52.7131C54.886 52.6051 55.0465 52.4602 55.163 52.2784C55.2795 52.0966 55.3377 51.8906 55.3377 51.6605V50.9659C55.2809 51.0028 55.2028 51.0369 55.1033 51.0682C55.0067 51.0966 54.8974 51.1236 54.7752 51.1491C54.6531 51.1719 54.5309 51.1932 54.4087 51.2131C54.2866 51.2301 54.1758 51.2457 54.0763 51.2599C53.8633 51.2912 53.6772 51.3409 53.5181 51.4091C53.359 51.4773 53.2354 51.5696 53.1474 51.6861C53.0593 51.7997 53.0153 51.9418 53.0153 52.1122C53.0153 52.3594 53.1048 52.5483 53.2837 52.679C53.4656 52.8068 53.6957 52.8707 53.9741 52.8707ZM64.4165 47.4545L62.1282 54H60.0827L57.7944 47.4545H59.712L61.0714 52.1378H61.1396L62.4947 47.4545H64.4165ZM68.1175 54.1278C67.4442 54.1278 66.8647 53.9915 66.3789 53.7188C65.896 53.4432 65.5238 53.054 65.2624 52.5511C65.0011 52.0455 64.8704 51.4474 64.8704 50.7571C64.8704 50.0838 65.0011 49.4929 65.2624 48.9844C65.5238 48.4759 65.8917 48.0795 66.3661 47.7955C66.8434 47.5114 67.4031 47.3693 68.0451 47.3693C68.4769 47.3693 68.8789 47.4389 69.2511 47.5781C69.6261 47.7145 69.9528 47.9205 70.2312 48.196C70.5124 48.4716 70.7312 48.8182 70.8874 49.2358C71.0437 49.6506 71.1218 50.1364 71.1218 50.6932V51.1918H65.5948V50.0668H69.413C69.413 49.8054 69.3562 49.5739 69.2425 49.3722C69.1289 49.1705 68.9712 49.0128 68.7695 48.8991C68.5707 48.7827 68.3391 48.7244 68.0749 48.7244C67.7994 48.7244 67.555 48.7884 67.342 48.9162C67.1317 49.0412 66.967 49.2102 66.8477 49.4233C66.7283 49.6335 66.6673 49.8679 66.6644 50.1264V51.196C66.6644 51.5199 66.7241 51.7997 66.8434 52.0355C66.9656 52.2713 67.1374 52.4531 67.359 52.581C67.5806 52.7088 67.8434 52.7727 68.1474 52.7727C68.3491 52.7727 68.5337 52.7443 68.7013 52.6875C68.869 52.6307 69.0124 52.5455 69.1317 52.4318C69.2511 52.3182 69.342 52.179 69.4045 52.0142L71.0835 52.125C70.9982 52.5284 70.8235 52.8807 70.5593 53.1818C70.2979 53.4801 69.9599 53.7131 69.5451 53.8807C69.1332 54.0455 68.6573 54.1278 68.1175 54.1278Z" fill="#8649E1"/>
<path fill-rule="evenodd" clip-rule="evenodd" d="M38.7071 46.2929C39.0976 46.6834 39.0976 47.3166 38.7071 47.7071L32.7111 53.7072C32.3206 54.0977 31.6874 54.0977 31.2969 53.7072L28.2929 50.6994C27.9024 50.3089 27.9024 49.6757 28.2929 49.2852C28.6834 48.8947 29.3166 48.8947 29.7071 49.2852L32.004 51.5859L37.2929 46.2929C37.6834 45.9024 38.3166 45.9024 38.7071 46.2929Z" fill="#8649E1"/>
</svg>
