<svg width="100" height="100" viewBox="0 0 100 100" fill="none" xmlns="http://www.w3.org/2000/svg">
<rect width="100" height="100" fill="white"/>
<rect x="10.5" y="19.5" width="79" height="61" rx="3.5" stroke="#8649E1"/>
<path d="M18.3551 26.995V25.7273H24.3281V26.995H22.1016V33H20.5817V26.995H18.3551ZM25.2834 33V27.5455H26.7962V33H25.2834ZM26.0433 26.8423C25.8184 26.8423 25.6255 26.7678 25.4645 26.6186C25.3059 26.4671 25.2266 26.286 25.2266 26.0753C25.2266 25.867 25.3059 25.6882 25.4645 25.5391C25.6255 25.3875 25.8184 25.3118 26.0433 25.3118C26.2682 25.3118 26.46 25.3875 26.6186 25.5391C26.7796 25.6882 26.8601 25.867 26.8601 26.0753C26.8601 26.286 26.7796 26.4671 26.6186 26.6186C26.46 26.7678 26.2682 26.8423 26.0433 26.8423ZM30.9093 27.5455V28.6818H27.6245V27.5455H30.9093ZM28.3702 26.2386H29.883V31.3239C29.883 31.4635 29.9043 31.5724 29.9469 31.6506C29.9895 31.7263 30.0487 31.7796 30.1245 31.8104C30.2026 31.8411 30.2926 31.8565 30.3944 31.8565C30.4654 31.8565 30.5364 31.8506 30.6074 31.8388C30.6784 31.8246 30.7329 31.8139 30.7708 31.8068L31.0087 32.9325C30.9329 32.9562 30.8264 32.9834 30.6891 33.0142C30.5518 33.0473 30.3849 33.0675 30.1884 33.0746C29.8238 33.0888 29.5042 33.0402 29.2296 32.929C28.9573 32.8177 28.7454 32.6449 28.5939 32.4105C28.4424 32.1761 28.3678 31.8802 28.3702 31.5227V26.2386ZM33.5247 25.7273V33H32.0119V25.7273H33.5247ZM37.2223 33.1065C36.6612 33.1065 36.1783 32.9929 35.7734 32.7656C35.371 32.536 35.0608 32.2116 34.843 31.7926C34.6252 31.3712 34.5163 30.8729 34.5163 30.2976C34.5163 29.7365 34.6252 29.2441 34.843 28.8203C35.0608 28.3965 35.3674 28.0663 35.7628 27.8295C36.1605 27.5928 36.6269 27.4744 37.1619 27.4744C37.5218 27.4744 37.8568 27.5324 38.1669 27.6484C38.4794 27.7621 38.7517 27.9337 38.9837 28.1634C39.218 28.393 39.4003 28.6818 39.5305 29.0298C39.6607 29.3755 39.7259 29.7803 39.7259 30.2443V30.6598H35.12V29.7223H38.3018C38.3018 29.5045 38.2545 29.3116 38.1598 29.1435C38.0651 28.9754 37.9337 28.844 37.7656 28.7493C37.5999 28.6522 37.407 28.6037 37.1868 28.6037C36.9571 28.6037 36.7536 28.657 36.576 28.7635C36.4008 28.8677 36.2635 29.0085 36.1641 29.1861C36.0646 29.3613 36.0137 29.5566 36.0114 29.772V30.6634C36.0114 30.9332 36.0611 31.1664 36.1605 31.3629C36.2623 31.5594 36.4055 31.7109 36.5902 31.8175C36.7749 31.924 36.9938 31.9773 37.2472 31.9773C37.4152 31.9773 37.5691 31.9536 37.7088 31.9062C37.8485 31.8589 37.968 31.7879 38.0675 31.6932C38.1669 31.5985 38.2427 31.4825 38.2947 31.3452L39.6939 31.4375C39.6229 31.7737 39.4773 32.0672 39.2571 32.3182C39.0393 32.5668 38.7576 32.7609 38.4119 32.9006C38.0687 33.0379 37.6721 33.1065 37.2223 33.1065Z" fill="#8649E1"/>
<path d="M11 38H89V39H11V38Z" fill="#EDD9FF"/>
<rect x="16" y="45" width="68" height="30" rx="2" fill="#F9F2FF"/>
</svg>
