<svg width="80" height="80" viewBox="0 0 80 80" fill="none" xmlns="http://www.w3.org/2000/svg">
<rect width="80" height="80" fill="white"/>
<rect x="6.5" y="13.5" width="67" height="53" rx="3.5" stroke="#8649E1"/>
<path d="M14.3551 20.995V19.7273H20.3281V20.995H18.1016V27H16.5817V20.995H14.3551ZM21.2834 27V21.5455H22.7962V27H21.2834ZM22.0433 20.8423C21.8184 20.8423 21.6255 20.7678 21.4645 20.6186C21.3059 20.4671 21.2266 20.286 21.2266 20.0753C21.2266 19.867 21.3059 19.6882 21.4645 19.5391C21.6255 19.3875 21.8184 19.3118 22.0433 19.3118C22.2682 19.3118 22.46 19.3875 22.6186 19.5391C22.7796 19.6882 22.8601 19.867 22.8601 20.0753C22.8601 20.286 22.7796 20.4671 22.6186 20.6186C22.46 20.7678 22.2682 20.8423 22.0433 20.8423ZM26.9093 21.5455V22.6818H23.6245V21.5455H26.9093ZM24.3702 20.2386H25.883V25.3239C25.883 25.4635 25.9043 25.5724 25.9469 25.6506C25.9895 25.7263 26.0487 25.7796 26.1245 25.8104C26.2026 25.8411 26.2926 25.8565 26.3944 25.8565C26.4654 25.8565 26.5364 25.8506 26.6074 25.8388C26.6784 25.8246 26.7329 25.8139 26.7708 25.8068L27.0087 26.9325C26.9329 26.9562 26.8264 26.9834 26.6891 27.0142C26.5518 27.0473 26.3849 27.0675 26.1884 27.0746C25.8238 27.0888 25.5042 27.0402 25.2296 26.929C24.9573 26.8177 24.7454 26.6449 24.5939 26.4105C24.4424 26.1761 24.3678 25.8802 24.3702 25.5227V20.2386ZM29.5247 19.7273V27H28.0119V19.7273H29.5247ZM33.2223 27.1065C32.6612 27.1065 32.1783 26.9929 31.7734 26.7656C31.371 26.536 31.0608 26.2116 30.843 25.7926C30.6252 25.3712 30.5163 24.8729 30.5163 24.2976C30.5163 23.7365 30.6252 23.2441 30.843 22.8203C31.0608 22.3965 31.3674 22.0663 31.7628 21.8295C32.1605 21.5928 32.6269 21.4744 33.1619 21.4744C33.5218 21.4744 33.8568 21.5324 34.1669 21.6484C34.4794 21.7621 34.7517 21.9337 34.9837 22.1634C35.218 22.393 35.4003 22.6818 35.5305 23.0298C35.6607 23.3755 35.7259 23.7803 35.7259 24.2443V24.6598H31.12V23.7223H34.3018C34.3018 23.5045 34.2545 23.3116 34.1598 23.1435C34.0651 22.9754 33.9337 22.844 33.7656 22.7493C33.5999 22.6522 33.407 22.6037 33.1868 22.6037C32.9571 22.6037 32.7536 22.657 32.576 22.7635C32.4008 22.8677 32.2635 23.0085 32.1641 23.1861C32.0646 23.3613 32.0137 23.5566 32.0114 23.772V24.6634C32.0114 24.9332 32.0611 25.1664 32.1605 25.3629C32.2623 25.5594 32.4055 25.7109 32.5902 25.8175C32.7749 25.924 32.9938 25.9773 33.2472 25.9773C33.4152 25.9773 33.5691 25.9536 33.7088 25.9062C33.8485 25.8589 33.968 25.7879 34.0675 25.6932C34.1669 25.5985 34.2427 25.4825 34.2947 25.3452L35.6939 25.4375C35.6229 25.7737 35.4773 26.0672 35.2571 26.3182C35.0393 26.5668 34.7576 26.7609 34.4119 26.9006C34.0687 27.0379 33.6721 27.1065 33.2223 27.1065Z" fill="#8649E1"/>
<path d="M7 32H73V33H7V32Z" fill="#EDD9FF"/>
<rect x="12" y="39" width="56" height="22" rx="2" fill="#F9F2FF"/>
</svg>
