<svg width="100" height="100" viewBox="0 0 100 100" fill="none" xmlns="http://www.w3.org/2000/svg">
<rect width="100" height="100" fill="white"/>
<rect x="19.5" y="22.5" width="61" height="47" rx="3.5" stroke="#8649E1"/>
<rect x="25" y="28" width="50" height="36" rx="2" fill="#F9F2FF"/>
<path fill-rule="evenodd" clip-rule="evenodd" d="M86.2929 50.7071C85.9024 50.3166 85.9024 49.6834 86.2929 49.2929L89.5858 46L86.2929 42.7071C85.9024 42.3166 85.9024 41.6834 86.2929 41.2929C86.6834 40.9024 87.3166 40.9024 87.7071 41.2929L91.7071 45.2929C92.0976 45.6834 92.0976 46.3166 91.7071 46.7071L87.7071 50.7071C87.3166 51.0976 86.6834 51.0976 86.2929 50.7071Z" fill="#8649E1"/>
<path fill-rule="evenodd" clip-rule="evenodd" d="M13.7071 50.7071C14.0976 50.3166 14.0976 49.6834 13.7071 49.2929L10.4142 46L13.7071 42.7071C14.0976 42.3166 14.0976 41.6834 13.7071 41.2929C13.3166 40.9024 12.6834 40.9024 12.2929 41.2929L8.29289 45.2929C7.90237 45.6834 7.90237 46.3166 8.29289 46.7071L12.2929 50.7071C12.6834 51.0976 13.3166 51.0976 13.7071 50.7071Z" fill="#8649E1"/>
<circle cx="42" cy="76" r="2" fill="#DCB8FF"/>
<circle cx="50" cy="76" r="2" fill="#8649E1"/>
<circle cx="58" cy="76" r="2" fill="#DCB8FF"/>
</svg>
