<svg width="98" height="54" viewBox="0 0 98 54" fill="none" xmlns="http://www.w3.org/2000/svg">
<path fill-rule="evenodd" clip-rule="evenodd" d="M81 2H17C15.8954 2 15 2.89543 15 4V50C15 51.1046 15.8954 52 17 52H81C82.1046 52 83 51.1046 83 50V4C83 2.89543 82.1046 2 81 2ZM17 0C14.7909 0 13 1.79086 13 4V50C13 52.2091 14.7909 54 17 54H81C83.2091 54 85 52.2091 85 50V4C85 1.79086 83.2091 0 81 0H17Z" fill="#D1D4DB"/>
<rect x="21" y="8" width="56" height="38" rx="2" fill="#D1D4DB"/>
<path fill-rule="evenodd" clip-rule="evenodd" d="M6.70711 22.2929C7.09763 22.6834 7.09763 23.3166 6.70711 23.7071L3.41421 27L6.70711 30.2929C7.09763 30.6834 7.09763 31.3166 6.70711 31.7071C6.31658 32.0976 5.68342 32.0976 5.29289 31.7071L1.29289 27.7071C0.902369 27.3166 0.902369 26.6834 1.29289 26.2929L5.29289 22.2929C5.68342 21.9024 6.31658 21.9024 6.70711 22.2929Z" fill="#898D9A"/>
<path fill-rule="evenodd" clip-rule="evenodd" d="M91.2929 31.7071C90.9024 31.3166 90.9024 30.6834 91.2929 30.2929L94.5858 27L91.2929 23.7071C90.9024 23.3166 90.9024 22.6834 91.2929 22.2929C91.6834 21.9024 92.3166 21.9024 92.7071 22.2929L96.7071 26.2929C97.0976 26.6834 97.0976 27.3166 96.7071 27.7071L92.7071 31.7071C92.3166 32.0976 91.6834 32.0976 91.2929 31.7071Z" fill="#898D9A"/>
</svg>
