<svg width="80" height="80" viewBox="0 0 80 80" fill="none" xmlns="http://www.w3.org/2000/svg">
<rect width="80" height="80" fill="white"/>
<rect x="13.5" y="16.5" width="53" height="39" rx="3.5" stroke="#8649E1"/>
<rect x="20" y="22" width="42" height="28" rx="2" fill="#F9F2FF"/>
<path fill-rule="evenodd" clip-rule="evenodd" d="M70.2929 40.7071C69.9024 40.3166 69.9024 39.6834 70.2929 39.2929L73.5858 36L70.2929 32.7071C69.9024 32.3166 69.9024 31.6834 70.2929 31.2929C70.6834 30.9024 71.3166 30.9024 71.7071 31.2929L75.7071 35.2929C76.0976 35.6834 76.0976 36.3166 75.7071 36.7071L71.7071 40.7071C71.3166 41.0976 70.6834 41.0976 70.2929 40.7071Z" fill="#8649E1"/>
<path fill-rule="evenodd" clip-rule="evenodd" d="M9.70711 40.7071C10.0976 40.3166 10.0976 39.6834 9.70711 39.2929L6.41421 36L9.70711 32.7071C10.0976 32.3166 10.0976 31.6834 9.70711 31.2929C9.31658 30.9024 8.68342 30.9024 8.29289 31.2929L4.29289 35.2929C3.90237 35.6834 3.90237 36.3166 4.29289 36.7071L8.29289 40.7071C8.68342 41.0976 9.31658 41.0976 9.70711 40.7071Z" fill="#8649E1"/>
<circle cx="32" cy="62" r="2" fill="#DCB8FF"/>
<circle cx="40" cy="62" r="2" fill="#8649E1"/>
<circle cx="48" cy="62" r="2" fill="#DCB8FF"/>
</svg>
