<svg width="80" height="80" viewBox="0 0 80 80" fill="none" xmlns="http://www.w3.org/2000/svg">
<rect width="80" height="80" fill="white"/>
<rect x="7.5" y="30.5" width="19" height="19" rx="3.5" stroke="#DCB8FF"/>
<path fill-rule="evenodd" clip-rule="evenodd" d="M22.7071 36.2929C23.0976 36.6834 23.0976 37.3166 22.7071 37.7071L16.7111 43.7072C16.3206 44.0977 15.6874 44.0977 15.2969 43.7072L12.2929 40.6994C11.9024 40.3089 11.9024 39.6757 12.2929 39.2852C12.6834 38.8947 13.3166 38.8947 13.7071 39.2852L16.004 41.5859L21.2929 36.2929C21.6834 35.9024 22.3166 35.9024 22.7071 36.2929Z" fill="#8649E1"/>
<path d="M33.2628 44H31.2855L34.2983 35.2727H36.6761L39.6847 44H37.7074L35.5213 37.267H35.4531L33.2628 44ZM33.1392 40.5696H37.8097V42.0099H33.1392V40.5696ZM43.3537 44.1278C42.6832 44.1278 42.1065 43.9858 41.6236 43.7017C41.1435 43.4148 40.7741 43.017 40.5156 42.5085C40.2599 42 40.1321 41.4148 40.1321 40.7528C40.1321 40.0824 40.2614 39.4943 40.5199 38.9886C40.7813 38.4801 41.152 38.0838 41.6321 37.7997C42.1122 37.5128 42.6832 37.3693 43.3452 37.3693C43.9162 37.3693 44.4162 37.473 44.8452 37.6804C45.2741 37.8878 45.6136 38.179 45.8636 38.554C46.1136 38.929 46.2514 39.3693 46.277 39.875H44.5639C44.5156 39.5483 44.3878 39.2855 44.1804 39.0866C43.9759 38.8849 43.7074 38.7841 43.375 38.7841C43.0938 38.7841 42.848 38.8608 42.6378 39.0142C42.4304 39.1648 42.2685 39.3849 42.152 39.6747C42.0355 39.9645 41.9773 40.3153 41.9773 40.7273C41.9773 41.1449 42.0341 41.5 42.1477 41.7926C42.2642 42.0852 42.4276 42.3082 42.6378 42.4616C42.848 42.6151 43.0938 42.6918 43.375 42.6918C43.5824 42.6918 43.7685 42.6491 43.9332 42.5639C44.1009 42.4787 44.2386 42.3551 44.3466 42.1932C44.4574 42.0284 44.5298 41.831 44.5639 41.6009H46.277C46.2486 42.1009 46.1122 42.5412 45.8679 42.9219C45.6264 43.2997 45.2926 43.5952 44.8665 43.8082C44.4403 44.0213 43.9361 44.1278 43.3537 44.1278ZM50.3967 44.1278C49.7262 44.1278 49.1495 43.9858 48.6665 43.7017C48.1864 43.4148 47.8171 43.017 47.5586 42.5085C47.3029 42 47.1751 41.4148 47.1751 40.7528C47.1751 40.0824 47.3043 39.4943 47.5629 38.9886C47.8242 38.4801 48.195 38.0838 48.6751 37.7997C49.1552 37.5128 49.7262 37.3693 50.3881 37.3693C50.9592 37.3693 51.4592 37.473 51.8881 37.6804C52.3171 37.8878 52.6566 38.179 52.9066 38.554C53.1566 38.929 53.2944 39.3693 53.32 39.875H51.6069C51.5586 39.5483 51.4308 39.2855 51.2234 39.0866C51.0188 38.8849 50.7504 38.7841 50.418 38.7841C50.1367 38.7841 49.891 38.8608 49.6808 39.0142C49.4734 39.1648 49.3114 39.3849 49.195 39.6747C49.0785 39.9645 49.0202 40.3153 49.0202 40.7273C49.0202 41.1449 49.0771 41.5 49.1907 41.7926C49.3072 42.0852 49.4705 42.3082 49.6808 42.4616C49.891 42.6151 50.1367 42.6918 50.418 42.6918C50.6254 42.6918 50.8114 42.6491 50.9762 42.5639C51.1438 42.4787 51.2816 42.3551 51.3896 42.1932C51.5004 42.0284 51.5728 41.831 51.6069 41.6009H53.32C53.2915 42.1009 53.1552 42.5412 52.9109 42.9219C52.6694 43.2997 52.3356 43.5952 51.9094 43.8082C51.4833 44.0213 50.979 44.1278 50.3967 44.1278ZM57.4652 44.1278C56.7919 44.1278 56.2124 43.9915 55.7266 43.7188C55.2436 43.4432 54.8714 43.054 54.6101 42.5511C54.3487 42.0455 54.218 41.4474 54.218 40.7571C54.218 40.0838 54.3487 39.4929 54.6101 38.9844C54.8714 38.4759 55.2393 38.0795 55.7138 37.7955C56.1911 37.5114 56.7507 37.3693 57.3928 37.3693C57.8246 37.3693 58.2266 37.4389 58.5987 37.5781C58.9737 37.7145 59.3004 37.9205 59.5788 38.196C59.8601 38.4716 60.0788 38.8182 60.2351 39.2358C60.3913 39.6506 60.4695 40.1364 60.4695 40.6932V41.1918H54.9425V40.0668H58.7607C58.7607 39.8054 58.7038 39.5739 58.5902 39.3722C58.4766 39.1705 58.3189 39.0128 58.1172 38.8991C57.9183 38.7827 57.6868 38.7244 57.4226 38.7244C57.147 38.7244 56.9027 38.7884 56.6896 38.9162C56.4794 39.0412 56.3146 39.2102 56.1953 39.4233C56.076 39.6335 56.0149 39.8679 56.0121 40.1264V41.196C56.0121 41.5199 56.0717 41.7997 56.1911 42.0355C56.3132 42.2713 56.4851 42.4531 56.7067 42.581C56.9283 42.7088 57.1911 42.7727 57.495 42.7727C57.6967 42.7727 57.8814 42.7443 58.049 42.6875C58.2166 42.6307 58.3601 42.5455 58.4794 42.4318C58.5987 42.3182 58.6896 42.179 58.7521 42.0142L60.4311 42.125C60.3459 42.5284 60.1712 42.8807 59.907 43.1818C59.6456 43.4801 59.3075 43.7131 58.8928 43.8807C58.4808 44.0455 58.005 44.1278 57.4652 44.1278ZM61.6541 46.4545V37.4545H63.4439V38.554H63.5249C63.6044 38.3778 63.7195 38.1989 63.87 38.017C64.0234 37.8324 64.2223 37.679 64.4666 37.5568C64.7138 37.4318 65.0206 37.3693 65.3871 37.3693C65.8643 37.3693 66.3047 37.4943 66.7081 37.7443C67.1115 37.9915 67.4339 38.3651 67.6754 38.8651C67.9169 39.3622 68.0376 39.9858 68.0376 40.7358C68.0376 41.4659 67.9197 42.0824 67.6839 42.5852C67.451 43.0852 67.1328 43.4645 66.7294 43.723C66.3288 43.9787 65.88 44.1065 65.3828 44.1065C65.0305 44.1065 64.7308 44.0483 64.4837 43.9318C64.2393 43.8153 64.0391 43.669 63.8828 43.4929C63.7266 43.3139 63.6072 43.1335 63.5249 42.9517H63.4695V46.4545H61.6541ZM63.4311 40.7273C63.4311 41.1165 63.4851 41.456 63.593 41.7457C63.701 42.0355 63.8572 42.2614 64.0618 42.4233C64.2663 42.5824 64.5149 42.6619 64.8075 42.6619C65.103 42.6619 65.353 42.581 65.5575 42.419C65.7621 42.2543 65.9169 42.027 66.022 41.7372C66.13 41.4446 66.1839 41.108 66.1839 40.7273C66.1839 40.3494 66.1314 40.017 66.0263 39.7301C65.9212 39.4432 65.7663 39.2187 65.5618 39.0568C65.3572 38.8949 65.1058 38.8139 64.8075 38.8139C64.5121 38.8139 64.2621 38.892 64.0575 39.0483C63.8558 39.2045 63.701 39.4261 63.593 39.7131C63.4851 40 63.4311 40.3381 63.4311 40.7273ZM72.7294 37.4545V38.8182H68.7876V37.4545H72.7294ZM69.6825 35.8864H71.4979V41.9886C71.4979 42.1562 71.5234 42.2869 71.5746 42.3807C71.6257 42.4716 71.6967 42.5355 71.7876 42.5724C71.8814 42.6094 71.9893 42.6278 72.1115 42.6278C72.1967 42.6278 72.282 42.6207 72.3672 42.6065C72.4524 42.5895 72.5178 42.5767 72.5632 42.5682L72.8487 43.919C72.7578 43.9474 72.63 43.9801 72.4652 44.017C72.3004 44.0568 72.1001 44.081 71.8643 44.0895C71.4268 44.1065 71.0433 44.0483 70.7138 43.9148C70.3871 43.7812 70.1328 43.5739 69.951 43.2926C69.7692 43.0114 69.6797 42.6562 69.6825 42.2273V35.8864Z" fill="#8649E1"/>
</svg>
