<svg width="100" height="100" viewBox="0 0 100 100" fill="none" xmlns="http://www.w3.org/2000/svg">
<rect width="100" height="100" fill="white"/>
<rect x="16.5" y="40.5" width="19" height="19" rx="3.5" stroke="#DCB8FF"/>
<path fill-rule="evenodd" clip-rule="evenodd" d="M31.7071 46.2929C32.0976 46.6834 32.0976 47.3166 31.7071 47.7071L25.7111 53.7072C25.3206 54.0977 24.6874 54.0977 24.2969 53.7072L21.2929 50.6994C20.9024 50.3089 20.9024 49.6757 21.2929 49.2852C21.6834 48.8947 22.3166 48.8947 22.7071 49.2852L25.004 51.5859L30.2929 46.2929C30.6834 45.9024 31.3166 45.9024 31.7071 46.2929Z" fill="#8649E1"/>
<path d="M44.2628 54H42.2855L45.2983 45.2727H47.6761L50.6847 54H48.7074L46.5213 47.267H46.4531L44.2628 54ZM44.1392 50.5696H48.8097V52.0099H44.1392V50.5696ZM54.3537 54.1278C53.6832 54.1278 53.1065 53.9858 52.6236 53.7017C52.1435 53.4148 51.7741 53.017 51.5156 52.5085C51.2599 52 51.1321 51.4148 51.1321 50.7528C51.1321 50.0824 51.2614 49.4943 51.5199 48.9886C51.7813 48.4801 52.152 48.0838 52.6321 47.7997C53.1122 47.5128 53.6832 47.3693 54.3452 47.3693C54.9162 47.3693 55.4162 47.473 55.8452 47.6804C56.2741 47.8878 56.6136 48.179 56.8636 48.554C57.1136 48.929 57.2514 49.3693 57.277 49.875H55.5639C55.5156 49.5483 55.3878 49.2855 55.1804 49.0866C54.9759 48.8849 54.7074 48.7841 54.375 48.7841C54.0938 48.7841 53.848 48.8608 53.6378 49.0142C53.4304 49.1648 53.2685 49.3849 53.152 49.6747C53.0355 49.9645 52.9773 50.3153 52.9773 50.7273C52.9773 51.1449 53.0341 51.5 53.1477 51.7926C53.2642 52.0852 53.4276 52.3082 53.6378 52.4616C53.848 52.6151 54.0938 52.6918 54.375 52.6918C54.5824 52.6918 54.7685 52.6491 54.9332 52.5639C55.1009 52.4787 55.2386 52.3551 55.3466 52.1932C55.4574 52.0284 55.5298 51.831 55.5639 51.6009H57.277C57.2486 52.1009 57.1122 52.5412 56.8679 52.9219C56.6264 53.2997 56.2926 53.5952 55.8665 53.8082C55.4403 54.0213 54.9361 54.1278 54.3537 54.1278ZM61.3967 54.1278C60.7262 54.1278 60.1495 53.9858 59.6665 53.7017C59.1864 53.4148 58.8171 53.017 58.5586 52.5085C58.3029 52 58.1751 51.4148 58.1751 50.7528C58.1751 50.0824 58.3043 49.4943 58.5629 48.9886C58.8242 48.4801 59.195 48.0838 59.6751 47.7997C60.1552 47.5128 60.7262 47.3693 61.3881 47.3693C61.9592 47.3693 62.4592 47.473 62.8881 47.6804C63.3171 47.8878 63.6566 48.179 63.9066 48.554C64.1566 48.929 64.2944 49.3693 64.32 49.875H62.6069C62.5586 49.5483 62.4308 49.2855 62.2234 49.0866C62.0188 48.8849 61.7504 48.7841 61.418 48.7841C61.1367 48.7841 60.891 48.8608 60.6808 49.0142C60.4734 49.1648 60.3114 49.3849 60.195 49.6747C60.0785 49.9645 60.0202 50.3153 60.0202 50.7273C60.0202 51.1449 60.0771 51.5 60.1907 51.7926C60.3072 52.0852 60.4705 52.3082 60.6808 52.4616C60.891 52.6151 61.1367 52.6918 61.418 52.6918C61.6254 52.6918 61.8114 52.6491 61.9762 52.5639C62.1438 52.4787 62.2816 52.3551 62.3896 52.1932C62.5004 52.0284 62.5728 51.831 62.6069 51.6009H64.32C64.2915 52.1009 64.1552 52.5412 63.9109 52.9219C63.6694 53.2997 63.3356 53.5952 62.9094 53.8082C62.4833 54.0213 61.979 54.1278 61.3967 54.1278ZM68.4652 54.1278C67.7919 54.1278 67.2124 53.9915 66.7266 53.7188C66.2436 53.4432 65.8714 53.054 65.6101 52.5511C65.3487 52.0455 65.218 51.4474 65.218 50.7571C65.218 50.0838 65.3487 49.4929 65.6101 48.9844C65.8714 48.4759 66.2393 48.0795 66.7138 47.7955C67.1911 47.5114 67.7507 47.3693 68.3928 47.3693C68.8246 47.3693 69.2266 47.4389 69.5987 47.5781C69.9737 47.7145 70.3004 47.9205 70.5788 48.196C70.8601 48.4716 71.0788 48.8182 71.2351 49.2358C71.3913 49.6506 71.4695 50.1364 71.4695 50.6932V51.1918H65.9425V50.0668H69.7607C69.7607 49.8054 69.7038 49.5739 69.5902 49.3722C69.4766 49.1705 69.3189 49.0128 69.1172 48.8991C68.9183 48.7827 68.6868 48.7244 68.4226 48.7244C68.147 48.7244 67.9027 48.7884 67.6896 48.9162C67.4794 49.0412 67.3146 49.2102 67.1953 49.4233C67.076 49.6335 67.0149 49.8679 67.0121 50.1264V51.196C67.0121 51.5199 67.0717 51.7997 67.1911 52.0355C67.3132 52.2713 67.4851 52.4531 67.7067 52.581C67.9283 52.7088 68.1911 52.7727 68.495 52.7727C68.6967 52.7727 68.8814 52.7443 69.049 52.6875C69.2166 52.6307 69.3601 52.5455 69.4794 52.4318C69.5987 52.3182 69.6896 52.179 69.7521 52.0142L71.4311 52.125C71.3459 52.5284 71.1712 52.8807 70.907 53.1818C70.6456 53.4801 70.3075 53.7131 69.8928 53.8807C69.4808 54.0455 69.005 54.1278 68.4652 54.1278ZM72.6541 56.4545V47.4545H74.4439V48.554H74.5249C74.6044 48.3778 74.7195 48.1989 74.87 48.017C75.0234 47.8324 75.2223 47.679 75.4666 47.5568C75.7138 47.4318 76.0206 47.3693 76.3871 47.3693C76.8643 47.3693 77.3047 47.4943 77.7081 47.7443C78.1115 47.9915 78.4339 48.3651 78.6754 48.8651C78.9169 49.3622 79.0376 49.9858 79.0376 50.7358C79.0376 51.4659 78.9197 52.0824 78.6839 52.5852C78.451 53.0852 78.1328 53.4645 77.7294 53.723C77.3288 53.9787 76.88 54.1065 76.3828 54.1065C76.0305 54.1065 75.7308 54.0483 75.4837 53.9318C75.2393 53.8153 75.0391 53.669 74.8828 53.4929C74.7266 53.3139 74.6072 53.1335 74.5249 52.9517H74.4695V56.4545H72.6541ZM74.4311 50.7273C74.4311 51.1165 74.4851 51.456 74.593 51.7457C74.701 52.0355 74.8572 52.2614 75.0618 52.4233C75.2663 52.5824 75.5149 52.6619 75.8075 52.6619C76.103 52.6619 76.353 52.581 76.5575 52.419C76.7621 52.2543 76.9169 52.027 77.022 51.7372C77.13 51.4446 77.1839 51.108 77.1839 50.7273C77.1839 50.3494 77.1314 50.017 77.0263 49.7301C76.9212 49.4432 76.7663 49.2187 76.5618 49.0568C76.3572 48.8949 76.1058 48.8139 75.8075 48.8139C75.5121 48.8139 75.2621 48.892 75.0575 49.0483C74.8558 49.2045 74.701 49.4261 74.593 49.7131C74.4851 50 74.4311 50.3381 74.4311 50.7273ZM83.7294 47.4545V48.8182H79.7876V47.4545H83.7294ZM80.6825 45.8864H82.4979V51.9886C82.4979 52.1562 82.5234 52.2869 82.5746 52.3807C82.6257 52.4716 82.6967 52.5355 82.7876 52.5724C82.8814 52.6094 82.9893 52.6278 83.1115 52.6278C83.1967 52.6278 83.282 52.6207 83.3672 52.6065C83.4524 52.5895 83.5178 52.5767 83.5632 52.5682L83.8487 53.919C83.7578 53.9474 83.63 53.9801 83.4652 54.017C83.3004 54.0568 83.1001 54.081 82.8643 54.0895C82.4268 54.1065 82.0433 54.0483 81.7138 53.9148C81.3871 53.7812 81.1328 53.5739 80.951 53.2926C80.7692 53.0114 80.6797 52.6562 80.6825 52.2273V45.8864Z" fill="#8649E1"/>
</svg>
