<svg width="80" height="80" viewBox="0 0 80 80" fill="none" xmlns="http://www.w3.org/2000/svg">
<rect width="80" height="80" fill="white"/>
<path fill-rule="evenodd" clip-rule="evenodd" d="M26.2929 25.2929C26.6834 24.9024 27.3166 24.9024 27.7071 25.2929L31 28.5858L34.2929 25.2929C34.6834 24.9024 35.3166 24.9024 35.7071 25.2929C36.0976 25.6834 36.0976 26.3166 35.7071 26.7071L31.7071 30.7071C31.3166 31.0976 30.6834 31.0976 30.2929 30.7071L26.2929 26.7071C25.9024 26.3166 25.9024 25.6834 26.2929 25.2929Z" fill="#8649E1"/>
<circle cx="17" cy="27" r="5.5" fill="#C695FF" stroke="#8649E1"/>
<rect x="11.5" y="35.5" width="57" height="23" rx="3.5" stroke="#8649E1"/>
<circle cx="25" cy="47" r="6" fill="#EDD9FF"/>
<circle cx="41" cy="47" r="6" fill="#DCB8FF"/>
<circle cx="57" cy="47" r="5.5" fill="#C695FF" stroke="#8649E1"/>
</svg>
