<svg width="100" height="100" viewBox="0 0 100 100" fill="none" xmlns="http://www.w3.org/2000/svg">
<rect width="100" height="100" fill="white"/>
<rect x="34.5" y="40.5" width="31" height="19" rx="9.5" fill="#F9F2FF" stroke="#8649E1"/>
<path d="M50.3668 54.0001V52.8921L52.9556 50.4951C53.1757 50.282 53.3604 50.0903 53.5096 49.9198C53.6611 49.7494 53.7759 49.5825 53.854 49.4191C53.9321 49.2534 53.9712 49.0747 53.9712 48.8829C53.9712 48.6698 53.9227 48.4864 53.8256 48.3325C53.7285 48.1762 53.596 48.0567 53.4279 47.9738C53.2598 47.8886 53.0692 47.846 52.8561 47.846C52.6336 47.846 52.4395 47.891 52.2738 47.9809C52.108 48.0709 51.9802 48.1999 51.8902 48.368C51.8003 48.5361 51.7553 48.7361 51.7553 48.9681H50.2958C50.2958 48.4923 50.4035 48.0792 50.6189 47.7288C50.8344 47.3784 51.1362 47.1073 51.5245 46.9156C51.9127 46.7238 52.3602 46.6279 52.8668 46.6279C53.3876 46.6279 53.841 46.7203 54.2269 46.9049C54.6151 47.0872 54.917 47.3405 55.1324 47.6649C55.3479 47.9892 55.4556 48.3609 55.4556 48.7799C55.4556 49.0545 55.4011 49.3256 55.2922 49.5931C55.1857 49.8606 54.9951 50.1578 54.7205 50.4845C54.4459 50.8088 54.0588 51.1982 53.5593 51.6528L52.4975 52.6933V52.743H55.5515V54.0001H50.3668Z" fill="#8649E1"/>
<path d="M43.4794 52.7216V51.5107L46.5156 46.7273H47.5596V48.4034H46.9417L45.0277 51.4326V51.4894H49.3423V52.7216H43.4794ZM46.9701 54V52.3523L46.9985 51.8161V46.7273H48.4403V54H46.9701Z" fill="#8649E1"/>
</svg>
