<svg width="80" height="80" viewBox="0 0 80 80" fill="none" xmlns="http://www.w3.org/2000/svg">
<rect width="80" height="80" fill="white"/>
<rect x="24.5" y="30.5" width="31" height="19" rx="9.5" fill="#F9F2FF" stroke="#8649E1"/>
<path d="M40.3669 44.0001V42.8921L42.9557 40.4951C43.1759 40.282 43.3605 40.0903 43.5097 39.9198C43.6612 39.7494 43.776 39.5825 43.8541 39.4191C43.9323 39.2534 43.9713 39.0747 43.9713 38.8829C43.9713 38.6698 43.9228 38.4864 43.8257 38.3325C43.7287 38.1762 43.5961 38.0567 43.428 37.9738C43.2599 37.8886 43.0693 37.846 42.8563 37.846C42.6337 37.846 42.4396 37.891 42.2739 37.9809C42.1082 38.0709 41.9803 38.1999 41.8904 38.368C41.8004 38.5361 41.7554 38.7361 41.7554 38.9681H40.2959C40.2959 38.4923 40.4036 38.0792 40.6191 37.7288C40.8345 37.3784 41.1363 37.1073 41.5246 36.9156C41.9128 36.7238 42.3603 36.6279 42.8669 36.6279C43.3878 36.6279 43.8411 36.7203 44.227 36.9049C44.6153 37.0872 44.9171 37.3405 45.1325 37.6649C45.348 37.9892 45.4557 38.3609 45.4557 38.7799C45.4557 39.0545 45.4012 39.3256 45.2923 39.5931C45.1858 39.8606 44.9952 40.1578 44.7206 40.4845C44.446 40.8088 44.0589 41.1982 43.5594 41.6528L42.4976 42.6933V42.743H45.5516V44.0001H40.3669Z" fill="#8649E1"/>
<path d="M33.4795 42.7216V41.5107L36.5157 36.7273H37.5597V38.4034H36.9419L35.0278 41.4326V41.4894H39.3424V42.7216H33.4795ZM36.9703 44V42.3523L36.9987 41.8161V36.7273H38.4404V44H36.9703Z" fill="#8649E1"/>
</svg>
