<svg width="100" height="100" viewBox="0 0 100 100" fill="none" xmlns="http://www.w3.org/2000/svg">
<rect width="100" height="100" fill="white"/>
<rect x="5.5" y="36.5" width="89" height="27" rx="3.5" stroke="#8649E1"/>
<path d="M29.6136 53.0888C29.1993 53.0888 28.8241 52.9822 28.4879 52.7692C28.1541 52.5537 27.889 52.2377 27.6925 51.821C27.4983 51.402 27.4013 50.8883 27.4013 50.2798C27.4013 49.6548 27.5019 49.1352 27.7031 48.7209C27.9044 48.3042 28.1719 47.9929 28.5057 47.7869C28.8419 47.5786 29.21 47.4744 29.6101 47.4744C29.9155 47.4744 30.17 47.5265 30.3736 47.6307C30.5795 47.7325 30.7453 47.8603 30.8707 48.0142C30.9986 48.1657 31.0956 48.3149 31.1619 48.4616H31.2081V45.7273H32.7173V53H31.2259V52.1264H31.1619C31.0909 52.2779 30.9903 52.4283 30.8601 52.5774C30.7322 52.7242 30.5653 52.8461 30.3594 52.9432C30.1558 53.0402 29.9072 53.0888 29.6136 53.0888ZM30.093 51.8849C30.3369 51.8849 30.5429 51.8187 30.7109 51.6861C30.8814 51.5511 31.0116 51.3629 31.1016 51.1214C31.1939 50.88 31.2401 50.5971 31.2401 50.2727C31.2401 49.9484 31.1951 49.6667 31.1051 49.4276C31.0152 49.1884 30.8849 49.0038 30.7145 48.8736C30.544 48.7434 30.3369 48.6783 30.093 48.6783C29.8445 48.6783 29.6349 48.7457 29.4645 48.8807C29.294 49.0156 29.165 49.2027 29.0774 49.4418C28.9898 49.6809 28.946 49.9579 28.946 50.2727C28.946 50.59 28.9898 50.8705 29.0774 51.1143C29.1674 51.3558 29.2964 51.5452 29.4645 51.6825C29.6349 51.8175 29.8445 51.8849 30.093 51.8849ZM35.9711 53.0888C35.5568 53.0888 35.1815 52.9822 34.8453 52.7692C34.5115 52.5537 34.2464 52.2377 34.0499 51.821C33.8558 51.402 33.7587 50.8883 33.7587 50.2798C33.7587 49.6548 33.8593 49.1352 34.0605 48.7209C34.2618 48.3042 34.5293 47.9929 34.8631 47.7869C35.1993 47.5786 35.5674 47.4744 35.9675 47.4744C36.2729 47.4744 36.5274 47.5265 36.731 47.6307C36.937 47.7325 37.1027 47.8603 37.2282 48.0142C37.356 48.1657 37.4531 48.3149 37.5194 48.4616H37.5655V45.7273H39.0748V53H37.5833V52.1264H37.5194C37.4483 52.2779 37.3477 52.4283 37.2175 52.5774C37.0897 52.7242 36.9228 52.8461 36.7168 52.9432C36.5132 53.0402 36.2646 53.0888 35.9711 53.0888ZM36.4505 51.8849C36.6943 51.8849 36.9003 51.8187 37.0684 51.6861C37.2388 51.5511 37.369 51.3629 37.459 51.1214C37.5513 50.88 37.5975 50.5971 37.5975 50.2727C37.5975 49.9484 37.5525 49.6667 37.4625 49.4276C37.3726 49.1884 37.2424 49.0038 37.0719 48.8736C36.9015 48.7434 36.6943 48.6783 36.4505 48.6783C36.2019 48.6783 35.9924 48.7457 35.8219 48.8807C35.6515 49.0156 35.5224 49.2027 35.4348 49.4418C35.3472 49.6809 35.3034 49.9579 35.3034 50.2727C35.3034 50.59 35.3472 50.8705 35.4348 51.1143C35.5248 51.3558 35.6538 51.5452 35.8219 51.6825C35.9924 51.8175 36.2019 51.8849 36.4505 51.8849ZM43.4862 45.3864L41.1424 54.0938H39.8391L42.1829 45.3864H43.4862ZM44.215 53V47.5455H45.6568V48.5078H45.7207C45.8343 48.1882 46.0237 47.9361 46.2889 47.7514C46.554 47.5668 46.8713 47.4744 47.2406 47.4744C47.6146 47.4744 47.9331 47.5679 48.1958 47.755C48.4586 47.9396 48.6338 48.1906 48.7214 48.5078H48.7782C48.8895 48.1953 49.0907 47.9455 49.3819 47.7585C49.6755 47.5691 50.0223 47.4744 50.4224 47.4744C50.9314 47.4744 51.3445 47.6366 51.6618 47.9609C51.9814 48.2829 52.1412 48.7398 52.1412 49.3317V53H50.6319V49.63C50.6319 49.3269 50.5514 49.0997 50.3904 48.9482C50.2295 48.7966 50.0282 48.7209 49.7868 48.7209C49.5121 48.7209 49.2979 48.8085 49.144 48.9837C48.9901 49.1565 48.9132 49.3849 48.9132 49.669V53H47.4466V49.598C47.4466 49.3305 47.3696 49.1174 47.2157 48.9588C47.0642 48.8002 46.8642 48.7209 46.6156 48.7209C46.4475 48.7209 46.296 48.7635 46.161 48.8487C46.0285 48.9316 45.9231 49.0488 45.845 49.2003C45.7669 49.3494 45.7278 49.5246 45.7278 49.7259V53H44.215ZM53.3361 53V47.5455H54.7779V48.5078H54.8418C54.9554 48.1882 55.1448 47.9361 55.41 47.7514C55.6751 47.5668 55.9924 47.4744 56.3617 47.4744C56.7357 47.4744 57.0542 47.5679 57.3169 47.755C57.5797 47.9396 57.7549 48.1906 57.8425 48.5078H57.8993C58.0106 48.1953 58.2118 47.9455 58.503 47.7585C58.7966 47.5691 59.1434 47.4744 59.5435 47.4744C60.0525 47.4744 60.4656 47.6366 60.7828 47.9609C61.1025 48.2829 61.2623 48.7398 61.2623 49.3317V53H59.753V49.63C59.753 49.3269 59.6725 49.0997 59.5115 48.9482C59.3506 48.7966 59.1493 48.7209 58.9078 48.7209C58.6332 48.7209 58.419 48.8085 58.2651 48.9837C58.1112 49.1565 58.0343 49.3849 58.0343 49.669V53H56.5676V49.598C56.5676 49.3305 56.4907 49.1174 56.3368 48.9588C56.1853 48.8002 55.9853 48.7209 55.7367 48.7209C55.5686 48.7209 55.4171 48.7635 55.2821 48.8487C55.1496 48.9316 55.0442 49.0488 54.9661 49.2003C54.888 49.3494 54.8489 49.5246 54.8489 49.7259V53H53.3361ZM65.6248 45.3864L63.2811 54.0938H61.9778L64.3216 45.3864H65.6248ZM67.2876 55.0455C67.0959 55.0455 66.916 55.0301 66.7479 54.9993C66.5821 54.9709 66.4448 54.9342 66.3359 54.8892L66.6768 53.7599C66.8544 53.8144 67.0142 53.844 67.1562 53.8487C67.3007 53.8535 67.425 53.8203 67.5291 53.7493C67.6357 53.6783 67.7221 53.5575 67.7884 53.3871L67.8771 53.1562L65.9205 47.5455H67.5114L68.6406 51.5511H68.6974L69.8374 47.5455H71.4389L69.3189 53.5895C69.2171 53.883 69.0786 54.1387 68.9034 54.3565C68.7306 54.5767 68.5116 54.746 68.2464 54.8643C67.9813 54.9851 67.6617 55.0455 67.2876 55.0455ZM73.147 55.0455C72.9553 55.0455 72.7753 55.0301 72.6072 54.9993C72.4415 54.9709 72.3042 54.9342 72.1953 54.8892L72.5362 53.7599C72.7138 53.8144 72.8736 53.844 73.0156 53.8487C73.16 53.8535 73.2843 53.8203 73.3885 53.7493C73.495 53.6783 73.5814 53.5575 73.6477 53.3871L73.7365 53.1562L71.7798 47.5455H73.3707L74.5 51.5511H74.5568L75.6967 47.5455H77.2983L75.1783 53.5895C75.0765 53.883 74.938 54.1387 74.7628 54.3565C74.59 54.5767 74.371 54.746 74.1058 54.8643C73.8407 54.9851 73.5211 55.0455 73.147 55.0455ZM79.0064 55.0455C78.8146 55.0455 78.6347 55.0301 78.4666 54.9993C78.3009 54.9709 78.1636 54.9342 78.0547 54.8892L78.3956 53.7599C78.5732 53.8144 78.733 53.844 78.875 53.8487C79.0194 53.8535 79.1437 53.8203 79.2479 53.7493C79.3544 53.6783 79.4408 53.5575 79.5071 53.3871L79.5959 53.1562L77.6392 47.5455H79.2301L80.3594 51.5511H80.4162L81.5561 47.5455H83.1577L81.0376 53.5895C80.9358 53.883 80.7973 54.1387 80.6222 54.3565C80.4493 54.5767 80.2304 54.746 79.9652 54.8643C79.7 54.9851 79.3804 55.0455 79.0064 55.0455ZM84.8658 55.0455C84.674 55.0455 84.4941 55.0301 84.326 54.9993C84.1603 54.9709 84.023 54.9342 83.9141 54.8892L84.255 53.7599C84.4325 53.8144 84.5923 53.844 84.7344 53.8487C84.8788 53.8535 85.0031 53.8203 85.1072 53.7493C85.2138 53.6783 85.3002 53.5575 85.3665 53.3871L85.4553 53.1562L83.4986 47.5455H85.0895L86.2188 51.5511H86.2756L87.4155 47.5455H89.017L86.897 53.5895C86.7952 53.883 86.6567 54.1387 86.4815 54.3565C86.3087 54.5767 86.0897 54.746 85.8246 54.8643C85.5594 54.9851 85.2398 55.0455 84.8658 55.0455Z" fill="#DCB8FF"/>
<path fill-rule="evenodd" clip-rule="evenodd" d="M19.4286 44.7143C19.4286 44.3198 19.7484 44 20.1429 44C20.5373 44 20.8571 44.3198 20.8571 44.7143V46.1429H22.2857C22.6802 46.1429 23 46.4627 23 46.8571V54C23 54.3945 22.6802 54.7143 22.2857 54.7143H13.7143C13.3198 54.7143 13 54.3945 13 54V46.8571C13 46.4627 13.3198 46.1429 13.7143 46.1429H15.1429V44.7143C15.1429 44.3198 15.4627 44 15.8571 44C16.2516 44 16.5714 44.3198 16.5714 44.7143V46.1429H19.4286V44.7143ZM15.1429 47.5714C15.1429 47.9659 15.4627 48.2857 15.8571 48.2857C16.2516 48.2857 16.5714 47.9659 16.5714 47.5714H19.4286C19.4286 47.9659 19.7484 48.2857 20.1429 48.2857C20.5373 48.2857 20.8571 47.9659 20.8571 47.5714H21.5714V49H14.4286V47.5714H15.1429ZM14.4286 50.4286V53.2857H21.5714V50.4286H14.4286Z" fill="#8649E1"/>
</svg>
