<svg width="80" height="80" viewBox="0 0 80 80" fill="none" xmlns="http://www.w3.org/2000/svg">
<rect width="80" height="80" fill="white"/>
<rect x="2.5" y="26.5" width="75" height="27" rx="3.5" stroke="#8649E1"/>
<path d="M24.0909 43.071C23.7595 43.071 23.4593 42.9858 23.1903 42.8153C22.9233 42.643 22.7112 42.3902 22.554 42.0568C22.3987 41.7216 22.321 41.3106 22.321 40.8239C22.321 40.3239 22.4015 39.9081 22.5625 39.5767C22.7235 39.2434 22.9375 38.9943 23.2045 38.8295C23.4735 38.6629 23.768 38.5795 24.0881 38.5795C24.3324 38.5795 24.536 38.6212 24.6989 38.7045C24.8636 38.786 24.9962 38.8883 25.0966 39.0114C25.1989 39.1326 25.2765 39.2519 25.3295 39.3693H25.3665V37.1818H26.5739V43H25.3807V42.3011H25.3295C25.2727 42.4223 25.1922 42.5426 25.0881 42.6619C24.9858 42.7794 24.8523 42.8769 24.6875 42.9545C24.5246 43.0322 24.3258 43.071 24.0909 43.071ZM24.4744 42.108C24.6695 42.108 24.8343 42.0549 24.9688 41.9489C25.1051 41.8409 25.2093 41.6903 25.2812 41.4972C25.3551 41.304 25.392 41.0777 25.392 40.8182C25.392 40.5587 25.3561 40.3333 25.2841 40.142C25.2121 39.9508 25.108 39.803 24.9716 39.6989C24.8352 39.5947 24.6695 39.5426 24.4744 39.5426C24.2756 39.5426 24.108 39.5966 23.9716 39.7045C23.8352 39.8125 23.732 39.9621 23.6619 40.1534C23.5919 40.3447 23.5568 40.5663 23.5568 40.8182C23.5568 41.072 23.5919 41.2964 23.6619 41.4915C23.7339 41.6847 23.8371 41.8362 23.9716 41.946C24.108 42.054 24.2756 42.108 24.4744 42.108ZM29.1768 43.071C28.8454 43.071 28.5452 42.9858 28.2763 42.8153C28.0092 42.643 27.7971 42.3902 27.6399 42.0568C27.4846 41.7216 27.407 41.3106 27.407 40.8239C27.407 40.3239 27.4875 39.9081 27.6484 39.5767C27.8094 39.2434 28.0234 38.9943 28.2905 38.8295C28.5594 38.6629 28.8539 38.5795 29.174 38.5795C29.4183 38.5795 29.6219 38.6212 29.7848 38.7045C29.9496 38.786 30.0821 38.8883 30.1825 39.0114C30.2848 39.1326 30.3625 39.2519 30.4155 39.3693H30.4524V37.1818H31.6598V43H30.4666V42.3011H30.4155C30.3587 42.4223 30.2782 42.5426 30.174 42.6619C30.0717 42.7794 29.9382 42.8769 29.7734 42.9545C29.6106 43.0322 29.4117 43.071 29.1768 43.071ZM29.5604 42.108C29.7554 42.108 29.9202 42.0549 30.0547 41.9489C30.1911 41.8409 30.2952 41.6903 30.3672 41.4972C30.4411 41.304 30.478 41.0777 30.478 40.8182C30.478 40.5587 30.442 40.3333 30.37 40.142C30.2981 39.9508 30.1939 39.803 30.0575 39.6989C29.9212 39.5947 29.7554 39.5426 29.5604 39.5426C29.3615 39.5426 29.1939 39.5966 29.0575 39.7045C28.9212 39.8125 28.8179 39.9621 28.7479 40.1534C28.6778 40.3447 28.6428 40.5663 28.6428 40.8182C28.6428 41.072 28.6778 41.2964 28.7479 41.4915C28.8198 41.6847 28.9231 41.8362 29.0575 41.946C29.1939 42.054 29.3615 42.108 29.5604 42.108ZM35.1889 36.9091L33.3139 43.875H32.2713L34.1463 36.9091H35.1889ZM35.772 43V38.6364H36.9254V39.4062H36.9766C37.0675 39.1506 37.219 38.9489 37.4311 38.8011C37.6432 38.6534 37.897 38.5795 38.1925 38.5795C38.4917 38.5795 38.7464 38.6544 38.9567 38.804C39.1669 38.9517 39.3071 39.1525 39.3771 39.4062H39.4226C39.5116 39.1562 39.6726 38.9564 39.9055 38.8068C40.1404 38.6553 40.4179 38.5795 40.7379 38.5795C41.1451 38.5795 41.4756 38.7093 41.7294 38.9688C41.9851 39.2263 42.1129 39.5919 42.1129 40.0653V43H40.9055V40.304C40.9055 40.0616 40.8411 39.8797 40.7124 39.7585C40.5836 39.6373 40.4226 39.5767 40.2294 39.5767C40.0097 39.5767 39.8383 39.6468 39.7152 39.7869C39.5921 39.9252 39.5305 40.108 39.5305 40.3352V43H38.3572V40.2784C38.3572 40.0644 38.2957 39.8939 38.1726 39.767C38.0514 39.6402 37.8913 39.5767 37.6925 39.5767C37.558 39.5767 37.4368 39.6108 37.3288 39.679C37.2228 39.7453 37.1385 39.839 37.076 39.9602C37.0135 40.0795 36.9822 40.2197 36.9822 40.3807V43H35.772ZM43.0689 43V38.6364H44.2223V39.4062H44.2734C44.3643 39.1506 44.5159 38.9489 44.728 38.8011C44.9401 38.6534 45.1939 38.5795 45.4893 38.5795C45.7886 38.5795 46.0433 38.6544 46.2536 38.804C46.4638 38.9517 46.6039 39.1525 46.674 39.4062H46.7195C46.8085 39.1562 46.9695 38.9564 47.2024 38.8068C47.4373 38.6553 47.7147 38.5795 48.0348 38.5795C48.442 38.5795 48.7725 38.7093 49.0263 38.9688C49.282 39.2263 49.4098 39.5919 49.4098 40.0653V43H48.2024V40.304C48.2024 40.0616 48.138 39.8797 48.0092 39.7585C47.8804 39.6373 47.7195 39.5767 47.5263 39.5767C47.3066 39.5767 47.1352 39.6468 47.0121 39.7869C46.889 39.9252 46.8274 40.108 46.8274 40.3352V43H45.6541V40.2784C45.6541 40.0644 45.5926 39.8939 45.4695 39.767C45.3482 39.6402 45.1882 39.5767 44.9893 39.5767C44.8549 39.5767 44.7337 39.6108 44.6257 39.679C44.5196 39.7453 44.4354 39.839 44.3729 39.9602C44.3104 40.0795 44.2791 40.2197 44.2791 40.3807V43H43.0689ZM52.8999 36.9091L51.0249 43.875H49.9822L51.8572 36.9091H52.8999ZM54.2301 44.6364C54.0767 44.6364 53.9328 44.6241 53.7983 44.5994C53.6657 44.5767 53.5559 44.5473 53.4688 44.5114L53.7415 43.608C53.8835 43.6515 54.0114 43.6752 54.125 43.679C54.2405 43.6828 54.34 43.6563 54.4233 43.5994C54.5085 43.5426 54.5777 43.446 54.6307 43.3097L54.7017 43.125L53.1364 38.6364H54.4091L55.3125 41.8409H55.358L56.2699 38.6364H57.5511L55.8551 43.4716C55.7737 43.7064 55.6629 43.911 55.5227 44.0852C55.3845 44.2614 55.2093 44.3968 54.9972 44.4915C54.785 44.5881 54.5294 44.6364 54.2301 44.6364ZM58.9176 44.6364C58.7642 44.6364 58.6203 44.6241 58.4858 44.5994C58.3532 44.5767 58.2434 44.5473 58.1562 44.5114L58.429 43.608C58.571 43.6515 58.6989 43.6752 58.8125 43.679C58.928 43.6828 59.0275 43.6563 59.1108 43.5994C59.196 43.5426 59.2652 43.446 59.3182 43.3097L59.3892 43.125L57.8239 38.6364H59.0966L60 41.8409H60.0455L60.9574 38.6364H62.2386L60.5426 43.4716C60.4612 43.7064 60.3504 43.911 60.2102 44.0852C60.072 44.2614 59.8968 44.3968 59.6847 44.4915C59.4725 44.5881 59.2169 44.6364 58.9176 44.6364ZM63.6051 44.6364C63.4517 44.6364 63.3078 44.6241 63.1733 44.5994C63.0407 44.5767 62.9309 44.5473 62.8438 44.5114L63.1165 43.608C63.2585 43.6515 63.3864 43.6752 63.5 43.679C63.6155 43.6828 63.715 43.6563 63.7983 43.5994C63.8835 43.5426 63.9527 43.446 64.0057 43.3097L64.0767 43.125L62.5114 38.6364H63.7841L64.6875 41.8409H64.733L65.6449 38.6364H66.9261L65.2301 43.4716C65.1487 43.7064 65.0379 43.911 64.8977 44.0852C64.7595 44.2614 64.5843 44.3968 64.3722 44.4915C64.16 44.5881 63.9044 44.6364 63.6051 44.6364ZM68.2926 44.6364C68.1392 44.6364 67.9953 44.6241 67.8608 44.5994C67.7282 44.5767 67.6184 44.5473 67.5312 44.5114L67.804 43.608C67.946 43.6515 68.0739 43.6752 68.1875 43.679C68.303 43.6828 68.4025 43.6563 68.4858 43.5994C68.571 43.5426 68.6402 43.446 68.6932 43.3097L68.7642 43.125L67.1989 38.6364H68.4716L69.375 41.8409H69.4205L70.3324 38.6364H71.6136L69.9176 43.4716C69.8362 43.7064 69.7254 43.911 69.5852 44.0852C69.447 44.2614 69.2718 44.3968 69.0597 44.4915C68.8475 44.5881 68.5919 44.6364 68.2926 44.6364Z" fill="#DCB8FF"/>
<path fill-rule="evenodd" clip-rule="evenodd" d="M15.1429 36.5714C15.1429 36.2558 15.3987 36 15.7143 36C16.0299 36 16.2857 36.2558 16.2857 36.5714V37.7143H17.4286C17.7442 37.7143 18 37.9701 18 38.2857V44C18 44.3156 17.7442 44.5714 17.4286 44.5714H10.5714C10.2558 44.5714 10 44.3156 10 44V38.2857C10 37.9701 10.2558 37.7143 10.5714 37.7143H11.7143V36.5714C11.7143 36.2558 11.9701 36 12.2857 36C12.6013 36 12.8571 36.2558 12.8571 36.5714V37.7143H15.1429V36.5714ZM11.7143 38.8571C11.7143 39.1727 11.9701 39.4286 12.2857 39.4286C12.6013 39.4286 12.8571 39.1727 12.8571 38.8571H15.1429C15.1429 39.1727 15.3987 39.4286 15.7143 39.4286C16.0299 39.4286 16.2857 39.1727 16.2857 38.8571H16.8571V40H11.1429V38.8571H11.7143ZM11.1429 41.1429V43.4286H16.8571V41.1429H11.1429Z" fill="#8649E1"/>
</svg>
