<svg width="100" height="100" viewBox="0 0 100 100" fill="none" xmlns="http://www.w3.org/2000/svg">
<rect width="100" height="100" fill="white"/>
<rect x="18" y="24" width="64" height="24" rx="4" fill="#EDD9FF"/>
<rect x="18" y="52" width="64" height="24" rx="4" fill="#EDD9FF"/>
<path d="M28.1429 28C26.96 28 26 28.976 26 30.1818C26 31.3876 26.96 32.3636 28.1429 32.3636C29.3257 32.3636 30.2857 31.3876 30.2857 30.1818C30.2857 28.976 29.3257 28 28.1429 28Z" fill="#C695FF"/>
<path d="M33.8571 32.3636C35.04 32.3636 36 31.3876 36 30.1818C36 28.976 35.04 28 33.8571 28C32.6743 28 31.7143 28.976 31.7143 30.1818C31.7143 31.3876 32.6743 32.3636 33.8571 32.3636Z" fill="#C695FF"/>
<path d="M33.8571 33.8182C32.6743 33.8182 31.7143 34.7942 31.7143 36C31.7143 37.2058 32.6743 38.1818 33.8571 38.1818C35.04 38.1818 36 37.2058 36 36C36 34.7942 35.04 33.8182 33.8571 33.8182Z" fill="#C695FF"/>
<path d="M26 36C26 34.7942 26.96 33.8182 28.1429 33.8182C29.3257 33.8182 30.2857 34.7942 30.2857 36C30.2857 37.2058 29.3257 38.1818 28.1429 38.1818C26.96 38.1818 26 37.2058 26 36Z" fill="#C695FF"/>
<path d="M31.7143 41.8182C31.7143 40.6124 32.6743 39.6364 33.8571 39.6364C35.04 39.6364 36 40.6124 36 41.8182C36 43.024 35.04 44 33.8571 44C32.6743 44 31.7143 43.024 31.7143 41.8182Z" fill="#C695FF"/>
<path d="M28.1429 39.6364C26.96 39.6364 26 40.6124 26 41.8182C26 43.024 26.96 44 28.1429 44C29.3257 44 30.2857 43.024 30.2857 41.8182C30.2857 40.6124 29.3257 39.6364 28.1429 39.6364Z" fill="#C695FF"/>
<path d="M55.3254 49.5983L55.2629 49.1022C55.2624 49.1023 55.2627 49.1022 55.2636 49.1019C55.2715 49.0994 55.329 49.081 55.4396 48.9938C55.553 48.9044 55.6819 48.7748 55.8172 48.616C56.0873 48.2993 56.3425 47.9151 56.5038 47.6392L56.5049 47.6373C56.6975 47.3114 57.0447 47.0963 57.4225 47.0819C57.8277 47.0665 58.2079 47.2829 58.4238 47.6944C58.5073 47.8533 58.7238 48.2152 58.9854 48.5424C59.116 48.7057 59.2475 48.8473 59.3693 48.9489C59.4998 49.0578 59.5746 49.0831 59.5928 49.086L59.5943 49.0863C59.8645 49.13 60.287 49.1216 60.6757 49.0952C60.718 49.0923 60.7592 49.0893 60.7992 49.0862C60.7494 48.8019 60.7021 48.4276 60.7219 48.0837L60.722 48.0824C60.7309 47.9341 60.7336 47.8196 60.7361 47.7152C60.743 47.4193 60.7481 47.204 60.8879 46.5311L60.888 46.5309C60.951 46.2283 61.1257 45.8862 61.3092 45.5788C61.5005 45.2583 61.7338 44.9233 61.9559 44.6231C62.1788 44.3217 62.3953 44.0489 62.5558 43.8517C62.6361 43.753 62.7027 43.6728 62.7495 43.6171C62.7729 43.5892 62.7914 43.5674 62.8041 43.5524L62.8066 43.5495C63.1978 42.9776 63.6056 42.0097 63.7241 41.5951L60.9035 49.5794C60.4875 49.614 59.9039 49.6428 59.5145 49.5799C58.9149 49.4848 58.1728 48.2919 57.9811 47.9269C57.7174 47.424 57.1547 47.5206 56.9354 47.8917C56.5919 48.4789 55.8483 49.5323 55.3254 49.5983ZM55.3254 49.5983C54.5416 49.6967 53.1157 49.6716 51.7444 49.6474C51.4986 49.6431 51.2545 49.6387 51.0162 49.6352C51.0236 49.586 51.0331 49.5167 51.0423 49.4325C51.0514 49.3482 51.0604 49.2474 51.0665 49.1358M55.3254 49.5983L55.2631 49.1022C54.788 49.1618 54.0323 49.1742 53.161 49.1677C52.6906 49.1641 52.2242 49.1558 51.7609 49.1476C51.5287 49.1434 51.2972 49.1393 51.0665 49.1358M51.0665 49.1358C51.0726 49.0256 51.0758 48.9047 51.0735 48.7785C51.0691 48.5272 51.0429 48.2369 50.9647 47.9605C50.8875 47.6875 50.7476 47.3856 50.4848 47.1642L50.1627 47.5467L51.0665 49.1358ZM47.9347 37.8882C47.6541 37.7333 46.912 37.7287 46.5931 37.7931L47.9347 37.8882ZM47.9347 37.8882C47.9648 37.9048 47.9932 37.9203 48.0203 37.9351C48.0629 37.9583 48.1022 37.9798 48.1391 38.0006M47.9347 37.8882L48.1391 38.0006M48.1391 38.0006C48.1785 38.0801 48.2175 38.1555 48.2543 38.2259C48.2605 38.2378 48.2667 38.2496 48.2727 38.2611C48.3561 38.4208 48.4211 38.5453 48.4674 38.6492L48.2829 38.7875C48.283 38.7878 48.2832 38.788 48.2834 38.7882M48.1391 38.0006L47.6931 38.326L47.6933 38.326M48.2834 38.7882C48.1681 38.6355 48.0996 38.5719 48.0394 38.5275C47.9777 38.4819 47.9155 38.4478 47.7915 38.38C47.7624 38.364 47.7299 38.3463 47.6933 38.326M48.2834 38.7882C48.2835 38.7884 48.2837 38.7886 48.2838 38.7888L48.4678 38.6501L51.1545 34.1829C51.0591 33.976 50.7874 33.7828 50.3469 33.6851C49.9175 33.5899 49.4711 33.6207 49.2112 33.7171C48.7582 33.8855 48.5348 34.1249 48.4169 34.3276C48.2933 34.5397 48.2654 34.7473 48.2611 34.8642C48.2481 35.2269 48.3326 35.6096 48.4544 35.9918C48.5149 36.1814 48.5817 36.3627 48.647 36.5389L48.6544 36.5591C48.7152 36.7231 48.7775 36.8912 48.8228 37.0414L48.8232 37.0428C48.8938 37.2793 49.0099 37.5123 49.1408 37.7632C49.1521 37.7848 49.1637 37.8068 49.1755 37.8293C49.2877 38.0433 49.4208 38.2968 49.4894 38.5327C49.5238 38.649 49.5606 38.7797 49.5701 38.8808C49.5726 38.9083 49.5769 38.9669 49.5651 39.0362C49.5569 39.085 49.517 39.2858 49.3088 39.4015C49.0883 39.524 48.8876 39.4387 48.833 39.4118C48.7647 39.3782 48.7175 39.3364 48.6979 39.3185C48.6277 39.2543 48.5539 39.1547 48.5059 39.0899L48.5025 39.0853C48.4769 39.0508 48.4515 39.0161 48.4249 38.9797C48.3829 38.9225 48.3378 38.8609 48.2834 38.7882ZM47.6933 38.326C47.6936 38.3262 47.6938 38.3263 47.6938 38.3263C47.6937 38.3263 47.6842 38.3216 47.6614 38.3146C47.6364 38.3068 47.6028 38.2985 47.5602 38.2905C47.4743 38.2746 47.3688 38.2633 47.2544 38.2579C47.0178 38.2466 46.7971 38.262 46.692 38.2832L46.6891 38.2838L46.6891 38.2838C46.626 38.2962 46.4465 38.359 46.2369 38.4942C46.0328 38.6257 45.8386 38.8015 45.7107 39.0115L45.7103 39.0121C45.4695 39.4065 45.3914 39.9351 45.7144 41.3545C45.9742 42.4926 46.6049 43.1778 47.1169 43.734C47.263 43.8927 47.3995 44.0409 47.5149 44.1862L47.6933 38.326ZM52.7302 35.6532C52.7289 35.6733 52.7264 35.7024 52.72 35.7355C52.7152 35.7608 52.7008 35.8308 52.6562 35.9067C52.6096 35.9858 52.4721 36.1575 52.2189 36.1569C52.0142 36.1564 51.89 36.0367 51.8615 36.0085C51.7927 35.9404 51.7558 35.8635 51.7471 35.8452C51.7467 35.8445 51.7464 35.8438 51.7461 35.8432C51.7306 35.8113 51.7173 35.7785 51.7067 35.7509C51.6685 35.6516 51.6194 35.4972 51.5687 35.3375C51.5658 35.3284 51.563 35.3194 51.5601 35.3103C51.4447 34.9472 51.3023 34.5034 51.1546 34.183L52.7302 35.6532ZM52.7302 35.6532C52.7301 35.6536 52.7301 35.654 52.7301 35.6544L52.2312 35.6219L52.7302 35.652C52.7302 35.6524 52.7302 35.6528 52.7302 35.6532ZM48.5245 37.6485C48.4552 37.4999 48.3918 37.3454 48.3441 37.1859L48.5245 37.6485ZM61.2211 48.1125C61.2037 48.4139 61.2485 48.7618 61.2984 49.0373L61.3775 46.6328C61.2471 47.26 61.2431 47.4347 61.2365 47.7175C61.234 47.8239 61.2311 47.9456 61.2211 48.1125Z" fill="#F9F2FF" stroke="#8649E1"/>
<path fill-rule="evenodd" clip-rule="evenodd" d="M49.0372 33.2483C49.7732 32.9754 51.2253 33.1425 51.6086 33.9736C51.9352 34.682 52.2158 35.8765 52.2311 35.6219C52.2679 35.0561 52.1943 33.8325 52.4412 33.1931C52.6206 32.727 52.9733 32.2885 53.4931 32.1336C53.9301 32.0017 54.4437 31.9557 54.8976 32.0493C55.3775 32.1474 55.882 32.4893 56.0706 32.8144C56.6257 33.7697 56.6349 35.7262 56.6609 35.6219C56.7591 35.2049 56.7683 33.7375 57.0949 33.1931C57.3111 32.8328 57.8569 32.5108 58.1483 32.4587C58.5991 32.3789 59.1541 32.3544 59.6264 32.4464C60.0082 32.5215 60.5249 32.9739 60.6645 33.1931C61.0003 33.7206 61.1889 35.211 61.2456 35.7354C61.2701 35.9516 61.3591 35.1328 61.6949 34.6069C62.3174 33.6271 64.5223 33.4369 64.6051 35.5867C64.645 36.5895 64.6358 36.5435 64.6358 37.2181C64.6358 38.0093 64.6174 38.4877 64.5745 39.0612C64.5285 39.673 64.3966 41.0607 64.2049 41.7323C64.0731 42.1938 63.6361 43.2319 63.2037 43.8544C63.2037 43.8544 61.5569 45.7711 61.3775 46.6328C61.1981 47.4961 61.2579 47.5022 61.2211 48.1125C61.1858 48.7243 61.4066 49.5277 61.4066 49.5277C61.4066 49.5277 60.1784 49.6872 59.5145 49.5799C58.9149 49.4848 58.1728 48.2919 57.9811 47.9269C57.7174 47.424 57.1547 47.5206 56.9354 47.8917C56.5919 48.4789 55.8483 49.5323 55.3254 49.5983C54.2996 49.7271 52.1744 49.6443 50.5107 49.6289C50.5107 49.6289 50.7944 48.0787 50.1627 47.5467C49.695 47.148 48.89 46.3445 48.4085 45.9213L47.1328 44.5091C46.6989 43.9571 45.5964 43.0847 45.2269 41.4655C44.9003 40.0303 44.9325 39.3265 45.2836 38.7515C45.6393 38.1673 46.3109 37.8483 46.5931 37.7931C46.912 37.7287 47.6541 37.7333 47.9347 37.8882C48.2767 38.0768 48.4147 38.132 48.683 38.4877C49.0357 38.9585 49.1614 39.1869 49.0096 38.6733C48.8931 38.2715 48.5159 37.7609 48.3441 37.1859C48.177 36.6324 47.7293 35.74 47.7615 34.8461C47.7737 34.5072 47.9194 33.6639 49.0372 33.2483Z" fill="#F9F2FF" stroke="#8649E1" stroke-width="1.75" stroke-linejoin="round"/>
<path fill-rule="evenodd" clip-rule="evenodd" d="M58.7601 44.0523V38.7485Z" fill="#F9F2FF"/>
<path d="M58.7601 44.0523V38.7485" stroke="#8649E1" stroke-width="1.75" stroke-linecap="round"/>
<path fill-rule="evenodd" clip-rule="evenodd" d="M55.6696 44.0704L55.645 38.7451Z" fill="#F9F2FF"/>
<path d="M55.6696 44.0704L55.645 38.7451" stroke="#8649E1" stroke-width="1.75" stroke-linecap="round"/>
<path fill-rule="evenodd" clip-rule="evenodd" d="M52.6088 38.7935L52.641 44.0467Z" fill="#F9F2FF"/>
<path d="M52.6088 38.7935L52.641 44.0467" stroke="#8649E1" stroke-width="1.75" stroke-linecap="round"/>
</svg>
