<svg width="80" height="80" viewBox="0 0 80 80" fill="none" xmlns="http://www.w3.org/2000/svg">
<rect width="80" height="80" fill="white"/>
<rect x="8" y="14" width="64" height="24" rx="4" fill="#EDD9FF"/>
<rect x="8" y="42" width="64" height="24" rx="4" fill="#EDD9FF"/>
<path d="M18.1429 18C16.96 18 16 18.976 16 20.1818C16 21.3876 16.96 22.3636 18.1429 22.3636C19.3257 22.3636 20.2857 21.3876 20.2857 20.1818C20.2857 18.976 19.3257 18 18.1429 18Z" fill="#C695FF"/>
<path d="M23.8571 22.3636C25.04 22.3636 26 21.3876 26 20.1818C26 18.976 25.04 18 23.8571 18C22.6743 18 21.7143 18.976 21.7143 20.1818C21.7143 21.3876 22.6743 22.3636 23.8571 22.3636Z" fill="#C695FF"/>
<path d="M23.8571 23.8182C22.6743 23.8182 21.7143 24.7942 21.7143 26C21.7143 27.2058 22.6743 28.1818 23.8571 28.1818C25.04 28.1818 26 27.2058 26 26C26 24.7942 25.04 23.8182 23.8571 23.8182Z" fill="#C695FF"/>
<path d="M16 26C16 24.7942 16.96 23.8182 18.1429 23.8182C19.3257 23.8182 20.2857 24.7942 20.2857 26C20.2857 27.2058 19.3257 28.1818 18.1429 28.1818C16.96 28.1818 16 27.2058 16 26Z" fill="#C695FF"/>
<path d="M21.7143 31.8182C21.7143 30.6124 22.6743 29.6364 23.8571 29.6364C25.04 29.6364 26 30.6124 26 31.8182C26 33.024 25.04 34 23.8571 34C22.6743 34 21.7143 33.024 21.7143 31.8182Z" fill="#C695FF"/>
<path d="M18.1429 29.6364C16.96 29.6364 16 30.6124 16 31.8182C16 33.024 16.96 34 18.1429 34C19.3257 34 20.2857 33.024 20.2857 31.8182C20.2857 30.6124 19.3257 29.6364 18.1429 29.6364Z" fill="#C695FF"/>
<path d="M52.8066 33.5494C53.1978 32.9775 53.6056 32.0097 53.7241 31.5951L52.8066 33.5494ZM52.8066 33.5494L52.8041 33.5524C52.7914 33.5674 52.7729 33.5892 52.7495 33.6171C52.7027 33.6728 52.6361 33.753 52.5558 33.8517C52.3953 34.0489 52.1788 34.3217 51.9559 34.6231C51.7338 34.9233 51.5005 35.2583 51.3092 35.5788C51.1257 35.8862 50.951 36.2283 50.888 36.5309L50.8879 36.5311C50.7481 37.204 50.743 37.4193 50.7361 37.7152C50.7336 37.8196 50.7309 37.9341 50.722 38.0824L50.7219 38.0837C50.7021 38.4276 50.7494 38.8019 50.7992 39.0862C50.7592 39.0893 50.718 39.0923 50.6757 39.0952C50.287 39.1216 49.8645 39.13 49.5943 39.0863L49.5928 39.086C49.5746 39.0832 49.4998 39.0578 49.3693 38.9489C49.2475 38.8473 49.116 38.7057 48.9854 38.5424C48.7238 38.2152 48.5073 37.8533 48.4238 37.6944C48.2079 37.2829 47.8277 37.0665 47.4225 37.0819C47.0447 37.0963 46.6975 37.3114 46.5049 37.6373L46.5038 37.6392C46.3425 37.9151 46.0873 38.2993 45.8172 38.616C45.6819 38.7748 45.553 38.9044 45.4396 38.9938C45.329 39.081 45.2715 39.0994 45.2636 39.1019C45.2627 39.1022 45.2624 39.1023 45.2629 39.1022L45.3254 39.5983M52.8066 33.5494L50.9035 39.5794C50.4875 39.614 49.9039 39.6428 49.5145 39.5799C48.9149 39.4848 48.1728 38.2919 47.9811 37.9269C47.7174 37.424 47.1547 37.5206 46.9354 37.8917C46.5919 38.4789 45.8483 39.5323 45.3254 39.5983M45.3254 39.5983C44.5416 39.6967 43.1157 39.6716 41.7444 39.6474C41.4986 39.6431 41.2545 39.6387 41.0162 39.6352C41.0236 39.586 41.0331 39.5167 41.0423 39.4325C41.0514 39.3482 41.0604 39.2474 41.0665 39.1358M45.3254 39.5983L45.2631 39.1022C44.788 39.1618 44.0323 39.1742 43.161 39.1677C42.6907 39.1641 42.2242 39.1558 41.7609 39.1476C41.5287 39.1434 41.2973 39.1393 41.0665 39.1358M41.0665 39.1358C41.0726 39.0256 41.0758 38.9047 41.0735 38.7785C41.0691 38.5272 41.0429 38.2369 40.9647 37.9605C40.8875 37.6875 40.7476 37.3856 40.4848 37.1642L40.1627 37.5467M41.0665 39.1358L36.5931 27.7931M36.5931 27.7931C36.3109 27.8483 35.6393 28.1673 35.2836 28.7515C34.9325 29.3265 34.9003 30.0303 35.2269 31.4655L35.7144 31.3545C35.7144 31.3544 35.7144 31.3543 35.7143 31.3542M36.5931 27.7931C36.912 27.7287 37.6541 27.7333 37.9347 27.8882L36.5931 27.7931ZM35.7143 31.3542C35.9741 32.4925 36.6049 33.1777 37.1169 33.734C37.263 33.8927 37.3995 34.0409 37.5149 34.1862L38.7605 35.5651C38.9883 35.7666 39.2786 36.0421 39.5631 36.3123C39.5871 36.3351 39.6111 36.3579 39.635 36.3805C39.9579 36.6871 40.2655 36.9773 40.487 37.1662L40.1627 37.5467M35.7143 31.3542C35.3914 29.935 35.4695 29.4064 35.7103 29.0121L35.7107 29.0115C35.8386 28.8015 36.0328 28.6257 36.2369 28.4942C36.4465 28.359 36.626 28.2962 36.6891 28.2838L36.6891 28.2838L36.692 28.2832C36.7971 28.262 37.0178 28.2466 37.2544 28.2579C37.3688 28.2633 37.4743 28.2746 37.5602 28.2905C37.6028 28.2985 37.6364 28.3068 37.6614 28.3146C37.6842 28.3216 37.6937 28.3263 37.6938 28.3263C37.6938 28.3263 37.6936 28.3262 37.6933 28.326M35.7143 31.3542L37.6933 28.326M40.1627 37.5467C40.5625 37.8835 40.5957 38.6282 40.5661 39.1294L38.4085 35.9213C38.6318 36.1176 38.9247 36.3956 39.2212 36.6771C39.5641 37.0027 39.9119 37.3329 40.1627 37.5467ZM37.6933 28.326C37.7299 28.3463 37.7624 28.364 37.7915 28.38C37.9155 28.4478 37.9777 28.4819 38.0394 28.5275C38.0996 28.5719 38.1681 28.6355 38.2834 28.7882C38.3378 28.8609 38.3829 28.9225 38.4249 28.9798C38.4515 29.0161 38.4769 29.0508 38.5025 29.0853L38.5059 29.0899C38.5539 29.1547 38.6277 29.2543 38.6979 29.3185C38.7175 29.3364 38.7647 29.3782 38.833 29.4118C38.8876 29.4387 39.0883 29.524 39.3088 29.4015C39.517 29.2858 39.5569 29.085 39.5651 29.0362C39.5769 28.9669 39.5726 28.9083 39.5701 28.8808C39.5606 28.7797 39.5238 28.649 39.4894 28.5327M37.6933 28.326L39.4894 28.5327M39.4894 28.5327C39.4896 28.5331 39.4897 28.5335 39.4898 28.534L39.3666 28.5697M39.4894 28.5327C39.4893 28.5323 39.4892 28.5319 39.4891 28.5316L39.3653 28.5681C39.3657 28.5687 39.3662 28.5692 39.3666 28.5697M39.4894 28.5327C39.4208 28.2967 39.2877 28.0432 39.1755 27.8293C39.1637 27.8068 39.1521 27.7848 39.1408 27.7632C39.0099 27.5123 38.8938 27.2793 38.8232 27.0428L38.8228 27.0414C38.7775 26.8912 38.7152 26.7231 38.6544 26.5591L38.647 26.5389C38.5817 26.3627 38.5149 26.1814 38.4544 25.9918C38.3326 25.6096 38.2481 25.2269 38.2611 24.8642L39.4894 28.5327ZM39.3666 28.5697L39.362 28.5711C39.3674 28.5756 39.371 28.5789 39.3727 28.5805L39.3731 28.5808C39.3766 28.5841 39.3787 28.586 39.3789 28.5859C39.3791 28.5856 39.3754 28.581 39.3666 28.5697ZM49.5302 22.9371C49.6053 22.952 49.7546 23.0257 49.9309 23.1617C50.1049 23.2958 50.2176 23.4222 50.2426 23.4616L50.2427 23.4617C50.2887 23.5339 50.3477 23.6723 50.4096 23.8812C50.469 24.0817 50.5222 24.3164 50.5686 24.5592C50.6612 25.0444 50.7208 25.5332 50.7485 25.7892L50.7488 25.7918L50.7489 25.7927C50.751 25.8112 50.7577 25.8703 50.7808 25.9343L50.781 25.9348C50.7897 25.9588 50.8257 26.0584 50.923 26.1445C50.9805 26.1954 51.0692 26.2497 51.1873 26.2662C51.3065 26.2828 51.4091 26.2542 51.4823 26.2175C51.6045 26.1562 51.6658 26.0628 51.6801 26.041L51.6805 26.0404C51.7035 26.0054 51.7179 25.9742 51.7251 25.9579C51.74 25.9241 51.7504 25.8919 51.7562 25.8732C51.7684 25.8343 51.7861 25.7672 51.8041 25.6996C51.8149 25.6588 51.8257 25.6178 51.8354 25.5826C51.9014 25.3441 51.9918 25.071 52.1163 24.8759L52.1169 24.875C52.3074 24.5751 52.8053 24.3447 53.2761 24.4173C53.4929 24.4508 53.6812 24.5465 53.8216 24.7121C53.9625 24.8784 54.0881 25.1547 54.1055 25.6059L54.1055 25.6065C54.1379 26.4201 54.1375 26.5306 54.1364 26.9145C54.1361 26.999 54.1358 27.0967 54.1358 27.2181C54.1358 27.9989 54.1177 28.4647 54.0759 29.0237C54.029 29.6469 53.8993 30.9812 53.7242 31.5949L49.5302 22.9371ZM51.2211 38.1125C51.2037 38.4139 51.2485 38.7618 51.2984 39.0373L51.3775 36.6328C51.2471 37.26 51.2431 37.4347 51.2365 37.7175C51.234 37.8239 51.2311 37.9456 51.2211 38.1125ZM40.3469 23.6851C40.7874 23.7828 41.0591 23.976 41.1545 24.1829L38.2612 24.8641C38.2654 24.7472 38.2933 24.5397 38.4169 24.3276C38.5348 24.1249 38.7582 23.8855 39.2112 23.7171C39.4711 23.6207 39.9175 23.5899 40.3469 23.6851Z" fill="#F9F2FF" stroke="#8649E1"/>
<path fill-rule="evenodd" clip-rule="evenodd" d="M39.0372 23.2483C39.7732 22.9754 41.2253 23.1425 41.6086 23.9736C41.9352 24.682 42.2158 25.8765 42.2311 25.6219C42.2679 25.0561 42.1943 23.8325 42.4412 23.1931C42.6206 22.727 42.9733 22.2885 43.4931 22.1336C43.9301 22.0017 44.4437 21.9557 44.8976 22.0493C45.3775 22.1474 45.882 22.4893 46.0706 22.8144C46.6257 23.7697 46.6349 25.7262 46.6609 25.6219C46.7591 25.2049 46.7683 23.7375 47.0949 23.1931C47.3111 22.8328 47.8569 22.5108 48.1483 22.4587C48.5991 22.3789 49.1541 22.3544 49.6264 22.4464C50.0082 22.5215 50.5249 22.9739 50.6645 23.1931C51.0003 23.7206 51.1889 25.211 51.2456 25.7354C51.2701 25.9516 51.3591 25.1328 51.6949 24.6069C52.3174 23.6271 54.5223 23.4369 54.6051 25.5867C54.645 26.5895 54.6358 26.5435 54.6358 27.2181C54.6358 28.0093 54.6174 28.4877 54.5745 29.0612C54.5285 29.673 54.3966 31.0607 54.2049 31.7323C54.0731 32.1938 53.6361 33.2319 53.2037 33.8544C53.2037 33.8544 51.5569 35.7711 51.3775 36.6328C51.1981 37.4961 51.2579 37.5022 51.2211 38.1125C51.1858 38.7243 51.4066 39.5277 51.4066 39.5277C51.4066 39.5277 50.1784 39.6872 49.5145 39.5799C48.9149 39.4848 48.1728 38.2919 47.9811 37.9269C47.7174 37.424 47.1547 37.5206 46.9354 37.8917C46.5919 38.4789 45.8483 39.5323 45.3254 39.5983C44.2996 39.7271 42.1744 39.6443 40.5107 39.6289C40.5107 39.6289 40.7944 38.0787 40.1627 37.5467C39.695 37.148 38.89 36.3445 38.4085 35.9213L37.1328 34.5091C36.6989 33.9571 35.5964 33.0847 35.2269 31.4655C34.9003 30.0303 34.9325 29.3265 35.2836 28.7515C35.6393 28.1673 36.3109 27.8483 36.5931 27.7931C36.912 27.7287 37.6541 27.7333 37.9347 27.8882C38.2767 28.0768 38.4147 28.132 38.683 28.4877C39.0357 28.9585 39.1614 29.1869 39.0096 28.6733C38.8931 28.2715 38.5159 27.7609 38.3441 27.1859C38.177 26.6324 37.7293 25.74 37.7615 24.8461C37.7737 24.5072 37.9194 23.6639 39.0372 23.2483Z" fill="#F9F2FF" stroke="#8649E1" stroke-width="1.75" stroke-linejoin="round"/>
<path fill-rule="evenodd" clip-rule="evenodd" d="M48.76 34.0523V28.7485V34.0523Z" fill="#F9F2FF"/>
<path d="M48.76 34.0523V28.7485" stroke="#8649E1" stroke-width="1.75" stroke-linecap="round"/>
<path fill-rule="evenodd" clip-rule="evenodd" d="M45.6696 34.0704L45.645 28.7451L45.6696 34.0704Z" fill="#F9F2FF"/>
<path d="M45.6696 34.0704L45.645 28.7451" stroke="#8649E1" stroke-width="1.75" stroke-linecap="round"/>
<path fill-rule="evenodd" clip-rule="evenodd" d="M42.6089 28.7935L42.6411 34.0467L42.6089 28.7935Z" fill="#F9F2FF"/>
<path d="M42.6089 28.7935L42.6411 34.0467" stroke="#8649E1" stroke-width="1.75" stroke-linecap="round"/>
</svg>
