<svg width="100" height="100" viewBox="0 0 100 100" fill="none" xmlns="http://www.w3.org/2000/svg">
<rect width="100" height="100" fill="white"/>
<rect x="9.5" y="24.5" width="81" height="51" rx="3.5" stroke="#8649E1"/>
<path d="M22.2102 42H19.6321V34.7273H22.2315C22.9631 34.7273 23.5928 34.8729 24.1207 35.1641C24.6487 35.4529 25.0547 35.8684 25.3388 36.4105C25.6252 36.9527 25.7685 37.6013 25.7685 38.3565C25.7685 39.1141 25.6252 39.7652 25.3388 40.3097C25.0547 40.8542 24.6463 41.272 24.1136 41.5632C23.5833 41.8544 22.9489 42 22.2102 42ZM21.1697 40.6825H22.1463C22.6009 40.6825 22.9832 40.602 23.2933 40.4411C23.6058 40.2777 23.8402 40.0256 23.9964 39.6847C24.1551 39.3414 24.2344 38.8987 24.2344 38.3565C24.2344 37.8191 24.1551 37.38 23.9964 37.0391C23.8402 36.6982 23.607 36.4472 23.2969 36.2862C22.9867 36.1252 22.6044 36.0447 22.1499 36.0447H21.1697V40.6825ZM26.8791 42V36.5455H28.3457V37.4972H28.4025C28.502 37.1586 28.6689 36.9029 28.9032 36.7301C29.1376 36.5549 29.4075 36.4673 29.7129 36.4673C29.7886 36.4673 29.8703 36.4721 29.9579 36.4815C30.0455 36.491 30.1225 36.504 30.1887 36.5206V37.8629C30.1177 37.8416 30.0195 37.8227 29.894 37.8061C29.7685 37.7895 29.6537 37.7812 29.5495 37.7812C29.327 37.7812 29.1281 37.8298 28.9529 37.9268C28.7801 38.0215 28.6428 38.1541 28.541 38.3246C28.4416 38.495 28.3919 38.6915 28.3919 38.9141V42H26.8791ZM33.1815 42.1065C32.6299 42.1065 32.1528 41.9893 31.7504 41.755C31.3503 41.5182 31.0413 41.1892 30.8235 40.7678C30.6057 40.344 30.4968 39.8527 30.4968 39.294C30.4968 38.7306 30.6057 38.2382 30.8235 37.8168C31.0413 37.393 31.3503 37.0639 31.7504 36.8295C32.1528 36.5928 32.6299 36.4744 33.1815 36.4744C33.7331 36.4744 34.2089 36.5928 34.609 36.8295C35.0115 37.0639 35.3216 37.393 35.5394 37.8168C35.7572 38.2382 35.8661 38.7306 35.8661 39.294C35.8661 39.8527 35.7572 40.344 35.5394 40.7678C35.3216 41.1892 35.0115 41.5182 34.609 41.755C34.2089 41.9893 33.7331 42.1065 33.1815 42.1065ZM33.1886 40.9347C33.4395 40.9347 33.649 40.8636 33.8171 40.7216C33.9852 40.5772 34.1119 40.3807 34.1971 40.1321C34.2847 39.8835 34.3285 39.6006 34.3285 39.2834C34.3285 38.9661 34.2847 38.6832 34.1971 38.4347C34.1119 38.1861 33.9852 37.9896 33.8171 37.8452C33.649 37.7008 33.4395 37.6286 33.1886 37.6286C32.9353 37.6286 32.7222 37.7008 32.5494 37.8452C32.3789 37.9896 32.2499 38.1861 32.1623 38.4347C32.0771 38.6832 32.0344 38.9661 32.0344 39.2834C32.0344 39.6006 32.0771 39.8835 32.1623 40.1321C32.2499 40.3807 32.3789 40.5772 32.5494 40.7216C32.7222 40.8636 32.9353 40.9347 33.1886 40.9347ZM36.8498 44.0455V36.5455H38.3413V37.4616H38.4087C38.475 37.3149 38.5709 37.1657 38.6964 37.0142C38.8242 36.8603 38.9899 36.7325 39.1935 36.6307C39.3995 36.5265 39.6552 36.4744 39.9606 36.4744C40.3583 36.4744 40.7253 36.5786 41.0614 36.7869C41.3976 36.9929 41.6663 37.3042 41.8675 37.7209C42.0688 38.1352 42.1694 38.6548 42.1694 39.2798C42.1694 39.8883 42.0711 40.402 41.8746 40.821C41.6805 41.2377 41.4154 41.5537 41.0792 41.7692C40.7454 41.9822 40.3713 42.0888 39.957 42.0888C39.6635 42.0888 39.4137 42.0402 39.2077 41.9432C39.0041 41.8461 38.8372 41.7242 38.707 41.5774C38.5768 41.4283 38.4774 41.2779 38.4087 41.1264H38.3626V44.0455H36.8498ZM38.3306 39.2727C38.3306 39.5971 38.3756 39.88 38.4656 40.1214C38.5555 40.3629 38.6857 40.5511 38.8562 40.6861C39.0266 40.8187 39.2338 40.8849 39.4776 40.8849C39.7238 40.8849 39.9322 40.8175 40.1026 40.6825C40.2731 40.5452 40.4021 40.3558 40.4897 40.1143C40.5797 39.8705 40.6246 39.59 40.6246 39.2727C40.6246 38.9579 40.5808 38.6809 40.4933 38.4418C40.4057 38.2027 40.2766 38.0156 40.1062 37.8807C39.9357 37.7457 39.7262 37.6783 39.4776 37.6783C39.2314 37.6783 39.0231 37.7434 38.8526 37.8736C38.6845 38.0038 38.5555 38.1884 38.4656 38.4276C38.3756 38.6667 38.3306 38.9484 38.3306 39.2727ZM45.1879 42.0888C44.7736 42.0888 44.3983 41.9822 44.0621 41.7692C43.7283 41.5537 43.4632 41.2377 43.2667 40.821C43.0726 40.402 42.9755 39.8883 42.9755 39.2798C42.9755 38.6548 43.0761 38.1352 43.2773 37.7209C43.4786 37.3042 43.7461 36.9929 44.0799 36.7869C44.4161 36.5786 44.7842 36.4744 45.1843 36.4744C45.4897 36.4744 45.7442 36.5265 45.9478 36.6307C46.1538 36.7325 46.3195 36.8603 46.445 37.0142C46.5728 37.1657 46.6699 37.3149 46.7362 37.4616H46.7823V34.7273H48.2915V42H46.8001V41.1264H46.7362C46.6651 41.2779 46.5645 41.4283 46.4343 41.5774C46.3065 41.7242 46.1396 41.8461 45.9336 41.9432C45.73 42.0402 45.4814 42.0888 45.1879 42.0888ZM45.6673 40.8849C45.9111 40.8849 46.1171 40.8187 46.2852 40.6861C46.4556 40.5511 46.5858 40.3629 46.6758 40.1214C46.7681 39.88 46.8143 39.5971 46.8143 39.2727C46.8143 38.9484 46.7693 38.6667 46.6793 38.4276C46.5894 38.1884 46.4592 38.0038 46.2887 37.8736C46.1183 37.7434 45.9111 37.6783 45.6673 37.6783C45.4187 37.6783 45.2092 37.7457 45.0387 37.8807C44.8683 38.0156 44.7392 38.2027 44.6516 38.4418C44.564 38.6809 44.5202 38.9579 44.5202 39.2727C44.5202 39.59 44.564 39.8705 44.6516 40.1143C44.7416 40.3558 44.8706 40.5452 45.0387 40.6825C45.2092 40.8175 45.4187 40.8849 45.6673 40.8849ZM51.9998 42.1065C51.4482 42.1065 50.9712 41.9893 50.5687 41.755C50.1686 41.5182 49.8597 41.1892 49.6419 40.7678C49.4241 40.344 49.3152 39.8527 49.3152 39.294C49.3152 38.7306 49.4241 38.2382 49.6419 37.8168C49.8597 37.393 50.1686 37.0639 50.5687 36.8295C50.9712 36.5928 51.4482 36.4744 51.9998 36.4744C52.5514 36.4744 53.0273 36.5928 53.4274 36.8295C53.8298 37.0639 54.14 37.393 54.3578 37.8168C54.5756 38.2382 54.6845 38.7306 54.6845 39.294C54.6845 39.8527 54.5756 40.344 54.3578 40.7678C54.14 41.1892 53.8298 41.5182 53.4274 41.755C53.0273 41.9893 52.5514 42.1065 51.9998 42.1065ZM52.0069 40.9347C52.2579 40.9347 52.4674 40.8636 52.6355 40.7216C52.8036 40.5772 52.9302 40.3807 53.0154 40.1321C53.103 39.8835 53.1468 39.6006 53.1468 39.2834C53.1468 38.9661 53.103 38.6832 53.0154 38.4347C52.9302 38.1861 52.8036 37.9896 52.6355 37.8452C52.4674 37.7008 52.2579 37.6286 52.0069 37.6286C51.7536 37.6286 51.5405 37.7008 51.3677 37.8452C51.1973 37.9896 51.0682 38.1861 50.9806 38.4347C50.8954 38.6832 50.8528 38.9661 50.8528 39.2834C50.8528 39.6006 50.8954 39.8835 50.9806 40.1321C51.0682 40.3807 51.1973 40.5772 51.3677 40.7216C51.5405 40.8636 51.7536 40.9347 52.0069 40.9347ZM56.6074 42L55.123 36.5455H56.6536L57.4988 40.2102H57.5485L58.4292 36.5455H59.9313L60.8262 40.1889H60.8723L61.7033 36.5455H63.2303L61.7495 42H60.1479L59.2104 38.5696H59.1429L58.2054 42H56.6074ZM65.5501 38.8466V42H64.0373V36.5455H65.479V37.5078H65.543C65.6637 37.1906 65.8661 36.9396 66.1502 36.755C66.4343 36.5679 66.7788 36.4744 67.1836 36.4744C67.5624 36.4744 67.8926 36.5573 68.1744 36.723C68.4561 36.8887 68.6751 37.1255 68.8313 37.4332C68.9876 37.7386 69.0657 38.1032 69.0657 38.527V42H67.5529V38.7969C67.5553 38.4631 67.4701 38.2027 67.2972 38.0156C67.1244 37.8262 66.8865 37.7315 66.5835 37.7315C66.3799 37.7315 66.1999 37.7753 66.0437 37.8629C65.8898 37.9505 65.7691 38.0784 65.6815 38.2464C65.5962 38.4122 65.5524 38.6122 65.5501 38.8466ZM22.0682 54.1065C21.5095 54.1065 21.0289 53.9882 20.6264 53.7514C20.2263 53.5123 19.9186 53.1809 19.7031 52.7571C19.4901 52.3333 19.3835 51.8456 19.3835 51.294C19.3835 50.7353 19.4912 50.2453 19.7067 49.8239C19.9245 49.4001 20.2334 49.0698 20.6335 48.8331C21.0336 48.594 21.5095 48.4744 22.0611 48.4744C22.5369 48.4744 22.9536 48.5608 23.3111 48.7337C23.6686 48.9065 23.9515 49.1491 24.1598 49.4616C24.3681 49.7741 24.483 50.1411 24.5043 50.5625H23.0767C23.0365 50.2902 22.9299 50.0713 22.7571 49.9055C22.5866 49.7375 22.3629 49.6534 22.0859 49.6534C21.8516 49.6534 21.6468 49.7173 21.4716 49.8452C21.2988 49.9706 21.1638 50.1541 21.0668 50.3956C20.9697 50.6371 20.9212 50.9295 20.9212 51.2727C20.9212 51.6207 20.9685 51.9167 21.0632 52.1605C21.1603 52.4044 21.2964 52.5902 21.4716 52.718C21.6468 52.8459 21.8516 52.9098 22.0859 52.9098C22.2588 52.9098 22.4138 52.8743 22.5511 52.8033C22.6908 52.7322 22.8056 52.6293 22.8956 52.4943C22.9879 52.357 23.0483 52.1925 23.0767 52.0007H24.5043C24.4806 52.4174 24.367 52.7843 24.1634 53.1016C23.9621 53.4164 23.6839 53.6626 23.3288 53.8402C22.9737 54.0178 22.5535 54.1065 22.0682 54.1065ZM27.9373 54.1065C27.3857 54.1065 26.9087 53.9893 26.5062 53.755C26.1061 53.5182 25.7972 53.1892 25.5794 52.7678C25.3616 52.344 25.2527 51.8527 25.2527 51.294C25.2527 50.7306 25.3616 50.2382 25.5794 49.8168C25.7972 49.393 26.1061 49.0639 26.5062 48.8295C26.9087 48.5928 27.3857 48.4744 27.9373 48.4744C28.4889 48.4744 28.9648 48.5928 29.3649 48.8295C29.7673 49.0639 30.0775 49.393 30.2953 49.8168C30.5131 50.2382 30.622 50.7306 30.622 51.294C30.622 51.8527 30.5131 52.344 30.2953 52.7678C30.0775 53.1892 29.7673 53.5182 29.3649 53.755C28.9648 53.9893 28.4889 54.1065 27.9373 54.1065ZM27.9444 52.9347C28.1954 52.9347 28.4049 52.8636 28.573 52.7216C28.7411 52.5772 28.8677 52.3807 28.9529 52.1321C29.0405 51.8835 29.0843 51.6006 29.0843 51.2834C29.0843 50.9661 29.0405 50.6832 28.9529 50.4347C28.8677 50.1861 28.7411 49.9896 28.573 49.8452C28.4049 49.7008 28.1954 49.6286 27.9444 49.6286C27.6911 49.6286 27.478 49.7008 27.3052 49.8452C27.1348 49.9896 27.0057 50.1861 26.9181 50.4347C26.8329 50.6832 26.7903 50.9661 26.7903 51.2834C26.7903 51.6006 26.8329 51.8835 26.9181 52.1321C27.0057 52.3807 27.1348 52.5772 27.3052 52.7216C27.478 52.8636 27.6911 52.9347 27.9444 52.9347ZM33.1184 50.8466V54H31.6056V48.5455H33.0474V49.5078H33.1113C33.2321 49.1906 33.4345 48.9396 33.7186 48.755C34.0027 48.5679 34.3471 48.4744 34.752 48.4744C35.1307 48.4744 35.461 48.5573 35.7427 48.723C36.0244 48.8887 36.2434 49.1255 36.3997 49.4332C36.5559 49.7386 36.6341 50.1032 36.6341 50.527V54H35.1213V50.7969C35.1236 50.4631 35.0384 50.2027 34.8656 50.0156C34.6928 49.8262 34.4548 49.7315 34.1518 49.7315C33.9482 49.7315 33.7683 49.7753 33.612 49.8629C33.4582 49.9505 33.3374 50.0784 33.2498 50.2464C33.1646 50.4122 33.1208 50.6122 33.1184 50.8466ZM40.7276 48.5455V49.6818H37.4428V48.5455H40.7276ZM38.1886 47.2386H39.7013V52.3239C39.7013 52.4635 39.7227 52.5724 39.7653 52.6506C39.8079 52.7263 39.8671 52.7796 39.9428 52.8104C40.021 52.8411 40.1109 52.8565 40.2127 52.8565C40.2837 52.8565 40.3548 52.8506 40.4258 52.8388C40.4968 52.8246 40.5513 52.8139 40.5891 52.8068L40.8271 53.9325C40.7513 53.9562 40.6448 53.9834 40.5075 54.0142C40.3701 54.0473 40.2032 54.0675 40.0067 54.0746C39.6422 54.0888 39.3226 54.0402 39.0479 53.929C38.7757 53.8177 38.5638 53.6449 38.4123 53.4105C38.2608 53.1761 38.1862 52.8802 38.1886 52.5227V47.2386ZM44.1403 54.1065C43.5792 54.1065 43.0962 53.9929 42.6914 53.7656C42.2889 53.536 41.9788 53.2116 41.761 52.7926C41.5432 52.3712 41.4343 51.8729 41.4343 51.2976C41.4343 50.7365 41.5432 50.2441 41.761 49.8203C41.9788 49.3965 42.2854 49.0663 42.6808 48.8295C43.0785 48.5928 43.5449 48.4744 44.0799 48.4744C44.4397 48.4744 44.7747 48.5324 45.0849 48.6484C45.3974 48.7621 45.6696 48.9337 45.9016 49.1634C46.136 49.393 46.3183 49.6818 46.4485 50.0298C46.5787 50.3755 46.6438 50.7803 46.6438 51.2443V51.6598H42.038V50.7223H45.2198C45.2198 50.5045 45.1725 50.3116 45.0778 50.1435C44.9831 49.9754 44.8517 49.844 44.6836 49.7493C44.5179 49.6522 44.3249 49.6037 44.1048 49.6037C43.8751 49.6037 43.6715 49.657 43.494 49.7635C43.3188 49.8677 43.1815 50.0085 43.082 50.1861C42.9826 50.3613 42.9317 50.5566 42.9293 50.772V51.6634C42.9293 51.9332 42.979 52.1664 43.0785 52.3629C43.1803 52.5594 43.3235 52.7109 43.5082 52.8175C43.6928 52.924 43.9118 52.9773 44.1651 52.9773C44.3332 52.9773 44.4871 52.9536 44.6268 52.9062C44.7665 52.8589 44.886 52.7879 44.9854 52.6932C45.0849 52.5985 45.1606 52.4825 45.2127 52.3452L46.6119 52.4375C46.5408 52.7737 46.3952 53.0672 46.1751 53.3182C45.9573 53.5668 45.6755 53.7609 45.3299 53.9006C44.9866 54.0379 44.5901 54.1065 44.1403 54.1065ZM49.1438 50.8466V54H47.631V48.5455H49.0728V49.5078H49.1367C49.2575 49.1906 49.4599 48.9396 49.744 48.755C50.0281 48.5679 50.3725 48.4744 50.7773 48.4744C51.1561 48.4744 51.4864 48.5573 51.7681 48.723C52.0498 48.8887 52.2688 49.1255 52.4251 49.4332C52.5813 49.7386 52.6594 50.1032 52.6594 50.527V54H51.1467V50.7969C51.149 50.4631 51.0638 50.2027 50.891 50.0156C50.7182 49.8262 50.4802 49.7315 50.1772 49.7315C49.9736 49.7315 49.7937 49.7753 49.6374 49.8629C49.4835 49.9505 49.3628 50.0784 49.2752 50.2464C49.19 50.4122 49.1462 50.6122 49.1438 50.8466ZM56.753 48.5455V49.6818H53.4682V48.5455H56.753ZM54.214 47.2386H55.7267V52.3239C55.7267 52.4635 55.748 52.5724 55.7907 52.6506C55.8333 52.7263 55.8925 52.7796 55.9682 52.8104C56.0463 52.8411 56.1363 52.8565 56.2381 52.8565C56.3091 52.8565 56.3801 52.8506 56.4512 52.8388C56.5222 52.8246 56.5766 52.8139 56.6145 52.8068L56.8525 53.9325C56.7767 53.9562 56.6702 53.9834 56.5328 54.0142C56.3955 54.0473 56.2286 54.0675 56.0321 54.0746C55.6676 54.0888 55.348 54.0402 55.0733 53.929C54.8011 53.8177 54.5892 53.6449 54.4377 53.4105C54.2862 53.1761 54.2116 52.8802 54.214 52.5227V47.2386Z" fill="#C695FF"/>
</svg>
