<svg width="80" height="80" viewBox="0 0 80 80" fill="none" xmlns="http://www.w3.org/2000/svg">
<rect width="80" height="80" fill="white"/>
<rect x="5.5" y="14.5" width="69" height="51" rx="3.5" stroke="#8649E1"/>
<path d="M16.2102 32H13.6321V24.7273H16.2315C16.9631 24.7273 17.5928 24.8729 18.1207 25.1641C18.6487 25.4529 19.0547 25.8684 19.3388 26.4105C19.6252 26.9527 19.7685 27.6013 19.7685 28.3565C19.7685 29.1141 19.6252 29.7652 19.3388 30.3097C19.0547 30.8542 18.6463 31.272 18.1136 31.5632C17.5833 31.8544 16.9489 32 16.2102 32ZM15.1697 30.6825H16.1463C16.6009 30.6825 16.9832 30.602 17.2933 30.4411C17.6058 30.2777 17.8402 30.0256 17.9964 29.6847C18.1551 29.3414 18.2344 28.8987 18.2344 28.3565C18.2344 27.8191 18.1551 27.38 17.9964 27.0391C17.8402 26.6982 17.607 26.4472 17.2969 26.2862C16.9867 26.1252 16.6044 26.0447 16.1499 26.0447H15.1697V30.6825ZM20.8791 32V26.5455H22.3457V27.4972H22.4025C22.502 27.1586 22.6689 26.9029 22.9032 26.7301C23.1376 26.5549 23.4075 26.4673 23.7129 26.4673C23.7886 26.4673 23.8703 26.4721 23.9579 26.4815C24.0455 26.491 24.1225 26.504 24.1887 26.5206V27.8629C24.1177 27.8416 24.0195 27.8227 23.894 27.8061C23.7685 27.7895 23.6537 27.7812 23.5495 27.7812C23.327 27.7812 23.1281 27.8298 22.9529 27.9268C22.7801 28.0215 22.6428 28.1541 22.541 28.3246C22.4416 28.495 22.3919 28.6915 22.3919 28.9141V32H20.8791ZM27.1815 32.1065C26.6299 32.1065 26.1528 31.9893 25.7504 31.755C25.3503 31.5182 25.0413 31.1892 24.8235 30.7678C24.6057 30.344 24.4968 29.8527 24.4968 29.294C24.4968 28.7306 24.6057 28.2382 24.8235 27.8168C25.0413 27.393 25.3503 27.0639 25.7504 26.8295C26.1528 26.5928 26.6299 26.4744 27.1815 26.4744C27.7331 26.4744 28.2089 26.5928 28.609 26.8295C29.0115 27.0639 29.3216 27.393 29.5394 27.8168C29.7572 28.2382 29.8661 28.7306 29.8661 29.294C29.8661 29.8527 29.7572 30.344 29.5394 30.7678C29.3216 31.1892 29.0115 31.5182 28.609 31.755C28.2089 31.9893 27.7331 32.1065 27.1815 32.1065ZM27.1886 30.9347C27.4395 30.9347 27.649 30.8636 27.8171 30.7216C27.9852 30.5772 28.1119 30.3807 28.1971 30.1321C28.2847 29.8835 28.3285 29.6006 28.3285 29.2834C28.3285 28.9661 28.2847 28.6832 28.1971 28.4347C28.1119 28.1861 27.9852 27.9896 27.8171 27.8452C27.649 27.7008 27.4395 27.6286 27.1886 27.6286C26.9353 27.6286 26.7222 27.7008 26.5494 27.8452C26.3789 27.9896 26.2499 28.1861 26.1623 28.4347C26.0771 28.6832 26.0344 28.9661 26.0344 29.2834C26.0344 29.6006 26.0771 29.8835 26.1623 30.1321C26.2499 30.3807 26.3789 30.5772 26.5494 30.7216C26.7222 30.8636 26.9353 30.9347 27.1886 30.9347ZM30.8498 34.0455V26.5455H32.3413V27.4616H32.4087C32.475 27.3149 32.5709 27.1657 32.6964 27.0142C32.8242 26.8603 32.9899 26.7325 33.1935 26.6307C33.3995 26.5265 33.6552 26.4744 33.9606 26.4744C34.3583 26.4744 34.7253 26.5786 35.0614 26.7869C35.3976 26.9929 35.6663 27.3042 35.8675 27.7209C36.0688 28.1352 36.1694 28.6548 36.1694 29.2798C36.1694 29.8883 36.0711 30.402 35.8746 30.821C35.6805 31.2377 35.4154 31.5537 35.0792 31.7692C34.7454 31.9822 34.3713 32.0888 33.957 32.0888C33.6635 32.0888 33.4137 32.0402 33.2077 31.9432C33.0041 31.8461 32.8372 31.7242 32.707 31.5774C32.5768 31.4283 32.4774 31.2779 32.4087 31.1264H32.3626V34.0455H30.8498ZM32.3306 29.2727C32.3306 29.5971 32.3756 29.88 32.4656 30.1214C32.5555 30.3629 32.6857 30.5511 32.8562 30.6861C33.0266 30.8187 33.2338 30.8849 33.4776 30.8849C33.7238 30.8849 33.9322 30.8175 34.1026 30.6825C34.2731 30.5452 34.4021 30.3558 34.4897 30.1143C34.5797 29.8705 34.6246 29.59 34.6246 29.2727C34.6246 28.9579 34.5808 28.6809 34.4933 28.4418C34.4057 28.2027 34.2766 28.0156 34.1062 27.8807C33.9357 27.7457 33.7262 27.6783 33.4776 27.6783C33.2314 27.6783 33.0231 27.7434 32.8526 27.8736C32.6845 28.0038 32.5555 28.1884 32.4656 28.4276C32.3756 28.6667 32.3306 28.9484 32.3306 29.2727ZM39.1879 32.0888C38.7736 32.0888 38.3983 31.9822 38.0621 31.7692C37.7283 31.5537 37.4632 31.2377 37.2667 30.821C37.0726 30.402 36.9755 29.8883 36.9755 29.2798C36.9755 28.6548 37.0761 28.1352 37.2773 27.7209C37.4786 27.3042 37.7461 26.9929 38.0799 26.7869C38.4161 26.5786 38.7842 26.4744 39.1843 26.4744C39.4897 26.4744 39.7442 26.5265 39.9478 26.6307C40.1538 26.7325 40.3195 26.8603 40.445 27.0142C40.5728 27.1657 40.6699 27.3149 40.7362 27.4616H40.7823V24.7273H42.2915V32H40.8001V31.1264H40.7362C40.6651 31.2779 40.5645 31.4283 40.4343 31.5774C40.3065 31.7242 40.1396 31.8461 39.9336 31.9432C39.73 32.0402 39.4814 32.0888 39.1879 32.0888ZM39.6673 30.8849C39.9111 30.8849 40.1171 30.8187 40.2852 30.6861C40.4556 30.5511 40.5858 30.3629 40.6758 30.1214C40.7681 29.88 40.8143 29.5971 40.8143 29.2727C40.8143 28.9484 40.7693 28.6667 40.6793 28.4276C40.5894 28.1884 40.4592 28.0038 40.2887 27.8736C40.1183 27.7434 39.9111 27.6783 39.6673 27.6783C39.4187 27.6783 39.2092 27.7457 39.0387 27.8807C38.8683 28.0156 38.7392 28.2027 38.6516 28.4418C38.564 28.6809 38.5202 28.9579 38.5202 29.2727C38.5202 29.59 38.564 29.8705 38.6516 30.1143C38.7416 30.3558 38.8706 30.5452 39.0387 30.6825C39.2092 30.8175 39.4187 30.8849 39.6673 30.8849ZM45.9998 32.1065C45.4482 32.1065 44.9712 31.9893 44.5687 31.755C44.1686 31.5182 43.8597 31.1892 43.6419 30.7678C43.4241 30.344 43.3152 29.8527 43.3152 29.294C43.3152 28.7306 43.4241 28.2382 43.6419 27.8168C43.8597 27.393 44.1686 27.0639 44.5687 26.8295C44.9712 26.5928 45.4482 26.4744 45.9998 26.4744C46.5514 26.4744 47.0273 26.5928 47.4274 26.8295C47.8298 27.0639 48.14 27.393 48.3578 27.8168C48.5756 28.2382 48.6845 28.7306 48.6845 29.294C48.6845 29.8527 48.5756 30.344 48.3578 30.7678C48.14 31.1892 47.8298 31.5182 47.4274 31.755C47.0273 31.9893 46.5514 32.1065 45.9998 32.1065ZM46.0069 30.9347C46.2579 30.9347 46.4674 30.8636 46.6355 30.7216C46.8036 30.5772 46.9302 30.3807 47.0154 30.1321C47.103 29.8835 47.1468 29.6006 47.1468 29.2834C47.1468 28.9661 47.103 28.6832 47.0154 28.4347C46.9302 28.1861 46.8036 27.9896 46.6355 27.8452C46.4674 27.7008 46.2579 27.6286 46.0069 27.6286C45.7536 27.6286 45.5405 27.7008 45.3677 27.8452C45.1973 27.9896 45.0682 28.1861 44.9806 28.4347C44.8954 28.6832 44.8528 28.9661 44.8528 29.2834C44.8528 29.6006 44.8954 29.8835 44.9806 30.1321C45.0682 30.3807 45.1973 30.5772 45.3677 30.7216C45.5405 30.8636 45.7536 30.9347 46.0069 30.9347ZM50.6074 32L49.123 26.5455H50.6536L51.4988 30.2102H51.5485L52.4292 26.5455H53.9313L54.8262 30.1889H54.8723L55.7033 26.5455H57.2303L55.7495 32H54.1479L53.2104 28.5696H53.1429L52.2054 32H50.6074ZM59.5501 28.8466V32H58.0373V26.5455H59.479V27.5078H59.543C59.6637 27.1906 59.8661 26.9396 60.1502 26.755C60.4343 26.5679 60.7788 26.4744 61.1836 26.4744C61.5624 26.4744 61.8926 26.5573 62.1744 26.723C62.4561 26.8887 62.6751 27.1255 62.8313 27.4332C62.9876 27.7386 63.0657 28.1032 63.0657 28.527V32H61.5529V28.7969C61.5553 28.4631 61.4701 28.2027 61.2972 28.0156C61.1244 27.8262 60.8865 27.7315 60.5835 27.7315C60.3799 27.7315 60.1999 27.7753 60.0437 27.8629C59.8898 27.9505 59.7691 28.0784 59.6815 28.2464C59.5962 28.4122 59.5524 28.6122 59.5501 28.8466ZM16.0682 44.1065C15.5095 44.1065 15.0289 43.9882 14.6264 43.7514C14.2263 43.5123 13.9186 43.1809 13.7031 42.7571C13.4901 42.3333 13.3835 41.8456 13.3835 41.294C13.3835 40.7353 13.4912 40.2453 13.7067 39.8239C13.9245 39.4001 14.2334 39.0698 14.6335 38.8331C15.0336 38.594 15.5095 38.4744 16.0611 38.4744C16.5369 38.4744 16.9536 38.5608 17.3111 38.7337C17.6686 38.9065 17.9515 39.1491 18.1598 39.4616C18.3681 39.7741 18.483 40.1411 18.5043 40.5625H17.0767C17.0365 40.2902 16.9299 40.0713 16.7571 39.9055C16.5866 39.7375 16.3629 39.6534 16.0859 39.6534C15.8516 39.6534 15.6468 39.7173 15.4716 39.8452C15.2988 39.9706 15.1638 40.1541 15.0668 40.3956C14.9697 40.6371 14.9212 40.9295 14.9212 41.2727C14.9212 41.6207 14.9685 41.9167 15.0632 42.1605C15.1603 42.4044 15.2964 42.5902 15.4716 42.718C15.6468 42.8459 15.8516 42.9098 16.0859 42.9098C16.2588 42.9098 16.4138 42.8743 16.5511 42.8033C16.6908 42.7322 16.8056 42.6293 16.8956 42.4943C16.9879 42.357 17.0483 42.1925 17.0767 42.0007H18.5043C18.4806 42.4174 18.367 42.7843 18.1634 43.1016C17.9621 43.4164 17.6839 43.6626 17.3288 43.8402C16.9737 44.0178 16.5535 44.1065 16.0682 44.1065ZM21.9373 44.1065C21.3857 44.1065 20.9087 43.9893 20.5062 43.755C20.1061 43.5182 19.7972 43.1892 19.5794 42.7678C19.3616 42.344 19.2527 41.8527 19.2527 41.294C19.2527 40.7306 19.3616 40.2382 19.5794 39.8168C19.7972 39.393 20.1061 39.0639 20.5062 38.8295C20.9087 38.5928 21.3857 38.4744 21.9373 38.4744C22.4889 38.4744 22.9648 38.5928 23.3649 38.8295C23.7673 39.0639 24.0775 39.393 24.2953 39.8168C24.5131 40.2382 24.622 40.7306 24.622 41.294C24.622 41.8527 24.5131 42.344 24.2953 42.7678C24.0775 43.1892 23.7673 43.5182 23.3649 43.755C22.9648 43.9893 22.4889 44.1065 21.9373 44.1065ZM21.9444 42.9347C22.1954 42.9347 22.4049 42.8636 22.573 42.7216C22.7411 42.5772 22.8677 42.3807 22.9529 42.1321C23.0405 41.8835 23.0843 41.6006 23.0843 41.2834C23.0843 40.9661 23.0405 40.6832 22.9529 40.4347C22.8677 40.1861 22.7411 39.9896 22.573 39.8452C22.4049 39.7008 22.1954 39.6286 21.9444 39.6286C21.6911 39.6286 21.478 39.7008 21.3052 39.8452C21.1348 39.9896 21.0057 40.1861 20.9181 40.4347C20.8329 40.6832 20.7903 40.9661 20.7903 41.2834C20.7903 41.6006 20.8329 41.8835 20.9181 42.1321C21.0057 42.3807 21.1348 42.5772 21.3052 42.7216C21.478 42.8636 21.6911 42.9347 21.9444 42.9347ZM27.1184 40.8466V44H25.6056V38.5455H27.0474V39.5078H27.1113C27.2321 39.1906 27.4345 38.9396 27.7186 38.755C28.0027 38.5679 28.3471 38.4744 28.752 38.4744C29.1307 38.4744 29.461 38.5573 29.7427 38.723C30.0244 38.8887 30.2434 39.1255 30.3997 39.4332C30.5559 39.7386 30.6341 40.1032 30.6341 40.527V44H29.1213V40.7969C29.1236 40.4631 29.0384 40.2027 28.8656 40.0156C28.6928 39.8262 28.4548 39.7315 28.1518 39.7315C27.9482 39.7315 27.7683 39.7753 27.612 39.8629C27.4582 39.9505 27.3374 40.0784 27.2498 40.2464C27.1646 40.4122 27.1208 40.6122 27.1184 40.8466ZM34.7276 38.5455V39.6818H31.4428V38.5455H34.7276ZM32.1886 37.2386H33.7013V42.3239C33.7013 42.4635 33.7227 42.5724 33.7653 42.6506C33.8079 42.7263 33.8671 42.7796 33.9428 42.8104C34.021 42.8411 34.1109 42.8565 34.2127 42.8565C34.2837 42.8565 34.3548 42.8506 34.4258 42.8388C34.4968 42.8246 34.5513 42.8139 34.5891 42.8068L34.8271 43.9325C34.7513 43.9562 34.6448 43.9834 34.5075 44.0142C34.3701 44.0473 34.2032 44.0675 34.0067 44.0746C33.6422 44.0888 33.3226 44.0402 33.0479 43.929C32.7757 43.8177 32.5638 43.6449 32.4123 43.4105C32.2608 43.1761 32.1862 42.8802 32.1886 42.5227V37.2386ZM38.1403 44.1065C37.5792 44.1065 37.0962 43.9929 36.6914 43.7656C36.2889 43.536 35.9788 43.2116 35.761 42.7926C35.5432 42.3712 35.4343 41.8729 35.4343 41.2976C35.4343 40.7365 35.5432 40.2441 35.761 39.8203C35.9788 39.3965 36.2854 39.0663 36.6808 38.8295C37.0785 38.5928 37.5449 38.4744 38.0799 38.4744C38.4397 38.4744 38.7747 38.5324 39.0849 38.6484C39.3974 38.7621 39.6696 38.9337 39.9016 39.1634C40.136 39.393 40.3183 39.6818 40.4485 40.0298C40.5787 40.3755 40.6438 40.7803 40.6438 41.2443V41.6598H36.038V40.7223H39.2198C39.2198 40.5045 39.1725 40.3116 39.0778 40.1435C38.9831 39.9754 38.8517 39.844 38.6836 39.7493C38.5179 39.6522 38.3249 39.6037 38.1048 39.6037C37.8751 39.6037 37.6715 39.657 37.494 39.7635C37.3188 39.8677 37.1815 40.0085 37.082 40.1861C36.9826 40.3613 36.9317 40.5566 36.9293 40.772V41.6634C36.9293 41.9332 36.979 42.1664 37.0785 42.3629C37.1803 42.5594 37.3235 42.7109 37.5082 42.8175C37.6928 42.924 37.9118 42.9773 38.1651 42.9773C38.3332 42.9773 38.4871 42.9536 38.6268 42.9062C38.7665 42.8589 38.886 42.7879 38.9854 42.6932C39.0849 42.5985 39.1606 42.4825 39.2127 42.3452L40.6119 42.4375C40.5408 42.7737 40.3952 43.0672 40.1751 43.3182C39.9573 43.5668 39.6755 43.7609 39.3299 43.9006C38.9866 44.0379 38.5901 44.1065 38.1403 44.1065ZM43.1438 40.8466V44H41.631V38.5455H43.0728V39.5078H43.1367C43.2575 39.1906 43.4599 38.9396 43.744 38.755C44.0281 38.5679 44.3725 38.4744 44.7773 38.4744C45.1561 38.4744 45.4864 38.5573 45.7681 38.723C46.0498 38.8887 46.2688 39.1255 46.4251 39.4332C46.5813 39.7386 46.6594 40.1032 46.6594 40.527V44H45.1467V40.7969C45.149 40.4631 45.0638 40.2027 44.891 40.0156C44.7182 39.8262 44.4802 39.7315 44.1772 39.7315C43.9736 39.7315 43.7937 39.7753 43.6374 39.8629C43.4835 39.9505 43.3628 40.0784 43.2752 40.2464C43.19 40.4122 43.1462 40.6122 43.1438 40.8466ZM50.753 38.5455V39.6818H47.4682V38.5455H50.753ZM48.214 37.2386H49.7267V42.3239C49.7267 42.4635 49.748 42.5724 49.7907 42.6506C49.8333 42.7263 49.8925 42.7796 49.9682 42.8104C50.0463 42.8411 50.1363 42.8565 50.2381 42.8565C50.3091 42.8565 50.3801 42.8506 50.4512 42.8388C50.5222 42.8246 50.5766 42.8139 50.6145 42.8068L50.8525 43.9325C50.7767 43.9562 50.6702 43.9834 50.5328 44.0142C50.3955 44.0473 50.2286 44.0675 50.0321 44.0746C49.6676 44.0888 49.348 44.0402 49.0733 43.929C48.8011 43.8177 48.5892 43.6449 48.4377 43.4105C48.2862 43.1761 48.2116 42.8802 48.214 42.5227V37.2386Z" fill="#C695FF"/>
</svg>
