<svg width="100" height="42" viewBox="0 0 100 42" fill="none" xmlns="http://www.w3.org/2000/svg">
<path d="M67.6614 26.1509L67.3625 25.7282L66.8448 25.7282L48.0001 25.7282C45.2386 25.7282 43.0001 23.4896 43.0001 20.7282L43 6C43 3.23858 45.2386 1 48 1L94 0.999998C96.7614 0.999998 99 3.23858 99 6L99 20.7282C99 23.4896 96.7614 25.7282 94 25.7282L75.7826 25.7282L75.2701 25.7282L74.9708 26.1441L71.2814 31.2719L67.6614 26.1509Z" stroke="#8A8E9B" stroke-width="2"/>
<rect x="48" y="8" width="48" height="4" rx="2" fill="#C4C7CF"/>
<rect x="48" y="16" width="38" height="4" rx="2" fill="#C4C7CF"/>
<rect y="36" width="55" height="6" rx="2" fill="#C4C7CF"/>
<rect x="59" y="36" width="6" height="6" rx="2" fill="#8A8E9B"/>
<rect x="69" y="36" width="6" height="6" rx="2" fill="#8A8E9B"/>
<rect x="79" y="36" width="6" height="6" rx="2" fill="#8A8E9B"/>
</svg>
