<svg width="100" height="100" viewBox="0 0 100 100" fill="none" xmlns="http://www.w3.org/2000/svg">
<rect width="100" height="100" fill="white"/>
<path d="M61.2531 55.4397L61.1037 55.2283L60.8448 55.2283L42.0001 55.2283C38.9625 55.2283 36.5001 52.7659 36.5001 49.7283L36.5 35.0001C36.5 31.9626 38.9624 29.5001 42 29.5001L88 29.5001C91.0376 29.5001 93.5 31.9626 93.5 35.0001L93.5 49.7283C93.5 52.7659 91.0376 55.2283 88 55.2283L69.7826 55.2283L69.5263 55.2283L69.3767 55.4363L65.6873 60.564C65.4868 60.8427 65.0714 60.841 64.8732 60.5606L61.2531 55.4397Z" stroke="#8649E1"/>
<rect x="41" y="35.9998" width="48" height="4" rx="2" fill="#EDD9FF"/>
<rect x="41" y="43.9998" width="38" height="4" rx="2" fill="#EDD9FF"/>
<path d="M6 68C6 66.3431 7.34315 65 9 65H46C47.6569 65 49 66.3431 49 68V68C49 69.6569 47.6569 71 46 71H9C7.34314 71 6 69.6569 6 68V68Z" fill="#EDD9FF"/>
<rect x="53" y="65" width="6" height="6" rx="3" fill="#8649E1"/>
<rect x="62" y="65" width="6" height="6" rx="3" fill="#8649E1"/>
<rect x="71" y="65" width="6" height="6" rx="3" fill="#8649E1"/>
</svg>
