<svg width="80" height="80" viewBox="0 0 80 80" fill="none" xmlns="http://www.w3.org/2000/svg">
<rect width="80" height="80" fill="white"/>
<path d="M43.2531 45.4397L43.1037 45.2283L42.8448 45.2283L24.0001 45.2283C20.9625 45.2283 18.5001 42.7659 18.5001 39.7283L18.5 25.0001C18.5 21.9626 20.9624 19.5001 24 19.5001L70 19.5001C73.0376 19.5001 75.5 21.9626 75.5 25.0001L75.5 39.7283C75.5 42.7659 73.0376 45.2283 70 45.2283L51.7826 45.2283L51.5263 45.2283L51.3767 45.4363L47.6873 50.564C47.4868 50.8427 47.0714 50.841 46.8732 50.5606L43.2531 45.4397Z" stroke="#8649E1"/>
<rect x="23" y="25.9995" width="48" height="4" rx="2" fill="#EDD9FF"/>
<rect x="23" y="33.9995" width="38" height="4" rx="2" fill="#EDD9FF"/>
<path d="M4 58C4 56.3431 5.34315 55 7 55H28C29.6569 55 31 56.3431 31 58C31 59.6569 29.6569 61 28 61H7C5.34315 61 4 59.6569 4 58Z" fill="#EDD9FF"/>
<rect x="35" y="55" width="6" height="6" rx="3" fill="#8649E1"/>
<rect x="44" y="55" width="6" height="6" rx="3" fill="#8649E1"/>
<rect x="53" y="55" width="6" height="6" rx="3" fill="#8649E1"/>
</svg>
