<svg width="100" height="56" viewBox="0 0 100 56" fill="none" xmlns="http://www.w3.org/2000/svg">
<path fill-rule="evenodd" clip-rule="evenodd" d="M96 2H4C2.89543 2 2 2.89543 2 4V52C2 53.1046 2.89543 54 4 54H96C97.1046 54 98 53.1046 98 52V4C98 2.89543 97.1046 2 96 2ZM4 0C1.79086 0 0 1.79086 0 4V52C0 54.2091 1.79086 56 4 56H96C98.2091 56 100 54.2091 100 52V4C100 1.79086 98.2091 0 96 0H4Z" fill="#D1D4DB"/>
<rect x="38" y="15" width="34" height="4" rx="2" fill="#D1D4DB"/>
<rect x="38" y="31" width="26" height="8" rx="2" fill="#D1D4DB"/>
<rect x="38" y="22" width="50" height="4" rx="2" fill="#D1D4DB"/>
<path fill-rule="evenodd" clip-rule="evenodd" d="M11 31C11 32.1046 11.8954 33 13 33H31C32.1046 33 33 32.1046 33 31V17C33 15.8954 32.1046 15 31 15H13C11.8954 15 11 15.8954 11 17V31ZM13 29C13 30.1046 13.8954 31 15 31H29C30.1046 31 31 30.1046 31 29V19C31 17.8954 30.1046 17 29 17H15C13.8954 17 13 17.8954 13 19V29Z" fill="#D1D4DB"/>
<path fill-rule="evenodd" clip-rule="evenodd" d="M26.3999 24.7002C26.1999 24.4002 25.6999 24.4002 25.4999 24.7002C24.8403 25.8436 23.1851 25.8291 22.5456 24.6744L20.3999 20.8002C20.1999 20.5002 19.6999 20.5002 19.4999 20.8002L16.6255 26.038C15.894 27.3709 16.8585 29.0002 18.3788 29.0002H25.4534C27.0111 29.0002 27.9708 27.2983 27.1649 25.9654L26.3999 24.7002Z" fill="#D1D4DB"/>
<path fill-rule="evenodd" clip-rule="evenodd" d="M26.5 22C27.329 22 28 21.328 28 20.5C28 19.672 27.329 19 26.5 19C25.671 19 25 19.672 25 20.5C25 21.328 25.671 22 26.5 22Z" fill="#D1D4DB"/>
</svg>
