<svg width="80" height="80" viewBox="0 0 80 80" fill="none" xmlns="http://www.w3.org/2000/svg">
<rect width="80" height="80" fill="white"/>
<circle cx="13" cy="23" r="6" fill="#EDD9FF"/>
<circle cx="13" cy="23" r="3" fill="#AB6CFE"/>
<rect x="7.5" y="31.5" width="65" height="31" rx="3.5" fill="#F9F2FF" stroke="#8649E1"/>
<path d="M61.1937 37.1937C60.9354 37.452 60.9354 37.8708 61.1937 38.1292L63.0646 40L61.1937 41.8708C60.9354 42.1292 60.9354 42.548 61.1937 42.8063C61.452 43.0646 61.8708 43.0646 62.1292 42.8063L64 40.9354L65.8708 42.8063C66.1292 43.0646 66.548 43.0646 66.8063 42.8063C67.0646 42.548 67.0646 42.1292 66.8063 41.8708L64.9354 40L66.8063 38.1292C67.0646 37.8708 67.0646 37.452 66.8063 37.1937C66.548 36.9354 66.1292 36.9354 65.8708 37.1937L64 39.0646L62.1292 37.1937C61.8708 36.9354 61.452 36.9354 61.1937 37.1937Z" fill="#C695FF"/>
<rect x="15" y="39" width="24" height="6" rx="3" fill="#DCB8FF"/>
<rect x="15" y="49" width="48" height="6" rx="3" fill="#DCB8FF"/>
</svg>
