<svg width="100" height="100" viewBox="0 0 100 100" fill="none" xmlns="http://www.w3.org/2000/svg">
<rect width="100" height="100" fill="white"/>
<circle cx="19" cy="33" r="6" fill="#EDD9FF"/>
<circle cx="19" cy="33" r="3" fill="#AB6CFE"/>
<rect x="13.5" y="41.5" width="73" height="31" rx="3.5" fill="#F9F2FF" stroke="#8649E1"/>
<path d="M75.1937 47.1937C74.9354 47.452 74.9354 47.8708 75.1937 48.1292L77.0646 50L75.1937 51.8708C74.9354 52.1292 74.9354 52.548 75.1937 52.8063C75.452 53.0646 75.8708 53.0646 76.1292 52.8063L78 50.9354L79.8708 52.8063C80.1292 53.0646 80.548 53.0646 80.8063 52.8063C81.0646 52.548 81.0646 52.1292 80.8063 51.8708L78.9354 50L80.8063 48.1292C81.0646 47.8708 81.0646 47.452 80.8063 47.1937C80.548 46.9354 80.1292 46.9354 79.8708 47.1937L78 49.0646L76.1292 47.1937C75.8708 46.9354 75.452 46.9354 75.1937 47.1937Z" fill="#C695FF"/>
<rect x="21" y="49" width="32" height="6" rx="3" fill="#DCB8FF"/>
<rect x="21" y="59" width="56" height="6" rx="3" fill="#DCB8FF"/>
</svg>
