<svg width="80" height="80" viewBox="0 0 80 80" fill="none" xmlns="http://www.w3.org/2000/svg">
<rect width="80" height="80" fill="white"/>
<path d="M18.7585 21V12.2727H24.5369V13.794H20.6037V15.8736H24.1534V17.3949H20.6037V21H18.7585ZM28.2464 21.1278C27.5732 21.1278 26.9936 20.9915 26.5078 20.7188C26.0249 20.4432 25.6527 20.054 25.3913 19.5511C25.13 19.0455 24.9993 18.4474 24.9993 17.7571C24.9993 17.0838 25.13 16.4929 25.3913 15.9844C25.6527 15.4759 26.0206 15.0795 26.495 14.7955C26.9723 14.5114 27.532 14.3693 28.174 14.3693C28.6058 14.3693 29.0078 14.4389 29.38 14.5781C29.755 14.7145 30.0817 14.9205 30.3601 15.196C30.6413 15.4716 30.8601 15.8182 31.0163 16.2358C31.1726 16.6506 31.2507 17.1364 31.2507 17.6932V18.1918H25.7237V17.0668H29.5419C29.5419 16.8054 29.4851 16.5739 29.3714 16.3722C29.2578 16.1705 29.1001 16.0128 28.8984 15.8991C28.6996 15.7827 28.468 15.7244 28.2038 15.7244C27.9283 15.7244 27.6839 15.7884 27.4709 15.9162C27.2607 16.0412 27.0959 16.2102 26.9766 16.4233C26.8572 16.6335 26.7962 16.8679 26.7933 17.1264V18.196C26.7933 18.5199 26.853 18.7997 26.9723 19.0355C27.0945 19.2713 27.2663 19.4531 27.4879 19.581C27.7095 19.7088 27.9723 19.7727 28.2763 19.7727C28.478 19.7727 28.6626 19.7443 28.8303 19.6875C28.9979 19.6307 29.1413 19.5455 29.2607 19.4318C29.38 19.3182 29.4709 19.179 29.5334 19.0142L31.2124 19.125C31.1271 19.5284 30.9524 19.8807 30.6882 20.1818C30.4268 20.4801 30.0888 20.7131 29.674 20.8807C29.2621 21.0455 28.7862 21.1278 28.2464 21.1278ZM35.4183 21.1278C34.745 21.1278 34.1655 20.9915 33.6797 20.7188C33.1967 20.4432 32.8246 20.054 32.5632 19.5511C32.3018 19.0455 32.1712 18.4474 32.1712 17.7571C32.1712 17.0838 32.3018 16.4929 32.5632 15.9844C32.8246 15.4759 33.1925 15.0795 33.6669 14.7955C34.1442 14.5114 34.7038 14.3693 35.3459 14.3693C35.7777 14.3693 36.1797 14.4389 36.5518 14.5781C36.9268 14.7145 37.2536 14.9205 37.532 15.196C37.8132 15.4716 38.032 15.8182 38.1882 16.2358C38.3445 16.6506 38.4226 17.1364 38.4226 17.6932V18.1918H32.8956V17.0668H36.7138C36.7138 16.8054 36.657 16.5739 36.5433 16.3722C36.4297 16.1705 36.272 16.0128 36.0703 15.8991C35.8714 15.7827 35.6399 15.7244 35.3757 15.7244C35.1001 15.7244 34.8558 15.7884 34.6428 15.9162C34.4325 16.0412 34.2678 16.2102 34.1484 16.4233C34.0291 16.6335 33.968 16.8679 33.9652 17.1264V18.196C33.9652 18.5199 34.0249 18.7997 34.1442 19.0355C34.2663 19.2713 34.4382 19.4531 34.6598 19.581C34.8814 19.7088 35.1442 19.7727 35.4482 19.7727C35.6499 19.7727 35.8345 19.7443 36.0021 19.6875C36.1697 19.6307 36.3132 19.5455 36.4325 19.4318C36.5518 19.3182 36.6428 19.179 36.7053 19.0142L38.3842 19.125C38.299 19.5284 38.1243 19.8807 37.8601 20.1818C37.5987 20.4801 37.2607 20.7131 36.8459 20.8807C36.4339 21.0455 35.9581 21.1278 35.4183 21.1278ZM42.0192 21.1065C41.522 21.1065 41.0717 20.9787 40.6683 20.723C40.2678 20.4645 39.9496 20.0852 39.7138 19.5852C39.4808 19.0824 39.3643 18.4659 39.3643 17.7358C39.3643 16.9858 39.4851 16.3622 39.7266 15.8651C39.968 15.3651 40.2891 14.9915 40.6896 14.7443C41.093 14.4943 41.5348 14.3693 42.0149 14.3693C42.3814 14.3693 42.6868 14.4318 42.9311 14.5568C43.1783 14.679 43.3771 14.8324 43.5277 15.017C43.6811 15.1989 43.7976 15.3778 43.8771 15.554H43.9325V12.2727H45.7436V21H43.9538V19.9517H43.8771C43.7919 20.1335 43.6712 20.3139 43.5149 20.4929C43.3615 20.669 43.1612 20.8153 42.9141 20.9318C42.6697 21.0483 42.3714 21.1065 42.0192 21.1065ZM42.5945 19.6619C42.8871 19.6619 43.1342 19.5824 43.3359 19.4233C43.5405 19.2614 43.6967 19.0355 43.8047 18.7457C43.9155 18.456 43.9709 18.1165 43.9709 17.7273C43.9709 17.3381 43.9169 17 43.8089 16.7131C43.701 16.4261 43.5447 16.2045 43.3402 16.0483C43.1357 15.892 42.8871 15.8139 42.5945 15.8139C42.2962 15.8139 42.0447 15.8949 41.8402 16.0568C41.6357 16.2187 41.4808 16.4432 41.3757 16.7301C41.2706 17.017 41.218 17.3494 41.218 17.7273C41.218 18.108 41.2706 18.4446 41.3757 18.7372C41.4837 19.027 41.6385 19.2543 41.8402 19.419C42.0447 19.581 42.2962 19.6619 42.5945 19.6619ZM47.2702 21V12.2727H49.0856V15.554H49.141C49.2205 15.3778 49.3356 15.1989 49.4862 15.017C49.6396 14.8324 49.8384 14.679 50.0827 14.5568C50.3299 14.4318 50.6367 14.3693 51.0032 14.3693C51.4805 14.3693 51.9208 14.4943 52.3242 14.7443C52.7276 14.9915 53.0501 15.3651 53.2915 15.8651C53.533 16.3622 53.6538 16.9858 53.6538 17.7358C53.6538 18.4659 53.5359 19.0824 53.3001 19.5852C53.0671 20.0852 52.7489 20.4645 52.3455 20.723C51.945 20.9787 51.4961 21.1065 50.9989 21.1065C50.6467 21.1065 50.3469 21.0483 50.0998 20.9318C49.8555 20.8153 49.6552 20.669 49.4989 20.4929C49.3427 20.3139 49.2234 20.1335 49.141 19.9517H49.06V21H47.2702ZM49.0472 17.7273C49.0472 18.1165 49.1012 18.456 49.2092 18.7457C49.3171 19.0355 49.4734 19.2614 49.6779 19.4233C49.8825 19.5824 50.131 19.6619 50.4237 19.6619C50.7191 19.6619 50.9691 19.581 51.1737 19.419C51.3782 19.2543 51.533 19.027 51.6381 18.7372C51.7461 18.4446 51.8001 18.108 51.8001 17.7273C51.8001 17.3494 51.7475 17.017 51.6424 16.7301C51.5373 16.4432 51.3825 16.2187 51.1779 16.0568C50.9734 15.8949 50.7219 15.8139 50.4237 15.8139C50.1282 15.8139 49.8782 15.892 49.6737 16.0483C49.4719 16.2045 49.3171 16.4261 49.2092 16.7131C49.1012 17 49.0472 17.3381 49.0472 17.7273ZM56.7315 21.1236C56.3139 21.1236 55.9418 21.0511 55.6151 20.9062C55.2884 20.7585 55.0298 20.5412 54.8395 20.2543C54.652 19.9645 54.5582 19.6037 54.5582 19.1719C54.5582 18.8082 54.625 18.5028 54.7585 18.2557C54.892 18.0085 55.0739 17.8097 55.304 17.6591C55.5341 17.5085 55.7955 17.3949 56.0881 17.3182C56.3835 17.2415 56.6932 17.1875 57.017 17.1562C57.3977 17.1165 57.7045 17.0795 57.9375 17.0455C58.1705 17.0085 58.3395 16.9545 58.4446 16.8835C58.5497 16.8125 58.6023 16.7074 58.6023 16.5682V16.5426C58.6023 16.2727 58.517 16.0639 58.3466 15.9162C58.179 15.7685 57.9403 15.6946 57.6307 15.6946C57.304 15.6946 57.044 15.767 56.8509 15.9119C56.6577 16.054 56.5298 16.233 56.4673 16.4489L54.7884 16.3125C54.8736 15.9148 55.0412 15.571 55.2912 15.2812C55.5412 14.9886 55.8636 14.7642 56.2585 14.608C56.6563 14.4489 57.1165 14.3693 57.6392 14.3693C58.0028 14.3693 58.3509 14.4119 58.6832 14.4972C59.0185 14.5824 59.3153 14.7145 59.5739 14.8935C59.8352 15.0724 60.0412 15.3026 60.1918 15.5838C60.3423 15.8622 60.4176 16.196 60.4176 16.5852V21H58.696V20.0923H58.6449C58.5398 20.2969 58.3991 20.4773 58.223 20.6335C58.0469 20.7869 57.8352 20.9077 57.5881 20.9957C57.3409 21.081 57.0554 21.1236 56.7315 21.1236ZM57.2514 19.8707C57.5185 19.8707 57.7543 19.8182 57.9588 19.7131C58.1634 19.6051 58.3239 19.4602 58.4403 19.2784C58.5568 19.0966 58.6151 18.8906 58.6151 18.6605V17.9659C58.5582 18.0028 58.4801 18.0369 58.3807 18.0682C58.2841 18.0966 58.1747 18.1236 58.0526 18.1491C57.9304 18.1719 57.8082 18.1932 57.6861 18.2131C57.5639 18.2301 57.4531 18.2457 57.3537 18.2599C57.1406 18.2912 56.9545 18.3409 56.7955 18.4091C56.6364 18.4773 56.5128 18.5696 56.4247 18.6861C56.3366 18.7997 56.2926 18.9418 56.2926 19.1122C56.2926 19.3594 56.3821 19.5483 56.5611 19.679C56.7429 19.8068 56.973 19.8707 57.2514 19.8707ZM64.7834 21.1278C64.1129 21.1278 63.5362 20.9858 63.0533 20.7017C62.5732 20.4148 62.2038 20.017 61.9453 19.5085C61.6896 19 61.5618 18.4148 61.5618 17.7528C61.5618 17.0824 61.6911 16.4943 61.9496 15.9886C62.2109 15.4801 62.5817 15.0838 63.0618 14.7997C63.5419 14.5128 64.1129 14.3693 64.7749 14.3693C65.3459 14.3693 65.8459 14.473 66.2749 14.6804C66.7038 14.8878 67.0433 15.179 67.2933 15.554C67.5433 15.929 67.6811 16.3693 67.7067 16.875H65.9936C65.9453 16.5483 65.8175 16.2855 65.6101 16.0866C65.4055 15.8849 65.1371 15.7841 64.8047 15.7841C64.5234 15.7841 64.2777 15.8608 64.0675 16.0142C63.8601 16.1648 63.6982 16.3849 63.5817 16.6747C63.4652 16.9645 63.407 17.3153 63.407 17.7273C63.407 18.1449 63.4638 18.5 63.5774 18.7926C63.6939 19.0852 63.8572 19.3082 64.0675 19.4616C64.2777 19.6151 64.5234 19.6918 64.8047 19.6918C65.0121 19.6918 65.1982 19.6491 65.3629 19.5639C65.5305 19.4787 65.6683 19.3551 65.7763 19.1932C65.8871 19.0284 65.9595 18.831 65.9936 18.6009H67.7067C67.6783 19.1009 67.5419 19.5412 67.2976 19.9219C67.0561 20.2997 66.7223 20.5952 66.2962 20.8082C65.87 21.0213 65.3658 21.1278 64.7834 21.1278ZM70.5138 19.1165L70.5181 16.9389H70.7823L72.8789 14.4545H74.9627L72.146 17.7443H71.7156L70.5138 19.1165ZM68.869 21V12.2727H70.6843V21H68.869ZM72.9599 21L71.0337 18.1491L72.244 16.8665L75.0863 21H72.9599Z" fill="#8649E1"/>
<path d="M4.5 31C4.5 29.067 6.067 27.5 8 27.5H72C73.933 27.5 75.5 29.067 75.5 31V67C75.5 68.933 73.933 70.5 72 70.5H8C6.06701 70.5 4.5 68.933 4.5 67V31Z" stroke="#8649E1"/>
<path d="M12.5 39C12.5 37.067 14.067 35.5 16 35.5H64C65.933 35.5 67.5 37.067 67.5 39V47C67.5 48.933 65.933 50.5 64 50.5H16C14.067 50.5 12.5 48.933 12.5 47V39Z" fill="#F9F2FF" stroke="#EDD9FF"/>
<rect x="12" y="55" width="22" height="8" rx="4" fill="#C695FF"/>
<rect x="38" y="55" width="18" height="8" rx="4" fill="#EDD9FF"/>
</svg>
