<svg width="100" height="100" viewBox="0 0 100 100" fill="none" xmlns="http://www.w3.org/2000/svg">
<rect width="100" height="100" fill="white"/>
<path d="M32.7585 24V15.2727H38.5369V16.794H34.6037V18.8736H38.1534V20.3949H34.6037V24H32.7585ZM42.2464 24.1278C41.5732 24.1278 40.9936 23.9915 40.5078 23.7188C40.0249 23.4432 39.6527 23.054 39.3913 22.5511C39.13 22.0455 38.9993 21.4474 38.9993 20.7571C38.9993 20.0838 39.13 19.4929 39.3913 18.9844C39.6527 18.4759 40.0206 18.0795 40.495 17.7955C40.9723 17.5114 41.532 17.3693 42.174 17.3693C42.6058 17.3693 43.0078 17.4389 43.38 17.5781C43.755 17.7145 44.0817 17.9205 44.3601 18.196C44.6413 18.4716 44.8601 18.8182 45.0163 19.2358C45.1726 19.6506 45.2507 20.1364 45.2507 20.6932V21.1918H39.7237V20.0668H43.5419C43.5419 19.8054 43.4851 19.5739 43.3714 19.3722C43.2578 19.1705 43.1001 19.0128 42.8984 18.8991C42.6996 18.7827 42.468 18.7244 42.2038 18.7244C41.9283 18.7244 41.6839 18.7884 41.4709 18.9162C41.2607 19.0412 41.0959 19.2102 40.9766 19.4233C40.8572 19.6335 40.7962 19.8679 40.7933 20.1264V21.196C40.7933 21.5199 40.853 21.7997 40.9723 22.0355C41.0945 22.2713 41.2663 22.4531 41.4879 22.581C41.7095 22.7088 41.9723 22.7727 42.2763 22.7727C42.478 22.7727 42.6626 22.7443 42.8303 22.6875C42.9979 22.6307 43.1413 22.5455 43.2607 22.4318C43.38 22.3182 43.4709 22.179 43.5334 22.0142L45.2124 22.125C45.1271 22.5284 44.9524 22.8807 44.6882 23.1818C44.4268 23.4801 44.0888 23.7131 43.674 23.8807C43.2621 24.0455 42.7862 24.1278 42.2464 24.1278ZM49.4183 24.1278C48.745 24.1278 48.1655 23.9915 47.6797 23.7188C47.1967 23.4432 46.8246 23.054 46.5632 22.5511C46.3018 22.0455 46.1712 21.4474 46.1712 20.7571C46.1712 20.0838 46.3018 19.4929 46.5632 18.9844C46.8246 18.4759 47.1925 18.0795 47.6669 17.7955C48.1442 17.5114 48.7038 17.3693 49.3459 17.3693C49.7777 17.3693 50.1797 17.4389 50.5518 17.5781C50.9268 17.7145 51.2536 17.9205 51.532 18.196C51.8132 18.4716 52.032 18.8182 52.1882 19.2358C52.3445 19.6506 52.4226 20.1364 52.4226 20.6932V21.1918H46.8956V20.0668H50.7138C50.7138 19.8054 50.657 19.5739 50.5433 19.3722C50.4297 19.1705 50.272 19.0128 50.0703 18.8991C49.8714 18.7827 49.6399 18.7244 49.3757 18.7244C49.1001 18.7244 48.8558 18.7884 48.6428 18.9162C48.4325 19.0412 48.2678 19.2102 48.1484 19.4233C48.0291 19.6335 47.968 19.8679 47.9652 20.1264V21.196C47.9652 21.5199 48.0249 21.7997 48.1442 22.0355C48.2663 22.2713 48.4382 22.4531 48.6598 22.581C48.8814 22.7088 49.1442 22.7727 49.4482 22.7727C49.6499 22.7727 49.8345 22.7443 50.0021 22.6875C50.1697 22.6307 50.3132 22.5455 50.4325 22.4318C50.5518 22.3182 50.6428 22.179 50.7053 22.0142L52.3842 22.125C52.299 22.5284 52.1243 22.8807 51.8601 23.1818C51.5987 23.4801 51.2607 23.7131 50.8459 23.8807C50.4339 24.0455 49.9581 24.1278 49.4183 24.1278ZM56.0192 24.1065C55.522 24.1065 55.0717 23.9787 54.6683 23.723C54.2678 23.4645 53.9496 23.0852 53.7138 22.5852C53.4808 22.0824 53.3643 21.4659 53.3643 20.7358C53.3643 19.9858 53.4851 19.3622 53.7266 18.8651C53.968 18.3651 54.2891 17.9915 54.6896 17.7443C55.093 17.4943 55.5348 17.3693 56.0149 17.3693C56.3814 17.3693 56.6868 17.4318 56.9311 17.5568C57.1783 17.679 57.3771 17.8324 57.5277 18.017C57.6811 18.1989 57.7976 18.3778 57.8771 18.554H57.9325V15.2727H59.7436V24H57.9538V22.9517H57.8771C57.7919 23.1335 57.6712 23.3139 57.5149 23.4929C57.3615 23.669 57.1612 23.8153 56.9141 23.9318C56.6697 24.0483 56.3714 24.1065 56.0192 24.1065ZM56.5945 22.6619C56.8871 22.6619 57.1342 22.5824 57.3359 22.4233C57.5405 22.2614 57.6967 22.0355 57.8047 21.7457C57.9155 21.456 57.9709 21.1165 57.9709 20.7273C57.9709 20.3381 57.9169 20 57.8089 19.7131C57.701 19.4261 57.5447 19.2045 57.3402 19.0483C57.1357 18.892 56.8871 18.8139 56.5945 18.8139C56.2962 18.8139 56.0447 18.8949 55.8402 19.0568C55.6357 19.2187 55.4808 19.4432 55.3757 19.7301C55.2706 20.017 55.218 20.3494 55.218 20.7273C55.218 21.108 55.2706 21.4446 55.3757 21.7372C55.4837 22.027 55.6385 22.2543 55.8402 22.419C56.0447 22.581 56.2962 22.6619 56.5945 22.6619ZM61.2702 24V15.2727H63.0856V18.554H63.141C63.2205 18.3778 63.3356 18.1989 63.4862 18.017C63.6396 17.8324 63.8384 17.679 64.0827 17.5568C64.3299 17.4318 64.6367 17.3693 65.0032 17.3693C65.4805 17.3693 65.9208 17.4943 66.3242 17.7443C66.7276 17.9915 67.0501 18.3651 67.2915 18.8651C67.533 19.3622 67.6538 19.9858 67.6538 20.7358C67.6538 21.4659 67.5359 22.0824 67.3001 22.5852C67.0671 23.0852 66.7489 23.4645 66.3455 23.723C65.945 23.9787 65.4961 24.1065 64.9989 24.1065C64.6467 24.1065 64.3469 24.0483 64.0998 23.9318C63.8555 23.8153 63.6552 23.669 63.4989 23.4929C63.3427 23.3139 63.2234 23.1335 63.141 22.9517H63.06V24H61.2702ZM63.0472 20.7273C63.0472 21.1165 63.1012 21.456 63.2092 21.7457C63.3171 22.0355 63.4734 22.2614 63.6779 22.4233C63.8825 22.5824 64.131 22.6619 64.4237 22.6619C64.7191 22.6619 64.9691 22.581 65.1737 22.419C65.3782 22.2543 65.533 22.027 65.6381 21.7372C65.7461 21.4446 65.8001 21.108 65.8001 20.7273C65.8001 20.3494 65.7475 20.017 65.6424 19.7301C65.5373 19.4432 65.3825 19.2187 65.1779 19.0568C64.9734 18.8949 64.7219 18.8139 64.4237 18.8139C64.1282 18.8139 63.8782 18.892 63.6737 19.0483C63.4719 19.2045 63.3171 19.4261 63.2092 19.7131C63.1012 20 63.0472 20.3381 63.0472 20.7273ZM70.7315 24.1236C70.3139 24.1236 69.9418 24.0511 69.6151 23.9062C69.2884 23.7585 69.0298 23.5412 68.8395 23.2543C68.652 22.9645 68.5582 22.6037 68.5582 22.1719C68.5582 21.8082 68.625 21.5028 68.7585 21.2557C68.892 21.0085 69.0739 20.8097 69.304 20.6591C69.5341 20.5085 69.7955 20.3949 70.0881 20.3182C70.3835 20.2415 70.6932 20.1875 71.017 20.1562C71.3977 20.1165 71.7045 20.0795 71.9375 20.0455C72.1705 20.0085 72.3395 19.9545 72.4446 19.8835C72.5497 19.8125 72.6023 19.7074 72.6023 19.5682V19.5426C72.6023 19.2727 72.517 19.0639 72.3466 18.9162C72.179 18.7685 71.9403 18.6946 71.6307 18.6946C71.304 18.6946 71.044 18.767 70.8509 18.9119C70.6577 19.054 70.5298 19.233 70.4673 19.4489L68.7884 19.3125C68.8736 18.9148 69.0412 18.571 69.2912 18.2812C69.5412 17.9886 69.8636 17.7642 70.2585 17.608C70.6563 17.4489 71.1165 17.3693 71.6392 17.3693C72.0028 17.3693 72.3509 17.4119 72.6832 17.4972C73.0185 17.5824 73.3153 17.7145 73.5739 17.8935C73.8352 18.0724 74.0412 18.3026 74.1918 18.5838C74.3423 18.8622 74.4176 19.196 74.4176 19.5852V24H72.696V23.0923H72.6449C72.5398 23.2969 72.3991 23.4773 72.223 23.6335C72.0469 23.7869 71.8352 23.9077 71.5881 23.9957C71.3409 24.081 71.0554 24.1236 70.7315 24.1236ZM71.2514 22.8707C71.5185 22.8707 71.7543 22.8182 71.9588 22.7131C72.1634 22.6051 72.3239 22.4602 72.4403 22.2784C72.5568 22.0966 72.6151 21.8906 72.6151 21.6605V20.9659C72.5582 21.0028 72.4801 21.0369 72.3807 21.0682C72.2841 21.0966 72.1747 21.1236 72.0526 21.1491C71.9304 21.1719 71.8082 21.1932 71.6861 21.2131C71.5639 21.2301 71.4531 21.2457 71.3537 21.2599C71.1406 21.2912 70.9545 21.3409 70.7955 21.4091C70.6364 21.4773 70.5128 21.5696 70.4247 21.6861C70.3366 21.7997 70.2926 21.9418 70.2926 22.1122C70.2926 22.3594 70.3821 22.5483 70.5611 22.679C70.7429 22.8068 70.973 22.8707 71.2514 22.8707ZM78.7834 24.1278C78.1129 24.1278 77.5362 23.9858 77.0533 23.7017C76.5732 23.4148 76.2038 23.017 75.9453 22.5085C75.6896 22 75.5618 21.4148 75.5618 20.7528C75.5618 20.0824 75.6911 19.4943 75.9496 18.9886C76.2109 18.4801 76.5817 18.0838 77.0618 17.7997C77.5419 17.5128 78.1129 17.3693 78.7749 17.3693C79.3459 17.3693 79.8459 17.473 80.2749 17.6804C80.7038 17.8878 81.0433 18.179 81.2933 18.554C81.5433 18.929 81.6811 19.3693 81.7067 19.875H79.9936C79.9453 19.5483 79.8175 19.2855 79.6101 19.0866C79.4055 18.8849 79.1371 18.7841 78.8047 18.7841C78.5234 18.7841 78.2777 18.8608 78.0675 19.0142C77.8601 19.1648 77.6982 19.3849 77.5817 19.6747C77.4652 19.9645 77.407 20.3153 77.407 20.7273C77.407 21.1449 77.4638 21.5 77.5774 21.7926C77.6939 22.0852 77.8572 22.3082 78.0675 22.4616C78.2777 22.6151 78.5234 22.6918 78.8047 22.6918C79.0121 22.6918 79.1982 22.6491 79.3629 22.5639C79.5305 22.4787 79.6683 22.3551 79.7763 22.1932C79.8871 22.0284 79.9595 21.831 79.9936 21.6009H81.7067C81.6783 22.1009 81.5419 22.5412 81.2976 22.9219C81.0561 23.2997 80.7223 23.5952 80.2962 23.8082C79.87 24.0213 79.3658 24.1278 78.7834 24.1278ZM84.5138 22.1165L84.5181 19.9389H84.7823L86.8789 17.4545H88.9627L86.146 20.7443H85.7156L84.5138 22.1165ZM82.869 24V15.2727H84.6843V24H82.869ZM86.9599 24L85.0337 21.1491L86.244 19.8665L89.0863 24H86.9599Z" fill="#8649E1"/>
<rect x="10.5" y="30.5" width="79" height="57" rx="3.5" stroke="#8649E1"/>
<rect x="18" y="38" width="42" height="6" rx="3" fill="#EDD9FF"/>
<rect x="18.5" y="48.5" width="63" height="19" rx="3.5" fill="#F9F2FF" stroke="#EDD9FF"/>
<rect x="18" y="72" width="22" height="8" rx="4" fill="#C695FF"/>
<rect x="44" y="72" width="18" height="8" rx="4" fill="#EDD9FF"/>
</svg>
