<svg width="100" height="100" viewBox="0 0 100 100" fill="none" xmlns="http://www.w3.org/2000/svg">
<rect width="100" height="100" fill="white"/>
<path d="M18 36.5H82C83.933 36.5 85.5 38.067 85.5 40V60C85.5 61.933 83.933 63.5 82 63.5H18C16.067 63.5 14.5 61.933 14.5 60V40C14.5 38.067 16.067 36.5 18 36.5Z" fill="#F9F2FF" stroke="#8649E1"/>
<path d="M67.3229 45.3229C66.8924 45.7534 66.8924 46.4514 67.3229 46.8819L70.441 50L67.3229 53.1181C66.8924 53.5486 66.8924 54.2466 67.3229 54.6771C67.7534 55.1076 68.4514 55.1076 68.8819 54.6771L72 51.559L75.1181 54.6771C75.5486 55.1076 76.2466 55.1076 76.6771 54.6771C77.1076 54.2466 77.1076 53.5486 76.6771 53.1181L73.559 50L76.6771 46.8819C77.1076 46.4514 77.1076 45.7534 76.6771 45.3229C76.2466 44.8924 75.5486 44.8924 75.1181 45.3229L72 48.441L68.8819 45.3229C68.4514 44.8924 67.7534 44.8924 67.3229 45.3229Z" fill="#C695FF"/>
<path d="M21.7585 54V45.2727H27.5369V46.794H23.6037V48.8736H27.1534V50.3949H23.6037V54H21.7585ZM28.744 54V47.4545H30.5593V54H28.744ZM29.6559 46.6108C29.386 46.6108 29.1545 46.5213 28.9613 46.3423C28.771 46.1605 28.6758 45.9432 28.6758 45.6903C28.6758 45.4403 28.771 45.2259 28.9613 45.0469C29.1545 44.8651 29.386 44.7741 29.6559 44.7741C29.9258 44.7741 30.1559 44.8651 30.3462 45.0469C30.5394 45.2259 30.636 45.4403 30.636 45.6903C30.636 45.9432 30.5394 46.1605 30.3462 46.3423C30.1559 46.5213 29.9258 46.6108 29.6559 46.6108ZM33.8288 45.2727V54H32.0135V45.2727H33.8288ZM38.7646 47.4545V48.8182H34.8228V47.4545H38.7646ZM35.7177 45.8864H37.533V51.9886C37.533 52.1562 37.5586 52.2869 37.6097 52.3807C37.6609 52.4716 37.7319 52.5355 37.8228 52.5724C37.9165 52.6094 38.0245 52.6278 38.1467 52.6278C38.2319 52.6278 38.3171 52.6207 38.4023 52.6065C38.4876 52.5895 38.5529 52.5767 38.5984 52.5682L38.8839 53.919C38.793 53.9474 38.6651 53.9801 38.5004 54.017C38.3356 54.0568 38.1353 54.081 37.8995 54.0895C37.462 54.1065 37.0785 54.0483 36.7489 53.9148C36.4222 53.7812 36.168 53.5739 35.9862 53.2926C35.8043 53.0114 35.7148 52.6562 35.7177 52.2273V45.8864ZM42.8597 54.1278C42.1864 54.1278 41.6069 53.9915 41.1211 53.7188C40.6381 53.4432 40.266 53.054 40.0046 52.5511C39.7433 52.0455 39.6126 51.4474 39.6126 50.7571C39.6126 50.0838 39.7433 49.4929 40.0046 48.9844C40.266 48.4759 40.6339 48.0795 41.1083 47.7955C41.5856 47.5114 42.1452 47.3693 42.7873 47.3693C43.2191 47.3693 43.6211 47.4389 43.9933 47.5781C44.3683 47.7145 44.695 47.9205 44.9734 48.196C45.2546 48.4716 45.4734 48.8182 45.6296 49.2358C45.7859 49.6506 45.864 50.1364 45.864 50.6932V51.1918H40.337V50.0668H44.1552C44.1552 49.8054 44.0984 49.5739 43.9847 49.3722C43.8711 49.1705 43.7134 49.0128 43.5117 48.8991C43.3129 48.7827 43.0813 48.7244 42.8171 48.7244C42.5415 48.7244 42.2972 48.7884 42.0842 48.9162C41.8739 49.0412 41.7092 49.2102 41.5898 49.4233C41.4705 49.6335 41.4094 49.8679 41.4066 50.1264V51.196C41.4066 51.5199 41.4663 51.7997 41.5856 52.0355C41.7077 52.2713 41.8796 52.4531 42.1012 52.581C42.3228 52.7088 42.5856 52.7727 42.8896 52.7727C43.0913 52.7727 43.2759 52.7443 43.4435 52.6875C43.6112 52.6307 43.7546 52.5455 43.8739 52.4318C43.9933 52.3182 44.0842 52.179 44.1467 52.0142L45.8256 52.125C45.7404 52.5284 45.5657 52.8807 45.3015 53.1818C45.0401 53.4801 44.7021 53.7131 44.2873 53.8807C43.8754 54.0455 43.3995 54.1278 42.8597 54.1278ZM47.0487 54V47.4545H48.8086V48.5966H48.8768C48.9961 48.1903 49.1964 47.8835 49.4776 47.6761C49.7589 47.4659 50.0827 47.3608 50.4492 47.3608C50.5401 47.3608 50.6381 47.3665 50.7433 47.3778C50.8484 47.3892 50.9407 47.4048 51.0202 47.4247V49.0355C50.935 49.0099 50.8171 48.9872 50.6665 48.9673C50.516 48.9474 50.3782 48.9375 50.2532 48.9375C49.9862 48.9375 49.7475 48.9957 49.5373 49.1122C49.3299 49.2259 49.1651 49.3849 49.043 49.5895C48.9237 49.794 48.864 50.0298 48.864 50.2969V54H47.0487Z" fill="#8649E1"/>
<rect x="58" y="37" width="1" height="26" fill="#8649E1"/>
</svg>
