<svg width="80" height="80" viewBox="0 0 80 80" fill="none" xmlns="http://www.w3.org/2000/svg">
<rect width="80" height="80" fill="white"/>
<path d="M4.5 30C4.5 28.067 6.067 26.5 8 26.5H72C73.933 26.5 75.5 28.067 75.5 30V50C75.5 51.933 73.933 53.5 72 53.5H8C6.067 53.5 4.5 51.933 4.5 50V30Z" fill="#F9F2FF" stroke="#8649E1"/>
<path d="M57.3229 35.3229C56.8924 35.7534 56.8924 36.4514 57.3229 36.8819L60.441 40L57.3229 43.1181C56.8924 43.5486 56.8924 44.2466 57.3229 44.6771C57.7534 45.1076 58.4514 45.1076 58.8819 44.6771L62 41.559L65.1181 44.6771C65.5486 45.1076 66.2466 45.1076 66.6771 44.6771C67.1076 44.2466 67.1076 43.5486 66.6771 43.1181L63.559 40L66.6771 36.8819C67.1076 36.4514 67.1076 35.7534 66.6771 35.3229C66.2466 34.8924 65.5486 34.8924 65.1181 35.3229L62 38.441L58.8819 35.3229C58.4514 34.8924 57.7534 34.8924 57.3229 35.3229Z" fill="#C695FF"/>
<path d="M11.7585 44V35.2727H17.5369V36.794H13.6037V38.8736H17.1534V40.3949H13.6037V44H11.7585ZM18.744 44V37.4545H20.5593V44H18.744ZM19.6559 36.6108C19.386 36.6108 19.1545 36.5213 18.9613 36.3423C18.771 36.1605 18.6758 35.9432 18.6758 35.6903C18.6758 35.4403 18.771 35.2259 18.9613 35.0469C19.1545 34.8651 19.386 34.7741 19.6559 34.7741C19.9258 34.7741 20.1559 34.8651 20.3462 35.0469C20.5394 35.2259 20.636 35.4403 20.636 35.6903C20.636 35.9432 20.5394 36.1605 20.3462 36.3423C20.1559 36.5213 19.9258 36.6108 19.6559 36.6108ZM23.8288 35.2727V44H22.0135V35.2727H23.8288ZM28.7646 37.4545V38.8182H24.8228V37.4545H28.7646ZM25.7177 35.8864H27.533V41.9886C27.533 42.1562 27.5586 42.2869 27.6097 42.3807C27.6609 42.4716 27.7319 42.5355 27.8228 42.5724C27.9165 42.6094 28.0245 42.6278 28.1467 42.6278C28.2319 42.6278 28.3171 42.6207 28.4023 42.6065C28.4876 42.5895 28.5529 42.5767 28.5984 42.5682L28.8839 43.919C28.793 43.9474 28.6651 43.9801 28.5004 44.017C28.3356 44.0568 28.1353 44.081 27.8995 44.0895C27.462 44.1065 27.0785 44.0483 26.7489 43.9148C26.4222 43.7812 26.168 43.5739 25.9862 43.2926C25.8043 43.0114 25.7148 42.6562 25.7177 42.2273V35.8864ZM32.8597 44.1278C32.1864 44.1278 31.6069 43.9915 31.1211 43.7188C30.6381 43.4432 30.266 43.054 30.0046 42.5511C29.7433 42.0455 29.6126 41.4474 29.6126 40.7571C29.6126 40.0838 29.7433 39.4929 30.0046 38.9844C30.266 38.4759 30.6339 38.0795 31.1083 37.7955C31.5856 37.5114 32.1452 37.3693 32.7873 37.3693C33.2191 37.3693 33.6211 37.4389 33.9933 37.5781C34.3683 37.7145 34.695 37.9205 34.9734 38.196C35.2546 38.4716 35.4734 38.8182 35.6296 39.2358C35.7859 39.6506 35.864 40.1364 35.864 40.6932V41.1918H30.337V40.0668H34.1552C34.1552 39.8054 34.0984 39.5739 33.9847 39.3722C33.8711 39.1705 33.7134 39.0128 33.5117 38.8991C33.3129 38.7827 33.0813 38.7244 32.8171 38.7244C32.5415 38.7244 32.2972 38.7884 32.0842 38.9162C31.8739 39.0412 31.7092 39.2102 31.5898 39.4233C31.4705 39.6335 31.4094 39.8679 31.4066 40.1264V41.196C31.4066 41.5199 31.4663 41.7997 31.5856 42.0355C31.7077 42.2713 31.8796 42.4531 32.1012 42.581C32.3228 42.7088 32.5856 42.7727 32.8896 42.7727C33.0913 42.7727 33.2759 42.7443 33.4435 42.6875C33.6112 42.6307 33.7546 42.5455 33.8739 42.4318C33.9933 42.3182 34.0842 42.179 34.1467 42.0142L35.8256 42.125C35.7404 42.5284 35.5657 42.8807 35.3015 43.1818C35.0401 43.4801 34.7021 43.7131 34.2873 43.8807C33.8754 44.0455 33.3995 44.1278 32.8597 44.1278ZM37.0487 44V37.4545H38.8086V38.5966H38.8768C38.9961 38.1903 39.1964 37.8835 39.4776 37.6761C39.7589 37.4659 40.0827 37.3608 40.4492 37.3608C40.5401 37.3608 40.6381 37.3665 40.7433 37.3778C40.8484 37.3892 40.9407 37.4048 41.0202 37.4247V39.0355C40.935 39.0099 40.8171 38.9872 40.6665 38.9673C40.516 38.9474 40.3782 38.9375 40.2532 38.9375C39.9862 38.9375 39.7475 38.9957 39.5373 39.1122C39.3299 39.2259 39.1651 39.3849 39.043 39.5895C38.9237 39.794 38.864 40.0298 38.864 40.2969V44H37.0487Z" fill="#8649E1"/>
<rect x="48" y="27" width="1" height="26" fill="#8649E1"/>
</svg>
