<svg width="100" height="100" viewBox="0 0 100 100" fill="none" xmlns="http://www.w3.org/2000/svg">
<rect width="100" height="100" fill="#F9F2FF"/>
<rect x="7.5" y="22.5" width="85" height="55" rx="3.5" fill="white" stroke="#8649E1"/>
<path d="M8 36H92V37H8V36Z" fill="#EDD9FF"/>
<path d="M81.1937 27.1937C80.9354 27.452 80.9354 27.8708 81.1937 28.1292L83.0646 30L81.1937 31.8708C80.9354 32.1292 80.9354 32.548 81.1937 32.8063C81.452 33.0646 81.8708 33.0646 82.1292 32.8063L84 30.9354L85.8708 32.8063C86.1292 33.0646 86.548 33.0646 86.8063 32.8063C87.0646 32.548 87.0646 32.1292 86.8063 31.8708L84.9354 30L86.8063 28.1292C87.0646 27.8708 87.0646 27.452 86.8063 27.1937C86.548 26.9354 86.1292 26.9354 85.8708 27.1937L84 29.0646L82.1292 27.1937C81.8708 26.9354 81.452 26.9354 81.1937 27.1937Z" fill="#C695FF"/>
<rect x="16" y="44" width="28" height="4" rx="2" fill="#EDD9FF"/>
<rect x="16" y="52" width="36" height="16" rx="2" fill="#EDD9FF"/>
<path fill-rule="evenodd" clip-rule="evenodd" d="M85.1317 44.7248C85.5598 45.0737 85.6241 45.7036 85.2752 46.1317L73.7435 60.2843L65.6906 55.7546L57.727 64.1867C57.3478 64.5882 56.7149 64.6063 56.3134 64.227C55.9119 63.8478 55.8938 63.2149 56.273 62.8134L65.3094 53.2455L73.2565 57.7157L83.7248 44.8684C84.0736 44.4402 84.7035 44.3759 85.1317 44.7248Z" fill="#EDD9FF"/>
</svg>
