<svg xmlns="http://www.w3.org/2000/svg" width="100" height="100" fill="none" viewBox="0 0 100 100">
  <path fill="#F9F2FF" d="M0 0h100v100H0z"/>
  <path fill="#fff" stroke="#8649E1" d="M4.5 17.5h91v63h-91v-63Z"/>
  <path fill="#DCB8FF" d="M5 30h90v1H5z"/>
  <rect width="32" height="4" x="12" y="22" fill="#DCB8FF" rx="2"/>
  <path fill="#C695FF" d="M86.194 21.194a.662.662 0 0 0 0 .935L88.064 24l-1.87 1.87a.662.662 0 0 0 .935.936L89 24.936l1.87 1.87a.662.662 0 0 0 .936-.935L89.936 24l1.87-1.87a.662.662 0 0 0-.935-.936L89 23.064l-1.87-1.87a.662.662 0 0 0-.936 0Z"/>
  <rect width="28" height="4" x="12" y="40" fill="#EDD9FF" rx="2"/>
  <rect width="36" height="16" x="12" y="48" fill="#EDD9FF" rx="2"/>
  <path fill="#EDD9FF" fill-rule="evenodd" d="M86.132 40.725a1 1 0 0 1 .143 1.407L74.743 56.284l-8.052-4.53-7.964 8.433a1 1 0 1 1-1.454-1.374l9.036-9.568 7.948 4.47 10.468-12.847a1 1 0 0 1 1.407-.143Z" clip-rule="evenodd"/>
</svg>
