<svg width="80" height="80" viewBox="0 0 80 80" fill="none" xmlns="http://www.w3.org/2000/svg">
<rect width="80" height="80" fill="#F9F2FF"/>
<path d="M3.5 7.5H76.5V70.5H3.5V7.5Z" fill="white" stroke="#8649E1"/>
<rect x="4" y="20" width="72" height="1" fill="#DCB8FF"/>
<rect x="11" y="12" width="32" height="4" rx="2" fill="#DCB8FF"/>
<path d="M65.1937 11.1937C64.9354 11.452 64.9354 11.8708 65.1937 12.1292L67.0646 14L65.1937 15.8708C64.9354 16.1292 64.9354 16.548 65.1937 16.8063C65.452 17.0646 65.8708 17.0646 66.1292 16.8063L68 14.9354L69.8708 16.8063C70.1292 17.0646 70.548 17.0646 70.8063 16.8063C71.0646 16.548 71.0646 16.1292 70.8063 15.8708L68.9354 14L70.8063 12.1292C71.0646 11.8708 71.0646 11.452 70.8063 11.1937C70.548 10.9354 70.1292 10.9354 69.8708 11.1937L68 13.0646L66.1292 11.1937C65.8708 10.9354 65.452 10.9354 65.1937 11.1937Z" fill="#C695FF"/>
<rect x="11" y="30" width="16" height="4" rx="2" fill="#EDD9FF"/>
<rect x="11" y="38" width="24" height="16" rx="2" fill="#EDD9FF"/>
<path fill-rule="evenodd" clip-rule="evenodd" d="M71.1317 30.7248C71.5598 31.0737 71.6241 31.7036 71.2752 32.1317L59.7435 46.2843L51.6906 41.7546L43.727 50.1867C43.3478 50.5882 42.7149 50.6063 42.3134 50.227C41.9119 49.8478 41.8938 49.2149 42.273 48.8134L51.3094 39.2455L59.2565 43.7157L69.7248 30.8684C70.0736 30.4402 70.7035 30.3759 71.1317 30.7248Z" fill="#EDD9FF"/>
</svg>
