<svg width="80" height="80" viewBox="0 0 80 80" fill="none" xmlns="http://www.w3.org/2000/svg">
<rect width="80" height="80" fill="white"/>
<path d="M6.75852 45V36.2727H12.6392V37.794H8.60369V39.8736H12.3366V41.3949H8.60369V43.4787H12.6562V45H6.75852ZM16.484 45.1065C15.9869 45.1065 15.5366 44.9787 15.1332 44.723C14.7326 44.4645 14.4144 44.0852 14.1786 43.5852C13.9457 43.0824 13.8292 42.4659 13.8292 41.7358C13.8292 40.9858 13.9499 40.3622 14.1914 39.8651C14.4329 39.3651 14.7539 38.9915 15.1545 38.7443C15.5579 38.4943 15.9996 38.3693 16.4798 38.3693C16.8462 38.3693 17.1516 38.4318 17.396 38.5568C17.6431 38.679 17.842 38.8324 17.9925 39.017C18.146 39.1989 18.2624 39.3778 18.342 39.554H18.3974V36.2727H20.2085V45H18.4187V43.9517H18.342C18.2567 44.1335 18.136 44.3139 17.9798 44.4929C17.8263 44.669 17.6261 44.8153 17.3789 44.9318C17.1346 45.0483 16.8363 45.1065 16.484 45.1065ZM17.0593 43.6619C17.3519 43.6619 17.5991 43.5824 17.8008 43.4233C18.0053 43.2614 18.1616 43.0355 18.2695 42.7457C18.3803 42.456 18.4357 42.1165 18.4357 41.7273C18.4357 41.3381 18.3817 41 18.2738 40.7131C18.1658 40.4261 18.0096 40.2045 17.805 40.0483C17.6005 39.892 17.3519 39.8139 17.0593 39.8139C16.761 39.8139 16.5096 39.8949 16.305 40.0568C16.1005 40.2187 15.9457 40.4432 15.8406 40.7301C15.7354 41.017 15.6829 41.3494 15.6829 41.7273C15.6829 42.108 15.7354 42.4446 15.8406 42.7372C15.9485 43.027 16.1033 43.2543 16.305 43.419C16.5096 43.581 16.761 43.6619 17.0593 43.6619ZM21.701 45V38.4545H23.5163V45H21.701ZM22.6129 37.6108C22.343 37.6108 22.1115 37.5213 21.9183 37.3423C21.728 37.1605 21.6328 36.9432 21.6328 36.6903C21.6328 36.4403 21.728 36.2259 21.9183 36.0469C22.1115 35.8651 22.343 35.7741 22.6129 35.7741C22.8828 35.7741 23.1129 35.8651 23.3033 36.0469C23.4964 36.2259 23.593 36.4403 23.593 36.6903C23.593 36.9432 23.4964 37.1605 23.3033 37.3423C23.1129 37.5213 22.8828 37.6108 22.6129 37.6108ZM28.4521 38.4545V39.8182H24.5103V38.4545H28.4521ZM25.4052 36.8864H27.2205V42.9886C27.2205 43.1562 27.2461 43.2869 27.2972 43.3807C27.3484 43.4716 27.4194 43.5355 27.5103 43.5724C27.604 43.6094 27.712 43.6278 27.8342 43.6278C27.9194 43.6278 28.0046 43.6207 28.0898 43.6065C28.1751 43.5895 28.2404 43.5767 28.2859 43.5682L28.5714 44.919C28.4805 44.9474 28.3526 44.9801 28.1879 45.017C28.0231 45.0568 27.8228 45.081 27.587 45.0895C27.1495 45.1065 26.766 45.0483 26.4364 44.9148C26.1097 44.7812 25.8555 44.5739 25.6737 44.2926C25.4918 44.0114 25.4023 43.6562 25.4052 43.2273V36.8864ZM35.8935 38.4545V39.8182H31.9517V38.4545H35.8935ZM32.8466 36.8864H34.6619V42.9886C34.6619 43.1562 34.6875 43.2869 34.7386 43.3807C34.7898 43.4716 34.8608 43.5355 34.9517 43.5724C35.0455 43.6094 35.1534 43.6278 35.2756 43.6278C35.3608 43.6278 35.446 43.6207 35.5312 43.6065C35.6165 43.5895 35.6818 43.5767 35.7273 43.5682L36.0128 44.919C35.9219 44.9474 35.794 44.9801 35.6293 45.017C35.4645 45.0568 35.2642 45.081 35.0284 45.0895C34.5909 45.1065 34.2074 45.0483 33.8778 44.9148C33.5511 44.7812 33.2969 44.5739 33.1151 44.2926C32.9332 44.0114 32.8438 43.6562 32.8466 43.2273V36.8864ZM39.9886 45.1278C39.3153 45.1278 38.7358 44.9915 38.25 44.7188C37.767 44.4432 37.3949 44.054 37.1335 43.5511C36.8722 43.0455 36.7415 42.4474 36.7415 41.7571C36.7415 41.0838 36.8722 40.4929 37.1335 39.9844C37.3949 39.4759 37.7628 39.0795 38.2372 38.7955C38.7145 38.5114 39.2741 38.3693 39.9162 38.3693C40.348 38.3693 40.75 38.4389 41.1222 38.5781C41.4972 38.7145 41.8239 38.9205 42.1023 39.196C42.3835 39.4716 42.6023 39.8182 42.7585 40.2358C42.9148 40.6506 42.9929 41.1364 42.9929 41.6932V42.1918H37.4659V41.0668H41.2841C41.2841 40.8054 41.2273 40.5739 41.1136 40.3722C41 40.1705 40.8423 40.0128 40.6406 39.8991C40.4418 39.7827 40.2102 39.7244 39.946 39.7244C39.6705 39.7244 39.4261 39.7884 39.2131 39.9162C39.0028 40.0412 38.8381 40.2102 38.7188 40.4233C38.5994 40.6335 38.5384 40.8679 38.5355 41.1264V42.196C38.5355 42.5199 38.5952 42.7997 38.7145 43.0355C38.8366 43.2713 39.0085 43.4531 39.2301 43.581C39.4517 43.7088 39.7145 43.7727 40.0185 43.7727C40.2202 43.7727 40.4048 43.7443 40.5724 43.6875C40.7401 43.6307 40.8835 43.5455 41.0028 43.4318C41.1222 43.3182 41.2131 43.179 41.2756 43.0142L42.9545 43.125C42.8693 43.5284 42.6946 43.8807 42.4304 44.1818C42.169 44.4801 41.831 44.7131 41.4162 44.8807C41.0043 45.0455 40.5284 45.1278 39.9886 45.1278ZM45.5774 38.4545L46.7791 40.7429L48.0107 38.4545H49.8729L47.9766 41.7273L49.924 45H48.0703L46.7791 42.7372L45.5092 45H43.6342L45.5774 41.7273L43.7024 38.4545H45.5774ZM54.4325 38.4545V39.8182H50.4908V38.4545H54.4325ZM51.3857 36.8864H53.201V42.9886C53.201 43.1562 53.2266 43.2869 53.2777 43.3807C53.3288 43.4716 53.3999 43.5355 53.4908 43.5724C53.5845 43.6094 53.6925 43.6278 53.8146 43.6278C53.8999 43.6278 53.9851 43.6207 54.0703 43.6065C54.1555 43.5895 54.2209 43.5767 54.2663 43.5682L54.5518 44.919C54.4609 44.9474 54.3331 44.9801 54.1683 45.017C54.0036 45.0568 53.8033 45.081 53.5675 45.0895C53.13 45.1065 52.7464 45.0483 52.4169 44.9148C52.0902 44.7812 51.8359 44.5739 51.6541 44.2926C51.4723 44.0114 51.3828 43.6562 51.3857 43.2273V36.8864Z" fill="#DCB8FF"/>
<path fill-rule="evenodd" clip-rule="evenodd" d="M68.8072 32.3687C69.2988 31.8771 70.0957 31.8771 70.5873 32.3687L73.6313 35.4127C74.1229 35.9042 74.1229 36.7012 73.6313 37.1927L63.8242 47H59V42.1758L68.8072 32.3687ZM69.6973 34.3267L67.7191 36.3049L69.6951 38.2809L71.6733 36.3027L69.6973 34.3267ZM61.0139 43.01L66.3049 37.7191L68.2809 39.6951L62.99 44.9861H61.0139V43.01Z" fill="#8649E1"/>
<path d="M68 45C67.4477 45 67 45.4477 67 46C67 46.5523 67.4477 47 68 47H72C72.5523 47 73 46.5523 73 46C73 45.4477 72.5523 45 72 45H68Z" fill="#8649E1"/>
</svg>
