<svg width="80" height="80" viewBox="0 0 80 80" fill="none" xmlns="http://www.w3.org/2000/svg">
<rect width="80" height="80" fill="white"/>
<path d="M6 50H74V52H6V50Z" fill="#DCB8FF"/>
<path d="M7.42614 37.794V36.2727H14.5938V37.794H11.9219V45H10.098V37.794H7.42614ZM17.7738 45.1278C17.1005 45.1278 16.521 44.9915 16.0352 44.7188C15.5522 44.4432 15.18 44.054 14.9187 43.5511C14.6573 43.0455 14.5266 42.4474 14.5266 41.7571C14.5266 41.0838 14.6573 40.4929 14.9187 39.9844C15.18 39.4759 15.5479 39.0795 16.0224 38.7955C16.4996 38.5114 17.0593 38.3693 17.7013 38.3693C18.1332 38.3693 18.5352 38.4389 18.9073 38.5781C19.2823 38.7145 19.609 38.9205 19.8874 39.196C20.1687 39.4716 20.3874 39.8182 20.5437 40.2358C20.6999 40.6506 20.7781 41.1364 20.7781 41.6932V42.1918H15.2511V41.0668H19.0692C19.0692 40.8054 19.0124 40.5739 18.8988 40.3722C18.7852 40.1705 18.6275 40.0128 18.4258 39.8991C18.2269 39.7827 17.9954 39.7244 17.7312 39.7244C17.4556 39.7244 17.2113 39.7884 16.9982 39.9162C16.788 40.0412 16.6232 40.2102 16.5039 40.4233C16.3846 40.6335 16.3235 40.8679 16.3207 41.1264V42.196C16.3207 42.5199 16.3803 42.7997 16.4996 43.0355C16.6218 43.2713 16.7937 43.4531 17.0153 43.581C17.2369 43.7088 17.4996 43.7727 17.8036 43.7727C18.0053 43.7727 18.19 43.7443 18.3576 43.6875C18.5252 43.6307 18.6687 43.5455 18.788 43.4318C18.9073 43.3182 18.9982 43.179 19.0607 43.0142L20.7397 43.125C20.6545 43.5284 20.4798 43.8807 20.2156 44.1818C19.9542 44.4801 19.6161 44.7131 19.2013 44.8807C18.7894 45.0455 18.3136 45.1278 17.7738 45.1278ZM23.3626 38.4545L24.5643 40.7429L25.7958 38.4545H27.658L25.7617 41.7273L27.7092 45H25.8555L24.5643 42.7372L23.2944 45H21.4194L23.3626 41.7273L21.4876 38.4545H23.3626ZM32.2177 38.4545V39.8182H28.2759V38.4545H32.2177ZM29.1708 36.8864H30.9862V42.9886C30.9862 43.1562 31.0117 43.2869 31.0629 43.3807C31.114 43.4716 31.185 43.5355 31.2759 43.5724C31.3697 43.6094 31.4776 43.6278 31.5998 43.6278C31.685 43.6278 31.7702 43.6207 31.8555 43.6065C31.9407 43.5895 32.006 43.5767 32.0515 43.5682L32.337 44.919C32.2461 44.9474 32.1183 44.9801 31.9535 45.017C31.7887 45.0568 31.5884 45.081 31.3526 45.0895C30.9151 45.1065 30.5316 45.0483 30.2021 44.9148C29.8754 44.7812 29.6211 44.5739 29.4393 44.2926C29.2575 44.0114 29.168 43.6562 29.1708 43.2273V36.8864Z" fill="#8649E1"/>
<path d="M60.319 37.3229C59.8885 37.7534 59.8885 38.4514 60.319 38.8819L63.4371 42L60.319 45.1181C59.8885 45.5486 59.8885 46.2466 60.319 46.6771C60.7495 47.1076 61.4475 47.1076 61.878 46.6771L64.9961 43.559L68.1142 46.6771C68.5447 47.1076 69.2427 47.1076 69.6732 46.6771C70.1037 46.2466 70.1037 45.5486 69.6732 45.1181L66.5551 42L69.6732 38.8819C70.1037 38.4514 70.1037 37.7534 69.6732 37.3229C69.2427 36.8924 68.5447 36.8924 68.1142 37.3229L64.9961 40.441L61.878 37.3229C61.4475 36.8924 60.7495 36.8924 60.319 37.3229Z" fill="#C695FF"/>
<path fill-rule="evenodd" clip-rule="evenodd" d="M53.7032 38.2929C54.0937 38.6834 54.0937 39.3166 53.7032 39.7071L47.7072 45.7072C47.3167 46.0977 46.6835 46.0977 46.293 45.7072L43.289 42.6994C42.8985 42.3089 42.8985 41.6757 43.289 41.2852C43.6795 40.8947 44.3127 40.8947 44.7032 41.2852L47.0001 43.5859L52.289 38.2929C52.6795 37.9024 53.3127 37.9024 53.7032 38.2929Z" fill="#8649E1"/>
</svg>
