<svg width="100" height="100" viewBox="0 0 100 100" fill="none" xmlns="http://www.w3.org/2000/svg">
<rect width="100" height="100" fill="white"/>
<path d="M16.7585 55V46.2727H22.6392V47.794H18.6037V49.8736H22.3366V51.3949H18.6037V53.4787H22.6562V55H16.7585ZM26.484 55.1065C25.9869 55.1065 25.5366 54.9787 25.1332 54.723C24.7326 54.4645 24.4144 54.0852 24.1786 53.5852C23.9457 53.0824 23.8292 52.4659 23.8292 51.7358C23.8292 50.9858 23.9499 50.3622 24.1914 49.8651C24.4329 49.3651 24.7539 48.9915 25.1545 48.7443C25.5579 48.4943 25.9996 48.3693 26.4798 48.3693C26.8462 48.3693 27.1516 48.4318 27.396 48.5568C27.6431 48.679 27.842 48.8324 27.9925 49.017C28.146 49.1989 28.2624 49.3778 28.342 49.554H28.3974V46.2727H30.2085V55H28.4187V53.9517H28.342C28.2567 54.1335 28.136 54.3139 27.9798 54.4929C27.8263 54.669 27.6261 54.8153 27.3789 54.9318C27.1346 55.0483 26.8363 55.1065 26.484 55.1065ZM27.0593 53.6619C27.3519 53.6619 27.5991 53.5824 27.8008 53.4233C28.0053 53.2614 28.1616 53.0355 28.2695 52.7457C28.3803 52.456 28.4357 52.1165 28.4357 51.7273C28.4357 51.3381 28.3817 51 28.2738 50.7131C28.1658 50.4261 28.0096 50.2045 27.805 50.0483C27.6005 49.892 27.3519 49.8139 27.0593 49.8139C26.761 49.8139 26.5096 49.8949 26.305 50.0568C26.1005 50.2187 25.9457 50.4432 25.8406 50.7301C25.7354 51.017 25.6829 51.3494 25.6829 51.7273C25.6829 52.108 25.7354 52.4446 25.8406 52.7372C25.9485 53.027 26.1033 53.2543 26.305 53.419C26.5096 53.581 26.761 53.6619 27.0593 53.6619ZM31.701 55V48.4545H33.5163V55H31.701ZM32.6129 47.6108C32.343 47.6108 32.1115 47.5213 31.9183 47.3423C31.728 47.1605 31.6328 46.9432 31.6328 46.6903C31.6328 46.4403 31.728 46.2259 31.9183 46.0469C32.1115 45.8651 32.343 45.7741 32.6129 45.7741C32.8828 45.7741 33.1129 45.8651 33.3033 46.0469C33.4964 46.2259 33.593 46.4403 33.593 46.6903C33.593 46.9432 33.4964 47.1605 33.3033 47.3423C33.1129 47.5213 32.8828 47.6108 32.6129 47.6108ZM38.4521 48.4545V49.8182H34.5103V48.4545H38.4521ZM35.4052 46.8864H37.2205V52.9886C37.2205 53.1562 37.2461 53.2869 37.2972 53.3807C37.3484 53.4716 37.4194 53.5355 37.5103 53.5724C37.604 53.6094 37.712 53.6278 37.8342 53.6278C37.9194 53.6278 38.0046 53.6207 38.0898 53.6065C38.1751 53.5895 38.2404 53.5767 38.2859 53.5682L38.5714 54.919C38.4805 54.9474 38.3526 54.9801 38.1879 55.017C38.0231 55.0568 37.8228 55.081 37.587 55.0895C37.1495 55.1065 36.766 55.0483 36.4364 54.9148C36.1097 54.7812 35.8555 54.5739 35.6737 54.2926C35.4918 54.0114 35.4023 53.6562 35.4052 53.2273V46.8864ZM45.8935 48.4545V49.8182H41.9517V48.4545H45.8935ZM42.8466 46.8864H44.6619V52.9886C44.6619 53.1562 44.6875 53.2869 44.7386 53.3807C44.7898 53.4716 44.8608 53.5355 44.9517 53.5724C45.0455 53.6094 45.1534 53.6278 45.2756 53.6278C45.3608 53.6278 45.446 53.6207 45.5312 53.6065C45.6165 53.5895 45.6818 53.5767 45.7273 53.5682L46.0128 54.919C45.9219 54.9474 45.794 54.9801 45.6293 55.017C45.4645 55.0568 45.2642 55.081 45.0284 55.0895C44.5909 55.1065 44.2074 55.0483 43.8778 54.9148C43.5511 54.7812 43.2969 54.5739 43.1151 54.2926C42.9332 54.0114 42.8438 53.6562 42.8466 53.2273V46.8864ZM49.9886 55.1278C49.3153 55.1278 48.7358 54.9915 48.25 54.7188C47.767 54.4432 47.3949 54.054 47.1335 53.5511C46.8722 53.0455 46.7415 52.4474 46.7415 51.7571C46.7415 51.0838 46.8722 50.4929 47.1335 49.9844C47.3949 49.4759 47.7628 49.0795 48.2372 48.7955C48.7145 48.5114 49.2741 48.3693 49.9162 48.3693C50.348 48.3693 50.75 48.4389 51.1222 48.5781C51.4972 48.7145 51.8239 48.9205 52.1023 49.196C52.3835 49.4716 52.6023 49.8182 52.7585 50.2358C52.9148 50.6506 52.9929 51.1364 52.9929 51.6932V52.1918H47.4659V51.0668H51.2841C51.2841 50.8054 51.2273 50.5739 51.1136 50.3722C51 50.1705 50.8423 50.0128 50.6406 49.8991C50.4418 49.7827 50.2102 49.7244 49.946 49.7244C49.6705 49.7244 49.4261 49.7884 49.2131 49.9162C49.0028 50.0412 48.8381 50.2102 48.7188 50.4233C48.5994 50.6335 48.5384 50.8679 48.5355 51.1264V52.196C48.5355 52.5199 48.5952 52.7997 48.7145 53.0355C48.8366 53.2713 49.0085 53.4531 49.2301 53.581C49.4517 53.7088 49.7145 53.7727 50.0185 53.7727C50.2202 53.7727 50.4048 53.7443 50.5724 53.6875C50.7401 53.6307 50.8835 53.5455 51.0028 53.4318C51.1222 53.3182 51.2131 53.179 51.2756 53.0142L52.9545 53.125C52.8693 53.5284 52.6946 53.8807 52.4304 54.1818C52.169 54.4801 51.831 54.7131 51.4162 54.8807C51.0043 55.0455 50.5284 55.1278 49.9886 55.1278ZM55.5774 48.4545L56.7791 50.7429L58.0107 48.4545H59.8729L57.9766 51.7273L59.924 55H58.0703L56.7791 52.7372L55.5092 55H53.6342L55.5774 51.7273L53.7024 48.4545H55.5774ZM64.4325 48.4545V49.8182H60.4908V48.4545H64.4325ZM61.3857 46.8864H63.201V52.9886C63.201 53.1562 63.2266 53.2869 63.2777 53.3807C63.3288 53.4716 63.3999 53.5355 63.4908 53.5724C63.5845 53.6094 63.6925 53.6278 63.8146 53.6278C63.8999 53.6278 63.9851 53.6207 64.0703 53.6065C64.1555 53.5895 64.2209 53.5767 64.2663 53.5682L64.5518 54.919C64.4609 54.9474 64.3331 54.9801 64.1683 55.017C64.0036 55.0568 63.8033 55.081 63.5675 55.0895C63.13 55.1065 62.7464 55.0483 62.4169 54.9148C62.0902 54.7812 61.8359 54.5739 61.6541 54.2926C61.4723 54.0114 61.3828 53.6562 61.3857 53.2273V46.8864Z" fill="#DCB8FF"/>
<path fill-rule="evenodd" clip-rule="evenodd" d="M78.8072 42.3687C79.2988 41.8771 80.0957 41.8771 80.5873 42.3687L83.6313 45.4127C84.1229 45.9042 84.1229 46.7012 83.6313 47.1927L73.8242 57H69V52.1758L78.8072 42.3687ZM79.6973 44.3267L77.7191 46.3049L79.6951 48.2809L81.6733 46.3027L79.6973 44.3267ZM71.0139 53.01L76.3049 47.7191L78.2809 49.6951L72.99 54.9861H71.0139V53.01Z" fill="#8649E1"/>
<path d="M78 55C77.4477 55 77 55.4477 77 56C77 56.5523 77.4477 57 78 57H82C82.5523 57 83 56.5523 83 56C83 55.4477 82.5523 55 82 55H78Z" fill="#8649E1"/>
</svg>
