<svg width="100" height="100" viewBox="0 0 100 100" fill="none" xmlns="http://www.w3.org/2000/svg">
<rect width="100" height="100" fill="white"/>
<path d="M10 60H90V62H10V60Z" fill="#DCB8FF"/>
<path d="M15.4261 47.794V46.2727H22.5938V47.794H19.9219V55H18.098V47.794H15.4261ZM25.7738 55.1278C25.1005 55.1278 24.521 54.9915 24.0352 54.7188C23.5522 54.4432 23.18 54.054 22.9187 53.5511C22.6573 53.0455 22.5266 52.4474 22.5266 51.7571C22.5266 51.0838 22.6573 50.4929 22.9187 49.9844C23.18 49.4759 23.5479 49.0795 24.0224 48.7955C24.4996 48.5114 25.0593 48.3693 25.7013 48.3693C26.1332 48.3693 26.5352 48.4389 26.9073 48.5781C27.2823 48.7145 27.609 48.9205 27.8874 49.196C28.1687 49.4716 28.3874 49.8182 28.5437 50.2358C28.6999 50.6506 28.7781 51.1364 28.7781 51.6932V52.1918H23.2511V51.0668H27.0692C27.0692 50.8054 27.0124 50.5739 26.8988 50.3722C26.7852 50.1705 26.6275 50.0128 26.4258 49.8991C26.2269 49.7827 25.9954 49.7244 25.7312 49.7244C25.4556 49.7244 25.2113 49.7884 24.9982 49.9162C24.788 50.0412 24.6232 50.2102 24.5039 50.4233C24.3846 50.6335 24.3235 50.8679 24.3207 51.1264V52.196C24.3207 52.5199 24.3803 52.7997 24.4996 53.0355C24.6218 53.2713 24.7937 53.4531 25.0153 53.581C25.2369 53.7088 25.4996 53.7727 25.8036 53.7727C26.0053 53.7727 26.19 53.7443 26.3576 53.6875C26.5252 53.6307 26.6687 53.5455 26.788 53.4318C26.9073 53.3182 26.9982 53.179 27.0607 53.0142L28.7397 53.125C28.6545 53.5284 28.4798 53.8807 28.2156 54.1818C27.9542 54.4801 27.6161 54.7131 27.2013 54.8807C26.7894 55.0455 26.3136 55.1278 25.7738 55.1278ZM31.3626 48.4545L32.5643 50.7429L33.7958 48.4545H35.658L33.7617 51.7273L35.7092 55H33.8555L32.5643 52.7372L31.2944 55H29.4194L31.3626 51.7273L29.4876 48.4545H31.3626ZM40.2177 48.4545V49.8182H36.2759V48.4545H40.2177ZM37.1708 46.8864H38.9862V52.9886C38.9862 53.1562 39.0117 53.2869 39.0629 53.3807C39.114 53.4716 39.185 53.5355 39.2759 53.5724C39.3697 53.6094 39.4776 53.6278 39.5998 53.6278C39.685 53.6278 39.7702 53.6207 39.8555 53.6065C39.9407 53.5895 40.006 53.5767 40.0515 53.5682L40.337 54.919C40.2461 54.9474 40.1183 54.9801 39.9535 55.017C39.7887 55.0568 39.5884 55.081 39.3526 55.0895C38.9151 55.1065 38.5316 55.0483 38.2021 54.9148C37.8754 54.7812 37.6211 54.5739 37.4393 54.2926C37.2575 54.0114 37.168 53.6562 37.1708 53.2273V46.8864Z" fill="#8649E1"/>
<path d="M76.3189 47.3229C75.8883 47.7534 75.8883 48.4514 76.3189 48.8819L79.4369 52L76.3189 55.1181C75.8883 55.5486 75.8883 56.2466 76.3189 56.6771C76.7494 57.1076 77.4474 57.1076 77.8779 56.6771L80.996 53.559L84.114 56.6771C84.5446 57.1076 85.2426 57.1076 85.6731 56.6771C86.1036 56.2466 86.1036 55.5486 85.6731 55.1181L82.555 52L85.6731 48.8819C86.1036 48.4514 86.1036 47.7534 85.6731 47.3229C85.2426 46.8924 84.5446 46.8924 84.114 47.3229L80.996 50.441L77.8779 47.3229C77.4474 46.8924 76.7494 46.8924 76.3189 47.3229Z" fill="#C695FF"/>
<path fill-rule="evenodd" clip-rule="evenodd" d="M69.7031 48.2929C70.0936 48.6834 70.0936 49.3166 69.7031 49.7071L63.7071 55.7072C63.3165 56.0977 62.6834 56.0977 62.2929 55.7072L59.2889 52.6994C58.8984 52.3089 58.8984 51.6757 59.2889 51.2852C59.6794 50.8947 60.3126 50.8947 60.7031 51.2852L63 53.5859L68.2888 48.2929C68.6794 47.9024 69.3125 47.9024 69.7031 48.2929Z" fill="#8649E1"/>
</svg>
