<svg width="100" height="100" viewBox="0 0 100 100" fill="none" xmlns="http://www.w3.org/2000/svg">
<rect width="100" height="100" fill="white"/>
<path d="M14 44.5H86C87.933 44.5 89.5 46.067 89.5 48V62C89.5 63.933 87.933 65.5 86 65.5H14C12.067 65.5 10.5 63.933 10.5 62V48C10.5 46.067 12.067 44.5 14 44.5Z" stroke="#8649E1"/>
<path d="M16.4261 51.794V50.2727H23.5938V51.794H20.9219V59H19.098V51.794H16.4261ZM26.7738 59.1278C26.1005 59.1278 25.521 58.9915 25.0352 58.7188C24.5522 58.4432 24.18 58.054 23.9187 57.5511C23.6573 57.0455 23.5266 56.4474 23.5266 55.7571C23.5266 55.0838 23.6573 54.4929 23.9187 53.9844C24.18 53.4759 24.5479 53.0795 25.0224 52.7955C25.4996 52.5114 26.0593 52.3693 26.7013 52.3693C27.1332 52.3693 27.5352 52.4389 27.9073 52.5781C28.2823 52.7145 28.609 52.9205 28.8874 53.196C29.1687 53.4716 29.3874 53.8182 29.5437 54.2358C29.6999 54.6506 29.7781 55.1364 29.7781 55.6932V56.1918H24.2511V55.0668H28.0692C28.0692 54.8054 28.0124 54.5739 27.8988 54.3722C27.7852 54.1705 27.6275 54.0128 27.4258 53.8991C27.2269 53.7827 26.9954 53.7244 26.7312 53.7244C26.4556 53.7244 26.2113 53.7884 25.9982 53.9162C25.788 54.0412 25.6232 54.2102 25.5039 54.4233C25.3846 54.6335 25.3235 54.8679 25.3207 55.1264V56.196C25.3207 56.5199 25.3803 56.7997 25.4996 57.0355C25.6218 57.2713 25.7937 57.4531 26.0153 57.581C26.2369 57.7088 26.4996 57.7727 26.8036 57.7727C27.0053 57.7727 27.19 57.7443 27.3576 57.6875C27.5252 57.6307 27.6687 57.5455 27.788 57.4318C27.9073 57.3182 27.9982 57.179 28.0607 57.0142L29.7397 57.125C29.6545 57.5284 29.4798 57.8807 29.2156 58.1818C28.9542 58.4801 28.6161 58.7131 28.2013 58.8807C27.7894 59.0455 27.3136 59.1278 26.7738 59.1278ZM32.3626 52.4545L33.5643 54.7429L34.7958 52.4545H36.658L34.7617 55.7273L36.7092 59H34.8555L33.5643 56.7372L32.2944 59H30.4194L32.3626 55.7273L30.4876 52.4545H32.3626ZM41.2177 52.4545V53.8182H37.2759V52.4545H41.2177ZM38.1708 50.8864H39.9862V56.9886C39.9862 57.1562 40.0117 57.2869 40.0629 57.3807C40.114 57.4716 40.185 57.5355 40.2759 57.5724C40.3697 57.6094 40.4776 57.6278 40.5998 57.6278C40.685 57.6278 40.7702 57.6207 40.8555 57.6065C40.9407 57.5895 41.006 57.5767 41.0515 57.5682L41.337 58.919C41.2461 58.9474 41.1183 58.9801 40.9535 59.017C40.7887 59.0568 40.5884 59.081 40.3526 59.0895C39.9151 59.1065 39.5316 59.0483 39.2021 58.9148C38.8754 58.7812 38.6211 58.5739 38.4393 58.2926C38.2575 58.0114 38.168 57.6562 38.1708 57.2273V50.8864Z" fill="#8649E1"/>
<rect x="10" y="36" width="40" height="6" rx="3" fill="#EDD9FF"/>
</svg>
