<svg width="80" height="80" viewBox="0 0 80 80" fill="none" xmlns="http://www.w3.org/2000/svg">
<rect width="80" height="80" fill="white"/>
<path d="M10 34.5H70C71.933 34.5 73.5 36.067 73.5 38V52C73.5 53.933 71.933 55.5 70 55.5H10C8.067 55.5 6.5 53.933 6.5 52V38C6.5 36.067 8.067 34.5 10 34.5Z" stroke="#8649E1"/>
<path d="M12.4261 41.794V40.2727H19.5938V41.794H16.9219V49H15.098V41.794H12.4261ZM22.7738 49.1278C22.1005 49.1278 21.521 48.9915 21.0352 48.7188C20.5522 48.4432 20.18 48.054 19.9187 47.5511C19.6573 47.0455 19.5266 46.4474 19.5266 45.7571C19.5266 45.0838 19.6573 44.4929 19.9187 43.9844C20.18 43.4759 20.5479 43.0795 21.0224 42.7955C21.4996 42.5114 22.0593 42.3693 22.7013 42.3693C23.1332 42.3693 23.5352 42.4389 23.9073 42.5781C24.2823 42.7145 24.609 42.9205 24.8874 43.196C25.1687 43.4716 25.3874 43.8182 25.5437 44.2358C25.6999 44.6506 25.7781 45.1364 25.7781 45.6932V46.1918H20.2511V45.0668H24.0692C24.0692 44.8054 24.0124 44.5739 23.8988 44.3722C23.7852 44.1705 23.6275 44.0128 23.4258 43.8991C23.2269 43.7827 22.9954 43.7244 22.7312 43.7244C22.4556 43.7244 22.2113 43.7884 21.9982 43.9162C21.788 44.0412 21.6232 44.2102 21.5039 44.4233C21.3846 44.6335 21.3235 44.8679 21.3207 45.1264V46.196C21.3207 46.5199 21.3803 46.7997 21.4996 47.0355C21.6218 47.2713 21.7937 47.4531 22.0153 47.581C22.2369 47.7088 22.4996 47.7727 22.8036 47.7727C23.0053 47.7727 23.19 47.7443 23.3576 47.6875C23.5252 47.6307 23.6687 47.5455 23.788 47.4318C23.9073 47.3182 23.9982 47.179 24.0607 47.0142L25.7397 47.125C25.6545 47.5284 25.4798 47.8807 25.2156 48.1818C24.9542 48.4801 24.6161 48.7131 24.2013 48.8807C23.7894 49.0455 23.3136 49.1278 22.7738 49.1278ZM28.3626 42.4545L29.5643 44.7429L30.7958 42.4545H32.658L30.7617 45.7273L32.7092 49H30.8555L29.5643 46.7372L28.2944 49H26.4194L28.3626 45.7273L26.4876 42.4545H28.3626ZM37.2177 42.4545V43.8182H33.2759V42.4545H37.2177ZM34.1708 40.8864H35.9862V46.9886C35.9862 47.1562 36.0117 47.2869 36.0629 47.3807C36.114 47.4716 36.185 47.5355 36.2759 47.5724C36.3697 47.6094 36.4776 47.6278 36.5998 47.6278C36.685 47.6278 36.7702 47.6207 36.8555 47.6065C36.9407 47.5895 37.006 47.5767 37.0515 47.5682L37.337 48.919C37.2461 48.9474 37.1183 48.9801 36.9535 49.017C36.7887 49.0568 36.5884 49.081 36.3526 49.0895C35.9151 49.1065 35.5316 49.0483 35.2021 48.9148C34.8754 48.7812 34.6211 48.5739 34.4393 48.2926C34.2575 48.0114 34.168 47.6562 34.1708 47.2273V40.8864Z" fill="#8649E1"/>
<rect x="6" y="26" width="40" height="6" rx="3" fill="#EDD9FF"/>
</svg>
