<svg width="80" height="80" viewBox="0 0 80 80" fill="none" xmlns="http://www.w3.org/2000/svg">
<rect width="80" height="80" fill="white"/>
<path d="M16 34.5H64C65.933 34.5 67.5 36.067 67.5 38V52C67.5 53.933 65.933 55.5 64 55.5H16C14.067 55.5 12.5 53.933 12.5 52V38C12.5 36.067 14.067 34.5 16 34.5Z" stroke="#8649E1"/>
<path d="M25.723 49V50.3764H19.9915V49H25.723ZM34.2191 49V50.3764H28.4876V49H34.2191ZM41.5178 39.8636L38.7053 50.3125H37.1413L39.9538 39.8636H41.5178ZM50.1683 49V50.3764H44.4368V49H50.1683ZM58.6644 49V50.3764H52.9329V49H58.6644Z" fill="#8649E1"/>
<rect x="12" y="26" width="40" height="6" rx="3" fill="#EDD9FF"/>
</svg>
