<svg width="100" height="100" viewBox="0 0 100 100" fill="none" xmlns="http://www.w3.org/2000/svg">
<rect width="100" height="100" fill="white"/>
<path d="M12 43.5H88C89.933 43.5 91.5 45.067 91.5 47V61C91.5 62.933 89.933 64.5 88 64.5H12C10.067 64.5 8.5 62.933 8.5 61V47C8.5 45.067 10.067 43.5 12 43.5Z" stroke="#8649E1"/>
<path d="M17.3153 57.6705V51.6364H18.8409V57.6705H17.3153ZM15.0611 55.4162V53.8906H21.0952V55.4162H15.0611ZM26.6605 50.2727V59H24.8153V52.0241H24.7642L22.7656 53.277V51.6406L24.9261 50.2727H26.6605ZM29.1523 54.6364C29.1523 53.5795 29.293 52.6065 29.5742 51.7173C29.8583 50.8281 30.2915 50.0043 30.8739 49.2457H32.6083C32.3867 49.527 32.1808 49.8707 31.9904 50.277C31.8001 50.6804 31.6339 51.1236 31.4918 51.6065C31.3498 52.0895 31.239 52.5895 31.1594 53.1065C31.0799 53.6207 31.0401 54.1307 31.0401 54.6364C31.0401 55.3097 31.1083 55.9901 31.2447 56.6776C31.3839 57.3622 31.5714 57.9986 31.8072 58.5866C32.0458 59.1747 32.3129 59.6562 32.6083 60.0312H30.8739C30.2915 59.2727 29.8583 58.4489 29.5742 57.5597C29.293 56.6705 29.1523 55.696 29.1523 54.6364ZM38.6605 59V60.3764H32.929V59H38.6605ZM47.1566 59V60.3764H41.4251V59H47.1566ZM55.6527 59V60.3764H49.9212V59H55.6527ZM59.4325 55.5014C59.4325 56.5611 59.2905 57.5355 59.0064 58.4247C58.7251 59.3139 58.2933 60.1378 57.7109 60.8963H55.9766C56.1982 60.6151 56.4041 60.2713 56.5945 59.8651C56.7848 59.4588 56.951 59.0156 57.093 58.5355C57.2351 58.0526 57.3459 57.5526 57.4254 57.0355C57.505 56.5185 57.5447 56.0071 57.5447 55.5014C57.5447 54.8281 57.4751 54.1491 57.3359 53.4645C57.1996 52.777 57.0121 52.1406 56.7734 51.5554C56.5376 50.9673 56.272 50.4858 55.9766 50.1108H57.7109C58.2933 50.8693 58.7251 51.6932 59.0064 52.5824C59.2905 53.4716 59.4325 54.4446 59.4325 55.5014ZM69.0589 59V60.3764H63.3274V59H69.0589ZM77.555 59V60.3764H71.8235V59H77.555ZM86.0511 59V60.3764H80.3196V59H86.0511Z" fill="#8649E1"/>
<rect x="8" y="35" width="40" height="6" rx="3" fill="#EDD9FF"/>
</svg>
