<svg width="100" height="100" viewBox="0 0 100 100" fill="none" xmlns="http://www.w3.org/2000/svg">
<rect width="100" height="100" fill="white"/>
<path d="M28 43.5H72C73.933 43.5 75.5 45.067 75.5 47V61C75.5 62.933 73.933 64.5 72 64.5H28C26.067 64.5 24.5 62.933 24.5 61V47C24.5 45.067 26.067 43.5 28 43.5Z" stroke="#8649E1"/>
<path d="M34.5043 49.2727V58H32.6591V51.0241H32.608L30.6094 52.277V50.6406L32.7699 49.2727H34.5043ZM39.8043 58.1193C39.168 58.1193 38.6012 58.0099 38.104 57.7912C37.6097 57.5696 37.2191 57.2656 36.9322 56.8793C36.6481 56.4901 36.5018 56.0412 36.4933 55.5327H38.3512C38.3626 55.7457 38.4322 55.9332 38.56 56.0952C38.6907 56.2543 38.864 56.3778 39.0799 56.4659C39.2958 56.554 39.5387 56.598 39.8086 56.598C40.0898 56.598 40.3384 56.5483 40.5543 56.4489C40.7702 56.3494 40.9393 56.2116 41.0614 56.0355C41.1836 55.8594 41.2447 55.6562 41.2447 55.4261C41.2447 55.1932 41.1793 54.9872 41.0487 54.8082C40.9208 54.6264 40.7362 54.4844 40.4947 54.3821C40.256 54.2798 39.9719 54.2287 39.6424 54.2287H38.8285V52.8736H39.6424C39.9208 52.8736 40.1665 52.8253 40.3796 52.7287C40.5955 52.6321 40.7631 52.4986 40.8825 52.3281C41.0018 52.1548 41.0614 51.9531 41.0614 51.723C41.0614 51.5043 41.0089 51.3125 40.9038 51.1477C40.8015 50.9801 40.6566 50.8494 40.4691 50.7557C40.2844 50.6619 40.0685 50.6151 39.8214 50.6151C39.5714 50.6151 39.3427 50.6605 39.1353 50.7514C38.9279 50.8395 38.7617 50.9659 38.6367 51.1307C38.5117 51.2955 38.445 51.4886 38.4364 51.7102H36.668C36.6765 51.2074 36.82 50.7642 37.0984 50.3807C37.3768 49.9972 37.7518 49.6974 38.2234 49.4815C38.6978 49.2628 39.2333 49.1534 39.8299 49.1534C40.4322 49.1534 40.9592 49.2628 41.4109 49.4815C41.8626 49.7003 42.2134 49.9957 42.4634 50.3679C42.7163 50.7372 42.8413 51.152 42.8384 51.6122C42.8413 52.1009 42.6893 52.5085 42.3825 52.8352C42.0785 53.1619 41.6822 53.3693 41.1935 53.4574V53.5256C41.8356 53.608 42.3242 53.831 42.6594 54.1946C42.9975 54.5554 43.1651 55.0071 43.1623 55.5497C43.1651 56.0469 43.0217 56.4886 42.7319 56.875C42.445 57.2614 42.0487 57.5653 41.543 57.7869C41.0373 58.0085 40.4577 58.1193 39.8043 58.1193Z" fill="#8649E1"/>
<rect x="24" y="35" width="40" height="6" rx="3" fill="#EDD9FF"/>
<path fill-rule="evenodd" clip-rule="evenodd" d="M60.2343 56.0344C60.5467 55.7219 61.0533 55.7219 61.3657 56.0344L64 58.6687L66.6343 56.0344C66.9467 55.7219 67.4533 55.7219 67.7657 56.0344C68.0781 56.3468 68.0781 56.8533 67.7657 57.1657L64.5657 60.3657C64.2533 60.6782 63.7467 60.6782 63.4343 60.3657L60.2343 57.1657C59.9219 56.8533 59.9219 56.3468 60.2343 56.0344Z" fill="#C695FF"/>
<path fill-rule="evenodd" clip-rule="evenodd" d="M67.7657 51.5657C67.4533 51.8781 66.9467 51.8781 66.6343 51.5657L64 48.9314L61.3657 51.5657C61.0533 51.8781 60.5467 51.8781 60.2343 51.5657C59.9219 51.2533 59.9219 50.7467 60.2343 50.4343L63.4343 47.2343C63.7467 46.9219 64.2533 46.9219 64.5657 47.2343L67.7657 50.4343C68.0781 50.7467 68.0781 51.2533 67.7657 51.5657Z" fill="#C695FF"/>
</svg>
