<svg width="80" height="80" viewBox="0 0 80 80" fill="none" xmlns="http://www.w3.org/2000/svg">
<rect width="80" height="80" fill="white"/>
<rect x="4.5" y="16.5" width="71" height="47" rx="3.5" stroke="#8649E1"/>
<rect x="10" y="22" width="32" height="12" rx="6" fill="#EDD9FF"/>
<rect x="46" y="22" width="20" height="12" rx="6" fill="#EDD9FF"/>
<rect x="10" y="38" width="44" height="12" rx="6" fill="#EDD9FF"/>
<path d="M33.1898 25.1937C32.9315 25.452 32.9315 25.8708 33.1898 26.1292L35.0607 28L33.1898 29.8708C32.9315 30.1292 32.9315 30.548 33.1898 30.8063C33.4481 31.0646 33.8669 31.0646 34.1252 30.8063L35.9961 28.9354L37.8669 30.8063C38.1252 31.0646 38.5441 31.0646 38.8024 30.8063C39.0607 30.548 39.0607 30.1292 38.8024 29.8708L36.9315 28L38.8024 26.1292C39.0607 25.8708 39.0607 25.452 38.8024 25.1937C38.5441 24.9354 38.1252 24.9354 37.8669 25.1937L35.9961 27.0646L34.1252 25.1937C33.8669 24.9354 33.4481 24.9354 33.1898 25.1937Z" fill="#C695FF"/>
<path d="M57.1898 25.1937C56.9315 25.452 56.9315 25.8708 57.1898 26.1292L59.0607 28L57.1898 29.8708C56.9315 30.1292 56.9315 30.548 57.1898 30.8063C57.4481 31.0646 57.8669 31.0646 58.1252 30.8063L59.9961 28.9354L61.8669 30.8063C62.1252 31.0646 62.5441 31.0646 62.8024 30.8063C63.0607 30.548 63.0607 30.1292 62.8024 29.8708L60.9315 28L62.8024 26.1292C63.0607 25.8708 63.0607 25.452 62.8024 25.1937C62.5441 24.9354 62.1252 24.9354 61.8669 25.1937L59.9961 27.0646L58.1252 25.1937C57.8669 24.9354 57.4481 24.9354 57.1898 25.1937Z" fill="#C695FF"/>
<path d="M45.1898 41.1937C44.9315 41.452 44.9315 41.8708 45.1898 42.1292L47.0607 44L45.1898 45.8708C44.9315 46.1292 44.9315 46.548 45.1898 46.8063C45.4481 47.0646 45.8669 47.0646 46.1252 46.8063L47.9961 44.9354L49.8669 46.8063C50.1252 47.0646 50.5441 47.0646 50.8024 46.8063C51.0607 46.548 51.0607 46.1292 50.8024 45.8708L48.9315 44L50.8024 42.1292C51.0607 41.8708 51.0607 41.452 50.8024 41.1937C50.5441 40.9354 50.1252 40.9354 49.8669 41.1937L47.9961 43.0646L46.1252 41.1937C45.8669 40.9354 45.4481 40.9354 45.1898 41.1937Z" fill="#C695FF"/>
</svg>
