<svg width="100" height="32" viewBox="0 0 100 32" fill="none" xmlns="http://www.w3.org/2000/svg">
<path fill-rule="evenodd" clip-rule="evenodd" d="M96 10H4C2.89543 10 2 10.8954 2 12V28C2 29.1046 2.89543 30 4 30H96C97.1046 30 98 29.1046 98 28V12C98 10.8954 97.1046 10 96 10ZM4 8C1.79086 8 0 9.79086 0 12V28C0 30.2091 1.79086 32 4 32H96C98.2091 32 100 30.2091 100 28V12C100 9.79086 98.2091 8 96 8H4Z" fill="#D1D4DB"/>
<path d="M14.5675 24H7.99005V25.4368H14.5675V24Z" fill="#898D9A"/>
<path d="M24.589 24H18.0115V25.4368H24.589V24Z" fill="#898D9A"/>
<path d="M33.1239 13.3409H31.5479L28.2667 25.5313H29.8427L33.1239 13.3409Z" fill="#898D9A"/>
<path d="M43.3878 24H36.8104V25.4368H43.3878V24Z" fill="#898D9A"/>
<path d="M53.4093 24H46.8318V25.4368H53.4093V24Z" fill="#898D9A"/>
<path d="M61.9442 13.3409H60.3682L57.087 25.5313H58.663L61.9442 13.3409Z" fill="#898D9A"/>
<path d="M72.2081 24H65.6307V25.4368H72.2081V24Z" fill="#898D9A"/>
<path d="M82.2296 24H75.6522V25.4368H82.2296V24Z" fill="#898D9A"/>
<rect width="48" height="4" rx="2" fill="#D1D4DB"/>
</svg>
