<svg width="100" height="100" viewBox="0 0 100 100" fill="none" xmlns="http://www.w3.org/2000/svg">
<rect width="100" height="100" fill="white"/>
<rect x="9.5" y="26.5" width="81" height="47" rx="3.5" stroke="#8649E1"/>
<rect x="15" y="32" width="32" height="12" rx="6" fill="#EDD9FF"/>
<rect x="51" y="32" width="20" height="12" rx="6" fill="#EDD9FF"/>
<rect x="63" y="48" width="23" height="12" rx="6" fill="#EDD9FF"/>
<rect x="15" y="48" width="44" height="12" rx="6" fill="#EDD9FF"/>
<path d="M38.1897 35.1937C37.9314 35.452 37.9314 35.8708 38.1897 36.1292L40.0605 38L38.1897 39.8708C37.9314 40.1292 37.9314 40.548 38.1897 40.8063C38.448 41.0646 38.8668 41.0646 39.1251 40.8063L40.996 38.9354L42.8668 40.8063C43.1251 41.0646 43.5439 41.0646 43.8022 40.8063C44.0605 40.548 44.0605 40.1292 43.8022 39.8708L41.9314 38L43.8022 36.1292C44.0605 35.8708 44.0605 35.452 43.8022 35.1937C43.5439 34.9354 43.1251 34.9354 42.8668 35.1937L40.996 37.0646L39.1251 35.1937C38.8668 34.9354 38.448 34.9354 38.1897 35.1937Z" fill="#C695FF"/>
<path d="M62.1897 35.1937C61.9314 35.452 61.9314 35.8708 62.1897 36.1292L64.0605 38L62.1897 39.8708C61.9314 40.1292 61.9314 40.548 62.1897 40.8063C62.448 41.0646 62.8668 41.0646 63.1251 40.8063L64.996 38.9354L66.8668 40.8063C67.1251 41.0646 67.5439 41.0646 67.8022 40.8063C68.0605 40.548 68.0605 40.1292 67.8022 39.8708L65.9314 38L67.8022 36.1292C68.0605 35.8708 68.0605 35.452 67.8022 35.1937C67.5439 34.9354 67.1251 34.9354 66.8668 35.1937L64.996 37.0646L63.1251 35.1937C62.8668 34.9354 62.448 34.9354 62.1897 35.1937Z" fill="#C695FF"/>
<path d="M77.1897 51.1937C76.9314 51.452 76.9314 51.8708 77.1897 52.1292L79.0605 54L77.1897 55.8708C76.9314 56.1292 76.9314 56.548 77.1897 56.8063C77.448 57.0646 77.8668 57.0646 78.1251 56.8063L79.996 54.9354L81.8668 56.8063C82.1251 57.0646 82.5439 57.0646 82.8022 56.8063C83.0605 56.548 83.0605 56.1292 82.8022 55.8708L80.9314 54L82.8022 52.1292C83.0605 51.8708 83.0605 51.452 82.8022 51.1937C82.5439 50.9354 82.1251 50.9354 81.8668 51.1937L79.996 53.0646L78.1251 51.1937C77.8668 50.9354 77.448 50.9354 77.1897 51.1937Z" fill="#C695FF"/>
<path d="M50.1897 51.1937C49.9314 51.452 49.9314 51.8708 50.1897 52.1292L52.0605 54L50.1897 55.8708C49.9314 56.1292 49.9314 56.548 50.1897 56.8063C50.448 57.0646 50.8668 57.0646 51.1251 56.8063L52.996 54.9354L54.8668 56.8063C55.1251 57.0646 55.5439 57.0646 55.8022 56.8063C56.0605 56.548 56.0605 56.1292 55.8022 55.8708L53.9314 54L55.8022 52.1292C56.0605 51.8708 56.0605 51.452 55.8022 51.1937C55.5439 50.9354 55.1251 50.9354 54.8668 51.1937L52.996 53.0646L51.1251 51.1937C50.8668 50.9354 50.448 50.9354 50.1897 51.1937Z" fill="#C695FF"/>
</svg>
