<svg width="80" height="80" viewBox="0 0 80 80" fill="none" xmlns="http://www.w3.org/2000/svg">
<rect width="80" height="80" fill="white"/>
<path d="M8 33.5H72C73.933 33.5 75.5 35.067 75.5 37V51C75.5 52.933 73.933 54.5 72 54.5H8C6.06701 54.5 4.5 52.933 4.5 51V37C4.5 35.067 6.067 33.5 8 33.5Z" stroke="#8649E1"/>
<path d="M13.3153 47.6705V41.6364H14.8409V47.6705H13.3153ZM11.0611 45.4162V43.8906H17.0952V45.4162H11.0611ZM22.6605 40.2727V49H20.8153V42.0241H20.7642L18.7656 43.277V41.6406L20.9261 40.2727H22.6605ZM25.1523 44.6364C25.1523 43.5795 25.293 42.6065 25.5742 41.7173C25.8583 40.8281 26.2915 40.0043 26.8739 39.2457H28.6083C28.3867 39.527 28.1808 39.8707 27.9904 40.277C27.8001 40.6804 27.6339 41.1236 27.4918 41.6065C27.3498 42.0895 27.239 42.5895 27.1594 43.1065C27.0799 43.6207 27.0401 44.1307 27.0401 44.6364C27.0401 45.3097 27.1083 45.9901 27.2447 46.6776C27.3839 47.3622 27.5714 47.9986 27.8072 48.5866C28.0458 49.1747 28.3129 49.6562 28.6083 50.0312H26.8739C26.2915 49.2727 25.8583 48.4489 25.5742 47.5597C25.293 46.6705 25.1523 45.696 25.1523 44.6364ZM34.6605 49V50.3764H28.929V49H34.6605ZM43.1566 49V50.3764H37.4251V49H43.1566ZM51.6527 49V50.3764H45.9212V49H51.6527ZM55.4325 45.5014C55.4325 46.5611 55.2905 47.5355 55.0064 48.4247C54.7251 49.3139 54.2933 50.1378 53.7109 50.8963H51.9766C52.1982 50.6151 52.4041 50.2713 52.5945 49.8651C52.7848 49.4588 52.951 49.0156 53.093 48.5355C53.2351 48.0526 53.3459 47.5526 53.4254 47.0355C53.505 46.5185 53.5447 46.0071 53.5447 45.5014C53.5447 44.8281 53.4751 44.1491 53.3359 43.4645C53.1996 42.777 53.0121 42.1406 52.7734 41.5554C52.5376 40.9673 52.272 40.4858 51.9766 40.1108H53.7109C54.2933 40.8693 54.7251 41.6932 55.0064 42.5824C55.2905 43.4716 55.4325 44.4446 55.4325 45.5014ZM61.1214 49.1108C60.8402 49.1108 60.5987 49.0114 60.397 48.8125C60.1982 48.6108 60.0987 48.3693 60.0987 48.0881C60.0987 47.8097 60.1982 47.571 60.397 47.3722C60.5987 47.1733 60.8402 47.0739 61.1214 47.0739C61.3942 47.0739 61.6328 47.1733 61.8374 47.3722C62.0419 47.571 62.1442 47.8097 62.1442 48.0881C62.1442 48.2756 62.0959 48.4474 61.9993 48.6037C61.9055 48.7571 61.782 48.8807 61.6286 48.9744C61.4751 49.0653 61.3061 49.1108 61.1214 49.1108ZM64.6957 49.1108C64.4144 49.1108 64.1729 49.0114 63.9712 48.8125C63.7724 48.6108 63.6729 48.3693 63.6729 48.0881C63.6729 47.8097 63.7724 47.571 63.9712 47.3722C64.1729 47.1733 64.4144 47.0739 64.6957 47.0739C64.9684 47.0739 65.207 47.1733 65.4116 47.3722C65.6161 47.571 65.7184 47.8097 65.7184 48.0881C65.7184 48.2756 65.6701 48.4474 65.5735 48.6037C65.4798 48.7571 65.3562 48.8807 65.2028 48.9744C65.0494 49.0653 64.8803 49.1108 64.6957 49.1108ZM68.2699 49.1108C67.9886 49.1108 67.7472 49.0114 67.5455 48.8125C67.3466 48.6108 67.2472 48.3693 67.2472 48.0881C67.2472 47.8097 67.3466 47.571 67.5455 47.3722C67.7472 47.1733 67.9886 47.0739 68.2699 47.0739C68.5426 47.0739 68.7813 47.1733 68.9858 47.3722C69.1903 47.571 69.2926 47.8097 69.2926 48.0881C69.2926 48.2756 69.2443 48.4474 69.1477 48.6037C69.054 48.7571 68.9304 48.8807 68.777 48.9744C68.6236 49.0653 68.4545 49.1108 68.2699 49.1108Z" fill="#8649E1"/>
<rect x="4" y="25" width="40" height="6" rx="3" fill="#EDD9FF"/>
</svg>
