<svg width="80" height="80" viewBox="0 0 80 80" fill="none" xmlns="http://www.w3.org/2000/svg">
<rect width="80" height="80" fill="white"/>
<path d="M14.5 37C14.5 35.067 16.067 33.5 18 33.5H62C63.933 33.5 65.5 35.067 65.5 37V51C65.5 52.933 63.933 54.5 62 54.5H18C16.067 54.5 14.5 52.933 14.5 51V37Z" stroke="#8649E1"/>
<path d="M24.5043 39.2727V48H22.6591V41.0241H22.608L20.6094 42.277V40.6406L22.7699 39.2727H24.5043ZM29.8043 48.1193C29.168 48.1193 28.6012 48.0099 28.104 47.7912C27.6097 47.5696 27.2191 47.2656 26.9322 46.8793C26.6481 46.4901 26.5018 46.0412 26.4933 45.5327H28.3512C28.3626 45.7457 28.4322 45.9332 28.56 46.0952C28.6907 46.2543 28.864 46.3778 29.0799 46.4659C29.2958 46.554 29.5387 46.598 29.8086 46.598C30.0898 46.598 30.3384 46.5483 30.5543 46.4489C30.7702 46.3494 30.9393 46.2116 31.0614 46.0355C31.1836 45.8594 31.2447 45.6562 31.2447 45.4261C31.2447 45.1932 31.1793 44.9872 31.0487 44.8082C30.9208 44.6264 30.7362 44.4844 30.4947 44.3821C30.256 44.2798 29.9719 44.2287 29.6424 44.2287H28.8285V42.8736H29.6424C29.9208 42.8736 30.1665 42.8253 30.3796 42.7287C30.5955 42.6321 30.7631 42.4986 30.8825 42.3281C31.0018 42.1548 31.0614 41.9531 31.0614 41.723C31.0614 41.5043 31.0089 41.3125 30.9038 41.1477C30.8015 40.9801 30.6566 40.8494 30.4691 40.7557C30.2844 40.6619 30.0685 40.6151 29.8214 40.6151C29.5714 40.6151 29.3427 40.6605 29.1353 40.7514C28.9279 40.8395 28.7617 40.9659 28.6367 41.1307C28.5117 41.2955 28.445 41.4886 28.4364 41.7102H26.668C26.6765 41.2074 26.82 40.7642 27.0984 40.3807C27.3768 39.9972 27.7518 39.6974 28.2234 39.4815C28.6978 39.2628 29.2333 39.1534 29.8299 39.1534C30.4322 39.1534 30.9592 39.2628 31.4109 39.4815C31.8626 39.7003 32.2134 39.9957 32.4634 40.3679C32.7163 40.7372 32.8413 41.152 32.8384 41.6122C32.8413 42.1009 32.6893 42.5085 32.3825 42.8352C32.0785 43.1619 31.6822 43.3693 31.1935 43.4574V43.5256C31.8356 43.608 32.3242 43.831 32.6594 44.1946C32.9975 44.5554 33.1651 45.0071 33.1623 45.5497C33.1651 46.0469 33.0217 46.4886 32.7319 46.875C32.445 47.2614 32.0487 47.5653 31.543 47.7869C31.0373 48.0085 30.4577 48.1193 29.8043 48.1193Z" fill="#8649E1"/>
<rect x="14" y="25" width="40" height="6" rx="3" fill="#EDD9FF"/>
<path fill-rule="evenodd" clip-rule="evenodd" d="M50.2343 46.0344C50.5467 45.7219 51.0533 45.7219 51.3657 46.0344L54 48.6687L56.6343 46.0344C56.9467 45.7219 57.4533 45.7219 57.7657 46.0344C58.0781 46.3468 58.0781 46.8533 57.7657 47.1657L54.5657 50.3657C54.2533 50.6782 53.7467 50.6782 53.4343 50.3657L50.2343 47.1657C49.9219 46.8533 49.9219 46.3468 50.2343 46.0344Z" fill="#C695FF"/>
<path fill-rule="evenodd" clip-rule="evenodd" d="M57.7657 41.5657C57.4533 41.8781 56.9467 41.8781 56.6343 41.5657L54 38.9314L51.3657 41.5657C51.0533 41.8781 50.5467 41.8781 50.2343 41.5657C49.9219 41.2533 49.9219 40.7467 50.2343 40.4343L53.4343 37.2343C53.7467 36.9219 54.2533 36.9219 54.5657 37.2343L57.7657 40.4343C58.0781 40.7467 58.0781 41.2533 57.7657 41.5657Z" fill="#C695FF"/>
</svg>
