<svg width="100" height="100" viewBox="0 0 100 100" fill="none" xmlns="http://www.w3.org/2000/svg">
<rect width="100" height="100" fill="white"/>
<path d="M14 44.5H86C87.933 44.5 89.5 46.067 89.5 48V62C89.5 63.933 87.933 65.5 86 65.5H14C12.067 65.5 10.5 63.933 10.5 62V48C10.5 46.067 12.067 44.5 14 44.5Z" stroke="#8649E1"/>
<path d="M23.723 59V60.3764H17.9915V59H23.723ZM32.2191 59V60.3764H26.4876V59H32.2191ZM39.5178 49.8636L36.7053 60.3125H35.1413L37.9538 49.8636H39.5178ZM48.1683 59V60.3764H42.4368V59H48.1683ZM56.6644 59V60.3764H50.9329V59H56.6644ZM63.9631 49.8636L61.1506 60.3125H59.5866L62.3991 49.8636H63.9631ZM72.6136 59V60.3764H66.8821V59H72.6136ZM81.1097 59V60.3764H75.3782V59H81.1097Z" fill="#8649E1"/>
<rect x="10" y="36" width="40" height="6" rx="3" fill="#EDD9FF"/>
</svg>
