<svg width="100" height="100" viewBox="0 0 100 100" fill="none" xmlns="http://www.w3.org/2000/svg">
<rect width="100" height="100" fill="white"/>
<path d="M27.8849 56V45.8182H30.0376V54.2251H34.4027V56H27.8849ZM35.7885 56V48.3636H37.9064V56H35.7885ZM36.8525 47.3793C36.5376 47.3793 36.2675 47.2749 36.0421 47.0661C35.82 46.8539 35.709 46.6004 35.709 46.3054C35.709 46.0137 35.82 45.7635 36.0421 45.5547C36.2675 45.3426 36.5376 45.2365 36.8525 45.2365C37.1673 45.2365 37.4358 45.3426 37.6578 45.5547C37.8832 45.7635 37.9959 46.0137 37.9959 46.3054C37.9959 46.6004 37.8832 46.8539 37.6578 47.0661C37.4358 47.2749 37.1673 47.3793 36.8525 47.3793ZM41.7209 51.5852V56H39.603V48.3636H41.6214V49.7109H41.7109C41.88 49.2668 42.1634 48.9155 42.5611 48.657C42.9588 48.3951 43.4411 48.2642 44.0078 48.2642C44.5381 48.2642 45.0005 48.3802 45.3949 48.6122C45.7893 48.8442 46.0959 49.1757 46.3146 49.6065C46.5334 50.0341 46.6428 50.5445 46.6428 51.1378V56H44.5249V51.5156C44.5282 51.0483 44.4089 50.6837 44.1669 50.4219C43.925 50.1567 43.5919 50.0241 43.1676 50.0241C42.8826 50.0241 42.6307 50.0855 42.4119 50.2081C42.1965 50.3307 42.0275 50.5097 41.9048 50.745C41.7855 50.977 41.7242 51.2571 41.7209 51.5852ZM50.231 53.8026L50.236 51.2621H50.5442L52.9902 48.3636H55.4213L52.1351 52.2017H51.633L50.231 53.8026ZM48.312 56V45.8182H50.4299V56H48.312ZM53.0847 56L50.8375 52.674L52.2495 51.1776L55.5655 56H53.0847Z" fill="#8649E1"/>
<path d="M73.3884 43.0787C73.2686 43.028 73.1368 43 72.9986 43L68.7501 43C68.1971 43 67.7487 43.4483 67.7487 44.0014C67.7487 44.5545 68.1971 45.0028 68.7501 45.0028H70.5809L64.297 51.2909C63.9059 51.6819 63.9059 52.316 64.297 52.7071C64.688 53.0982 65.3221 53.0982 65.7132 52.7071L71.9972 46.419V48.2498C71.9972 48.8029 72.4455 49.2513 72.9986 49.2513C73.5516 49.2513 74 48.8029 74 48.2498V44.0014C74 43.7636 73.9171 43.5451 73.7786 43.3734C73.6756 43.2455 73.5417 43.1436 73.3884 43.0787Z" fill="#DCB8FF"/>
<path d="M60 47C60 46.4477 60.4477 46 61 46H65V48H62V55H69V52H71V56C71 56.5523 70.5523 57 70 57H61C60.4477 57 60 56.5523 60 56V47Z" fill="#DCB8FF"/>
</svg>
