<svg width="80" height="80" viewBox="0 0 80 80" fill="none" xmlns="http://www.w3.org/2000/svg">
<rect width="80" height="80" fill="white"/>
<path d="M17.8849 46V35.8182H20.0376V44.2251H24.4027V46H17.8849ZM25.7885 46V38.3636H27.9064V46H25.7885ZM26.8525 37.3793C26.5376 37.3793 26.2675 37.2749 26.0421 37.0661C25.82 36.8539 25.709 36.6004 25.709 36.3054C25.709 36.0137 25.82 35.7635 26.0421 35.5547C26.2675 35.3426 26.5376 35.2365 26.8525 35.2365C27.1673 35.2365 27.4358 35.3426 27.6578 35.5547C27.8832 35.7635 27.9959 36.0137 27.9959 36.3054C27.9959 36.6004 27.8832 36.8539 27.6578 37.0661C27.4358 37.2749 27.1673 37.3793 26.8525 37.3793ZM31.7209 41.5852V46H29.603V38.3636H31.6214V39.7109H31.7109C31.88 39.2668 32.1634 38.9155 32.5611 38.657C32.9588 38.3951 33.4411 38.2642 34.0078 38.2642C34.5381 38.2642 35.0005 38.3802 35.3949 38.6122C35.7893 38.8442 36.0959 39.1757 36.3146 39.6065C36.5334 40.0341 36.6428 40.5445 36.6428 41.1378V46H34.5249V41.5156C34.5282 41.0483 34.4089 40.6837 34.1669 40.4219C33.925 40.1567 33.5919 40.0241 33.1676 40.0241C32.8826 40.0241 32.6307 40.0855 32.4119 40.2081C32.1965 40.3307 32.0275 40.5097 31.9048 40.745C31.7855 40.977 31.7242 41.2571 31.7209 41.5852ZM40.231 43.8026L40.236 41.2621H40.5442L42.9902 38.3636H45.4213L42.1351 42.2017H41.633L40.231 43.8026ZM38.312 46V35.8182H40.4299V46H38.312ZM43.0847 46L40.8375 42.674L42.2495 41.1776L45.5655 46H43.0847Z" fill="#8649E1"/>
<path d="M63.3884 33.0787C63.2686 33.028 63.1368 33 62.9986 33L58.7501 33C58.1971 33 57.7487 33.4483 57.7487 34.0014C57.7487 34.5545 58.1971 35.0028 58.7501 35.0028H60.5809L54.297 41.2909C53.9059 41.6819 53.9059 42.316 54.297 42.7071C54.688 43.0982 55.3221 43.0982 55.7132 42.7071L61.9972 36.419V38.2498C61.9972 38.8029 62.4455 39.2513 62.9986 39.2513C63.5516 39.2513 64 38.8029 64 38.2498V34.0014C64 33.7636 63.9171 33.5451 63.7786 33.3734C63.6756 33.2455 63.5417 33.1436 63.3884 33.0787Z" fill="#DCB8FF"/>
<path d="M50 37C50 36.4477 50.4477 36 51 36H55V38H52V45H59V42H61V46C61 46.5523 60.5523 47 60 47H51C50.4477 47 50 46.5523 50 46V37Z" fill="#DCB8FF"/>
</svg>
