<svg width="100" height="100" viewBox="0 0 100 100" fill="none" xmlns="http://www.w3.org/2000/svg">
<rect width="100" height="100" fill="#F9F2FF"/>
<rect x="13.5" y="22.5" width="73" height="55" rx="3.5" fill="white" stroke="#8649E1"/>
<path d="M75.1937 27.1937C74.9354 27.452 74.9354 27.8708 75.1937 28.1292L77.0646 30L75.1937 31.8708C74.9354 32.1292 74.9354 32.548 75.1937 32.8063C75.452 33.0646 75.8708 33.0646 76.1292 32.8063L78 30.9354L79.8708 32.8063C80.1292 33.0646 80.548 33.0646 80.8063 32.8063C81.0646 32.548 81.0646 32.1292 80.8063 31.8708L78.9354 30L80.8063 28.1292C81.0646 27.8708 81.0646 27.452 80.8063 27.1937C80.548 26.9354 80.1292 26.9354 79.8708 27.1937L78 29.0646L76.1292 27.1937C75.8708 26.9354 75.452 26.9354 75.1937 27.1937Z" fill="#C695FF"/>
<rect x="21" y="27" width="44" height="6" rx="3" fill="#EDD9FF"/>
<rect x="21" y="43" width="30" height="6" rx="3" fill="#EDD9FF"/>
<rect x="21" y="52" width="49" height="6" rx="3" fill="#EDD9FF"/>
<rect x="21" y="62" width="38" height="6" rx="3" fill="#EDD9FF"/>
</svg>
