<svg width="80" height="80" viewBox="0 0 80 80" fill="none" xmlns="http://www.w3.org/2000/svg">
<rect width="80" height="80" fill="#F9F2FF"/>
<rect x="4.5" y="12.5" width="71" height="55" rx="3.5" fill="white" stroke="#8649E1"/>
<path d="M64.1937 17.1937C63.9354 17.452 63.9354 17.8708 64.1937 18.1292L66.0646 20L64.1937 21.8708C63.9354 22.1292 63.9354 22.548 64.1937 22.8063C64.452 23.0646 64.8708 23.0646 65.1292 22.8063L67 20.9354L68.8708 22.8063C69.1292 23.0646 69.548 23.0646 69.8063 22.8063C70.0646 22.548 70.0646 22.1292 69.8063 21.8708L67.9354 20L69.8063 18.1292C70.0646 17.8708 70.0646 17.452 69.8063 17.1937C69.548 16.9354 69.1292 16.9354 68.8708 17.1937L67 19.0646L65.1292 17.1937C64.8708 16.9354 64.452 16.9354 64.1937 17.1937Z" fill="#C695FF"/>
<rect x="12" y="17" width="44" height="6" rx="3" fill="#EDD9FF"/>
<rect x="12" y="33" width="30" height="6" rx="3" fill="#EDD9FF"/>
<rect x="12" y="42" width="49" height="6" rx="3" fill="#EDD9FF"/>
<rect x="12" y="52" width="38" height="6" rx="3" fill="#EDD9FF"/>
</svg>
