<svg width="80" height="80" viewBox="0 0 80 80" fill="none" xmlns="http://www.w3.org/2000/svg">
<rect width="80" height="80" fill="white"/>
<rect x="8" y="29" width="64" height="22" rx="4" fill="#EDD9FF"/>
<path d="M62.1937 33.1937C61.9354 33.452 61.9354 33.8708 62.1937 34.1292L64.0646 36L62.1937 37.8708C61.9354 38.1292 61.9354 38.548 62.1937 38.8063C62.452 39.0646 62.8708 39.0646 63.1292 38.8063L65 36.9354L66.8708 38.8063C67.1292 39.0646 67.548 39.0646 67.8063 38.8063C68.0646 38.548 68.0646 38.1292 67.8063 37.8708L65.9354 36L67.8063 34.1292C68.0646 33.8708 68.0646 33.452 67.8063 33.1937C67.548 32.9354 67.1292 32.9354 66.8708 33.1937L65 35.0646L63.1292 33.1937C62.8708 32.9354 62.452 32.9354 62.1937 33.1937Z" fill="#AB6CFE"/>
<path d="M29.5774 37.8189C29.549 37.5324 29.4271 37.3099 29.2116 37.1513C28.9962 36.9927 28.7038 36.9134 28.3345 36.9134C28.0836 36.9134 27.8717 36.9489 27.6989 37.0199C27.526 37.0885 27.3935 37.1844 27.3011 37.3075C27.2112 37.4306 27.1662 37.5703 27.1662 37.7266C27.1615 37.8568 27.1887 37.9704 27.2479 38.0675C27.3094 38.1645 27.3935 38.2486 27.5 38.3196C27.6065 38.3883 27.7296 38.4486 27.8693 38.5007C28.009 38.5504 28.1581 38.593 28.3168 38.6286L28.9702 38.7848C29.2874 38.8558 29.5786 38.9505 29.8438 39.0689C30.1089 39.1873 30.3385 39.3329 30.5327 39.5057C30.7268 39.6785 30.8771 39.8821 30.9837 40.1165C31.0926 40.3509 31.1482 40.6196 31.1506 40.9226C31.1482 41.3677 31.0346 41.7536 30.8097 42.0803C30.5871 42.4046 30.2652 42.6567 29.8438 42.8366C29.4247 43.0142 28.9193 43.103 28.3274 43.103C27.7403 43.103 27.2289 43.013 26.7933 42.8331C26.3601 42.6532 26.0215 42.3868 25.7777 42.0341C25.5362 41.679 25.4096 41.2398 25.3977 40.7166H26.8857C26.9022 40.9605 26.9721 41.1641 27.0952 41.3274C27.2206 41.4884 27.3875 41.6103 27.5959 41.6932C27.8066 41.7737 28.0445 41.8139 28.3097 41.8139C28.5701 41.8139 28.7962 41.776 28.9879 41.7003C29.1821 41.6245 29.3324 41.5192 29.4389 41.3842C29.5455 41.2493 29.5987 41.0942 29.5987 40.919C29.5987 40.7557 29.5502 40.6184 29.4531 40.5071C29.3584 40.3958 29.2188 40.3011 29.0341 40.223C28.8518 40.1449 28.6281 40.0739 28.3629 40.0099L27.571 39.8111C26.9579 39.6619 26.4737 39.4287 26.1186 39.1115C25.7635 38.7943 25.5871 38.367 25.5895 37.8295C25.5871 37.3892 25.7043 37.0045 25.9411 36.6754C26.1802 36.3464 26.508 36.0895 26.9247 35.9048C27.3414 35.7202 27.8149 35.6278 28.3452 35.6278C28.8849 35.6278 29.3561 35.7202 29.7585 35.9048C30.1634 36.0895 30.4782 36.3464 30.7031 36.6754C30.928 37.0045 31.044 37.3857 31.0511 37.8189H29.5774ZM33.7118 43.103C33.3638 43.103 33.0537 43.0426 32.7814 42.9219C32.5092 42.7988 32.2937 42.6177 32.1351 42.3786C31.9789 42.1371 31.9007 41.8364 31.9007 41.4766C31.9007 41.1735 31.9564 40.919 32.0676 40.7131C32.1789 40.5071 32.3304 40.3414 32.5222 40.2159C32.714 40.0904 32.9318 39.9957 33.1756 39.9318C33.4218 39.8679 33.6799 39.8229 33.9498 39.7969C34.267 39.7637 34.5227 39.733 34.7168 39.7045C34.9109 39.6738 35.0518 39.6288 35.1394 39.5696C35.227 39.5104 35.2708 39.4228 35.2708 39.3068V39.2855C35.2708 39.0606 35.1998 38.8866 35.0577 38.7635C34.918 38.6404 34.7192 38.5788 34.4611 38.5788C34.1889 38.5788 33.9722 38.6392 33.8113 38.7599C33.6503 38.8783 33.5437 39.0275 33.4917 39.2074L32.0925 39.0938C32.1635 38.7623 32.3032 38.4759 32.5115 38.2344C32.7199 37.9905 32.9886 37.8035 33.3176 37.6733C33.6491 37.5407 34.0326 37.4744 34.4682 37.4744C34.7712 37.4744 35.0613 37.5099 35.3382 37.581C35.6176 37.652 35.865 37.7621 36.0804 37.9112C36.2982 38.0604 36.4699 38.2521 36.5953 38.4865C36.7208 38.7185 36.7836 38.9967 36.7836 39.321V43H35.3489V42.2436H35.3063C35.2187 42.4141 35.1015 42.5644 34.9547 42.6946C34.8079 42.8224 34.6316 42.9231 34.4256 42.9964C34.2196 43.0675 33.9817 43.103 33.7118 43.103ZM34.1451 42.0589C34.3676 42.0589 34.5641 42.0152 34.7346 41.9276C34.905 41.8376 35.0388 41.7169 35.1358 41.5653C35.2329 41.4138 35.2814 41.2422 35.2814 41.0504V40.4716C35.2341 40.5024 35.169 40.5308 35.0861 40.5568C35.0056 40.5805 34.9145 40.603 34.8127 40.6243C34.7109 40.6432 34.6091 40.661 34.5073 40.6776C34.4055 40.6918 34.3132 40.7048 34.2303 40.7166C34.0527 40.7427 33.8977 40.7841 33.7651 40.8409C33.6325 40.8977 33.5295 40.9747 33.4561 41.0717C33.3828 41.1664 33.3461 41.2848 33.3461 41.4268C33.3461 41.6328 33.4206 41.7902 33.5698 41.8991C33.7213 42.0057 33.9131 42.0589 34.1451 42.0589ZM42.8471 37.5455L40.9402 43H39.2356L37.3287 37.5455H38.9267L40.0595 41.4482H40.1163L41.2456 37.5455H42.8471ZM45.9313 43.1065C45.3702 43.1065 44.8873 42.9929 44.4824 42.7656C44.08 42.536 43.7698 42.2116 43.552 41.7926C43.3342 41.3712 43.2253 40.8729 43.2253 40.2976C43.2253 39.7365 43.3342 39.2441 43.552 38.8203C43.7698 38.3965 44.0764 38.0663 44.4718 37.8295C44.8695 37.5928 45.3359 37.4744 45.8709 37.4744C46.2308 37.4744 46.5658 37.5324 46.8759 37.6484C47.1884 37.7621 47.4606 37.9337 47.6926 38.1634C47.927 38.393 48.1093 38.6818 48.2395 39.0298C48.3697 39.3755 48.4348 39.7803 48.4348 40.2443V40.6598H43.829V39.7223H47.0108C47.0108 39.5045 46.9635 39.3116 46.8688 39.1435C46.7741 38.9754 46.6427 38.844 46.4746 38.7493C46.3089 38.6522 46.1159 38.6037 45.8958 38.6037C45.6661 38.6037 45.4625 38.657 45.285 38.7635C45.1098 38.8677 44.9725 39.0085 44.873 39.1861C44.7736 39.3613 44.7227 39.5566 44.7203 39.772V40.6634C44.7203 40.9332 44.7701 41.1664 44.8695 41.3629C44.9713 41.5594 45.1145 41.7109 45.2992 41.8175C45.4838 41.924 45.7028 41.9773 45.9561 41.9773C46.1242 41.9773 46.2781 41.9536 46.4178 41.9062C46.5575 41.8589 46.677 41.7879 46.7765 41.6932C46.8759 41.5985 46.9516 41.4825 47.0037 41.3452L48.4029 41.4375C48.3319 41.7737 48.1863 42.0672 47.9661 42.3182C47.7483 42.5668 47.4666 42.7609 47.1209 42.9006C46.7776 43.0379 46.3811 43.1065 45.9313 43.1065ZM51.432 43.0888C51.0177 43.0888 50.6425 42.9822 50.3063 42.7692C49.9725 42.5537 49.7073 42.2377 49.5108 41.821C49.3167 41.402 49.2196 40.8883 49.2196 40.2798C49.2196 39.6548 49.3203 39.1352 49.5215 38.7209C49.7227 38.3042 49.9902 37.9929 50.324 37.7869C50.6602 37.5786 51.0283 37.4744 51.4284 37.4744C51.7338 37.4744 51.9883 37.5265 52.1919 37.6307C52.3979 37.7325 52.5636 37.8603 52.6891 38.0142C52.8169 38.1657 52.914 38.3149 52.9803 38.4616H53.0265V35.7273H54.5357V43H53.0442V42.1264H52.9803C52.9093 42.2779 52.8087 42.4283 52.6784 42.5774C52.5506 42.7242 52.3837 42.8461 52.1777 42.9432C51.9741 43.0402 51.7256 43.0888 51.432 43.0888ZM51.9114 41.8849C52.1552 41.8849 52.3612 41.8187 52.5293 41.6861C52.6998 41.5511 52.83 41.3629 52.9199 41.1214C53.0123 40.88 53.0584 40.5971 53.0584 40.2727C53.0584 39.9484 53.0134 39.6667 52.9235 39.4276C52.8335 39.1884 52.7033 39.0038 52.5328 38.8736C52.3624 38.7434 52.1552 38.6783 51.9114 38.6783C51.6628 38.6783 51.4533 38.7457 51.2828 38.8807C51.1124 39.0156 50.9834 39.2027 50.8958 39.4418C50.8082 39.6809 50.7644 39.9579 50.7644 40.2727C50.7644 40.59 50.8082 40.8705 50.8958 41.1143C50.9857 41.3558 51.1148 41.5452 51.2828 41.6825C51.4533 41.8175 51.6628 41.8849 51.9114 41.8849Z" fill="#8649E1"/>
<path fill-rule="evenodd" clip-rule="evenodd" d="M22.7604 36.2396C23.0799 36.5592 23.0799 37.0772 22.7604 37.3967L17.8545 42.3059C17.535 42.6254 17.017 42.6254 16.6975 42.3059L14.2397 39.845C13.9201 39.5255 13.9201 39.0074 14.2397 38.6879C14.5592 38.3684 15.0772 38.3684 15.3967 38.6879L17.276 40.5703L21.6033 36.2396C21.9228 35.9201 22.4408 35.9201 22.7604 36.2396Z" fill="#AB6CFE"/>
</svg>
