<svg width="80" height="80" viewBox="0 0 80 80" fill="none" xmlns="http://www.w3.org/2000/svg">
<rect width="80" height="80" fill="white"/>
<rect x="4" y="26" width="72" height="28" rx="4" fill="#EDD9FF"/>
<path d="M64.1937 32.1937C63.9354 32.452 63.9354 32.8708 64.1937 33.1292L66.0646 35L64.1937 36.8708C63.9354 37.1292 63.9354 37.548 64.1937 37.8063C64.452 38.0646 64.8708 38.0646 65.1292 37.8063L67 35.9354L68.8708 37.8063C69.1292 38.0646 69.548 38.0646 69.8063 37.8063C70.0646 37.548 70.0646 37.1292 69.8063 36.8708L67.9354 35L69.8063 33.1292C70.0646 32.8708 70.0646 32.452 69.8063 32.1937C69.548 31.9354 69.1292 31.9354 68.8708 32.1937L67 34.0646L65.1292 32.1937C64.8708 31.9354 64.452 31.9354 64.1937 32.1937Z" fill="#8649E1"/>
<rect opacity="0.5" x="10" y="32" width="46" height="6" rx="3" fill="#AB6CFE"/>
<rect opacity="0.5" x="10" y="42" width="35" height="6" rx="3" fill="#AB6CFE"/>
</svg>
