<svg width="100" height="100" viewBox="0 0 100 100" fill="none" xmlns="http://www.w3.org/2000/svg">
<rect width="100" height="100" fill="white"/>
<rect x="10" y="36" width="80" height="28" rx="4" fill="#EDD9FF"/>
<path d="M78.1937 42.1937C77.9354 42.452 77.9354 42.8708 78.1937 43.1292L80.0646 45L78.1937 46.8708C77.9354 47.1292 77.9354 47.548 78.1937 47.8063C78.452 48.0646 78.8708 48.0646 79.1292 47.8063L81 45.9354L82.8708 47.8063C83.1292 48.0646 83.548 48.0646 83.8063 47.8063C84.0646 47.548 84.0646 47.1292 83.8063 46.8708L81.9354 45L83.8063 43.1292C84.0646 42.8708 84.0646 42.452 83.8063 42.1937C83.548 41.9354 83.1292 41.9354 82.8708 42.1937L81 44.0646L79.1292 42.1937C78.8708 41.9354 78.452 41.9354 78.1937 42.1937Z" fill="#8649E1"/>
<rect opacity="0.5" x="16" y="42" width="50" height="6" rx="3" fill="#AB6CFE"/>
<rect opacity="0.5" x="16" y="52" width="35" height="6" rx="3" fill="#AB6CFE"/>
</svg>
