<svg width="100" height="100" viewBox="0 0 100 100" fill="none" xmlns="http://www.w3.org/2000/svg">
<rect width="100" height="100" fill="white"/>
<rect x="18" y="39" width="64" height="22" rx="4" fill="#EDD9FF"/>
<path d="M72.1937 43.1937C71.9354 43.452 71.9354 43.8708 72.1937 44.1292L74.0646 46L72.1937 47.8708C71.9354 48.1292 71.9354 48.548 72.1937 48.8063C72.452 49.0646 72.8708 49.0646 73.1292 48.8063L75 46.9354L76.8708 48.8063C77.1292 49.0646 77.548 49.0646 77.8063 48.8063C78.0646 48.548 78.0646 48.1292 77.8063 47.8708L75.9354 46L77.8063 44.1292C78.0646 43.8708 78.0646 43.452 77.8063 43.1937C77.548 42.9354 77.1292 42.9354 76.8708 43.1937L75 45.0646L73.1292 43.1937C72.8708 42.9354 72.452 42.9354 72.1937 43.1937Z" fill="#AB6CFE"/>
<path d="M39.5774 47.8189C39.549 47.5324 39.4271 47.3099 39.2116 47.1513C38.9962 46.9927 38.7038 46.9134 38.3345 46.9134C38.0836 46.9134 37.8717 46.9489 37.6989 47.0199C37.526 47.0885 37.3935 47.1844 37.3011 47.3075C37.2112 47.4306 37.1662 47.5703 37.1662 47.7266C37.1615 47.8568 37.1887 47.9704 37.2479 48.0675C37.3094 48.1645 37.3935 48.2486 37.5 48.3196C37.6065 48.3883 37.7296 48.4486 37.8693 48.5007C38.009 48.5504 38.1581 48.593 38.3168 48.6286L38.9702 48.7848C39.2874 48.8558 39.5786 48.9505 39.8438 49.0689C40.1089 49.1873 40.3385 49.3329 40.5327 49.5057C40.7268 49.6785 40.8771 49.8821 40.9837 50.1165C41.0926 50.3509 41.1482 50.6196 41.1506 50.9226C41.1482 51.3677 41.0346 51.7536 40.8097 52.0803C40.5871 52.4046 40.2652 52.6567 39.8438 52.8366C39.4247 53.0142 38.9193 53.103 38.3274 53.103C37.7403 53.103 37.2289 53.013 36.7933 52.8331C36.3601 52.6532 36.0215 52.3868 35.7777 52.0341C35.5362 51.679 35.4096 51.2398 35.3977 50.7166H36.8857C36.9022 50.9605 36.9721 51.1641 37.0952 51.3274C37.2206 51.4884 37.3875 51.6103 37.5959 51.6932C37.8066 51.7737 38.0445 51.8139 38.3097 51.8139C38.5701 51.8139 38.7962 51.776 38.9879 51.7003C39.1821 51.6245 39.3324 51.5192 39.4389 51.3842C39.5455 51.2493 39.5987 51.0942 39.5987 50.919C39.5987 50.7557 39.5502 50.6184 39.4531 50.5071C39.3584 50.3958 39.2188 50.3011 39.0341 50.223C38.8518 50.1449 38.6281 50.0739 38.3629 50.0099L37.571 49.8111C36.9579 49.6619 36.4737 49.4287 36.1186 49.1115C35.7635 48.7943 35.5871 48.367 35.5895 47.8295C35.5871 47.3892 35.7043 47.0045 35.9411 46.6754C36.1802 46.3464 36.508 46.0895 36.9247 45.9048C37.3414 45.7202 37.8149 45.6278 38.3452 45.6278C38.8849 45.6278 39.3561 45.7202 39.7585 45.9048C40.1634 46.0895 40.4782 46.3464 40.7031 46.6754C40.928 47.0045 41.044 47.3857 41.0511 47.8189H39.5774ZM43.7118 53.103C43.3638 53.103 43.0537 53.0426 42.7814 52.9219C42.5092 52.7988 42.2937 52.6177 42.1351 52.3786C41.9789 52.1371 41.9007 51.8364 41.9007 51.4766C41.9007 51.1735 41.9564 50.919 42.0676 50.7131C42.1789 50.5071 42.3304 50.3414 42.5222 50.2159C42.714 50.0904 42.9318 49.9957 43.1756 49.9318C43.4218 49.8679 43.6799 49.8229 43.9498 49.7969C44.267 49.7637 44.5227 49.733 44.7168 49.7045C44.9109 49.6738 45.0518 49.6288 45.1394 49.5696C45.227 49.5104 45.2708 49.4228 45.2708 49.3068V49.2855C45.2708 49.0606 45.1998 48.8866 45.0577 48.7635C44.918 48.6404 44.7192 48.5788 44.4611 48.5788C44.1889 48.5788 43.9722 48.6392 43.8113 48.7599C43.6503 48.8783 43.5437 49.0275 43.4917 49.2074L42.0925 49.0938C42.1635 48.7623 42.3032 48.4759 42.5115 48.2344C42.7199 47.9905 42.9886 47.8035 43.3176 47.6733C43.6491 47.5407 44.0326 47.4744 44.4682 47.4744C44.7712 47.4744 45.0613 47.5099 45.3382 47.581C45.6176 47.652 45.865 47.7621 46.0804 47.9112C46.2982 48.0604 46.4699 48.2521 46.5953 48.4865C46.7208 48.7185 46.7836 48.9967 46.7836 49.321V53H45.3489V52.2436H45.3063C45.2187 52.4141 45.1015 52.5644 44.9547 52.6946C44.8079 52.8224 44.6316 52.9231 44.4256 52.9964C44.2196 53.0675 43.9817 53.103 43.7118 53.103ZM44.1451 52.0589C44.3676 52.0589 44.5641 52.0152 44.7346 51.9276C44.905 51.8376 45.0388 51.7169 45.1358 51.5653C45.2329 51.4138 45.2814 51.2422 45.2814 51.0504V50.4716C45.2341 50.5024 45.169 50.5308 45.0861 50.5568C45.0056 50.5805 44.9145 50.603 44.8127 50.6243C44.7109 50.6432 44.6091 50.661 44.5073 50.6776C44.4055 50.6918 44.3132 50.7048 44.2303 50.7166C44.0527 50.7427 43.8977 50.7841 43.7651 50.8409C43.6325 50.8977 43.5295 50.9747 43.4561 51.0717C43.3828 51.1664 43.3461 51.2848 43.3461 51.4268C43.3461 51.6328 43.4206 51.7902 43.5698 51.8991C43.7213 52.0057 43.9131 52.0589 44.1451 52.0589ZM52.8471 47.5455L50.9402 53H49.2356L47.3287 47.5455H48.9267L50.0595 51.4482H50.1163L51.2456 47.5455H52.8471ZM55.9313 53.1065C55.3702 53.1065 54.8873 52.9929 54.4824 52.7656C54.08 52.536 53.7698 52.2116 53.552 51.7926C53.3342 51.3712 53.2253 50.8729 53.2253 50.2976C53.2253 49.7365 53.3342 49.2441 53.552 48.8203C53.7698 48.3965 54.0764 48.0663 54.4718 47.8295C54.8695 47.5928 55.3359 47.4744 55.8709 47.4744C56.2308 47.4744 56.5658 47.5324 56.8759 47.6484C57.1884 47.7621 57.4606 47.9337 57.6926 48.1634C57.927 48.393 58.1093 48.6818 58.2395 49.0298C58.3697 49.3755 58.4348 49.7803 58.4348 50.2443V50.6598H53.829V49.7223H57.0108C57.0108 49.5045 56.9635 49.3116 56.8688 49.1435C56.7741 48.9754 56.6427 48.844 56.4746 48.7493C56.3089 48.6522 56.1159 48.6037 55.8958 48.6037C55.6661 48.6037 55.4625 48.657 55.285 48.7635C55.1098 48.8677 54.9725 49.0085 54.873 49.1861C54.7736 49.3613 54.7227 49.5566 54.7203 49.772V50.6634C54.7203 50.9332 54.7701 51.1664 54.8695 51.3629C54.9713 51.5594 55.1145 51.7109 55.2992 51.8175C55.4838 51.924 55.7028 51.9773 55.9561 51.9773C56.1242 51.9773 56.2781 51.9536 56.4178 51.9062C56.5575 51.8589 56.677 51.7879 56.7765 51.6932C56.8759 51.5985 56.9516 51.4825 57.0037 51.3452L58.4029 51.4375C58.3319 51.7737 58.1863 52.0672 57.9661 52.3182C57.7483 52.5668 57.4666 52.7609 57.1209 52.9006C56.7776 53.0379 56.3811 53.1065 55.9313 53.1065ZM61.432 53.0888C61.0177 53.0888 60.6425 52.9822 60.3063 52.7692C59.9725 52.5537 59.7073 52.2377 59.5108 51.821C59.3167 51.402 59.2196 50.8883 59.2196 50.2798C59.2196 49.6548 59.3203 49.1352 59.5215 48.7209C59.7227 48.3042 59.9902 47.9929 60.324 47.7869C60.6602 47.5786 61.0283 47.4744 61.4284 47.4744C61.7338 47.4744 61.9883 47.5265 62.1919 47.6307C62.3979 47.7325 62.5636 47.8603 62.6891 48.0142C62.8169 48.1657 62.914 48.3149 62.9803 48.4616H63.0265V45.7273H64.5357V53H63.0442V52.1264H62.9803C62.9093 52.2779 62.8087 52.4283 62.6784 52.5774C62.5506 52.7242 62.3837 52.8461 62.1777 52.9432C61.9741 53.0402 61.7256 53.0888 61.432 53.0888ZM61.9114 51.8849C62.1552 51.8849 62.3612 51.8187 62.5293 51.6861C62.6998 51.5511 62.83 51.3629 62.9199 51.1214C63.0123 50.88 63.0584 50.5971 63.0584 50.2727C63.0584 49.9484 63.0134 49.6667 62.9235 49.4276C62.8335 49.1884 62.7033 49.0038 62.5328 48.8736C62.3624 48.7434 62.1552 48.6783 61.9114 48.6783C61.6628 48.6783 61.4533 48.7457 61.2828 48.8807C61.1124 49.0156 60.9834 49.2027 60.8958 49.4418C60.8082 49.6809 60.7644 49.9579 60.7644 50.2727C60.7644 50.59 60.8082 50.8705 60.8958 51.1143C60.9857 51.3558 61.1148 51.5452 61.2828 51.6825C61.4533 51.8175 61.6628 51.8849 61.9114 51.8849Z" fill="#8649E1"/>
<path fill-rule="evenodd" clip-rule="evenodd" d="M32.7604 46.2396C33.0799 46.5592 33.0799 47.0772 32.7604 47.3967L27.8545 52.3059C27.535 52.6254 27.017 52.6254 26.6975 52.3059L24.2397 49.845C23.9201 49.5255 23.9201 49.0074 24.2397 48.6879C24.5592 48.3684 25.0772 48.3684 25.3967 48.6879L27.276 50.5703L31.6033 46.2396C31.9228 45.9201 32.4408 45.9201 32.7604 46.2396Z" fill="#AB6CFE"/>
</svg>
