<svg width="100" height="100" viewBox="0 0 100 100" fill="none" xmlns="http://www.w3.org/2000/svg">
<rect width="100" height="100" fill="white"/>
<rect x="10.5" y="31.5" width="79" height="48" stroke="#DCB8FF"/>
<rect x="11" y="44" width="78" height="1" fill="#DCB8FF"/>
<rect x="14" y="36" width="8" height="4" rx="2" fill="#DCB8FF"/>
<rect x="26" y="36" width="8" height="4" rx="2" fill="#DCB8FF"/>
<rect x="38" y="36" width="8" height="4" rx="2" fill="#DCB8FF"/>
<rect x="10" y="20" width="80" height="12" fill="#8649E1"/>
<path d="M80.1937 23.1937C79.9354 23.452 79.9354 23.8708 80.1937 24.1292L82.0646 26L80.1937 27.8708C79.9354 28.1292 79.9354 28.548 80.1937 28.8063C80.452 29.0646 80.8708 29.0646 81.1292 28.8063L83 26.9354L84.8708 28.8063C85.1292 29.0646 85.548 29.0646 85.8063 28.8063C86.0646 28.548 86.0646 28.1292 85.8063 27.8708L83.9354 26L85.8063 24.1292C86.0646 23.8708 86.0646 23.452 85.8063 23.1937C85.548 22.9354 85.1292 22.9354 84.8708 23.1937L83 25.0646L81.1292 23.1937C80.8708 22.9354 80.452 22.9354 80.1937 23.1937Z" fill="#DCB8FF"/>
<rect x="14" y="24" width="50" height="4" rx="2" fill="#DCB8FF"/>
</svg>
