<svg width="80" height="80" viewBox="0 0 80 80" fill="none" xmlns="http://www.w3.org/2000/svg">
<rect width="80" height="80" fill="white"/>
<rect x="2.5" y="21.5" width="75" height="48" stroke="#DCB8FF"/>
<rect x="3" y="34" width="74" height="1" fill="#DCB8FF"/>
<rect x="7" y="26" width="8" height="4" rx="2" fill="#DCB8FF"/>
<rect x="19" y="26" width="8" height="4" rx="2" fill="#DCB8FF"/>
<rect x="31" y="26" width="8" height="4" rx="2" fill="#DCB8FF"/>
<rect x="2" y="10" width="76" height="12" fill="#8649E1"/>
<path d="M68.1937 13.1937C67.9354 13.452 67.9354 13.8708 68.1937 14.1292L70.0646 16L68.1937 17.8708C67.9354 18.1292 67.9354 18.548 68.1937 18.8063C68.452 19.0646 68.8708 19.0646 69.1292 18.8063L71 16.9354L72.8708 18.8063C73.1292 19.0646 73.548 19.0646 73.8063 18.8063C74.0646 18.548 74.0646 18.1292 73.8063 17.8708L71.9354 16L73.8063 14.1292C74.0646 13.8708 74.0646 13.452 73.8063 13.1937C73.548 12.9354 73.1292 12.9354 72.8708 13.1937L71 15.0646L69.1292 13.1937C68.8708 12.9354 68.452 12.9354 68.1937 13.1937Z" fill="#DCB8FF"/>
<rect x="7" y="14" width="50" height="4" rx="2" fill="#DCB8FF"/>
</svg>
