<svg width="80" height="20" viewBox="0 0 80 20" fill="none" xmlns="http://www.w3.org/2000/svg">
<rect width="80" height="20" rx="2" fill="#D1D4DB"/>
<path d="M70.1937 4.19373C69.9354 4.45204 69.9354 4.87084 70.1937 5.12915L72.0646 7L70.1937 8.87085C69.9354 9.12915 69.9354 9.54796 70.1937 9.80627C70.452 10.0646 70.8708 10.0646 71.1292 9.80627L73 7.93542L74.8708 9.80627C75.1292 10.0646 75.548 10.0646 75.8063 9.80627C76.0646 9.54796 76.0646 9.12916 75.8063 8.87085L73.9354 7L75.8063 5.12915C76.0646 4.87085 76.0646 4.45204 75.8063 4.19373C75.548 3.93542 75.1292 3.93542 74.8708 4.19373L73 6.06458L71.1292 4.19373C70.8708 3.93542 70.452 3.93542 70.1937 4.19373Z" fill="#898D9A"/>
<rect opacity="0.5" x="4" y="5" width="50" height="4" rx="2" fill="#898D9A"/>
<rect opacity="0.5" x="4" y="11" width="35" height="4" rx="2" fill="#898D9A"/>
</svg>
