<svg width="80" height="80" viewBox="0 0 80 80" fill="none" xmlns="http://www.w3.org/2000/svg">
<rect width="80" height="80" fill="white"/>
<rect x="4" y="31" width="18" height="18" rx="2" fill="#EDD9FF"/>
<path fill-rule="evenodd" clip-rule="evenodd" d="M14.7071 35.2929C15.0976 35.6834 15.0976 36.3166 14.7071 36.7071L11.4142 40L14.7071 43.2929C15.0976 43.6834 15.0976 44.3166 14.7071 44.7071C14.3166 45.0976 13.6834 45.0976 13.2929 44.7071L9.29289 40.7071C8.90237 40.3166 8.90237 39.6834 9.29289 39.2929L13.2929 35.2929C13.6834 34.9024 14.3166 34.9024 14.7071 35.2929Z" fill="#C695FF"/>
<rect x="24" y="31" width="18" height="18" rx="2" fill="#EDD9FF"/>
<path fill-rule="evenodd" clip-rule="evenodd" d="M31.2929 44.7071C30.9024 44.3166 30.9024 43.6834 31.2929 43.2929L34.5858 40L31.2929 36.7071C30.9024 36.3166 30.9024 35.6834 31.2929 35.2929C31.6834 34.9024 32.3166 34.9024 32.7071 35.2929L36.7071 39.2929C37.0976 39.6834 37.0976 40.3166 36.7071 40.7071L32.7071 44.7071C32.3166 45.0976 31.6834 45.0976 31.2929 44.7071Z" fill="#C695FF"/>
<path d="M45.6321 44V36.7273H48.5014C49.053 36.7273 49.523 36.8326 49.9112 37.0433C50.2995 37.2517 50.5954 37.5417 50.799 37.9134C51.005 38.2827 51.108 38.7088 51.108 39.1918C51.108 39.6747 51.0038 40.1009 50.7955 40.4702C50.5871 40.8395 50.2853 41.1271 49.8899 41.3331C49.4969 41.5391 49.0211 41.642 48.4624 41.642H46.6335V40.4098H48.2138C48.5097 40.4098 48.7536 40.3589 48.9453 40.2571C49.1394 40.1529 49.2839 40.0097 49.3786 39.8274C49.4756 39.6428 49.5241 39.4309 49.5241 39.1918C49.5241 38.9503 49.4756 38.7396 49.3786 38.5597C49.2839 38.3774 49.1394 38.2365 48.9453 38.1371C48.7512 38.0353 48.505 37.9844 48.2067 37.9844H47.1697V44H45.6321ZM53.4872 44.103C53.1392 44.103 52.8291 44.0426 52.5568 43.9219C52.2846 43.7988 52.0691 43.6177 51.9105 43.3786C51.7543 43.1371 51.6761 42.8364 51.6761 42.4766C51.6761 42.1735 51.7318 41.919 51.843 41.7131C51.9543 41.5071 52.1058 41.3414 52.2976 41.2159C52.4893 41.0904 52.7071 40.9957 52.951 40.9318C53.1972 40.8679 53.4553 40.8229 53.7251 40.7969C54.0424 40.7637 54.2981 40.733 54.4922 40.7045C54.6863 40.6738 54.8272 40.6288 54.9148 40.5696C55.0024 40.5104 55.0462 40.4228 55.0462 40.3068V40.2855C55.0462 40.0606 54.9751 39.8866 54.8331 39.7635C54.6934 39.6404 54.4946 39.5788 54.2365 39.5788C53.9643 39.5788 53.7476 39.6392 53.5866 39.7599C53.4257 39.8783 53.3191 40.0275 53.267 40.2074L51.8679 40.0938C51.9389 39.7623 52.0786 39.4759 52.2869 39.2344C52.4953 38.9905 52.764 38.8035 53.093 38.6733C53.4245 38.5407 53.808 38.4744 54.2436 38.4744C54.5466 38.4744 54.8366 38.5099 55.1136 38.581C55.393 38.652 55.6404 38.7621 55.8558 38.9112C56.0736 39.0604 56.2453 39.2521 56.3707 39.4865C56.4962 39.7185 56.5589 39.9967 56.5589 40.321V44H55.1243V43.2436H55.0817C54.9941 43.4141 54.8769 43.5644 54.7301 43.6946C54.5833 43.8224 54.407 43.9231 54.201 43.9964C53.995 44.0675 53.7571 44.103 53.4872 44.103ZM53.9205 43.0589C54.143 43.0589 54.3395 43.0152 54.5099 42.9276C54.6804 42.8376 54.8142 42.7169 54.9112 42.5653C55.0083 42.4138 55.0568 42.2422 55.0568 42.0504V41.4716C55.0095 41.5024 54.9444 41.5308 54.8615 41.5568C54.781 41.5805 54.6899 41.603 54.5881 41.6243C54.4863 41.6432 54.3845 41.661 54.2827 41.6776C54.1809 41.6918 54.0885 41.7048 54.0057 41.7166C53.8281 41.7427 53.6731 41.7841 53.5405 41.8409C53.4079 41.8977 53.3049 41.9747 53.2315 42.0717C53.1581 42.1664 53.1214 42.2848 53.1214 42.4268C53.1214 42.6328 53.196 42.7902 53.3452 42.8991C53.4967 43.0057 53.6884 43.0589 53.9205 43.0589ZM60.19 46.1591C59.6999 46.1591 59.2797 46.0916 58.9293 45.9567C58.5813 45.8241 58.3043 45.643 58.0984 45.4134C57.8924 45.1837 57.7586 44.9257 57.6971 44.6392L59.0962 44.451C59.1388 44.5599 59.2063 44.6617 59.2987 44.7564C59.391 44.8511 59.5129 44.9268 59.6644 44.9837C59.8183 45.0429 60.0053 45.0724 60.2255 45.0724C60.5546 45.0724 60.8256 44.992 61.0387 44.831C61.2541 44.6723 61.3619 44.406 61.3619 44.032V43.0341H61.2979C61.2317 43.1856 61.1322 43.3288 60.9996 43.4638C60.8671 43.5987 60.6966 43.7088 60.4883 43.794C60.2799 43.8793 60.0314 43.9219 59.7425 43.9219C59.333 43.9219 58.9601 43.8272 58.6239 43.6378C58.2901 43.446 58.0238 43.1536 57.8249 42.7607C57.6284 42.3653 57.5302 41.8658 57.5302 41.2621C57.5302 40.6442 57.6308 40.1281 57.832 39.7138C58.0333 39.2995 58.3008 38.9893 58.6346 38.7834C58.9708 38.5774 59.3389 38.4744 59.739 38.4744C60.0444 38.4744 60.3001 38.5265 60.506 38.6307C60.712 38.7325 60.8777 38.8603 61.0032 39.0142C61.131 39.1657 61.2293 39.3149 61.2979 39.4616H61.3548V38.5455H62.8569V44.0533C62.8569 44.5173 62.7433 44.9055 62.516 45.218C62.2887 45.5305 61.9738 45.7649 61.5714 45.9212C61.1713 46.0798 60.7108 46.1591 60.19 46.1591ZM60.2219 42.7855C60.4658 42.7855 60.6718 42.7251 60.8398 42.6044C61.0103 42.4813 61.1405 42.3061 61.2305 42.0788C61.3228 41.8492 61.369 41.5746 61.369 41.255C61.369 40.9354 61.324 40.6584 61.234 40.424C61.1441 40.1873 61.0138 40.0038 60.8434 39.8736C60.6729 39.7434 60.4658 39.6783 60.2219 39.6783C59.9734 39.6783 59.7638 39.7457 59.5934 39.8807C59.4229 40.0133 59.2939 40.1979 59.2063 40.4347C59.1187 40.6714 59.0749 40.9448 59.0749 41.255C59.0749 41.5698 59.1187 41.8421 59.2063 42.0717C59.2963 42.299 59.4253 42.4754 59.5934 42.6009C59.7638 42.724 59.9734 42.7855 60.2219 42.7855ZM66.5465 44.1065C65.9854 44.1065 65.5025 43.9929 65.0977 43.7656C64.6952 43.536 64.3851 43.2116 64.1673 42.7926C63.9495 42.3712 63.8406 41.8729 63.8406 41.2976C63.8406 40.7365 63.9495 40.2441 64.1673 39.8203C64.3851 39.3965 64.6916 39.0663 65.087 38.8295C65.4847 38.5928 65.9511 38.4744 66.4862 38.4744C66.846 38.4744 67.181 38.5324 67.4911 38.6484C67.8036 38.7621 68.0759 38.9337 68.3079 39.1634C68.5423 39.393 68.7246 39.6818 68.8548 40.0298C68.985 40.3755 69.0501 40.7803 69.0501 41.2443V41.6598H64.4442V40.7223H67.6261C67.6261 40.5045 67.5787 40.3116 67.484 40.1435C67.3893 39.9754 67.2579 39.844 67.0898 39.7493C66.9241 39.6522 66.7312 39.6037 66.511 39.6037C66.2814 39.6037 66.0778 39.657 65.9002 39.7635C65.725 39.8677 65.5877 40.0085 65.4883 40.1861C65.3888 40.3613 65.3379 40.5566 65.3356 40.772V41.6634C65.3356 41.9332 65.3853 42.1664 65.4847 42.3629C65.5865 42.5594 65.7298 42.7109 65.9144 42.8175C66.0991 42.924 66.3181 42.9773 66.5714 42.9773C66.7395 42.9773 66.8933 42.9536 67.033 42.9062C67.1727 42.8589 67.2923 42.7879 67.3917 42.6932C67.4911 42.5985 67.5669 42.4825 67.619 42.3452L69.0181 42.4375C68.9471 42.7737 68.8015 43.0672 68.5813 43.3182C68.3635 43.5668 68.0818 43.7609 67.7362 43.9006C67.3929 44.0379 66.9963 44.1065 66.5465 44.1065ZM74.5756 40.1009L73.1907 40.1861C73.167 40.0677 73.1161 39.9612 73.038 39.8665C72.9599 39.7694 72.8569 39.6925 72.729 39.6357C72.6036 39.5765 72.4532 39.5469 72.2781 39.5469C72.0437 39.5469 71.846 39.5966 71.685 39.696C71.524 39.7931 71.4435 39.9233 71.4435 40.0866C71.4435 40.2169 71.4956 40.3269 71.5998 40.4169C71.704 40.5069 71.8827 40.5791 72.136 40.6335L73.1232 40.8324C73.6535 40.9413 74.0489 41.1165 74.3093 41.358C74.5697 41.5994 74.6999 41.9167 74.6999 42.3097C74.6999 42.6671 74.5946 42.9808 74.3839 43.2507C74.1755 43.5206 73.8891 43.7313 73.5245 43.8828C73.1623 44.032 72.7444 44.1065 72.271 44.1065C71.5489 44.1065 70.9736 43.9562 70.5451 43.6555C70.119 43.3525 69.8692 42.9406 69.7958 42.4197L71.2837 42.3416C71.3287 42.5618 71.4376 42.7299 71.6104 42.8459C71.7833 42.9595 72.0046 43.0163 72.2745 43.0163C72.5397 43.0163 72.7527 42.9654 72.9137 42.8636C73.0771 42.7595 73.1599 42.6257 73.1623 42.4624C73.1599 42.325 73.1019 42.2126 72.9883 42.125C72.8746 42.035 72.6995 41.9664 72.4627 41.919L71.5181 41.7308C70.9854 41.6243 70.5889 41.4396 70.3285 41.1768C70.0704 40.9141 69.9414 40.5791 69.9414 40.1719C69.9414 39.8215 70.0361 39.5196 70.2255 39.2663C70.4173 39.013 70.686 38.8177 71.0316 38.6804C71.3796 38.5431 71.7868 38.4744 72.2532 38.4744C72.9421 38.4744 73.4843 38.62 73.8796 38.9112C74.2773 39.2024 74.5094 39.599 74.5756 40.1009Z" fill="#8649E1"/>
</svg>
