<svg width="100" height="100" viewBox="0 0 100 100" fill="none" xmlns="http://www.w3.org/2000/svg">
<rect width="100" height="100" fill="white"/>
<rect x="6" y="39" width="22" height="22" rx="2" fill="#EDD9FF"/>
<path fill-rule="evenodd" clip-rule="evenodd" d="M19.7071 45.2929C20.0976 45.6834 20.0976 46.3166 19.7071 46.7071L16.4142 50L19.7071 53.2929C20.0976 53.6834 20.0976 54.3166 19.7071 54.7071C19.3166 55.0976 18.6834 55.0976 18.2929 54.7071L14.2929 50.7071C13.9024 50.3166 13.9024 49.6834 14.2929 49.2929L18.2929 45.2929C18.6834 44.9024 19.3166 44.9024 19.7071 45.2929Z" fill="#C695FF"/>
<rect x="32" y="39" width="22" height="22" rx="2" fill="#EDD9FF"/>
<path fill-rule="evenodd" clip-rule="evenodd" d="M41.2929 54.7071C40.9024 54.3166 40.9024 53.6834 41.2929 53.2929L44.5858 50L41.2929 46.7071C40.9024 46.3166 40.9024 45.6834 41.2929 45.2929C41.6834 44.9024 42.3166 44.9024 42.7071 45.2929L46.7071 49.2929C47.0976 49.6834 47.0976 50.3166 46.7071 50.7071L42.7071 54.7071C42.3166 55.0976 41.6834 55.0976 41.2929 54.7071Z" fill="#C695FF"/>
<path d="M58.7585 55V46.2727H62.2017C62.8636 46.2727 63.4276 46.3991 63.8935 46.652C64.3594 46.902 64.7145 47.25 64.9588 47.696C65.206 48.1392 65.3295 48.6506 65.3295 49.2301C65.3295 49.8097 65.2045 50.321 64.9545 50.7642C64.7045 51.2074 64.3423 51.5526 63.8679 51.7997C63.3963 52.0469 62.8253 52.1705 62.1548 52.1705H59.9602V50.6918H61.8565C62.2116 50.6918 62.5043 50.6307 62.7344 50.5085C62.9673 50.3835 63.1406 50.2116 63.2543 49.9929C63.3707 49.7713 63.429 49.517 63.429 49.2301C63.429 48.9403 63.3707 48.6875 63.2543 48.4716C63.1406 48.2528 62.9673 48.0838 62.7344 47.9645C62.5014 47.8423 62.206 47.7812 61.848 47.7812H60.6037V55H58.7585ZM68.1847 55.1236C67.767 55.1236 67.3949 55.0511 67.0682 54.9062C66.7415 54.7585 66.483 54.5412 66.2926 54.2543C66.1051 53.9645 66.0114 53.6037 66.0114 53.1719C66.0114 52.8082 66.0781 52.5028 66.2116 52.2557C66.3452 52.0085 66.527 51.8097 66.7571 51.6591C66.9872 51.5085 67.2486 51.3949 67.5412 51.3182C67.8366 51.2415 68.1463 51.1875 68.4702 51.1562C68.8509 51.1165 69.1577 51.0795 69.3906 51.0455C69.6236 51.0085 69.7926 50.9545 69.8977 50.8835C70.0028 50.8125 70.0554 50.7074 70.0554 50.5682V50.5426C70.0554 50.2727 69.9702 50.0639 69.7997 49.9162C69.6321 49.7685 69.3935 49.6946 69.0838 49.6946C68.7571 49.6946 68.4972 49.767 68.304 49.9119C68.1108 50.054 67.983 50.233 67.9205 50.4489L66.2415 50.3125C66.3267 49.9148 66.4943 49.571 66.7443 49.2812C66.9943 48.9886 67.3168 48.7642 67.7116 48.608C68.1094 48.4489 68.5696 48.3693 69.0923 48.3693C69.456 48.3693 69.804 48.4119 70.1364 48.4972C70.4716 48.5824 70.7685 48.7145 71.027 48.8935C71.2884 49.0724 71.4943 49.3026 71.6449 49.5838C71.7955 49.8622 71.8707 50.196 71.8707 50.5852V55H70.1491V54.0923H70.098C69.9929 54.2969 69.8523 54.4773 69.6761 54.6335C69.5 54.7869 69.2884 54.9077 69.0412 54.9957C68.794 55.081 68.5085 55.1236 68.1847 55.1236ZM68.7045 53.8707C68.9716 53.8707 69.2074 53.8182 69.4119 53.7131C69.6165 53.6051 69.777 53.4602 69.8935 53.2784C70.0099 53.0966 70.0682 52.8906 70.0682 52.6605V51.9659C70.0114 52.0028 69.9332 52.0369 69.8338 52.0682C69.7372 52.0966 69.6278 52.1236 69.5057 52.1491C69.3835 52.1719 69.2614 52.1932 69.1392 52.2131C69.017 52.2301 68.9062 52.2457 68.8068 52.2599C68.5938 52.2912 68.4077 52.3409 68.2486 52.4091C68.0895 52.4773 67.9659 52.5696 67.8778 52.6861C67.7898 52.7997 67.7457 52.9418 67.7457 53.1122C67.7457 53.3594 67.8352 53.5483 68.0142 53.679C68.196 53.8068 68.4261 53.8707 68.7045 53.8707ZM76.228 57.5909C75.6399 57.5909 75.1357 57.5099 74.7152 57.348C74.2976 57.1889 73.9652 56.9716 73.718 56.696C73.4709 56.4205 73.3104 56.1108 73.2365 55.767L74.9155 55.5412C74.9666 55.6719 75.0476 55.794 75.1584 55.9077C75.2692 56.0213 75.4155 56.1122 75.5973 56.1804C75.782 56.2514 76.0064 56.2869 76.2706 56.2869C76.6655 56.2869 76.9908 56.1903 77.2464 55.9972C77.505 55.8068 77.6342 55.4872 77.6342 55.0384V53.8409H77.5575C77.478 54.0227 77.3587 54.1946 77.1996 54.3565C77.0405 54.5185 76.8359 54.6506 76.5859 54.7528C76.3359 54.8551 76.0376 54.9062 75.6911 54.9062C75.1996 54.9062 74.7521 54.7926 74.3487 54.5653C73.9482 54.3352 73.6286 53.9844 73.3899 53.5128C73.1541 53.0384 73.0362 52.4389 73.0362 51.7145C73.0362 50.973 73.157 50.3537 73.3984 49.8565C73.6399 49.3594 73.9609 48.9872 74.3615 48.7401C74.7649 48.4929 75.2067 48.3693 75.6868 48.3693C76.0533 48.3693 76.3601 48.4318 76.6072 48.5568C76.8544 48.679 77.0533 48.8324 77.2038 49.017C77.3572 49.1989 77.4751 49.3778 77.5575 49.554H77.6257V48.4545H79.4283V55.0639C79.4283 55.6207 79.2919 56.0866 79.0192 56.4616C78.7464 56.8366 78.3686 57.1179 77.8857 57.3054C77.4055 57.4957 76.853 57.5909 76.228 57.5909ZM76.2663 53.5426C76.5589 53.5426 76.8061 53.4702 77.0078 53.3253C77.2124 53.1776 77.3686 52.9673 77.4766 52.6946C77.5874 52.419 77.6428 52.0895 77.6428 51.706C77.6428 51.3224 77.5888 50.9901 77.4808 50.7088C77.3729 50.4247 77.2166 50.2045 77.0121 50.0483C76.8075 49.892 76.5589 49.8139 76.2663 49.8139C75.968 49.8139 75.7166 49.8949 75.5121 50.0568C75.3075 50.2159 75.1527 50.4375 75.0476 50.7216C74.9425 51.0057 74.8899 51.3338 74.8899 51.706C74.8899 52.0838 74.9425 52.4105 75.0476 52.6861C75.1555 52.9588 75.3104 53.1705 75.5121 53.321C75.7166 53.4687 75.968 53.5426 76.2663 53.5426ZM83.8558 55.1278C83.1825 55.1278 82.603 54.9915 82.1172 54.7188C81.6342 54.4432 81.2621 54.054 81.0007 53.5511C80.7393 53.0455 80.6087 52.4474 80.6087 51.7571C80.6087 51.0838 80.7393 50.4929 81.0007 49.9844C81.2621 49.4759 81.63 49.0795 82.1044 48.7955C82.5817 48.5114 83.1413 48.3693 83.7834 48.3693C84.2152 48.3693 84.6172 48.4389 84.9893 48.5781C85.3643 48.7145 85.6911 48.9205 85.9695 49.196C86.2507 49.4716 86.4695 49.8182 86.6257 50.2358C86.782 50.6506 86.8601 51.1364 86.8601 51.6932V52.1918H81.3331V51.0668H85.1513C85.1513 50.8054 85.0945 50.5739 84.9808 50.3722C84.8672 50.1705 84.7095 50.0128 84.5078 49.8991C84.3089 49.7827 84.0774 49.7244 83.8132 49.7244C83.5376 49.7244 83.2933 49.7884 83.0803 49.9162C82.87 50.0412 82.7053 50.2102 82.5859 50.4233C82.4666 50.6335 82.4055 50.8679 82.4027 51.1264V52.196C82.4027 52.5199 82.4624 52.7997 82.5817 53.0355C82.7038 53.2713 82.8757 53.4531 83.0973 53.581C83.3189 53.7088 83.5817 53.7727 83.8857 53.7727C84.0874 53.7727 84.272 53.7443 84.4396 53.6875C84.6072 53.6307 84.7507 53.5455 84.87 53.4318C84.9893 53.3182 85.0803 53.179 85.1428 53.0142L86.8217 53.125C86.7365 53.5284 86.5618 53.8807 86.2976 54.1818C86.0362 54.4801 85.6982 54.7131 85.2834 54.8807C84.8714 55.0455 84.3956 55.1278 83.8558 55.1278ZM93.4908 50.321L91.8288 50.4233C91.8004 50.2812 91.7393 50.1534 91.6456 50.0398C91.5518 49.9233 91.4283 49.831 91.2749 49.7628C91.1243 49.6918 90.9439 49.6562 90.7337 49.6562C90.4524 49.6562 90.2152 49.7159 90.022 49.8352C89.8288 49.9517 89.7322 50.108 89.7322 50.304C89.7322 50.4602 89.7947 50.5923 89.9197 50.7003C90.0447 50.8082 90.2592 50.8949 90.5632 50.9602L91.7479 51.1989C92.3842 51.3295 92.8587 51.5398 93.1712 51.8295C93.4837 52.1193 93.6399 52.5 93.6399 52.9716C93.6399 53.4006 93.5135 53.777 93.2607 54.1009C93.0107 54.4247 92.6669 54.6776 92.2294 54.8594C91.7947 55.0384 91.2933 55.1278 90.7251 55.1278C89.8587 55.1278 89.1683 54.9474 88.6541 54.5866C88.1428 54.223 87.843 53.7287 87.755 53.1037L89.5405 53.0099C89.5945 53.2741 89.7251 53.4759 89.9325 53.6151C90.1399 53.7514 90.4055 53.8196 90.7294 53.8196C91.0476 53.8196 91.3033 53.7585 91.4964 53.6364C91.6925 53.5114 91.7919 53.3509 91.7947 53.1548C91.7919 52.9901 91.7223 52.8551 91.5859 52.75C91.4496 52.642 91.2393 52.5597 90.9553 52.5028L89.8217 52.277C89.1825 52.1491 88.7067 51.9276 88.3942 51.6122C88.0845 51.2969 87.9297 50.8949 87.9297 50.4062C87.9297 49.9858 88.0433 49.6236 88.2706 49.3196C88.5007 49.0156 88.8232 48.7812 89.2379 48.6165C89.6555 48.4517 90.1442 48.3693 90.7038 48.3693C91.5305 48.3693 92.1811 48.544 92.6555 48.8935C93.1328 49.2429 93.4112 49.7187 93.4908 50.321Z" fill="#8649E1"/>
</svg>
