<svg width="100" height="100" viewBox="0 0 100 100" fill="none" xmlns="http://www.w3.org/2000/svg">
<rect width="100" height="100" fill="white"/>
<path d="M15 37.5H86C87.933 37.5 89.5 39.067 89.5 41V59C89.5 60.933 87.933 62.5 86 62.5H15C13.067 62.5 11.5 60.933 11.5 59V41C11.5 39.067 13.067 37.5 15 37.5Z" stroke="#8649E1"/>
<path d="M15 37.5H38.5V62.5H15C13.067 62.5 11.5 60.933 11.5 59V41C11.5 39.067 13.067 37.5 15 37.5Z" fill="#F9F2FF" stroke="#8649E1"/>
<path d="M38.5 37.5H63.5V62.5H38.5V37.5Z" stroke="#8649E1"/>
<rect x="17" y="44" width="16" height="12" rx="4" fill="#DCB8FF"/>
<rect x="43" y="44" width="16" height="12" rx="4" fill="#EDD9FF"/>
<rect x="69" y="44" width="16" height="12" rx="4" fill="#EDD9FF"/>
</svg>
