<svg width="100" height="100" viewBox="0 0 100 100" fill="none" xmlns="http://www.w3.org/2000/svg">
<rect width="100" height="100" fill="white"/>
<rect x="71" y="33" width="16" height="6" rx="3" fill="#DCB8FF"/>
<rect x="53" y="33" width="14" height="6" rx="3" fill="#DCB8FF"/>
<path d="M14.7585 55V46.2727H18.2017C18.8636 46.2727 19.4276 46.3991 19.8935 46.652C20.3594 46.902 20.7145 47.25 20.9588 47.696C21.206 48.1392 21.3295 48.6506 21.3295 49.2301C21.3295 49.8097 21.2045 50.321 20.9545 50.7642C20.7045 51.2074 20.3423 51.5526 19.8679 51.7997C19.3963 52.0469 18.8253 52.1705 18.1548 52.1705H15.9602V50.6918H17.8565C18.2116 50.6918 18.5043 50.6307 18.7344 50.5085C18.9673 50.3835 19.1406 50.2116 19.2543 49.9929C19.3707 49.7713 19.429 49.517 19.429 49.2301C19.429 48.9403 19.3707 48.6875 19.2543 48.4716C19.1406 48.2528 18.9673 48.0838 18.7344 47.9645C18.5014 47.8423 18.206 47.7812 17.848 47.7812H16.6037V55H14.7585ZM22.494 55V48.4545H24.2539V49.5966H24.3221C24.4414 49.1903 24.6417 48.8835 24.9229 48.6761C25.2042 48.4659 25.5281 48.3608 25.8945 48.3608C25.9854 48.3608 26.0835 48.3665 26.1886 48.3778C26.2937 48.3892 26.386 48.4048 26.4656 48.4247V50.0355C26.3803 50.0099 26.2624 49.9872 26.1119 49.9673C25.9613 49.9474 25.8235 49.9375 25.6985 49.9375C25.4315 49.9375 25.1928 49.9957 24.9826 50.1122C24.7752 50.2259 24.6104 50.3849 24.4883 50.5895C24.369 50.794 24.3093 51.0298 24.3093 51.2969V55H22.494ZM30.0568 55.1278C29.3949 55.1278 28.8224 54.9872 28.3395 54.706C27.8594 54.4219 27.4886 54.027 27.2273 53.5213C26.9659 53.0128 26.8352 52.4233 26.8352 51.7528C26.8352 51.0767 26.9659 50.4858 27.2273 49.9801C27.4886 49.4716 27.8594 49.0767 28.3395 48.7955C28.8224 48.5114 29.3949 48.3693 30.0568 48.3693C30.7188 48.3693 31.2898 48.5114 31.7699 48.7955C32.2528 49.0767 32.625 49.4716 32.8864 49.9801C33.1477 50.4858 33.2784 51.0767 33.2784 51.7528C33.2784 52.4233 33.1477 53.0128 32.8864 53.5213C32.625 54.027 32.2528 54.4219 31.7699 54.706C31.2898 54.9872 30.7188 55.1278 30.0568 55.1278ZM30.0653 53.7216C30.3665 53.7216 30.6179 53.6364 30.8196 53.4659C31.0213 53.2926 31.1733 53.0568 31.2756 52.7585C31.3807 52.4602 31.4332 52.1207 31.4332 51.7401C31.4332 51.3594 31.3807 51.0199 31.2756 50.7216C31.1733 50.4233 31.0213 50.1875 30.8196 50.0142C30.6179 49.8409 30.3665 49.7543 30.0653 49.7543C29.7614 49.7543 29.5057 49.8409 29.2983 50.0142C29.0938 50.1875 28.9389 50.4233 28.8338 50.7216C28.7315 51.0199 28.6804 51.3594 28.6804 51.7401C28.6804 52.1207 28.7315 52.4602 28.8338 52.7585C28.9389 53.0568 29.0938 53.2926 29.2983 53.4659C29.5057 53.6364 29.7614 53.7216 30.0653 53.7216ZM36.8707 55.1065C36.3736 55.1065 35.9233 54.9787 35.5199 54.723C35.1193 54.4645 34.8011 54.0852 34.5653 53.5852C34.3324 53.0824 34.2159 52.4659 34.2159 51.7358C34.2159 50.9858 34.3366 50.3622 34.5781 49.8651C34.8196 49.3651 35.1406 48.9915 35.5412 48.7443C35.9446 48.4943 36.3864 48.3693 36.8665 48.3693C37.233 48.3693 37.5384 48.4318 37.7827 48.5568C38.0298 48.679 38.2287 48.8324 38.3793 49.017C38.5327 49.1989 38.6491 49.3778 38.7287 49.554H38.7841V46.2727H40.5952V55H38.8054V53.9517H38.7287C38.6435 54.1335 38.5227 54.3139 38.3665 54.4929C38.2131 54.669 38.0128 54.8153 37.7656 54.9318C37.5213 55.0483 37.223 55.1065 36.8707 55.1065ZM37.446 53.6619C37.7386 53.6619 37.9858 53.5824 38.1875 53.4233C38.392 53.2614 38.5483 53.0355 38.6562 52.7457C38.767 52.456 38.8224 52.1165 38.8224 51.7273C38.8224 51.3381 38.7685 51 38.6605 50.7131C38.5526 50.4261 38.3963 50.2045 38.1918 50.0483C37.9872 49.892 37.7386 49.8139 37.446 49.8139C37.1477 49.8139 36.8963 49.8949 36.6918 50.0568C36.4872 50.2187 36.3324 50.4432 36.2273 50.7301C36.1222 51.017 36.0696 51.3494 36.0696 51.7273C36.0696 52.108 36.1222 52.4446 36.2273 52.7372C36.3352 53.027 36.4901 53.2543 36.6918 53.419C36.8963 53.581 37.1477 53.6619 37.446 53.6619ZM46.2852 52.2131V48.4545H48.1005V55H46.3576V53.8111H46.2894C46.1417 54.1946 45.896 54.5028 45.5522 54.7358C45.2113 54.9687 44.7951 55.0852 44.3036 55.0852C43.8661 55.0852 43.4812 54.9858 43.1488 54.7869C42.8164 54.5881 42.5565 54.3054 42.369 53.9389C42.1843 53.5724 42.0906 53.1335 42.0877 52.6222V48.4545H43.9031V52.2983C43.9059 52.6847 44.0096 52.9901 44.2141 53.2145C44.4187 53.4389 44.6928 53.5511 45.0366 53.5511C45.2553 53.5511 45.4599 53.5014 45.6502 53.402C45.8406 53.2997 45.994 53.1491 46.1104 52.9503C46.2298 52.7514 46.288 52.5057 46.2852 52.2131ZM52.5099 55.1278C51.8395 55.1278 51.2628 54.9858 50.7798 54.7017C50.2997 54.4148 49.9304 54.017 49.6719 53.5085C49.4162 53 49.2884 52.4148 49.2884 51.7528C49.2884 51.0824 49.4176 50.4943 49.6761 49.9886C49.9375 49.4801 50.3082 49.0838 50.7884 48.7997C51.2685 48.5128 51.8395 48.3693 52.5014 48.3693C53.0724 48.3693 53.5724 48.473 54.0014 48.6804C54.4304 48.8878 54.7699 49.179 55.0199 49.554C55.2699 49.929 55.4077 50.3693 55.4332 50.875H53.7202C53.6719 50.5483 53.544 50.2855 53.3366 50.0866C53.1321 49.8849 52.8636 49.7841 52.5312 49.7841C52.25 49.7841 52.0043 49.8608 51.794 50.0142C51.5866 50.1648 51.4247 50.3849 51.3082 50.6747C51.1918 50.9645 51.1335 51.3153 51.1335 51.7273C51.1335 52.1449 51.1903 52.5 51.304 52.7926C51.4205 53.0852 51.5838 53.3082 51.794 53.4616C52.0043 53.6151 52.25 53.6918 52.5312 53.6918C52.7386 53.6918 52.9247 53.6491 53.0895 53.5639C53.2571 53.4787 53.3949 53.3551 53.5028 53.1932C53.6136 53.0284 53.6861 52.831 53.7202 52.6009H55.4332C55.4048 53.1009 55.2685 53.5412 55.0241 53.9219C54.7827 54.2997 54.4489 54.5952 54.0227 54.8082C53.5966 55.0213 53.0923 55.1278 52.5099 55.1278ZM60.0771 48.4545V49.8182H56.1353V48.4545H60.0771ZM57.0302 46.8864H58.8455V52.9886C58.8455 53.1562 58.8711 53.2869 58.9222 53.3807C58.9734 53.4716 59.0444 53.5355 59.1353 53.5724C59.229 53.6094 59.337 53.6278 59.4592 53.6278C59.5444 53.6278 59.6296 53.6207 59.7148 53.6065C59.8001 53.5895 59.8654 53.5767 59.9109 53.5682L60.1964 54.919C60.1055 54.9474 59.9776 54.9801 59.8129 55.017C59.6481 55.0568 59.4478 55.081 59.212 55.0895C58.7745 55.1065 58.391 55.0483 58.0614 54.9148C57.7347 54.7812 57.4805 54.5739 57.2987 54.2926C57.1168 54.0114 57.0273 53.6562 57.0302 53.2273V46.8864ZM67.5185 48.4545V49.8182H63.5767V48.4545H67.5185ZM64.4716 46.8864H66.2869V52.9886C66.2869 53.1562 66.3125 53.2869 66.3636 53.3807C66.4148 53.4716 66.4858 53.5355 66.5767 53.5724C66.6705 53.6094 66.7784 53.6278 66.9006 53.6278C66.9858 53.6278 67.071 53.6207 67.1562 53.6065C67.2415 53.5895 67.3068 53.5767 67.3523 53.5682L67.6378 54.919C67.5469 54.9474 67.419 54.9801 67.2543 55.017C67.0895 55.0568 66.8892 55.081 66.6534 55.0895C66.2159 55.1065 65.8324 55.0483 65.5028 54.9148C65.1761 54.7812 64.9219 54.5739 64.7401 54.2926C64.5582 54.0114 64.4688 53.6562 64.4716 53.2273V46.8864ZM68.701 55V48.4545H70.5163V55H68.701ZM69.6129 47.6108C69.343 47.6108 69.1115 47.5213 68.9183 47.3423C68.728 47.1605 68.6328 46.9432 68.6328 46.6903C68.6328 46.4403 68.728 46.2259 68.9183 46.0469C69.1115 45.8651 69.343 45.7741 69.6129 45.7741C69.8828 45.7741 70.1129 45.8651 70.3033 46.0469C70.4964 46.2259 70.593 46.4403 70.593 46.6903C70.593 46.9432 70.4964 47.1605 70.3033 47.3423C70.1129 47.5213 69.8828 47.6108 69.6129 47.6108ZM75.4521 48.4545V49.8182H71.5103V48.4545H75.4521ZM72.4052 46.8864H74.2205V52.9886C74.2205 53.1562 74.2461 53.2869 74.2972 53.3807C74.3484 53.4716 74.4194 53.5355 74.5103 53.5724C74.604 53.6094 74.712 53.6278 74.8342 53.6278C74.9194 53.6278 75.0046 53.6207 75.0898 53.6065C75.1751 53.5895 75.2404 53.5767 75.2859 53.5682L75.5714 54.919C75.4805 54.9474 75.3526 54.9801 75.1879 55.017C75.0231 55.0568 74.8228 55.081 74.587 55.0895C74.1495 55.1065 73.766 55.0483 73.4364 54.9148C73.1097 54.7812 72.8555 54.5739 72.6737 54.2926C72.4918 54.0114 72.4023 53.6562 72.4052 53.2273V46.8864ZM78.5906 46.2727V55H76.7752V46.2727H78.5906ZM83.0277 55.1278C82.3544 55.1278 81.7749 54.9915 81.2891 54.7188C80.8061 54.4432 80.4339 54.054 80.1726 53.5511C79.9112 53.0455 79.7805 52.4474 79.7805 51.7571C79.7805 51.0838 79.9112 50.4929 80.1726 49.9844C80.4339 49.4759 80.8018 49.0795 81.2763 48.7955C81.7536 48.5114 82.3132 48.3693 82.9553 48.3693C83.3871 48.3693 83.7891 48.4389 84.1612 48.5781C84.5362 48.7145 84.8629 48.9205 85.1413 49.196C85.4226 49.4716 85.6413 49.8182 85.7976 50.2358C85.9538 50.6506 86.032 51.1364 86.032 51.6932V52.1918H80.505V51.0668H84.3232C84.3232 50.8054 84.2663 50.5739 84.1527 50.3722C84.0391 50.1705 83.8814 50.0128 83.6797 49.8991C83.4808 49.7827 83.2493 49.7244 82.9851 49.7244C82.7095 49.7244 82.4652 49.7884 82.2521 49.9162C82.0419 50.0412 81.8771 50.2102 81.7578 50.4233C81.6385 50.6335 81.5774 50.8679 81.5746 51.1264V52.196C81.5746 52.5199 81.6342 52.7997 81.7536 53.0355C81.8757 53.2713 82.0476 53.4531 82.2692 53.581C82.4908 53.7088 82.7536 53.7727 83.0575 53.7727C83.2592 53.7727 83.4439 53.7443 83.6115 53.6875C83.7791 53.6307 83.9226 53.5455 84.0419 53.4318C84.1612 53.3182 84.2521 53.179 84.3146 53.0142L85.9936 53.125C85.9084 53.5284 85.7337 53.8807 85.4695 54.1818C85.2081 54.4801 84.87 54.7131 84.4553 54.8807C84.0433 55.0455 83.5675 55.1278 83.0277 55.1278Z" fill="#8649E1"/>
<rect x="32" y="62" width="20" height="6" rx="3" fill="#DCB8FF"/>
<rect x="56" y="62" width="16" height="6" rx="3" fill="#DCB8FF"/>
<rect x="14" y="62" width="14" height="6" rx="3" fill="#DCB8FF"/>
</svg>
