<svg width="80" height="80" viewBox="0 0 80 80" fill="none" xmlns="http://www.w3.org/2000/svg">
<rect width="80" height="80" fill="white"/>
<rect x="59" y="23" width="16" height="6" rx="3" fill="#DCB8FF"/>
<rect x="41" y="23" width="14" height="6" rx="3" fill="#DCB8FF"/>
<path d="M5.6321 43V35.7273H8.50142C9.05303 35.7273 9.52296 35.8326 9.91122 36.0433C10.2995 36.2517 10.5954 36.5417 10.799 36.9134C11.005 37.2827 11.108 37.7088 11.108 38.1918C11.108 38.6747 11.0038 39.1009 10.7955 39.4702C10.5871 39.8395 10.2853 40.1271 9.88991 40.3331C9.49692 40.5391 9.02107 40.642 8.46236 40.642H6.63352V39.4098H8.21378C8.50971 39.4098 8.75355 39.3589 8.94531 39.2571C9.13944 39.1529 9.28385 39.0097 9.37855 38.8274C9.47562 38.6428 9.52415 38.4309 9.52415 38.1918C9.52415 37.9503 9.47562 37.7396 9.37855 37.5597C9.28385 37.3774 9.13944 37.2365 8.94531 37.1371C8.75118 37.0353 8.50497 36.9844 8.20668 36.9844H7.16974V43H5.6321ZM12.0783 43V37.5455H13.5449V38.4972H13.6017C13.7012 38.1586 13.8681 37.9029 14.1025 37.7301C14.3368 37.5549 14.6067 37.4673 14.9121 37.4673C14.9879 37.4673 15.0695 37.4721 15.1571 37.4815C15.2447 37.491 15.3217 37.504 15.388 37.5206V38.8629C15.3169 38.8416 15.2187 38.8227 15.0932 38.8061C14.9677 38.7895 14.8529 38.7812 14.7488 38.7812C14.5262 38.7812 14.3274 38.8298 14.1522 38.9268C13.9793 39.0215 13.842 39.1541 13.7402 39.3246C13.6408 39.495 13.5911 39.6915 13.5911 39.9141V43H12.0783ZM18.3807 43.1065C17.8291 43.1065 17.352 42.9893 16.9496 42.755C16.5495 42.5182 16.2405 42.1892 16.0227 41.7678C15.8049 41.344 15.696 40.8527 15.696 40.294C15.696 39.7306 15.8049 39.2382 16.0227 38.8168C16.2405 38.393 16.5495 38.0639 16.9496 37.8295C17.352 37.5928 17.8291 37.4744 18.3807 37.4744C18.9323 37.4744 19.4081 37.5928 19.8082 37.8295C20.2107 38.0639 20.5208 38.393 20.7386 38.8168C20.9564 39.2382 21.0653 39.7306 21.0653 40.294C21.0653 40.8527 20.9564 41.344 20.7386 41.7678C20.5208 42.1892 20.2107 42.5182 19.8082 42.755C19.4081 42.9893 18.9323 43.1065 18.3807 43.1065ZM18.3878 41.9347C18.6387 41.9347 18.8482 41.8636 19.0163 41.7216C19.1844 41.5772 19.3111 41.3807 19.3963 41.1321C19.4839 40.8835 19.5277 40.6006 19.5277 40.2834C19.5277 39.9661 19.4839 39.6832 19.3963 39.4347C19.3111 39.1861 19.1844 38.9896 19.0163 38.8452C18.8482 38.7008 18.6387 38.6286 18.3878 38.6286C18.1345 38.6286 17.9214 38.7008 17.7486 38.8452C17.5781 38.9896 17.4491 39.1861 17.3615 39.4347C17.2763 39.6832 17.2337 39.9661 17.2337 40.2834C17.2337 40.6006 17.2763 40.8835 17.3615 41.1321C17.4491 41.3807 17.5781 41.5772 17.7486 41.7216C17.9214 41.8636 18.1345 41.9347 18.3878 41.9347ZM24.0589 43.0888C23.6446 43.0888 23.2694 42.9822 22.9332 42.7692C22.5994 42.5537 22.3343 42.2377 22.1378 41.821C21.9437 41.402 21.8466 40.8883 21.8466 40.2798C21.8466 39.6548 21.9472 39.1352 22.1484 38.7209C22.3497 38.3042 22.6172 37.9929 22.951 37.7869C23.2872 37.5786 23.6553 37.4744 24.0554 37.4744C24.3608 37.4744 24.6153 37.5265 24.8189 37.6307C25.0249 37.7325 25.1906 37.8603 25.3161 38.0142C25.4439 38.1657 25.541 38.3149 25.6072 38.4616H25.6534V35.7273H27.1626V43H25.6712V42.1264H25.6072C25.5362 42.2779 25.4356 42.4283 25.3054 42.5774C25.1776 42.7242 25.0107 42.8461 24.8047 42.9432C24.6011 43.0402 24.3525 43.0888 24.0589 43.0888ZM24.5384 41.8849C24.7822 41.8849 24.9882 41.8187 25.1562 41.6861C25.3267 41.5511 25.4569 41.3629 25.5469 41.1214C25.6392 40.88 25.6854 40.5971 25.6854 40.2727C25.6854 39.9484 25.6404 39.6667 25.5504 39.4276C25.4605 39.1884 25.3303 39.0038 25.1598 38.8736C24.9893 38.7434 24.7822 38.6783 24.5384 38.6783C24.2898 38.6783 24.0803 38.7457 23.9098 38.8807C23.7393 39.0156 23.6103 39.2027 23.5227 39.4418C23.4351 39.6809 23.3913 39.9579 23.3913 40.2727C23.3913 40.59 23.4351 40.8705 23.5227 41.1143C23.6127 41.3558 23.7417 41.5452 23.9098 41.6825C24.0803 41.8175 24.2898 41.8849 24.5384 41.8849ZM31.9043 40.6776V37.5455H33.4171V43H31.9647V42.0092H31.9078C31.7847 42.3288 31.58 42.5857 31.2935 42.7798C31.0094 42.974 30.6626 43.071 30.253 43.071C29.8884 43.071 29.5676 42.9882 29.2907 42.8224C29.0137 42.6567 28.7971 42.4212 28.6408 42.1158C28.4869 41.8104 28.4088 41.4446 28.4064 41.0185V37.5455H29.9192V40.7486C29.9216 41.0705 30.008 41.325 30.1784 41.5121C30.3489 41.6991 30.5774 41.7926 30.8638 41.7926C31.0461 41.7926 31.2166 41.7512 31.3752 41.6683C31.5338 41.5831 31.6616 41.4576 31.7587 41.2919C31.8581 41.1262 31.9067 40.9214 31.9043 40.6776ZM37.0916 43.1065C36.5329 43.1065 36.0523 42.9882 35.6499 42.7514C35.2498 42.5123 34.942 42.1809 34.7266 41.7571C34.5135 41.3333 34.407 40.8456 34.407 40.294C34.407 39.7353 34.5147 39.2453 34.7301 38.8239C34.9479 38.4001 35.2569 38.0698 35.657 37.8331C36.0571 37.594 36.5329 37.4744 37.0845 37.4744C37.5604 37.4744 37.977 37.5608 38.3345 37.7337C38.692 37.9065 38.9749 38.1491 39.1832 38.4616C39.3916 38.7741 39.5064 39.1411 39.5277 39.5625H38.1001C38.0599 39.2902 37.9534 39.0713 37.7805 38.9055C37.6101 38.7375 37.3864 38.6534 37.1094 38.6534C36.875 38.6534 36.6702 38.7173 36.495 38.8452C36.3222 38.9706 36.1873 39.1541 36.0902 39.3956C35.9931 39.6371 35.9446 39.9295 35.9446 40.2727C35.9446 40.6207 35.992 40.9167 36.0866 41.1605C36.1837 41.4044 36.3198 41.5902 36.495 41.718C36.6702 41.8459 36.875 41.9098 37.1094 41.9098C37.2822 41.9098 37.4373 41.8743 37.5746 41.8033C37.7143 41.7322 37.8291 41.6293 37.919 41.4943C38.0114 41.357 38.0717 41.1925 38.1001 41.0007H39.5277C39.504 41.4174 39.3904 41.7843 39.1868 42.1016C38.9856 42.4164 38.7074 42.6626 38.3523 42.8402C37.9972 43.0178 37.5769 43.1065 37.0916 43.1065ZM43.3975 37.5455V38.6818H40.1127V37.5455H43.3975ZM40.8585 36.2386H42.3713V41.3239C42.3713 41.4635 42.3926 41.5724 42.4352 41.6506C42.4778 41.7263 42.537 41.7796 42.6127 41.8104C42.6909 41.8411 42.7808 41.8565 42.8826 41.8565C42.9537 41.8565 43.0247 41.8506 43.0957 41.8388C43.1667 41.8246 43.2212 41.8139 43.2591 41.8068L43.497 42.9325C43.4212 42.9562 43.3147 42.9834 43.1774 43.0142C43.0401 43.0473 42.8732 43.0675 42.6767 43.0746C42.3121 43.0888 41.9925 43.0402 41.7179 42.929C41.4456 42.8177 41.2337 42.6449 41.0822 42.4105C40.9307 42.1761 40.8561 41.8802 40.8585 41.5227V36.2386ZM49.5987 37.5455V38.6818H46.3139V37.5455H49.5987ZM47.0597 36.2386H48.5724V41.3239C48.5724 41.4635 48.5938 41.5724 48.6364 41.6506C48.679 41.7263 48.7382 41.7796 48.8139 41.8104C48.892 41.8411 48.982 41.8565 49.0838 41.8565C49.1548 41.8565 49.2259 41.8506 49.2969 41.8388C49.3679 41.8246 49.4223 41.8139 49.4602 41.8068L49.6982 42.9325C49.6224 42.9562 49.5159 42.9834 49.3786 43.0142C49.2412 43.0473 49.0743 43.0675 48.8778 43.0746C48.5133 43.0888 48.1937 43.0402 47.919 42.929C47.6468 42.8177 47.4349 42.6449 47.2834 42.4105C47.1319 42.1761 47.0573 41.8802 47.0597 41.5227V36.2386ZM50.5842 43V37.5455H52.0969V43H50.5842ZM51.3441 36.8423C51.1192 36.8423 50.9263 36.7678 50.7653 36.6186C50.6067 36.4671 50.5273 36.286 50.5273 36.0753C50.5273 35.867 50.6067 35.6882 50.7653 35.5391C50.9263 35.3875 51.1192 35.3118 51.3441 35.3118C51.569 35.3118 51.7608 35.3875 51.9194 35.5391C52.0804 35.6882 52.1609 35.867 52.1609 36.0753C52.1609 36.286 52.0804 36.4671 51.9194 36.6186C51.7608 36.7678 51.569 36.8423 51.3441 36.8423ZM56.21 37.5455V38.6818H52.9252V37.5455H56.21ZM53.671 36.2386H55.1838V41.3239C55.1838 41.4635 55.2051 41.5724 55.2477 41.6506C55.2903 41.7263 55.3495 41.7796 55.4252 41.8104C55.5034 41.8411 55.5933 41.8565 55.6951 41.8565C55.7662 41.8565 55.8372 41.8506 55.9082 41.8388C55.9792 41.8246 56.0337 41.8139 56.0716 41.8068L56.3095 42.9325C56.2337 42.9562 56.1272 42.9834 55.9899 43.0142C55.8526 43.0473 55.6857 43.0675 55.4892 43.0746C55.1246 43.0888 54.805 43.0402 54.5304 42.929C54.2581 42.8177 54.0462 42.6449 53.8947 42.4105C53.7432 42.1761 53.6686 41.8802 53.671 41.5227V36.2386ZM58.8255 35.7273V43H57.3127V35.7273H58.8255ZM62.5231 43.1065C61.962 43.1065 61.479 42.9929 61.0742 42.7656C60.6718 42.536 60.3616 42.2116 60.1438 41.7926C59.926 41.3712 59.8171 40.8729 59.8171 40.2976C59.8171 39.7365 59.926 39.2441 60.1438 38.8203C60.3616 38.3965 60.6682 38.0663 61.0636 37.8295C61.4613 37.5928 61.9277 37.4744 62.4627 37.4744C62.8226 37.4744 63.1576 37.5324 63.4677 37.6484C63.7802 37.7621 64.0524 37.9337 64.2844 38.1634C64.5188 38.393 64.7011 38.6818 64.8313 39.0298C64.9615 39.3755 65.0266 39.7803 65.0266 40.2443V40.6598H60.4208V39.7223H63.6026C63.6026 39.5045 63.5553 39.3116 63.4606 39.1435C63.3659 38.9754 63.2345 38.844 63.0664 38.7493C62.9007 38.6522 62.7077 38.6037 62.4876 38.6037C62.2579 38.6037 62.0543 38.657 61.8768 38.7635C61.7016 38.8677 61.5643 39.0085 61.4648 39.1861C61.3654 39.3613 61.3145 39.5566 61.3121 39.772V40.6634C61.3121 40.9332 61.3619 41.1664 61.4613 41.3629C61.5631 41.5594 61.7063 41.7109 61.891 41.8175C62.0756 41.924 62.2946 41.9773 62.5479 41.9773C62.716 41.9773 62.8699 41.9536 63.0096 41.9062C63.1493 41.8589 63.2688 41.7879 63.3683 41.6932C63.4677 41.5985 63.5434 41.4825 63.5955 41.3452L64.9947 41.4375C64.9237 41.7737 64.7781 42.0672 64.5579 42.3182C64.3401 42.5668 64.0584 42.7609 63.7127 42.9006C63.3694 43.0379 62.9729 43.1065 62.5231 43.1065Z" fill="#8649E1"/>
<rect x="23" y="52" width="20" height="6" rx="3" fill="#DCB8FF"/>
<rect x="47" y="52" width="16" height="6" rx="3" fill="#DCB8FF"/>
<rect x="5" y="52" width="14" height="6" rx="3" fill="#DCB8FF"/>
</svg>
