<svg width="80" height="80" viewBox="0 0 80 80" fill="none" xmlns="http://www.w3.org/2000/svg">
<rect width="80" height="80" fill="white"/>
<circle cx="14" cy="40" r="9.5" stroke="#DCB8FF"/>
<circle cx="14" cy="40" r="5" fill="#8649E1"/>
<path d="M38.4588 38.3281H36.5923C36.5582 38.0866 36.4886 37.8722 36.3835 37.6847C36.2784 37.4943 36.1435 37.3324 35.9787 37.1989C35.8139 37.0653 35.6236 36.9631 35.4077 36.892C35.1946 36.821 34.9631 36.7855 34.7131 36.7855C34.2614 36.7855 33.8679 36.8977 33.5327 37.1222C33.1974 37.3437 32.9375 37.6676 32.7528 38.0938C32.5682 38.517 32.4759 39.0312 32.4759 39.6364C32.4759 40.2585 32.5682 40.7812 32.7528 41.2045C32.9403 41.6278 33.2017 41.9474 33.5369 42.1634C33.8722 42.3793 34.2599 42.4872 34.7003 42.4872C34.9474 42.4872 35.1761 42.4545 35.3864 42.3892C35.5994 42.3239 35.7884 42.2287 35.9531 42.1037C36.1179 41.9759 36.2543 41.821 36.3622 41.6392C36.473 41.4574 36.5497 41.25 36.5923 41.017L38.4588 41.0256C38.4105 41.4261 38.2898 41.8125 38.0966 42.1847C37.9063 42.554 37.6491 42.8849 37.3253 43.1776C37.0043 43.4673 36.6207 43.6974 36.1747 43.8679C35.7315 44.0355 35.2301 44.1193 34.6705 44.1193C33.892 44.1193 33.196 43.9432 32.5824 43.5909C31.9716 43.2386 31.4886 42.7287 31.1335 42.0611C30.7812 41.3935 30.6051 40.5852 30.6051 39.6364C30.6051 38.6847 30.7841 37.875 31.142 37.2074C31.5 36.5398 31.9858 36.0312 32.5994 35.6818C33.2131 35.3295 33.9034 35.1534 34.6705 35.1534C35.1761 35.1534 35.6449 35.2244 36.0767 35.3665C36.5114 35.5085 36.8963 35.7159 37.2315 35.9886C37.5668 36.2585 37.8395 36.5895 38.0497 36.9815C38.2628 37.3736 38.3991 37.8224 38.4588 38.3281ZM41.5632 40.2159V44H39.7479V35.2727H41.5121V38.6094H41.5888C41.7365 38.223 41.9751 37.9205 42.3047 37.7017C42.6342 37.4801 43.0476 37.3693 43.5447 37.3693C43.9993 37.3693 44.3956 37.4688 44.7337 37.6676C45.0746 37.8636 45.3388 38.1463 45.5263 38.5156C45.7166 38.8821 45.8104 39.321 45.8075 39.8324V44H43.9922V40.1562C43.995 39.7528 43.8928 39.4389 43.6854 39.2145C43.4808 38.9901 43.1939 38.8778 42.8246 38.8778C42.5774 38.8778 42.3587 38.9304 42.1683 39.0355C41.9808 39.1406 41.8331 39.294 41.7251 39.4957C41.62 39.6946 41.5661 39.9347 41.5632 40.2159ZM50.1935 44.1278C49.5316 44.1278 48.9592 43.9872 48.4762 43.706C47.9961 43.4219 47.6254 43.027 47.364 42.5213C47.1026 42.0128 46.9719 41.4233 46.9719 40.7528C46.9719 40.0767 47.1026 39.4858 47.364 38.9801C47.6254 38.4716 47.9961 38.0767 48.4762 37.7955C48.9592 37.5114 49.5316 37.3693 50.1935 37.3693C50.8555 37.3693 51.4265 37.5114 51.9066 37.7955C52.3896 38.0767 52.7617 38.4716 53.0231 38.9801C53.2844 39.4858 53.4151 40.0767 53.4151 40.7528C53.4151 41.4233 53.2844 42.0128 53.0231 42.5213C52.7617 43.027 52.3896 43.4219 51.9066 43.706C51.4265 43.9872 50.8555 44.1278 50.1935 44.1278ZM50.2021 42.7216C50.5032 42.7216 50.7546 42.6364 50.9563 42.4659C51.158 42.2926 51.31 42.0568 51.4123 41.7585C51.5174 41.4602 51.57 41.1207 51.57 40.7401C51.57 40.3594 51.5174 40.0199 51.4123 39.7216C51.31 39.4233 51.158 39.1875 50.9563 39.0142C50.7546 38.8409 50.5032 38.7543 50.2021 38.7543C49.8981 38.7543 49.6424 38.8409 49.435 39.0142C49.2305 39.1875 49.0756 39.4233 48.9705 39.7216C48.8683 40.0199 48.8171 40.3594 48.8171 40.7401C48.8171 41.1207 48.8683 41.4602 48.9705 41.7585C49.0756 42.0568 49.2305 42.2926 49.435 42.4659C49.6424 42.6364 49.8981 42.7216 50.2021 42.7216ZM57.5529 44.1278C56.891 44.1278 56.3185 43.9872 55.8356 43.706C55.3555 43.4219 54.9847 43.027 54.7234 42.5213C54.462 42.0128 54.3313 41.4233 54.3313 40.7528C54.3313 40.0767 54.462 39.4858 54.7234 38.9801C54.9847 38.4716 55.3555 38.0767 55.8356 37.7955C56.3185 37.5114 56.891 37.3693 57.5529 37.3693C58.2148 37.3693 58.7859 37.5114 59.266 37.7955C59.7489 38.0767 60.1211 38.4716 60.3825 38.9801C60.6438 39.4858 60.7745 40.0767 60.7745 40.7528C60.7745 41.4233 60.6438 42.0128 60.3825 42.5213C60.1211 43.027 59.7489 43.4219 59.266 43.706C58.7859 43.9872 58.2148 44.1278 57.5529 44.1278ZM57.5614 42.7216C57.8626 42.7216 58.114 42.6364 58.3157 42.4659C58.5174 42.2926 58.6694 42.0568 58.7717 41.7585C58.8768 41.4602 58.9293 41.1207 58.9293 40.7401C58.9293 40.3594 58.8768 40.0199 58.7717 39.7216C58.6694 39.4233 58.5174 39.1875 58.3157 39.0142C58.114 38.8409 57.8626 38.7543 57.5614 38.7543C57.2575 38.7543 57.0018 38.8409 56.7944 39.0142C56.5898 39.1875 56.435 39.4233 56.3299 39.7216C56.2276 40.0199 56.1765 40.3594 56.1765 40.7401C56.1765 41.1207 56.2276 41.4602 56.3299 41.7585C56.435 42.0568 56.5898 42.2926 56.7944 42.4659C57.0018 42.6364 57.2575 42.7216 57.5614 42.7216ZM67.4009 39.321L65.739 39.4233C65.7106 39.2812 65.6495 39.1534 65.5558 39.0398C65.462 38.9233 65.3384 38.831 65.185 38.7628C65.0344 38.6918 64.854 38.6562 64.6438 38.6562C64.3626 38.6562 64.1254 38.7159 63.9322 38.8352C63.739 38.9517 63.6424 39.108 63.6424 39.304C63.6424 39.4602 63.7049 39.5923 63.8299 39.7003C63.9549 39.8082 64.1694 39.8949 64.4734 39.9602L65.658 40.1989C66.2944 40.3295 66.7688 40.5398 67.0813 40.8295C67.3938 41.1193 67.5501 41.5 67.5501 41.9716C67.5501 42.4006 67.4237 42.777 67.1708 43.1009C66.9208 43.4247 66.5771 43.6776 66.1396 43.8594C65.7049 44.0384 65.2035 44.1278 64.6353 44.1278C63.7688 44.1278 63.0785 43.9474 62.5643 43.5866C62.0529 43.223 61.7532 42.7287 61.6651 42.1037L63.4506 42.0099C63.5046 42.2741 63.6353 42.4759 63.8427 42.6151C64.0501 42.7514 64.3157 42.8196 64.6396 42.8196C64.9577 42.8196 65.2134 42.7585 65.4066 42.6364C65.6026 42.5114 65.7021 42.3509 65.7049 42.1548C65.7021 41.9901 65.6325 41.8551 65.4961 41.75C65.3597 41.642 65.1495 41.5597 64.8654 41.5028L63.7319 41.277C63.0927 41.1491 62.6168 40.9276 62.3043 40.6122C61.9947 40.2969 61.8398 39.8949 61.8398 39.4062C61.8398 38.9858 61.9535 38.6236 62.1808 38.3196C62.4109 38.0156 62.7333 37.7812 63.1481 37.6165C63.5657 37.4517 64.0543 37.3693 64.614 37.3693C65.4407 37.3693 66.0913 37.544 66.5657 37.8935C67.043 38.2429 67.3214 38.7187 67.4009 39.321ZM71.6761 44.1278C71.0028 44.1278 70.4233 43.9915 69.9375 43.7188C69.4545 43.4432 69.0824 43.054 68.821 42.5511C68.5597 42.0455 68.429 41.4474 68.429 40.7571C68.429 40.0838 68.5597 39.4929 68.821 38.9844C69.0824 38.4759 69.4503 38.0795 69.9247 37.7955C70.402 37.5114 70.9616 37.3693 71.6037 37.3693C72.0355 37.3693 72.4375 37.4389 72.8097 37.5781C73.1847 37.7145 73.5114 37.9205 73.7898 38.196C74.071 38.4716 74.2898 38.8182 74.446 39.2358C74.6023 39.6506 74.6804 40.1364 74.6804 40.6932V41.1918H69.1534V40.0668H72.9716C72.9716 39.8054 72.9148 39.5739 72.8011 39.3722C72.6875 39.1705 72.5298 39.0128 72.3281 38.8991C72.1293 38.7827 71.8977 38.7244 71.6335 38.7244C71.358 38.7244 71.1136 38.7884 70.9006 38.9162C70.6903 39.0412 70.5256 39.2102 70.4062 39.4233C70.2869 39.6335 70.2259 39.8679 70.223 40.1264V41.196C70.223 41.5199 70.2827 41.7997 70.402 42.0355C70.5241 42.2713 70.696 42.4531 70.9176 42.581C71.1392 42.7088 71.402 42.7727 71.706 42.7727C71.9077 42.7727 72.0923 42.7443 72.2599 42.6875C72.4276 42.6307 72.571 42.5455 72.6903 42.4318C72.8097 42.3182 72.9006 42.179 72.9631 42.0142L74.642 42.125C74.5568 42.5284 74.3821 42.8807 74.1179 43.1818C73.8565 43.4801 73.5185 43.7131 73.1037 43.8807C72.6918 44.0455 72.2159 44.1278 71.6761 44.1278Z" fill="#8649E1"/>
</svg>
