<svg width="100" height="100" viewBox="0 0 100 100" fill="none" xmlns="http://www.w3.org/2000/svg">
<rect width="100" height="100" fill="white"/>
<circle cx="24" cy="50" r="9.5" stroke="#DCB8FF"/>
<circle cx="24" cy="50" r="5" fill="#8649E1"/>
<path d="M48.4588 48.3281H46.5923C46.5582 48.0866 46.4886 47.8722 46.3835 47.6847C46.2784 47.4943 46.1435 47.3324 45.9787 47.1989C45.8139 47.0653 45.6236 46.9631 45.4077 46.892C45.1946 46.821 44.9631 46.7855 44.7131 46.7855C44.2614 46.7855 43.8679 46.8977 43.5327 47.1222C43.1974 47.3437 42.9375 47.6676 42.7528 48.0938C42.5682 48.517 42.4759 49.0312 42.4759 49.6364C42.4759 50.2585 42.5682 50.7812 42.7528 51.2045C42.9403 51.6278 43.2017 51.9474 43.5369 52.1634C43.8722 52.3793 44.2599 52.4872 44.7003 52.4872C44.9474 52.4872 45.1761 52.4545 45.3864 52.3892C45.5994 52.3239 45.7884 52.2287 45.9531 52.1037C46.1179 51.9759 46.2543 51.821 46.3622 51.6392C46.473 51.4574 46.5497 51.25 46.5923 51.017L48.4588 51.0256C48.4105 51.4261 48.2898 51.8125 48.0966 52.1847C47.9063 52.554 47.6491 52.8849 47.3253 53.1776C47.0043 53.4673 46.6207 53.6974 46.1747 53.8679C45.7315 54.0355 45.2301 54.1193 44.6705 54.1193C43.892 54.1193 43.196 53.9432 42.5824 53.5909C41.9716 53.2386 41.4886 52.7287 41.1335 52.0611C40.7812 51.3935 40.6051 50.5852 40.6051 49.6364C40.6051 48.6847 40.7841 47.875 41.142 47.2074C41.5 46.5398 41.9858 46.0312 42.5994 45.6818C43.2131 45.3295 43.9034 45.1534 44.6705 45.1534C45.1761 45.1534 45.6449 45.2244 46.0767 45.3665C46.5114 45.5085 46.8963 45.7159 47.2315 45.9886C47.5668 46.2585 47.8395 46.5895 48.0497 46.9815C48.2628 47.3736 48.3991 47.8224 48.4588 48.3281ZM51.5632 50.2159V54H49.7479V45.2727H51.5121V48.6094H51.5888C51.7365 48.223 51.9751 47.9205 52.3047 47.7017C52.6342 47.4801 53.0476 47.3693 53.5447 47.3693C53.9993 47.3693 54.3956 47.4688 54.7337 47.6676C55.0746 47.8636 55.3388 48.1463 55.5263 48.5156C55.7166 48.8821 55.8104 49.321 55.8075 49.8324V54H53.9922V50.1562C53.995 49.7528 53.8928 49.4389 53.6854 49.2145C53.4808 48.9901 53.1939 48.8778 52.8246 48.8778C52.5774 48.8778 52.3587 48.9304 52.1683 49.0355C51.9808 49.1406 51.8331 49.294 51.7251 49.4957C51.62 49.6946 51.5661 49.9347 51.5632 50.2159ZM60.1935 54.1278C59.5316 54.1278 58.9592 53.9872 58.4762 53.706C57.9961 53.4219 57.6254 53.027 57.364 52.5213C57.1026 52.0128 56.9719 51.4233 56.9719 50.7528C56.9719 50.0767 57.1026 49.4858 57.364 48.9801C57.6254 48.4716 57.9961 48.0767 58.4762 47.7955C58.9592 47.5114 59.5316 47.3693 60.1935 47.3693C60.8555 47.3693 61.4265 47.5114 61.9066 47.7955C62.3896 48.0767 62.7617 48.4716 63.0231 48.9801C63.2844 49.4858 63.4151 50.0767 63.4151 50.7528C63.4151 51.4233 63.2844 52.0128 63.0231 52.5213C62.7617 53.027 62.3896 53.4219 61.9066 53.706C61.4265 53.9872 60.8555 54.1278 60.1935 54.1278ZM60.2021 52.7216C60.5032 52.7216 60.7546 52.6364 60.9563 52.4659C61.158 52.2926 61.31 52.0568 61.4123 51.7585C61.5174 51.4602 61.57 51.1207 61.57 50.7401C61.57 50.3594 61.5174 50.0199 61.4123 49.7216C61.31 49.4233 61.158 49.1875 60.9563 49.0142C60.7546 48.8409 60.5032 48.7543 60.2021 48.7543C59.8981 48.7543 59.6424 48.8409 59.435 49.0142C59.2305 49.1875 59.0756 49.4233 58.9705 49.7216C58.8683 50.0199 58.8171 50.3594 58.8171 50.7401C58.8171 51.1207 58.8683 51.4602 58.9705 51.7585C59.0756 52.0568 59.2305 52.2926 59.435 52.4659C59.6424 52.6364 59.8981 52.7216 60.2021 52.7216ZM67.5529 54.1278C66.891 54.1278 66.3185 53.9872 65.8356 53.706C65.3555 53.4219 64.9847 53.027 64.7234 52.5213C64.462 52.0128 64.3313 51.4233 64.3313 50.7528C64.3313 50.0767 64.462 49.4858 64.7234 48.9801C64.9847 48.4716 65.3555 48.0767 65.8356 47.7955C66.3185 47.5114 66.891 47.3693 67.5529 47.3693C68.2148 47.3693 68.7859 47.5114 69.266 47.7955C69.7489 48.0767 70.1211 48.4716 70.3825 48.9801C70.6438 49.4858 70.7745 50.0767 70.7745 50.7528C70.7745 51.4233 70.6438 52.0128 70.3825 52.5213C70.1211 53.027 69.7489 53.4219 69.266 53.706C68.7859 53.9872 68.2148 54.1278 67.5529 54.1278ZM67.5614 52.7216C67.8626 52.7216 68.114 52.6364 68.3157 52.4659C68.5174 52.2926 68.6694 52.0568 68.7717 51.7585C68.8768 51.4602 68.9293 51.1207 68.9293 50.7401C68.9293 50.3594 68.8768 50.0199 68.7717 49.7216C68.6694 49.4233 68.5174 49.1875 68.3157 49.0142C68.114 48.8409 67.8626 48.7543 67.5614 48.7543C67.2575 48.7543 67.0018 48.8409 66.7944 49.0142C66.5898 49.1875 66.435 49.4233 66.3299 49.7216C66.2276 50.0199 66.1765 50.3594 66.1765 50.7401C66.1765 51.1207 66.2276 51.4602 66.3299 51.7585C66.435 52.0568 66.5898 52.2926 66.7944 52.4659C67.0018 52.6364 67.2575 52.7216 67.5614 52.7216ZM77.4009 49.321L75.739 49.4233C75.7106 49.2812 75.6495 49.1534 75.5558 49.0398C75.462 48.9233 75.3384 48.831 75.185 48.7628C75.0344 48.6918 74.854 48.6562 74.6438 48.6562C74.3626 48.6562 74.1254 48.7159 73.9322 48.8352C73.739 48.9517 73.6424 49.108 73.6424 49.304C73.6424 49.4602 73.7049 49.5923 73.8299 49.7003C73.9549 49.8082 74.1694 49.8949 74.4734 49.9602L75.658 50.1989C76.2944 50.3295 76.7688 50.5398 77.0813 50.8295C77.3938 51.1193 77.5501 51.5 77.5501 51.9716C77.5501 52.4006 77.4237 52.777 77.1708 53.1009C76.9208 53.4247 76.5771 53.6776 76.1396 53.8594C75.7049 54.0384 75.2035 54.1278 74.6353 54.1278C73.7688 54.1278 73.0785 53.9474 72.5643 53.5866C72.0529 53.223 71.7532 52.7287 71.6651 52.1037L73.4506 52.0099C73.5046 52.2741 73.6353 52.4759 73.8427 52.6151C74.0501 52.7514 74.3157 52.8196 74.6396 52.8196C74.9577 52.8196 75.2134 52.7585 75.4066 52.6364C75.6026 52.5114 75.7021 52.3509 75.7049 52.1548C75.7021 51.9901 75.6325 51.8551 75.4961 51.75C75.3597 51.642 75.1495 51.5597 74.8654 51.5028L73.7319 51.277C73.0927 51.1491 72.6168 50.9276 72.3043 50.6122C71.9947 50.2969 71.8398 49.8949 71.8398 49.4062C71.8398 48.9858 71.9535 48.6236 72.1808 48.3196C72.4109 48.0156 72.7333 47.7812 73.1481 47.6165C73.5657 47.4517 74.0543 47.3693 74.614 47.3693C75.4407 47.3693 76.0913 47.544 76.5657 47.8935C77.043 48.2429 77.3214 48.7187 77.4009 49.321ZM81.6761 54.1278C81.0028 54.1278 80.4233 53.9915 79.9375 53.7188C79.4545 53.4432 79.0824 53.054 78.821 52.5511C78.5597 52.0455 78.429 51.4474 78.429 50.7571C78.429 50.0838 78.5597 49.4929 78.821 48.9844C79.0824 48.4759 79.4503 48.0795 79.9247 47.7955C80.402 47.5114 80.9616 47.3693 81.6037 47.3693C82.0355 47.3693 82.4375 47.4389 82.8097 47.5781C83.1847 47.7145 83.5114 47.9205 83.7898 48.196C84.071 48.4716 84.2898 48.8182 84.446 49.2358C84.6023 49.6506 84.6804 50.1364 84.6804 50.6932V51.1918H79.1534V50.0668H82.9716C82.9716 49.8054 82.9148 49.5739 82.8011 49.3722C82.6875 49.1705 82.5298 49.0128 82.3281 48.8991C82.1293 48.7827 81.8977 48.7244 81.6335 48.7244C81.358 48.7244 81.1136 48.7884 80.9006 48.9162C80.6903 49.0412 80.5256 49.2102 80.4062 49.4233C80.2869 49.6335 80.2259 49.8679 80.223 50.1264V51.196C80.223 51.5199 80.2827 51.7997 80.402 52.0355C80.5241 52.2713 80.696 52.4531 80.9176 52.581C81.1392 52.7088 81.402 52.7727 81.706 52.7727C81.9077 52.7727 82.0923 52.7443 82.2599 52.6875C82.4276 52.6307 82.571 52.5455 82.6903 52.4318C82.8097 52.3182 82.9006 52.179 82.9631 52.0142L84.642 52.125C84.5568 52.5284 84.3821 52.8807 84.1179 53.1818C83.8565 53.4801 83.5185 53.7131 83.1037 53.8807C82.6918 54.0455 82.2159 54.1278 81.6761 54.1278Z" fill="#8649E1"/>
</svg>
