<svg width="100" height="100" viewBox="0 0 100 100" fill="none" xmlns="http://www.w3.org/2000/svg">
<rect width="100" height="100" fill="white"/>
<rect x="9.5" y="8.5" width="81" height="27" rx="3.5" fill="#F9F2FF" stroke="#8649E1"/>
<path fill-rule="evenodd" clip-rule="evenodd" d="M73.2929 20.2929C73.6834 19.9024 74.3166 19.9024 74.7071 20.2929L78 23.5858L81.2929 20.2929C81.6834 19.9024 82.3166 19.9024 82.7071 20.2929C83.0976 20.6834 83.0976 21.3166 82.7071 21.7071L78.7071 25.7071C78.3166 26.0976 77.6834 26.0976 77.2929 25.7071L73.2929 21.7071C72.9024 21.3166 72.9024 20.6834 73.2929 20.2929Z" fill="#8649E1"/>
<path d="M26.4929 19.7827C26.4588 19.4389 26.3125 19.1719 26.054 18.9815C25.7955 18.7912 25.4446 18.696 25.0014 18.696C24.7003 18.696 24.446 18.7386 24.2386 18.8239C24.0313 18.9062 23.8722 19.0213 23.7614 19.169C23.6534 19.3168 23.5994 19.4844 23.5994 19.6719C23.5938 19.8281 23.6264 19.9645 23.6974 20.081C23.7713 20.1974 23.8722 20.2983 24 20.3835C24.1278 20.4659 24.2756 20.5384 24.4432 20.6009C24.6108 20.6605 24.7898 20.7116 24.9801 20.7543L25.7642 20.9418C26.1449 21.027 26.4943 21.1406 26.8125 21.2827C27.1307 21.4247 27.4063 21.5994 27.6392 21.8068C27.8722 22.0142 28.0526 22.2585 28.1804 22.5398C28.3111 22.821 28.3778 23.1435 28.3807 23.5071C28.3778 24.0412 28.2415 24.5043 27.9716 24.8963C27.7045 25.2855 27.3182 25.5881 26.8125 25.804C26.3097 26.017 25.7031 26.1236 24.9929 26.1236C24.2884 26.1236 23.6747 26.0156 23.152 25.7997C22.6321 25.5838 22.2259 25.2642 21.9332 24.8409C21.6435 24.4148 21.4915 23.8878 21.4773 23.2599H23.2628C23.2827 23.5526 23.3665 23.7969 23.5142 23.9929C23.6648 24.1861 23.8651 24.3324 24.1151 24.4318C24.3679 24.5284 24.6534 24.5767 24.9716 24.5767C25.2841 24.5767 25.5554 24.5312 25.7855 24.4403C26.0185 24.3494 26.1989 24.223 26.3267 24.0611C26.4545 23.8991 26.5185 23.7131 26.5185 23.5028C26.5185 23.3068 26.4602 23.142 26.3438 23.0085C26.2301 22.875 26.0625 22.7614 25.8409 22.6676C25.6222 22.5739 25.3537 22.4886 25.0355 22.4119L24.0852 22.1733C23.3494 21.9943 22.7685 21.7145 22.3423 21.3338C21.9162 20.9531 21.7045 20.4403 21.7074 19.7955C21.7045 19.267 21.8452 18.8054 22.1293 18.4105C22.4162 18.0156 22.8097 17.7074 23.3097 17.4858C23.8097 17.2642 24.3778 17.1534 25.0142 17.1534C25.6619 17.1534 26.2273 17.2642 26.7102 17.4858C27.196 17.7074 27.5739 18.0156 27.8438 18.4105C28.1136 18.8054 28.2528 19.2628 28.2614 19.7827H26.4929ZM32.5707 26.1278C31.8974 26.1278 31.3178 25.9915 30.832 25.7188C30.3491 25.4432 29.9769 25.054 29.7156 24.5511C29.4542 24.0455 29.3235 23.4474 29.3235 22.7571C29.3235 22.0838 29.4542 21.4929 29.7156 20.9844C29.9769 20.4759 30.3448 20.0795 30.8192 19.7955C31.2965 19.5114 31.8562 19.3693 32.4982 19.3693C32.93 19.3693 33.332 19.4389 33.7042 19.5781C34.0792 19.7145 34.4059 19.9205 34.6843 20.196C34.9656 20.4716 35.1843 20.8182 35.3406 21.2358C35.4968 21.6506 35.5749 22.1364 35.5749 22.6932V23.1918H30.0479V22.0668H33.8661C33.8661 21.8054 33.8093 21.5739 33.6957 21.3722C33.582 21.1705 33.4244 21.0128 33.2227 20.8991C33.0238 20.7827 32.7923 20.7244 32.5281 20.7244C32.2525 20.7244 32.0082 20.7884 31.7951 20.9162C31.5849 21.0412 31.4201 21.2102 31.3008 21.4233C31.1815 21.6335 31.1204 21.8679 31.1175 22.1264V23.196C31.1175 23.5199 31.1772 23.7997 31.2965 24.0355C31.4187 24.2713 31.5906 24.4531 31.8121 24.581C32.0337 24.7088 32.2965 24.7727 32.6005 24.7727C32.8022 24.7727 32.9869 24.7443 33.1545 24.6875C33.3221 24.6307 33.4656 24.5455 33.5849 24.4318C33.7042 24.3182 33.7951 24.179 33.8576 24.0142L35.5366 24.125C35.4513 24.5284 35.2766 24.8807 35.0124 25.1818C34.7511 25.4801 34.413 25.7131 33.9982 25.8807C33.5863 26.0455 33.1104 26.1278 32.5707 26.1278ZM38.5749 17.2727V26H36.7596V17.2727H38.5749ZM43.0121 26.1278C42.3388 26.1278 41.7592 25.9915 41.2734 25.7188C40.7905 25.4432 40.4183 25.054 40.157 24.5511C39.8956 24.0455 39.7649 23.4474 39.7649 22.7571C39.7649 22.0838 39.8956 21.4929 40.157 20.9844C40.4183 20.4759 40.7862 20.0795 41.2607 19.7955C41.7379 19.5114 42.2976 19.3693 42.9396 19.3693C43.3714 19.3693 43.7734 19.4389 44.1456 19.5781C44.5206 19.7145 44.8473 19.9205 45.1257 20.196C45.407 20.4716 45.6257 20.8182 45.782 21.2358C45.9382 21.6506 46.0163 22.1364 46.0163 22.6932V23.1918H40.4893V22.0668H44.3075C44.3075 21.8054 44.2507 21.5739 44.1371 21.3722C44.0234 21.1705 43.8658 21.0128 43.6641 20.8991C43.4652 20.7827 43.2337 20.7244 42.9695 20.7244C42.6939 20.7244 42.4496 20.7884 42.2365 20.9162C42.0263 21.0412 41.8615 21.2102 41.7422 21.4233C41.6229 21.6335 41.5618 21.8679 41.5589 22.1264V23.196C41.5589 23.5199 41.6186 23.7997 41.7379 24.0355C41.8601 24.2713 42.032 24.4531 42.2536 24.581C42.4751 24.7088 42.7379 24.7727 43.0419 24.7727C43.2436 24.7727 43.4283 24.7443 43.5959 24.6875C43.7635 24.6307 43.907 24.5455 44.0263 24.4318C44.1456 24.3182 44.2365 24.179 44.299 24.0142L45.978 24.125C45.8928 24.5284 45.718 24.8807 45.4538 25.1818C45.1925 25.4801 44.8544 25.7131 44.4396 25.8807C44.0277 26.0455 43.5518 26.1278 43.0121 26.1278ZM50.1584 26.1278C49.4879 26.1278 48.9112 25.9858 48.4283 25.7017C47.9482 25.4148 47.5788 25.017 47.3203 24.5085C47.0646 24 46.9368 23.4148 46.9368 22.7528C46.9368 22.0824 47.0661 21.4943 47.3246 20.9886C47.5859 20.4801 47.9567 20.0838 48.4368 19.7997C48.9169 19.5128 49.4879 19.3693 50.1499 19.3693C50.7209 19.3693 51.2209 19.473 51.6499 19.6804C52.0788 19.8878 52.4183 20.179 52.6683 20.554C52.9183 20.929 53.0561 21.3693 53.0817 21.875H51.3686C51.3203 21.5483 51.1925 21.2855 50.9851 21.0866C50.7805 20.8849 50.5121 20.7841 50.1797 20.7841C49.8984 20.7841 49.6527 20.8608 49.4425 21.0142C49.2351 21.1648 49.0732 21.3849 48.9567 21.6747C48.8402 21.9645 48.782 22.3153 48.782 22.7273C48.782 23.1449 48.8388 23.5 48.9524 23.7926C49.0689 24.0852 49.2322 24.3082 49.4425 24.4616C49.6527 24.6151 49.8984 24.6918 50.1797 24.6918C50.3871 24.6918 50.5732 24.6491 50.7379 24.5639C50.9055 24.4787 51.0433 24.3551 51.1513 24.1932C51.2621 24.0284 51.3345 23.831 51.3686 23.6009H53.0817C53.0533 24.1009 52.9169 24.5412 52.6726 24.9219C52.4311 25.2997 52.0973 25.5952 51.6712 25.8082C51.245 26.0213 50.7408 26.1278 50.1584 26.1278ZM57.7255 19.4545V20.8182H53.7837V19.4545H57.7255ZM54.6786 17.8864H56.494V23.9886C56.494 24.1562 56.5195 24.2869 56.5707 24.3807C56.6218 24.4716 56.6928 24.5355 56.7837 24.5724C56.8775 24.6094 56.9854 24.6278 57.1076 24.6278C57.1928 24.6278 57.2781 24.6207 57.3633 24.6065C57.4485 24.5895 57.5138 24.5767 57.5593 24.5682L57.8448 25.919C57.7539 25.9474 57.6261 25.9801 57.4613 26.017C57.2965 26.0568 57.0962 26.081 56.8604 26.0895C56.4229 26.1065 56.0394 26.0483 55.7099 25.9148C55.3832 25.7812 55.1289 25.5739 54.9471 25.2926C54.7653 25.0114 54.6758 24.6562 54.6786 24.2273V17.8864Z" fill="#8649E1"/>
<rect x="9.5" y="40.5" width="81" height="51" rx="3.5" stroke="#8649E1"/>
<rect x="21" y="46" width="50" height="6" rx="3" fill="#EDD9FF"/>
<rect x="21" y="63" width="58" height="6" rx="3" fill="#EDD9FF"/>
<rect x="21" y="80" width="34" height="6" rx="3" fill="#EDD9FF"/>
<rect x="10" y="57" width="80" height="1" fill="#DCB8FF"/>
<rect x="10" y="74" width="80" height="1" fill="#DCB8FF"/>
</svg>
