<svg width="80" height="80" viewBox="0 0 80 80" fill="none" xmlns="http://www.w3.org/2000/svg">
<rect width="80" height="80" fill="white"/>
<rect x="5.5" y="7.5" width="69" height="27" rx="3.5" fill="#F9F2FF" stroke="#8649E1"/>
<path fill-rule="evenodd" clip-rule="evenodd" d="M59.2929 19.2929C59.6834 18.9024 60.3166 18.9024 60.7071 19.2929L64 22.5858L67.2929 19.2929C67.6834 18.9024 68.3166 18.9024 68.7071 19.2929C69.0976 19.6834 69.0976 20.3166 68.7071 20.7071L64.7071 24.7071C64.3166 25.0976 63.6834 25.0976 63.2929 24.7071L59.2929 20.7071C58.9024 20.3166 58.9024 19.6834 59.2929 19.2929Z" fill="#8649E1"/>
<path d="M18.4929 18.7827C18.4588 18.4389 18.3125 18.1719 18.054 17.9815C17.7955 17.7912 17.4446 17.696 17.0014 17.696C16.7003 17.696 16.446 17.7386 16.2386 17.8239C16.0313 17.9062 15.8722 18.0213 15.7614 18.169C15.6534 18.3168 15.5994 18.4844 15.5994 18.6719C15.5938 18.8281 15.6264 18.9645 15.6974 19.081C15.7713 19.1974 15.8722 19.2983 16 19.3835C16.1278 19.4659 16.2756 19.5384 16.4432 19.6009C16.6108 19.6605 16.7898 19.7116 16.9801 19.7543L17.7642 19.9418C18.1449 20.027 18.4943 20.1406 18.8125 20.2827C19.1307 20.4247 19.4063 20.5994 19.6392 20.8068C19.8722 21.0142 20.0526 21.2585 20.1804 21.5398C20.3111 21.821 20.3778 22.1435 20.3807 22.5071C20.3778 23.0412 20.2415 23.5043 19.9716 23.8963C19.7045 24.2855 19.3182 24.5881 18.8125 24.804C18.3097 25.017 17.7031 25.1236 16.9929 25.1236C16.2884 25.1236 15.6747 25.0156 15.152 24.7997C14.6321 24.5838 14.2259 24.2642 13.9332 23.8409C13.6435 23.4148 13.4915 22.8878 13.4773 22.2599H15.2628C15.2827 22.5526 15.3665 22.7969 15.5142 22.9929C15.6648 23.1861 15.8651 23.3324 16.1151 23.4318C16.3679 23.5284 16.6534 23.5767 16.9716 23.5767C17.2841 23.5767 17.5554 23.5312 17.7855 23.4403C18.0185 23.3494 18.1989 23.223 18.3267 23.0611C18.4545 22.8991 18.5185 22.7131 18.5185 22.5028C18.5185 22.3068 18.4602 22.142 18.3438 22.0085C18.2301 21.875 18.0625 21.7614 17.8409 21.6676C17.6222 21.5739 17.3537 21.4886 17.0355 21.4119L16.0852 21.1733C15.3494 20.9943 14.7685 20.7145 14.3423 20.3338C13.9162 19.9531 13.7045 19.4403 13.7074 18.7955C13.7045 18.267 13.8452 17.8054 14.1293 17.4105C14.4162 17.0156 14.8097 16.7074 15.3097 16.4858C15.8097 16.2642 16.3778 16.1534 17.0142 16.1534C17.6619 16.1534 18.2273 16.2642 18.7102 16.4858C19.196 16.7074 19.5739 17.0156 19.8438 17.4105C20.1136 17.8054 20.2528 18.2628 20.2614 18.7827H18.4929ZM24.5707 25.1278C23.8974 25.1278 23.3178 24.9915 22.832 24.7188C22.3491 24.4432 21.9769 24.054 21.7156 23.5511C21.4542 23.0455 21.3235 22.4474 21.3235 21.7571C21.3235 21.0838 21.4542 20.4929 21.7156 19.9844C21.9769 19.4759 22.3448 19.0795 22.8192 18.7955C23.2965 18.5114 23.8562 18.3693 24.4982 18.3693C24.93 18.3693 25.332 18.4389 25.7042 18.5781C26.0792 18.7145 26.4059 18.9205 26.6843 19.196C26.9656 19.4716 27.1843 19.8182 27.3406 20.2358C27.4968 20.6506 27.5749 21.1364 27.5749 21.6932V22.1918H22.0479V21.0668H25.8661C25.8661 20.8054 25.8093 20.5739 25.6957 20.3722C25.582 20.1705 25.4244 20.0128 25.2227 19.8991C25.0238 19.7827 24.7923 19.7244 24.5281 19.7244C24.2525 19.7244 24.0082 19.7884 23.7951 19.9162C23.5849 20.0412 23.4201 20.2102 23.3008 20.4233C23.1815 20.6335 23.1204 20.8679 23.1175 21.1264V22.196C23.1175 22.5199 23.1772 22.7997 23.2965 23.0355C23.4187 23.2713 23.5906 23.4531 23.8121 23.581C24.0337 23.7088 24.2965 23.7727 24.6005 23.7727C24.8022 23.7727 24.9869 23.7443 25.1545 23.6875C25.3221 23.6307 25.4656 23.5455 25.5849 23.4318C25.7042 23.3182 25.7951 23.179 25.8576 23.0142L27.5366 23.125C27.4513 23.5284 27.2766 23.8807 27.0124 24.1818C26.7511 24.4801 26.413 24.7131 25.9982 24.8807C25.5863 25.0455 25.1104 25.1278 24.5707 25.1278ZM30.5749 16.2727V25H28.7596V16.2727H30.5749ZM35.0121 25.1278C34.3388 25.1278 33.7592 24.9915 33.2734 24.7188C32.7905 24.4432 32.4183 24.054 32.157 23.5511C31.8956 23.0455 31.7649 22.4474 31.7649 21.7571C31.7649 21.0838 31.8956 20.4929 32.157 19.9844C32.4183 19.4759 32.7862 19.0795 33.2607 18.7955C33.7379 18.5114 34.2976 18.3693 34.9396 18.3693C35.3714 18.3693 35.7734 18.4389 36.1456 18.5781C36.5206 18.7145 36.8473 18.9205 37.1257 19.196C37.407 19.4716 37.6257 19.8182 37.782 20.2358C37.9382 20.6506 38.0163 21.1364 38.0163 21.6932V22.1918H32.4893V21.0668H36.3075C36.3075 20.8054 36.2507 20.5739 36.1371 20.3722C36.0234 20.1705 35.8658 20.0128 35.6641 19.8991C35.4652 19.7827 35.2337 19.7244 34.9695 19.7244C34.6939 19.7244 34.4496 19.7884 34.2365 19.9162C34.0263 20.0412 33.8615 20.2102 33.7422 20.4233C33.6229 20.6335 33.5618 20.8679 33.5589 21.1264V22.196C33.5589 22.5199 33.6186 22.7997 33.7379 23.0355C33.8601 23.2713 34.032 23.4531 34.2536 23.581C34.4751 23.7088 34.7379 23.7727 35.0419 23.7727C35.2436 23.7727 35.4283 23.7443 35.5959 23.6875C35.7635 23.6307 35.907 23.5455 36.0263 23.4318C36.1456 23.3182 36.2365 23.179 36.299 23.0142L37.978 23.125C37.8928 23.5284 37.718 23.8807 37.4538 24.1818C37.1925 24.4801 36.8544 24.7131 36.4396 24.8807C36.0277 25.0455 35.5518 25.1278 35.0121 25.1278ZM42.1584 25.1278C41.4879 25.1278 40.9112 24.9858 40.4283 24.7017C39.9482 24.4148 39.5788 24.017 39.3203 23.5085C39.0646 23 38.9368 22.4148 38.9368 21.7528C38.9368 21.0824 39.0661 20.4943 39.3246 19.9886C39.5859 19.4801 39.9567 19.0838 40.4368 18.7997C40.9169 18.5128 41.4879 18.3693 42.1499 18.3693C42.7209 18.3693 43.2209 18.473 43.6499 18.6804C44.0788 18.8878 44.4183 19.179 44.6683 19.554C44.9183 19.929 45.0561 20.3693 45.0817 20.875H43.3686C43.3203 20.5483 43.1925 20.2855 42.9851 20.0866C42.7805 19.8849 42.5121 19.7841 42.1797 19.7841C41.8984 19.7841 41.6527 19.8608 41.4425 20.0142C41.2351 20.1648 41.0732 20.3849 40.9567 20.6747C40.8402 20.9645 40.782 21.3153 40.782 21.7273C40.782 22.1449 40.8388 22.5 40.9524 22.7926C41.0689 23.0852 41.2322 23.3082 41.4425 23.4616C41.6527 23.6151 41.8984 23.6918 42.1797 23.6918C42.3871 23.6918 42.5732 23.6491 42.7379 23.5639C42.9055 23.4787 43.0433 23.3551 43.1513 23.1932C43.2621 23.0284 43.3345 22.831 43.3686 22.6009H45.0817C45.0533 23.1009 44.9169 23.5412 44.6726 23.9219C44.4311 24.2997 44.0973 24.5952 43.6712 24.8082C43.245 25.0213 42.7408 25.1278 42.1584 25.1278ZM49.7255 18.4545V19.8182H45.7837V18.4545H49.7255ZM46.6786 16.8864H48.494V22.9886C48.494 23.1562 48.5195 23.2869 48.5707 23.3807C48.6218 23.4716 48.6928 23.5355 48.7837 23.5724C48.8775 23.6094 48.9854 23.6278 49.1076 23.6278C49.1928 23.6278 49.2781 23.6207 49.3633 23.6065C49.4485 23.5895 49.5138 23.5767 49.5593 23.5682L49.8448 24.919C49.7539 24.9474 49.6261 24.9801 49.4613 25.017C49.2965 25.0568 49.0962 25.081 48.8604 25.0895C48.4229 25.1065 48.0394 25.0483 47.7099 24.9148C47.3832 24.7812 47.1289 24.5739 46.9471 24.2926C46.7653 24.0114 46.6758 23.6562 46.6786 23.2273V16.8864Z" fill="#8649E1"/>
<rect x="5.5" y="39.5" width="69" height="34" rx="3.5" stroke="#8649E1"/>
<rect x="13" y="45" width="46" height="6" rx="3" fill="#EDD9FF"/>
<rect x="13" y="62" width="54" height="6" rx="3" fill="#EDD9FF"/>
<rect x="6" y="56" width="68" height="1" fill="#DCB8FF"/>
</svg>
