<svg width="94" height="29" viewBox="0 0 94 29" fill="none" xmlns="http://www.w3.org/2000/svg">
<path fill-rule="evenodd" clip-rule="evenodd" d="M89 2H4C2.89543 2 2 2.89543 2 4V25C2 26.1046 2.89543 27 4 27H89C90.1046 27 91 26.1046 91 25V4C91 2.89543 90.1046 2 89 2ZM4 0C1.79086 0 0 1.79086 0 4V25C0 27.2091 1.79086 29 4 29H89C91.2091 29 93 27.2091 93 25V4C93 1.79086 91.2091 0 89 0H4Z" fill="#D1D4DB"/>
<path d="M18.5376 11.6172H20.3125C20.2777 9.89702 18.8111 8.67898 16.6435 8.67898C14.5057 8.67898 12.8999 9.8821 12.9048 11.6818C12.9048 13.1435 13.9439 13.9837 15.6193 14.4162L16.7777 14.7145C17.8764 14.9929 18.6023 15.3359 18.6072 16.1264C18.6023 16.9964 17.777 17.5781 16.5739 17.5781C15.4205 17.5781 14.5256 17.0611 14.451 15.9922H12.6364C12.7109 18.0156 14.2173 19.1541 16.5888 19.1541C19.0298 19.1541 20.4467 17.9361 20.4517 16.1413C20.4467 14.3764 18.9901 13.571 17.4588 13.2081L16.5043 12.9695C15.669 12.7706 14.7642 12.4176 14.7741 11.5675C14.7791 10.8018 15.4652 10.2401 16.6186 10.2401C17.7173 10.2401 18.4432 10.7521 18.5376 11.6172ZM25.3972 19.1491C27.177 19.1491 28.4 18.2791 28.7182 16.9517L27.0378 16.7628C26.7942 17.4091 26.1976 17.7472 25.4221 17.7472C24.2587 17.7472 23.4881 16.9815 23.4732 15.674H28.7928V15.1222C28.7928 12.4425 27.182 11.2642 25.3027 11.2642C23.1152 11.2642 21.6884 12.87 21.6884 15.2266C21.6884 17.6229 23.0953 19.1491 25.3972 19.1491ZM23.4782 14.4609C23.5328 13.4865 24.2537 12.6662 25.3276 12.6662C26.3617 12.6662 27.0577 13.4219 27.0676 14.4609H23.4782ZM32.1151 8.81818H30.3153V19H32.1151V8.81818ZM37.3464 19.1491C39.1262 19.1491 40.3493 18.2791 40.6674 16.9517L38.987 16.7628C38.7434 17.4091 38.1468 17.7472 37.3713 17.7472C36.2079 17.7472 35.4373 16.9815 35.4224 15.674H40.742V15.1222C40.742 12.4425 39.1312 11.2642 37.252 11.2642C35.0645 11.2642 33.6376 12.87 33.6376 15.2266C33.6376 17.6229 35.0446 19.1491 37.3464 19.1491ZM35.4274 14.4609C35.4821 13.4865 36.2029 12.6662 37.2768 12.6662C38.3109 12.6662 39.0069 13.4219 39.0169 14.4609H35.4274ZM45.5955 19.1491C47.5146 19.1491 48.7376 18.0107 48.8668 16.3899H47.1467C46.9925 17.2102 46.4009 17.6825 45.6104 17.6825C44.4869 17.6825 43.761 16.7429 43.761 15.1818C43.761 13.6406 44.5018 12.7159 45.6104 12.7159C46.4755 12.7159 47.0075 13.2727 47.1467 14.0085H48.8668C48.7425 12.353 47.4499 11.2642 45.5856 11.2642C43.3484 11.2642 41.9364 12.88 41.9364 15.2116C41.9364 17.5234 43.3136 19.1491 45.5955 19.1491ZM54.1578 11.3636H52.6515V9.53409H50.8517V11.3636H49.7679V12.7557H50.8517V17.0014C50.8418 18.4382 51.8858 19.1442 53.2381 19.1044C53.7502 19.0895 54.1032 18.9901 54.2971 18.9254L53.9938 17.5185C53.8944 17.5433 53.6905 17.5881 53.4668 17.5881C53.0144 17.5881 52.6515 17.429 52.6515 16.7031V12.7557H54.1578V11.3636Z" fill="#D1D4DB"/>
<path fill-rule="evenodd" clip-rule="evenodd" d="M69.2929 12.2929C69.6834 11.9024 70.3166 11.9024 70.7071 12.2929L74 15.5858L77.2929 12.2929C77.6834 11.9024 78.3166 11.9024 78.7071 12.2929C79.0976 12.6834 79.0976 13.3166 78.7071 13.7071L74.7071 17.7071C74.3166 18.0976 73.6834 18.0976 73.2929 17.7071L69.2929 13.7071C68.9024 13.3166 68.9024 12.6834 69.2929 12.2929Z" fill="#898D9A"/>
</svg>
