<svg width="80" height="80" viewBox="0 0 80 80" fill="none" xmlns="http://www.w3.org/2000/svg">
<rect width="80" height="80" fill="#F9F2FF"/>
<path d="M32.5 0.5H76C77.933 0.5 79.5 2.067 79.5 4V76C79.5 77.933 77.933 79.5 76 79.5H32.5V0.5Z" fill="white" stroke="#8649E1"/>
<path d="M68.1937 8.19373C67.9354 8.45204 67.9354 8.87085 68.1937 9.12915L70.0646 11L68.1937 12.8708C67.9354 13.1292 67.9354 13.548 68.1937 13.8063C68.452 14.0646 68.8708 14.0646 69.1292 13.8063L71 11.9354L72.8708 13.8063C73.1292 14.0646 73.548 14.0646 73.8063 13.8063C74.0646 13.548 74.0646 13.1292 73.8063 12.8708L71.9354 11L73.8063 9.12915C74.0646 8.87085 74.0646 8.45204 73.8063 8.19373C73.548 7.93542 73.1292 7.93542 72.8708 8.19373L71 10.0646L69.1292 8.19373C68.8708 7.93542 68.452 7.93542 68.1937 8.19373Z" fill="#C695FF"/>
<rect x="39" y="8" width="24" height="6" rx="3" fill="#EDD9FF"/>
<rect x="39" y="26" width="20" height="6" rx="3" fill="#EDD9FF"/>
<rect x="39" y="38" width="33" height="6" rx="3" fill="#EDD9FF"/>
<rect x="39" y="50" width="26" height="6" rx="3" fill="#EDD9FF"/>
<path d="M33 19H79V20H33V19Z" fill="#EDD9FF"/>
</svg>
