<svg width="100" height="100" viewBox="0 0 100 100" fill="none" xmlns="http://www.w3.org/2000/svg">
<rect width="100" height="100" fill="#F9F2FF"/>
<path d="M52.5 0.5H96C97.933 0.5 99.5 2.067 99.5 4V96C99.5 97.933 97.933 99.5 96 99.5H52.5V0.5Z" fill="white" stroke="#8649E1"/>
<path d="M88.1937 8.19373C87.9354 8.45204 87.9354 8.87084 88.1937 9.12915L90.0646 11L88.1937 12.8708C87.9354 13.1292 87.9354 13.548 88.1937 13.8063C88.452 14.0646 88.8708 14.0646 89.1292 13.8063L91 11.9354L92.8708 13.8063C93.1292 14.0646 93.548 14.0646 93.8063 13.8063C94.0646 13.548 94.0646 13.1292 93.8063 12.8708L91.9354 11L93.8063 9.12915C94.0646 8.87085 94.0646 8.45204 93.8063 8.19373C93.548 7.93542 93.1292 7.93542 92.8708 8.19373L91 10.0646L89.1292 8.19373C88.8708 7.93542 88.452 7.93542 88.1937 8.19373Z" fill="#C695FF"/>
<rect x="59" y="8" width="24" height="6" rx="3" fill="#EDD9FF"/>
<rect x="59" y="26" width="20" height="6" rx="3" fill="#EDD9FF"/>
<rect x="59" y="38" width="33" height="6" rx="3" fill="#EDD9FF"/>
<rect x="59" y="50" width="26" height="6" rx="3" fill="#EDD9FF"/>
<path d="M53 19H99V20H53V19Z" fill="#EDD9FF"/>
</svg>
