<svg width="68" height="56" viewBox="0 0 68 56" fill="none" xmlns="http://www.w3.org/2000/svg">
<path d="M0 0H68V56H0V0Z" fill="#E9EBEF"/>
<path fill-rule="evenodd" clip-rule="evenodd" d="M66 2H2V54H66V2ZM0 0V56H68V0H0Z" fill="#D1D4DB"/>
<path d="M34 0H68V56H34V0Z" fill="white"/>
<path fill-rule="evenodd" clip-rule="evenodd" d="M66 2H36V54H66V2ZM34 0V56H68V0H34Z" fill="#D1D4DB"/>
<rect x="40" y="17" width="14" height="4" rx="2" fill="#D1D4DB"/>
<rect x="40" y="24" width="20" height="4" rx="2" fill="#D1D4DB"/>
<rect x="40" y="32" width="20" height="4" rx="2" fill="#D1D4DB"/>
<path d="M57.1937 5.19373C56.9354 5.45204 56.9354 5.87084 57.1937 6.12915L59.0646 8L57.1937 9.87085C56.9354 10.1292 56.9354 10.548 57.1937 10.8063C57.452 11.0646 57.8708 11.0646 58.1292 10.8063L60 8.93542L61.8708 10.8063C62.1292 11.0646 62.548 11.0646 62.8063 10.8063C63.0646 10.548 63.0646 10.1292 62.8063 9.87085L60.9354 8L62.8063 6.12915C63.0646 5.87085 63.0646 5.45204 62.8063 5.19373C62.548 4.93542 62.1292 4.93542 61.8708 5.19373L60 7.06458L58.1292 5.19373C57.8708 4.93542 57.452 4.93542 57.1937 5.19373Z" fill="#898D9A"/>
</svg>
