<svg width="100" height="100" viewBox="0 0 100 100" fill="none" xmlns="http://www.w3.org/2000/svg">
<rect width="100" height="100" fill="white"/>
<path d="M56.48 61.2237C57.3195 62.6777 59.2038 63.1951 60.4731 62.0962C62.8743 60.0171 64.6209 57.2533 65.4548 54.1411C66.5531 50.0422 65.9781 45.6749 63.8564 42C61.7347 38.3251 58.24 35.6435 54.1411 34.5452C51.029 33.7113 47.7621 33.842 44.761 34.882C43.1746 35.4317 42.6805 37.3223 43.52 38.7763V38.7763C44.3595 40.2303 46.2233 40.6746 47.8629 40.3129C49.4028 39.9732 51.0161 40.0023 52.5675 40.418C55.1088 41.099 57.2755 42.7615 58.591 45.04C59.9064 47.3185 60.2629 50.0262 59.582 52.5675C59.1663 54.1188 58.3848 55.5306 57.3207 56.6943C56.1877 57.9334 55.6405 59.7697 56.48 61.2237V61.2237Z" fill="#C695FF"/>
</svg>
