<svg width="100" height="100" viewBox="0 0 100 100" fill="none" xmlns="http://www.w3.org/2000/svg">
<rect width="100" height="100" fill="white"/>
<rect x="15.5" y="22.5" width="69" height="55" rx="3.5" stroke="#8649E1"/>
<path d="M54.25 57.3612C54.6642 58.0787 55.5906 58.3326 56.2381 57.8158C57.8973 56.4915 59.1031 54.6638 59.6593 52.5882C60.3457 50.0264 59.9863 47.2968 58.6603 45C57.3342 42.7032 55.15 41.0272 52.5882 40.3407C50.5126 39.7846 48.3268 39.9149 46.3503 40.6897C45.5791 40.9921 45.3358 41.9213 45.75 42.6388V42.6388C46.1642 43.3562 47.0801 43.5843 47.8692 43.3322C49.1374 42.9269 50.5057 42.8886 51.8117 43.2385C53.605 43.719 55.1339 44.8922 56.0622 46.5C56.9904 48.1078 57.242 50.0185 56.7615 51.8117C56.4115 53.1177 55.6942 54.2836 54.7091 55.1792C54.0962 55.7366 53.8358 56.6438 54.25 57.3612V57.3612Z" fill="#C695FF"/>
</svg>
