<svg width="80" height="80" viewBox="0 0 80 80" fill="none" xmlns="http://www.w3.org/2000/svg">
<rect width="80" height="80" fill="white"/>
<path d="M46.48 51.2237C47.3195 52.6777 49.2038 53.1951 50.4731 52.0961C52.8743 50.0171 54.6209 47.2533 55.4548 44.1411C56.5531 40.0422 55.9781 35.6749 53.8564 32C51.7347 28.3251 48.24 25.6435 44.1411 24.5452C41.029 23.7113 37.7621 23.842 34.761 24.882C33.1746 25.4317 32.6805 27.3223 33.52 28.7763C34.3595 30.2303 36.2233 30.6746 37.8629 30.3129C39.4028 29.9732 41.0161 30.0023 42.5675 30.418C45.1088 31.099 47.2755 32.7615 48.591 35.04C49.9064 37.3185 50.2629 40.0262 49.582 42.5675C49.1663 44.1188 48.3848 45.5306 47.3207 46.6943C46.1877 47.9334 45.6405 49.7697 46.48 51.2237Z" fill="#C695FF"/>
</svg>
