<svg width="80" height="80" viewBox="0 0 80 80" fill="none" xmlns="http://www.w3.org/2000/svg">
<rect width="80" height="80" fill="white"/>
<rect x="5.5" y="12.5" width="63" height="55" rx="3.5" stroke="#8649E1"/>
<path d="M44.25 47.3612C44.6642 48.0787 45.5906 48.3326 46.2381 47.8158C47.8973 46.4915 49.1031 44.6638 49.6593 42.5882C50.3457 40.0264 49.9863 37.2968 48.6603 35C47.3342 32.7032 45.15 31.0272 42.5882 30.3407C40.5126 29.7846 38.3268 29.9149 36.3503 30.6897C35.5791 30.9921 35.3358 31.9213 35.75 32.6388C36.1642 33.3562 37.0801 33.5843 37.8692 33.3322C39.1374 32.9269 40.5057 32.8886 41.8117 33.2385C43.605 33.719 45.1339 34.8922 46.0622 36.5C46.9904 38.1078 47.242 40.0185 46.7615 41.8117C46.4115 43.1177 45.6942 44.2836 44.7091 45.1792C44.0962 45.7366 43.8358 46.6438 44.25 47.3612Z" fill="#C695FF"/>
</svg>
