<svg width="100" height="100" viewBox="0 0 100 100" fill="none" xmlns="http://www.w3.org/2000/svg">
<rect width="100" height="100" fill="white"/>
<rect x="1" y="23" width="98" height="54" stroke="#C4C7CF" stroke-width="2"/>
<rect opacity="0.5" x="94" y="38" width="4" height="38" fill="#C4C7CF"/>
<rect x="95" y="43" width="2" height="16" rx="1" fill="#8A8E9B"/>
<rect x="1" y="23" width="98" height="14" stroke="#C4C7CF" stroke-width="2"/>
<path d="M11.0043 63.0002H12.8487V59.5598H14.7976C17.1492 59.5598 18.4119 58.1479 18.4119 56.1891C18.4119 54.2452 17.1641 52.8184 14.8225 52.8184H11.0043V63.0002ZM12.8487 58.0435V54.3596H14.5391C15.9212 54.3596 16.5327 55.1053 16.5327 56.1891C16.5327 57.2729 15.9212 58.0435 14.549 58.0435H12.8487Z" fill="#C4C7CF"/>
<path d="M19.9345 63.0002H21.7342V55.3638H19.9345V63.0002ZM20.8393 54.28C21.4111 54.28 21.8784 53.8425 21.8784 53.3056C21.8784 52.7637 21.4111 52.3262 20.8393 52.3262C20.2626 52.3262 19.7953 52.7637 19.7953 53.3056C19.7953 53.8425 20.2626 54.28 20.8393 54.28Z" fill="#C4C7CF"/>
<path d="M25.3846 58.5257C25.3846 57.4221 26.0508 56.7857 27.0004 56.7857C27.9301 56.7857 28.4869 57.3972 28.4869 58.4164V63.0002H30.2866V58.138C30.2916 56.3084 29.2475 55.2644 27.6715 55.2644C26.5281 55.2644 25.7426 55.8113 25.3945 56.6614H25.3051V55.3638H23.5849V63.0002H25.3846V58.5257Z" fill="#C4C7CF"/>
<path d="M33.9158 58.5257C33.9158 57.4221 34.582 56.7857 35.5316 56.7857C36.4613 56.7857 37.0181 57.3972 37.0181 58.4164V63.0002H38.8178V58.138C38.8228 56.3084 37.7788 55.2644 36.2028 55.2644C35.0593 55.2644 34.2738 55.8113 33.9258 56.6614H33.8363V55.3638H32.1161V63.0002H33.9158V58.5257Z" fill="#C4C7CF"/>
<path d="M44.0281 63.1493C45.8079 63.1493 47.0309 62.2793 47.3491 60.9519L45.6687 60.763C45.4251 61.4093 44.8285 61.7473 44.0529 61.7473C42.8896 61.7473 42.119 60.9817 42.1041 59.6742H47.4237V59.1223C47.4237 56.4426 45.8129 55.2644 43.9336 55.2644C41.7461 55.2644 40.3193 56.8702 40.3193 59.2267C40.3193 61.623 41.7262 63.1493 44.0281 63.1493ZM42.109 58.4611C42.1637 57.4867 42.8846 56.6664 43.9585 56.6664C44.9926 56.6664 45.6886 57.4221 45.6985 58.4611H42.109Z" fill="#C4C7CF"/>
<path d="M51.78 63.1344C53.0925 63.1344 53.6841 62.3539 53.9675 61.7971H54.0769V63.0002H55.8468V52.8184H54.0421V56.6266H53.9675C53.6941 56.0748 53.1323 55.2644 51.785 55.2644C50.0201 55.2644 48.633 56.6465 48.633 59.1919C48.633 61.7076 49.9803 63.1344 51.78 63.1344ZM52.2822 61.6578C51.0939 61.6578 50.4675 60.6138 50.4675 59.182C50.4675 57.7601 51.084 56.7409 52.2822 56.7409C53.4405 56.7409 54.0769 57.7005 54.0769 59.182C54.0769 60.6635 53.4306 61.6578 52.2822 61.6578Z" fill="#C4C7CF"/>
<path d="M72 43.5L71.862 45.8001C72 57 69.5 62 62 61.7046M72 43.5L68 47.5M72 43.5L75.5 47.5" stroke="#8A8E9B" stroke-width="2" stroke-linecap="round" stroke-linejoin="round"/>
<rect x="6" y="27" width="17" height="6" rx="2" fill="#C4C7CF"/>
<rect x="57" y="27" width="11" height="6" rx="2" fill="#C4C7CF"/>
<rect x="70" y="27" width="11" height="6" rx="2" fill="#C4C7CF"/>
<rect x="83" y="27" width="11" height="6" rx="2" fill="#C4C7CF"/>
</svg>
