<svg width="80" height="80" viewBox="0 0 80 80" fill="none" xmlns="http://www.w3.org/2000/svg">
<rect width="80" height="80" fill="white"/>
<path d="M28.999 47H75.999C76.5513 47 76.999 47.4477 76.999 48V48C76.999 48.5523 76.5513 49 75.999 49H28.999V47Z" fill="#DCB8FF"/>
<path fill-rule="evenodd" clip-rule="evenodd" d="M7 32C4.79086 32 3 33.7909 3 36V49H4.99902V37C4.99902 35.3431 6.34217 34 7.99902 34H23.999C25.6559 34 26.999 35.3431 26.999 37V49H28.999V36C28.999 33.7909 27.2082 32 24.999 32H7Z" fill="#DCB8FF"/>
<rect x="34" y="38.8125" width="18" height="4" rx="2" fill="#DCB8FF"/>
<rect x="58" y="38.8125" width="18" height="4" rx="2" fill="#DCB8FF"/>
<rect x="9" y="38.8125" width="14" height="4" rx="2" fill="#8649E1"/>
</svg>
