<svg width="88" height="17" viewBox="0 0 88 17" fill="none" xmlns="http://www.w3.org/2000/svg">
<path d="M29.999 15H87C87.5523 15 88 15.4477 88 16C88 16.5523 87.5523 17 87 17H29.999V15Z" fill="#D1D4DB"/>
<path fill-rule="evenodd" clip-rule="evenodd" d="M4 0C1.79086 0 0 1.79086 0 4V17H1.99902V5C1.99902 3.34315 3.34217 2 4.99902 2H24.999C26.6559 2 27.999 3.34315 27.999 5V17H29.999V4C29.999 1.79086 28.2082 0 25.999 0H4Z" fill="#D1D4DB"/>
<rect x="37" y="6.8125" width="18" height="4" rx="2" fill="#D1D4DB"/>
<rect x="63" y="6.8125" width="18" height="4" rx="2" fill="#D1D4DB"/>
<rect x="6" y="6.8125" width="18" height="4" rx="2" fill="#D1D4DB"/>
</svg>
