<svg width="80" height="80" viewBox="0 0 80 80" fill="none" xmlns="http://www.w3.org/2000/svg">
<rect width="80" height="80" fill="white"/>
<rect x="14" y="28" width="52" height="24" rx="12" fill="#EDD9FF"/>
<path d="M21.4261 36.794V35.2727H28.5938V36.794H25.9219V44H24.098V36.794H21.4261ZM30.7159 44.1236C30.2983 44.1236 29.9261 44.0511 29.5994 43.9062C29.2727 43.7585 29.0142 43.5412 28.8239 43.2543C28.6364 42.9645 28.5426 42.6037 28.5426 42.1719C28.5426 41.8082 28.6094 41.5028 28.7429 41.2557C28.8764 41.0085 29.0582 40.8097 29.2884 40.6591C29.5185 40.5085 29.7798 40.3949 30.0724 40.3182C30.3679 40.2415 30.6776 40.1875 31.0014 40.1562C31.3821 40.1165 31.6889 40.0795 31.9219 40.0455C32.1548 40.0085 32.3239 39.9545 32.429 39.8835C32.5341 39.8125 32.5866 39.7074 32.5866 39.5682V39.5426C32.5866 39.2727 32.5014 39.0639 32.331 38.9162C32.1634 38.7685 31.9247 38.6946 31.6151 38.6946C31.2884 38.6946 31.0284 38.767 30.8352 38.9119C30.642 39.054 30.5142 39.233 30.4517 39.4489L28.7727 39.3125C28.858 38.9148 29.0256 38.571 29.2756 38.2812C29.5256 37.9886 29.848 37.7642 30.2429 37.608C30.6406 37.4489 31.1009 37.3693 31.6236 37.3693C31.9872 37.3693 32.3352 37.4119 32.6676 37.4972C33.0028 37.5824 33.2997 37.7145 33.5582 37.8935C33.8196 38.0724 34.0256 38.3026 34.1761 38.5838C34.3267 38.8622 34.402 39.196 34.402 39.5852V44H32.6804V43.0923H32.6293C32.5241 43.2969 32.3835 43.4773 32.2074 43.6335C32.0312 43.7869 31.8196 43.9077 31.5724 43.9957C31.3253 44.081 31.0398 44.1236 30.7159 44.1236ZM31.2358 42.8707C31.5028 42.8707 31.7386 42.8182 31.9432 42.7131C32.1477 42.6051 32.3082 42.4602 32.4247 42.2784C32.5412 42.0966 32.5994 41.8906 32.5994 41.6605V40.9659C32.5426 41.0028 32.4645 41.0369 32.3651 41.0682C32.2685 41.0966 32.1591 41.1236 32.0369 41.1491C31.9148 41.1719 31.7926 41.1932 31.6705 41.2131C31.5483 41.2301 31.4375 41.2457 31.3381 41.2599C31.125 41.2912 30.9389 41.3409 30.7798 41.4091C30.6207 41.4773 30.4972 41.5696 30.4091 41.6861C30.321 41.7997 30.277 41.9418 30.277 42.1122C30.277 42.3594 30.3665 42.5483 30.5455 42.679C30.7273 42.8068 30.9574 42.8707 31.2358 42.8707ZM38.7592 46.5909C38.1712 46.5909 37.6669 46.5099 37.2464 46.348C36.8288 46.1889 36.4964 45.9716 36.2493 45.696C36.0021 45.4205 35.8416 45.1108 35.7678 44.767L37.4467 44.5412C37.4979 44.6719 37.5788 44.794 37.6896 44.9077C37.8004 45.0213 37.9467 45.1122 38.1286 45.1804C38.3132 45.2514 38.5376 45.2869 38.8018 45.2869C39.1967 45.2869 39.522 45.1903 39.7777 44.9972C40.0362 44.8068 40.1655 44.4872 40.1655 44.0384V42.8409H40.0888C40.0092 43.0227 39.8899 43.1946 39.7308 43.3565C39.5717 43.5185 39.3672 43.6506 39.1172 43.7528C38.8672 43.8551 38.5689 43.9062 38.2223 43.9062C37.7308 43.9062 37.2834 43.7926 36.88 43.5653C36.4794 43.3352 36.1598 42.9844 35.9212 42.5128C35.6854 42.0384 35.5675 41.4389 35.5675 40.7145C35.5675 39.973 35.6882 39.3537 35.9297 38.8565C36.1712 38.3594 36.4922 37.9872 36.8928 37.7401C37.2962 37.4929 37.7379 37.3693 38.218 37.3693C38.5845 37.3693 38.8913 37.4318 39.1385 37.5568C39.3857 37.679 39.5845 37.8324 39.7351 38.017C39.8885 38.1989 40.0064 38.3778 40.0888 38.554H40.157V37.4545H41.9595V44.0639C41.9595 44.6207 41.8232 45.0866 41.5504 45.4616C41.2777 45.8366 40.8999 46.1179 40.4169 46.3054C39.9368 46.4957 39.3842 46.5909 38.7592 46.5909ZM38.7976 42.5426C39.0902 42.5426 39.3374 42.4702 39.5391 42.3253C39.7436 42.1776 39.8999 41.9673 40.0078 41.6946C40.1186 41.419 40.174 41.0895 40.174 40.706C40.174 40.3224 40.12 39.9901 40.0121 39.7088C39.9041 39.4247 39.7479 39.2045 39.5433 39.0483C39.3388 38.892 39.0902 38.8139 38.7976 38.8139C38.4993 38.8139 38.2479 38.8949 38.0433 39.0568C37.8388 39.2159 37.6839 39.4375 37.5788 39.7216C37.4737 40.0057 37.4212 40.3338 37.4212 40.706C37.4212 41.0838 37.4737 41.4105 37.5788 41.6861C37.6868 41.9588 37.8416 42.1705 38.0433 42.321C38.2479 42.4687 38.4993 42.5426 38.7976 42.5426Z" fill="#8649E1"/>
<path d="M50.2583 36.2583C49.9139 36.6027 49.9139 37.1611 50.2583 37.5055L52.7528 40L50.2583 42.4945C49.9139 42.8389 49.9139 43.3973 50.2583 43.7417C50.6027 44.0861 51.1611 44.0861 51.5055 43.7417L54 41.2472L56.4945 43.7417C56.8389 44.0861 57.3973 44.0861 57.7417 43.7417C58.0861 43.3973 58.0861 42.8389 57.7417 42.4945L55.2472 40L57.7417 37.5055C58.0861 37.1611 58.0861 36.6027 57.7417 36.2583C57.3973 35.9139 56.8389 35.9139 56.4945 36.2583L54 38.7528L51.5055 36.2583C51.1611 35.9139 50.6027 35.9139 50.2583 36.2583Z" fill="#C695FF"/>
</svg>
