<svg width="100" height="100" viewBox="0 0 100 100" fill="none" xmlns="http://www.w3.org/2000/svg">
<rect width="100" height="100" fill="white"/>
<rect x="24" y="38" width="52" height="24" rx="12" fill="#EDD9FF"/>
<path d="M31.4261 46.794V45.2727H38.5938V46.794H35.9219V54H34.098V46.794H31.4261ZM40.7159 54.1236C40.2983 54.1236 39.9261 54.0511 39.5994 53.9062C39.2727 53.7585 39.0142 53.5412 38.8239 53.2543C38.6364 52.9645 38.5426 52.6037 38.5426 52.1719C38.5426 51.8082 38.6094 51.5028 38.7429 51.2557C38.8764 51.0085 39.0582 50.8097 39.2884 50.6591C39.5185 50.5085 39.7798 50.3949 40.0724 50.3182C40.3679 50.2415 40.6776 50.1875 41.0014 50.1562C41.3821 50.1165 41.6889 50.0795 41.9219 50.0455C42.1548 50.0085 42.3239 49.9545 42.429 49.8835C42.5341 49.8125 42.5866 49.7074 42.5866 49.5682V49.5426C42.5866 49.2727 42.5014 49.0639 42.331 48.9162C42.1634 48.7685 41.9247 48.6946 41.6151 48.6946C41.2884 48.6946 41.0284 48.767 40.8352 48.9119C40.642 49.054 40.5142 49.233 40.4517 49.4489L38.7727 49.3125C38.858 48.9148 39.0256 48.571 39.2756 48.2812C39.5256 47.9886 39.848 47.7642 40.2429 47.608C40.6406 47.4489 41.1009 47.3693 41.6236 47.3693C41.9872 47.3693 42.3352 47.4119 42.6676 47.4972C43.0028 47.5824 43.2997 47.7145 43.5582 47.8935C43.8196 48.0724 44.0256 48.3026 44.1761 48.5838C44.3267 48.8622 44.402 49.196 44.402 49.5852V54H42.6804V53.0923H42.6293C42.5241 53.2969 42.3835 53.4773 42.2074 53.6335C42.0312 53.7869 41.8196 53.9077 41.5724 53.9957C41.3253 54.081 41.0398 54.1236 40.7159 54.1236ZM41.2358 52.8707C41.5028 52.8707 41.7386 52.8182 41.9432 52.7131C42.1477 52.6051 42.3082 52.4602 42.4247 52.2784C42.5412 52.0966 42.5994 51.8906 42.5994 51.6605V50.9659C42.5426 51.0028 42.4645 51.0369 42.3651 51.0682C42.2685 51.0966 42.1591 51.1236 42.0369 51.1491C41.9148 51.1719 41.7926 51.1932 41.6705 51.2131C41.5483 51.2301 41.4375 51.2457 41.3381 51.2599C41.125 51.2912 40.9389 51.3409 40.7798 51.4091C40.6207 51.4773 40.4972 51.5696 40.4091 51.6861C40.321 51.7997 40.277 51.9418 40.277 52.1122C40.277 52.3594 40.3665 52.5483 40.5455 52.679C40.7273 52.8068 40.9574 52.8707 41.2358 52.8707ZM48.7592 56.5909C48.1712 56.5909 47.6669 56.5099 47.2464 56.348C46.8288 56.1889 46.4964 55.9716 46.2493 55.696C46.0021 55.4205 45.8416 55.1108 45.7678 54.767L47.4467 54.5412C47.4979 54.6719 47.5788 54.794 47.6896 54.9077C47.8004 55.0213 47.9467 55.1122 48.1286 55.1804C48.3132 55.2514 48.5376 55.2869 48.8018 55.2869C49.1967 55.2869 49.522 55.1903 49.7777 54.9972C50.0362 54.8068 50.1655 54.4872 50.1655 54.0384V52.8409H50.0888C50.0092 53.0227 49.8899 53.1946 49.7308 53.3565C49.5717 53.5185 49.3672 53.6506 49.1172 53.7528C48.8672 53.8551 48.5689 53.9062 48.2223 53.9062C47.7308 53.9062 47.2834 53.7926 46.88 53.5653C46.4794 53.3352 46.1598 52.9844 45.9212 52.5128C45.6854 52.0384 45.5675 51.4389 45.5675 50.7145C45.5675 49.973 45.6882 49.3537 45.9297 48.8565C46.1712 48.3594 46.4922 47.9872 46.8928 47.7401C47.2962 47.4929 47.7379 47.3693 48.218 47.3693C48.5845 47.3693 48.8913 47.4318 49.1385 47.5568C49.3857 47.679 49.5845 47.8324 49.7351 48.017C49.8885 48.1989 50.0064 48.3778 50.0888 48.554H50.157V47.4545H51.9595V54.0639C51.9595 54.6207 51.8232 55.0866 51.5504 55.4616C51.2777 55.8366 50.8999 56.1179 50.4169 56.3054C49.9368 56.4957 49.3842 56.5909 48.7592 56.5909ZM48.7976 52.5426C49.0902 52.5426 49.3374 52.4702 49.5391 52.3253C49.7436 52.1776 49.8999 51.9673 50.0078 51.6946C50.1186 51.419 50.174 51.0895 50.174 50.706C50.174 50.3224 50.12 49.9901 50.0121 49.7088C49.9041 49.4247 49.7479 49.2045 49.5433 49.0483C49.3388 48.892 49.0902 48.8139 48.7976 48.8139C48.4993 48.8139 48.2479 48.8949 48.0433 49.0568C47.8388 49.2159 47.6839 49.4375 47.5788 49.7216C47.4737 50.0057 47.4212 50.3338 47.4212 50.706C47.4212 51.0838 47.4737 51.4105 47.5788 51.6861C47.6868 51.9588 47.8416 52.1705 48.0433 52.321C48.2479 52.4687 48.4993 52.5426 48.7976 52.5426Z" fill="#8649E1"/>
<path d="M60.2583 46.2583C59.9139 46.6027 59.9139 47.1611 60.2583 47.5055L62.7528 50L60.2583 52.4945C59.9139 52.8389 59.9139 53.3973 60.2583 53.7417C60.6027 54.0861 61.1611 54.0861 61.5055 53.7417L64 51.2472L66.4945 53.7417C66.8389 54.0861 67.3973 54.0861 67.7417 53.7417C68.0861 53.3973 68.0861 52.8389 67.7417 52.4945L65.2472 50L67.7417 47.5055C68.0861 47.1611 68.0861 46.6027 67.7417 46.2583C67.3973 45.9139 66.8389 45.9139 66.4945 46.2583L64 48.7528L61.5055 46.2583C61.1611 45.9139 60.6027 45.9139 60.2583 46.2583Z" fill="#C695FF"/>
</svg>
