<svg width="88" height="40" viewBox="0 0 88 40" fill="none" xmlns="http://www.w3.org/2000/svg">
<path fill-rule="evenodd" clip-rule="evenodd" d="M84 10H4C2.89543 10 2 10.8954 2 12V36C2 37.1046 2.89543 38 4 38H84C85.1046 38 86 37.1046 86 36V12C86 10.8954 85.1046 10 84 10ZM4 8C1.79086 8 0 9.79086 0 12V36C0 38.2091 1.79086 40 4 40H84C86.2091 40 88 38.2091 88 36V12C88 9.79086 86.2091 8 84 8H4Z" fill="#D1D4DB"/>
<rect width="48" height="4" rx="2" fill="#D1D4DB"/>
<path fill-rule="evenodd" clip-rule="evenodd" d="M85.8 33.4C86.1314 33.8418 86.0418 34.4686 85.6 34.8L81.6 37.8C81.1582 38.1314 80.5314 38.0418 80.2 37.6C79.8686 37.1582 79.9582 36.5314 80.4 36.2L84.4 33.2C84.8418 32.8686 85.4686 32.9582 85.8 33.4Z" fill="#898D9A"/>
<path fill-rule="evenodd" clip-rule="evenodd" d="M85.7893 29.3861C86.1284 29.822 86.0499 30.4503 85.6139 30.7894L76.6139 37.7894C76.178 38.1284 75.5497 38.0499 75.2106 37.6139C74.8716 37.178 74.9501 36.5497 75.386 36.2106L84.386 29.2106C84.822 28.8716 85.4503 28.9501 85.7893 29.3861Z" fill="#898D9A"/>
</svg>
