<svg width="80" height="80" viewBox="0 0 80 80" fill="none" xmlns="http://www.w3.org/2000/svg">
<rect width="80" height="80" fill="white"/>
<path d="M8 27.5H72C73.933 27.5 75.5 29.067 75.5 31V57C75.5 58.933 73.933 60.5 72 60.5H8C6.067 60.5 4.5 58.933 4.5 57V31C4.5 29.067 6.067 27.5 8 27.5Z" stroke="#8649E1"/>
<rect x="4" y="19" width="36" height="6" rx="3" fill="#EDD9FF"/>
<path fill-rule="evenodd" clip-rule="evenodd" d="M73.8001 54.4001C74.1314 54.8419 74.0419 55.4687 73.6001 55.8001L69.6001 58.8001C69.1582 59.1314 68.5314 59.0419 68.2001 58.6001C67.8687 58.1582 67.9582 57.5314 68.4001 57.2001L72.4001 54.2001C72.8419 53.8687 73.4687 53.9582 73.8001 54.4001Z" fill="#C695FF"/>
<path fill-rule="evenodd" clip-rule="evenodd" d="M73.7894 50.3861C74.1285 50.8221 74.0499 51.4503 73.614 51.7894L64.614 58.7894C64.178 59.1285 63.5498 59.0499 63.2107 58.614C62.8716 58.178 62.9502 57.5498 63.3861 57.2107L72.3861 50.2107C72.8221 49.8716 73.4503 49.9502 73.7894 50.3861Z" fill="#C695FF"/>
</svg>
