<svg width="100" height="100" viewBox="0 0 100 100" fill="none" xmlns="http://www.w3.org/2000/svg">
<rect width="100" height="100" fill="white"/>
<path d="M14 37.5H86C87.933 37.5 89.5 39.067 89.5 41V67C89.5 68.933 87.933 70.5 86 70.5H14C12.067 70.5 10.5 68.933 10.5 67V41C10.5 39.067 12.067 37.5 14 37.5Z" stroke="#8649E1"/>
<rect x="10" y="29" width="40" height="6" rx="3" fill="#EDD9FF"/>
<path fill-rule="evenodd" clip-rule="evenodd" d="M87.8001 64.4001C88.1314 64.8419 88.0419 65.4687 87.6001 65.8001L83.6001 68.8001C83.1582 69.1314 82.5314 69.0419 82.2001 68.6001C81.8687 68.1582 81.9582 67.5314 82.4001 67.2001L86.4001 64.2001C86.8419 63.8687 87.4687 63.9582 87.8001 64.4001Z" fill="#C695FF"/>
<path fill-rule="evenodd" clip-rule="evenodd" d="M87.7894 60.3861C88.1285 60.8221 88.0499 61.4503 87.614 61.7894L78.614 68.7894C78.178 69.1285 77.5498 69.0499 77.2107 68.614C76.8716 68.178 76.9502 67.5498 77.3861 67.2107L86.3861 60.2107C86.8221 59.8716 87.4503 59.9502 87.7894 60.3861Z" fill="#C695FF"/>
</svg>
