<svg width="80" height="80" viewBox="0 0 80 80" fill="none" xmlns="http://www.w3.org/2000/svg">
<rect width="80" height="80" fill="white"/>
<path d="M4.5 33C4.5 31.067 6.067 29.5 8 29.5H72C73.933 29.5 75.5 31.067 75.5 33V47C75.5 48.933 73.933 50.5 72 50.5H8C6.067 50.5 4.5 48.933 4.5 47V33Z" stroke="#8649E1"/>
<path d="M14.1293 45.1918C13.3963 45.1889 12.7656 45.0085 12.2372 44.6506C11.7116 44.2926 11.3068 43.7741 11.0227 43.0952C10.7415 42.4162 10.6023 41.5994 10.6051 40.6449C10.6051 39.6932 10.7457 38.8821 11.027 38.2116C11.3111 37.5412 11.7159 37.0312 12.2415 36.6818C12.7699 36.3295 13.3991 36.1534 14.1293 36.1534C14.8594 36.1534 15.4872 36.3295 16.0128 36.6818C16.5412 37.0341 16.9474 37.5455 17.2315 38.2159C17.5156 38.8835 17.6563 39.6932 17.6534 40.6449C17.6534 41.6023 17.5114 42.4205 17.2273 43.0994C16.946 43.7784 16.5426 44.2969 16.017 44.6548C15.4915 45.0128 14.8622 45.1918 14.1293 45.1918ZM14.1293 43.6619C14.6293 43.6619 15.0284 43.4105 15.3267 42.9077C15.625 42.4048 15.7727 41.6506 15.7699 40.6449C15.7699 39.983 15.7017 39.4318 15.5653 38.9915C15.4318 38.5511 15.2415 38.2202 14.9943 37.9986C14.75 37.777 14.4616 37.6662 14.1293 37.6662C13.6321 37.6662 13.2344 37.9148 12.9361 38.4119C12.6378 38.9091 12.4872 39.6534 12.4844 40.6449C12.4844 41.3153 12.5511 41.875 12.6847 42.3239C12.821 42.7699 13.0128 43.1051 13.2599 43.3295C13.5071 43.5511 13.7969 43.6619 14.1293 43.6619ZM22.391 45.1918C21.658 45.1889 21.0273 45.0085 20.4989 44.6506C19.9734 44.2926 19.5685 43.7741 19.2844 43.0952C19.0032 42.4162 18.864 41.5994 18.8668 40.6449C18.8668 39.6932 19.0075 38.8821 19.2887 38.2116C19.5728 37.5412 19.9776 37.0312 20.5032 36.6818C21.0316 36.3295 21.6609 36.1534 22.391 36.1534C23.1211 36.1534 23.7489 36.3295 24.2745 36.6818C24.8029 37.0341 25.2092 37.5455 25.4933 38.2159C25.7773 38.8835 25.918 39.6932 25.9151 40.6449C25.9151 41.6023 25.7731 42.4205 25.489 43.0994C25.2077 43.7784 24.8043 44.2969 24.2788 44.6548C23.7532 45.0128 23.1239 45.1918 22.391 45.1918ZM22.391 43.6619C22.891 43.6619 23.2901 43.4105 23.5884 42.9077C23.8867 42.4048 24.0344 41.6506 24.0316 40.6449C24.0316 39.983 23.9634 39.4318 23.8271 38.9915C23.6935 38.5511 23.5032 38.2202 23.256 37.9986C23.0117 37.777 22.7234 37.6662 22.391 37.6662C21.8938 37.6662 21.4961 37.9148 21.1978 38.4119C20.8995 38.9091 20.7489 39.6534 20.7461 40.6449C20.7461 41.3153 20.8129 41.875 20.9464 42.3239C21.0827 42.7699 21.2745 43.1051 21.5217 43.3295C21.7688 43.5511 22.0586 43.6619 22.391 43.6619ZM28.3089 43.9858C28.0277 43.9858 27.7862 43.8864 27.5845 43.6875C27.3857 43.4886 27.2862 43.2472 27.2862 42.9631C27.2862 42.6847 27.3857 42.446 27.5845 42.2472C27.7862 42.0483 28.0277 41.9489 28.3089 41.9489C28.5817 41.9489 28.8203 42.0483 29.0249 42.2472C29.2294 42.446 29.3317 42.6847 29.3317 42.9631C29.3317 43.1506 29.2834 43.3224 29.1868 43.4787C29.093 43.6321 28.9695 43.7557 28.8161 43.8494C28.6626 43.9403 28.4936 43.9858 28.3089 43.9858ZM28.3089 39.7031C28.0277 39.7031 27.7862 39.6037 27.5845 39.4048C27.3857 39.206 27.2862 38.9645 27.2862 38.6804C27.2862 38.402 27.3857 38.1648 27.5845 37.9688C27.7862 37.7699 28.0277 37.6705 28.3089 37.6705C28.5817 37.6705 28.8203 37.7699 29.0249 37.9688C29.2294 38.1648 29.3317 38.402 29.3317 38.6804C29.3317 38.8707 29.2834 39.044 29.1868 39.2003C29.093 39.3537 28.9695 39.4759 28.8161 39.5668C28.6626 39.6577 28.4936 39.7031 28.3089 39.7031ZM34.2269 45.1918C33.494 45.1889 32.8633 45.0085 32.3349 44.6506C31.8093 44.2926 31.4045 43.7741 31.1204 43.0952C30.8391 42.4162 30.6999 41.5994 30.7028 40.6449C30.7028 39.6932 30.8434 38.8821 31.1246 38.2116C31.4087 37.5412 31.8136 37.0312 32.3391 36.6818C32.8675 36.3295 33.4968 36.1534 34.2269 36.1534C34.957 36.1534 35.5849 36.3295 36.1104 36.6818C36.6388 37.0341 37.0451 37.5455 37.3292 38.2159C37.6133 38.8835 37.7539 39.6932 37.7511 40.6449C37.7511 41.6023 37.609 42.4205 37.3249 43.0994C37.0437 43.7784 36.6403 44.2969 36.1147 44.6548C35.5891 45.0128 34.9599 45.1918 34.2269 45.1918ZM34.2269 43.6619C34.7269 43.6619 35.1261 43.4105 35.4244 42.9077C35.7227 42.4048 35.8704 41.6506 35.8675 40.6449C35.8675 39.983 35.7994 39.4318 35.663 38.9915C35.5295 38.5511 35.3391 38.2202 35.092 37.9986C34.8477 37.777 34.5593 37.6662 34.2269 37.6662C33.7298 37.6662 33.332 37.9148 33.0337 38.4119C32.7354 38.9091 32.5849 39.6534 32.582 40.6449C32.582 41.3153 32.6488 41.875 32.7823 42.3239C32.9187 42.7699 33.1104 43.1051 33.3576 43.3295C33.6048 43.5511 33.8945 43.6619 34.2269 43.6619ZM42.4886 45.1918C41.7557 45.1889 41.125 45.0085 40.5966 44.6506C40.071 44.2926 39.6662 43.7741 39.3821 43.0952C39.1009 42.4162 38.9616 41.5994 38.9645 40.6449C38.9645 39.6932 39.1051 38.8821 39.3864 38.2116C39.6705 37.5412 40.0753 37.0312 40.6009 36.6818C41.1293 36.3295 41.7585 36.1534 42.4886 36.1534C43.2188 36.1534 43.8466 36.3295 44.3722 36.6818C44.9006 37.0341 45.3068 37.5455 45.5909 38.2159C45.875 38.8835 46.0156 39.6932 46.0128 40.6449C46.0128 41.6023 45.8707 42.4205 45.5866 43.0994C45.3054 43.7784 44.902 44.2969 44.3764 44.6548C43.8509 45.0128 43.2216 45.1918 42.4886 45.1918ZM42.4886 43.6619C42.9886 43.6619 43.3878 43.4105 43.6861 42.9077C43.9844 42.4048 44.1321 41.6506 44.1293 40.6449C44.1293 39.983 44.0611 39.4318 43.9247 38.9915C43.7912 38.5511 43.6009 38.2202 43.3537 37.9986C43.1094 37.777 42.821 37.6662 42.4886 37.6662C41.9915 37.6662 41.5938 37.9148 41.2955 38.4119C40.9972 38.9091 40.8466 39.6534 40.8438 40.6449C40.8438 41.3153 40.9105 41.875 41.044 42.3239C41.1804 42.7699 41.3722 43.1051 41.6193 43.3295C41.8665 43.5511 42.1562 43.6619 42.4886 43.6619Z" fill="#DCB8FF"/>
<rect x="54" y="30" width="1" height="20" fill="#8649E1"/>
<path fill-rule="evenodd" clip-rule="evenodd" d="M68.2791 42.4874C65.646 42.4874 63.5117 40.3531 63.5117 37.72C63.5117 36.2063 64.2317 34.8726 65.3323 34C62.3323 34.3411 60 36.886 60 39.9786C60 43.3043 62.6957 46 66.0206 46C69.114 46 71.6571 43.6677 72 40.6669C71.1266 41.7674 69.7937 42.4874 68.2791 42.4874Z" fill="#8649E1"/>
</svg>
