<svg width="98" height="29" viewBox="0 0 98 29" fill="none" xmlns="http://www.w3.org/2000/svg">
<path fill-rule="evenodd" clip-rule="evenodd" d="M94 2H4C2.89543 2 2 2.89543 2 4V25C2 26.1046 2.89543 27 4 27H94C95.1046 27 96 26.1046 96 25V4C96 2.89543 95.1046 2 94 2ZM4 0C1.79086 0 0 1.79086 0 4V25C0 27.2091 1.79086 29 4 29H94C96.2091 29 98 27.2091 98 25V4C98 1.79086 96.2091 0 94 0H4Z" fill="#D1D4DB"/>
<rect x="64" y="2" width="2" height="25" fill="#D1D4DB"/>
<path fill-rule="evenodd" clip-rule="evenodd" d="M84.659 16.902C81.587 16.902 79.097 14.412 79.097 11.34C79.097 9.574 79.937 8.018 81.221 7C77.721 7.398 75 10.367 75 13.975C75 17.855 78.145 21 82.024 21C85.633 21 88.6 18.279 89 14.778C87.981 16.062 86.426 16.902 84.659 16.902Z" fill="#898D9A"/>
<path d="M12.6683 19.1939C15.1243 19.1989 16.5909 17.2599 16.5909 13.919C16.5909 10.598 15.1143 8.67898 12.6683 8.67898C10.2223 8.67898 8.7507 10.593 8.74573 13.919C8.74573 17.255 10.2123 19.1939 12.6683 19.1939ZM12.6683 17.6378C11.4006 17.6378 10.6051 16.3651 10.6101 13.919C10.615 11.4929 11.4055 10.2152 12.6683 10.2152C13.9361 10.2152 14.7266 11.4929 14.7315 13.919C14.7315 16.3651 13.941 17.6378 12.6683 17.6378Z" fill="#D1D4DB"/>
<path d="M22.0062 19.1939C24.4622 19.1989 25.9288 17.2599 25.9288 13.919C25.9288 10.598 24.4522 8.67898 22.0062 8.67898C19.5602 8.67898 18.0886 10.593 18.0836 13.919C18.0836 17.255 19.5502 19.1939 22.0062 19.1939ZM22.0062 17.6378C20.7384 17.6378 19.943 16.3651 19.948 13.919C19.9529 11.4929 20.7434 10.2152 22.0062 10.2152C23.274 10.2152 24.0644 11.4929 24.0694 13.919C24.0694 16.3651 23.2789 17.6378 22.0062 17.6378Z" fill="#D1D4DB"/>
<path d="M32.1818 17.777C32.7685 17.777 33.2706 17.2898 33.2756 16.6832C33.2706 16.0866 32.7685 15.5994 32.1818 15.5994C31.5753 15.5994 31.0831 16.0866 31.0881 16.6832C31.0831 17.2898 31.5753 17.777 32.1818 17.777ZM32.1818 12.7259C32.7685 12.7259 33.2706 12.2386 33.2756 11.6321C33.2706 11.0355 32.7685 10.5483 32.1818 10.5483C31.5753 10.5483 31.0831 11.0355 31.0881 11.6321C31.0831 12.2386 31.5753 12.7259 32.1818 12.7259Z" fill="#D1D4DB"/>
<path d="M42.35 19.1939C44.8059 19.1989 46.2725 17.2599 46.2725 13.919C46.2725 10.598 44.796 8.67898 42.35 8.67898C39.9039 8.67898 38.4323 10.593 38.4274 13.919C38.4274 17.255 39.894 19.1939 42.35 19.1939ZM42.35 17.6378C41.0822 17.6378 40.2867 16.3651 40.2917 13.919C40.2967 11.4929 41.0872 10.2152 42.35 10.2152C43.6177 10.2152 44.4082 11.4929 44.4132 13.919C44.4132 16.3651 43.6227 17.6378 42.35 17.6378Z" fill="#D1D4DB"/>
<path d="M51.6878 19.1939C54.1438 19.1989 55.6104 17.2599 55.6104 13.919C55.6104 10.598 54.1339 8.67898 51.6878 8.67898C49.2418 8.67898 47.7702 10.593 47.7653 13.919C47.7653 17.255 49.2319 19.1939 51.6878 19.1939ZM51.6878 17.6378C50.4201 17.6378 49.6246 16.3651 49.6296 13.919C49.6346 11.4929 50.4251 10.2152 51.6878 10.2152C52.9556 10.2152 53.7461 11.4929 53.7511 13.919C53.7511 16.3651 52.9606 17.6378 51.6878 17.6378Z" fill="#D1D4DB"/>
</svg>
