<svg width="100" height="100" viewBox="0 0 100 100" fill="none" xmlns="http://www.w3.org/2000/svg">
<rect width="100" height="100" fill="white"/>
<path d="M18 39.5H82C83.933 39.5 85.5 41.067 85.5 43V57C85.5 58.933 83.933 60.5 82 60.5H18C16.067 60.5 14.5 58.933 14.5 57V43C14.5 41.067 16.067 39.5 18 39.5Z" stroke="#8649E1"/>
<path d="M24.1293 55.1918C23.3963 55.1889 22.7656 55.0085 22.2372 54.6506C21.7116 54.2926 21.3068 53.7741 21.0227 53.0952C20.7415 52.4162 20.6023 51.5994 20.6051 50.6449C20.6051 49.6932 20.7457 48.8821 21.027 48.2116C21.3111 47.5412 21.7159 47.0312 22.2415 46.6818C22.7699 46.3295 23.3991 46.1534 24.1293 46.1534C24.8594 46.1534 25.4872 46.3295 26.0128 46.6818C26.5412 47.0341 26.9474 47.5455 27.2315 48.2159C27.5156 48.8835 27.6563 49.6932 27.6534 50.6449C27.6534 51.6023 27.5114 52.4205 27.2273 53.0994C26.946 53.7784 26.5426 54.2969 26.017 54.6548C25.4915 55.0128 24.8622 55.1918 24.1293 55.1918ZM24.1293 53.6619C24.6293 53.6619 25.0284 53.4105 25.3267 52.9077C25.625 52.4048 25.7727 51.6506 25.7699 50.6449C25.7699 49.983 25.7017 49.4318 25.5653 48.9915C25.4318 48.5511 25.2415 48.2202 24.9943 47.9986C24.75 47.777 24.4616 47.6662 24.1293 47.6662C23.6321 47.6662 23.2344 47.9148 22.9361 48.4119C22.6378 48.9091 22.4872 49.6534 22.4844 50.6449C22.4844 51.3153 22.5511 51.875 22.6847 52.3239C22.821 52.7699 23.0128 53.1051 23.2599 53.3295C23.5071 53.5511 23.7969 53.6619 24.1293 53.6619ZM32.391 55.1918C31.658 55.1889 31.0273 55.0085 30.4989 54.6506C29.9734 54.2926 29.5685 53.7741 29.2844 53.0952C29.0032 52.4162 28.864 51.5994 28.8668 50.6449C28.8668 49.6932 29.0075 48.8821 29.2887 48.2116C29.5728 47.5412 29.9776 47.0312 30.5032 46.6818C31.0316 46.3295 31.6609 46.1534 32.391 46.1534C33.1211 46.1534 33.7489 46.3295 34.2745 46.6818C34.8029 47.0341 35.2092 47.5455 35.4933 48.2159C35.7773 48.8835 35.918 49.6932 35.9151 50.6449C35.9151 51.6023 35.7731 52.4205 35.489 53.0994C35.2077 53.7784 34.8043 54.2969 34.2788 54.6548C33.7532 55.0128 33.1239 55.1918 32.391 55.1918ZM32.391 53.6619C32.891 53.6619 33.2901 53.4105 33.5884 52.9077C33.8867 52.4048 34.0344 51.6506 34.0316 50.6449C34.0316 49.983 33.9634 49.4318 33.8271 48.9915C33.6935 48.5511 33.5032 48.2202 33.256 47.9986C33.0117 47.777 32.7234 47.6662 32.391 47.6662C31.8938 47.6662 31.4961 47.9148 31.1978 48.4119C30.8995 48.9091 30.7489 49.6534 30.7461 50.6449C30.7461 51.3153 30.8129 51.875 30.9464 52.3239C31.0827 52.7699 31.2745 53.1051 31.5217 53.3295C31.7688 53.5511 32.0586 53.6619 32.391 53.6619ZM38.3089 53.9858C38.0277 53.9858 37.7862 53.8864 37.5845 53.6875C37.3857 53.4886 37.2862 53.2472 37.2862 52.9631C37.2862 52.6847 37.3857 52.446 37.5845 52.2472C37.7862 52.0483 38.0277 51.9489 38.3089 51.9489C38.5817 51.9489 38.8203 52.0483 39.0249 52.2472C39.2294 52.446 39.3317 52.6847 39.3317 52.9631C39.3317 53.1506 39.2834 53.3224 39.1868 53.4787C39.093 53.6321 38.9695 53.7557 38.8161 53.8494C38.6626 53.9403 38.4936 53.9858 38.3089 53.9858ZM38.3089 49.7031C38.0277 49.7031 37.7862 49.6037 37.5845 49.4048C37.3857 49.206 37.2862 48.9645 37.2862 48.6804C37.2862 48.402 37.3857 48.1648 37.5845 47.9688C37.7862 47.7699 38.0277 47.6705 38.3089 47.6705C38.5817 47.6705 38.8203 47.7699 39.0249 47.9688C39.2294 48.1648 39.3317 48.402 39.3317 48.6804C39.3317 48.8707 39.2834 49.044 39.1868 49.2003C39.093 49.3537 38.9695 49.4759 38.8161 49.5668C38.6626 49.6577 38.4936 49.7031 38.3089 49.7031ZM44.2269 55.1918C43.494 55.1889 42.8633 55.0085 42.3349 54.6506C41.8093 54.2926 41.4045 53.7741 41.1204 53.0952C40.8391 52.4162 40.6999 51.5994 40.7028 50.6449C40.7028 49.6932 40.8434 48.8821 41.1246 48.2116C41.4087 47.5412 41.8136 47.0312 42.3391 46.6818C42.8675 46.3295 43.4968 46.1534 44.2269 46.1534C44.957 46.1534 45.5849 46.3295 46.1104 46.6818C46.6388 47.0341 47.0451 47.5455 47.3292 48.2159C47.6133 48.8835 47.7539 49.6932 47.7511 50.6449C47.7511 51.6023 47.609 52.4205 47.3249 53.0994C47.0437 53.7784 46.6403 54.2969 46.1147 54.6548C45.5891 55.0128 44.9599 55.1918 44.2269 55.1918ZM44.2269 53.6619C44.7269 53.6619 45.1261 53.4105 45.4244 52.9077C45.7227 52.4048 45.8704 51.6506 45.8675 50.6449C45.8675 49.983 45.7994 49.4318 45.663 48.9915C45.5295 48.5511 45.3391 48.2202 45.092 47.9986C44.8477 47.777 44.5593 47.6662 44.2269 47.6662C43.7298 47.6662 43.332 47.9148 43.0337 48.4119C42.7354 48.9091 42.5849 49.6534 42.582 50.6449C42.582 51.3153 42.6488 51.875 42.7823 52.3239C42.9187 52.7699 43.1104 53.1051 43.3576 53.3295C43.6048 53.5511 43.8945 53.6619 44.2269 53.6619ZM52.4886 55.1918C51.7557 55.1889 51.125 55.0085 50.5966 54.6506C50.071 54.2926 49.6662 53.7741 49.3821 53.0952C49.1009 52.4162 48.9616 51.5994 48.9645 50.6449C48.9645 49.6932 49.1051 48.8821 49.3864 48.2116C49.6705 47.5412 50.0753 47.0312 50.6009 46.6818C51.1293 46.3295 51.7585 46.1534 52.4886 46.1534C53.2188 46.1534 53.8466 46.3295 54.3722 46.6818C54.9006 47.0341 55.3068 47.5455 55.5909 48.2159C55.875 48.8835 56.0156 49.6932 56.0128 50.6449C56.0128 51.6023 55.8707 52.4205 55.5866 53.0994C55.3054 53.7784 54.902 54.2969 54.3764 54.6548C53.8509 55.0128 53.2216 55.1918 52.4886 55.1918ZM52.4886 53.6619C52.9886 53.6619 53.3878 53.4105 53.6861 52.9077C53.9844 52.4048 54.1321 51.6506 54.1293 50.6449C54.1293 49.983 54.0611 49.4318 53.9247 48.9915C53.7912 48.5511 53.6009 48.2202 53.3537 47.9986C53.1094 47.777 52.821 47.6662 52.4886 47.6662C51.9915 47.6662 51.5938 47.9148 51.2955 48.4119C50.9972 48.9091 50.8466 49.6534 50.8438 50.6449C50.8438 51.3153 50.9105 51.875 51.044 52.3239C51.1804 52.7699 51.3722 53.1051 51.6193 53.3295C51.8665 53.5511 52.1562 53.6619 52.4886 53.6619Z" fill="#DCB8FF"/>
<rect x="64" y="40" width="1" height="20" fill="#8649E1"/>
<path fill-rule="evenodd" clip-rule="evenodd" d="M78.2791 52.4874C75.646 52.4874 73.5117 50.3531 73.5117 47.72C73.5117 46.2063 74.2317 44.8726 75.3323 44C72.3323 44.3411 70 46.886 70 49.9786C70 53.3043 72.6957 56 76.0206 56C79.114 56 81.6571 53.6677 82 50.6669C81.1266 51.7674 79.7937 52.4874 78.2791 52.4874" fill="#8649E1"/>
</svg>
