<svg width="80" height="80" viewBox="0 0 80 80" fill="none" xmlns="http://www.w3.org/2000/svg">
<rect width="80" height="80" fill="white"/>
<path d="M10.2886 35.5249L10.5 35.3755V35.1166V29C10.5 25.9624 12.9624 23.5 16 23.5H69C72.0375 23.5 74.5 25.9624 74.5 29V51C74.5 54.0376 72.0375 56.5 69 56.5H16C12.9624 56.5 10.5 54.0376 10.5 51V44.0544V43.7982L10.292 43.6486L5.16428 39.9592C4.88555 39.7586 4.88728 39.3432 5.16767 39.145L10.2886 35.5249Z" stroke="#8649E1"/>
<rect x="19" y="33" width="48" height="4" rx="2" fill="#EDD9FF"/>
<rect x="19" y="43" width="38" height="4" rx="2" fill="#EDD9FF"/>
</svg>
