<svg width="100" height="100" viewBox="0 0 100 100" fill="none" xmlns="http://www.w3.org/2000/svg">
<rect width="100" height="100" fill="white"/>
<path d="M20.2886 45.5249L20.5 45.3755V45.1166V39C20.5 35.9624 22.9624 33.5 26 33.5H79C82.0375 33.5 84.5 35.9624 84.5 39V61C84.5 64.0376 82.0375 66.5 79 66.5H26C22.9624 66.5 20.5 64.0376 20.5 61V54.0544V53.7982L20.292 53.6486L15.1643 49.9592C14.8855 49.7586 14.8873 49.3432 15.1677 49.145L20.2886 45.5249Z" stroke="#8649E1"/>
<rect x="29" y="43" width="48" height="4" rx="2" fill="#EDD9FF"/>
<rect x="29" y="53" width="38" height="4" rx="2" fill="#EDD9FF"/>
</svg>
