<svg width="80" height="80" viewBox="0 0 80 80" fill="none" xmlns="http://www.w3.org/2000/svg">
<rect width="80" height="80" fill="white"/>
<path d="M13.7827 22.7242H9V23.8229H13.7827V22.7242Z" fill="#C695FF"/>
<path d="M15.2953 22.2469L18.5765 34.4373H20.1525L16.8713 22.2469H15.2953Z" fill="#C695FF"/>
<path d="M26.9487 32.906H20.3713V34.3428H26.9487V32.906Z" fill="#C695FF"/>
<path d="M28.3022 28.7547C28.3022 31.2355 28.9634 33.2988 30.271 35.0686H31.9663C30.957 33.7561 30.1765 31.1113 30.1765 28.7547C30.1765 26.3932 30.957 23.7483 31.9663 22.4358H30.271C28.9634 24.2057 28.3022 26.2739 28.3022 28.7547Z" fill="#C695FF"/>
<path d="M39.0618 22L37.3118 22.574C37.7318 23.442 38.5018 25.472 38.7678 26.368L40.5318 25.752C40.2658 24.842 39.4118 22.686 39.0618 22ZM45.4598 23.12L43.3598 22.518C43.1218 24.66 42.2538 27.068 41.2038 28.398C39.7758 30.204 37.5918 31.464 35.6738 32.01L37.2418 33.578C39.2438 32.822 41.2738 31.408 42.7438 29.476C43.9058 27.95 44.7038 25.724 45.0958 24.198C45.1798 23.89 45.3058 23.47 45.4598 23.12ZM35.1698 22.868L33.3778 23.484C33.7838 24.24 34.7078 26.536 34.9878 27.446L36.7938 26.788C36.4718 25.836 35.5898 23.75 35.1698 22.868Z" fill="#C695FF"/>
<path d="M50.5762 28.7547C50.5762 26.2739 49.915 24.2107 48.6074 22.4408H46.9121C47.9213 23.7533 48.7019 26.3982 48.7019 28.7547C48.7019 31.1162 47.9213 33.7611 46.9121 35.0736H48.6074C49.915 33.3037 50.5762 31.2355 50.5762 28.7547Z" fill="#C695FF"/>
<path d="M58.517 32.906H51.9396V34.3428H58.517V32.906Z" fill="#C695FF"/>
<path d="M63.5794 22.2469H62.0034L58.7221 34.4373H60.2981L63.5794 22.2469Z" fill="#C695FF"/>
<path d="M69.8784 22.7242H65.0957V23.8229H69.8784V22.7242Z" fill="#C695FF"/>
<rect x="20.7075" y="52.9058" width="42" height="6" rx="3" fill="#EDD9FF"/>
<rect x="12.7075" y="42.9058" width="58" height="6" rx="3" fill="#EDD9FF"/>
</svg>
