<svg width="100" height="100" viewBox="0 0 100 100" fill="none" xmlns="http://www.w3.org/2000/svg">
<rect width="100" height="100" fill="white"/>
<path d="M23.7827 32.7242H19V33.8229H23.7827V32.7242Z" fill="#C695FF"/>
<path d="M25.2953 32.2469L28.5765 44.4373H30.1525L26.8713 32.2469H25.2953Z" fill="#C695FF"/>
<path d="M36.9487 42.906H30.3713V44.3428H36.9487V42.906Z" fill="#C695FF"/>
<path d="M38.3022 38.7547C38.3022 41.2355 38.9634 43.2988 40.271 45.0686H41.9663C40.957 43.7561 40.1765 41.1113 40.1765 38.7547C40.1765 36.3932 40.957 33.7483 41.9663 32.4358H40.271C38.9634 34.2057 38.3022 36.2739 38.3022 38.7547Z" fill="#C695FF"/>
<path d="M49.0618 32L47.3118 32.574C47.7318 33.442 48.5018 35.472 48.7678 36.368L50.5318 35.752C50.2658 34.842 49.4118 32.686 49.0618 32ZM55.4598 33.12L53.3598 32.518C53.1218 34.66 52.2538 37.068 51.2038 38.398C49.7758 40.204 47.5918 41.464 45.6738 42.01L47.2418 43.578C49.2438 42.822 51.2738 41.408 52.7438 39.476C53.9058 37.95 54.7038 35.724 55.0958 34.198C55.1798 33.89 55.3058 33.47 55.4598 33.12ZM45.1698 32.868L43.3778 33.484C43.7838 34.24 44.7078 36.536 44.9878 37.446L46.7938 36.788C46.4718 35.836 45.5898 33.75 45.1698 32.868Z" fill="#C695FF"/>
<path d="M60.5762 38.7547C60.5762 36.2739 59.915 34.2107 58.6074 32.4408H56.9121C57.9213 33.7533 58.7019 36.3982 58.7019 38.7547C58.7019 41.1162 57.9213 43.7611 56.9121 45.0736H58.6074C59.915 43.3037 60.5762 41.2355 60.5762 38.7547Z" fill="#C695FF"/>
<path d="M68.517 42.906H61.9396V44.3428H68.517V42.906Z" fill="#C695FF"/>
<path d="M73.5794 32.2469H72.0034L68.7221 44.4373H70.2981L73.5794 32.2469Z" fill="#C695FF"/>
<path d="M79.8784 32.7242H75.0957V33.8229H79.8784V32.7242Z" fill="#C695FF"/>
<rect x="30.7074" y="62.9058" width="42" height="6" rx="3" fill="#EDD9FF"/>
<rect x="22.7074" y="52.9058" width="58" height="6" rx="3" fill="#EDD9FF"/>
</svg>
