<svg width="100" height="56" viewBox="0 0 100 56" fill="none" xmlns="http://www.w3.org/2000/svg">
<path fill-rule="evenodd" clip-rule="evenodd" d="M96 2H4C2.89543 2 2 2.89543 2 4V52C2 53.1046 2.89543 54 4 54H96C97.1046 54 98 53.1046 98 52V4C98 2.89543 97.1046 2 96 2ZM4 0C1.79086 0 0 1.79086 0 4V52C0 54.2091 1.79086 56 4 56H96C98.2091 56 100 54.2091 100 52V4C100 1.79086 98.2091 0 96 0H4Z" fill="#D1D4DB"/>
<rect x="33" y="31" width="34" height="4" rx="2" fill="#D1D4DB"/>
<rect x="25" y="38" width="50" height="4" rx="2" fill="#D1D4DB"/>
<path d="M22.0753 12.8182H17.2926V13.9169H22.0753V12.8182Z" fill="#898D9A"/>
<path d="M23.5879 12.3409L26.8691 24.5312H28.4451L25.1639 12.3409H23.5879Z" fill="#898D9A"/>
<path d="M35.2413 23H28.6639V24.4368H35.2413V23Z" fill="#898D9A"/>
<path d="M36.5948 18.8487C36.5948 21.3295 37.256 23.3927 38.5636 25.1626H40.2589C39.2496 23.8501 38.4691 21.2053 38.4691 18.8487C38.4691 16.4872 39.2496 13.8423 40.2589 12.5298H38.5636C37.256 14.2997 36.5948 16.3679 36.5948 18.8487Z" fill="#898D9A"/>
<path d="M47.3544 12.094L45.6044 12.668C46.0244 13.536 46.7944 15.566 47.0604 16.462L48.8244 15.846C48.5584 14.936 47.7044 12.78 47.3544 12.094ZM53.7524 13.214L51.6524 12.612C51.4144 14.754 50.5464 17.162 49.4964 18.492C48.0684 20.298 45.8844 21.558 43.9664 22.104L45.5344 23.672C47.5364 22.916 49.5664 21.502 51.0364 19.57C52.1984 18.044 52.9964 15.818 53.3884 14.292C53.4724 13.984 53.5984 13.564 53.7524 13.214ZM43.4624 12.962L41.6704 13.578C42.0764 14.334 43.0004 16.63 43.2804 17.54L45.0864 16.882C44.7644 15.93 43.8824 13.844 43.4624 12.962Z" fill="#898D9A"/>
<path d="M58.8688 18.8487C58.8688 16.3679 58.2076 14.3047 56.9 12.5348H55.2047C56.2139 13.8473 56.9945 16.4922 56.9945 18.8487C56.9945 21.2102 56.2139 23.8551 55.2047 25.1676H56.9C58.2076 23.3977 58.8688 21.3295 58.8688 18.8487Z" fill="#898D9A"/>
<path d="M66.8096 23H60.2322V24.4368H66.8096V23Z" fill="#898D9A"/>
<path d="M71.872 12.3409H70.296L67.0147 24.5312H68.5907L71.872 12.3409Z" fill="#898D9A"/>
<path d="M78.171 12.8182H73.3883V13.9169H78.171V12.8182Z" fill="#898D9A"/>
</svg>
