<svg width="100" height="100" viewBox="0 0 100 100" fill="none" xmlns="http://www.w3.org/2000/svg">
<rect width="100" height="100" fill="#F9F2FF"/>
<rect x="8.5" y="22.5" width="83" height="55" rx="3.5" fill="white" stroke="#8649E1"/>
<rect x="21" y="28" width="12" height="6" rx="3" fill="#C695FF"/>
<rect x="21" y="38" width="14" height="6" rx="3" fill="#EDD9FF"/>
<rect x="21" y="48" width="8" height="6" rx="3" fill="#EDD9FF"/>
<rect x="40" y="23" width="1" height="54" fill="#8649E1"/>
<rect x="47" y="28" width="20" height="6" rx="3" fill="#C695FF"/>
<path fill-rule="evenodd" clip-rule="evenodd" d="M52.7071 60.2929C53.0976 60.6834 53.0976 61.3166 52.7071 61.7071L49.4142 65L52.7071 68.2929C53.0976 68.6834 53.0976 69.3166 52.7071 69.7071C52.3166 70.0976 51.6834 70.0976 51.2929 69.7071L47.2929 65.7071C46.9024 65.3166 46.9024 64.6834 47.2929 64.2929L51.2929 60.2929C51.6834 59.9024 52.3166 59.9024 52.7071 60.2929Z" fill="#8649E1"/>
<path fill-rule="evenodd" clip-rule="evenodd" d="M61.2929 69.7071C60.9024 69.3166 60.9024 68.6834 61.2929 68.2929L64.5858 65L61.2929 61.7071C60.9024 61.3166 60.9024 60.6834 61.2929 60.2929C61.6834 59.9024 62.3166 59.9024 62.7071 60.2929L66.7071 64.2929C67.0976 64.6834 67.0976 65.3166 66.7071 65.7071L62.7071 69.7071C62.3166 70.0976 61.6834 70.0976 61.2929 69.7071Z" fill="#8649E1"/>
<path d="M17.0028 28.1818V34H15.7727V29.3494H15.7386L14.4062 30.1847V29.0938L15.8466 28.1818H17.0028Z" fill="#AB6CFE"/>
<path d="M14.4716 44V43.1136L16.5426 41.196C16.7188 41.0256 16.8665 40.8722 16.9858 40.7358C17.107 40.5994 17.1989 40.4659 17.2614 40.3352C17.3239 40.2027 17.3551 40.0597 17.3551 39.9062C17.3551 39.7358 17.3163 39.589 17.2386 39.4659C17.161 39.3409 17.0549 39.2453 16.9205 39.179C16.786 39.1108 16.6335 39.0767 16.4631 39.0767C16.285 39.0767 16.1297 39.1127 15.9972 39.1847C15.8646 39.2566 15.7623 39.3598 15.6903 39.4943C15.6184 39.6288 15.5824 39.7888 15.5824 39.9744H14.4148C14.4148 39.5937 14.5009 39.2633 14.6733 38.983C14.8456 38.7027 15.0871 38.4858 15.3977 38.3324C15.7083 38.179 16.0663 38.1023 16.4716 38.1023C16.8883 38.1023 17.2509 38.1761 17.5597 38.3239C17.8703 38.4697 18.1117 38.6723 18.2841 38.9318C18.4564 39.1913 18.5426 39.4886 18.5426 39.8239C18.5426 40.0436 18.4991 40.2604 18.4119 40.4744C18.3267 40.6884 18.1742 40.9261 17.9545 41.1875C17.7348 41.447 17.4252 41.7585 17.0256 42.1222L16.1761 42.9545V42.9943H18.6193V44H14.4716Z" fill="#C695FF"/>
<path d="M16.6222 54.0795C16.1979 54.0795 15.8201 54.0066 15.4886 53.8608C15.1591 53.7131 14.8987 53.5104 14.7074 53.2528C14.518 52.9934 14.4205 52.6941 14.4148 52.3551H15.6534C15.661 52.4972 15.7074 52.6222 15.7926 52.7301C15.8797 52.8362 15.9953 52.9186 16.1392 52.9773C16.2831 53.036 16.4451 53.0653 16.625 53.0653C16.8125 53.0653 16.9782 53.0322 17.1222 52.9659C17.2661 52.8996 17.3788 52.8078 17.4602 52.6903C17.5417 52.5729 17.5824 52.4375 17.5824 52.2841C17.5824 52.1288 17.5388 51.9915 17.4517 51.8722C17.3665 51.7509 17.2434 51.6562 17.0824 51.5881C16.9233 51.5199 16.7339 51.4858 16.5142 51.4858H15.9716V50.5824H16.5142C16.6998 50.5824 16.8636 50.5502 17.0057 50.4858C17.1496 50.4214 17.2614 50.3324 17.3409 50.2188C17.4205 50.1032 17.4602 49.9688 17.4602 49.8153C17.4602 49.6695 17.4252 49.5417 17.3551 49.4318C17.2869 49.3201 17.1903 49.233 17.0653 49.1705C16.9422 49.108 16.7983 49.0767 16.6335 49.0767C16.4669 49.0767 16.3144 49.107 16.1761 49.1676C16.0379 49.2263 15.9271 49.3106 15.8438 49.4205C15.7604 49.5303 15.7159 49.6591 15.7102 49.8068H14.5312C14.5369 49.4716 14.6326 49.1761 14.8182 48.9205C15.0038 48.6648 15.2538 48.465 15.5682 48.321C15.8845 48.1752 16.2415 48.1023 16.6392 48.1023C17.0407 48.1023 17.392 48.1752 17.6932 48.321C17.9943 48.4669 18.2282 48.6638 18.3949 48.9119C18.5634 49.1581 18.6468 49.4347 18.6449 49.7415C18.6468 50.0672 18.5455 50.339 18.3409 50.5568C18.1383 50.7746 17.8741 50.9129 17.5483 50.9716V51.017C17.9763 51.072 18.3021 51.2206 18.5256 51.4631C18.7509 51.7036 18.8627 52.0047 18.8608 52.3665C18.8627 52.6979 18.767 52.9924 18.5739 53.25C18.3826 53.5076 18.1184 53.7102 17.7812 53.858C17.4441 54.0057 17.0578 54.0795 16.6222 54.0795Z" fill="#C695FF"/>
</svg>
