<svg width="80" height="80" viewBox="0 0 80 80" fill="none" xmlns="http://www.w3.org/2000/svg">
<rect width="80" height="80" fill="#F9F2FF"/>
<rect x="2.5" y="12.5" width="75" height="55" rx="3.5" fill="white" stroke="#8649E1"/>
<rect x="15" y="18" width="12" height="6" rx="3" fill="#C695FF"/>
<rect x="15" y="28" width="14" height="6" rx="3" fill="#EDD9FF"/>
<rect x="15" y="38" width="8" height="6" rx="3" fill="#EDD9FF"/>
<rect x="34" y="13" width="1" height="54" fill="#8649E1"/>
<rect x="41" y="18" width="20" height="6" rx="3" fill="#C695FF"/>
<path fill-rule="evenodd" clip-rule="evenodd" d="M46.7071 50.2929C47.0976 50.6834 47.0976 51.3166 46.7071 51.7071L43.4142 55L46.7071 58.2929C47.0976 58.6834 47.0976 59.3166 46.7071 59.7071C46.3166 60.0976 45.6834 60.0976 45.2929 59.7071L41.2929 55.7071C40.9024 55.3166 40.9024 54.6834 41.2929 54.2929L45.2929 50.2929C45.6834 49.9024 46.3166 49.9024 46.7071 50.2929Z" fill="#8649E1"/>
<path fill-rule="evenodd" clip-rule="evenodd" d="M55.2929 59.7071C54.9024 59.3166 54.9024 58.6834 55.2929 58.2929L58.5858 55L55.2929 51.7071C54.9024 51.3166 54.9024 50.6834 55.2929 50.2929C55.6834 49.9024 56.3166 49.9024 56.7071 50.2929L60.7071 54.2929C61.0976 54.6834 61.0976 55.3166 60.7071 55.7071L56.7071 59.7071C56.3166 60.0976 55.6834 60.0976 55.2929 59.7071Z" fill="#8649E1"/>
<path d="M11.0028 18.1818V24H9.77273V19.3494H9.73864L8.40625 20.1847V19.0938L9.84659 18.1818H11.0028Z" fill="#AB6CFE"/>
<path d="M8.47159 34V33.1136L10.5426 31.196C10.7188 31.0256 10.8665 30.8722 10.9858 30.7358C11.107 30.5994 11.1989 30.4659 11.2614 30.3352C11.3239 30.2027 11.3551 30.0597 11.3551 29.9062C11.3551 29.7358 11.3163 29.589 11.2386 29.4659C11.161 29.3409 11.0549 29.2453 10.9205 29.179C10.786 29.1108 10.6335 29.0767 10.4631 29.0767C10.285 29.0767 10.1297 29.1127 9.99716 29.1847C9.86458 29.2566 9.76231 29.3598 9.69034 29.4943C9.61837 29.6288 9.58239 29.7888 9.58239 29.9744H8.41477C8.41477 29.5937 8.50095 29.2633 8.6733 28.983C8.84564 28.7027 9.08712 28.4858 9.39773 28.3324C9.70833 28.179 10.0663 28.1023 10.4716 28.1023C10.8883 28.1023 11.2509 28.1761 11.5597 28.3239C11.8703 28.4697 12.1117 28.6723 12.2841 28.9318C12.4564 29.1913 12.5426 29.4886 12.5426 29.8239C12.5426 30.0436 12.4991 30.2604 12.4119 30.4744C12.3267 30.6884 12.1742 30.9261 11.9545 31.1875C11.7348 31.447 11.4252 31.7585 11.0256 32.1222L10.1761 32.9545V32.9943H12.6193V34H8.47159Z" fill="#C695FF"/>
<path d="M10.6222 44.0795C10.1979 44.0795 9.82008 44.0066 9.48864 43.8608C9.15909 43.7131 8.89867 43.5104 8.70739 43.2528C8.51799 42.9934 8.42045 42.6941 8.41477 42.3551H9.65341C9.66098 42.4972 9.70739 42.6222 9.79261 42.7301C9.87973 42.8362 9.99527 42.9186 10.1392 42.9773C10.2831 43.036 10.4451 43.0653 10.625 43.0653C10.8125 43.0653 10.9782 43.0322 11.1222 42.9659C11.2661 42.8996 11.3788 42.8078 11.4602 42.6903C11.5417 42.5729 11.5824 42.4375 11.5824 42.2841C11.5824 42.1288 11.5388 41.9915 11.4517 41.8722C11.3665 41.7509 11.2434 41.6562 11.0824 41.5881C10.9233 41.5199 10.7339 41.4858 10.5142 41.4858H9.97159V40.5824H10.5142C10.6998 40.5824 10.8636 40.5502 11.0057 40.4858C11.1496 40.4214 11.2614 40.3324 11.3409 40.2188C11.4205 40.1032 11.4602 39.9688 11.4602 39.8153C11.4602 39.6695 11.4252 39.5417 11.3551 39.4318C11.2869 39.3201 11.1903 39.233 11.0653 39.1705C10.9422 39.108 10.7983 39.0767 10.6335 39.0767C10.4669 39.0767 10.3144 39.107 10.1761 39.1676C10.0379 39.2263 9.92708 39.3106 9.84375 39.4205C9.76042 39.5303 9.71591 39.6591 9.71023 39.8068H8.53125C8.53693 39.4716 8.63258 39.1761 8.81818 38.9205C9.00379 38.6648 9.25379 38.465 9.56818 38.321C9.88447 38.1752 10.2415 38.1023 10.6392 38.1023C11.0407 38.1023 11.392 38.1752 11.6932 38.321C11.9943 38.4669 12.2282 38.6638 12.3949 38.9119C12.5634 39.1581 12.6468 39.4347 12.6449 39.7415C12.6468 40.0672 12.5455 40.339 12.3409 40.5568C12.1383 40.7746 11.8741 40.9129 11.5483 40.9716V41.017C11.9763 41.072 12.3021 41.2206 12.5256 41.4631C12.7509 41.7036 12.8627 42.0047 12.8608 42.3665C12.8627 42.6979 12.767 42.9924 12.5739 43.25C12.3826 43.5076 12.1184 43.7102 11.7812 43.858C11.4441 44.0057 11.0578 44.0795 10.6222 44.0795Z" fill="#C695FF"/>
</svg>
