<svg xmlns="http://www.w3.org/2000/svg" xlink="http://www.w3.org/1999/xlink" width="44" height="44" viewBox="0 0 44 44"><path d="M17,43 L21,43 L21,41 L17,41 L17,43 Z M1,19 L3,19 L3,15 L1,15 L1,19 Z M1,27 L3,27 L3,23 L1,23 L1,27 Z M1,35 L3,35 L3,31 L1,31 L1,35 Z M9,9 L13,9 L13,7 L9,7 L9,9 Z M9,43 L13,43 L13,41 L9,41 L9,43 Z M1,9 L1,11 L3,11 L3,9 L5,9 L5,7 L3,7 C1.9,7 1,7.9 1,9 L1,9 Z M27,41 L25,41 L25,43 L27,43 C28.1,43 29,42.1 29,41 L29,39 L27,39 L27,41 Z M3,39 L1,39 L1,41 C1,42.1 1.9,43 3,43 L5,43 L5,41 L3,41 L3,39 Z M39,33 L19,33 L19,5 L30,5 L30,12 C30,13.1 30.9,14 32,14 L39,14 L39,33 Z M33,7.2 L36.8,11 L33,11 L33,7.2 Z M32,2 L18,2 C16.9,2 16,2.9 16,4 L16,34 C16,35.1 16.9,36 18,36 L40,36 C41.1,36 42,35.1 42,34 L42,12 L32,2 Z"/></svg>
