<svg xmlns="http://www.w3.org/2000/svg" xlink="http://www.w3.org/1999/xlink" width="22" height="22" viewBox="0 0 22 22"><path d="M17.5,0 L22,4.5 L22,14 C22,15.1 21.1,16 20,16 L11,16 C9.9,16 9,15.1 9,14 L9,2 C9,0.9 9.9,0 11,0 L17.5,0 Z M17,5 L20,5 L17,2 L17,5 Z M20,14 L20,7 L15,7 L15,2 L11,2 L11,14 L20,14 Z M1,10.0002 L2.999,10.0002 L3,12.0002 L1,12.0002 L1,10.0002 Z M1,6.999 C1,5.896 1.896,5 2.999,5 L3,5 L3,7 L2.999,7 L2.999,8 L1,8 L1,6.999 Z M5,7 L5,5 L7,5 L7,7 L5,7 Z M1,16 L1,14 L3,14 L3,16 L1,16 Z M13.002,19 L13.002,18 L15,18 L15,19.001 C15,20.104 14.104,21 13.001,21 L13,21 L13,19 L13.002,19 Z M9,21 L9,19 L11,19 L11,21 L9,21 Z M5,21 L5,19.001 L7,19.001 L7,21 L5,21 Z M1,19.001 L1,18 L3,18 L3,19.001 L3,21 L2.999,21 C1.896,21 1,20.104 1,19.001 Z"/></svg>
