<svg xmlns="http://www.w3.org/2000/svg" xlink="http://www.w3.org/1999/xlink" width="16" height="16" viewBox="0 0 16 16"><path d="M11.5,0 L16,4.5 L16,11 C16,11.6 15.6,12 15,12 L7,12 C6.4,12 6,11.6 6,11 L6,1 C6,0.4 6.4,0 7,0 L11.5,0 Z M11,5 L14,5 L11,2 L11,5 Z M14,10 L14,6 L10,6 L10,2 L8,2 L8,10 L14,10 Z M1,11 L1,10 L2,10 L2,11 L1,11 Z M1,9 L1,8 L2,8 L2,9 L1,9 Z M1,13 L1,12 L2,12 L2,13 L1,13 Z M1,7 L1,6 L2,6 L2,7 L1,7 Z M4,5 L4,4 L5,4 L5,5 L4,5 Z M3,4 L3,5 L1.093,5 C1.301,4.418 1.852,4 2.504,4 L3,4 Z M5,16 L5,15 L6,15 L6,16 L5,16 Z M1,14.4951 L1,14.0001 L2,14.0001 L2,15.9071 C1.418,15.6991 1,15.1481 1,14.4951 Z M9,15 L10.907,15 C10.699,15.582 10.148,16 9.496,16 L9,16 L9,15 Z M10,14 L10,13 L11,13 L11,14 L10,14 Z M3,16 L3,15 L4,15 L4,16 L3,16 Z M7,16 L7,15 L8,15 L8,16 L7,16 Z"/></svg>
