<svg xmlns="http://www.w3.org/2000/svg" xlink="http://www.w3.org/1999/xlink" width="12" height="12" viewBox="0 0 12 12"><path d="M8.5,0 L12,3.5 L12,8 C12,8.553 11.553,9 11,9 L5,9 C4.447,9 4,8.553 4,8 L4,1 C4,0.447 4.447,0 5,0 L8.5,0 Z M9,4 L11,4 L9,1.914 L9,4 Z M5,8 L11,8 L11,5 L8,5 L8,1 L5,1 L5,8 Z M1,8.001 L1,7 L2,7 L2,8.001 L1,8.001 Z M1,6 L1,5 L2,5 L2,6 L1,6 Z M3,3 L3,4 L1,4 C1,3.447 1.447,3 2,3 L3,3 Z M1,10 L1,9 L2,9 L2,10 L1,10 Z M4,12 L4,11 L5,11 L5,12 L4,12 Z M9,10 L9,11 C9,11.553 8.553,12 8,12 L8,10 L9,10 Z M1,11 L3,11 L3,12 L2,12 C1.447,12 1,11.553 1,11 Z M6,12 L6,11 L7,11 L7,12 L6,12 Z"/></svg>
