<svg xmlns="http://www.w3.org/2000/svg" xlink="http://www.w3.org/1999/xlink" width="22" height="22" viewBox="0 0 22 22"><path d="M9.9287,16.6064 C10.7037,16.9254 11.5417,17.0934 12.4067,17.0934 C12.6137,17.0934 12.8167,17.0684 13.0207,17.0494 L9.5347,20.5354 C8.5917,21.4794 7.3357,22.0004 5.9997,22.0004 C4.6637,22.0004 3.4077,21.4794 2.4647,20.5354 C1.5207,19.5914 0.9997,18.3354 0.9997,17.0004 C0.9997,15.6644 1.5207,14.4084 2.4647,13.4644 L7.0587,8.8714 C7.2147,8.7144 7.3677,8.5954 7.5197,8.4914 C8.3967,7.8004 9.4597,7.4064 10.5937,7.4064 C11.0337,7.4064 11.4587,7.4824 11.8727,7.5914 C12.7167,7.8144 13.4957,8.2374 14.1287,8.8714 C14.6167,9.3594 14.6167,10.1514 14.1287,10.6384 C13.8847,10.8824 13.5647,11.0044 13.2447,11.0044 C12.9247,11.0044 12.6057,10.8824 12.3617,10.6384 C11.4157,9.6934 9.7717,9.6934 8.8267,10.6384 L4.2327,15.2324 C3.7597,15.7054 3.4997,16.3324 3.4997,17.0004 C3.4997,17.6684 3.7597,18.2944 4.2327,18.7674 C5.1777,19.7124 6.8227,19.7124 7.7677,18.7674 L9.9287,16.6064 Z M20.5352,2.4648 C21.4792,3.4078 22.0002,4.6638 22.0002,5.9998 C22.0002,7.3358 21.4792,8.5918 20.5352,9.5348 L15.9412,14.1288 C15.7642,14.3058 15.6122,14.4248 15.4652,14.5208 C14.5922,15.2038 13.5342,15.5938 12.4062,15.5938 C11.9662,15.5938 11.5412,15.5178 11.1272,15.4078 C10.2832,15.1848 9.5042,14.7618 8.8712,14.1288 C8.3832,13.6408 8.3832,12.8488 8.8712,12.3608 C9.1152,12.1168 9.4352,11.9948 9.7552,11.9948 C10.0752,11.9948 10.3942,12.1168 10.6392,12.3608 C11.5842,13.3068 13.2282,13.3068 14.1732,12.3618 L18.7672,7.7678 C19.2402,7.2948 19.5002,6.6678 19.5002,5.9998 C19.5002,5.3318 19.2402,4.7048 18.7672,4.2328 C18.2952,3.7598 17.6682,3.4998 17.0002,3.4998 C16.3322,3.4998 15.7052,3.7598 15.2322,4.2328 L13.0712,6.3938 C12.2962,6.0738 11.4582,5.9058 10.5942,5.9058 C10.3862,5.9058 10.1832,5.9308 9.9792,5.9508 L13.4652,2.4648 C14.4082,1.5208 15.6642,0.9998 17.0002,0.9998 C18.3362,0.9998 19.5922,1.5208 20.5352,2.4648 Z"/></svg>
