<svg xmlns="http://www.w3.org/2000/svg" xlink="http://www.w3.org/1999/xlink" width="16" height="16" viewBox="0 0 16 16"><path d="M14.8281,1.1338 C15.5841,1.8888 16.0001,2.8938 16.0001,3.9618 C16.0001,5.0298 15.5841,6.0348 14.8281,6.7898 L11.3281,10.2898 C10.5731,11.0458 9.5681,11.4618 8.5001,11.4618 C8.2991,11.4618 8.1031,11.4388 7.9101,11.4048 C7.0661,11.2798 6.2851,10.9048 5.6721,10.2898 C5.2811,9.8998 5.2811,9.2658 5.6721,8.8758 C6.0621,8.4858 6.6951,8.4858 7.0861,8.8758 C7.8421,9.6318 9.1581,9.6318 9.9141,8.8758 L13.4141,5.3758 C13.7921,4.9978 14.0001,4.4958 14.0001,3.9618 C14.0001,3.4278 13.7921,2.9258 13.4141,2.5478 C13.0361,2.1698 12.5341,1.9618 12.0001,1.9618 C11.4661,1.9618 10.9641,2.1698 10.5861,2.5478 L9.3111,3.8228 C8.7411,3.5938 8.1331,3.4618 7.5001,3.4618 C7.2531,3.4618 7.0131,3.4978 6.7721,3.5328 L9.1721,1.1338 C10.6821,-0.3782 13.3181,-0.3782 14.8281,1.1338 Z M6.6885,12.1391 C7.2585,12.3681 7.8675,12.5001 8.5005,12.5001 C8.7475,12.5001 8.9875,12.4641 9.2275,12.4291 L6.8285,14.8281 C5.3185,16.3401 2.6815,16.3401 1.1715,14.8281 C0.4165,14.0731 0.0005,13.0681 0.0005,12.0001 C0.0005,10.9311 0.4165,9.9271 1.1715,9.1721 L4.6715,5.6721 C5.4265,4.9161 6.4315,4.5001 7.5005,4.5001 C7.7015,4.5001 7.8965,4.5231 8.0895,4.5571 C8.9335,4.6821 9.7145,5.0571 10.3285,5.6721 C10.7185,6.0621 10.7185,6.6961 10.3285,7.0861 C9.9375,7.4761 9.3045,7.4761 8.9145,7.0861 C8.1585,6.3301 6.8415,6.3301 6.0855,7.0861 L2.5855,10.5861 C2.2085,10.9641 2.0005,11.4661 2.0005,12.0001 C2.0005,12.5341 2.2085,13.0361 2.5855,13.4141 C2.9635,13.7921 3.4655,14.0001 4.0005,14.0001 C4.5345,14.0001 5.0365,13.7921 5.4145,13.4141 L6.6885,12.1391 Z"/></svg>
