<svg xmlns="http://www.w3.org/2000/svg" xlink="http://www.w3.org/1999/xlink" width="12" height="12" viewBox="0 0 12 12"><path d="M6.2557,9.7432 C6.3477,9.7432 6.4357,9.7232 6.5257,9.7182 L5.1207,11.1222 C4.5347,11.7072 3.7677,12.0002 2.9987,12.0002 C2.2307,12.0002 1.4627,11.7072 0.8777,11.1222 C-0.2933,9.9522 -0.2933,8.0492 0.8777,6.8792 L3.6227,4.1352 C4.2067,3.5502 4.9757,3.2572 5.7437,3.2572 C5.7967,3.2572 5.8477,3.2692 5.9007,3.2712 C6.0777,3.2812 6.2557,3.3062 6.4307,3.3462 C6.4337,3.3462 6.4357,3.3472 6.4387,3.3472 C6.6077,3.3872 6.7737,3.4402 6.9357,3.5092 C6.9807,3.5282 7.0217,3.5562 7.0657,3.5772 C7.1857,3.6352 7.3047,3.6932 7.4167,3.7682 C7.5657,3.8682 7.7067,3.9832 7.8397,4.1132 C7.8477,4.1212 7.8577,4.1272 7.8647,4.1352 C8.0077,4.2752 8.1387,4.4362 8.2537,4.6102 C8.4057,4.8412 8.3417,5.1512 8.1107,5.3032 C8.0267,5.3592 7.9307,5.3862 7.8357,5.3862 C7.6737,5.3862 7.5147,5.3062 7.4187,5.1612 C7.3417,5.0442 7.2537,4.9372 7.1587,4.8432 C6.3777,4.0612 5.1097,4.0612 4.3297,4.8422 L4.3287,4.8422 L1.5847,7.5862 C0.8047,8.3662 0.8047,9.6362 1.5847,10.4152 C2.3637,11.1942 3.6347,11.1942 4.4137,10.4152 L5.2337,9.5952 C5.5647,9.6822 5.9037,9.7432 6.2557,9.7432 Z M11.1219,0.8779 C12.2929,2.0479 12.2929,3.9509 11.1219,5.1209 L8.3779,7.8649 C7.7929,8.4499 7.0239,8.7419 6.2559,8.7419 C6.2039,8.7419 6.1519,8.7309 6.1009,8.7279 C5.9219,8.7189 5.7439,8.6939 5.5679,8.6539 L5.5639,8.6519 C5.3939,8.6129 5.2259,8.5599 5.0639,8.4899 C5.0219,8.4729 4.9839,8.4469 4.9429,8.4269 C4.8199,8.3679 4.6979,8.3079 4.5819,8.2309 C4.4349,8.1309 4.2939,8.0169 4.1619,7.8869 C4.1529,7.8789 4.1429,7.8729 4.1349,7.8649 C3.9919,7.7249 3.8609,7.5639 3.7459,7.3899 C3.5939,7.1589 3.6579,6.8479 3.8889,6.6959 C3.9739,6.6399 4.0689,6.6129 4.1639,6.6129 C4.3259,6.6129 4.4849,6.6919 4.5809,6.8379 C4.6579,6.9549 4.7459,7.0629 4.8409,7.1569 C5.6219,7.9389 6.8909,7.9389 7.6699,7.1579 C7.6709,7.1569 7.6719,7.1569 7.6719,7.1569 L10.4149,4.4139 C11.1949,3.6339 11.1949,2.3639 10.4149,1.5849 C10.0249,1.1949 9.5129,0.9999 9.0009,0.9999 C8.4879,0.9999 7.9759,1.1949 7.5859,1.5849 L6.7669,2.4039 C6.4349,2.3169 6.0959,2.2569 5.7439,2.2569 C5.6519,2.2569 5.5639,2.2749 5.4749,2.2819 L6.8789,0.8779 C8.0489,-0.2931 9.9519,-0.2931 11.1219,0.8779 Z"/></svg>
