<svg width="32" height="24" viewBox="0 0 32 24" fill="none" xmlns="http://www.w3.org/2000/svg">
  <path fill-rule="evenodd" clip-rule="evenodd" d="M2 0a2 2 0 0 0-2 2v20c0 1.1.9 2 2 2h14V0H2Z" fill="#E21735"/>
  <path fill-rule="evenodd" clip-rule="evenodd" d="M30 0H16v24h14a2 2 0 0 0 2-2V2a2 2 0 0 0-2-2Z" fill="#007B84"/>
  <path fill-rule="evenodd" clip-rule="evenodd" d="M13.93 0 8 24h10.07L24 0H13.93Z" fill="#00447C"/>
  <path fill-rule="evenodd" clip-rule="evenodd" d="m20.97 11.27.07-.34.2-.96.21-.84s.06-.09.12-.12h.1c.85 0 1.82 0 2.58-.55a2.73 2.73 0 0 0 1.1-2.18c0-.26-.06-.52-.21-.72-.39-.54-1.16-.55-2.05-.55h-.43c-1.14.02-1.6.01-1.79-.01l-.04.23-.4 1.87-1.03 4.16h1.57Zm1.19-5.18-.43 1.86-.02.1h.23c.37 0 .72-.02 1-.16.36-.17.63-.52.72-.94.1-.45-.04-.8-.4-.93l-.9-.08-.18-.02V6l-.02.1Z" fill="#fff"/>
  <path d="m3.74 5.01-.77 3.5c-.16.68-.27 1.15-.66 1.46-.22.18-.47.27-.77.27-.48 0-.75-.24-.8-.68L.73 9.4l.15-.9s.76-3.03.9-3.43v-.04C.3 5.05.04 5.04.02 5l-.02.1v6.03c.38.11.8.14 1.1.14a3.8 3.8 0 0 0 1.9-.44c.8-.47 1.02-1.21 1.21-1.87l.09-.34s.78-3.14.92-3.55l.01-.04c-1.08 0-1.4 0-1.5-.03ZM7.9 7.57a2.1 2.1 0 0 0-1.12.35l-.06.03.1-.36-.05-.06c-.6.12-.78.15-1.27.21l-.14.02-.06.04c-.07.58-.13 1.01-.4 2.15l-.3 1.27.03.05c.62-.03.81-.03 1.35-.02l.05-.05.04-.24.19-.9.04-.21.25-1.12c.14-.07.27-.13.4-.13.3 0 .27.25.26.36v.01c-.02.18-.13.75-.24 1.24l-.08.32-.08.34-.08.35.02.05c.62-.03.8-.03 1.33-.02l.06-.05c.1-.55.12-.7.3-1.49l.08-.36c.16-.72.24-1.08.12-1.37-.13-.33-.45-.41-.74-.41ZM10.73 8.34l.15-.02.02.02v.03l-.07.32-.1.43-.1.37-.08.37-.12.51-.08.35-.04.23-.04.25-.03.02-.02.03h-.28a9.56 9.56 0 0 0-1 .01h-.13l-.02-.02-.02-.02c.07-.27.12-.38.15-.48l.02-.04a12.09 12.09 0 0 0 .34-1.44l.07-.49.02-.18.03-.02.02-.02a41.23 41.23 0 0 0 1.31-.2ZM10.9 7.3c-.3-.17-.83-.11-1.18.13-.35.23-.39.57-.1.74.3.17.82.12 1.17-.12s.4-.57.1-.74Z" fill="#fff"/>
  <path fill-rule="evenodd" clip-rule="evenodd" d="M14.36 10.67c-.46.49-1.07.65-1.67.65-.24 0-.6-.03-.86-.13-.82-.33-.69-1.21-.57-1.7.11-.48.3-.99.7-1.36a2.33 2.33 0 0 1 1.58-.54c.5 0 .99.11 1.26.46.18.23.33.6.14 1.4-.06.24-.22.83-.58 1.22Zm-1.72-1.15c.14-.6.3-1.11.72-1.11.32 0 .35.38.2.98-.02.14-.14.64-.3.86-.12.15-.25.25-.4.25-.04 0-.3 0-.3-.38 0-.2.03-.39.08-.6Z" fill="#fff"/>
  <path d="m16.49 11.2-.05.05c-.54-.01-.73-.01-1.35.02l-.03-.05.3-1.27c.27-1.14.33-1.57.4-2.15l.05-.04.16-.02c.48-.06.66-.09 1.26-.21l.05.06-.1.36.33-.19c.31-.15.66-.2.85-.2.29 0 .6.09.74.42.12.3.04.65-.13 1.37l-.08.36c-.17.78-.2.94-.29 1.46v.03l-.07.05c-.52-.01-.7-.01-1.32.02l-.02-.05.1-.4.06-.3.08-.3c.11-.5.22-1.07.23-1.25.02-.11.05-.37-.25-.37a.98.98 0 0 0-.38.12H17l-.22 1v.01l-.08.33a37.23 37.23 0 0 0-.22 1.14Z" fill="#fff"/>
  <path fill-rule="evenodd" clip-rule="evenodd" d="M25 11.24c.25.1.49.14.72.13.25-.02.49-.14.7-.32l-.06.22.04.05c.59-.03.77-.03 1.4-.02l.06-.04v-.04c.1-.52.19-1.05.42-2.06l.36-1.48-.02-.05c-.66.12-.83.14-1.46.23l-.05.04v.02l-.02.12a.9.9 0 0 0-.46-.37c-.28-.1-.94.03-1.5.54-.4.37-.6.87-.7 1.35-.12.48-.25 1.36.56 1.68Zm1.52-2.75c-.42 0-.58.5-.72 1.1-.05.2-.09.4-.08.59 0 .38.26.38.3.38.15 0 .4-.1.52-.25.05-.07.1-.19.15-.3l.03-.11.1-.43.08-.33c.03-.41-.11-.65-.38-.65Z" fill="#fff"/>
  <path d="M32 9.33v-1.6h-.02c-.11.03-.24.04-.4.06l-.04.05v.03-.01c-.25.55-.36.73-.46.92a6.88 6.88 0 0 0-.34.62v-.05l-.1-1.73-.05-.06-.44.09c-.3.06-.43.09-.89.14l-.05.05v.07l.1.63c0 .08.02.18.04.31l.06.45.06.47.03.24.14 1.3c-.18.29-.3.5-.4.7l-.53.86-.29.46c-.03.04-.06.08-.1.1a.45.45 0 0 1-.19.02h-.16l-.24.78.82.01c.47 0 .77-.22.93-.52l.52-.87h-.01l.05-.06c.2-.43 1.18-2.12 1.96-3.46ZM13.06 13.44l.35-.61h1.36l-.24.45h1.37l-.25.82h-1.87l-.2.17c-.05.05-.09.06-.13.07l-.1.04c-.11.05-.33.16-.62.16h-.6l.24-.8h.18c.16 0 .26 0 .31-.04a.71.71 0 0 0 .2-.26ZM13.25 18.06l.33-1.1h1.37l.25-.8h-1.37l.21-.68h1.33l.25-.79h-3.34l-.24.79h.76l-.2.67h-.76l-.25.83h.75l-.44 1.44c-.05.16 0 .24.06.31 0 .02.02.03.03.05.05.08.11.14.24.17s.22.05.35.05h1.54l.27-.9-.68.1c-.13 0-.5-.02-.46-.14Z" fill="#fff"/>
  <path fill-rule="evenodd" clip-rule="evenodd" d="M16.2 17.78c-.04.17-.06.25-.03.3a.2.2 0 0 0 .17.08l.8-.08-.27.92h-.9c-.28 0-.49 0-.64-.02h-.09c-.1 0-.21-.01-.29-.07l-.03-.03c-.08-.07-.18-.15-.17-.24 0-.09.04-.24.1-.45l1.63-5.35h1.17l-.17.58s.37-.3.63-.4c.25-.1.83-.18.83-.18h1.89l-.64 2.11c-.11.36-.24.6-.32.7a.8.8 0 0 1-.32.3c-.15.08-.3.13-.43.14l-.58.02h-1.82l-.51 1.67Zm.85-2.8h1.9l-.11.37h-.03a.81.81 0 0 0-.23 0h-1.65l.12-.37Zm2.3-1.27h-1.92l-.28.92s.38-.34 1.01-.45c.15-.02 1.06-.01 1.06-.01l.14-.46Z" fill="#fff"/>
  <path d="M18.88 16.61a.2.2 0 0 1-.08.12c-.04.02-.1.03-.2.03h-.26l.01-.46h-1.13l-.05 2.25c0 .16.02.25.14.33.12.1.49.1.98.1H19l.26-.84-.62.04H18.43c-.03 0-.05-.02-.08-.04l-.02-.02c-.02-.01-.05-.03-.04-.16v-.57l.65-.03c.35 0 .5-.1.63-.22.12-.1.16-.22.2-.38l.11-.5H19l-.11.35Z" fill="#fff"/>
  <path fill-rule="evenodd" clip-rule="evenodd" d="M24.08 17.86h.34l-.26.87h-.34l-.08.26h-1.22l.08-.26h-2.46l.25-.8h.25l1.29-4.24.26-.86h1.24l-.13.43s.33-.23.64-.31c.26-.07 1.53-.1 1.96-.11h1.32l.02.48c-.01.09.06.12.21.12h.27l-.24.8h-.72c-.61.05-.85-.21-.83-.5l-.02-.48-.13.43h-.42l-1.28 4.17Zm-.67-3.32c-.2.05-.56.21-.56.21l.32-1.06h.99l-.24.77s-.3.02-.5.08Zm-.49 1.6.51-.08.24-.78h-.99l-.34 1.11s.38-.18.58-.25Zm-.04 1.73h-.98l.28-.93h.98l-.28.93Z" fill="#fff"/>
  <path d="M26.68 15.28h-1.42l.24-.8h3.95l-.24.8h-1.33l-.2.66H29l-.22.71h-1.44l-.25.3h.58l.15.9v.07c.01.06.02.1.04.12.03.04.2.05.3.05h.18l-.26.88h-.7l-.07-.01a.59.59 0 0 1-.25-.1 1.25 1.25 0 0 0-.07-.04.42.42 0 0 1-.23-.3l-.15-.9-.65.88c-.2.29-.49.5-.96.5h-.92l.24-.78h.35c.1 0 .2-.04.26-.08a.4.4 0 0 0 .2-.16l.95-1.33h-1.26l.21-.71h1.44l.2-.66Z" fill="#fff"/>
</svg>
