<svg width="21" height="16" viewBox="0 0 21 16" fill="none" xmlns="http://www.w3.org/2000/svg">
  <path fill-rule="evenodd" clip-rule="evenodd" d="M1.31 0C.6 0 0 .6 0 1.33v13.34C0 15.4.6 16 1.31 16h9.19V0H1.31Z" fill="#E21735"/>
  <path fill-rule="evenodd" clip-rule="evenodd" d="M19.69 0H10.5v16h9.19c.72 0 1.31-.6 1.31-1.33V1.33C21 .6 20.4 0 19.69 0Z" fill="#007B84"/>
  <path fill-rule="evenodd" clip-rule="evenodd" d="M9.14 0 5.25 16h6.6l3.9-16h-6.6Z" fill="#00447C"/>
  <path fill-rule="evenodd" clip-rule="evenodd" d="m13.76 7.51.05-.23.13-.63.14-.56s.04-.06.08-.08h.06c.56 0 1.2 0 1.7-.37.33-.25.56-.63.67-1.08.02-.11.04-.24.04-.37a.8.8 0 0 0-.13-.48c-.26-.36-.76-.37-1.34-.37H13.7l-.03.15-.27 1.24-.67 2.78h1.03Zm.78-3.45-.28 1.24-.01.06h.15c.24 0 .47 0 .66-.1a.9.9 0 0 0 .47-.62c.06-.3-.03-.54-.26-.63l-.6-.05-.12-.01v.11Z" fill="#fff"/>
  <path d="m2.45 3.34-.5 2.34c-.1.44-.18.76-.43.97a.77.77 0 0 1-.5.18c-.32 0-.5-.16-.54-.46v-.1l.1-.6s.5-2.01.58-2.28l.01-.03c-.97 0-1.14 0-1.16-.02L0 3.4v4.03c.25.07.53.09.72.09.49 0 .94-.1 1.25-.3.53-.3.67-.8.8-1.24l.05-.23s.52-2.09.6-2.36l.01-.03c-.7 0-.91 0-.98-.02ZM5.19 5.05a1.36 1.36 0 0 0-.74.23l-.04.02.07-.24-.04-.04c-.4.08-.5.1-.83.14l-.1.02-.03.02c-.05.38-.09.68-.26 1.44l-.2.84.02.03c.4-.02.53-.02.89-.01l.03-.03c0-.07.02-.11.03-.16a20.55 20.55 0 0 1 .15-.74l.16-.75a.66.66 0 0 1 .26-.08c.2 0 .18.16.17.23v.01c-.01.12-.08.5-.16.83l-.05.2a17.97 17.97 0 0 1-.1.47l.01.03c.4-.02.53-.02.87-.01l.04-.03c.06-.37.08-.46.2-1l.05-.24c.1-.47.16-.71.08-.91-.09-.22-.3-.27-.48-.27ZM7.04 5.56l.1-.02.01.02v.02l-.05.21-.06.29-.06.25a22.41 22.41 0 0 0-.13.58l-.06.24-.02.15-.03.17-.02.01-.02.02h-.83l-.09.01-.01-.01-.01-.02c.04-.18.07-.25.1-.32v-.02c.03-.08.06-.15.1-.35l.13-.62.04-.32.02-.12.02-.01.01-.02a26.69 26.69 0 0 0 .86-.14ZM7.15 4.87c-.2-.11-.54-.08-.77.08-.23.16-.26.38-.06.5.2.11.53.08.76-.08.23-.16.26-.38.07-.5Z" fill="#fff"/>
  <path fill-rule="evenodd" clip-rule="evenodd" d="M9.43 7.12c-.3.32-.71.43-1.1.43-.16 0-.4-.02-.56-.1-.54-.21-.46-.8-.38-1.13.07-.32.2-.65.46-.9.37-.34.84-.36 1.04-.36.33 0 .64.07.82.3.12.16.22.4.1.94-.04.16-.15.55-.38.82Zm-1.14-.77c.1-.4.2-.74.48-.74.21 0 .23.25.13.65-.02.1-.1.43-.2.57-.07.1-.16.17-.26.17-.03 0-.2 0-.2-.26 0-.12.02-.25.05-.4Z" fill="#fff"/>
  <path d="m10.82 7.47-.03.03-.89.01-.01-.03.2-.84c.17-.76.2-1.05.26-1.44l.03-.02.1-.02c.32-.04.43-.06.83-.14l.03.04-.06.24.21-.12c.2-.1.43-.13.56-.13.19 0 .4.05.48.27.08.2.03.44-.08.91l-.05.25c-.12.51-.13.62-.2.96v.03l-.04.03-.87.01-.01-.03.06-.26.05-.2.05-.21c.07-.33.14-.71.15-.83.01-.08.03-.24-.16-.24a.63.63 0 0 0-.26.07l-.15.68a47.11 47.11 0 0 1-.2.98Z" fill="#fff"/>
  <path fill-rule="evenodd" clip-rule="evenodd" d="M16.4 7.5c.17.06.33.09.48.08.16-.01.32-.1.46-.21l-.04.14.02.04c.39-.02.5-.02.93-.02l.03-.03v-.02c.07-.35.13-.7.28-1.37l.23-.99v-.04l-.97.16-.03.03v.01l-.01.08a.6.6 0 0 0-.3-.25c-.19-.07-.62.02-1 .37-.26.24-.38.57-.45.9-.08.31-.16.9.37 1.11Zm1-1.84c-.27 0-.37.33-.47.73-.03.14-.05.27-.05.4 0 .25.17.25.2.25.1 0 .26-.07.33-.17a.83.83 0 0 0 .1-.2l.02-.07.07-.28.05-.23c.02-.27-.07-.43-.24-.43Z" fill="#fff"/>
  <path d="M21 6.22V5.16h-.02a14 14 0 0 1-.25.04l-.03.02a.21.21 0 0 0 0 .02c-.17.37-.23.49-.3.61-.06.1-.12.2-.23.45a1.72 1.72 0 0 1 0-.07l-.06-1.15-.04-.04-.28.06c-.2.04-.29.06-.59.1l-.03.02v.05l.06.42.03.21.04.3.04.31.02.16.1.87-.28.47c-.1.18-.18.33-.34.57l-.19.3c-.02.04-.04.06-.07.07a.3.3 0 0 1-.12.01h-.1l-.16.52.53.01c.32 0 .51-.14.62-.34l.33-.58.04-.04c.13-.29.77-1.42 1.28-2.31ZM8.57 8.96l.23-.4h.9l-.17.3h.9l-.16.54H9.04l-.13.12c-.03.03-.05.03-.08.04a.3.3 0 0 0-.07.03.89.89 0 0 1-.4.1h-.4l.16-.52h.12c.1 0 .17-.01.2-.04a.47.47 0 0 0 .13-.17ZM8.7 12.04l.21-.73h.9l.16-.54h-.9l.14-.45h.88l.16-.53H8.06l-.16.53h.5l-.13.45h-.5l-.17.55h.5l-.29.96c-.03.1 0 .16.04.21l.02.03c.03.05.07.1.16.11.08.03.14.04.23.04h1l.18-.6-.44.06c-.09 0-.33-.01-.3-.1Z" fill="#fff"/>
  <path fill-rule="evenodd" clip-rule="evenodd" d="M10.64 11.85c-.04.11-.05.17-.03.2.02.02.06.05.11.05l.53-.05-.18.62h-.59l-.42-.01H10c-.07-.01-.14-.02-.19-.05l-.02-.02c-.05-.05-.11-.1-.11-.16s.03-.16.07-.3l1.07-3.57h.76l-.11.39s.24-.2.41-.27c.17-.06.55-.12.55-.12h1.24l-.42 1.4c-.07.25-.16.4-.2.48a.53.53 0 0 1-.22.19c-.1.06-.2.09-.28.1h-1.58l-.33 1.12Zm.55-1.87h1.25l-.08.25h-1.25l.08-.25Zm1.51-.84h-1.26l-.18.61s.24-.22.66-.3h.7l.08-.3Z" fill="#fff"/>
  <path d="M12.39 11.08a.13.13 0 0 1-.05.07c-.03.02-.07.03-.13.03h-.18l.01-.31h-.74l-.03 1.5c0 .1.01.16.09.21.08.07.32.08.64.08h.47l.17-.56-.4.02h-.14a.16.16 0 0 1-.06-.03c-.02-.02-.04-.03-.04-.11v-.39l.43-.01c.23 0 .33-.08.41-.15.08-.07.1-.15.14-.25l.07-.34h-.59l-.07.24Z" fill="#fff"/>
  <path fill-rule="evenodd" clip-rule="evenodd" d="M15.8 11.9h.23l-.18.58h-.22l-.05.18h-.8l.05-.18h-1.61l.16-.53h.16l.85-2.83.17-.57h.81l-.08.3s.21-.16.42-.22c.17-.04 1-.06 1.29-.07h.87v.32c0 .06.04.08.15.08h.17l-.16.54h-.47c-.4.03-.56-.15-.55-.34v-.32l-.1.28h-.27l-.84 2.79Zm-.44-2.21c-.13.04-.37.15-.37.15l.22-.72h.64l-.15.52s-.2.01-.34.05Zm-.32 1.07c.13-.03.34-.05.34-.05l.15-.52h-.64l-.23.74s.25-.13.38-.17Zm-.02 1.16h-.65l.19-.63h.64l-.18.63Z" fill="#fff"/>
  <path d="M17.5 10.19h-.93l.16-.54h2.6l-.16.54h-.87l-.14.43h.87l-.14.48h-.95l-.16.2h.38l.1.6v.05c0 .03 0 .06.02.08.02.02.14.03.2.03h.12l-.18.59h-.29a4.45 4.45 0 0 1-.2-.01c-.07 0-.12-.04-.17-.06a.92.92 0 0 0-.05-.03.28.28 0 0 1-.15-.2l-.1-.6-.42.59a.73.73 0 0 1-.64.33h-.6l.16-.53h.23c.07 0 .13-.02.17-.04a.26.26 0 0 0 .13-.11l.62-.89h-.82l.14-.48h.94l.14-.43Z" fill="#fff"/>
</svg>
