<svg xmlns="http://www.w3.org/2000/svg" xlink="http://www.w3.org/1999/xlink" width="22" height="22" viewBox="0 0 22 22"><path d="M21.8506,15.6152 C20.7496,13.9582 19.5486,12.5902 18.4696,11.6192 C17.9966,11.1932 17.9456,10.4782 18.3676,10.0022 C19.4906,8.7372 20.8446,7.1172 21.9546,4.7022 C22.1056,4.3762 21.8586,4.0002 21.4986,4.0002 L18.2916,4.0002 C17.8116,4.0002 17.3706,4.2682 17.1476,4.6942 C15.5926,7.6682 14.8456,9.1372 14.0346,10.0212 C13.6676,10.4202 12.9966,10.1442 12.9966,9.6032 L12.9966,4.6572 C12.9966,4.2942 12.7056,4.0002 12.3426,4.0002 L8.2046,4.0002 C7.8166,4.0002 7.5016,4.2702 7.5016,4.6032 C7.5016,5.1292 8.2396,5.5812 8.9966,5.8192 L8.9966,10.8312 C8.9966,11.3322 8.4196,11.6172 8.0246,11.3092 C5.9856,9.7182 4.5436,7.5452 4.1316,4.7062 C4.0736,4.3062 3.7466,4.0002 3.3436,4.0002 L0.6346,4.0002 C0.2566,4.0002 -0.0364,4.3062 0.0036,4.6812 C0.6016,10.3202 4.8246,17.0082 12.3576,17.0002 C12.7116,16.9992 12.9966,16.6982 12.9966,16.3432 L12.9966,13.7692 C12.9966,13.2362 13.5396,12.8642 14.0346,13.0642 C15.1616,13.5232 16.2366,14.7042 17.4376,16.3162 C17.7546,16.7422 18.2506,17.0002 18.7826,17.0002 L21.1016,17.0002 C21.8096,17.0002 22.2426,16.2062 21.8506,15.6152"/></svg>
