<svg xmlns="http://www.w3.org/2000/svg" xlink="http://www.w3.org/1999/xlink" width="16" height="16" viewBox="0 0 16 16"><path d="M12.6378663,9.495 C12.4408663,9.281 12.4188663,8.968 12.5888663,8.732 C13.4788663,7.499 14.7418663,5.631 14.9938663,3.701 C15.0428663,3.332 14.7668663,3 14.3948663,3 L12.4688663,3 C12.2088663,3 11.9758663,3.16 11.8998663,3.408 C11.6178663,4.323 10.8878663,5.618 10.0858663,6.711 C9.74286629,7.178 8.99986629,6.924 8.99986629,6.345 L8.99986629,3.603 C8.99986629,3.27 8.72986629,3 8.39586629,3 L5.99986629,3 C5.44786629,3 4.99986629,3.297 4.99986629,3.5 C4.99986629,3.703 5.99986629,4 5.99986629,4 L5.99986629,7.371 C5.99986629,7.914 5.32586629,8.195 4.96186629,7.792 C4.17586629,6.922 3.43286629,5.613 3.06586629,3.512 C3.01486629,3.221 2.76886629,3 2.47286629,3 L0.60686629,3 C0.23586629,3 -0.0551337103,3.337 0.00886628969,3.702 C1.34386629,11.414 6.34386629,13 7.34386629,13 L8.39586629,13 C8.72986629,13 8.99986629,12.729 8.99986629,12.396 L8.99986629,11.243 C8.99986629,10.682 9.68886629,10.427 10.0608663,10.846 C10.5068663,11.348 10.9508663,12.007 11.4858663,12.747 C11.5988663,12.903 11.7848663,13 11.9778663,13 L14.3978663,13 C14.8668663,13 15.1498663,12.489 14.9168663,12.083 C14.3208663,11.042 13.2778663,10.19 12.6378663,9.495"/></svg>
