<svg xmlns="http://www.w3.org/2000/svg" xlink="http://www.w3.org/1999/xlink" width="12" height="12" viewBox="0 0 12 12"><path d="M10.2295,6.94436 C9.9075,6.62536 9.9015,6.14236 10.1605,5.76936 C10.8695,4.74936 12.0005,3.24736 12.0005,2.48936 C12.0005,2.22436 11.7255,2.00136 11.4485,2.00036 L10.4215,2.00036 C10.1935,2.00036 10.0005,2.15136 9.9445,2.37236 C9.7615,3.08036 9.0895,4.11136 8.3245,5.02836 C7.8745,5.56836 6.9955,5.25736 6.9955,4.55436 L6.9955,2.49836 C6.9955,2.22236 6.7715,2.00036 6.4965,2.00036 L4.4925,2.00036 C4.2155,2.00036 3.9915,2.22336 3.9915,2.50036 C3.9915,2.77636 4.2155,3.00036 4.4925,3.00036 L4.9925,3.00036 L4.9925,6.18236 C4.9925,6.67536 4.5865,7.00036 4.1675,7.00036 C3.9505,7.00036 3.7305,6.92436 3.5635,6.73036 C2.6945,5.71636 2.0985,4.18736 2.0025,2.48236 C1.9885,2.21436 1.7765,2.00036 1.5075,2.00036 L0.5045,2.00036 C0.2335,2.00036 0.0005,2.21736 0.0005,2.48936 C-0.0135,6.45136 2.8045,10.00036 5.9945,10.00036 L6.4945,10.00036 C6.7705,10.00036 6.9955,9.77636 6.9955,9.50036 L6.9955,8.41436 C6.9955,7.73636 7.8155,7.40836 8.2905,7.89236 C8.6805,8.29336 9.1465,8.87136 9.6655,9.70636 C9.7765,9.88336 9.9715,10.00036 10.1815,10.00036 L11.4995,10.00036 C11.7875,9.99936 12.0005,9.76536 12.0005,9.50336 C12.0005,9.42336 11.9905,9.33936 11.9465,9.26236 C11.4445,8.39336 10.8145,7.52536 10.2295,6.94436"/></svg>
