<svg xmlns="http://www.w3.org/2000/svg" xlink="http://www.w3.org/1999/xlink" width="22" height="22" viewBox="0 0 22 22"><path d="M17.8967,1.0001 C18.6077,1.0001 19.1327,1.6641 18.9707,2.3571 L15.9907,14.0581 C15.8487,14.6121 15.3497,15.0001 14.7797,15.0001 L10.9997,15.0001 L5.1817,21.5781 C4.9217,21.8691 4.5877,22.0001 4.2587,22.0001 C3.6187,22.0001 2.9997,21.5061 2.9997,20.7461 L2.9997,2.8031 C2.9997,1.8071 3.8067,1.0001 4.8027,1.0001 L17.8967,1.0001 Z M15.3047,6.6211 L16.0997,3.5001 L6.1007,3.5001 C5.7687,3.5001 5.4997,3.7681 5.4997,4.1001 L5.4997,17.2811 L8.9997,13.1761 C9.3797,12.7461 9.9257,12.5001 10.4997,12.5001 L13.8067,12.5001 L14.5397,9.6211 C14.6197,9.3071 14.3817,9.0001 14.0577,9.0001 L9.6597,9.0001 C9.2957,9.0001 8.9997,8.7041 8.9997,8.3401 L8.9997,7.6601 C8.9997,7.2961 9.2957,7.0001 9.6597,7.0001 L14.8177,7.0001 C15.0467,7.0001 15.2477,6.8441 15.3047,6.6211 Z"/></svg>
