<svg xmlns="http://www.w3.org/2000/svg" xlink="http://www.w3.org/1999/xlink" width="16" height="16" viewBox="0 0 16 16"><path d="M13.75,1.4688 C13.531,1.1568 13.188,0.9998 12.813,0.9998 L3.5,0.9998 C2.687,0.9998 2,1.6878 2,2.4998 L2,13.7818 C2,14.2818 2.281,14.6878 2.719,14.9068 C2.875,14.9688 3.031,14.9998 3.187,14.9998 C3.5,14.9998 3.781,14.8748 4.031,14.6568 L7.875,10.9998 L10.531,10.9998 C11.25,10.9998 11.906,10.4998 12.094,9.7818 L13.969,2.4998 C14,2.4058 14,2.3438 14,2.2808 C14,1.9998 13.937,1.6878 13.75,1.4688 L13.75,1.4688 Z M10.219,8.9998 L7.875,8.9998 C7.406,8.9998 6.906,9.1878 6.531,9.5318 L4,11.9998 L4,2.9998 L11.781,2.9998 L11.25,4.9998 L7,4.9998 C6.438,4.9998 6,5.4378 6,5.9998 C6,6.5628 6.438,6.9998 7,6.9998 L10.75,6.9998 L10.219,8.9998 Z"/></svg>
