<svg xmlns="http://www.w3.org/2000/svg" xlink="http://www.w3.org/1999/xlink" width="12" height="12" viewBox="0 0 12 12"><path d="M6.5,6 C6.212,6 5.938,6.124 5.747,6.342 L4,8.339 L4,2 L8.719,2 L8.344,3.5 L6,3.5 L6,4.5 L8.094,4.5 L7.719,6 L6.5,6 Z M10.788,0.385 C10.599,0.142 10.308,0 10,0 L3,0 C2.447,0 2,0.448 2,1 L2,11 C2,11.417 2.258,11.79 2.648,11.937 C2.763,11.979 2.882,12 3,12 C3.282,12 3.559,11.88 3.753,11.658 L6.954,8 L8.5,8 C8.959,8 9.358,7.687 9.47,7.242 L10.97,1.242 C11.045,0.944 10.978,0.627 10.788,0.385 L10.788,0.385 Z"/></svg>
