<svg width="16" height="16" viewBox="0 0 16 16" xmlns="http://www.w3.org/2000/svg"><path d="M8 0a1 1 0 0 0-1 1v1a1 1 0 0 0 2 0V1a1 1 0 0 0-1-1Zm0 13a1 1 0 0 0-1 1v1a1 1 0 1 0 2 0v-1a1 1 0 0 0-1-1Z"/><path fill-rule="evenodd" clip-rule="evenodd" d="M12 8a4 4 0 1 1-8 0 4 4 0 0 1 8 0Zm-4 2a2 2 0 1 0 0-4 2 2 0 0 0 0 4Z"/><path d="M2.343 3.757a1 1 0 0 1 1.414-1.414l.707.707A1 1 0 1 1 3.05 4.464l-.707-.707Zm9.193 9.193a1 1 0 0 1 1.414-1.414l.707.707a1 1 0 0 1-1.414 1.414l-.707-.707Zm2.121-9.193-.707.707a1 1 0 1 1-1.414-1.414l.707-.707a1 1 0 1 1 1.414 1.414Zm-9.193 7.779a1 1 0 0 1 0 1.414l-.707.707a1 1 0 1 1-1.414-1.414l.707-.707a1 1 0 0 1 1.414 0ZM1 9a1 1 0 1 1 0-2h1a1 1 0 0 1 0 2H1Zm13 0a1 1 0 1 1 0-2h1a1 1 0 1 1 0 2h-1Z"/></svg>