<svg width="22" height="22" viewBox="0 0 22 22" xmlns="http://www.w3.org/2000/svg"><path d="M15 10.5c0 2.485-2.015 4.5-4.5 4.5-2.486 0-4.5-2.015-4.5-4.5 0-2.486 2.014-4.5 4.5-4.5 2.485 0 4.5 2.014 4.5 4.5zm-11.925-6.718c-.195-.195-.195-.512 0-.707.195-.195.512-.195.707 0l2.476 2.475c.194.195.194.512 0 .708-.196.194-.513.194-.708 0l-2.475-2.476zm11.667 11.668c-.194-.195-.194-.513 0-.708.195-.194.513-.194.708 0l2.475 2.476c.195.195.195.511 0 .707-.196.195-.512.195-.707 0l-2.476-2.475zm2.476-12.375c.195-.195.511-.195.707 0 .195.195.195.512 0 .707l-2.475 2.476c-.195.194-.513.194-.708 0-.194-.196-.194-.513 0-.708l2.476-2.475zm-11.668 11.667c.195-.194.512-.194.708 0 .194.195.194.513 0 .708l-2.476 2.475c-.195.195-.512.195-.707 0-.195-.196-.195-.512 0-.707l2.475-2.476zm14.95-4.742c.276 0 .5.223.5.5 0 .276-.224.5-.5.5h-3.5c-.277 0-.5-.224-.5-.5 0-.277.223-.5.5-.5h3.5zm-16.5 0c.276 0 .5.223.5.5 0 .276-.224.5-.5.5h-3.5c-.277 0-.5-.224-.5-.5 0-.277.223-.5.5-.5h3.5zm7 10.5c0 .276-.224.5-.5.5-.277 0-.5-.224-.5-.5v-3.5c0-.277.223-.5.5-.5.276 0 .5.223.5.5v3.5zm0-16.5c0 .276-.224.5-.5.5-.277 0-.5-.224-.5-.5v-3.5c0-.277.223-.5.5-.5.276 0 .5.223.5.5v3.5z"/></svg>