<svg width="16" height="16" viewBox="0 0 16 16" xmlns="http://www.w3.org/2000/svg"><path d="M11 7.5c0 1.933-1.567 3.5-3.5 3.5-1.932 0-3.5-1.567-3.5-3.5 0-1.932 1.568-3.5 3.5-3.5 1.933 0 3.5 1.568 3.5 3.5zm-.318 3.182c.195-.195.512-.195.707 0l1.415 1.415c.195.194.195.512 0 .707-.195.195-.513.195-.707 0l-1.415-1.415c-.195-.195-.195-.512 0-.707zm-8.485-8.485c.195-.196.512-.196.707 0l1.415 1.415c.195.195.195.511 0 .707-.196.195-.512.195-.707 0l-1.415-1.415c-.196-.195-.196-.512 0-.707zm10.607 0c.195.195.195.512 0 .707l-1.415 1.415c-.195.195-.512.195-.707 0-.195-.196-.195-.512 0-.707l1.415-1.415c.194-.196.512-.196.707 0zm-8.485 8.485c.195.195.195.512 0 .707l-1.415 1.415c-.195.195-.512.195-.707 0-.196-.195-.196-.513 0-.707l1.415-1.415c.195-.195.511-.195.707 0zm3.181 1.318c.277 0 .5.224.5.5v2c0 .277-.223.5-.5.5-.276 0-.5-.223-.5-.5v-2c0-.276.224-.5.5-.5zm0-12c.277 0 .5.224.5.5v2c0 .277-.223.5-.5.5-.276 0-.5-.223-.5-.5v-2c0-.276.224-.5.5-.5zm7.5 7.5c0 .277-.223.5-.5.5h-2c-.276 0-.5-.223-.5-.5 0-.276.224-.5.5-.5h2c.277 0 .5.224.5.5zm-12 0c0 .277-.223.5-.5.5h-2c-.276 0-.5-.223-.5-.5 0-.276.224-.5.5-.5h2c.277 0 .5.224.5.5z"/></svg>