<svg width="24" height="24" xmlns="http://www.w3.org/2000/svg">
  <path d="M2 7h20v13.5a1.5 1.5 0 0 1-1.5 1.5h-17A1.5 1.5 0 0 1 2 20.5V7Z" fill="#478AEF"/>
  <path opacity=".5" d="M3 12a3.99 3.99 0 0 0 3-1.35A3.99 3.99 0 0 0 9 12a3.99 3.99 0 0 0 3-1.35A3.99 3.99 0 0 0 15 12a3.99 3.99 0 0 0 3-1.35 3.99 3.99 0 0 0 4 1.22V7H2v4.87c.32.09.66.13 1 .13Z" fill="#0E3A7B"/>
  <path d="M19.93 15.86h-3.36v1.36h1.92a1.6 1.6 0 0 1-.24.6 1.63 1.63 0 0 1-.47.45 2.18 2.18 0 0 1-1.9.21 2.16 2.16 0 0 1-.83-.53 2.1 2.1 0 0 1-.5-.83 2.07 2.07 0 0 1 .32-1.86 2.13 2.13 0 0 1 1.7-.87c.5 0 1 .18 1.37.52l1.02-1a3.47 3.47 0 0 0-2.39-.91 3.61 3.61 0 0 0-2.52 1.02A3.46 3.46 0 0 0 13 16.5c0 .93.38 1.82 1.05 2.47A3.61 3.61 0 0 0 16.57 20a3.45 3.45 0 0 0 2.36-.85c.68-.6 1.07-1.5 1.07-2.56v-.03a3.94 3.94 0 0 0-.07-.7Z" fill="#fff"/>
  <path d="M3 11a3 3 0 0 1-3-3h6a3 3 0 0 1-3 3Zm12 0a3 3 0 0 1-3-3h6a3 3 0 0 1-3 3Z" fill="#78A1E4"/>
  <path d="M9 11a3 3 0 0 1-3-3h6a3 3 0 0 1-3 3Zm12 0a3 3 0 0 1-3-3h6a3 3 0 0 1-3 3Z" fill="#4857AD"/>
  <path d="M3.32 1h17.36a1.75 1.75 0 0 1 1.68 1.27L24 8H0l1.64-5.73A1.75 1.75 0 0 1 3.32 1Z" fill="#80ADF7"/>
  <path d="m6 8 1-7h5v7H6Zm11-7h3.68a1.75 1.75 0 0 1 1.68 1.27L24 8h-6l-1-7Z" fill="#4A5BB9"/>
</svg>
