<svg width="16" height="16" xmlns="http://www.w3.org/2000/svg">
  <path d="M1 5h14v9c0 .55-.47 1-1.05 1H2.05C1.47 15 1 14.55 1 14V5Z" fill="#478AEF"/>
  <path opacity=".5" d="M1.7 8c.84 0 1.59-.42 2.1-1.08A2.66 2.66 0 0 0 5.9 8c.84 0 1.59-.42 2.1-1.08A2.66 2.66 0 0 0 10.1 8c.84 0 1.59-.42 2.1-1.08A2.66 2.66 0 0 0 14.3 8c.24 0 .48-.04.7-.1V4H1v3.9c.22.07.46.1.7.1Z" fill="#0E3A7B"/>
  <path d="M13.94 10.45h-2.88v1.16h1.65a1.4 1.4 0 0 1-.61.9 1.87 1.87 0 0 1-1.64.19 1.85 1.85 0 0 1-.7-.46 1.77 1.77 0 0 1-.15-2.3 1.82 1.82 0 0 1 1.45-.75 1.67 1.67 0 0 1 1.17.45l.88-.86A2.98 2.98 0 0 0 11.06 8a3.09 3.09 0 0 0-2.16.88A2.97 2.97 0 0 0 8 11c0 .8.32 1.56.9 2.12a3.1 3.1 0 0 0 2.16.88c.74.02 1.47-.24 2.03-.73.57-.52.9-1.28.9-2.2v-.01c0-.2-.01-.4-.05-.6Z" fill="#fff"/>
  <path d="M2 7a2 2 0 0 1-2-2h4a2 2 0 0 1-2 2Zm8 0a2 2 0 0 1-2-2h4a2 2 0 0 1-2 2Z" fill="#78A1E4"/>
  <path d="M6 7a2 2 0 0 1-2-2h4a2 2 0 0 1-2 2Zm8 0a2 2 0 0 1-2-2h4a2 2 0 0 1-2 2Z" fill="#4857AD"/>
  <path d="M2.21 1H13.8c.52 0 .97.3 1.12.72L16 5H0l1.1-3.27C1.22 1.3 1.7 1 2.2 1Z" fill="#80ADF7"/>
  <path d="m4 5 .67-4H8v4H4Zm7.33-4h2.46c.52 0 .98.3 1.12.72L16 5h-4l-.67-4Z" fill="#4A5BB9"/>
</svg>
