<svg xmlns="http://www.w3.org/2000/svg" xlink="http://www.w3.org/1999/xlink" width="22" height="22" viewBox="0 0 22 22"><path d="M2,1.0001 L3,1.0001 L3,19.0001 L21,19.0001 L21,20.0001 L2,20.0001 L2,1.0001 Z M9,16 C7.344,16 6,14.657 6,13 C6,11.343 7.344,10 9,10 C10.656,10 12,11.343 12,13 C12,14.657 10.656,16 9,16 Z M14.5,13 C14.5,9.967 12.033,7.5 9,7.5 C8.306,7.5 7.645,7.635 7.031,7.87 C7.349,4.576 10.123,2 13.5,2 C17.09,2 20,4.91 20,8.5 C20,11.877 17.424,14.651 14.13,14.968 C14.365,14.356 14.5,13.694 14.5,13 Z"/></svg>
