<svg width="16" height="16" viewBox="0 0 16 16" xmlns="http://www.w3.org/2000/svg"><path d="M1 0a1 1 0 0 0-1 1v14a1 1 0 0 0 1 1h14a1 1 0 1 0 0-2H2V1a1 1 0 0 0-1-1Z"/><path fill-rule="evenodd" clip-rule="evenodd" d="M6 13a3 3 0 1 0 0-6 3 3 0 0 0 0 6Zm0-2a1 1 0 1 0 0-2 1 1 0 0 0 0 2Z"/><path fill-rule="evenodd" clip-rule="evenodd" d="M9.494 12.011a5.507 5.507 0 1 0-5.506-5.506v.037l.064-.036A3.982 3.982 0 0 1 6 6h.025A4 4 0 0 1 10 9.975V10a3.982 3.982 0 0 1-.542 2.011h.036ZM13 6.506c0 .993-.413 1.89-1.077 2.528a6.005 6.005 0 0 0-4.957-4.957A3.506 3.506 0 0 1 13 6.505Z"/></svg>