<svg xmlns="http://www.w3.org/2000/svg" xlink="http://www.w3.org/1999/xlink" width="16" height="16" viewBox="0 0 16 16"><path d="M0,-0.0003 L1,-0.0003 L1,13.9997 L15,13.9997 L15,14.9997 L0,14.9997 L0,-0.0003 Z M5.5,12 C4.119,12 3,10.881 3,9.5 C3,8.119 4.119,7 5.5,7 C6.881,7 8,8.119 8,9.5 C8,10.881 6.881,12 5.5,12 Z M10,9.5 C10,7.019 7.981,5 5.5,5 C4.976,5 4.48,5.107 4.012,5.272 C4.131,2.342 6.539,0 9.5,0 C12.537,0 15,2.463 15,5.5 C15,8.461 12.658,10.868 9.727,10.988 C9.893,10.521 10,10.024 10,9.5 Z"/></svg>
