<?xml version="1.0" standalone="no"?>
<!DOCTYPE svg PUBLIC "-//W3C//DTD SVG 20010904//EN"
 "http://www.w3.org/TR/2001/REC-SVG-20010904/DTD/svg10.dtd">
<svg version="1.0" xmlns="http://www.w3.org/2000/svg"
 width="320.000000pt" height="320.000000pt" viewBox="0 0 320.000000 320.000000"
 preserveAspectRatio="xMidYMid meet">
<metadata>
Created by potrace 1.14, written by Peter Selinger 2001-2017
</metadata>
<g transform="translate(0.000000,320.000000) scale(0.100000,-0.100000)"
fill="#000000" stroke="none">
<path d="M103 2712 c-31 -20 -63 -135 -56 -202 12 -116 84 -220 187 -269 53
-26 76 -31 139 -32 40 -1 47 -4 43 -17 -34 -118 -56 -254 -58 -372 -1 -82 10
-258 17 -271 2 -3 7 -19 9 -35 13 -66 17 -83 42 -159 26 -78 83 -204 125 -275
61 -102 186 -246 303 -348 27 -23 47 -44 45 -46 -2 -2 -51 -21 -108 -42 -92
-35 -105 -43 -117 -71 -18 -42 -7 -70 42 -108 113 -89 254 -133 451 -140 132
-5 232 16 319 66 35 20 63 29 77 26 82 -20 298 -27 434 -14 91 8 204 32 285
58 35 11 68 22 73 23 58 16 220 98 314 160 109 72 265 218 324 303 99 142 153
307 156 473 1 53 -3 116 -8 141 -5 24 -12 55 -14 69 -10 52 -48 146 -89 217
-106 186 -288 324 -503 384 -82 23 -264 32 -345 18 -157 -29 -319 -106 -420
-201 -80 -75 -168 -131 -265 -168 -127 -49 -323 -67 -450 -40 -137 28 -270 88
-365 165 -49 39 -137 136 -158 173 l-20 37 42 -1 c92 -4 208 60 261 143 55 88
66 209 26 299 -22 48 -35 53 -84 28 -73 -38 -157 -113 -260 -233 -37 -42 -62
-38 -105 19 -53 71 -142 162 -197 201 -58 41 -78 50 -92 41z"/>
</g>
</svg>
