<svg xmlns="http://www.w3.org/2000/svg" xlink="http://www.w3.org/1999/xlink" width="22" height="22" viewBox="0 0 22 22"><path d="M21.0859,11 C21.8059,11 22.2419,11.794 21.8559,12.401 L17.3269,19.532 C17.1429,19.823 16.8209,20 16.4769,20 L2.7969,20 C2.1419,20 1.7669,19.252 2.1599,18.728 L7.3409,11.805 C7.7199,11.298 8.3149,11 8.9479,11 L21.0859,11 Z M8.9473,9 C7.6833,9 6.4943,9.596 5.7383,10.607 L1.8133,15.852 C1.5523,16.2 1.0003,16.016 1.0003,15.581 L1.0003,5 C1.0003,3.343 2.3433,2 4.0003,2 L8.2053,2 C8.7083,2 9.1773,2.251 9.4573,2.67 L11.0113,5 L16.0003,5 C17.6563,5 19.0003,6.343 19.0003,8 L19.0003,9 L8.9473,9 Z"/></svg>
