<svg xmlns="http://www.w3.org/2000/svg" xlink="http://www.w3.org/1999/xlink" width="16" height="16" viewBox="0 0 16 16"><path d="M15.2773,8 C15.8643,8 16.2053,8.689 15.8643,9.186 L12.0003,15 L1.7233,15 C1.1363,15 0.7953,14.31 1.1353,13.813 L4.7033,8.447 C4.8883,8.168 5.2013,8 5.5373,8 L15.2773,8 Z M5.5371,6 C4.5291,6 3.5941,6.501 3.0361,7.341 L0.0001,11.909 L0.0001,2.5 C0.0001,1.671 0.6721,1 1.5001,1 L6.0001,1 L8.0001,4 L12.0001,4 C12.8281,4 13.5001,4.671 13.5001,5.5 L13.5001,6 L5.5371,6 Z"/></svg>
