<svg xmlns="http://www.w3.org/2000/svg" xlink="http://www.w3.org/1999/xlink" width="12" height="12" viewBox="0 0 12 12"><path d="M11.584,6 C11.932,6 12.125,6.402 11.908,6.675 L8.463,11 L0.404,11 C0.056,11 -0.129,10.587 0.104,10.327 L3.685,6.332 C3.873,6.121 4.144,6 4.427,6 L11.584,6 Z M4.4268,5 C3.8598,5 3.3188,5.242 2.9408,5.664 L0.5158,8.37 C0.3338,8.571 -0.0002,8.443 -0.0002,8.173 L-0.0002,2.5 C-0.0002,1.671 0.6718,1 1.4998,1 L4.4998,1 L5.9998,3 L8.4998,3 C9.3278,3 9.9998,3.671 9.9998,4.5 L9.9998,5 L4.4268,5 Z"/></svg>
