<svg width="16" height="16" viewBox="0 0 16 16" xmlns="http://www.w3.org/2000/svg"><path d="M6.999 9a1 1 0 1 1 2 0 1 1 0 0 1-2 0Z"/><path fill-rule="evenodd" clip-rule="evenodd" d="M10.999 4V1a1 1 0 0 0-1-1h-4a1 1 0 0 0-1 1v3h-.306a1 1 0 0 0-.937.65l-.94 2.517a5 5 0 0 0 .058 3.644l1.87 4.568A1 1 0 0 0 5.67 16h4.658a1 1 0 0 0 .925-.62l1.873-4.567a5 5 0 0 0 .057-3.648l-.941-2.515a1 1 0 0 0-.937-.65H11Zm-4-2v2h2V2h-2ZM5.387 6 4.69 7.866a3 3 0 0 0 .034 2.187L6.341 14h3.316l1.618-3.946a3 3 0 0 0 .034-2.189L10.612 6H5.387Z"/></svg>