<svg xmlns="http://www.w3.org/2000/svg" xlink="http://www.w3.org/1999/xlink" width="22" height="22" viewBox="0 0 22 22"><path d="M17,3 C18.657,3 20,4.343 20,6 L20,17 C20,18.657 18.657,20 17,20 L5,20 C3.343,20 2,18.657 2,17 L2,6 C2,4.343 3.343,3 5,3 L5,5 C5,6.103 5.897,7 7,7 C8.103,7 9,6.103 9,5 L9,3 L13,3 L13,5 C13,6.103 13.897,7 15,7 C16.103,7 17,6.103 17,5 L17,3 Z M18,17 L18,9 L4,9 L4,17 C4,17.6 4.4,18 5,18 L17,18 C17.6,18 18,17.6 18,17 Z M13,16 L13,14 L15,14 L15,16 L13,16 Z M10,16 L10,14 L12,14 L12,16 L10,16 Z M7,16 L7,14 L9,14 L9,16 L7,16 Z M13,13 L13,11 L15,11 L15,13 L13,13 Z M10,13 L10,11 L12,11 L12,13 L10,13 Z M7,13 L7,11 L9,11 L9,13 L7,13 Z M7,6 C6.447,6 6,5.552 6,5 L6,2 C6,1.448 6.447,1 7,1 C7.553,1 8,1.448 8,2 L8,5 C8,5.552 7.553,6 7,6 Z M15,6 C14.447,6 14,5.552 14,5 L14,2 C14,1.448 14.447,1 15,1 C15.553,1 16,1.448 16,2 L16,5 C16,5.552 15.553,6 15,6 Z"/></svg>
