<svg xmlns="http://www.w3.org/2000/svg" xlink="http://www.w3.org/1999/xlink" width="16" height="16" viewBox="0 0 16 16"><path d="M13,2 C14.1,2 15,2.9 15,4 L15,13 C15,14.1 14.1,15 13,15 L3,15 C1.9,15 1,14.1 1,13 L1,4 C1,2.9 1.9,2 3,2 L3,3.5 C3,3.776 3.224,4 3.5,4 L6.5,4 C6.776,4 7,3.776 7,3.5 L7,2 L9,2 L9,3.5 C9,3.776 9.224,4 9.5,4 L12.5,4 C12.776,4 13,3.776 13,3.5 L13,2 Z M3,13 L13,13 L13,6 L3,6 L3,13 Z M4,9 L4,7 L6,7 L6,9 L4,9 Z M7,9 L7,7 L9,7 L9,9 L7,9 Z M10,9 L10,7 L12,7 L12,9 L10,9 Z M4,12 L4,10 L6,10 L6,12 L4,12 Z M7,12 L7,10 L9,10 L9,12 L7,12 Z M4.5,3 C4.2,3 4,2.8 4,2.5 L4,0.5 C4,0.2 4.2,0 4.5,0 L5.5,0 C5.8,0 6,0.2 6,0.5 L6,2.5 C6,2.8 5.8,3 5.5,3 L4.5,3 Z M10.5,3 C10.2,3 10,2.8 10,2.5 L10,0.5 C10,0.2 10.2,0 10.5,0 L11.5,0 C11.8,0 12,0.2 12,0.5 L12,2.5 C12,2.8 11.8,3 11.5,3 L10.5,3 Z"/></svg>
