<svg xmlns="http://www.w3.org/2000/svg" xlink="http://www.w3.org/1999/xlink" width="12" height="12" viewBox="0 0 12 12"><path d="M10,1.093 L10,2.25 C10,2.664 9.664,3 9.25,3 L7.75,3 C7.336,3 7,2.664 7,2.25 L7,1 L4,1 L4,2.25 C4,2.664 3.664,3 3.25,3 L1.75,3 C1.336,3 1,2.664 1,2.25 L1,1.093 C0.42,1.3 0,1.851 0,2.5 L0,10.5 C0,11.325 0.675,12 1.5,12 L9.5,12 C10.325,12 11,11.325 11,10.5 L11,2.5 C11,1.851 10.58,1.3 10,1.093 L10,1.093 Z M10,10.5 C10,10.776 9.776,11 9.5,11 L1.5,11 C1.224,11 1,10.776 1,10.5 L1,4 L10,4 L10,10.5 Z M8,2 L9,2 L9,0 L8,0 L8,2 Z M2,2 L3,2 L3,0 L2,0 L2,2 Z M7,8 L8,8 L8,7 L7,7 L7,8 Z M5,10 L6,10 L6,9 L5,9 L5,10 Z M3,10 L4,10 L4,9 L3,9 L3,10 Z M5,8 L6,8 L6,7 L5,7 L5,8 Z M3,8 L4,8 L4,7 L3,7 L3,8 Z M7,6 L8,6 L8,5 L7,5 L7,6 Z M5,6 L6,6 L6,5 L5,5 L5,6 Z M3,6 L4,6 L4,5 L3,5 L3,6 Z"/></svg>
