<svg width="32" height="24" viewBox="0 0 32 24" fill="none" xmlns="http://www.w3.org/2000/svg">
  <path d="M32 21.82c0 1.2-.9 2.18-2 2.18H2c-1.1 0-2-.98-2-2.18V2.18C0 .98.9 0 2 0h28c1.1 0 2 .98 2 2.18v19.64Z" fill="url(#a)"/>
  <path d="M18.2 12.8c-.8-.4-1.8-1-1.8-2.2.1-1.6 1.5-2.7 3.6-2.8.8 0 1.5.2 2 .4l-.5 1.8c-.88-.44-1.6-.42-1.97-.4h-.13c-.6.1-.9.4-.9.7-.04.36.42.61.99.92.84.45 1.91 1.03 1.91 2.28 0 1.7-1.5 2.8-3.7 2.8-.9 0-1.8-.2-2.3-.4l.4-1.8.16.06c.47.2 1.05.44 2.04.44.6 0 1.3-.3 1.3-.8 0-.3-.3-.6-1.1-1ZM10.7 8l-2.2 5.4-.9-4.6c-.1-.5-.5-.8-1-.8H3v.2l.45.12c.6.17 1.25.34 1.65.58.3.2.4.3.5.7L7.2 16h2.2l3.4-8h-2.1ZM13.8 8 12 16h2.1l1.8-8h-2.1Z" fill="#fff"/>
  <path fill-rule="evenodd" clip-rule="evenodd" d="M27.3 8h-1.8c-.4 0-.7.2-.9.5L21.5 16h2.2l.4-1h2.7l.3 1H29l-1.7-8Zm-1.5 2-1.1 3h1.7l-.6-3Z" fill="#fff"/>
  <defs>
    <linearGradient id="a" x1="0" y1="24" x2="32" y2="24" gradientUnits="userSpaceOnUse">
      <stop stop-color="#201D66"/>
      <stop offset="1" stop-color="#054CA4"/>
    </linearGradient>
  </defs>
</svg>
