<svg width="120" height="29" viewBox="0 0 120 29" fill="none" xmlns="http://www.w3.org/2000/svg">
  <path fill-rule="evenodd" clip-rule="evenodd" d="M116 2H4a2 2 0 0 0-2 2v21c0 1.1.9 2 2 2h112a2 2 0 0 0 2-2V4a2 2 0 0 0-2-2ZM4 0a4 4 0 0 0-4 4v21a4 4 0 0 0 4 4h112a4 4 0 0 0 4-4V4a4 4 0 0 0-4-4H4Z" fill="#D1D4DB"/>
  <path fill-rule="evenodd" clip-rule="evenodd" d="M15 8a1 1 0 1 1 2 0v2h2a1 1 0 0 1 1 1v10a1 1 0 0 1-1 1H7a1 1 0 0 1-1-1V11a1 1 0 0 1 1-1h2V8a1 1 0 0 1 2 0v2h4V8Zm-6 4a1 1 0 1 0 2 0h4a1 1 0 1 0 2 0h1v2H8v-2h1Zm-1 4v4h10v-4H8Z" fill="#898D9A"/>
  <path d="M25.92 19v-7.64h1.72v1.3h.1c.15-.44.42-.78.78-1.02.37-.25.81-.38 1.32-.38.52 0 .96.13 1.31.38.36.25.61.59.76 1.02h.08c.16-.42.45-.76.85-1.01.4-.26.88-.39 1.44-.39.7 0 1.27.23 1.72.67.44.44.66 1.1.66 1.94V19h-1.8v-4.85c0-.47-.13-.82-.38-1.04a1.35 1.35 0 0 0-.92-.33c-.44 0-.78.14-1.02.4a1.5 1.5 0 0 0-.37 1.06V19h-1.76v-4.92c0-.4-.12-.71-.36-.95a1.25 1.25 0 0 0-.92-.35c-.26 0-.5.07-.7.2-.22.13-.4.31-.52.55-.12.24-.19.51-.19.83V19h-1.8Zm12.57 0v-7.64h1.72v1.3h.09c.16-.44.42-.78.79-1.02.37-.25.8-.38 1.32-.38.51 0 .95.13 1.3.38.36.25.61.59.76 1.02h.08c.17-.42.45-.76.85-1.01.4-.26.89-.39 1.44-.39.7 0 1.28.23 1.72.67.45.44.67 1.1.67 1.94V19h-1.8v-4.85c0-.47-.13-.82-.38-1.04a1.35 1.35 0 0 0-.93-.33c-.43 0-.77.14-1.02.4a1.5 1.5 0 0 0-.36 1.06V19h-1.77v-4.92c0-.4-.12-.71-.35-.95a1.25 1.25 0 0 0-.93-.35c-.26 0-.5.07-.7.2-.22.13-.39.31-.51.55-.13.24-.2.51-.2.83V19h-1.8ZM55.2 8.34l-3.28 12.2h-1.58l3.28-12.2h1.58Zm3.98 10.8a2.89 2.89 0 0 1-2.73-1.81 5 5 0 0 1-.41-2.14c0-.85.13-1.56.41-2.15a2.93 2.93 0 0 1 3.84-1.55c.29.15.52.33.69.54.17.21.3.41.39.6h.07V8.82h1.8V19H61.5v-1.2h-.11c-.1.18-.23.38-.4.59a2.22 2.22 0 0 1-1.79.74Zm.5-1.48c.39 0 .71-.1.98-.31.27-.2.47-.5.61-.87s.2-.8.2-1.3-.06-.92-.2-1.29a1.83 1.83 0 0 0-.6-.85c-.27-.2-.6-.3-.99-.3-.4 0-.73.1-1 .31s-.47.5-.6.87c-.14.37-.21.79-.21 1.26 0 .48.07.9.2 1.28a2 2 0 0 0 .62.88c.27.21.6.32 1 .32Zm8.32 1.47a2.89 2.89 0 0 1-2.73-1.8 5 5 0 0 1-.42-2.14c0-.85.14-1.56.42-2.15a2.93 2.93 0 0 1 3.84-1.55c.29.15.52.33.69.54.16.21.3.41.39.6h.07V8.82h1.8V19h-1.76v-1.2h-.11c-.1.18-.23.38-.4.59a2.22 2.22 0 0 1-1.79.74Zm.5-1.47c.38 0 .7-.1.98-.31.27-.2.47-.5.6-.87.15-.37.22-.8.22-1.3s-.07-.92-.21-1.29a1.83 1.83 0 0 0-.6-.85c-.27-.2-.6-.3-.99-.3-.4 0-.73.1-1 .31s-.47.5-.6.87c-.14.37-.21.79-.21 1.26 0 .48.07.9.2 1.28a2 2 0 0 0 .61.88c.28.21.6.32 1 .32Zm9.64-9.32-3.28 12.2h-1.58l3.29-12.2h1.57Zm2.27 13.52a3.64 3.64 0 0 1-1.17-.19l.41-1.4c.26.08.5.12.7.11.2 0 .39-.07.55-.2.15-.11.29-.32.4-.6l.15-.42-2.77-7.8h1.91l1.76 5.77h.08l1.77-5.77h1.91l-3.06 8.56c-.14.4-.33.76-.56 1.04-.24.3-.53.52-.87.67-.34.16-.74.23-1.21.23Zm8.06 0a3.64 3.64 0 0 1-1.17-.19l.42-1.4c.26.08.5.12.7.11.2 0 .39-.07.54-.2.16-.11.3-.32.4-.6l.16-.42-2.77-7.8h1.9l1.77 5.77h.08l1.76-5.77h1.92l-3.06 8.56c-.14.4-.33.76-.57 1.04-.23.3-.52.52-.86.67-.34.16-.74.23-1.22.23Zm8.07 0a3.64 3.64 0 0 1-1.17-.19l.42-1.4c.26.08.5.12.7.11.2 0 .38-.07.54-.2.16-.11.3-.32.4-.6l.16-.42-2.77-7.8h1.9l1.77 5.77h.07l1.77-5.77h1.91l-3.05 8.56c-.15.4-.34.76-.57 1.04-.24.3-.52.52-.87.67-.33.16-.74.23-1.2.23Zm8.07 0a3.65 3.65 0 0 1-1.18-.19l.42-1.4c.26.08.5.12.7.11.2 0 .39-.07.55-.2.15-.11.29-.32.4-.6l.15-.42-2.77-7.8h1.91l1.76 5.77h.08l1.77-5.77h1.91l-3.06 8.56c-.14.4-.33.76-.56 1.04-.24.3-.53.52-.87.67-.34.16-.74.23-1.21.23Z" fill="#D1D4DB"/>
</svg>