<svg width="80" height="20" viewBox="0 0 80 20" fill="none" xmlns="http://www.w3.org/2000/svg">
<rect width="80" height="20" rx="2" fill="#D1D4DB"/>
<rect x="4" y="8" width="26" height="4" rx="2" fill="#898D9A"/>
<path fill-rule="evenodd" clip-rule="evenodd" d="M71.854 4.69136L73.8173 8.98364C74.4381 10.4081 73.4005 12.0048 71.854 12.0048H68L68.7344 14.5319C69.0469 15.4207 68.814 16.3236 68.0367 16.7749C67.3047 17.1999 66.4375 16.9996 65.8389 16.3711L62.3203 13.1961C61.4798 12.4377 61 11.3586 61 10.2264V6.36764C61 5.74299 61.2918 5.15421 61.789 4.77597L63.0498 3.81666C63.7461 3.28687 64.5969 3 65.4719 3H69.2362C70.3711 3 71.3984 3.64605 71.854 4.69136ZM63.6602 11.7113L66.6039 14.3676L66.0795 12.5629C65.9039 11.9588 66.0228 11.3072 66.4006 10.804C66.7783 10.3009 67.3708 10.0048 68 10.0048H71.854C71.8896 10.0048 71.907 9.9972 71.9184 9.99076C71.934 9.98196 71.954 9.96527 71.9714 9.93856C71.9888 9.91184 71.9972 9.88467 71.9994 9.86244C72.001 9.84614 72.0004 9.82411 71.9874 9.79122L70.0277 5.50691L70.0205 5.4904C69.8951 5.20263 69.6066 5 69.2362 5H65.4719C65.0344 5 64.609 5.14343 64.2608 5.40833L63 6.36764V10.2264C63 10.7925 63.2399 11.3321 63.6602 11.7113Z" fill="#898D9A"/>
<path d="M59 12.0048C58.4477 12.0048 58 11.5571 58 11.0048V6.00107C58 5.44878 58.4477 5.00107 59 5.00107C59.5523 5.00107 60 5.44878 60 6.00107V11.0048C60 11.5571 59.5523 12.0048 59 12.0048Z" fill="#898D9A"/>
<g opacity="0.5">
<path fill-rule="evenodd" clip-rule="evenodd" d="M51.854 15.3086L53.8173 11.0164C54.4381 9.59191 53.4005 7.99522 51.854 7.99522H48L48.7344 5.46807C49.0469 4.57933 48.814 3.67643 48.0367 3.22511C47.3047 2.80006 46.4375 3.00037 45.8389 3.62891L42.3203 6.80385C41.4798 7.56231 41 8.64143 41 9.77357V13.6324C41 14.257 41.2918 14.8458 41.789 15.224L43.0498 16.1833C43.7461 16.7131 44.5969 17 45.4719 17H49.2362C50.3711 17 51.3984 16.3539 51.854 15.3086ZM43.6602 8.28871L46.6039 5.63242L46.0795 7.43707C45.9039 8.04124 46.0228 8.69283 46.4006 9.19599C46.7783 9.69915 47.3708 9.99522 48 9.99522H51.854C51.8896 9.99522 51.907 10.0028 51.9184 10.0092C51.934 10.018 51.954 10.0347 51.9714 10.0614C51.9888 10.0882 51.9972 10.1153 51.9994 10.1376C52.001 10.1539 52.0004 10.1759 51.9874 10.2088L50.0277 14.4931L50.0205 14.5096C49.8951 14.7974 49.6066 15 49.2362 15H45.4719C45.0344 15 44.609 14.8566 44.2608 14.5917L43 13.6324V9.77357C43 9.2075 43.2399 8.66794 43.6602 8.28871Z" fill="#898D9A"/>
<path d="M39 7.99521C38.4477 7.99521 38 8.44292 38 8.99521V13.9989C38 14.5512 38.4477 14.9989 39 14.9989C39.5523 14.9989 40 14.5512 40 13.9989V8.99521C40 8.44292 39.5523 7.99521 39 7.99521Z" fill="#898D9A"/>
</g>
</svg>
