<svg width="100" height="56" viewBox="0 0 100 56" fill="none" xmlns="http://www.w3.org/2000/svg">
<path fill-rule="evenodd" clip-rule="evenodd" d="M96 2H4C2.89543 2 2 2.89543 2 4V52C2 53.1046 2.89543 54 4 54H96C97.1046 54 98 53.1046 98 52V4C98 2.89543 97.1046 2 96 2ZM4 0C1.79086 0 0 1.79086 0 4V52C0 54.2091 1.79086 56 4 56H96C98.2091 56 100 54.2091 100 52V4C100 1.79086 98.2091 0 96 0H4Z" fill="#D1D4DB"/>
<rect y="14" width="100" height="2" rx="1" fill="#D1D4DB"/>
<path d="M89.1937 5.19373C88.9354 5.45204 88.9354 5.87084 89.1937 6.12915L91.0646 8L89.1937 9.87085C88.9354 10.1292 88.9354 10.548 89.1937 10.8063C89.452 11.0646 89.8708 11.0646 90.1292 10.8063L92 8.93542L93.8708 10.8063C94.1292 11.0646 94.548 11.0646 94.8063 10.8063C95.0646 10.548 95.0646 10.1292 94.8063 9.87085L92.9354 8L94.8063 6.12915C95.0646 5.87085 95.0646 5.45204 94.8063 5.19373C94.548 4.93542 94.1292 4.93542 93.8708 5.19373L92 7.06458L90.1292 5.19373C89.8708 4.93542 89.452 4.93542 89.1937 5.19373Z" fill="#898D9A"/>
<rect x="8" y="23" width="34" height="4" rx="2" fill="#D1D4DB"/>
<rect x="8" y="31" width="47" height="16" rx="2" fill="#D1D4DB"/>
<path fill-rule="evenodd" clip-rule="evenodd" d="M91.1317 23.7248C91.5598 24.0736 91.6241 24.7035 91.2752 25.1317L79.7435 39.2843L71.6906 34.7546L63.727 43.1866C63.3478 43.5881 62.7149 43.6062 62.3134 43.227C61.9119 42.8478 61.8938 42.2149 62.273 41.8134L71.3094 32.2454L79.2565 36.7157L89.7248 23.8683C90.0736 23.4402 90.7035 23.3759 91.1317 23.7248Z" fill="#D1D4DB"/>
</svg>
