<svg width="100" height="24" viewBox="0 0 100 24" fill="none" xmlns="http://www.w3.org/2000/svg">
<rect y="22" width="100" height="2" fill="#B5BAC4"/>
<path d="M82.3189 7.32289C81.8884 7.7534 81.8884 8.45141 82.3189 8.88192L85.437 12L82.3189 15.1181C81.8884 15.5486 81.8884 16.2466 82.3189 16.6771C82.7494 17.1076 83.4474 17.1076 83.8779 16.6771L86.996 13.559L90.1141 16.6771C90.5446 17.1076 91.2426 17.1076 91.6731 16.6771C92.1036 16.2466 92.1036 15.5486 91.6731 15.1181L88.555 12L91.6731 8.88192C92.1036 8.45141 92.1036 7.7534 91.6731 7.32289C91.2426 6.89237 90.5446 6.89237 90.1141 7.32289L86.996 10.441L83.8779 7.32289C83.4474 6.89237 82.7494 6.89237 82.3189 7.32289Z" fill="#898D9A"/>
<path fill-rule="evenodd" clip-rule="evenodd" d="M73.7031 7.29289C74.0936 7.68342 74.0936 8.31658 73.7031 8.70711L67.7071 14.7072C67.3166 15.0977 66.6834 15.0977 66.2929 14.7072L63.2889 11.6994C62.8984 11.3089 62.8984 10.6757 63.2889 10.2852C63.6794 9.89469 64.3126 9.89469 64.7031 10.2852L67 12.5859L72.2889 7.29289C72.6794 6.90237 73.3126 6.90237 73.7031 7.29289Z" fill="#898D9A"/>
</svg>
