<svg width="100" height="56" viewBox="0 0 100 56" fill="none" xmlns="http://www.w3.org/2000/svg">
<rect x="1" y="1" width="98" height="54" stroke="#D1D4DB" stroke-width="2"/>
<rect opacity="0.5" x="94" y="16" width="4" height="38" fill="#D1D4DB"/>
<rect x="95" y="21" width="2" height="16" rx="1" fill="#898D9A"/>
<rect x="1" y="1" width="98" height="14" stroke="#D1D4DB" stroke-width="2"/>
<path d="M11.0043 41H12.8487V37.5597H14.7976C17.1492 37.5597 18.4119 36.1477 18.4119 34.1889C18.4119 32.245 17.1641 30.8182 14.8225 30.8182H11.0043V41ZM12.8487 36.0433V32.3594H14.5391C15.9212 32.3594 16.5327 33.1051 16.5327 34.1889C16.5327 35.2727 15.9212 36.0433 14.549 36.0433H12.8487Z" fill="#D1D4DB"/>
<path d="M19.9345 41H21.7342V33.3636H19.9345V41ZM20.8393 32.2798C21.4111 32.2798 21.8784 31.8423 21.8784 31.3054C21.8784 30.7635 21.4111 30.326 20.8393 30.326C20.2626 30.326 19.7953 30.7635 19.7953 31.3054C19.7953 31.8423 20.2626 32.2798 20.8393 32.2798Z" fill="#D1D4DB"/>
<path d="M25.3846 36.5256C25.3846 35.4219 26.0508 34.7855 27.0004 34.7855C27.9301 34.7855 28.4869 35.397 28.4869 36.4162V41H30.2866V36.1378C30.2916 34.3082 29.2475 33.2642 27.6715 33.2642C26.5281 33.2642 25.7426 33.8111 25.3945 34.6612H25.3051V33.3636H23.5849V41H25.3846V36.5256Z" fill="#D1D4DB"/>
<path d="M33.9158 36.5256C33.9158 35.4219 34.582 34.7855 35.5316 34.7855C36.4613 34.7855 37.0181 35.397 37.0181 36.4162V41H38.8178V36.1378C38.8228 34.3082 37.7788 33.2642 36.2028 33.2642C35.0593 33.2642 34.2738 33.8111 33.9258 34.6612H33.8363V33.3636H32.1161V41H33.9158V36.5256Z" fill="#D1D4DB"/>
<path d="M44.0281 41.1491C45.8079 41.1491 47.0309 40.2791 47.3491 38.9517L45.6687 38.7628C45.4251 39.4091 44.8285 39.7472 44.0529 39.7472C42.8896 39.7472 42.119 38.9815 42.1041 37.674H47.4237V37.1222C47.4237 34.4425 45.8129 33.2642 43.9336 33.2642C41.7461 33.2642 40.3193 34.87 40.3193 37.2266C40.3193 39.6229 41.7262 41.1491 44.0281 41.1491ZM42.109 36.4609C42.1637 35.4865 42.8846 34.6662 43.9585 34.6662C44.9926 34.6662 45.6886 35.4219 45.6985 36.4609H42.109Z" fill="#D1D4DB"/>
<path d="M51.78 41.1342C53.0925 41.1342 53.6841 40.3537 53.9675 39.7969H54.0769V41H55.8468V30.8182H54.0421V34.6264H53.9675C53.6941 34.0746 53.1323 33.2642 51.785 33.2642C50.0201 33.2642 48.633 34.6463 48.633 37.1918C48.633 39.7074 49.9803 41.1342 51.78 41.1342ZM52.2822 39.6577C51.0939 39.6577 50.4675 38.6136 50.4675 37.1818C50.4675 35.7599 51.084 34.7408 52.2822 34.7408C53.4405 34.7408 54.0769 35.7003 54.0769 37.1818C54.0769 38.6634 53.4306 39.6577 52.2822 39.6577Z" fill="#D1D4DB"/>
<path d="M71.862 23.8001L70.8638 23.7402L70.8616 23.7763L70.8621 23.8125L71.862 23.8001ZM72 21.5L72.7526 20.8415C72.5703 20.6332 72.3099 20.5098 72.0333 20.5006C71.7567 20.4913 71.4886 20.5972 71.2929 20.7929L72 21.5ZM62.0394 38.7054C61.4875 38.6837 61.0225 39.1134 61.0008 39.6653C60.979 40.2171 61.4088 40.6821 61.9606 40.7038L62.0394 38.7054ZM67.2929 24.7929C66.9024 25.1834 66.9024 25.8166 67.2929 26.2071C67.6834 26.5976 68.3166 26.5976 68.7071 26.2071L67.2929 24.7929ZM74.7474 26.1585C75.1111 26.5741 75.7429 26.6163 76.1585 26.2526C76.5741 25.8889 76.6163 25.2571 76.2526 24.8415L74.7474 26.1585ZM72.8602 23.86L72.9982 21.5599L71.0018 21.4401L70.8638 23.7402L72.8602 23.86ZM61.9606 40.7038C63.9441 40.782 65.6765 40.5136 67.1482 39.8249C68.6333 39.13 69.7903 38.0361 70.656 36.5721C72.3521 33.704 72.9312 29.4092 72.8619 23.7878L70.8621 23.8125C70.9308 29.3909 70.3289 33.196 68.9345 35.5541C68.255 36.7032 67.3894 37.5039 66.3006 38.0134C65.1985 38.5291 63.8059 38.775 62.0394 38.7054L61.9606 40.7038ZM71.2929 20.7929L67.2929 24.7929L68.7071 26.2071L72.7071 22.2071L71.2929 20.7929ZM71.2474 22.1585L74.7474 26.1585L76.2526 24.8415L72.7526 20.8415L71.2474 22.1585Z" fill="#898D9A"/>
<rect x="6" y="5" width="17" height="6" rx="2" fill="#D1D4DB"/>
<rect x="57" y="5" width="11" height="6" rx="2" fill="#D1D4DB"/>
<rect x="70" y="5" width="11" height="6" rx="2" fill="#D1D4DB"/>
<rect x="83" y="5" width="11" height="6" rx="2" fill="#D1D4DB"/>
</svg>
