<svg xmlns="http://www.w3.org/2000/svg" xlink="http://www.w3.org/1999/xlink" width="22" height="22" viewBox="0 0 22 22"><path d="M17.498,2 C18.88,2 20,3.12 20,4.502 L20,17.498 C20,18.88 18.88,20 17.498,20 L4.502,20 C3.12,20 2,18.88 2,17.498 L2,4.502 C2,3.12 3.12,2 4.502,2 L17.498,2 Z M18,12.667 L18,5.333 C18,4.597 17.403,4 16.668,4 L13.332,4 C12.597,4 12,4.597 12,5.333 L12,12.667 C12,13.403 12.597,14 13.332,14 L16.668,14 C17.403,14 18,13.403 18,12.667 Z M10,16.667 L10,5.333 C10,4.597 9.403,4 8.668,4 L5.332,4 C4.597,4 4,4.597 4,5.333 L4,16.667 C4,17.403 4.597,18 5.332,18 L8.668,18 C9.403,18 10,17.403 10,16.667 Z"/></svg>
