<svg xmlns="http://www.w3.org/2000/svg" xlink="http://www.w3.org/1999/xlink" width="16" height="16" viewBox="0 0 16 16"><path d="M12.996,1 C14.104,1 15,1.898 15,3.004 L15,12.996 C15,14.103 14.104,15 12.996,15 L3.004,15 C1.896,15 1,14.103 1,12.996 L1,3.004 C1,1.898 1.896,1 3.004,1 L12.996,1 Z M13,9.002 L13,3.998 C13,3.447 12.553,3 12.002,3 L9.998,3 C9.447,3 9,3.447 9,3.998 L9,9.002 C9,9.553 9.447,10 9.998,10 L12.002,10 C12.553,10 13,9.553 13,9.002 Z M7,12.002 L7,3.998 C7,3.447 6.553,3 6.002,3 L3.998,3 C3.447,3 3,3.447 3,3.998 L3,12.002 C3,12.553 3.447,13 3.998,13 L6.002,13 C6.553,13 7,12.553 7,12.002 Z"/></svg>
