<svg xmlns="http://www.w3.org/2000/svg" xlink="http://www.w3.org/1999/xlink" width="12" height="12" viewBox="0 0 12 12"><path d="M9.5,0 C10.328,0 11,0.672 11,1.5 L11,9.5 C11,10.328 10.328,11 9.5,11 L1.5,11 C0.672,11 0,10.328 0,9.5 L0,1.5 C0,0.672 0.672,0 1.5,0 L9.5,0 Z M9.75,6.093 L9.75,1.907 C9.75,1.544 9.455,1.25 9.093,1.25 L6.907,1.25 C6.545,1.25 6.25,1.544 6.25,1.907 L6.25,6.093 C6.25,6.456 6.545,6.75 6.907,6.75 L9.093,6.75 C9.455,6.75 9.75,6.456 9.75,6.093 Z M4.75,9.093 L4.75,1.907 C4.75,1.544 4.455,1.25 4.093,1.25 L1.907,1.25 C1.545,1.25 1.25,1.544 1.25,1.907 L1.25,9.093 C1.25,9.456 1.545,9.75 1.907,9.75 L4.093,9.75 C4.455,9.75 4.75,9.456 4.75,9.093 Z"/></svg>
