<svg width="24" height="24" viewBox="0 0 24 24" xmlns="http://www.w3.org/2000/svg"><path d="M18.5 6.75a1.25 1.25 0 1 1-2.5 0 1.25 1.25 0 0 1 2.5 0Z"/><path fill-rule="evenodd" clip-rule="evenodd" d="M7 12a5 5 0 1 1 10 0 5 5 0 0 1-10 0Zm5-3a3 3 0 1 0 0 6 3 3 0 0 0 0-6Z"/><path fill-rule="evenodd" clip-rule="evenodd" d="M13.9 2h.1a45.32 45.32 0 0 1 2.123.057 7.32 7.32 0 0 1 2.427.464 5.121 5.121 0 0 1 2.925 2.929c.29.777.448 1.598.465 2.427.048 1.067.06 1.407.06 4.123s-.012 3.057-.06 4.123a7.355 7.355 0 0 1-.465 2.428 5.115 5.115 0 0 1-2.925 2.924 7.3 7.3 0 0 1-2.427.465c-1.067.049-1.407.06-4.123.06s-3.057-.011-4.123-.06a7.302 7.302 0 0 1-2.428-.465 5.111 5.111 0 0 1-2.924-2.924 7.3 7.3 0 0 1-.465-2.428C2.011 15.057 2 14.715 2 12c0-2.715.011-3.056.06-4.123a7.3 7.3 0 0 1 .465-2.427 5.115 5.115 0 0 1 2.924-2.925 7.333 7.333 0 0 1 2.428-.464C8.943 2.012 9.284 2 12 2v-.004c.823 0 1.428.001 1.9.004ZM12 4h1.895a42.72 42.72 0 0 1 2.136.055l.027.001h.026a5.332 5.332 0 0 1 1.753.334 3.121 3.121 0 0 1 1.769 1.772 5.32 5.32 0 0 1 .334 1.756v.024l.002.025C19.988 8.989 20 9.295 20 12s-.012 3.012-.058 4.033l-.001.025v.024a5.355 5.355 0 0 1-.335 1.757 3.115 3.115 0 0 1-1.769 1.767 5.299 5.299 0 0 1-1.752.334h-.027l-.027.002C15.011 19.99 14.707 20 12 20s-3.012-.011-4.031-.058l-.027-.001h-.027a5.3 5.3 0 0 1-1.753-.335 3.109 3.109 0 0 1-1.768-1.768 5.3 5.3 0 0 1-.334-1.753v-.027l-.002-.027C4.01 15.011 4 14.706 4 12c0-2.706.011-3.01.058-4.031l.001-.027v-.027a5.3 5.3 0 0 1 .335-1.752A3.115 3.115 0 0 1 6.16 4.394a5.333 5.333 0 0 1 1.755-.333h.026l.027-.002C8.989 4.012 9.294 4 12 4Z"/></svg>