<svg width="16" height="16" viewBox="0 0 16 16" xmlns="http://www.w3.org/2000/svg"><path fill-rule="evenodd" clip-rule="evenodd" d="M4 8a4 4 0 1 1 8 0 4 4 0 0 1-8 0Zm4-2a2 2 0 1 0 0 4 2 2 0 0 0 0-4Z"/><path d="M12 5a1 1 0 1 0 0-2 1 1 0 0 0 0 2Z"/><path fill-rule="evenodd" clip-rule="evenodd" d="M10 .008 9.52.003C9.143.001 8.659 0 8 0v.003c-2.173 0-2.446.01-3.298.049a5.867 5.867 0 0 0-1.943.371A4.092 4.092 0 0 0 .42 2.763a5.838 5.838 0 0 0-.372 1.94C.008 5.558 0 5.83 0 8.003c0 2.171.009 2.445.048 3.297.013.664.138 1.32.372 1.942a4.088 4.088 0 0 0 2.34 2.34 5.85 5.85 0 0 0 1.942.371c.852.04 1.125.048 3.298.048s2.445-.009 3.298-.048a5.839 5.839 0 0 0 1.942-.372 4.094 4.094 0 0 0 2.34-2.339 5.882 5.882 0 0 0 .372-1.942c.038-.852.048-1.125.048-3.297 0-2.173-.01-2.445-.048-3.298a5.882 5.882 0 0 0-.372-1.941A4.095 4.095 0 0 0 13.24.42a5.866 5.866 0 0 0-1.942-.371C10.828.027 10.534.015 10 .008Zm-.486 1.995H8c-2.162 0-2.4.01-3.207.047l-.026.001h-.026a3.88 3.88 0 0 0-1.27.241A2.092 2.092 0 0 0 2.29 3.476a3.838 3.838 0 0 0-.241 1.266v.027l-.002.027C2.009 5.603 2 5.839 2 8.002c0 2.162.009 2.4.046 3.205l.001.027v.027c.009.433.09.862.242 1.268a2.088 2.088 0 0 0 1.183 1.182c.406.152.835.233 1.268.241h.027l.026.002C5.6 13.991 5.836 14 8 14c2.164 0 2.4-.009 3.207-.046l.026-.001h.027a3.84 3.84 0 0 0 1.267-.242 2.092 2.092 0 0 0 1.184-1.182c.151-.407.233-.836.241-1.27v-.025l.002-.025c.036-.808.046-1.046.046-3.207 0-2.162-.01-2.4-.046-3.208l-.001-.025v-.024a3.881 3.881 0 0 0-.242-1.27 2.096 2.096 0 0 0-1.184-1.186 3.867 3.867 0 0 0-1.268-.24l-.026-.001-.026-.001a33.774 33.774 0 0 0-1.693-.044Z"/></svg>