<svg width="21" height="16" viewBox="0 0 21 16" fill="none" xmlns="http://www.w3.org/2000/svg">
  <path fill-rule="evenodd" clip-rule="evenodd" d="M21 14.55c0 .8-.6 1.45-1.31 1.45H1.3C.6 16 0 15.35 0 14.55V1.45C0 .65.6 0 1.31 0H19.7C20.4 0 21 .65 21 1.45v13.1Z" fill="#EBEBEB"/>
  <path fill-rule="evenodd" clip-rule="evenodd" d="M13.95 5.7c.11-.72 0-1.22-.39-1.66-.42-.5-1.19-.7-2.17-.7H8.53c-.2 0-.37.14-.4.34l-1.2 7.66c-.02.15.1.3.25.3h1.76s4.92-5.99 5.01-5.94Z" fill="#2D448C"/>
  <path fill-rule="evenodd" clip-rule="evenodd" d="M13.95 5.7c0 .06-4.37 1.8-4.58 3.17-.21 1.37 0 0 0 0l-.43 2.76-.12.78c-.02.14.08.26.21.26h1.49c.18 0 .32-.13.35-.3l.02-.09.28-1.8.01-.1c.03-.18.18-.3.36-.3h.22c1.44 0 2.57-.6 2.9-2.32.13-.72.06-1.32-.3-1.74a1.41 1.41 0 0 0-.4-.32Z" fill="#179BD7"/>
  <path fill-rule="evenodd" clip-rule="evenodd" d="M13.56 5.55a2.77 2.77 0 0 0-.37-.09 4.56 4.56 0 0 0-.74-.05h-2.24l-.15.03a.36.36 0 0 0-.2.28L9.4 8.78l-.02.09a.4.4 0 0 1 .4-.35h.84c1.65 0 2.94-.68 3.31-2.64l.03-.18a1.96 1.96 0 0 0-.4-.15Z" fill="#1D285C"/>
</svg>
