<svg width="72" height="43" viewBox="0 0 72 43" fill="none" xmlns="http://www.w3.org/2000/svg">
<path opacity="0.3" d="M1 42C1 42 8 25.8333 17.8 25.8333C27.6 25.8333 29.9333 27.5 35.5333 27.5C41.1333 27.5 42.0667 14.75 53.2667 14.75C64.4667 14.75 72 1 72 1V43H1V42Z" fill="#D1D4DB"/>
<path d="M1.8819 41.4715C1.62152 41.9585 1.01561 42.1423 0.528556 41.8819C0.0415026 41.6215 -0.142254 41.0156 0.118124 40.5285C1.87654 37.2393 3.13238 34.9744 3.89262 33.7227C4.98887 31.9176 5.97154 30.4839 6.84621 29.4171C7.19321 28.9939 7.5249 28.6264 7.8426 28.314C10.8644 25.3427 14.1958 23.8333 17.8 23.8333C21.9621 23.8333 23.918 24.0544 26.9932 24.6872C29.9793 25.3017 31.7114 25.5 35.5333 25.5C38.723 25.5 40.1569 24.2958 42.4351 20.5886C42.4067 20.6349 42.8435 19.9222 42.9663 19.7239C45.8917 14.9953 48.5379 13 54 13C61.5645 13 66.8752 8.93887 70.0667 0.641016C70.2649 0.125543 70.8435 -0.131609 71.359 0.0666492C71.8745 0.264908 72.1316 0.843501 71.9334 1.35897C68.4582 10.3945 62.4355 15 54 15C49.3566 15 47.2648 16.5773 44.6671 20.7761C44.5469 20.9703 44.1127 21.6788 44.1391 21.6358C41.5335 25.8757 39.5993 27.5 35.5333 27.5C31.5666 27.5 29.7017 27.2864 26.6808 26.6648C23.6412 26.0394 21.8185 25.8333 17.8 25.8333C14.7491 25.8333 11.9096 27.1198 9.24484 29.7401C8.98127 29.9992 8.6968 30.3145 8.39279 30.6852C7.58545 31.6699 6.65335 33.0298 5.60205 34.7608C4.86626 35.9724 3.62388 38.213 1.8819 41.4715Z" fill="#D1D4DB"/>
<path fill-rule="evenodd" clip-rule="evenodd" d="M31 26C31 28.7614 33.2386 31 36 31C38.7614 31 41 28.7614 41 26C41 23.2386 38.7614 21 36 21C33.2386 21 31 23.2386 31 26ZM39 26C39 27.6568 37.6569 29 36 29C34.3431 29 33 27.6568 33 26C33 24.3431 34.3431 23 36 23C37.6569 23 39 24.3431 39 26Z" fill="#D1D4DB"/>
<path fill-rule="evenodd" clip-rule="evenodd" d="M13 25C13 27.7614 15.2386 30 18 30C20.7614 30 23 27.7614 23 25C23 22.2386 20.7614 20 18 20C15.2386 20 13 22.2386 13 25ZM21 25C21 26.6568 19.6569 28 18 28C16.3431 28 15 26.6568 15 25C15 23.3431 16.3431 22 18 22C19.6569 22 21 23.3431 21 25Z" fill="#D1D4DB"/>
<path fill-rule="evenodd" clip-rule="evenodd" d="M49 14C49 16.7614 51.2386 19 54 19C56.7614 19 59 16.7614 59 14C59 11.2386 56.7614 9 54 9C51.2386 9 49 11.2386 49 14ZM57 14C57 15.6569 55.6569 17 54 17C52.3431 17 51 15.6569 51 14C51 12.3431 52.3431 11 54 11C55.6569 11 57 12.3431 57 14Z" fill="#D1D4DB"/>
<path d="M54 17C55.6569 17 57 15.6569 57 14C57 12.3431 55.6569 11 54 11C52.3431 11 51 12.3431 51 14C51 15.6569 52.3431 17 54 17Z" fill="white"/>
<path d="M36 29C37.6569 29 39 27.6568 39 26C39 24.3431 37.6569 23 36 23C34.3431 23 33 24.3431 33 26C33 27.6568 34.3431 29 36 29Z" fill="white"/>
<path d="M18 28C19.6569 28 21 26.6568 21 25C21 23.3431 19.6569 22 18 22C16.3431 22 15 23.3431 15 25C15 26.6568 16.3431 28 18 28Z" fill="white"/>
</svg>
