<svg width="48" height="70" viewBox="0 0 48 70" fill="none" xmlns="http://www.w3.org/2000/svg">
<path d="M0 0.999998C0 0.447713 0.447715 0 1 0C1.55228 0 2 0.447715 2 1V69C2 69.5523 1.55228 70 1 70C0.447715 70 0 69.5523 0 69L0 0.999998Z" fill="#D1D4DB"/>
<path fill-rule="evenodd" clip-rule="evenodd" d="M26 10H6V24H26C28.2091 24 30 22.2091 30 20V14C30 11.7909 28.2091 10 26 10ZM8 22V12H26C27.1046 12 28 12.8954 28 14V20C28 21.1046 27.1046 22 26 22H8Z" fill="#D1D4DB"/>
<path d="M7.19278 22.4775C6.9218 22.0081 7.07417 21.4083 7.53631 21.1252L25.4193 10.17C25.8988 9.87623 26.5261 10.0356 26.8073 10.5225C27.0783 10.9919 26.9259 11.5917 26.4637 11.8748L8.58071 22.83C8.10124 23.1238 7.47393 22.9644 7.19278 22.4775Z" fill="#D1D4DB"/>
<path d="M6.33824 16.9974C6.06269 16.5201 6.22522 15.9099 6.70166 15.6329L16.1603 10.134L17.1603 11.866L7.70686 17.3619C7.22839 17.6401 6.61497 17.4767 6.33824 16.9974Z" fill="#D1D4DB"/>
<path d="M16.4626 21.8737C16.0035 22.158 15.8533 22.7556 16.1233 23.2232C16.4054 23.7117 17.0357 23.8702 17.5152 23.5731L29.5374 16.1263C29.9965 15.842 30.1467 15.2445 29.8767 14.7768C29.5946 14.2883 28.9644 14.1298 28.4848 14.4269L16.4626 21.8737Z" fill="#D1D4DB"/>
<path fill-rule="evenodd" clip-rule="evenodd" d="M36 46H6V60H36C38.2091 60 40 58.2091 40 56V50C40 47.7909 38.2091 46 36 46ZM8 58V48H36C37.1046 48 38 48.8954 38 50V56C38 57.1046 37.1046 58 36 58H8Z" fill="#D1D4DB"/>
<path d="M6 28H44C46.2091 28 48 29.7909 48 32V38C48 40.2091 46.2091 42 44 42H6V28Z" fill="#D1D4DB"/>
</svg>
