<svg width="76" height="70" viewBox="0 0 76 70" fill="none" xmlns="http://www.w3.org/2000/svg">
<path d="M0 0.999998C0 0.447713 0.447715 0 1 0C1.55228 0 2 0.447715 2 1V69C2 69.5523 1.55228 70 1 70C0.447715 70 0 69.5523 0 69V0.999998Z" fill="#D1D4DB"/>
<path d="M0 69C0 68.4477 0.447715 68 1 68H75C75.5523 68 76 68.4477 76 69C76 69.5523 75.5523 70 75 70H1C0.447716 70 0 69.5523 0 69Z" fill="#D1D4DB"/>
<path d="M70 69C70 68.4477 70.4477 68 71 68H75C75.5523 68 76 68.4477 76 69C76 69.5523 75.5523 70 75 70H71C70.4477 70 70 69.5523 70 69Z" fill="#D1D4DB"/>
<path d="M50 41C42.268 41 36 34.732 36 27C36 19.268 42.268 13 50 13C57.732 13 64 19.268 64 27C64 34.732 57.732 41 50 41Z" fill="#D1D4DB"/>
<path fill-rule="evenodd" clip-rule="evenodd" d="M13 35C13 38.3137 15.6863 41 19 41C22.3137 41 25 38.3137 25 35C25 31.6863 22.3137 29 19 29C15.6863 29 13 31.6863 13 35ZM23 35C23 37.2091 21.2091 39 19 39C16.7909 39 15 37.2091 15 35C15 32.7909 16.7909 31 19 31C21.2091 31 23 32.7909 23 35Z" fill="#D1D4DB"/>
<path fill-rule="evenodd" clip-rule="evenodd" d="M28 52C28 57.5228 32.4772 62 38 62C43.5228 62 48 57.5228 48 52C48 46.4772 43.5228 42 38 42C32.4772 42 28 46.4772 28 52ZM46 52C46 56.4183 42.4183 60 38 60C33.5817 60 30 56.4183 30 52C30 47.5817 33.5817 44 38 44C42.4183 44 46 47.5817 46 52Z" fill="#D1D4DB"/>
<path d="M28.321 52.9675C28.0523 52.5022 28.1997 51.9077 28.6546 51.6218L41.2818 43.686C41.7615 43.3845 42.3957 43.5418 42.679 44.0325C42.9476 44.4978 42.8002 45.0923 42.3453 45.3782L29.7181 53.314C29.2384 53.6155 28.6043 53.4582 28.321 52.9675Z" fill="#D1D4DB"/>
<path d="M31.1824 57.4595C30.9156 56.9975 31.059 56.4074 31.5081 56.1193L45.4131 47.1992C45.8929 46.8914 46.5326 47.0469 46.8176 47.5405C47.0843 48.0025 46.9409 48.5927 46.4919 48.8807L32.5868 57.8008C32.107 58.1086 31.4674 57.9532 31.1824 57.4595Z" fill="#D1D4DB"/>
<path d="M47.3612 50.884L34.6387 59.384L35.6387 61.116L47.5823 53.1364C48.0205 52.8436 48.1563 52.2612 47.8928 51.8049L47.3612 50.884Z" fill="#D1D4DB"/>
</svg>
