<svg width="100" height="29" viewBox="0 0 100 29" fill="none" xmlns="http://www.w3.org/2000/svg">
<rect y="0.153992" width="100" height="28" rx="4" fill="#D1D4DB"/>
<path d="M12.8487 8.97217H11.0043V19.154H12.8487V8.97217Z" fill="#898D9A"/>
<path d="M16.2928 8.97217H14.861V9.99632C14.861 10.8067 14.5428 11.4281 14.1799 11.975L15.0151 12.5169C15.7459 11.9104 16.2928 10.8663 16.2928 9.98638V8.97217Z" fill="#898D9A"/>
<path d="M17.4599 19.154H19.2596V14.5105C19.2596 13.5709 19.886 12.9345 20.6616 12.9345C21.4222 12.9345 21.9442 13.4466 21.9442 14.2321V19.154H23.7092V14.3912C23.7092 13.5311 24.2212 12.9345 25.0913 12.9345C25.8171 12.9345 26.3938 13.3621 26.3938 14.3067V19.154H28.1985V14.0283C28.1985 12.323 27.2141 11.4182 25.8121 11.4182C24.7035 11.4182 23.8583 11.9651 23.5202 12.8152H23.4407C23.1474 11.9502 22.4066 11.4182 21.3775 11.4182C20.3533 11.4182 19.5877 11.9452 19.2695 12.8152H19.18V11.5176H17.4599V19.154Z" fill="#898D9A"/>
<path d="M35.6944 19.3081C36.8926 19.3081 37.6085 18.7463 37.9366 18.105H37.9963V19.154H39.7264V14.0432C39.7264 12.0247 38.0808 11.4182 36.6241 11.4182C35.0183 11.4182 33.7853 12.1341 33.3876 13.5262L35.068 13.7648C35.247 13.2428 35.7541 12.7953 36.6341 12.7953C37.4693 12.7953 37.9267 13.2229 37.9267 13.9736V14.0034C37.9267 14.5205 37.3848 14.5453 36.0375 14.6895C34.5559 14.8486 33.139 15.2911 33.139 17.0112C33.139 18.5127 34.2377 19.3081 35.6944 19.3081ZM36.1618 17.9857C35.411 17.9857 34.8741 17.6426 34.8741 16.9814C34.8741 16.2904 35.4757 16.002 36.2811 15.8877C36.7534 15.823 37.698 15.7037 37.9316 15.5148V16.4146C37.9316 17.2648 37.2456 17.9857 36.1618 17.9857Z" fill="#898D9A"/>
<path d="M45.0882 19.154H49.2097C51.5414 19.154 52.6848 17.9658 52.6848 16.3798C52.6848 14.8387 51.5911 13.9338 50.5073 13.8791V13.7797C51.5016 13.546 52.2871 12.85 52.2871 11.6121C52.2871 10.0958 51.1934 8.97217 48.986 8.97217H45.0882V19.154ZM46.9327 17.6128V14.6298H48.9661C50.1046 14.6298 50.8105 15.3259 50.8105 16.2357C50.8105 17.046 50.2537 17.6128 48.9164 17.6128H46.9327ZM46.9327 13.3024V10.4935H48.7971C49.8809 10.4935 50.4426 11.0652 50.4426 11.8507C50.4426 12.7456 49.7168 13.3024 48.7573 13.3024H46.9327Z" fill="#898D9A"/>
<path d="M59.0771 15.9423C59.0771 17.1057 58.2468 17.6824 57.4513 17.6824C56.5863 17.6824 56.0096 17.0709 56.0096 16.1014V11.5176H54.2099V16.3798C54.2099 18.2144 55.2539 19.2534 56.7553 19.2534C57.8988 19.2534 58.7042 18.6519 59.0522 17.7967H59.1317V19.154H60.8768V11.5176H59.0771V15.9423Z" fill="#898D9A"/>
<path d="M66.5407 11.5176H65.0343V9.68808H63.2346V11.5176H62.1507V12.9097H63.2346V17.1554C63.2246 18.5922 64.2686 19.2982 65.6209 19.2584C66.133 19.2435 66.486 19.144 66.6799 19.0794L66.3766 17.6725C66.2772 17.6973 66.0733 17.7421 65.8496 17.7421C65.3972 17.7421 65.0343 17.583 65.0343 16.8571V12.9097H66.5407V11.5176Z" fill="#898D9A"/>
<path d="M71.859 11.5176H70.3526V9.68808H68.5529V11.5176H67.4691V12.9097H68.5529V17.1554C68.543 18.5922 69.587 19.2982 70.9393 19.2584C71.4513 19.2435 71.8043 19.144 71.9982 19.0794L71.695 17.6725C71.5955 17.6973 71.3917 17.7421 71.168 17.7421C70.7155 17.7421 70.3526 17.583 70.3526 16.8571V12.9097H71.859V11.5176Z" fill="#898D9A"/>
<path d="M76.6131 19.3031C78.8503 19.3031 80.2722 17.7271 80.2722 15.3656C80.2722 12.9992 78.8503 11.4182 76.6131 11.4182C74.3759 11.4182 72.954 12.9992 72.954 15.3656C72.954 17.7271 74.3759 19.3031 76.6131 19.3031ZM76.623 17.8614C75.3851 17.8614 74.7786 16.7577 74.7786 15.3607C74.7786 13.9637 75.3851 12.845 76.623 12.845C77.8411 12.845 78.4476 13.9637 78.4476 15.3607C78.4476 16.7577 77.8411 17.8614 76.623 17.8614Z" fill="#898D9A"/>
<path d="M83.5994 14.6796C83.5994 13.5759 84.2656 12.9395 85.2152 12.9395C86.1449 12.9395 86.7017 13.551 86.7017 14.5702V19.154H88.5014V14.2918C88.5064 12.4622 87.4623 11.4182 85.8864 11.4182C84.7429 11.4182 83.9574 11.9651 83.6094 12.8152H83.5199V11.5176H81.7997V19.154H83.5994V14.6796Z" fill="#898D9A"/>
</svg>
