<svg width="101" height="57" viewBox="0 0 101 57" fill="none" xmlns="http://www.w3.org/2000/svg">
<path fill-rule="evenodd" clip-rule="evenodd" d="M96.7528 2.75952H4.75284C3.64827 2.75952 2.75284 3.65495 2.75284 4.75952V52.7595C2.75284 53.8641 3.64827 54.7595 4.75284 54.7595H96.7528C97.8574 54.7595 98.7528 53.8641 98.7528 52.7595V4.75952C98.7528 3.65495 97.8574 2.75952 96.7528 2.75952ZM4.75284 0.759521C2.5437 0.759521 0.752838 2.55038 0.752838 4.75952V52.7595C0.752838 54.9687 2.5437 56.7595 4.75284 56.7595H96.7528C98.962 56.7595 100.753 54.9687 100.753 52.7595V4.75952C100.753 2.55038 98.962 0.759521 96.7528 0.759521H4.75284Z" fill="#D1D4DB"/>
<rect x="9" y="11" width="58" height="4" rx="2" fill="#D1D4DB"/>
<rect x="9" y="22" width="80" height="25" rx="2" fill="#D1D4DB"/>
</svg>
