<svg width="20" height="20" viewBox="0 0 20 20" fill="none" xmlns="http://www.w3.org/2000/svg">
<path fill-rule="evenodd" clip-rule="evenodd" d="M16 2H4C2.89543 2 2 2.89543 2 4V16C2 17.1046 2.89543 18 4 18H16C17.1046 18 18 17.1046 18 16V4C18 2.89543 17.1046 2 16 2ZM4 0C1.79086 0 0 1.79086 0 4V16C0 18.2091 1.79086 20 4 20H16C18.2091 20 20 18.2091 20 16V4C20 1.79086 18.2091 0 16 0H4Z" fill="#D1D4DB"/>
<path fill-rule="evenodd" clip-rule="evenodd" d="M15.7071 6.29289C16.0976 6.68342 16.0976 7.31658 15.7071 7.70711L9.71109 13.7072C9.32057 14.0977 8.6874 14.0977 8.29688 13.7072L5.29291 10.6994C4.90238 10.3089 4.90238 9.67574 5.29291 9.28522C5.68343 8.89469 6.3166 8.89469 6.70712 9.28522L9.00399 11.5859L14.2929 6.29289C14.6834 5.90237 15.3166 5.90237 15.7071 6.29289Z" fill="#898D9A"/>
</svg>
