<svg width="20" height="20" viewBox="0 0 20 20" fill="none" xmlns="http://www.w3.org/2000/svg">
<path fill-rule="evenodd" clip-rule="evenodd" d="M16 2H4C2.89543 2 2 2.89543 2 4V16C2 17.1046 2.89543 18 4 18H16C17.1046 18 18 17.1046 18 16V4C18 2.89543 17.1046 2 16 2ZM4 0C1.79086 0 0 1.79086 0 4V16C0 18.2091 1.79086 20 4 20H16C18.2091 20 20 18.2091 20 16V4C20 1.79086 18.2091 0 16 0H4Z" fill="#D1D4DB"/>
<path fill-rule="evenodd" clip-rule="evenodd" d="M16.2423 5.84174C15.8781 5.38756 15.2045 5.33924 14.7792 5.73679L10.2229 9.9961C9.8517 10.3431 9.2792 10.3566 8.89211 10.0273L6.21678 7.75157C5.78745 7.38636 5.14127 7.44796 4.78868 7.88771L4.58429 8.14262C4.25535 8.55286 4.30032 9.14778 4.6872 9.50391L8.87582 13.3597C9.26614 13.719 9.86912 13.7109 10.2497 13.3414L16.3476 7.42027C16.7175 7.06109 16.7537 6.47954 16.4311 6.07728L16.2423 5.84174Z" fill="#898D9A"/>
</svg>
