<svg width="100" height="63" viewBox="0 0 100 63" fill="none" xmlns="http://www.w3.org/2000/svg">
<path fill-rule="evenodd" clip-rule="evenodd" d="M83.1006 36.0156L84.9768 35.9264C85.4626 35.9031 85.9145 35.6955 86.2489 35.3415L88.2185 33.2561C88.7562 32.6868 88.8824 31.8335 88.5319 31.1328L87.1539 28.4054L90.2136 26.5226C90.6084 26.2797 90.8977 25.9007 91.0286 25.4564L92.2676 21.2441C92.5348 20.3349 92.0796 19.3679 91.2086 18.9946L89.3503 18.2101L89.5978 16.7715L91.7223 15.8769C92.2296 15.6637 92.6157 15.2401 92.7815 14.7149L93.0808 13.7682L95.5258 16.658C95.8834 17.0804 96.4013 17.3226 96.947 17.3226C97.9843 17.3226 98.8282 16.4818 98.8282 15.4481L98.8279 12.1476L98.752 8.57547C98.7015 6.19835 96.7289 4.26438 94.3546 4.26438C94.1784 4.26438 93.9999 4.275 93.8239 4.29622L75.561 6.48773L75.6862 6.14764C75.8928 5.58679 75.8178 4.95519 75.4852 4.45872C75.1529 3.96203 74.5978 3.65165 74.0008 3.62877L71.6782 3.53938C71.0652 3.51816 70.4742 3.79905 70.1079 4.28703L64.4048 11.8939L59.3753 14.4151L55.2294 12.279C54.9652 12.1432 54.669 12.0712 54.3723 12.0712C53.8565 12.0712 53.3581 12.287 53.0058 12.6632L49.161 16.7641C48.6732 17.2844 48.5232 18.0236 48.7699 18.6927L49.464 20.5521L47.0029 22.884L44.6572 24.2422C43.9874 24.6302 43.6286 25.3755 43.7437 26.141L43.9397 27.4474C44.0761 28.3568 44.8725 29.0432 45.7921 29.0429C46.0574 29.0429 46.3159 28.9873 46.5602 28.8774L48.5654 27.9748L51.0664 26.9149L53.6277 28.7078C53.8449 28.8601 54.0871 28.9627 54.3463 29.0125L58.2621 29.759V30.7269L50.1593 29.5116C49.8331 29.4616 49.4992 29.5005 49.193 29.6215L43.9093 31.7071C43.3301 31.9358 42.9039 32.4351 42.769 33.0429L41.736 37.692C41.5895 38.3502 41.81 39.0394 42.3112 39.4901L44.7463 41.6821C45.139 42.0354 45.6645 42.2061 46.1902 42.1528L50.8921 41.6554L51.0275 48.6929C51.0308 48.8653 51.0579 49.0361 51.1077 49.2002L51.9652 52.0304C52.4916 53.7682 54.0654 54.9356 55.8812 54.9356C57.4119 54.9356 58.8022 54.0924 59.5098 52.7351L66.0055 40.2738C66.3923 39.5321 66.2362 38.6142 65.6258 38.0417L64.7794 37.2483L66.0963 36.8094C66.7164 36.6026 67.1765 36.0991 67.3265 35.463C67.4768 34.8269 67.2904 34.1708 66.8282 33.7087L64.8952 31.7943L65.0235 31.6321L69.0692 34.2408L72.3282 38.9483C72.6779 39.4538 73.2529 39.7552 73.8666 39.7552C74.5716 39.7552 75.21 39.3663 75.5327 38.7401L76.9852 35.8851L80.2459 38.2019C80.5671 38.4302 80.9411 38.5509 81.3272 38.5509C81.8831 38.5507 82.4086 38.3049 82.7692 37.8762C83.1225 37.4561 83.2706 36.9014 83.1756 36.3545L83.1006 36.0156ZM57.8364 51.862C57.4551 52.5936 56.7058 53.0479 55.8808 53.0479C54.9022 53.0479 54.0541 52.4186 53.7704 51.4821L52.9136 48.6559L52.7782 41.6182C52.7683 41.096 52.5383 40.5981 52.1473 40.2519C51.7565 39.9057 51.2345 39.7394 50.7147 39.791L46.0081 40.2785L43.5775 38.1005L44.602 33.4611L49.8784 31.3764L58.6827 32.6972L62.1949 37.2677C62.2753 37.375 64.3322 39.4007 64.3322 39.4007L57.8364 51.862ZM81.2551 36.3224C81.1631 35.7934 81.3029 35.2495 81.6385 34.8307C81.9744 34.4118 82.4744 34.1566 83.0103 34.1309L84.8864 34.0417L86.8466 31.9606L85.4713 29.2309C85.0341 28.3566 85.3319 27.3108 86.1647 26.7986L89.2242 24.9158L90.4572 20.7116L88.5987 19.9288C87.7952 19.584 87.3402 18.7422 87.4921 17.8818L87.748 16.4328C87.8588 15.8038 88.2765 15.2804 88.8654 15.0323L90.9902 14.1377L91.289 13.1755C91.5362 12.3922 92.2553 11.8663 93.0784 11.8663C93.6279 11.8663 94.1478 12.1083 94.5044 12.53L96.9407 15.4094L96.9411 12.1677L96.8654 8.61533C96.8364 7.2566 95.71 6.15094 94.3544 6.15094C94.2532 6.15094 94.1501 6.15707 94.0485 6.16934L75.7624 8.36368C75.0579 8.44835 74.3959 8.13844 74.0025 7.57453C73.6529 7.07311 73.5706 6.43113 73.7822 5.85684L73.9154 5.49528L71.6055 5.42453L65.9091 13.0292C65.7357 13.2601 65.5079 13.4502 65.2496 13.5799L60.206 16.1016C59.947 16.2309 59.6577 16.2993 59.3685 16.2993C59.0716 16.2993 58.7751 16.2274 58.5112 16.0915L54.3652 13.9554L50.5371 18.0535L51.2308 19.9137C51.49 20.6175 51.3058 21.4054 50.7612 21.921L48.2977 24.2547C48.1904 24.3561 48.0725 24.4441 47.9463 24.5167L45.6025 25.8741L45.8053 27.1663L47.8117 26.2439L50.347 25.1759C50.9348 24.9285 51.6263 25.0026 52.148 25.3679L54.7098 27.1611L58.6317 27.9191C59.5107 28.0896 60.1485 28.8627 60.1485 29.7578V31.5116L63.3317 35.7509L65.4777 35.0257L63.5602 33.108C62.8603 32.4078 62.827 31.2797 63.4848 30.5396L63.6315 30.3748C63.9867 29.9755 64.4968 29.7462 65.0315 29.7462C65.3923 29.7462 65.7433 29.8498 66.0466 30.0455L70.0961 32.6583C70.3039 32.7922 70.4803 32.963 70.6209 33.1658L73.8709 37.8604L75.3289 35.0151C75.6513 34.3887 76.2897 33.9998 76.9949 33.9998C77.3848 33.9998 77.7593 34.1196 78.0782 34.346L81.3105 36.6427L81.2551 36.3224Z" fill="#D1D4DB"/>
<path fill-rule="evenodd" clip-rule="evenodd" d="M97.4036 47.0741L99.6015 51.25C99.8772 51.7741 99.8878 52.4052 99.6305 52.938L97.6841 56.9606C97.4218 57.5024 96.9114 57.8875 96.3185 57.9901L93.901 58.4104C93.7951 58.4288 93.6871 58.4382 93.5798 58.4382C92.8246 58.4382 92.147 57.9884 91.8541 57.2922L91.1565 55.6354L86.7532 56.196C86.1324 56.2731 85.53 56.0406 85.123 55.5842C84.7685 55.1868 84.5999 54.6552 84.6602 54.1255L85.1029 50.2519C85.1687 49.6771 85.5041 49.1561 86.0003 48.8587L91.1996 45.7391C91.4907 45.5644 91.8237 45.4722 92.1626 45.4722C92.735 45.4722 93.268 45.7281 93.6253 46.1748L94.1989 46.8917C94.5491 46.3788 95.1256 46.0738 95.7456 46.0738C96.4435 46.0738 97.0789 46.4571 97.4036 47.0741ZM93.5885 56.5495L95.9954 56.1311L97.9322 52.116L95.7454 47.9736C95.3944 48.4847 94.8194 48.788 94.1999 48.788C93.6282 48.788 93.0954 48.5321 92.7381 48.0854L92.1524 47.3533L86.9711 50.4764L86.535 54.3394L90.9371 53.7717C91.0149 53.7618 91.0928 53.7571 91.1697 53.7571C91.9249 53.7571 92.6022 54.2068 92.8954 54.9028L93.5885 56.5495Z" fill="#D1D4DB"/>
<path fill-rule="evenodd" clip-rule="evenodd" d="M36.1956 43.8703L27.3046 38.1099C26.8171 37.7941 26.2529 37.6271 25.6734 37.6271C24.7381 37.6271 23.8697 38.062 23.3029 38.7939L21.3088 37.6776L17.7475 32.6078H19.564C19.997 32.6078 20.4194 32.4564 20.7534 32.1816L27.5074 26.6281L31.2664 24.4979C31.7239 24.2384 32.0532 23.7958 32.1694 23.283C32.2859 22.7701 32.18 22.2285 31.8791 21.7969L28.551 17.0264C28.1899 16.5092 27.5942 16.2085 26.9678 16.2257C26.3373 16.2415 25.7614 16.5705 25.4272 17.1052L23.7119 19.884L21.7451 17.6722L25.6539 14.7979C26.3774 14.2656 26.6213 13.2913 26.2338 12.4814L25.2701 10.466C25.0454 9.99623 24.6312 9.63845 24.1338 9.48467C23.6362 9.33067 23.0925 9.39246 22.6425 9.65331L20.9388 10.6462L13.2392 7.38845L7.70904 4.26934C7.03829 3.89104 6.18947 3.96675 5.59654 4.45684L2.66753 6.87642C2.41022 7.08892 2.214 7.36699 2.10032 7.68019L0.112346 13.1474C-0.093079 13.7118 -0.0135978 14.3453 0.32461 14.842C0.663053 15.3384 1.22343 15.6439 1.82414 15.6597L6.04348 15.7592L8.72154 22.3804L8.28428 28.9377C8.25786 29.3349 8.3614 29.7382 8.57626 30.0731L12.177 35.6899C12.3937 36.0283 12.7072 36.2835 13.0838 36.4283L20.01 39.0793C20.0727 39.1392 20.1425 39.1889 20.2166 39.2285L22.2416 40.3623L21.1541 41.9934C20.7659 42.5757 20.7338 43.3186 21.0704 43.9326L23.3494 48.0844L23.0522 58.1906C23.0395 58.6231 23.1781 59.0498 23.4432 59.3925L25.2817 61.7668C25.6402 62.2297 26.1763 62.4953 26.7531 62.4953C27.2619 62.4953 27.7567 62.2873 28.1107 61.9248C28.4609 61.566 28.647 61.087 28.6348 60.5759L28.5503 57.2198L35.4562 50.6078C35.7043 50.3701 35.8822 50.0693 35.9704 49.7377L36.9871 45.925C37.1965 45.1387 36.8786 44.3132 36.1956 43.8703ZM13.7656 34.6717L10.1671 29.0632L10.6043 22.5059C10.623 22.2255 10.5772 21.9399 10.472 21.6795L7.79277 15.0517C7.51282 14.3599 6.85008 13.9007 6.10456 13.8816L1.89206 13.7736L3.86895 8.33114L6.78216 5.91298L12.3123 9.03255C12.3748 9.06769 12.4392 9.0993 12.5027 9.12595L20.2039 12.3842C20.7418 12.6116 21.3652 12.5724 21.8713 12.2802L23.568 11.2804L24.5362 13.2783L20.6272 16.1524C20.205 16.4627 19.9307 16.9394 19.8746 17.4601C19.8185 17.9809 19.9848 18.5052 20.3307 18.8984L22.2954 21.1309C22.6902 21.5795 23.2581 21.8099 23.8536 21.7601C24.4491 21.7116 24.9725 21.3929 25.2892 20.8863L27.0159 18.1238L30.3364 22.8561L26.5789 24.9856C26.4859 25.038 26.3965 25.0993 26.3114 25.1689L19.5642 30.7208C19.5642 30.7208 17.4666 30.721 17.4555 30.7212C16.8166 30.7311 16.2376 31.0946 15.9444 31.6696C15.6432 32.2604 15.6916 32.9625 16.0708 33.5024L18.0409 36.3068L13.7656 34.6717ZM27.2451 55.8566L34.1508 49.2448L35.1638 45.4384L26.2786 39.6936C26.0973 39.5759 25.8881 39.5139 25.6734 39.5139C25.2984 39.5139 24.9506 39.6995 24.7432 40.0109L22.7237 43.0399L25.005 47.1842C25.1654 47.4762 25.2447 47.8066 25.235 48.1396L24.9378 58.246L26.7465 60.5771L26.668 57.2538C26.6555 56.729 26.8659 56.2198 27.2451 55.8566Z" fill="#D1D4DB"/>
<path fill-rule="evenodd" clip-rule="evenodd" d="M33.1048 7.59528L32.0897 6.82618C31.5498 6.41321 31.2812 5.76462 31.3708 5.09127C31.4604 4.41793 31.8894 3.86226 32.5182 3.60519L40.859 0.192925C41.5104 -0.0738202 42.2866 0.0589628 42.8123 0.526416L44.7942 2.28821C45.3104 2.74693 45.5319 3.44929 45.372 4.12146L43.2279 13.1267C43.1166 13.5943 42.8338 13.9969 42.4312 14.2601L36.0024 18.4634C35.6956 18.6644 35.342 18.7705 34.98 18.7705C33.946 18.7705 33.1048 17.9297 33.1048 16.8962V7.59528ZM43.5361 3.68467L41.5588 1.93679L33.2552 5.34245L34.2562 6.10778C34.7166 6.45967 34.9913 7.0158 34.9913 7.59552V16.87L41.3982 12.6814L43.5361 3.68467Z" fill="#D1D4DB"/>
<path d="M22.3775 46.0653C22.0874 45.5627 22.286 44.9195 22.8091 44.668L30.1603 41.134L31.1603 42.866L23.6731 46.4654C23.2031 46.6914 22.6383 46.517 22.3775 46.0653Z" fill="#D1D4DB"/>
<path d="M23.7059 48.634L34.2943 43.634L35.2943 45.366L24.7059 50.366L23.7059 48.634Z" fill="#D1D4DB"/>
<path d="M23.7059 54.634L34.2943 49L34.2943 51.366L24.7059 56.366L23.7059 54.634Z" fill="#D1D4DB"/>
</svg>
