<svg width="58" height="38" viewBox="0 0 58 38" fill="none" xmlns="http://www.w3.org/2000/svg">
<circle cx="13" cy="26" r="6" fill="#898D9A"/>
<circle cx="13" cy="26" r="4" fill="#D1D4DB"/>
<circle opacity="0.7" cx="29" cy="26" r="4" fill="#898D9A"/>
<circle cx="45" cy="26" r="4" fill="#898D9A"/>
<path fill-rule="evenodd" clip-rule="evenodd" d="M21.8429 4L18.5 6.46667L15.1571 4L14 5.33333L18.5 9L23 5.33333L21.8429 4Z" fill="#898D9A"/>
<path fill-rule="evenodd" clip-rule="evenodd" d="M54 16H4C2.89543 16 2 16.8954 2 18V34C2 35.1046 2.89543 36 4 36H54C55.1046 36 56 35.1046 56 34V18C56 16.8954 55.1046 16 54 16ZM4 14C1.79086 14 0 15.7909 0 18V34C0 36.2091 1.79086 38 4 38H54C56.2091 38 58 36.2091 58 34V18C58 15.7909 56.2091 14 54 14H4Z" fill="#D1D4DB"/>
<circle cx="6" cy="6" r="6" fill="#898D9A"/>
<circle cx="6" cy="6" r="4" fill="#D1D4DB"/>
</svg>
