<svg width="40" height="24" viewBox="0 0 40 24" fill="none" xmlns="http://www.w3.org/2000/svg">
<rect width="40" height="24" rx="12" fill="#D1D4DB"/>
<path d="M9.82387 15.8409H15.375V18H17.3864V15.8409H18.875V14.108H17.3864V6.36364H14.7614L9.82387 14.1648V15.8409ZM15.3977 14.108H11.983V14.017L15.3068 8.75H15.3977V14.108Z" fill="#898D9A"/>
<path d="M20.6903 18H28.6676V16.2386H23.5994V16.1591L25.6051 14.1193C27.8665 11.9489 28.4915 10.892 28.4915 9.57954C28.4915 7.63068 26.9063 6.20454 24.5653 6.20454C22.2585 6.20454 20.6222 7.63636 20.6222 9.84659H22.6278C22.6278 8.65909 23.3778 7.91477 24.5369 7.91477C25.6449 7.91477 26.4688 8.59091 26.4688 9.6875C26.4688 10.6591 25.8778 11.3523 24.7301 12.517L20.6903 16.4773V18Z" fill="#898D9A"/>
</svg>
