<svg width="106" height="29" viewBox="0 0 106 29" fill="none" xmlns="http://www.w3.org/2000/svg">
<path fill-rule="evenodd" clip-rule="evenodd" d="M102 2H4C2.89543 2 2 2.89543 2 4V25C2 26.1046 2.89543 27 4 27H102C103.105 27 104 26.1046 104 25V4C104 2.89543 103.105 2 102 2ZM4 0C1.79086 0 0 1.79086 0 4V25C0 27.2091 1.79086 29 4 29H102C104.209 29 106 27.2091 106 25V4C106 1.79086 104.209 0 102 0H4Z" fill="#D1D4DB"/>
<path d="M9.25 9.8H10.1786C10.4571 9.8 10.6429 9.61333 10.6429 9.33333V7.46667C10.6429 7.18667 10.4571 7 10.1786 7H9.25C8.97143 7 8.78571 7.18667 8.78571 7.46667V9.33333C8.78571 9.61333 8.97143 9.8 9.25 9.8Z" fill="#898D9A"/>
<path d="M10.6429 15.4H8.78571V13.5333H10.6429V15.4Z" fill="#898D9A"/>
<path d="M11.5714 15.4H13.4286V13.5333H11.5714V15.4Z" fill="#898D9A"/>
<path d="M16.2143 15.4H14.3571V13.5333H16.2143V15.4Z" fill="#898D9A"/>
<path d="M8.78571 18.2H10.6429V16.3333H8.78571V18.2Z" fill="#898D9A"/>
<path d="M13.4286 18.2H11.5714V16.3333H13.4286V18.2Z" fill="#898D9A"/>
<path fill-rule="evenodd" clip-rule="evenodd" d="M17.1429 8.86667V10.2667C17.1429 10.5243 16.9349 10.7333 16.6786 10.7333H13.8929C13.6366 10.7333 13.4286 10.5243 13.4286 10.2667V8.86667H11.5714V10.2667C11.5714 10.5243 11.3634 10.7333 11.1071 10.7333H8.32143C8.06514 10.7333 7.85714 10.5243 7.85714 10.2667V8.86667C6.83571 8.86667 6 9.70667 6 10.7333V19.1333C6 20.16 6.83571 21 7.85714 21H17.1429C18.1643 21 19 20.16 19 19.1333V10.7333C19 9.70667 18.1643 8.86667 17.1429 8.86667ZM7.85714 19.1333H17.1429V12.6H7.85714V19.1333Z" fill="#898D9A"/>
<path d="M15.75 9.8H14.8214C14.5429 9.8 14.3571 9.61333 14.3571 9.33333V7.46667C14.3571 7.18667 14.5429 7 14.8214 7H15.75C16.0286 7 16.2143 7.18667 16.2143 7.46667V9.33333C16.2143 9.61333 16.0286 9.8 15.75 9.8Z" fill="#898D9A"/>
<path d="M25.9247 19H27.7244V14.3565C27.7244 13.4169 28.3509 12.7805 29.1264 12.7805C29.8871 12.7805 30.4091 13.2926 30.4091 14.0781V19H32.174V14.2372C32.174 13.3771 32.6861 12.7805 33.5561 12.7805C34.282 12.7805 34.8587 13.2081 34.8587 14.1527V19H36.6634V13.8743C36.6634 12.169 35.679 11.2642 34.277 11.2642C33.1683 11.2642 32.3232 11.8111 31.9851 12.6612H31.9055C31.6122 11.7962 30.8714 11.2642 29.8423 11.2642C28.8182 11.2642 28.0526 11.7912 27.7344 12.6612H27.6449V11.3636H25.9247V19ZM38.4892 19H40.2889V14.3565C40.2889 13.4169 40.9153 12.7805 41.6909 12.7805C42.4515 12.7805 42.9735 13.2926 42.9735 14.0781V19H44.7385V14.2372C44.7385 13.3771 45.2505 12.7805 46.1206 12.7805C46.8464 12.7805 47.4231 13.2081 47.4231 14.1527V19H49.2278V13.8743C49.2278 12.169 48.2434 11.2642 46.8414 11.2642C45.7328 11.2642 44.8876 11.8111 44.5495 12.6612H44.47C44.1767 11.7962 43.4359 11.2642 42.4068 11.2642C41.3826 11.2642 40.617 11.7912 40.2988 12.6612H40.2093V11.3636H38.4892V19ZM55.2099 8.34091H53.6339L50.3526 20.5312H51.9286L55.2099 8.34091ZM59.1921 19.1342C60.5046 19.1342 61.0962 18.3537 61.3796 17.7969H61.489V19H63.2589V8.81818H61.4542V12.6264H61.3796C61.1062 12.0746 60.5444 11.2642 59.1971 11.2642C57.4322 11.2642 56.0451 12.6463 56.0451 15.1918C56.0451 17.7074 57.3924 19.1342 59.1921 19.1342ZM59.6942 17.6577C58.506 17.6577 57.8796 16.6136 57.8796 15.1818C57.8796 13.7599 58.4961 12.7408 59.6942 12.7408C60.8526 12.7408 61.489 13.7003 61.489 15.1818C61.489 16.6634 60.8427 17.6577 59.6942 17.6577ZM68.0105 19.1342C69.323 19.1342 69.9146 18.3537 70.198 17.7969H70.3074V19H72.0772V8.81818H70.2725V12.6264H70.198C69.9245 12.0746 69.3627 11.2642 68.0154 11.2642C66.2505 11.2642 64.8635 12.6463 64.8635 15.1918C64.8635 17.7074 66.2108 19.1342 68.0105 19.1342ZM68.5126 17.6577C67.3244 17.6577 66.698 16.6136 66.698 15.1818C66.698 13.7599 67.3145 12.7408 68.5126 12.7408C69.671 12.7408 70.3074 13.7003 70.3074 15.1818C70.3074 16.6634 69.661 17.6577 68.5126 17.6577ZM78.1513 8.34091H76.5753L73.294 20.5312H74.87L78.1513 8.34091ZM80.4183 21.8636C81.8203 21.8636 82.6307 21.1428 83.0632 19.9247L86.1307 11.3736L84.2067 11.3636L82.4418 17.1307H82.3622L80.6023 11.3636H78.6932L81.4624 19.1591L81.3082 19.5717C80.9751 20.4418 80.4482 20.5014 79.6626 20.2727L79.245 21.6747C79.4886 21.7741 79.9261 21.8636 80.4183 21.8636ZM88.4984 21.8636C89.9004 21.8636 90.7108 21.1428 91.1433 19.9247L94.2108 11.3736L92.2868 11.3636L90.5218 17.1307H90.4423L88.6824 11.3636H86.7733L89.5424 19.1591L89.3883 19.5717C89.0552 20.4418 88.5282 20.5014 87.7427 20.2727L87.3251 21.6747C87.5687 21.7741 88.0062 21.8636 88.4984 21.8636Z" fill="#D1D4DB"/>
</svg>
