<svg width="68" height="68" viewBox="0 0 68 68" fill="none" xmlns="http://www.w3.org/2000/svg">
<g clip-path="url(#clip0)">
<path fill-rule="evenodd" clip-rule="evenodd" d="M67.3667 34.0782C66.916 33.5858 66.2798 33.3063 65.6129 33.3063H48.9582C47.8107 33.3063 46.8263 34.1262 46.6197 35.255C46.2913 37.0366 45.6093 38.6874 44.5908 40.166C43.9392 41.1099 44.0562 42.385 44.8674 43.1962L56.6464 54.9752C57.0902 55.4213 57.6963 55.6717 58.3326 55.6717C58.3738 55.6718 58.3739 55.6718 58.4556 55.6681C59.0949 55.6417 59.7198 55.3339 60.1482 54.8237C64.6685 49.4412 67.3786 42.8907 67.9815 35.8882C68.0393 35.2262 67.8156 34.569 67.3667 34.0782ZM48.9582 35.3063H65.6129C65.7193 35.3063 65.82 35.3505 65.8911 35.4282C65.9625 35.5062 65.9981 35.611 65.989 35.7155C65.4213 42.3089 62.8722 48.4702 58.6165 53.5376C58.549 53.618 58.4496 53.6669 58.3276 53.6717C58.227 53.6717 58.1315 53.6323 58.0624 53.5628L46.2816 41.782C46.1526 41.653 46.1341 41.4509 46.2373 41.3014C47.4166 39.5895 48.2072 37.6754 48.5868 35.6164C48.6197 35.4365 48.7761 35.3063 48.9582 35.3063Z" fill="#D1D4DB"/>
<path fill-rule="evenodd" clip-rule="evenodd" d="M56.1125 56.509L44.3325 44.7291C43.5193 43.9184 42.2434 43.8007 41.3002 44.4557C39.1631 45.9274 36.6621 46.7055 34.066 46.7055C27.0221 46.7055 21.289 40.9725 21.289 33.9286C21.289 27.7677 25.6841 22.4889 31.7404 21.3746C32.8683 21.168 33.6882 20.1837 33.6882 19.0362V2.38159C33.6882 1.71466 33.4088 1.07845 32.9168 0.628105C32.4182 0.167342 31.7404 -0.06851 31.066 0.0172743C13.66 1.51745 0.00140381 16.4105 0.00140381 33.9286C0.00140381 52.7123 15.2822 67.9931 34.066 67.9931C42.0581 67.9931 49.8335 65.1585 55.9612 60.0106C56.472 59.5791 56.7791 58.9564 56.8069 58.2911C56.8348 57.6266 56.5833 56.9797 56.1125 56.509ZM34.066 48.7055C37.0673 48.7055 39.9638 47.8043 42.4378 46.1007C42.5878 45.9965 42.7893 46.015 42.92 46.145L54.6983 57.9232C54.7729 57.9978 54.8131 58.1012 54.8086 58.2074C54.8043 58.3118 54.7552 58.4113 54.6726 58.481C48.9072 63.3245 41.5873 65.9931 34.066 65.9931C16.3868 65.9931 2.0014 51.6078 2.0014 33.9286C2.0014 17.4483 14.8661 3.42086 31.2781 2.00558C31.3872 1.99253 31.4822 2.02558 31.563 2.10022C31.644 2.17443 31.6882 2.27511 31.6882 2.38159V19.0362C31.6882 19.2183 31.558 19.3747 31.3793 19.4074C24.373 20.6965 19.289 26.8028 19.289 33.9286C19.289 42.077 25.9175 48.7055 34.066 48.7055Z" fill="#D1D4DB"/>
<path fill-rule="evenodd" clip-rule="evenodd" d="M43.8387 2.09032C43.9733 1.55469 43.6482 1.01135 43.1126 0.876726C41.4279 0.453288 39.7038 0.163867 37.9523 0.0127073C37.3198 -0.0465109 36.6684 0.17368 36.1918 0.611697C35.7152 1.04789 35.4437 1.66602 35.4437 2.31397V18.1514C35.4435 19.2662 36.2401 20.2227 37.337 20.4235C42.2273 21.3232 46.1234 25.2193 47.0232 30.1104C47.2238 31.2063 48.1802 32.0029 49.2951 32.0029H65.1337C65.7817 32.0029 66.3998 31.7314 66.8374 31.2534C67.2743 30.7781 67.4915 30.1387 67.4349 29.493C66.7229 21.2506 62.9477 13.7264 56.9355 8.27498C56.5264 7.904 55.894 7.93494 55.523 8.34408C55.152 8.75322 55.1829 9.38563 55.5921 9.75661C61.2329 14.8713 64.774 21.929 65.4424 29.6663C65.4501 29.7539 65.4214 29.8385 65.3636 29.9013C65.3039 29.9666 65.2213 30.0029 65.1337 30.0029H49.2951C49.1455 30.0029 49.0172 29.896 48.9903 29.7493C47.9403 24.0412 43.4054 19.5064 37.698 18.4563C37.5506 18.4293 37.4437 18.301 37.4437 18.1516V2.31397C37.4437 2.22647 37.48 2.14387 37.5436 2.08564C37.6055 2.02873 37.6977 1.99759 37.7732 2.00465C39.4253 2.14727 41.0439 2.41897 42.6251 2.8164C43.1607 2.95102 43.7041 2.62595 43.8387 2.09032ZM54.2451 7.31388C54.5661 6.86451 54.4621 6.23994 54.0128 5.91887C52.1053 4.55596 50.053 3.40301 47.8896 2.48227C47.3814 2.26599 46.7941 2.50261 46.5778 3.01079C46.3616 3.51896 46.5982 4.10625 47.1064 4.32253C49.1356 5.18618 51.0607 6.26766 52.8501 7.54617C53.2994 7.86724 53.924 7.76324 54.2451 7.31388Z" fill="#D1D4DB"/>
<path d="M36.1388 13.25C35.8627 12.7717 36.0265 12.1601 36.5048 11.884L49.4952 4.38396C49.9735 4.10781 50.5851 4.27169 50.8612 4.74998C51.1374 5.22827 50.9735 5.83987 50.4952 6.11601L37.5048 13.616C37.0265 13.8922 36.4149 13.7283 36.1388 13.25Z" fill="#D1D4DB"/>
<path d="M39.3518 20.0207C39.071 19.5345 39.2457 18.9124 39.7386 18.6434L56.3036 9.60159C56.78 9.34154 57.3769 9.50917 57.6483 9.97924C57.9291 10.4655 57.7544 11.0876 57.2615 11.3566L40.6965 20.3984C40.2201 20.6584 39.6232 20.4908 39.3518 20.0207Z" fill="#D1D4DB"/>
<path d="M46.2058 24.5C45.9297 24.0217 46.0935 23.4101 46.5718 23.134L60.4282 15.134C60.9065 14.8578 61.5181 15.0217 61.7943 15.5C62.0704 15.9783 61.9065 16.5899 61.4282 16.866L47.5718 24.866C47.0935 25.1422 46.482 24.9783 46.2058 24.5Z" fill="#D1D4DB"/>
<path d="M50.1388 31.25C49.8627 30.7717 50.0265 30.1601 50.5048 29.884L63.4952 22.384C63.9735 22.1078 64.5851 22.2717 64.8612 22.75C65.1374 23.2283 64.9735 23.8399 64.4952 24.116L51.5048 31.616C51.0265 31.8922 50.4149 31.7283 50.1388 31.25Z" fill="#D1D4DB"/>
</g>
<defs>
<clipPath id="clip0">
<rect width="68" height="68.0001" fill="white" transform="translate(0 -0.00012207)"/>
</clipPath>
</defs>
</svg>
