<svg width="64" height="52" viewBox="0 0 64 52" fill="none" xmlns="http://www.w3.org/2000/svg">
<rect width="64" height="24" rx="4" fill="#D1D4DB"/>
<rect y="28" width="64" height="24" rx="4" fill="#D1D4DB"/>
<path d="M10.1429 4C8.96 4 8 4.976 8 6.18182C8 7.38764 8.96 8.36364 10.1429 8.36364C11.3257 8.36364 12.2857 7.38764 12.2857 6.18182C12.2857 4.976 11.3257 4 10.1429 4Z" fill="#898D9A"/>
<path d="M15.8571 8.36364C17.04 8.36364 18 7.38764 18 6.18182C18 4.976 17.04 4 15.8571 4C14.6743 4 13.7143 4.976 13.7143 6.18182C13.7143 7.38764 14.6743 8.36364 15.8571 8.36364Z" fill="#898D9A"/>
<path d="M15.8571 9.81818C14.6743 9.81818 13.7143 10.7942 13.7143 12C13.7143 13.2058 14.6743 14.1818 15.8571 14.1818C17.04 14.1818 18 13.2058 18 12C18 10.7942 17.04 9.81818 15.8571 9.81818Z" fill="#898D9A"/>
<path d="M8 12C8 10.7942 8.96 9.81818 10.1429 9.81818C11.3257 9.81818 12.2857 10.7942 12.2857 12C12.2857 13.2058 11.3257 14.1818 10.1429 14.1818C8.96 14.1818 8 13.2058 8 12Z" fill="#898D9A"/>
<path d="M13.7143 17.8182C13.7143 16.6124 14.6743 15.6364 15.8571 15.6364C17.04 15.6364 18 16.6124 18 17.8182C18 19.024 17.04 20 15.8571 20C14.6743 20 13.7143 19.024 13.7143 17.8182Z" fill="#898D9A"/>
<path d="M10.1429 15.6364C8.96 15.6364 8 16.6124 8 17.8182C8 19.024 8.96 20 10.1429 20C11.3257 20 12.2857 19.024 12.2857 17.8182C12.2857 16.6124 11.3257 15.6364 10.1429 15.6364Z" fill="#898D9A"/>
<path fill-rule="evenodd" clip-rule="evenodd" d="M27.0372 9.24834C27.7732 8.9754 29.2253 9.14254 29.6086 9.9736C29.9352 10.682 30.2158 11.8765 30.2311 11.6219C30.2679 11.0561 30.1943 9.83254 30.4412 9.19314C30.6206 8.727 30.9733 8.28847 31.4931 8.1336C31.9301 8.00174 32.4437 7.95574 32.8976 8.04927C33.3775 8.1474 33.882 8.48934 34.0706 8.8144C34.6257 9.76967 34.6349 11.7262 34.6609 11.6219C34.7591 11.2049 34.7683 9.73747 35.0949 9.19314C35.3111 8.8328 35.8569 8.5108 36.1483 8.45867C36.5991 8.37894 37.1541 8.3544 37.6264 8.4464C38.0082 8.52154 38.5249 8.97387 38.6645 9.19314C39.0003 9.7206 39.1889 11.211 39.2456 11.7354C39.2701 11.9516 39.3591 11.1328 39.6949 10.6069C40.3174 9.62707 42.5223 9.43694 42.6051 11.5867C42.645 12.5895 42.6358 12.5435 42.6358 13.2181C42.6358 14.0093 42.6174 14.4877 42.5745 15.0612C42.5285 15.673 42.3966 17.0607 42.2049 17.7323C42.0731 18.1938 41.6361 19.2319 41.2037 19.8544C41.2037 19.8544 39.5569 21.7711 39.3775 22.6328C39.1981 23.4961 39.2579 23.5022 39.2211 24.1125C39.1858 24.7243 39.4066 25.5277 39.4066 25.5277C39.4066 25.5277 38.1784 25.6872 37.5145 25.5799C36.9149 25.4848 36.1728 24.2919 35.9811 23.9269C35.7174 23.424 35.1547 23.5206 34.9354 23.8917C34.5919 24.4789 33.8483 25.5323 33.3254 25.5983C32.2996 25.7271 30.1744 25.6443 28.5107 25.6289C28.5107 25.6289 28.7944 24.0787 28.1627 23.5467C27.695 23.148 26.89 22.3445 26.4085 21.9213L25.1328 20.5091C24.6989 19.9571 23.5964 19.0847 23.2269 17.4655C22.9003 16.0303 22.9325 15.3265 23.2836 14.7515C23.6393 14.1673 24.3109 13.8483 24.5931 13.7931C24.912 13.7287 25.6541 13.7333 25.9347 13.8882C26.2767 14.0768 26.4147 14.132 26.683 14.4877C27.0357 14.9585 27.1614 15.1869 27.0096 14.6733C26.8931 14.2715 26.5159 13.7609 26.3441 13.1859C26.177 12.6324 25.7293 11.74 25.7615 10.8461C25.7737 10.5072 25.9194 9.66387 27.0372 9.24834Z" fill="#F6F7F8"/>
<path fill-rule="evenodd" clip-rule="evenodd" d="M27.0372 9.24834C27.7732 8.9754 29.2253 9.14254 29.6086 9.9736C29.9352 10.682 30.2158 11.8765 30.2311 11.6219C30.2679 11.0561 30.1943 9.83254 30.4412 9.19314C30.6206 8.727 30.9733 8.28847 31.4931 8.1336C31.9301 8.00174 32.4437 7.95574 32.8976 8.04927C33.3775 8.1474 33.882 8.48934 34.0706 8.8144C34.6257 9.76967 34.6349 11.7262 34.6609 11.6219C34.7591 11.2049 34.7683 9.73747 35.0949 9.19314C35.3111 8.8328 35.8569 8.5108 36.1483 8.45867C36.5991 8.37894 37.1541 8.3544 37.6264 8.4464C38.0082 8.52154 38.5249 8.97387 38.6645 9.19314C39.0003 9.7206 39.1889 11.211 39.2456 11.7354C39.2701 11.9516 39.3591 11.1328 39.6949 10.6069C40.3174 9.62707 42.5223 9.43694 42.6051 11.5867C42.645 12.5895 42.6358 12.5435 42.6358 13.2181C42.6358 14.0093 42.6174 14.4877 42.5745 15.0612C42.5285 15.673 42.3966 17.0607 42.2049 17.7323C42.0731 18.1938 41.6361 19.2319 41.2037 19.8544C41.2037 19.8544 39.5569 21.7711 39.3775 22.6328C39.1981 23.4961 39.2579 23.5022 39.2211 24.1125C39.1858 24.7243 39.4066 25.5277 39.4066 25.5277C39.4066 25.5277 38.1784 25.6872 37.5145 25.5799C36.9149 25.4848 36.1728 24.2919 35.9811 23.9269C35.7174 23.424 35.1547 23.5206 34.9354 23.8917C34.5919 24.4789 33.8483 25.5323 33.3254 25.5983C32.2996 25.7271 30.1744 25.6443 28.5107 25.6289C28.5107 25.6289 28.7944 24.0787 28.1627 23.5467C27.695 23.148 26.89 22.3445 26.4085 21.9213L25.1328 20.5091C24.6989 19.9571 23.5964 19.0847 23.2269 17.4655C22.9003 16.0303 22.9325 15.3265 23.2836 14.7515C23.6393 14.1673 24.3109 13.8483 24.5931 13.7931C24.912 13.7287 25.6541 13.7333 25.9347 13.8882C26.2767 14.0768 26.4147 14.132 26.683 14.4877C27.0357 14.9585 27.1614 15.1869 27.0096 14.6733C26.8931 14.2715 26.5159 13.7609 26.3441 13.1859C26.177 12.6324 25.7293 11.74 25.7615 10.8461C25.7737 10.5072 25.9194 9.66387 27.0372 9.24834Z" stroke="#898D9A" stroke-width="1.75" stroke-linejoin="round"/>
<path d="M36.7601 20.0524V14.7486" stroke="#898D9A" stroke-width="1.75" stroke-linecap="round"/>
<path d="M33.6695 20.0703L33.645 14.7451" stroke="#898D9A" stroke-width="1.75" stroke-linecap="round"/>
<path d="M30.6088 14.7935L30.641 20.0467" stroke="#898D9A" stroke-width="1.75" stroke-linecap="round"/>
</svg>
