<svg width="84" height="56" viewBox="0 0 84 56" fill="none" xmlns="http://www.w3.org/2000/svg">
<path fill-rule="evenodd" clip-rule="evenodd" d="M80 2H4C2.89543 2 2 2.89543 2 4V52C2 53.1046 2.89543 54 4 54H80C81.1046 54 82 53.1046 82 52V4C82 2.89543 81.1046 2 80 2ZM4 0C1.79086 0 0 1.79086 0 4V52C0 54.2091 1.79086 56 4 56H80C82.2091 56 84 54.2091 84 52V4C84 1.79086 82.2091 0 80 0H4Z" fill="#D1D4DB"/>
<path d="M8.84872 9.81818H7.00426V20H8.84872V9.81818Z" fill="#898D9A"/>
<path d="M12.2928 9.81818H10.861V10.8423C10.861 11.6527 10.5428 12.2741 10.1799 12.821L11.0151 13.3629C11.7459 12.7564 12.2928 11.7124 12.2928 10.8324V9.81818Z" fill="#898D9A"/>
<path d="M13.4599 20H15.2596V15.3565C15.2596 14.4169 15.886 13.7805 16.6616 13.7805C17.4222 13.7805 17.9442 14.2926 17.9442 15.0781V20H19.7092V15.2372C19.7092 14.3771 20.2212 13.7805 21.0913 13.7805C21.8171 13.7805 22.3938 14.2081 22.3938 15.1527V20H24.1985V14.8743C24.1985 13.169 23.2141 12.2642 21.8121 12.2642C20.7035 12.2642 19.8583 12.8111 19.5202 13.6612H19.4407C19.1474 12.7962 18.4066 12.2642 17.3775 12.2642C16.3533 12.2642 15.5877 12.7912 15.2695 13.6612H15.18V12.3636H13.4599V20Z" fill="#898D9A"/>
<path d="M31.6944 20.1541C32.8926 20.1541 33.6085 19.5923 33.9366 18.951H33.9963V20H35.7264V14.8892C35.7264 12.8707 34.0808 12.2642 32.6241 12.2642C31.0183 12.2642 29.7853 12.9801 29.3876 14.3722L31.068 14.6108C31.247 14.0888 31.7541 13.6413 32.6341 13.6413C33.4693 13.6413 33.9267 14.0689 33.9267 14.8196V14.8494C33.9267 15.3665 33.3848 15.3913 32.0375 15.5355C30.5559 15.6946 29.139 16.1371 29.139 17.8572C29.139 19.3587 30.2377 20.1541 31.6944 20.1541ZM32.1618 18.8317C31.411 18.8317 30.8741 18.4886 30.8741 17.8274C30.8741 17.1364 31.4757 16.848 32.2811 16.7337C32.7534 16.669 33.698 16.5497 33.9316 16.3608V17.2607C33.9316 18.1108 33.2456 18.8317 32.1618 18.8317Z" fill="#898D9A"/>
<path d="M10.4545 38C13.5568 38 15.3963 36.081 15.3963 32.8991C15.3963 29.7273 13.5568 27.8182 10.5241 27.8182H7.00426V38H10.4545ZM8.84872 36.4041V29.4141H10.4197C12.4879 29.4141 13.5668 30.5675 13.5668 32.8991C13.5668 35.2408 12.4879 36.4041 10.3651 36.4041H8.84872Z" fill="#898D9A"/>
<path d="M17.0692 38H18.869V33.5107C18.869 32.5412 19.5998 31.8551 20.5891 31.8551C20.8924 31.8551 21.2702 31.9098 21.4244 31.9595V30.304C21.2603 30.2741 20.9769 30.2543 20.7781 30.2543C19.9031 30.2543 19.1722 30.7514 18.8938 31.6364H18.8143V30.3636H17.0692V38Z" fill="#898D9A"/>
<path d="M25.6365 38.1491C27.8738 38.1491 29.2956 36.5732 29.2956 34.2116C29.2956 31.8452 27.8738 30.2642 25.6365 30.2642C23.3993 30.2642 21.9775 31.8452 21.9775 34.2116C21.9775 36.5732 23.3993 38.1491 25.6365 38.1491ZM25.6465 36.7074C24.4086 36.7074 23.802 35.6037 23.802 34.2067C23.802 32.8097 24.4086 31.6911 25.6465 31.6911C26.8645 31.6911 27.4711 32.8097 27.4711 34.2067C27.4711 35.6037 26.8645 36.7074 25.6465 36.7074Z" fill="#898D9A"/>
<path d="M30.8232 40.8636H32.6229V36.7969H32.6974C32.9808 37.3537 33.5724 38.1342 34.8849 38.1342C36.6847 38.1342 38.032 36.7074 38.032 34.1918C38.032 31.6463 36.6449 30.2642 34.88 30.2642C33.5327 30.2642 32.9709 31.0746 32.6974 31.6264H32.593V30.3636H30.8232V40.8636ZM32.5881 34.1818C32.5881 32.7003 33.2244 31.7408 34.3828 31.7408C35.581 31.7408 36.1974 32.7599 36.1974 34.1818C36.1974 35.6136 35.571 36.6577 34.3828 36.6577C33.2344 36.6577 32.5881 35.6634 32.5881 34.1818Z" fill="#898D9A"/>
<path d="M42.407 38.1342C43.7195 38.1342 44.3111 37.3537 44.5945 36.7969H44.7038V38H46.4737V27.8182H44.669V31.6264H44.5945C44.321 31.0746 43.7592 30.2642 42.4119 30.2642C40.647 30.2642 39.2599 31.6463 39.2599 34.1918C39.2599 36.7074 40.6072 38.1342 42.407 38.1342ZM42.9091 36.6577C41.7209 36.6577 41.0945 35.6136 41.0945 34.1818C41.0945 32.7599 41.7109 31.7408 42.9091 31.7408C44.0675 31.7408 44.7038 32.7003 44.7038 34.1818C44.7038 35.6634 44.0575 36.6577 42.9091 36.6577Z" fill="#898D9A"/>
<path d="M51.7225 38.1491C53.9597 38.1491 55.3816 36.5732 55.3816 34.2116C55.3816 31.8452 53.9597 30.2642 51.7225 30.2642C49.4853 30.2642 48.0634 31.8452 48.0634 34.2116C48.0634 36.5732 49.4853 38.1491 51.7225 38.1491ZM51.7324 36.7074C50.4945 36.7074 49.888 35.6037 49.888 34.2067C49.888 32.8097 50.4945 31.6911 51.7324 31.6911C52.9505 31.6911 53.557 32.8097 53.557 34.2067C53.557 35.6037 52.9505 36.7074 51.7324 36.7074Z" fill="#898D9A"/>
<path d="M58.28 38H60.1593L61.5911 32.8395H61.6955L63.1273 38H65.0016L67.1642 30.3636H65.3248L64.0023 35.7031H63.9277L62.5556 30.3636H60.7409L59.3688 35.733H59.2992L57.9569 30.3636H56.1223L58.28 38Z" fill="#898D9A"/>
<path d="M70.2205 33.5256C70.2205 32.4219 70.8867 31.7855 71.8363 31.7855C72.766 31.7855 73.3228 32.397 73.3228 33.4162V38H75.1225V33.1378C75.1275 31.3082 74.0834 30.2642 72.5075 30.2642C71.364 30.2642 70.5785 30.8111 70.2305 31.6612H70.141V30.3636H68.4208V38H70.2205V33.5256Z" fill="#898D9A"/>
</svg>
