<svg width="100" height="53" viewBox="0 0 100 53" fill="none" xmlns="http://www.w3.org/2000/svg">
<path fill-rule="evenodd" clip-rule="evenodd" d="M96 17H4C2.89543 17 2 17.8954 2 19V49C2 50.1046 2.89543 51 4 51H96C97.1046 51 98 50.1046 98 49V19C98 17.8954 97.1046 17 96 17ZM4 15C1.79086 15 0 16.7909 0 19V49C0 51.2091 1.79086 53 4 53H96C98.2091 53 100 51.2091 100 49V19C100 16.7909 98.2091 15 96 15H4Z" fill="#D1D4DB"/>
<rect x="8.24716" y="21.2405" width="58" height="4" rx="2" fill="#D1D4DB"/>
<rect x="8.24716" y="29.2405" width="80" height="16" rx="2" fill="#D1D4DB"/>
<path d="M35.0043 11H36.8487V6.67471H41.0795V5.12855H36.8487V2.36434H41.527V0.818176H35.0043V11Z" fill="#898D9A"/>
<path d="M45.948 11.1491C47.7278 11.1491 48.9508 10.2791 49.269 8.9517L47.5886 8.76278C47.345 9.40909 46.7484 9.74715 45.9728 9.74715C44.8095 9.74715 44.0389 8.98153 44.024 7.674H49.3436V7.12215C49.3436 4.44247 47.7328 3.2642 45.8535 3.2642C43.666 3.2642 42.2392 4.87002 42.2392 7.22656C42.2392 9.62286 43.6461 11.1491 45.948 11.1491ZM44.0289 6.46093C44.0836 5.4865 44.8045 4.66619 45.8784 4.66619C46.9125 4.66619 47.6085 5.42187 47.6184 6.46093H44.0289Z" fill="#898D9A"/>
<path d="M54.2468 11.1491C56.0266 11.1491 57.2496 10.2791 57.5678 8.9517L55.8874 8.76278C55.6438 9.40909 55.0472 9.74715 54.2717 9.74715C53.1083 9.74715 52.3377 8.98153 52.3228 7.674H57.6424V7.12215C57.6424 4.44247 56.0316 3.2642 54.1523 3.2642C51.9648 3.2642 50.538 4.87002 50.538 7.22656C50.538 9.62286 51.945 11.1491 54.2468 11.1491ZM52.3278 6.46093C52.3825 5.4865 53.1033 4.66619 54.1772 4.66619C55.2113 4.66619 55.9073 5.42187 55.9173 6.46093H52.3278Z" fill="#898D9A"/>
<path d="M61.9988 11.1342C63.3113 11.1342 63.9029 10.3537 64.1863 9.79687H64.2956V11H66.0655V0.818176H64.2608V4.62642H64.1863C63.9128 4.07457 63.351 3.2642 62.0037 3.2642C60.2388 3.2642 58.8517 4.6463 58.8517 7.19176C58.8517 9.70738 60.199 11.1342 61.9988 11.1342ZM62.5009 9.65767C61.3127 9.65767 60.6863 8.61363 60.6863 7.18181C60.6863 5.75994 61.3027 4.74076 62.5009 4.74076C63.6593 4.74076 64.2956 5.70028 64.2956 7.18181C64.2956 8.66335 63.6493 9.65767 62.5009 9.65767Z" fill="#898D9A"/>
<path d="M68.0629 11H69.8327V9.79687H69.9371C70.2205 10.3537 70.8121 11.1342 72.1246 11.1342C73.9244 11.1342 75.2717 9.70738 75.2717 7.19176C75.2717 4.6463 73.8846 3.2642 72.1197 3.2642C70.7724 3.2642 70.2106 4.07457 69.9371 4.62642H69.8626V0.818176H68.0629V11ZM69.8278 7.18181C69.8278 5.70028 70.4641 4.74076 71.6225 4.74076C72.8207 4.74076 73.4371 5.75994 73.4371 7.18181C73.4371 8.61363 72.8107 9.65767 71.6225 9.65767C70.4741 9.65767 69.8278 8.66335 69.8278 7.18181Z" fill="#898D9A"/>
<path d="M78.9991 11.1541C80.1973 11.1541 80.9132 10.5923 81.2413 9.95099H81.301V11H83.0311V5.8892C83.0311 3.87073 81.3855 3.2642 79.9288 3.2642C78.323 3.2642 77.09 3.98011 76.6923 5.37215L78.3727 5.61079C78.5517 5.08877 79.0588 4.64133 79.9387 4.64133C80.774 4.64133 81.2314 5.06889 81.2314 5.8196V5.84943C81.2314 6.36647 80.6895 6.39133 79.3422 6.53551C77.8606 6.6946 76.4437 7.13707 76.4437 8.85724C76.4437 10.3587 77.5424 11.1541 78.9991 11.1541ZM79.4664 9.83167C78.7157 9.83167 78.1788 9.48863 78.1788 8.82741C78.1788 8.13636 78.7804 7.84801 79.5858 7.73366C80.0581 7.66903 81.0027 7.54971 81.2363 7.36079V8.26065C81.2363 9.11079 80.5503 9.83167 79.4664 9.83167Z" fill="#898D9A"/>
<path d="M88.1717 11.1491C90.0907 11.1491 91.3137 10.0106 91.443 8.38991H89.7228C89.5687 9.21022 88.9771 9.68252 88.1866 9.68252C87.063 9.68252 86.3372 8.74289 86.3372 7.18181C86.3372 5.64062 87.0779 4.7159 88.1866 4.7159C89.0517 4.7159 89.5836 5.27272 89.7228 6.00852H91.443C91.3187 4.35298 90.0261 3.2642 88.1618 3.2642C85.9245 3.2642 84.5126 4.87997 84.5126 7.21164C84.5126 9.52343 85.8897 11.1491 88.1717 11.1491Z" fill="#898D9A"/>
<path d="M92.9208 11H94.7205V8.43465L95.3768 7.73366L97.7134 11H99.8661L96.734 6.6598L99.6921 3.36363H97.5891L94.8448 6.4311H94.7205V0.818176H92.9208V11Z" fill="#898D9A"/>
</svg>
