<svg width="80" height="20" viewBox="0 0 80 20" fill="none" xmlns="http://www.w3.org/2000/svg">
<rect width="80" height="20" rx="2" fill="#D1D4DB"/>
<rect x="4" y="8" width="26" height="4" rx="2" fill="#898D9A"/>
<g opacity="0.5">
<path d="M47.4999 9H51.3999C51.6999 9 51.9999 9.3 51.9999 9.6V9.8L50.1999 14.7C49.8999 15.5 49.0989 16 48.2989 16H43.4999C43.1999 16 42.9999 15.8 42.9999 15.5V10L44.9999 6.8V4.8C44.9999 4.3 45.2989 4 45.6999 4C46.6999 4 47.4999 4.8 47.4999 5.8V9Z" fill="#898D9A"/>
<path d="M40.4999 10H41.4999C41.7989 10 41.9999 10.2 41.9999 10.5V15.5C41.9999 15.8 41.7989 16 41.4999 16H40.4999C40.1999 16 39.9999 15.8 39.9999 15.5V10.5C39.9999 10.2 40.1999 10 40.4999 10Z" fill="#898D9A"/>
</g>
<path d="M61.9999 9.5C61.9999 9.8 61.7989 10 61.4999 10H60.4999C60.1999 10 59.9999 9.8 59.9999 9.5V4.5C59.9999 4.2 60.1999 4 60.4999 4H61.4999C61.7989 4 61.9999 4.2 61.9999 4.5V9.5Z" fill="#898D9A"/>
<path d="M71.9999 10.4C71.9999 10.7 71.6999 11 71.3999 11H67.4999V14.2C67.4999 15.2 66.6999 16 65.6999 16C65.2989 16 64.9999 15.7 64.9999 15.2V13.2L62.9999 10V4.5C62.9999 4.2 63.1999 4 63.4999 4H68.2989C69.0989 4 69.8999 4.5 70.1999 5.3L71.9999 10.2V10.4Z" fill="#898D9A"/>
</svg>
