<svg width="88" height="50" viewBox="0 0 88 50" fill="none" xmlns="http://www.w3.org/2000/svg">
<path fill-rule="evenodd" clip-rule="evenodd" d="M84 38H4C2.89543 38 2 38.8954 2 40V46C2 47.1046 2.89543 48 4 48H84C85.1046 48 86 47.1046 86 46V40C86 38.8954 85.1046 38 84 38ZM4 36C1.79086 36 0 37.7909 0 40V46C0 48.2091 1.79086 50 4 50H84C86.2091 50 88 48.2091 88 46V40C88 37.7909 86.2091 36 84 36H4Z" fill="#D1D4DB"/>
<rect y="28" width="48" height="4" rx="2" fill="#D1D4DB"/>
<path fill-rule="evenodd" clip-rule="evenodd" d="M84 10H4C2.89543 10 2 10.8954 2 12V18C2 19.1046 2.89543 20 4 20H84C85.1046 20 86 19.1046 86 18V12C86 10.8954 85.1046 10 84 10ZM4 8C1.79086 8 0 9.79086 0 12V18C0 20.2091 1.79086 22 4 22H84C86.2091 22 88 20.2091 88 18V12C88 9.79086 86.2091 8 84 8H4Z" fill="#D1D4DB"/>
<rect width="48" height="4" rx="2" fill="#D1D4DB"/>
</svg>
