<svg width="76" height="48" viewBox="0 0 76 48" fill="none" xmlns="http://www.w3.org/2000/svg">
<path d="M0 47C0 46.4477 0.447715 46 1 46H75C75.5523 46 76 46.4477 76 47C76 47.5523 75.5523 48 75 48H1C0.447716 48 0 47.5523 0 47Z" fill="#D1D4DB"/>
<path fill-rule="evenodd" clip-rule="evenodd" d="M28 18H21C18.7909 18 17 19.7909 17 22V42H32V22C32 19.7909 30.2091 18 28 18ZM30 40H19V22C19 20.8954 19.8954 20 21 20H28C29.1046 20 30 20.8954 30 22V40Z" fill="#D1D4DB"/>
<path d="M18.145 27.3218C17.8578 26.8344 18.0334 26.2091 18.5354 25.9475L28.8321 20.5808C29.3103 20.3316 29.9088 20.506 30.1824 20.9703C30.4696 21.4577 30.294 22.083 29.792 22.3446L19.4953 27.7113C19.0171 27.9605 18.4187 27.7861 18.145 27.3218Z" fill="#D1D4DB"/>
<path d="M17.5107 34.5411C17.2208 34.0492 17.4029 33.4186 17.913 33.1612L29.9949 27.064C30.4719 26.8233 31.0622 26.999 31.3333 27.4589C31.6231 27.9508 31.441 28.5814 30.9309 28.8388L18.849 34.936C18.372 35.1767 17.7818 35.001 17.5107 34.5411Z" fill="#D1D4DB"/>
<path d="M18.7866 39.8884C18.3114 40.1628 18.1557 40.7695 18.4343 41.2422C18.7165 41.7211 19.3417 41.8894 19.8229 41.6115L31.0781 35.1116C31.5533 34.8372 31.709 34.2306 31.4304 33.7578C31.1482 33.279 30.523 33.1106 30.0418 33.3885L18.7866 39.8884Z" fill="#D1D4DB"/>
<path d="M48 8H55C57.2091 8 59 9.79086 59 12V42H44V12C44 9.79086 45.7909 8 48 8Z" fill="#D1D4DB"/>
<path fill-rule="evenodd" clip-rule="evenodd" d="M42 0H34C31.7909 0 30 1.79086 30 4V42H46V4C46 1.79086 44.2091 0 42 0ZM44 40H32V4C32 2.89543 32.8954 2 34 2H42C43.1046 2 44 2.89543 44 4V40Z" fill="#D1D4DB"/>
</svg>
