<svg width="100" height="24" viewBox="0 0 100 24" fill="none" xmlns="http://www.w3.org/2000/svg">
<path d="M5.00427 18V7.81818H11.6264V9.36434H6.84873V12.1285H11.2834V13.6747H6.84873V16.4538H11.6662V18H5.00427Z" fill="#B5BAC4"/>
<path d="M16.2624 18.1342C15.6625 18.1342 15.1256 17.9801 14.6516 17.6719C14.1777 17.3636 13.8032 16.9162 13.5281 16.3295C13.253 15.7429 13.1154 15.0303 13.1154 14.1918C13.1154 13.3433 13.2546 12.6274 13.533 12.044C13.8148 11.4574 14.1943 11.0149 14.6715 10.7166C15.1488 10.415 15.6808 10.2642 16.2674 10.2642C16.7149 10.2642 17.0828 10.3404 17.3711 10.4929C17.6595 10.642 17.8882 10.8227 18.0572 11.0348C18.2262 11.2436 18.3571 11.4408 18.4499 11.6264H18.5245V7.81818H20.3292V18H18.5593V16.7969H18.4499C18.3571 16.9825 18.2229 17.1797 18.0472 17.3885C17.8716 17.594 17.6396 17.7696 17.3512 17.9155C17.0629 18.0613 16.6999 18.1342 16.2624 18.1342ZM16.7646 16.6577C17.1457 16.6577 17.4705 16.5549 17.739 16.3494C18.0075 16.1406 18.2113 15.8506 18.3505 15.4794C18.4897 15.1082 18.5593 14.6757 18.5593 14.1818C18.5593 13.688 18.4897 13.2588 18.3505 12.8942C18.2146 12.5296 18.0124 12.2462 17.744 12.044C17.4788 11.8419 17.1524 11.7408 16.7646 11.7408C16.3635 11.7408 16.0288 11.8452 15.7603 12.054C15.4918 12.2628 15.2897 12.5511 15.1538 12.919C15.0179 13.2869 14.9499 13.7079 14.9499 14.1818C14.9499 14.6591 15.0179 15.085 15.1538 15.4595C15.293 15.8307 15.4968 16.124 15.7653 16.3395C16.0371 16.5516 16.3702 16.6577 16.7646 16.6577Z" fill="#B5BAC4"/>
<path d="M22.247 18V10.3636H24.0467V18H22.247ZM23.1518 9.27982C22.8668 9.27982 22.6215 9.18536 22.416 8.99644C22.2105 8.80421 22.1078 8.57386 22.1078 8.30539C22.1078 8.03361 22.2105 7.80326 22.416 7.61434C22.6215 7.42211 22.8668 7.32599 23.1518 7.32599C23.4402 7.32599 23.6854 7.42211 23.8876 7.61434C24.0931 7.80326 24.1959 8.03361 24.1959 8.30539C24.1959 8.57386 24.0931 8.80421 23.8876 8.99644C23.6854 9.18536 23.4402 9.27982 23.1518 9.27982Z" fill="#B5BAC4"/>
<path d="M29.7106 10.3636V11.7557H25.3207V10.3636H29.7106ZM26.4045 8.53409H28.2042V15.7031C28.2042 15.9451 28.2407 16.1307 28.3136 16.2599C28.3898 16.3859 28.4892 16.4721 28.6119 16.5185C28.7345 16.5649 28.8704 16.5881 29.0195 16.5881C29.1322 16.5881 29.235 16.5798 29.3278 16.5632C29.4239 16.5466 29.4968 16.5317 29.5465 16.5185L29.8498 17.9254C29.7537 17.9586 29.6161 17.995 29.4372 18.0348C29.2615 18.0746 29.0461 18.0978 28.7908 18.1044C28.3401 18.1177 27.9341 18.0497 27.5728 17.9006C27.2115 17.7481 26.9248 17.5128 26.7127 17.1946C26.5039 16.8764 26.4012 16.4787 26.4045 16.0014V8.53409Z" fill="#B5BAC4"/>
<path d="M38.5016 10.3636V11.7557H34.1117V10.3636H38.5016ZM35.1955 8.53409H36.9952V15.7031C36.9952 15.9451 37.0317 16.1307 37.1046 16.2599C37.1808 16.3859 37.2803 16.4721 37.4029 16.5185C37.5255 16.5649 37.6614 16.5881 37.8106 16.5881C37.9232 16.5881 38.026 16.5798 38.1188 16.5632C38.2149 16.5466 38.2878 16.5317 38.3375 16.5185L38.6408 17.9254C38.5447 17.9586 38.4071 17.995 38.2282 18.0348C38.0525 18.0746 37.8371 18.0978 37.5819 18.1044C37.1311 18.1177 36.7251 18.0497 36.3638 17.9006C36.0026 17.7481 35.7159 17.5128 35.5037 17.1946C35.2949 16.8764 35.1922 16.4787 35.1955 16.0014V8.53409Z" fill="#B5BAC4"/>
<path d="M43.3054 18.1491C42.5398 18.1491 41.8786 17.9901 41.3217 17.6719C40.7682 17.3504 40.3423 16.8963 40.044 16.3097C39.7457 15.7197 39.5966 15.0253 39.5966 14.2266C39.5966 13.441 39.7457 12.7517 40.044 12.1584C40.3457 11.5618 40.7666 11.0978 41.3068 10.7663C41.8471 10.4316 42.4818 10.2642 43.2109 10.2642C43.6816 10.2642 44.1257 10.3404 44.5433 10.4929C44.9643 10.642 45.3355 10.874 45.657 11.1889C45.9818 11.5038 46.237 11.9048 46.4226 12.392C46.6082 12.8759 46.701 13.4526 46.701 14.1222V14.674H40.4418V13.4609H44.9759C44.9726 13.1162 44.898 12.8097 44.7521 12.5412C44.6063 12.2694 44.4025 12.0556 44.1406 11.8999C43.8821 11.7441 43.5805 11.6662 43.2358 11.6662C42.8679 11.6662 42.5448 11.7557 42.2663 11.9347C41.9879 12.1103 41.7708 12.3423 41.6151 12.6307C41.4626 12.9157 41.3847 13.2289 41.3814 13.5703V14.6293C41.3814 15.0734 41.4626 15.4545 41.625 15.7727C41.7874 16.0876 42.0145 16.3295 42.3061 16.4986C42.5978 16.6643 42.9392 16.7472 43.3303 16.7472C43.5921 16.7472 43.8291 16.7107 44.0412 16.6378C44.2533 16.5615 44.4373 16.4505 44.5931 16.3047C44.7488 16.1588 44.8665 15.9782 44.946 15.7628L46.6264 15.9517C46.5204 16.3958 46.3182 16.7836 46.0199 17.1151C45.7249 17.4432 45.3471 17.6984 44.8864 17.8807C44.4257 18.0597 43.8987 18.1491 43.3054 18.1491Z" fill="#B5BAC4"/>
<path d="M49.5311 10.3636L51.0723 13.1825L52.6383 10.3636H54.5424L52.2406 14.1818L54.5822 18H52.688L51.0723 15.2507L49.4714 18H47.5623L49.889 14.1818L47.622 10.3636H49.5311Z" fill="#B5BAC4"/>
<path d="M59.7477 10.3636V11.7557H55.3578V10.3636H59.7477ZM56.4416 8.53409H58.2413V15.7031C58.2413 15.9451 58.2778 16.1307 58.3507 16.2599C58.4269 16.3859 58.5264 16.4721 58.649 16.5185C58.7716 16.5649 58.9075 16.5881 59.0567 16.5881C59.1693 16.5881 59.2721 16.5798 59.3649 16.5632C59.461 16.5466 59.5339 16.5317 59.5836 16.5185L59.8869 17.9254C59.7908 17.9586 59.6532 17.995 59.4743 18.0348C59.2986 18.0746 59.0832 18.0978 58.828 18.1044C58.3772 18.1177 57.9712 18.0497 57.6099 17.9006C57.2487 17.7481 56.962 17.5128 56.7498 17.1946C56.541 16.8764 56.4383 16.4787 56.4416 16.0014V8.53409Z" fill="#B5BAC4"/>
<path fill-rule="evenodd" clip-rule="evenodd" d="M78.8072 5.36866C79.2988 4.87711 80.0957 4.87711 80.5873 5.36866L83.6313 8.41267C84.1229 8.90422 84.1229 9.70118 83.6313 10.1927L73.8242 20H69V15.1758L78.8072 5.36866ZM79.6973 7.32672L77.7191 9.30487L79.6951 11.2809L81.6733 9.30271L79.6973 7.32672ZM71.0139 16.01L76.3049 10.7191L78.2809 12.6951L72.99 17.9861H71.0139V16.01Z" fill="#898D9A"/>
<path d="M78 18C77.4477 18 77 18.4477 77 19C77 19.5523 77.4477 20 78 20H82C82.5523 20 83 19.5523 83 19C83 18.4477 82.5523 18 82 18H78Z" fill="#898D9A"/>
</svg>
