<svg width="76" height="32" viewBox="0 0 76 32" fill="none" xmlns="http://www.w3.org/2000/svg">
<path fill-rule="evenodd" clip-rule="evenodd" d="M72 10H4C2.89543 10 2 10.8954 2 12V28C2 29.1046 2.89543 30 4 30H72C73.1046 30 74 29.1046 74 28V12C74 10.8954 73.1046 10 72 10ZM4 8C1.79086 8 0 9.79086 0 12V28C0 30.2091 1.79086 32 4 32H72C74.2091 32 76 30.2091 76 28V12C76 9.79086 74.2091 8 72 8H4Z" fill="#D1D4DB"/>
<rect width="48" height="4" rx="2" fill="#D1D4DB"/>
<path fill-rule="evenodd" clip-rule="evenodd" d="M66.9714 22L64 24.8889L61.0286 22L60 23.1111L64 27L68 23.1111L66.9714 22Z" fill="#898D9A"/>
<path fill-rule="evenodd" clip-rule="evenodd" d="M61.0286 18L64 15.1111L66.9714 18L68 16.8889L64 13L60 16.8889L61.0286 18Z" fill="#898D9A"/>
</svg>
