<svg width="100" height="48" viewBox="0 0 100 48" fill="none" xmlns="http://www.w3.org/2000/svg">
<path fill-rule="evenodd" clip-rule="evenodd" d="M96 2H4C2.89543 2 2 2.89543 2 4V44C2 45.1046 2.89543 46 4 46H96C97.1046 46 98 45.1046 98 44V4C98 2.89543 97.1046 2 96 2ZM4 0C1.79086 0 0 1.79086 0 4V44C0 46.2091 1.79086 48 4 48H96C98.2091 48 100 46.2091 100 44V4C100 1.79086 98.2091 0 96 0H4Z" fill="#D1D4DB"/>
<rect x="8" y="10" width="32" height="12" rx="6" fill="#D1D4DB"/>
<rect x="44" y="10" width="20" height="12" rx="6" fill="#D1D4DB"/>
<rect x="68" y="10" width="23" height="12" rx="6" fill="#D1D4DB"/>
<rect x="8" y="26" width="44" height="12" rx="6" fill="#D1D4DB"/>
<path fill-rule="evenodd" clip-rule="evenodd" d="M36.1425 13L34.0002 15.1427L31.8571 13L31 13.8575L33.1431 15.9998L31 18.1429L31.8571 18.9996L34.0002 16.8569L36.1425 18.9996L37 18.1429L34.8569 15.9998L37 13.8575L36.1425 13Z" fill="#898D9A"/>
<path fill-rule="evenodd" clip-rule="evenodd" d="M48.1425 29L46.0002 31.1427L43.8571 29L43 29.8575L45.1431 31.9998L43 34.1429L43.8571 34.9996L46.0002 32.8569L48.1425 34.9996L49 34.1429L46.8569 31.9998L49 29.8575L48.1425 29Z" fill="#898D9A"/>
<path fill-rule="evenodd" clip-rule="evenodd" d="M60.1425 13L58.0002 15.1427L55.8571 13L55 13.8575L57.1431 15.9998L55 18.1429L55.8571 18.9996L58.0002 16.8569L60.1425 18.9996L61 18.1429L58.8569 15.9998L61 13.8575L60.1425 13Z" fill="#898D9A"/>
<path fill-rule="evenodd" clip-rule="evenodd" d="M87.1425 13L85.0002 15.1427L82.8571 13L82 13.8575L84.1431 15.9998L82 18.1429L82.8571 18.9996L85.0002 16.8569L87.1425 18.9996L88 18.1429L85.8569 15.9998L88 13.8575L87.1425 13Z" fill="#898D9A"/>
</svg>
