<svg width="76" height="32" viewBox="0 0 76 32" fill="none" xmlns="http://www.w3.org/2000/svg">
<path fill-rule="evenodd" clip-rule="evenodd" d="M72 10H4C2.89543 10 2 10.8954 2 12V28C2 29.1046 2.89543 30 4 30H72C73.1046 30 74 29.1046 74 28V12C74 10.8954 73.1046 10 72 10ZM4 8C1.79086 8 0 9.79086 0 12V28C0 30.2091 1.79086 32 4 32H72C74.2091 32 76 30.2091 76 28V12C76 9.79086 74.2091 8 72 8H4Z" fill="#D1D4DB"/>
<rect width="48" height="4" rx="2" fill="#D1D4DB"/>
<path fill-rule="evenodd" clip-rule="evenodd" d="M58.2929 22.2929C58.6834 21.9024 59.3166 21.9024 59.7071 22.2929L63 25.5858L66.2929 22.2929C66.6834 21.9024 67.3166 21.9024 67.7071 22.2929C68.0976 22.6834 68.0976 23.3166 67.7071 23.7071L63.7071 27.7071C63.3166 28.0976 62.6834 28.0976 62.2929 27.7071L58.2929 23.7071C57.9024 23.3166 57.9024 22.6834 58.2929 22.2929Z" fill="#898D9A"/>
<path fill-rule="evenodd" clip-rule="evenodd" d="M67.7071 18.7071C67.3166 19.0976 66.6834 19.0976 66.2929 18.7071L63 15.4142L59.7071 18.7071C59.3166 19.0976 58.6834 19.0976 58.2929 18.7071C57.9024 18.3166 57.9024 17.6834 58.2929 17.2929L62.2929 13.2929C62.6834 12.9024 63.3166 12.9024 63.7071 13.2929L67.7071 17.2929C68.0976 17.6834 68.0976 18.3166 67.7071 18.7071Z" fill="#898D9A"/>
</svg>
