<svg width="100" height="32" viewBox="0 0 100 32" fill="none" xmlns="http://www.w3.org/2000/svg">
<path fill-rule="evenodd" clip-rule="evenodd" d="M96 10H4C2.89543 10 2 10.8954 2 12V28C2 29.1046 2.89543 30 4 30H96C97.1046 30 98 29.1046 98 28V12C98 10.8954 97.1046 10 96 10ZM4 8C1.79086 8 0 9.79086 0 12V28C0 30.2091 1.79086 32 4 32H96C98.2091 32 100 30.2091 100 28V12C100 9.79086 98.2091 8 96 8H4Z" fill="#D1D4DB"/>
<path d="M9.92756 23.3693H11.4886V20.7095H14.1484V19.1484H11.4886V16.4886H9.92756V19.1484H7.26776V20.7095H9.92756V23.3693Z" fill="#898D9A"/>
<path d="M20.4661 14.8182H18.7111L16.1806 16.4439V18.1342L18.562 16.6129H18.6216V25H20.4661V14.8182Z" fill="#898D9A"/>
<path d="M26.9913 19.9091C26.9913 22.3899 27.6525 24.4531 28.9601 26.223H30.6554C29.6461 24.9105 28.8656 22.2656 28.8656 19.9091C28.8656 17.5476 29.6461 14.9027 30.6554 13.5902H28.9601C27.6525 15.3601 26.9913 17.4283 26.9913 19.9091Z" fill="#898D9A"/>
<path d="M37.6964 25H31.119V26.4368H37.6964V25Z" fill="#898D9A"/>
<path d="M47.7179 25H41.1404V26.4368H47.7179V25Z" fill="#898D9A"/>
<path d="M57.7393 25H51.1619V26.4368H57.7393V25Z" fill="#898D9A"/>
<path d="M61.8571 20.8487C61.8571 18.3679 61.1959 16.3047 59.8883 14.5348H58.193C59.2022 15.8473 59.9828 18.4922 59.9828 20.8487C59.9828 23.2102 59.2022 25.8551 58.193 27.1676H59.8883C61.1959 25.3977 61.8571 23.3295 61.8571 20.8487Z" fill="#898D9A"/>
<path d="M73.2706 25H66.6932V26.4368H73.2706V25Z" fill="#898D9A"/>
<path d="M83.2921 25H76.7147V26.4368H83.2921V25Z" fill="#898D9A"/>
<path d="M93.3136 25H86.7362V26.4368H93.3136V25Z" fill="#898D9A"/>
<rect width="48" height="4" rx="2" fill="#D1D4DB"/>
</svg>
