<svg width="84" height="16" viewBox="0 0 84 16" fill="none" xmlns="http://www.w3.org/2000/svg">
<path d="M2.25566 1.36365H0.147705V13H2.25566V1.36365Z" fill="#898D9A"/>
<path d="M6.19174 1.36365H4.55538V2.5341C4.55538 3.46024 4.19174 4.17047 3.77697 4.79547L4.73151 5.41478C5.56674 4.7216 6.19174 3.52842 6.19174 2.52274V1.36365Z" fill="#898D9A"/>
<path d="M7.52555 13H9.58236V7.69319C9.58236 6.61933 10.2983 5.89206 11.1846 5.89206C12.054 5.89206 12.6505 6.47728 12.6505 7.37501V13H14.6676V7.55683C14.6676 6.57387 15.2528 5.89206 16.2471 5.89206C17.0767 5.89206 17.7358 6.38069 17.7358 7.46024V13H19.7983V7.14206C19.7983 5.19319 18.6733 4.1591 17.071 4.1591C15.804 4.1591 14.838 4.7841 14.4517 5.75569H14.3608C14.0255 4.76706 13.179 4.1591 12.0028 4.1591C10.8324 4.1591 9.95737 4.76137 9.59373 5.75569H9.49146V4.27274H7.52555V13Z" fill="#898D9A"/>
<path d="M28.365 13.1761C29.7344 13.1761 30.5525 12.5341 30.9275 11.8011H30.9957V13H32.973V7.1591C32.973 4.85228 31.0923 4.1591 29.4275 4.1591C27.5923 4.1591 26.1832 4.97728 25.7287 6.56819L27.6491 6.84092C27.8537 6.24433 28.4332 5.73297 29.4389 5.73297C30.3934 5.73297 30.9162 6.2216 30.9162 7.07956V7.11365C30.9162 7.70456 30.2969 7.73297 28.7571 7.89774C27.0639 8.07956 25.4446 8.58524 25.4446 10.5511C25.4446 12.2671 26.7003 13.1761 28.365 13.1761ZM28.8991 11.6648C28.0412 11.6648 27.4275 11.2727 27.4275 10.5171C27.4275 9.72728 28.115 9.39774 29.0355 9.26706C29.5753 9.19319 30.6548 9.05683 30.9219 8.84092V9.86933C30.9219 10.8409 30.1378 11.6648 28.8991 11.6648Z" fill="#898D9A"/>
<path d="M39.1008 13H46.3338V11.233H41.2088V1.36365H39.1008V13Z" fill="#898D9A"/>
<path d="M48.0724 13H50.1292V4.27274H48.0724V13ZM49.1065 3.0341C49.7599 3.0341 50.294 2.5341 50.294 1.92047C50.294 1.30115 49.7599 0.801147 49.1065 0.801147C48.4474 0.801147 47.9133 1.30115 47.9133 1.92047C47.9133 2.5341 48.4474 3.0341 49.1065 3.0341Z" fill="#898D9A"/>
<path d="M54.3011 7.88638C54.3011 6.62501 55.0625 5.89774 56.1477 5.89774C57.2102 5.89774 57.8466 6.5966 57.8466 7.76138V13H59.9034V7.44319C59.9091 5.35228 58.7159 4.1591 56.9147 4.1591C55.6079 4.1591 54.7102 4.7841 54.3125 5.75569H54.2102V4.27274H52.2443V13H54.3011V7.88638Z" fill="#898D9A"/>
<path d="M61.9943 13H64.0511V10.0682L64.8011 9.26706L67.4716 13H69.9318L66.3522 8.03978L69.7329 4.27274H67.3295L64.1932 7.77842H64.0511V1.36365H61.9943V13Z" fill="#898D9A"/>
<path d="M76.3395 13.125C77.0099 13.125 77.5838 12.5682 77.5895 11.875C77.5838 11.1932 77.0099 10.6364 76.3395 10.6364C75.6463 10.6364 75.0838 11.1932 75.0895 11.875C75.0838 12.5682 75.6463 13.125 76.3395 13.125ZM76.3395 6.89206C77.0099 6.89206 77.5838 6.33524 77.5895 5.64206C77.5838 4.96024 77.0099 4.40342 76.3395 4.40342C75.6463 4.40342 75.0838 4.96024 75.0895 5.64206C75.0838 6.33524 75.6463 6.89206 76.3395 6.89206Z" fill="#898D9A"/>
<path d="M83.3835 8.25569C83.3835 5.42047 82.6278 3.06251 81.1335 1.03978H79.196C80.3494 2.53978 81.2415 5.56251 81.2415 8.25569C81.2415 10.9546 80.3494 13.9773 79.196 15.4773H81.1335C82.6278 13.4546 83.3835 11.0909 83.3835 8.25569Z" fill="#898D9A"/>
</svg>
