<svg width="68" height="56" viewBox="0 0 68 56" fill="none" xmlns="http://www.w3.org/2000/svg">
<path fill-rule="evenodd" clip-rule="evenodd" d="M64 2H4C2.89543 2 2 2.89543 2 4V52C2 53.1046 2.89543 54 4 54H64C65.1046 54 66 53.1046 66 52V4C66 2.89543 65.1046 2 64 2ZM4 0C1.79086 0 0 1.79086 0 4V52C0 54.2091 1.79086 56 4 56H64C66.2091 56 68 54.2091 68 52V4C68 1.79086 66.2091 0 64 0H4Z" fill="#D1D4DB"/>
<path d="M57.1937 5.19373C56.9354 5.45204 56.9354 5.87084 57.1937 6.12915L59.0646 8L57.1937 9.87085C56.9354 10.1292 56.9354 10.548 57.1937 10.8063C57.452 11.0646 57.8708 11.0646 58.1292 10.8063L60 8.93542L61.8708 10.8063C62.1292 11.0646 62.548 11.0646 62.8063 10.8063C63.0646 10.548 63.0646 10.1292 62.8063 9.87085L60.9354 8L62.8063 6.12915C63.0646 5.87085 63.0646 5.45204 62.8063 5.19373C62.548 4.93542 62.1292 4.93542 61.8708 5.19373L60 7.06458L58.1292 5.19373C57.8708 4.93542 57.452 4.93542 57.1937 5.19373Z" fill="#898D9A"/>
<rect x="8" y="19" width="27" height="4" rx="2" fill="#D1D4DB"/>
<rect x="8" y="5" width="40" height="6" rx="3" fill="#D1D4DB"/>
<rect x="8" y="27" width="47" height="16" rx="2" fill="#D1D4DB"/>
</svg>
