<svg width="64" height="20" viewBox="0 0 64 20" fill="none" xmlns="http://www.w3.org/2000/svg">
<rect width="64" height="20" rx="2" fill="#D1D4DB"/>
<path opacity="0.5" fill-rule="evenodd" clip-rule="evenodd" d="M59.1425 4L57.0002 6.1427L54.8571 4L54 4.85751L56.1431 6.99979L54 9.14292L54.8571 9.99957L57.0002 7.85687L59.1425 9.99957L60 9.14292L57.8569 6.99979L60 4.85751L59.1425 4Z" fill="#898D9A"/>
<rect opacity="0.5" x="17" y="5" width="28" height="4" rx="2" fill="#898D9A"/>
<rect opacity="0.5" x="17" y="11" width="23" height="4" rx="2" fill="#898D9A"/>
<path fill-rule="evenodd" clip-rule="evenodd" d="M13.4113 5.58923C13.0859 5.26382 12.5582 5.26384 12.2328 5.58928L8.38631 9.43644C7.99584 9.82698 7.36272 9.82705 6.97216 9.43662L5.76721 8.23207C5.44196 7.90693 4.91476 7.90688 4.58945 8.23196C4.26394 8.55724 4.26385 9.08484 4.58924 9.41023L6.97217 11.7932C7.36271 12.1837 7.99591 12.1837 8.38643 11.7931L13.4113 6.76757C13.7367 6.44216 13.7367 5.91462 13.4113 5.58923Z" fill="#898D9A"/>
</svg>
