<svg width="64" height="20" viewBox="0 0 64 20" fill="none" xmlns="http://www.w3.org/2000/svg">
<rect width="64" height="20" rx="2" fill="#D1D4DB"/>
<path d="M54.1937 4.19373C53.9354 4.45204 53.9354 4.87084 54.1937 5.12915L56.0646 7L54.1937 8.87085C53.9354 9.12915 53.9354 9.54796 54.1937 9.80627C54.452 10.0646 54.8708 10.0646 55.1292 9.80627L57 7.93542L58.8708 9.80627C59.1292 10.0646 59.548 10.0646 59.8063 9.80627C60.0646 9.54796 60.0646 9.12916 59.8063 8.87085L57.9354 7L59.8063 5.12915C60.0646 4.87085 60.0646 4.45204 59.8063 4.19373C59.548 3.93542 59.1292 3.93542 58.8708 4.19373L57 6.06458L55.1292 4.19373C54.8708 3.93542 54.452 3.93542 54.1937 4.19373Z" fill="#898D9A"/>
<rect opacity="0.5" x="17" y="5" width="28" height="4" rx="2" fill="#898D9A"/>
<rect opacity="0.5" x="17" y="11" width="23" height="4" rx="2" fill="#898D9A"/>
<path fill-rule="evenodd" clip-rule="evenodd" d="M14.7071 6.29289C15.0976 6.68342 15.0976 7.31658 14.7071 7.70711L8.71109 13.7072C8.32057 14.0977 7.6874 14.0977 7.29688 13.7072L4.29291 10.6994C3.90238 10.3089 3.90238 9.67574 4.29291 9.28522C4.68343 8.89469 5.3166 8.89469 5.70712 9.28522L8.00399 11.5859L13.2929 6.29289C13.6834 5.90237 14.3166 5.90237 14.7071 6.29289Z" fill="#898D9A"/>
</svg>
