<svg width="76" height="70" viewBox="0 0 76 70" fill="none" xmlns="http://www.w3.org/2000/svg">
<path d="M0 0.999998C0 0.447713 0.447715 0 1 0C1.55228 0 2 0.447715 2 1V69C2 69.5523 1.55228 70 1 70C0.447715 70 0 69.5523 0 69V0.999998Z" fill="#D1D4DB"/>
<path d="M0 69C0 68.4477 0.447715 68 1 68H75C75.5523 68 76 68.4477 76 69C76 69.5523 75.5523 70 75 70H1C0.447716 70 0 69.5523 0 69Z" fill="#D1D4DB"/>
<path d="M70 69C70 68.4477 70.4477 68 71 68H75C75.5523 68 76 68.4477 76 69C76 69.5523 75.5523 70 75 70H71C70.4477 70 70 69.5523 70 69Z" fill="#D1D4DB"/>
<path fill-rule="evenodd" clip-rule="evenodd" d="M23 23C23 26.3137 25.6863 29 29 29C32.3137 29 35 26.3137 35 23C35 19.6863 32.3137 17 29 17C25.6863 17 23 19.6863 23 23ZM33 23C33 25.2091 31.2091 27 29 27C26.7909 27 25 25.2091 25 23C25 20.7909 26.7909 19 29 19C31.2091 19 33 20.7909 33 23Z" fill="#D1D4DB"/>
<path fill-rule="evenodd" clip-rule="evenodd" d="M52 34C52 37.3137 54.6863 40 58 40C61.3137 40 64 37.3137 64 34C64 30.6863 61.3137 28 58 28C54.6863 28 52 30.6863 52 34ZM62 34C62 36.2091 60.2091 38 58 38C55.7909 38 54 36.2091 54 34C54 31.7909 55.7909 30 58 30C60.2091 30 62 31.7909 62 34Z" fill="#D1D4DB"/>
<path d="M58 19C54.6863 19 52 16.3137 52 13C52 9.68629 54.6863 7 58 7C61.3137 7 64 9.68629 64 13C64 16.3137 61.3137 19 58 19Z" fill="#D1D4DB"/>
<path d="M39 46C35.6863 46 33 43.3137 33 40C33 36.6863 35.6863 34 39 34C42.3137 34 45 36.6863 45 40C45 43.3137 42.3137 46 39 46Z" fill="#D1D4DB"/>
<path d="M22 56C18.6863 56 16 53.3137 16 50C16 46.6863 18.6863 44 22 44C25.3137 44 28 46.6863 28 50C28 53.3137 25.3137 56 22 56Z" fill="#D1D4DB"/>
</svg>
