<svg width="76" height="48" viewBox="0 0 76 48" fill="none" xmlns="http://www.w3.org/2000/svg">
<path d="M0 47C0 46.4477 0.447715 46 1 46H75C75.5523 46 76 46.4477 76 47C76 47.5523 75.5523 48 75 48H1C0.447716 48 0 47.5523 0 47Z" fill="#D1D4DB"/>
<rect opacity="0.8" x="51" y="29" width="14" height="13" fill="#898D9A"/>
<rect x="51" y="20" width="14" height="9" fill="#D1D4DB"/>
<path opacity="0.5" d="M51 13C51 11.8954 51.8954 11 53 11H63C64.1046 11 65 11.8954 65 13V20H51V13Z" fill="#D1D4DB"/>
<rect opacity="0.8" x="31" y="24" width="14" height="18" fill="#898D9A"/>
<rect x="31" y="12" width="14" height="12" fill="#D1D4DB"/>
<path opacity="0.5" d="M31 2C31 0.895431 31.8954 0 33 0H43C44.1046 0 45 0.895431 45 2V12H31V2Z" fill="#D1D4DB"/>
<rect opacity="0.8" x="11" y="35" width="14" height="7" fill="#898D9A"/>
<rect x="11" y="30" width="14" height="5" fill="#D1D4DB"/>
<path opacity="0.5" d="M11 27C11 25.8954 11.8954 25 13 25H23C24.1046 25 25 25.8954 25 27V30H11V27Z" fill="#D1D4DB"/>
</svg>
