<svg width="72" height="59" viewBox="0 0 72 59" fill="none" xmlns="http://www.w3.org/2000/svg">
<path opacity="0.3" d="M1.00018 42.0003C1.00018 42.0003 8.00018 25.8336 17.8002 25.8336C27.6002 25.8336 29.9335 27.5003 35.5335 27.5003C41.1335 27.5003 42.0668 14.7503 53.2668 14.7503C64.4669 14.7503 72.0002 1.00027 72.0002 1.00027V59.0003H1.00018V42.0003Z" fill="#D1D4DB"/>
<path d="M1.88209 41.4717C1.62171 41.9588 1.01579 42.1425 0.52874 41.8822C0.0416857 41.6218 -0.142071 41.0159 0.118307 40.5288C1.87672 37.2396 3.13256 34.9747 3.8928 33.7229C4.98905 31.9179 5.97172 30.4842 6.84639 29.4174C7.1934 28.9942 7.52508 28.6267 7.84278 28.3143C10.8646 25.3429 14.196 23.8336 17.8002 23.8336C21.9623 23.8336 23.9182 24.0547 26.9934 24.6875C29.9795 25.3019 31.7115 25.5003 35.5335 25.5003C38.7232 25.5003 40.1571 24.2961 42.4353 20.5889C42.4069 20.6352 42.8437 19.9225 42.9665 19.7241C45.8919 14.9955 48.5381 13.0003 54.0002 13.0003C61.5647 13.0003 66.8754 8.93914 70.0668 0.64129C70.2651 0.125818 70.8437 -0.131335 71.3592 0.0669239C71.8746 0.265183 72.1318 0.843776 71.9335 1.35925C68.4584 10.3947 62.4357 15.0003 54.0002 15.0003C49.3568 15.0003 47.265 16.5775 44.6673 20.7764C44.5471 20.9706 44.1128 21.6791 44.1393 21.6361C41.5336 25.876 39.5995 27.5003 35.5335 27.5003C31.5668 27.5003 29.7019 27.2867 26.681 26.6651C23.6413 26.0396 21.8187 25.8336 17.8002 25.8336C14.7493 25.8336 11.9098 27.1201 9.24503 29.7403C8.98145 29.9995 8.69699 30.3147 8.39297 30.6855C7.58564 31.6701 6.65353 33.0301 5.60223 34.7611C4.86644 35.9726 3.62406 38.2132 1.88209 41.4717Z" fill="#D1D4DB"/>
<path fill-rule="evenodd" clip-rule="evenodd" d="M31.0002 26.0003C31.0002 28.7617 33.2388 31.0003 36.0002 31.0003C38.7616 31.0003 41.0002 28.7617 41.0002 26.0003C41.0002 23.2388 38.7616 21.0003 36.0002 21.0003C33.2388 21.0003 31.0002 23.2388 31.0002 26.0003ZM39.0002 26.0003C39.0002 27.6571 37.657 29.0003 36.0002 29.0003C34.3433 29.0003 33.0002 27.6571 33.0002 26.0003C33.0002 24.3434 34.3433 23.0003 36.0002 23.0003C37.657 23.0003 39.0002 24.3434 39.0002 26.0003Z" fill="#D1D4DB"/>
<path fill-rule="evenodd" clip-rule="evenodd" d="M13.0002 25.0003C13.0002 27.7617 15.2388 30.0003 18.0002 30.0003C20.7616 30.0003 23.0002 27.7617 23.0002 25.0003C23.0002 22.2388 20.7616 20.0003 18.0002 20.0003C15.2388 20.0003 13.0002 22.2388 13.0002 25.0003ZM21.0002 25.0003C21.0002 26.6571 19.657 28.0003 18.0002 28.0003C16.3433 28.0003 15.0002 26.6571 15.0002 25.0003C15.0002 23.3434 16.3433 22.0003 18.0002 22.0003C19.657 22.0003 21.0002 23.3434 21.0002 25.0003Z" fill="#D1D4DB"/>
<path fill-rule="evenodd" clip-rule="evenodd" d="M49.0002 14.0003C49.0002 16.7617 51.2388 19.0003 54.0002 19.0003C56.7616 19.0003 59.0002 16.7617 59.0002 14.0003C59.0002 11.2388 56.7616 9.00027 54.0002 9.00027C51.2388 9.00027 49.0002 11.2388 49.0002 14.0003ZM57.0002 14.0003C57.0002 15.6571 55.657 17.0003 54.0002 17.0003C52.3433 17.0003 51.0002 15.6571 51.0002 14.0003C51.0002 12.3434 52.3433 11.0003 54.0002 11.0003C55.657 11.0003 57.0002 12.3434 57.0002 14.0003Z" fill="#D1D4DB"/>
<path d="M54.0002 17.0003C55.657 17.0003 57.0002 15.6571 57.0002 14.0003C57.0002 12.3434 55.657 11.0003 54.0002 11.0003C52.3433 11.0003 51.0002 12.3434 51.0002 14.0003C51.0002 15.6571 52.3433 17.0003 54.0002 17.0003Z" fill="white"/>
<path d="M36.0002 29.0003C37.657 29.0003 39.0002 27.6571 39.0002 26.0003C39.0002 24.3434 37.657 23.0003 36.0002 23.0003C34.3433 23.0003 33.0002 24.3434 33.0002 26.0003C33.0002 27.6571 34.3433 29.0003 36.0002 29.0003Z" fill="white"/>
<path d="M18.0002 28.0003C19.657 28.0003 21.0002 26.6571 21.0002 25.0003C21.0002 23.3434 19.657 22.0003 18.0002 22.0003C16.3433 22.0003 15.0002 23.3434 15.0002 25.0003C15.0002 26.6571 16.3433 28.0003 18.0002 28.0003Z" fill="white"/>
<path opacity="0.5" d="M1.00018 59.0003C1.00018 59.0003 8.00018 42.8336 17.8002 42.8336C27.6002 42.8336 29.9335 44.5003 35.5335 44.5003C41.1335 44.5003 42.0668 31.7503 53.2668 31.7503C64.4669 31.7503 72.0002 18.0003 72.0002 18.0003V59.0003H1.00018Z" fill="#D1D4DB"/>
<path d="M1.88209 58.4717C1.62171 58.9588 1.01579 59.1425 0.52874 58.8822C0.0416857 58.6218 -0.142071 58.0159 0.118307 57.5288C1.87672 54.2396 3.13256 51.9747 3.8928 50.7229C4.98905 48.9179 5.97172 47.4842 6.84639 46.4174C7.1934 45.9942 7.52508 45.6267 7.84278 45.3143C10.8646 42.3429 14.196 40.8336 17.8002 40.8336C21.9623 40.8336 23.9182 41.0547 26.9934 41.6875C29.9795 42.3019 31.7115 42.5003 35.5335 42.5003C38.7232 42.5003 40.1571 41.2961 42.4353 37.5889C42.4069 37.6352 42.8437 36.9225 42.9665 36.7241C45.8919 31.9955 48.5381 30.0003 54.0002 30.0003C61.5647 30.0003 66.8754 25.9391 70.0668 17.6413C70.2651 17.1258 70.8437 16.8687 71.3592 17.0669C71.8746 17.2652 72.1318 17.8438 71.9335 18.3592C68.4584 27.3947 62.4357 32.0003 54.0002 32.0003C49.3568 32.0003 47.265 33.5775 44.6673 37.7764C44.5471 37.9706 44.1128 38.6791 44.1393 38.6361C41.5336 42.876 39.5995 44.5003 35.5335 44.5003C31.5668 44.5003 29.7019 44.2867 26.681 43.6651C23.6413 43.0396 21.8187 42.8336 17.8002 42.8336C14.7493 42.8336 11.9098 44.1201 9.24503 46.7403C8.98145 46.9995 8.69699 47.3147 8.39297 47.6855C7.58564 48.6701 6.65353 50.0301 5.60223 51.7611C4.86644 52.9726 3.62406 55.2132 1.88209 58.4717Z" fill="#D1D4DB"/>
<path fill-rule="evenodd" clip-rule="evenodd" d="M31.0002 43.0003C31.0002 45.7617 33.2388 48.0003 36.0002 48.0003C38.7616 48.0003 41.0002 45.7617 41.0002 43.0003C41.0002 40.2388 38.7616 38.0003 36.0002 38.0003C33.2388 38.0003 31.0002 40.2388 31.0002 43.0003ZM39.0002 43.0003C39.0002 44.6571 37.657 46.0003 36.0002 46.0003C34.3433 46.0003 33.0002 44.6571 33.0002 43.0003C33.0002 41.3434 34.3433 40.0003 36.0002 40.0003C37.657 40.0003 39.0002 41.3434 39.0002 43.0003Z" fill="#D1D4DB"/>
<path fill-rule="evenodd" clip-rule="evenodd" d="M13.0002 42.0003C13.0002 44.7617 15.2388 47.0003 18.0002 47.0003C20.7616 47.0003 23.0002 44.7617 23.0002 42.0003C23.0002 39.2388 20.7616 37.0003 18.0002 37.0003C15.2388 37.0003 13.0002 39.2388 13.0002 42.0003ZM21.0002 42.0003C21.0002 43.6571 19.657 45.0003 18.0002 45.0003C16.3433 45.0003 15.0002 43.6571 15.0002 42.0003C15.0002 40.3434 16.3433 39.0003 18.0002 39.0003C19.657 39.0003 21.0002 40.3434 21.0002 42.0003Z" fill="#D1D4DB"/>
<path fill-rule="evenodd" clip-rule="evenodd" d="M49.0002 31.0003C49.0002 33.7617 51.2388 36.0003 54.0002 36.0003C56.7616 36.0003 59.0002 33.7617 59.0002 31.0003C59.0002 28.2388 56.7616 26.0003 54.0002 26.0003C51.2388 26.0003 49.0002 28.2388 49.0002 31.0003ZM57.0002 31.0003C57.0002 32.6571 55.657 34.0003 54.0002 34.0003C52.3433 34.0003 51.0002 32.6571 51.0002 31.0003C51.0002 29.3434 52.3433 28.0003 54.0002 28.0003C55.657 28.0003 57.0002 29.3434 57.0002 31.0003Z" fill="#D1D4DB"/>
<path d="M54.0002 34.0003C55.657 34.0003 57.0002 32.6571 57.0002 31.0003C57.0002 29.3434 55.657 28.0003 54.0002 28.0003C52.3433 28.0003 51.0002 29.3434 51.0002 31.0003C51.0002 32.6571 52.3433 34.0003 54.0002 34.0003Z" fill="white"/>
<path d="M36.0002 46.0003C37.657 46.0003 39.0002 44.6571 39.0002 43.0003C39.0002 41.3434 37.657 40.0003 36.0002 40.0003C34.3433 40.0003 33.0002 41.3434 33.0002 43.0003C33.0002 44.6571 34.3433 46.0003 36.0002 46.0003Z" fill="white"/>
<path d="M18.0002 45.0003C19.657 45.0003 21.0002 43.6571 21.0002 42.0003C21.0002 40.3434 19.657 39.0003 18.0002 39.0003C16.3433 39.0003 15.0002 40.3434 15.0002 42.0003C15.0002 43.6571 16.3433 45.0003 18.0002 45.0003Z" fill="white"/>
</svg>
