<svg width="84" height="24" viewBox="0 0 84 24" fill="none" xmlns="http://www.w3.org/2000/svg">
<rect width="84" height="24" rx="12" fill="#D1D4DB"/>
<path d="M8.84873 6.81818H7.00427V17H8.84873V6.81818Z" fill="#898D9A"/>
<path d="M12.2928 6.81818H10.861V7.84233C10.861 8.6527 10.5428 9.27415 10.1799 9.82102L11.0151 10.3629C11.7459 9.75639 12.2928 8.71236 12.2928 7.83238V6.81818Z" fill="#898D9A"/>
<path d="M13.4599 17H15.2596V12.3565C15.2596 11.4169 15.886 10.7805 16.6616 10.7805C17.4222 10.7805 17.9443 11.2926 17.9443 12.0781V17H19.7092V12.2372C19.7092 11.3771 20.2212 10.7805 21.0913 10.7805C21.8171 10.7805 22.3938 11.2081 22.3938 12.1527V17H24.1985V11.8743C24.1985 10.169 23.2141 9.2642 21.8122 9.2642C20.7035 9.2642 19.8583 9.81108 19.5203 10.6612H19.4407C19.1474 9.79616 18.4066 9.2642 17.3775 9.2642C16.3533 9.2642 15.5877 9.79119 15.2695 10.6612H15.1801V9.36363H13.4599V17Z" fill="#898D9A"/>
<path d="M31.6944 17.1541C32.8926 17.1541 33.6085 16.5923 33.9366 15.951H33.9963V17H35.7264V11.8892C35.7264 9.87074 34.0808 9.2642 32.6241 9.2642C31.0183 9.2642 29.7853 9.98011 29.3876 11.3722L31.068 11.6108C31.247 11.0888 31.7541 10.6413 32.6341 10.6413C33.4693 10.6413 33.9267 11.0689 33.9267 11.8196V11.8494C33.9267 12.3665 33.3848 12.3913 32.0375 12.5355C30.5559 12.6946 29.139 13.1371 29.139 14.8572C29.139 16.3587 30.2378 17.1541 31.6944 17.1541ZM32.1618 15.8317C31.4111 15.8317 30.8741 15.4886 30.8741 14.8274C30.8741 14.1364 31.4757 13.848 32.2811 13.7337C32.7534 13.669 33.698 13.5497 33.9317 13.3608V14.2607C33.9317 15.1108 33.2456 15.8317 32.1618 15.8317Z" fill="#898D9A"/>
<path d="M40.6408 8.36435H43.7878V17H45.6174V8.36435H48.7644V6.81818H40.6408V8.36435Z" fill="#898D9A"/>
<path d="M51.4093 17.1541C52.6074 17.1541 53.3233 16.5923 53.6515 15.951H53.7111V17H55.4412V11.8892C55.4412 9.87074 53.7956 9.2642 52.339 9.2642C50.7331 9.2642 49.5002 9.98011 49.1025 11.3722L50.7829 11.6108C50.9618 11.0888 51.4689 10.6413 52.3489 10.6413C53.1841 10.6413 53.6415 11.0689 53.6415 11.8196V11.8494C53.6415 12.3665 53.0996 12.3913 51.7523 12.5355C50.2708 12.6946 48.8539 13.1371 48.8539 14.8572C48.8539 16.3587 49.9526 17.1541 51.4093 17.1541ZM51.8766 15.8317C51.1259 15.8317 50.589 15.4886 50.589 14.8274C50.589 14.1364 51.1905 13.848 51.9959 13.7337C52.4682 13.669 53.4128 13.5497 53.6465 13.3608V14.2607C53.6465 15.1108 52.9604 15.8317 51.8766 15.8317Z" fill="#898D9A"/>
<path d="M60.5719 20.0227C62.6351 20.0227 64.1564 19.0781 64.1564 17.1243V9.36363H62.3816V10.6264H62.2822C62.0087 10.0746 61.437 9.2642 60.0897 9.2642C58.3248 9.2642 56.9377 10.6463 56.9377 13.157C56.9377 15.6477 58.3248 16.8906 60.0847 16.8906C61.3922 16.8906 62.0037 16.1896 62.2822 15.6278H62.3716V17.0746C62.3716 18.1982 61.6259 18.6605 60.6018 18.6605C59.5179 18.6605 59.0407 18.1484 58.8219 17.701L57.2012 18.0937C57.5293 19.1626 58.628 20.0227 60.5719 20.0227ZM60.5868 15.4787C59.3986 15.4787 58.7722 14.554 58.7722 13.147C58.7722 11.7599 59.3887 10.7408 60.5868 10.7408C61.7452 10.7408 62.3816 11.7003 62.3816 13.147C62.3816 14.6037 61.7353 15.4787 60.5868 15.4787Z" fill="#898D9A"/>
<path opacity="0.5" fill-rule="evenodd" clip-rule="evenodd" d="M76.8567 8L74.0003 10.8569L71.1428 8L70 9.14335L72.8575 11.9997L70 14.8572L71.1428 15.9994L74.0003 13.1425L76.8567 15.9994L78 14.8572L75.1425 11.9997L78 9.14335L76.8567 8Z" fill="#898D9A"/>
</svg>
