<svg width="76" height="70" viewBox="0 0 76 70" fill="none" xmlns="http://www.w3.org/2000/svg">
<path d="M0 0.999998C0 0.447713 0.447715 0 1 0C1.55228 0 2 0.447715 2 1V69C2 69.5523 1.55228 70 1 70C0.447715 70 0 69.5523 0 69L0 0.999998Z" fill="#D1D4DB"/>
<path d="M0 69C0 68.4477 0.447715 68 1 68H75C75.5523 68 76 68.4477 76 69C76 69.5523 75.5523 70 75 70H1C0.447716 70 0 69.5523 0 69Z" fill="#D1D4DB"/>
<path d="M70 69C70 68.4477 70.4477 68 71 68H75C75.5523 68 76 68.4477 76 69C76 69.5523 75.5523 70 75 70H71C70.4477 70 70 69.5523 70 69Z" fill="#D1D4DB"/>
<path fill-rule="evenodd" clip-rule="evenodd" d="M38 27C38 34.732 44.268 41 52 41C59.732 41 66 34.732 66 27C66 19.268 59.732 13 52 13C44.268 13 38 19.268 38 27ZM64 27C64 33.6274 58.6274 39 52 39C45.3726 39 40 33.6274 40 27C40 20.3726 45.3726 15 52 15C58.6274 15 64 20.3726 64 27Z" fill="#D1D4DB"/>
<circle cx="34.5" cy="40.5" r="16.5" fill="white"/>
<path fill-rule="evenodd" clip-rule="evenodd" d="M16 40C16 49.9411 24.0589 58 34 58C43.9411 58 52 49.9411 52 40C52 30.0589 43.9411 22 34 22C24.0589 22 16 30.0589 16 40ZM50 40C50 48.8366 42.8366 56 34 56C25.1634 56 18 48.8366 18 40C18 31.1634 25.1634 24 34 24C42.8366 24 50 31.1634 50 40Z" fill="#D1D4DB"/>
<path fill-rule="evenodd" clip-rule="evenodd" d="M38.7007 23C38.2507 24.373 37.9997 25.835 37.9997 27.358C37.9997 35.073 44.2417 41.328 51.9497 41.355C51.9677 41.023 51.9997 40.695 51.9997 40.358C51.9997 32.046 46.3587 25.07 38.7007 23ZM40.1317 25.597C45.6727 27.896 49.5107 33.159 49.9567 39.182C44.3117 38.207 39.9997 33.269 39.9997 27.358C39.9997 26.769 40.0437 26.181 40.1317 25.597Z" fill="#D1D4DB"/>
<path d="M40.1317 25.597C45.6727 27.896 49.5107 33.159 49.9567 39.182C44.3117 38.207 39.9997 33.269 39.9997 27.358C39.9997 26.769 40.0437 26.181 40.1317 25.597Z" fill="white"/>
<path d="M38.3799 30.0696C38.0889 29.5655 38.2899 28.9203 38.8157 28.6707L44.1602 26.134L45.1602 27.866L39.6705 30.4717C39.2013 30.6944 38.6396 30.5194 38.3799 30.0696Z" fill="#D1D4DB"/>
<path d="M41.225 34.5333C40.9415 34.0423 41.1229 33.4141 41.6244 33.1497L47.4436 30.0823C47.9186 29.832 48.5065 30.0017 48.775 30.4667C49.0585 30.9577 48.8771 31.5859 48.3756 31.8503L42.5563 34.9177C42.0814 35.168 41.4935 34.9983 41.225 34.5333Z" fill="#D1D4DB"/>
<path d="M45.4702 36.8754C45.0077 37.1583 44.855 37.7585 45.1261 38.2281C45.4071 38.7148 46.034 38.8743 46.5135 38.581L50.5297 36.1246C50.9923 35.8417 51.145 35.2415 50.8739 34.7719C50.5928 34.2852 49.966 34.1257 49.4865 34.419L45.4702 36.8754Z" fill="#D1D4DB"/>
</svg>
