<svg width="76" height="48" viewBox="0 0 76 48" fill="none" xmlns="http://www.w3.org/2000/svg">
<path d="M0 47C0 46.4477 0.447715 46 1 46H75C75.5523 46 76 46.4477 76 47C76 47.5523 75.5523 48 75 48H1C0.447716 48 0 47.5523 0 47Z" fill="#D1D4DB"/>
<path fill-rule="evenodd" clip-rule="evenodd" d="M21 18H15C12.7909 18 11 19.7909 11 22V42H25V22C25 19.7909 23.2091 18 21 18ZM23 40H13V22C13 20.8954 13.8954 20 15 20H21C22.1046 20 23 20.8954 23 22V40Z" fill="#D1D4DB"/>
<path d="M12.3579 27.0314C12.0748 26.5411 12.2551 25.9138 12.7553 25.6487L22.3087 20.5853C22.7839 20.3334 23.3732 20.5029 23.6422 20.9686C23.9252 21.4589 23.7449 22.0862 23.2447 22.3513L13.6913 27.4147C13.2161 27.6666 12.6268 27.4971 12.3579 27.0314Z" fill="#D1D4DB"/>
<path d="M11.2297 34.5415C10.9445 34.0475 11.1302 33.4153 11.6373 33.1541L23.4479 27.07C23.9217 26.8259 24.5038 26.9969 24.7703 27.4585C25.0555 27.9525 24.8698 28.5847 24.3627 28.8459L12.5522 34.93C12.0783 35.1741 11.4963 35.0031 11.2297 34.5415Z" fill="#D1D4DB"/>
<path d="M12.4925 39.8807C12.0198 40.1594 11.8599 40.7669 12.1343 41.2421C12.4122 41.7235 13.0293 41.8858 13.5081 41.6036L24.5076 35.1193C24.9803 34.8406 25.1402 34.2331 24.8658 33.7579C24.5879 33.2765 23.9708 33.1142 23.492 33.3964L12.4925 39.8807Z" fill="#D1D4DB"/>
<path fill-rule="evenodd" clip-rule="evenodd" d="M61 8H55C52.7909 8 51 9.79086 51 12V42H65V12C65 9.79086 63.2091 8 61 8ZM63 40H53V12C53 10.8954 53.8954 10 55 10H61C62.1046 10 63 10.8954 63 12V40Z" fill="#D1D4DB"/>
<path fill-rule="evenodd" clip-rule="evenodd" d="M41 0H35C32.7909 0 31 1.79086 31 4V42H45V4C45 1.79086 43.2091 0 41 0ZM43 40H33V4C33 2.89543 33.8954 2 35 2H41C42.1046 2 43 2.89543 43 4V40Z" fill="#D1D4DB"/>
<path d="M33 40H43V4C43 2.89543 42.1046 2 41 2H35C33.8954 2 33 2.89543 33 4V40Z" fill="#D1D4DB"/>
</svg>
