<svg width="24" height="24" viewBox="0 0 24 24" xmlns="http://www.w3.org/2000/svg"><path d="M22.56 11.048c-.031-.199-.061-.316-.061-.316s-.078.09-.206.26a7.402 7.402 0 0 0-.255-1.398 9.523 9.523 0 0 0-.645-1.658 6.907 6.907 0 0 0-.588-1.01 9.067 9.067 0 0 0-.247-.35c-.392-.64-.841-1.031-1.362-1.77a5.367 5.367 0 0 1-.681-1.847 7.456 7.456 0 0 0-.328 1.208c-.534-.539-.998-.922-1.279-1.183-1.384-1.292-1.223-1.963-1.223-1.963S13.1 3.907 14.22 6.912a5.775 5.775 0 0 0 1.925 2.567c1.083.894 2.25 1.597 2.865 3.394a5.76 5.76 0 0 0-2.161-2.28c.276.652.417 1.354.412 2.062a4.897 4.897 0 0 1-5.988 4.771 4.513 4.513 0 0 1-1.214-.412 4.939 4.939 0 0 1-1.454-1.344l-.007-.012.087.032c.202.07.409.125.619.165a3.87 3.87 0 0 0 2.463-.29c.774-.43 1.243-.748 1.623-.623h.007c.371.119.664-.242.399-.618a2.02 2.02 0 0 0-1.958-.765c-.775.113-1.485.664-2.5.13a2.181 2.181 0 0 1-.191-.112c-.069-.04.218.06.151.015a5.04 5.04 0 0 1-.638-.38c-.015-.013.153.047.138.035a2.462 2.462 0 0 1-.666-.673 1.197 1.197 0 0 1-.045-1.068.942.942 0 0 1 .412-.388c.132.064.213.113.213.113l-.092-.167c.011-.005.022 0 .033-.008.115.05.37.179.503.258.092.05.17.121.23.206 0 0 .047-.023.012-.119a.619.619 0 0 0-.237-.291h.01c.103.052.201.113.293.182a1.43 1.43 0 0 0 .117-.619.81.81 0 0 0-.047-.344c-.037-.068.02-.096.084-.024a.672.672 0 0 0-.054-.163v-.006s.037-.047.053-.064a.982.982 0 0 1 .149-.122 6.86 6.86 0 0 1 1.007-.513c.284-.125.52-.22.568-.247a1.58 1.58 0 0 0 .202-.155c.237-.2.397-.478.454-.783.006-.04.01-.082.011-.123v-.072c-.041-.155-.308-.27-1.702-.401a1.219 1.219 0 0 1-.997-.935v.006-.011a3.532 3.532 0 0 1 1.366-1.696c.035-.028-.144.008-.108-.022.119-.058.24-.11.365-.154.062-.026-.268-.152-.56-.121-.18.01-.356.05-.52.122.068-.059.274-.137.226-.137a3.345 3.345 0 0 0-1.06.4.212.212 0 0 1 .02-.096 1.65 1.65 0 0 0-.663.512.876.876 0 0 0 .007-.12c-.12.09-.228.192-.325.305l-.006.005a4.32 4.32 0 0 0-2.418-.206l-.007-.006h.008a2.023 2.023 0 0 1-.43-.482l-.01.003-.013-.015a3.843 3.843 0 0 1-.284-.498c0-.006-.006-.008-.01-.009-.016 0-.027.077-.041.057v-.004a2.962 2.962 0 0 1-.195-1.16l-.01.005c-.229.157-.4.382-.492.642a2.748 2.748 0 0 1-.096.198v-.024c.006-.048.027-.145.022-.138l-.013.02a1.192 1.192 0 0 0-.172.256 1.619 1.619 0 0 0-.104.262c-.004.015 0-.012 0-.044 0-.031.007-.088 0-.076l-.015.03a6.532 6.532 0 0 0-.55 2.086 2.078 2.078 0 0 0-.021.37v.011a4.557 4.557 0 0 0-.562.756 10.729 10.729 0 0 0-1.187 2.909c.178-.39.39-.763.636-1.115a10.312 10.312 0 0 0-.719 3.781 9.88 9.88 0 0 1 .31-1.12 9.492 9.492 0 0 0 .858 4.444 10.338 10.338 0 0 0 4.091 4.64 8.949 8.949 0 0 0 2.384 1.142l.34.12c-.036-.015-.069-.031-.105-.047 1.003.301 2.046.455 3.094.455 3.708 0 4.932-1.412 5.045-1.553.183-.165.332-.365.438-.588.072-.03.144-.061.217-.094l.046-.021.083-.04a7.775 7.775 0 0 0 1.565-.98 3.781 3.781 0 0 0 1.46-2.13 1.34 1.34 0 0 0 .02-.983 7.07 7.07 0 0 0 .117-.192 8.736 8.736 0 0 0 1.311-4.25v-.125a5.243 5.243 0 0 0-.083-.953Z"/></svg>