<svg xmlns="http://www.w3.org/2000/svg" xlink="http://www.w3.org/1999/xlink" width="22" height="22" viewBox="0 0 22 22"><path d="M18.958,5.4366 L18.968,5.4296 C17.164,3.2126 17.271,1.8126 17.271,1.8126 C16.831,2.1356 16.618,2.7276 16.519,3.3216 C16.504,3.3116 16.493,3.3016 16.479,3.2916 C16.479,3.2916 14.479,2.1046 14.25,-0.0004 C11.375,3.5626 13.094,6.9066 13.094,6.9066 C13.841,8.6766 17.224,9.7686 16.419,12.8316 C15.614,15.8936 12.604,16.9966 10.468,16.9966 C8.835,16.9966 7.502,15.7716 6.77,14.3126 C7.342,14.6766 7.981,14.9436 8.631,14.9436 C10.209,14.9436 10.545,14.1766 11.212,14.0276 C11.879,13.8786 12.192,14.0396 12.35,13.8266 C12.508,13.6136 12.318,13.3326 12.205,13.2276 C11.729,12.7906 11.186,12.5876 10.979,12.5766 C9.973,12.5246 9.875,12.9686 8.55,12.9686 C7.253,12.9686 6.223,11.3166 6.412,10.6666 C6.473,10.5216 6.546,10.3836 6.633,10.2556 C7.01,10.1606 7.455,10.1916 7.936,10.5416 C7.936,10.5416 8.158,9.8886 8.049,9.1986 L10.109,8.0826 L10.108,8.0766 C10.349,7.9546 10.518,7.7116 10.518,7.4236 C10.518,7.0176 10.187,6.6876 9.781,6.6876 L8.586,6.6876 C8.199,6.6876 7.884,6.5516 7.809,6.0496 C7.733,5.5486 8.105,4.7606 8.835,4.1826 C8.983,4.0656 8.996,4.0416 8.996,3.9416 C8.996,3.8266 8.908,3.7516 8.799,3.7326 C8.7,3.7196 8.603,3.7036 8.5,3.7036 C7.615,3.7036 6.842,4.1656 6.396,4.8606 C5.979,4.6376 5.508,4.4996 5,4.4996 C4.778,4.4996 4.564,4.5276 4.356,4.5736 C3.804,4.1936 3.424,3.5706 3.203,2.8976 C3.143,2.7116 2.896,2.6786 2.771,2.8296 C2.295,3.4036 2,4.2326 2,4.9996 C2,5.1126 2.021,5.2196 2.033,5.3296 C0.764,7.1136 0,9.3036 0,11.4996 C0,17.9526 5.85,23.0636 12.524,21.8096 C16.771,21.0116 20.16,17.5486 20.854,13.2846 C21.419,9.8146 20.777,7.4616 18.958,5.4366"/></svg>
