<svg xmlns="http://www.w3.org/2000/svg" xlink="http://www.w3.org/1999/xlink" width="16" height="16" viewBox="0 0 16 16"><path d="M12.1943,1.1973 C12.7023,2.2933 13.0003,3.5963 13.0003,5.0003 C13.0003,8.8663 11.1253,12.0003 8.0003,12.0003 C7.1513,12.0003 6.3913,11.5253 5.8493,10.7673 C5.9423,10.7733 6.0343,10.7793 6.1293,10.7793 C7.6193,10.7793 8.8433,9.3283 9.9793,9.3283 C9.9793,8.7503 9.8623,8.0493 8.8093,8.0493 C8.0273,8.0493 7.6943,9.0003 6.4133,9.0003 C5.1323,9.0003 4.1473,7.2803 5.1163,6.9603 C7.4943,6.1763 9.5333,3.8243 9.0003,3.2903 C8.4473,2.7383 7.7183,3.7223 7.0883,2.7233 C6.4573,1.7243 7.6023,0.0003 7.6023,0.0003 C6.1043,0.0003 5.0003,2.0003 5.0003,2.0003 L3.2383,2.0003 C2.3183,1.4873 2.0003,0.0003 2.0003,0.0003 C1.3403,0.8943 1.0003,1.7903 1.0003,2.5063 C1.0003,3.0353 1.1423,3.4643 1.2563,3.7243 C1.2533,3.7303 1.2543,3.7383 1.2513,3.7443 C0.4653,4.9763 0.0003,6.4293 0.0003,8.0003 C0.0003,12.4183 3.5813,16.0003 8.0003,16.0003 C12.4183,16.0003 16.0003,12.4183 16.0003,8.0003 C16.0003,5.1223 14.4753,2.6063 12.1943,1.1973"/></svg>
