<svg xmlns="http://www.w3.org/2000/svg" xlink="http://www.w3.org/1999/xlink" width="12" height="12" viewBox="0 0 12 12"><path d="M9.3437,1.0176 C9.6017,1.7636 9.7497,2.6056 9.7497,3.4996 C9.7497,6.5376 8.0717,8.9996 5.9997,8.9996 C5.2907,8.9996 4.6547,8.6426 4.1987,8.0746 C4.6567,8.1436 5.2497,8.1216 5.7717,7.7426 C6.7927,6.9976 7.4847,6.9966 7.4847,6.9966 C7.4847,6.5446 7.3297,6.0396 6.5527,6.0396 C5.7757,6.0396 6.0237,6.7996 4.8707,6.7996 C3.7177,6.7996 3.4407,5.7676 3.5387,5.5426 C3.7297,5.1056 4.0327,5.1786 4.8337,4.7896 C5.3037,4.5616 5.9947,4.0206 6.4197,3.4846 C6.7197,3.1056 6.8867,2.8546 6.7497,2.5916 C6.5057,2.1246 5.9177,2.9416 5.2777,1.9996 C4.9007,1.4466 5.1167,0.5176 5.4827,0.0236 C4.4897,0.1416 3.4997,0.9766 3.4997,1.9996 L2.5997,1.9996 C1.9827,1.5586 1.6957,0.8416 1.5777,-0.0004 C0.8437,0.5316 0.6947,1.0576 0.6947,1.6936 C0.6947,2.0876 0.7957,2.4536 0.9427,2.7936 C0.3497,3.7216 -0.0003,4.8176 -0.0003,5.9996 C-0.0003,9.3136 2.6867,11.9996 5.9997,11.9996 C9.3137,11.9996 11.9997,9.3136 11.9997,5.9996 C11.9997,3.9236 10.9457,2.0946 9.3437,1.0176"/></svg>
