<svg xmlns="http://www.w3.org/2000/svg" xlink="http://www.w3.org/1999/xlink" width="22" height="22" viewBox="0 0 22 22"><path d="M12.8164,11.9224 L18.8164,20.4214 C19.1354,20.8744 19.0274,21.4974 18.5764,21.8164 C18.4004,21.9394 18.1994,21.9994 18.0004,21.9994 C17.6864,21.9994 17.3774,21.8524 17.1824,21.5764 L11.9994,14.2334 L6.8164,21.5774 C6.4964,22.0274 5.8744,22.1344 5.4214,21.8174 C4.9704,21.4974 4.8634,20.8744 5.1814,20.4224 L11.1814,11.9224 C11.5564,11.3934 12.4414,11.3934 12.8164,11.9224 Z M10.9994,17.8534 L11.9994,16.4364 L12.9994,17.8534 L12.9994,20.9994 C12.9994,21.5524 12.5524,21.9994 11.9994,21.9994 C11.4464,21.9994 10.9994,21.5524 10.9994,20.9994 L10.9994,17.8534 Z M7.1704,12.6504 L5.3564,9.5084 C5.1904,9.2194 5.2884,8.8504 5.5764,8.6844 L13.4484,4.1404 C13.7364,3.9744 14.1054,4.0734 14.2724,4.3614 L16.0854,7.5044 C16.2524,7.7924 16.1534,8.1604 15.8654,8.3274 L7.9944,12.8714 C7.7054,13.0374 7.3374,12.9384 7.1704,12.6504 Z M21.9184,5.5204 C22.0844,5.8084 21.9864,6.1764 21.6974,6.3434 L19.4474,7.6424 C19.1594,7.8084 18.7914,7.7094 18.6244,7.4214 L15.6114,2.2024 C15.4454,1.9144 15.5434,1.5464 15.8324,1.3794 L18.0824,0.0804 C18.3704,-0.0856 18.7384,0.0134 18.9054,0.3014 L21.9184,5.5204 Z M5.2744,12.7654 C5.4404,13.0544 5.3404,13.4224 5.0524,13.5884 L1.8694,15.4264 C1.5814,15.5924 1.2124,15.4934 1.0464,15.2054 L0.0804,13.5334 C-0.0856,13.2454 0.0134,12.8764 0.3014,12.7104 L3.4844,10.8724 C3.7734,10.7064 4.1404,10.8054 4.3074,11.0934 L5.2744,12.7654 Z"/></svg>
