<svg xmlns="http://www.w3.org/2000/svg" xlink="http://www.w3.org/1999/xlink" width="16" height="16" viewBox="0 0 16 16"><path d="M8.5,8.668 L3.6,15.201 C3.435,15.422 3.48,15.735 3.701,15.901 C3.922,16.067 4.235,16.022 4.401,15.8 L8,11.001 L8,15.501 C8,15.777 8.224,16.001 8.5,16.001 C8.776,16.001 9,15.777 9,15.501 L9,11.001 L12.6,15.801 C12.699,15.932 12.849,16.001 13,16.001 C13.104,16.001 13.21,15.969 13.3,15.901 C13.521,15.735 13.566,15.422 13.401,15.201 L8.5,8.668 Z M10.631,1.396 L13.048,0 L15.999,5.112 L13.582,6.508 L10.631,1.396 Z M2.557,7.303 L9.941,3.04 L11.813,6.283 L4.429,10.546 L2.557,7.303 Z M0,9.384 L1.905,8.284 L3.255,10.622 L1.35,11.722 L0,9.384 Z"/></svg>
