<svg xmlns="http://www.w3.org/2000/svg" xlink="http://www.w3.org/1999/xlink" width="12" height="12" viewBox="0 0 12 12"><path d="M8.7529,4.8394 L3.7749,7.7134 L2.2699,5.1054 L7.2479,2.2324 L8.7529,4.8394 Z M9.8478,-0.0004 L11.9998,3.7276 L10.0898,4.8296 L7.9368,1.1026 L9.8478,-0.0004 Z M0,6.9998 L1.516,6.1238 L2.516,7.8568 L1,8.7318 L0,6.9998 Z M6.9004,7.2002 L9.9004,11.2002 C10.0654,11.4212 10.0204,11.7342 9.7994,11.9002 C9.7104,11.9672 9.6044,12.0002 9.5004,12.0002 C9.3484,12.0002 9.1984,11.9312 9.0994,11.8002 L6.5004,8.3332 L3.9004,11.8002 C3.7354,12.0222 3.4204,12.0652 3.2004,11.9002 C2.9794,11.7342 2.9344,11.4212 3.0994,11.2002 L6.0994,7.2002 C6.2894,6.9482 6.7114,6.9482 6.9004,7.2002 Z"/></svg>
