<svg xmlns="http://www.w3.org/2000/svg" xlink="http://www.w3.org/1999/xlink" width="22" height="22" viewBox="0 0 22 22"><path d="M5,15.3896 L5,8.9996 L16,8.9996 L16,15.3896 C16,16.2796 15.279,16.9996 14.39,16.9996 L14,16.9996 L14,19.9996 C14,20.5526 13.553,20.9996 13,20.9996 C12.447,20.9996 12,20.5526 12,19.9996 L12,16.9996 L9,16.9996 L9,19.9996 C9,20.5526 8.553,20.9996 8,20.9996 C7.447,20.9996 7,20.5526 7,19.9996 L7,16.9996 L6.609,16.9996 C5.721,16.9996 5,16.2796 5,15.3896 Z M18,8 C18.553,8 19,8.448 19,9 L19,14 C19,14.552 18.553,15 18,15 C17.447,15 17,14.552 17,14 L17,9 C17,8.448 17.447,8 18,8 Z M3,8 C3.553,8 4,8.448 4,9 L4,14 C4,14.552 3.553,15 3,15 C2.447,15 2,14.552 2,14 L2,9 C2,8.448 2.447,8 3,8 Z M13.767,3.083 C15.119,4.085 16,5.688 16,7.5 L16,8 L5,8 L5,7.5 C5,5.688 5.88,4.085 7.232,3.083 L6.053,0.723 C5.93,0.476 6.029,0.176 6.276,0.052 C6.525,-0.07 6.823,0.029 6.947,0.276 L8.09,2.562 C8.818,2.206 9.635,2 10.5,2 C11.365,2 12.181,2.206 12.909,2.562 L14.053,0.276 C14.176,0.029 14.475,-0.07 14.723,0.052 C14.971,0.176 15.07,0.476 14.947,0.723 L13.767,3.083 Z M12.5,6.25 C12.914,6.25 13.25,5.914 13.25,5.5 C13.25,5.086 12.914,4.75 12.5,4.75 C12.086,4.75 11.75,5.086 11.75,5.5 C11.75,5.914 12.086,6.25 12.5,6.25 Z M8.5,6.25 C8.914,6.25 9.25,5.914 9.25,5.5 C9.25,5.086 8.914,4.75 8.5,4.75 C8.086,4.75 7.75,5.086 7.75,5.5 C7.75,5.914 8.086,6.25 8.5,6.25 Z"/></svg>
