<svg xmlns="http://www.w3.org/2000/svg" xlink="http://www.w3.org/1999/xlink" width="16" height="16" viewBox="0 0 16 16"><path d="M2,5 C2.55,5 3,5.45 3,6 L3,10 C3,10.55 2.55,11 2,11 C1.45,11 1,10.55 1,10 L1,6 C1,5.45 1.45,5 2,5 Z M14,5 C14.55,5 15,5.45 15,6 L15,10 C15,10.55 14.55,11 14,11 C13.45,11 13,10.55 13,10 L13,6 C13,5.45 13.45,5 14,5 Z M4,12 L4,6 L12,6 L12,12 C12,12.55 11.55,13 11,13 L11,15 C11,15.55 10.55,16 10,16 C9.45,16 9,15.55 9,15 L9,13 L7,13 L7,15 C7,15.55 6.55,16 6,16 C5.45,16 5,15.55 5,15 L5,13 C4.45,13 4,12.55 4,12 Z M11.964,0.687 L11.191,2.619 C11.691,3.287 12,4.106 12,5.001 L4,5.001 C4,4.106 4.309,3.287 4.809,2.619 L4.036,0.687 C3.934,0.43 4.058,0.139 4.314,0.037 C4.372,0.013 4.433,0 4.491,0 C4.693,0 4.885,0.117 4.964,0.315 L5.576,1.845 C6.251,1.324 7.086,1.001 8,1.001 C8.914,1.001 9.749,1.324 10.424,1.845 L11.036,0.315 C11.114,0.121 11.291,0 11.497,0 C11.56,0 11.624,0.011 11.686,0.037 C11.942,0.139 12.066,0.43 11.964,0.687 Z M9.5,4.001 C9.776,4.001 10,3.777 10,3.501 C10,3.225 9.776,3.001 9.5,3.001 C9.224,3.001 9,3.225 9,3.501 C9,3.777 9.224,4.001 9.5,4.001 Z M6.5,4.001 C6.776,4.001 7,3.777 7,3.501 C7,3.225 6.776,3.001 6.5,3.001 C6.224,3.001 6,3.225 6,3.501 C6,3.777 6.224,4.001 6.5,4.001 Z"/></svg>
