<svg xmlns="http://www.w3.org/2000/svg" xlink="http://www.w3.org/1999/xlink" width="12" height="12" viewBox="0 0 12 12"><path d="M1,10.99998 L11,10.99998 L11,8.99998 L1,8.99998 L1,10.99998 Z M10.9,1.79998 C11,1.69998 11,1.59998 11,1.49998 C11,1.19998 10.8,0.99998 10.5,0.99998 C10.3,0.99998 10.2,1.09998 10.1,1.19998 L8.9,2.89998 C8.1,2.39998 7.1,1.99998 6,1.99998 C4.9,1.99998 3.9,2.39998 3.1,2.99998 L1.9,1.29998 C1.8,1.09998 1.7,0.99998 1.5,0.99998 C1.2,0.99998 1,1.19998 1,1.49998 C1,1.59998 1,1.69998 1.1,1.79998 L2.3,3.69998 C1.5,4.49998 1,5.69998 1,6.99998 L1,7.99998 L11,7.99998 L11,6.99998 C11,5.69998 10.5,4.49998 9.7,3.59998 L10.9,1.79998 Z M8.5,5.99998 C8.2,5.99998 8,5.79998 8,5.49998 C8,5.19998 8.2,4.99998 8.5,4.99998 C8.8,4.99998 9,5.19998 9,5.49998 C9,5.79998 8.8,5.99998 8.5,5.99998 L8.5,5.99998 Z M3.5,5.99998 C3.2,5.99998 3,5.79998 3,5.49998 C3,5.19998 3.2,4.99998 3.5,4.99998 C3.8,4.99998 4,5.19998 4,5.49998 C4,5.79998 3.8,5.99998 3.5,5.99998 L3.5,5.99998 Z"/></svg>
