<svg xmlns="http://www.w3.org/2000/svg" xlink="http://www.w3.org/1999/xlink" width="22" height="22" viewBox="0 0 22 22"><path d="M11,0 C13.9173814,1.78638089e-16 16.7152744,1.15892524 18.7781745,3.22182541 C20.8410748,5.28472557 22,8.08261861 22,11 C22,17.0751323 17.0751323,22 11,22 C4.92486775,22 -7.43989126e-16,17.0751323 0,11 C7.43989126e-16,4.92486775 4.92486775,-3.71994562e-16 11,0 Z M11,19.6944 C15.8017845,19.6944 19.6944,15.8017845 19.6944,11 C19.6944,6.19821547 15.8017845,2.3056 11,2.3056 C6.19821547,2.3056 2.3056,6.19821547 2.3056,11 C2.3056,15.8017845 6.19821547,19.6944 11,19.6944 Z M12.0516,4 C14.8761342,4.48446651 17.1513818,6.58515741 17.8592928,9.36212764 C18.567204,12.1390978 17.5752984,15.0726583 15.3274,16.8502 C16.8955552,14.8604954 17.3131145,12.1972483 16.4291515,9.82308642 C15.5451886,7.44892453 13.4875625,5.70725412 11,5.2276 C11.3175909,4.79129199 11.6692225,4.38080983 12.0516,4 Z"/></svg>
