<svg width="22" height="22" viewBox="0 0 22 22" xmlns="http://www.w3.org/2000/svg">
  <path d="M18.97 10.92c0 .4-.21.47-.73.47-.55 0-.64-.1-.7-.5-.11-1.06-.83-1.96-2.02-2.06-.39-.03-.48-.17-.48-.65 0-.44.07-.65.41-.65a3.47 3.47 0 013.52 3.39zm3.03 0c0-3.17-2.14-6.52-7.1-6.52H5.06c-.2 0-.32.1-.32.28 0 .1.07.2.14.24.36.29.89.6 1.59.95.68.34 1.21.57 1.74.78.23.1.3.2.3.32 0 .17-.12.28-.36.28H.35c-.24 0-.35.15-.35.3 0 .12.04.23.15.34.63.67 1.65 1.46 3.12 2.39 1.28.8 2.88 1.68 4.15 2.28.22.1.28.22.28.34 0 .14-.11.26-.36.26H3.76c-.2 0-.32.1-.32.27 0 .1.08.21.18.3.81.74 2.11 1.55 3.85 2.29 2.32.99 4.67 1.58 7.32 1.58 5 0 7.21-3.76 7.21-6.68zm-6.55 4.68a4.71 4.71 0 01-4.7-4.7 4.68 4.68 0 014.7-4.61 4.65 4.65 0 110 9.3z"/>
</svg>
