<svg xmlns="http://www.w3.org/2000/svg" xlink="http://www.w3.org/1999/xlink" width="16" height="16" viewBox="0 0 16 16"><path d="M8,0 C10.1217319,1.2991861e-16 12.1565632,0.842854723 13.6568542,2.34314575 C15.1571453,3.84343678 16,5.87826808 16,8 C16,12.418278 12.418278,16 8,16 C3.581722,16 -5.41083001e-16,12.418278 0,8 C5.41083001e-16,3.581722 3.581722,-2.705415e-16 8,0 Z M8,14.3232 C11.4922069,14.3232 14.3232,11.4922069 14.3232,8 C14.3232,4.50779307 11.4922069,1.6768 8,1.6768 C4.50779307,1.6768 1.6768,4.50779307 1.6768,8 C1.6768,11.4922069 4.50779307,14.3232 8,14.3232 Z M8.7648,3 C10.8190067,3.35233928 12.4737322,4.88011448 12.9885766,6.89972919 C13.5034211,8.91934389 12.7820352,11.0528424 11.1472,12.3456 C12.2876765,10.8985421 12.591356,8.96163513 11.9484738,7.23497194 C11.3055917,5.50830875 9.80913635,4.24163936 8,3.8928 C8.23097518,3.57548508 8.4867073,3.2769526 8.7648,3 Z"/></svg>
