<svg width="16" height="16" viewBox="0 0 16 16" xmlns="http://www.w3.org/2000/svg">
  <path d="M13.8 7.94c0 .3-.16.34-.53.34-.4 0-.47-.06-.52-.37-.07-.76-.6-1.42-1.46-1.49-.28-.02-.35-.13-.35-.47 0-.32.05-.47.3-.47a2.52 2.52 0 012.55 2.46zm2.2 0c0-2.3-1.56-4.74-5.16-4.74H3.68c-.14 0-.23.07-.23.2 0 .08.05.14.1.18.26.2.64.44 1.15.69.5.25.89.41 1.27.57.17.06.23.14.23.23 0 .12-.1.2-.27.2H.25c-.17 0-.25.11-.25.22 0 .1.03.17.1.25.47.48 1.2 1.06 2.28 1.73.93.59 2.1 1.22 3.02 1.67.15.07.2.15.2.24 0 .1-.08.2-.26.2h-2.6c-.15 0-.24.07-.24.19 0 .07.06.15.13.22.6.54 1.54 1.12 2.8 1.66 1.7.72 3.4 1.15 5.32 1.15 3.65 0 5.25-2.73 5.25-4.86zm-4.76 3.4a3.43 3.43 0 01-3.42-3.4 3.4 3.4 0 013.42-3.37 3.38 3.38 0 110 6.77z"/>
</svg>
