<svg width="12" height="12" viewBox="0 0 12 12" xmlns="http://www.w3.org/2000/svg">
  <path d="M10.35 6.22c0 .22-.12.26-.4.26-.3 0-.35-.05-.38-.28-.06-.57-.45-1.06-1.1-1.12-.21-.02-.26-.1-.26-.35 0-.24.03-.35.22-.35a1.9 1.9 0 011.92 1.84zm1.65 0c0-1.73-1.17-3.55-3.87-3.55H2.76c-.1 0-.18.05-.18.15 0 .06.04.1.08.13.2.16.49.33.87.52.37.18.66.3.95.43.12.05.17.1.17.17 0 .1-.07.15-.2.15H.19c-.13 0-.19.08-.19.16 0 .07.02.13.08.2.35.35.9.79 1.7 1.3.7.43 1.57.9 2.27 1.24.12.05.15.12.15.18 0 .08-.06.14-.2.14H2.05c-.11 0-.17.06-.17.15 0 .05.04.12.1.17.44.4 1.15.84 2.1 1.24 1.26.54 2.54.87 3.98.87C10.8 9.87 12 7.82 12 6.22zM8.43 8.77a2.57 2.57 0 01-2.57-2.55c0-1.4 1.17-2.52 2.57-2.52a2.54 2.54 0 110 5.08z"/>
</svg>
