<svg xmlns="http://www.w3.org/2000/svg" xlink="http://www.w3.org/1999/xlink" width="12" height="12" viewBox="0 0 12 12"><path d="M6,0 C7.591,0 9.117,0.632 10.243,1.757 C11.368,2.883 12,4.409 12,6 C12,9.314 9.314,12 6,12 C2.686,12 0,9.314 0,6 C0,2.686 2.686,0 6,0 Z M6,10.742 C8.619,10.742 10.742,8.619 10.742,6 C10.742,3.381 8.619,1.258 6,1.258 C3.381,1.258 1.258,3.381 1.258,6 C1.258,8.619 3.381,10.742 6,10.742 Z M5.89447021,2.46828272 C7.69769287,2.61669922 8.92322149,3.79461383 9.37809538,4.89471843 C9.83296926,5.99482304 9.44493978,8.1438793 8.1694283,9.16233712 C8.609305,8.14772115 8.66803849,6.98505637 8.23922378,5.88908296 C7.70210513,4.5112783 6.46272818,3.64762313 5.10986897,3.29737575 L5.89447021,2.46828272 Z"/></svg>
