<svg xmlns="http://www.w3.org/2000/svg" width="24" height="24" viewBox="0 0 24 24">
  <path d="M11.341 5.203c.378-.323.94-.323 1.318 0l6.682 5.732a1.014 1.014 0 0 0 1.412-.092.967.967 0 0 0-.095-1.383l-6.683-5.732a3.046 3.046 0 0 0-3.95 0L3.341 9.46a.967.967 0 0 0-.095 1.383c.364.407.996.449 1.412.092l6.683-5.732Z"/>
  <path d="M5.35 12.845a.972.972 0 0 0-.35.744v5.43A.99.99 0 0 0 6 20h3a.99.99 0 0 0 1-.98v-2.941a.99.99 0 0 1 1-.98h2a.99.99 0 0 1 1 .98v2.94A.99.99 0 0 0 15 20h3a.99.99 0 0 0 1-.98v-5.43a.973.973 0 0 0-.35-.745l-6-5.041a1.015 1.015 0 0 0-1.3 0l-6 5.04Z"/>
</svg>
