<svg width="20" height="20" viewBox="0 0 20 20" fill="none" xmlns="http://www.w3.org/2000/svg">
<path fill-rule="evenodd" clip-rule="evenodd" d="M0 17.7V7.24049C0 6.49138 0.381174 5.79376 1.01158 5.3891L8.9133 0.316917C9.57081 -0.105144 10.4139 -0.105678 11.0719 0.315552L18.9861 5.38159C19.6178 5.78598 20 6.48439 20 7.23448V17.7C20 18.9703 18.9703 20 17.7 20H2.3C1.02974 20 0 18.9703 0 17.7ZM2.21924 7.26457C1.92724 7.55857 1.92724 8.03357 2.22124 8.32557L6.42824 12.5176L2.22124 16.7106C1.92724 17.0026 1.92724 17.4776 2.21924 17.7706C2.51124 18.0646 2.98624 18.0656 3.28024 17.7726L10.0272 11.0506L16.7212 17.7206C17.0142 18.0136 17.4892 18.0116 17.7822 17.7186C18.0742 17.4246 18.0742 16.9506 17.7802 16.6576L13.5732 12.4656L17.7802 8.27257C18.0742 7.98057 18.0742 7.50557 17.7822 7.21257C17.6352 7.06557 17.4432 6.99157 17.2502 6.99157C17.0592 6.99157 16.8672 7.06457 16.7212 7.21057L12.5102 11.4066L10.0272 8.93257L7.49124 11.4596L3.28024 7.26357C2.98624 6.97057 2.51124 6.97157 2.21924 7.26457Z" fill="#333333"/>
</svg>
