<svg width="16" height="16" viewBox="0 0 16 16" fill="none" xmlns="http://www.w3.org/2000/svg">
<path fill-rule="evenodd" clip-rule="evenodd" d="M-0.000488281 14.001V5.91269C-0.000488281 5.22763 0.350141 4.59023 0.928747 4.22346L7.24336 0.22075C7.70059 -0.0690796 8.28394 -0.0693286 8.74142 0.22011L15.0693 4.22367C15.6488 4.59026 16 5.22813 16 5.9138V14.001C16 15.1055 15.1046 16.001 14 16.001H1.99951C0.894942 16.001 -0.000488281 15.1055 -0.000488281 14.001ZM1.49951 6.00097C1.49951 6.12897 1.54751 6.25697 1.64551 6.35497L5.29151 10.001L1.64551 13.648C1.54751 13.746 1.49951 13.874 1.49951 14.001C1.49951 14.129 1.54751 14.257 1.64551 14.355C1.74351 14.453 1.87251 14.501 2.00051 14.501C2.12751 14.501 2.25551 14.453 2.35251 14.355L7.99951 8.70897L13.6455 14.355C13.7435 14.453 13.8715 14.501 13.9995 14.501C14.1265 14.501 14.2545 14.453 14.3525 14.355C14.4505 14.257 14.4995 14.129 14.4995 14.001C14.4995 13.874 14.4505 13.746 14.3525 13.648L10.7065 10.001L14.3525 6.35497C14.4495 6.25697 14.4985 6.12997 14.4995 6.00297C14.4995 5.87497 14.4505 5.74597 14.3525 5.64797C14.2545 5.54997 14.1265 5.50097 13.9995 5.50097C13.8715 5.50097 13.7435 5.54997 13.6455 5.64797L9.99951 9.29397L7.99951 7.29397L5.99951 9.29397L2.35251 5.64797C2.25451 5.54997 2.12651 5.50097 1.99951 5.50097C1.87151 5.50097 1.74351 5.54997 1.64551 5.64797C1.54751 5.74597 1.49951 5.87397 1.49951 6.00097Z" fill="#333333"/>
</svg>
