<svg width="12" height="12" viewBox="0 0 12 12" fill="none" xmlns="http://www.w3.org/2000/svg">
<path fill-rule="evenodd" clip-rule="evenodd" d="M0 10.5V4.48062C0 3.9693 0.260464 3.4932 0.691054 3.21744L5.47214 0.155601C5.79652 -0.0471326 6.20813 -0.0470606 6.53243 0.155787L11.3101 3.22136C11.74 3.49724 12 3.97297 12 4.48382V10.5C12 11.3284 11.3284 12 10.5 12H1.5C0.671573 12 0 11.3284 0 10.5ZM1.14601 4.148C0.951006 4.342 0.951006 4.66 1.14601 4.854L3.79201 7.5L1.14701 10.146C0.952007 10.341 0.952007 10.659 1.14701 10.854C1.34101 11.048 1.65901 11.048 1.85301 10.854L6.00001 6.708L10.146 10.854C10.341 11.048 10.659 11.048 10.854 10.854C11.048 10.659 11.048 10.341 10.854 10.146L8.20701 7.5L10.853 4.853C11.047 4.659 11.047 4.341 10.853 4.147C10.658 3.952 10.34 3.952 10.146 4.147L7.50001 6.793L6.00001 5.293L4.50001 6.793L1.85301 4.147C1.75501 4.049 1.62701 4 1.50001 4C1.37201 4 1.24401 4.049 1.14601 4.148Z" fill="#333333"/>
</svg>
