<svg xmlns="http://www.w3.org/2000/svg" xlink="http://www.w3.org/1999/xlink" width="22" height="22" viewBox="0 0 22 22"><path d="M3,14 C1.34314575,14 0,12.6568542 0,11 C0,9.34314575 1.34314575,8 3,8 C4.65685425,8 6,9.34314575 6,11 C6,12.6568542 4.65685425,14 3,14 Z M11,14 C9.34314575,14 8,12.6568542 8,11 C8,9.34314575 9.34314575,8 11,8 C12.6568542,8 14,9.34314575 14,11 C14,12.6568542 12.6568542,14 11,14 Z M19,14 C17.3431458,14 16,12.6568542 16,11 C16,9.34314575 17.3431458,8 19,8 C20.6568542,8 22,9.34314575 22,11 C22,12.6568542 20.6568542,14 19,14 Z"/></svg>
