<svg xmlns="http://www.w3.org/2000/svg" xlink="http://www.w3.org/1999/xlink" width="12" height="12" viewBox="0 0 12 12"><path d="M1.5,7 C0.671572875,7 0,6.32842712 0,5.5 C0,4.67157288 0.671572875,4 1.5,4 C2.32842712,4 3,4.67157288 3,5.5 C3,6.32842712 2.32842712,7 1.5,7 Z M5.5,7 C4.67157288,7 4,6.32842712 4,5.5 C4,4.67157288 4.67157288,4 5.5,4 C6.32842712,4 7,4.67157288 7,5.5 C7,6.32842712 6.32842712,7 5.5,7 Z M9.5,7 C8.67157288,7 8,6.32842712 8,5.5 C8,4.67157288 8.67157288,4 9.5,4 C10.3284271,4 11,4.67157288 11,5.5 C11,6.32842712 10.3284271,7 9.5,7 Z"/></svg>
