<svg xmlns="http://www.w3.org/2000/svg" xlink="http://www.w3.org/1999/xlink" width="12" height="12" viewBox="0 0 12 12"><path d="M11.7068,10.293 C12.0978,10.684 12.0978,11.316 11.7068,11.707 C11.5118,11.902 11.2558,12 10.9998,12 C10.7438,12 10.4878,11.902 10.2928,11.707 L7.8878,9.301 C7.1948,9.738 6.3798,10 5.4998,10 C3.0148,10 0.9998,7.985 0.9998,5.5 C0.9998,3.015 3.0148,1 5.4998,1 C7.9858,1 9.9998,3.015 9.9998,5.5 C9.9998,6.379 9.7378,7.194 9.3008,7.887 L11.7068,10.293 Z M2.2998,5.5 C2.2998,7.265 3.7358,8.7 5.4998,8.7 C7.2648,8.7 8.6998,7.265 8.6998,5.5 C8.6998,3.735 7.2648,2.3 5.4998,2.3 C3.7358,2.3 2.2998,3.735 2.2998,5.5 Z M3.5,6 L3.5,5 L7.5,5 L7.5,6 L3.5,6 Z"/></svg>
