<svg width="144" height="80" viewBox="0 0 144 80" fill="none" xmlns="http://www.w3.org/2000/svg">
<rect width="144" height="80" fill="white"/>
<g filter="url(#filter0_i)">
<rect width="80" height="40" fill="#E5E6E8"/>
<path d="M8.67614 16.9119H11.8778V26H13.1108V16.9119H16.3125V15.8182H8.67614V16.9119ZM18.2154 26H19.4483V21.446H24.8773V26H26.1103V15.8182H24.8773V20.3523H19.4483V15.8182H18.2154V26Z" fill="#333333"/>
<path d="M33 18H43V16H33V18Z" fill="#A6B0B3"/>
<path d="M33 22H39V19.999H33V22Z" fill="#A6B0B3"/>
<path d="M36 26H33V24H36V26Z" fill="#A6B0B3"/>
</g>
<rect width="80" height="40" transform="translate(0 40)" fill="white"/>
<rect x="12" y="58" width="56" height="8" rx="4" fill="#DEE3E5"/>
<g filter="url(#filter1_i)">
<rect width="64" height="40" transform="translate(80)" fill="#E5E6E8"/>
<path d="M96.6761 16.9119H99.8778V26H101.111V16.9119H104.312V15.8182H96.6761V16.9119ZM106.215 26H107.448V21.446H112.877V26H114.11V15.8182H112.877V20.3523H107.448V15.8182H106.215V26Z" fill="#333333"/>
<path d="M121 18H131V16H121V18Z" fill="#A6B0B3"/>
<path d="M121 22H127V19.999H121V22Z" fill="#A6B0B3"/>
<path d="M124 26H121V24H124V26Z" fill="#A6B0B3"/>
</g>
<path fill-rule="evenodd" clip-rule="evenodd" d="M118 56V59C119.656 59 121 60.343 121 62V67C121 68.657 119.656 70 118 70H106C104.344 70 103 68.657 103 67V62C103 60.343 104.344 59 106 59V56C106 52.691 108.691 50 112 50C115.309 50 118 52.691 118 56ZM109 56V59H115V56C115 54.346 113.654 53 112 53C110.346 53 109 54.346 109 56Z" fill="#A6B0B3"/>
<defs>
<filter id="filter0_i" x="0" y="0" width="80" height="40" filterUnits="userSpaceOnUse" color-interpolation-filters="sRGB">
<feFlood flood-opacity="0" result="BackgroundImageFix"/>
<feBlend mode="normal" in="SourceGraphic" in2="BackgroundImageFix" result="shape"/>
<feColorMatrix in="SourceAlpha" type="matrix" values="0 0 0 0 0 0 0 0 0 0 0 0 0 0 0 0 0 0 127 0" result="hardAlpha"/>
<feOffset dy="-1"/>
<feComposite in2="hardAlpha" operator="arithmetic" k2="-1" k3="1"/>
<feColorMatrix type="matrix" values="0 0 0 0 0.870588 0 0 0 0 0.890196 0 0 0 0 0.898039 0 0 0 1 0"/>
<feBlend mode="normal" in2="shape" result="effect1_innerShadow"/>
</filter>
<filter id="filter1_i" x="80" y="0" width="64" height="40" filterUnits="userSpaceOnUse" color-interpolation-filters="sRGB">
<feFlood flood-opacity="0" result="BackgroundImageFix"/>
<feBlend mode="normal" in="SourceGraphic" in2="BackgroundImageFix" result="shape"/>
<feColorMatrix in="SourceAlpha" type="matrix" values="0 0 0 0 0 0 0 0 0 0 0 0 0 0 0 0 0 0 127 0" result="hardAlpha"/>
<feOffset dy="-1"/>
<feComposite in2="hardAlpha" operator="arithmetic" k2="-1" k3="1"/>
<feColorMatrix type="matrix" values="0 0 0 0 0.870588 0 0 0 0 0.890196 0 0 0 0 0.898039 0 0 0 1 0"/>
<feBlend mode="normal" in2="shape" result="effect1_innerShadow"/>
</filter>
</defs>
</svg>
