<svg width="144" height="80" viewBox="0 0 144 80" fill="none" xmlns="http://www.w3.org/2000/svg">
<rect width="144" height="80" fill="white"/>
<rect x="60" y="27" width="70" height="8" rx="4" fill="#DEE3E5"/>
<rect x="60" y="43" width="52" height="8" rx="4" fill="#DEE3E5"/>
<path d="M1.3 19.5H50.7C50.8689 19.5 51.0572 19.5884 51.2199 19.8044C51.3831 20.021 51.5 20.3459 51.5 20.7333V56.2667C51.5 56.6541 51.3831 56.9791 51.2199 57.1957C51.0572 57.4116 50.8689 57.5 50.7 57.5H1.3C1.13113 57.5 0.942783 57.4116 0.780118 57.1957C0.616933 56.9791 0.5 56.6541 0.5 56.2667V20.7333C0.5 20.3459 0.616933 20.021 0.780118 19.8044C0.942784 19.5884 1.13113 19.5 1.3 19.5Z" stroke="#BDC4C6"/>
<path fill-rule="evenodd" clip-rule="evenodd" d="M51.7833 20.0862V23.6738H0V20.0862C0 19.6108 0.604717 19 1.08333 19H50.7C51.1786 19 51.7833 19.6108 51.7833 20.0862ZM49.0903 22.8697C49.6031 22.8697 50.0188 22.4434 50.0188 21.9175C50.0054 21.405 49.5901 21.0003 49.0903 21.0128C48.5905 21.0003 48.1751 21.405 48.1617 21.9175C48.1617 22.4434 48.5774 22.8697 49.0903 22.8697ZM47.2335 21.9175C47.2335 22.4434 46.8178 22.8697 46.305 22.8697C45.7921 22.8697 45.3764 22.4434 45.3764 21.9175C45.3898 21.405 45.8052 21.0003 46.305 21.0128C46.8048 21.0003 47.2201 21.405 47.2335 21.9175ZM43.5197 22.8697C44.0325 22.8697 44.4482 22.4434 44.4482 21.9175C44.4348 21.405 44.0194 21.0003 43.5197 21.0128C43.0199 21.0003 42.6045 21.405 42.5911 21.9175C42.5911 22.4434 43.0068 22.8697 43.5197 22.8697Z" fill="#BDC4C6"/>
<rect x="5.19922" y="34.5996" width="13.8667" height="1.3" rx="0.65" fill="#BDC4C6"/>
<rect x="5.19922" y="38.9341" width="19.0667" height="1.3" rx="0.65" fill="#BDC4C6"/>
<rect x="5.19922" y="41.5332" width="10.4" height="1.3" rx="0.65" fill="#BDC4C6"/>
<rect x="29.5742" y="31.0254" width="17.1167" height="17.1167" stroke="#BDC4C6"/>
<path fill-rule="evenodd" clip-rule="evenodd" d="M43.5502 36.3328C43.5502 37.0911 42.7919 37.8494 42.0335 37.8494C41.0585 37.8494 40.3002 37.0911 40.3002 36.3328C40.3002 35.3578 41.0585 34.5994 42.0335 34.5994C42.7919 34.5994 43.5502 35.3578 43.5502 36.3328ZM39.4324 43.0489L41.3824 40.0156L44.6324 44.3489H31.6324L35.9657 37.8489L39.4324 43.0489Z" fill="#BDC4C6"/>
</svg>
