<svg width="144" height="80" viewBox="0 0 144 80" fill="none" xmlns="http://www.w3.org/2000/svg">
<rect width="144" height="80" fill="white"/>
<rect x="67" y="27" width="70" height="8" rx="4" fill="#DEE3E5"/>
<rect x="67" y="43" width="52" height="8" rx="4" fill="#DEE3E5"/>
<path d="M8.3 19.5H57.7C57.8689 19.5 58.0572 19.5884 58.2199 19.8044C58.3831 20.021 58.5 20.3459 58.5 20.7333V56.2667C58.5 56.6541 58.3831 56.9791 58.2199 57.1957C58.0572 57.4116 57.8689 57.5 57.7 57.5H8.3C8.13113 57.5 7.94278 57.4116 7.78012 57.1957C7.61693 56.9791 7.5 56.6541 7.5 56.2667V20.7333C7.5 20.3459 7.61693 20.021 7.78012 19.8044C7.94278 19.5884 8.13113 19.5 8.3 19.5Z" stroke="#BDC4C6"/>
<path fill-rule="evenodd" clip-rule="evenodd" d="M58.7833 20.0862V23.6738H7V20.0862C7 19.6108 7.60472 19 8.08333 19H57.7C58.1786 19 58.7833 19.6108 58.7833 20.0862ZM56.0903 22.8697C56.6031 22.8697 57.0188 22.4434 57.0188 21.9175C57.0054 21.405 56.5901 21.0003 56.0903 21.0128C55.5905 21.0003 55.1751 21.405 55.1617 21.9175C55.1617 22.4434 55.5774 22.8697 56.0903 22.8697ZM54.2335 21.9175C54.2335 22.4434 53.8178 22.8697 53.305 22.8697C52.7921 22.8697 52.3764 22.4434 52.3764 21.9175C52.3898 21.405 52.8052 21.0003 53.305 21.0128C53.8048 21.0003 54.2201 21.405 54.2335 21.9175ZM50.5197 22.8697C51.0325 22.8697 51.4482 22.4434 51.4482 21.9175C51.4348 21.405 51.0194 21.0003 50.5197 21.0128C50.0199 21.0003 49.6045 21.405 49.5911 21.9175C49.5911 22.4434 50.0068 22.8697 50.5197 22.8697Z" fill="#BDC4C6"/>
<rect x="12.1992" y="34.5996" width="13.8667" height="1.3" rx="0.65" fill="#BDC4C6"/>
<rect x="12.1992" y="38.9341" width="19.0667" height="1.3" rx="0.65" fill="#BDC4C6"/>
<rect x="12.1992" y="41.5332" width="10.4" height="1.3" rx="0.65" fill="#BDC4C6"/>
<rect x="36.5742" y="31.0254" width="17.1167" height="17.1167" stroke="#BDC4C6"/>
<path fill-rule="evenodd" clip-rule="evenodd" d="M50.5502 36.3328C50.5502 37.0911 49.7919 37.8494 49.0335 37.8494C48.0585 37.8494 47.3002 37.0911 47.3002 36.3328C47.3002 35.3578 48.0585 34.5994 49.0335 34.5994C49.7919 34.5994 50.5502 35.3578 50.5502 36.3328ZM46.4324 43.0489L48.3824 40.0156L51.6324 44.3489H38.6324L42.9657 37.8489L46.4324 43.0489Z" fill="#BDC4C6"/>
</svg>
