<svg width="145" height="80" viewBox="0 0 145 80" fill="none" xmlns="http://www.w3.org/2000/svg">
<rect width="144" height="80" fill="#F6F7F8"/>
<g filter="url(#filter0_i)">
<rect width="144" height="40" fill="white"/>
<rect opacity="0.4" x="38" y="12" width="48" height="20" fill="#F9B159"/>
<path d="M21.4261 20C21.0483 17.9119 19.3778 16.679 17.3295 16.679C14.7244 16.679 12.8352 18.6875 12.8352 21.9091C12.8352 25.1307 14.7244 27.1392 17.3295 27.1392C19.3778 27.1392 21.0483 25.9062 21.4261 23.8182H20.1932C19.8949 25.2301 18.6818 25.9858 17.3295 25.9858C15.4801 25.9858 14.0284 24.554 14.0284 21.9091C14.0284 19.2642 15.4801 17.8324 17.3295 17.8324C18.6818 17.8324 19.8949 18.5881 20.1932 20H21.4261ZM25.5066 27.179C26.839 27.179 27.535 26.4631 27.7736 25.9659H27.8333V27H29.0066V21.9688C29.0066 19.5426 27.1571 19.2642 26.1827 19.2642C25.0293 19.2642 23.7168 19.6619 23.1202 21.054L24.2338 21.4517C24.4924 20.8949 25.1039 20.2983 26.2225 20.2983C27.3013 20.2983 27.8333 20.87 27.8333 21.8494V21.8892C27.8333 22.456 27.2566 22.4062 25.8645 22.5852C24.4476 22.7692 22.9015 23.0824 22.9015 24.8324C22.9015 26.3239 24.0549 27.179 25.5066 27.179ZM25.6855 26.125C24.7509 26.125 24.0748 25.7074 24.0748 24.892C24.0748 23.9972 24.8901 23.7188 25.8049 23.5994C26.302 23.5398 27.6344 23.4006 27.8333 23.1619V24.2358C27.8333 25.1903 27.0776 26.125 25.6855 26.125ZM34.4691 19.3636H32.8384V17.5341H31.6651V19.3636H30.5117V20.358H31.6651V25.1307C31.6651 26.4631 32.739 27.0994 33.7333 27.0994C34.1708 27.0994 34.4492 27.0199 34.6083 26.9602L34.3697 25.9062C34.2702 25.9261 34.1112 25.9659 33.8526 25.9659C33.3356 25.9659 32.8384 25.8068 32.8384 24.8125V20.358H34.4691V19.3636ZM40.3306 27H41.4641V25.8267H41.6033C41.8619 26.2443 42.359 27.1591 43.8306 27.1591C45.7397 27.1591 47.0721 25.6278 47.0721 23.2017C47.0721 20.7955 45.7397 19.2642 43.8107 19.2642C42.3192 19.2642 41.8619 20.179 41.6033 20.5767H41.5039V16.8182H40.3306V27ZM41.484 23.1818C41.484 21.4716 42.2397 20.3182 43.6715 20.3182C45.163 20.3182 45.8988 21.571 45.8988 23.1818C45.8988 24.8125 45.1431 26.1051 43.6715 26.1051C42.2596 26.1051 41.484 24.9119 41.484 23.1818ZM48.8668 27H50.0401V22.1676C50.0401 21.1335 50.8555 20.3778 51.9691 20.3778C52.2823 20.3778 52.6055 20.4375 52.685 20.4574V19.2642C52.5508 19.2543 52.2425 19.2443 52.0685 19.2443C51.1538 19.2443 50.3583 19.7614 50.0799 20.517H50.0004V19.3636H48.8668V27ZM57.0451 27.1591C58.5962 27.1591 59.7298 26.3835 60.0877 25.2301L58.9542 24.9119C58.6559 25.7074 57.9648 26.1051 57.0451 26.1051C55.668 26.1051 54.7184 25.2152 54.6637 23.5795H60.207V23.0824C60.207 20.2386 58.5167 19.2642 56.9258 19.2642C54.8576 19.2642 53.4854 20.8949 53.4854 23.2415C53.4854 25.5881 54.8377 27.1591 57.0451 27.1591ZM54.6637 22.5653C54.7433 21.3771 55.5835 20.3182 56.9258 20.3182C58.1985 20.3182 59.0138 21.2727 59.0138 22.5653H54.6637ZM65.1935 27.1591C66.7447 27.1591 67.8782 26.3835 68.2362 25.2301L67.1026 24.9119C66.8043 25.7074 66.1133 26.1051 65.1935 26.1051C63.8164 26.1051 62.8668 25.2152 62.8121 23.5795H68.3555V23.0824C68.3555 20.2386 66.6651 19.2642 65.0742 19.2642C63.006 19.2642 61.6339 20.8949 61.6339 23.2415C61.6339 25.5881 62.9862 27.1591 65.1935 27.1591ZM62.8121 22.5653C62.8917 21.3771 63.7319 20.3182 65.0742 20.3182C66.3469 20.3182 67.1623 21.2727 67.1623 22.5653H62.8121ZM73.0238 27.1591C74.4954 27.1591 74.9925 26.2443 75.2511 25.8267H75.3903V27H76.5238V16.8182H75.3505V20.5767H75.2511C74.9925 20.179 74.5352 19.2642 73.0437 19.2642C71.1147 19.2642 69.7823 20.7955 69.7823 23.2017C69.7823 25.6278 71.1147 27.1591 73.0238 27.1591ZM73.1829 26.1051C71.7113 26.1051 70.9556 24.8125 70.9556 23.1818C70.9556 21.571 71.6914 20.3182 73.1829 20.3182C74.6147 20.3182 75.3704 21.4716 75.3704 23.1818C75.3704 24.9119 74.5948 26.1051 73.1829 26.1051ZM84.2447 21.0739C83.8768 19.9901 83.0515 19.2642 81.5401 19.2642C79.9293 19.2642 78.7362 20.179 78.7362 21.4716C78.7362 22.5256 79.3626 23.2315 80.7646 23.5597L82.0373 23.858C82.8079 24.0369 83.1708 24.4048 83.1708 24.9318C83.1708 25.5881 82.4748 26.125 81.381 26.125C80.4215 26.125 79.82 25.7124 79.6112 24.892L78.4975 25.1705C78.771 26.468 79.8398 27.1591 81.4009 27.1591C83.1758 27.1591 84.3839 26.1896 84.3839 24.8722C84.3839 23.8082 83.7177 23.1371 82.3555 22.804L81.2219 22.5256C80.3171 22.3018 79.9094 21.9986 79.9094 21.4119C79.9094 20.7557 80.6055 20.2784 81.5401 20.2784C82.5643 20.2784 82.9869 20.8452 83.1907 21.3722L84.2447 21.0739Z" fill="#0071BC"/>
</g>
<rect width="144" height="40" transform="translate(0 40)" fill="white"/>
<rect opacity="0.4" x="42" y="52" width="48" height="20" fill="#F9B159"/>
<path d="M16.375 67C19.4773 67 21.2273 65.071 21.2273 61.8892C21.2273 58.7273 19.4773 56.8182 16.5142 56.8182H13.233V67H16.375ZM14.4659 65.9062V57.9119H16.4347C18.821 57.9119 20.0341 59.4233 20.0341 61.8892C20.0341 64.375 18.821 65.9062 16.2955 65.9062H14.4659ZM26.2386 67.1591C28.3068 67.1591 29.6989 65.5881 29.6989 63.2216C29.6989 60.8352 28.3068 59.2642 26.2386 59.2642C24.1705 59.2642 22.7784 60.8352 22.7784 63.2216C22.7784 65.5881 24.1705 67.1591 26.2386 67.1591ZM26.2386 66.1051C24.6676 66.1051 23.9517 64.7528 23.9517 63.2216C23.9517 61.6903 24.6676 60.3182 26.2386 60.3182C27.8097 60.3182 28.5256 61.6903 28.5256 63.2216C28.5256 64.7528 27.8097 66.1051 26.2386 66.1051ZM34.5723 70.0227C36.4018 70.0227 37.8734 69.1875 37.8734 67.2188V59.3636H36.7399V60.5767H36.6206C36.362 60.179 35.8848 59.2642 34.3933 59.2642C32.4643 59.2642 31.1319 60.7955 31.1319 63.142C31.1319 65.5284 32.524 66.8807 34.3734 66.8807C35.8649 66.8807 36.3422 66.0057 36.6007 65.5881H36.7001V67.1392C36.7001 68.4119 35.8052 68.9886 34.5723 68.9886C33.1852 68.9886 32.698 68.2578 32.3848 67.8352L31.4501 68.4915C31.9274 69.2919 32.867 70.0227 34.5723 70.0227ZM34.5325 65.8267C33.0609 65.8267 32.3052 64.7131 32.3052 63.1222C32.3052 61.571 33.041 60.3182 34.5325 60.3182C35.9643 60.3182 36.72 61.4716 36.72 63.1222C36.72 64.8125 35.9444 65.8267 34.5325 65.8267ZM44.1177 67H45.2512V65.8267H45.3904C45.649 66.2443 46.1461 67.1591 47.6177 67.1591C49.5268 67.1591 50.8592 65.6278 50.8592 63.2017C50.8592 60.7955 49.5268 59.2642 47.5978 59.2642C46.1064 59.2642 45.649 60.179 45.3904 60.5767H45.291V56.8182H44.1177V67ZM45.2711 63.1818C45.2711 61.4716 46.0268 60.3182 47.4586 60.3182C48.9501 60.3182 49.6859 61.571 49.6859 63.1818C49.6859 64.8125 48.9302 66.1051 47.4586 66.1051C46.0467 66.1051 45.2711 64.9119 45.2711 63.1818ZM52.6539 67H53.8272V62.1676C53.8272 61.1335 54.6426 60.3778 55.7562 60.3778C56.0694 60.3778 56.3926 60.4375 56.4721 60.4574V59.2642C56.3379 59.2543 56.0297 59.2443 55.8556 59.2443C54.9409 59.2443 54.1454 59.7614 53.867 60.517H53.7875V59.3636H52.6539V67ZM60.8322 67.1591C62.3833 67.1591 63.5169 66.3835 63.8748 65.2301L62.7413 64.9119C62.443 65.7074 61.752 66.1051 60.8322 66.1051C59.4551 66.1051 58.5055 65.2152 58.4508 63.5795H63.9941V63.0824C63.9941 60.2386 62.3038 59.2642 60.7129 59.2642C58.6447 59.2642 57.2725 60.8949 57.2725 63.2415C57.2725 65.5881 58.6248 67.1591 60.8322 67.1591ZM58.4508 62.5653C58.5304 61.3771 59.3706 60.3182 60.7129 60.3182C61.9856 60.3182 62.801 61.2727 62.801 62.5653H58.4508ZM68.9806 67.1591C70.5318 67.1591 71.6653 66.3835 72.0233 65.2301L70.8897 64.9119C70.5914 65.7074 69.9004 66.1051 68.9806 66.1051C67.6035 66.1051 66.6539 65.2152 66.5993 63.5795H72.1426V63.0824C72.1426 60.2386 70.4522 59.2642 68.8613 59.2642C66.7931 59.2642 65.421 60.8949 65.421 63.2415C65.421 65.5881 66.7733 67.1591 68.9806 67.1591ZM66.5993 62.5653C66.6788 61.3771 67.519 60.3182 68.8613 60.3182C70.1341 60.3182 70.9494 61.2727 70.9494 62.5653H66.5993ZM76.8109 67.1591C78.2825 67.1591 78.7797 66.2443 79.0382 65.8267H79.1774V67H80.3109V56.8182H79.1376V60.5767H79.0382C78.7797 60.179 78.3223 59.2642 76.8308 59.2642C74.9018 59.2642 73.5694 60.7955 73.5694 63.2017C73.5694 65.6278 74.9018 67.1591 76.8109 67.1591ZM76.97 66.1051C75.4984 66.1051 74.7427 64.8125 74.7427 63.1818C74.7427 61.571 75.4785 60.3182 76.97 60.3182C78.4018 60.3182 79.1575 61.4716 79.1575 63.1818C79.1575 64.9119 78.3819 66.1051 76.97 66.1051ZM88.0318 61.0739C87.6639 59.9901 86.8386 59.2642 85.3272 59.2642C83.7164 59.2642 82.5233 60.179 82.5233 61.4716C82.5233 62.5256 83.1497 63.2315 84.5517 63.5597L85.8244 63.858C86.595 64.0369 86.9579 64.4048 86.9579 64.9318C86.9579 65.5881 86.2619 66.125 85.1681 66.125C84.2086 66.125 83.6071 65.7124 83.3983 64.892L82.2846 65.1705C82.5581 66.468 83.627 67.1591 85.188 67.1591C86.9629 67.1591 88.171 66.1896 88.171 64.8722C88.171 63.8082 87.5048 63.1371 86.1426 62.804L85.0091 62.5256C84.1042 62.3018 83.6966 61.9986 83.6966 61.4119C83.6966 60.7557 84.3926 60.2784 85.3272 60.2784C86.3514 60.2784 86.774 60.8452 86.9778 61.3722L88.0318 61.0739Z" fill="#0071BC"/>
<defs>
<filter id="filter0_i" x="0" y="0" width="144" height="40" filterUnits="userSpaceOnUse" color-interpolation-filters="sRGB">
<feFlood flood-opacity="0" result="BackgroundImageFix"/>
<feBlend mode="normal" in="SourceGraphic" in2="BackgroundImageFix" result="shape"/>
<feColorMatrix in="SourceAlpha" type="matrix" values="0 0 0 0 0 0 0 0 0 0 0 0 0 0 0 0 0 0 127 0" result="hardAlpha"/>
<feOffset dy="-1"/>
<feComposite in2="hardAlpha" operator="arithmetic" k2="-1" k3="1"/>
<feColorMatrix type="matrix" values="0 0 0 0 0.870588 0 0 0 0 0.890196 0 0 0 0 0.898039 0 0 0 1 0"/>
<feBlend mode="normal" in2="shape" result="effect1_innerShadow"/>
</filter>
</defs>
</svg>
