<svg width="144" height="80" viewBox="0 0 144 80" fill="none" xmlns="http://www.w3.org/2000/svg">
<rect width="144" height="80" fill="#F6F7F8"/>
<g filter="url(#filter0_i)">
<rect width="144" height="40" fill="white"/>
<path d="M5.07386 27H6.24716V19.3636H5.07386V27ZM5.67045 18.0909C6.12784 18.0909 6.50568 17.733 6.50568 17.2955C6.50568 16.858 6.12784 16.5 5.67045 16.5C5.21307 16.5 4.83523 16.858 4.83523 17.2955C4.83523 17.733 5.21307 18.0909 5.67045 18.0909ZM9.56942 22.4062C9.56942 21.0739 10.3947 20.3182 11.5183 20.3182C12.6071 20.3182 13.2683 21.0291 13.2683 22.2273V27H14.4416V22.1477C14.4416 20.1989 13.4025 19.2642 11.8564 19.2642C10.7029 19.2642 9.98704 19.7812 9.62908 20.5568H9.52965V19.3636H8.39613V27H9.56942V22.4062ZM19.9066 19.3636H18.2759V17.5341H17.1026V19.3636H15.9492V20.358H17.1026V25.1307C17.1026 26.4631 18.1765 27.0994 19.1708 27.0994C19.6083 27.0994 19.8867 27.0199 20.0458 26.9602L19.8072 25.9062C19.7077 25.9261 19.5487 25.9659 19.2901 25.9659C18.7731 25.9659 18.2759 25.8068 18.2759 24.8125V20.358H19.9066V19.3636ZM24.7912 27.1591C26.3423 27.1591 27.4759 26.3835 27.8338 25.2301L26.7003 24.9119C26.402 25.7074 25.7109 26.1051 24.7912 26.1051C23.4141 26.1051 22.4645 25.2152 22.4098 23.5795H27.9531V23.0824C27.9531 20.2386 26.2628 19.2642 24.6719 19.2642C22.6037 19.2642 21.2315 20.8949 21.2315 23.2415C21.2315 25.5881 22.5838 27.1591 24.7912 27.1591ZM22.4098 22.5653C22.4893 21.3771 23.3295 20.3182 24.6719 20.3182C25.9446 20.3182 26.7599 21.2727 26.7599 22.5653H22.4098ZM29.7379 27H30.9112V22.1676C30.9112 21.1335 31.7266 20.3778 32.8402 20.3778C33.1534 20.3778 33.4766 20.4375 33.5561 20.4574V19.2642C33.4219 19.2543 33.1136 19.2443 32.9396 19.2443C32.0249 19.2443 31.2294 19.7614 30.951 20.517H30.8714V19.3636H29.7379V27ZM36.1202 22.4062C36.1202 21.0739 36.9455 20.3182 38.0691 20.3182C39.1578 20.3182 39.8191 21.0291 39.8191 22.2273V27H40.9924V22.1477C40.9924 20.1989 39.9533 19.2642 38.4071 19.2642C37.2537 19.2642 36.5378 19.7812 36.1799 20.5568H36.0804V19.3636H34.9469V27H36.1202V22.4062ZM45.3835 27.179C46.7159 27.179 47.4119 26.4631 47.6506 25.9659H47.7102V27H48.8835V21.9688C48.8835 19.5426 47.0341 19.2642 46.0597 19.2642C44.9062 19.2642 43.5938 19.6619 42.9972 21.054L44.1108 21.4517C44.3693 20.8949 44.9808 20.2983 46.0994 20.2983C47.1783 20.2983 47.7102 20.87 47.7102 21.8494V21.8892C47.7102 22.456 47.1335 22.4062 45.7415 22.5852C44.3246 22.7692 42.7784 23.0824 42.7784 24.8324C42.7784 26.3239 43.9318 27.179 45.3835 27.179ZM45.5625 26.125C44.6278 26.125 43.9517 25.7074 43.9517 24.892C43.9517 23.9972 44.767 23.7188 45.6818 23.5994C46.179 23.5398 47.5114 23.4006 47.7102 23.1619V24.2358C47.7102 25.1903 46.9545 26.125 45.5625 26.125ZM52.1983 16.8182H51.025V27H52.1983V16.8182ZM58.7223 22.0881H54.2678V23.1818H58.7223V22.0881ZM61.96 16.8182H60.7868V27H61.96V16.8182ZM64.109 27H65.2823V19.3636H64.109V27ZM64.7056 18.0909C65.163 18.0909 65.5408 17.733 65.5408 17.2955C65.5408 16.858 65.163 16.5 64.7056 16.5C64.2482 16.5 63.8704 16.858 63.8704 17.2955C63.8704 17.733 64.2482 18.0909 64.7056 18.0909ZM68.6046 22.4062C68.6046 21.0739 69.4299 20.3182 70.5534 20.3182C71.6422 20.3182 72.3034 21.0291 72.3034 22.2273V27H73.4767V22.1477C73.4767 20.1989 72.4377 19.2642 70.8915 19.2642C69.7381 19.2642 69.0222 19.7812 68.6642 20.5568H68.5648V19.3636H67.4313V27H68.6046V22.4062ZM75.6207 27H76.794V24.1413L77.6143 23.3807L80.473 27H81.9645L78.4993 22.625L81.7259 19.3636H80.2741L76.9332 22.7642H76.794V16.8182H75.6207V27ZM84.0911 27.0795C84.5833 27.0795 84.986 26.6768 84.986 26.1847C84.986 25.6925 84.5833 25.2898 84.0911 25.2898C83.5989 25.2898 83.1962 25.6925 83.1962 26.1847C83.1962 26.6768 83.5989 27.0795 84.0911 27.0795ZM90.1937 27.1591C91.8841 27.1591 92.9977 26.125 93.1966 24.7727H92.0233C91.8045 25.608 91.1085 26.1051 90.1937 26.1051C88.8017 26.1051 87.9068 24.9517 87.9068 23.1818C87.9068 21.4517 88.8216 20.3182 90.1937 20.3182C91.2278 20.3182 91.8443 20.9545 92.0233 21.6506H93.1966C92.9977 20.2188 91.7846 19.2642 90.1738 19.2642C88.1056 19.2642 86.7335 20.8949 86.7335 23.2216C86.7335 25.5085 88.046 27.1591 90.1937 27.1591ZM98.014 27.1591C100.082 27.1591 101.474 25.5881 101.474 23.2216C101.474 20.8352 100.082 19.2642 98.014 19.2642C95.9458 19.2642 94.5538 20.8352 94.5538 23.2216C94.5538 25.5881 95.9458 27.1591 98.014 27.1591ZM98.014 26.1051C96.443 26.1051 95.7271 24.7528 95.7271 23.2216C95.7271 21.6903 96.443 20.3182 98.014 20.3182C99.585 20.3182 100.301 21.6903 100.301 23.2216C100.301 24.7528 99.585 26.1051 98.014 26.1051ZM103.265 27H104.439V22.2273C104.439 21.1087 105.254 20.3182 106.169 20.3182C107.059 20.3182 107.68 20.8999 107.68 21.7699V27H108.873V22.0284C108.873 21.044 109.49 20.3182 110.564 20.3182C111.399 20.3182 112.115 20.7607 112.115 21.8892V27H113.288V21.8892C113.288 20.0945 112.324 19.2642 110.961 19.2642C109.868 19.2642 109.067 19.7663 108.674 20.5568H108.595C108.217 19.7415 107.551 19.2642 106.547 19.2642C105.552 19.2642 104.816 19.7415 104.498 20.5568H104.399V19.3636H103.265V27Z" fill="#0071BC"/>
</g>
<rect width="144" height="40" transform="translate(0 40)" fill="white"/>
<path d="M8.27557 67.1591C9.8267 67.1591 10.9602 66.3835 11.3182 65.2301L10.1847 64.9119C9.88636 65.7074 9.19531 66.1051 8.27557 66.1051C6.89844 66.1051 5.94886 65.2152 5.89418 63.5795H11.4375V63.0824C11.4375 60.2386 9.74716 59.2642 8.15625 59.2642C6.08807 59.2642 4.71591 60.8949 4.71591 63.2415C4.71591 65.5881 6.06818 67.1591 8.27557 67.1591ZM5.89418 62.5653C5.97372 61.3771 6.81392 60.3182 8.15625 60.3182C9.42898 60.3182 10.2443 61.2727 10.2443 62.5653H5.89418ZM13.8922 59.3636H12.54L14.9661 63.1818L12.54 67H13.8922L15.7218 64.0369L17.5513 67H18.9036L16.4377 63.1818L18.9036 59.3636H17.5513L15.7218 62.4858L13.8922 59.3636ZM23.8988 59.3636H22.2681V57.5341H21.0948V59.3636H19.9414V60.358H21.0948V65.1307C21.0948 66.4631 22.1687 67.0994 23.163 67.0994C23.6005 67.0994 23.8789 67.0199 24.038 66.9602L23.7994 65.9062C23.6999 65.9261 23.5408 65.9659 23.2823 65.9659C22.7653 65.9659 22.2681 65.8068 22.2681 64.8125V60.358H23.8988V59.3636ZM28.7834 67.1591C30.3345 67.1591 31.468 66.3835 31.826 65.2301L30.6925 64.9119C30.3942 65.7074 29.7031 66.1051 28.7834 66.1051C27.4062 66.1051 26.4567 65.2152 26.402 63.5795H31.9453V63.0824C31.9453 60.2386 30.255 59.2642 28.6641 59.2642C26.5959 59.2642 25.2237 60.8949 25.2237 63.2415C25.2237 65.5881 26.576 67.1591 28.7834 67.1591ZM26.402 62.5653C26.4815 61.3771 27.3217 60.3182 28.6641 60.3182C29.9368 60.3182 30.7521 61.2727 30.7521 62.5653H26.402ZM33.7301 67H34.9034V62.1676C34.9034 61.1335 35.7188 60.3778 36.8324 60.3778C37.1456 60.3778 37.4688 60.4375 37.5483 60.4574V59.2642C37.4141 59.2543 37.1058 59.2443 36.9318 59.2443C36.017 59.2443 35.2216 59.7614 34.9432 60.517H34.8636V59.3636H33.7301V67ZM40.1124 62.4062C40.1124 61.0739 40.9377 60.3182 42.0613 60.3182C43.15 60.3182 43.8113 61.0291 43.8113 62.2273V67H44.9846V62.1477C44.9846 60.1989 43.9455 59.2642 42.3993 59.2642C41.2459 59.2642 40.53 59.7812 40.1721 60.5568H40.0726V59.3636H38.9391V67H40.1124V62.4062ZM49.3757 67.179C50.7081 67.179 51.4041 66.4631 51.6428 65.9659H51.7024V67H52.8757V61.9688C52.8757 59.5426 51.0263 59.2642 50.0518 59.2642C48.8984 59.2642 47.5859 59.6619 46.9893 61.054L48.103 61.4517C48.3615 60.8949 48.973 60.2983 50.0916 60.2983C51.1705 60.2983 51.7024 60.87 51.7024 61.8494V61.8892C51.7024 62.456 51.1257 62.4062 49.7337 62.5852C48.3168 62.7692 46.7706 63.0824 46.7706 64.8324C46.7706 66.3239 47.924 67.179 49.3757 67.179ZM49.5547 66.125C48.62 66.125 47.9439 65.7074 47.9439 64.892C47.9439 63.9972 48.7592 63.7188 49.674 63.5994C50.1712 63.5398 51.5036 63.4006 51.7024 63.1619V64.2358C51.7024 65.1903 50.9467 66.125 49.5547 66.125ZM56.1905 56.8182H55.0172V67H56.1905V56.8182ZM62.7145 62.0881H58.2599V63.1818H62.7145V62.0881ZM65.9522 56.8182H64.7789V67H65.9522V56.8182ZM68.1012 67H69.2745V59.3636H68.1012V67ZM68.6978 58.0909C69.1552 58.0909 69.533 57.733 69.533 57.2955C69.533 56.858 69.1552 56.5 68.6978 56.5C68.2404 56.5 67.8626 56.858 67.8626 57.2955C67.8626 57.733 68.2404 58.0909 68.6978 58.0909ZM72.5968 62.4062C72.5968 61.0739 73.4221 60.3182 74.5456 60.3182C75.6344 60.3182 76.2956 61.0291 76.2956 62.2273V67H77.4689V62.1477C77.4689 60.1989 76.4299 59.2642 74.8837 59.2642C73.7303 59.2642 73.0144 59.7812 72.6564 60.5568H72.557V59.3636H71.4235V67H72.5968V62.4062ZM79.6129 67H80.7862V64.1413L81.6065 63.3807L84.4652 67H85.9567L82.4915 62.625L85.718 59.3636H84.2663L80.9254 62.7642H80.7862V56.8182H79.6129V67ZM88.0833 67.0795C88.5755 67.0795 88.9782 66.6768 88.9782 66.1847C88.9782 65.6925 88.5755 65.2898 88.0833 65.2898C87.5911 65.2898 87.1884 65.6925 87.1884 66.1847C87.1884 66.6768 87.5911 67.0795 88.0833 67.0795ZM94.1859 67.1591C95.8762 67.1591 96.9899 66.125 97.1887 64.7727H96.0154C95.7967 65.608 95.1007 66.1051 94.1859 66.1051C92.7939 66.1051 91.899 64.9517 91.899 63.1818C91.899 61.4517 92.8137 60.3182 94.1859 60.3182C95.22 60.3182 95.8365 60.9545 96.0154 61.6506H97.1887C96.9899 60.2188 95.7768 59.2642 94.166 59.2642C92.0978 59.2642 90.7257 60.8949 90.7257 63.2216C90.7257 65.5085 92.0382 67.1591 94.1859 67.1591ZM102.006 67.1591C104.074 67.1591 105.466 65.5881 105.466 63.2216C105.466 60.8352 104.074 59.2642 102.006 59.2642C99.938 59.2642 98.546 60.8352 98.546 63.2216C98.546 65.5881 99.938 67.1591 102.006 67.1591ZM102.006 66.1051C100.435 66.1051 99.7193 64.7528 99.7193 63.2216C99.7193 61.6903 100.435 60.3182 102.006 60.3182C103.577 60.3182 104.293 61.6903 104.293 63.2216C104.293 64.7528 103.577 66.1051 102.006 66.1051ZM107.257 67H108.431V62.2273C108.431 61.1087 109.246 60.3182 110.161 60.3182C111.051 60.3182 111.672 60.8999 111.672 61.7699V67H112.865V62.0284C112.865 61.044 113.482 60.3182 114.556 60.3182C115.391 60.3182 116.107 60.7607 116.107 61.8892V67H117.28V61.8892C117.28 60.0945 116.316 59.2642 114.953 59.2642C113.86 59.2642 113.059 59.7663 112.667 60.5568H112.587C112.209 59.7415 111.543 59.2642 110.539 59.2642C109.544 59.2642 108.809 59.7415 108.49 60.5568H108.391V59.3636H107.257V67Z" fill="#0071BC"/>
<path d="M132 56V54H139V61H137V57.414L129.707 64.707L128.293 63.293L135.586 56H132Z" fill="#A6B0B3"/>
<path d="M134.5 67C134.775 67 135 66.775 135 66.5V63H137V66.5C137 67.879 135.879 69 134.5 69H126.5C125.121 69 124 67.879 124 66.5V58.5C124 57.121 125.121 56 126.5 56H130V58H126.5C126.225 58 126 58.225 126 58.5V66.5C126 66.775 126.225 67 126.5 67H134.5Z" fill="#A6B0B3"/>
<defs>
<filter id="filter0_i" x="0" y="0" width="144" height="40" filterUnits="userSpaceOnUse" color-interpolation-filters="sRGB">
<feFlood flood-opacity="0" result="BackgroundImageFix"/>
<feBlend mode="normal" in="SourceGraphic" in2="BackgroundImageFix" result="shape"/>
<feColorMatrix in="SourceAlpha" type="matrix" values="0 0 0 0 0 0 0 0 0 0 0 0 0 0 0 0 0 0 127 0" result="hardAlpha"/>
<feOffset dy="-1"/>
<feComposite in2="hardAlpha" operator="arithmetic" k2="-1" k3="1"/>
<feColorMatrix type="matrix" values="0 0 0 0 0.870588 0 0 0 0 0.890196 0 0 0 0 0.898039 0 0 0 1 0"/>
<feBlend mode="normal" in2="shape" result="effect1_innerShadow"/>
</filter>
</defs>
</svg>
