<svg width="144" height="80" viewBox="0 0 144 80" fill="none" xmlns="http://www.w3.org/2000/svg">
<rect width="144" height="80" fill="#F6F7F8"/>
<g filter="url(#filter0_i)">
<rect width="144" height="40" fill="white"/>
<path d="M14.804 29H15.9574L17.6278 23.1335H17.7472L19.4176 29H20.571L22.8977 21.3636H21.6648L20.0142 27.1903H19.9347L18.3239 21.3636H17.071L15.4403 27.2102H15.3608L13.7102 21.3636H12.4773L14.804 29ZM26.179 29H27.3324L29.0028 23.1335H29.1222L30.7926 29H31.946L34.2727 21.3636H33.0398L31.3892 27.1903H31.3097L29.6989 21.3636H28.446L26.8153 27.2102H26.7358L25.0852 21.3636H23.8523L26.179 29ZM37.554 29H38.7074L40.3778 23.1335H40.4972L42.1676 29H43.321L45.6477 21.3636H44.4148L42.7642 27.1903H42.6847L41.0739 21.3636H39.821L38.1903 27.2102H38.1108L36.4602 21.3636H35.2273L37.554 29ZM47.0149 29.0795C47.5071 29.0795 47.9098 28.6768 47.9098 28.1847C47.9098 27.6925 47.5071 27.2898 47.0149 27.2898C46.5227 27.2898 46.12 27.6925 46.12 28.1847C46.12 28.6768 46.5227 29.0795 47.0149 29.0795ZM51.1886 18.8182H50.0153V29H51.1886V18.8182ZM53.3375 29H54.5108V21.3636H53.3375V29ZM53.9341 20.0909C54.3915 20.0909 54.7694 19.733 54.7694 19.2955C54.7694 18.858 54.3915 18.5 53.9341 18.5C53.4767 18.5 53.0989 18.858 53.0989 19.2955C53.0989 19.733 53.4767 20.0909 53.9341 20.0909ZM57.8331 24.4062C57.8331 23.0739 58.6584 22.3182 59.782 22.3182C60.8707 22.3182 61.532 23.0291 61.532 24.2273V29H62.7053V24.1477C62.7053 22.1989 61.6662 21.2642 60.12 21.2642C58.9666 21.2642 58.2507 21.7812 57.8928 22.5568H57.7933V21.3636H56.6598V29H57.8331V24.4062ZM64.8493 29H66.0225V26.1413L66.8429 25.3807L69.7015 29H71.193L67.7278 24.625L70.9544 21.3636H69.5027L66.1618 24.7642H66.0225V18.8182H64.8493V29ZM74.924 29.1687C75.8917 29.1687 76.6996 28.3786 76.6996 27.3931C76.6996 26.4254 75.8917 25.6264 74.924 25.6264C73.9474 25.6264 73.1484 26.4254 73.1484 27.3931C73.1484 28.3786 73.9474 29.1687 74.924 29.1687ZM82.0041 29.1687C82.9718 29.1687 83.7797 28.3786 83.7797 27.3931C83.7797 26.4254 82.9718 25.6264 82.0041 25.6264C81.0275 25.6264 80.2285 26.4254 80.2285 27.3931C80.2285 28.3786 81.0275 29.1687 82.0041 29.1687ZM89.0842 29.1687C90.0518 29.1687 90.8597 28.3786 90.8597 27.3931C90.8597 26.4254 90.0518 25.6264 89.0842 25.6264C88.1076 25.6264 87.3086 26.4254 87.3086 27.3931C87.3086 28.3786 88.1076 29.1687 89.0842 29.1687ZM96.9064 29.1591C98.4576 29.1591 99.5911 28.3835 99.949 27.2301L98.8155 26.9119C98.5172 27.7074 97.8262 28.1051 96.9064 28.1051C95.5293 28.1051 94.5797 27.2152 94.525 25.5795H100.068V25.0824C100.068 22.2386 98.378 21.2642 96.7871 21.2642C94.7189 21.2642 93.3468 22.8949 93.3468 25.2415C93.3468 27.5881 94.699 29.1591 96.9064 29.1591ZM94.525 24.5653C94.6046 23.3771 95.4448 22.3182 96.7871 22.3182C98.0598 22.3182 98.8752 23.2727 98.8752 24.5653H94.525ZM103.026 24.4062C103.026 23.0739 103.852 22.3182 104.975 22.3182C106.064 22.3182 106.725 23.0291 106.725 24.2273V29H107.899V24.1477C107.899 22.1989 106.86 21.2642 105.313 21.2642C104.16 21.2642 103.444 21.7812 103.086 22.5568H102.987V21.3636H101.853V29H103.026V24.4062ZM112.926 29.1591C114.398 29.1591 114.895 28.2443 115.153 27.8267H115.293V29H116.426V18.8182H115.253V22.5767H115.153C114.895 22.179 114.438 21.2642 112.946 21.2642C111.017 21.2642 109.685 22.7955 109.685 25.2017C109.685 27.6278 111.017 29.1591 112.926 29.1591ZM113.085 28.1051C111.614 28.1051 110.858 26.8125 110.858 25.1818C110.858 23.571 111.594 22.3182 113.085 22.3182C114.517 22.3182 115.273 23.4716 115.273 25.1818C115.273 26.9119 114.497 28.1051 113.085 28.1051ZM118.738 29H119.911V21.3636H118.738V29ZM119.335 20.0909C119.792 20.0909 120.17 19.733 120.17 19.2955C120.17 18.858 119.792 18.5 119.335 18.5C118.877 18.5 118.499 18.858 118.499 19.2955C118.499 19.733 118.877 20.0909 119.335 20.0909ZM123.233 24.4062C123.233 23.0739 124.059 22.3182 125.182 22.3182C126.271 22.3182 126.932 23.0291 126.932 24.2273V29H128.106V24.1477C128.106 22.1989 127.067 21.2642 125.52 21.2642C124.367 21.2642 123.651 21.7812 123.293 22.5568H123.194V21.3636H122.06V29H123.233V24.4062ZM133.332 32.0227C135.162 32.0227 136.633 31.1875 136.633 29.2188V21.3636H135.5V22.5767H135.38C135.122 22.179 134.645 21.2642 133.153 21.2642C131.224 21.2642 129.892 22.7955 129.892 25.142C129.892 27.5284 131.284 28.8807 133.133 28.8807C134.625 28.8807 135.102 28.0057 135.36 27.5881H135.46V29.1392C135.46 30.4119 134.565 30.9886 133.332 30.9886C131.945 30.9886 131.458 30.2578 131.145 29.8352L130.21 30.4915C130.687 31.2919 131.627 32.0227 133.332 32.0227ZM133.292 27.8267C131.821 27.8267 131.065 26.7131 131.065 25.1222C131.065 23.571 131.801 22.3182 133.292 22.3182C134.724 22.3182 135.48 23.4716 135.48 25.1222C135.48 26.8125 134.704 27.8267 133.292 27.8267Z" fill="#0071BC"/>
</g>
<rect width="144" height="40" transform="translate(0 40)" fill="white"/>
<path d="M14.804 69H15.9574L17.6278 63.1335H17.7472L19.4176 69H20.571L22.8977 61.3636H21.6648L20.0142 67.1903H19.9347L18.3239 61.3636H17.071L15.4403 67.2102H15.3608L13.7102 61.3636H12.4773L14.804 69ZM26.179 69H27.3324L29.0028 63.1335H29.1222L30.7926 69H31.946L34.2727 61.3636H33.0398L31.3892 67.1903H31.3097L29.6989 61.3636H28.446L26.8153 67.2102H26.7358L25.0852 61.3636H23.8523L26.179 69ZM37.554 69H38.7074L40.3778 63.1335H40.4972L42.1676 69H43.321L45.6477 61.3636H44.4148L42.7642 67.1903H42.6847L41.0739 61.3636H39.821L38.1903 67.2102H38.1108L36.4602 61.3636H35.2273L37.554 69ZM47.0149 69.0795C47.5071 69.0795 47.9098 68.6768 47.9098 68.1847C47.9098 67.6925 47.5071 67.2898 47.0149 67.2898C46.5227 67.2898 46.12 67.6925 46.12 68.1847C46.12 68.6768 46.5227 69.0795 47.0149 69.0795ZM51.1886 58.8182H50.0153V69H51.1886V58.8182ZM56.4398 69.1591C58.508 69.1591 59.9 67.5881 59.9 65.2216C59.9 62.8352 58.508 61.2642 56.4398 61.2642C54.3716 61.2642 52.9796 62.8352 52.9796 65.2216C52.9796 67.5881 54.3716 69.1591 56.4398 69.1591ZM56.4398 68.1051C54.8688 68.1051 54.1529 66.7528 54.1529 65.2216C54.1529 63.6903 54.8688 62.3182 56.4398 62.3182C58.0108 62.3182 58.7267 63.6903 58.7267 65.2216C58.7267 66.7528 58.0108 68.1051 56.4398 68.1051ZM62.8643 64.4062C62.8643 63.0739 63.6896 62.3182 64.8132 62.3182C65.902 62.3182 66.5632 63.0291 66.5632 64.2273V69H67.7365V64.1477C67.7365 62.1989 66.6974 61.2642 65.1513 61.2642C63.9979 61.2642 63.282 61.7812 62.924 62.5568H62.8246V61.3636H61.6911V69H62.8643V64.4062ZM72.9629 72.0227C74.7924 72.0227 76.264 71.1875 76.264 69.2188V61.3636H75.1305V62.5767H75.0112C74.7527 62.179 74.2754 61.2642 72.7839 61.2642C70.8549 61.2642 69.5225 62.7955 69.5225 65.142C69.5225 67.5284 70.9146 68.8807 72.764 68.8807C74.2555 68.8807 74.7328 68.0057 74.9913 67.5881H75.0907V69.1392C75.0907 70.4119 74.1958 70.9886 72.9629 70.9886C71.5758 70.9886 71.0886 70.2578 70.7754 69.8352L69.8407 70.4915C70.318 71.2919 71.2576 72.0227 72.9629 72.0227ZM72.9231 67.8267C71.4515 67.8267 70.6958 66.7131 70.6958 65.1222C70.6958 63.571 71.4316 62.3182 72.9231 62.3182C74.3549 62.3182 75.1106 63.4716 75.1106 65.1222C75.1106 66.8125 74.335 67.8267 72.9231 67.8267ZM79.585 58.8182H78.4118V69H79.585V58.8182ZM81.734 69H82.9073V61.3636H81.734V69ZM82.3306 60.0909C82.788 60.0909 83.1658 59.733 83.1658 59.2955C83.1658 58.858 82.788 58.5 82.3306 58.5C81.8732 58.5 81.4954 58.858 81.4954 59.2955C81.4954 59.733 81.8732 60.0909 82.3306 60.0909ZM86.2296 64.4062C86.2296 63.0739 87.0549 62.3182 88.1784 62.3182C89.2672 62.3182 89.9284 63.0291 89.9284 64.2273V69H91.1017V64.1477C91.1017 62.1989 90.0627 61.2642 88.5165 61.2642C87.3631 61.2642 86.6472 61.7812 86.2892 62.5568H86.1898V61.3636H85.0563V69H86.2296V64.4062ZM93.2457 69H94.419V66.1413L95.2393 65.3807L98.098 69H99.5895L96.1243 64.625L99.3509 61.3636H97.8991L94.5582 64.7642H94.419V58.8182H93.2457V69ZM103.32 69.1687C104.288 69.1687 105.096 68.3786 105.096 67.3931C105.096 66.4254 104.288 65.6264 103.32 65.6264C102.344 65.6264 101.545 66.4254 101.545 67.3931C101.545 68.3786 102.344 69.1687 103.32 69.1687ZM110.401 69.1687C111.368 69.1687 112.176 68.3786 112.176 67.3931C112.176 66.4254 111.368 65.6264 110.401 65.6264C109.424 65.6264 108.625 66.4254 108.625 67.3931C108.625 68.3786 109.424 69.1687 110.401 69.1687ZM117.481 69.1687C118.448 69.1687 119.256 68.3786 119.256 67.3931C119.256 66.4254 118.448 65.6264 117.481 65.6264C116.504 65.6264 115.705 66.4254 115.705 67.3931C115.705 68.3786 116.504 69.1687 117.481 69.1687Z" fill="#0071BC"/>
<defs>
<filter id="filter0_i" x="0" y="0" width="144" height="40" filterUnits="userSpaceOnUse" color-interpolation-filters="sRGB">
<feFlood flood-opacity="0" result="BackgroundImageFix"/>
<feBlend mode="normal" in="SourceGraphic" in2="BackgroundImageFix" result="shape"/>
<feColorMatrix in="SourceAlpha" type="matrix" values="0 0 0 0 0 0 0 0 0 0 0 0 0 0 0 0 0 0 127 0" result="hardAlpha"/>
<feOffset dy="-1"/>
<feComposite in2="hardAlpha" operator="arithmetic" k2="-1" k3="1"/>
<feColorMatrix type="matrix" values="0 0 0 0 0.870588 0 0 0 0 0.890196 0 0 0 0 0.898039 0 0 0 1 0"/>
<feBlend mode="normal" in2="shape" result="effect1_innerShadow"/>
</filter>
</defs>
</svg>
