<svg width="144" height="80" viewBox="0 0 144 80" fill="none" xmlns="http://www.w3.org/2000/svg">
<rect width="144" height="80" fill="#F6F7F8"/>
<rect width="72" height="40" transform="translate(72 40)" fill="#CACDD2"/>
<path d="M84.6761 55.9119H87.8778V65H89.1108V55.9119H92.3125V54.8182H84.6761V55.9119ZM94.2154 65H95.4483V60.446H100.877V65H102.11V54.8182H100.877V59.3523H95.4483V54.8182H94.2154V65Z" fill="#333333"/>
<path d="M109 57H119V55H109V57Z" fill="#64787E"/>
<path d="M109 61H115V58.999H109V61Z" fill="#64787E"/>
<path d="M112 65H109V63H112V65Z" fill="#64787E"/>
<g filter="url(#filter0_i)">
<rect width="72" height="40" transform="translate(0 40)" fill="#E5E6E8"/>
<path d="M12.6761 55.9119H15.8778V65H17.1108V55.9119H20.3125V54.8182H12.6761V55.9119ZM22.2154 65H23.4483V60.446H28.8773V65H30.1103V54.8182H28.8773V59.3523H23.4483V54.8182H22.2154V65Z" fill="#333333"/>
<path d="M37 57H47V55H37V57Z" fill="#A6B0B3"/>
<path d="M37 61H43V58.999H37V61Z" fill="#A6B0B3"/>
<path d="M40 65H37V63H40V65Z" fill="#A6B0B3"/>
</g>
<g filter="url(#filter1_i)">
<rect width="144" height="40" fill="#E5E6E8"/>
<g clip-path="url(#clip0)">
<path d="M29.097 18C28.7192 15.9119 27.0487 14.679 25.0004 14.679C22.3953 14.679 20.5061 16.6875 20.5061 19.9091C20.5061 23.1307 22.3953 25.1392 25.0004 25.1392C27.0487 25.1392 28.7192 23.9062 29.097 21.8182H27.8641C27.5658 23.2301 26.3527 23.9858 25.0004 23.9858C23.151 23.9858 21.6993 22.554 21.6993 19.9091C21.6993 17.2642 23.151 15.8324 25.0004 15.8324C26.3527 15.8324 27.5658 16.5881 27.8641 18H29.097ZM34.0326 25.1591C36.1008 25.1591 37.4928 23.5881 37.4928 21.2216C37.4928 18.8352 36.1008 17.2642 34.0326 17.2642C31.9644 17.2642 30.5724 18.8352 30.5724 21.2216C30.5724 23.5881 31.9644 25.1591 34.0326 25.1591ZM34.0326 24.1051C32.4616 24.1051 31.7456 22.7528 31.7456 21.2216C31.7456 19.6903 32.4616 18.3182 34.0326 18.3182C35.6036 18.3182 36.3195 19.6903 36.3195 21.2216C36.3195 22.7528 35.6036 24.1051 34.0326 24.1051ZM40.4571 14.8182H39.2838V25H40.4571V14.8182ZM49.626 28.0227C51.4555 28.0227 52.9271 27.1875 52.9271 25.2188V17.3636H51.7936V18.5767H51.6743C51.4157 18.179 50.9385 17.2642 49.447 17.2642C47.518 17.2642 46.1856 18.7955 46.1856 21.142C46.1856 23.5284 47.5777 24.8807 49.4271 24.8807C50.9186 24.8807 51.3959 24.0057 51.6544 23.5881H51.7538V25.1392C51.7538 26.4119 50.8589 26.9886 49.626 26.9886C48.2389 26.9886 47.7517 26.2578 47.4385 25.8352L46.5038 26.4915C46.9811 27.2919 47.9207 28.0227 49.626 28.0227ZM49.5862 23.8267C48.1146 23.8267 47.3589 22.7131 47.3589 21.1222C47.3589 19.571 48.0947 18.3182 49.5862 18.3182C51.018 18.3182 51.7737 19.4716 51.7737 21.1222C51.7737 22.8125 50.9981 23.8267 49.5862 23.8267ZM55.0748 25H56.2481V20.1676C56.2481 19.1335 57.0635 18.3778 58.1771 18.3778C58.4903 18.3778 58.8135 18.4375 58.893 18.4574V17.2642C58.7588 17.2543 58.4506 17.2443 58.2765 17.2443C57.3618 17.2443 56.5663 17.7614 56.2879 18.517H56.2084V17.3636H55.0748V25ZM63.1537 25.1591C65.2219 25.1591 66.6139 23.5881 66.6139 21.2216C66.6139 18.8352 65.2219 17.2642 63.1537 17.2642C61.0855 17.2642 59.6934 18.8352 59.6934 21.2216C59.6934 23.5881 61.0855 25.1591 63.1537 25.1591ZM63.1537 24.1051C61.5827 24.1051 60.8667 22.7528 60.8667 21.2216C60.8667 19.6903 61.5827 18.3182 63.1537 18.3182C64.7247 18.3182 65.4406 19.6903 65.4406 21.2216C65.4406 22.7528 64.7247 24.1051 63.1537 24.1051ZM73.2174 21.8778C73.2174 23.3097 72.1237 23.9659 71.2487 23.9659C70.2742 23.9659 69.5782 23.25 69.5782 22.1364V17.3636H68.4049V22.2159C68.4049 24.1648 69.439 25.0994 70.8708 25.0994C72.0242 25.0994 72.7799 24.483 73.1379 23.7074H73.2174V25H74.3907V17.3636H73.2174V21.8778ZM76.5397 27.8636H77.713V23.8267H77.8124C78.0709 24.2443 78.5681 25.1591 80.0397 25.1591C81.9488 25.1591 83.2812 23.6278 83.2812 21.2017C83.2812 18.7955 81.9488 17.2642 80.0198 17.2642C78.5283 17.2642 78.0709 18.179 77.8124 18.5767H77.6732V17.3636H76.5397V27.8636ZM77.6931 21.1818C77.6931 19.4716 78.4488 18.3182 79.8806 18.3182C81.3721 18.3182 82.1079 19.571 82.1079 21.1818C82.1079 22.8125 81.3522 24.1051 79.8806 24.1051C78.4687 24.1051 77.6931 22.9119 77.6931 21.1818ZM90.1817 20.4062C90.1817 19.0739 91.007 18.3182 92.1306 18.3182C93.2194 18.3182 93.8806 19.0291 93.8806 20.2273V25H95.0539V20.1477C95.0539 18.1989 94.0148 17.2642 92.4687 17.2642C91.3153 17.2642 90.5993 17.7812 90.2414 18.5568H90.142V17.3636H89.0084V25H90.1817V20.4062ZM99.445 25.179C100.777 25.179 101.473 24.4631 101.712 23.9659H101.772V25H102.945V19.9688C102.945 17.5426 101.096 17.2642 100.121 17.2642C98.9678 17.2642 97.6553 17.6619 97.0587 19.054L98.1723 19.4517C98.4308 18.8949 99.0423 18.2983 100.161 18.2983C101.24 18.2983 101.772 18.87 101.772 19.8494V19.8892C101.772 20.456 101.195 20.4062 99.803 20.5852C98.3861 20.7692 96.8399 21.0824 96.8399 22.8324C96.8399 24.3239 97.9933 25.179 99.445 25.179ZM99.624 24.125C98.6894 24.125 98.0132 23.7074 98.0132 22.892C98.0132 21.9972 98.8286 21.7188 99.7433 21.5994C100.241 21.5398 101.573 21.4006 101.772 21.1619V22.2358C101.772 23.1903 101.016 24.125 99.624 24.125ZM105.087 25H106.26V20.2273C106.26 19.1087 107.075 18.3182 107.99 18.3182C108.88 18.3182 109.501 18.8999 109.501 19.7699V25H110.695V20.0284C110.695 19.044 111.311 18.3182 112.385 18.3182C113.22 18.3182 113.936 18.7607 113.936 19.8892V25H115.109V19.8892C115.109 18.0945 114.145 17.2642 112.783 17.2642C111.689 17.2642 110.888 17.7663 110.496 18.5568H110.416C110.038 17.7415 109.372 17.2642 108.368 17.2642C107.373 17.2642 106.638 17.7415 106.32 18.5568H106.22V17.3636H105.087V25ZM120.456 25.1591C122.007 25.1591 123.141 24.3835 123.499 23.2301L122.365 22.9119C122.067 23.7074 121.376 24.1051 120.456 24.1051C119.079 24.1051 118.13 23.2152 118.075 21.5795H123.618V21.0824C123.618 18.2386 121.928 17.2642 120.337 17.2642C118.269 17.2642 116.897 18.8949 116.897 21.2415C116.897 23.5881 118.249 25.1591 120.456 25.1591ZM118.075 20.5653C118.154 19.3771 118.995 18.3182 120.337 18.3182C121.61 18.3182 122.425 19.2727 122.425 20.5653H118.075Z" fill="#333333"/>
</g>
</g>
<defs>
<filter id="filter0_i" x="0" y="40" width="72" height="40" filterUnits="userSpaceOnUse" color-interpolation-filters="sRGB">
<feFlood flood-opacity="0" result="BackgroundImageFix"/>
<feBlend mode="normal" in="SourceGraphic" in2="BackgroundImageFix" result="shape"/>
<feColorMatrix in="SourceAlpha" type="matrix" values="0 0 0 0 0 0 0 0 0 0 0 0 0 0 0 0 0 0 127 0" result="hardAlpha"/>
<feOffset dx="-1"/>
<feComposite in2="hardAlpha" operator="arithmetic" k2="-1" k3="1"/>
<feColorMatrix type="matrix" values="0 0 0 0 0.870588 0 0 0 0 0.890196 0 0 0 0 0.898039 0 0 0 1 0"/>
<feBlend mode="normal" in2="shape" result="effect1_innerShadow"/>
</filter>
<filter id="filter1_i" x="0" y="0" width="144" height="40" filterUnits="userSpaceOnUse" color-interpolation-filters="sRGB">
<feFlood flood-opacity="0" result="BackgroundImageFix"/>
<feBlend mode="normal" in="SourceGraphic" in2="BackgroundImageFix" result="shape"/>
<feColorMatrix in="SourceAlpha" type="matrix" values="0 0 0 0 0 0 0 0 0 0 0 0 0 0 0 0 0 0 127 0" result="hardAlpha"/>
<feOffset dy="-1"/>
<feComposite in2="hardAlpha" operator="arithmetic" k2="-1" k3="1"/>
<feColorMatrix type="matrix" values="0 0 0 0 0.870588 0 0 0 0 0.890196 0 0 0 0 0.898039 0 0 0 1 0"/>
<feBlend mode="normal" in2="shape" result="effect1_innerShadow"/>
</filter>
<clipPath id="clip0">
<rect width="105" height="20" fill="white" transform="translate(19.5 10)"/>
</clipPath>
</defs>
</svg>
