<svg width="144" height="80" viewBox="0 0 144 80" fill="none" xmlns="http://www.w3.org/2000/svg">
<rect width="144" height="80" fill="white"/>
<rect x="32" y="51" width="80" height="8" rx="4" fill="#DEE3E5"/>
<rect x="48" y="67" width="48" height="8" rx="4" fill="#DEE3E5"/>
<path fill-rule="evenodd" clip-rule="evenodd" d="M90.3846 8H52.6923C51.2054 8 50 9.20539 50 10.6923V40.3077C50 41.7946 51.2054 43 52.6923 43H90.3846C91.8715 43 93.0769 41.7946 93.0769 40.3077V10.6923C93.0769 9.20539 91.8715 8 90.3846 8ZM51.3466 10.691C51.3466 9.94751 51.9493 9.34482 52.6927 9.34482H90.385C91.1285 9.34482 91.7312 9.94751 91.7312 10.691V40.3064C91.7312 41.0498 91.1285 41.6525 90.385 41.6525H52.6927C51.9493 41.6525 51.3466 41.0498 51.3466 40.3064V10.691Z" fill="#BDC4C6"/>
<path d="M51.3467 10.3447C51.3467 9.79244 51.7944 9.34473 52.3467 9.34473H90.7313C91.2836 9.34473 91.7313 9.79244 91.7313 10.3447V17.4216H51.3467V10.3447Z" fill="#F2F3F4"/>
<path d="M52.6895 29.5386C52.6895 29.1668 52.9908 28.8655 53.3625 28.8655H89.7087C90.0804 28.8655 90.3818 29.1668 90.3818 29.5386C90.3818 29.9103 90.0804 30.2116 89.7087 30.2116H53.3625C52.9908 30.2116 52.6895 29.9103 52.6895 29.5386Z" fill="#BDC4C6"/>
<rect x="78.269" y="18.769" width="1.34615" height="21.5385" rx="0.673077" fill="#BDC4C6"/>
<rect x="63.4619" y="18.769" width="1.34615" height="21.5385" rx="0.673077" fill="#BDC4C6"/>
<rect x="85" y="12.0388" width="4.03846" height="1.34615" rx="0.673077" fill="#BDC4C6"/>
<rect x="64.8105" y="12.0388" width="17.5" height="1.34615" rx="0.673077" fill="#BDC4C6"/>
</svg>
