<svg width="144" height="80" viewBox="0 0 144 80" fill="none" xmlns="http://www.w3.org/2000/svg">
<rect width="144" height="80" fill="white"/>
<rect x="32" y="51" width="80" height="8" rx="4" fill="#DEE3E5"/>
<rect x="48" y="67" width="48" height="8" rx="4" fill="#DEE3E5"/>
<path fill-rule="evenodd" clip-rule="evenodd" d="M66.4954 37.9396C66.5614 37.9385 66.6238 37.9697 66.6625 38.0232C66.9341 38.3435 67.2126 38.6359 67.512 38.9423C67.5758 39.0079 67.5946 39.1051 67.5598 39.1898C67.525 39.2744 67.4433 39.3304 67.3518 39.3322H55.9191C55.4131 39.3284 55.0038 38.9191 55 38.4131V8.91908C55.0038 8.41306 55.4131 8.00379 55.9191 8H75.1918C75.2828 8.0011 75.3727 8.02002 75.4564 8.0557C75.5419 8.08884 75.62 8.13853 75.6862 8.20192L82.6489 15.1646C82.7123 15.2308 82.762 15.3089 82.7951 15.3944C82.8308 15.4781 82.8497 15.568 82.8508 15.659V21.3962C82.8509 21.4819 82.8018 21.5601 82.7246 21.5972C82.6473 21.6343 82.5557 21.6239 82.4888 21.5703C82.1894 21.3475 81.883 21.1386 81.5627 20.9437C81.4989 20.9022 81.4598 20.8318 81.4583 20.7557V16.5781C81.4547 16.4565 81.357 16.3589 81.2355 16.3552H75.4147C74.9086 16.3515 74.4994 15.9422 74.4956 15.4362V9.61535C74.4919 9.49383 74.3943 9.39617 74.2728 9.39254H56.6153C56.4938 9.39617 56.3962 9.49383 56.3925 9.61535V37.7168C56.3962 37.8384 56.4938 37.936 56.6153 37.9396H66.4954ZM76.0372 10.7281C75.9548 10.7566 75.8966 10.8305 75.8882 10.9172V14.7397C75.8918 14.8612 75.9895 14.9589 76.111 14.9625H79.9057C79.9974 14.9647 80.0811 14.9104 80.1165 14.8257C80.1519 14.7411 80.1318 14.6434 80.0658 14.5796L76.2712 10.7849C76.211 10.7219 76.1196 10.6997 76.0372 10.7281Z" fill="#BDC4C6"/>
<path d="M59.875 16.7873H69.6228C70.0073 16.7873 70.319 16.4756 70.319 16.091C70.319 15.7065 70.0073 15.3948 69.6228 15.3948H59.875C59.4904 15.3948 59.1787 15.7065 59.1787 16.091C59.1787 16.4756 59.4904 16.7873 59.875 16.7873Z" fill="#BDC4C6"/>
<path d="M66.2598 21.7788H59.875C59.4904 21.7788 59.1787 22.0905 59.1787 22.4751C59.1787 22.8596 59.4904 23.1714 59.875 23.1714H66.2598C66.6443 23.1714 66.9561 22.8596 66.9561 22.4751C66.9561 22.0905 66.6443 21.7788 66.2598 21.7788Z" fill="#BDC4C6"/>
<path d="M66.2598 24.9751H59.875C59.4904 24.9751 59.1787 25.2868 59.1787 25.6714C59.1787 26.0559 59.4904 26.3676 59.875 26.3676H66.2598C66.6443 26.3676 66.9561 26.0559 66.9561 25.6714C66.9561 25.2868 66.6443 24.9751 66.2598 24.9751Z" fill="#BDC4C6"/>
<path d="M75.8892 19.2868C75.8892 18.9023 75.5775 18.5906 75.1929 18.5906H59.875C59.4904 18.5906 59.1787 18.9023 59.1787 19.2868C59.1787 19.6714 59.4904 19.9831 59.875 19.9831H75.1929C75.5775 19.9831 75.8892 19.6714 75.8892 19.2868Z" fill="#BDC4C6"/>
<path d="M77.5231 26.9388C77.3009 26.7125 77.0325 26.5368 76.7363 26.4236C76.3365 26.2715 75.9105 26.2005 75.483 26.2147C75.0651 26.2128 74.6486 26.2643 74.2436 26.3678C73.8704 26.4687 73.5104 26.6136 73.1714 26.7995L73.6031 27.9623C73.8709 27.8136 74.1562 27.699 74.4525 27.6211C74.7286 27.5405 75.0144 27.4983 75.302 27.4958C75.612 27.471 75.9193 27.5685 76.1584 27.7674C76.3517 27.9459 76.4562 28.2008 76.4439 28.4636C76.4484 28.6562 76.4002 28.8464 76.3046 29.0137C76.2084 29.1933 76.089 29.3595 75.9495 29.508C75.8033 29.6682 75.6501 29.8214 75.49 29.9815C75.3237 30.1432 75.1679 30.3153 75.0235 30.4967C74.8774 30.6786 74.7579 30.8802 74.6684 31.0955C74.5735 31.3323 74.5262 31.5855 74.5291 31.8405C74.5223 31.9286 74.5223 32.0171 74.5291 32.1051C74.5291 32.2026 74.5291 32.2931 74.5639 32.3767H75.8868C75.8834 32.3257 75.8834 32.2745 75.8868 32.2235V32.0773C75.8788 31.8352 75.934 31.5952 76.047 31.381C76.1549 31.1749 76.2882 30.983 76.4439 30.8101C76.604 30.629 76.7781 30.455 76.9661 30.2809C77.1507 30.1103 77.3251 29.929 77.4883 29.7378C77.6462 29.5463 77.7795 29.3358 77.8851 29.1112C77.9935 28.8705 78.0481 28.6092 78.0453 28.3453C78.0383 28.1093 78.0008 27.8753 77.9339 27.649C77.8545 27.3833 77.7138 27.14 77.5231 26.9388Z" fill="#BDC4C6"/>
<path d="M75.2751 33.2739C75.0158 33.2739 74.7665 33.3737 74.5788 33.5524C74.3911 33.7354 74.2855 33.9866 74.2864 34.2487C74.2805 34.5118 74.3868 34.765 74.5788 34.945C74.7665 35.1238 75.0158 35.2235 75.2751 35.2235C75.5346 35.225 75.7844 35.125 75.9713 34.945C76.1633 34.765 76.2697 34.5118 76.2638 34.2487C76.2646 33.9866 76.1591 33.7354 75.9713 33.5524C75.7844 33.3724 75.5346 33.2725 75.2751 33.2739Z" fill="#BDC4C6"/>
<path fill-rule="evenodd" clip-rule="evenodd" d="M84.2442 35.8507L88.8466 39.9309C89.2216 40.2936 89.4362 40.791 89.4427 41.3127C89.4493 41.8344 89.2472 42.337 88.8814 42.709L88.6725 42.9179C88.3049 43.2904 87.8033 43.5001 87.28 43.5001C86.7566 43.5001 86.2551 43.2904 85.8874 42.9179L81.3477 38.8934L80.9578 38.5453L80.1989 37.849C79.7052 38.169 79.1775 38.4328 78.6253 38.6358C77.6632 38.995 76.6445 39.179 75.6174 39.1789C73.6379 39.1802 71.719 38.4963 70.1865 37.2433C69.3549 36.5671 68.6581 35.7404 68.1325 34.8063C67.8758 34.3633 67.6613 33.8971 67.492 33.4138C66.4417 30.4133 67.1356 27.078 69.2953 24.7452C69.6073 24.3995 69.9499 24.0825 70.3188 23.7983C73.4087 21.3772 77.7454 21.3539 80.8612 23.7416C83.977 26.1293 85.0822 30.3228 83.548 33.936C83.4216 34.2526 83.2726 34.5598 83.1024 34.8551L83.548 35.252L84.2442 35.8507ZM69.7745 34.8054C70.5653 35.8884 71.64 36.7317 72.8799 37.2424C74.6322 37.9665 76.6002 37.9665 78.3526 37.2424C81.0686 36.1326 82.8454 33.4922 82.8505 30.5582C82.8514 29.4976 82.6134 28.4505 82.1542 27.4946C81.5248 26.1672 80.5043 25.0642 79.2299 24.3335C78.7517 24.0405 78.2396 23.8067 77.705 23.6372C77.0289 23.4258 76.3246 23.3178 75.6162 23.317C73.9809 23.3187 72.3956 23.8816 71.1253 24.9114C70.7578 25.1977 70.4217 25.5221 70.1226 25.8792C68.3362 27.9674 67.8957 30.8911 68.9877 33.4129C69.1961 33.9055 69.4601 34.3727 69.7745 34.8054ZM83.1218 38.5797L82.4255 37.9809L82.2584 37.8347L81.3115 36.9922C81.6596 36.6859 81.9811 36.3505 82.2723 35.9896L83.1287 36.7555L83.3794 36.9783L84.0269 37.5493L83.1218 38.5797ZM87.6487 41.9016L87.8576 41.6927C87.9646 41.5944 88.0279 41.4573 88.0331 41.3121C88.0384 41.1668 87.9851 41.0255 87.8854 40.9198L85.1003 38.4759L84.1673 39.4994L86.8758 41.9016C86.9778 42.0049 87.117 42.063 87.2622 42.063C87.4075 42.063 87.5466 42.0049 87.6487 41.9016Z" fill="#BDC4C6"/>
</svg>
