<svg width="144" height="80" viewBox="0 0 144 80" fill="none" xmlns="http://www.w3.org/2000/svg">
<path d="M0 30C0 28.3431 1.34315 27 3 27H23C24.6569 27 26 28.3431 26 30V50C26 51.6569 24.6569 53 23 53H3C1.34315 53 0 51.6569 0 50V30Z" fill="#A6B0B3" fill-opacity="0.1"/>
<path fill-rule="evenodd" clip-rule="evenodd" d="M14.5 34L9 39.499L14.5 44.999L16 43.499L11.999 39.499L16 35.5L14.5 34Z" fill="#757575"/>
<path d="M3 28H23V26H3V28ZM25 30V50H27V30H25ZM23 52H3V54H23V52ZM1 50V30H-1V50H1ZM3 52C1.89543 52 1 51.1046 1 50H-1C-1 52.2091 0.790862 54 3 54V52ZM25 50C25 51.1046 24.1046 52 23 52V54C25.2091 54 27 52.2091 27 50H25ZM23 28C24.1046 28 25 28.8954 25 30H27C27 27.7909 25.2091 26 23 26V28ZM3 26C0.790861 26 -1 27.7909 -1 30H1C1 28.8954 1.89543 28 3 28V26Z" fill="#A6B0B3"/>
<path d="M30 30C30 28.3431 31.3431 27 33 27H53C54.6569 27 56 28.3431 56 30V50C56 51.6569 54.6569 53 53 53H33C31.3431 53 30 51.6569 30 50V30Z" fill="#2B94E1"/>
<path fill-rule="evenodd" clip-rule="evenodd" d="M41.5 34L40 35.499L44.001 39.5L40 43.499L41.5 44.999L47 39.5L41.5 34Z" fill="white"/>
<path d="M69.0568 44H70.1136V40.8125H72.0227C74.0554 40.8125 74.9716 39.5767 74.9716 38.0341C74.9716 36.4915 74.0554 35.2727 72.0057 35.2727H69.0568V44ZM70.1136 39.875V36.2102H71.9716C73.3906 36.2102 73.9318 36.9858 73.9318 38.0341C73.9318 39.0824 73.3906 39.875 71.9886 39.875H70.1136ZM78.4638 44.1534C79.6058 44.1534 80.2024 43.5398 80.407 43.1136H80.4581V44H81.4638V39.6875C81.4638 37.608 79.8786 37.3693 79.0433 37.3693C78.0547 37.3693 76.9297 37.7102 76.4183 38.9034L77.3729 39.2443C77.5945 38.767 78.1186 38.2557 79.0774 38.2557C80.0021 38.2557 80.4581 38.7457 80.4581 39.5852V39.6193C80.4581 40.1051 79.9638 40.0625 78.7706 40.2159C77.5561 40.3736 76.2308 40.642 76.2308 42.142C76.2308 43.4205 77.2195 44.1534 78.4638 44.1534ZM78.6172 43.25C77.8161 43.25 77.2365 42.892 77.2365 42.1932C77.2365 41.4261 77.9354 41.1875 78.7195 41.0852C79.1456 41.0341 80.2876 40.9148 80.4581 40.7102V41.6307C80.4581 42.4489 79.8104 43.25 78.6172 43.25ZM85.9414 46.5909C87.5096 46.5909 88.771 45.875 88.771 44.1875V37.4545H87.7994V38.4943H87.6971C87.4755 38.1534 87.0664 37.3693 85.788 37.3693C84.1346 37.3693 82.9925 38.6818 82.9925 40.6932C82.9925 42.7386 84.1857 43.8977 85.771 43.8977C87.0494 43.8977 87.4585 43.1477 87.68 42.7898H87.7653V44.1193C87.7653 45.2102 86.9982 45.7045 85.9414 45.7045C84.7525 45.7045 84.3349 45.0781 84.0664 44.7159L83.2653 45.2784C83.6744 45.9645 84.4798 46.5909 85.9414 46.5909ZM85.9073 42.9943C84.646 42.9943 83.9982 42.0398 83.9982 40.6761C83.9982 39.3466 84.6289 38.2727 85.9073 38.2727C87.1346 38.2727 87.7823 39.2614 87.7823 40.6761C87.7823 42.125 87.1175 42.9943 85.9073 42.9943ZM93.3562 44.1364C94.6857 44.1364 95.6573 43.4716 95.9641 42.483L94.9925 42.2102C94.7369 42.892 94.1445 43.233 93.3562 43.233C92.1758 43.233 91.3619 42.4702 91.315 41.0682H96.0664V40.642C96.0664 38.2045 94.6175 37.3693 93.2539 37.3693C91.4812 37.3693 90.305 38.767 90.305 40.7784C90.305 42.7898 91.4641 44.1364 93.3562 44.1364ZM91.315 40.1989C91.3832 39.1804 92.1033 38.2727 93.2539 38.2727C94.3448 38.2727 95.0437 39.0909 95.0437 40.1989H91.315ZM98.3292 44.0682C98.7511 44.0682 99.0962 43.723 99.0962 43.3011C99.0962 42.8793 98.7511 42.5341 98.3292 42.5341C97.9073 42.5341 97.5621 42.8793 97.5621 43.3011C97.5621 43.723 97.9073 44.0682 98.3292 44.0682ZM98.3292 39.2102C98.7511 39.2102 99.0962 38.8651 99.0962 38.4432C99.0962 38.0213 98.7511 37.6761 98.3292 37.6761C97.9073 37.6761 97.5621 38.0213 97.5621 38.4432C97.5621 38.8651 97.9073 39.2102 98.3292 39.2102Z" fill="#333333"/>
<path d="M104 30C104 28.3431 105.343 27 107 27H141C142.657 27 144 28.3431 144 30V50C144 51.6569 142.657 53 141 53H107C105.343 53 104 51.6569 104 50V30Z" fill="white"/>
<path d="M107 28H141V26H107V28ZM143 30V50H145V30H143ZM141 52H107V54H141V52ZM105 50V30H103V50H105ZM107 52C105.895 52 105 51.1046 105 50H103C103 52.2091 104.791 54 107 54V52ZM143 50C143 51.1046 142.105 52 141 52V54C143.209 54 145 52.2091 145 50H143ZM141 28C142.105 28 143 28.8954 143 30H145C145 27.7909 143.209 26 141 26V28ZM107 26C104.791 26 103 27.7909 103 30H105C105 28.8954 105.895 28 107 28V26Z" fill="#A6B0B3"/>
<path d="M116.972 35.2727H115.915L113.733 36.7216V37.7955L115.864 36.3807H115.915V44H116.972V35.2727Z" fill="#333333"/>
</svg>
