<svg width="144" height="80" viewBox="0 0 144 80" fill="none" xmlns="http://www.w3.org/2000/svg">
<rect width="144" height="80" fill="white"/>
<rect x="32" y="51" width="80" height="8" rx="4" fill="#DEE3E5"/>
<rect x="48" y="67" width="48" height="8" rx="4" fill="#DEE3E5"/>
<path fill-rule="evenodd" clip-rule="evenodd" d="M90.3781 43.78C92.3959 43.78 93.2047 42.1903 92.6249 40.4309L74.6508 9.17291C73.2109 7.60903 71.5973 7.60903 70.1573 9.17291L52.1833 40.4309C51.6034 42.3888 52.4122 43.78 54.43 43.78H90.3781ZM73.56 9.98347L91.38 40.9735C91.6516 41.9198 91.2978 42.4321 90.3764 42.4321H54.4283C53.4475 42.4321 53.1486 42.0319 53.4335 40.958L71.2446 9.98347C72.0718 9.13648 72.7329 9.13648 73.56 9.98347Z" fill="#BDC4C6"/>
<path fill-rule="evenodd" clip-rule="evenodd" d="M63.268 38.5563H60.9765C60.235 38.5563 59.9768 38.189 60.192 37.3923L71.3926 17.9137C71.9927 17.2917 72.523 17.2917 73.123 17.9137L84.3283 37.4005C84.5393 38.1127 84.2454 38.5563 83.5392 38.5563H70.6946C70.3223 38.5563 70.0206 38.858 70.0206 39.2303C70.0206 39.6025 70.3223 39.9043 70.6946 39.9043H83.5392C85.2361 39.9043 86.109 38.4936 85.5895 36.9173L85.5336 36.7923L74.2523 17.1733L74.1638 17.0528C72.9931 15.7812 71.5226 15.7812 70.3518 17.0528L70.2634 17.1733L58.982 36.7923C58.9558 36.8379 58.935 36.8864 58.9201 36.9369C58.4257 38.6062 59.2625 39.9043 60.9765 39.9043H63.268C63.6403 39.9043 63.942 39.6025 63.942 39.2303C63.942 38.858 63.6403 38.5563 63.268 38.5563ZM65.3989 39.2312C65.3989 39.6034 65.7007 39.9052 66.0729 39.9052H68.3525C68.7248 39.9052 69.0265 39.6034 69.0265 39.2312C69.0265 38.8589 68.7248 38.5572 68.3525 38.5572H66.0729C65.7007 38.5572 65.3989 38.8589 65.3989 39.2312Z" fill="#BDC4C6"/>
<path fill-rule="evenodd" clip-rule="evenodd" d="M72.4025 24.2332C71.658 24.2332 71.0544 24.8367 71.0544 25.5812V29.6254C71.0544 30.3699 71.658 30.9734 72.4025 30.9734C73.147 30.9734 73.7505 30.3699 73.7505 29.6254V25.5812C73.7505 24.8367 73.147 24.2332 72.4025 24.2332ZM73.7479 33.6692C73.7479 34.4137 73.1443 35.0172 72.3998 35.0172C71.6553 35.0172 71.0518 34.4137 71.0518 33.6692C71.0518 32.9246 71.6553 32.3211 72.3998 32.3211C73.1443 32.3211 73.7479 32.9246 73.7479 33.6692Z" fill="#BDC4C6"/>
</svg>
