<svg width="144" height="80" viewBox="0 0 144 80" fill="none" xmlns="http://www.w3.org/2000/svg">
<rect width="144" height="80" fill="#F6F7F8"/>
<g filter="url(#filter0_ii)">
<rect width="40" height="40" fill="#E5E6E8"/>
<path d="M12 15C12 13.8954 12.8954 13 14 13H26C27.1046 13 28 13.8954 28 15V27C28 28.1046 27.1046 29 26 29H14C12.8954 29 12 28.1046 12 27V15Z" fill="#2B94E1"/>
<rect x="15" y="20" width="10" height="2" fill="white"/>
</g>
<g filter="url(#filter1_i)">
<rect width="104" height="40" transform="translate(40)" fill="#E5E6E8"/>
<path d="M48.6761 16.9119H51.8778V26H53.1108V16.9119H56.3125V15.8182H48.6761V16.9119ZM58.2154 26H59.4483V21.446H64.8773V26H66.1103V15.8182H64.8773V20.3523H59.4483V15.8182H58.2154V26Z" fill="#333333"/>
<path d="M73 18H83V16H73V18Z" fill="#A6B0B3"/>
<path d="M73 22H79V19.999H73V22Z" fill="#A6B0B3"/>
<path d="M76 26H73V24H76V26Z" fill="#A6B0B3"/>
</g>
<rect width="144" height="40" transform="translate(0 40)" fill="#FAFBFB"/>
<path d="M12.6335 55.8182H11.4006L8.85511 57.5085V58.7614L11.3409 57.1108H11.4006V66H12.6335V55.8182ZM19.0021 66.1392C20.9759 66.1392 22.4425 64.9013 22.4425 63.2358C22.4425 61.9432 21.6768 61.0036 20.3942 60.7898V60.7102C21.4233 60.397 22.0646 59.5518 22.0646 58.4034C22.0646 56.9616 20.9261 55.679 19.0419 55.679C17.282 55.679 15.8203 56.7628 15.7607 58.3636H16.9538C16.9986 57.3494 17.9631 56.7528 19.022 56.7528C20.1456 56.7528 20.8714 57.4339 20.8714 58.4631C20.8714 59.5369 20.0312 60.233 18.8232 60.233H18.0078V61.3267H18.8232C20.3693 61.3267 21.2294 62.1122 21.2294 63.2358C21.2294 64.3146 20.2898 65.0455 18.9822 65.0455C17.804 65.0455 16.8693 64.4389 16.7947 63.4545H15.5419C15.6165 65.0554 17.0284 66.1392 19.0021 66.1392ZM28.4332 66H29.6065V61.1676C29.6065 60.1335 30.4219 59.3778 31.5355 59.3778C31.8487 59.3778 32.1719 59.4375 32.2514 59.4574V58.2642C32.1172 58.2543 31.8089 58.2443 31.6349 58.2443C30.7202 58.2443 29.9247 58.7614 29.6463 59.517H29.5668V58.3636H28.4332V66ZM36.5121 66.1591C38.5803 66.1591 39.9723 64.5881 39.9723 62.2216C39.9723 59.8352 38.5803 58.2642 36.5121 58.2642C34.4439 58.2642 33.0518 59.8352 33.0518 62.2216C33.0518 64.5881 34.4439 66.1591 36.5121 66.1591ZM36.5121 65.1051C34.9411 65.1051 34.2251 63.7528 34.2251 62.2216C34.2251 60.6903 34.9411 59.3182 36.5121 59.3182C38.0831 59.3182 38.799 60.6903 38.799 62.2216C38.799 63.7528 38.0831 65.1051 36.5121 65.1051ZM43.2337 66H44.3871L46.0575 60.1335H46.1768L47.8473 66H49.0007L51.3274 58.3636H50.0945L48.4439 64.1903H48.3643L46.7536 58.3636H45.5007L43.87 64.2102H43.7905L42.1399 58.3636H40.907L43.2337 66ZM58.2876 60.0739C57.9197 58.9901 57.0945 58.2642 55.5831 58.2642C53.9723 58.2642 52.7791 59.179 52.7791 60.4716C52.7791 61.5256 53.4055 62.2315 54.8075 62.5597L56.0803 62.858C56.8509 63.0369 57.2138 63.4048 57.2138 63.9318C57.2138 64.5881 56.5178 65.125 55.424 65.125C54.4645 65.125 53.8629 64.7124 53.6541 63.892L52.5405 64.1705C52.8139 65.468 53.8828 66.1591 55.4439 66.1591C57.2188 66.1591 58.4268 65.1896 58.4268 63.8722C58.4268 62.8082 57.7607 62.1371 56.3984 61.804L55.2649 61.5256C54.3601 61.3018 53.9524 60.9986 53.9524 60.4119C53.9524 59.7557 54.6484 59.2784 55.5831 59.2784C56.6072 59.2784 57.0298 59.8452 57.2337 60.3722L58.2876 60.0739ZM69.5396 60.0739C69.1717 58.9901 68.3464 58.2642 66.835 58.2642C65.2243 58.2642 64.0311 59.179 64.0311 60.4716C64.0311 61.5256 64.6575 62.2315 66.0595 62.5597L67.3322 62.858C68.1028 63.0369 68.4657 63.4048 68.4657 63.9318C68.4657 64.5881 67.7697 65.125 66.676 65.125C65.7164 65.125 65.1149 64.7124 64.9061 63.892L63.7924 64.1705C64.0659 65.468 65.1348 66.1591 66.6958 66.1591C68.4707 66.1591 69.6788 65.1896 69.6788 63.8722C69.6788 62.8082 69.0126 62.1371 67.6504 61.804L66.5169 61.5256C65.612 61.3018 65.2044 60.9986 65.2044 60.4119C65.2044 59.7557 65.9004 59.2784 66.835 59.2784C67.8592 59.2784 68.2818 59.8452 68.4856 60.3722L69.5396 60.0739ZM74.6467 66.1591C76.1978 66.1591 77.3313 65.3835 77.6893 64.2301L76.5558 63.9119C76.2575 64.7074 75.5664 65.1051 74.6467 65.1051C73.2695 65.1051 72.32 64.2152 72.2653 62.5795H77.8086V62.0824C77.8086 59.2386 76.1183 58.2642 74.5273 58.2642C72.4592 58.2642 71.087 59.8949 71.087 62.2415C71.087 64.5881 72.4393 66.1591 74.6467 66.1591ZM72.2653 61.5653C72.3448 60.3771 73.185 59.3182 74.5273 59.3182C75.8001 59.3182 76.6154 60.2727 76.6154 61.5653H72.2653ZM80.7667 55.8182H79.5934V66H80.7667V55.8182ZM86.1174 66.1591C87.6685 66.1591 88.802 65.3835 89.16 64.2301L88.0265 63.9119C87.7282 64.7074 87.0371 65.1051 86.1174 65.1051C84.7402 65.1051 83.7907 64.2152 83.736 62.5795H89.2793V62.0824C89.2793 59.2386 87.589 58.2642 85.998 58.2642C83.9299 58.2642 82.5577 59.8949 82.5577 62.2415C82.5577 64.5881 83.91 66.1591 86.1174 66.1591ZM83.736 61.5653C83.8155 60.3771 84.6557 59.3182 85.998 59.3182C87.2708 59.3182 88.0861 60.2727 88.0861 61.5653H83.736ZM94.1664 66.1591C95.8567 66.1591 96.9703 65.125 97.1692 63.7727H95.9959C95.7772 64.608 95.0811 65.1051 94.1664 65.1051C92.7743 65.1051 91.8794 63.9517 91.8794 62.1818C91.8794 60.4517 92.7942 59.3182 94.1664 59.3182C95.2005 59.3182 95.8169 59.9545 95.9959 60.6506H97.1692C96.9703 59.2188 95.7573 58.2642 94.1465 58.2642C92.0783 58.2642 90.7061 59.8949 90.7061 62.2216C90.7061 64.5085 92.0186 66.1591 94.1664 66.1591ZM102.205 58.3636H100.575V56.5341H99.4015V58.3636H98.248V59.358H99.4015V64.1307C99.4015 65.4631 100.475 66.0994 101.47 66.0994C101.907 66.0994 102.186 66.0199 102.345 65.9602L102.106 64.9062C102.007 64.9261 101.847 64.9659 101.589 64.9659C101.072 64.9659 100.575 64.8068 100.575 63.8125V59.358H102.205V58.3636ZM107.09 66.1591C108.641 66.1591 109.775 65.3835 110.133 64.2301L108.999 63.9119C108.701 64.7074 108.01 65.1051 107.09 65.1051C105.713 65.1051 104.763 64.2152 104.709 62.5795H110.252V62.0824C110.252 59.2386 108.562 58.2642 106.971 58.2642C104.903 58.2642 103.53 59.8949 103.53 62.2415C103.53 64.5881 104.883 66.1591 107.09 66.1591ZM104.709 61.5653C104.788 60.3771 105.628 59.3182 106.971 59.3182C108.243 59.3182 109.059 60.2727 109.059 61.5653H104.709ZM114.92 66.1591C116.392 66.1591 116.889 65.2443 117.148 64.8267H117.287V66H118.42V55.8182H117.247V59.5767H117.148C116.889 59.179 116.432 58.2642 114.94 58.2642C113.011 58.2642 111.679 59.7955 111.679 62.2017C111.679 64.6278 113.011 66.1591 114.92 66.1591ZM115.079 65.1051C113.608 65.1051 112.852 63.8125 112.852 62.1818C112.852 60.571 113.588 59.3182 115.079 59.3182C116.511 59.3182 117.267 60.4716 117.267 62.1818C117.267 63.9119 116.491 65.1051 115.079 65.1051Z" fill="#333333"/>
<defs>
<filter id="filter0_ii" x="0" y="0" width="40" height="40" filterUnits="userSpaceOnUse" color-interpolation-filters="sRGB">
<feFlood flood-opacity="0" result="BackgroundImageFix"/>
<feBlend mode="normal" in="SourceGraphic" in2="BackgroundImageFix" result="shape"/>
<feColorMatrix in="SourceAlpha" type="matrix" values="0 0 0 0 0 0 0 0 0 0 0 0 0 0 0 0 0 0 127 0" result="hardAlpha"/>
<feOffset dy="-1"/>
<feComposite in2="hardAlpha" operator="arithmetic" k2="-1" k3="1"/>
<feColorMatrix type="matrix" values="0 0 0 0 0.870588 0 0 0 0 0.890196 0 0 0 0 0.898039 0 0 0 1 0"/>
<feBlend mode="normal" in2="shape" result="effect1_innerShadow"/>
<feColorMatrix in="SourceAlpha" type="matrix" values="0 0 0 0 0 0 0 0 0 0 0 0 0 0 0 0 0 0 127 0" result="hardAlpha"/>
<feOffset dx="-1" dy="-1"/>
<feComposite in2="hardAlpha" operator="arithmetic" k2="-1" k3="1"/>
<feColorMatrix type="matrix" values="0 0 0 0 0.870588 0 0 0 0 0.890196 0 0 0 0 0.898039 0 0 0 1 0"/>
<feBlend mode="normal" in2="effect1_innerShadow" result="effect2_innerShadow"/>
</filter>
<filter id="filter1_i" x="40" y="0" width="104" height="40" filterUnits="userSpaceOnUse" color-interpolation-filters="sRGB">
<feFlood flood-opacity="0" result="BackgroundImageFix"/>
<feBlend mode="normal" in="SourceGraphic" in2="BackgroundImageFix" result="shape"/>
<feColorMatrix in="SourceAlpha" type="matrix" values="0 0 0 0 0 0 0 0 0 0 0 0 0 0 0 0 0 0 127 0" result="hardAlpha"/>
<feOffset dy="-1"/>
<feComposite in2="hardAlpha" operator="arithmetic" k2="-1" k3="1"/>
<feColorMatrix type="matrix" values="0 0 0 0 0.870588 0 0 0 0 0.890196 0 0 0 0 0.898039 0 0 0 1 0"/>
<feBlend mode="normal" in2="shape" result="effect1_innerShadow"/>
</filter>
</defs>
</svg>
