<svg width="153" height="80" viewBox="0 0 153 80" fill="none" xmlns="http://www.w3.org/2000/svg">
<rect width="144" height="80" fill="white"/>
<g filter="url(#filter0_i)">
<rect width="20" height="24" fill="white"/>
<path fill-rule="evenodd" clip-rule="evenodd" d="M9.499 13.001L5.5 9L4 10.5L9.498 16H9.5L14.999 10.5L13.5 9L9.499 13.001Z" fill="#A6B0B3"/>
</g>
<g filter="url(#filter1_i)">
<rect width="124" height="24" transform="translate(20)" fill="white"/>
<path d="M33.4261 10C33.0483 7.91193 31.3778 6.67898 29.3295 6.67898C26.7244 6.67898 24.8352 8.6875 24.8352 11.9091C24.8352 15.1307 26.7244 17.1392 29.3295 17.1392C31.3778 17.1392 33.0483 15.9062 33.4261 13.8182H32.1932C31.8949 15.2301 30.6818 15.9858 29.3295 15.9858C27.4801 15.9858 26.0284 14.554 26.0284 11.9091C26.0284 9.2642 27.4801 7.83239 29.3295 7.83239C30.6818 7.83239 31.8949 8.58807 32.1932 10H33.4261ZM37.5066 17.179C38.839 17.179 39.535 16.4631 39.7736 15.9659H39.8333V17H41.0066V11.9688C41.0066 9.54261 39.1571 9.2642 38.1827 9.2642C37.0293 9.2642 35.7168 9.66193 35.1202 11.054L36.2338 11.4517C36.4924 10.8949 37.1039 10.2983 38.2225 10.2983C39.3013 10.2983 39.8333 10.87 39.8333 11.8494V11.8892C39.8333 12.456 39.2566 12.4062 37.8645 12.5852C36.4476 12.7692 34.9015 13.0824 34.9015 14.8324C34.9015 16.3239 36.0549 17.179 37.5066 17.179ZM37.6855 16.125C36.7509 16.125 36.0748 15.7074 36.0748 14.892C36.0748 13.9972 36.8901 13.7188 37.8049 13.5994C38.302 13.5398 39.6344 13.4006 39.8333 13.1619V14.2358C39.8333 15.1903 39.0776 16.125 37.6855 16.125ZM46.4691 9.36364H44.8384V7.53409H43.6651V9.36364H42.5117V10.358H43.6651V15.1307C43.6651 16.4631 44.739 17.0994 45.7333 17.0994C46.1708 17.0994 46.4492 17.0199 46.6083 16.9602L46.3697 15.9062C46.2702 15.9261 46.1112 15.9659 45.8526 15.9659C45.3356 15.9659 44.8384 15.8068 44.8384 14.8125V10.358H46.4691V9.36364ZM52.3306 17H53.4641V15.8267H53.6033C53.8619 16.2443 54.359 17.1591 55.8306 17.1591C57.7397 17.1591 59.0721 15.6278 59.0721 13.2017C59.0721 10.7955 57.7397 9.2642 55.8107 9.2642C54.3192 9.2642 53.8619 10.179 53.6033 10.5767H53.5039V6.81818H52.3306V17ZM53.484 13.1818C53.484 11.4716 54.2397 10.3182 55.6715 10.3182C57.163 10.3182 57.8988 11.571 57.8988 13.1818C57.8988 14.8125 57.1431 16.1051 55.6715 16.1051C54.2596 16.1051 53.484 14.9119 53.484 13.1818ZM60.8668 17H62.0401V12.1676C62.0401 11.1335 62.8555 10.3778 63.9691 10.3778C64.2823 10.3778 64.6055 10.4375 64.685 10.4574V9.2642C64.5508 9.25426 64.2425 9.24432 64.0685 9.24432C63.1538 9.24432 62.3583 9.76136 62.0799 10.517H62.0004V9.36364H60.8668V17ZM69.0451 17.1591C70.5962 17.1591 71.7298 16.3835 72.0877 15.2301L70.9542 14.9119C70.6559 15.7074 69.9648 16.1051 69.0451 16.1051C67.668 16.1051 66.7184 15.2152 66.6637 13.5795H72.207V13.0824C72.207 10.2386 70.5167 9.2642 68.9258 9.2642C66.8576 9.2642 65.4854 10.8949 65.4854 13.2415C65.4854 15.5881 66.8377 17.1591 69.0451 17.1591ZM66.6637 12.5653C66.7433 11.3771 67.5835 10.3182 68.9258 10.3182C70.1985 10.3182 71.0138 11.2727 71.0138 12.5653H66.6637ZM77.1935 17.1591C78.7447 17.1591 79.8782 16.3835 80.2362 15.2301L79.1026 14.9119C78.8043 15.7074 78.1133 16.1051 77.1935 16.1051C75.8164 16.1051 74.8668 15.2152 74.8121 13.5795H80.3555V13.0824C80.3555 10.2386 78.6651 9.2642 77.0742 9.2642C75.006 9.2642 73.6339 10.8949 73.6339 13.2415C73.6339 15.5881 74.9862 17.1591 77.1935 17.1591ZM74.8121 12.5653C74.8917 11.3771 75.7319 10.3182 77.0742 10.3182C78.3469 10.3182 79.1623 11.2727 79.1623 12.5653H74.8121ZM85.0238 17.1591C86.4954 17.1591 86.9925 16.2443 87.2511 15.8267H87.3903V17H88.5238V6.81818H87.3505V10.5767H87.2511C86.9925 10.179 86.5352 9.2642 85.0437 9.2642C83.1147 9.2642 81.7823 10.7955 81.7823 13.2017C81.7823 15.6278 83.1147 17.1591 85.0238 17.1591ZM85.1829 16.1051C83.7113 16.1051 82.9556 14.8125 82.9556 13.1818C82.9556 11.571 83.6914 10.3182 85.1829 10.3182C86.6147 10.3182 87.3704 11.4716 87.3704 13.1818C87.3704 14.9119 86.5948 16.1051 85.1829 16.1051ZM96.2447 11.0739C95.8768 9.99006 95.0515 9.2642 93.5401 9.2642C91.9293 9.2642 90.7362 10.179 90.7362 11.4716C90.7362 12.5256 91.3626 13.2315 92.7646 13.5597L94.0373 13.858C94.8079 14.0369 95.1708 14.4048 95.1708 14.9318C95.1708 15.5881 94.4748 16.125 93.381 16.125C92.4215 16.125 91.82 15.7124 91.6112 14.892L90.4975 15.1705C90.771 16.468 91.8398 17.1591 93.4009 17.1591C95.1758 17.1591 96.3839 16.1896 96.3839 14.8722C96.3839 13.8082 95.7177 13.1371 94.3555 12.804L93.2219 12.5256C92.3171 12.3018 91.9094 11.9986 91.9094 11.4119C91.9094 10.7557 92.6055 10.2784 93.5401 10.2784C94.5643 10.2784 94.9869 10.8452 95.1907 11.3722L96.2447 11.0739Z" fill="#0071BC"/>
</g>
<g filter="url(#filter2_i)">
<rect width="46" height="28" transform="translate(24 24)" fill="white"/>
<path d="M25.233 43H28.9119C31.3182 43 32.3125 41.8267 32.3125 40.2955C32.3125 38.6847 31.1989 37.8097 30.2642 37.75V37.6506C31.1392 37.4119 31.9148 36.8352 31.9148 35.5227C31.9148 34.0312 30.9205 32.8182 28.7926 32.8182H25.233V43ZM26.4659 41.9062V38.3665H28.9716C30.304 38.3665 31.1392 39.2614 31.1392 40.2955C31.1392 41.1903 30.5227 41.9062 28.9119 41.9062H26.4659ZM26.4659 37.2926V33.9119H28.7926C30.1449 33.9119 30.7415 34.6278 30.7415 35.5227C30.7415 36.5966 29.8665 37.2926 28.7528 37.2926H26.4659ZM37.381 43.1591C38.9322 43.1591 40.0657 42.3835 40.4237 41.2301L39.2901 40.9119C38.9918 41.7074 38.3008 42.1051 37.381 42.1051C36.0039 42.1051 35.0543 41.2152 34.9996 39.5795H40.543V39.0824C40.543 36.2386 38.8526 35.2642 37.2617 35.2642C35.1935 35.2642 33.8214 36.8949 33.8214 39.2415C33.8214 41.5881 35.1737 43.1591 37.381 43.1591ZM34.9996 38.5653C35.0792 37.3771 35.9194 36.3182 37.2617 36.3182C38.5344 36.3182 39.3498 37.2727 39.3498 38.5653H34.9996ZM43.5011 38.4062C43.5011 37.0739 44.3263 36.3182 45.4499 36.3182C46.5387 36.3182 47.1999 37.0291 47.1999 38.2273V43H48.3732V38.1477C48.3732 36.1989 47.3342 35.2642 45.788 35.2642C44.6346 35.2642 43.9187 35.7812 43.5607 36.5568H43.4613V35.3636H42.3278V43H43.5011V38.4062ZM53.5996 46.0227C55.4292 46.0227 56.9007 45.1875 56.9007 43.2188V35.3636H55.7672V36.5767H55.6479C55.3894 36.179 54.9121 35.2642 53.4206 35.2642C51.4917 35.2642 50.1593 36.7955 50.1593 39.142C50.1593 41.5284 51.5513 42.8807 53.4007 42.8807C54.8922 42.8807 55.3695 42.0057 55.628 41.5881H55.7275V43.1392C55.7275 44.4119 54.8326 44.9886 53.5996 44.9886C52.2125 44.9886 51.7253 44.2578 51.4121 43.8352L50.4775 44.4915C50.9547 45.2919 51.8944 46.0227 53.5996 46.0227ZM53.5598 41.8267C52.0882 41.8267 51.3326 40.7131 51.3326 39.1222C51.3326 37.571 52.0684 36.3182 53.5598 36.3182C54.9917 36.3182 55.7473 37.4716 55.7473 39.1222C55.7473 40.8125 54.9718 41.8267 53.5598 41.8267ZM61.2956 43.179C62.628 43.179 63.324 42.4631 63.5627 41.9659H63.6223V43H64.7956V37.9688C64.7956 35.5426 62.9462 35.2642 61.9718 35.2642C60.8184 35.2642 59.5059 35.6619 58.9093 37.054L60.0229 37.4517C60.2814 36.8949 60.8929 36.2983 62.0115 36.2983C63.0904 36.2983 63.6223 36.87 63.6223 37.8494V37.8892C63.6223 38.456 63.0456 38.4062 61.6536 38.5852C60.2367 38.7692 58.6905 39.0824 58.6905 40.8324C58.6905 42.3239 59.8439 43.179 61.2956 43.179ZM61.4746 42.125C60.54 42.125 59.8638 41.7074 59.8638 40.892C59.8638 39.9972 60.6792 39.7188 61.5939 39.5994C62.0911 39.5398 63.4235 39.4006 63.6223 39.1619V40.2358C63.6223 41.1903 62.8667 42.125 61.4746 42.125ZM68.1104 32.8182H66.9371V43H68.1104V32.8182Z" fill="#0071BC"/>
</g>
<rect width="46" height="28" transform="translate(24 52)" fill="white"/>
<path d="M25.233 71H28.9119C31.3182 71 32.3125 69.8267 32.3125 68.2955C32.3125 66.6847 31.1989 65.8097 30.2642 65.75V65.6506C31.1392 65.4119 31.9148 64.8352 31.9148 63.5227C31.9148 62.0312 30.9205 60.8182 28.7926 60.8182H25.233V71ZM26.4659 69.9062V66.3665H28.9716C30.304 66.3665 31.1392 67.2614 31.1392 68.2955C31.1392 69.1903 30.5227 69.9062 28.9119 69.9062H26.4659ZM26.4659 65.2926V61.9119H28.7926C30.1449 61.9119 30.7415 62.6278 30.7415 63.5227C30.7415 64.5966 29.8665 65.2926 28.7528 65.2926H26.4659ZM34.1793 71H35.3526V66.1676C35.3526 65.1335 36.168 64.3778 37.2816 64.3778C37.5948 64.3778 37.918 64.4375 37.9975 64.4574V63.2642C37.8633 63.2543 37.555 63.2443 37.381 63.2443C36.4663 63.2443 35.6708 63.7614 35.3924 64.517H35.3129V63.3636H34.1793V71ZM39.3883 71H40.5616V63.3636H39.3883V71ZM39.9849 62.0909C40.4423 62.0909 40.8201 61.733 40.8201 61.2955C40.8201 60.858 40.4423 60.5 39.9849 60.5C39.5275 60.5 39.1497 60.858 39.1497 61.2955C39.1497 61.733 39.5275 62.0909 39.9849 62.0909ZM46.0316 63.3636H44.4009V61.5341H43.2276V63.3636H42.0742V64.358H43.2276V69.1307C43.2276 70.4631 44.3015 71.0994 45.2958 71.0994C45.7333 71.0994 46.0117 71.0199 46.1708 70.9602L45.9322 69.9062C45.8327 69.9261 45.6737 69.9659 45.4151 69.9659C44.8981 69.9659 44.4009 69.8068 44.4009 68.8125V64.358H46.0316V63.3636ZM47.7965 71H48.9698V63.3636H47.7965V71ZM48.3931 62.0909C48.8505 62.0909 49.2283 61.733 49.2283 61.2955C49.2283 60.858 48.8505 60.5 48.3931 60.5C47.9357 60.5 47.5579 60.858 47.5579 61.2955C47.5579 61.733 47.9357 62.0909 48.3931 62.0909ZM56.5279 65.0739C56.16 63.9901 55.3347 63.2642 53.8233 63.2642C52.2125 63.2642 51.0194 64.179 51.0194 65.4716C51.0194 66.5256 51.6458 67.2315 53.0478 67.5597L54.3205 67.858C55.0911 68.0369 55.454 68.4048 55.454 68.9318C55.454 69.5881 54.758 70.125 53.6642 70.125C52.7047 70.125 52.1032 69.7124 51.8944 68.892L50.7807 69.1705C51.0542 70.468 52.123 71.1591 53.6841 71.1591C55.459 71.1591 56.6671 70.1896 56.6671 68.8722C56.6671 67.8082 56.0009 67.1371 54.6387 66.804L53.5051 66.5256C52.6003 66.3018 52.1926 65.9986 52.1926 65.4119C52.1926 64.7557 52.8887 64.2784 53.8233 64.2784C54.8475 64.2784 55.2701 64.8452 55.4739 65.3722L56.5279 65.0739ZM59.6065 66.4062C59.6065 65.0739 60.4567 64.3182 61.6151 64.3182C62.7188 64.3182 63.3849 65.0142 63.3849 66.2273V71H64.5582V66.1477C64.5582 64.1839 63.5142 63.2642 61.9531 63.2642C60.75 63.2642 60.0639 63.7663 59.706 64.5568H59.6065V60.8182H58.4332V71H59.6065V66.4062Z" fill="#0071BC"/>
<g filter="url(#filter3_i)">
<rect width="49" height="28" transform="translate(70 24)" fill="white"/>
<path d="M81.4719 43H87.8952V41.9062H83.1623V41.8267L85.4492 39.3807C87.1992 37.5064 87.7163 36.6314 87.7163 35.5028C87.7163 33.9318 86.4435 32.679 84.6538 32.679C82.869 32.679 81.5117 33.892 81.5117 35.6818H82.685C82.685 34.5234 83.4357 33.7528 84.614 33.7528C85.7177 33.7528 86.5629 34.429 86.5629 35.5028C86.5629 36.4425 86.011 37.1385 84.8327 38.4261L81.4719 42.1051V43ZM93.3888 43.1392C95.3626 43.1392 96.8292 41.9013 96.8292 40.2358C96.8292 38.9432 96.0636 38.0036 94.7809 37.7898V37.7102C95.81 37.397 96.4513 36.5518 96.4513 35.4034C96.4513 33.9616 95.3129 32.679 93.4286 32.679C91.6687 32.679 90.207 33.7628 90.1474 35.3636H91.3406C91.3853 34.3494 92.3498 33.7528 93.4087 33.7528C94.5323 33.7528 95.2582 34.4339 95.2582 35.4631C95.2582 36.5369 94.418 37.233 93.2099 37.233H92.3945V38.3267H93.2099C94.756 38.3267 95.6161 39.1122 95.6161 40.2358C95.6161 41.3146 94.6765 42.0455 93.369 42.0455C92.1907 42.0455 91.256 41.4389 91.1815 40.4545H89.9286C90.0032 42.0554 91.4151 43.1392 93.3888 43.1392ZM102.243 43.1392C104.301 43.1641 105.644 41.6129 105.644 39.7188C105.644 37.75 104.187 36.3381 102.442 36.3381C101.393 36.3381 100.493 36.8501 99.9364 37.6903H99.8569C99.8619 35.2095 100.826 33.7727 102.402 33.7727C103.476 33.7727 104.123 34.4489 104.351 35.3636H105.564C105.316 33.7827 104.113 32.679 102.402 32.679C100.11 32.679 98.7035 34.7074 98.7035 38.3068C98.7035 42.0703 100.573 43.1193 102.243 43.1392ZM102.243 42.0455C100.966 42.0455 100.031 40.9567 100.036 39.7386C100.041 38.5206 101.02 37.4318 102.283 37.4318C103.531 37.4318 104.451 38.456 104.451 39.7188C104.451 41.0114 103.491 42.0455 102.243 42.0455ZM107.778 32.8182V43H108.931V35.2642H109.031L112.213 43H113.326L116.508 35.2642H116.607V43H117.761V32.8182H116.289L112.829 41.2699H112.71L109.249 32.8182H107.778Z" fill="#333333"/>
</g>
<rect width="49" height="28" transform="translate(70 52)" fill="white"/>
<path d="M84.2358 71.1392C86.1747 71.1392 87.5966 69.7074 87.5966 67.7585C87.5966 65.7848 86.2244 64.3381 84.3551 64.3381C83.669 64.3381 83.0028 64.5817 82.5852 64.9148H82.5256L82.8835 61.9119H87.1392V60.8182H81.8494L81.233 65.8295L82.3864 65.9688C82.8089 65.6655 83.5298 65.4467 84.1562 65.4517C85.4538 65.4616 86.4034 66.446 86.4034 67.7784C86.4034 69.0859 85.4886 70.0455 84.2358 70.0455C83.1918 70.0455 82.3615 69.3743 82.267 68.4545H81.0739C81.1484 70.0057 82.4858 71.1392 84.2358 71.1392ZM93.0119 71.1392C94.9856 71.1392 96.4522 69.9013 96.4522 68.2358C96.4522 66.9432 95.6866 66.0036 94.4039 65.7898V65.7102C95.4331 65.397 96.0744 64.5518 96.0744 63.4034C96.0744 61.9616 94.9359 60.679 93.0517 60.679C91.2917 60.679 89.8301 61.7628 89.7704 63.3636H90.9636C91.0083 62.3494 91.9728 61.7528 93.0318 61.7528C94.1554 61.7528 94.8812 62.4339 94.8812 63.4631C94.8812 64.5369 94.041 65.233 92.8329 65.233H92.0176V66.3267H92.8329C94.3791 66.3267 95.2392 67.1122 95.2392 68.2358C95.2392 69.3146 94.2995 70.0455 92.992 70.0455C91.8137 70.0455 90.8791 69.4389 90.8045 68.4545H89.5517C89.6262 70.0554 91.0382 71.1392 93.0119 71.1392ZM101.866 71.1392C103.925 71.1641 105.267 69.6129 105.267 67.7188C105.267 65.75 103.81 64.3381 102.065 64.3381C101.016 64.3381 100.116 64.8501 99.5595 65.6903H99.4799C99.4849 63.2095 100.449 61.7727 102.025 61.7727C103.099 61.7727 103.746 62.4489 103.974 63.3636H105.187C104.939 61.7827 103.736 60.679 102.025 60.679C99.7335 60.679 98.3265 62.7074 98.3265 66.3068C98.3265 70.0703 100.196 71.1193 101.866 71.1392ZM101.866 70.0455C100.589 70.0455 99.6539 68.9567 99.6589 67.7386C99.6639 66.5206 100.643 65.4318 101.906 65.4318C103.154 65.4318 104.074 66.456 104.074 67.7188C104.074 69.0114 103.114 70.0455 101.866 70.0455ZM107.401 60.8182V71H108.554V63.2642H108.654L111.836 71H112.949L116.131 63.2642H116.23V71H117.384V60.8182H115.912L112.452 69.2699H112.333L108.873 60.8182H107.401Z" fill="#333333"/>
<g filter="url(#filter4_i)">
<rect width="25" height="28" transform="translate(119 24)" fill="white"/>
<path d="M133.649 32.8182H132.416L129.871 34.5085V35.7614L132.357 34.1108H132.416V43H133.649V32.8182ZM136.577 43H143.001V41.9062H138.268V41.8267L140.555 39.3807C142.305 37.5064 142.822 36.6314 142.822 35.5028C142.822 33.9318 141.549 32.679 139.759 32.679C137.974 32.679 136.617 33.892 136.617 35.6818H137.79C137.79 34.5234 138.541 33.7528 139.719 33.7528C140.823 33.7528 141.668 34.429 141.668 35.5028C141.668 36.4425 141.116 37.1385 139.938 38.4261L136.577 42.1051V43Z" fill="#0071BC"/>
</g>
<rect width="25" height="28" transform="translate(119 52)" fill="white"/>
<path d="M139.494 71.1392C141.468 71.1392 142.935 69.9013 142.935 68.2358C142.935 66.9432 142.169 66.0036 140.886 65.7898V65.7102C141.915 65.397 142.557 64.5518 142.557 63.4034C142.557 61.9616 141.418 60.679 139.534 60.679C137.774 60.679 136.312 61.7628 136.253 63.3636H137.446C137.491 62.3494 138.455 61.7528 139.514 61.7528C140.638 61.7528 141.364 62.4339 141.364 63.4631C141.364 64.5369 140.523 65.233 139.315 65.233H138.5V66.3267H139.315C140.862 66.3267 141.722 67.1122 141.722 68.2358C141.722 69.3146 140.782 70.0455 139.474 70.0455C138.296 70.0455 137.362 69.4389 137.287 68.4545H136.034C136.109 70.0554 137.521 71.1392 139.494 71.1392Z" fill="#0071BC"/>
<defs>
<filter id="filter0_i" x="0" y="0" width="20" height="24" filterUnits="userSpaceOnUse" color-interpolation-filters="sRGB">
<feFlood flood-opacity="0" result="BackgroundImageFix"/>
<feBlend mode="normal" in="SourceGraphic" in2="BackgroundImageFix" result="shape"/>
<feColorMatrix in="SourceAlpha" type="matrix" values="0 0 0 0 0 0 0 0 0 0 0 0 0 0 0 0 0 0 127 0" result="hardAlpha"/>
<feOffset dy="-1"/>
<feComposite in2="hardAlpha" operator="arithmetic" k2="-1" k3="1"/>
<feColorMatrix type="matrix" values="0 0 0 0 0.870588 0 0 0 0 0.890196 0 0 0 0 0.898039 0 0 0 1 0"/>
<feBlend mode="normal" in2="shape" result="effect1_innerShadow"/>
</filter>
<filter id="filter1_i" x="20" y="0" width="129" height="24" filterUnits="userSpaceOnUse" color-interpolation-filters="sRGB">
<feFlood flood-opacity="0" result="BackgroundImageFix"/>
<feBlend mode="normal" in="SourceGraphic" in2="BackgroundImageFix" result="shape"/>
<feColorMatrix in="SourceAlpha" type="matrix" values="0 0 0 0 0 0 0 0 0 0 0 0 0 0 0 0 0 0 127 0" result="hardAlpha"/>
<feOffset dy="-1"/>
<feComposite in2="hardAlpha" operator="arithmetic" k2="-1" k3="1"/>
<feColorMatrix type="matrix" values="0 0 0 0 0.870588 0 0 0 0 0.890196 0 0 0 0 0.898039 0 0 0 1 0"/>
<feBlend mode="normal" in2="shape" result="effect1_innerShadow"/>
</filter>
<filter id="filter2_i" x="24" y="24" width="129" height="28" filterUnits="userSpaceOnUse" color-interpolation-filters="sRGB">
<feFlood flood-opacity="0" result="BackgroundImageFix"/>
<feBlend mode="normal" in="SourceGraphic" in2="BackgroundImageFix" result="shape"/>
<feColorMatrix in="SourceAlpha" type="matrix" values="0 0 0 0 0 0 0 0 0 0 0 0 0 0 0 0 0 0 127 0" result="hardAlpha"/>
<feOffset dy="-1"/>
<feComposite in2="hardAlpha" operator="arithmetic" k2="-1" k3="1"/>
<feColorMatrix type="matrix" values="0 0 0 0 0.870588 0 0 0 0 0.890196 0 0 0 0 0.898039 0 0 0 1 0"/>
<feBlend mode="normal" in2="shape" result="effect1_innerShadow"/>
</filter>
<filter id="filter3_i" x="70" y="24" width="49" height="28" filterUnits="userSpaceOnUse" color-interpolation-filters="sRGB">
<feFlood flood-opacity="0" result="BackgroundImageFix"/>
<feBlend mode="normal" in="SourceGraphic" in2="BackgroundImageFix" result="shape"/>
<feColorMatrix in="SourceAlpha" type="matrix" values="0 0 0 0 0 0 0 0 0 0 0 0 0 0 0 0 0 0 127 0" result="hardAlpha"/>
<feOffset dy="-1"/>
<feComposite in2="hardAlpha" operator="arithmetic" k2="-1" k3="1"/>
<feColorMatrix type="matrix" values="0 0 0 0 0.870588 0 0 0 0 0.890196 0 0 0 0 0.898039 0 0 0 1 0"/>
<feBlend mode="normal" in2="shape" result="effect1_innerShadow"/>
</filter>
<filter id="filter4_i" x="119" y="24" width="25" height="28" filterUnits="userSpaceOnUse" color-interpolation-filters="sRGB">
<feFlood flood-opacity="0" result="BackgroundImageFix"/>
<feBlend mode="normal" in="SourceGraphic" in2="BackgroundImageFix" result="shape"/>
<feColorMatrix in="SourceAlpha" type="matrix" values="0 0 0 0 0 0 0 0 0 0 0 0 0 0 0 0 0 0 127 0" result="hardAlpha"/>
<feOffset dy="-1"/>
<feComposite in2="hardAlpha" operator="arithmetic" k2="-1" k3="1"/>
<feColorMatrix type="matrix" values="0 0 0 0 0.870588 0 0 0 0 0.890196 0 0 0 0 0.898039 0 0 0 1 0"/>
<feBlend mode="normal" in2="shape" result="effect1_innerShadow"/>
</filter>
</defs>
</svg>
