<svg xmlns="http://www.w3.org/2000/svg" xlink="http://www.w3.org/1999/xlink" width="22" height="22" viewBox="0 0 22 22"><path d="M9.5055,5.9999 L11.4945,5.9999 C12.3795,7.6579 13.9935,11.4469 15.2365,14.9999 L12.9625,14.9999 L12.3945,13.1059 L8.6055,13.1059 L8.0375,14.9999 L5.7635,14.9999 C7.0065,11.4469 8.6205,7.6579 9.5055,5.9999 Z M9.2305,11.2109 L11.7695,11.2109 C11.3165,10.1039 10.8785,9.0949 10.5005,8.2749 C10.1215,9.0949 9.6835,10.1039 9.2305,11.2109 Z M0,9 L0,5.999 L2,5.999 L2,9 L0,9 Z M3,0 L3,1.999 L3.002,1.999 C2.449,1.999 2,2.447 2,3 L2,2.998 L0,2.998 C0.002,1.346 1.346,0.001 3,0 Z M0,15 L0,12 L2,12 L2,15 L0,15 Z M19,3 C19,2.447 18.551,1.999 17.998,1.999 L18,1.999 L18,0 C19.654,0.001 20.998,1.346 21,2.998 L19,2.998 L19,3 Z M12,2 L12,0 L15,0 L15,2 L12,2 Z M6,2 L6,0 L9,0 L9,2 L6,2 Z M2,18 C2,18.553 2.449,19.001 3.002,19.001 L3,19.001 L3,21 C1.346,20.999 0.002,19.654 0,18.002 L2,18.002 L2,18 Z M19,9 L19,6 L21,6 L21,9 L19,9 Z M19,15 L19,12 L21,12 L21,15 L19,15 Z M19,18 L19,18.002 L21,18.002 C20.998,19.654 19.654,20.999 18,21 L18,19.001 L17.998,19.001 C18.551,19.001 19,18.553 19,18 Z M6,21 L6,19 L9,19 L9,21 L6,21 Z M12,21 L12,19 L15,19 L15,21 L12,21 Z"/></svg>
