<svg xmlns="http://www.w3.org/2000/svg" xlink="http://www.w3.org/1999/xlink" width="16" height="16" viewBox="0 0 16 16"><path d="M8.2737,3.9997 C8.9617,5.2887 10.2167,8.2377 11.1847,10.9997 L9.4157,10.9997 L8.9737,9.5267 L6.0267,9.5267 L5.5837,10.9997 L3.8157,10.9997 C4.7837,8.2377 6.0377,5.2887 6.7267,3.9997 L8.2737,3.9997 Z M6.5127,8.0527 L8.4877,8.0527 C8.1347,7.1927 7.7937,6.4067 7.4997,5.7697 C7.2057,6.4067 6.8657,7.1927 6.5127,8.0527 Z M0,9 L0,6 L1.33,6 L1.33,9 L0,9 Z M0,2.501 C0,1.119 1.119,0 2.5,0 L3,0 L3,1.33 L2.5,1.33 C1.855,1.33 1.33,1.855 1.33,2.501 L1.33,3 L0,3 L0,2.501 Z M6,1.33 L6,0 L9,0 L9,1.33 L6,1.33 Z M1.3301,12.499 C1.3301,13.145 1.8551,13.67 2.5001,13.67 L3.0001,13.67 L3.0001,15 L2.5001,15 C1.1191,15 0.0001,13.881 0.0001,12.499 L0.0001,12 L1.3301,12 L1.3301,12.499 Z M12.5,0 C13.881,0 15,1.119 15,2.501 L15,3 L13.67,3 L13.67,2.501 C13.67,1.855 13.145,1.33 12.5,1.33 L12,1.33 L12,0 L12.5,0 Z M13.67,9 L13.67,6 L15,6 L15,9 L13.67,9 Z M6,15 L6,13.67 L9,13.67 L9,15 L6,15 Z M13.6699,12.499 L13.6699,12 L14.9999,12 L14.9999,12.499 C14.9999,13.881 13.8809,15 12.4999,15 L11.9999,15 L11.9999,13.67 L12.4999,13.67 C13.1449,13.67 13.6699,13.145 13.6699,12.499 Z"/></svg>
