<svg xmlns="http://www.w3.org/2000/svg" xlink="http://www.w3.org/1999/xlink" width="12" height="12" viewBox="0 0 12 12"><path d="M5.337,3.0004 L6.663,3.0004 C7.254,4.1054 8.329,6.6314 9.158,9.0004 L7.643,9.0004 L7.264,7.7364 L4.736,7.7364 L4.357,9.0004 L2.842,9.0004 C3.671,6.6314 4.746,4.1054 5.337,3.0004 Z M5,6.6514 L7,6.6514 C6.643,5.7794 6.299,4.9844 6,4.3384 C5.701,4.9844 5.357,5.7794 5,6.6514 Z M0,9.6709 L0,8.9999 L1,8.9999 L1,9.6709 L1,11.5799 C0.396,11.1589 0,10.4629 0,9.6709 Z M0,7 L0,5 L1,5 L1,7 L0,7 Z M3,12 L3,11 L5,11 L5,12 L3,12 Z M11,7 L11,5 L12,5 L12,7 L11,7 Z M11,9.6709 L11,8.9999 L12,8.9999 L12,9.6709 C12,10.4629 11.604,11.1589 11,11.5799 L11,9.6709 Z M7,12 L7,11 L9,11 L9,12 L7,12 Z M0,2.3291 C0,1.5371 0.396,0.8411 1,0.4201 L1,2.3291 L1,3.0001 L0,3.0001 L0,2.3291 Z M3,1 L3,0 L5,0 L5,1 L3,1 Z M7,1 L7,0 L9,0 L9,1 L7,1 Z M11,0.4199 C11.604,0.8409 12,1.5369 12,2.3289 L12,2.9999 L11,2.9999 L11,2.3289 L11,0.4199 Z"/></svg>
