<svg width="24" height="24" viewBox="0 0 24 24" xmlns="http://www.w3.org/2000/svg">
  <path fill-rule="evenodd" clip-rule="evenodd" d="M12 1c-2.61 0-5.14.95-7.13 2.69A11.52 11.52 0 0 0 2.6 18.12a11.05 11.05 0 0 0 5.93 4.86c.55.1.75-.24.75-.54l-.01-1.92C6.2 21.2 5.56 19 5.56 19a2.98 2.98 0 0 0-1.23-1.65c-1-.7.08-.69.08-.69a2.28 2.28 0 0 1 1.69 1.16A2.39 2.39 0 0 0 7.5 19a2.29 2.29 0 0 0 1.8-.22c.05-.57.3-1.1.7-1.5-2.45-.3-5.02-1.26-5.02-5.58a4.43 4.43 0 0 1 1.14-3.03c-.34-.97-.3-2.04.1-2.98 0 0 .93-.3 3.03 1.15 1.8-.5 3.7-.5 5.5 0 2.1-1.46 3.03-1.15 3.03-1.15.4.94.44 2.01.1 2.98.75.82 1.15 1.9 1.14 3.03 0 4.33-2.57 5.29-5.02 5.56a2.7 2.7 0 0 1 .74 2.1l-.01 3.09c0 .3.2.65.75.54a11.05 11.05 0 0 0 5.93-4.87A11.52 11.52 0 0 0 19.13 3.7 10.84 10.84 0 0 0 12 1Z" fill="#231E1B"/>
</svg>
