<svg xmlns="http://www.w3.org/2000/svg" xlink="http://www.w3.org/1999/xlink" width="22" height="22" viewBox="0 0 22 22"><path d="M19,6.7822 L19,8.0002 L13,8.0002 L13,6.9062 L15.716,4.5962 C16.798,3.6832 17.191,3.1772 17.191,2.4682 C17.191,1.6892 16.64,1.2392 15.919,1.2392 C15.197,1.2392 14.701,1.6342 14.094,2.4232 L13.113,1.6552 C13.867,0.5952 14.611,0.0002 16.02,0.0002 C17.564,0.0002 18.623,0.9462 18.623,2.3772 C18.623,3.6172 17.958,4.2812 16.572,5.4302 L14.949,6.7822 L19,6.7822 Z M13,9 L21,9 L21,11 C21,16.514 16.514,21 11,21 C5.486,21 1,16.514 1,11 C1,5.486 5.486,1 11,1 L11,5 C7.691,5 5,7.691 5,11 C5,14.309 7.691,17 11,17 C13.606,17 15.824,15.326 16.65,13 L13,13 L13,9 Z"/></svg>
