<svg xmlns="http://www.w3.org/2000/svg" xlink="http://www.w3.org/1999/xlink" width="16" height="16" viewBox="0 0 16 16"><path d="M10,7 L16,7 L16,8 C16,12.411 12.411,16 8,16 C3.589,16 0,12.411 0,8 C0,3.589 3.589,0 8,0 L8,3 C5.243,3 3,5.243 3,8 C3,10.757 5.243,13 8,13 C10.045,13 11.803,11.763 12.576,10 L10,10 L10,7 Z M14.5,4.876 L14.5,6 L10,6 L10,4.969 L12.024,3.355 C12.78,2.746 13.075,2.425 13.075,1.936 C13.075,1.437 12.736,1.166 12.259,1.166 C11.789,1.166 11.469,1.419 11.016,1.96 L10.078,1.225 C10.678,0.431 11.259,0 12.346,0 C13.605,0 14.438,0.718 14.438,1.842 C14.438,2.831 13.918,3.321 12.84,4.133 L11.85,4.876 L14.5,4.876 Z"/></svg>
