<svg xmlns="http://www.w3.org/2000/svg" xlink="http://www.w3.org/1999/xlink" width="12" height="12" viewBox="0 0 12 12"><path d="M7,5 L12,5 L12,6 C12,9.309 9.309,12 6,12 C2.691,12 0,9.309 0,6 C0,2.691 2.691,0 6,0 L6,2 C3.794,2 2,3.794 2,6 C2,8.206 3.794,10 6,10 C7.859,10 9.41,8.72 9.857,7 L7,7 L7,5 Z M10,3.251 L10,4 L7,4 L7,3.313 L8.35,2.237 C8.854,1.831 9.051,1.617 9.051,1.291 C9.051,0.958 8.824,0.777 8.506,0.777 C8.193,0.777 7.979,0.947 7.678,1.307 L7.052,0.817 C7.451,0.288 7.84,0 8.563,0 C9.402,0 9.959,0.479 9.959,1.229 C9.959,1.888 9.611,2.214 8.894,2.755 L8.233,3.251 L10,3.251 Z"/></svg>
