<svg width="367" height="178" viewBox="0 0 367 178" fill="none" xmlns="http://www.w3.org/2000/svg">
  <path d="M168.34-241.37v12.56c-100.16 0-181.48 81.32-181.48 181.48h-12.23A4.52 4.52 0 00-30-42.71C-27.69 63.07 57.93 148.7 163.7 151a4.52 4.52 0 004.64-4.63v-12.56c100.15 0 181.47-81.32 181.47-181.48h12.56a4.52 4.52 0 004.63-4.62C364.69-158.07 279.07-243.7 173.3-246c-2.98 0-4.97 1.98-4.97 4.63z" fill="#B880FF"/>
  <path d="M312.86 26.4c-1.92 4.47-7.46 14.93-20.64 23.46-.8.5-.8 1.65-.04 2.19 3.66 2.46 11.79 6.79 17.73 8.44 1.3.36 2.68.1 3.75-.62 8.31-5.59 19.17-14.61 25.16-27.7a2.59 2.59 0 00-1.88-3.67c-5.8-1.16-16.17-2.99-20.86-3.84-1.3-.27-2.64.5-3.22 1.74z" fill="#fff" stroke="#171A22" stroke-miterlimit="10" stroke-linecap="round" stroke-linejoin="round"/>
  <path d="M295.57 50.66c5.05-1.2 19.35-4.91 21.67-8.62 1.88-3.04-.36-10.59-1.56-14.07M334.3 30.65c-3.93.85-10.99 2.68-16.48 5.94M308.08 47.09s-.54 6.16 3.4 11.03" stroke="#171A22" stroke-miterlimit="10" stroke-linecap="round" stroke-linejoin="round"/>
  <path d="M176.2 43.08a6.04 6.04 0 00-3.62 6.35c1.88 13.76 8.22 61.38 12.78 83.94 1.96 9.7 6.16 10.72 10.5 9.47 19.16-5.5 62-18.54 99.49-19.74 1.96-.05 3.21-2.1 2.63-3.98-3.3-10.63-8.13-31.36-9.11-47.76a8.63 8.63 0 00-3.22-6.25c-19.2-15.9-40.7-36.73-50.26-38.02-8.49-1.16-47.04 10.8-59.2 16z" fill="#171A22" stroke="#171A22" stroke-miterlimit="10" stroke-linecap="round" stroke-linejoin="round"/>
  <path d="M176.51 42.72a5.95 5.95 0 00-3.62 6.3c1.83 13.8 11.13 58.8 15.73 81.36 1.96 9.7 6.16 10.72 10.5 9.47 19.16-5.5 58.79-15.55 96.27-16.76 1.97-.04 3.22-2.1 2.64-3.97-3.3-10.64-8.13-31.36-9.12-47.76a8.63 8.63 0 00-3.21-6.25C266.49 49.2 245 28.38 235.44 27.09c-8.54-1.17-46.82 10.45-58.93 15.63z" fill="#fff" stroke="#171A22" stroke-miterlimit="10" stroke-linecap="round" stroke-linejoin="round"/>
  <path d="M280.46 76.78a310.89 310.89 0 01-17.18 16.96L248.67 85c-2.1-.94-4.96-1.08-6.93.17L227.35 95.8c-13.4-9.16-29.78-23.36-38.27-32.12a558.5 558.5 0 01-5.46-35.53c-.43-3.3.68-6.84 4.78-5.47 12.5 4.24 54.86 18.82 82.92 19.85.69.02 3.61.13 3.67 2.02.31 10.32 2.34 24.2 5.47 32.24z" fill="#171A22"/>
  <path d="M279.8 77.62c-4.56 4.82-10 10.4-15.81 15.59l-14.61-8.76c-2.1-.94-4.96-1.07-6.93.18L227.4 95.22c-13.4-9.16-28.37-22.16-36.86-30.92-2.2-11.26-4.07-24.44-5.68-36.99-.22-1.6.85-4.24 4.25-3.13 12.5 4.25 54.86 18.14 82.92 19.17a2.28 2.28 0 012.14 2.19c.31 10.32 2.5 24.03 5.63 32.08z" fill="#B880FF"/>
  <path d="M203.1 76.72l-1.53-12.78a2.9 2.9 0 013.44-3.17c9.52 2.46 28.69 5.14 28.69 5.14 1.2.22 1.87.89 2.05 2.1l2.86 19.48M202.2 61.84s18.99 17.74 32.7 28.33M234.95 66.4c-7.46 9.47-20.6 19.66-20.6 19.66" stroke="#fff" stroke-miterlimit="10" stroke-linecap="round" stroke-linejoin="round"/>
  <path d="M179.1 52.02s17.83 23 47.8 43.2M263.5 93.2c12.9-11.39 22.38-22.73 22.38-22.73" stroke="#171A22" stroke-miterlimit="10" stroke-linecap="round" stroke-linejoin="round"/>
  <path d="M203.18 122.07c14.07-21.1 38.91-37.26 38.91-37.26a6.95 6.95 0 016.48-.54s18.59 10.28 34.13 22.25" stroke="#171A22" stroke-miterlimit="10" stroke-linecap="round" stroke-linejoin="round"/>
  <path d="M201.3 39.42c10.5 4.1 41.1 12.68 61.03 13.09.8 0 1.48.62 1.57 1.43.22 2 .67 5.71.94 7.9.13.99-.68 1.84-1.66 1.8-7.95-.32-36.77-2.6-60.04-9.44a4 4 0 01-2.77-3.48l-1.16-9.6a1.6 1.6 0 012.1-1.7z" fill="#fff"/>
  <g clip-path="url(#clip0)" stroke="#fff" stroke-width=".84" stroke-miterlimit="10" stroke-linecap="round" stroke-linejoin="round">
    <path d="M203.79 23.66s8.84 1.42 11.94.66M210.42 27.1c3.14.15 6.4.07 8.43-.58M203.79 26.52s1.78.24 4.14.43M203.79 29.17s8.38 1.49 12.84.44"/>
  </g>
  <defs>
    <clipPath id="clip0">
      <path fill="#fff" transform="translate(203.5 23.37)" d="M0 0h15.67v6.92H0z"/>
    </clipPath>
  </defs>
</svg>
