<svg width="450" height="450" viewBox="0 0 450 450" fill="none" xmlns="http://www.w3.org/2000/svg">
  <path d="M91.11 350.63a188.69 188.69 0 00133.83 55.43v12.98a4.7 4.7 0 004.77 4.7c110.53-2.5 199.7-91.65 202.2-202.2a4.7 4.7 0 00-4.7-4.77h-12.99c0-104.54-84.75-189.28-189.28-189.28V14.54a4.69 4.69 0 00-4.76-4.7A206.38 206.38 0 0081.96 67.06a4.69 4.69 0 00-.04 6.69l9.16 9.18a188.7 188.7 0 00-55.42 133.83H22.7a4.7 4.7 0 00-4.7 4.77 206.36 206.36 0 0057.25 138.2 4.69 4.69 0 006.68.05l9.18-9.16z" fill="#45E0A8"/>
  <path d="M250.22 3c-.89 1-1.76 2.01-2.63 3.01" stroke="#000" stroke-width="2" stroke-linecap="round" stroke-linejoin="round"/>
  <path d="M242.35 12.27c-12.67 15.63-22.19 31.08-31.33 50.47-16.68 35.35-23 75.33-29.98 113.72a2693.4 2693.4 0 00-14.97 91.34c-.04.29-.08 1.67-.12 3.38" stroke="#000" stroke-width="2" stroke-linecap="round" stroke-linejoin="round" stroke-dasharray="8.16 8.16"/>
  <path d="M165.85 275.25a81.8 81.8 0 01-.14 4s-1.38.55-3.7 1.52" stroke="#000" stroke-width="2" stroke-linecap="round" stroke-linejoin="round"/>
  <path d="M154.8 283.85c-14.47 6.35-38.76 17.97-43.61 26.33-5.78 9.96-22.85 74.9-28.68 97.41" stroke="#000" stroke-width="2" stroke-linecap="round" stroke-linejoin="round" stroke-dasharray="7.85 7.85"/>
  <path d="M81.53 411.4l-.99 3.87 3.88.99" stroke="#000" stroke-width="2" stroke-linecap="round" stroke-linejoin="round"/>
  <path d="M88.68 417.35l6.4 1.63" stroke="#000" stroke-width="2" stroke-linecap="round" stroke-linejoin="round" stroke-dasharray="4.4 4.4"/>
  <path d="M97.2 419.53l3.88.99 2.22-3.33" stroke="#000" stroke-width="2" stroke-linecap="round" stroke-linejoin="round"/>
  <path d="M107.66 410.67l33.2-49.71 57.35-23.1" stroke="#000" stroke-width="2" stroke-linecap="round" stroke-linejoin="round" stroke-dasharray="7.84 7.84"/>
  <path d="M201.85 336.4l3.7-1.5 1.53 3.7" stroke="#000" stroke-width="2" stroke-linecap="round" stroke-linejoin="round"/>
  <path d="M208.68 346.37l14.15 74.2" stroke="#000" stroke-width="2" stroke-linecap="round" stroke-linejoin="round" stroke-dasharray="7.95 7.95"/>
  <path d="M223.58 424.47l.74 3.93h4" stroke="#000" stroke-width="2" stroke-linecap="round" stroke-linejoin="round"/>
  <path d="M235.51 428.4h10.78" stroke="#000" stroke-width="2" stroke-linecap="round" stroke-linejoin="round" stroke-dasharray="7.19 7.19"/>
  <path d="M249.88 428.4h4M250.22 3l2.64 3.01" stroke="#000" stroke-width="2" stroke-linecap="round" stroke-linejoin="round"/>
  <path d="M257.98 12.14c12.1 14.96 19.95 28.44 29.08 47.8 16.68 35.35 23 75.33 29.98 113.72 5.5 30.34 10.5 60.79 14.96 91.33.13.83 52.11 23.43 59.13 35.51 5.81 10.02 15.7 81.57 18.9 105.7" stroke="#000" stroke-width="2" stroke-linecap="round" stroke-linejoin="round" stroke-dasharray="7.99 7.99"/>
  <path d="M410.55 410.15l.51 3.97-3.87.99M400.87 416.72l-3.87 1-1.88-3.54" stroke="#000" stroke-width="2" stroke-linecap="round" stroke-linejoin="round"/>
  <path d="M391.29 407l-22.85-42.87-58.12-30.99-11.57 1.87" stroke="#000" stroke-width="2" stroke-linecap="round" stroke-linejoin="round" stroke-dasharray="8.14 8.14"/>
  <path d="M294.74 335.66l-3.95.63-.75 3.93" stroke="#000" stroke-width="2" stroke-linecap="round" stroke-linejoin="round"/>
  <path d="M288.63 347.63l-13.42 70.33" stroke="#000" stroke-width="2" stroke-linecap="round" stroke-linejoin="round" stroke-dasharray="7.54 7.54"/>
  <path d="M274.5 421.66l-.75 3.93h-4" stroke="#000" stroke-width="2" stroke-linecap="round" stroke-linejoin="round"/>
  <path d="M262.57 425.6h-10.78" stroke="#000" stroke-width="2" stroke-linecap="round" stroke-linejoin="round" stroke-dasharray="7.19 7.19"/>
  <path d="M248.2 425.6h-4M237.61 129.21c-1.2-.59-2.35-1.27-3.44-2.04" stroke="#000" stroke-width="2" stroke-linecap="round" stroke-linejoin="round"/>
  <path d="M228.4 121.54a25.84 25.84 0 01-2.54-26.94c6.27-12.65 21.84-17.57 34.49-11.3a25.62 25.62 0 01-15.1 48.35" stroke="#000" stroke-width="2" stroke-linecap="round" stroke-linejoin="round" stroke-dasharray="8.09 8.09"/>
  <path d="M241.31 130.72c-1.27-.4-2.51-.91-3.7-1.5" stroke="#000" stroke-width="2" stroke-linecap="round" stroke-linejoin="round"/>
  <path d="M267.14 115.06c-1.04 2.1-2.26 1.9-4.93.58-2.84-1.4-3.09-2.13-2.37-4.4 2.13-5.71.77-12.15-5.15-15.69-1.87-1.12-2-2.1-.8-4.53 1.14-2.27 1.98-3.16 3.77-2.28 10.7 5.3 13.82 17.56 9.48 26.32" fill="#fff"/>
  <path d="M190.92 417.66l-1.74 23.61s93.85 9.39 115.48 4.5a16.73 16.73 0 00-1.8-13.75c-4.36-6.94-15.65-13.95-34.93-24.61 0 0-54.16-.77-77.01 10.25" fill="#000"/>
  <path d="M190.92 417.66l-1.74 23.61s93.85 9.39 115.48 4.5a16.73 16.73 0 00-1.8-13.75c-4.36-6.94-15.65-13.95-34.93-24.61 0 0-54.16-.77-77.01 10.25z" stroke="#000" stroke-width="2" stroke-linecap="round" stroke-linejoin="round"/>
  <path d="M192.04 406.6l-2.86 28.14s93.85 9.39 115.48 4.5c0 0 1.63-17.14-36.72-38.36 0 0-53.05-5.3-75.9 5.71" fill="#45E0A8"/>
  <path d="M257.33 400.48c.4 1.22 18.77 12.2 26.93 40.17 0 0 15.1 1.85 20.4-1.41 0 0 1.83-11.58-14.93-23.52-16.76-11.94-21.8-14.84-21.8-14.84l-10.6-.4z" fill="#fff"/>
  <path d="M192.04 406.6l-2.86 28.15s93.85 9.38 115.48 4.49c0 0 1.63-17.14-36.72-38.36 0 0-53.05-5.3-75.9 5.71zM114.06 190.72s-29.03 54.85 28.29 61.4" stroke="#000" stroke-width="2" stroke-linecap="round" stroke-linejoin="round"/>
  <path d="M128.04 163.5s.02-5.36 8.81-10.32c8.8-4.95 30.96-12.17 32.86 2.3 1.9 14.46-5.34 28.03 7.88 30.85 8.94 2.05 17.7 4.9 26.15 8.49l-11.27 13.27-22.84 54.46L147 242.73l-18.96-79.23zM140.57 224.8s-8.44 19.68-8.39 26.13c.06 6.44.5 18.27-1.54 17.5-2.04-.76-3.65-5.88-3.65-5.88s-.8 11.67-3.85 14.75c-3.03 3.04-8 1.3-9.08-2.71-.75-2.79-4.97 2.57-4.05-1.9 4.36-21.2 19.53-49.2 19.53-49.2l11.03 1.32z" fill="#fff"/>
  <path d="M127.35 264.1s-2.53 8.7-3.37 11.78c-1.33 4.86-3.44 3.28-3.44 3.28" stroke="#000" stroke-width="2" stroke-linecap="round" stroke-linejoin="round"/>
  <path d="M141.03 402.51l-3.67 24.78H93.7s-1.63-5 2.04-7.95c3.68-2.95 15.69-8.57 16.32-16.83" fill="#45E0A8"/>
  <path d="M141.03 402.51l-3.67 24.78H93.7s-1.63-5 2.04-7.95c3.68-2.95 15.69-8.57 16.32-16.83" stroke="#000" stroke-width="2" stroke-linecap="round" stroke-linejoin="round"/>
  <path d="M136.95 432.03H93.34l.36-4.74h43.66l-.4 4.74z" fill="#000"/>
  <path d="M136.95 432.03H93.34l.36-4.74h43.66l-.4 4.74z" stroke="#000" stroke-width="2" stroke-linecap="round" stroke-linejoin="round"/>
  <path d="M186.33 200.36s28.31 33.63 43.33 69.13c15.02 35.5 38.27 131.39 38.27 131.39s-55.9-2.04-75.9 5.71c0 0-3.26-94.25-5.7-106.09-1.36-6.5-7.88-23.6-13.48-37.7-4.6-11.54-8.56-21.06-8.56-21.06" fill="#fff"/>
  <path d="M144.3 225.02s-9.4 53.85-14.7 80.79c-5.3 26.93-11.42 46.1-14.27 66.5-2.86 20.41-3.27 30.2-3.27 30.2s20 3.27 28.97 0c0 0 14.28-62.2 20-88.02a260.4 260.4 0 0114.38-45.2" fill="#fff"/>
  <path d="M169.47 254.36l-7.08 54.34 13.02-39.4-5.94-14.94z" fill="#000"/>
  <path d="M169.47 254.36l-7.08 54.34 13.02-39.4-5.94-14.94z" stroke="#000" stroke-width="2" stroke-linecap="round" stroke-linejoin="round"/>
  <path d="M181.81 286.23s14.6-25.86 41.8-29.66c0 0 2.79 5.62 5.94 12.97 2 4.65 4.13 10 5.8 15.03 0 0-30.26-5.7-49.03 15.93l-2.18-6.89-2.32-7.38z" fill="#45E0A8"/>
  <path d="M218.5 419.34a7.31 7.31 0 11-14.64 0 7.31 7.31 0 0114.63 0v0z" stroke="#000" stroke-width="2" stroke-linecap="round" stroke-linejoin="round"/>
  <path d="M184.15 293.61s29.04-31.37 45.4-24.07" stroke="#fff" stroke-width="2" stroke-linecap="round" stroke-linejoin="round"/>
  <path d="M126.35 229.1l-7.3 18.22s-4.23 8.54-6.99 15.96c-1.27 3.42-3.01 11.33-1.44 11.85 1.57.53 4.05-6.7 4.05-6.7M116.98 262.56s-5.69 10.59-1.18 14.44M152.46 138.72l5.1 7.86M147 115.93c.28.43 4.66 4.04 6.9 7.25a15.43 15.43 0 012.33 5.13c1.74 6.94-8.46 12.49-8.46 12.49" stroke="#000" stroke-width="2" stroke-linecap="round" stroke-linejoin="round"/>
  <path d="M156.43 126.07s3.11-2.22 2.35-4.03c-1.22-2.91-5.76 0-5.76 0" stroke="#000" stroke-width="2" stroke-linecap="round" stroke-linejoin="round"/>
  <path d="M147 115.93c.72 2.42.98 4.96.77 7.48-.41 3.88 1.06 10.82 2.16 15.3a40.29 40.29 0 011.15 8.18l-19.25 9.67s-7.43-13.56-6.71-27.1c.66-12.47 9.68-19.7 21.88-13.53" fill="#000"/>
  <path d="M147 115.93c.72 2.42.98 4.96.77 7.48-.41 3.88 1.06 10.82 2.16 15.3a40.29 40.29 0 011.15 8.18l-19.25 9.67s-7.43-13.56-6.71-27.1c.66-12.47 9.68-19.7 21.88-13.53zM108.19 99.75l10.28 6.53M122.47 91.59l4.88 6.93" stroke="#000" stroke-width="2" stroke-linecap="round" stroke-linejoin="round"/>
  <path d="M144.7 106.28c-3.26 1.02 1.44 3.87 5.1 5.3 3.68 1.42 7.15 2.03 5.2-1.03-1.93-3.06-10.3-4.28-10.3-4.28" fill="#fff"/>
  <path d="M131.83 156.56s-25.14-47.04 8.39-54.4c27.52-6.02 27 48.39 27 48.39" stroke="#fff" stroke-width="2" stroke-linecap="round" stroke-linejoin="round"/>
  <path d="M186.33 200.36s28.31 33.63 43.33 69.13c15.02 35.5 38.27 131.39 38.27 131.39s-55.9-2.04-75.9 5.71c0 0-3.26-94.25-5.7-106.09-1.36-6.5-7.88-23.6-13.48-37.7-4.6-11.54-8.56-21.06-8.56-21.06" stroke="#000" stroke-width="2" stroke-linecap="round" stroke-linejoin="round"/>
  <path d="M190.1 229.95a8.29 8.29 0 003.52-3.68c.46-1.34.7-2.74.73-4.16-.04-1.31.39-2.6 1.2-3.64l11.72-11.83 6.06-6.11c.7-.9 1.6-1.63 2.63-2.13 1.27-.33 2.58-.51 3.89-.55a7.24 7.24 0 005-2.53 11.17 11.17 0 002.73-6.54.71.71 0 00-.84-.68.7.7 0 00-.36.19l-4.32 4.36-5.08-.75-.8-5.07 4.32-4.36a.71.71 0 00.15-.77.7.7 0 00-.65-.43c-1.73.13-3.4.68-4.89 1.6a8.44 8.44 0 00-3.46 3.52c-1.07 2.4-.18 5.42-1.7 7.62-.43.53-.9 1.03-1.42 1.48l-1.78 1.78-3.7 3.74-7.55 7.62-4.38 4.43a4.86 4.86 0 01-2.16 1.44c-.91.22-1.85.35-2.79.38-2.05 0-4.03.82-5.5 2.26a11.25 11.25 0 00-3.04 6.9.71.71 0 00.84.67.7.7 0 00.36-.19l4.32-4.36 5.08.75.8 5.08-4.32 4.36a.7.7 0 00.5 1.2 11 11 0 004.89-1.6" fill="#45E0A8"/>
  <path d="M190.1 229.95a8.29 8.29 0 003.52-3.68c.46-1.34.7-2.74.73-4.16-.04-1.31.39-2.6 1.2-3.64l11.72-11.83 6.06-6.11c.7-.9 1.6-1.63 2.63-2.13 1.27-.33 2.58-.51 3.89-.55a7.24 7.24 0 005-2.53 11.17 11.17 0 002.73-6.54.71.71 0 00-.84-.68.7.7 0 00-.36.19l-4.32 4.36-5.08-.75-.8-5.07 4.32-4.36a.71.71 0 00.15-.77.7.7 0 00-.65-.43c-1.73.13-3.4.68-4.89 1.6a8.44 8.44 0 00-3.46 3.52c-1.07 2.4-.18 5.42-1.7 7.62-.43.53-.9 1.03-1.42 1.48l-1.78 1.78-3.7 3.74-7.55 7.62-4.38 4.43a4.86 4.86 0 01-2.16 1.44c-.91.22-1.85.35-2.79.38-2.05 0-4.03.82-5.5 2.26a11.25 11.25 0 00-3.04 6.9.71.71 0 00.84.67.7.7 0 00.36-.19l4.32-4.36 5.08.75.8 5.08-4.32 4.36a.7.7 0 00.5 1.2 11 11 0 004.9-1.6v0zM122.06 253.76c0 .3 2.3 6.7 5.29 5.9 0 0 .63 11.46 3.3 8.78 2.66-2.69 1.06-15.13 1.68-20.03.63-4.9 6.5-20.05 6.5-20.05M123.14 265.38s-1.56 10.64-3.19 13.15c0 0-2.2 3.86-3.79-.96M119.7 264.79s-1.6 10.34-3.9 12.21" stroke="#000" stroke-width="2" stroke-linecap="round" stroke-linejoin="round"/>
  <path d="M155.57 188.51s6.2-7.97 14.9-7.24c0 0 1.2 3.62 7.12 5.06 0 0-12.67 4.85-13.3 13.89 0 0-7.7-3.9-8.72-11.7" fill="#45E0A8"/>
  <path d="M201.65 193.94s8.34 8.5 9.18 12.94c.85 4.43-6.64 11.4-9.18 10.94-2.55-.45-9.27-10.85-9.27-10.85l-9.95-3.94v-8.27l19.22-.81z" fill="#fff"/>
  <path d="M196.94 206.25s4.28 6.72 3.67 10.6c-.61 3.88-5.19-4.93-7.43-7.84-2.24-2.9-9.1-5.42-15.42-5.21-6.32.2-20.81-2.86-22.85-18.57-2.04-15.7 4.28-30.4 4.28-30.4" stroke="#000" stroke-width="2" stroke-linecap="round" stroke-linejoin="round"/>
  <path d="M208.58 213.59a8.18 8.18 0 002.23-4.22c.27-2.31-1.9-10.46-7.07-14.55-5.17-4.08-23.94-6.25-30.44-9.52-6.5-3.26.34-22.09-3.57-31.55-1.44-3.5-8.11-8.8-20.94-6.26-18.15 3.6-20.36 15.5-20.36 15.5" stroke="#000" stroke-width="2" stroke-linecap="round" stroke-linejoin="round"/>
  <path d="M200.6 203.8a20.38 20.38 0 014 12s5.72-2.82 3.46-8.33c-2.27-5.5-4.6-7.11-4.6-7.11M204.6 215.8c.1 1.87-4 2.78-4 1.05" stroke="#000" stroke-width="2" stroke-linecap="round" stroke-linejoin="round"/>
  <path fill-rule="evenodd" clip-rule="evenodd" d="M324.31 127.36l6.44 6.09 6.44 6.09-2.06 8.61-2.05 8.62-8.49 2.53-8.49 2.54-4.92-1.17-7.95-11 2.05-8.62 2.05-8.62 12.06-6.24 4.92 1.17zm-2.28 9.57a7.89 7.89 0 10-3.64 15.35 7.89 7.89 0 003.64-15.35z" fill="#000"/>
  <path d="M324.31 127.36l6.44 6.09 6.44 6.09-2.06 8.61-2.05 8.62-8.49 2.53-8.49 2.54-4.92-1.17-7.95-11 2.05-8.62 2.05-8.62 12.06-6.24 4.92 1.17zm-2.28 9.57a7.89 7.89 0 10-3.65 15.35 7.89 7.89 0 003.66-15.35h0z" stroke="#000" stroke-width="1.5" stroke-linecap="round" stroke-linejoin="round"/>
  <path fill-rule="evenodd" clip-rule="evenodd" d="M317.98 127.2l7 6.61 7 6.62-2.23 9.37-2.23 9.37-9.23 2.75-9.23 2.75-7-6.61-7-6.62 2.23-9.37 2.23-9.37 9.23-2.75 9.23-2.76zm-2.48 10.4a8.58 8.58 0 10-3.97 16.68 8.58 8.58 0 003.97-16.69z" fill="#45E0A8"/>
  <path d="M317.98 127.2l7 6.61 7 6.62-2.23 9.37-2.23 9.37-9.23 2.75-9.23 2.75-7-6.61-7-6.62 2.23-9.37 2.23-9.37 9.23-2.75 9.23-2.76zm-2.48 10.4a8.58 8.58 0 10-3.97 16.68 8.58 8.58 0 003.97-16.69v0z" stroke="#000" stroke-width="1.85" stroke-linecap="round" stroke-linejoin="round"/>
  <path fill-rule="evenodd" clip-rule="evenodd" d="M328.74 137.37l-7.02 6.08a8.58 8.58 0 01-1.08 7.26l11.2-9.71.14-.57-3.24-3.06zm-21.85 25.25l10.34-8.96a8.58 8.58 0 01-7.34.04l-6.49 5.63 3.49 3.3z" fill="#fff"/>
  <path d="M317.98 127.2l7 6.61 7 6.62-2.23 9.37-2.23 9.37-9.23 2.75-9.23 2.75-7-6.61-7-6.62 2.23-9.37 2.23-9.37 9.23-2.75 9.23-2.76zm-2.48 10.4a8.58 8.58 0 10-3.97 16.68 8.58 8.58 0 003.97-16.69v0z" stroke="#000" stroke-width="1.85" stroke-linecap="round" stroke-linejoin="round"/>
  <path d="M128.04 163.5l-10.56-1.14c7.75-8.03 25.98-1.91 28.83 4.97l20.17 48.74a9.8 9.8 0 01-4 12.04l-12.84 8.33c-6.51 4.24-23.83.47-25.66-6.63l-3.29-43.8a22.29 22.29 0 017.35-22.5" fill="#45E0A8"/>
  <path d="M128.04 163.5l-10.56-1.14c7.75-8.03 25.98-1.91 28.83 4.97l20.17 48.74a9.8 9.8 0 01-4 12.04l-12.84 8.33c-6.51 4.24-23.83.47-25.66-6.63l-3.29-43.8a22.28 22.28 0 017.35-22.51v0z" stroke="#000" stroke-width="2" stroke-linecap="round" stroke-linejoin="round"/>
  <path d="M117.48 162.37a9.59 9.59 0 0115.59 3.57l17.21 45.49a9.61 9.61 0 01-3.42 11.22l-10.95 7.79a9.6 9.6 0 01-14.91-5.62l-9.8-41.45a21.96 21.96 0 016.28-21" fill="#000"/>
  <path d="M117.48 162.37a9.59 9.59 0 0115.59 3.57l17.21 45.49a9.61 9.61 0 01-3.42 11.22l-10.95 7.79a9.6 9.6 0 01-14.91-5.62l-9.8-41.45a21.96 21.96 0 016.28-21v0zM152.1 216.79l15.03 4.13" stroke="#000" stroke-width="2" stroke-linecap="round" stroke-linejoin="round"/>
  <path d="M162.39 308.7s-17.77-11.98-31.63-8.2l-3.41 16.17s21.76-3.38 32.26 4.18l2.78-12.15z" fill="#45E0A8"/>
  <path d="M128.43 308.7s18-6.95 32.6 5.79" stroke="#fff" stroke-width="2" stroke-linecap="round" stroke-linejoin="round"/>
  <path d="M141.98 238.22s-.96 5.6-4.73 26.55a2894.2 2894.2 0 01-7.64 41.04c-5.3 26.93-11.43 46.1-14.28 66.5-2.86 20.4-3.27 30.2-3.27 30.2s20 3.27 28.97 0c0 0 14.29-62.2 20-88.02a260.4 260.4 0 0114.38-45.2" stroke="#000" stroke-width="2" stroke-linecap="round" stroke-linejoin="round"/>
  <path d="M125.1 177.95c.77 3.07-.54 6.04-2.92 6.64-2.38.6-4.94-1.4-5.71-4.46-.78-3.06.53-6.04 2.91-6.64 2.38-.6 4.94 1.4 5.71 4.46z" fill="#45E0A8"/>
  <path d="M122.06 177.8a68.43 68.43 0 00-8.98 14.96" stroke="#45E0A8" stroke-width="2" stroke-linecap="round" stroke-linejoin="round"/>
  <path fill-rule="evenodd" clip-rule="evenodd" d="M265.95 290.6l5.6-3.97 7.5-4.36 4.71 3.23 6.62 2.83 2.42 10.77-.42 2.8-5.6 3.97-5.6 3.96-6.61-2.83-6.61-2.82-1-6.8-1.01-6.78z" fill="#000"/>
  <path d="M265.95 290.6l5.6-3.97 7.5-4.36 4.71 3.23 6.62 2.83 2.42 10.77-.42 2.8-5.6 3.97-5.6 3.96-6.61-2.83-6.61-2.82-1-6.8-1.01-6.78z" stroke="#000" stroke-width="1.85" stroke-linecap="round" stroke-linejoin="round"/>
  <path fill-rule="evenodd" clip-rule="evenodd" d="M269.2 289l4.92-3.36 4.93-3.37 5.9 2.53 5.9 2.52.98 5.89.97 5.89-4.93 3.36-4.93 3.37-5.9-2.53-5.9-2.52-.98-5.89-.97-5.89z" fill="#45E0A8"/>
  <path d="M269.2 289l4.92-3.36 4.93-3.37 5.9 2.53 5.9 2.52.98 5.89.97 5.89-4.93 3.36-4.93 3.37-5.9-2.53-5.9-2.52-.98-5.89-.97-5.89z" stroke="#000" stroke-width="1.85" stroke-linecap="round" stroke-linejoin="round"/>
  <path fill-rule="evenodd" clip-rule="evenodd" d="M288.26 275.2l-9.52 12.57a8 8 0 00-2.36 4.92 5.71 5.71 0 005.33 6.08c2.57.17 4.8-1.58 6.28-3.58l9.1-13.7-8.83-6.28z" fill="#45E0A8"/>
  <path d="M288.26 275.2l-9.52 12.57a8 8 0 00-2.36 4.92 5.71 5.71 0 005.33 6.08c2.57.17 4.8-1.58 6.28-3.58l9.1-13.7-8.83-6.28z" stroke="#000" stroke-width="2" stroke-linecap="round" stroke-linejoin="round"/>
  <path fill-rule="evenodd" clip-rule="evenodd" d="M286.85 276.84c-1.11 2.14.26 5.05 3.06 6.5 2.8 1.46 5.97.9 7.08-1.23 1.1-2.13-.27-5.04-3.07-6.5s-5.97-.9-7.07 1.23z" fill="#45E0A8"/>
  <path d="M286.85 276.84c-1.11 2.14.26 5.05 3.06 6.5 2.8 1.46 5.97.9 7.08-1.23 1.1-2.13-.27-5.04-3.07-6.5s-5.97-.9-7.07 1.23zM278.74 287.77s1.47 7.7 10.9 4.92M281.48 283.36s1.47 7.68 10.91 4.91" stroke="#000" stroke-width="1.85" stroke-linecap="round" stroke-linejoin="round"/>
</svg>
