<svg width="450" height="450" viewBox="0 0 450 450" fill="none" xmlns="http://www.w3.org/2000/svg">
  <path d="M124.66 75.43a8.1 8.1 0 00-5.74 2.38l-66.07 66.07a177.03 177.03 0 00250.36 250.37l66.08-66.08a8.1 8.1 0 002.37-5.73V80.02a4.6 4.6 0 00-4.59-4.59H124.66z" fill="#FF98AA"/>
  <path d="M93.49 174.34s-10.98 1.56-19.78 5.2c-8.81 3.64-17.11 7.66-17.11 7.66l16.2-3.82s-8.12 6.7-6.94 6.3c1.18-.38 15.52-6.18 15.52-6.18l13.39-3.77-1.28-5.39z" fill="#fff"/>
  <path d="M78.5 229.9c-.39.96-4.03 4.23-5.56 8.34-1.53 4.1 9.58 28.5 11.68 31.53 2.1 3.02 5.14-3.28 5.14-3.28l-.67-7.77 22.53 25.32s4.98-.33 4.4-3.2c-.58-2.88-4.4-12.83-4.4-12.83l12.45 8.61s1.91 1.4 4.21-1.79a155.4 155.4 0 00-8.8-24.56c-5.56-11.75-17-30.2-18.94-32.37-1.93-2.17-22.05 12-22.05 12z" fill="#000"/>
  <path d="M78.5 229.9c-.39.96-4.03 4.23-5.56 8.34-1.53 4.1 9.58 28.5 11.68 31.53 2.1 3.02 5.14-3.28 5.14-3.28l-.67-7.77 22.53 25.32s4.98-.33 4.4-3.2c-.58-2.88-4.4-12.83-4.4-12.83l12.45 8.61s1.91 1.4 4.21-1.79a155.4 155.4 0 00-8.8-24.56c-5.56-11.75-17-30.2-18.94-32.37-1.93-2.17-22.05 12-22.05 12z" stroke="#000" stroke-width="2" stroke-linecap="round" stroke-linejoin="round"/>
  <path d="M231.5 266.49c1.55-2.59 217.12-212.2 217.12-212.2" stroke="#FF98AA" stroke-width="2" stroke-miterlimit="10"/>
  <path d="M213.64 318.8a17.57 17.57 0 11-35.02-2.9 17.57 17.57 0 0135.02 2.9z" fill="#fff"/>
  <path d="M213.64 318.8a17.57 17.57 0 11-35.02-2.9 17.57 17.57 0 0135.02 2.9z" stroke="#FF98AA" stroke-width="2" stroke-linecap="round" stroke-linejoin="round"/>
  <path d="M264.91 296.6a18.54 18.54 0 00-9.9-17.97c1.14-20.17-13.59-49.3-33.84-50.97-5.23-.43-10.69 11.85-15.36 13.42a20.8 20.8 0 00-36.46 18.77 20.77 20.77 0 00-1.15 34.87 14.6 14.6 0 0026.62 11.4 37.25 37.25 0 007.68 4.59 23.52 23.52 0 1045.92 2.79 18.54 18.54 0 0016.5-16.9z" fill="#fff"/>
  <path d="M264.91 296.6a18.54 18.54 0 00-9.9-17.97c1.14-20.17-13.59-49.3-33.84-50.97-5.23-.43-10.69 11.85-15.36 13.42a20.8 20.8 0 00-36.46 18.77 20.77 20.77 0 00-1.15 34.87 14.6 14.6 0 0026.62 11.4 37.25 37.25 0 007.68 4.59 23.52 23.52 0 1045.92 2.79 18.54 18.54 0 0016.5-16.9z" stroke="#FF98AA" stroke-width="2" stroke-linecap="round" stroke-linejoin="round"/>
  <path d="M200.64 261.08a25.12 25.12 0 0116.51-45.6" fill="#fff"/>
  <path d="M200.64 261.08a25.12 25.12 0 0116.51-45.6" stroke="#FF98AA" stroke-width="2" stroke-linecap="round" stroke-linejoin="round"/>
  <path d="M245.26 272.55a20.86 20.86 0 0134.4-4.87 20.87 20.87 0 01-8.73 33.63 18.06 18.06 0 11-31.5 17.64" fill="#fff"/>
  <path d="M245.26 272.55a20.86 20.86 0 0134.4-4.87 20.87 20.87 0 01-8.73 33.63 18.06 18.06 0 11-31.5 17.64" stroke="#FF98AA" stroke-width="2" stroke-linecap="round" stroke-linejoin="round"/>
  <path d="M268.1 231.18c12.64 12.83 14.7 31.3 4.61 41.24-10.09 9.94-28.52 7.6-41.16-5.23-12.64-12.83-14.7-31.3-4.61-41.24 10.09-9.94 28.52-7.6 41.16 5.23z" fill="#000"/>
  <path d="M268.1 231.18c12.64 12.83 14.7 31.3 4.61 41.24-10.09 9.94-28.52 7.6-41.16-5.23-12.64-12.83-14.7-31.3-4.61-41.24 10.09-9.94 28.52-7.6 41.16 5.23z" stroke="#000" stroke-width="2" stroke-linecap="round" stroke-linejoin="round"/>
  <path d="M315.17 85.1s-39.71 37.77-84.77 140.08l.01.01c-3.77 9.18-.01 22.49 10.06 32.72 10.4 10.54 24.14 14.4 33.4 10.18 102.9-43.73 141.16-82.96 141.16-82.96L315.17 85.1z" fill="#fff"/>
  <path d="M315.17 85.1s-39.71 37.77-84.77 140.08l.01.01c-3.77 9.18-.01 22.49 10.06 32.72 10.4 10.54 24.14 14.4 33.4 10.18h0c102.9-43.73 141.16-82.96 141.16-82.96L315.17 85.1z" stroke="#000" stroke-width="2" stroke-linecap="round" stroke-linejoin="round"/>
  <path d="M424.22 171.31c-2.49 5.56-5.6 10.82-9.84 14.51-19.39 19.1-57.31 12.04-84.7-15.78-27.4-27.8-33.9-65.84-14.5-84.93a.15.15 0 00.03-.04c.76-.95 13.58-16.15 62.74-24.86a19.5 19.5 0 00-3.69 2.86c-4.18 4.13-6.26 9.8-6.41 16.22A97.44 97.44 0 01421 133.23c6.41-.04 12.12-2.05 16.29-6.16.15-.14.3-.3.43-.46a251.35 251.35 0 01-8.46 31.5c-1.46 4.14-3.05 8.76-5.04 13.2" fill="#FF98AA"/>
  <path d="M424.22 171.31c-2.49 5.56-5.6 10.82-9.84 14.51-19.39 19.1-57.31 12.04-84.7-15.78-27.4-27.8-33.9-65.84-14.5-84.93a.15.15 0 00.03-.04c.76-.95 13.58-16.15 62.74-24.86a19.5 19.5 0 00-3.69 2.86c-4.18 4.13-6.26 9.8-6.41 16.22A97.44 97.44 0 01421 133.23c6.41-.04 12.12-2.05 16.29-6.16.15-.14.3-.3.43-.46a251.35 251.35 0 01-8.46 31.5c-1.46 4.14-3.05 8.76-5.04 13.2z" stroke="#000" stroke-width="2" stroke-linecap="round" stroke-linejoin="round"/>
  <path d="M312.6 100.66c-3.02 19.67 4.2 45.14 23.07 64.3 18.37 18.66 43.43 26.32 62.76 24.46" stroke="#000" stroke-width="2" stroke-linecap="round" stroke-linejoin="round"/>
  <path d="M300.5 226.44a30.18 30.18 0 01-18.74-8.65 29.52 29.52 0 01-6.87-30.29 27.85 27.85 0 0128.17-18.49c6.78.56 13.24 3.77 18.67 9.26 7.6 7.7 10.6 17.12 8.43 26.53a28.43 28.43 0 01-18.2 20.2 27.52 27.52 0 01-11.46 1.44" fill="#000"/>
  <path d="M300.5 226.44a30.18 30.18 0 01-18.74-8.65 29.52 29.52 0 01-6.87-30.29 27.85 27.85 0 0128.17-18.49c6.78.56 13.24 3.77 18.67 9.26 7.6 7.7 10.6 17.12 8.43 26.53a28.43 28.43 0 01-18.2 20.2 27.51 27.51 0 01-11.46 1.44v0z" stroke="#000" stroke-width="2" stroke-linecap="round" stroke-linejoin="round"/>
  <path d="M297.38 228.8a30.17 30.17 0 01-18.74-8.65 29.52 29.52 0 01-6.87-30.28 27.85 27.85 0 0128.17-18.49c6.78.56 13.24 3.76 18.67 9.25 7.6 7.7 10.6 17.12 8.44 26.54a28.42 28.42 0 01-18.2 20.2 27.5 27.5 0 01-11.47 1.44z" fill="#FF98AA"/>
  <path d="M297.38 228.8a30.17 30.17 0 01-18.74-8.65 29.52 29.52 0 01-6.87-30.28 27.85 27.85 0 0128.17-18.49c6.78.56 13.24 3.76 18.67 9.25 7.6 7.7 10.6 17.12 8.44 26.54a28.42 28.42 0 01-18.2 20.2 27.5 27.5 0 01-11.47 1.44v0z" stroke="#000" stroke-width="2" stroke-linecap="round" stroke-linejoin="round"/>
  <path d="M306.61 221.22c-8.4 2.96-17.76.06-23.37-5.61-5.6-5.68-8.4-15.07-5.35-23.44 4.86-13.33 22.57-20.68 36.12-6.99 13.54 13.7 6 31.33-7.4 36.04" fill="#1D1D1B"/>
  <path d="M448.61 54.3s-1.9 21.1-6.1 46.6a533.09 533.09 0 01-4.79 25.7c-.13.17-.28.32-.43.47-11.66 11.48-35.23 6.47-52.63-11.2a61.71 61.71 0 01-14.51-22.79c38.34-25.32 78.46-38.8 78.46-38.8" fill="#fff"/>
  <path d="M448.61 54.3s-1.9 21.1-6.1 46.6a533.09 533.09 0 01-4.79 25.7c-.13.17-.28.32-.43.47-11.66 11.48-35.23 6.47-52.63-11.2a61.71 61.71 0 01-14.51-22.79c38.35-25.31 78.46-38.79 78.46-38.79z" stroke="#000" stroke-width="2" stroke-linecap="round" stroke-linejoin="round"/>
  <path d="M448.62 54.3s-40.12 13.47-78.47 38.79c-4.02-11.77-2.91-23.09 4.11-30.02 1.11-1.1 2.35-2.06 3.69-2.86a343.93 343.93 0 0118.92-2.76h.01a491.86 491.86 0 0151.74-3.16" fill="#1D1D1B"/>
  <path d="M448.61 54.3s-1.9 21.1-6.1 46.6a533.09 533.09 0 01-4.79 25.7c-.13.17-.28.32-.43.47-11.66 11.48-35.23 6.47-52.63-11.2-17.4-17.68-22.07-41.3-10.4-52.8 1.11-1.1 2.35-2.06 3.69-2.87a343.93 343.93 0 0118.92-2.76h.01a491.9 491.9 0 0151.73-3.15v0z" stroke="#000" stroke-width="2" stroke-linecap="round" stroke-linejoin="round"/>
  <path d="M249.17 185.44l-35.09 10.91-16.7 53.92 33.02-25.09 18.77-39.74z" fill="#FF98AA"/>
  <path d="M249.17 185.44l-35.09 10.91-16.7 53.92 33.02-25.09 18.77-39.74z" stroke="#000" stroke-width="2" stroke-linecap="round" stroke-linejoin="round"/>
  <path d="M317.43 248.08l-11.05 34.23-53.66 17.5 24.6-33.4 40.1-18.33z" fill="#FF98AA"/>
  <path d="M317.43 248.08l-11.05 34.23-53.66 17.5 24.6-33.4 40.1-18.33zM270.6 227.81l-52.62 54.12" stroke="#000" stroke-width="2" stroke-linecap="round" stroke-linejoin="round"/>
  <path d="M208.19 311.52a9.43 9.43 0 01-16.73-8.68" fill="#fff"/>
  <path d="M208.19 311.52a9.43 9.43 0 01-16.73-8.68" stroke="#FF98AA" stroke-width="2" stroke-linecap="round" stroke-linejoin="round"/>
  <path d="M171.23 274.83a10.62 10.62 0 013.21-18.03" fill="#fff"/>
  <path d="M171.23 274.83a10.62 10.62 0 013.21-18.03" stroke="#FF98AA" stroke-width="2" stroke-linecap="round" stroke-linejoin="round"/>
  <path d="M186.14 285.76a7.46 7.46 0 01-5.27-13.93" fill="#fff"/>
  <path d="M186.14 285.76a7.46 7.46 0 01-5.27-13.93" stroke="#FF98AA" stroke-width="2" stroke-linecap="round" stroke-linejoin="round"/>
  <path d="M317.68 203.4c-.4 2.22-1.59 2.36-4.42 1.83-3-.55-3.41-1.16-3.35-3.45.47-5.86-2.49-11.46-8.9-13.18-2.03-.55-2.4-1.41-1.93-3.98.44-2.4 1-3.46 2.88-3.1a19.14 19.14 0 0115.72 21.87" fill="#fff"/>
  <path d="M71.15 228.9c.17-.14-6.01-7.67-6.61-8.67-4.52-7.49.85-16.33 7.63-20.13 9.7-5.44 8.94-10.41 8.94-10.41a14.85 14.85 0 011.16 6.87s4.2-2.66 5.48-6.87c0 0 5.87 2.94 4.85 11.87-.41 3.58-3.94 8.7-8.03 13.53a163.8 163.8 0 01-13.42 13.82z" fill="#000"/>
  <path d="M71.15 228.9c.17-.14-6.01-7.67-6.61-8.67-4.52-7.49.85-16.33 7.63-20.13 9.7-5.44 8.94-10.41 8.94-10.41a14.85 14.85 0 011.16 6.87s4.2-2.66 5.48-6.87c0 0 5.87 2.94 4.85 11.87-.41 3.58-3.94 8.7-8.03 13.53a163.8 163.8 0 01-13.42 13.82v0zM89.76 268s2.52 4.6 4.05 5.94M85.83 270.58s1.2 6.04 6.89 7M90.56 273.94l3.25 3.64M116.8 284.04c0 2.6-1.08 4.72-2.4 4.72-1.33 0-2.4-2.11-2.4-4.72 0-2.6 1.08-4.72 2.4-4.72 1.32 0 2.4 2.12 2.4 4.72z" stroke="#000" stroke-width="2" stroke-linecap="round" stroke-linejoin="round"/>
  <path d="M107.5 393.5c.73 3.32-.05 6.31-1.73 6.68-1.68.37-3.64-2.02-4.37-5.34s.05-6.31 1.73-6.68c1.69-.37 3.64 2.02 4.37 5.34z" fill="#fff"/>
  <path d="M107.5 393.5c.73 3.32-.05 6.31-1.73 6.68-1.68.37-3.64-2.02-4.37-5.34s.05-6.31 1.73-6.68c1.69-.37 3.64 2.02 4.37 5.34z" stroke="#000" stroke-width="2" stroke-linecap="round" stroke-linejoin="round"/>
  <path d="M122.55 382.48c2.12 2.66 2.75 5.68 1.4 6.76-1.34 1.07-4.15-.2-6.27-2.86-2.12-2.66-2.75-5.68-1.4-6.76 1.34-1.07 4.16.2 6.28 2.86" fill="#fff"/>
  <path d="M122.55 382.48c2.12 2.66 2.75 5.68 1.4 6.76-1.34 1.07-4.15-.2-6.27-2.86-2.12-2.66-2.75-5.68-1.4-6.76 1.34-1.07 4.15.2 6.27 2.86zM128.82 274.17c2.54.59 4.36 2.1 4.06 3.4-.3 1.3-2.6 1.86-5.14 1.27-2.54-.59-4.36-2.11-4.06-3.4.3-1.28 2.6-1.86 5.14-1.27z" stroke="#000" stroke-width="2" stroke-linecap="round" stroke-linejoin="round"/>
  <path d="M109.13 231.05s-1.72-2.85 2.88-11.88c4.6-9.02 17.87-26.55 9.95-39.57-7.91-13.02-34.16-14.8-34.16-14.8s7.6 3.94 4.92 16.65c0 0 11.88.2 14.95 8.24 3.06 8.04-2.25 22.78-10.39 27.98-8.14 5.2 11.85 13.38 11.85 13.38" fill="#000"/>
  <path d="M109.13 231.05s-1.72-2.85 2.88-11.88c4.6-9.02 17.87-26.55 9.95-39.57-7.91-13.02-34.16-14.8-34.16-14.8s7.6 3.94 4.92 16.65c0 0 11.88.2 14.95 8.24 3.06 8.04-2.25 22.78-10.39 27.98-8.14 5.2 11.85 13.38 11.85 13.38z" stroke="#000" stroke-width="2" stroke-linecap="round" stroke-linejoin="round"/>
  <path d="M89.28 164.93s-15.87 1.49-21.72 4S50.48 179.8 51 181.45c.52 1.65 16.56-7.21 16.56-7.21s-17.85 7.91-17.34 9.7c.51 1.78 22.58-6.5 22.58-6.5s-16.2 6.67-16.2 9.76S76 181.45 76 181.45s-14.24 8.36-10.9 8.24c3.34-.13 15.25-6 15.25-6l12.38-2.24" stroke="#000" stroke-width="2" stroke-linecap="round" stroke-linejoin="round"/>
  <path d="M56.6 254.87s-1.28-16.55-15.06-14.5c-13.79 2.05-13.79 18.89-22.21 22.46 0 0 5.61.06 8.42-1.75 0 0-2.04 14.15-12.25 20.85a15.43 15.43 0 0014.3-1.22s-.77 2.89-4.85 5.4c0 0 11.48-.5 18.63-10.35 4.76-6.7 9.1-13.67 13.02-20.89z" fill="#000"/>
  <path d="M56.6 254.87s-1.28-16.55-15.06-14.5c-13.79 2.05-13.79 18.89-22.21 22.46 0 0 5.61.06 8.42-1.75 0 0-2.04 14.15-12.25 20.85a15.43 15.43 0 0014.3-1.22s-.77 2.89-4.85 5.4c0 0 11.48-.5 18.63-10.35 4.76-6.7 9.1-13.67 13.02-20.89v0z" stroke="#000" stroke-width="2" stroke-linecap="round" stroke-linejoin="round"/>
  <path d="M59.35 265.82s6.95-3.63 10.02-2.67c3.06.96 14.55 25.61 14.55 25.61l-2.8 4.71c3.63 8.62 5.6 14.15 6.1 18.13L71.5 326.4l-27.67-18.12s-4.75-12.36-4.73-18.68c.01-4.07 7.71-15.66 7.71-15.66l12.54-8.12z" fill="#fff"/>
  <path d="M59.35 265.82s6.95-3.63 10.02-2.67c3.06.96 14.55 25.61 14.55 25.61l-2.8 4.71c3.63 8.62 5.6 14.15 6.1 18.13L71.5 326.4l-27.67-18.12s-4.75-12.36-4.73-18.68c.01-4.07 7.71-15.66 7.71-15.66l12.54-8.12zM84.36 297.86s3.44-5.15-.44-9.1" stroke="#000" stroke-width="2" stroke-linecap="round" stroke-linejoin="round"/>
  <path d="M76.48 315.13s9.35-5.4 17.33-3.53c6.03 1.42 20.17 26.85 22.02 30.7 1.86 3.85-3.83 5.56-3.83 5.56l9.2 33.44s-1.92 3.57-4.4 3.32c-2.48-.26-11.3-8.04-11.3-8.04l2.43 15.95s-4.55 2.56-7.39 1.28c-2.83-1.28-26.07-29.87-26.07-29.87l5.12 19.15s-3.62 2.8-6.8.26c-3.17-2.56-17.2-31.6-17.98-35.5-1.85-9.19 12.75-19.08 12.75-19.08l8.92-13.64z" fill="#000"/>
  <path d="M76.48 315.13s9.35-5.4 17.33-3.53c6.03 1.42 20.17 26.85 22.02 30.7 1.86 3.85-3.83 5.56-3.83 5.56l9.2 33.44s-1.92 3.57-4.4 3.32c-2.48-.26-11.3-8.04-11.3-8.04l2.43 15.95s-4.55 2.56-7.39 1.28c-2.83-1.28-26.07-29.87-26.07-29.87l5.12 19.15s-3.62 2.8-6.8.26c-3.17-2.56-17.2-31.6-17.98-35.5-1.85-9.19 12.75-19.08 12.75-19.08l8.92-13.64z" stroke="#000" stroke-width="2" stroke-linecap="round" stroke-linejoin="round"/>
  <path d="M79.35 318.5s5.45 18.32.24 19.74c-8 2.2-14.72-7.42-14.72-7.42l14.48-12.33z" fill="#FF98AA"/>
  <path d="M79.35 318.5s5.45 18.32.24 19.74c-8 2.2-14.72-7.42-14.72-7.42l14.48-12.33z" stroke="#FF98AA" stroke-width="2" stroke-linecap="round" stroke-linejoin="round"/>
  <path d="M73.7 171.69s4.03 3.5 5.56 6.44M70.52 276.5c.25.63 10.86 17.76 10.86 17.76M114.91 343.29s4.19 8.3 1.88 10.95c-2.3 2.64-4.79-1.36-4.79-1.36M79.59 383.09s2.54 3.06 2.54 6.32M73.9 385.39s4.02 9.96 8.23 10.72l-2.11-6.7" stroke="#000" stroke-width="2" stroke-linecap="round" stroke-linejoin="round"/>
  <path d="M67.5 298.07s-10.41-5.37-17.3 1.73c-6.88 7.1-10.2 16.55-14.15 15.32 0 0 1.67 5.16 5.5 4.65 0 0-2.96 6.64-7.23 6.64 4.78 6.87 24.91 9.17 28.55 2.36l4.63-30.7z" fill="#000"/>
  <path d="M67.5 298.07s-10.41-5.37-17.3 1.73c-6.88 7.1-10.2 16.55-14.15 15.32 0 0 1.67 5.16 5.5 4.65 0 0-2.96 6.64-7.23 6.64 4.78 6.87 24.91 9.17 28.55 2.36l4.63-30.7z" stroke="#000" stroke-width="2" stroke-linecap="round" stroke-linejoin="round"/>
  <path d="M65.76 297.47c.6.12 1.2.33 1.74.6 4.51 2.26 7.68 7.23 9.66 11.66 2.82 6.3 3.3 14.53-.25 20.65-.41.78-.97 1.46-1.66 2.01-2.31 1.71-5.85.6-8.28-.32-.73-.28-8.47-5.2-7.71-5.66 0 0-5.8 2.92-6.43-2.55-.63-5.36 3.66-4.1 3.77-4.09-1.57-.18-2.65-4.9-2.85-5.96-.67-3.2-.31-6.52 1-9.5 1.88-4 6.57-7.71 11-6.83" fill="#FF98AA"/>
  <path d="M65.81 315.31s5.01-3.7 5.69-1.92c.68 1.79-2.84 5.1-2.84 5.1" fill="#FF98AA"/>
  <path d="M65.81 315.31s5.01-3.7 5.69-1.92c.68 1.79-2.84 5.1-2.84 5.1" stroke="#000" stroke-width="2" stroke-linecap="round" stroke-linejoin="round"/>
  <path d="M59.26 299.08a19.96 19.96 0 0112.24 10.65c4.25 8.76 3.75 22.66 3.75 22.66s7.61-11.78 2.67-20.74c-4.95-8.96-11.15-16.91-18.66-12.57" fill="#fff"/>
  <path d="M65.76 297.47c.6.13 1.2.33 1.74.6 4.51 2.26 7.68 7.23 9.66 11.66 2.82 6.3 3.3 14.53-.25 20.65-.41.78-.97 1.46-1.66 2.01-2.31 1.71-5.85.6-8.28-.32-.73-.28-8.47-5.2-7.71-5.66 0 0-5.28 2.37-6.43-2.55-1.25-5.32 3.66-4.1 3.77-4.09-1.57-.18-2.65-4.9-2.85-5.96-.67-3.2-.31-6.52 1-9.5 1.88-4.01 6.57-7.72 11.01-6.84zM48.94 291.18s3.8 4.74 3.68 8.62" stroke="#000" stroke-width="2" stroke-linecap="round" stroke-linejoin="round"/>
  <path d="M48.72 276.04s4.56 6.98 7.88 5.89c3.32-1.1 1.48-10.37 1.48-10.37l-9.36 4.48z" fill="#FF98AA"/>
  <path d="M48.72 276.04s4.56 6.98 7.88 5.89c3.32-1.1 1.48-10.37 1.48-10.37l-9.36 4.48z" stroke="#000" stroke-width="2" stroke-linecap="round" stroke-linejoin="round"/>
  <path d="M81.38 232.58c.38 2.03 6.88 7.49 12.43 5.66 5.56-1.83 0-9.24 0-9.24l-12.43 3.58z" fill="#FF98AA"/>
  <path d="M81.38 232.58c.38 2.03 6.88 7.49 12.43 5.66 5.56-1.83 0-9.24 0-9.24l-12.43 3.58z" stroke="#FF98AA" stroke-width="2" stroke-linecap="round" stroke-linejoin="round"/>
  <path d="M83.4 205.49s-9.44-2.91-12.5 6.8c-1.86 5.88 2.04 14.25 2.04 14.25s-4.85-1.75-5.36 1.06c-.51 2.81 8.17 3.32 8.17 3.32s6.9 6.38 15.32 4.85c8.42-1.53 9.44-25.08-7.66-30.28z" fill="#FF98AA"/>
  <path d="M77.16 205.52s10.97 6.5 13.78 15.7c2.8 9.2 2.23 13.62 2.23 13.62s7.37-7.9 2.38-17.94c-4.99-10.05-11.75-12.65-18.4-11.38z" fill="#fff"/>
  <path d="M85.83 215.22s2.81-2.04 3.7-.64c.9 1.4-1.14 3.32-1.14 3.32" fill="#FF98AA"/>
  <path d="M85.83 215.22s2.81-2.04 3.7-.64c.9 1.4-1.14 3.32-1.14 3.32" stroke="#000" stroke-width="2" stroke-linecap="round" stroke-linejoin="round"/>
  <path d="M83.4 205.49s-9.44-2.91-12.5 6.8c-1.86 5.88 2.04 14.25 2.04 14.25s-4.85-1.75-5.36 1.06c-.51 2.81 8.17 3.32 8.17 3.32s6.9 6.38 15.32 4.85c8.42-1.53 9.44-25.08-7.66-30.28z" stroke="#000" stroke-width="2" stroke-linecap="round" stroke-linejoin="round"/>
  <path d="M55.77 274.62a7.43 7.43 0 002.31-3.06 14.42 14.42 0 001.18-6.94c-.87-8.42-4.45-20.94-14.91-19.15-10.47 1.8-5.37 19.15-5.37 19.15s-6.12-1.63-4.34 1.87c1.8 3.5 6.36 4.1 6.39 4.1.92.12 1.8 1.62 2.39 2.24 1.48 1.57 3.07 3 5.3 3.22 2.28.28 4.6-.12 6.65-1.16.13-.08.27-.17.4-.27" fill="#FF98AA"/>
  <path d="M41.55 246.51s10.77 5.71 13.77 14.93c3.01 9.22 0 13.6 0 13.6s6.31-5.08 3.14-15.44c-3.17-10.36-7.2-15.37-16.91-13.09z" fill="#fff"/>
  <path d="M52.2 260.76s1.78-3.29.06-3.96c-1.44-.56-2.65.8-3.32 2.46" fill="#FF98AA"/>
  <path d="M52.2 260.76s1.78-3.29.06-3.96c-1.44-.56-2.65.8-3.32 2.46" stroke="#000" stroke-width="2" stroke-linecap="round" stroke-linejoin="round"/>
  <path d="M55.77 274.62a7.43 7.43 0 002.31-3.06 14.42 14.42 0 001.18-6.94c-.87-8.42-4.45-20.94-14.91-19.15-10.47 1.8-5.37 19.15-5.37 19.15s-6.12-1.63-4.34 1.87c1.8 3.5 6.36 4.1 6.39 4.1.92.12 1.8 1.62 2.39 2.24 1.48 1.57 3.07 3 5.3 3.22 2.28.28 4.6-.12 6.65-1.16.14-.08.27-.17.4-.27z" stroke="#000" stroke-width="2" stroke-linecap="round" stroke-linejoin="round"/>
</svg>
