<svg width="360" height="360" viewBox="0 0 360 360" fill="none" xmlns="http://www.w3.org/2000/svg">
  <path d="M99.73 60.34a6.49 6.49 0 00-4.6 1.9l-52.85 52.87a141.62 141.62 0 00200.3 200.28l52.85-52.86a6.48 6.48 0 001.9-4.58V64.02a3.67 3.67 0 00-3.67-3.68H99.73z" fill="#FF98AA"/>
  <path d="M74.8 139.47s-8.79 1.25-15.83 4.16a285.2 285.2 0 00-13.69 6.13l12.96-3.06s-6.5 5.36-5.55 5.05c.94-.31 12.41-4.95 12.41-4.95l10.72-3.02-1.03-4.3z" fill="#fff"/>
  <path d="M62.8 183.92c-.31.77-3.22 3.39-4.45 6.67-1.22 3.29 7.66 22.81 9.35 25.23 1.68 2.42 4.11-2.63 4.11-2.63l-.54-6.21 18.03 20.26s3.98-.27 3.52-2.57c-.46-2.3-3.52-10.26-3.52-10.26l9.95 6.89s1.54 1.12 3.38-1.43a124.36 124.36 0 00-7.05-19.66c-4.44-9.4-13.6-24.16-15.15-25.89-1.55-1.73-17.63 9.6-17.63 9.6" fill="#000"/>
  <path d="M62.8 183.92c-.31.77-3.22 3.39-4.45 6.67-1.22 3.29 7.66 22.81 9.35 25.23 1.68 2.42 4.11-2.63 4.11-2.63l-.54-6.21 18.03 20.26s3.98-.27 3.52-2.57c-.46-2.3-3.52-10.26-3.52-10.26l9.95 6.89s1.54 1.12 3.38-1.43a124.36 124.36 0 00-7.05-19.66c-4.44-9.4-13.6-24.16-15.15-25.89-1.55-1.73-17.63 9.6-17.63 9.6z" stroke="#000" stroke-width="2" stroke-linecap="round" stroke-linejoin="round"/>
  <path d="M185.2 213.19c1.24-2.07 173.7-169.76 173.7-169.76" stroke="#FF98AA" stroke-width="2" stroke-miterlimit="10"/>
  <path d="M170.9 255.03a14.06 14.06 0 11-28-2.31 14.06 14.06 0 0128 2.31z" fill="#fff"/>
  <path d="M170.9 255.03a14.06 14.06 0 11-28-2.31 14.06 14.06 0 0128 2.31z" stroke="#FF98AA" stroke-width="2" stroke-linecap="round" stroke-linejoin="round"/>
  <path d="M211.93 237.28a14.83 14.83 0 00-7.92-14.37c.91-16.14-10.87-39.44-27.07-40.78-4.19-.35-8.56 9.48-12.3 10.73a16.64 16.64 0 00-29.16 15.02 16.6 16.6 0 00-.92 27.9 11.67 11.67 0 0021.3 9.11c1.88 1.47 3.95 2.7 6.14 3.68a18.82 18.82 0 1036.74 2.23 14.83 14.83 0 0013.2-13.52z" fill="#fff"/>
  <path d="M211.93 237.28a14.83 14.83 0 00-7.92-14.37c.91-16.14-10.87-39.44-27.07-40.78-4.19-.35-8.56 9.48-12.3 10.73a16.64 16.64 0 00-29.16 15.02 16.6 16.6 0 00-.92 27.9 11.67 11.67 0 0021.3 9.11c1.88 1.47 3.95 2.7 6.14 3.68a18.82 18.82 0 1036.74 2.23 14.83 14.83 0 0013.2-13.52z" stroke="#FF98AA" stroke-width="2" stroke-linecap="round" stroke-linejoin="round"/>
  <path d="M160.5 208.86a20.1 20.1 0 0113.22-36.47" fill="#fff"/>
  <path d="M160.5 208.86a20.1 20.1 0 0113.22-36.47" stroke="#FF98AA" stroke-width="2" stroke-linecap="round" stroke-linejoin="round"/>
  <path d="M196.2 218.04a16.7 16.7 0 1120.54 23 14.43 14.43 0 01-5.27 20.14 14.45 14.45 0 01-19.92-6.02" fill="#fff"/>
  <path d="M196.2 218.04a16.7 16.7 0 1120.54 23 14.43 14.43 0 01-5.27 20.14 14.45 14.45 0 01-19.92-6.02" stroke="#FF98AA" stroke-width="2" stroke-linecap="round" stroke-linejoin="round"/>
  <path d="M214.48 184.95c10.11 10.26 11.76 25.03 3.69 32.99-8.07 7.95-22.82 6.07-32.93-4.19-10.11-10.26-11.76-25.04-3.69-32.99 8.07-7.95 22.82-6.08 32.93 4.19" fill="#000"/>
  <path d="M214.48 184.95c10.11 10.26 11.76 25.03 3.69 32.99-8.07 7.95-22.82 6.08-32.93-4.19-10.11-10.26-11.76-25.04-3.69-32.99 8.07-7.95 22.82-6.08 32.93 4.19z" stroke="#000" stroke-width="2" stroke-linecap="round" stroke-linejoin="round"/>
  <path d="M252.14 68.08s-31.77 30.21-67.82 112.07h.01c-3.02 7.35-.01 18 8.05 26.18 8.31 8.43 19.3 11.52 26.72 8.14 82.31-34.98 112.92-66.37 112.92-66.37l-79.88-80.02z" fill="#fff"/>
  <path d="M252.14 68.08s-31.77 30.21-67.82 112.07h.01c-3.02 7.35-.01 18 8.05 26.18 8.31 8.43 19.3 11.52 26.72 8.14h0c82.31-34.98 112.92-66.37 112.92-66.37l-79.88-80.02z" stroke="#000" stroke-width="2" stroke-linecap="round" stroke-linejoin="round"/>
  <path d="M339.38 137.05c-2 4.44-4.48 8.66-7.87 11.61-15.52 15.27-45.86 9.63-67.77-12.63-21.92-22.25-27.11-52.67-11.6-67.94l.03-.03c.6-.76 10.86-12.92 50.19-19.9a15.57 15.57 0 00-2.95 2.3c-3.35 3.3-5.01 7.84-5.13 12.97a77.95 77.95 0 0142.52 43.16c5.13-.04 9.7-1.64 13.03-4.93.13-.12.24-.24.35-.37a201.15 201.15 0 01-6.77 25.2c-1.17 3.3-2.45 7-4.04 10.56" fill="#FF98AA"/>
  <path d="M339.38 137.05c-2 4.44-4.48 8.66-7.87 11.61-15.52 15.27-45.86 9.63-67.77-12.63-21.92-22.25-27.11-52.67-11.6-67.94l.03-.03c.6-.76 10.86-12.92 50.19-19.9a15.57 15.57 0 00-2.95 2.3c-3.35 3.3-5.01 7.84-5.13 12.97a77.95 77.95 0 0142.52 43.16c5.13-.04 9.7-1.64 13.03-4.93.13-.12.24-.24.35-.37a201.15 201.15 0 01-6.77 25.2c-1.17 3.3-2.44 7-4.04 10.56z" stroke="#000" stroke-width="2" stroke-linecap="round" stroke-linejoin="round"/>
  <path d="M250.07 80.53c-2.4 15.74 3.38 36.11 18.47 51.44 14.7 14.92 34.74 21.05 50.2 19.56" stroke="#000" stroke-width="2" stroke-linecap="round" stroke-linejoin="round"/>
  <path d="M240.4 181.15a24.14 24.14 0 01-14.99-6.92 23.62 23.62 0 01-5.5-24.23 22.29 22.29 0 0122.54-14.79c5.42.45 10.59 3.01 14.93 7.4 6.09 6.16 8.48 13.7 6.75 21.23A22.74 22.74 0 01249.57 180a22 22 0 01-9.17 1.15" fill="#000"/>
  <path d="M240.4 181.15a24.14 24.14 0 01-14.99-6.92 23.62 23.62 0 01-5.5-24.23 22.29 22.29 0 0122.54-14.79c5.42.45 10.59 3.01 14.93 7.4 6.09 6.16 8.48 13.7 6.75 21.23A22.74 22.74 0 01249.57 180a22 22 0 01-9.17 1.15v0z" stroke="#000" stroke-width="2" stroke-linecap="round" stroke-linejoin="round"/>
  <path d="M237.9 183.05a24.14 24.14 0 01-14.99-6.93 23.62 23.62 0 01-5.5-24.22 22.28 22.28 0 0122.55-14.8c5.42.45 10.58 3.01 14.93 7.4 6.09 6.16 8.48 13.7 6.75 21.24a22.76 22.76 0 01-14.56 16.16 22 22 0 01-9.18 1.15" fill="#FF98AA"/>
  <path d="M237.9 183.05a24.14 24.14 0 01-14.99-6.93 23.62 23.62 0 01-5.5-24.22 22.28 22.28 0 0122.55-14.8c5.42.45 10.58 3.01 14.93 7.4 6.09 6.16 8.48 13.7 6.75 21.24a22.76 22.76 0 01-14.56 16.16 22 22 0 01-9.18 1.15v0z" stroke="#000" stroke-width="2" stroke-linecap="round" stroke-linejoin="round"/>
  <path d="M245.3 176.98c-6.73 2.36-14.22.04-18.7-4.5-4.5-4.53-6.73-12.05-4.29-18.74 3.9-10.67 18.06-16.55 28.9-5.6 10.83 10.97 4.8 25.07-5.92 28.84" fill="#1D1D1B"/>
  <path d="M358.9 43.43s-1.53 16.88-4.89 37.3a426.38 426.38 0 01-3.83 20.55c-.1.14-.23.26-.35.37-9.32 9.2-28.18 5.18-42.1-8.96a49.36 49.36 0 01-11.6-18.23c30.66-20.25 62.76-31.03 62.76-31.03" fill="#fff"/>
  <path d="M358.9 43.43s-1.53 16.88-4.89 37.3a426.57 426.57 0 01-3.83 20.55c-.1.14-.23.26-.35.37-9.32 9.2-28.18 5.18-42.1-8.96a49.36 49.36 0 01-11.6-18.22c30.67-20.26 62.76-31.04 62.76-31.04z" stroke="#000" stroke-width="2" stroke-linecap="round" stroke-linejoin="round"/>
  <path d="M358.9 43.43s-32.1 10.78-62.78 31.04c-3.22-9.42-2.33-18.47 3.29-24.01.89-.88 1.88-1.65 2.95-2.3 4.63-.8 9.66-1.55 15.14-2.2a393.48 393.48 0 0141.4-2.53" fill="#1D1D1B"/>
  <path d="M358.9 43.43s-1.53 16.88-4.89 37.3a426.57 426.57 0 01-3.83 20.55c-.1.14-.23.26-.35.37-9.32 9.2-28.18 5.18-42.1-8.96-13.93-14.13-17.66-33.04-8.32-42.24.89-.88 1.88-1.65 2.95-2.29 4.63-.81 9.66-1.56 15.14-2.2 0 0 0-.02 0 0a393.5 393.5 0 0141.4-2.53v0z" stroke="#000" stroke-width="2" stroke-linecap="round" stroke-linejoin="round"/>
  <path d="M199.33 148.35l-28.07 8.73-13.35 43.13 26.41-20.06 15.01-31.8z" fill="#FF98AA"/>
  <path d="M199.33 148.35l-28.07 8.73-13.35 43.13 26.41-20.06 15.01-31.8z" stroke="#000" stroke-width="2" stroke-linecap="round" stroke-linejoin="round"/>
  <path d="M253.94 198.46l-8.84 27.38-42.92 14 19.67-26.71 32.1-14.67z" fill="#FF98AA"/>
  <path d="M253.94 198.46l-8.84 27.38-42.92 14 19.67-26.71 32.1-14.67zM216.48 182.25l-42.1 43.3" stroke="#000" stroke-width="2" stroke-linecap="round" stroke-linejoin="round"/>
  <path d="M166.55 249.22a7.54 7.54 0 01-13.38-6.95" fill="#fff"/>
  <path d="M166.55 249.22a7.54 7.54 0 01-13.38-6.95" stroke="#FF98AA" stroke-width="2" stroke-linecap="round" stroke-linejoin="round"/>
  <path d="M136.99 219.87a8.5 8.5 0 012.56-14.43" fill="#fff"/>
  <path d="M136.99 219.87a8.5 8.5 0 012.56-14.43" stroke="#FF98AA" stroke-width="2" stroke-linecap="round" stroke-linejoin="round"/>
  <path d="M148.9 228.61a5.97 5.97 0 01-4.2-11.14" fill="#fff"/>
  <path d="M148.9 228.61a5.97 5.97 0 01-4.2-11.14" stroke="#FF98AA" stroke-width="2" stroke-linecap="round" stroke-linejoin="round"/>
  <path d="M254.15 162.71c-.33 1.79-1.28 1.9-3.54 1.48-2.4-.45-2.73-.93-2.68-2.77.37-4.68-2-9.16-7.13-10.54-1.62-.44-1.92-1.13-1.54-3.19.36-1.92.8-2.76 2.3-2.48a15.3 15.3 0 0112.59 17.5" fill="#fff"/>
  <path d="M56.92 183.13c.14-.12-4.81-6.15-5.3-6.94-3.6-6 .7-13.07 6.12-16.11 7.76-4.35 7.15-8.33 7.15-8.33.74 1.73 1.06 3.62.92 5.5 0 0 3.36-2.13 4.39-5.5 0 0 4.7 2.35 3.88 9.5-.33 2.86-3.16 6.95-6.42 10.82-3.36 3.9-6.95 7.59-10.74 11.06" fill="#000"/>
  <path d="M56.92 183.13c.14-.12-4.81-6.15-5.3-6.94-3.6-6 .7-13.07 6.12-16.11 7.76-4.35 7.15-8.33 7.15-8.33.74 1.73 1.06 3.62.92 5.5 0 0 3.36-2.13 4.39-5.5 0 0 4.7 2.35 3.88 9.5-.33 2.86-3.16 6.95-6.42 10.82-3.36 3.9-6.95 7.59-10.74 11.06v0zM71.81 214.4s2.02 3.68 3.24 4.75M68.67 216.47s.96 4.83 5.5 5.6M72.45 219.15l2.6 2.91M93.43 227.23c0 2.09-.85 3.78-1.91 3.78s-1.92-1.7-1.92-3.78.86-3.77 1.92-3.77 1.91 1.69 1.91 3.77z" stroke="#000" stroke-width="2" stroke-linecap="round" stroke-linejoin="round"/>
  <path d="M86 314.8c.58 2.65-.04 5.05-1.38 5.34-1.35.3-2.91-1.61-3.5-4.27-.58-2.65.04-5.05 1.39-5.34 1.34-.3 2.9 1.62 3.49 4.27z" fill="#fff"/>
  <path d="M86 314.8c.58 2.65-.04 5.05-1.38 5.34-1.35.3-2.91-1.61-3.5-4.27-.58-2.65.04-5.05 1.39-5.34 1.34-.3 2.9 1.62 3.49 4.27z" stroke="#000" stroke-width="2" stroke-linecap="round" stroke-linejoin="round"/>
  <path d="M98.04 305.98c1.7 2.13 2.2 4.55 1.12 5.41-1.07.86-3.32-.16-5.02-2.29-1.7-2.12-2.2-4.54-1.12-5.4 1.08-.86 3.33.16 5.02 2.28" fill="#fff"/>
  <path d="M98.04 305.98c1.7 2.13 2.2 4.55 1.12 5.41-1.07.86-3.32-.16-5.02-2.29-1.7-2.12-2.2-4.54-1.12-5.4 1.08-.86 3.33.16 5.02 2.28zM103.06 219.34c2.03.47 3.48 1.68 3.24 2.72-.23 1.03-2.08 1.48-4.1 1.01-2.04-.47-3.5-1.69-3.25-2.71.23-1.03 2.08-1.5 4.1-1.02z" stroke="#000" stroke-width="2" stroke-linecap="round" stroke-linejoin="round"/>
  <path d="M87.3 184.84s-1.37-2.28 2.3-9.5c3.68-7.22 14.3-21.24 7.97-31.66-6.33-10.42-27.33-11.85-27.33-11.85s6.08 3.16 3.94 13.33c0 0 9.5.15 11.95 6.59 2.45 6.43-1.8 18.23-8.3 22.39-6.52 4.16 9.48 10.7 9.48 10.7" fill="#000"/>
  <path d="M87.3 184.84s-1.37-2.28 2.3-9.5c3.68-7.22 14.3-21.24 7.97-31.66-6.33-10.42-27.33-11.85-27.33-11.85s6.08 3.16 3.94 13.33c0 0 9.5.15 11.95 6.59 2.45 6.43-1.8 18.23-8.3 22.39-6.52 4.16 9.48 10.7 9.48 10.7z" stroke="#000" stroke-width="2" stroke-linecap="round" stroke-linejoin="round"/>
  <path d="M71.42 131.94s-12.7 1.2-17.37 3.2c-4.69 2.01-13.66 8.7-13.25 10.02.41 1.31 13.25-5.77 13.25-5.77s-14.28 6.33-13.87 7.76c.4 1.43 18.06-5.2 18.06-5.2s-12.96 5.34-12.96 7.8c0 2.48 15.51-4.6 15.51-4.6s-11.39 6.7-8.72 6.6c2.67-.1 12.2-4.8 12.2-4.8l9.9-1.8" stroke="#000" stroke-width="2" stroke-linecap="round" stroke-linejoin="round"/>
  <path d="M45.28 203.9s-1.02-13.24-12.05-11.6c-11.03 1.63-11.03 15.1-17.77 17.97 0 0 4.5.05 6.74-1.4 0 0-1.63 11.32-9.8 16.67a12.34 12.34 0 0011.44-.97s-.62 2.31-3.88 4.32c0 0 9.19-.4 14.9-8.28 3.81-5.36 7.29-10.94 10.42-16.71" fill="#000"/>
  <path d="M45.28 203.9s-1.02-13.24-12.05-11.6c-11.03 1.63-11.03 15.1-17.77 17.97 0 0 4.5.05 6.74-1.4 0 0-1.63 11.32-9.8 16.67a12.34 12.34 0 0011.44-.97s-.62 2.31-3.88 4.32c0 0 9.19-.4 14.9-8.28 3.81-5.36 7.29-10.94 10.42-16.71v0z" stroke="#000" stroke-width="2" stroke-linecap="round" stroke-linejoin="round"/>
  <path d="M47.48 212.66s5.56-2.9 8.01-2.14c2.46.77 11.65 20.49 11.65 20.49l-2.25 3.77c2.91 6.9 4.49 11.32 4.89 14.5L57.2 261.13l-22.13-14.5s-3.8-9.9-3.79-14.95c.01-3.25 6.17-12.53 6.17-12.53l10.03-6.5z" fill="#fff"/>
  <path d="M47.48 212.66s5.56-2.9 8.01-2.14c2.46.77 11.65 20.49 11.65 20.49l-2.25 3.77c2.91 6.9 4.49 11.32 4.89 14.5L57.2 261.13l-22.13-14.5s-3.8-9.9-3.79-14.95c.01-3.25 6.17-12.53 6.17-12.53l10.03-6.5zM67.49 238.29s2.75-4.13-.35-7.28" stroke="#000" stroke-width="2" stroke-linecap="round" stroke-linejoin="round"/>
  <path d="M61.19 252.1s7.48-4.32 13.86-2.82c4.83 1.13 16.14 21.48 17.62 24.56 1.48 3.08-3.07 4.44-3.07 4.44l7.36 26.76s-1.53 2.86-3.52 2.65c-1.99-.2-9.04-6.43-9.04-6.43l1.94 12.77s-3.64 2.04-5.9 1.02c-2.27-1.02-20.86-23.9-20.86-23.9l4.09 15.32s-2.9 2.25-5.43.2c-2.54-2.04-13.76-25.27-14.39-28.39-1.48-7.35 10.2-15.26 10.2-15.26l7.14-10.92z" fill="#000"/>
  <path d="M61.19 252.1s7.48-4.32 13.86-2.82c4.83 1.13 16.14 21.48 17.62 24.56 1.48 3.08-3.07 4.44-3.07 4.44l7.36 26.76s-1.53 2.86-3.52 2.65c-1.99-.2-9.04-6.43-9.04-6.43l1.94 12.77s-3.64 2.04-5.9 1.02c-2.27-1.02-20.86-23.9-20.86-23.9l4.09 15.32s-2.9 2.25-5.43.2c-2.54-2.04-13.76-25.27-14.39-28.39-1.48-7.35 10.2-15.26 10.2-15.26l7.14-10.92z" stroke="#000" stroke-width="2" stroke-linecap="round" stroke-linejoin="round"/>
  <path d="M63.48 254.8s4.36 14.65.19 15.8c-6.4 1.75-11.78-5.94-11.78-5.94l11.6-9.87z" fill="#FF98AA"/>
  <path d="M63.48 254.8s4.36 14.65.19 15.8c-6.4 1.75-11.78-5.94-11.78-5.94l11.6-9.87z" stroke="#FF98AA" stroke-width="2" stroke-linecap="round" stroke-linejoin="round"/>
  <path d="M58.97 137.35s3.21 2.8 4.44 5.16M56.41 221.2c.2.5 8.7 14.21 8.7 14.21M91.93 274.63s3.35 6.65 1.5 8.76c-1.84 2.11-3.83-1.08-3.83-1.08M63.67 306.47s2.04 2.45 2.04 5.06M59.12 308.31s3.22 7.97 6.59 8.58l-1.7-5.36" stroke="#000" stroke-width="2" stroke-linecap="round" stroke-linejoin="round"/>
  <path d="M54 238.46s-8.33-4.3-13.83 1.38c-5.51 5.68-8.16 13.24-11.33 12.26 0 0 1.33 4.13 4.4 3.72 0 0-2.37 5.3-5.79 5.3 3.83 5.5 19.94 7.35 22.85 1.9l3.7-24.56z" fill="#000"/>
  <path d="M54 238.46s-8.33-4.3-13.83 1.38c-5.51 5.68-8.16 13.24-11.33 12.26 0 0 1.33 4.13 4.4 3.72 0 0-2.37 5.3-5.79 5.3 3.83 5.5 19.94 7.35 22.85 1.9l3.7-24.56z" stroke="#000" stroke-width="2" stroke-linecap="round" stroke-linejoin="round"/>
  <path d="M52.61 237.98c.48.1.95.26 1.4.48 3.6 1.8 6.13 5.78 7.72 9.32 2.25 5.04 2.64 11.63-.2 16.53a5.16 5.16 0 01-1.33 1.6c-1.85 1.37-4.68.48-6.62-.26-.58-.22-6.78-4.16-6.17-4.52 0 0-4.63 2.33-5.15-2.04-.5-4.3 2.93-3.28 3.02-3.27-1.26-.15-2.12-3.93-2.28-4.77-.53-2.56-.25-5.22.8-7.6 1.5-3.2 5.25-6.17 8.8-5.46" fill="#FF98AA"/>
  <path d="M52.65 252.25s4-2.97 4.55-1.54c.54 1.43-2.28 4.09-2.28 4.09" fill="#FF98AA"/>
  <path d="M52.65 252.25s4-2.97 4.55-1.54c.54 1.43-2.28 4.09-2.28 4.09" stroke="#000" stroke-width="2" stroke-linecap="round" stroke-linejoin="round"/>
  <path d="M47.4 239.27a15.99 15.99 0 019.8 8.5c3.4 7.02 3 18.14 3 18.14s6.1-9.43 2.13-16.6c-3.96-7.16-8.92-13.52-14.92-10.04" fill="#fff"/>
  <path d="M52.61 237.98c.48.1.95.26 1.4.48 3.6 1.8 6.13 5.78 7.72 9.32 2.25 5.04 2.64 11.63-.2 16.53a5.17 5.17 0 01-1.33 1.6c-1.85 1.37-4.68.47-6.62-.26-.58-.22-6.78-4.16-6.17-4.52 0 0-4.22 1.9-5.15-2.04-1-4.26 2.93-3.28 3.02-3.27-1.26-.15-2.12-3.93-2.28-4.78a12.5 12.5 0 01.8-7.6c1.5-3.2 5.25-6.17 8.81-5.46zM39.15 232.94s3.04 3.8 2.95 6.9" stroke="#000" stroke-width="2" stroke-linecap="round" stroke-linejoin="round"/>
  <path d="M38.98 220.84s3.65 5.58 6.3 4.7c2.66-.87 1.19-8.3 1.19-8.3l-7.49 3.6z" fill="#FF98AA"/>
  <path d="M38.98 220.84s3.65 5.58 6.3 4.7c2.66-.87 1.19-8.3 1.19-8.3l-7.49 3.6z" stroke="#000" stroke-width="2" stroke-linecap="round" stroke-linejoin="round"/>
  <path d="M65.1 186.06c.3 1.63 5.5 6 9.95 4.53 4.44-1.46 0-7.39 0-7.39l-9.95 2.86z" fill="#FF98AA"/>
  <path d="M65.1 186.06c.3 1.63 5.5 6 9.95 4.53 4.44-1.46 0-7.39 0-7.39l-9.95 2.86z" stroke="#FF98AA" stroke-width="2" stroke-linecap="round" stroke-linejoin="round"/>
  <path d="M66.73 164.4s-7.56-2.34-10.01 5.42c-1.49 4.71 1.63 11.41 1.63 11.41s-3.88-1.4-4.29.85c-.4 2.25 6.54 2.66 6.54 2.66s5.51 5.1 12.25 3.88c6.74-1.23 7.56-20.06-6.12-24.23" fill="#FF98AA"/>
  <path d="M61.72 164.42s8.79 5.2 11.03 12.55c2.25 7.36 1.78 10.9 1.78 10.9s5.9-6.32 1.9-14.35c-3.98-8.04-9.39-10.12-14.7-9.1z" fill="#fff"/>
  <path d="M68.67 172.18s2.25-1.64 2.96-.52c.71 1.13-.92 2.66-.92 2.66" fill="#FF98AA"/>
  <path d="M68.67 172.18s2.25-1.64 2.96-.52c.71 1.13-.92 2.66-.92 2.66" stroke="#000" stroke-width="2" stroke-linecap="round" stroke-linejoin="round"/>
  <path d="M66.73 164.4s-7.56-2.34-10.01 5.42c-1.49 4.71 1.63 11.41 1.63 11.41s-3.88-1.4-4.29.85c-.4 2.25 6.54 2.66 6.54 2.66s5.51 5.1 12.25 3.88c6.74-1.23 7.56-20.06-6.12-24.23z" stroke="#000" stroke-width="2" stroke-linecap="round" stroke-linejoin="round"/>
  <path d="M44.61 219.7a5.94 5.94 0 001.86-2.45c.76-1.75 1.09-3.65.94-5.55-.7-6.74-3.56-16.75-11.93-15.32-8.38 1.43-4.3 15.32-4.3 15.32s-4.9-1.31-3.46 1.49c1.43 2.8 5.08 3.28 5.1 3.28.74.1 1.45 1.3 1.91 1.8 1.19 1.25 2.46 2.4 4.25 2.57 1.82.22 3.67-.1 5.32-.93l.32-.21" fill="#FF98AA"/>
  <path d="M33.24 197.2s8.61 4.58 11.02 11.95c2.4 7.38 0 10.88 0 10.88s5.05-4.06 2.5-12.35c-2.53-8.28-5.75-12.3-13.52-10.47z" fill="#fff"/>
  <path d="M41.76 208.61s1.43-2.63.05-3.17c-1.15-.44-2.12.64-2.66 1.97" fill="#FF98AA"/>
  <path d="M41.76 208.61s1.43-2.63.05-3.17c-1.15-.44-2.12.64-2.66 1.97" stroke="#000" stroke-width="2" stroke-linecap="round" stroke-linejoin="round"/>
  <path d="M44.61 219.7a5.94 5.94 0 001.86-2.45c.76-1.75 1.09-3.65.94-5.55-.7-6.74-3.56-16.75-11.93-15.32-8.38 1.43-4.3 15.32-4.3 15.32s-4.9-1.31-3.46 1.49c1.43 2.8 5.08 3.28 5.1 3.28.74.1 1.45 1.3 1.91 1.8 1.19 1.25 2.46 2.4 4.25 2.57 1.82.22 3.67-.1 5.32-.93l.31-.21z" stroke="#000" stroke-width="2" stroke-linecap="round" stroke-linejoin="round"/>
</svg>
