<svg width="360" height="360" viewBox="0 0 360 360" fill="none" xmlns="http://www.w3.org/2000/svg">
  <path d="M134.96 1.22L2.13 134.05A7.24 7.24 0 000 139.18v216.71A4.1 4.1 0 004.12 360h216.72c1.92 0 3.76-.77 5.12-2.13l132.83-132.82a4.14 4.14 0 001.17-3.58A267.51 267.51 0 00138.53.05a4.14 4.14 0 00-3.57 1.17" fill="#B880FF"/>
  <path d="M189.56 295.17s-6.6-1.72-9.56-5.7z" fill="#000"/>
  <path d="M189.56 295.17s-6.6-1.72-9.56-5.7" stroke="#000" stroke-width="2" stroke-linecap="round" stroke-linejoin="round"/>
  <path d="M90.8 87.62l12.57 22.63" stroke="#000" stroke-width="3" stroke-linecap="round" stroke-linejoin="round"/>
  <path d="M76.06 252s12.6 9.68 18.8 3.51c0 0 24.73 24.33 34.1 14.95 0 0 21.94 21.59 36.85 5.71 0 0 19.26 18.53 42.08 2.09l-7.44 8.92s-16.25 4.44-24.89 2.3c-8.63-2.15-21.83-3.24-27.46-5.94-3.13-1.5-3.46-.84-5.11-1.17-4.95-1-6.74.55-11.32-.3-6.1-1.14-18.92-5.4-23.19-10.02-4.27-4.63-17.93-3.95-32.42-20.05" fill="#000"/>
  <path d="M76.06 252s12.6 9.68 18.8 3.51c0 0 24.73 24.33 34.1 14.95 0 0 21.94 21.59 36.85 5.71 0 0 19.26 18.53 42.08 2.09l-7.44 8.92s-16.26 4.44-24.89 2.3c-8.63-2.15-21.83-3.24-27.46-5.94-3.13-1.5-3.46-.84-5.11-1.17-4.95-1-6.74.55-11.32-.3-6.1-1.14-18.92-5.4-23.19-10.02-4.27-4.63-17.93-3.95-32.42-20.05z" stroke="#000" stroke-width="2" stroke-linecap="round" stroke-linejoin="round"/>
  <path d="M313.08 111.89s-1.36-22.1-9.8-33.55c-8.43-11.44-23.95-18.56-27.91-21.97 0 0 14.73-21.18 16.1-33.44 1.38-12.25-1.48-19.7-1.48-19.7s-10.77 6.99-20.11 11.58c-9.35 4.6-14.16 12.78-14.2 17.19.11 3.85.45 7.7 1.03 11.5 0 0-15-9.99-23.03-6.35-8.04 3.64-5.02 20.4-5.02 20.4l36.62 1.53 23.6 36.77 24.2 16.04zM301.9 275.08s-3.12 21.56-19.72 28.78c0 0 2.36-5.49 2.23-10.09-.13-4.6 17.48-18.69 17.48-18.69" fill="#B880FF"/>
  <path d="M65.32 152.33c18.95-16.59 44.77-28.23 57.54-33.38-23.49-14.02-45.56-17.54-59.05-7.02-12.17 9.49-14.97 28.54-9.62 51.41 3.46-3.91 7.18-7.59 11.13-11.01" fill="#000"/>
  <path d="M65.32 152.33c18.95-16.59 44.77-28.23 57.54-33.38-23.49-14.02-45.56-17.54-59.05-7.02-12.17 9.49-14.97 28.54-9.62 51.41 3.46-3.91 7.18-7.59 11.13-11.01v0zM63.27 175.61c0 4.49 4.38 9.04 8.92 8.17a9.4 9.4 0 005.68-3.9M129.45 183.77c0-.24 1.5 5.18 6.54 6.67 5.04 1.49 8.2-2.65 8.98-3.39" stroke="#000" stroke-width="2" stroke-linecap="round" stroke-linejoin="round"/>
  <path d="M96.19 78.96a8.68 8.68 0 11-17.36 0 8.68 8.68 0 0117.36 0" fill="#000"/>
  <path d="M95.27 82.84a8.68 8.68 0 10-15.53-7.76 8.68 8.68 0 0015.53 7.76z" stroke="#000" stroke-width="2" stroke-linecap="round" stroke-linejoin="round"/>
  <path d="M44.48 152.74s2.04 4.08 12.66-2.86c10.63-6.95 21.25-18.39 17.16-25.74-4.08-7.35-23.28 5.28-27.78 14.9-4.5 9.61-2.04 13.7-2.04 13.7zM35.43 164.48c3.74-3.19 8.75 3.68 6.51 7.28-2.23 3.6-6.47 14.68-9 11.5-2.53-3.2-3.54-13.63 2.5-18.78" fill="#fff"/>
  <path d="M212.7 248.74s-15.24 0-32.7-16.34c-17.46-16.35-21.76-26.72-21.76-26.72M47.17 210.34s-3.62 3.68-3.36 5.71c.26 2.04 2.3 1.64 6.8 5.72 4.5 4.09 26.72 41.96 56.37 48.69 0 0 11.03 14.2 38 11.76 0 0 24.4 11.7 52.63 6.88M85.03 240.56c1.53 1.64 9.29 16.49 21.95 29.9M106.98 240.56c-.4 1.23 18.26 32.67 38 41.66M194.5 289.56c-27.27-3.3-52.8-37.56-51.46-37.56M155.19 229.53s9.4 23.7 26.96 33.1c17.56 9.39 28.94 8.15 28.94 8.15M211.1 119.55c1.08 1.04 6.16 1.01 7.59 1.22 10.47 1.5 22.13 2.57 32.52.16 7.36-1.7 14.5-5.89 18.02-12.58 6.8-12.93.42-36.2-13.2-42.46M199.3 290.26s31.87-1.92 60.46-36.43" stroke="#000" stroke-width="2" stroke-linecap="round" stroke-linejoin="round"/>
  <path d="M301.97 76.76s14.32 23.07 6.4 52.7c-6.54 24.5-30.63 57.56-30.63 57.56l15.18 13.92s21.9-44.53 24.03-66.18c3.32-33.66-10.24-52.63-14.98-58" fill="#000"/>
  <path d="M301.97 76.76s14.32 23.07 6.4 52.7c-6.54 24.5-30.63 57.56-30.63 57.56l15.18 13.92s21.9-44.53 24.03-66.18c3.33-33.66-10.24-52.63-14.98-58z" stroke="#000" stroke-width="2" stroke-linecap="round" stroke-linejoin="round"/>
  <path d="M211.1 79.73s16.4-4.2 21.3-19.32c4.9-15.11 20.56-18.64 20.56-18.64s-13.2-10.05-22.6-2.74c-9.4 7.31-9.16 17.66-13.49 26.7-5.77 12.04-12.52 12.04-12.52 12.04l6.75 1.96zM255.68 35.06a18.47 18.47 0 0113.07-14.68C280.6 16.7 290 3.22 290 3.22L265.25 17.5s-8.94 9.7-9.58 17.57z" fill="#fff"/>
  <path d="M291 6.85s-1 18.23-9.33 31.26c-6.4 10.03-12.92 14.95-12.92 14.95l8.17 4.08s13.1-13.93 15.33-25.14c2.24-11.21-1.24-25.15-1.24-25.15" fill="#000"/>
  <path d="M291 6.85s-1 18.23-9.33 31.26c-6.4 10.03-12.92 14.95-12.92 14.95l8.17 4.08s13.1-13.93 15.33-25.14c2.24-11.21-1.24-25.15-1.24-25.15z" stroke="#000" stroke-width="2" stroke-linecap="round" stroke-linejoin="round"/>
  <path d="M295.71 229.54c5.72 21.65 5.6 49.1-2.7 66.42 0 0 21.73-23.84 17.62-59.07-3.27-27.98-32.89-49.87-32.89-49.87s12.26 20.86 17.97 42.52z" fill="#000"/>
  <path d="M295.71 229.54c5.72 21.65 5.6 49.1-2.7 66.42 0 0 21.73-23.84 17.62-59.07-3.27-27.98-32.89-49.87-32.89-49.87s12.26 20.86 17.97 42.52z" stroke="#000" stroke-width="2" stroke-linecap="round" stroke-linejoin="round"/>
  <path d="M264.35 220.09c.02 1.01.11 2.03.17 3.04 0 1.97.24 3.96.35 5.93.1 1.92.1 3.86.25 5.79.57 6.95 1.67 14.7 5.94 20.4 4.17 5.58 10.12 9.9 13.4 16.12 5.01 9.5 1.91 20.31-1.52 29.76 0 0 3.76-10.34-7.68-23.38-7.63-8.7-14.03-17.77-16.79-29.02-2.2-9.02.78-20.74 5.47-29.52.47-.86.4.44.4.76v.12z" fill="#fff"/>
  <path d="M161.16 193.47c4.62-1.41 10.33 3.49 9.14 7.1" stroke="#000" stroke-width="2" stroke-linecap="round" stroke-linejoin="round"/>
  <path d="M195.91 28.6l-1.77 5.07-3.81 4.2a.22.22 0 00-.02.3l3.86 3.56 2.38 4.86.06.06a.21.21 0 00.25-.01l5.6-3.5 6.42-1.68a.2.2 0 00.18-.26l-1.99-5.03-.01-5.21a.22.22 0 00-.23-.2l-5.72-.09-4.96-2.17a.16.16 0 00-.23.1" fill="#000"/>
  <path d="M195.91 28.6l-1.77 5.07-3.81 4.2a.22.22 0 00-.02.3l3.86 3.56 2.38 4.86.06.06a.21.21 0 00.25-.01l5.6-3.5 6.42-1.68a.2.2 0 00.18-.26l-1.99-5.03-.01-5.21a.22.22 0 00-.23-.2l-5.72-.09-4.96-2.17a.16.16 0 00-.23.1" stroke="#000" stroke-width="2" stroke-linecap="round" stroke-linejoin="round"/>
  <path d="M189.44 36.2l.83 1.91 1.41-.04-1.51-1.83-.72-.05z" fill="#000"/>
  <path d="M189.44 36.2l.83 1.91 1.41-.04-1.51-1.83-.72-.05z" stroke="#000" stroke-width="2" stroke-linecap="round" stroke-linejoin="round"/>
  <path d="M206.21 28.97l.83 1.92-1 .99-.29-2.35.46-.56z" fill="#000"/>
  <path d="M206.21 28.97l.83 1.92-1 .99-.29-2.35.46-.56z" stroke="#000" stroke-width="2" stroke-linecap="round" stroke-linejoin="round"/>
  <path d="M195.68 26.16l-1.77 5.07-3.82 4.21a.22.22 0 00-.01.3l3.85 3.56 2.39 4.85.06.06a.21.21 0 00.25-.01l5.6-3.5 6.42-1.68a.2.2 0 00.17-.26l-1.98-5.03-.01-5.21a.22.22 0 00-.23-.2l-5.72-.09-4.97-2.17a.16.16 0 00-.2.04.16.16 0 00-.03.06" fill="#fff"/>
  <path d="M195.68 26.16l-1.77 5.07-3.82 4.21a.22.22 0 00-.01.3l3.85 3.56 2.39 4.85.06.06a.21.21 0 00.25-.01l5.6-3.5 6.42-1.68a.2.2 0 00.17-.26l-1.98-5.03-.01-5.21a.22.22 0 00-.23-.2l-5.72-.09-4.97-2.17a.16.16 0 00-.2.04.16.16 0 00-.03.06" stroke="#000" stroke-width="2" stroke-linecap="round" stroke-linejoin="round"/>
  <path d="M189.97 324.67l-6.48 3.06-7.56.3a.3.3 0 00-.2.08.3.3 0 00-.1.19l.23 7-2.38 6.8a.28.28 0 00.24.34l8.57 2.06 7.6 4.51c.03.03.07.05.1.05a.27.27 0 00.3-.12l2.93-6.6 4.94-4.89a.3.3 0 00-.03-.4l-5.26-5.52-2.6-6.74a.22.22 0 00-.12-.14.22.22 0 00-.19.01" fill="#000"/>
  <path d="M189.97 324.67l-6.48 3.06-7.56.3a.3.3 0 00-.2.08.3.3 0 00-.1.19l.23 7-2.38 6.8a.28.28 0 00.24.34l8.57 2.06 7.6 4.51c.03.03.07.05.1.05a.27.27 0 00.3-.12l2.93-6.6 4.94-4.89a.3.3 0 00-.03-.4l-5.26-5.52-2.6-6.74a.22.22 0 00-.12-.14.22.22 0 00-.19.01" stroke="#000" stroke-width="2" stroke-linecap="round" stroke-linejoin="round"/>
  <path d="M178.03 325.53l-2.38 2.68 1.37 1.29.31-3.14.7-.83z" fill="#000"/>
  <path d="M178.03 325.53l-2.38 2.68 1.37 1.29.31-3.14.7-.83z" stroke="#000" stroke-width="2" stroke-linecap="round" stroke-linejoin="round"/>
  <path d="M199.26 334.79l-1.05 2.58-1.88-.02 1.96-2.48.97-.08z" fill="#000"/>
  <path d="M199.26 334.79l-1.05 2.58-1.88-.02 1.96-2.48.97-.08z" stroke="#000" stroke-width="2" stroke-linecap="round" stroke-linejoin="round"/>
  <path d="M192.06 322.16l-6.47 3.06-7.56.3a.3.3 0 00-.3.26l.23 7-2.39 6.82v.12a.28.28 0 00.24.22l8.58 2.05 7.6 4.52a.27.27 0 00.32 0 .28.28 0 00.08-.07l2.93-6.6 4.94-4.9a.3.3 0 00-.04-.4l-5.26-5.51-2.59-6.75a.23.23 0 00-.04-.08.22.22 0 00-.18-.07.23.23 0 00-.09.02" fill="#fff"/>
  <path d="M192.06 322.16l-6.47 3.06-7.56.3a.3.3 0 00-.3.26l.23 7-2.39 6.82v.12a.28.28 0 00.24.22l8.58 2.05 7.6 4.52a.27.27 0 00.32 0 .28.28 0 00.08-.07l2.93-6.6 4.94-4.9a.3.3 0 00-.04-.4l-5.26-5.51-2.59-6.75a.23.23 0 00-.04-.08.22.22 0 00-.18-.07.23.23 0 00-.09.02" stroke="#000" stroke-width="2" stroke-linecap="round" stroke-linejoin="round"/>
  <path d="M207.9 116.14a109.84 109.84 0 0137.94 83c0 41.07-22.65 76.92-56.28 96.03-2.65 1.61 21.76-1.74 26.57-4.9 28.65-18.86 43.63-53.58 43.63-91.3 0-31.38-11.62-61.6-33.58-79.97-3.54-2.96-20.28-4.38-18.27-2.86" fill="#000"/>
  <path d="M207.9 116.14a109.84 109.84 0 0137.94 83c0 41.07-22.65 76.92-56.28 96.03-2.65 1.61 21.76-1.74 26.57-4.9 28.65-18.86 43.63-53.58 43.63-91.3 0-31.38-11.62-61.6-33.58-79.97-3.54-2.96-20.28-4.38-18.27-2.86z" stroke="#000" stroke-width="2" stroke-linecap="round" stroke-linejoin="round"/>
  <path d="M132.99 309.69c61.92 0 112.12-49.57 112.12-110.72 0-61.14-50.2-110.7-112.13-110.7-61.92 0-112.12 49.56-112.12 110.7 0 61.15 50.2 110.72 112.13 110.72z" stroke="#fff" stroke-width="2" stroke-linecap="round" stroke-linejoin="round"/>
  <path d="M277.74 187.02s20.02 16.08 29.82 37.67c9.8 21.6 1.3 47.59-5.31 59.58-8.78 15.94-20.83 20.02-20.83 20.02a17.73 17.73 0 00-1.64-20.83c-8.58-10.62-20.42-26.17-22.88-37.8M259.36 60.41s-3.03 8.99-17.85 17.36c-14.83 8.37-37.15 0-37.15 0s6.8.2 12.51-12.05c5.72-12.26 6.69-22.88 14.99-27.78 8.3-4.9 25.05 6.13 25.05 6.13a23.86 23.86 0 012.45-20.42C265.9 13.43 281.83 10.17 290 3.22c0 0 2.86 7.35 2.86 23.29 0 15.93-15.93 30.64-15.93 30.64a75.73 75.73 0 0127.65 22.96c5.34 7.25 9 15.59 10.75 24.42 6.53 33.5-7.76 67.97-21.65 94.44" stroke="#000" stroke-width="2" stroke-linecap="round" stroke-linejoin="round"/>
  <path d="M335.94 131.33l.82.72a3.52 3.52 0 00-.82-.72z" fill="#000"/>
  <path d="M335.94 131.33l.82.72a3.42 3.42 0 00-.82-.72z" stroke="#000" stroke-width="2" stroke-linecap="round" stroke-linejoin="round"/>
  <path d="M336.94 133.09c.1-.12-1.17-1.76-1-1.76l-6.33-5.55-4.14-10.02a.32.32 0 00-.2-.2.33.33 0 00-.28.02l-9.59 4.84-7.66 1.17-.62-1.88-.43-1.97-2.9 3.54c-.05.04-.1.1-.12.16a.35.35 0 00-.03.14l.61 10.48-3.31 10.3a.44.44 0 000 .18c.01.06.04.1.07.16a.43.43 0 00.3.16l12.94 2.75 11.56 6.49c.24.13 3.56-3.77 3.65-3.97l1.09-6.16 6.39-8.88z" fill="#B880FF"/>
  <path d="M336.94 133.09c.1-.12-1.17-1.76-1-1.76l-6.33-5.55-4.14-10.02a.32.32 0 00-.2-.2.33.33 0 00-.28.02l-9.59 4.84-7.66 1.17-.62-1.88-.43-1.97-2.9 3.54c-.05.04-.1.1-.12.16v0a.35.35 0 00-.03.14l.61 10.48-3.31 10.3a.44.44 0 000 .18c.01.06.04.1.07.16a.43.43 0 00.3.16l12.94 2.75 11.56 6.49c.24.13 3.56-3.77 3.65-3.97l1.09-6.16 6.39-8.88z" stroke="#000" stroke-width="2" stroke-linecap="round" stroke-linejoin="round"/>
  <path d="M328.04 111.74l-9.59 4.84-11.33.75a.45.45 0 00-.3.12.45.45 0 00-.13.29l.6 10.48-3.3 10.3a.41.41 0 00.08.33.42.42 0 00.29.17l12.93 2.75 11.57 6.49a.41.41 0 00.6-.13l4.14-10 7.21-7.52c.07-.1.1-.2.09-.31a.45.45 0 00-.15-.29l-8.1-8.07-4.13-10.02a.33.33 0 00-.34-.22c-.05 0-.1.02-.14.04" fill="#fff"/>
  <path d="M328.04 111.74l-9.59 4.84-11.33.75a.45.45 0 00-.3.12.45.45 0 00-.13.29l.6 10.48-3.3 10.3a.41.41 0 00.08.33.42.42 0 00.29.17l12.93 2.75 11.57 6.49a.41.41 0 00.6-.13l4.14-10 7.21-7.52c.07-.1.1-.2.09-.31a.45.45 0 00-.15-.29l-8.1-8.07-4.13-10.02a.33.33 0 00-.34-.22c-.05 0-.1.02-.14.04" stroke="#000" stroke-width="2" stroke-linecap="round" stroke-linejoin="round"/>
  <path d="M218.42 278.15h7.35M224.31 270.46h7.36M230.32 262.77h7.36" stroke="#B880FF" stroke-width="3" stroke-linecap="round" stroke-linejoin="round"/>
  <path d="M64.71 268.8c-1.62 2.55 13.46 21.85 19.93 18.83 6.48-3.01-18.3-21.37-19.93-18.82zM81.66 80.69a8.68 8.68 0 0110.36-8.52 8.68 8.68 0 10-6.97 15.39 8.66 8.66 0 01-3.4-6.87" fill="#fff"/>
  <path d="M95.27 82.84a8.68 8.68 0 10-15.53-7.76 8.68 8.68 0 0015.53 7.76z" stroke="#000" stroke-width="2" stroke-linecap="round" stroke-linejoin="round"/>
  <path d="M44.54 213.72s29.55 21.93 66.94 13.48c31.51-7.11 42.96-18.77 42.96-18.77s-25 20.73-66.56 15.95c-28.17-3.24-40.72-14.04-40.72-14.04l-2.62 3.38z" fill="#000"/>
  <path d="M44.54 213.72s29.55 21.93 66.94 13.48c31.51-7.11 42.96-18.77 42.96-18.77s-25 20.73-66.56 15.95c-28.17-3.24-40.72-14.04-40.72-14.04l-2.62 3.38z" stroke="#000" stroke-width="2" stroke-linecap="round" stroke-linejoin="round"/>
  <path d="M41.56 183.77c-.67 3.01 7.83 11.23 9.79 13.26a59.74 59.74 0 0019.12 13.11c9.97 4.38 20.83 6.77 31.46 8.9 5.56 1.13 13.82 3.83 19.58 2.94 0 0-39.22 6.1-62-4.82-22.79-10.91-21.68-16.67-17.94-33.4" fill="#fff"/>
  <path d="M130.68 115.97s-39.22 13.48-65.36 36.36c-26.15 22.87-25.33 38.4-26.15 43.3-2.01 12.09 16.25 20.26 24.85 23.27a102.9 102.9 0 0046.48 5.03c19.5-2.43 45.22-11.38 57.22-27.9" stroke="#000" stroke-width="2" stroke-linecap="round" stroke-linejoin="round"/>
  <path d="M63.8 111.93c23.55-18.35 73.22 6 110.95 54.4 37.73 48.38 49.24 102.5 25.7 120.84l.11.16a110.07 110.07 0 0044.55-88.36c0-61.14-50.2-110.7-112.13-110.7a112.55 112.55 0 00-69.22 23.6l.05.06z" fill="#fff"/>
  <path d="M63.8 111.93c23.55-18.35 73.22 6 110.95 54.4 37.73 48.38 49.24 102.5 25.7 120.84l.11.16a110.07 110.07 0 0044.55-88.36c0-61.14-50.2-110.7-112.13-110.7a112.55 112.55 0 00-69.22 23.6l.05.06z" stroke="#fff" stroke-width="2" stroke-miterlimit="10"/>
  <path d="M204.8 210.38c-.3-.06-.6-.06-.9 0h-.13v.01c-3.45.59-6.16 6.28-6.16 13.22 0 6.95 2.71 12.64 6.16 13.22v.06h8.54v-26.5h-7.5z" fill="#000"/>
  <path d="M204.8 210.38c-.3-.06-.6-.06-.9 0h-.13v.01c-3.45.59-6.16 6.28-6.16 13.22 0 6.95 2.71 12.64 6.16 13.22v.06h8.54v-26.5h-7.5z" stroke="#000" stroke-width="2" stroke-linecap="round" stroke-linejoin="round"/>
  <path d="M219.44 223.61c0 7.33-3.01 13.28-6.73 13.28-3.73 0-6.75-5.94-6.75-13.28 0-7.33 3.02-13.28 6.75-13.28 3.72 0 6.73 5.95 6.73 13.28z" fill="#000"/>
  <path d="M212.7 236.89c3.73 0 6.75-5.94 6.75-13.28 0-7.33-3.02-13.27-6.74-13.27-3.73 0-6.75 5.94-6.75 13.27 0 7.33 3.02 13.28 6.75 13.28z" stroke="#B880FF" stroke-width="2" stroke-linecap="round" stroke-linejoin="round"/>
  <path d="M214.92 223.61c0 2.71-1 4.9-2.22 4.9-1.22 0-2.21-2.19-2.21-4.9 0-2.7 1-4.9 2.21-4.9 1.23 0 2.22 2.2 2.22 4.9z" fill="#B880FF"/>
  <path d="M214.92 223.61c0 2.71-1 4.9-2.22 4.9-1.22 0-2.21-2.19-2.21-4.9 0-2.7 1-4.9 2.21-4.9 1.23 0 2.22 2.2 2.22 4.9z" stroke="#000" stroke-width="2" stroke-linecap="round" stroke-linejoin="round"/>
  <path d="M180 90.23l-14.2 21.65" stroke="#000" stroke-width="3" stroke-linecap="round" stroke-linejoin="round"/>
  <path d="M173.4 115c-.94 1.4-4.87.4-8.78-2.23-3.9-2.62-6.31-5.88-5.38-7.27.93-1.4 4.86-.4 8.77 2.24 3.9 2.63 6.32 5.88 5.39 7.27" fill="#000"/>
  <path d="M173.4 115c-.94 1.4-4.87.4-8.78-2.23-3.9-2.62-6.31-5.88-5.38-7.27.93-1.4 4.86-.4 8.77 2.24 3.9 2.63 6.32 5.88 5.39 7.27z" stroke="#000" stroke-width="2" stroke-linecap="round" stroke-linejoin="round"/>
  <path d="M193.67 82.46a8.68 8.68 0 11-17.36 0 8.68 8.68 0 0117.36 0z" fill="#000"/>
  <path d="M192.37 87.02a8.68 8.68 0 10-14.77-9.13 8.68 8.68 0 0014.77 9.13z" stroke="#000" stroke-width="2" stroke-linecap="round" stroke-linejoin="round"/>
  <path d="M179.92 84.1a8.68 8.68 0 0110.36-8.51 8.67 8.67 0 10-6.97 15.38 8.66 8.66 0 01-3.38-6.87" fill="#fff"/>
  <path d="M192.37 87.02a8.68 8.68 0 10-14.77-9.13 8.68 8.68 0 0014.77 9.13z" stroke="#000" stroke-width="2" stroke-linecap="round" stroke-linejoin="round"/>
</svg>
