<svg width="400" height="400" viewBox="0 0 400 400" fill="none" xmlns="http://www.w3.org/2000/svg">
  <path d="M149.95 1.36L2.36 148.94a8.06 8.06 0 00-2.36 5.7v240.8A4.56 4.56 0 004.58 400h240.8c2.13 0 4.18-.85 5.69-2.36l147.58-147.59a4.59 4.59 0 001.3-3.97A297.23 297.23 0 00153.93.06a4.59 4.59 0 00-3.98 1.3" fill="#B880FF"/>
  <path d="M210.62 327.97s-7.33-1.92-10.62-6.33z" fill="#000"/>
  <path d="M210.62 327.97s-7.33-1.92-10.62-6.33" stroke="#000" stroke-width="2" stroke-linecap="round" stroke-linejoin="round"/>
  <path d="M100.9 97.36l13.95 25.14" stroke="#000" stroke-width="3" stroke-linecap="round" stroke-linejoin="round"/>
  <path d="M84.51 280s14 10.75 20.88 3.9c0 0 27.49 27.03 37.9 16.61 0 0 24.38 23.99 40.94 6.35 0 0 21.4 20.58 46.76 2.31l-8.27 9.91s-18.06 4.94-27.65 2.56c-9.6-2.39-24.26-3.6-30.51-6.6-3.48-1.66-3.85-.93-5.68-1.3-5.5-1.1-7.5.61-12.58-.34-6.79-1.26-21.02-5.98-25.76-11.13-4.75-5.14-19.93-4.38-36.03-22.27" fill="#000"/>
  <path d="M84.51 280s14 10.75 20.88 3.9c0 0 27.49 27.03 37.9 16.61 0 0 24.37 23.99 40.94 6.35 0 0 21.4 20.58 46.76 2.31l-8.27 9.91s-18.06 4.94-27.65 2.56c-9.6-2.39-24.26-3.6-30.51-6.6-3.48-1.66-3.85-.93-5.68-1.3-5.5-1.1-7.5.61-12.58-.34-6.79-1.26-21.02-5.98-25.77-11.13-4.74-5.14-19.92-4.38-36.02-22.27z" stroke="#000" stroke-width="2" stroke-linecap="round" stroke-linejoin="round"/>
  <path d="M347.86 124.32s-1.5-24.56-10.88-37.27c-9.37-12.72-26.61-20.63-31.01-24.42 0 0 16.36-23.53 17.9-37.15 1.52-13.62-1.65-21.9-1.65-21.9s-11.98 7.77-22.36 12.88c-10.38 5.1-15.73 14.2-15.77 19.1.12 4.28.5 8.55 1.14 12.78 0 0-16.66-11.1-25.59-7.06-8.92 4.05-5.57 22.67-5.57 22.67l40.69 1.7 26.2 40.85 26.9 17.82zm-12.42 181.33s-3.46 23.95-21.9 31.98c0 0 2.62-6.1 2.47-11.22-.15-5.1 19.43-20.76 19.43-20.76" fill="#B880FF"/>
  <path d="M72.57 169.25c21.06-18.43 49.75-31.36 63.94-37.09-26.1-15.58-50.62-19.48-65.6-7.8-13.53 10.55-16.64 31.71-10.7 57.13a132.2 132.2 0 0112.36-12.24" fill="#000"/>
  <path d="M72.57 169.25c21.06-18.43 49.75-31.36 63.94-37.09-26.1-15.58-50.62-19.48-65.6-7.8-13.53 10.55-16.64 31.71-10.7 57.13a132.2 132.2 0 0112.36-12.24v0zm-2.27 25.88c0 4.98 4.86 10.04 9.91 9.07 2.58-.6 4.83-2.14 6.3-4.32m57.33 4.32c0-.27 1.65 5.74 7.26 7.4 5.6 1.66 9.1-2.94 9.98-3.76" stroke="#000" stroke-width="2" stroke-linecap="round" stroke-linejoin="round"/>
  <path d="M106.88 87.73a9.65 9.65 0 11-19.31 0 9.65 9.65 0 0119.3 0" fill="#000"/>
  <path d="M105.86 92.05a9.65 9.65 0 10-17.26-8.63 9.65 9.65 0 0017.26 8.63z" stroke="#000" stroke-width="2" stroke-linecap="round" stroke-linejoin="round"/>
  <path d="M49.42 169.7s2.27 4.55 14.07-3.17 23.6-20.43 19.07-28.6c-4.54-8.17-25.88 5.87-30.87 16.55-5 10.69-2.27 15.23-2.27 15.23zm-10.05 13.06c4.16-3.55 9.71 4.08 7.23 8.08-2.48 4-7.2 16.32-10 12.77-2.8-3.55-3.93-15.13 2.77-20.85" fill="#fff"/>
  <path d="M236.34 276.37s-16.94 0-36.34-18.15c-19.4-18.16-24.18-29.7-24.18-29.7M52.4 233.7s-4 4.1-3.72 6.36c.29 2.26 2.56 1.82 7.55 6.35 5 4.55 29.7 46.63 62.64 54.1 0 0 12.25 15.78 42.21 13.07 0 0 27.11 13 58.5 7.64M94.47 267.3c1.7 1.81 10.33 18.31 24.4 33.21m0-33.21c-.45 1.36 20.29 36.29 42.21 46.28m55.03 8.15c-30.3-3.66-58.66-41.73-57.18-41.73m13.5-24.96s10.44 26.32 29.95 36.76c19.52 10.44 32.17 9.07 32.17 9.07m0-168.04c1.21 1.16 6.85 1.13 8.44 1.36 11.63 1.67 24.59 2.85 36.13.18 8.18-1.9 16.12-6.54 20.03-13.98 7.55-14.36.47-40.23-14.67-47.18m-63.03 249.3s35.4-2.13 67.18-40.48" stroke="#000" stroke-width="2" stroke-linecap="round" stroke-linejoin="round"/>
  <path d="M335.52 85.3s15.91 25.63 7.12 58.53c-7.27 27.23-34.04 63.97-34.04 63.97l16.86 15.47s24.34-49.49 26.7-73.53c3.7-37.4-11.37-58.48-16.64-64.45" fill="#000"/>
  <path d="M335.52 85.3s15.91 25.63 7.12 58.53c-7.27 27.23-34.04 63.97-34.04 63.97l16.86 15.47s24.34-49.49 26.7-73.53c3.7-37.41-11.37-58.48-16.64-64.45z" stroke="#000" stroke-width="2" stroke-linecap="round" stroke-linejoin="round"/>
  <path d="M234.55 88.59s18.22-4.67 23.67-21.46c5.44-16.8 22.85-20.72 22.85-20.72s-14.67-11.16-25.11-3.04c-10.45 8.12-10.18 19.62-15 29.66-6.4 13.39-13.9 13.39-13.9 13.39l7.5 2.17zm49.54-49.63a20.52 20.52 0 0114.52-16.32c13.17-4.09 23.6-19.06 23.6-19.06l-27.47 15.86s-9.94 10.77-10.65 19.52z" fill="#fff"/>
  <path d="M323.34 7.61s-1.12 20.25-10.37 34.74c-7.11 11.14-14.36 16.6-14.36 16.6l9.08 4.54s14.55-15.48 17.03-27.94c2.49-12.45-1.38-27.93-1.38-27.93" fill="#000"/>
  <path d="M323.34 7.61s-1.12 20.25-10.37 34.74c-7.11 11.14-14.36 16.6-14.36 16.6l9.08 4.54s14.55-15.48 17.03-27.94c2.49-12.45-1.38-27.94-1.38-27.94z" stroke="#000" stroke-width="2" stroke-linecap="round" stroke-linejoin="round"/>
  <path d="M328.57 255.04c6.36 24.06 6.22 54.57-3.01 73.8 0 0 24.15-26.48 19.58-65.63-3.63-31.1-36.54-55.4-36.54-55.4s13.62 23.17 19.97 47.23z" fill="#000"/>
  <path d="M328.57 255.04c6.36 24.06 6.22 54.57-3.01 73.8 0 0 24.15-26.48 19.58-65.63-3.63-31.1-36.54-55.4-36.54-55.4s13.62 23.17 19.97 47.23z" stroke="#000" stroke-width="2" stroke-linecap="round" stroke-linejoin="round"/>
  <path d="M293.72 244.54c.02 1.13.13 2.26.2 3.38 0 2.19.26 4.4.38 6.59.11 2.14.1 4.29.28 6.43.64 7.72 1.86 16.34 6.6 22.67 4.64 6.2 11.24 11 14.9 17.91 5.55 10.55 2.11 22.57-1.7 33.07 0 0 4.18-11.5-8.53-25.97-8.48-9.67-15.6-19.76-18.66-32.25-2.45-10.03.86-23.05 6.08-32.8.52-.96.44.5.45.84v.13z" fill="#fff"/>
  <path d="M179.06 214.97c5.14-1.58 11.49 3.87 10.16 7.9" stroke="#000" stroke-width="2" stroke-linecap="round" stroke-linejoin="round"/>
  <path d="M217.68 31.78l-1.96 5.64-4.25 4.66a.24.24 0 00-.01.34l4.28 3.95 2.65 5.4a.24.24 0 00.16.1.24.24 0 00.18-.05l6.24-3.89 7.12-1.86a.24.24 0 00.16-.1.24.24 0 00.03-.19l-2.2-5.6-.01-5.78a.25.25 0 00-.26-.21l-6.35-.11-5.52-2.41a.18.18 0 00-.15 0 .18.18 0 00-.1.11" fill="#000"/>
  <path d="M217.68 31.78l-1.96 5.64-4.25 4.66a.24.24 0 00-.01.34l4.28 3.95 2.65 5.4a.24.24 0 00.16.1.24.24 0 00.18-.05l6.24-3.89 7.12-1.86a.24.24 0 00.16-.1.24.24 0 00.03-.19l-2.2-5.6-.01-5.78a.25.25 0 00-.26-.21l-6.35-.11-5.52-2.41a.18.18 0 00-.15 0 .18.18 0 00-.1.11" stroke="#000" stroke-width="2" stroke-linecap="round" stroke-linejoin="round"/>
  <path d="M210.5 40.21l.91 2.14 1.57-.05-1.68-2.03-.8-.06z" fill="#000"/>
  <path d="M210.5 40.21l.91 2.14 1.57-.05-1.68-2.03-.8-.06z" stroke="#000" stroke-width="2" stroke-linecap="round" stroke-linejoin="round"/>
  <path d="M229.13 32.19l.92 2.13-1.12 1.1-.32-2.6.52-.63z" fill="#000"/>
  <path d="M229.13 32.19l.92 2.13-1.12 1.1-.32-2.6.52-.63z" stroke="#000" stroke-width="2" stroke-linecap="round" stroke-linejoin="round"/>
  <path d="M217.42 29.07l-1.97 5.63-4.24 4.68a.24.24 0 00-.02.33l4.29 3.95 2.65 5.4a.24.24 0 00.16.1.23.23 0 00.18-.05l6.24-3.89 7.12-1.86a.23.23 0 00.16-.1.24.24 0 00.03-.19l-2.2-5.6-.01-5.78a.25.25 0 00-.26-.21l-6.35-.11-5.52-2.41a.18.18 0 00-.22.04.18.18 0 00-.04.07" fill="#fff"/>
  <path d="M217.42 29.07l-1.97 5.63-4.24 4.68a.24.24 0 00-.02.33l4.29 3.95 2.65 5.4a.24.24 0 00.16.1.23.23 0 00.18-.05l6.24-3.89 7.12-1.86a.23.23 0 00.16-.1.24.24 0 00.03-.19l-2.2-5.6-.01-5.78a.25.25 0 00-.26-.21l-6.35-.11-5.52-2.41a.18.18 0 00-.22.04.18.18 0 00-.04.07" stroke="#000" stroke-width="2" stroke-linecap="round" stroke-linejoin="round"/>
  <path d="M211.07 360.74l-7.19 3.4-8.4.34a.32.32 0 00-.33.3l.25 7.77-2.65 7.57v.13a.32.32 0 00.27.24l9.53 2.28 8.44 5.03a.3.3 0 00.12.05.3.3 0 00.12 0 .3.3 0 00.12-.05.32.32 0 00.09-.09l3.25-7.32 5.49-5.44a.32.32 0 00.06-.23.33.33 0 00-.1-.22l-5.84-6.13-2.88-7.5a.25.25 0 00-.14-.15.25.25 0 00-.2.01" fill="#000"/>
  <path d="M211.07 360.74l-7.19 3.4-8.4.34a.32.32 0 00-.33.3l.25 7.77-2.65 7.57v.13a.32.32 0 00.27.24l9.53 2.28 8.44 5.03a.3.3 0 00.12.05.3.3 0 00.12 0 .3.3 0 00.12-.05.32.32 0 00.09-.09l3.25-7.32 5.49-5.44a.32.32 0 00.06-.23.33.33 0 00-.1-.22l-5.84-6.13-2.88-7.5a.25.25 0 00-.14-.15.25.25 0 00-.2.01" stroke="#000" stroke-width="2" stroke-linecap="round" stroke-linejoin="round"/>
  <path d="M197.8 361.7l-2.63 2.97 1.52 1.44.35-3.5.77-.92z" fill="#000"/>
  <path d="M197.8 361.7l-2.63 2.97 1.52 1.44.35-3.5.77-.92z" stroke="#000" stroke-width="2" stroke-linecap="round" stroke-linejoin="round"/>
  <path d="M221.4 371.99l-1.17 2.87-2.08-.03 2.18-2.75 1.07-.1z" fill="#000"/>
  <path d="M221.4 371.99l-1.17 2.87-2.08-.03 2.18-2.75 1.07-.1z" stroke="#000" stroke-width="2" stroke-linecap="round" stroke-linejoin="round"/>
  <path d="M213.4 357.95l-7.19 3.4-8.4.35a.33.33 0 00-.23.08.33.33 0 00-.1.21l.25 7.77-2.65 7.57v.13a.32.32 0 00.27.25l9.53 2.28 8.44 5.02a.3.3 0 00.45-.08l3.25-7.33 5.49-5.44a.33.33 0 00-.04-.44l-5.84-6.13-2.88-7.5a.25.25 0 00-.05-.1.25.25 0 00-.09-.05.25.25 0 00-.1-.02.27.27 0 00-.1.03" fill="#fff"/>
  <path d="M213.4 357.95l-7.19 3.4-8.4.35a.33.33 0 00-.23.08.33.33 0 00-.1.21l.25 7.77-2.65 7.57v.13a.32.32 0 00.27.25l9.53 2.28 8.44 5.02a.3.3 0 00.45-.08l3.25-7.33 5.49-5.44a.33.33 0 00-.04-.44l-5.84-6.13-2.88-7.5a.25.25 0 00-.05-.1.25.25 0 00-.09-.05.25.25 0 00-.1-.02.27.27 0 00-.1.03" stroke="#000" stroke-width="2" stroke-linecap="round" stroke-linejoin="round"/>
  <path d="M231 129.04a122.05 122.05 0 0142.16 92.23c0 45.63-25.17 85.46-62.54 106.7-2.94 1.79 24.19-1.94 29.53-5.46 31.83-20.94 48.48-59.52 48.48-101.43 0-34.87-12.92-68.45-37.32-88.86-3.94-3.3-22.53-4.86-20.3-3.18" fill="#000"/>
  <path d="M231 129.04a122.05 122.05 0 0142.16 92.23c0 45.63-25.17 85.46-62.54 106.7-2.94 1.79 24.19-1.94 29.53-5.46 31.83-20.94 48.48-59.52 48.48-101.43 0-34.87-12.92-68.45-37.32-88.86-3.93-3.3-22.53-4.86-20.3-3.18z" stroke="#000" stroke-width="2" stroke-linecap="round" stroke-linejoin="round"/>
  <path d="M147.76 344.1c68.8 0 124.59-55.08 124.59-123.02S216.57 98.07 147.76 98.07c-68.8 0-124.59 55.07-124.59 123.01S78.95 344.1 147.77 344.1z" stroke="#fff" stroke-width="2" stroke-linecap="round" stroke-linejoin="round"/>
  <path d="M308.6 207.8s22.24 17.87 33.13 41.86c10.9 24 1.45 52.87-5.9 66.2-9.75 17.7-23.14 22.24-23.14 22.24a19.71 19.71 0 00-1.82-23.15c-9.53-11.8-22.7-29.08-25.42-42m2.73-205.83s-3.36 10-19.84 19.3c-16.47 9.3-41.27 0-41.27 0s7.55.22 13.9-13.4c6.35-13.61 7.43-25.42 16.65-30.86 9.23-5.44 27.83 6.8 27.83 6.8a26.5 26.5 0 012.73-22.69c7.26-11.34 24.96-14.97 34.04-22.7 0 0 3.18 8.18 3.18 25.88S307.7 63.5 307.7 63.5A84.15 84.15 0 01338.43 89a67.87 67.87 0 0111.93 27.14c7.27 37.22-8.62 75.51-24.05 104.93" stroke="#000" stroke-width="2" stroke-linecap="round" stroke-linejoin="round"/>
  <path d="M373.27 145.92l.9.8a3.9 3.9 0 00-.9-.8z" fill="#000"/>
  <path d="M373.27 145.92l.9.8a3.8 3.8 0 00-.9-.8z" stroke="#000" stroke-width="2" stroke-linecap="round" stroke-linejoin="round"/>
  <path d="M374.38 147.88c.1-.13-1.3-1.96-1.1-1.96l-7.05-6.17-4.6-11.13a.36.36 0 00-.53-.2l-10.65 5.38-8.52 1.3-.68-2.09-.49-2.2-3.2 3.94a.46.46 0 00-.15.18.4.4 0 00-.03.16l.68 11.64-3.69 11.45a.46.46 0 00.24.5c.05.03.11.05.18.05l14.37 3.06 12.85 7.2c.27.16 3.96-4.18 4.06-4.4l1.2-6.84 7.1-9.87z" fill="#B880FF"/>
  <path d="M374.38 147.88c.1-.13-1.3-1.96-1.1-1.96l-7.05-6.17-4.6-11.13a.36.36 0 00-.53-.2l-10.65 5.38-8.52 1.3-.68-2.09-.49-2.2-3.2 3.94a.46.46 0 00-.15.18v0a.4.4 0 00-.03.16l.68 11.64-3.69 11.45a.46.46 0 00.24.5c.05.03.11.05.18.05l14.37 3.06 12.85 7.2c.27.16 3.96-4.18 4.06-4.4l1.2-6.84 7.1-9.87z" stroke="#000" stroke-width="2" stroke-linecap="round" stroke-linejoin="round"/>
  <path d="M364.5 124.16l-10.67 5.38-12.58.83a.5.5 0 00-.49.45l.68 11.64-3.68 11.46a.48.48 0 00.09.36.49.49 0 00.32.19l14.38 3.05 12.85 7.21a.46.46 0 00.67-.14l4.6-11.11 8.01-8.36a.5.5 0 00-.07-.66l-9-8.97-4.6-11.14a.36.36 0 00-.2-.22.36.36 0 00-.32.03" fill="#fff"/>
  <path d="M364.5 124.16l-10.67 5.38-12.58.83a.5.5 0 00-.49.45l.68 11.64-3.68 11.46a.48.48 0 00.09.36.49.49 0 00.32.19l14.38 3.05 12.85 7.21a.46.46 0 00.67-.14l4.6-11.11 8.01-8.36a.5.5 0 00-.07-.66l-9-8.97-4.6-11.14a.36.36 0 00-.2-.22.36.36 0 00-.32.03" stroke="#000" stroke-width="2" stroke-linecap="round" stroke-linejoin="round"/>
  <path d="M242.69 309.05h8.17m-1.62-8.54h8.17m-1.49-8.54h8.17" stroke="#B880FF" stroke-width="3" stroke-linecap="round" stroke-linejoin="round"/>
  <path d="M71.9 298.67c-1.8 2.83 14.96 24.27 22.15 20.92 7.2-3.35-20.35-23.74-22.15-20.92zM90.73 89.65a9.65 9.65 0 0111.51-9.46 9.64 9.64 0 10-7.74 17.1 9.62 9.62 0 01-3.77-7.64" fill="#fff"/>
  <path d="M105.86 92.05a9.65 9.65 0 10-17.26-8.63 9.65 9.65 0 0017.26 8.63z" stroke="#000" stroke-width="2" stroke-linecap="round" stroke-linejoin="round"/>
  <path d="M49.49 237.47s32.83 24.36 74.37 14.98c35.02-7.9 47.74-20.86 47.74-20.86s-27.77 23.03-73.95 17.72c-31.3-3.6-45.25-15.6-45.25-15.6l-2.91 3.76z" fill="#000"/>
  <path d="M49.49 237.47s32.83 24.36 74.37 14.98c35.02-7.9 47.74-20.86 47.74-20.86s-27.77 23.03-73.95 17.72c-31.3-3.6-45.25-15.6-45.25-15.6l-2.91 3.76z" stroke="#000" stroke-width="2" stroke-linecap="round" stroke-linejoin="round"/>
  <path d="M46.18 204.19c-.75 3.34 8.7 12.48 10.88 14.73A66.37 66.37 0 0078.3 233.5c11.06 4.86 23.13 7.52 34.94 9.9 6.19 1.24 15.36 4.25 21.76 3.25 0 0-43.58 6.78-68.89-5.35-25.31-12.12-24.08-18.52-19.93-37.1" fill="#fff"/>
  <path d="M145.2 128.85s-43.58 14.98-72.63 40.4c-29.04 25.42-28.14 42.67-29.05 48.11-2.23 13.44 18.06 22.52 27.62 25.86a114.3 114.3 0 0051.64 5.59c21.66-2.7 50.25-12.64 63.57-31" stroke="#000" stroke-width="2" stroke-linecap="round" stroke-linejoin="round"/>
  <path d="M70.9 124.37c26.15-20.4 81.34 6.66 123.27 60.43 41.92 53.77 54.7 113.9 28.55 134.28l.13.17a122.32 122.32 0 0049.5-98.17c0-67.94-55.78-123.01-124.59-123.01a125.05 125.05 0 00-76.92 26.23l.06.07z" fill="#fff"/>
  <path d="M70.9 124.37c26.15-20.4 81.34 6.66 123.27 60.43 41.92 53.77 54.7 113.9 28.55 134.28l.13.17a122.32 122.32 0 0049.5-98.17c0-67.94-55.78-123.01-124.59-123.01a125.05 125.05 0 00-76.92 26.23l.06.07z" stroke="#fff" stroke-width="2" stroke-miterlimit="10"/>
  <path d="M227.56 233.76a2.52 2.52 0 00-1 0h-.15v.01c-3.83.65-6.84 6.97-6.84 14.69 0 7.71 3 14.04 6.84 14.68v.07h9.5v-29.45h-8.35z" fill="#000"/>
  <path d="M227.56 233.76a2.52 2.52 0 00-1 0h-.15v.01c-3.83.65-6.84 6.97-6.84 14.69 0 7.71 3 14.04 6.84 14.68v.07h9.5v-29.45h-8.35z" stroke="#000" stroke-width="2" stroke-linecap="round" stroke-linejoin="round"/>
  <path d="M243.83 248.46c0 8.15-3.36 14.75-7.5 14.75-4.13 0-7.48-6.6-7.48-14.75s3.35-14.76 7.49-14.76c4.13 0 7.49 6.6 7.49 14.76z" fill="#000"/>
  <path d="M236.34 263.21c4.13 0 7.49-6.6 7.49-14.75s-3.36-14.75-7.5-14.75c-4.13 0-7.48 6.6-7.48 14.75s3.35 14.75 7.49 14.75z" stroke="#B880FF" stroke-width="2" stroke-linecap="round" stroke-linejoin="round"/>
  <path d="M238.8 248.46c0 3-1.1 5.45-2.46 5.45-1.36 0-2.46-2.44-2.46-5.45 0-3.01 1.1-5.45 2.46-5.45 1.36 0 2.46 2.44 2.46 5.45z" fill="#B880FF"/>
  <path d="M238.8 248.46c0 3-1.1 5.45-2.46 5.45-1.36 0-2.46-2.44-2.46-5.45 0-3.01 1.1-5.45 2.46-5.45 1.36 0 2.46 2.44 2.46 5.45z" stroke="#000" stroke-width="2" stroke-linecap="round" stroke-linejoin="round"/>
  <path d="M200 100.26l-15.77 24.05" stroke="#000" stroke-width="3" stroke-linecap="round" stroke-linejoin="round"/>
  <path d="M192.66 127.79c-1.04 1.54-5.4.43-9.74-2.49-4.35-2.92-7.02-6.53-5.99-8.08 1.04-1.55 5.4-.43 9.75 2.49 4.34 2.92 7.02 6.53 5.98 8.08" fill="#000"/>
  <path d="M192.66 127.79c-1.04 1.54-5.4.43-9.74-2.49-4.35-2.92-7.02-6.53-5.99-8.08 1.04-1.55 5.4-.43 9.75 2.49 4.34 2.92 7.02 6.53 5.98 8.08z" stroke="#000" stroke-width="2" stroke-linecap="round" stroke-linejoin="round"/>
  <path d="M215.19 91.62a9.65 9.65 0 11-19.3 0 9.65 9.65 0 0119.3 0z" fill="#000"/>
  <path d="M213.75 96.69a9.65 9.65 0 10-16.41-10.14 9.65 9.65 0 0016.4 10.14z" stroke="#000" stroke-width="2" stroke-linecap="round" stroke-linejoin="round"/>
  <path d="M199.91 93.45a9.64 9.64 0 0111.52-9.46 9.64 9.64 0 10-7.75 17.1 9.63 9.63 0 01-3.76-7.64" fill="#fff"/>
  <path d="M213.75 96.69a9.65 9.65 0 10-16.41-10.14 9.65 9.65 0 0016.4 10.14z" stroke="#000" stroke-width="2" stroke-linecap="round" stroke-linejoin="round"/>
</svg>
