<svg width="360" height="360" viewBox="0 0 360 360" fill="none" xmlns="http://www.w3.org/2000/svg">
  <path d="M134.96 1.22 2.13 134.05A7.24 7.24 0 0 0 0 139.18v216.71A4.1 4.1 0 0 0 4.12 360h216.72c1.92 0 3.76-.77 5.12-2.13l132.83-132.82a4.14 4.14 0 0 0 1.17-3.58A267.51 267.51 0 0 0 138.53.05a4.14 4.14 0 0 0-3.57 1.17" fill="#B880FF"/>
  <path d="M76.06 252s12.6 9.68 18.8 3.51c0 0 24.73 24.33 34.1 14.95 0 0 21.94 21.59 36.85 5.71 0 0 19.26 18.53 42.08 2.09l-7.44 8.92s-16.25 4.44-24.89 2.3c-8.63-2.15-21.83-3.24-27.46-5.94-3.13-1.5-3.46-.84-5.11-1.17-4.95-1-6.74.55-11.32-.3-6.1-1.14-18.92-5.4-23.19-10.02-4.27-4.63-17.93-3.95-32.42-20.05" fill="#000"/>
  <path d="M76.06 252s12.6 9.68 18.8 3.51c0 0 24.73 24.33 34.1 14.95 0 0 21.94 21.59 36.85 5.71 0 0 19.26 18.53 42.08 2.09l-7.44 8.92s-16.25 4.44-24.89 2.3c-8.63-2.15-21.83-3.24-27.46-5.94-3.13-1.5-3.46-.84-5.11-1.17-4.95-1-6.74.55-11.32-.3-6.1-1.14-18.92-5.4-23.19-10.02-4.27-4.63-17.93-3.95-32.42-20.05Z" stroke="#000" stroke-width="2" stroke-linecap="round" stroke-linejoin="round"/>
  <path d="M313.08 111.89s-1.36-22.1-9.8-33.55c-8.43-11.44-23.95-18.56-27.91-21.97 0 0 14.73-21.18 16.1-33.44 1.38-12.25-1.48-19.7-1.48-19.7s-10.77 6.99-20.11 11.58c-9.35 4.6-14.16 12.78-14.2 17.19.11 3.85.45 7.7 1.03 11.5 0 0-15-9.99-23.03-6.35-8.04 3.64-5.02 20.4-5.02 20.4l36.62 1.53 23.6 36.77 24.2 16.04ZM301.9 275.08s-3.12 21.56-19.72 28.78c0 0 2.36-5.49 2.23-10.09-.13-4.6 17.48-18.69 17.48-18.69" fill="#B880FF"/>
  <path d="M63.27 175.61c0 4.49 4.38 9.04 8.92 8.17a9.4 9.4 0 0 0 5.68-3.9M129.45 183.77c0-.24 1.5 5.18 6.54 6.67 5.04 1.49 8.2-2.65 8.98-3.39M212.7 248.74s-15.24 0-32.7-16.34c-17.46-16.35-21.76-26.72-21.76-26.72M47.17 210.34s-3.62 3.68-3.36 5.71c.26 2.04 2.3 1.64 6.8 5.72 4.5 4.09 26.72 41.96 56.37 48.69 0 0 11.03 14.2 38 11.76 0 0 24.4 11.7 52.63 6.88" stroke="#000" stroke-width="2" stroke-linecap="round" stroke-linejoin="round"/>
  <path d="M85.03 240.56c1.53 1.64 9.29 16.49 21.95 29.9M106.98 240.56c-.4 1.23 18.26 32.67 38 41.66M194.5 289.56c-27.27-3.3-52.8-37.56-51.46-37.56M155.19 229.53s9.4 23.7 26.96 33.1c17.56 9.39 28.94 8.15 28.94 8.15M211.2 119.6c2.1.45 6.06.96 7.5 1.17 10.46 1.5 22.12 2.57 32.51.16 7.36-1.7 14.5-5.89 18.03-12.58 6.79-12.93.41-36.2-13.2-42.46M197.6 288.8s33.57-.46 62.16-34.97" stroke="#000" stroke-width="2" stroke-linecap="round" stroke-linejoin="round"/>
  <path d="M301.97 76.76s14.32 23.07 6.4 52.7c-6.54 24.5-30.63 57.56-30.63 57.56l15.18 13.92s21.9-44.53 24.03-66.18c3.32-33.66-10.24-52.63-14.98-58" fill="#000"/>
  <path d="M301.97 76.76s14.32 23.07 6.4 52.7c-6.54 24.5-30.63 57.56-30.63 57.56l15.18 13.92s21.9-44.53 24.03-66.18c3.33-33.66-10.24-52.63-14.98-58Z" stroke="#000" stroke-width="2" stroke-linecap="round" stroke-linejoin="round"/>
  <path d="M211.1 79.73s16.4-4.2 21.3-19.32c4.9-15.11 20.56-18.64 20.56-18.64s-13.2-10.05-22.6-2.74c-9.4 7.31-9.16 17.66-13.49 26.7-5.77 12.04-12.51 12.04-12.51 12.04l6.74 1.96ZM255.68 35.06a18.46 18.46 0 0 1 13.07-14.68C280.6 16.7 290 3.22 290 3.22L265.25 17.5s-8.94 9.7-9.58 17.57Z" fill="#fff"/>
  <path d="M291 6.85s-1 18.23-9.33 31.26c-6.4 10.03-12.92 14.95-12.92 14.95l8.17 4.08s13.1-13.93 15.33-25.14c2.24-11.21-1.24-25.15-1.24-25.15" fill="#000"/>
  <path d="M291 6.85s-1 18.23-9.33 31.26c-6.4 10.03-12.92 14.95-12.92 14.95l8.17 4.08s13.1-13.93 15.33-25.14c2.24-11.21-1.24-25.15-1.24-25.15Z" stroke="#000" stroke-width="2" stroke-linecap="round" stroke-linejoin="round"/>
  <path d="M295.71 229.54c5.72 21.65 5.6 49.1-2.7 66.42 0 0 21.73-23.84 17.62-59.07-3.27-27.98-32.89-49.87-32.89-49.87s12.26 20.86 17.97 42.52Z" fill="#000"/>
  <path d="M295.71 229.54c5.72 21.65 5.6 49.1-2.7 66.42 0 0 21.73-23.84 17.62-59.07-3.27-27.98-32.89-49.87-32.89-49.87s12.26 20.86 17.97 42.52Z" stroke="#000" stroke-width="2" stroke-linecap="round" stroke-linejoin="round"/>
  <path d="M264.35 220.09c.02 1.01.11 2.03.17 3.04 0 1.97.24 3.96.35 5.93.1 1.92.1 3.86.25 5.79.57 6.95 1.67 14.7 5.94 20.4 4.17 5.58 10.12 9.9 13.4 16.12 5.01 9.5 1.91 20.31-1.52 29.76 0 0 3.76-10.34-7.68-23.38-7.63-8.7-14.03-17.77-16.79-29.02-2.2-9.02.78-20.74 5.47-29.52.47-.86.4.44.4.76v.12Z" fill="#fff"/>
  <path d="M161.16 193.47c4.62-1.41 10.33 3.49 9.14 7.1" stroke="#000" stroke-width="2" stroke-linecap="round" stroke-linejoin="round"/>
  <path d="m25.52 99-1.78 5.07-3.81 4.2a.22.22 0 0 0-.02.3l3.86 3.56 2.38 4.86a.21.21 0 0 0 .14.1l.1-.01a.2.2 0 0 0 .07-.04l5.61-3.5 6.41-1.68a.2.2 0 0 0 .08-.03.2.2 0 0 0 .1-.14.2.2 0 0 0 0-.08l-1.99-5.04-.01-5.21c0-.06-.04-.1-.08-.14a.22.22 0 0 0-.15-.05l-5.72-.1-4.96-2.17a.16.16 0 0 0-.2.04.16.16 0 0 0-.03.06" fill="#000"/>
  <path d="m25.52 99-1.78 5.07-3.81 4.2a.22.22 0 0 0-.02.3l3.86 3.56 2.38 4.86a.21.21 0 0 0 .14.1l.1-.01a.2.2 0 0 0 .07-.04l5.61-3.5 6.41-1.68a.2.2 0 0 0 .08-.03.2.2 0 0 0 .1-.14.2.2 0 0 0 0-.08l-1.99-5.04-.01-5.21c0-.06-.04-.1-.08-.14a.22.22 0 0 0-.15-.05l-5.72-.1-4.96-2.17a.16.16 0 0 0-.2.04.16.16 0 0 0-.03.06" stroke="#000" stroke-width="2" stroke-linecap="round" stroke-linejoin="round"/>
  <path d="m19.05 106.6.82 1.91 1.41-.04-1.5-1.83-.73-.05Z" fill="#000"/>
  <path d="m19.05 106.6.82 1.91 1.41-.04-1.5-1.83-.73-.05Z" stroke="#000" stroke-width="2" stroke-linecap="round" stroke-linejoin="round"/>
  <path d="m35.81 99.37.83 1.92-1 .99-.29-2.35.46-.56Z" fill="#000"/>
  <path d="m35.81 99.37.83 1.92-1 .99-.29-2.35.46-.56Z" stroke="#000" stroke-width="2" stroke-linecap="round" stroke-linejoin="round"/>
  <path d="m25.28 96.56-1.77 5.07-3.82 4.21a.22.22 0 0 0-.01.3l3.85 3.56 2.39 4.85a.2.2 0 0 0 .14.1.21.21 0 0 0 .17-.05l5.6-3.5 6.42-1.68c.03 0 .06-.01.08-.03a.2.2 0 0 0 .1-.23l-1.99-5.03-.01-5.21a.22.22 0 0 0-.23-.2l-5.72-.09-4.97-2.17a.16.16 0 0 0-.23.1" fill="#fff"/>
  <path d="m25.28 96.56-1.77 5.07-3.82 4.21a.22.22 0 0 0-.01.3l3.85 3.56 2.39 4.85a.2.2 0 0 0 .14.1.21.21 0 0 0 .17-.05l5.6-3.5 6.42-1.68c.03 0 .06-.01.08-.03a.2.2 0 0 0 .1-.23l-1.99-5.03-.01-5.21a.22.22 0 0 0-.23-.2l-5.72-.09-4.97-2.17a.16.16 0 0 0-.23.1" stroke="#000" stroke-width="2" stroke-linecap="round" stroke-linejoin="round"/>
  <path d="m157.97 318.26-6.48 3.07-7.56.3a.29.29 0 0 0-.3.27l.23 7-2.38 6.8a.29.29 0 0 0 .05.22.28.28 0 0 0 .2.12l8.56 2.06 7.6 4.52a.29.29 0 0 0 .22.05.28.28 0 0 0 .18-.13l2.93-6.6 4.94-4.88a.3.3 0 0 0 .06-.21.3.3 0 0 0-.1-.2l-5.25-5.51-2.6-6.75a.22.22 0 0 0-.13-.14.22.22 0 0 0-.17.01" fill="#000"/>
  <path d="m157.97 318.26-6.48 3.07-7.56.3a.29.29 0 0 0-.3.27l.23 7-2.38 6.8a.29.29 0 0 0 .05.22.28.28 0 0 0 .2.12l8.56 2.06 7.6 4.52a.29.29 0 0 0 .22.05.28.28 0 0 0 .18-.13l2.93-6.6 4.94-4.88a.3.3 0 0 0 .06-.21.3.3 0 0 0-.1-.2l-5.25-5.51-2.6-6.75a.22.22 0 0 0-.13-.14.22.22 0 0 0-.17.01" stroke="#000" stroke-width="2" stroke-linecap="round" stroke-linejoin="round"/>
  <path d="m146.03 319.13-2.38 2.68 1.37 1.3.31-3.15.7-.83Z" fill="#000"/>
  <path d="m146.03 319.13-2.38 2.68 1.37 1.3.31-3.15.7-.83Z" stroke="#000" stroke-width="2" stroke-linecap="round" stroke-linejoin="round"/>
  <path d="m167.26 328.39-1.05 2.58-1.88-.02 1.96-2.48.97-.08Z" fill="#000"/>
  <path d="m167.26 328.39-1.05 2.58-1.88-.02 1.96-2.48.97-.08Z" stroke="#000" stroke-width="2" stroke-linecap="round" stroke-linejoin="round"/>
  <path d="m160.06 315.76-6.47 3.06-7.56.3a.3.3 0 0 0-.3.26l.23 7-2.39 6.82v.12l.05.1c.02.03.05.06.09.08l.1.04 8.58 2.05 7.6 4.52.1.05a.27.27 0 0 0 .22-.04.26.26 0 0 0 .08-.08l2.93-6.6 4.94-4.9a.3.3 0 0 0-.04-.4l-5.26-5.51-2.59-6.75a.22.22 0 0 0-.12-.14.22.22 0 0 0-.19.01" fill="#fff"/>
  <path d="m160.06 315.76-6.47 3.06-7.56.3a.3.3 0 0 0-.3.26l.23 7-2.39 6.82v.12l.05.1c.02.03.05.06.09.08l.1.04 8.58 2.05 7.6 4.52.1.05a.27.27 0 0 0 .22-.04.26.26 0 0 0 .08-.08l2.93-6.6 4.94-4.9a.3.3 0 0 0-.04-.4l-5.26-5.51-2.59-6.75a.22.22 0 0 0-.12-.14.22.22 0 0 0-.19.01M277.74 187.02s20.02 16.08 29.82 37.67c9.8 21.6 1.3 47.59-5.31 59.58-8.78 15.94-20.83 20.02-20.83 20.02a17.73 17.73 0 0 0-1.64-20.83c-8.58-10.62-20.42-26.17-22.88-37.8M259.36 60.41s-3.03 8.99-17.85 17.36c-14.83 8.37-37.15 0-37.15 0s6.8.2 12.51-12.05c5.72-12.26 6.69-22.88 14.99-27.78 8.3-4.9 25.05 6.13 25.05 6.13a23.86 23.86 0 0 1 2.45-20.42C265.9 13.43 281.83 10.17 290 3.22c0 0 2.86 7.35 2.86 23.29 0 15.93-15.93 30.64-15.93 30.64a75.73 75.73 0 0 1 27.65 22.96c5.34 7.25 9 15.59 10.75 24.42 6.53 33.5-7.76 67.97-21.65 94.44" stroke="#000" stroke-width="2" stroke-linecap="round" stroke-linejoin="round"/>
  <path d="M218.42 278.15h7.35M224.31 270.46h7.36M230.32 262.77h7.36" stroke="#B880FF" stroke-width="3" stroke-linecap="round" stroke-linejoin="round"/>
  <path d="M44.54 213.72s29.55 21.93 66.94 13.48c31.51-7.11 42.96-18.77 42.96-18.77s-25 20.73-66.56 15.95c-28.17-3.24-40.72-14.04-40.72-14.04l-2.62 3.38Z" fill="#000"/>
  <path d="M44.54 213.72s29.55 21.93 66.94 13.48c31.51-7.11 42.96-18.77 42.96-18.77s-25 20.73-66.56 15.95c-28.17-3.24-40.72-14.04-40.72-14.04l-2.62 3.38Z" stroke="#000" stroke-width="2" stroke-linecap="round" stroke-linejoin="round"/>
  <path d="M41.56 183.77c-.67 3.01 7.83 11.23 9.8 13.26a59.74 59.74 0 0 0 19.11 13.11c9.97 4.38 20.83 6.77 31.46 8.9 5.56 1.13 13.82 3.83 19.58 2.94 0 0-39.22 6.1-62-4.82-22.78-10.91-21.68-16.67-17.94-33.4" fill="#B880FF"/>
  <path d="M65.32 152.33c26.14-22.88 48.66-31.53 65.36-36.36 16.7-4.83 80.12 3.63 80.12 3.63-17.87 1.87-45.7-2.22-72.4 3.2-30.95 6.28-53.12 19.95-73.08 29.53Z" fill="#fff"/>
  <path d="M167.72 196.04c-12 16.51-37.73 25.46-57.22 27.89a102.9 102.9 0 0 1-46.48-5.03c-8.6-3-26.86-11.18-24.85-23.27.82-4.9 0-20.43 26.15-43.3 26.14-22.88 48.66-31.53 65.36-36.36 16.7-4.83 80.12 3.63 80.12 3.63" stroke="#000" stroke-width="2" stroke-linecap="round" stroke-linejoin="round"/>
  <path d="M159.63 107.8c8.1-15.74 7.08-36.38-2.81-51.66-2.87 7.7-9.95 13.12-17.39 16.18-7.44 3.06-15.61 4.46-23.37 6.44-7.77 1.98-15.9 4.66-21.7 10.05-10.25 8.97-12.89 25.66-6.34 38.05 21.46-11.64 46.67-19.8 71.61-19.06Z" fill="#fff" stroke="#000" stroke-width="2" stroke-miterlimit="10" stroke-linecap="round" stroke-linejoin="round"/>
  <path d="M87.6 135.2s36-25.2 73.81-19.94l.01-7.42S128.65 79.91 82.66 118c2.49 12.2 4.94 17.2 4.94 17.2ZM175.9 41.32c3.95 5.6 2.05 13.24-3.55 17.19-5.6 3.94-11.99 3.12-15.93-2.48-3.95-5.6-1.36-12.26 4.24-16.2 5.6-3.94 11.3-4.1 15.24 1.5Z" fill="#000" stroke="#000" stroke-width="2" stroke-miterlimit="10" stroke-linecap="round" stroke-linejoin="round"/>
  <path d="m92.23 234.93-4.28-2.07a1.93 1.93 0 0 0-2.58.9l-2.4 4.95 7.77 3.75 2.4-4.97a1.93 1.93 0 0 0-.91-2.56Z" fill="#B880FF" stroke="#000" stroke-width="1.5" stroke-miterlimit="10"/>
  <path d="M95.27 223.45c-4.53-2.12-5.9 10.1-5.2 10.4" stroke="#000" stroke-width="1.5" stroke-linecap="round" stroke-linejoin="round"/>
  <path d="M94.07 230.09c-1.72 2.14-3.8 3.88-4.13 3.73M95.15 223.4a2.03 2.03 0 0 1 1.25 2.23" stroke="#000" stroke-width="1.5" stroke-linecap="round" stroke-linejoin="round"/>
  <path d="M79.6 274.39a18.8 18.8 0 1 1 0-37.6 18.8 18.8 0 0 1 0 37.6Z" fill="#FEFFFF" stroke="#000" stroke-width="1.5" stroke-linecap="round" stroke-linejoin="round"/>
  <path d="M60.85 256.85a24.82 24.82 0 0 1 28.4-4.8 24.63 24.63 0 0 1 8.82 7.1 18.8 18.8 0 0 1-37.22-2.3v0Z" fill="#B880FF" stroke="#000" stroke-width="1.5" stroke-linecap="round" stroke-linejoin="round"/>
  <path d="M73.76 249a40.24 40.24 0 0 1 8.81-11.96 18.7 18.7 0 0 1 11.06 6.06 18.79 18.79 0 0 1-23.58 28.69 40.22 40.22 0 0 1 3.71-22.8v0Z" fill="#000" stroke="#000" stroke-width="1.5" stroke-linecap="round" stroke-linejoin="round"/>
  <path d="M70.05 271.79a40.17 40.17 0 0 1 3.2-21.68 24.67 24.67 0 0 1 16.01 1.93 24.64 24.64 0 0 1 8.81 7.11c-.07.39-.16.77-.26 1.16v.07c-.08.33-.18.65-.28.97l-.1.28c-.09.27-.2.54-.3.8l-.1.3-.46 1.02a18.8 18.8 0 0 1-26.45 8.02l-.07.02Z" fill="#FEFFFF" stroke="#000" stroke-width="1.5" stroke-linecap="round" stroke-linejoin="round"/>
  <path d="M93.33 261.21c1.6 1.4-1.09 6.53-5.94 8.9-5.04 2.47-11.37.93-11.37-.8s3.84-.4 9.02-2.72c5.77-2.58 6.95-6.53 8.3-5.38ZM93.88 249.84c.47-.13.65-1.94 0-3.4-.93-1.99-2.45-2.77-3.05-2.45-.6.32.6 2.25 1.24 3.42.64 1.16 1.37 2.55 1.8 2.43Z" fill="#B880FF"/>
  <path d="M47.45 221.1c11.23-1.2 17.18-7.55 30.67-9.72 13.26-2.13 26.95.23 37.47 3.83 14.18 4.84 21.12 10.11 36.94 12.53-2.66 1.69-22.3 13.73-43.09 5.65a43.45 43.45 0 0 1-16.43-11.52 34.09 34.09 0 0 1-18.13 8.29c-15.04 1.86-25.73-7.53-27.43-9.06Z" fill="#fff" stroke="#000" stroke-width="2" stroke-miterlimit="10" stroke-linecap="round" stroke-linejoin="round"/>
  <path d="m22.62 261.17-2.47 7.07-5.32 5.86a.3.3 0 0 0-.02.42l5.38 4.96 3.32 6.77a.3.3 0 0 0 .2.13.29.29 0 0 0 .23-.06l7.82-4.88 8.95-2.34a.3.3 0 0 0 .24-.36l-2.77-7.02-.02-7.27a.31.31 0 0 0-.32-.26l-7.97-.14-6.92-3.02a.24.24 0 0 0-.1-.03c-.03 0-.07 0-.1.02a.23.23 0 0 0-.13.15" fill="#000"/>
  <path d="m22.62 261.17-2.47 7.07-5.32 5.86a.3.3 0 0 0-.02.42l5.38 4.96 3.32 6.77a.3.3 0 0 0 .2.13.29.29 0 0 0 .23-.06l7.82-4.88 8.95-2.34a.3.3 0 0 0 .24-.36l-2.77-7.02-.02-7.27a.31.31 0 0 0-.32-.26l-7.97-.14-6.92-3.02a.24.24 0 0 0-.1-.03c-.03 0-.07 0-.1.02a.23.23 0 0 0-.13.15" stroke="#000" stroke-width="2" stroke-linecap="round" stroke-linejoin="round"/>
  <path d="m13.6 271.75 1.15 2.68 1.97-.06-2.1-2.55-1.02-.07Z" fill="#000"/>
  <path d="m13.6 271.75 1.15 2.68 1.97-.06-2.1-2.55-1.02-.07Z" stroke="#000" stroke-width="2" stroke-linecap="round" stroke-linejoin="round"/>
  <path d="m36.98 261.68 1.16 2.68-1.4 1.38-.4-3.28.64-.78Z" fill="#000"/>
  <path d="m36.98 261.68 1.16 2.68-1.4 1.38-.4-3.28.64-.78Z" stroke="#000" stroke-width="2" stroke-linecap="round" stroke-linejoin="round"/>
  <path d="m22.3 257.76-2.48 7.07-5.32 5.87a.3.3 0 0 0-.02.42l5.38 4.96 3.33 6.77a.3.3 0 0 0 .2.13.3.3 0 0 0 .12 0 .3.3 0 0 0 .1-.06l7.83-4.88 8.94-2.34a.29.29 0 0 0 .2-.13.28.28 0 0 0 .04-.23l-2.76-7.02-.02-7.27a.31.31 0 0 0-.32-.27l-7.97-.13-6.93-3.02a.22.22 0 0 0-.28.05.22.22 0 0 0-.04.09" fill="#fff"/>
  <path d="m22.3 257.76-2.48 7.07-5.32 5.87a.3.3 0 0 0-.02.42l5.38 4.96 3.33 6.77a.3.3 0 0 0 .2.13.3.3 0 0 0 .12 0 .3.3 0 0 0 .1-.06l7.83-4.88 8.94-2.34a.29.29 0 0 0 .2-.13.28.28 0 0 0 .04-.23l-2.76-7.02-.02-7.27a.31.31 0 0 0-.32-.27l-7.97-.13-6.93-3.02a.22.22 0 0 0-.28.05.22.22 0 0 0-.04.09" stroke="#000" stroke-width="2" stroke-linecap="round" stroke-linejoin="round"/>
  <path d="m333.35 182.05-5.24 2.48-6.12.25a.24.24 0 0 0-.24.21l.19 5.67-1.94 5.51a.22.22 0 0 0 .04.18c.02.03.04.05.07.06l.09.03 6.94 1.67 6.15 3.65.08.04a.22.22 0 0 0 .25-.1l2.36-5.33 4-3.96c.04-.05.06-.11.05-.17a.25.25 0 0 0-.08-.16l-4.25-4.47-2.1-5.46a.17.17 0 0 0-.04-.06.17.17 0 0 0-.13-.06c-.03 0-.06 0-.08.02" fill="#000"/>
  <path d="m333.35 182.05-5.24 2.48-6.12.25a.24.24 0 0 0-.24.21l.19 5.67-1.94 5.51a.22.22 0 0 0 .04.18c.02.03.04.05.07.06l.09.03 6.94 1.67 6.15 3.65.08.04a.22.22 0 0 0 .25-.1l2.36-5.33 4-3.96c.04-.05.06-.11.05-.17a.25.25 0 0 0-.08-.16l-4.25-4.47-2.1-5.46a.17.17 0 0 0-.04-.06.17.17 0 0 0-.13-.06c-.03 0-.06 0-.08.02" stroke="#000" stroke-width="2" stroke-linecap="round" stroke-linejoin="round"/>
  <path d="m323.69 182.75-1.92 2.17 1.1 1.05.26-2.55.56-.67Z" fill="#000"/>
  <path d="m323.69 182.75-1.92 2.17 1.1 1.05.26-2.55.56-.67Z" stroke="#000" stroke-width="2" stroke-linecap="round" stroke-linejoin="round"/>
  <path d="m340.87 190.25-.85 2.09-1.52-.02 1.6-2 .77-.07Z" fill="#000"/>
  <path d="m340.87 190.25-.85 2.09-1.52-.02 1.6-2 .77-.07Z" stroke="#000" stroke-width="2" stroke-linecap="round" stroke-linejoin="round"/>
  <path d="m335.05 180.03-5.24 2.48-6.12.24a.24.24 0 0 0-.17.06.23.23 0 0 0-.07.16l.18 5.66-1.93 5.51v.1a.23.23 0 0 0 .1.14l.1.04 6.94 1.66 6.15 3.66c.02.01.05.03.08.03h.1a.23.23 0 0 0 .14-.1l2.37-5.33 4-3.96c.03-.05.05-.1.05-.17a.24.24 0 0 0-.08-.16l-4.25-4.46-2.1-5.47a.16.16 0 0 0-.04-.06.18.18 0 0 0-.14-.06c-.02 0-.05 0-.07.02" fill="#fff"/>
  <path d="m335.05 180.03-5.24 2.48-6.12.24a.24.24 0 0 0-.17.06.23.23 0 0 0-.07.16l.18 5.66-1.93 5.51v.1a.23.23 0 0 0 .1.14l.1.04 6.94 1.66 6.15 3.66c.02.01.05.03.08.03h.1a.23.23 0 0 0 .14-.1l2.37-5.33 4-3.96c.03-.05.05-.1.05-.17a.24.24 0 0 0-.08-.16l-4.25-4.46-2.1-5.47a.16.16 0 0 0-.04-.06.18.18 0 0 0-.14-.06c-.02 0-.05 0-.07.02" stroke="#000" stroke-width="2" stroke-linecap="round" stroke-linejoin="round"/>
  <path d="m233.54 156.93.82.72a3.52 3.52 0 0 0-.82-.72Z" fill="#000"/>
  <path d="m233.54 156.93.82.72a3.42 3.42 0 0 0-.82-.72Z" stroke="#000" stroke-width="2" stroke-linecap="round" stroke-linejoin="round"/>
  <path d="M234.54 158.69c.1-.12-1.17-1.76-1-1.76l-6.33-5.55-4.14-10.02a.33.33 0 0 0-.2-.2.33.33 0 0 0-.28.02l-9.59 4.84-7.66 1.17-.62-1.88-.43-1.97-2.9 3.54c-.05.04-.1.1-.12.16a.37.37 0 0 0-.03.14l.61 10.48-3.31 10.3a.42.42 0 0 0 .2.45c.05.03.11.04.17.05l12.94 2.75 11.56 6.49c.24.13 3.56-3.77 3.65-3.97l1.09-6.16 6.39-8.88Z" fill="#B880FF"/>
  <path d="M234.54 158.69c.1-.12-1.17-1.76-1-1.76l-6.33-5.55-4.14-10.02a.33.33 0 0 0-.2-.2.33.33 0 0 0-.28.02l-9.59 4.84-7.66 1.17-.62-1.88-.43-1.97-2.9 3.54c-.05.04-.1.1-.12.16v0a.37.37 0 0 0-.03.14l.61 10.48-3.31 10.3a.42.42 0 0 0 .2.45c.05.03.11.04.17.05l12.94 2.75 11.56 6.49c.24.13 3.56-3.77 3.65-3.97l1.09-6.16 6.39-8.88Z" stroke="#000" stroke-width="2" stroke-linecap="round" stroke-linejoin="round"/>
  <path d="m225.64 137.34-9.59 4.84-11.33.75a.44.44 0 0 0-.43.41l.6 10.47-3.3 10.31a.42.42 0 0 0 .2.45c.05.03.1.04.17.05l12.93 2.75 11.57 6.49a.41.41 0 0 0 .6-.13l4.14-10 7.22-7.52a.45.45 0 0 0-.07-.6l-8.1-8.07-4.13-10.02a.34.34 0 0 0-.08-.13.33.33 0 0 0-.4-.06" fill="#fff"/>
  <path d="m225.64 137.34-9.59 4.84-11.33.75a.44.44 0 0 0-.43.41l.6 10.47-3.3 10.31a.42.42 0 0 0 .2.45c.05.03.1.04.17.05l12.93 2.75 11.57 6.49a.41.41 0 0 0 .6-.13l4.14-10 7.22-7.52a.45.45 0 0 0-.07-.6l-8.1-8.07-4.13-10.02a.34.34 0 0 0-.08-.13.33.33 0 0 0-.4-.06" stroke="#000" stroke-width="2" stroke-linecap="round" stroke-linejoin="round"/>
  <path d="M205.48 46.66c0 .97-.75 1.71-1.72 1.71s-1.74-.74-1.77-1.71c-.02-1.25.75-2.02 1.77-1.77.95.22 1.72.8 1.72 1.77ZM234.1 99.55c0 .5-.38.88-.88.88a.89.89 0 0 1-.9-.88c-.02-.62.38-1.02.9-.9.5.13.87.4.87.9ZM253.06 53.28c0 .5-.38.87-.87.87a.89.89 0 0 1-.9-.87c-.02-.62.37-1.02.9-.9.47.13.87.4.87.9ZM105.8 62.72c0 .5-.37.87-.87.87a.89.89 0 0 1-.9-.87c-.02-.62.38-1.02.9-.9.47.13.87.4.87.9ZM256.19 92.44c0 .5-.38.87-.87.87a.89.89 0 0 1-.9-.87c-.02-.63.37-1.03.9-.9.47.12.87.4.87.9ZM269.81 67.07c.5 0 .87.37.87.87s-.37.87-.87.9c-.62.02-1.02-.38-.9-.9.13-.47.4-.87.9-.87ZM181.6 24.9c.5 0 .86.38.86.87 0 .5-.37.88-.87.9-.62.03-1.02-.37-.9-.9.13-.47.4-.87.9-.87ZM146.13 23.63c0 .5-.38.87-.87.87a.89.89 0 0 1-.9-.87c-.02-.62.37-1.02.9-.9.5.13.87.4.87.9ZM128.59 43.14c0 .7-.53 1.24-1.25 1.24s-1.24-.52-1.27-1.24c-.02-.9.53-1.45 1.27-1.27.67.17 1.25.57 1.25 1.27ZM174.63 85.96c.5 0 .88.37.88.87s-.38.87-.88.9c-.62.02-1.01-.38-.9-.9.13-.47.43-.87.9-.87ZM254.03 77.98c.97 0 1.71.75 1.71 1.72s-.74 1.74-1.71 1.77c-1.25.02-2.02-.75-1.77-1.77.22-.94.77-1.72 1.77-1.72ZM179.02 63.7c.97 0 1.72.74 1.72 1.71s-.75 1.74-1.72 1.77c-1.25.02-2.02-.75-1.77-1.77.22-.94.8-1.72 1.77-1.72ZM222.93 292.43c0 .5-.38.87-.87.87a.89.89 0 0 1-.9-.87c-.03-.62.37-1.02.9-.9.5.13.87.4.87.9ZM205.39 311.94c0 .7-.52 1.24-1.25 1.24-.72 0-1.24-.52-1.27-1.24-.02-.9.53-1.45 1.27-1.27.68.17 1.25.57 1.25 1.27ZM236.62 332.5c.97 0 1.72.74 1.72 1.71s-.75 1.74-1.72 1.77c-1.25.02-2.02-.75-1.77-1.77.22-.94.8-1.72 1.77-1.72ZM216.77 102.8c.97 0 1.72.74 1.72 1.71s-.75 1.75-1.72 1.77c-1.24.03-2.01-.75-1.76-1.77.22-.94.8-1.71 1.76-1.71ZM191.86 91.54c.5 0 .87.37.87.87s-.37.87-.87.9c-.62.02-1.02-.38-.9-.9.1-.47.4-.87.9-.87ZM249.79 194.84c0 .5-.38.87-.87.87a.89.89 0 0 1-.9-.87c-.03-.63.37-1.03.9-.9.47.12.87.4.87.9ZM247.63 180.38c.97 0 1.71.75 1.71 1.72s-.74 1.74-1.71 1.77c-1.25.02-2.02-.75-1.77-1.77.22-.94.77-1.72 1.77-1.72ZM194.37 200.2c.97 0 1.72.74 1.72 1.71s-.75 1.75-1.72 1.77c-1.24.03-2.01-.75-1.76-1.77.22-.94.8-1.72 1.76-1.72ZM97.12 321.75c0 .97-.75 1.72-1.72 1.72s-1.74-.75-1.77-1.72c-.02-1.24.75-2.01 1.77-1.76.95.22 1.72.8 1.72 1.76ZM112.93 297.85c0 .5-.37.87-.87.87a.89.89 0 0 1-.9-.87c-.02-.62.38-1.02.9-.9.5.13.87.4.87.9ZM125.5 206.78c0 .5-.37.87-.87.87a.89.89 0 0 1-.9-.87c-.02-.63.38-1.02.9-.9.47.13.87.4.87.9ZM233.88 257.5c0 .96-.74 1.71-1.71 1.71s-1.74-.75-1.77-1.71c-.02-1.25.75-2.02 1.77-1.77.94.22 1.72.8 1.72 1.77ZM249.7 233.6c0 .5-.38.86-.88.86a.89.89 0 0 1-.9-.87c-.02-.62.38-1.02.9-.9.5.13.88.4.88.9ZM262.26 142.52c0 .5-.37.87-.87.87a.89.89 0 0 1-.9-.87c-.02-.62.38-1.02.9-.9.48.13.88.4.88.9ZM29.44 203.42c0 .5-.37.87-.87.87a.89.89 0 0 1-.9-.87c-.02-.63.38-1.02.9-.9.48.12.87.4.87.9ZM333.43 233.13c0 .5-.38.87-.87.87a.89.89 0 0 1-.9-.87c-.03-.62.37-1.02.9-.9.47.13.87.4.87.9ZM103.85 162.97c.5 0 .87.37.87.87s-.37.87-.87.9c-.62.02-1.02-.38-.9-.9.13-.47.4-.87.9-.87ZM41.23 140c.5 0 .88.37.88.87s-.38.87-.88.9c-.62.02-1.02-.38-.9-.9.13-.47.4-.87.9-.87ZM12.17 221.93c0 .5-.38.87-.87.87a.89.89 0 0 1-.9-.87c-.02-.63.37-1.02.9-.9.5.13.87.4.87.9ZM39.43 235.03c0 .7-.52 1.25-1.25 1.25-.72 0-1.24-.53-1.27-1.25-.02-.9.53-1.44 1.27-1.27.68.18 1.25.58 1.25 1.27ZM175.08 156.26c.5 0 .87.37.87.87s-.38.87-.87.9c-.63.02-1.03-.38-.9-.9.12-.47.42-.87.9-.87ZM139.27 129.08c.97 0 1.72.75 1.72 1.72s-.75 1.74-1.72 1.76c-1.25.03-2.02-.74-1.77-1.76.22-.95.77-1.72 1.77-1.72ZM25.86 178.79c.97 0 1.72.75 1.72 1.72s-.75 1.74-1.72 1.76c-1.25.03-2.02-.74-1.77-1.76.23-.95.8-1.72 1.77-1.72ZM47.61 308.9c.98 0 1.72.74 1.72 1.7 0 .98-.74 1.75-1.72 1.78-1.24.02-2.01-.75-1.76-1.77.22-.95.8-1.72 1.76-1.72ZM38.7 310.63c.5 0 .87.38.87.88s-.37.87-.87.9c-.62.02-1.02-.38-.9-.9.1-.48.4-.88.9-.88Z" fill="#fff"/>
</svg>
