<svg xmlns="http://www.w3.org/2000/svg" width="24" height="24" viewBox="0 0 24 24"><path d="M3 6a1 1 0 0 1 0-2h14a1 1 0 1 1 0 2H3ZM3 10a1 1 0 0 1 0-2h10a1 1 0 1 1 0 2H3ZM2 13a1 1 0 0 0 1 1h6a1 1 0 1 0 0-2H3a1 1 0 0 0-1 1ZM19.624 7.26a.4.4 0 0 1 .75 0l.574 1.553a.4.4 0 0 0 .236.236l1.552.575a.4.4 0 0 1 0 .75l-1.552.574a.4.4 0 0 0-.236.237l-.574 1.552a.4.4 0 0 1-.75 0l-.575-1.552a.4.4 0 0 0-.236-.237l-1.552-.574a.4.4 0 0 1 0-.75l1.552-.575a.4.4 0 0 0 .236-.236l.575-1.553ZM16.375 12.26a.4.4 0 0 0-.75 0l-.845 2.284a.4.4 0 0 1-.236.236l-2.283.845a.4.4 0 0 0 0 .75l2.283.845a.4.4 0 0 1 .236.236l.845 2.283a.4.4 0 0 0 .75 0l.844-2.283a.4.4 0 0 1 .237-.236l2.282-.845a.4.4 0 0 0 0-.75l-2.282-.845a.4.4 0 0 1-.237-.236l-.844-2.284Z"/></svg>