<svg xmlns="http://www.w3.org/2000/svg" xlink="http://www.w3.org/1999/xlink" width="22" height="22" viewBox="0 0 22 22"><path d="M15.5,-0.0003 C18.537,-0.0003 21,2.4627 21,5.4997 L21,11.4997 C21,14.5367 18.537,16.9997 15.5,16.9997 L10.879,16.9997 L7.272,20.6077 C6.434,21.4457 5,20.8527 5,19.6667 L5,16.9747 C2.197,16.7217 0,14.3687 0,11.4997 L0,5.4997 C0,2.4627 2.463,-0.0003 5.5,-0.0003 L15.5,-0.0003 Z M8.96,13.2607 L17.061,5.0607 L14.939,2.9397 L8.96,8.8197 L6.061,6.0197 L3.939,8.1407 L8.96,13.2607 Z"/></svg>
