<svg xmlns="http://www.w3.org/2000/svg" xlink="http://www.w3.org/1999/xlink" width="16" height="16" viewBox="0 0 16 16"><path d="M12.0002,0.0004 C14.2092,0.0004 16.0002,1.7914 16.0002,4.0004 L16.0002,8.0004 C16.0002,10.2094 14.2092,12.0004 12.0002,12.0004 L8.5062,12.0004 L5.2672,15.2784 C4.8002,15.7524 4.0002,15.4164 4.0002,14.7474 L4.0002,12.0004 C1.7912,12.0004 0.0002,10.2094 0.0002,8.0004 L0.0002,4.0004 C0.0002,1.7914 1.7912,0.0004 4.0002,0.0004 L12.0002,0.0004 Z M6.5312,9.4824 L12.2932,3.7204 L10.8652,2.2934 L6.5312,6.4684 L4.7202,4.8174 L3.2932,6.2454 L6.5312,9.4824 Z"/></svg>
