<svg xmlns="http://www.w3.org/2000/svg" xlink="http://www.w3.org/1999/xlink" width="12" height="12" viewBox="0 0 12 12"><path d="M8.9998,0.0001 C10.6558,0.0001 11.9998,1.3431 11.9998,3.0001 L11.9998,6.0001 C11.9998,7.6571 10.6558,9.0001 8.9998,9.0001 L6.9548,9.0001 L4.1548,11.8011 C3.7288,12.2261 2.9998,11.9251 2.9998,11.3231 L2.9998,9.0001 C1.3438,9.0001 -0.0002,7.6571 -0.0002,6.0001 L-0.0002,3.0001 C-0.0002,1.3431 1.3438,0.0001 2.9998,0.0001 L8.9998,0.0001 Z M5.1348,7.6201 L9.7288,2.9261 L8.6678,1.8651 L5.1348,5.2811 L3.4788,3.7421 L2.4178,4.8031 L5.1348,7.6201 Z"/></svg>
