<svg width="44" height="44" viewBox="0 0 44 44" xmlns="http://www.w3.org/2000/svg"><path d="M42 23c0-1.68-.17-3.35-.5-5H23v8h11c-.22 1.78-3.17 4.91-5.07 6.27l-.98.7 6.81 4.45.48-.26A21.41 21.41 0 0042 22" fill="#4285F4"/><path d="M22.36 42c4.9.07 9.64-1.77 13.2-5.14l-6.22-4.9a10.4 10.4 0 01-6.98 2.15 12.19 12.19 0 01-11.84-8.46l-6.3 4.88-.2.24A20.54 20.54 0 0022.36 42z" fill="#34A853"/><path d="M10.62 25.96a12.32 12.32 0 01-.02-7.92l-.01-.26-6.25-4.86-.2.1a19.96 19.96 0 000 17.96l6.48-5.02" fill="#FBBC05"/><path d="M22 9.73a11.08 11.08 0 017.73 2.98l5.65-5.51A19.22 19.22 0 0022 2 19.99 19.99 0 004.13 13.02l6.47 5.02A12.09 12.09 0 0122 9.74z" fill="#EB4335"/></svg>
