<svg width="22" height="22" viewBox="0 0 22 22" xmlns="http://www.w3.org/2000/svg"><path d="M21 11V9H10v4h6.5a4.68 4.68 0 01-2.03 3.14l-.02.12 2.97 2.3.2.02A10.6 10.6 0 0021 11z" fill="#4285F4"/><path d="M11 21c2.44.07 4.8-.8 6.62-2.42l-3.15-2.45a5.92 5.92 0 01-3.47 1 6.02 6.02 0 01-5.69-4.15H5.2l-3.08 2.4-.04.1A10 10 0 0011 21z" fill="#34A853"/><path d="M5.31 12.98a6.16 6.16 0 01-.01-3.96V8.9L2.16 6.46l-.1.05a9.98 9.98 0 000 8.98l3.24-2.51" fill="#FBBC05"/><path d="M11 4.87a5.54 5.54 0 013.87 1.49l2.82-2.76A10 10 0 002.07 6.51L5.3 9.02A6.04 6.04 0 0111 4.87z" fill="#EB4335"/></svg>
