<svg xmlns="http://www.w3.org/2000/svg" width="16" height="16" viewBox="0 0 16 16"><path d="M15,6H7V9h5a3.778,3.778,0,0,1-1.694,2.35l-.014.093,2.429,1.74a11.545,11.545,0,0,0,1-1.082A7.735,7.735,0,0,0,15,8" fill="#4285f4"/><path d="M7.653,15a7.382,7.382,0,0,0,5.068-1.817L10.306,11.35a4.594,4.594,0,0,1-2.653.75A4.6,4.6,0,0,1,3.3,8.983l-.089.008L.847,10.782l-.031.085A7.665,7.665,0,0,0,7.653,15" fill="#34a853"/><path d="M3.3,8.983A4.542,4.542,0,0,1,3.044,7.5a4.759,4.759,0,0,1,.247-1.483l0-.1L.9,4.1l-.079.036a7.355,7.355,0,0,0,0,6.734L3.3,8.983" fill="#fbbc05"/><path d="M7.653,2.9a4.284,4.284,0,0,1,2.959,1.117l2.16-2.067A7.436,7.436,0,0,0,7.653,0,7.665,7.665,0,0,0,.816,4.133L3.291,6.017A4.617,4.617,0,0,1,7.653,2.9" fill="#eb4335"/></svg>