<svg xmlns="http://www.w3.org/2000/svg" width="12" height="12" viewBox="0 0 12 12"><path d="M11,6s-.017,2.655-1.519,3.789l-.105-.01L7.861,8.629l.01-.062A2.348,2.348,0,0,0,8.914,7H6V5h5Z" fill="#4285f4"/><path d="M6.1,11A4.92,4.92,0,0,0,9.481,9.789L7.871,8.567a3.068,3.068,0,0,1-1.769.5A3.066,3.066,0,0,1,3.2,6.989l-.06,0L1.565,8.188l-.021.056A5.11,5.11,0,0,0,6.1,11" fill="#34a853"/><path d="M3.2,6.989A3.018,3.018,0,0,1,3.029,6a3.18,3.18,0,0,1,.165-.989l0-.066L1.6,3.731l-.052.025a4.9,4.9,0,0,0,0,4.488L3.2,6.989" fill="#fbbc05"/><path d="M6.1,2.933a2.859,2.859,0,0,1,1.973.745L9.515,2.3A4.956,4.956,0,0,0,6.1,1,5.11,5.11,0,0,0,1.544,3.756l1.65,1.255A3.079,3.079,0,0,1,6.1,2.933" fill="#eb4335"/></svg>