<svg xmlns="http://www.w3.org/2000/svg" xlink="http://www.w3.org/1999/xlink" width="22" height="22" viewBox="0 0 22 22"><path d="M19.5254,10.8945 C19.9474,11.1035 20.1194,11.6175 19.9124,12.0435 C19.7654,12.3485 19.4644,12.5255 19.1524,12.5255 C19.0264,12.5255 18.8984,12.4965 18.7784,12.4355 L15.9904,11.3425 C15.7144,11.2045 15.4814,10.9935 15.3104,10.7335 L14.4934,9.4925 L13.4694,12.5835 L17.2104,20.6305 C17.3764,21.1065 17.1924,21.6425 16.7364,21.8815 C16.5874,21.9605 16.4264,21.9985 16.2694,21.9985 C15.9004,21.9985 15.5454,21.7965 15.3664,21.4435 L10.6424,12.9885 C10.5074,12.7145 10.4664,12.4045 10.5264,12.1045 L11.4234,8.7775 L7.2054,11.3965 L4.7944,20.5175 C4.5454,20.1755 4.1654,19.9365 3.7134,19.9365 C3.2174,19.9365 2.8014,20.2205 2.5664,20.6235 L2.0484,20.6235 C1.3034,20.6235 0.8504,20.0275 1.0454,19.2945 L2.1604,15.0775 C2.3524,14.3465 3.1214,13.7485 3.8674,13.7485 L5.2254,13.7485 C5.2254,13.7485 6.0354,10.7025 6.1074,10.4585 C6.1814,10.2125 6.2564,10.0225 6.4524,9.8805 L12.7114,5.1625 C12.9934,4.9505 13.3424,4.8205 13.6714,4.8205 C13.7654,4.8205 13.8594,4.8285 13.9544,4.8475 C14.4084,4.9395 14.7964,5.2595 15.0114,5.6605 L16.7014,8.9985 C16.8724,9.3435 17.1474,9.6235 17.4884,9.7945 L19.5254,10.8945 Z M9.3428,17.1016 L10.1128,14.9906 L11.8308,18.4696 L8.1658,21.6976 C7.9668,21.8976 7.7078,21.9996 7.4468,21.9996 C7.1858,21.9996 6.9258,21.8976 6.7268,21.6976 C6.3288,21.2936 6.3288,20.6406 6.7268,20.2386 L9.3428,17.1016 Z M3.7139,20.624 C4.0879,20.624 4.3929,20.932 4.3929,21.311 C4.3929,21.69 4.0879,21.999 3.7139,21.999 C3.3389,21.999 3.0349,21.69 3.0349,21.311 C3.0349,20.932 3.3389,20.624 3.7139,20.624 Z M15,4 C13.896,4 13,3.104 13,2 C13,0.896 13.896,0 15,0 C16.104,0 17,0.896 17,2 C17,3.104 16.104,4 15,4 Z"/></svg>
