<svg xmlns="http://www.w3.org/2000/svg" xlink="http://www.w3.org/1999/xlink" width="16" height="16" viewBox="0 0 16 16"><path d="M2.9995,14.9995 C3.2755,14.9995 3.4995,15.2245 3.4995,15.4995 C3.4995,15.7755 3.2755,15.9995 2.9995,15.9995 C2.7245,15.9995 2.4995,15.7755 2.4995,15.4995 C2.4995,15.2245 2.7245,14.9995 2.9995,14.9995 Z M11.4995,2.9995 C10.6715,2.9995 9.9995,2.3275 9.9995,1.4995 C9.9995,0.6725 10.6715,-0.0005 11.4995,-0.0005 C12.3275,-0.0005 12.9995,0.6725 12.9995,1.4995 C12.9995,2.3275 12.3275,2.9995 11.4995,2.9995 Z M7.1465,12.4385 L7.7145,10.9025 L8.9795,13.4335 L6.2795,15.7805 C6.1335,15.9265 5.9415,16.0005 5.7505,16.0005 C5.5575,16.0005 5.3665,15.9265 5.2195,15.7805 C4.9265,15.4875 4.9265,15.0125 5.2195,14.7195 L7.1465,12.4385 Z M14.6495,7.9235 C14.9615,8.0755 15.0875,8.4495 14.9355,8.7605 C14.8265,8.9815 14.6045,9.1095 14.3755,9.1095 C14.2815,9.1095 14.1875,9.0885 14.0995,9.0445 L12.0455,8.2495 C11.8425,8.1485 11.6705,7.9955 11.5445,7.8075 L10.9415,6.9035 L10.1875,9.1525 L12.9435,15.0045 C13.0655,15.3515 12.9315,15.7405 12.5955,15.9145 C12.4845,15.9735 12.3665,15.9995 12.2515,15.9995 C11.9785,15.9995 11.7175,15.8535 11.5855,15.5965 L8.1045,9.4465 C8.0055,9.2475 7.9755,9.0215 8.0195,8.8045 L8.6805,6.3835 L5.5715,8.2885 L4.8545,10.9655 L4.0325,14.0335 L3.7955,14.9225 C3.6115,14.6735 3.3325,14.4995 3.0005,14.4995 C2.6345,14.4995 2.3285,14.7065 2.1535,14.9995 L1.7725,14.9995 C1.2245,14.9995 0.8905,14.5655 1.0325,14.0335 L1.8545,10.9655 C1.9975,10.4355 2.5625,9.9995 3.1125,9.9995 L4.1125,9.9995 C4.1125,9.9995 4.7105,7.7835 4.7635,7.6065 C4.8175,7.4285 4.8735,7.2895 5.0175,7.1875 L9.6265,3.7495 C9.6265,3.7495 10.0945,3.5055 10.3375,3.5055 C10.4055,3.5055 10.4755,3.5125 10.5455,3.5255 C10.8795,3.5935 11.1665,3.8255 11.3235,4.1165 L12.5685,6.5445 C12.6945,6.7955 12.8975,6.9985 13.1485,7.1235 L14.6495,7.9235 Z"/></svg>
