<svg xmlns="http://www.w3.org/2000/svg" xlink="http://www.w3.org/1999/xlink" width="12" height="12" viewBox="0 0 12 12"><path d="M7.9997,2 C7.4467,2 6.9997,1.553 6.9997,1 C6.9997,0.447 7.4467,0 7.9997,0 C8.5527,0 8.9997,0.447 8.9997,1 C8.9997,1.553 8.5527,2 7.9997,2 Z M1.4997,11 C1.7757,11 1.9997,11.224 1.9997,11.5 C1.9997,11.776 1.7757,12 1.4997,12 C1.2237,12 0.9997,11.776 0.9997,11.5 C0.9997,11.224 1.2237,11 1.4997,11 Z M4.7497,9.25 L4.9897,8.449 L5.9487,10.098 L3.8537,11.854 C3.7557,11.951 3.6277,12 3.4997,12 C3.3717,12 3.2437,11.951 3.1457,11.854 C2.9507,11.658 2.9507,11.342 3.1457,11.146 L4.7497,9.25 Z M8.8922,5.1147 L10.7282,6.0547 C10.9722,6.1807 11.0702,6.4827 10.9452,6.7287 C10.8552,6.9007 10.6812,6.9997 10.4992,6.9997 C10.4212,6.9997 10.3432,6.9827 10.2712,6.9457 L8.2732,6.1287 C8.1472,6.0767 8.0402,5.9897 7.9642,5.8757 L7.4312,5.0697 L6.8912,6.9337 L8.9372,11.2567 C9.0712,11.4987 8.9842,11.8027 8.7432,11.9377 C8.6652,11.9797 8.5822,11.9997 8.4992,11.9997 C8.3252,11.9997 8.1542,11.9077 8.0622,11.7427 C8.0622,11.7427 5.4112,7.1457 5.3942,7.1027 C5.3222,6.9227 5.2912,6.7297 5.3372,6.5387 L5.7362,4.8627 L3.3762,6.2467 C3.3742,6.2477 2.2062,10.5927 2.2032,10.6017 C2.0052,10.4477 1.7692,10.3397 1.4992,10.3397 C1.0502,10.3397 0.6712,10.6047 0.4782,10.9787 C0.1562,10.9237 -0.0688,10.6137 0.0192,10.2837 L0.7862,7.4217 C0.8532,7.1727 1.0782,6.9997 1.3352,6.9997 L2.4882,6.9997 L2.8072,5.8097 C2.8632,5.6047 2.9852,5.4237 3.1552,5.2977 L6.4992,2.8087 C6.8982,2.5107 7.4682,2.6297 7.7152,3.0617 L8.8922,5.1147 Z"/></svg>
