<svg width="56" height="19" viewBox="0 0 56 19" fill="none" xmlns="http://www.w3.org/2000/svg">
<path d="M4.51339 7.70938L0.519644 18.1425C0.269001 18.7973 0.752454 19.5 1.45356 19.5H55.5476C56.0999 19.5 56.5476 19.0523 56.5476 18.5V14.7289C56.5476 14.5857 56.5169 14.4442 56.4574 14.3139L51.1195 2.61154C50.7877 1.88395 49.7784 1.82095 49.3586 2.50161L45.9989 7.94913C45.6516 8.51226 44.863 8.58895 44.4137 8.10328L41.0077 4.42142C40.6118 3.99352 39.9354 3.99352 39.5396 4.42142L35.5363 8.74884C35.347 8.95344 35.081 9.06977 34.8022 9.06977H30.6424C30.3637 9.06977 30.0976 8.95344 29.9083 8.74885L25.6979 4.1975C25.3879 3.86231 24.8901 3.77974 24.4884 3.99686L20.8747 5.95001C20.4479 6.18069 19.9171 6.07175 19.6157 5.6916L16.1119 1.2728C15.649 0.689116 14.7334 0.798213 14.4207 1.4743L10.6377 9.65288C10.355 10.2641 9.56118 10.4268 9.06081 9.97607L6.11661 7.32388C5.59503 6.85404 4.76435 7.05378 4.51339 7.70938Z" fill="#50AEF4" fill-opacity="0.2" stroke="#50AEF4" stroke-linecap="round" stroke-linejoin="round"/>
</svg>
