<svg xmlns="http://www.w3.org/2000/svg" width="24" height="24" fill="none" viewBox="0 0 24 24">
  <g>
    <rect width="22" height="22" x="1" y="1" fill="#010101" rx="2"/>
    <path fill="#EE1D52" fill-rule="evenodd" d="M16.097 10.117a6.646 6.646 0 0 0 3.876 1.24v-2.78c-.273 0-.546-.028-.814-.085v2.188a6.646 6.646 0 0 1-3.876-1.24v5.674a5.14 5.14 0 0 1-8.004 4.27 5.14 5.14 0 0 0 8.818-3.593v-5.674Zm1.004-2.804a3.874 3.874 0 0 1-1.004-2.269v-.357h-.771A3.892 3.892 0 0 0 17.1 7.313Zm-8.026 9.893a2.351 2.351 0 0 1 2.586-3.664V10.7a5.174 5.174 0 0 0-.814-.047v2.213a2.351 2.351 0 0 0-1.772 4.34Z" clip-rule="evenodd"/>
    <path fill="#fff" fill-rule="evenodd" d="M15.283 9.44a6.646 6.646 0 0 0 3.876 1.24V8.492a3.89 3.89 0 0 1-2.058-1.18 3.892 3.892 0 0 1-1.775-2.625h-2.027V15.79a2.351 2.351 0 0 1-4.224 1.415 2.35 2.35 0 0 1 1.772-4.34v-2.213a5.14 5.14 0 0 0-3.568 8.73 5.14 5.14 0 0 0 8.004-4.27V9.442Z" clip-rule="evenodd"/>
    <path fill="#69C9D0" fill-rule="evenodd" d="M19.16 8.492V7.9a3.877 3.877 0 0 1-2.059-.587 3.888 3.888 0 0 0 2.058 1.179Zm-3.834-3.805a3.941 3.941 0 0 1-.043-.32V4.01h-2.798v11.104a2.351 2.351 0 0 1-3.41 2.092A2.352 2.352 0 0 0 13.3 15.79V4.687h2.027Zm-4.479 5.966v-.63a5.14 5.14 0 0 0-3.568 9.36 5.14 5.14 0 0 1 3.568-8.73Z" clip-rule="evenodd"/>
  </g>
  <defs>
      <path fill="#fff" d="M1 1.01h22v22H1z"/>
  </defs>
</svg>
