<svg xmlns="http://www.w3.org/2000/svg" width="16" height="16" fill="none" viewBox="0 0 16 16">
  <g>
    <rect width="16" height="16" fill="#010101" rx="2"/>
    <path fill="#EE1D52" fill-rule="evenodd" d="M10.772 6.287a4.654 4.654 0 0 0 2.715.869V5.209c-.192 0-.383-.02-.57-.06v1.533a4.655 4.655 0 0 1-2.715-.869v3.974a3.6 3.6 0 0 1-5.606 2.99 3.6 3.6 0 0 0 6.176-2.516V6.287Zm.703-1.964a2.713 2.713 0 0 1-.703-1.589v-.25h-.54c.136.775.6 1.438 1.243 1.84Zm-5.62 6.929a1.647 1.647 0 0 1 1.81-2.566v-1.99a3.634 3.634 0 0 0-.57-.033v1.55a1.647 1.647 0 0 0-1.24 3.04Z" clip-rule="evenodd"/>
    <path fill="#fff" fill-rule="evenodd" d="M10.202 5.813a4.655 4.655 0 0 0 2.714.869V5.149a2.725 2.725 0 0 1-1.44-.826 2.726 2.726 0 0 1-1.244-1.84h-1.42v7.778a1.647 1.647 0 0 1-2.958.99 1.646 1.646 0 0 1 1.241-3.039v-1.55a3.6 3.6 0 0 0-2.499 6.115 3.6 3.6 0 0 0 5.605-2.99V5.813Z" clip-rule="evenodd"/>
    <path fill="#69C9D0" fill-rule="evenodd" d="M12.916 5.149v-.415c-.509.001-1.008-.141-1.44-.411.382.419.886.707 1.44.826Zm-2.684-2.665a2.757 2.757 0 0 1-.03-.224v-.25h-1.96v7.777a1.647 1.647 0 0 1-2.388 1.465 1.647 1.647 0 0 0 2.958-.991V2.484h1.42ZM7.095 6.663V6.22a3.6 3.6 0 0 0-2.499 6.556 3.6 3.6 0 0 1 2.499-6.114Z" clip-rule="evenodd"/>
  </g>
  <defs>
      <path fill="#fff" d="M0 .01h16v16H0z"/>
  </defs>
</svg>
