<svg width="100" height="72" viewBox="0 0 100 72" fill="none" xmlns="http://www.w3.org/2000/svg">
  <path d="M15 72s7-16.17 16.8-16.17 12.13 1.67 17.73 1.67 6.54-12.75 17.74-12.75S86 31 86 31v41H15Z" fill="#E0E1E9"/>
  <path d="M15.88 71.47a1 1 0 0 1-1.76-.94c1.76-3.3 3.01-5.56 3.77-6.8a38.3 38.3 0 0 1 2.96-4.31 14 14 0 0 1 1-1.1c3.01-2.98 6.35-4.49 9.95-4.49 4.16 0 6.12.22 9.2.86 2.98.61 4.71.81 8.53.81 3.2 0 4.63-1.2 6.9-4.91l.54-.87C59.89 45 62.54 43 68 43c7.56 0 12.88-4.06 16.07-12.36a1 1 0 1 1 1.86.72C82.46 40.39 76.43 45 68 45c-4.64 0-6.74 1.58-9.33 5.78l-.53.86c-2.6 4.24-4.54 5.86-8.6 5.86-3.97 0-5.84-.21-8.86-.84a37.06 37.06 0 0 0-8.88-.83c-3.05 0-5.89 1.29-8.56 3.91-.26.26-.54.57-.85.95-.8.98-1.74 2.34-2.79 4.07-.73 1.21-1.98 3.45-3.72 6.71Z" fill="#A9ABB6"/>
  <path fill-rule="evenodd" clip-rule="evenodd" d="M45 56a5 5 0 1 0 10 0 5 5 0 0 0-10 0Zm8 0a3 3 0 1 1-6 0 3 3 0 0 1 6 0ZM27 55a5 5 0 1 0 10 0 5 5 0 0 0-10 0Zm8 0a3 3 0 1 1-6 0 3 3 0 0 1 6 0ZM63 44a5 5 0 1 0 10 0 5 5 0 0 0-10 0Zm8 0a3 3 0 1 1-6 0 3 3 0 0 1 6 0Z" fill="#A9ABB6"/>
  <path d="M68 47a3 3 0 1 0 0-6 3 3 0 0 0 0 6ZM50 59a3 3 0 1 0 0-6 3 3 0 0 0 0 6ZM32 58a3 3 0 1 0 0-6 3 3 0 0 0 0 6Z" fill="#fff"/>
</svg>
