<svg width="100" height="72" viewBox="0 0 100 72" xmlns="http://www.w3.org/2000/svg">
  <g fill-rule="nonzero" fill="none">
    <path d="M83.1 45.016l1.877-.09c.486-.023.937-.23 1.272-.584l1.97-2.086c.537-.57.663-1.423.313-2.123l-1.378-2.728 3.06-1.882a1.87 1.87 0 0 0 .815-1.067l1.238-4.212a1.874 1.874 0 0 0-1.059-2.25l-1.858-.784.248-1.439 2.124-.894a1.868 1.868 0 0 0 1.06-1.162l.299-.947 2.445 2.89c.357.422.875.665 1.42.665a1.88 1.88 0 0 0 1.882-1.875v-3.3l-.076-3.573c-.05-2.377-2.023-4.31-4.398-4.31-.176 0-.354.01-.53.031L75.56 15.488l.125-.34a1.878 1.878 0 0 0-.2-1.69 1.878 1.878 0 0 0-1.485-.83l-2.323-.089a1.888 1.888 0 0 0-1.57.748l-5.703 7.607-5.03 2.521-4.146-2.136a1.88 1.88 0 0 0-2.224.384l-3.844 4.101a1.863 1.863 0 0 0-.391 1.929l.694 1.86-2.461 2.331-2.346 1.358a1.862 1.862 0 0 0-.913 1.899l.196 1.306c.136.91.932 1.596 1.852 1.596.265 0 .524-.056.768-.166l2.005-.902 2.501-1.06 2.562 1.793c.217.152.459.255.718.304l3.916.747v.968l-8.103-1.215a1.863 1.863 0 0 0-.966.11l-5.284 2.085a1.87 1.87 0 0 0-1.14 1.336l-1.033 4.649a1.874 1.874 0 0 0 .575 1.798l2.435 2.192c.393.353.918.524 1.444.47l4.702-.497.135 7.038c.004.172.03.343.08.507l.858 2.83a4.068 4.068 0 0 0 3.916 2.906 4.08 4.08 0 0 0 3.629-2.2l6.495-12.462a1.88 1.88 0 0 0-.38-2.232l-.846-.794 1.317-.439c.62-.206 1.08-.71 1.23-1.346a1.86 1.86 0 0 0-.498-1.754l-1.933-1.915.128-.162 4.046 2.609 3.26 4.707a1.871 1.871 0 0 0 3.204-.208l1.452-2.855 3.26 2.317c.322.228.696.349 1.082.349.556 0 1.081-.246 1.442-.675.353-.42.502-.975.406-1.522l-.075-.338zM57.836 60.862a2.198 2.198 0 0 1-1.955 1.186c-.979 0-1.827-.63-2.11-1.566l-.858-2.826-.135-7.038a1.877 1.877 0 0 0-.63-1.366 1.883 1.883 0 0 0-1.433-.461l-4.707.488-2.43-2.179 1.024-4.639 5.276-2.085 8.805 1.321 3.512 4.57c.08.108 2.137 2.134 2.137 2.134l-6.496 12.461zm23.802-17.031a1.874 1.874 0 0 0-.383 1.491l.055.32-3.232-2.296A1.861 1.861 0 0 0 76.995 43c-.705 0-1.344.389-1.666 1.015L73.87 46.86l-3.25-4.694a1.864 1.864 0 0 0-.525-.508l-4.05-2.612a1.875 1.875 0 0 0-2.415.33l-.146.164a1.875 1.875 0 0 0 .075 2.568l1.918 1.918-2.146.725-3.184-4.24v-1.753c0-.895-.637-1.668-1.516-1.839l-3.922-.758-2.562-1.793a1.89 1.89 0 0 0-1.801-.192l-2.535 1.068-2.007.922-.203-1.292 2.344-1.357c.126-.073.244-.16.352-.262l2.463-2.334a1.87 1.87 0 0 0 .47-2.007l-.694-1.86 3.828-4.099 4.146 2.137a1.882 1.882 0 0 0 1.695.01l5.044-2.522c.258-.13.486-.32.659-.55l5.696-7.605 2.31.07-.133.362a1.873 1.873 0 0 0 1.98 2.507l18.286-2.195a2.529 2.529 0 0 1 2.817 2.446l.076 3.553v3.241l-2.437-2.879a1.865 1.865 0 0 0-1.426-.664c-.823 0-1.542.526-1.79 1.31l-.298.962-2.125.894a1.865 1.865 0 0 0-1.117 1.4l-.256 1.45a1.866 1.866 0 0 0 1.107 2.047l1.858.783-1.233 4.204-3.06 1.883a1.862 1.862 0 0 0-.693 2.432l1.375 2.73-1.96 2.08-1.876.09a1.875 1.875 0 0 0-1.372.7zM99.601 60.25l-2.197-4.176c-.325-.617-.96-1-1.658-1a1.87 1.87 0 0 0-1.547.818l-.574-.717a1.87 1.87 0 0 0-2.426-.436L86 57.86a1.884 1.884 0 0 0-.897 1.393l-.443 3.873a1.874 1.874 0 0 0 2.093 2.071l4.403-.56.698 1.656c.293.696.97 1.146 1.725 1.146.108 0 .216-.01.322-.028l2.417-.42a1.876 1.876 0 0 0 1.366-1.03l1.946-4.022a1.882 1.882 0 0 0-.029-1.688zm-3.606 4.881l-2.407.419-.693-1.647a1.869 1.869 0 0 0-1.958-1.131l-4.402.567.436-3.863 5.181-3.123.586.732a1.87 1.87 0 0 0 3.007-.112l2.187 4.143-1.937 4.015zM36.196 52.87l-8.892-5.76a2.994 2.994 0 0 0-4.001.684l-1.994-1.116-3.562-5.07h1.817c.433 0 .855-.152 1.19-.426l6.753-5.554 3.76-2.13a1.877 1.877 0 0 0 .613-2.7l-3.33-4.772a1.87 1.87 0 0 0-3.123.08l-1.715 2.778-1.967-2.212 3.909-2.874a1.875 1.875 0 0 0 .58-2.317l-.964-2.015a1.879 1.879 0 0 0-1.136-.981 1.876 1.876 0 0 0-1.492.168l-1.703.993-7.7-3.258-5.53-3.119a1.883 1.883 0 0 0-2.113.188l-2.929 2.42c-.257.212-.453.49-.567.803L.112 22.147a1.877 1.877 0 0 0 .213 1.695c.338.496.898.802 1.5.818l4.218.1 2.678 6.62-.437 6.558c-.026.397.077.8.292 1.135l3.6 5.617c.218.338.531.593.908.738l6.926 2.651c.063.06.132.11.207.15l2.025 1.133-1.088 1.631a1.867 1.867 0 0 0-.084 1.94l2.28 4.151-.298 10.107c-.013.432.126.859.391 1.201l1.839 2.375c.358.463.894.728 1.471.728.509 0 1.004-.208 1.358-.57a1.85 1.85 0 0 0 .524-1.35l-.085-3.355 6.906-6.612a1.87 1.87 0 0 0 .514-.87l1.017-3.813a1.87 1.87 0 0 0-.791-2.055zm-22.43-9.198l-3.599-5.609.437-6.557a1.885 1.885 0 0 0-.132-.827l-2.68-6.627a1.873 1.873 0 0 0-1.688-1.17l-4.212-.108 1.977-5.443 2.913-2.418 5.53 3.12c.063.035.127.066.19.093l7.702 3.258a1.885 1.885 0 0 0 1.667-.104l1.697-1 .968 1.998-3.909 2.874c-.422.31-.696.787-.752 1.308-.057.52.11 1.045.456 1.438l1.964 2.233c.395.448.963.679 1.559.63a1.856 1.856 0 0 0 1.435-.875l1.727-2.762 3.32 4.732-3.757 2.13a1.887 1.887 0 0 0-.268.183l-6.747 5.552h-2.109a1.726 1.726 0 0 0-1.51.949 1.777 1.777 0 0 0 .126 1.832l1.97 2.805-4.275-1.635zM34.15 58.245l-6.906 6.612c-.38.363-.59.872-.577 1.397l.078 3.323-1.808-2.331.297-10.106c.01-.333-.07-.664-.23-.956l-2.281-4.144 2.02-3.03a1.115 1.115 0 0 1 1.535-.316l8.885 5.744-1.013 3.807zM32.09 15.826l1.015.77v9.3c0 1.034.841 1.875 1.875 1.875.362 0 .716-.107 1.022-.308l6.43-4.203c.402-.263.685-.666.796-1.133l2.144-9.006a1.87 1.87 0 0 0-.578-1.833l-1.982-1.762a1.897 1.897 0 0 0-1.953-.333l-8.34 3.412a1.853 1.853 0 0 0-1.148 1.486c-.09.674.179 1.322.719 1.735zm9.469-4.89l1.977 1.749-2.138 8.996-6.407 4.189v-9.274c0-.58-.274-1.136-.735-1.488l-1-.766 8.303-3.405z" fill="#CBD1D3"/>
    <path d="M81.638 43.83a1.874 1.874 0 0 0-.383 1.492l.055.32-3.232-2.296A1.861 1.861 0 0 0 76.995 43c-.705 0-1.344.389-1.666 1.015L73.87 46.86l-3.25-4.694a1.864 1.864 0 0 0-.525-.508l-4.05-2.612a1.875 1.875 0 0 0-2.415.33l-.146.164a1.875 1.875 0 0 0 .075 2.568l1.918 1.918-2.146.725-3.184-4.24v-1.753c0-.895-.637-1.668-1.516-1.839l-3.922-.758-2.562-1.793a1.89 1.89 0 0 0-1.801-.192l-2.535 1.068-2.007.922-.203-1.292 2.344-1.357c.126-.073.244-.16.352-.262l2.463-2.334a1.87 1.87 0 0 0 .47-2.007l-.694-1.86 3.828-4.099 4.146 2.137a1.882 1.882 0 0 0 1.695.01l5.044-2.522c.258-.13.486-.32.659-.55l5.696-7.605 2.31.07-.133.362a1.873 1.873 0 0 0 1.98 2.507l18.286-2.195a2.529 2.529 0 0 1 2.817 2.446l.076 3.553v3.241l-2.437-2.879a1.865 1.865 0 0 0-1.426-.664c-.823 0-1.542.526-1.79 1.31l-.298.962-2.125.894a1.865 1.865 0 0 0-1.117 1.4l-.256 1.45a1.866 1.866 0 0 0 1.107 2.047l1.858.783-1.233 4.204-3.06 1.883a1.862 1.862 0 0 0-.693 2.432l1.375 2.73-1.96 2.08-1.876.09a1.875 1.875 0 0 0-1.372.7zM13.766 43.672l-3.599-5.609.437-6.557a1.885 1.885 0 0 0-.132-.827l-2.68-6.627a1.873 1.873 0 0 0-1.688-1.17l-4.212-.108 1.977-5.443 2.913-2.418 5.53 3.12c.063.035.127.066.19.093l7.702 3.258a1.885 1.885 0 0 0 1.667-.104l1.697-1 .968 1.998-3.909 2.874c-.422.31-.696.787-.752 1.308-.057.52.11 1.045.456 1.438l1.964 2.233c.395.448.963.679 1.559.63a1.856 1.856 0 0 0 1.435-.875l1.727-2.762 3.32 4.732-3.757 2.13a1.887 1.887 0 0 0-.268.183l-6.747 5.552h-2.109a1.726 1.726 0 0 0-1.51.949 1.777 1.777 0 0 0 .126 1.832l1.97 2.805-4.275-1.635z" fill="#EEF0F1"/>
    <g fill="#CBD1D3">
      <path d="M22.741 53.7l7.42-3.566 1 1.732-7.486 3.598a1 1 0 0 1-1.299-.401L22.34 55a.927.927 0 0 1 .401-1.3zM23.706 57.634l10.588-5 1 1.732-10.588 5zM23.706 63.634L34.294 58v2.366l-9.588 5z"/>
    </g>
  </g>
</svg>
