<svg width="100" height="72" viewBox="0 0 100 72" fill="none" xmlns="http://www.w3.org/2000/svg">
  <path fill-rule="evenodd" clip-rule="evenodd" d="m83.1 45.02 1.88-.1c.48-.02.93-.22 1.27-.58l1.97-2.08c.54-.57.66-1.43.31-2.13l-1.38-2.72 3.06-1.89c.4-.24.69-.62.82-1.06l1.24-4.22c.26-.9-.2-1.87-1.06-2.25l-1.86-.78.25-1.44 2.12-.9c.51-.2.9-.63 1.06-1.16l.3-.94 2.45 2.89a1.88 1.88 0 0 0 3.3-1.21v-3.3l-.08-3.57a4.43 4.43 0 0 0-4.93-4.28l-18.26 2.19.13-.34A1.88 1.88 0 0 0 74 12.63l-2.32-.1c-.61-.01-1.2.27-1.57.76l-5.7 7.6-5.03 2.53-4.15-2.14a1.88 1.88 0 0 0-2.22.38l-3.85 4.1a1.86 1.86 0 0 0-.39 1.93l.7 1.86L47 31.88l-2.34 1.36a1.86 1.86 0 0 0-.92 1.9l.2 1.3a1.88 1.88 0 0 0 2.62 1.44l2-.9 2.5-1.07 2.57 1.8c.21.15.46.25.72.3l3.91.75v.97l-8.1-1.22a1.86 1.86 0 0 0-.97.11l-5.28 2.09c-.58.23-1 .73-1.14 1.33l-1.03 4.65c-.15.66.07 1.35.57 1.8l2.44 2.2c.39.35.91.52 1.44.46l4.7-.5.14 7.04c0 .18.03.35.08.51l.86 2.83a4.08 4.08 0 0 0 7.54.7l6.5-12.46c.38-.74.23-1.66-.38-2.23l-.85-.8 1.32-.43c.62-.2 1.08-.71 1.23-1.35.15-.63-.04-1.29-.5-1.75l-1.94-1.92.13-.16 4.05 2.61 3.26 4.7a1.87 1.87 0 0 0 3.2-.2L77 44.89l3.26 2.31a1.86 1.86 0 0 0 2.52-.32c.35-.42.5-.98.4-1.53l-.07-.33ZM57.84 60.86a2.2 2.2 0 0 1-4.07-.38l-.86-2.82-.13-7.04a1.88 1.88 0 0 0-2.07-1.83l-4.7.49-2.43-2.18 1.02-4.64 5.28-2.08 8.8 1.32 3.51 4.57 2.14 2.13-6.5 12.46Zm23.41-15.54a1.87 1.87 0 0 1 1.76-2.19l1.88-.09 1.96-2.08-1.38-2.73a1.86 1.86 0 0 1 .7-2.43l3.05-1.88 1.24-4.2-1.86-.8a1.87 1.87 0 0 1-1.1-2.04l.25-1.45c.1-.63.53-1.15 1.12-1.4l2.12-.9.3-.95a1.87 1.87 0 0 1 3.21-.65l2.44 2.88v-3.24l-.07-3.55a2.53 2.53 0 0 0-2.82-2.45l-18.29 2.2c-.7.08-1.36-.23-1.76-.8a1.87 1.87 0 0 1-.22-1.71l.14-.36-2.31-.08-5.7 7.6c-.17.24-.4.43-.66.56L60.2 25.1a1.89 1.89 0 0 1-1.7 0l-4.14-2.14-3.83 4.1.7 1.85c.25.7.07 1.5-.48 2.01l-2.46 2.33c-.11.1-.23.2-.35.27l-2.35 1.35.2 1.3 2.01-.93 2.54-1.06a1.89 1.89 0 0 1 1.8.19l2.56 1.8 3.92.75c.88.17 1.52.94 1.52 1.84v1.75l3.18 4.24 2.15-.72-1.92-1.92c-.7-.7-.73-1.83-.08-2.57l.15-.17a1.88 1.88 0 0 1 2.42-.32l4.05 2.6c.2.14.38.31.52.52l3.25 4.69 1.46-2.84a1.87 1.87 0 0 1 2.75-.67l3.23 2.3-.06-.33ZM97.4 56.07l2.2 4.18c.28.52.29 1.16.03 1.69l-1.95 4.02c-.26.54-.77.93-1.36 1.03l-2.42.42a1.87 1.87 0 0 1-2.05-1.12l-.7-1.65-4.4.56a1.87 1.87 0 0 1-2.09-2.07l.44-3.88c.07-.57.4-1.1.9-1.4l5.2-3.11a1.87 1.87 0 0 1 2.43.43l.57.72a1.87 1.87 0 0 1 3.2.18Zm-3.81 9.48 2.4-.42 1.94-4.01-2.18-4.15a1.87 1.87 0 0 1-3.01.12l-.59-.74-5.18 3.13-.44 3.86 4.4-.57.24-.01c.75 0 1.43.45 1.73 1.14l.69 1.65ZM36.2 52.87l-8.9-5.76a3 3 0 0 0-4 .68l-2-1.11-3.55-5.07h1.81c.44 0 .86-.15 1.2-.43l6.75-5.55 3.76-2.13a1.88 1.88 0 0 0 .6-2.7l-3.32-4.77a1.87 1.87 0 0 0-3.12.08l-1.72 2.77-1.96-2.2 3.9-2.88c.73-.53.97-1.5.58-2.32l-.96-2.01a1.88 1.88 0 0 0-2.63-.82l-1.7 1-7.7-3.26-5.53-3.12a1.88 1.88 0 0 0-2.11.19l-2.93 2.42c-.26.2-.46.49-.57.8L.11 22.15a1.88 1.88 0 0 0 1.71 2.51l4.22.1 2.68 6.62-.44 6.56c-.02.4.08.8.3 1.13l3.6 5.62c.21.34.53.6.9.74l6.93 2.65c.06.06.13.1.2.15l2.03 1.13L21.15 51a1.87 1.87 0 0 0-.08 1.94l2.28 4.15-.3 10.11c-.01.43.13.86.4 1.2l1.83 2.38c.36.46.9.73 1.47.73.51 0 1-.21 1.36-.58.35-.35.54-.83.52-1.34l-.08-3.36 6.9-6.61c.25-.24.43-.54.52-.87l1.02-3.82c.2-.78-.11-1.6-.8-2.05Zm-22.43-9.2-3.6-5.6.43-6.56c.02-.28-.02-.57-.13-.83L7.8 24.05a1.87 1.87 0 0 0-1.69-1.17l-4.2-.1 1.97-5.45 2.91-2.42 5.53 3.12.2.1 7.7 3.25c.53.23 1.16.2 1.66-.1l1.7-1 .97 2-3.91 2.87a1.88 1.88 0 0 0-.3 2.75l1.97 2.23a1.86 1.86 0 0 0 3-.24L27 27.12l3.32 4.74-3.76 2.13c-.1.05-.18.1-.27.18l-6.75 5.55h-2.1c-.64.01-1.22.37-1.52.95-.3.59-.25 1.3.13 1.83l1.97 2.8-4.27-1.63Zm13.48 21.19 6.9-6.62 1.01-3.8-8.88-5.75a1.1 1.1 0 0 0-1.54.32l-2.02 3.03L25 56.18c.17.3.24.63.23.96l-.3 10.1 1.82 2.34-.08-3.33c-.01-.52.2-1.03.57-1.4ZM33.1 16.6l-1.01-.77a1.85 1.85 0 0 1-.72-1.74c.09-.67.52-1.23 1.15-1.48l8.34-3.42a1.9 1.9 0 0 1 1.95.34l1.98 1.76c.52.46.74 1.16.58 1.83l-2.14 9c-.11.47-.4.88-.8 1.14L36 27.46a1.88 1.88 0 0 1-2.9-1.57v-9.3Zm10.44-3.92-1.98-1.74-8.3 3.4 1 .77c.46.35.73.9.73 1.49v9.27l6.4-4.19 2.15-9Z" fill="#A9ABB6"/>
  <path d="M81.64 43.83c-.34.42-.48.96-.39 1.5l.06.31-3.23-2.3a1.86 1.86 0 0 0-2.75.68l-1.46 2.84-3.25-4.7c-.14-.2-.32-.37-.52-.5l-4.05-2.61a1.87 1.87 0 0 0-2.42.32l-.15.17c-.65.74-.62 1.87.08 2.57l1.92 1.92-2.15.72-3.18-4.24v-1.75c0-.9-.64-1.67-1.52-1.84l-3.92-.76-2.56-1.8a1.89 1.89 0 0 0-1.8-.18l-2.54 1.06-2 .93-.2-1.3 2.34-1.35c.12-.08.24-.16.35-.27l2.46-2.33c.55-.51.73-1.3.47-2l-.7-1.87 3.84-4.1 4.14 2.14a1.88 1.88 0 0 0 1.7.01l5.04-2.52c.26-.13.49-.32.66-.55l5.7-7.6 2.3.07-.13.36a1.87 1.87 0 0 0 1.98 2.5l18.29-2.2h.3c1.36 0 2.49 1.1 2.52 2.46l.07 3.55v3.24l-2.44-2.88a1.87 1.87 0 0 0-3.21.65l-.3.96-2.12.9c-.6.24-1.01.76-1.12 1.4l-.26 1.44c-.15.86.3 1.7 1.1 2.05l1.87.78-1.24 4.2-3.06 1.89a1.86 1.86 0 0 0-.69 2.43l1.38 2.73-1.96 2.08-1.88.1c-.54.02-1.04.27-1.37.7ZM13.77 43.67l-3.6-5.6.43-6.56c.02-.28-.02-.57-.13-.83L7.8 24.05a1.87 1.87 0 0 0-1.69-1.17l-4.2-.1 1.97-5.45 2.91-2.42 5.53 3.12.2.1 7.7 3.25c.53.23 1.16.2 1.66-.1l1.7-1 .97 2-3.91 2.87a1.88 1.88 0 0 0-.3 2.75l1.97 2.23a1.86 1.86 0 0 0 3-.24L27 27.12l3.32 4.74-3.76 2.13c-.1.05-.18.1-.27.18l-6.75 5.55h-2.1c-.64.01-1.22.37-1.52.95-.3.59-.25 1.3.13 1.83l1.97 2.8-4.27-1.63Z" fill="#E0E1E9"/>
  <path d="M22.38 55.07a1 1 0 0 1 .43-1.4l7.35-3.54 1 1.74-7.49 3.6a1 1 0 0 1-1.3-.4ZM23.7 57.63l10.6-5 1 1.74-10.6 5-1-1.74ZM23.7 63.63 34.3 58v2.37l-9.6 5-1-1.74Z" fill="#A9ABB6"/>
</svg>
