<svg width="100" height="72" viewBox="0 0 100 72" fill="none" xmlns="http://www.w3.org/2000/svg">
  <path fill-rule="evenodd" clip-rule="evenodd" d="M66.32 39.02 60.41 39c-.56 0-1 .46-1 1.03-.01.57.44 1.03 1 1.03l5.91.02v8.59c-.17 8.94-7.29 16.15-16.04 16.15-8.89 0-16.09-7.4-16.09-16.52v-8.22h14.22l1.87-.02h.12c.5-.07.88-.5.88-1.04 0-.57-.46-1.02-1.01-1.02l-1.87.02H34.04a2.04 2.04 0 0 0-1.86 2.06v8.57a18.63 18.63 0 0 0 9.8 16.17h-13.8a1 1 0 0 0-1 1v.06a1 1 0 0 0 1 1h3.04a3.74 3.74 0 0 0 .3 2.06H16a1 1 0 0 0-1 1V71a1 1 0 0 0 1 1h60.9a1 1 0 0 0 1-1v-.06a1 1 0 0 0-1-1H69a3.67 3.67 0 0 0 .3-2.06h3.04a1 1 0 0 0 1-1v-.06a1 1 0 0 0-1-1H58.56a18.34 18.34 0 0 0 7.16-6.87c4.55-.28 9.14-4.23 9.14-8.69 0-4.43-2.54-7.33-6.53-7.71v-1.63a2.03 2.03 0 0 0-2-1.9Zm2.01 5.6v4.72c0 2.62-.53 5.1-1.48 7.36 3.13-.76 6-3.56 6-6.44 0-3.28-1.67-5.3-4.52-5.64Zm-10.86-4.6c0-.57-.46-1.02-1.01-1.02l-2.2.02h-.11c-.5.07-.89.5-.88 1.03 0 .57.45 1.03 1 1.03l2.2-.02h.12c.5-.07.88-.5.88-1.04ZM34.64 69.94h31.24c.8-.03 1.45-.71 1.45-1.55 0-.18-.03-.35-.09-.51H33.27c-.05.16-.08.33-.08.51 0 .84.64 1.52 1.45 1.55Zm46.29 0a1 1 0 0 0-1 1V71a1 1 0 0 0 1 1H84a1 1 0 0 0 1-1v-.06a1 1 0 0 0-1-1h-3.07Z" fill="#A9ABB6"/>
  <path fill-rule="evenodd" clip-rule="evenodd" d="M53.26 11.7a1 1 0 0 0-1.27-.64c-3.83 1.34-5.87 3.43-5.87 6.27 0 2.23 1.66 3.74 4.33 4.45.5.14.96.22 1.7.34l1.65.23c3.23.5 4.29 1.21 4.2 3.32-.07 1.43-1.28 2.6-4.47 2.6-.58 0-1.03-.04-1.95-.2l-1.61-.28c-3.41-.59-5.48-.54-8.17.56-3.06 1.25-5.31 3.68-6.73 7.24-.2.52.04 1.12.55 1.33a1 1 0 0 0 1.3-.56c1.22-3.06 3.09-5.08 5.62-6.11 2.37-.97 4.17-.97 7.5-.37l1.28.23c.86.14 1.35.2 1.92.2l.29.01c4.26 0 6.35-2.03 6.46-4.56.16-3.62-1.83-4.85-6.2-5.48l-1.51-.21c-.45-.07-.77-.13-1.07-.2l-.25-.07c-1.9-.5-2.84-1.36-2.84-2.47 0-1.8 1.41-3.25 4.51-4.34.53-.18.8-.76.63-1.3ZM55 53h-8a1 1 0 0 0-1 1v2a4 4 0 0 0 4 4h2a4 4 0 0 0 4-4v-2a1 1 0 0 0-1-1Zm-7 2h6v1a2 2 0 0 1-2 2h-2.15A2 2 0 0 1 48 56v-1Zm13.37-38.96a1 1 0 0 1 1.24.68c.54 1.83 1.8 3 3.92 3.54 3.47.9 5.38 2.28 6.2 4.54.32.9.4 2.42 0 3.6-.62 1.86-2.24 2.87-4.76 2.6a8.11 8.11 0 0 1-1.77-.4l-.6-.2a5.04 5.04 0 0 0-1.58-.3c-.92 0-1.64.44-1.87 1.03-.49 1.28.3 2.58 2.74 4a1 1 0 0 1-1 1.73c-3.2-1.86-4.52-4.05-3.6-6.45.53-1.4 2.03-2.31 3.73-2.31.62 0 1.17.1 1.9.31l1.06.34c.52.16.83.23 1.2.27 1.6.16 2.34-.3 2.66-1.25.24-.73.18-1.79 0-2.3-.53-1.48-1.83-2.46-4.5-3.2l-.31-.08c-2.78-.71-4.6-2.38-5.33-4.9a1 1 0 0 1 .67-1.25ZM47 31.88a1 1 0 0 0-1.1-.87 7.34 7.34 0 0 0-2.69.79c-.72.39-1.36.9-1.94 1.52a1 1 0 0 0 1.48 1.36c.42-.47.9-.84 1.42-1.13a5.4 5.4 0 0 1 1.96-.56 1 1 0 0 0 .87-1.1ZM42.5 46c1.75 0 2.97.98 3.46 2.73a1 1 0 0 1-1.92.54c-.26-.91-.7-1.27-1.54-1.27-.83 0-1.28.36-1.54 1.27a1 1 0 1 1-1.92-.54c.49-1.75 1.7-2.73 3.46-2.73Zm19.46 2.73c-.49-1.75-1.7-2.73-3.46-2.73-1.75 0-2.97.98-3.46 2.73a1 1 0 0 0 1.92.54c.26-.91.7-1.27 1.54-1.27.83 0 1.28.36 1.54 1.27a1 1 0 1 0 1.92-.54Z" fill="#A9ABB6"/>
</svg>
