<svg width="100" height="72" viewBox="0 0 100 72" fill="none" xmlns="http://www.w3.org/2000/svg">
  <path d="M25 53a4 4 0 0 1 4-4h6a4 4 0 0 1 4 4v19H25V53ZM61 42a4 4 0 0 1 4-4h6a4 4 0 0 1 4 4v30H61V42ZM43 32a4 4 0 0 1 4-4h6a4 4 0 0 1 4 4v40H43V32Z" fill="#E0E1E9"/>
  <path d="M15.88 56.47a1 1 0 0 1-1.76-.94c1.76-3.3 3.01-5.56 3.77-6.8a38.3 38.3 0 0 1 2.96-4.31 14 14 0 0 1 1-1.1c3.01-2.98 6.35-4.49 9.95-4.49 4.16 0 6.12.22 9.2.86 2.98.61 4.71.81 8.53.81 3.2 0 4.63-1.2 6.9-4.91l.54-.87C59.89 30 62.54 28 68 28c7.56 0 12.88-4.06 16.07-12.36a1 1 0 1 1 1.86.72C82.46 25.39 76.43 30 68 30c-4.64 0-6.74 1.58-9.33 5.78l-.53.86c-2.6 4.24-4.54 5.86-8.6 5.86-3.97 0-5.84-.21-8.86-.84a37.06 37.06 0 0 0-8.88-.83c-3.05 0-5.89 1.29-8.56 3.91-.26.26-.54.57-.85.95-.8.98-1.74 2.34-2.79 4.07-.73 1.21-1.98 3.45-3.72 6.71Z" fill="#A9ABB6"/>
  <path fill-rule="evenodd" clip-rule="evenodd" d="M45 41a5 5 0 1 0 10 0 5 5 0 0 0-10 0Zm8 0a3 3 0 1 1-6 0 3 3 0 0 1 6 0ZM27 40a5 5 0 1 0 10 0 5 5 0 0 0-10 0Zm8 0a3 3 0 1 1-6 0 3 3 0 0 1 6 0ZM63 29a5 5 0 1 0 10 0 5 5 0 0 0-10 0Zm8 0a3 3 0 1 1-6 0 3 3 0 0 1 6 0Z" fill="#A9ABB6"/>
  <path d="M68 32a3 3 0 1 0 0-6 3 3 0 0 0 0 6ZM50 44a3 3 0 1 0 0-6 3 3 0 0 0 0 6ZM32 43a3 3 0 1 0 0-6 3 3 0 0 0 0 6Z" fill="#fff"/>
</svg>
