<svg width="80" height="80" viewBox="0 0 80 80" fill="none" xmlns="http://www.w3.org/2000/svg">
  <path d="M40.25 4.3V1.9c0-.49-.49-.9-.98-.9C19.97 3.23 5 19.82 5 39.96 5 59.69 20.8 75.7 40.25 75.7v2.4c0 .49.49.9.98.9 19.3-2.23 34.27-18.82 34.27-38.96 0-19.8-15.8-35.74-35.25-35.74Z" fill="#E0E1E9"/>
  <path d="M65.92 57.6s.1-.05.12-.08l6.5-4.32-3.14-1.7-3.13.76-8.3-31.68a5.7 5.7 0 0 0-6.68-4.15L11.7 24.5l-1.4-3.12-3.4 5.88a6.5 6.5 0 0 0-.22.37v.02a5.64 5.64 0 0 0-.46 4.25l10.44 36.64a2.59 2.59 0 0 0 3.18 1.8L65.11 58c.27-.08.52-.2.75-.35l.05-.03.01-.01Z" fill="#E0E1E9" stroke="#6C6E79" stroke-width=".7" stroke-linecap="round" stroke-linejoin="round"/>
  <path d="m71.77 53.55-47.67 13a2.73 2.73 0 0 1-3.35-1.89l-11-38.59a6.03 6.03 0 0 1 4.6-7.55l42.87-8.75a6.02 6.02 0 0 1 7.03 4.38l9.44 36.07a2.73 2.73 0 0 1-1.92 3.33Z" fill="#fff"/>
  <path d="M65.45 18.82 11.06 30.76l-1.34-4.69a6.03 6.03 0 0 1 4.6-7.55L57.2 9.77a6.02 6.02 0 0 1 7.03 4.38l1.22 4.67Z" fill="#6C6E79"/>
  <path d="M18.4 23.42a1.87 1.87 0 0 1-1.42 2.37 2.19 2.19 0 0 1-2.53-1.53 1.87 1.87 0 0 1 1.43-2.37 2.2 2.2 0 0 1 2.51 1.54v-.01Z" fill="#fff"/>
  <path d="M25.38 21.94c.29 1.06-.33 2.1-1.4 2.33a2.15 2.15 0 0 1-2.47-1.52 1.85 1.85 0 0 1 1.4-2.35 2.14 2.14 0 0 1 2.47 1.53Z" fill="#E0E1E9"/>
  <path d="M11.09 30.84s.32-3.15.6-6.38l-1.37-3.09-3.42 5.88-.21.37v.02a5.64 5.64 0 0 0-.46 4.25l1.4 4.9 3.46-5.96v.01Z" fill="#6C6E79"/>
  <path d="m71.77 53.55-47.67 13a2.73 2.73 0 0 1-3.35-1.89l-11-38.59a6.03 6.03 0 0 1 4.6-7.55l42.87-8.75a6.02 6.02 0 0 1 7.03 4.38l9.44 36.07a2.73 2.73 0 0 1-1.92 3.33Z" stroke="#6C6E79" stroke-width=".7" stroke-linecap="round" stroke-linejoin="round"/>
  <path d="M21.77 54.8c1.72-7.16 5.02-10.26 7.79-11.74 5.68-3.05 9.84 2.62 15.53 1.2 6.32-1.57 8.28-10.97 11.1-14.39 2.52-3.06 4.84-3 8.69-2.67" stroke="#6C6E79" stroke-width=".7" stroke-linecap="round" stroke-linejoin="round"/>
  <path d="M34.52 48.52 27.4 50.3a.8.8 0 0 0-.58 1l2.7 9.63 8.6-2.29-2.64-9.57a.8.8 0 0 0-.96-.56h-.01Z" fill="#E0E1E9" stroke="#6C6E79" stroke-width=".7" stroke-linecap="round" stroke-linejoin="round"/>
  <path d="m44.4 28.28-6.89 1.6c-.43.09-.7.53-.58.96l7.18 26.21 8.28-2.2-7.05-26.02a.79.79 0 0 0-.94-.56v.01Z" fill="#6C6E79"/>
  <path d="m60.97 34.84-6.51 1.57a.8.8 0 0 0-.59.99l4.27 15.94 7.98-2.12-4.18-15.8a.8.8 0 0 0-.97-.57v-.01ZM23.94 62.42 69.59 50.3" stroke="#6C6E79" stroke-width=".7" stroke-linecap="round" stroke-linejoin="round"/>
  <path d="M58.8 29.26c.34 1.28-.55 2.6-1.99 2.94-1.43.33-2.9-.43-3.24-1.72-.35-1.29.55-2.62 2-2.95 1.45-.34 2.89.44 3.22 1.73ZM31.95 42.21c.36 1.33-.59 2.7-2.13 3.08-1.55.38-3.12-.39-3.48-1.73-.37-1.34.6-2.72 2.14-3.09 1.54-.36 3.1.41 3.47 1.73v.01ZM47.77 43.6c.36 1.3-.56 2.65-2.04 3.02-1.48.38-2.99-.37-3.34-1.68-.36-1.3.56-2.67 2.05-3.04 1.48-.37 2.97.4 3.32 1.7h0Z" fill="#fff" stroke="#6C6E79" stroke-width=".7" stroke-linecap="round" stroke-linejoin="round"/>
  <path d="m57.74 35.65-3.1 4.53M56.13 45.83l6.15-8.97M57.69 51.4l6.1-8.9M62.57 52.12l2.7-3.92" stroke="#6C6E79" stroke-width=".7" stroke-linecap="round" stroke-linejoin="round"/>
  <mask id="a" style="mask-type:alpha" maskUnits="userSpaceOnUse" x="36" y="28" width="17" height="30">
    <path d="m44.4 28.28-6.89 1.6c-.43.09-.7.53-.58.96l7.18 26.21 8.28-2.2-7.05-26.02a.79.79 0 0 0-.94-.56v.01Z" fill="#000"/>
  </mask>
  <g mask="url(#a)">
    <path d="M21.77 54.8c1.72-7.16 5.02-10.26 7.79-11.74 5.68-3.05 9.84 2.62 15.53 1.2 6.32-1.57 8.28-10.97 11.1-14.39 2.52-3.06 4.84-3 8.69-2.67" stroke="#fff" stroke-width=".7" stroke-linecap="round" stroke-linejoin="round"/>
  </g>
  <path d="m44.4 28.28-6.89 1.6c-.43.09-.7.53-.58.96l7.18 26.21 8.28-2.2-7.05-26.02a.79.79 0 0 0-.94-.56v.01Z" stroke="#6C6E79" stroke-width=".7" stroke-linecap="round" stroke-linejoin="round"/>
</svg>
