<svg width="100" height="72" viewBox="0 0 100 72" xmlns="http://www.w3.org/2000/svg">
  <g fill-rule="nonzero" fill="none">
    <path d="M29 49h6a4 4 0 0 1 4 4v19H25V53a4 4 0 0 1 4-4zM65 38h6a4 4 0 0 1 4 4v30H61V42a4 4 0 0 1 4-4zM47 28h6a4 4 0 0 1 4 4v40H43V32a4 4 0 0 1 4-4z" fill="#EEF0F1"/>
    <path d="M15.882 56.471a1 1 0 1 1-1.764-.942c1.759-3.29 3.014-5.555 3.775-6.806 1.096-1.805 2.079-3.24 2.953-4.306.347-.423.679-.79.997-1.103 3.021-2.971 6.353-4.48 9.957-4.48 4.162 0 6.118.22 9.193.853 2.986.615 4.718.813 8.54.813 3.19 0 4.624-1.204 6.902-4.911l.531-.865C59.892 29.995 62.538 28 68 28c7.564 0 12.875-4.061 16.067-12.359a1 1 0 1 1 1.866.718C82.458 25.394 76.436 30 68 30c-4.643 0-6.735 1.577-9.333 5.776l-.528.86c-2.606 4.24-4.54 5.864-8.606 5.864-3.966 0-5.831-.214-8.852-.835-3.04-.626-4.863-.832-8.881-.832-3.05 0-5.89 1.287-8.555 3.907-.264.26-.548.574-.852.945-.808.985-1.74 2.345-2.791 4.076-.736 1.211-1.978 3.452-3.72 6.71z" fill="#CBD1D3"/>
    <path d="M50 44a3 3 0 1 0 0-6 3 3 0 0 0 0 6zm0 2a5 5 0 1 1 0-10 5 5 0 0 1 0 10zM32 43a3 3 0 1 0 0-6 3 3 0 0 0 0 6zm0 2a5 5 0 1 1 0-10 5 5 0 0 1 0 10zM68 32a3 3 0 1 0 0-6 3 3 0 0 0 0 6zm0 2a5 5 0 1 1 0-10 5 5 0 0 1 0 10z" fill="#CBD1D3"/>
    <path d="M68 32a3 3 0 1 0 0-6 3 3 0 0 0 0 6zM50 44a3 3 0 1 0 0-6 3 3 0 0 0 0 6zM32 43a3 3 0 1 0 0-6 3 3 0 0 0 0 6z" fill="#FFF"/>
  </g>
</svg>
