<svg width="100" height="72" viewBox="0 0 100 72" fill="none" xmlns="http://www.w3.org/2000/svg">
  <path d="M48.44 55.32l-7.89 3.42-4.32-3.35.87-.83 6.9-3 4.44 3.76zm-22.2 3.92l-5.84 2.57-.38.62-3.3 6.63 14-6.09-4.48-3.73zm4.63-22.91l18.6 18.55 7.89-3.42-23.07-23-3.42 7.87zm31.88 7.13l-7.89 3.41-.86.83 4.33 3.35 8.89-3.89-4.47-3.7zM23.18 54.08l8.48 8.51 7.89-3.42-12.95-13-3.42 7.91z" fill="#EAEDEE"/>
  <path d="M20.42 33.23a4 4 0 000-5.66 4 4 0 100 5.66zm-4.83-2.83a1.94 1.94 0 113.88.12 1.94 1.94 0 01-3.88-.12zm15-13.4a2 2 0 11-2.83 2.83A2 2 0 0130.59 17zm30.12 41a2 2 0 11-2.83 2.83A2 2 0 0160.71 58zm15.86-30.43a2 2 0 11-2.83 0 2 2 0 012.83 0zM65.26 12a2 2 0 112.83 2.83A2 2 0 0165.26 12zM21.54 6.06a1 1 0 011-1h2.54V2.53a1 1 0 112 0v2.53h2.53a1 1 0 110 2h-2.53V9.6a1 1 0 01-2 0V7.06h-2.54a1 1 0 01-1-1zm54.33 57.57a1 1 0 01-1 1h-2.54v2.54a1 1 0 01-2 0v-2.54H67.8a1 1 0 010-2h2.53V60.1a1 1 0 012 0v2.53h2.54a1 1 0 011 1zM77.46 37a20.1 20.1 0 00-5.58-.53c-3.58.1-7.05 1.23-10 3.25l-3.63-3.63a27.3 27.3 0 0111.21-11.76 30.32 30.32 0 017.76-3.17 1 1 0 10-.49-1.94c-2.9.73-5.69 1.87-8.27 3.38-5 2.78-9.07 6.95-11.75 12l-6-6a11.35 11.35 0 007.65-7.19 1 1 0 00-1.82-.82 9.42 9.42 0 01-1.77 3.16A9.18 9.18 0 0149 26.89l-3.15-3.15a18.62 18.62 0 003.25-10c.08-1.88-.1-3.75-.53-5.58a1.03 1.03 0 00-2 .47c.39 1.64.55 3.32.48 5-.08 3.09-1 6.1-2.68 8.69L39.1 17a1 1 0 00-1.63.32L14.85 69.6a1 1 0 00.21 1.1 1 1 0 00.7.3.9.9 0 00.4-.09l52.33-22.62A1 1 0 0069 47a1 1 0 00-.22-.32l-5.53-5.53a17 17 0 018.75-2.7c1.68-.07 3.36.09 5 .48a1.03 1.03 0 10.47-2l-.01.07zM38.72 19.42L56.28 37l6.48 6.49L66.34 47l-7.9 3.42-3.57-3.58-19.56-19.52 3.41-7.9zM26.77 47.06l8.36 8.36L38.7 59l-6.91 3-3.57-3.58L23.78 54l2.99-6.94zm22.79 7.23L46 50.72 31.47 36.2l3-6.91 18.42 18.44 3.58 3.57-6.91 2.99zm-19-16.11L44 51.57l3.57 3.58-6.91 3-3.56-3.59-9.48-9.47 2.94-6.91zM22.93 56l3.31 3.31 3.57 3.55-12.13 5.22 2.72-6.27L22.93 56zm34.31-41a11.4 11.4 0 016.1-10.72 1 1 0 11.92 1.78 9.36 9.36 0 00-5 8.81 1 1 0 01-.85 1.13h-.15a1 1 0 01-1-1h-.02zM80.11 4.65a4 4 0 00-5.65 0 4 4 0 105.66 0h-.01zM78.7 8.89a2 2 0 01-2.83 0 2 2 0 010-2.83 2 2 0 112.83 2.83z" fill="#CBD1D3"/>
</svg>
