<svg width="100" height="72" viewBox="0 0 100 72" fill="none" xmlns="http://www.w3.org/2000/svg">
  <path d="M73.68 3.31H17.32a3.14 3.14 0 0 0-3.07 3.21v7.39h62.5V6.52a3.14 3.14 0 0 0-3.07-3.21Z" fill="#E0E1E9"/>
  <path d="M49 57.29a1 1 0 0 1-1 1H18a5 5 0 0 1-5-5V7a5 5 0 0 1 5-5h55a5 5 0 0 1 5 5v27a1 1 0 0 1-2 0V7a3 3 0 0 0-3-3H18a3 3 0 0 0-3 3v46.29a3 3 0 0 0 3 3h30a1 1 0 0 1 1 1Zm18.47-3.95a1 1 0 0 0-1 1v6a1 1 0 0 0 2 0v-6a1 1 0 0 0-1-1Zm3.07 0a1 1 0 0 0-1 1v6a1 1 0 0 0 2 0v-6a1 1 0 0 0-1-1Zm3.08 0a1 1 0 0 0-1 1v6a1 1 0 0 0 2 0v-6a1 1 0 0 0-1-1Zm6.6-3.29a1 1 0 0 1-1 1h-.69V61.9a3.16 3.16 0 0 1-3.16 3.15H65.7a3.15 3.15 0 0 1-3.15-3.15V51.09h-.69a1 1 0 0 1 0-2h3.48l.84-2.58a1.93 1.93 0 0 1 2-1.54h4.73a1.93 1.93 0 0 1 2 1.54l.84 2.58h3.48a1 1 0 0 1 .99.96Zm-12.77-1h6.19L73 47h-4.86l-.69 2.05Zm9.1 2.07v-.07h-12v10.84a1.15 1.15 0 0 0 1.15 1.16h9.69a1.17 1.17 0 0 0 1.16-1.16V51.12ZM87.53 55a16.95 16.95 0 0 1-22.71 16 17 17 0 1 1 22.71-16Zm-1.98-.01a15 15 0 1 0-30 0 15 15 0 0 0 30 0ZM72.14 7.91h-4.67a1 1 0 1 0 0 2h4.67a1 1 0 1 0 0-2Zm-26.26 0a1 1 0 1 0 0 2h16a1 1 0 1 0 0-2h-16Zm10 26.32H50.8v-1.44c.26-.58.56-1.14.88-1.68.38-.64.8-1.29 1.25-2 .45-.71.94-1.32 1.46-2 .48-.6 1-1.2 1.53-1.75h1.92v7.15h1.3v1.65h-1.3V37h-2l.04-2.77Zm0-1.65v-4.66l-.83 1c-.29.34-.55.75-.82 1.15-.27.4-.52.82-.77 1.24-.25.42-.47.82-.67 1.24l3.09.03ZM36.89 37v-2.77h-5.07v-1.44c.26-.58.56-1.14.88-1.68.38-.64.8-1.29 1.25-2 .45-.71.94-1.32 1.46-2 .48-.6 1-1.2 1.53-1.75h1.92v7.15h1.3v1.65h-1.3V37h-1.97Zm0-4.42v-4.66l-.83 1c-.29.34-.55.75-.82 1.15-.27.4-.52.82-.77 1.24-.25.42-.47.82-.67 1.24l3.09.03Zm11.56-5.85a7.91 7.91 0 0 1 1.07 4.48 8 8 0 0 1-1.07 4.49 3.59 3.59 0 0 1-5.91 0 8 8 0 0 1-1.07-4.49c-.01-.87.08-1.73.27-2.58.16-.67.43-1.32.8-1.9a3.8 3.8 0 0 1 1.27-1.17 3.6 3.6 0 0 1 1.69-.4 3.37 3.37 0 0 1 2.95 1.57Zm-1 4.48c0-.56-.03-1.13-.1-1.69a4.94 4.94 0 0 0-.35-1.35 2.39 2.39 0 0 0-.58-.92 1.36 1.36 0 0 0-.92-.34c-.34 0-.68.12-.94.34-.27.26-.47.57-.6.92-.16.44-.26.89-.32 1.35 0 .52-.08 1.09-.08 1.69 0 .6 0 1.16.08 1.68.07.47.2.93.36 1.37.13.34.34.65.6.9.26.23.6.35.94.34.34.01.67-.11.92-.34.26-.25.46-.56.58-.9.17-.44.28-.9.33-1.37.06-.56.08-1.12.06-1.68h.02Z" fill="#A9ABB6"/>
</svg>
