<svg width="100" height="72" viewBox="0 0 100 72" xmlns="http://www.w3.org/2000/svg">
  <g fill-rule="nonzero" fill="none">
    <path d="M81.613 37.306a2.377 2.377 0 0 1 2.369 2.582 33.814 33.814 0 0 1-7.834 18.936 2.361 2.361 0 0 1-1.692.844c-.082.004-.082.004-.123.004-.637 0-1.243-.25-1.687-.697L60.867 47.196a2.377 2.377 0 0 1-.276-3.03 12.631 12.631 0 0 0 2.029-4.91 2.377 2.377 0 0 1 2.338-1.95h16.655zm0 2H64.958a.378.378 0 0 0-.371.31 14.634 14.634 0 0 1-2.35 5.685.377.377 0 0 0 .045.481l11.78 11.78c.07.07.165.11.266.11a.386.386 0 0 0 .289-.134 31.815 31.815 0 0 0 7.372-17.822.378.378 0 0 0-.376-.41z" fill="#CBD1D3"/>
    <path d="M81.613 39.306H64.958a.378.378 0 0 0-.371.31 14.634 14.634 0 0 1-2.35 5.685.377.377 0 0 0 .045.481l11.78 11.78c.07.07.165.11.266.11a.386.386 0 0 0 .289-.134 31.815 31.815 0 0 0 7.372-17.822.378.378 0 0 0-.376-.41z" fill="#FFF"/>
    <path d="M60.332 48.73l11.78 11.779a2.38 2.38 0 0 1-.15 3.502 34.093 34.093 0 0 1-21.896 7.982c-18.784 0-34.065-15.28-34.065-34.064 0-17.518 13.659-32.412 31.065-33.912a2.313 2.313 0 0 1 1.85.611c.493.45.772 1.087.772 1.754v16.654c0 1.148-.82 2.132-1.948 2.339A12.76 12.76 0 0 0 37.29 37.929c0 7.043 5.733 12.777 12.777 12.777a12.7 12.7 0 0 0 7.234-2.25 2.376 2.376 0 0 1 3.032.273zm-1.894 1.37a14.703 14.703 0 0 1-8.372 2.606c-8.148 0-14.777-6.629-14.777-14.777a14.761 14.761 0 0 1 12.09-14.522.377.377 0 0 0 .31-.37V6.381a.38.38 0 0 0-.126-.282.343.343 0 0 0-.285-.094C30.866 7.42 18.001 21.448 18.001 37.929c0 17.679 14.386 32.064 32.065 32.064a32.091 32.091 0 0 0 20.607-7.512.382.382 0 0 0 .136-.274.381.381 0 0 0-.11-.284L58.92 50.145a.377.377 0 0 0-.482-.044z" fill="#CBD1D3"/>
    <path d="M58.438 50.1a14.703 14.703 0 0 1-8.372 2.606c-8.148 0-14.777-6.629-14.777-14.777a14.761 14.761 0 0 1 12.09-14.522.377.377 0 0 0 .31-.37V6.381a.38.38 0 0 0-.126-.282.343.343 0 0 0-.285-.094C30.866 7.42 18.001 21.448 18.001 37.929c0 17.679 14.386 32.064 32.065 32.064a32.091 32.091 0 0 0 20.607-7.512.382.382 0 0 0 .136-.274.381.381 0 0 0-.11-.284L58.92 50.145a.377.377 0 0 0-.482-.044z" fill="#EEF0F1"/>
    <path d="M70.013 9.919a1 1 0 0 1-1.163 1.627 30.268 30.268 0 0 0-5.744-3.223 1 1 0 1 1 .784-1.84 32.268 32.268 0 0 1 6.123 3.436zm-10.9-5.042a1 1 0 0 1-.488 1.94c-1.581-.398-3.2-.67-4.852-.812a.309.309 0 0 0-.33.31v15.837c0 .15.108.277.255.304 5.707 1.05 10.242 5.585 11.292 11.293a.31.31 0 0 0 .305.254h15.839a.31.31 0 0 0 .308-.337 30.32 30.32 0 0 0-9.85-19.91 1 1 0 0 1 1.344-1.481 32.32 32.32 0 0 1 10.499 21.218 2.309 2.309 0 0 1-2.301 2.51H65.295a2.31 2.31 0 0 1-2.272-1.893c-.9-4.89-4.796-8.787-9.686-9.687a2.31 2.31 0 0 1-1.893-2.272V6.314a2.308 2.308 0 0 1 2.508-2.301c1.752.15 3.476.44 5.16.864z" fill="#CBD1D3"/>
    <g fill="#CBD1D3">
      <path d="M52.505 15.884l12.99-7.5a1 1 0 0 1 1 1.732l-12.99 7.5a1 1 0 1 1-1-1.732zM55.718 22.655l16.585-9.053a1 1 0 0 1 1.345.377l.012.021a.976.976 0 0 1-.378 1.345l-16.585 9.053a1 1 0 0 1-1.345-.377L55.34 24a.976.976 0 0 1 .378-1.345zM62.572 27.134l13.856-8a1 1 0 0 1 1 1.732l-13.856 8a1 1 0 0 1-1-1.732zM66.505 33.884l12.99-7.5a1 1 0 0 1 1 1.732l-12.99 7.5a1 1 0 0 1-1-1.732z"/>
    </g>
  </g>
</svg>
