<svg width="100" height="72" viewBox="0 0 100 72" fill="none" xmlns="http://www.w3.org/2000/svg">
  <path fill-rule="evenodd" clip-rule="evenodd" d="M83.37 38.08a2.38 2.38 0 0 0-1.76-.77H64.96c-1.15 0-2.13.82-2.34 1.95a12.63 12.63 0 0 1-2.03 4.9c-.65.95-.53 2.23.28 3.04l11.78 11.78c.44.44 1.05.7 1.68.7l.13-.01a2.36 2.36 0 0 0 1.69-.85 33.81 33.81 0 0 0 7.83-18.93 2.38 2.38 0 0 0-.61-1.81ZM64.96 39.3H81.6a.38.38 0 0 1 .38.4 31.81 31.81 0 0 1-7.37 17.83.39.39 0 0 1-.3.13c-.1 0-.19-.04-.26-.1L62.28 45.77a.38.38 0 0 1-.04-.48 14.63 14.63 0 0 0 2.35-5.68.38.38 0 0 1 .37-.31Z" fill="#A9ABB6"/>
  <path fill-rule="evenodd" clip-rule="evenodd" d="M72.11 60.5 60.33 48.74a2.38 2.38 0 0 0-3.03-.27 12.8 12.8 0 0 1-20.01-10.53c0-6.16 4.4-11.44 10.45-12.56a2.38 2.38 0 0 0 1.95-2.33V6.38a2.38 2.38 0 0 0-2.62-2.36C29.66 5.52 16 20.42 16 37.92A34.1 34.1 0 0 0 50.07 72c7.99 0 15.76-2.83 21.9-7.98a2.38 2.38 0 0 0 .14-3.5Zm-22.04-7.8c3 0 5.9-.9 8.37-2.6.15-.1.35-.09.48.05L70.7 61.92a.38.38 0 0 1-.03.56A32.1 32.1 0 0 1 50.07 70 32.1 32.1 0 0 1 18 37.93 32.25 32.25 0 0 1 47.28 6c.1-.02.2.02.28.09.08.07.13.18.13.28v16.66c0 .18-.13.33-.31.37a14.76 14.76 0 0 0 2.69 29.3Z" fill="#A9ABB6"/>
  <path d="M58.44 50.1a14.8 14.8 0 0 1-23.15-12.17c0-7.13 5.08-13.23 12.09-14.52.18-.04.3-.2.3-.37V6.38c0-.1-.04-.2-.12-.28a.34.34 0 0 0-.28-.1A32.25 32.25 0 0 0 18 37.94a32.1 32.1 0 0 0 32.07 32.06 32.1 32.1 0 0 0 20.6-7.5.38.38 0 0 0 .03-.57L58.92 50.15a.38.38 0 0 0-.48-.05Z" fill="#E0E1E9"/>
  <path fill-rule="evenodd" clip-rule="evenodd" d="M59.84 6.09a1 1 0 0 0-.73-1.21A32.7 32.7 0 0 0 53.95 4a2.31 2.31 0 0 0-2.5 2.3v15.84c0 1.12.79 2.07 1.89 2.27 4.89.9 8.78 4.8 9.68 9.69.2 1.1 1.16 1.9 2.28 1.9h15.83a2.3 2.3 0 0 0 2.3-2.52 32.32 32.32 0 0 0-10.5-21.22 1 1 0 1 0-1.34 1.49 30.32 30.32 0 0 1 9.85 19.9.31.31 0 0 1-.3.34H65.3a.31.31 0 0 1-.31-.25 14.14 14.14 0 0 0-11.3-11.3.31.31 0 0 1-.25-.3V6.31a.3.3 0 0 1 .33-.3c1.66.14 3.27.4 4.86.8a1 1 0 0 0 1.2-.72Zm10.4 5.22a1 1 0 0 0-.23-1.4 32.27 32.27 0 0 0-6.12-3.43 1 1 0 0 0-.78 1.84c2.03.87 3.95 1.95 5.74 3.23a1 1 0 0 0 1.4-.24Z" fill="#A9ABB6"/>
  <path d="M52.14 17.25a1 1 0 0 1 .36-1.37l13-7.5a1 1 0 1 1 1 1.74l-13 7.5a1 1 0 0 1-1.36-.37ZM55.35 24.02a1 1 0 0 1 .39-1.38L72.3 13.6a1 1 0 0 1 .96 1.76L56.7 24.4a1 1 0 0 1-1.35-.38ZM62.2 28.5a1 1 0 0 1 .37-1.37l13.86-8a1 1 0 1 1 1 1.74l-13.86 8a1 1 0 0 1-1.36-.37ZM66.14 35.25a1 1 0 0 1 .36-1.37l13-7.5a1 1 0 1 1 1 1.74l-13 7.5a1 1 0 0 1-1.36-.37Z" fill="#A9ABB6"/>
</svg>
