<svg width="100" height="72" viewBox="0 0 100 72" xmlns="http://www.w3.org/2000/svg" xmlns:xlink="http://www.w3.org/1999/xlink">
  <defs>
    <path d="M7.5 0C11.642 0 15 3.3 15 7.37c0 .316-.026.616-.065.919-.641 5.752-6.951 12.391-6.951 12.391-.112.121-.319.32-.484.32-.165 0-.372-.199-.484-.32 0 0-6.31-6.639-6.951-12.391A7.112 7.112 0 0 1 0 7.37C0 3.3 3.358 0 7.5 0zm8.75 15h4.5c.647 0 1.18.492 1.244 1.122l.006.128v.5a1.25 1.25 0 0 1-1.122 1.244L20.75 18h-4.5a1.25 1.25 0 0 1-1.244-1.122L15 16.75v-.5c0-.647.492-1.18 1.122-1.244L16.25 15h4.5zm4.5-6c.647 0 1.18.492 1.244 1.122l.006.128v.5a1.25 1.25 0 0 1-1.122 1.244L20.75 12h-2.5a1.25 1.25 0 0 1-1.244-1.122L17 10.75v-.5c0-.647.492-1.18 1.122-1.244L18.25 9h2.5zM7.5 4a3.5 3.5 0 1 0 0 7 3.5 3.5 0 0 0 0-7zm13.25-1c.69 0 1.25.56 1.25 1.25v.5C22 5.44 21.44 6 20.75 6h-2.5C17.56 6 17 5.44 17 4.75v-.5c0-.69.56-1.25 1.25-1.25z" id="a"/>
  </defs>
  <g fill="none" fill-rule="evenodd">
    <g fill-rule="nonzero" stroke="#CBD1D3" stroke-width="2">
      <path d="M66 54.514A6.486 6.486 0 0 1 59.514 61H32.486A6.486 6.486 0 0 1 26 54.514V27.486A6.486 6.486 0 0 1 32.486 21h.012"/>
      <path d="M50 12h4m6.524 0h7.99A6.486 6.486 0 0 1 75 18.486v27.028A6.486 6.486 0 0 1 68.514 52H41.486A6.486 6.486 0 0 1 35 45.514V18.486A6.486 6.486 0 0 1 41.486 12h2.163" stroke-linecap="round" stroke-linejoin="round"/>
    </g>
    <g transform="translate(44 22)">
      <mask id="b" fill="#fff">
        <use xlink:href="#a"/>
      </mask>
      <use fill="#CBD1D3" xlink:href="#a"/>
      <g mask="url(#b)" fill="#CBD1D3">
        <path d="M0-1h22v22H0z"/>
      </g>
    </g>
  </g>
</svg>
