<svg width="100" height="72" viewBox="0 0 100 72" fill="none" xmlns="http://www.w3.org/2000/svg">
  <path fill-rule="evenodd" clip-rule="evenodd" d="M41.49 11A7.49 7.49 0 0 0 34 18.49V45.5A7.49 7.49 0 0 0 41.49 53H68.5A7.49 7.49 0 0 0 76 45.51V18.5A7.49 7.49 0 0 0 68.51 11H41.5ZM36 18.49A5.49 5.49 0 0 1 41.49 13H68.5A5.49 5.49 0 0 1 74 18.49V45.5A5.49 5.49 0 0 1 68.51 51H41.5A5.49 5.49 0 0 1 36 45.51V18.5Z" fill="#A9ABB6"/>
  <path d="M27 27.49A5.49 5.49 0 0 1 32.49 22v-2A7.49 7.49 0 0 0 25 27.49V54.5A7.49 7.49 0 0 0 32.49 62H59.5A7.49 7.49 0 0 0 67 54.51h-2A5.49 5.49 0 0 1 59.51 60H32.5A5.49 5.49 0 0 1 27 54.51V27.5Z" fill="#A9ABB6"/>
  <path fill-rule="evenodd" clip-rule="evenodd" d="M44 29.37A7.44 7.44 0 0 1 51.5 22a7.44 7.44 0 0 1 7.44 8.29c-.65 5.75-6.96 12.39-6.96 12.39-.1.12-.31.32-.48.32-.16 0-.37-.2-.48-.32 0 0-6.31-6.64-6.96-12.4-.03-.3-.06-.6-.06-.91Zm4 .13a3.5 3.5 0 1 0 7 0 3.5 3.5 0 0 0-7 0Z" fill="#A9ABB6"/>
  <path d="M62.25 25h2.5c.69 0 1.25.56 1.25 1.25v.5c0 .69-.56 1.25-1.25 1.25h-2.5c-.69 0-1.25-.56-1.25-1.25v-.5c0-.69.56-1.25 1.25-1.25ZM64.75 31h-2.5c-.69 0-1.25.56-1.25 1.25v.5c0 .69.56 1.25 1.25 1.25h2.5c.69 0 1.25-.56 1.25-1.25v-.5c0-.69-.56-1.25-1.25-1.25ZM64.75 37h-4.5c-.69 0-1.25.56-1.25 1.25v.5c0 .69.56 1.25 1.25 1.25h4.5c.69 0 1.25-.56 1.25-1.25v-.5c0-.69-.56-1.25-1.25-1.25Z" fill="#A9ABB6"/>
</svg>
