<svg xmlns="http://www.w3.org/2000/svg" width="80" height="80" fill="none" viewBox="0 0 80 80">
  <path fill="#E0E1E9" d="M0 40.92A39.86 39.86 0 0 0 39.08 80a.91.91 0 0 0 .92-.91v-2.5A36.58 36.58 0 1 0 40 3.4V.91a.91.91 0 0 0-.92-.9 39.87 39.87 0 0 0-26.72 11.05.9.9 0 0 0 0 1.3l1.78 1.78A36.47 36.47 0 0 0 3.42 40H.92a.91.91 0 0 0-.92.92Z"/>
  <path fill="#E0E1E9" stroke="#6C6E79" stroke-linecap="round" stroke-linejoin="round" stroke-width=".7" d="m66.16 57.37.12-.08 6.52-4.33-3.15-1.7-3.14.76-8.34-31.68a5.73 5.73 0 0 0-6.7-4.15l-39.74 8.06-1.4-3.12-3.43 5.88a6.5 6.5 0 0 0-.22.37v.02a5.62 5.62 0 0 0-.46 4.25L16.7 68.3a2.6 2.6 0 0 0 3.19 1.8l45.46-12.35c.27-.07.52-.2.74-.34l.06-.04h0Z"/>
  <path fill="#fff" stroke="#6C6E79" stroke-linecap="round" stroke-linejoin="round" stroke-width=".7" d="m72.02 53.31-47.87 13a2.75 2.75 0 0 1-3.36-1.89L9.75 25.82a6.03 6.03 0 0 1 4.61-7.55l43.05-8.75a6.04 6.04 0 0 1 7.06 4.38l9.48 36.08a2.73 2.73 0 0 1-1.93 3.33Z"/>
  <path fill="#6C6E79" d="m65.68 18.57-54.6 11.94-1.35-4.69a6.03 6.03 0 0 1 4.61-7.55L57.4 9.53a6.04 6.04 0 0 1 7.05 4.38l1.23 4.67.01-.01Z"/>
  <path fill="#fff" d="M18.43 23.17a1.87 1.87 0 0 1-1.42 2.37 2.2 2.2 0 0 1-2.54-1.52 1.87 1.87 0 0 1 1.44-2.37 2.2 2.2 0 0 1 2.52 1.53Z"/>
  <path fill="#E0E1E9" d="M25.44 21.7c.3 1.05-.32 2.1-1.4 2.33a2.15 2.15 0 0 1-2.48-1.53 1.85 1.85 0 0 1 1.4-2.34 2.15 2.15 0 0 1 2.48 1.52v.01Z"/>
  <path fill="#6C6E79" d="M11.1 30.6s.32-3.16.6-6.39l-1.37-3.08-3.43 5.88a6.5 6.5 0 0 0-.22.37v.02a5.62 5.62 0 0 0-.45 4.25l1.4 4.9 3.47-5.96Z"/>
  <path fill="#fff" d="M33.66 33.85a14.13 14.13 0 0 0-1.67 12.35 13.24 13.24 0 0 0 2.1 4.03 14.16 14.16 0 0 0 3.48 3.29 14.17 14.17 0 1 0 15.76-23.56A14.15 14.15 0 0 0 40.1 28.6a14.15 14.15 0 0 0-6.42 5.24h-.01Z"/>
  <path fill="#E0E1E9" stroke="#6C6E79" stroke-linecap="round" stroke-linejoin="round" stroke-width=".7" d="M62.73 51.04 25.09 61.22l-6.04-21.37c-.25-.88.41-1.8 1.46-2.04l36.26-8.54 5.95 21.77h.01Z"/>
  <path fill="#6C6E79" d="m57.63 32.37-38.1 9.15-.48-1.68c-.25-.88.41-1.8 1.46-2.04l36.26-8.54.85 3.1Z"/>
  <path fill="#6C6E79" stroke="#6C6E79" stroke-linecap="round" stroke-linejoin="round" stroke-width=".7" d="m65.05 42.44-4.5-16.56c-.23-.83-1.17-1.33-2.1-1.12l-29.78 6.72-3.52-1.07-1.67 2.57c-.32.43-.55.92-.4 1.44l5.94 21.2 37-9.64 1.8-2.71-2.76-.84-.01.01Z"/>
  <path fill="#fff" stroke="#6C6E79" stroke-linecap="round" stroke-linejoin="round" stroke-width=".7" d="m67.8 43.28-36.99 9.65-5.95-21.21c-.24-.88.4-1.78 1.44-2.01l33.95-7.66c.93-.21 1.88.28 2.1 1.12l5.46 20.1h0Z"/>
  <path fill="#6C6E79" d="M37.12 31.04c-3.8.88-6.18 4.26-5.27 7.52 1.34 4.8 9.54 7.82 9.54 7.82s5.42-6.4 4.13-11.12c-.9-3.2-4.62-5.1-8.4-4.23Zm2.34 8.4c-1.64.39-3.28-.42-3.68-1.83-.4-1.4.63-2.86 2.26-3.25 1.64-.38 3.26.44 3.65 1.84.38 1.4-.62 2.84-2.24 3.23h.01Z"/>
  <path stroke="#6C6E79" stroke-linecap="round" stroke-linejoin="round" stroke-width=".7" d="m48.46 32.62 11.13-2.65m-10.13 6.28 11.1-2.7m-10.1 6.34 11.08-2.77"/>
</svg>
