<svg width="100" height="72" viewBox="0 0 100 72" fill="none" xmlns="http://www.w3.org/2000/svg">
  <path fill-rule="evenodd" clip-rule="evenodd" d="M85 34.98H50c-2.69 0-5.44-2.5-8.92-5.7-5.46-5-12.94-11.86-25.03-12.28A2 2 0 0 0 14 19.01v50.95a1.99 1.99 0 0 0 1.99 2.01h.07c9.58-.35 16-4.74 21.08-9.3a93.51 93.51 0 0 0 3.76-3.56 110.17 110.17 0 0 1 2.98-2.84c2.19-1.96 4.14-3.29 6.12-3.29h35a1 1 0 0 0 1-1v-16a1 1 0 0 0-1-1Zm-45.27-4.23c3.8 3.49 6.8 6.23 10.27 6.23h34v7.56H50c-2.04-.02-4.07.19-6.06.61h-.02a.63.63 0 0 0-.05.02l-.05.01h-.01a32.8 32.8 0 0 0-8.24 3.27c-4.32 2.45-9.1 4-14.04 4.53h-.03c-1.83.2-3.66.31-5.5.32V19.01h-.01c11.35.38 18.22 6.68 23.74 11.74ZM16 62.03v7.93c3.58-.1 7.1-.92 10.37-2.38L16 62.03Zm12.55 4.45L16 59.76V55.3a56.4 56.4 0 0 0 5.34-.29l13.34 7.15a36.49 36.49 0 0 1-6.13 4.32Zm10.87-8.73.08-.07.48-.46c.5-.5 1-.97 1.48-1.43l-7.79-4.17h-.01a35.14 35.14 0 0 1-8.99 2.91l11.61 6.22c1.1-1.01 2.15-2.03 3.14-3ZM50 50.98c-2.44 0-4.67 1.4-6.98 3.4l-7.13-3.83.59-.3a31.79 31.79 0 0 1 7.5-3.06l7.09 3.8H50Zm-2.76-4.3 8.06 4.3h10.98l-8.16-4.37-.14-.07H50c-.92 0-1.84.04-2.76.13ZM84 50.97s-.12.19-.89-.27l-6.79-4.17H84v4.44Zm-13.49 0h9.88l-8.3-4.44h-9.88l.1.05 8.2 4.4Z" fill="#A9ABB6"/>
  <path fill-rule="evenodd" clip-rule="evenodd" d="M84 44.54H50c-2.04-.02-4.07.19-6.06.61h-.02l-.1.03h-.01a32.8 32.8 0 0 0-8.24 3.27c-4.32 2.45-9.1 4-14.04 4.53h-.03c-1.83.2-3.66.31-5.5.32V19.01h-.01c11.35.38 18.22 6.68 23.74 11.74 3.8 3.48 6.8 6.23 10.27 6.23h34v7.56Z" fill="#E0E1E9"/>
</svg>
