<svg width="80" height="80" viewBox="0 0 80 80" fill="none" xmlns="http://www.w3.org/2000/svg">
  <path d="M77.88 38.19C77.88 17.65 61.13 1 40.48 1S3 17.65 3 38.19a37.03 37.03 0 0 0 15.62 30.2l-3.47 9.4c-.26.6.26 1.21.87 1.21h48.84c.61 0 1.13-.6.87-1.2l-3.47-9.41a37.03 37.03 0 0 0 15.62-30.2Z" fill="#E0E1E9"/>
  <path d="M65.92 57.62s.1-.06.12-.09l6.5-4.32-3.14-1.7-3.13.76-8.3-31.68a5.7 5.7 0 0 0-6.68-4.15L11.7 24.51l-1.4-3.12-3.4 5.88a6.5 6.5 0 0 0-.22.37v.02a5.64 5.64 0 0 0-.46 4.25l10.44 36.64a2.59 2.59 0 0 0 3.18 1.8L65.11 58c.27-.08.52-.2.75-.35l.05-.03.02-.01Z" fill="#E0E1E9" stroke="#6C6E79" stroke-width=".7" stroke-linecap="round" stroke-linejoin="round"/>
  <path d="m71.76 53.55-47.67 13a2.73 2.73 0 0 1-3.35-1.89l-11-38.59a6.03 6.03 0 0 1 4.6-7.55L57.2 9.77a6.02 6.02 0 0 1 7.03 4.38l9.44 36.07a2.73 2.73 0 0 1-1.92 3.33Z" fill="#fff"/>
  <path d="M65.45 18.82 11.06 30.76l-1.34-4.69a6.03 6.03 0 0 1 4.6-7.55L57.2 9.77a6.02 6.02 0 0 1 7.03 4.38l1.22 4.67Z" fill="#6C6E79"/>
  <path d="M18.4 23.43a1.87 1.87 0 0 1-1.42 2.36 2.2 2.2 0 0 1-2.53-1.52 1.87 1.87 0 0 1 1.42-2.37 2.2 2.2 0 0 1 2.52 1.54v-.01Z" fill="#fff"/>
  <path d="M25.38 21.96c.29 1.06-.33 2.1-1.4 2.33a2.15 2.15 0 0 1-2.47-1.52 1.85 1.85 0 0 1 1.4-2.35 2.14 2.14 0 0 1 2.47 1.53Z" fill="#E0E1E9"/>
  <path d="M11.09 30.86s.32-3.15.6-6.39l-1.37-3.08-3.42 5.88a6.5 6.5 0 0 0-.21.37v.02a5.64 5.64 0 0 0-.46 4.25l1.4 4.9 3.46-5.96v.01Z" fill="#6C6E79"/>
  <path d="m71.76 53.55-47.67 13a2.73 2.73 0 0 1-3.35-1.89l-11-38.59a6.03 6.03 0 0 1 4.6-7.55L57.2 9.77a6.02 6.02 0 0 1 7.03 4.38l9.44 36.07a2.73 2.73 0 0 1-1.92 3.33Z" stroke="#6C6E79" stroke-width=".7" stroke-linecap="round" stroke-linejoin="round"/>
  <path d="M42.08 38.58c-4.2.95-8.76-5.58-18.64-3.3l6.02 21.47c9.72-2.55 10.33-10.29 14.48-11.39l16.33-4.1v-.04l-1.76-6.56v-.03l-16.43 3.96v0Z" stroke="#6C6E79" stroke-width=".7" stroke-linecap="round" stroke-linejoin="round"/>
  <mask id="a" style="mask-type:alpha" maskUnits="userSpaceOnUse" x="23" y="34" width="38" height="24">
    <path d="M42.08 38.58c-4.2.96-8.76-5.58-18.64-3.3l6.02 21.47c9.72-2.55 10.33-10.29 14.48-11.39l16.33-4.1v-.04l-1.76-6.56v-.03s-16.4 3.95-16.43 3.97v-.02Z" fill="#D9D9D9" stroke="#000" stroke-width=".7" stroke-linecap="round" stroke-linejoin="round"/>
  </mask>
  <g mask="url(#a)" stroke="#6C6E79" stroke-width=".7" stroke-miterlimit="10">
    <path d="M40.71 35.7 27.5 54.96M44.46 37.96 29.93 59.13M49.24 38.74 33.88 61.12M55.5 37.36 40.16 59.71M60.53 37.76 42.61 63.89"/>
  </g>
  <path d="m23.44 35.27 4.28 15.26c9.76-2.48 9.86-6.33 15.52-7.73l16.36-4.05v-.04l-1.09-4.06v-.03l-16.43 3.96c-4.2.96-8.76-5.58-18.64-3.3v-.01Z" fill="#E0E1E9" stroke="#6C6E79" stroke-width=".7" stroke-linecap="round" stroke-linejoin="round"/>
</svg>
