<svg xmlns="http://www.w3.org/2000/svg" width="100" height="72" viewBox="0 0 100 72">
  <g fill="none" fill-rule="evenodd">
    <path fill="#CBD1D3" fill-rule="nonzero" d="M71 17.98H36c-2.69 0-5.44-2.51-8.92-5.7C21.62 7.27 14.14.42 2.05 0A2 2 0 000 2.01v50.95a2.019 2.019 0 00.61 1.45c.37.36.865.56 1.38.56h.068c9.58-.35 16-4.74 21.08-9.31 1.34-1.18 2.58-2.39 3.76-3.55.99-.98 1.94-1.89 2.83-2.71.052-.04.103-.083.15-.13 2.19-1.96 4.14-3.29 6.12-3.29h35a1 1 0 001-1v-16a1 1 0 00-.998-1zm-45.27-4.23c3.8 3.48 6.8 6.23 10.27 6.23h34v7.56H36a28.169 28.169 0 00-6.06.61h-.02c-.04.01-.06.02-.1.03h-.01a32.81 32.81 0 00-8.24 3.27 36.35 36.35 0 01-14.04 4.53H7.5c-1.826.204-3.662.31-5.5.32V2.01L1.99 2c11.35.39 18.22 6.69 23.74 11.75zM2 52.96v-7.93l10.37 5.55A27.368 27.368 0 012 52.96zm12.55-3.48L2 42.76V38.3c1.96-.02 3.73-.12 5.34-.29l13.34 7.15a36.484 36.484 0 01-6.13 4.32zm10.95-8.8c-1.02.99-2.09 2.03-3.22 3.07l-11.61-6.22a35.138 35.138 0 008.99-2.91h.01l7.79 4.17c-.64.6-1.29 1.24-1.96 1.89zm10.5-6.7c-2.44 0-4.67 1.39-6.98 3.39l-7.13-3.82c.2-.11.39-.21.59-.31a31.788 31.788 0 017.5-3.05l7.09 3.79H36zm5.3 0l-8.06-4.31a26.491 26.491 0 012.76-.13h7.98l.14.07 8.16 4.37H41.3zm28.7 0c-.078.127-.374.037-.89-.27l-6.79-4.17H70v4.44zm-3.61 0h-9.88l-8.2-4.39-.1-.05h9.88l8.3 4.44z"/>
    <path fill="#EEF0F1" d="M70 27.54H36a28.169 28.169 0 00-6.06.61h-.02c-.04.01-.06.02-.1.03h-.01a32.81 32.81 0 00-8.24 3.27 36.35 36.35 0 01-14.04 4.53H7.5c-1.826.204-3.662.31-5.5.32V2.01L1.99 2c11.35.39 18.22 6.69 23.74 11.75 3.8 3.48 6.8 6.23 10.27 6.23h34v7.56z"/>
  </g>
</svg>
