<svg xmlns="http://www.w3.org/2000/svg" width="80" height="80" fill="none" viewBox="0 0 80 80">
  <path fill="#E0E1E9" d="M14.12 65.87a36.46 36.46 0 0 0 25.86 10.71v2.51c0 .5.42.92.92.91a40.02 40.02 0 0 0 39.09-39.09.9.9 0 0 0-.9-.91h-2.52A36.59 36.59 0 0 0 39.98 3.4V.9a.9.9 0 0 0-.91-.9 39.83 39.83 0 0 0-26.72 11.07.88.88 0 0 0 0 1.28l1.77 1.78A36.46 36.46 0 0 0 3.41 40H.9a.9.9 0 0 0-.91.92 39.87 39.87 0 0 0 11.07 26.71.88.88 0 0 0 1.28 0l1.78-1.76Z"/>
  <path fill="#E0E1E9" stroke="#6C6E79" stroke-linecap="round" stroke-linejoin="round" stroke-width=".7" d="m66.16 57.37.12-.08 6.52-4.33-3.15-1.7-3.14.76-8.34-31.68a5.73 5.73 0 0 0-6.7-4.15l-39.74 8.06-1.4-3.12-3.43 5.88a6.5 6.5 0 0 0-.22.37v.02a5.62 5.62 0 0 0-.46 4.25L16.7 68.3a2.6 2.6 0 0 0 3.19 1.8l45.46-12.35c.27-.07.52-.2.74-.34l.06-.04h0Z"/>
  <path fill="#fff" stroke="#6C6E79" stroke-linecap="round" stroke-linejoin="round" stroke-width=".7" d="m72.02 53.31-47.87 13a2.75 2.75 0 0 1-3.36-1.89L9.75 25.82a6.03 6.03 0 0 1 4.61-7.55l43.05-8.75a6.04 6.04 0 0 1 7.06 4.38l9.48 36.08a2.73 2.73 0 0 1-1.93 3.33v0Z"/>
  <path fill="#6C6E79" d="m65.68 18.57-54.6 11.94-1.35-4.69a6.03 6.03 0 0 1 4.61-7.55L57.4 9.53a6.04 6.04 0 0 1 7.05 4.38l1.23 4.67.01-.01Z"/>
  <path fill="#fff" d="M18.43 23.17a1.87 1.87 0 0 1-1.42 2.37 2.2 2.2 0 0 1-2.54-1.52 1.87 1.87 0 0 1 1.44-2.37 2.2 2.2 0 0 1 2.52 1.53Z"/>
  <path fill="#E0E1E9" d="M25.44 21.7c.3 1.05-.32 2.1-1.4 2.33a2.15 2.15 0 0 1-2.48-1.53 1.85 1.85 0 0 1 1.4-2.34 2.15 2.15 0 0 1 2.48 1.52v.01Z"/>
  <path fill="#6C6E79" d="M11.1 30.6s.32-3.16.6-6.39l-1.37-3.08-3.43 5.88a6.5 6.5 0 0 0-.22.37v.02a5.62 5.62 0 0 0-.45 4.25l1.4 4.9 3.47-5.96Z"/>
  <path fill="#fff" d="M33.66 33.85a14.13 14.13 0 0 0-1.67 12.35 13.24 13.24 0 0 0 2.1 4.03 14.16 14.16 0 0 0 3.48 3.29 14.17 14.17 0 1 0 15.76-23.56A14.15 14.15 0 0 0 40.1 28.6a14.15 14.15 0 0 0-6.42 5.24h-.01Z"/>
  <path fill="#E0E1E9" stroke="#6C6E79" stroke-linecap="round" stroke-linejoin="round" stroke-width=".7" d="m41.09 56.87-14.12 3.75-3.89-13.53a2.2 2.2 0 0 1 1.59-2.73l10.05-2.44a2.2 2.2 0 0 1 2.62 1.53l3.75 13.4v.02Z"/>
  <path fill="#fff" stroke="#6C6E79" stroke-linecap="round" stroke-linejoin="round" stroke-width=".7" d="m54.69 53.26-13.59 3.6-6.98-24.92a2.18 2.18 0 0 1 1.61-2.71l9.63-2.17a2.18 2.18 0 0 1 2.58 1.55l6.74 24.65h0Z"/>
  <path fill="#fff" stroke="#6C6E79" stroke-linecap="round" stroke-linejoin="round" stroke-width=".7" d="m67.77 49.77-13.08 3.49-4.53-16.57a2.18 2.18 0 0 1 1.6-2.7l9.04-2.14a2.19 2.19 0 0 1 2.62 1.56l4.36 16.37h0Z"/>
  <path stroke="#6C6E79" stroke-linecap="round" stroke-linejoin="round" stroke-width=".7" d="m24.11 61.39 46.2-12.29"/>
  <path fill="#6C6E79" d="m41.5 30.43 1.64 1.71a.42.42 0 0 0 .34.12l2.43-.24a.4.4 0 0 1 .37.63l-1.22 1.77a.39.39 0 0 0-.03.4l.93 1.9a.4.4 0 0 1-.45.58l-2.42-.49a.39.39 0 0 0-.34.09l-1.91 1.54a.4.4 0 0 1-.66-.29L40.01 36a.41.41 0 0 0-.22-.32l-2.05-1.04c-.32-.16-.3-.62.04-.74l2.25-.84a.41.41 0 0 0 .25-.29l.55-2.17a.41.41 0 0 1 .68-.18Z"/>
  <path fill="#6C6E79" stroke="#6C6E79" stroke-linecap="round" stroke-linejoin="round" stroke-width=".7" d="M76.24 48.78c-1.78-6.4-8.41-10.5-14.83-9.15-1.1.23-2.1.6-3.03 1.1l-.38-.36-2.33 2.36h0a11.21 11.21 0 0 0-2.69 10.97c1.8 6.43 8.47 10.51 14.89 9.14a11.1 11.1 0 0 0 5.42-2.87l2.46-2.47-.36-.34a11.37 11.37 0 0 0 .83-8.37h.02Z"/>
  <path fill="#fff" stroke="#6C6E79" stroke-linecap="round" stroke-linejoin="round" stroke-width=".7" d="M78.44 46.55c1.78 6.39-1.95 12.68-8.36 14.05-6.41 1.38-13.1-2.7-14.88-9.13a11.09 11.09 0 0 1 8.41-14.1c6.42-1.33 13.05 2.77 14.83 9.16v.01Z"/>
  <path fill="#fff" d="M63.51 53.28a5.96 5.96 0 0 0 5.48.86 4.66 4.66 0 0 0 2.85-3.15"/>
  <path stroke="#6C6E79" stroke-linecap="round" stroke-linejoin="round" stroke-width=".7" d="M63.51 53.28a5.96 5.96 0 0 0 5.48.86 4.66 4.66 0 0 0 2.85-3.15"/>
  <path fill="#6C6E79" d="M63.05 46.86c.18.68-.21 1.36-.9 1.5a1.37 1.37 0 0 1-1.58-.97c-.19-.7.2-1.36.9-1.5.68-.14 1.38.3 1.58.97Zm8.32-2.3c.19.68-.2 1.35-.9 1.5a1.37 1.37 0 0 1-1.58-.98c-.18-.68.21-1.35.9-1.5.69-.13 1.38.3 1.58.98Z"/>
</svg>
