<svg width="100" height="72" viewBox="0 0 100 72" fill="none" xmlns="http://www.w3.org/2000/svg">
  <path fill-rule="evenodd" clip-rule="evenodd" d="M65 53.5a1.5 1.5 0 1 0-3 0 1.5 1.5 0 0 0 3 0Zm9.5-1.5a1.5 1.5 0 1 1 0 3 1.5 1.5 0 0 1 0-3ZM69 63c-2.8 0-5-2.2-5-5h2c0 1.7 1.3 3 3 3s3-1.3 3-3h2c0 2.8-2.2 5-5 5Z" fill="#A9ABB6"/>
  <path d="M84 56a15 15 0 1 1-30 0 15 15 0 0 1 30 0Z" stroke="#A9ABB6" stroke-width="2"/>
  <path fill-rule="evenodd" clip-rule="evenodd" d="M40 18v41h9v2H16a1 1 0 1 1 0-2h4V38c0-2.2 1.8-4 4-4h14V18c0-2.2 1.8-4 4-4h16c2.2 0 4 1.8 4 4v8h14c2.2 0 4 1.8 4 4v9l-2-1v-8a2 2 0 0 0-2-2H62v8l-2 3V18a2 2 0 0 0-2-2H42a2 2 0 0 0-2 2ZM22 59h16V36H24a2 2 0 0 0-2 2v21Z" fill="#A9ABB6"/>
  <path d="M49.63 23.23a.41.41 0 0 1 .74 0l1.09 2.2.23.48.52.07 2.44.36a.41.41 0 0 1 .23.7l-1.77 1.72-.37.36.09.52.41 2.43a.41.41 0 0 1-.6.43l-2.17-1.14-.47-.25-.47.25-2.17 1.14a.4.4 0 0 1-.44-.03.41.41 0 0 1-.16-.4l.41-2.43.1-.52-.38-.36-1.77-1.72a.41.41 0 0 1 .23-.7l2.44-.36.52-.07.23-.47 1.1-2.21Z" stroke="#A9ABB6" stroke-width="2"/>
</svg>
