<svg width="100" height="72" viewBox="0 0 100 72" xmlns="http://www.w3.org/2000/svg">
  <g transform="translate(15 14)" fill="none" fill-rule="evenodd">
    <path d="M51 44c0 1.7 1.3 3 3 3s3-1.3 3-3h2c0 2.8-2.2 5-5 5s-5-2.2-5-5h2zm8.5-6a1.5 1.5 0 1 1-.001 3.001A1.5 1.5 0 0 1 59.5 38zm-11 0a1.5 1.5 0 1 1 0 3 1.5 1.5 0 0 1 0-3z" fill="#CBD1D3"/>
    <circle stroke="#CBD1D3" stroke-width="2" cx="54" cy="42" r="15"/>
    <path d="M23 22H9c-1.1 0-2 .9-2 2v21H5V24c0-2.2 1.8-4 4-4h14V4A4.013 4.013 0 0 1 26.801.005L27 0h16a4.013 4.013 0 0 1 3.995 3.801L47 4v8h14a4.013 4.013 0 0 1 3.995 3.801L65 16v9l-2-1v-8c0-1.05-.82-1.918-1.851-1.994L61 14H47v8l-2 3V4c0-1.05-.82-1.918-1.851-1.994L43 2H27c-1.05 0-1.918.82-1.994 1.851L25 4v41h9v2H1a1 1 0 0 1 0-2h22V22z" fill="#CBD1D3"/>
    <path d="M34.632 9.228v.002l-1.323 2.678-.52.076-2.437.354a.412.412 0 0 0-.228.702l2.14 2.085-.09.518-.415 2.427a.411.411 0 0 0 .597.433L35 17.113l.465.244 2.179 1.146a.41.41 0 0 0 .434-.031.412.412 0 0 0 .163-.403l-.504-2.944.376-.367 1.763-1.718a.412.412 0 0 0-.229-.702l-2.956-.43-.233-.471L35.37 9.23a.413.413 0 0 0-.737-.002z" stroke="#CBD1D3" stroke-width="2"/>
  </g>
</svg>
