<svg width="100" height="72" viewBox="0 0 100 72" fill="none" xmlns="http://www.w3.org/2000/svg">
  <path d="M6 11a1 1 0 1 1 2 0v59a1 1 0 1 1-2 0V11Z" fill="#A9ABB6"/>
  <rect x="6" y="1" width="2" height="6" rx="1" fill="#A9ABB6"/>
  <path fill-rule="evenodd" clip-rule="evenodd" d="M36 34V11H12v23h24ZM14 13h20v19H14V13Z" fill="#A9ABB6"/>
  <path d="M64 11v23H40V11h24Z" fill="#A9ABB6"/>
  <path d="M62 13H42v19h20V13Z" fill="#E0E1E9"/>
  <path fill-rule="evenodd" clip-rule="evenodd" d="M92 34V11H68v23h24ZM70 13h20v19H70V13Z" fill="#A9ABB6"/>
  <path d="M36 38v23H12V38h24Z" fill="#A9ABB6"/>
  <path d="M34 40H14v19h20V40Z" fill="#E0E1E9"/>
  <path fill-rule="evenodd" clip-rule="evenodd" d="M64 61V38H40v23h24ZM42 40h20v19H42V40ZM92 61V38H68v23h24ZM70 40h20v19H70V40Z" fill="#A9ABB6"/>
  <path d="M68.28 45.9a1 1 0 0 1 .26-1.3l7.72-5.8a1 1 0 1 1 1.2 1.6l-7.72 5.8a1 1 0 0 1-1.46-.3ZM82.28 59.9a1 1 0 0 1 .26-1.3l7.72-5.8a1 1 0 1 1 1.2 1.6l-7.72 5.8a1 1 0 0 1-1.46-.3ZM68.12 52.35a.98.98 0 0 1 .22-1.25L83.4 38.4a.98.98 0 1 1 1.26 1.5L69.6 52.6a.98.98 0 0 1-1.48-.25ZM74.12 60.35a.98.98 0 0 1 .22-1.25L89.4 46.4a.98.98 0 1 1 1.26 1.5L75.6 60.6a.98.98 0 0 1-1.48-.25ZM68.12 58.35a.98.98 0 0 1 .22-1.25L89.4 39.4a.98.98 0 1 1 1.26 1.5L69.6 58.62a.98.98 0 0 1-1.48-.26ZM12.28 18.9a1 1 0 0 1 .26-1.3l7.72-5.8a1 1 0 1 1 1.2 1.6l-7.72 5.8a1 1 0 0 1-1.46-.3ZM26.28 32.9a1 1 0 0 1 .26-1.3l7.72-5.8a1 1 0 1 1 1.2 1.6l-7.72 5.8a1 1 0 0 1-1.46-.3ZM12.12 25.35a.98.98 0 0 1 .22-1.25L27.4 11.4a.98.98 0 0 1 1.26 1.5L13.6 25.6a.98.98 0 0 1-1.48-.25ZM18.12 33.35a.98.98 0 0 1 .22-1.25L33.4 19.4a.98.98 0 1 1 1.26 1.5L19.6 33.6a.98.98 0 0 1-1.48-.25ZM12.12 31.35a.98.98 0 0 1 .22-1.25L33.4 12.4a.98.98 0 1 1 1.26 1.5L13.6 31.62a.98.98 0 0 1-1.48-.26Z" fill="#A9ABB6"/>
</svg>
