<svg width="100" height="72" viewBox="0 0 100 72" fill="none" xmlns="http://www.w3.org/2000/svg">
  <path d="M23 12a1 1 0 1 1 2 0v59a1 1 0 1 1-2 0V12Z" fill="#A9ABB6"/>
  <rect x="23" y="2" width="2" height="6" rx="1" fill="#A9ABB6"/>
  <path fill-rule="evenodd" clip-rule="evenodd" d="M49 12H29v14h20a4 4 0 0 0 4-4v-6a4 4 0 0 0-4-4ZM31 24V14h18a2 2 0 0 1 2 2v6a2 2 0 0 1-2 2H31ZM59 48H29v14h30a4 4 0 0 0 4-4v-6a4 4 0 0 0-4-4ZM31 60V50h28a2 2 0 0 1 2 2v6a2 2 0 0 1-2 2H31ZM67 30H29v14h38a4 4 0 0 0 4-4v-6a4 4 0 0 0-4-4ZM31 42V32h36a2 2 0 0 1 2 2v6a2 2 0 0 1-2 2H31Z" fill="#A9ABB6"/>
  <path d="M31 32v10h36a2 2 0 0 0 2-2v-6a2 2 0 0 0-2-2H31Z" fill="#E0E1E9"/>
  <path d="M29.34 19a1 1 0 0 1 .36-1.37l9.46-5.5 1 1.74-9.45 5.5a1 1 0 0 1-1.37-.37ZM30.2 24.48a1 1 0 0 1 .34-1.35l17.88-10.96a1 1 0 0 1 1.04 1.7L31.58 24.83a1 1 0 0 1-1.39-.35ZM39.12 25.22a1 1 0 0 1 .34-1.35l12.02-7.44a1 1 0 1 1 1.06 1.7l-12.02 7.44a1 1 0 0 1-1.4-.35Z" fill="#A9ABB6"/>
</svg>
