<svg width="100" height="72" xmlns="http://www.w3.org/2000/svg" viewBox="0 0 100 72">
  <g transform="translate(23 2)" fill-rule="nonzero" fill="none">
    <path d="M1 9a1 1 0 0 1 1 1v59a1 1 0 0 1-2 0V10a1 1 0 0 1 1-1z" fill="#CBD1D3"/>
    <rect fill="#CBD1D3" width="2" height="6" rx="1"/>
    <path d="M8 12v10h18a2 2 0 0 0 2-2v-6a2 2 0 0 0-2-2H8zm-2-2h20a4 4 0 0 1 4 4v6a4 4 0 0 1-4 4H6V10zM8 48v10h28a2 2 0 0 0 2-2v-6a2 2 0 0 0-2-2H8zm-2-2h30a4 4 0 0 1 4 4v6a4 4 0 0 1-4 4H6V46zM8 30v10h36a2 2 0 0 0 2-2v-6a2 2 0 0 0-2-2H8zm-2-2h38a4 4 0 0 1 4 4v6a4 4 0 0 1-4 4H6V28z" fill="#CBD1D3"/>
    <path d="M8 30v10h36a2 2 0 0 0 2-2v-6a2 2 0 0 0-2-2H8z" fill="#EEF0F1"/>
    <g fill="#CBD1D3">
      <path d="M6.702 15.633l9.458-5.499 1 1.732-9.456 5.497A.997.997 0 0 1 6.34 17l-.002-.003a1 1 0 0 1 .364-1.364zM7.537 21.125l17.905-10.969a.974.974 0 0 1 1.352.344l.013.022a1 1 0 0 1-.344 1.353L8.558 22.844a.974.974 0 0 1-1.352-.344l-.013-.022a1 1 0 0 1 .344-1.353zM16.463 21.873l12.048-7.462a.97.97 0 0 1 1.35.339l.015.026a1 1 0 0 1-.339 1.35L17.489 23.59a.97.97 0 0 1-1.35-.339l-.015-.026a1 1 0 0 1 .339-1.35z"/>
    </g>
  </g>
</svg>
