<svg width="80" height="80" viewBox="0 0 80 80" fill="none" xmlns="http://www.w3.org/2000/svg">
  <path d="M26.95 1c-.45 0-.9.18-1.17.54L11.9 15.44a37.3 37.3 0 0 0 0 52.67 37.3 37.3 0 0 0 52.68 0l13.89-13.9c.36-.35.54-.71.54-1.16V1.99A1 1 0 0 0 78 1H26.96Z" fill="#E0E1E9"/>
  <path d="M65.92 57.62s.1-.06.12-.09l6.5-4.32-3.14-1.7-3.13.76-8.3-31.68a5.7 5.7 0 0 0-6.68-4.15L11.7 24.51l-1.4-3.12-3.4 5.88a6.5 6.5 0 0 0-.22.37v.02a5.64 5.64 0 0 0-.46 4.25l10.44 36.64a2.59 2.59 0 0 0 3.18 1.8L65.11 58c.27-.08.52-.21.75-.35l.05-.03.01-.01Z" fill="#E0E1E9" stroke="#6C6E79" stroke-width=".7" stroke-linecap="round" stroke-linejoin="round"/>
  <path d="m71.77 53.55-47.67 13a2.73 2.73 0 0 1-3.35-1.89l-11-38.59a6.03 6.03 0 0 1 4.6-7.55l42.87-8.75a6.02 6.02 0 0 1 7.03 4.38l9.44 36.07a2.73 2.73 0 0 1-1.92 3.33Z" fill="#fff"/>
  <path d="M65.45 18.82 11.06 30.76l-1.34-4.69a6.03 6.03 0 0 1 4.6-7.55L57.2 9.77a6.02 6.02 0 0 1 7.03 4.38l1.22 4.67Z" fill="#6C6E79"/>
  <path d="M18.4 23.43A1.87 1.87 0 0 1 17 25.79a2.2 2.2 0 0 1-2.53-1.52 1.87 1.87 0 0 1 1.43-2.37 2.2 2.2 0 0 1 2.51 1.54v-.01Z" fill="#fff"/>
  <path d="M25.37 21.96c.3 1.06-.32 2.1-1.39 2.33a2.15 2.15 0 0 1-2.47-1.52 1.85 1.85 0 0 1 1.4-2.35 2.14 2.14 0 0 1 2.46 1.53Z" fill="#E0E1E9"/>
  <path d="M11.09 30.86s.32-3.15.6-6.39l-1.37-3.08-3.42 5.88-.21.37v.02a5.64 5.64 0 0 0-.46 4.25l1.4 4.9 3.46-5.96v.01Z" fill="#6C6E79"/>
  <path d="m71.77 53.55-47.67 13a2.73 2.73 0 0 1-3.35-1.89l-11-38.59a6.03 6.03 0 0 1 4.6-7.55l42.87-8.75a6.02 6.02 0 0 1 7.03 4.38l9.44 36.07a2.73 2.73 0 0 1-1.92 3.33ZM21.44 30.45l8.96 31.4" stroke="#6C6E79" stroke-width=".7" stroke-linecap="round" stroke-linejoin="round"/>
  <path d="m39.1 36.06-11.81 2.8-1.7-5.96 11.95-2.72a.8.8 0 0 1 .94.56l1.21 4.34a.8.8 0 0 1-.58.99v-.01Z" stroke="#6C6E79" stroke-width=".7" stroke-linecap="round" stroke-linejoin="round"/>
  <path d="m62.38 40.3-32.4 8.1-1.67-5.91 32.57-7.87a.8.8 0 0 1 .95.56l1.12 4.14a.79.79 0 0 1-.57.97Z" fill="#6C6E79" stroke="#6C6E79" stroke-width=".7" stroke-linecap="round" stroke-linejoin="round"/>
  <path d="M57.24 51.4 32.7 57.88l-1.66-5.87 24.68-6.31a.8.8 0 0 1 .96.55l1.14 4.16a.8.8 0 0 1-.57.97Z" fill="#E0E1E9" stroke="#6C6E79" stroke-width=".7" stroke-linecap="round" stroke-linejoin="round"/>
  <mask id="a" style="mask-type:alpha" maskUnits="userSpaceOnUse" x="25" y="29" width="16" height="11">
    <path d="m39.1 36.06-11.81 2.8-1.7-5.96 11.95-2.72a.8.8 0 0 1 .94.56l1.21 4.34a.8.8 0 0 1-.58.99v-.01Z" fill="#D9D9D9" stroke="#000" stroke-width=".7" stroke-linecap="round" stroke-linejoin="round"/>
  </mask>
  <g mask="url(#a)" stroke="#6C6E79" stroke-width=".7" stroke-miterlimit="10">
    <path d="M32.13 19.52 18.9 38.8M35.87 21.8 21.35 42.97M40.64 22.57 25.3 44.95M44.8 24.27 31.58 43.55M48.55 26.55 34.02 47.72"/>
  </g>
</svg>
