<svg width="100" height="72" viewBox="0 0 100 72" fill="none" xmlns="http://www.w3.org/2000/svg">
  <path d="M71 13.93a1 1 0 0 1 1 .88v33.25h8.73V17.62a1 1 0 0 1 .89-.99H86a1 1 0 0 1 .12 1.99h-3.39v30.44a1 1 0 0 1-.88.99H71a1 1 0 0 1-1-.88V15.92h-9.21V49a1 1 0 0 1-.89 1H48.88a1 1 0 0 1-1-.88V37.73H37.16v19.94a1 1 0 0 1-.88 1H25.8a1 1 0 0 1-1-.89V49H14a1 1 0 0 1-1-.88V48a1 1 0 0 1 .88-1H25.8a1 1 0 0 1 .98.88l.01.12v8.67h8.37V36.73a1 1 0 0 1 .89-1h12.83a1 1 0 0 1 .99.88V48h8.92V14.93a1 1 0 0 1 .88-1H71Z" fill="#A9ABB6"/>
</svg>
