<svg width="100" height="72" viewBox="0 0 100 72" fill="none" xmlns="http://www.w3.org/2000/svg">
  <path d="M12 71a1 1 0 0 1 1-1h65a1 1 0 1 1 0 2H13a1 1 0 0 1-1-1ZM82 71a1 1 0 0 1 1-1h4a1 1 0 1 1 0 2h-4a1 1 0 0 1-1-1Z" fill="#A9ABB6"/>
  <rect x="29" y="43" width="2" height="23" rx="1" fill="#A9ABB6"/>
  <path fill-rule="evenodd" clip-rule="evenodd" d="M22 37a8 8 0 1 0 16 0 8 8 0 0 0-16 0Zm14 0a6 6 0 1 1-12 0 6 6 0 0 1 12 0Z" fill="#A9ABB6"/>
  <path d="M51 55a1 1 0 1 1 2 0v10a1 1 0 1 1-2 0V55Z" fill="#A9ABB6"/>
  <path fill-rule="evenodd" clip-rule="evenodd" d="M44 47a8 8 0 1 0 16 0 8 8 0 0 0-16 0Zm14 0a6 6 0 1 1-12 0 6 6 0 0 1 12 0Z" fill="#A9ABB6"/>
  <rect x="73" y="33" width="2" height="33" rx="1" fill="#A9ABB6"/>
  <path fill-rule="evenodd" clip-rule="evenodd" d="M66 27a8 8 0 1 0 16 0 8 8 0 0 0-16 0Zm14 0a6 6 0 1 1-12 0 6 6 0 0 1 12 0Z" fill="#A9ABB6"/>
  <path d="M74 33a6 6 0 1 0 0-12 6 6 0 0 0 0 12Z" fill="#E0E1E9"/>
  <path d="M44.34 49a1 1 0 0 1 .38-1.36l11.44-6.5 1 1.73-11.46 6.5a1 1 0 0 1-1.36-.36ZM47.21 52.51a1 1 0 0 1 .38-1.37l10.84-6.03a1 1 0 0 1 .98 1.75l-10.84 6.03a1 1 0 0 1-1.36-.38Z" fill="#A9ABB6"/>
</svg>
