<svg width="100" height="72" viewBox="0 0 100 72" xmlns="http://www.w3.org/2000/svg">
  <g fill-rule="nonzero" fill="none">
    <path d="M13 70h65a1 1 0 0 1 0 2H13a1 1 0 0 1 0-2zM83 70h4a1 1 0 0 1 0 2h-4a1 1 0 0 1 0-2z" fill="#CBD1D3"/>
    <g transform="translate(22 19)" fill="#CBD1D3">
      <rect x="7" y="24" width="2" height="23" rx="1"/>
      <path d="M8 24a6 6 0 1 0 0-12 6 6 0 0 0 0 12zm0 2a8 8 0 1 1 0-16 8 8 0 0 1 0 16zM30 35a1 1 0 0 1 1 1v10a1 1 0 0 1-2 0V36a1 1 0 0 1 1-1z"/>
      <path d="M30 34a6 6 0 1 0 0-12 6 6 0 0 0 0 12zm0 2a8 8 0 1 1 0-16 8 8 0 0 1 0 16z"/>
      <rect x="51" y="14" width="2" height="33" rx="1"/>
      <path d="M52 14a6 6 0 1 0 0-12 6 6 0 0 0 0 12zm0 2a8 8 0 1 1 0-16 8 8 0 0 1 0 16z"/>
    </g>
    <path d="M74 33a6 6 0 1 0 0-12 6 6 0 0 0 0 12z" fill="#EEF0F1"/>
    <g fill="#CBD1D3">
      <path d="M44.71 47.64l11.45-6.506 1 1.732-11.457 6.51a1 1 0 0 1-1.36-.37L44.34 49a.993.993 0 0 1 .37-1.36zM47.58 51.148l10.854-6.036a1 1 0 0 1 1.352.374l.008.014a.984.984 0 0 1-.374 1.352l-10.854 6.036a1 1 0 0 1-1.352-.374l-.008-.014a.984.984 0 0 1 .374-1.352z"/>
    </g>
  </g>
</svg>
