<svg width="100" height="72" viewBox="0 0 100 72" fill="none" xmlns="http://www.w3.org/2000/svg">
  <path fill-rule="evenodd" clip-rule="evenodd" d="M50 52H19a2 2 0 0 1-2-2v-1h34l1-2H17V18c0-1.1.9-2 2-2h48a2 2 0 0 1 2 2v19h2V18c0-2.2-1.8-4-4-4H19c-2.2 0-4 1.8-4 4v32c0 2.2 1.8 4 4 4h20v5h-3a1 1 0 1 0 0 2h14a1 1 0 1 0 0-2h-3v-5h2l1-2Zm-5 2v5h-4v-5h4Z" fill="#A9ABB6"/>
  <path d="m61 34-6-5-5.36 5.07L41 26l-4.17 4.39L31 26l-9 9" stroke="#A9ABB6" stroke-width="2" stroke-linecap="round" stroke-linejoin="round"/>
  <path fill-rule="evenodd" clip-rule="evenodd" d="M65 53.5a1.5 1.5 0 1 0-3 0 1.5 1.5 0 0 0 3 0Zm9.5-1.5a1.5 1.5 0 1 1 0 3 1.5 1.5 0 0 1 0-3ZM69 58c-2.8 0-5 2.2-5 5h2c0-1.7 1.3-3 3-3s3 1.3 3 3h2c0-2.8-2.2-5-5-5Z" fill="#A9ABB6"/>
  <path d="M84 56a15 15 0 1 1-30 0 15 15 0 0 1 30 0Z" stroke="#A9ABB6" stroke-width="2"/>
</svg>
