<svg width="100" height="72" viewBox="0 0 100 72" fill="none" xmlns="http://www.w3.org/2000/svg">
  <path fill-rule="evenodd" clip-rule="evenodd" d="M41.51 64c.1 0 .18.04.24.12.39.46.79.88 1.22 1.32a.33.33 0 0 1-.23.56H26.32c-.73 0-1.31-.6-1.32-1.32V22.32c0-.73.6-1.31 1.32-1.32H54a1 1 0 0 1 .38.08 1 1 0 0 1 .33.21l10 10c.1.1.16.2.21.33A1 1 0 0 1 65 32v8.24a.32.32 0 0 1-.52.25c-.43-.32-.87-.62-1.33-.9a.33.33 0 0 1-.15-.27v-6a.33.33 0 0 0-.32-.32h-8.36c-.73 0-1.31-.6-1.32-1.32v-8.36a.33.33 0 0 0-.32-.32H27.32a.33.33 0 0 0-.32.32v40.36c0 .17.15.31.32.32h14.19Zm13.7-39.08a.32.32 0 0 0-.21.27v5.49c0 .17.15.31.32.32h5.45a.32.32 0 0 0 .23-.55L55.55 25a.32.32 0 0 0-.34-.08Z" fill="#A9ABB6"/>
  <path d="M32 33.62h14a1 1 0 1 0 0-2H32a1 1 0 1 0 0 2ZM41.17 40.79H32a1 1 0 1 0 0 2h9.17a1 1 0 1 0 0-2ZM41.17 45.38H32a1 1 0 1 0 0 2h9.17a1 1 0 1 0 0-2ZM55 37.21a1 1 0 0 0-1-1H32a1 1 0 1 0 0 2h22a1 1 0 0 0 1-1ZM57.35 48.2c-.32-.33-.7-.58-1.13-.74a4.63 4.63 0 0 0-1.8-.3 7.06 7.06 0 0 0-3.32.84l.62 1.67a5.27 5.27 0 0 1 2.44-.67c.45-.04.89.1 1.23.39.28.26.43.62.41 1 0 .28-.06.55-.2.79-.14.26-.31.5-.51.71l-.66.68c-.24.23-.46.48-.67.74-.21.26-.38.55-.51.86-.14.34-.2.7-.2 1.07v.38a1 1 0 0 0 .05.39H55v-.43a2 2 0 0 1 .23-1 4 4 0 0 1 .57-.82c.23-.26.48-.51.75-.76.27-.24.52-.5.75-.78.23-.27.42-.58.57-.9.16-.35.23-.72.23-1.1a3.94 3.94 0 0 0-.16-1 2.54 2.54 0 0 0-.59-1.02ZM54.12 57.3a1.39 1.39 0 0 0-1.42 1.4c0 .38.14.74.42 1a1.45 1.45 0 0 0 2 0c.28-.26.43-.62.42-1a1.39 1.39 0 0 0-1.42-1.4Z" fill="#A9ABB6"/>
  <path fill-rule="evenodd" clip-rule="evenodd" d="m67 61 6.61 5.86a2.81 2.81 0 0 1 .05 3.99l-.3.3a2.81 2.81 0 0 1-4 0l-6.52-5.78-.56-.5-1.09-1A12.35 12.35 0 0 1 47 43.69a12.36 12.36 0 0 1 18.36 15.88l.64.57 1 .86Zm-20.78-1.5a10.45 10.45 0 0 0 4.46 3.5A10.39 10.39 0 0 0 65 53.4a10.34 10.34 0 0 0-5.2-8.94A9.94 9.94 0 0 0 54.61 43a10.26 10.26 0 0 0-7.89 3.68 10.33 10.33 0 0 0-.5 12.82Zm19.17 5.42-1-.86-.24-.21-1.36-1.21c.5-.44.96-.92 1.38-1.44l1.23 1.1.36.32.93.82-1.3 1.48Zm6.5 4.77.3-.3a.78.78 0 0 0 .04-1.11l-4-3.51-1.34 1.47 3.89 3.45a.78.78 0 0 0 1.11 0Z" fill="#A9ABB6"/>
</svg>
