<svg width="100" height="72" viewBox="0 0 100 72" xmlns="http://www.w3.org/2000/svg">
  <g fill="#CBD1D3" fill-rule="nonzero">
    <path d="M41.75 64.12a.29.29 0 0 0-.24-.12H27.32a.33.33 0 0 1-.32-.32V23.32a.33.33 0 0 1 .32-.32h25.36a.33.33 0 0 1 .32.32v8.36A1.33 1.33 0 0 0 54.32 33h8.36a.33.33 0 0 1 .32.32v6a.33.33 0 0 0 .15.27c.46.28.9.58 1.33.9a.32.32 0 0 0 .52-.25V32a1 1 0 0 0-.08-.38 1 1 0 0 0-.21-.33l-10-10a1 1 0 0 0-.33-.21A1 1 0 0 0 54 21H26.32A1.33 1.33 0 0 0 25 22.32v42.36A1.33 1.33 0 0 0 26.32 66h16.42a.33.33 0 0 0 .23-.56c-.43-.44-.83-.86-1.22-1.32zM55 25.19a.32.32 0 0 1 .55-.19L61 30.45a.32.32 0 0 1-.23.55h-5.45a.33.33 0 0 1-.32-.32v-5.49z"/>
    <path d="M32 33.62h14a1 1 0 0 0 0-2H32a1 1 0 0 0 0 2zM41.17 40.79H32a1 1 0 0 0 0 2h9.17a1 1 0 0 0 0-2zM41.17 45.38H32a1 1 0 0 0 0 2h9.17a1 1 0 0 0 0-2zM55 37.21a1 1 0 0 0-1-1H32a1 1 0 0 0 0 2h22a1 1 0 0 0 1-1zM57.35 48.2a3.17 3.17 0 0 0-1.13-.74 4.63 4.63 0 0 0-1.8-.3 7.064 7.064 0 0 0-1.78.22 7 7 0 0 0-1.54.62l.62 1.67a5.27 5.27 0 0 1 1.22-.49 4.49 4.49 0 0 1 1.22-.18 1.71 1.71 0 0 1 1.23.39c.278.256.428.622.41 1a1.52 1.52 0 0 1-.2.79 3.34 3.34 0 0 1-.51.71c-.21.23-.43.45-.66.68a7.85 7.85 0 0 0-.67.74 3.55 3.55 0 0 0-.51.86 2.79 2.79 0 0 0-.2 1.07 2.48 2.48 0 0 0 0 .38c0 .14 0 .27.05.39H55a1.64 1.64 0 0 1 0-.22v-.21a2 2 0 0 1 .23-1 4 4 0 0 1 .57-.82c.23-.26.48-.51.75-.76a9.15 9.15 0 0 0 .75-.78 4.27 4.27 0 0 0 .57-.9 2.61 2.61 0 0 0 .23-1.1 3.94 3.94 0 0 0-.16-1 2.54 2.54 0 0 0-.59-1.02zM54.12 57.3c-.372 0-.73.143-1 .4a1.39 1.39 0 0 0-.42 1 1.33 1.33 0 0 0 .42 1 1.45 1.45 0 0 0 2 0 1.33 1.33 0 0 0 .42-1 1.39 1.39 0 0 0-.42-1 1.43 1.43 0 0 0-1-.4z"/>
    <path d="M73.61 66.86L67 61l-1-.86-.64-.57c.245-.424.458-.865.64-1.32a12.36 12.36 0 0 0-19-14.56 11.13 11.13 0 0 0-1.47 1.36 12.33 12.33 0 0 0-2.59 12.45c.243.694.551 1.364.92 2a12.26 12.26 0 0 0 2.95 3.5 12.31 12.31 0 0 0 7.8 2.78 12.35 12.35 0 0 0 4.32-.78 11.37 11.37 0 0 0 2.26-1.13l1.09 1 .56.5 6.52 5.78a2.81 2.81 0 0 0 4 0l.3-.3a2.811 2.811 0 0 0-.05-3.99zM58.54 63a10.29 10.29 0 0 1-7.86 0 10.45 10.45 0 0 1-4.46-3.5 10.09 10.09 0 0 1-1.13-2 10.33 10.33 0 0 1 1.63-10.82 9.47 9.47 0 0 1 1.44-1.39A10.26 10.26 0 0 1 54.61 43a10.09 10.09 0 0 1 3 .46 9.94 9.94 0 0 1 2.19 1A10.34 10.34 0 0 1 64 49a10.14 10.14 0 0 1 1 4.4 10.39 10.39 0 0 1-6.46 9.6zm6.85 1.92l-1-.86-.24-.21-1.36-1.21c.5-.44.962-.922 1.38-1.44l1.23 1.1.36.32.93.82-1.3 1.48zm6.8 4.47l-.3.3a.78.78 0 0 1-1.11 0l-3.89-3.45 1.34-1.47 4 3.51a.78.78 0 0 1-.04 1.11z"/>
  </g>
</svg>
