<svg width="100" height="72" viewBox="0 0 100 72" fill="none" xmlns="http://www.w3.org/2000/svg">
  <path fill-rule="evenodd" clip-rule="evenodd" d="M20 24a1 1 0 1 1-2 0V11a5 5 0 0 1 5-5h54a5 5 0 0 1 5 5v13a1 1 0 1 1-2 0V11a3 3 0 0 0-3-3H23a3 3 0 0 0-3 3v13Zm62 40.19V67a5 5 0 0 1-5 5H23a5 5 0 0 1-5-5v-4a1 1 0 1 1 2 0v4a3 3 0 0 0 3 3h54a3 3 0 0 0 3-3v-4a1 1 0 1 1 2 0v1.19Z" fill="#A9ABB6"/>
  <path d="M20 11a3 3 0 0 1 3-3h54a3 3 0 0 1 3 3v3H20v-3Z" fill="#E0E1E9"/>
  <rect x="24" y="18" width="22" height="2" rx="1" fill="#A9ABB6"/>
  <path d="M24 23a1 1 0 0 1 1-1h40a1 1 0 1 1 0 2H25a1 1 0 0 1-1-1Z" fill="#A9ABB6"/>
  <rect x="45" y="56" width="14" height="2" rx="1" fill="#A9ABB6"/>
  <rect x="39" y="56" width="4" height="2" rx="1" fill="#A9ABB6"/>
  <rect x="16" y="56" width="12" height="2" rx="1" fill="#A9ABB6"/>
  <rect x="10" y="56" width="4" height="2" rx="1" fill="#A9ABB6"/>
  <rect x="72" y="56" width="16" height="2" rx="1" fill="#A9ABB6"/>
  <rect x="66" y="56" width="4" height="2" rx="1" fill="#A9ABB6"/>
  <path fill-rule="evenodd" clip-rule="evenodd" d="M30 29H14a4 4 0 0 0-4 4v16a4 4 0 0 0 4 4h16a4 4 0 0 0 4-4V33a4 4 0 0 0-4-4Zm-18 4c0-1.1.9-2 2-2h16a2 2 0 0 1 2 2v16a2 2 0 0 1-2 2H14a2 2 0 0 1-2-2V33ZM58 29H42a4 4 0 0 0-4 4v16a4 4 0 0 0 4 4h16a4 4 0 0 0 4-4V33a4 4 0 0 0-4-4Zm-18 4c0-1.1.9-2 2-2h16a2 2 0 0 1 2 2v16a2 2 0 0 1-2 2H42a2 2 0 0 1-2-2V33ZM86 29H70a4 4 0 0 0-4 4v16a4 4 0 0 0 4 4h16a4 4 0 0 0 4-4V33a4 4 0 0 0-4-4Zm-18 4c0-1.1.9-2 2-2h16a2 2 0 0 1 2 2v16a2 2 0 0 1-2 2H70a2 2 0 0 1-2-2V33Z" fill="#A9ABB6"/>
  <path d="M42 31a2 2 0 0 0-2 2v16c0 1.1.9 2 2 2h16a2 2 0 0 0 2-2V33a2 2 0 0 0-2-2H42Z" fill="#E0E1E9"/>
</svg>
