<svg width="100" height="72" viewBox="0 0 100 72" fill="none" xmlns="http://www.w3.org/2000/svg">
  <path fill-rule="evenodd" clip-rule="evenodd" d="M20 24a1 1 0 11-2 0V11a5 5 0 015-5h54a5 5 0 015 5v13a1 1 0 11-2 0V11a3 3 0 00-3-3H23a3 3 0 00-3 3v13zm62 40.19V67a5 5 0 01-5 5H23a5 5 0 01-5-5v-4a1 1 0 112 0v4a3 3 0 003 3h54a3 3 0 003-3v-4a1 1 0 112 0v1.19z" fill="#CBD1D3"/>
  <path d="M20 11a3 3 0 013-3h54a3 3 0 013 3v3H20v-3z" fill="#EEF0F1"/>
  <path d="M25 18a1 1 0 100 2h20a1 1 0 100-2H25zM25 22a1 1 0 100 2h40a1 1 0 100-2H25zM45 57a1 1 0 011-1h12a1 1 0 110 2H46a1 1 0 01-1-1zM40 56a1 1 0 100 2h2a1 1 0 100-2h-2zM16 57a1 1 0 011-1h10a1 1 0 110 2H17a1 1 0 01-1-1zM11 56a1 1 0 100 2h2a1 1 0 100-2h-2zM72 57a1 1 0 011-1h14a1 1 0 110 2H73a1 1 0 01-1-1zM67 56a1 1 0 100 2h2a1 1 0 100-2h-2z" fill="#CBD1D3"/>
  <path fill-rule="evenodd" clip-rule="evenodd" d="M30 29H14a4 4 0 00-4 4v16a4 4 0 004 4h16a4 4 0 004-4V33a4 4 0 00-4-4zm-18 4c0-1.1.9-2 2-2h16a2 2 0 012 2v16a2 2 0 01-2 2H14a2 2 0 01-2-2V33zM58 29H42a4 4 0 00-4 4v16a4 4 0 004 4h16a4 4 0 004-4V33a4 4 0 00-4-4zm-18 4c0-1.1.9-2 2-2h16a2 2 0 012 2v16a2 2 0 01-2 2H42a2 2 0 01-2-2V33zM70 29h16a4 4 0 014 4v16a4 4 0 01-4 4H70a4 4 0 01-4-4V33a4 4 0 014-4zm0 2a2 2 0 00-2 2v16c0 1.1.9 2 2 2h16a2 2 0 002-2V33a2 2 0 00-2-2H70z" fill="#CBD1D3"/>
  <path d="M42 31a2 2 0 00-2 2v16c0 1.1.9 2 2 2h16a2 2 0 002-2V33a2 2 0 00-2-2H42z" fill="#EEF0F1"/>
</svg>
