<svg xmlns="http://www.w3.org/2000/svg" width="80" height="80" fill="none" viewBox="0 0 80 80">
  <path fill="#E0E1E9" d="M39.67 3.34V.91a.92.92 0 0 0-1-.9A40.24 40.24 0 0 0 3 39.98a36.4 36.4 0 0 0 36.67 36.69v2.42c0 .53.47.96 1 .9a40.3 40.3 0 0 0 35.67-40A36.67 36.67 0 0 0 39.66 3.34"/>
  <path fill="#E0E1E9" stroke="#6C6E79" stroke-linecap="round" stroke-linejoin="round" stroke-width=".7" d="m66.16 57.37.12-.08 6.52-4.33-3.15-1.7-3.14.76-8.34-31.68a5.73 5.73 0 0 0-6.7-4.15l-39.74 8.06-1.4-3.12-3.43 5.88a6.5 6.5 0 0 0-.22.37v.02a5.62 5.62 0 0 0-.46 4.25L16.7 68.3a2.6 2.6 0 0 0 3.19 1.8l45.46-12.35c.27-.07.52-.2.74-.34l.06-.04h0Z"/>
  <path fill="#fff" stroke="#6C6E79" stroke-linecap="round" stroke-linejoin="round" stroke-width=".7" d="m72.02 53.31-47.87 13a2.75 2.75 0 0 1-3.36-1.89L9.75 25.82a6.03 6.03 0 0 1 4.61-7.55l43.05-8.75a6.04 6.04 0 0 1 7.06 4.38l9.48 36.08a2.73 2.73 0 0 1-1.93 3.33v0Z"/>
  <path fill="#6C6E79" d="M65.68 18.57 11.08 30.5l-1.35-4.69a6.03 6.03 0 0 1 4.61-7.55L57.4 9.53a6.04 6.04 0 0 1 7.05 4.38l1.23 4.67.01-.01Z"/>
  <path fill="#fff" d="M18.43 23.17a1.87 1.87 0 0 1-1.42 2.37 2.2 2.2 0 0 1-2.54-1.52 1.87 1.87 0 0 1 1.44-2.37 2.2 2.2 0 0 1 2.52 1.53Z"/>
  <path fill="#E0E1E9" d="M25.44 21.7c.3 1.05-.32 2.1-1.4 2.33a2.15 2.15 0 0 1-2.48-1.53 1.85 1.85 0 0 1 1.4-2.34 2.15 2.15 0 0 1 2.48 1.52v.01Z"/>
  <path fill="#6C6E79" d="M11.1 30.6s.32-3.16.6-6.39l-1.37-3.08-3.43 5.88a6.5 6.5 0 0 0-.22.37v.02a5.62 5.62 0 0 0-.45 4.25l1.4 4.9 3.47-5.96Z"/>
  <path fill="#fff" d="M33.66 33.85a14.13 14.13 0 0 0-1.67 12.35 13.24 13.24 0 0 0 2.1 4.03 14.16 14.16 0 0 0 3.48 3.29 14.17 14.17 0 1 0 15.76-23.56A14.15 14.15 0 0 0 40.1 28.6a14.15 14.15 0 0 0-6.42 5.24h-.01Z"/>
  <path fill="#fff" stroke="#6C6E79" stroke-linecap="round" stroke-linejoin="round" stroke-width=".7" d="m31.93 51.4-14.05 3.57a1.44 1.44 0 0 1-1.74-1l-3.59-12.72c-.22-.8.26-1.6 1.06-1.8l14.17-3.33a1.43 1.43 0 0 1 1.7 1l3.47 12.48a1.43 1.43 0 0 1-1.04 1.77l.01.02Z"/>
  <path stroke="#6C6E79" stroke-linecap="round" stroke-linejoin="round" stroke-width=".7" d="m22.88 57.09 7.25-1.88m-12.7 3.29 2.66-.7"/>
  <path fill="#6C6E79" stroke="#6C6E79" stroke-linecap="round" stroke-linejoin="round" stroke-width=".7" d="m52.65 46.12-13.2 3.37a1.44 1.44 0 0 1-1.75-1.01l-3.4-12.35a1.44 1.44 0 0 1 1.05-1.78l13.32-3.14a1.44 1.44 0 0 1 1.72 1.02l3.3 12.12a1.44 1.44 0 0 1-1.04 1.77v0Z"/>
  <path stroke="#6C6E79" stroke-linecap="round" stroke-linejoin="round" stroke-width=".7" d="M44.13 51.58 51 49.8m-12.06 3.13 2.53-.66"/>
  <path fill="#E0E1E9" stroke="#6C6E79" stroke-linecap="round" stroke-linejoin="round" stroke-width=".7" d="m72.37 41.09-12.43 3.17a1.44 1.44 0 0 1-1.74-1.01l-3.24-12A1.44 1.44 0 0 1 56 29.5l12.54-2.95a1.43 1.43 0 0 1 1.72 1.03l3.12 11.77c.2.77-.26 1.56-1.03 1.76l.01-.01Z"/>
  <path stroke="#6C6E79" stroke-linecap="round" stroke-linejoin="round" stroke-width=".7" d="m64.32 46.36 6.54-1.7M59.4 47.65l2.41-.62"/>
</svg>
