<svg width="80" height="80" viewBox="0 0 80 80" fill="none" xmlns="http://www.w3.org/2000/svg">
  <path d="M14.9 65.16a35.48 35.48 0 0 0 25.18 10.46v2.47c0 .5.41.91.9.91A38.93 38.93 0 0 0 79 40.95c0-.5-.41-.9-.9-.9h-2.47A35.66 35.66 0 0 0 40 4.37V1.9c0-.5-.41-.91-.9-.91a38.98 38.98 0 0 0-26 10.79.9.9 0 0 0 0 1.24l1.72 1.73a35.56 35.56 0 0 0-10.45 25.2H1.91c-.5 0-.91.41-.91.9A39.06 39.06 0 0 0 11.78 66.9a.9.9 0 0 0 1.23 0l1.9-1.73Z" fill="#E0E1E9"/>
  <path d="M65.92 57.6s.1-.05.12-.08l6.5-4.32-3.14-1.7-3.13.76-8.3-31.68a5.7 5.7 0 0 0-6.68-4.15L11.7 24.5l-1.4-3.12-3.4 5.88-.22.37v.02a5.64 5.64 0 0 0-.46 4.25l10.44 36.64a2.59 2.59 0 0 0 3.18 1.8L65.11 58c.27-.08.52-.2.75-.35l.05-.03.01-.01Z" fill="#E0E1E9" stroke="#6C6E79" stroke-width=".7" stroke-linecap="round" stroke-linejoin="round"/>
  <path d="m71.76 53.55-47.67 13a2.73 2.73 0 0 1-3.35-1.89l-11-38.59a6.03 6.03 0 0 1 4.6-7.55L57.2 9.77a6.02 6.02 0 0 1 7.03 4.38l9.44 36.07a2.73 2.73 0 0 1-1.92 3.33Z" fill="#fff"/>
  <path d="M65.44 18.82 11.05 30.76l-1.34-4.69a6.03 6.03 0 0 1 4.6-7.55l42.88-8.75a6.02 6.02 0 0 1 7.03 4.38l1.22 4.67Z" fill="#6C6E79"/>
  <path d="M18.4 23.42a1.87 1.87 0 0 1-1.43 2.37 2.19 2.19 0 0 1-2.52-1.53 1.87 1.87 0 0 1 1.42-2.37 2.2 2.2 0 0 1 2.52 1.54v-.01Z" fill="#fff"/>
  <path d="M25.37 21.94c.3 1.06-.32 2.1-1.4 2.33a2.15 2.15 0 0 1-2.47-1.52 1.85 1.85 0 0 1 1.4-2.35 2.14 2.14 0 0 1 2.47 1.53Z" fill="#E0E1E9"/>
  <path d="M11.09 30.84s.32-3.15.6-6.38l-1.37-3.09-3.42 5.88a6.5 6.5 0 0 0-.21.37v.02a5.64 5.64 0 0 0-.46 4.25l1.4 4.9 3.46-5.96v.01Z" fill="#6C6E79"/>
  <path d="m71.76 53.55-47.67 13a2.73 2.73 0 0 1-3.35-1.89l-11-38.59a6.03 6.03 0 0 1 4.6-7.55L57.2 9.77a6.02 6.02 0 0 1 7.03 4.38l9.44 36.07a2.73 2.73 0 0 1-1.92 3.33v0Z" stroke="#6C6E79" stroke-width=".7" stroke-linecap="round" stroke-linejoin="round"/>
  <path d="m50.01 34.4 14.05 3.65c.7-2.2.81-4.56.18-6.9-1.9-6.97-9.72-11.25-17.78-9.68L50 34.4h.01Z" fill="#E0E1E9" stroke="#6C6E79" stroke-width=".7" stroke-linecap="round" stroke-linejoin="round"/>
  <path d="m46.46 21.48-2.37 3.15 3.56 12.93L50 34.4l-3.55-12.92Z" fill="#6C6E79" stroke="#6C6E79" stroke-width=".7" stroke-linecap="round" stroke-linejoin="round"/>
  <path d="m64.07 38.05-2.37 3.16-14.05-3.65 2.37-3.16 14.05 3.65ZM55.58 51.4c.24-.3.46-.59.67-.89l2.12-2.8L46 43.5l-4.45-5.3-2.1-7.67c-2.34.6-4.4 1.65-6.14 3l-.5-.29-1.9 2.57c-.37.45-.7.92-1.02 1.4l-.06.08v.04c-1.92 3-2.6 6.57-1.62 10.11 2.06 7.42 10.64 11.56 18.96 9.3 3.5-.93 6.39-2.86 8.4-5.3l.02-.03v-.01Z" fill="#6C6E79" stroke="#6C6E79" stroke-width=".7" stroke-linecap="round" stroke-linejoin="round"/>
  <path d="m45.5 40.8-3.69-13.43c-8.19 2.1-13.28 9.6-11.25 16.9 2.03 7.3 10.65 11.56 18.97 9.3 5.14-1.38 8.98-4.88 10.62-9.04L45.51 40.8Z" fill="#E0E1E9" stroke="#6C6E79" stroke-width=".7" stroke-linecap="round" stroke-linejoin="round"/>
  <path d="m46.65 26.85 3.96-5.76M47.7 33.05 55.3 22M51.31 35.53l7.84-11.42M54.92 38l7.4-10.77M64.39 31.95l-5.1 7.42" stroke="#6C6E79" stroke-width=".7" stroke-miterlimit="10"/>
  <path d="M57.92 22.32c-3.47-1.64-7.9-2-11.72-1.28l-3.25 3.66" stroke="#fff" stroke-width=".7" stroke-linecap="round" stroke-linejoin="round"/>
</svg>
