<svg width="100" height="72" viewBox="0 0 100 72" fill="none" xmlns="http://www.w3.org/2000/svg">
  <path fill-rule="evenodd" clip-rule="evenodd" d="M75.88 54.75 49 38.44V7a1 1 0 0 0-1-1 32.94 32.94 0 0 0-33 33 33 33 0 0 0 61.22 17.12 1 1 0 0 0-.34-1.37ZM32.2 12.32A30.86 30.86 0 0 1 47 8.02V39a1 1 0 0 0 .48.85l26.5 16.08a31 31 0 1 1-41.77-43.6Z" fill="#A9ABB6"/>
  <path d="M37.43 9.85a30.86 30.86 0 0 0-12.3 8.21 31 31 0 1 0 48.84 37.87L47.48 39.85A1 1 0 0 1 47 39V8.02c-3.3.1-6.52.72-9.57 1.83Z" fill="#E0E1E9"/>
  <path fill-rule="evenodd" clip-rule="evenodd" d="M72.16 13.45A30.92 30.92 0 0 1 83 37c0 5.44-1.4 10.68-4.03 15.3L53 36.44V6.02c1.74.05 3.45.25 5.14.59a1 1 0 1 0 .39-1.96A33.15 33.15 0 0 0 52 4a1 1 0 0 0-1 1v32a1 1 0 0 0 .48.85l27.31 16.68a1 1 0 0 0 1.38-.33A32.85 32.85 0 0 0 85 37c0-9.76-4.27-18.84-11.54-25.07a1 1 0 1 0-1.3 1.52Zm-2.35-3.06a1 1 0 0 0-.32-1.38 32.86 32.86 0 0 0-6.77-3.23 1 1 0 0 0-.65 1.9c2.23.76 4.36 1.78 6.36 3.03a1 1 0 0 0 1.38-.32Z" fill="#A9ABB6"/>
  <path d="M51.15 17.27a1 1 0 0 1 .4-1.37L65.5 8.35a1 1 0 1 1 .95 1.75l-13.97 7.55a1 1 0 0 1-1.34-.38ZM51.56 24.79a1 1 0 0 1 .4-1.39l20.15-10.57a1 1 0 0 1 .93 1.77L52.89 25.17a1 1 0 0 1-1.33-.39ZM51.94 33.24a1 1 0 0 1 .35-1.36L76.7 17.4a1 1 0 0 1 1.02 1.72L53.3 33.6a1 1 0 0 1-1.37-.36ZM55.87 38.99a1 1 0 0 1 .35-1.36l23.53-13.98a1 1 0 1 1 1.03 1.72L57.25 39.35a1 1 0 0 1-1.38-.36ZM62.4 44.24a1 1 0 0 1 .36-1.36L82.22 31.4a1 1 0 1 1 1.02 1.72L63.78 44.6a1 1 0 0 1-1.38-.36ZM70 48.73a1 1 0 0 1 .34-1.35l12.28-7.47a1 1 0 0 1 1.04 1.71L71.38 49.1a1 1 0 0 1-1.39-.36Z" fill="#A9ABB6"/>
</svg>
