<svg width="100" height="72" viewBox="0 0 100 72" xmlns="http://www.w3.org/2000/svg">
  <g fill-rule="nonzero" fill="none">
    <path d="M49 38.437l26.88 16.31a1 1 0 0 1 .337 1.374C70.269 65.901 59.66 72 48 72c-18.225 0-33-14.775-33-33a32.879 32.879 0 0 1 8.664-22.288 33.197 33.197 0 0 1 7.517-6.11 32.854 32.854 0 0 1 5.567-2.634A32.94 32.94 0 0 1 48 6a1 1 0 0 1 1 1v31.437zM37.43 9.85a30.854 30.854 0 0 0-5.229 2.473 31.09 31.09 0 0 0-7.062 5.74A30.88 30.88 0 0 0 17 39c0 17.12 13.88 31 31 31 10.614 0 20.3-5.377 25.974-14.07L47.48 39.854A1 1 0 0 1 47 39V8.016c-3.3.104-6.52.726-9.57 1.833z" fill="#CBD1D3"/>
    <path d="M37.43 9.849a30.854 30.854 0 0 0-5.229 2.473 31.09 31.09 0 0 0-7.062 5.74A30.88 30.88 0 0 0 17 39c0 17.12 13.88 31 31 31 10.614 0 20.3-5.377 25.974-14.07L47.48 39.854A1 1 0 0 1 47 39V8.016c-3.3.104-6.52.726-9.57 1.833z" fill="#EEF0F1"/>
    <path d="M83 37c0-9.173-4.006-17.693-10.838-23.548a1 1 0 0 1 1.302-1.519C80.734 18.164 85 27.237 85 37c0 6.156-1.69 12.066-4.834 17.203a1 1 0 0 1-1.374.332L51.48 37.853A1 1 0 0 1 51 37V5a1 1 0 0 1 1-1c2.211 0 4.395.218 6.53.646a1 1 0 0 1-.394 1.96A31.079 31.079 0 0 0 53 6.017v30.423l25.968 15.86A30.852 30.852 0 0 0 83 37zM69.49 9.012a1 1 0 1 1-1.06 1.695 30.86 30.86 0 0 0-6.363-3.036 1 1 0 1 1 .65-1.892 32.86 32.86 0 0 1 6.774 3.233z" fill="#CBD1D3"/>
    <g fill="#CBD1D3">
      <path d="M51.518 15.908l13.988-7.562a1 1 0 0 1 1.341.38l.014.024a.972.972 0 0 1-.38 1.342l-13.987 7.562a1 1 0 0 1-1.341-.38l-.014-.024a.972.972 0 0 1 .38-1.342zM51.926 23.42L72.11 12.83a1 1 0 0 1 1.33.386l.02.034a.96.96 0 0 1-.385 1.33L52.89 25.17a1 1 0 0 1-1.33-.386l-.02-.034a.96.96 0 0 1 .385-1.33zM52.292 31.88l24.405-14.486a.988.988 0 0 1 1.36.356l.006.01a1 1 0 0 1-.355 1.36L53.303 33.606a.988.988 0 0 1-1.36-.356l-.006-.01a1 1 0 0 1 .355-1.36zM56.225 37.63l23.54-13.985a.988.988 0 0 1 1.36.355l.006.01a1 1 0 0 1-.356 1.36l-23.54 13.985a.988.988 0 0 1-1.36-.355l-.006-.01a1 1 0 0 1 .356-1.36zM62.76 42.88l19.472-11.488a.99.99 0 0 1 1.361.358l.005.008a1 1 0 0 1-.358 1.361L63.768 44.608a.99.99 0 0 1-1.361-.358l-.005-.008a1 1 0 0 1 .358-1.361zM70.34 47.376l12.3-7.473a.978.978 0 0 1 1.355.347l.011.02a1 1 0 0 1-.347 1.354l-12.3 7.473a.978.978 0 0 1-1.354-.347l-.011-.02a1 1 0 0 1 .347-1.354z"/>
    </g>
  </g>
</svg>
