<svg width="100" height="72" viewBox="0 0 100 72" xmlns="http://www.w3.org/2000/svg">
  <g fill="#CBD1D3" fill-rule="nonzero">
    <path d="M59.932 37.288a1 1 0 1 1 0 2h-10a1 1 0 0 1-1-1v-10a1 1 0 1 1 2 0v9h9z"/>
    <g transform="translate(24 10)">
      <path d="M10.142 36.567a1 1 0 0 1 1.716-1.027C14.975 40.75 20.553 44 26.686 44 36.246 44 44 36.167 44 26.5S36.246 9 26.686 9a1 1 0 1 1 0-2C37.356 7 46 15.733 46 26.5S37.355 46 26.686 46c-6.846 0-13.071-3.626-16.544-9.433z"/>
      <path d="M26.5 53C11.864 53 0 41.136 0 26.5S11.864 0 26.5 0 53 11.864 53 26.5 41.136 53 26.5 53zm0-2C40.031 51 51 40.031 51 26.5S40.031 2 26.5 2 2 12.969 2 26.5 12.969 51 26.5 51z"/>
      <circle cx="8.051" cy="28.797" r="1"/>
      <circle cx="8.915" cy="21.017" r="1"/>
      <circle cx="12.373" cy="14.102" r="1"/>
      <circle cx="18.424" cy="9.78" r="1"/>
      <path d="M11 37v3a1 1 0 0 1-2 0v-4a1 1 0 0 1 1-1h4a1 1 0 0 1 0 2h-3z"/>
    </g>
  </g>
</svg>
