<svg width="100" height="72" viewBox="0 0 100 72" fill="none" xmlns="http://www.w3.org/2000/svg">
  <path d="M59.93 37.29a1 1 0 0 1 0 2h-10a1 1 0 0 1-1-1v-10a1 1 0 0 1 2 0v9h9Z" fill="#A9ABB6"/>
  <path d="M34.14 46.57a1 1 0 1 1 1.72-1.03A17.26 17.26 0 0 0 50.69 54 17.4 17.4 0 0 0 68 36.5 17.4 17.4 0 0 0 50.69 19a1 1 0 1 1 0-2A19.4 19.4 0 0 1 70 36.5 19.4 19.4 0 0 1 50.69 56a19.26 19.26 0 0 1-16.55-9.43Z" fill="#A9ABB6"/>
  <path fill-rule="evenodd" clip-rule="evenodd" d="M24 36.5a26.5 26.5 0 1 0 53 0 26.5 26.5 0 0 0-53 0Zm51 0a24.5 24.5 0 1 1-49 0 24.5 24.5 0 0 1 49 0Z" fill="#A9ABB6"/>
  <path d="M32.05 39.8a1 1 0 1 0 0-2 1 1 0 0 0 0 2ZM32.92 32.02a1 1 0 1 0 0-2 1 1 0 0 0 0 2ZM36.37 25.1a1 1 0 1 0 0-2 1 1 0 0 0 0 2ZM42.42 20.78a1 1 0 1 0 0-2 1 1 0 0 0 0 2ZM35 47v3a1 1 0 1 1-2 0v-4a1 1 0 0 1 1-1h4a1 1 0 1 1 0 2h-3Z" fill="#A9ABB6"/>
</svg>
