<svg xmlns="http://www.w3.org/2000/svg" width="100" height="72" viewBox="0 0 100 72">
  <g fill="none" fill-rule="nonzero">
    <path fill="#CBD1D3" d="M49.4 1.614c.3-.2.7-.2 1.1-.1l.1.1 12.2 8.8c.4.3.6.9.2 1.4-.3.4-.9.5-1.3.3l-.1-.1-11.6-8.4-34.8 25 13.3 40.8h42.9l13.4-40.7-8.8-6.4c-.4-.3-.5-.9-.3-1.3l.1-.1c.3-.4.9-.5 1.3-.3l.1.1 9.4 6.7c.3.2.5.6.4 1v.1l-13.9 42.2c-.1.4-.4.6-.8.7H27.9c-.4 0-.8-.2-.9-.6v-.1l-14-42.1c-.1-.4 0-.8.3-1l.1-.1 36-25.9z"/>
    <path fill="#CBD1D3" stroke="#CBD1D3" stroke-linecap="round" stroke-linejoin="round" stroke-width="2" d="M66.3 14.014l6.5 4.8"/>
    <path fill="#CBD1D3" d="M69.1 37.7l-17.9-21L24.6 33l14.9 20.4 25.3 6.9 4.3-22.6zM50.8 19.3l16.1 19-3.7 19.5-22.5-6.1-13.3-18.2 23.4-14.2z"/>
    <path fill="#CBD1D3" d="M29.7 39.1c-.4 0-.7-.2-.9-.6-.1-.1-.1-.3-.1-.4 0-.4.2-.7.6-.9l27.1-13.1c.5-.2 1.1 0 1.3.5.1.1.1.3.1.4 0 .4-.2.7-.6.9L30.2 39c-.2.1-.3.1-.5.1zm4.5 6.4c-.4 0-.7-.2-.9-.6-.1-.1-.1-.3-.1-.4 0-.4.2-.7.6-.9l27.8-13.5c.5-.2 1.1 0 1.3.5.1.1.1.2.1.4 0 .4-.2.7-.6.9L34.6 45.4c-.1 0-.3.1-.4.1zm7.7 4.7c-.4 0-.7-.2-.9-.6-.1-.1-.1-.3-.1-.4 0-.4.2-.7.6-.9l21.9-10.6c.5-.2 1.1 0 1.3.5.1.1.1.3.1.4 0 .4-.2.7-.6.9L42.4 50.1c-.2 0-.3.1-.5.1zm7.5 5.8c-.4 0-.7-.2-.9-.6-.1-.1-.1-.3-.1-.4 0-.4.2-.7.6-.9L65.7 46c.5-.2 1.1 0 1.3.5.1.1.1.3.1.4 0 .4-.2.7-.6.9l-16.8 8.1c0 .1-.2.1-.3.1z"/>
    <path fill="#FFF" d="M28 37c1.7 0 3-1.3 3-3s-1.3-3-3-3-3 1.3-3 3 1.3 3 3 3z"/>
    <path fill="#CBD1D3" d="M28 37c1.7 0 3-1.3 3-3s-1.3-3-3-3-3 1.3-3 3 1.3 3 3 3zm0 2c-2.8 0-5-2.2-5-5s2.2-5 5-5 5 2.2 5 5-2.2 5-5 5z"/>
    <path fill="#FFF" d="M68 41c1.7 0 3-1.3 3-3s-1.3-3-3-3-3 1.3-3 3 1.3 3 3 3z"/>
    <path fill="#CBD1D3" d="M68 41c1.7 0 3-1.3 3-3s-1.3-3-3-3-3 1.3-3 3 1.3 3 3 3zm0 2c-2.8 0-5-2.2-5-5s2.2-5 5-5 5 2.2 5 5-2.2 5-5 5z"/>
    <path fill="#FFF" d="M39 55c1.7 0 3-1.3 3-3s-1.3-3-3-3-3 1.3-3 3 1.3 3 3 3z"/>
    <path fill="#CBD1D3" d="M39 55c1.7 0 3-1.3 3-3s-1.3-3-3-3-3 1.3-3 3 1.3 3 3 3zm0 2c-2.8 0-5-2.2-5-5s2.2-5 5-5 5 2.2 5 5-2.2 5-5 5z"/>
    <path fill="#FFF" d="M51 21c1.7 0 3-1.3 3-3s-1.3-3-3-3-3 1.3-3 3 1.3 3 3 3z"/>
    <path fill="#CBD1D3" d="M51 21c1.7 0 3-1.3 3-3s-1.3-3-3-3-3 1.3-3 3 1.3 3 3 3zm0 2c-2.8 0-5-2.2-5-5s2.2-5 5-5 5 2.2 5 5-2.2 5-5 5z"/>
    <path fill="#FFF" d="M64 62c1.7 0 3-1.3 3-3s-1.3-3-3-3-3 1.3-3 3 1.3 3 3 3z"/>
    <path fill="#CBD1D3" d="M64 62c1.7 0 3-1.3 3-3s-1.3-3-3-3-3 1.3-3 3 1.3 3 3 3zm0 2c-2.8 0-5-2.2-5-5s2.2-5 5-5 5 2.2 5 5-2.2 5-5 5z"/>
  </g>
</svg>
