<svg width="100" height="72" viewBox="0 0 100 72" fill="none" xmlns="http://www.w3.org/2000/svg">
  <path d="M49.4 1.61c.3-.2.7-.2 1.1-.1l.1.1 12.2 8.8c.4.3.6.9.2 1.4-.3.4-.9.5-1.3.3l-.1-.1L50 3.61l-34.8 25 13.3 40.8h42.9l13.4-40.7-8.8-6.4c-.4-.3-.5-.9-.3-1.3l.1-.1c.3-.4.9-.5 1.3-.3l.1.1 9.4 6.7c.3.2.5.6.4 1v.1l-13.9 42.2c-.1.4-.4.6-.8.7H27.9c-.4 0-.8-.2-.9-.6v-.1l-14-42.1c-.1-.4 0-.8.3-1l.1-.1 36-25.9Z" fill="#A9ABB6"/>
  <path d="m66.3 14.01 6.5 4.8-6.5-4.8Z" fill="#A9ABB6"/>
  <path d="m66.3 14.01 6.5 4.8" stroke="#A9ABB6" stroke-width="2" stroke-linecap="round" stroke-linejoin="round"/>
  <path fill-rule="evenodd" clip-rule="evenodd" d="m51.2 16.7 17.9 21-4.3 22.6-25.3-6.9L24.6 33l26.6-16.3Zm15.7 21.6-16.1-19-23.4 14.2 13.3 18.2 22.5 6.1 3.7-19.5Z" fill="#A9ABB6"/>
  <path d="M29.7 39.1c-.4 0-.7-.2-.9-.6-.1-.1-.1-.3-.1-.4 0-.4.2-.7.6-.9l27.1-13.1c.5-.2 1.1 0 1.3.5.1.1.1.3.1.4 0 .4-.2.7-.6.9L30.2 39c-.2.1-.3.1-.5.1ZM34.2 45.5c-.4 0-.7-.2-.9-.6-.1-.1-.1-.3-.1-.4 0-.4.2-.7.6-.9l27.8-13.5c.5-.2 1.1 0 1.3.5.1.1.1.2.1.4 0 .4-.2.7-.6.9L34.6 45.4c-.1 0-.3.1-.4.1ZM41.9 50.2c-.4 0-.7-.2-.9-.6-.1-.1-.1-.3-.1-.4 0-.4.2-.7.6-.9l21.9-10.6c.5-.2 1.1 0 1.3.5.1.1.1.3.1.4 0 .4-.2.7-.6.9L42.4 50.1c-.2 0-.3.1-.5.1ZM49.4 56c-.4 0-.7-.2-.9-.6-.1-.1-.1-.3-.1-.4 0-.4.2-.7.6-.9L65.7 46c.5-.2 1.1 0 1.3.5.1.1.1.3.1.4 0 .4-.2.7-.6.9l-16.8 8.1c0 .1-.2.1-.3.1Z" fill="#A9ABB6"/>
  <path d="M28 37c1.7 0 3-1.3 3-3s-1.3-3-3-3-3 1.3-3 3 1.3 3 3 3Z" fill="#fff"/>
  <path fill-rule="evenodd" clip-rule="evenodd" d="M23 34c0 2.8 2.2 5 5 5s5-2.2 5-5-2.2-5-5-5-5 2.2-5 5Zm8 0c0 1.7-1.3 3-3 3s-3-1.3-3-3 1.3-3 3-3 3 1.3 3 3Z" fill="#A9ABB6"/>
  <path d="M68 41c1.7 0 3-1.3 3-3s-1.3-3-3-3-3 1.3-3 3 1.3 3 3 3Z" fill="#fff"/>
  <path fill-rule="evenodd" clip-rule="evenodd" d="M63 38c0 2.8 2.2 5 5 5s5-2.2 5-5-2.2-5-5-5-5 2.2-5 5Zm8 0c0 1.7-1.3 3-3 3s-3-1.3-3-3 1.3-3 3-3 3 1.3 3 3Z" fill="#A9ABB6"/>
  <path d="M39 55c1.7 0 3-1.3 3-3s-1.3-3-3-3-3 1.3-3 3 1.3 3 3 3Z" fill="#fff"/>
  <path fill-rule="evenodd" clip-rule="evenodd" d="M34 52c0 2.8 2.2 5 5 5s5-2.2 5-5-2.2-5-5-5-5 2.2-5 5Zm8 0c0 1.7-1.3 3-3 3s-3-1.3-3-3 1.3-3 3-3 3 1.3 3 3Z" fill="#A9ABB6"/>
  <path d="M51 21c1.7 0 3-1.3 3-3s-1.3-3-3-3-3 1.3-3 3 1.3 3 3 3Z" fill="#fff"/>
  <path fill-rule="evenodd" clip-rule="evenodd" d="M46 18c0 2.8 2.2 5 5 5s5-2.2 5-5-2.2-5-5-5-5 2.2-5 5Zm8 0c0 1.7-1.3 3-3 3s-3-1.3-3-3 1.3-3 3-3 3 1.3 3 3Z" fill="#A9ABB6"/>
  <path d="M64 62c1.7 0 3-1.3 3-3s-1.3-3-3-3-3 1.3-3 3 1.3 3 3 3Z" fill="#fff"/>
  <path fill-rule="evenodd" clip-rule="evenodd" d="M59 59c0 2.8 2.2 5 5 5s5-2.2 5-5-2.2-5-5-5-5 2.2-5 5Zm8 0c0 1.7-1.3 3-3 3s-3-1.3-3-3 1.3-3 3-3 3 1.3 3 3Z" fill="#A9ABB6"/>
</svg>
