<svg xmlns="http://www.w3.org/2000/svg" width="100" height="72" viewBox="0 0 100 72">
  <g fill="none" transform="translate(1 12)">
    <path fill="#CBD1D3"
      d="M56 18H42a3 3 0 00-3 3v8a3 3 0 003 3h14a3 3 0 003-3v-8a3 3 0 00-3-3zm-14 2h14a1 1 0 011 1v8a1 1 0 01-1 1H42a1 1 0 01-1-1v-8a1 1 0 011-1z" />
    <path fill="#CBD1D3"
      d="M39.81 25.4l13.06-7.027a1 1 0 011.34.38l.015.026a.97.97 0 01-.38 1.34l-13.062 7.027a1 1 0 01-1.34-.38l-.015-.027a.97.97 0 01.381-1.34zM43.96 29.842l13.061-7.239a1 1 0 011.351.375l.009.015a.983.983 0 01-.375 1.35l-13.061 7.24a1 1 0 01-1.351-.375l-.009-.015a.983.983 0 01.375-1.35zM17 0H3a3 3 0 00-3 3v8a3 3 0 003 3h14a3 3 0 003-3V3a3 3 0 00-3-3zM3 2h14a1 1 0 011 1v8a1 1 0 01-1 1H3a1 1 0 01-1-1V3a1 1 0 011-1z" />
    <rect width="18" height="12" x="79" y="1" fill="#EEF0F1" rx="2" />
    <rect width="18" height="12" x="1" y="37" fill="#EEF0F1" rx="2" />
    <path fill="#CBD1D3"
      d="M95 0H81a3 3 0 00-3 3v8a3 3 0 003 3h14a3 3 0 003-3V3a3 3 0 00-3-3zM81 2h14a1 1 0 011 1v8a1 1 0 01-1 1H81a1 1 0 01-1-1V3a1 1 0 011-1zM17 36H3a3 3 0 00-3 3v8a3 3 0 003 3h14a3 3 0 003-3v-8a3 3 0 00-3-3zM3 38h14a1 1 0 011 1v8a1 1 0 01-1 1H3a1 1 0 01-1-1v-8a1 1 0 011-1zm92-2H81a3 3 0 00-3 3v8a3 3 0 003 3h14a3 3 0 003-3v-8a3 3 0 00-3-3zm-14 2h14a1 1 0 011 1v8a1 1 0 01-1 1H81a1 1 0 01-1-1v-8a1 1 0 011-1z" />
    <g fill="#CBD1D3">
      <path
        d="M24.05 12.107a1 1 0 011.343.444c1.582 3.143 4.41 5.657 8.523 7.54a1 1 0 11-.832 1.818c-4.505-2.062-7.677-4.882-9.477-8.46a1 1 0 01.444-1.342zM24.108 37.92a1 1 0 001.312-.528c1.604-3.767 4.424-6.587 8.502-8.485a1 1 0 00-.844-1.814c-4.516 2.102-7.696 5.282-9.498 9.515a1 1 0 00.528 1.312z" />
    </g>
    <g fill="#CBD1D3">
      <path
        d="M73.491 12.13a1 1 0 00-1.362.379c-1.802 3.194-4.646 5.721-8.56 7.588a1 1 0 10.862 1.806c4.27-2.038 7.426-4.843 9.44-8.412a1 1 0 00-.38-1.362zM73.437 37.9a1 1 0 01-1.336-.463c-1.848-3.8-4.687-6.638-8.543-8.54a1 1 0 11.884-1.794c4.253 2.098 7.414 5.26 9.457 9.46a1 1 0 01-.462 1.336z" />
    </g>
  </g>
</svg>