<svg width="100" height="72" viewBox="0 0 100 72" fill="none" xmlns="http://www.w3.org/2000/svg">
  <path fill-rule="evenodd" clip-rule="evenodd" d="M43 30h14a3 3 0 0 1 3 3v8a3 3 0 0 1-3 3H43a3 3 0 0 1-3-3v-8a3 3 0 0 1 3-3Zm14 2H43a1 1 0 0 0-1 1v8a1 1 0 0 0 1 1h14a1 1 0 0 0 1-1v-8a1 1 0 0 0-1-1Z" fill="#A9ABB6"/>
  <path d="M40.44 38.77a1 1 0 0 1 .4-1.38l13.03-7.02a1 1 0 1 1 .95 1.76l-13.04 7.02a1 1 0 0 1-1.34-.38ZM44.6 43.2a1 1 0 0 1 .38-1.37l13.04-7.23a1 1 0 1 1 .97 1.75l-13.05 7.23a1 1 0 0 1-1.35-.37Z" fill="#A9ABB6"/>
  <path fill-rule="evenodd" clip-rule="evenodd" d="M4 12h14a3 3 0 0 1 3 3v8a3 3 0 0 1-3 3H4a3 3 0 0 1-3-3v-8a3 3 0 0 1 3-3Zm14 2H4a1 1 0 0 0-1 1v8a1 1 0 0 0 1 1h14a1 1 0 0 0 1-1v-8a1 1 0 0 0-1-1Z" fill="#A9ABB6"/>
  <rect x="80" y="13" width="18" height="12" rx="2" fill="#E0E1E9"/>
  <rect x="2" y="49" width="18" height="12" rx="2" fill="#E0E1E9"/>
  <path fill-rule="evenodd" clip-rule="evenodd" d="M82 12h14a3 3 0 0 1 3 3v8a3 3 0 0 1-3 3H82a3 3 0 0 1-3-3v-8a3 3 0 0 1 3-3Zm14 2H82a1 1 0 0 0-1 1v8a1 1 0 0 0 1 1h14a1 1 0 0 0 1-1v-8a1 1 0 0 0-1-1ZM4 48h14a3 3 0 0 1 3 3v8a3 3 0 0 1-3 3H4a3 3 0 0 1-3-3v-8a3 3 0 0 1 3-3Zm14 2H4a1 1 0 0 0-1 1v8a1 1 0 0 0 1 1h14a1 1 0 0 0 1-1v-8a1 1 0 0 0-1-1ZM82 48h14a3 3 0 0 1 3 3v8a3 3 0 0 1-3 3H82a3 3 0 0 1-3-3v-8a3 3 0 0 1 3-3Zm14 2H82a1 1 0 0 0-1 1v8a1 1 0 0 0 1 1h14a1 1 0 0 0 1-1v-8a1 1 0 0 0-1-1Z" fill="#A9ABB6"/>
  <path d="M25.05 24.1a1 1 0 0 1 1.34.45c1.59 3.14 4.41 5.66 8.53 7.54a1 1 0 0 1-.84 1.82c-4.5-2.06-7.67-4.88-9.47-8.46a1 1 0 0 1 .44-1.34ZM25.1 49.92a1 1 0 0 0 1.32-.53c1.6-3.77 4.42-6.59 8.5-8.48a1 1 0 1 0-.84-1.82c-4.52 2.1-7.7 5.29-9.5 9.52a1 1 0 0 0 .53 1.31ZM74.5 24.13a1 1 0 0 0-1.37.38c-1.8 3.2-4.65 5.72-8.56 7.59a1 1 0 1 0 .86 1.8c4.27-2.03 7.43-4.84 9.44-8.4a1 1 0 0 0-.38-1.37ZM74.44 49.9a1 1 0 0 1-1.34-.46 18.13 18.13 0 0 0-8.54-8.54 1 1 0 0 1 .88-1.8 20.13 20.13 0 0 1 9.46 9.46 1 1 0 0 1-.46 1.34Z" fill="#A9ABB6"/>
</svg>
