<svg width="100" height="72" viewBox="0 0 100 72" fill="none" xmlns="http://www.w3.org/2000/svg">
  <path d="M12 3a1 1 0 1 1 2 0v68a1 1 0 1 1-2 0V3Z" fill="#A9ABB6"/>
  <path d="M12 71a1 1 0 0 1 1-1h65a1 1 0 1 1 0 2H13a1 1 0 0 1-1-1ZM82 71a1 1 0 0 1 1-1h4a1 1 0 1 1 0 2h-4a1 1 0 0 1-1-1Z" fill="#A9ABB6"/>
  <path d="M82 71a1 1 0 0 1 1-1h4a1 1 0 1 1 0 2h-4a1 1 0 0 1-1-1ZM62 43a14 14 0 1 1 0-28 14 14 0 0 1 0 28Z" fill="#A9ABB6"/>
  <path fill-rule="evenodd" clip-rule="evenodd" d="M25 37a6 6 0 1 0 12 0 6 6 0 0 0-12 0Zm10 0a4 4 0 1 1-8 0 4 4 0 0 1 8 0ZM40 54a10 10 0 1 0 20 0 10 10 0 0 0-20 0Zm18 0a8 8 0 1 1-16 0 8 8 0 0 1 16 0Z" fill="#A9ABB6"/>
  <path d="M62 41a12 12 0 1 0 0-24 12 12 0 0 0 0 24Z" fill="#E0E1E9"/>
  <path d="M40.32 54.97a1 1 0 0 1 .33-1.35l12.63-7.93a1 1 0 0 1 1.07 1.69L41.72 55.3a1 1 0 0 1-1.4-.34ZM43.18 59.46a1 1 0 0 1 .33-1.34l13.9-8.92a1 1 0 0 1 1.08 1.68L44.6 59.8a1 1 0 0 1-1.4-.34ZM46.64 61.38l12.72-8.5.53.92a1 1 0 0 1-.3 1.34l-11.95 7.98-1-1.74Z" fill="#A9ABB6"/>
</svg>
