<svg width="100" height="72" viewBox="0 0 100 72" xmlns="http://www.w3.org/2000/svg">
  <g fill-rule="nonzero" fill="none">
    <path d="M13 2a1 1 0 0 1 1 1v68a1 1 0 0 1-2 0V3a1 1 0 0 1 1-1z" fill="#CBD1D3"/>
    <path d="M13 70h65a1 1 0 0 1 0 2H13a1 1 0 0 1 0-2zM83 70h4a1 1 0 0 1 0 2h-4a1 1 0 0 1 0-2z" fill="#CBD1D3"/>
    <path d="M83 70h4a1 1 0 0 1 0 2h-4a1 1 0 0 1 0-2zM62 43c-7.732 0-14-6.268-14-14s6.268-14 14-14 14 6.268 14 14-6.268 14-14 14zM31 41a4 4 0 1 0 0-8 4 4 0 0 0 0 8zm0 2a6 6 0 1 1 0-12 6 6 0 0 1 0 12zM50 62a8 8 0 1 0 0-16 8 8 0 0 0 0 16zm0 2c-5.523 0-10-4.477-10-10s4.477-10 10-10 10 4.477 10 10-4.477 10-10 10z" fill="#CBD1D3"/>
    <path d="M62 41c6.627 0 12-5.373 12-12s-5.373-12-12-12-12 5.373-12 12 5.373 12 12 12z" fill="#EEF0F1"/>
    <path d="M40.655 53.621l12.659-7.955A.963.963 0 0 1 54.66 46l.019.032a1 1 0 0 1-.334 1.347l-12.659 7.955A.963.963 0 0 1 40.34 55l-.019-.032a1 1 0 0 1 .334-1.347zM43.509 58.119l13.944-8.945a.954.954 0 0 1 1.341.326l.023.04a1 1 0 0 1-.326 1.341l-13.944 8.945a.954.954 0 0 1-1.341-.326l-.023-.04a1 1 0 0 1 .326-1.341zM46.639 61.384l12.722-8.5.532.92a1 1 0 0 1-.31 1.332l-11.944 7.98-1-1.732z" fill="#CBD1D3"/>
  </g>
</svg>
