<svg width="80" height="80" viewBox="0 0 80 80" fill="none" xmlns="http://www.w3.org/2000/svg">
  <path d="M40.58 74.87C62 74.6 79 56.87 79 35.55V20.5a1 1 0 0 0-.99-.99H53V6a1 1 0 0 0-.99-.99H27.99a1 1 0 0 0-.99.99v6.27H1.99a1 1 0 0 0-.99.98v22.84a39.14 39.14 0 0 0 39.58 38.8Z" fill="#E0E1E9"/>
  <path d="M62.92 57.6s.1-.05.12-.08l6.5-4.32-3.14-1.7-3.13.76-8.3-31.68a5.7 5.7 0 0 0-6.68-4.15L8.7 24.5l-1.4-3.12-3.4 5.88-.22.37v.02a5.64 5.64 0 0 0-.46 4.25l10.44 36.64a2.59 2.59 0 0 0 3.18 1.8L62.11 58c.27-.08.52-.2.75-.35l.05-.03.01-.01Z" fill="#E0E1E9" stroke="#6C6E79" stroke-width=".7" stroke-linecap="round" stroke-linejoin="round"/>
  <path d="m68.76 53.55-47.67 13a2.73 2.73 0 0 1-3.35-1.89l-11-38.59a6.03 6.03 0 0 1 4.6-7.55l42.88-8.75a6.02 6.02 0 0 1 7.02 4.38l9.45 36.07a2.73 2.73 0 0 1-1.93 3.33Z" fill="#fff"/>
  <path d="M62.45 18.82 8.07 30.76l-1.34-4.69a6.03 6.03 0 0 1 4.6-7.55L54.2 9.77a6.02 6.02 0 0 1 7.02 4.38l1.22 4.67Z" fill="#6C6E79"/>
  <path d="M15.4 23.42a1.87 1.87 0 0 1-1.42 2.37 2.19 2.19 0 0 1-2.53-1.53 1.87 1.87 0 0 1 1.43-2.37 2.2 2.2 0 0 1 2.51 1.54v-.01Z" fill="#fff"/>
  <path d="M22.37 21.94c.3 1.06-.32 2.1-1.39 2.33a2.15 2.15 0 0 1-2.47-1.52 1.85 1.85 0 0 1 1.4-2.35 2.14 2.14 0 0 1 2.46 1.53Z" fill="#E0E1E9"/>
  <path d="M8.09 30.84s.32-3.15.6-6.38l-1.37-3.09-3.42 5.88-.21.37v.02a5.64 5.64 0 0 0-.46 4.25l1.4 4.9 3.46-5.96v.01Z" fill="#6C6E79"/>
  <path d="M70.68 50.22 65.7 31.2c-3.75.59-6.7 1.53-8.5 2.88-8.47 6.28-7.22 18.26-11.65 21.04-5.29 3.3-11.7-6.31-18.92-4.3-4.6 1.28-6.47 7.53-7.92 15.25.66.5 1.52.71 2.39.47l47.67-13a2.73 2.73 0 0 0 1.93-3.33l-.02.01Z" fill="#E0E1E9"/>
  <path d="M18.69 66.1c1.5-8.37 3.05-13.92 7.93-15.29 7.21-2 13.63 7.61 18.92 4.3 4.44-2.77 3.2-14.76 11.65-21.04 3.41-2.52 10.8-3.66 20.14-3.55" stroke="#6C6E79" stroke-width=".7" stroke-linecap="round" stroke-linejoin="round"/>
  <path d="M59.84 33.56c.44 1.68-.37 3.3-1.82 3.64-1.45.35-3-.74-3.46-2.42-.45-1.67.37-3.32 1.84-3.65 1.46-.32 3 .77 3.45 2.44h-.01ZM29.27 50.21c.44 1.68-.37 3.3-1.82 3.65-1.44.34-3-.75-3.45-2.43-.46-1.67.36-3.32 1.83-3.65 1.46-.32 3 .77 3.45 2.44h-.01ZM48.18 54.51c.45 1.68-.36 3.3-1.81 3.64-1.45.35-3-.74-3.46-2.42-.45-1.67.37-3.33 1.84-3.65 1.47-.33 2.99.77 3.44 2.44v-.01Z" fill="#6C6E79"/>
  <path d="M56.34 24.23c.45 1.68-.36 3.3-1.81 3.65-1.45.34-3-.75-3.46-2.43-.45-1.67.37-3.32 1.84-3.65 1.46-.32 2.99.77 3.44 2.44ZM25.77 40.9c.44 1.67-.37 3.3-1.82 3.64-1.44.34-3-.75-3.45-2.42-.46-1.68.36-3.33 1.83-3.66 1.47-.32 3 .77 3.45 2.45l-.01-.02ZM44.7 45.2c.44 1.67-.37 3.29-1.82 3.63-1.45.35-3-.74-3.46-2.42-.45-1.67.37-3.33 1.84-3.65 1.46-.32 2.99.77 3.44 2.44Z" fill="#E0E1E9"/>
  <path d="m68.76 53.55-47.67 13a2.73 2.73 0 0 1-3.35-1.89l-11-38.59a6.03 6.03 0 0 1 4.6-7.55l42.88-8.75a6.02 6.02 0 0 1 7.02 4.38l9.45 36.07a2.73 2.73 0 0 1-1.93 3.33v0Z" stroke="#6C6E79" stroke-width=".7" stroke-linecap="round" stroke-linejoin="round"/>
  <path d="M63.23 21.73c3.1-.41 6.68-.59 10.61-.53" stroke="#fff" stroke-width=".7" stroke-linecap="round" stroke-linejoin="round"/>
  <path d="M15.47 56.7c1.5-8.38 2.77-13.83 7.66-15.2 7.21-2 13.63 7.61 18.91 4.3 4.45-2.77 3.2-14.76 11.66-21.04 1.97-1.47 5.28-2.46 9.52-3.02" stroke="#E0E1E9" stroke-width=".7" stroke-linecap="round" stroke-linejoin="round"/>
  <path d="m14.14 52.01 2.14 7.5" stroke="#6C6E79" stroke-width=".7" stroke-linecap="round" stroke-linejoin="round"/>
</svg>
