<svg width="100" height="72" viewBox="0 0 100 72" fill="none" xmlns="http://www.w3.org/2000/svg">
  <path d="M73.92 13a1 1 0 1 1 0-2H77a2 2 0 0 1 2 2v47a2 2 0 0 1-2 2H54a2 2 0 0 1-2-2V13c0-1.1.9-2 2-2h14.06a1 1 0 1 1 0 2H54v47h23V13h-3.08Z" fill="#A9ABB6"/>
  <rect x="58" y="38" width="15" height="2" rx="1" fill="#A9ABB6"/>
  <rect x="58" y="42" width="15" height="2" rx="1" fill="#A9ABB6"/>
  <rect x="58" y="46" width="15" height="2" rx="1" fill="#A9ABB6"/>
  <rect x="58" y="50" width="15" height="2" rx="1" fill="#A9ABB6"/>
  <path d="M67.3 23.29a1 1 0 0 1 1.4 1.42l-3.05 3a1 1 0 0 1-1.35.06l-1.94-1.64a1 1 0 0 1 1.28-1.53l1.25 1.05 2.4-2.36Z" fill="#A9ABB6"/>
  <path fill-rule="evenodd" clip-rule="evenodd" d="M58 25.5a7.5 7.5 0 1 0 15 0 7.5 7.5 0 0 0-15 0Zm13 0a5.5 5.5 0 1 1-11 0 5.5 5.5 0 0 1 11 0Z" fill="#A9ABB6"/>
  <path d="M46 56.98a1 1 0 1 1 2 0V60a2 2 0 0 1-2 2H23a2 2 0 0 1-2-2V13c0-1.1.9-2 2-2h23a2 2 0 0 1 2 2v37.95a1 1 0 0 1-2 0V13H23v47h23v-3.02Z" fill="#A9ABB6"/>
  <rect x="27" y="38" width="15" height="2" rx="1" fill="#A9ABB6"/>
  <rect x="27" y="42" width="15" height="2" rx="1" fill="#A9ABB6"/>
  <rect x="27" y="46" width="15" height="2" rx="1" fill="#A9ABB6"/>
  <rect x="27" y="50" width="15" height="2" rx="1" fill="#A9ABB6"/>
  <path fill-rule="evenodd" clip-rule="evenodd" d="M27 25.5a7.5 7.5 0 1 0 15 0 7.5 7.5 0 0 0-15 0Zm13 0a5.5 5.5 0 1 1-11 0 5.5 5.5 0 0 1 11 0Z" fill="#A9ABB6"/>
  <rect x="36.66" y="22" width="2" height="8" rx="1" transform="rotate(45 36.66 22)" fill="#A9ABB6"/>
  <rect width="2" height="8" rx="1" transform="scale(-1 1) rotate(45 -42.76 -28.13)" fill="#A9ABB6"/>
</svg>
