<svg xmlns="http://www.w3.org/2000/svg" width="80" height="80" fill="none" viewBox="0 0 80 80">
  <path fill="#E0E1E9" d="M26.69 0c-.46 0-.91.19-1.24.52L11.19 14.78A38.21 38.21 0 0 0 65.22 68.8l14.26-14.26c.33-.33.52-.77.52-1.24V.99a.98.98 0 0 0-.99-.99H26.7Z"/>
  <path fill="#E0E1E9" stroke="#6C6E79" stroke-linecap="round" stroke-linejoin="round" stroke-width=".7" d="m66.16 57.37.12-.08 6.52-4.33-3.15-1.7-3.14.76-8.34-31.68a5.73 5.73 0 0 0-6.7-4.15l-39.74 8.06-1.4-3.12-3.43 5.88a6.5 6.5 0 0 0-.22.37v.02a5.62 5.62 0 0 0-.46 4.25L16.7 68.3a2.6 2.6 0 0 0 3.19 1.8l45.46-12.35c.27-.07.52-.2.74-.34l.06-.04h0Z"/>
  <path fill="#fff" stroke="#6C6E79" stroke-linecap="round" stroke-linejoin="round" stroke-width=".7" d="m72.02 53.31-47.87 13a2.75 2.75 0 0 1-3.36-1.89L9.75 25.82a6.03 6.03 0 0 1 4.61-7.55l43.05-8.75a6.04 6.04 0 0 1 7.06 4.38l9.48 36.08a2.73 2.73 0 0 1-1.93 3.33Z"/>
  <path fill="#6C6E79" d="m65.68 18.57-54.6 11.94-1.35-4.69a6.03 6.03 0 0 1 4.61-7.55L57.4 9.53a6.04 6.04 0 0 1 7.05 4.38l1.23 4.67.01-.01Z"/>
  <path fill="#fff" d="M18.43 23.17a1.87 1.87 0 0 1-1.42 2.37 2.2 2.2 0 0 1-2.54-1.52 1.87 1.87 0 0 1 1.44-2.37 2.2 2.2 0 0 1 2.52 1.53Z"/>
  <path fill="#E0E1E9" d="M25.44 21.7c.3 1.05-.32 2.1-1.4 2.33a2.15 2.15 0 0 1-2.48-1.53 1.85 1.85 0 0 1 1.4-2.34 2.15 2.15 0 0 1 2.48 1.52v.01Z"/>
  <path fill="#6C6E79" d="M11.1 30.6s.32-3.16.6-6.39l-1.37-3.08-3.43 5.88a6.5 6.5 0 0 0-.22.37v.02a5.62 5.62 0 0 0-.45 4.25l1.4 4.9 3.47-5.96Z"/>
  <path fill="#fff" d="M33.66 33.85a14.13 14.13 0 0 0-1.67 12.35 13.24 13.24 0 0 0 2.1 4.03 14.16 14.16 0 0 0 3.48 3.29 14.17 14.17 0 1 0 15.76-23.56A14.15 14.15 0 0 0 40.1 28.6a14.15 14.15 0 0 0-6.42 5.24h-.01Z"/>
  <path fill="#fff" stroke="#6C6E79" stroke-linecap="round" stroke-linejoin="round" stroke-width=".7" d="M51.69 40.05c-1.14-4.21-6.06-6.64-10.71-5.02-3.5 1.2-5.74 4.52-5.35 7.9a7.27 7.27 0 0 0 4.07 5.65 8.14 8.14 0 0 1 4.09 4.32l.02.06 5.65-1.49v-.06a7.2 7.2 0 0 1 1.13-5.45 6.99 6.99 0 0 0 1.09-5.9h.01Z"/>
  <path fill="#6C6E79" d="m50.9 54.55-6.75 1.82c-.53.14-1.07-.13-1.2-.62l-.74-2.73c-.14-.48.18-.99.72-1.12l6.77-1.78c.52-.13 1.05.14 1.18.62l.73 2.7c.14.47-.18.96-.7 1.1Z"/>
  <path stroke="#6C6E79" stroke-linecap="round" stroke-linejoin="round" stroke-width=".7" d="m43.22 39.66 1.39 5.1m2.09-3.25-5.6 1.4M29.92 34.8l2.61 1.38m18.05-4.26 1.47-2.28m-11.3.97L40.01 28l.71 2.61Zm15.62 8.5 2.74-.68M57.4 49.35l-2.44-1.3M31 45.43l-2.99.75 2.99-.75Zm6.11 7.3-1.55 2.4"/>
</svg>
