<svg xmlns="http://www.w3.org/2000/svg" width="80" height="80" fill="none" viewBox="0 0 80 80">
  <path fill="#E0E1E9" d="M4.35 58.16v9.77c0 .46.19.91.51 1.24l5.97 5.97c.33.33.77.51 1.24.51h9.77A39.92 39.92 0 0 0 40 80c6.53 0 12.71-1.57 18.16-4.35h9.77c.46 0 .91-.19 1.24-.51l5.97-5.97c.33-.33.51-.77.51-1.24v-9.77A39.88 39.88 0 0 0 80 40c0-6.53-1.57-12.71-4.35-18.16v-9.77c0-.46-.19-.91-.51-1.24l-5.97-5.97a1.74 1.74 0 0 0-1.24-.51h-9.77A39.88 39.88 0 0 0 40 0a39.88 39.88 0 0 0-18.16 4.35h-9.77c-.46 0-.91.19-1.24.51l-5.97 5.97c-.33.33-.51.77-.51 1.24v9.77A39.88 39.88 0 0 0 0 40c0 6.53 1.57 12.71 4.35 18.16Z"/>
  <path fill="#E0E1E9" stroke="#6C6E79" stroke-linecap="round" stroke-linejoin="round" stroke-width=".7" d="m66.16 57.37.12-.08 6.52-4.33-3.15-1.7-3.14.76-8.34-31.68a5.73 5.73 0 0 0-6.7-4.15l-39.74 8.06-1.4-3.12-3.43 5.88a6.5 6.5 0 0 0-.22.37v.02a5.62 5.62 0 0 0-.46 4.25L16.7 68.3a2.6 2.6 0 0 0 3.19 1.8l45.46-12.35c.27-.07.52-.2.74-.34l.06-.04h0Z"/>
  <path fill="#fff" stroke="#6C6E79" stroke-linecap="round" stroke-linejoin="round" stroke-width=".7" d="m72.02 53.31-47.87 13a2.75 2.75 0 0 1-3.36-1.89L9.75 25.82a6.03 6.03 0 0 1 4.61-7.55l43.05-8.75a6.04 6.04 0 0 1 7.06 4.38l9.48 36.08a2.73 2.73 0 0 1-1.93 3.33v0Z"/>
  <path fill="#6C6E79" d="m65.68 18.57-54.6 11.94-1.35-4.69a6.03 6.03 0 0 1 4.61-7.55L57.4 9.53a6.04 6.04 0 0 1 7.05 4.38l1.23 4.67.01-.01Z"/>
  <path fill="#fff" d="M18.43 23.17a1.87 1.87 0 0 1-1.42 2.37 2.2 2.2 0 0 1-2.54-1.52 1.87 1.87 0 0 1 1.44-2.37 2.2 2.2 0 0 1 2.52 1.53Z"/>
  <path fill="#E0E1E9" d="M25.44 21.7c.3 1.05-.32 2.1-1.4 2.33a2.15 2.15 0 0 1-2.48-1.53 1.85 1.85 0 0 1 1.4-2.34 2.15 2.15 0 0 1 2.48 1.52v.01Z"/>
  <path fill="#6C6E79" d="M11.1 30.6s.32-3.16.6-6.39l-1.37-3.08-3.43 5.88a6.5 6.5 0 0 0-.22.37v.02a5.62 5.62 0 0 0-.45 4.25l1.4 4.9 3.47-5.96Z"/>
  <path fill="#fff" d="M33.66 33.85a14.13 14.13 0 0 0-1.67 12.35 13.24 13.24 0 0 0 2.1 4.03 14.16 14.16 0 0 0 3.48 3.29 14.17 14.17 0 1 0 15.76-23.56A14.15 14.15 0 0 0 40.1 28.6a14.15 14.15 0 0 0-6.42 5.24h-.01Z"/>
  <path fill="#fff" stroke="#E0E1E9" stroke-linecap="round" stroke-linejoin="round" stroke-width=".7" d="m65.27 51.03-16.33 4.33-7.52-27.6L58.07 24l7.2 27.03Zm-19.6 5.18-17.2 4.56L20.5 32.5l17.58-3.98 7.6 27.7Z"/>
  <path stroke="#6C6E79" stroke-linecap="round" stroke-linejoin="round" stroke-width=".7" d="m49.6 41.82 8.46-2.09m-7.83 4.43 8.45-2.1m-7.81 4.44 8.42-2.14m-7.8 4.47 8.43-2.17M56.45 32c.56 2.27-1.02 4.64-3.54 5.3-2.53.67-5.06-.65-5.63-2.94-.57-2.28 1.04-4.67 3.59-5.32 2.55-.65 5.02.69 5.58 2.96v0Z"/>
  <path stroke="#6C6E79" stroke-linecap="round" stroke-linejoin="round" stroke-width=".7" d="m53.6 31.85-1.76 2.88-1.77-.76m-20.92 12.9 8.93-2.2m-8.26 4.6 8.9-2.24m-8.23 4.63 8.9-2.25m-8.23 4.63 8.87-2.27m-3.65-14.99c.59 2.3-1.08 4.72-3.73 5.41-2.66.7-5.33-.61-5.93-2.95-.6-2.34 1.1-4.78 3.77-5.45 2.67-.67 5.3.67 5.89 2.98v.01Zm-3.48-.7-2.65 3.84m3.4-.88-4.17-2.08"/>
</svg>
