<svg width="100" height="72" viewBox="0 0 100 72" fill="none" xmlns="http://www.w3.org/2000/svg">
  <path fill-rule="evenodd" clip-rule="evenodd" d="M78 20H22a4 4 0 0 0-4 4v44a4 4 0 0 0 4 4h56a4 4 0 0 0 4-4V24a4 4 0 0 0-4-4Zm-58 4c0-1.1.9-2 2-2h56a2 2 0 0 1 2 2v44a2 2 0 0 1-2 2H22a2 2 0 0 1-2-2V24Z" fill="#A9ABB6"/>
  <path d="M20 24c0-1.1.9-2 2-2h56a2 2 0 0 1 2 2v10H20V24Z" fill="#E0E1E9"/>
  <path d="M22 52a1 1 0 0 1 1-1h54a1 1 0 1 1 0 2H23a1 1 0 0 1-1-1Z" fill="#A9ABB6"/>
  <rect x="60" y="36" width="2" height="32" rx="1" fill="#A9ABB6"/>
  <rect x="38" y="36" width="2" height="32" rx="1" fill="#A9ABB6"/>
  <rect x="70" y="26" width="6" height="2" rx="1" fill="#A9ABB6"/>
  <rect x="40" y="26" width="26" height="2" rx="1" fill="#A9ABB6"/>
</svg>
