<svg width="100" height="72" viewBox="0 0 100 72" xmlns="http://www.w3.org/2000/svg">
  <g transform="translate(18 20)" fill-rule="nonzero" fill="none">
    <path d="M4 2a2 2 0 0 0-2 2v44a2 2 0 0 0 2 2h56a2 2 0 0 0 2-2V4a2 2 0 0 0-2-2H4zm0-2h56a4 4 0 0 1 4 4v44a4 4 0 0 1-4 4H4a4 4 0 0 1-4-4V4a4 4 0 0 1 4-4z" fill="#CBD1D3"/>
    <path d="M4 2h56a2 2 0 0 1 2 2v10H2V4a2 2 0 0 1 2-2z" fill="#EEF0F1"/>
    <path d="M5 31h54a1 1 0 0 1 0 2H5a1 1 0 0 1 0-2z" fill="#CBD1D3"/>
    <rect fill="#CBD1D3" x="42" y="16" width="2" height="32" rx="1"/>
    <rect fill="#CBD1D3" x="20" y="16" width="2" height="32" rx="1"/>
    <rect fill="#CBD1D3" x="52" y="6" width="6" height="2" rx="1"/>
    <rect fill="#CBD1D3" x="22" y="6" width="26" height="2" rx="1"/>
  </g>
</svg>
