<svg width="100" height="72" viewBox="0 0 100 72" fill="none" xmlns="http://www.w3.org/2000/svg">
  <path fill-rule="evenodd" clip-rule="evenodd" d="M33 46h16a4 4 0 010 8H33a4 4 0 010-8zm11-29v6a4 4 0 01-8 0v-6a4 4 0 018 0z" fill="#EEF0F1"/>
  <path fill-rule="evenodd" clip-rule="evenodd" d="M44 17v6a4 4 0 01-8 0v-6a4 4 0 018 0zm21 13H35a6 6 0 000 12h30a6 6 0 000-12zm-34 6a4 4 0 014-4h30a4 4 0 010 8H35a4 4 0 01-4-4zm2 10h16a4 4 0 010 8H33a4 4 0 010-8zm-2 4c0-1.1.9-2 2-2h16a2 2 0 110 4H33a2 2 0 01-2-2zm9-35a2 2 0 012 2v6a2 2 0 11-4 0v-6c0-1.1.9-2 2-2zm43 19v6a4 4 0 01-8 0v-6a4 4 0 018 0zm-4-2a2 2 0 012 2v6a2 2 0 11-4 0v-6c0-1.1.9-2 2-2zM48 23a4 4 0 014-4h25a4 4 0 010 8H52a4 4 0 01-4-4zm24.41-2H77a2 2 0 01.52.07L73.59 25H68.4l4-4zm-2.82 0H64.4l-4 4h5.18l4-4zm-12 4l4-4H56.4l-4 4h5.18zm-7.2-.8l3.2-3.2H52a2 2 0 00-1.6 3.2zm26.02.8H77a2 2 0 001.93-2.52L76.41 25zM17 40a4 4 0 018 0v16a4 4 0 01-8 0V40zm6 14.23V56a2 2 0 01-3.94.5L23 54.23zm0-2.31v-3.7l-4 2.3v3.7l4-2.3zm-4-3.7l4-2.31v-3.7l-4 2.31v3.7zm0-6.01l4-2.3a2 2 0 00-4 .09v2.21z" fill="#CBD1D3"/>
</svg>
