<svg width="100" height="72" viewBox="0 0 100 72" fill="none" xmlns="http://www.w3.org/2000/svg">
  <path fill-rule="evenodd" clip-rule="evenodd" d="M33 46h16a4 4 0 0 1 0 8H33a4 4 0 0 1 0-8Zm11-29v6a4 4 0 0 1-8 0v-6a4 4 0 0 1 8 0Z" fill="#E0E1E9"/>
  <path fill-rule="evenodd" clip-rule="evenodd" d="M48 23a4 4 0 0 1 4-4h25a4 4 0 0 1 0 8H52a4 4 0 0 1-4-4Zm24.41-2H77a2 2 0 0 1 .52.07L73.59 25H68.4l4-4Zm-2.82 0H64.4l-4 4h5.18l4-4Zm-12 4 4-4H56.4l-4 4h5.18Zm-7.2-.8 3.2-3.2H52a2 2 0 0 0-1.6 3.2Zm26.02.8H77a2 2 0 0 0 1.93-2.52L76.41 25ZM17 40a4 4 0 0 1 8 0v16a4 4 0 0 1-8 0V40Zm6 14.23V56a2 2 0 0 1-3.94.5L23 54.23Zm0-2.31v-3.7l-4 2.3v3.7l4-2.3Zm-4-3.7 4-2.31v-3.7l-4 2.31v3.7Zm0-6.01 4-2.3a2 2 0 0 0-4 .09v2.21Z" fill="#A9ABB6"/>
</svg>
