<svg width="100" height="72" viewBox="0 0 100 72" xmlns="http://www.w3.org/2000/svg">
  <g fill-rule="nonzero" fill="none">
    <g transform="translate(28 6)">
      <path d="M2 15a1 1 0 0 1-2 0V5a5 5 0 0 1 5-5h54a5 5 0 0 1 5 5v36a5 5 0 0 1-5 5H49a1 1 0 0 1 0-2h10a3 3 0 0 0 3-3V5a3 3 0 0 0-3-3H5a3 3 0 0 0-3 3v10z" fill="#CBD1D3"/>
      <path d="M4 2h56a2 2 0 0 1 2 2v4H2V4a2 2 0 0 1 2-2z" fill="#EEF0F1"/>
      <path d="M49 30h6a1 1 0 0 1 0 2h-6a1 1 0 0 1 0-2z" fill="#CBD1D3"/>
      <rect fill="#CBD1D3" x="14" y="22" width="26" height="2" rx="1"/>
      <rect fill="#CBD1D3" x="8" y="22" width="4" height="2" rx="1"/>
      <path d="M15 14h36a1 1 0 0 1 0 2H15a1 1 0 0 1 0-2z" fill="#CBD1D3"/>
      <rect fill="#CBD1D3" x="8" y="14" width="4" height="2" rx="1"/>
    </g>
    <g transform="translate(8 26)">
      <path d="M4 2a2 2 0 0 0-2 2v38a2 2 0 0 0 2 2h56a2 2 0 0 0 2-2V4a2 2 0 0 0-2-2H4zm0-2h56a4 4 0 0 1 4 4v38a4 4 0 0 1-4 4H4a4 4 0 0 1-4-4V4a4 4 0 0 1 4-4z" fill="#CBD1D3"/>
      <path d="M4 2h56a2 2 0 0 1 2 2v4H2V4a2 2 0 0 1 2-2z" fill="#EEF0F1"/>
      <path d="M15 32h40a1 1 0 0 1 0 2H15a1 1 0 0 1 0-2z" fill="#CBD1D3"/>
      <rect fill="#CBD1D3" x="8" y="32" width="4" height="2" rx="1"/>
      <rect fill="#CBD1D3" x="14" y="24" width="30" height="2" rx="1"/>
      <rect fill="#CBD1D3" x="8" y="24" width="4" height="2" rx="1"/>
      <path d="M15 16h36a1 1 0 0 1 0 2H15a1 1 0 0 1 0-2z" fill="#CBD1D3"/>
      <rect fill="#CBD1D3" x="8" y="16" width="4" height="2" rx="1"/>
    </g>
  </g>
</svg>
