<svg width="100" height="72" viewBox="0 0 100 72" fill="none" xmlns="http://www.w3.org/2000/svg">
  <path d="M30 21a1 1 0 1 1-2 0V11a5 5 0 0 1 5-5h54a5 5 0 0 1 5 5v36a5 5 0 0 1-5 5H77a1 1 0 1 1 0-2h10a3 3 0 0 0 3-3V11a3 3 0 0 0-3-3H33a3 3 0 0 0-3 3v10Z" fill="#A9ABB6"/>
  <path d="M30 10c0-1.1.9-2 2-2h56a2 2 0 0 1 2 2v4H30v-4Z" fill="#E0E1E9"/>
  <path d="M76 37a1 1 0 0 1 1-1h6a1 1 0 1 1 0 2h-6a1 1 0 0 1-1-1Z" fill="#A9ABB6"/>
  <rect x="42" y="28" width="26" height="2" rx="1" fill="#A9ABB6"/>
  <rect x="36" y="28" width="4" height="2" rx="1" fill="#A9ABB6"/>
  <path d="M42 21a1 1 0 0 1 1-1h36a1 1 0 1 1 0 2H43a1 1 0 0 1-1-1Z" fill="#A9ABB6"/>
  <rect x="36" y="20" width="4" height="2" rx="1" fill="#A9ABB6"/>
  <path fill-rule="evenodd" clip-rule="evenodd" d="M68 26H12a4 4 0 0 0-4 4v38a4 4 0 0 0 4 4h56a4 4 0 0 0 4-4V30a4 4 0 0 0-4-4Zm-58 4c0-1.1.9-2 2-2h56a2 2 0 0 1 2 2v38a2 2 0 0 1-2 2H12a2 2 0 0 1-2-2V30Z" fill="#A9ABB6"/>
  <path d="M10 30c0-1.1.9-2 2-2h56a2 2 0 0 1 2 2v4H10v-4Z" fill="#E0E1E9"/>
  <path d="M22 59a1 1 0 0 1 1-1h40a1 1 0 1 1 0 2H23a1 1 0 0 1-1-1Z" fill="#A9ABB6"/>
  <rect x="16" y="58" width="4" height="2" rx="1" fill="#A9ABB6"/>
  <rect x="22" y="50" width="30" height="2" rx="1" fill="#A9ABB6"/>
  <rect x="16" y="50" width="4" height="2" rx="1" fill="#A9ABB6"/>
  <path d="M22 43a1 1 0 0 1 1-1h36a1 1 0 1 1 0 2H23a1 1 0 0 1-1-1Z" fill="#A9ABB6"/>
  <rect x="16" y="42" width="4" height="2" rx="1" fill="#A9ABB6"/>
</svg>
