<svg xmlns="http://www.w3.org/2000/svg" width="80" height="80" fill="none" viewBox="0 0 80 80">
  <path fill="#E0E1E9" d="M40.53 75.1C62.51 74.8 80 56.47 80 34.5V18.99a.99.99 0 0 0-.98-1H53.34v-14a1 1 0 0 0-1-.99H27.67a1 1 0 0 0-1 1v6.49H1a1 1 0 0 0-1 1V35.1a40 40 0 0 0 40.53 40"/>
  <path fill="#E0E1E9" stroke="#6C6E79" stroke-linecap="round" stroke-linejoin="round" stroke-width=".7" d="m62.84 55.47.13-.08 6.52-4.34-3.15-1.7-3.14.75-8.32-31.76a5.74 5.74 0 0 0-6.7-4.17L8.5 22.27l-1.4-3.13-3.42 5.9-.22.37v.02A5.7 5.7 0 0 0 3 29.7l10.46 36.73a2.6 2.6 0 0 0 3.2 1.8l45.38-12.36c.27-.08.52-.2.74-.35l.06-.05h0Z"/>
  <path fill="#fff" d="m68.71 51.41-47.8 13.03a2.74 2.74 0 0 1-3.35-1.9L6.54 23.86a6.04 6.04 0 0 1 4.6-7.57l42.98-8.77a6.04 6.04 0 0 1 7.05 4.38l9.47 36.17a2.74 2.74 0 0 1-1.93 3.34Z"/>
  <path fill="#6C6E79" d="M62.38 16.59 7.86 28.56l-1.34-4.7a6.04 6.04 0 0 1 4.6-7.57L54.1 7.52a6.04 6.04 0 0 1 7.05 4.38l1.23 4.68Z"/>
  <path fill="#fff" d="M15.2 21.2a1.87 1.87 0 0 1-1.41 2.37 2.18 2.18 0 0 1-2.53-1.54 1.88 1.88 0 0 1 1.43-2.37 2.2 2.2 0 0 1 2.52 1.53v.01Z"/>
  <path fill="#E0E1E9" d="M22.2 19.72a1.85 1.85 0 0 1-1.4 2.35 2.15 2.15 0 0 1-2.48-1.53 1.84 1.84 0 0 1 1.4-2.34 2.16 2.16 0 0 1 2.48 1.52Z"/>
  <path fill="#6C6E79" d="M7.88 28.65s.33-3.17.6-6.41l-1.37-3.1-3.42 5.9a4.1 4.1 0 0 0-.22.38v.02a5.7 5.7 0 0 0-.45 4.26l1.4 4.93 3.46-5.98Z"/>
  <path stroke="#6C6E79" stroke-linecap="round" stroke-linejoin="round" stroke-width=".7" d="m68.71 51.41-47.8 13.03a2.74 2.74 0 0 1-3.35-1.9L6.54 23.86a6.04 6.04 0 0 1 4.6-7.57l42.98-8.77a6.04 6.04 0 0 1 7.05 4.38l9.47 36.17a2.74 2.74 0 0 1-1.93 3.34v0Z"/>
  <path stroke="#6C6E79" stroke-linecap="round" stroke-linejoin="round" stroke-width=".7" d="M24.68 63.2V31.21h11.74v28.99m0-28.98L24.68 41.88m0 0 11.74 10.66M24.68 41.88h11.74M24.68 52.54h11.74m0 0L24.68 63.19"/>
  <path fill="#E0E1E9" stroke="#6C6E79" stroke-linecap="round" stroke-linejoin="round" stroke-width=".7" d="M20.55 31.23H15.4v4.2h5.15v-4.2Z"/>
  <path stroke="#E0E1E9" stroke-linecap="round" stroke-linejoin="round" stroke-width=".7" d="m30.55 11.24 33.12 14.07m-43.13 0 10-14.07"/>
  <path fill="#E0E1E9" stroke="#6C6E79" stroke-linecap="round" stroke-linejoin="round" stroke-width=".7" d="M30.55 7.68A2.45 2.45 0 0 1 33 10.13v15.18h-4.92V10.13a2.45 2.45 0 0 1 2.46-2.45h0Z"/>
  <path fill="#E0E1E9" stroke="#6C6E79" stroke-linecap="round" stroke-linejoin="round" stroke-width=".7" d="M73.96 25.3H13.57a2.96 2.96 0 0 0 0 5.93h60.39a2.96 2.96 0 1 0 0-5.92Z"/>
  <path fill="#6C6E79" d="m56.94 59.47-1.55.81a14.9 14.9 0 0 0-2.54 2.1 15.43 15.43 0 0 0-1.47 1.8 3.14 3.14 0 0 0-.54 1.78v9.67c0 .45.55.69.88.36l5.74-5.77-.52-10.75Zm13.47 0 1.54.81a14.9 14.9 0 0 1 2.54 2.1 15.43 15.43 0 0 1 1.47 1.8c.36.52.55 1.14.55 1.78v9.67a.52.52 0 0 1-.89.36l-5.74-5.77.53-10.75Z"/>
  <path fill="#fff" stroke="#6C6E79" stroke-linecap="round" stroke-linejoin="round" stroke-width=".7" d="M67.9 74.93c2.25-3.19 3.75-8.84 3.75-15.29 0-9.97-3.57-19.12-7.97-19.12s-7.98 9.15-7.98 19.12c0 6.45 1.5 12.1 3.76 15.3h8.45-.01Z"/>
  <path fill="#6C6E79" d="M63.67 56.25a4.44 4.44 0 1 0 0-8.87 4.44 4.44 0 0 0 0 8.87Z"/>
  <path fill="#E0E1E9" stroke="#6C6E79" stroke-linecap="round" stroke-linejoin="round" stroke-width=".7" d="M56.58 67.8c.66 2.93 1.64 5.4 2.86 7.13h8.46c1.23-1.74 2.2-4.21 2.87-7.12h-14.2Z"/>
  <path stroke="#6C6E79" stroke-linecap="round" stroke-linejoin="round" stroke-width=".7" d="M61.5 38.4a2.64 2.64 0 0 0 2.87 1.07 2.62 2.62 0 0 0 1.84-1.85 2.65 2.65 0 0 0-1.66-3.18 1.35 1.35 0 0 1-.88-1.27V31.2"/>
  <path fill="#fff" stroke="#6C6E79" stroke-linecap="round" stroke-linejoin="round" stroke-width=".7" d="m43.76 55.91.47 1.7a4.4 4.4 0 0 0 3.07 3.08l1.7.47-1.7.47a4.4 4.4 0 0 0-3.07 3.07l-.47 1.7-.47-1.7a4.4 4.4 0 0 0-3.07-3.07l-1.7-.47 1.7-.47a4.4 4.4 0 0 0 3.07-3.07l.47-1.71Zm31.1-50.04.38 1.34a3.46 3.46 0 0 0 2.42 2.42l1.34.38-1.34.37a3.46 3.46 0 0 0-2.42 2.42l-.38 1.34-.37-1.34a3.46 3.46 0 0 0-2.42-2.42l-1.34-.37 1.34-.38a3.46 3.46 0 0 0 2.42-2.42l.37-1.34Z"/>
</svg>
