<svg width="100" height="72" viewBox="0 0 100 72" fill="none" xmlns="http://www.w3.org/2000/svg">
  <path fill-rule="evenodd" clip-rule="evenodd" d="m61.34 17.52-13.37-4.76h25.3c1.6 0 2.95 1.04 2.95 2.38 0 1.34-1.36 2.38-2.95 2.38H61.34Zm-21.06 47.6h-2.6v5.96h5.84V68.4c0-1.8-1.45-3.27-3.24-3.27Zm29.52-4.16v-1.49c.39-2.24.59-4.52.59-6.8l-.06-2.18a4.23 4.23 0 0 1-3.24 1.55c-2.3 0-4.13-1.79-4.13-3.87 0-1.1.43-2.17 1.2-2.96a4.1 4.1 0 0 1 5.64-.2v-4.87h3.47a43.24 43.24 0 0 1 .89 20.82H69.8Zm-9.37.03-.06-.3a30.02 30.02 0 0 1-.88-5.35h-.3l-1.77 1.78a6.79 6.79 0 0 0-1.76 4.47v9.22l5.8-5.86c.42 1.19.9 2.35 1.47 3.48h1.27c.47 1.78 1.48 2.68 3.03 2.68 1.56 0 2.5-.9 2.86-2.68h1.42a32.8 32.8 0 0 0 1.53-3.57l5.89 5.95v-9.22a6.79 6.79 0 0 0-1.77-4.47l-1.77-1.78h-.29a30.03 30.03 0 0 1-.94 5.65H60.43Zm13.73 0v.02V61Z" fill="#E0E1E9"/>
  <path fill-rule="evenodd" clip-rule="evenodd" d="M70.56 45.94a4.1 4.1 0 0 0-4.45 1.5 4.2 4.2 0 0 0-.17 4.75 4.16 4.16 0 0 1-2.97-4 4.1 4.1 0 0 1 7.6-2.25Z" fill="#F4F5F9"/>
  <path fill-rule="evenodd" clip-rule="evenodd" d="M40.34 18.15v46.41a3.86 3.86 0 0 1 3.83 3.87v2.68a.6.6 0 0 1-.6.6H25.9a.6.6 0 0 1-.59-.6v-2.68a3.8 3.8 0 0 1 3.54-3.87V49.63a.6.6 0 0 1 0-.57V28.2a.6.6 0 0 1 0-.53v-9.52H25.9v2.68c0 .82-.66 1.48-1.47 1.48h-2.95c-.81 0-1.47-.66-1.47-1.48v-2.68h-.94c-1.68 0-3.54-1.13-3.54-2.98 0-1.84 1.83-2.97 3.56-2.94h3.54v-.03l8.87-9.08c.3-1.6 1.56-3 3.24-2.82a3.32 3.32 0 0 1 2.89 2.97l24.65 8.93h11c1.64 0 3.53 1.13 3.53 2.97 0 1.85-1.89 2.98-3.54 2.98H70.1v2.68a2.67 2.67 0 0 1-2.06 2.56v4.6c2.44.4 4.6 2.9 6.07 7.18a.6.6 0 0 1-.06.54.59.59 0 0 1-.47.26H61.49c-.2 0-.38-.1-.5-.25a.6.6 0 0 1-.06-.55c1.5-4.29 3.62-6.85 5.92-7.2V23.5a2.7 2.7 0 0 1-2.36-2.67v-2.68H40.34Zm-1.18 42.72-3.45 3.7h3.45v-3.7Zm-9.14-.47h6.49c.76 0 .76-1.2 0-1.2h-6.49v-8.32l8.55 8.92-4.48 4.76h-4.07V60.4Zm6.49-21.13h-6.49v8.54l8.55-9.13-8.55-9.2v8.6h6.49c.76 0 .76 1.2 0 1.2Zm2.65 9.23h-6.78c-.76 0-.76 1.19 0 1.19h6.78v8.98l-8.99-9.34 8.99-9.58v8.75Zm-6.78-21.13h6.78v-8.5l-8.96 9.1 8.96 9.55v-8.96h-6.78c-.76 0-.76-1.19 0-1.19Zm40.33 7.44h-10.4c1.3-3.27 2.95-5.33 4.66-5.62.31-.05.63-.05.94 0 1.8.35 3.54 2.35 4.8 5.62Zm-7.04-13.98c0 1.99 3.24 1.9 3.24 0v-2.68h-3.24v2.68Zm-33-17.05c0-1.1.74-2.38 1.98-2.3 1.18.13 1.86 1.2 1.86 2.3v8.42h-3.83V3.78ZM31.5 12.2V4.88l-7.25 7.32h7.25Zm-14.8 2.97c0-.98 1.07-1.78 2.37-1.78H41.5c.77 0 .77-1.2 0-1.2h-3.83V4.6l21.1 7.6H45.05c-.77 0-.77 1.2 0 1.2h28.22c.98 0 2.36.6 2.36 1.78 0 1.2-1.38 1.79-2.36 1.79H39.9a.58.58 0 0 0-.44 0H19.07c-1.3 0-2.36-.8-2.36-1.79Zm7.73 5.95a.3.3 0 0 0 .3-.3v-2.67h-3.54v2.68c0 .16.13.3.3.3h2.94Zm13.78-2.97-8.19 8.27v-8.27h8.2ZM26.5 68.43v2.08h16.5v-2.08c0-.71-.27-1.4-.77-1.9a2.6 2.6 0 0 0-1.88-.78h-11.2a2.66 2.66 0 0 0-2.65 2.68ZM71.8 48.15c-.01-4.21-5.25-6.34-8.16-3.28-3 3.18-.18 8.24 4.04 7.73 2.17-.3 4.11-2.13 4.12-4.45Zm0 0v-.01.03-.02Zm-4.95-3.56a3.56 3.56 0 0 0-3.3 3.58v-.03c0 2 1.92 3.4 3.77 3.27 1.89-.12 3.5-1.75 3.27-3.72a3.54 3.54 0 0 0-3.74-3.1Zm8.96 10.33a.59.59 0 0 0-.24-.15c.28-5-.31-10-1.77-14.78a.59.59 0 0 0-.53-.42H61.2a.59.59 0 0 0-.59.42 39.04 39.04 0 0 0-1.35 6.4.6.6 0 0 0 .1.44c.1.13.24.22.4.24.75.09.87-1.22.95-2.1.03-.27.05-.5.08-.64.22-1.2.5-2.4.83-3.57h11.2a41.39 41.39 0 0 1 .88 19.64H60.9c-.3-1.18-.53-2.37-.68-3.57a42.18 42.18 0 0 1-.06-7.86.6.6 0 0 0-.54-.64.6.6 0 0 0-.64.55c-.16 1.98-.19 3.97-.08 5.95a.59.59 0 0 0-.12.1L57 56.7a7.42 7.42 0 0 0-1.94 4.88v9.22c0 .23.14.44.35.54.22.1.48.05.65-.12l5.18-5.18c.35.91.75 1.8 1.18 2.68.1.2.33.34.56.32h.8c.56 1.58 1.76 2.68 3.47 2.68 1.68 0 2.86-1.07 3.3-2.68h.97c.21 0 .4-.11.5-.3.47-.9.88-1.84 1.24-2.79l5.28 5.3c.17.17.42.21.64.12a.6.6 0 0 0 .36-.54v-9.22a7.42 7.42 0 0 0-1.95-4.88l-1.8-1.82ZM56.24 61.6v7.8l4.54-4.59c-.42-1.2-.77-2.44-1.06-3.69-.3-1.4-.53-2.82-.68-4.25l-.03-.48-1.17 1.16a6.16 6.16 0 0 0-1.6 4.05Zm11 8.92c-.71 0-1.63-.18-2.22-1.49h4.28c-.5 1.31-1.39 1.5-2.07 1.5Zm-3.92-2.68h7.8c.97-2 1.73-4.09 2.27-6.24H61.16c.26 1.04.57 2.06.95 3.06a.6.6 0 0 1 .03.36c.34.96.73 1.9 1.18 2.82Zm15.02 1.55-4.63-4.67c.47-1.26.83-2.55 1.1-3.87.38-1.46.64-2.95.79-4.46l1.12 1.16a6.2 6.2 0 0 1 1.62 4.05v7.8ZM18.18 53.82l-1.12-.36-.35-1.13-.35 1.13-1.12.33 1.12.36.35 1.16.32-1.16 1.15-.33Zm5.51-22.28 1.53.71-1.53.69-.7 1.54-.68-1.54-1.5-.72 1.5-.68.7-1.52.68 1.52Zm59.66-9.52 2.56-.8-2.6-.78-.76-2.62-.8 2.62-2.58.8 2.59.78.8 2.64.79-2.64ZM49.7 47.22l1.15.35-1.15.33-.32 1.16-.35-1.16-1.12-.36 1.12-.32.35-1.13.32 1.13Zm4.42-2.89 1.74-.77-1.74-.8-.76-1.73-.8 1.72-1.7.78 1.7.8.77 1.76.8-1.76Z" fill="#A9ABB6"/>
  <path d="M40.34 64.56h-.25v.25h.25v-.25Zm0-46.41v-.25h-.25v.25h.25Zm2.71 47.54-.17.17.17-.17Zm1.12 2.74h-.25.25Zm-18.86 0h.25-.25Zm3.54-3.87.01.25.24-.01v-.24h-.25Zm0-14.93h.25v-.07l-.03-.05-.22.12Zm0-.57.22.12.03-.06v-.06h-.25Zm0-20.86h.25v-.05l-.03-.06-.22.11Zm0-.53.22.11.03-.05v-.06h-.25Zm0-9.52h.25v-.25h-.25v.25Zm-2.95 0v-.25h-.25v.25h.25Zm-5.9 0h.26v-.25H20v.25Zm-.9-5.92v.25-.25Zm3.53 0v.25h.25v-.25h-.25Zm0-.03-.18-.18-.07.08v.1h.25Zm8.87-9.08.18.18.05-.06.01-.07-.24-.05ZM34.74.3l.03-.25-.03.25Zm2.89 2.97-.25.03.01.15.15.06.09-.24Zm24.65 8.93-.08.23.04.02h.04v-.25Zm7.81 5.95v-.25h-.25v.25h.25Zm0 2.68h.25-.25Zm-2.06 2.56-.06-.25-.2.05v.2h.26Zm0 4.6h-.25v.22l.21.03.04-.24Zm6.07 7.18-.24.08.24-.08Zm-.53.8v.25-.25Zm-12.08 0v-.25.25Zm-.5-.25-.2.14.2-.14Zm-.06-.55.23.08-.23-.08Zm5.92-7.2.04.24.21-.03v-.21h-.25Zm0-4.47h.25v-.22l-.22-.02-.03.24Zm-2.36-2.67h-.25.25Zm0-2.68h.25v-.25h-.25v.25ZM35.71 64.56l-.18-.17-.4.42h.58v-.25Zm3.45-3.69h.25v-.63l-.43.46.18.17Zm0 3.7v.24h.25v-.25h-.25Zm-9.14-4.17v-.25h-.25v.25h.25Zm0-1.2h-.25v.26h.25v-.25Zm0-8.32.19-.18-.44-.45v.63h.25Zm8.55 8.92.18.17.16-.17-.16-.17-.18.17Zm-4.48 4.76v.25h.1l.08-.08-.18-.17Zm-4.07 0h-.25v.25h.25v-.25Zm0-25.29v-.25h-.25v.25h.25Zm0 8.54h-.25v.63l.44-.46-.19-.17Zm8.55-9.13.18.17.16-.17-.16-.17-.18.17Zm-8.55-9.2.19-.17-.44-.46v.63h.25Zm0 8.6h-.25v.25h.25v-.25Zm9.14 10.42v.25h.25v-.25h-.25Zm0 1.19h.25v-.25h-.25v.25Zm0 8.98-.18.17.43.45v-.62h-.25Zm-8.99-9.34-.18-.17-.16.17.16.17.18-.17Zm8.99-9.58h.25v-.63l-.43.46.18.17Zm0-12.38v.25h.25v-.25h-.25Zm0-8.5h.25v-.62l-.43.44.18.17Zm-8.96 9.1-.18-.18-.16.17.16.18.18-.17Zm8.96 9.55-.18.17.43.46v-.63h-.25Zm0-8.96h.25v-.25h-.25v.25Zm23.15 6.25-.23-.1-.13.35h.36v-.25Zm10.4 0v.25h.37l-.13-.34-.24.09Zm-5.74-5.62-.04-.25.04.25Zm.94 0 .05-.25h-.01l-.04.25Zm1-11.04h.25v-.25h-.25v.25Zm-3.24 0v-.25h-.25v.25h.25ZM34.65 1.49l.03-.25h-.01l-.02.25Zm1.86 10.7v.26h.25v-.25h-.25Zm-3.83 0h-.25v.26h.25v-.25ZM31.5 4.89h.25v-.6l-.43.42.18.18Zm0 7.32v.25h.25v-.25h-.25Zm-7.25 0-.18-.18-.42.43h.6v-.25Zm13.43 0h-.25v.25h.25v-.25Zm0-7.62.09-.23-.34-.12v.35h.25Zm21.1 7.62v.25l.08-.49-.08.24Zm-18.89 4.76-.09.23.05.02h.04v-.25Zm-.44 0v.25h.05l.05-.02-.1-.23Zm-14.73 1.19h.25v-.25h-.25v.25Zm-3.53 0v-.25h-.25v.25h.25Zm8.83 8.27h-.25v.6l.43-.42-.18-.18Zm8.2-8.27.17.17.42-.42h-.6v.25Zm-8.2 0v-.25h-.25v.25h.25ZM26.5 70.5h-.25v.25h.25v-.25Zm0-2.08h.25-.25Zm16.5 2.08v.25h.25v-.25h-.25Zm0-2.08h-.25.25Zm-.77-1.9.18-.18-.18.18Zm-1.88-.78V66v-.25Zm-11.2 0V66v-.25Zm-1.88.78-.18-.18.18.18Zm36.38-21.66-.18-.18.18.18Zm4.04 7.73.03.25-.03-.25Zm4.12-4.46h.25-.5.25Zm0 .03h-.25.5-.25Zm-8.25 0h-.25.5-.25Zm3.3-3.58-.02-.25.02.25Zm.47 6.82-.01-.25.01.25Zm3.27-3.72.25-.03-.25.03Zm4.98 7.08-.25-.01v.19l.17.06.08-.24Zm.24.15-.18.18.18-.18ZM73.8 40l.23-.08-.24.08Zm-.54-.42.02-.25h-.02v.25Zm-12.08 0v.25-.25Zm-.59.42-.23-.08.23.08Zm-1.35 6.4.25.03-.25-.04Zm.1.44.2-.15-.2.15Zm.4.24-.03.25.03-.25Zm.95-2.1.25.02-.25-.02Zm.08-.64.24.06v-.02l-.24-.04Zm.83-3.57v-.25h-.2l-.04.18.24.07Zm11.2 0 .23-.07-.05-.18h-.19v.25Zm.88 19.64v.25h.2l.04-.2-.24-.05Zm-12.79 0-.24.06.05.19h.19v-.25Zm-.68-3.57-.25.02.25-.02Zm-.06-7.86.25.02-.25-.02Zm-1.18-.09.25.02-.25-.02Zm-.08 5.95.12.22.13-.08v-.15l-.25.01Zm-.12.1-.18-.19.18.18ZM57 56.7l-.18-.18.18.18Zm-1.94 4.88h-.25.25Zm0 9.22h-.25.25Zm.35.54.1-.23-.1.23Zm.65-.12.17.17-.17-.17Zm5.18-5.18.24-.09-.14-.36-.27.27.17.18Zm1.18 2.68.23-.11-.23.1Zm.56.32v-.25h-.01l.01.25Zm.8 0 .23-.08-.06-.17h-.17v.25Zm6.77 0v-.25h-.19l-.05.19.24.06Zm.97 0v.25-.25Zm.5-.3.22.13v-.01l-.21-.11Zm1.24-2.79.18-.18-.27-.27-.14.36.23.09Zm5.28 5.3-.18.17.18-.17Zm.64.12-.1-.23.1.23Zm.36-.54h.25-.25Zm0-9.22h.25-.25Zm-1.95-4.88.19-.17-.19.17ZM56.24 69.38H56V70l.43-.43-.18-.18Zm0-7.8H56h.25Zm4.54 3.22.18.18.1-.11-.04-.15-.24.08Zm-1.06-3.69-.24.05.24-.05Zm-.68-4.25-.25.01v.01l.25-.02Zm-.03-.48.25-.02-.03-.54-.4.38.18.18Zm-1.17 1.16-.18-.18-.01.01.19.17Zm7.18 11.48v-.25h-.38l.16.36.22-.1Zm4.28 0 .23.1.13-.35h-.36v.25Zm1.82-1.19v.25h.16l.07-.14-.23-.1Zm-7.8 0-.23.11.07.14h.16v-.25Zm10.07-6.24.24.06.08-.31h-.32v.25Zm-12.23 0v-.25h-.31l.07.3.24-.05Zm.95 3.06-.24.09.24-.09Zm.03.36-.25-.06-.01.07.02.07.24-.08Zm11.57-.3-.23-.09-.05.15.1.12.18-.18Zm4.63 4.67-.18.18.43.43v-.6h-.25Zm-3.53-8.54-.25-.06v.01l.25.05Zm.79-4.46.18-.17-.38-.4-.05.55.25.02Zm1.12 1.16.18-.17-.18.17Zm1.62 4.05h.25-.25Zm-61.28-8.13-.24.08.04.12.13.04.07-.24Zm1.12.36.07.24.8-.23-.8-.25-.07.24Zm-1.47-1.49.24-.07-.24-.76-.24.76.24.07Zm-.35 1.13.07.24.12-.03.04-.13-.23-.08Zm-1.12.33-.07-.24-.79.23.78.25.08-.24Zm1.12.36.23-.07-.03-.13-.13-.04-.07.24Zm.35 1.16-.24.07.25.82.23-.82-.24-.07Zm.32-1.16-.07-.24-.13.04-.04.13.24.07Zm8.2-21.9.1.23.5-.22-.5-.24-.1.23Zm-1.54-.71-.23.1.04.08.09.04.1-.22Zm0 1.4-.1-.23-.09.04-.04.08.23.1Zm-.7 1.54-.24.1.23.51.23-.5-.23-.1Zm-.68-1.54.23-.1-.04-.09-.09-.04-.1.23Zm-1.5-.72L20.7 32l-.49.23.49.23.1-.23Zm1.5-.68.1.22.08-.03.04-.09-.22-.1Zm.7-1.52.23-.1-.22-.5-.23.5.22.1Zm62.9-8.8.08.23.78-.24-.79-.24-.07.24Zm-2.56.8-.08-.24-.12.04-.04.12.24.08Zm-.03-1.58-.24.07.04.13.13.04.07-.24Zm-.77-2.62.24-.07-.23-.8-.25.8.24.07Zm-.8 2.62.08.24.13-.04.04-.13-.24-.07Zm-2.58.8-.08-.24-.78.25.78.23.08-.24Zm2.59.78.24-.08-.04-.12-.13-.04-.07.24Zm.8 2.64-.25.08.24.8.24-.8-.24-.08Zm-31.7 22.91.06.24.8-.23-.8-.25-.07.24Zm-1.16-.35-.24.07.04.13.13.04.07-.24Zm0 .68-.06-.24-.14.04-.04.13.24.07Zm-.32 1.16-.24.07.25.82.23-.82-.24-.07Zm-.35-1.16.24-.07-.04-.13-.13-.04-.07.24Zm-1.12-.36-.07-.24-.79.23.78.25.08-.24Zm1.12-.32.07.24.13-.04.04-.13-.24-.07Zm.35-1.13.24-.07-.23-.8-.25.8.24.07Zm6.48-2.53.1.23.5-.23-.5-.23-.1.23Zm-1.74.77-.1-.23-.08.04-.04.09.22.1Zm0-1.58-.22.1.03.1.09.03.1-.23Zm-.76-1.72.23-.1-.23-.5-.23.5.23.1Zm-.8 1.72.1.23.09-.04.04-.08-.23-.1Zm-1.7.78-.11-.23-.5.22.5.23.1-.22Zm1.7.8.23-.1-.04-.09-.08-.04-.1.23Zm.77 1.76-.23.1.22.51.24-.51-.23-.1ZM40.59 64.56V18.15h-.5v46.41h.5Zm2.64.95a4.03 4.03 0 0 0-2.9-1.2v.5c.96 0 1.87.37 2.55 1.05l.35-.35Zm1.19 2.92a4.1 4.1 0 0 0-1.19-2.92l-.35.35a3.6 3.6 0 0 1 1.04 2.57h.5Zm0 2.68v-2.68h-.5v2.68h.5Zm-.84.84c.46 0 .84-.38.84-.84h-.5c0 .19-.16.34-.34.34v.5Zm-17.68 0h17.68v-.5H25.9v.5Zm-.84-.84c0 .46.37.84.84.84v-.5a.34.34 0 0 1-.34-.34h-.5Zm0-2.68v2.68h.5v-2.68h-.5Zm3.77-4.12a4.04 4.04 0 0 0-3.77 4.12h.5a3.54 3.54 0 0 1 3.3-3.62l-.03-.5Zm-.23-14.68v14.93h.5V49.63h-.5Zm.03-.69a.85.85 0 0 0 0 .8l.44-.23a.35.35 0 0 1 0-.33l-.44-.24Zm-.03-20.73v20.85h.5V28.2h-.5Zm.02-.65a.85.85 0 0 0 0 .76l.45-.23a.35.35 0 0 1 0-.3l-.45-.23Zm-.02-9.41v9.52h.5v-9.52h-.5Zm-2.7.25h2.95v-.5H25.9v.5Zm.25 2.43v-2.68h-.5v2.68h.5Zm-1.72 1.73c.95 0 1.72-.78 1.72-1.73h-.5c0 .68-.55 1.23-1.22 1.23v.5Zm-2.95 0h2.95v-.5h-2.95v.5Zm-1.72-1.73c0 .95.77 1.73 1.72 1.73v-.5c-.67 0-1.22-.55-1.22-1.23h-.5Zm0-2.68v2.68h.5v-2.68h-.5Zm-.7.25h.95v-.5h-.94v.5Zm-3.78-3.23c0 1.02.51 1.83 1.24 2.38a4.3 4.3 0 0 0 2.55.85v-.5a3.8 3.8 0 0 1-2.25-.75 2.46 2.46 0 0 1-1.04-1.98h-.5Zm3.82-3.2a4.24 4.24 0 0 0-2.59.83 2.94 2.94 0 0 0-1.23 2.37h.5c0-.83.4-1.5 1.03-1.97a3.74 3.74 0 0 1 2.28-.72v-.5Zm3.53 0h-3.54v.5h3.54v-.5Zm-.25.23v.03h.5v-.03h-.5Zm8.94-9.25-8.87 9.07.36.35 8.87-9.07-.36-.35Zm3.45-2.9c-1.86-.2-3.21 1.35-3.52 3.03l.5.09C32.01 1.64 33.2.39 34.7.55l.05-.5Zm3.1 3.2a3.57 3.57 0 0 0-3.1-3.2l-.06.5a3.07 3.07 0 0 1 2.67 2.75l.5-.05Zm24.5 8.71L37.7 3.04l-.17.47 24.66 8.92.17-.47Zm10.9-.01H62.28v.5h11v-.5Zm3.79 3.22c0-1.01-.52-1.83-1.25-2.38a4.3 4.3 0 0 0-2.54-.84v.5c.78 0 1.6.26 2.24.74a2.46 2.46 0 0 1 1.05 1.98h.5Zm-3.79 3.23c.88 0 1.82-.3 2.54-.85a2.96 2.96 0 0 0 1.25-2.38h-.5c0 .83-.42 1.5-1.05 1.98a3.8 3.8 0 0 1-2.24.75v.5Zm-3.18 0h3.18v-.5H70.1v.5Zm.25 2.43v-2.68h-.5v2.68h.5Zm-2.26 2.8a2.92 2.92 0 0 0 2.26-2.8h-.5a2.42 2.42 0 0 1-1.87 2.31l.11.49Zm.2 4.37v-4.61h-.5v4.6h.5Zm6.05 7.09c-1.47-4.3-3.67-6.93-6.26-7.34l-.08.5c2.3.36 4.4 2.73 5.87 7l.47-.16Zm-.08.75a.85.85 0 0 0 .08-.76l-.47.17c.04.1.03.23-.03.32l.42.27Zm-.67.38a.84.84 0 0 0 .67-.38l-.42-.27a.34.34 0 0 1-.27.15l.02.5Zm-12.1 0h12.09v-.5H61.49v.5Zm-.69-.36c.16.23.42.36.7.36v-.5a.34.34 0 0 1-.29-.15l-.4.3Zm-.1-.78c-.1.26-.05.55.1.78l.41-.29a.35.35 0 0 1-.04-.32l-.47-.17Zm6.12-7.36c-1.23.2-2.38.97-3.41 2.22a16.97 16.97 0 0 0-2.7 5.14l.46.17c.75-2.12 1.64-3.8 2.62-5 .99-1.19 2.04-1.87 3.1-2.04l-.07-.49Zm-.2-4.22v4.47h.5V23.5h-.5Zm-2.37-2.67c0 1.49 1.11 2.74 2.58 2.92l.06-.5a2.45 2.45 0 0 1-2.14-2.42h-.5Zm0-2.68v2.68h.5v-2.68h-.5Zm-23.9.25h24.15v-.5H40.34v.5Zm-4.45 46.33 3.45-3.69-.37-.34-3.44 3.7.36.33Zm3.27-.42H35.7v.5h3.45v-.5Zm-.25-3.44v3.7h.5v-3.7h-.5Zm-2.4-.72h-6.49v.5h6.49v-.5Zm0-.7c.12 0 .19.05.24.1.05.07.08.15.08.25s-.03.19-.08.25c-.05.05-.12.1-.24.1v.5a.8.8 0 0 0 .62-.28c.14-.16.2-.37.2-.57 0-.2-.06-.4-.2-.57a.8.8 0 0 0-.62-.27v.5Zm-6.49 0h6.49v-.5h-6.49v.5Zm-.25-8.57v8.33h.5v-8.33h-.5Zm8.98 8.75L30.2 50.7l-.37.35 8.55 8.92.36-.34Zm-4.48 5.1 4.48-4.76-.36-.34-4.48 4.76.36.34Zm-4.25.08h4.07v-.5h-4.07v.5Zm-.25-4.41v4.16h.5V60.4h-.5Zm.25-20.88h6.49v-.5h-6.49v.5Zm.25 8.3v-8.55h-.5v8.54h.5Zm8.12-9.31-8.55 9.13.37.34 8.54-9.13-.36-.34Zm-8.55-8.86 8.55 9.2.36-.34-8.54-9.2-.37.34Zm.43 8.43v-8.6h-.5v8.6h.5Zm6.24-.25h-6.49v.5h6.49v-.5Zm0 1.7a.8.8 0 0 0 .62-.28c.14-.16.2-.37.2-.57 0-.2-.06-.41-.2-.57a.8.8 0 0 0-.62-.28v.5c.12 0 .19.05.24.1.05.06.08.15.08.25s-.03.18-.08.24-.12.1-.24.1v.5Zm-4.13 9.22h6.78v-.5h-6.78v.5Zm0 .69c-.12 0-.2-.05-.24-.1a.38.38 0 0 1-.08-.25c0-.1.03-.19.08-.25.05-.05.12-.1.24-.1v-.5a.8.8 0 0 0-.62.28.88.88 0 0 0-.2.57c0 .2.06.41.2.57a.8.8 0 0 0 .62.28v-.5Zm6.78 0h-6.78v.5h6.78v-.5Zm.25 9.23V49.7h-.5v8.98h.5Zm-9.42-9.17 8.99 9.34.36-.34-8.99-9.34-.36.34Zm8.99-9.92-8.99 9.58.36.34 8.99-9.58-.36-.34Zm.43 8.92v-8.75h-.5v8.75h.5Zm-.25-21.38h-6.78v.5h6.78v-.5Zm-.25-8.26v8.51h.5v-8.5h-.5Zm-8.53 9.28 8.96-9.1-.36-.35-8.96 9.1.36.35Zm8.96 9.2-8.96-9.54-.36.34 8.96 9.55.36-.34Zm-.43-8.78v8.96h.5v-8.96h-.5Zm-6.53.25h6.78v-.5h-6.78v.5Zm0-1.69a.8.8 0 0 0-.62.27.88.88 0 0 0-.2.58c0 .2.06.4.2.57a.8.8 0 0 0 .62.27v-.5c-.12 0-.2-.04-.24-.1a.38.38 0 0 1-.08-.24c0-.1.03-.19.08-.25.05-.05.12-.1.24-.1v-.5Zm29.93 7.94h10.4v-.5h-10.4v.5Zm4.62-6.12a4.6 4.6 0 0 0-2.64 1.78c-.8.99-1.55 2.35-2.2 4l.46.18a14.64 14.64 0 0 1 2.13-3.86c.77-.93 1.56-1.47 2.33-1.6l-.08-.5Zm1.02 0a3.46 3.46 0 0 0-1.02 0l.08.5c.28-.05.58-.05.86 0l.08-.5Zm5 5.78c-.64-1.65-1.4-3-2.25-3.98a5.03 5.03 0 0 0-2.74-1.8l-.1.5c.83.16 1.67.7 2.46 1.63.8.92 1.53 2.21 2.16 3.83l.47-.18Zm-4.29-13.9c0 .4-.16.7-.41.9-.25.2-.6.31-.96.32-.36 0-.7-.1-.96-.3-.24-.2-.4-.5-.4-.91h-.5c0 .57.23 1.01.6 1.3a2 2 0 0 0 1.27.4c.45 0 .9-.14 1.26-.43s.6-.72.6-1.27h-.5Zm0-2.67v2.68h.5v-2.68h-.5Zm-2.99.25h3.24v-.5h-3.24v.5Zm.25 2.43v-2.68h-.5v2.68h.5ZM34.67 1.23c-.72-.04-1.3.3-1.67.8-.37.5-.57 1.15-.57 1.75h.5c0-.5.17-1.04.47-1.44.3-.4.72-.64 1.23-.6l.04-.5Zm2.09 2.55c0-1.19-.74-2.4-2.08-2.54l-.05.5c1 .1 1.63 1.02 1.63 2.04h.5Zm0 8.42V3.78h-.5v8.42h.5Zm-4.08.25h3.83v-.5h-3.83v.5Zm-.25-8.67v8.42h.5V3.78h-.5Zm-1.18 1.1v7.32h.5V4.88h-.5Zm-6.82 7.5 7.25-7.32-.36-.36-7.25 7.32.36.35Zm7.07-.43h-7.25v.5h7.25v-.5Zm-12.43 1.19c-.7 0-1.35.21-1.82.57s-.8.88-.8 1.46h.5c0-.4.22-.77.6-1.06.38-.29.92-.47 1.52-.47v-.5Zm22.44 0H19.07v.5H41.5v-.5Zm0-.7c.13 0 .2.05.25.1.05.07.08.16.08.25 0 .1-.03.19-.08.25-.05.05-.13.1-.25.1v.5a.8.8 0 0 0 .63-.27c.14-.17.2-.38.2-.58 0-.2-.06-.4-.2-.57a.8.8 0 0 0-.63-.27v.5Zm-3.83 0h3.83v-.5h-3.83v.5Zm-.25-7.86v7.62h.5V4.58h-.5Zm21.43 7.38L37.77 4.35l-.17.47 21.1 7.61.16-.47Zm-13.81.49h13.73v-.5H45.05v.5Zm0 .69c-.12 0-.2-.05-.24-.1a.38.38 0 0 1-.08-.25c0-.1.03-.18.08-.24s.12-.1.24-.1v-.5a.8.8 0 0 0-.62.27.88.88 0 0 0-.2.57c0 .2.06.41.2.58a.8.8 0 0 0 .62.27v-.5Zm28.22 0H45.05v.5h28.22v-.5Zm2.61 2.03c0-.7-.42-1.22-.93-1.55a3.26 3.26 0 0 0-1.68-.48v.5c.45 0 .99.14 1.41.4.42.27.7.65.7 1.13h.5Zm-2.6 2.04c.52 0 1.16-.16 1.67-.49.51-.32.93-.84.93-1.55h-.5c0 .49-.28.86-.7 1.13-.42.27-.96.4-1.4.4v.5Zm-33.39 0h33.38v-.5H39.9v.5Zm-.34-.02a.33.33 0 0 1 .25 0l.19-.46a.83.83 0 0 0-.63 0l.19.46Zm-20.48.02h20.38v-.5H19.07v.5Zm-2.61-2.04c0 .59.32 1.1.79 1.46.47.36 1.12.58 1.82.58v-.5c-.6 0-1.14-.19-1.52-.48-.38-.28-.6-.66-.6-1.06h-.5Zm8.01 5.66c0 .03-.02.04-.04.04v.5c.3 0 .54-.24.54-.54h-.5Zm0-2.68v2.68h.5v-2.68h-.5Zm-3.28.25h3.53v-.5H21.2v.5Zm.25 2.43v-2.68h-.5v2.68h.5Zm.04.04a.05.05 0 0 1-.04-.04h-.5c0 .3.24.54.54.54v-.5Zm2.95 0h-2.95v.5h2.95v-.5Zm5.77 5.73 8.2-8.28-.36-.35-8.2 8.27.36.36Zm-.43-8.45v8.27h.5v-8.27h-.5Zm8.44-.25h-8.19v.5h8.2v-.5ZM26.74 70.5v-2.08h-.5v2.08h.5Zm16.25-.25h-16.5v.5h16.5v-.5Zm-.25-1.83v2.08h.5v-2.08h-.5Zm-.7-1.73c.45.46.7 1.08.7 1.73h.5c0-.78-.3-1.53-.84-2.08l-.36.35Zm-1.7-.7c.64 0 1.25.25 1.7.7l.36-.35a2.86 2.86 0 0 0-2.07-.85v.5Zm-11.2 0h11.2v-.5h-11.2v.5Zm-1.7.7c.45-.45 1.06-.7 1.7-.7v-.5c-.77 0-1.51.3-2.06.85l.36.35Zm-.7 1.73c0-.65.24-1.27.7-1.73l-.36-.35c-.55.55-.85 1.3-.84 2.08h.5Zm37.08-23.4c2.75-2.89 7.72-.87 7.73 3.12h.5c-.01-4.43-5.52-6.68-8.6-3.46l.37.35Zm3.83 7.32c-4.01.48-6.66-4.32-3.83-7.31l-.36-.35c-3.19 3.38-.17 8.7 4.25 8.16l-.06-.5Zm3.9-4.2c0 2.17-1.83 3.92-3.9 4.2l.06.5c2.28-.31 4.33-2.24 4.34-4.7h-.5Zm0-.01v.01h.5v-.01h-.5Zm.5.03v-.03h-.5v.03h.5Zm-.5-.02v.02h.5v-.02h-.5Zm-7.75.02a3.3 3.3 0 0 1 3.07-3.33l-.04-.5a3.8 3.8 0 0 0-3.53 3.83h.5Zm-.5-.03v.03h.5v-.03h-.5Zm4 3.02c-1.74.11-3.5-1.2-3.5-3.02h-.5c0 2.17 2.07 3.65 4.04 3.52l-.03-.5Zm3.04-3.44c.22 1.8-1.27 3.33-3.03 3.44l.03.5c2-.13 3.76-1.87 3.5-4l-.5.06Zm-3.47-2.88a3.3 3.3 0 0 1 3.47 2.88l.5-.06a3.8 3.8 0 0 0-4-3.32l.03.5ZM75.49 55c.05.02.1.05.14.09l.36-.35a.84.84 0 0 0-.34-.21l-.16.47Zm-1.93-14.95a42.36 42.36 0 0 1 1.76 14.7l.5.03a42.86 42.86 0 0 0-1.78-14.88l-.48.15Zm-.3-.24c.14 0 .26.1.3.24l.48-.15a.84.84 0 0 0-.75-.59l-.03.5Zm-12.07 0h12.08v-.5H61.2v.5Zm-.35.24a.34.34 0 0 1 .34-.24l.03-.5a.84.84 0 0 0-.84.6l.47.14Zm-1.34 6.35a38.8 38.8 0 0 1 1.34-6.35l-.47-.15A39.28 39.28 0 0 0 59 46.35l.5.06Zm.06.27a.35.35 0 0 1-.06-.26l-.5-.08c-.03.23.02.46.16.64l.4-.3Zm.23.14a.34.34 0 0 1-.23-.14l-.4.3c.13.18.33.3.56.34l.07-.5Zm.66-1.87c-.04.45-.09.96-.21 1.36-.07.2-.14.34-.22.42a.26.26 0 0 1-.24.09l-.06.5c.27.03.5-.07.66-.24.16-.17.26-.4.33-.62.15-.46.2-1.03.24-1.47l-.5-.04Zm.09-.68c-.04.16-.06.42-.09.68l.5.04.07-.6-.48-.12Zm.83-3.58a36.46 36.46 0 0 0-.83 3.6l.49.08c.21-1.2.48-2.37.82-3.54l-.48-.14Zm11.43-.18H61.6v.5h11.2v-.5Zm1.13 19.94c1.3-6.57.99-13.35-.89-19.76l-.48.14a41.14 41.14 0 0 1 .88 19.52l.5.1Zm-13.03.2h12.79v-.5H60.9v.5Zm-.93-3.8c.15 1.22.38 2.43.69 3.61l.48-.13a27 27 0 0 1-.67-3.53l-.5.06Zm-.06-7.9c-.22 2.63-.2 5.28.06 7.9l.5-.05c-.26-2.6-.28-5.2-.06-7.8l-.5-.05Zm-.31-.37c.18.02.33.18.31.37l.5.04a.85.85 0 0 0-.77-.9l-.04.5Zm-.37.32c.02-.2.18-.33.37-.32l.04-.5a.84.84 0 0 0-.9.78l.5.04Zm-.08 5.92c-.1-1.97-.08-3.95.08-5.92l-.5-.04c-.16 2-.19 4-.08 5.99l.5-.03Zm-.2.28a.34.34 0 0 1 .07-.05l-.25-.43a.84.84 0 0 0-.17.12l.35.36Zm-1.76 1.78 1.77-1.78-.36-.35-1.77 1.78.36.35Zm-1.87 4.71c.03-1.75.7-3.43 1.88-4.71l-.37-.34a7.67 7.67 0 0 0-2.01 5.04l.5.01Zm0 9.22v-9.22h-.5v9.22h.5Zm.2.3a.35.35 0 0 1-.2-.3h-.5c0 .33.2.63.5.76l.2-.45Zm.37-.06c-.1.1-.24.12-.37.07l-.2.45c.31.14.68.08.92-.17l-.35-.35Zm5.19-5.18-5.19 5.18.35.35 5.19-5.17-.35-.36Zm1.58 2.75c-.44-.87-.83-1.76-1.17-2.66l-.47.18c.35.92.75 1.82 1.19 2.7l.45-.22Zm.32.18a.34.34 0 0 1-.32-.18l-.45.22c.15.3.46.48.8.46l-.03-.5Zm.8 0H63v.5h.8v-.5Zm3.48 2.68c-1.58 0-2.7-1-3.24-2.5l-.47.16c.59 1.65 1.87 2.84 3.71 2.84v-.5Zm3.06-2.5c-.42 1.53-1.5 2.5-3.06 2.5v.5c1.81 0 3.08-1.16 3.54-2.86l-.48-.13Zm1.21-.18h-.97v.5h.97v-.5Zm.29-.17a.34.34 0 0 1-.29.17v.5c.3 0 .58-.16.72-.42l-.43-.25Zm1.22-2.76c-.36.95-.77 1.87-1.23 2.77l.45.23c.46-.92.88-1.86 1.25-2.82l-.47-.18Zm5.68 5.21-5.27-5.3-.35.36 5.27 5.3.35-.36Zm.37.07a.33.33 0 0 1-.37-.07l-.35.35c.25.25.61.31.93.17l-.2-.45Zm.2-.31c0 .13-.08.25-.2.3l.2.46c.3-.13.5-.43.5-.76h-.5Zm0-9.22v9.22h.5v-9.22h-.5Zm-1.87-4.71a7.17 7.17 0 0 1 1.88 4.71h.5a7.67 7.67 0 0 0-2.01-5.05l-.37.34Zm-1.8-1.81 1.8 1.81.36-.35-1.8-1.81-.35.35ZM56.5 69.38v-7.8H56v7.8h.5Zm4.11-4.76-4.53 4.59.35.35 4.54-4.58-.36-.36Zm-1.12-3.45c.29 1.25.64 2.5 1.07 3.71l.47-.16c-.42-1.2-.77-2.43-1.06-3.67l-.48.12Zm-.69-4.29c.16 1.44.38 2.87.69 4.28l.49-.1c-.3-1.4-.53-2.8-.68-4.23l-.5.05Zm-.03-.48.03.47.5-.03-.03-.48-.5.04Zm-.75 1.32 1.18-1.16-.35-.36-1.18 1.16.35.36Zm-1.52 3.87a5.91 5.91 0 0 1 1.53-3.88l-.37-.34a6.41 6.41 0 0 0-1.66 4.21l.5.01Zm8.3 7.54c.32.7.73 1.11 1.18 1.35.44.24.89.28 1.26.28v-.5c-.33 0-.69-.04-1.03-.22-.33-.18-.67-.5-.95-1.12l-.45.2Zm4.5-.36h-4.27v.5h4.28v-.5Zm-2.06 2c.36 0 .8-.05 1.22-.3.43-.23.81-.66 1.08-1.36l-.47-.17c-.23.6-.54.93-.85 1.1-.32.18-.66.22-.98.22v.5Zm3.9-3.19h-7.81v.5h7.8v-.5Zm2.02-6.05a31.63 31.63 0 0 1-2.25 6.2l.45.21a32.14 32.14 0 0 0 2.28-6.3l-.48-.11Zm-11.99.3H73.4v-.5H61.16v.5Zm1.18 2.73c-.37-.99-.68-2-.93-3.03l-.49.12c.26 1.05.57 2.08.95 3.09l.47-.18Zm.04.5a.85.85 0 0 0-.04-.5l-.46.19c.02.06.03.13.01.2l.5.11Zm1.16 2.67c-.44-.92-.83-1.85-1.17-2.8l-.47.16c.35.97.75 1.92 1.19 2.85l.45-.21Zm10-2.84 4.62 4.67.36-.35-4.63-4.68-.35.36Zm1.02-4.1a25.1 25.1 0 0 1-1.08 3.83l.47.18c.47-1.27.84-2.58 1.1-3.9l-.49-.1Zm.8-4.43c-.16 1.49-.42 2.97-.8 4.42l.49.13c.38-1.48.65-2.99.8-4.5l-.5-.05Zm1.54 1-1.12-1.15-.36.34 1.12 1.16.36-.34Zm1.69 4.22a6.44 6.44 0 0 0-1.69-4.2l-.36.33a5.94 5.94 0 0 1 1.55 3.88h.5Zm0 7.8v-7.8h-.5v7.8h.5ZM16.99 53.7l1.12.36.15-.48-1.12-.35-.15.47Zm-.52-1.3.35 1.14.48-.15-.35-1.13-.48.15Zm.12 1.14.36-1.13-.48-.15-.35 1.13.47.15Zm-1.28.5 1.12-.34-.14-.48-1.12.33.14.48Zm1.12-.13-1.12-.36-.15.48 1.12.36.15-.48Zm.52 1.33-.36-1.16-.47.14.35 1.16.48-.14Zm-.16-1.16-.32 1.16.48.14.32-1.16-.48-.14Zm1.32-.5-1.15.33.14.48 1.15-.33-.14-.48Zm7.22-21.56-1.53-.7-.21.44 1.53.72.2-.46Zm-1.54 1.14 1.53-.68-.2-.46-1.53.69.2.45Zm-.58 1.43.7-1.55-.45-.2-.7 1.54.45.2Zm-1.13-1.55.67 1.54.46-.2-.67-1.54-.46.2Zm-1.38-.6 1.5.72.21-.45-1.5-.71-.21.45Zm1.5-1.13-1.5.68.2.46 1.51-.69-.2-.45Zm.59-1.4-.71 1.52.45.21.71-1.51-.45-.22Zm1.13 1.53-.68-1.52-.45.2.67 1.52.46-.2Zm61.92-10.47-2.57.8.15.49 2.57-.8-.15-.49Zm-2.6-.3 2.6.78.14-.48-2.59-.77-.14.48Zm-.93-2.78.77 2.62.48-.14-.77-2.62-.48.14ZM82 20.51l.8-2.62-.49-.14-.8 2.62.49.14Zm-2.76.97 2.6-.8-.16-.48-2.59.8.15.48Zm2.59.3-2.6-.78-.14.48 2.6.78.14-.48Zm.96 2.81-.8-2.65-.47.15.8 2.65.47-.15Zm.32-2.65-.8 2.65.48.15.8-2.65-.48-.15Zm-32.18 25.4-1.15-.36-.15.48 1.15.35.15-.48Zm-1.16.8 1.15-.33-.14-.48-1.14.33.13.48Zm-.15.99.33-1.16-.49-.14-.32 1.16.48.14Zm-.83-1.16.35 1.16.48-.14-.35-1.16-.48.14Zm-.96-.19 1.12.36.15-.48-1.12-.35-.15.47Zm1.13-.8-1.12.32.14.48 1.12-.32-.14-.48Zm.18-.97-.35 1.13.48.15.35-1.13-.48-.15Zm.8 1.14-.32-1.13-.48.13.32 1.14.48-.14Zm5.82-3.82-1.74.77.2.46 1.74-.77-.2-.46Zm-1.74-.35 1.74.8.2-.45-1.73-.8-.21.45Zm-.9-1.85.78 1.73.45-.2-.76-1.73-.46.2Zm-.33 1.73.8-1.73-.46-.2-.8 1.72.46.2Zm-1.83.9 1.7-.78-.2-.45-1.71.77.2.46Zm1.7.34-1.7-.8-.21.45 1.7.8.22-.45Zm.9 1.89-.77-1.76-.46.2.77 1.76.46-.2Zm.34-1.76-.8 1.75.46.2.8-1.75-.46-.2Z" fill="#A9ABB6"/>
</svg>
