<svg width="100" height="72" viewBox="0 0 100 72" xmlns="http://www.w3.org/2000/svg">
  <g fill="none" fill-rule="evenodd">
    <path d="M13 2a1 1 0 0 1 1 1v68a1 1 0 0 1-2 0V3a1 1 0 0 1 1-1z" fill="#CBD1D3" fill-rule="nonzero"/>
    <path d="M13 70h65a1 1 0 0 1 0 2H13a1 1 0 0 1 0-2zM83 70h4a1 1 0 0 1 0 2h-4a1 1 0 0 1 0-2z" fill="#CBD1D3" fill-rule="nonzero"/>
    <path d="M83 70h4a1 1 0 0 1 0 2h-4a1 1 0 0 1 0-2zM64 41c6.627 0 12-5.373 12-12s-5.373-12-12-12-12 5.373-12 12 5.373 12 12 12zm0 2c-7.732 0-14-6.268-14-14s6.268-14 14-14 14 6.268 14 14-6.268 14-14 14z" fill="#CBD1D3" fill-rule="nonzero"/>
    <path d="M46 58c8.837 0 16-7.163 16-16s-7.163-16-16-16-16 7.163-16 16 7.163 16 16 16zm0 2c-9.941 0-18-8.059-18-18s8.059-18 18-18 18 8.059 18 18-8.059 18-18 18z" fill="#CBD1D3" fill-rule="nonzero"/>
    <path d="M46 58c8.837 0 16-7.163 16-16s-7.163-16-16-16-16 7.163-16 16 7.163 16 16 16z" fill="#EEF0F1" fill-rule="nonzero"/>
    <path d="M50.7 25a13.96 13.96 0 0 0-.7 4.358c0 7.715 6.242 13.97 13.95 13.997.018-.332.05-.66.05-.997C64 34.046 58.359 27.07 50.7 25m1.432 2.597c5.54 2.299 9.379 7.562 9.825 13.585C56.312 40.207 52 35.269 52 29.358c0-.589.044-1.177.132-1.761" fill="#CBD1D3"/>
    <path d="M52.132 27.597c5.54 2.299 9.379 7.562 9.825 13.585C56.312 40.207 52 35.269 52 29.358c0-.589.044-1.177.132-1.761" fill="#FFF" fill-rule="nonzero"/>
    <g fill="#CBD1D3" fill-rule="nonzero">
      <path d="M50.743 30.705l5.417-2.571 1 1.732-5.487 2.604a1 1 0 0 1-1.295-.403L50.34 32a.923.923 0 0 1 .403-1.295zM53.59 35.168l5.853-3.085a1 1 0 0 1 1.332.384l.02.033a.962.962 0 0 1-.385 1.332l-5.853 3.085a1 1 0 0 1-1.332-.384l-.02-.033a.962.962 0 0 1 .385-1.332zM57.47 38.875l4.038-2.47a.975.975 0 0 1 1.353.345l.013.022a1 1 0 0 1-.345 1.353l-4.037 2.47a.975.975 0 0 1-1.353-.345l-.013-.022a1 1 0 0 1 .345-1.353z"/>
    </g>
  </g>
</svg>
