<svg width="100" height="72" viewBox="0 0 100 72" fill="none" xmlns="http://www.w3.org/2000/svg">
  <path d="M12 3a1 1 0 1 1 2 0v68a1 1 0 1 1-2 0V3Z" fill="#A9ABB6"/>
  <path d="M12 71a1 1 0 0 1 1-1h65a1 1 0 1 1 0 2H13a1 1 0 0 1-1-1ZM82 71a1 1 0 0 1 1-1h4a1 1 0 1 1 0 2h-4a1 1 0 0 1-1-1Z" fill="#A9ABB6"/>
  <path d="M82 71a1 1 0 0 1 1-1h4a1 1 0 1 1 0 2h-4a1 1 0 0 1-1-1Z" fill="#A9ABB6"/>
  <path fill-rule="evenodd" clip-rule="evenodd" d="M50 29a14 14 0 1 0 28 0 14 14 0 0 0-28 0Zm26 0a12 12 0 1 1-24 0 12 12 0 0 1 24 0Z" fill="#A9ABB6"/>
  <path fill-rule="evenodd" clip-rule="evenodd" d="M28 42a18 18 0 1 0 36 0 18 18 0 0 0-36 0Zm34 0a16 16 0 1 1-32 0 16 16 0 0 1 32 0Z" fill="#A9ABB6"/>
  <path d="M46 58a16 16 0 1 0 0-32 16 16 0 0 0 0 32Z" fill="#E0E1E9"/>
  <path fill-rule="evenodd" clip-rule="evenodd" d="M50.7 25a14 14 0 0 0 13.25 18.35c.02-.33.05-.66.05-1A18 18 0 0 0 50.7 25Zm1.43 2.6a16.03 16.03 0 0 1 9.83 13.58 12.03 12.03 0 0 1-9.83-13.58Z" fill="#A9ABB6"/>
  <path d="M52.13 27.6a16.03 16.03 0 0 1 9.83 13.58 12.03 12.03 0 0 1-9.83-13.58Z" fill="#fff"/>
  <path d="M50.38 32.07a1 1 0 0 1 .44-1.4l5.34-2.54 1 1.74-5.49 2.6a1 1 0 0 1-1.29-.4ZM53.23 36.53a1 1 0 0 1 .4-1.38l5.81-3.07a1 1 0 0 1 .94 1.77l-5.82 3.07a1 1 0 0 1-1.34-.39ZM57.13 40.23a1 1 0 0 1 .34-1.35l4.02-2.46a1 1 0 0 1 1.04 1.7l-4.02 2.46a1 1 0 0 1-1.38-.35Z" fill="#A9ABB6"/>
</svg>
