<svg width="100" height="72" viewBox="0 0 100 72" fill="none" xmlns="http://www.w3.org/2000/svg">
  <path d="M12 71a1 1 0 0 1 1-1h65a1 1 0 1 1 0 2H13a1 1 0 0 1-1-1ZM82 71a1 1 0 0 1 1-1h4a1 1 0 1 1 0 2h-4a1 1 0 0 1-1-1Z" fill="#A9ABB6"/>
  <path fill-rule="evenodd" clip-rule="evenodd" d="M35 42h-6a4 4 0 0 0-4 4v20h14V46a4 4 0 0 0-4-4Zm2 22H27V46c0-1.1.9-2 2-2h6a2 2 0 0 1 2 2v18ZM71 32h-6a4 4 0 0 0-4 4v30h14V36a4 4 0 0 0-4-4Zm2 32H63V36c0-1.1.9-2 2-2h6a2 2 0 0 1 2 2v28ZM53 24h-6a4 4 0 0 0-4 4v38h14V28a4 4 0 0 0-4-4Zm2 40H45V28c0-1.1.9-2 2-2h6a2 2 0 0 1 2 2v36Z" fill="#A9ABB6"/>
  <path d="M45 64h10V28a2 2 0 0 0-2-2h-6a2 2 0 0 0-2 2v36Z" fill="#E0E1E9"/>
  <path d="M26.36 51.03a1 1 0 0 1 .4-1.38l9.55-5.06a1 1 0 1 1 .93 1.76l-9.55 5.06a1 1 0 0 1-1.33-.38ZM25.23 58.54a1 1 0 0 1 .4-1.39l11.82-6.08a1 1 0 0 1 .91 1.78l-11.8 6.08a1 1 0 0 1-1.33-.39ZM26.13 65.24a1 1 0 0 1 .36-1.36l11-6.48a1 1 0 0 1 1.02 1.72l-11 6.48a1 1 0 0 1-1.38-.36Z" fill="#A9ABB6"/>
</svg>
