<svg width="100" height="72" viewBox="0 0 100 72" xmlns="http://www.w3.org/2000/svg">
  <g fill-rule="nonzero" fill="none">
    <path d="M13 70h65a1 1 0 0 1 0 2H13a1 1 0 0 1 0-2zM83 70h4a1 1 0 0 1 0 2h-4a1 1 0 0 1 0-2zM27 64h10V46a2 2 0 0 0-2-2h-6a2 2 0 0 0-2 2v18zm2-22h6a4 4 0 0 1 4 4v20H25V46a4 4 0 0 1 4-4zM63 64h10V36a2 2 0 0 0-2-2h-6a2 2 0 0 0-2 2v28zm2-32h6a4 4 0 0 1 4 4v30H61V36a4 4 0 0 1 4-4zM45 64h10V28a2 2 0 0 0-2-2h-6a2 2 0 0 0-2 2v36zm2-40h6a4 4 0 0 1 4 4v38H43V28a4 4 0 0 1 4-4z" fill="#CBD1D3"/>
    <path d="M45 64h10V28a2 2 0 0 0-2-2h-6a2 2 0 0 0-2 2v36z" fill="#EEF0F1"/>
    <g fill="#CBD1D3">
      <path d="M26.723 49.666l9.585-5.08a1 1 0 0 1 1.334.383l.018.031a.964.964 0 0 1-.383 1.334l-9.585 5.08a1 1 0 0 1-1.334-.383L26.34 51a.964.964 0 0 1 .383-1.334zM25.595 57.176l11.852-6.106a1 1 0 0 1 1.324.39l.023.04a.953.953 0 0 1-.389 1.324L26.553 58.93a1 1 0 0 1-1.324-.39l-.023-.04a.953.953 0 0 1 .389-1.324zM26.492 63.88L37.5 57.393a.991.991 0 0 1 1.361.358l.005.008a1 1 0 0 1-.358 1.361L27.5 65.61a.991.991 0 0 1-1.361-.359l-.005-.008a1 1 0 0 1 .358-1.361z"/>
    </g>
  </g>
</svg>
