<svg width="100" height="72" viewBox="0 0 100 72" xmlns="http://www.w3.org/2000/svg">
  <g fill="none" fill-rule="evenodd">
    <path d="M78.156 67.836L51.718 21.859c-1.228-1.257-2.208-1.257-3.436 0L21.858 67.813c-.423 1.593.02 2.187 1.475 2.187h53.334c1.367 0 1.892-.76 1.489-2.164zM80 67.031c.86 2.61-.34 4.969-3.333 4.969H23.333C20.34 72 19.14 69.936 20 67.031l26.667-46.375c2.136-2.32 4.53-2.32 6.666 0L80 67.031z" fill="#CBD1D3" fill-rule="nonzero"/>
    <path d="M69 61.42L52.111 32.049c-1.353-1.47-2.87-1.47-4.222 0L31 61.419c-.545 1.84.215 3.148 2.111 3.148H66.89c1.896 0 2.656-1.494 2.111-3.147z" fill="#FFF"/>
    <path d="M40.605 66.25a1 1 0 1 1 0-2h3.382a1 1 0 0 1 0 2h-3.382zm-7.56-2h3.4a1 1 0 1 1 0 2h-3.4c-2.543 0-3.784-1.925-3.05-4.402a1 1 0 0 1 .091-.214l16.737-29.107.132-.18c1.737-1.886 3.918-1.886 5.655 0l.132.18 16.737 29.107.083.185c.77 2.339-.525 4.432-3.042 4.432H47.463a1 1 0 1 1 0-2H66.52c1.048 0 1.484-.658 1.17-1.715l-16.624-28.91c-.89-.924-1.677-.924-2.567 0L31.88 62.523c-.319 1.182.064 1.727 1.164 1.727z" fill="#CBD1D3" fill-rule="nonzero"/>
    <path d="M50 55a2 2 0 1 1 0 4 2 2 0 0 1 0-4zm0-12a2 2 0 0 1 2 2v6a2 2 0 1 1-4 0v-6a2 2 0 0 1 2-2z" fill="#CBD1D3" fill-rule="nonzero"/>
  </g>
</svg>
