<svg width="100" height="72" viewBox="0 0 100 72" fill="none" xmlns="http://www.w3.org/2000/svg">
  <path d="M36.45 64.25h-3.4c-1.1 0-1.49-.54-1.17-1.73l16.62-28.9c.89-.92 1.68-.92 2.57 0l16.62 28.92c.31 1.05-.12 1.71-1.17 1.71H47.46a1 1 0 0 0 0 2h19.06c2.52 0 3.81-2.1 3.04-4.43l-.08-.19-16.74-29.1-.13-.18c-1.74-1.89-3.92-1.89-5.66 0l-.13.18-16.73 29.1a1 1 0 0 0-.1.22c-.73 2.47.51 4.4 3.06 4.4h3.4a1 1 0 1 0 0-2Z" fill="#A9ABB6"/>
  <path d="M39.6 65.25a1 1 0 0 0 1 1H44a1 1 0 1 0 0-2H40.6a1 1 0 0 0-1 1ZM48 45a2 2 0 1 1 4 0v6a2 2 0 1 1-4 0v-6ZM50 59a2 2 0 1 0 0-4 2 2 0 0 0 0 4Z" fill="#A9ABB6"/>
  <path fill-rule="evenodd" clip-rule="evenodd" d="M76.67 72c2.99 0 4.19-2.36 3.33-4.97L53.33 20.66c-2.13-2.32-4.53-2.32-6.66 0L20 67.03c-.86 2.9.34 4.97 3.33 4.97h53.34ZM51.72 21.86l26.44 45.98c.4 1.4-.13 2.16-1.5 2.16H23.34c-1.45 0-1.9-.6-1.47-2.19l26.42-45.95c1.23-1.26 2.21-1.26 3.44 0Z" fill="#A9ABB6"/>
</svg>
