<svg width="380" height="375" viewBox="0 0 380 375" fill="none" xmlns="http://www.w3.org/2000/svg">
<g clip-path="url(#clip0)">
<path d="M196.057 4.81505V16.321C103.452 16.321 28.4357 91.3883 28.4357 183.943H16.9298C14.5982 183.943 12.7228 185.818 12.7735 188.15C15.0037 286.026 93.9739 364.996 191.85 367.227C194.182 367.277 196.057 365.402 196.057 363.07V351.564C288.612 351.564 363.679 276.497 363.679 183.943H375.185C377.517 183.943 379.392 182.017 379.341 179.736C377.162 81.8085 298.192 2.83826 200.264 0.658719C197.984 0.608032 196.057 2.48345 196.057 4.81505Z" fill="#6EDBFF"/>
<path d="M162.654 134.726L190.633 118.709L231.943 113.792" fill="#6EDBFF"/>
<path d="M162.654 134.726L190.633 118.709L231.943 113.792" stroke="white" stroke-width="2" stroke-miterlimit="10" stroke-linecap="round" stroke-linejoin="round"/>
<path d="M260.176 89.8678L269.958 80.9976" stroke="white" stroke-width="2" stroke-miterlimit="10" stroke-linecap="round" stroke-linejoin="round"/>
<path d="M261.747 87.5362C262.66 86.8773 263.977 87.1307 264.586 88.0938L291.855 141.873L339.298 167.824C340.21 168.483 340.363 169.801 339.653 170.663L300.016 210.756L286.989 266.36C286.634 267.424 285.469 267.982 284.404 267.576L234.072 240.104L177.151 246.997C176.036 246.997 175.123 246.034 175.174 244.919L183.334 187.542L161.539 136.5C161.184 135.435 161.843 134.27 162.908 133.965L216.585 127.427L261.747 87.5362L263.673 86.0156L261.747 87.5362Z" fill="white"/>
<path d="M291.855 141.822C293.882 139.49 308.126 125.247 308.126 125.247L291.855 141.822Z" fill="#6EDBFF"/>
<path d="M291.855 141.822C293.882 139.49 308.126 125.247 308.126 125.247" stroke="white" stroke-width="2" stroke-miterlimit="10" stroke-linecap="round" stroke-linejoin="round"/>
<path d="M205.181 75.929C205.333 75.8276 205.536 75.929 205.586 76.0811L208.526 84.9513L215.166 90.02C215.267 90.1213 215.267 90.3241 215.166 90.4761L208.577 95.849L204.927 103.857C204.826 104.01 204.674 104.06 204.522 103.959L197.476 98.5861L188.606 98.3326C188.454 98.2819 188.302 98.1299 188.353 97.9778L190.532 89.4117L188.758 81.0484C188.708 80.8963 188.86 80.6936 189.012 80.6936L197.375 80.947L205.181 75.929Z" fill="white" stroke="white" stroke-width="3.13601" stroke-miterlimit="10" stroke-linecap="round" stroke-linejoin="round"/>
<path d="M188.961 80.6938C188.961 80.6938 166.557 87.3845 144.863 82.2145" stroke="white" stroke-width="3.13601" stroke-miterlimit="10" stroke-linecap="round" stroke-linejoin="round"/>
<path d="M139.338 87.333C139.338 87.333 158.194 102.843 188.505 98.3321" stroke="white" stroke-width="3.13601" stroke-miterlimit="10" stroke-linecap="round" stroke-linejoin="round"/>
<path d="M204.877 103.807C168.787 115.667 129.606 84.3936 129.606 84.3936" stroke="white" stroke-width="3.13601" stroke-miterlimit="10" stroke-linecap="round" stroke-linejoin="round"/>
<path d="M190.431 89.412C190.431 89.412 164.885 95.6972 144.661 85.9653" stroke="white" stroke-width="3.13601" stroke-miterlimit="10" stroke-linecap="round" stroke-linejoin="round"/>
<path d="M222.161 34.7205C146.942 31.8314 81.0996 93.5174 75.1185 172.589C69.1375 251.61 125.197 318.061 200.417 320.95C275.636 323.839 341.478 262.153 347.459 183.081C353.491 104.06 297.381 37.6097 222.161 34.7205ZM318.365 181.966C313.651 244.108 261.9 292.616 202.748 290.335C143.597 288.054 99.499 235.796 104.213 173.653C108.927 111.511 160.678 63.0038 219.83 65.2848C278.981 67.6164 323.079 119.824 318.365 181.966Z" fill="black" stroke="black" stroke-width="3.13601" stroke-miterlimit="10" stroke-linecap="round" stroke-linejoin="round"/>
<path d="M213.494 30.818C139.288 27.9289 74.358 89.7163 68.377 168.737C62.3959 247.758 117.695 314.158 191.85 317.047C266.005 319.936 330.986 258.149 336.916 179.128C342.897 100.107 287.649 33.7072 213.494 30.818ZM312.384 178.165C307.518 242.74 254.449 293.174 193.878 290.842C133.307 288.51 88.1449 234.275 93.0108 169.7C97.8768 105.125 150.946 54.6916 211.517 57.0232C272.088 59.3548 317.25 113.59 312.384 178.165Z" fill="#6EDBFF"/>
<path d="M329.06 118.456C310.204 71.7224 267.526 38.6238 215.673 36.5963C141.518 33.7579 76.5376 95.4946 70.6072 174.516C68.9853 196.007 71.8744 216.586 78.4637 235.188C70.3538 215.116 66.603 192.509 68.377 168.737C74.3581 89.7163 139.288 27.9289 213.494 30.818C267.475 32.8962 311.472 68.6812 329.06 118.456Z" fill="white"/>
<path d="M213.494 30.818C139.288 27.9289 74.358 89.7163 68.377 168.737C62.3959 247.758 117.695 314.158 191.85 317.047C266.005 319.936 330.986 258.149 336.916 179.128C342.897 100.107 287.649 33.7072 213.494 30.818ZM312.384 178.165C307.518 242.74 254.449 293.174 193.878 290.842C133.307 288.51 88.1449 234.275 93.0108 169.7C97.8768 105.125 150.946 54.6916 211.517 57.0232C272.088 59.3548 317.25 113.59 312.384 178.165Z" stroke="black" stroke-width="3.13601" stroke-miterlimit="10" stroke-linecap="round" stroke-linejoin="round"/>
<path d="M221.553 48.0008C223.513 48.0008 225.101 46.3895 225.101 44.402C225.101 42.4144 223.513 40.8032 221.553 40.8032C219.593 40.8032 218.005 42.4144 218.005 44.402C218.005 46.3895 219.593 48.0008 221.553 48.0008Z" fill="black" stroke="black" stroke-width="3.13601" stroke-miterlimit="10" stroke-linecap="round" stroke-linejoin="round"/>
<path d="M101.172 257.541C103.131 257.541 104.72 255.93 104.72 253.942C104.72 251.954 103.131 250.343 101.172 250.343C99.2121 250.343 97.6235 251.954 97.6235 253.942C97.6235 255.93 99.2121 257.541 101.172 257.541Z" fill="black" stroke="black" stroke-width="3.13601" stroke-miterlimit="10" stroke-linecap="round" stroke-linejoin="round"/>
<path d="M130.621 74.8645C132.58 74.8645 134.169 73.2533 134.169 71.2658C134.169 69.2782 132.58 67.667 130.621 67.667C128.661 67.667 127.073 69.2782 127.073 71.2658C127.073 73.2533 128.661 74.8645 130.621 74.8645Z" fill="black" stroke="black" stroke-width="3.13601" stroke-miterlimit="10" stroke-linecap="round" stroke-linejoin="round"/>
<path d="M305.389 102.489C307.348 102.489 308.937 100.878 308.937 98.8903C308.937 96.9027 307.348 95.2915 305.389 95.2915C303.429 95.2915 301.841 96.9027 301.841 98.8903C301.841 100.878 303.429 102.489 305.389 102.489Z" fill="black" stroke="black" stroke-width="3.13601" stroke-miterlimit="10" stroke-linecap="round" stroke-linejoin="round"/>
<path d="M275.94 277.663C277.9 277.663 279.488 276.052 279.488 274.065C279.488 272.077 277.9 270.466 275.94 270.466C273.981 270.466 272.392 272.077 272.392 274.065C272.392 276.052 273.981 277.663 275.94 277.663Z" fill="black" stroke="black" stroke-width="2" stroke-miterlimit="10" stroke-linecap="round" stroke-linejoin="round"/>
<path d="M322.876 195.044C324.836 195.044 326.424 193.433 326.424 191.445C326.424 189.457 324.836 187.846 322.876 187.846C320.917 187.846 319.328 189.457 319.328 191.445C319.328 193.433 320.917 195.044 322.876 195.044Z" fill="black" stroke="black" stroke-width="2" stroke-miterlimit="10" stroke-linecap="round" stroke-linejoin="round"/>
<path d="M81.0486 160.83C83.0081 160.83 84.5966 159.219 84.5966 157.232C84.5966 155.244 83.0081 153.633 81.0486 153.633C79.089 153.633 77.5005 155.244 77.5005 157.232C77.5005 159.219 79.089 160.83 81.0486 160.83Z" fill="black" stroke="black" stroke-width="2" stroke-miterlimit="10" stroke-linecap="round" stroke-linejoin="round"/>
<path d="M188.657 308.836C190.617 308.836 192.205 307.225 192.205 305.237C192.205 303.25 190.617 301.639 188.657 301.639C186.697 301.639 185.109 303.25 185.109 305.237C185.109 307.225 186.697 308.836 188.657 308.836Z" fill="black" stroke="black" stroke-width="2" stroke-miterlimit="10" stroke-linecap="round" stroke-linejoin="round"/>
<path d="M92.25 216.94C120.524 216.94 143.444 194.02 143.444 165.747C143.444 137.473 120.524 114.553 92.25 114.553C63.9764 114.553 41.0562 137.473 41.0562 165.747C41.0562 194.02 63.9764 216.94 92.25 216.94Z" fill="black"/>
<path d="M143.393 168.28C142.481 197.02 118.81 219.626 90.5772 218.714C78.9192 218.359 68.275 214.051 59.9116 207.106C66.5516 210.655 74.104 212.783 82.1125 213.037C110.345 213.949 134.016 191.343 134.928 162.603C135.486 145.725 128.035 130.417 116.073 120.533C132.85 129.505 144.052 147.701 143.393 168.28Z" fill="#6EDBFF"/>
<path d="M143.444 167.368C142.531 195.652 118.911 217.802 90.6786 216.94C62.3953 216.028 38.7245 192.712 39.6369 164.479C40.5492 136.196 65.6393 113.741 93.9226 114.603C122.206 115.465 144.305 139.085 143.444 167.368Z" stroke="white" stroke-width="2" stroke-miterlimit="10" stroke-linecap="round" stroke-linejoin="round"/>
<path d="M122.155 210.807C113.133 216.788 102.185 220.184 90.5268 219.779C60.4187 218.815 36.8493 193.421 38.2178 163.212C39.5357 134.371 63.612 111.461 92.4529 111.613C107.659 111.663 121.294 117.999 131.076 128.035C131.076 128.035 130.417 149.526 116.529 155.153C114.806 155.862 113.589 157.383 113.336 159.208C112.271 167.013 111.41 174.667 109.534 191.292C107.355 210.3 122.155 210.807 122.155 210.807Z" fill="white"/>
<path d="M107.05 113.691C79.274 112.018 53.4236 130.62 46.733 158.295C42.6273 175.326 46.4288 192.357 55.7046 205.586C44.3 195.145 37.4573 179.939 38.2176 163.212C39.5354 134.371 63.6117 111.461 92.4526 111.613C97.5213 111.663 102.438 112.373 107.05 113.691Z" fill="#6EDBFF"/>
<path d="M111.359 113.69C83.5824 112.018 57.732 130.62 51.0414 158.295C46.9357 175.326 50.7373 192.356 60.013 205.586C48.6084 195.144 40.2957 181.307 41.056 164.631C42.3739 135.84 67.8694 111.511 96.7103 111.663C101.83 111.663 106.696 112.372 111.359 113.69Z" fill="#6EDBFF"/>
<path d="M122.155 210.807C113.133 216.788 102.185 220.184 90.5268 219.779C60.4187 218.815 36.8493 193.421 38.2178 163.212C39.5357 134.371 63.612 111.461 92.4529 111.613C107.659 111.663 121.294 117.999 131.076 128.035C131.076 128.035 130.417 149.526 116.529 155.153C114.806 155.862 113.589 157.383 113.336 159.208C112.271 167.013 111.41 174.667 109.534 191.292C107.355 210.3 122.155 210.807 122.155 210.807Z" stroke="black" stroke-width="2" stroke-miterlimit="10" stroke-linecap="round" stroke-linejoin="round"/>
<path d="M116.934 202.697C120.178 205.586 127.122 206.144 127.122 206.144L122.206 210.807C122.206 210.807 107.405 210.3 109.585 191.343C111.511 174.718 112.322 167.064 113.386 159.258C113.64 157.434 114.856 155.862 116.58 155.203C130.417 149.527 131.127 128.086 131.127 128.086C131.127 128.086 136.145 131.887 135.993 133.155C134.827 140.758 131.076 155.051 118.708 160.12C117.847 166.557 117.086 172.995 115.769 184.653L114.907 191.951C114.299 196.817 114.704 200.72 116.934 202.697Z" fill="#6EDBFF" stroke="black" stroke-width="2" stroke-miterlimit="10" stroke-linecap="round" stroke-linejoin="round"/>
<path d="M29.7529 205.484C29.7529 205.484 40.4986 193.167 47.0879 192.052C53.6772 190.937 112.677 192.559 129.606 233.666" fill="white"/>
<path d="M93.2637 200.163C81.0988 197.831 62.6994 197.628 46.3276 210.199L29.7529 205.536C29.7529 205.536 40.4986 193.219 47.0879 192.103C50.8894 191.394 72.5327 191.698 93.2637 200.163Z" fill="#6EDBFF"/>
<path d="M29.7529 205.484C29.7529 205.484 40.4986 193.167 47.0879 192.052C53.6772 190.937 112.677 192.559 129.606 233.666" stroke="black" stroke-width="2" stroke-miterlimit="10" stroke-linecap="round" stroke-linejoin="round"/>
<path d="M93.5168 187.541C100.571 187.541 106.29 181.823 106.29 174.768C106.29 167.714 100.571 161.995 93.5168 161.995C86.4624 161.995 80.7437 167.714 80.7437 174.768C80.7437 181.823 86.4624 187.541 93.5168 187.541Z" fill="#6EDBFF" stroke="black" stroke-width="2" stroke-miterlimit="10" stroke-linecap="round" stroke-linejoin="round"/>
<path d="M93.5169 181.155C97.0441 181.155 99.9035 178.296 99.9035 174.769C99.9035 171.242 97.0441 168.382 93.5169 168.382C89.9897 168.382 87.1304 171.242 87.1304 174.769C87.1304 178.296 89.9897 181.155 93.5169 181.155Z" fill="black" stroke="black" stroke-width="2" stroke-miterlimit="10" stroke-linecap="round" stroke-linejoin="round"/>
<path d="M93.5171 174.769L122.155 177.911" stroke="black" stroke-width="2" stroke-miterlimit="10" stroke-linecap="round" stroke-linejoin="round"/>
<path d="M164.226 245.527C169.092 228.75 165.189 216.281 168.433 214.811C170.815 213.696 173.755 218.663 175.073 221.248C175.529 222.11 182.27 191.546 187.896 192.61C192.61 193.523 188.454 209.438 188.353 215.977C188.353 215.977 193.168 187.998 198.895 188.859C204.978 189.772 198.997 217.903 198.997 217.903L199.605 214.659C199.605 214.659 204.572 193.979 207.918 193.979C211.618 193.979 210.705 206.448 207.766 221.603L207.918 220.691C207.918 220.691 209.945 207.968 213.037 208.526C217.295 210.199 209.996 253.029 209.185 256.526L164.226 245.527Z" fill="#6EDBFF"/>
<mask id="mask0" mask-type="alpha" maskUnits="userSpaceOnUse" x="12" y="0" width="368" height="368">
<path d="M196.057 4.81505V16.321C103.452 16.321 28.4352 91.3883 28.4352 183.943H16.9293C14.5977 183.943 12.7223 185.818 12.773 188.15C15.0032 286.026 93.9735 364.996 191.85 367.227C194.182 367.277 196.057 365.402 196.057 363.07V351.564C288.611 351.564 363.679 276.497 363.679 183.943H375.185C377.516 183.943 379.392 182.017 379.341 179.736C377.161 81.8085 298.191 2.83826 200.264 0.658719C197.983 0.608032 196.057 2.48345 196.057 4.81505Z" fill="#B880FF"/>
</mask>
<g mask="url(#mask0)">
<path d="M188.403 238.026C170.815 234.174 164.226 245.528 164.226 245.528L156.775 268.996C156.471 268.286 156.166 267.526 155.862 266.867C146.029 244.818 128.593 227.128 106.797 216.687C58.0365 193.32 9.57983 202.748 9.57983 202.748C9.57983 202.748 0 268.894 0 271.885C0 274.875 13.432 342.492 16.7267 361.702C19.9707 380.912 127.731 372.144 127.731 372.144L136.855 361.753L141.163 367.126C191.749 349.537 209.185 256.527 209.185 256.527C209.185 256.527 205.992 241.828 188.403 238.026Z" fill="white"/>
<path d="M89.9692 300.573C89.9692 300.573 100.918 335.446 127.731 357.9L118.151 361.144C91.2871 338.69 89.9692 300.573 89.9692 300.573Z" fill="black" stroke="black" stroke-width="3.13601" stroke-miterlimit="10" stroke-linecap="round" stroke-linejoin="round"/>
<path d="M156.775 268.996L164.226 245.528C164.226 245.528 170.764 234.174 188.403 238.026C206.042 241.878 209.236 256.577 209.236 256.577C209.236 256.577 191.799 349.588 141.214 367.176" stroke="black" stroke-width="2" stroke-miterlimit="10" stroke-linecap="round" stroke-linejoin="round"/>
<path d="M9.5791 202.748C9.5791 202.748 58.0358 193.32 106.746 216.687C128.541 227.128 145.978 244.767 155.811 266.867C161.944 280.654 167.469 299.104 170.307 323.687" stroke="black" stroke-width="2" stroke-miterlimit="10" stroke-linecap="round" stroke-linejoin="round"/>
<path d="M155.102 285.672C150.439 301.993 131.938 308.227 127.326 309.545C127.174 309.596 127.022 309.596 126.87 309.596C126.667 309.089 117.543 288.003 113.995 281.667C121.041 278.018 133.205 272.29 142.836 259.365C145.979 264.231 147.803 267.83 150.186 273.203C151.808 277.055 153.48 281.161 155.102 285.672Z" fill="#6EDBFF" stroke="#6EDBFF" stroke-width="3.13601" stroke-miterlimit="10" stroke-linecap="round" stroke-linejoin="round"/>
<path d="M131.177 276.345C125.957 279.995 124.639 287.142 128.288 292.362C131.938 297.583 139.085 298.901 144.305 295.252C149.526 291.602 150.844 284.455 147.194 279.235C143.596 274.014 136.398 272.696 131.177 276.345ZM146.029 288.308C146.333 286.432 145.978 284.455 144.812 282.783C142.43 279.387 137.767 278.525 134.371 280.907C132.445 282.225 130.873 280.046 132.85 278.677C136.753 275.94 142.176 276.954 144.863 280.857C146.434 283.137 146.789 285.875 146.029 288.308Z" fill="white" stroke="#6EDBFF" stroke-width="0.627201" stroke-miterlimit="10" stroke-linecap="round" stroke-linejoin="round"/>
</g>
<path d="M202.748 281.515C203.204 279.488 203.407 278.373 203.407 278.373C203.407 278.373 200.163 263.369 182.22 259.467C164.276 255.564 157.586 267.12 157.586 267.12C157.586 267.12 157.535 267.019 157.434 266.867L164.226 245.477C164.226 245.477 170.764 234.123 188.403 237.975C205.992 241.827 209.236 256.527 209.236 256.527C209.236 256.527 207.259 267.019 202.748 281.515Z" fill="#6EDBFF" stroke="black" stroke-width="2" stroke-miterlimit="10" stroke-linecap="round" stroke-linejoin="round"/>
<path d="M164.226 245.527C169.092 228.75 165.189 216.281 168.433 214.811C171.626 213.341 175.073 221.248 175.073 221.248" stroke="black" stroke-width="2" stroke-miterlimit="10" stroke-linecap="round" stroke-linejoin="round"/>
<path d="M174.161 225.354C174.161 225.354 182.271 191.546 187.897 192.61C192.611 193.523 188.454 209.438 188.353 215.977C188.353 215.977 193.168 187.998 198.896 188.859C204.978 189.772 198.997 217.903 198.997 217.903" stroke="black" stroke-width="2" stroke-miterlimit="10" stroke-linecap="round" stroke-linejoin="round"/>
<path d="M199.656 214.659C199.656 214.659 204.623 193.979 207.968 193.979C211.669 193.979 210.858 205.941 207.918 221.097" stroke="black" stroke-width="2" stroke-miterlimit="10" stroke-linecap="round" stroke-linejoin="round"/>
<path d="M209.185 256.577C209.996 253.08 217.903 210.199 213.645 208.526C210.554 207.918 208.121 219.88 208.121 219.88" stroke="black" stroke-width="2" stroke-miterlimit="10" stroke-linecap="round" stroke-linejoin="round"/>
<path d="M180.04 217.244C180.598 217.041 195.854 213.747 211.212 223.225" stroke="black" stroke-width="2" stroke-miterlimit="10" stroke-linecap="round" stroke-linejoin="round"/>
<path d="M196.057 4.81505V16.321C103.452 16.321 28.4357 91.3883 28.4357 183.943H16.9298C14.5982 183.943 12.7228 185.818 12.7735 188.15C15.0037 286.026 93.9739 364.996 191.85 367.227C194.182 367.277 196.057 365.402 196.057 363.07V351.564C288.612 351.564 363.679 276.497 363.679 183.943H375.185C377.517 183.943 379.392 182.017 379.341 179.736C377.162 81.8085 298.192 2.83826 200.264 0.658719C197.984 0.608032 196.057 2.48345 196.057 4.81505Z" stroke="#6EDBFF" stroke-width="3.13601" stroke-miterlimit="10" stroke-linecap="round" stroke-linejoin="round"/>
<path d="M238.026 264.231C239.958 264.231 241.524 262.665 241.524 260.734C241.524 258.802 239.958 257.236 238.026 257.236C236.095 257.236 234.529 258.802 234.529 260.734C234.529 262.665 236.095 264.231 238.026 264.231Z" fill="white" stroke="white" stroke-width="3.13601" stroke-miterlimit="10" stroke-linecap="round" stroke-linejoin="round"/>
<path d="M228.142 269.198C229.43 269.198 230.474 268.154 230.474 266.867C230.474 265.579 229.43 264.535 228.142 264.535C226.854 264.535 225.811 265.579 225.811 266.867C225.811 268.154 226.854 269.198 228.142 269.198Z" fill="white" stroke="white" stroke-width="3.13601" stroke-miterlimit="10" stroke-linecap="round" stroke-linejoin="round"/>
<path d="M136.348 155.558C136.297 155.102 136.247 154.595 136.5 154.19C136.855 153.632 137.717 153.581 138.325 153.886C138.933 154.19 139.288 154.849 139.541 155.457C141.417 159.258 141.721 163.77 140.454 167.774C140.251 168.331 139.997 168.99 139.44 169.244C136.855 170.41 137.514 165.848 137.514 164.733C137.412 161.691 136.703 158.549 136.348 155.558Z" fill="white"/>
<path d="M136.348 172.64C136.449 171.778 137.362 171.119 138.224 171.17C138.832 171.22 139.389 171.525 139.693 172.082C140.961 174.464 135.943 175.63 136.348 172.64Z" fill="white"/>
<path d="M166.912 199.605C167.808 199.605 168.534 198.879 168.534 197.983C168.534 197.088 167.808 196.361 166.912 196.361C166.016 196.361 165.29 197.088 165.29 197.983C165.29 198.879 166.016 199.605 166.912 199.605Z" fill="white" stroke="white" stroke-width="3.13601" stroke-miterlimit="10" stroke-linecap="round" stroke-linejoin="round"/>
</g>
<defs>
<clipPath id="clip0">
<rect width="380" height="374.171" fill="white"/>
</clipPath>
</defs>
</svg>
