<svg xmlns="http://www.w3.org/2000/svg" width="44" height="44" viewBox="0 0 44 44"><path d="M22.421 6.605c2.37.01 13.709.1 16.794.95a5.433 5.433 0 013.86 3.86c.839 3.047.916 8.993.923 10.35v.407c-.005.972-.072 7.292-.924 10.448-.489 1.903-1.983 3.371-3.859 3.888-3.19.829-15.202.892-17.003.896h-.373c-1.48-.003-13.79-.055-17.057-.924a5.6 5.6 0 01-3.887-3.887C.086 29.528.007 23.39 0 22.215v-.393c.008-1.17.087-7.292.896-10.406C1.412 9.54 2.934 8.018 4.782 7.5c3.085-.802 14.402-.887 16.768-.896zM31 19.004a3 3 0 10.002 6.001A3 3 0 0031 19.004zm-9 0a3 3 0 10.002 6.001A3 3 0 0022 19.004zm-9 0a3 3 0 10.002 6.001A3 3 0 0013 19.004z"/></svg>