<svg xmlns="http://www.w3.org/2000/svg" width="22" height="22" viewBox="0 0 22 22"><path d="M11.33 3.301c1.407.007 6.781.062 8.277.475a2.716 2.716 0 011.93 1.93c.43 1.563.46 4.656.461 5.222v.131c-.001.399-.029 3.64-.462 5.246a2.734 2.734 0 01-1.93 1.942c-1.533.4-7.147.443-8.376.448h-.476c-1.224-.005-6.818-.05-8.364-.461A2.8 2.8 0 01.447 16.29c-.407-1.54-.445-4.63-.448-5.196v-.18c.003-.564.041-3.646.448-5.21A2.843 2.843 0 012.39 3.748c1.495-.388 6.86-.44 8.263-.447zM16 9.5a1.5 1.5 0 10.001 3.001A1.5 1.5 0 0016 9.5zm-5 0a1.5 1.5 0 10.001 3.001A1.5 1.5 0 0011 9.5zm-5 0a1.5 1.5 0 10.001 3.001A1.5 1.5 0 006 9.5z"/></svg>