<svg xmlns="http://www.w3.org/2000/svg" width="16" height="16" viewBox="0 0 16 16"><path d="M8.177 2.402c.913.004 4.971.039 6.083.345a1.975 1.975 0 011.403 1.404c.32 1.162.335 3.485.336 3.822v.052c0 .18-.012 2.635-.336 3.834a1.988 1.988 0 01-1.403 1.413c-1.148.299-5.435.324-6.161.326h-.21c-.723-.002-4.994-.028-6.15-.336A2.036 2.036 0 01.324 11.85C.035 10.751.003 8.568 0 8.096v-.182c.004-.47.036-2.648.326-3.763a2.068 2.068 0 011.413-1.423c1.112-.29 5.162-.322 6.073-.326zM12 6.75a1.25 1.25 0 100 2.5 1.25 1.25 0 000-2.5zm-4 0a1.25 1.25 0 100 2.5 1.25 1.25 0 000-2.5zm-4 0a1.25 1.25 0 100 2.5 1.25 1.25 0 000-2.5z"/></svg>