<svg xmlns="http://www.w3.org/2000/svg" width="12" height="12" viewBox="0 0 12 12"><path d="M6.18 1.802c.767.004 3.698.034 4.514.259.512.133.92.54 1.053 1.052.214.778.246 2.248.251 2.736v.255c-.004.398-.032 1.978-.251 2.79a1.492 1.492 0 01-1.053 1.06c-.816.212-3.747.24-4.514.244h-.37c-.763-.004-3.685-.033-4.507-.251a1.527 1.527 0 01-1.06-1.06C.031 8.081.003 6.497 0 6.097v-.186c.004-.399.032-1.98.244-2.798a1.55 1.55 0 011.06-1.067c.816-.212 3.742-.24 4.508-.244zM9 5a1 1 0 100 2 1 1 0 100-2zM6 5a1 1 0 100 2 1 1 0 100-2zM3 5a1 1 0 100 2 1 1 0 100-2z"/></svg>