<svg xmlns="http://www.w3.org/2000/svg" width="163" height="241" viewBox="0 0 163 241">
  <g fill="none" fill-rule="evenodd">
    <path fill="#6892FA" fill-rule="nonzero" d="M26.955905,204.557926 C38.9716226,200 52.9899598,208.028055 52.9899598,216 C52.9899598,223.971945 41,221.817085 35.2566777,218.51365 C29.5133555,215.210215 28,213.028866 25.9545952,214 C23.9091904,214.971134 23.9114927,217.029515 23.9114927,221.817085 C23.9114927,226.604655 22,241 13.9718743,241 C5.94374855,241 4.88669365,220.280257 15.9414972,212 C19.9467364,209 14.2056234,203.568917 13.9718743,203.251747 C2.07591864,189.791825 -3.88387236,165.294975 5.92839925,140.460937 C16.3834816,114 36.233408,103.037134 49.6141352,86.6628825 C62.9948625,70.2886315 86.8531798,35 117.306651,35 C147.760122,35 159.841163,71.4447451 144.069617,121.710028 C128.298071,171.975311 101.618503,185.458981 59.1894755,178.675781 C40.2689668,175.650928 17.0826021,186.017797 20.3291491,199.168374 C20.9480462,201 23.2934054,205.947223 26.955905,204.557926 Z"/>
    <path fill="#4A78EB" fill-rule="nonzero" d="M26.955905,204.557926 C38.9716226,200 52.9899598,208.028055 52.9899598,216 C52.9899598,223.971945 41,221.817085 35.2566777,218.51365 C29.5133555,215.210215 28,213.028866 25.9545952,214 C23.9091904,214.971134 23.9114927,217.029515 23.9114927,221.817085 C23.9114927,226.604655 22,241 13.9718743,241 C5.94374855,241 4.88669365,220.280257 15.9414972,212 C19.9467364,209 14.2056234,203.568917 13.9718743,203.251747 C8.43156676,196.983053 4,188 2,177 C0.593063239,169.261848 0.593063239,162 1.42184119,157 C2.29200901,151.750296 3.59088671,144.524439 5.92839925,140.460937 C13.9718743,123.577683 49,163.421253 69,148 C89,132.578747 103,161 132,126 C142.798662,112.967132 150,85.1887766 147.362562,57.5501984 C152.944614,73.0376128 152.295282,95.4941207 144.069617,121.710028 C128.298071,171.975311 101.618503,185.458981 59.1894755,178.675781 C40.2689668,175.650928 17.0826021,186.017797 20.3291491,199.168374 C20.9480462,201 23.2934054,205.947223 26.955905,204.557926 Z"/>
    <path fill="#A8BFFA" fill-rule="nonzero" d="M77,164.509547 C60,164.019095 53,164.509547 34,181.603391 C41.3539932,178.649493 50.4979406,177.385847 58.8162666,178.717454 C98.5498004,185.078041 124.453328,173.618458 140.513368,130.722392 C141.580437,127.872272 137,133.697357 124,147.603452 C111,161.509547 94,165 77,164.509547 Z"/>
    <path stroke="#2A64F4" stroke-linecap="round" stroke-linejoin="round" d="M20.8974609,115.957031 C30.2347424,134.488281 41.0595438,146.803711 53.3718652,152.90332 C65.6841867,159.00293 87.1927186,163.611003 117.897461,166.727539"/>
    <path fill="#6892FA" fill-rule="nonzero" d="M100.553503,155.685538 C100.838371,168.66288 95.7488154,178.378774 85.4468188,184.225415 C75.6603149,189.7795 67.1972824,191.804752 60.0258252,190.003967 C57.2195862,189.299308 56.0666788,185.940387 57.8486422,183.660885 C66.0175504,173.211153 72.0981542,164.958057 76.0761022,158.927402 C76.5995149,158.133897 77.3884115,157.552732 78.301407,157.288062 C84.8383578,155.393054 90.4908997,153.626462 95.255198,151.990214 C97.8169225,151.110417 100.49406,152.977598 100.553503,155.685538 Z"/>
    <path fill="#3260D1" fill-rule="nonzero" d="M100.553503,155.685538 C100.838371,168.66288 95.7488154,178.378774 85.4468188,184.225415 C75.6603149,189.7795 67.1972824,191.804752 60.0258252,190.003967 C57.2195862,189.299308 56.0666788,185.940387 57.8486422,183.660885 C61.807264,178.596984 76.5959985,183.315386 86,177.380469 C96.0018493,171.068247 100.522866,154.289855 100.553503,155.685538 Z" opacity=".5"/>
    <circle cx="112" cy="86" r="10" fill="#FFF" fill-rule="nonzero"/>
    <circle cx="113" cy="85" r="8" fill="#1E4EC2" fill-rule="nonzero"/>
    <circle cx="106.5" cy="81.5" r="1.5" fill="#FFF" fill-rule="nonzero"/>
    <circle cx="112" cy="83" r="3" fill="#FFF" fill-rule="nonzero"/>
    <g transform="translate(60)">
      <path fill="#F46E6E" d="M11.456301,53.8979923 C9.4862681,51.8856272 8.50125165,49.2872402 8.50125165,46.1028314 C8.50125165,41.3262181 8.89583104,35.9314824 16.0704707,31.4874354 C23.2451103,27.0433883 23.3765564,24.7831962 24.063371,23.1290575 C24.7501857,21.4749188 24.4421695,17.1340298 20.4708886,15.0878906 C17.823368,13.7237979 17.4821878,10.8890157 19.4473482,6.58354423 C24.0880832,3.37425939 29.9295775,1.76961697 36.971831,1.76961697 C47.5352113,1.76961697 56.4610726,6.77338815 61.7833957,15.0878906 C65.3316111,20.6308923 67.6896313,26.9944523 68.8574563,34.1785708 L11.5787848,53.8979923"/>
      <path fill="#DF5858" d="M11.456301,53.8979923 C9.4862681,51.8856272 8.50125165,49.2872402 8.50125165,46.1028314 C8.50125165,41.3262181 8.89583104,35.9314824 16.0704707,31.4874354 C23.2451103,27.0433883 23.3765564,24.7831962 24.063371,23.1290575 C24.7501857,21.4749188 24.4421695,17.1340298 20.4708886,15.0878906 C17.823368,13.7237979 17.4821878,10.8890157 19.4473482,6.58354423 C24.0880832,3.37425939 29.9295775,1.76961697 36.971831,1.76961697 C47.5352113,1.76961697 24.0747544,3.59228516 28.3793945,11.8803711 C32.6840347,20.168457 25.744727,30.1318831 19.4473482,35 C15.2490956,38.2454113 12.6262411,44.544742 11.5787848,53.8979923"/>
      <circle cx="11.092" cy="11.092" r="11.092" fill="#FFF"/>
      <path fill="#E2DEDE" d="M11.0915493,22.1830986 C15.8798471,22.1830986 19.9594668,19.1488869 21.5125983,14.8982736 C11.9667969,26.699707 1.85791016,13.3242188 0.858404704,15.3774801 C1.60099312,17.148394 2.78987191,18.6858519 4.28435271,19.8491656 C6.1634852,21.3118947 8.52577696,22.1830986 11.0915493,22.1830986 Z"/>
      <path fill="#FFF" d="M9.69221088,53.8979923 C11.5580814,50.2557408 65.5334367,31.1698388 68.6584849,31.1698388 C71.7835332,31.1698388 73.2302203,33.387348 73.7515302,34.8354286 C74.2728401,36.2835092 74.2728401,38.9350111 72.8082022,39.2135421 C71.3435643,39.492073 59.1394559,39.492073 46.4419943,45.261868 C33.7445326,51.0316629 24.7020042,52.8340997 22.0582774,54.3190959 C19.4145506,55.8040921 13.2462622,60.3023165 11.5044392,59.7361251 C9.76261622,59.1699337 7.82634037,57.5402437 9.69221088,53.8979923 Z"/>
      <path fill="#E2DEDE" d="M18.8105469,53.8979923 C20.9537843,52.2801383 36.2529297,48.9111506 45.7548828,43.7919922 C55.2568359,38.6728338 66.771722,37.1709762 74.0545134,37.1709762 C73.9821826,38.1749611 73.620377,39.0590903 72.8082022,39.2135421 C71.3435643,39.492073 59.1394559,39.492073 46.4419943,45.261868 C33.7445326,51.0316629 24.7020042,52.8340997 22.0582774,54.3190959 C19.4145506,55.8040921 13.2462622,60.3023165 11.5044392,59.7361251 C9.76261622,59.1699337 14.5859375,57.0870002 18.8105469,53.8979923 Z"/>
    </g>
    <path fill="#1E4EC2" fill-rule="nonzero" d="M141.198154,105.717522 C138.586587,107.736001 135.002214,107.128039 130.583577,104.425295 C129.641302,103.848934 129.34467,102.617836 129.92103,101.675561 C130.497391,100.733286 131.728488,100.436654 132.670763,101.013015 C135.829004,102.944813 137.80991,103.280804 138.752023,102.552645 C139.795699,101.745989 140.122414,100.03022 139.451503,97.0895762 C139.022191,95.2078754 141.243879,93.8697653 142.706427,95.1291535 C144.60055,96.7601665 145.421651,96.8458729 146.090257,96.0289549 C146.979918,94.9419453 146.816132,92.9409856 145.177283,89.8094617 C144.665117,88.83081 145.043277,87.6222629 146.021929,87.1100963 C147.000581,86.5979296 148.209128,86.9760904 148.721294,87.9547421 C151.021635,92.3502492 151.31697,95.9583399 149.185682,98.5623999 C147.699354,100.378432 145.820072,100.907961 143.780045,100.313109 C143.667395,102.62373 142.832596,104.454262 141.198154,105.717522 Z"/>
    <g fill="#FFF" transform="rotate(4 -927.74 1652.973)">
      <path d="M24.3305388,23.1645885 C18.9383427,22.5201005 15.0476915,24.2116291 12.6585852,28.2391744 C9.07492578,34.2804923 8.06168196,38.1118553 5.57556097,40.169618 C3.91814697,41.5414598 2.06271661,42.6122337 0.00926989978,43.3819398 C4.54186667,44.7333008 8.27987631,45.4089813 11.2232988,45.4089813 C15.6384326,45.4089813 24.4720104,44.0427252 27.8865837,31.8877374 C30.1629659,23.7844122 28.9776176,20.8766959 24.3305388,23.1645885 Z"/>
      <path d="M45.9767403,7.29019818 C40.5830513,6.62555701 36.6924161,8.36100997 34.3048347,12.496557 C30.7234627,18.6998777 29.7119419,22.6346078 27.2263264,24.746922 C25.5692493,26.1551314 23.7139605,27.2540124 21.6604598,28.0435648 C26.1947219,29.4338155 29.9338825,30.1296733 32.8779417,30.1311383 C37.2940303,30.1333307 46.1288261,28.7344259 49.5379763,16.2516055 C51.8107431,7.9297253 50.6236644,4.94258951 45.9767403,7.29019818 Z" transform="scale(-1 1) rotate(69 0 -34.289)"/>
    </g>
    <path stroke="#2A64F4" stroke-linecap="round" stroke-linejoin="round" d="M145.069617,119.710028 C134.543003,128.173651 119.763997,131.674129 100.732599,130.211461 C81.7012007,128.748794 60.6402692,123.078697 37.5498047,113.201172 L27.6455078,108.095703"/>
    <g fill="#C6D4F9" transform="translate(24 104)">
      <circle cx="17" cy="10" r="3"/>
      <circle cx="3" cy="3" r="3"/>
      <circle cx="3" cy="23" r="3"/>
      <circle cx="14" cy="37" r="3"/>
      <circle cx="30" cy="50" r="3"/>
      <circle cx="49" cy="56" r="3"/>
      <circle cx="84" cy="62" r="3"/>
      <circle cx="35" cy="17" r="3"/>
      <circle cx="54" cy="23" r="3"/>
      <circle cx="76" cy="26" r="3"/>
      <circle cx="98" cy="26" r="3"/>
      <circle cx="114" cy="21" r="3"/>
    </g>
  </g>
</svg>
