<svg xmlns="http://www.w3.org/2000/svg" width="188" height="264" viewBox="0 0 188 264">
    <g fill="none" fill-rule="nonzero" transform="translate(0 -2)">
        <path fill="#6892FA"
              d="M26.956 229.558C38.972 225 52.99 233.028 52.99 241c0 7.972-11.99 5.817-17.733 2.514-5.744-3.304-7.257-5.485-9.302-4.514-2.046.971-2.044 3.03-2.044 7.817 0 4.788-1.911 19.183-9.94 19.183-8.027 0-9.084-20.72 1.97-29 4.006-3-1.735-8.431-1.97-8.748-11.895-13.46-17.855-37.957-8.043-62.791C16.383 139 36.233 128.037 49.614 111.663 62.994 95.289 86.854 60 117.307 60c30.453 0 42.534 36.445 26.763 86.71-15.772 50.265-42.451 63.749-84.88 56.966-18.921-3.025-42.107 7.342-38.86 20.492.618 1.832 2.963 6.78 6.626 5.39z"/>
        <path fill="#4A78EB"
              d="M26.956 229.558C38.972 225 52.99 233.028 52.99 241c0 7.972-11.99 5.817-17.733 2.514-5.744-3.304-7.257-5.485-9.302-4.514-2.046.971-2.044 3.03-2.044 7.817 0 4.788-1.911 19.183-9.94 19.183-8.027 0-9.084-20.72 1.97-29 4.006-3-1.735-8.431-1.97-8.748C8.432 221.983 4 213 2 202c-1.407-7.738-1.407-15-.578-20 .87-5.25 2.169-12.476 4.506-16.54C13.972 148.579 49 188.422 69 173s34 13 63-22c10.799-13.033 18-40.811 15.363-68.45 5.582 15.488 4.932 37.944-3.293 64.16-15.772 50.265-42.451 63.749-84.88 56.966-18.921-3.025-42.107 7.342-38.86 20.492.618 1.832 2.963 6.78 6.626 5.39z"/>
        <path fill="#A8BFFA"
              d="M77 189.51c-17-.49-24 0-43 17.093 7.354-2.954 16.498-4.217 24.816-2.886 39.734 6.361 65.637-5.099 81.697-47.995 1.067-2.85-3.513 2.975-16.513 16.881C111 186.51 94 190 77 189.51z"/>
        <path fill="#6892FA"
              d="M100.554 180.686c.284 12.977-4.805 22.693-15.107 28.54-9.787 5.554-18.25 7.579-25.421 5.778-2.806-.705-3.96-4.064-2.177-6.343 8.169-10.45 14.25-18.703 18.227-24.734a4 4 0 0 1 2.225-1.639c6.537-1.895 12.19-3.662 16.954-5.298 2.562-.88 5.24.988 5.299 3.696z"/>
        <path fill="#3260D1"
              d="M100.554 180.686c.284 12.977-4.805 22.693-15.107 28.54-9.787 5.554-18.25 7.579-25.421 5.778-2.806-.705-3.96-4.064-2.177-6.343 3.958-5.064 18.747-.346 28.151-6.28 10.002-6.313 14.523-23.091 14.554-21.695z"
              opacity=".5"/>
        <circle cx="112" cy="111" r="10" fill="#FFF"/>
        <circle cx="113" cy="110" r="8" fill="#1E4EC2"/>
        <circle cx="106.5" cy="106.5" r="1.5" fill="#FFF"/>
        <circle cx="112" cy="108" r="3" fill="#FFF"/>
        <path fill="#1E4EC2"
              d="M132.198 129.718c-2.611 2.018-6.196 1.41-10.614-1.293a2 2 0 0 1 2.087-3.412c3.158 1.932 5.139 2.268 6.081 1.54 1.044-.807 1.37-2.523.7-5.463-.43-1.882 1.792-3.22 3.254-1.96 1.895 1.63 2.716 1.716 3.384.899.89-1.087.726-3.088-.913-6.22a2 2 0 0 1 3.544-1.854c2.3 4.395 2.596 8.003.465 10.607-1.487 1.816-3.366 2.346-5.406 1.751-.113 2.31-.947 4.141-2.582 5.405z"/>
        <g transform="translate(18 .681)">
            <path fill="#BFCCFF"
                  d="M112.295 36.616a71.29 71.29 0 0 1 24.271 16.934l13.99-6.494a9.5 9.5 0 1 1 2.041 3.537c-3.702 1.797-8.114 3.84-13.237 6.128 7.072 8.526 12.238 18.84 14.7 30.422 8.137 38.281-15.7 73.303-42.045 66.597-17.323-4.41-26.082-6.005-45.438-10.868-24.08-6.647-47.447-7.541-51.414-26.206-8.137-38.282 16.36-75.925 54.715-84.077 13.261-2.82 26.443-1.744 38.352 2.453l.862-13.008a9.5 9.5 0 1 1 4.082.143c-.437 4.084-.328 8.896-.879 14.44z"
                  opacity=".3"/>
            <circle cx="111.947" cy="12.22" r="10" fill="#6E89DB" transform="rotate(-12 111.947 12.22)"/>
            <circle cx="159.525" cy="43.872" r="10" fill="#6E89DB" transform="rotate(8 159.525 43.872)"/>
            <path fill="#9FB6FC"
                  d="M69.878 32.589C13.245 58.123 11.772 114 28.142 132.089c-6.653-3.287-11.384-7.919-12.979-15.423-8.137-38.282 16.36-75.925 54.715-84.077z"
                  opacity=".3"/>
            <path fill="#8EA8F7"
                  d="M52.252 67.415a2 2 0 1 1-3.05-2.586c4.791-5.651 10.196-10.005 16.208-13.046a2 2 0 0 1 1.806 3.569c-5.523 2.794-10.509 6.81-14.964 12.063zM73.997 51.65a2 2 0 1 1-1.493-3.712c.701-.281 1.863-.788 3.472-1.515a2 2 0 0 1 1.646 3.646c-1.656.748-2.86 1.273-3.625 1.58z"/>
        </g>
    </g>
</svg>
