<svg width="182" height="220" viewBox="0 0 182 220" version="1.1" xmlns="http://www.w3.org/2000/svg"><g id="kitenok-&amp;-favicon" stroke="none" stroke-width="1" fill="none" fill-rule="evenodd"><g id="kitenok-wfh" fill-rule="nonzero"><g transform="translate(-5 -2)"><g id="kitenok" transform="translate(21.648)"><path d="M35.677 199.692c10.005-3.795 19.278 5.203 19.278 11.84 0 6.638-9.983 4.844-14.765 2.093-4.782-2.75-6.042-4.566-7.744-3.758-1.704.809-18.366-8.353-18.366-4.367 0 3.986-1.591 15.971-8.276 15.971-6.683 0-7.563-17.251 1.64-24.145 3.336-2.498 13.542-7.02 13.347-7.284-9.904-11.206-14.866-31.603-6.697-52.28 8.705-22.03 25.232-31.159 36.373-44.791 11.14-13.633 31.006-43.015 56.361-43.015 25.355 0 35.414 30.344 22.283 72.195-13.132 41.85-35.345 53.077-70.67 47.43-15.754-2.52-35.06 6.112-32.356 17.061.515 1.525 6.542 14.207 9.592 13.05z" id="Path" fill="#6892FA"/><path d="M35.677 198.49c10.005-3.795 19.278 6.405 19.278 13.042 0 6.638-9.983 4.844-14.765 2.093-4.782-2.75-6.042-4.566-7.744-3.758-1.704.809-18.366-8.353-18.366-4.367 0 3.986-1.591 15.971-8.276 15.971-6.683 0-7.563-17.251 1.64-24.145 3.336-2.498-1.444-7.02-1.64-7.284-4.612-5.22 6.685-12.698 5.02-21.857-1.172-6.443-1.172-12.489-.481-16.652.724-4.371 1.805-10.387 3.751-13.771 6.698-14.055 35.862 19.118 52.514 6.278s28.308 10.823 52.454-18.318c8.99-10.85 14.986-33.979 12.79-56.99 4.648 12.894 4.107 31.591-2.74 53.419-13.133 41.85-35.346 53.077-70.672 47.43-15.753-2.52-35.058 6.112-32.355 17.061.515 1.525 6.542 13.005 9.592 11.848z" id="Path" fill="#4A78EB"/><path d="M73.269 157.803c-14.154-.408-19.983 0-35.802 14.232 6.123-2.46 13.736-3.511 20.662-2.403 33.082 5.296 54.78-3.626 68.15-39.342.89-2.373-3.054 1.858-13.878 13.437-10.824 11.578-24.978 14.484-39.132 14.076z" id="Path" fill="#A8BFFA"/><path d="M92.88 150.439c.236 10.805-4 18.894-12.578 23.762-8.149 4.625-15.195 6.31-21.166 4.811-2.336-.587-3.297-3.384-1.812-5.281 6.801-8.7 11.864-15.572 15.175-20.594a3.33 3.33 0 0 1 1.853-1.364c5.443-1.578 10.15-3.05 14.116-4.411 2.133-.733 4.363.822 4.412 3.077z" id="Path" fill="#6892FA"/><path d="M92.88 150.439c.236 10.805-4 18.894-12.578 23.762-8.149 4.625-15.195 6.31-21.166 4.811-2.336-.587-3.297-3.384-1.812-5.281 3.295-4.216 15.608-.288 23.438-5.229 8.328-5.256 12.092-19.225 12.118-18.063z" id="Path" fill="#3260D1" opacity=".5"/><circle id="Oval" fill="#FFF" cx="102.41" cy="92.419" r="8.326"/><circle id="Oval" fill="#1E4EC2" cx="103.242" cy="91.586" r="6.661"/><circle id="Oval" fill="#FFF" cx="97.83" cy="88.672" r="1.249"/><circle id="Oval" fill="#FFF" cx="102.41" cy="89.921" r="2.498"/><path d="M119.227 108.003c-2.174 1.68-5.16 1.174-8.838-1.076a1.665 1.665 0 0 1 1.738-2.841c2.63 1.608 4.279 1.888 5.063 1.282.87-.672 1.14-2.1.583-4.549-.358-1.567 1.492-2.68 2.71-1.631 1.577 1.357 2.26 1.428 2.817.748.74-.905.604-2.571-.76-5.179a1.665 1.665 0 0 1 2.95-1.543c1.915 3.659 2.162 6.663.387 8.831-1.238 1.512-2.802 1.953-4.5 1.458-.095 1.923-.79 3.448-2.15 4.5z" id="Path" fill="#1E4EC2"/><g id="Group" transform="translate(34.97 .567)"><path d="M82.673 30.486a59.356 59.356 0 0 1 20.208 14.1l11.648-5.407a7.91 7.91 0 1 1 1.7 2.945c-3.083 1.496-6.756 3.197-11.022 5.102 5.888 7.099 10.19 15.686 12.24 25.33 6.774 31.872-13.072 61.031-35.007 55.448-14.423-3.672-21.716-5-37.832-9.049-20.049-5.534-39.504-6.279-42.807-21.819-6.775-31.874 13.621-63.215 45.556-70.002 11.04-2.348 22.016-1.452 31.931 2.042l.718-10.83a7.91 7.91 0 1 1 3.399.119c-.364 3.4-.273 7.406-.732 12.022z" id="Path" fill="#BFCCFF" opacity=".3"/><circle id="Oval" fill="#6E89DB" transform="rotate(-12 82.383 10.174)" cx="82.383" cy="10.174" r="8.326"/><circle id="Oval" fill="#6E89DB" transform="rotate(8 121.997 36.528)" cx="121.997" cy="36.528" r="8.326"/><path d="M47.357 27.134c-47.153 21.26-48.38 67.782-34.75 82.843-5.54-2.737-9.478-6.593-10.806-12.841-6.775-31.874 13.621-63.215 45.556-70.002z" id="Path" fill="#9FB6FC" opacity=".3"/><path d="M32.681 56.13a1.665 1.665 0 1 1-2.54-2.153c3.99-4.705 8.49-8.33 13.496-10.863a1.665 1.665 0 0 1 1.503 2.972c-4.598 2.326-8.75 5.67-12.459 10.044zm18.105-13.126a1.666 1.666 0 1 1-1.243-3.09 83.775 83.775 0 0 0 2.89-1.262 1.665 1.665 0 0 1 1.371 3.035 86.74 86.74 0 0 1-3.018 1.316z" id="Shape" fill="#8EA8F7"/></g></g><g id="panties" transform="rotate(29 -269.322 133.088)"><path d="M41.204 2.217C31.31 5.043 20.324 4.066 4.08 3.53c-.813-.027-1.487.223-1.648 1.02-2.5 12.394-1.636 30.772 2.56 55.2a1.665 1.665 0 0 0 1.63 1.384l3.063.007c13.158-.033 20.503-.92 29.904-3.81a1.665 1.665 0 0 0 1.176-1.592l.012-3.134.029-2.036.326.067c2.034.449 4.66 1.698 7.827 3.781a1.665 1.665 0 0 0 1.635.11c6.707-3.219 17.145-22.217 17.808-23.45.663-1.232.651-1.917-.06-3.4-.647-1.352-14.654-16.602-24.286-22.658-.934-.587-.802-2.327-1.659-2.694-.381-.164-.796-.221-1.193-.108z" id="Path-2" fill="#CCDAFF" transform="rotate(1 34.962 31.65)"/><path d="M38.019 48.25c-1.164 1.243-1.4 6.805-1.345 9.962.7-.215 3.758-.38 3.725-2.294l.012-3.134.029-2.036.326.067c2.033.449 4.659 1.698 7.827 3.781.488.321 1.132.383 1.635.11 2.36-1.277 2.694-1.947 3.158-2.38-.638-.887-10.303-4.284-11.942-4.78-1.64-.497-2.262-.537-3.425.705z" id="Path-2" fill="#A1BBFC" transform="rotate(1 45.027 52.717)"/><path d="M4.115 2.698c-1.04.53-1.527.538-1.687 1.335-2.501 12.394-1.637 30.773 2.56 55.2a1.665 1.665 0 0 0 1.63 1.384l3.062.007c-3.026-11.14-4.5-15.962-5.188-29.781-.745-14.948-.832-19.933-.377-28.145z" id="Path-2" fill="#A1BBFC" transform="rotate(1 5.356 31.661)"/><path d="M42.27 1.072C32.377 3.898 4.8 1.886 2.95 3.42c-.6 1.265-.918 2.236-.614 4.479-.038.398 12.604 2.232 25.344.617C40.087 6.942 44.45 6.19 44.517 4.813c.068-1.38-1.85-3.854-2.247-3.74z" id="Path-2" fill="#9DB8FD" transform="rotate(1 23.369 5.119)"/><g id="hearts" transform="translate(3.572 9.02)" fill="#FFA0B6"><path d="M44.405 1.353c-.976 0-1.622.534-1.942.887-.32-.353-.966-.887-1.943-.887-1.333 0-2.22 1.24-2.22 2.628 0 1.039.523 3.062 4.031 4.945.082.044.18.044.263 0 3.508-1.883 4.032-3.906 4.032-4.945 0-1.42-.914-2.628-2.22-2.628z" id="Shape" transform="rotate(-12 42.463 5.156)"/><path d="M9.436 31.327c-.977 0-1.622.533-1.943.886-.32-.353-.966-.886-1.942-.886-1.333 0-2.22 1.24-2.22 2.628 0 1.038.523 3.062 4.031 4.944.082.044.18.044.263 0 3.508-1.882 4.031-3.906 4.031-4.944 0-1.42-.913-2.628-2.22-2.628z" id="Shape" transform="rotate(-12 7.493 35.13)"/><path d="M14.432 18.005c-.977 0-1.623.534-1.943.887-.32-.353-.966-.887-1.943-.887-1.332 0-2.22 1.24-2.22 2.628 0 1.039.524 3.062 4.032 4.945.082.044.18.044.262 0 3.508-1.883 4.032-3.906 4.032-4.945 0-1.42-.914-2.628-2.22-2.628z" id="Shape" transform="rotate(-12 12.489 21.808)"/><path d="M26.088 24.666c-.977 0-1.622.534-1.943.886-.32-.352-.966-.886-1.942-.886-1.333 0-2.22 1.24-2.22 2.628 0 1.039.523 3.062 4.031 4.944.082.044.18.044.263 0 3.508-1.882 4.031-3.905 4.031-4.944 0-1.42-.913-2.628-2.22-2.628z" id="Shape" transform="rotate(-12 24.145 28.469)"/><path d="M27.753 37.988c-.976 0-1.622.533-1.942.886-.32-.353-.966-.886-1.943-.886-1.333 0-2.22 1.24-2.22 2.627 0 1.04.523 3.063 4.031 4.945.082.044.18.044.263 0 3.508-1.882 4.032-3.906 4.032-4.945 0-1.42-.914-2.627-2.22-2.627z" id="Shape" transform="rotate(-12 25.81 41.79)"/><path d="M39.41 14.675c-.977 0-1.623.533-1.943.886-.32-.353-.966-.886-1.943-.886-1.332 0-2.22 1.24-2.22 2.628 0 1.038.524 3.062 4.032 4.944.082.044.18.044.262 0 3.508-1.882 4.032-3.906 4.032-4.944 0-1.42-.914-2.628-2.22-2.628z" id="Shape" transform="rotate(-12 37.467 18.478)"/><path d="M54.396 14.675c-.976 0-1.622.533-1.942.886-.32-.353-.966-.886-1.943-.886-1.333 0-2.22 1.24-2.22 2.628 0 1.038.524 3.062 4.032 4.944.081.044.18.044.262 0 3.508-1.882 4.032-3.906 4.032-4.944 0-1.42-.914-2.628-2.22-2.628z" id="Shape" transform="rotate(-12 52.454 18.478)"/><path d="M46.07 27.997c-.976 0-1.622.533-1.942.886-.32-.353-.966-.886-1.943-.886-1.333 0-2.22 1.239-2.22 2.627 0 1.039.524 3.063 4.032 4.945.081.044.18.044.262 0 3.508-1.882 4.032-3.906 4.032-4.945 0-1.42-.914-2.627-2.22-2.627z" id="Shape" transform="rotate(-12 44.128 31.8)"/><path d="M7.77 4.684c-.976 0-1.621.533-1.942.886-.32-.353-.966-.886-1.943-.886-1.332 0-2.22 1.24-2.22 2.627 0 1.04.524 3.063 4.032 4.945.082.044.18.044.262 0 3.508-1.882 4.032-3.906 4.032-4.945 0-1.42-.914-2.627-2.22-2.627z" id="Shape" transform="rotate(-12 5.828 8.486)"/><path d="M26.088 9.68c-.977 0-1.622.533-1.943.886-.32-.353-.966-.887-1.942-.887-1.333 0-2.22 1.24-2.22 2.628 0 1.039.523 3.062 4.031 4.945.082.044.18.044.263 0 3.508-1.883 4.031-3.906 4.031-4.945 0-1.42-.913-2.628-2.22-2.628z" id="Shape" transform="rotate(-12 24.145 13.482)"/></g><g id="bow" transform="translate(18.63 3.09)" fill="#FFA0B6"><path d="M14.31.04c-1.36.206-3.266 1.018-5.78 2.435-.784.442-.632 1.612.238 1.84l.614.154c5.033 1.218 7.89.675 7.89-2.22 0-1.67-1.197-2.475-2.963-2.208zm1.962 2.21c0 1.993-2.418 2.358-7.252 1.097l.58-.322C14.048.597 16.272.338 16.272 2.25z" id="Path-3" transform="rotate(12 12.646 2.534)"/><path d="M6.12.978C4.76 1.184 2.854 1.996.34 3.413c-.784.441-.632 1.612.238 1.839 5.414 1.413 8.504.945 8.504-2.065 0-1.67-1.197-2.476-2.963-2.209zm1.962 2.21c0 1.992-2.417 2.358-7.252 1.096l.58-.322c4.448-2.428 6.672-2.686 6.672-.775z" id="Path-3" transform="scale(-1 1) rotate(30 0 -13.157)"/><path d="M8.015 2.217a.5.5 0 1 1 .935.353l-.268.72C7.606 6.214 7.068 8.178 7.068 9.126a.5.5 0 1 1-1 0c0-1.189.648-3.469 1.947-6.91z" id="Path-4"/><path d="M8.176 2.54a.5.5 0 0 1 .701.088l.57.74c3.235 4.237 4.908 7.105 5.037 8.715a.5.5 0 0 1-.996.08c-.115-1.427-1.923-4.445-5.4-8.922a.5.5 0 0 1 .088-.702z" id="Path-5"/></g></g></g></g></g></svg>