<svg xmlns="http://www.w3.org/2000/svg" width="215" height="274" viewBox="0 0 215 274">
    <g fill="none" fill-rule="nonzero">
        <path fill="#6892FA"
              d="M53.956 237.558C65.972 233 79.99 241.028 79.99 249c0 7.972-11.99 5.817-17.733 2.514-5.744-3.304-7.257-5.485-9.302-4.514-2.046.971-2.044 3.03-2.044 7.817 0 4.788-1.911 19.183-9.94 19.183-8.027 0-9.084-20.72 1.97-29 4.006-3-1.735-8.431-1.97-8.748-11.895-13.46-17.855-37.957-8.043-62.791C43.383 147 63.233 136.037 76.614 119.663 89.994 103.289 113.854 68 144.307 68c30.453 0 42.534 36.445 26.763 86.71-15.772 50.265-42.451 63.749-84.88 56.966-18.921-3.025-42.107 7.342-38.86 20.492.618 1.832 2.963 6.78 6.626 5.39z"/>
        <path fill="#4A78EB"
              d="M53.956 237.558C65.972 233 79.99 241.028 79.99 249c0 7.972-11.99 5.817-17.733 2.514-5.744-3.304-7.257-5.485-9.302-4.514-2.046.971-2.044 3.03-2.044 7.817 0 4.788-1.911 19.183-9.94 19.183-8.027 0-9.084-20.72 1.97-29 4.006-3-1.735-8.431-1.97-8.748C35.432 229.983 31 221 29 210c-1.407-7.738-1.407-15-.578-20 .87-5.25 2.169-12.476 4.506-16.54C40.972 156.579 76 196.422 96 181s34 13 63-22c10.799-13.033 18-40.811 15.363-68.45 5.582 15.488 4.932 37.944-3.293 64.16-15.772 50.265-42.451 63.749-84.88 56.966-18.921-3.025-42.107 7.342-38.86 20.492.618 1.832 2.963 6.78 6.626 5.39z"/>
        <path fill="#A8BFFA"
              d="M104 197.51c-17-.49-24 0-43 17.093 7.354-2.954 16.498-4.217 24.816-2.886 39.734 6.361 65.637-5.099 81.697-47.995 1.067-2.85-3.513 2.975-16.513 16.881-13 13.907-30 17.397-47 16.907z"/>
        <path fill="#6892FA"
              d="M127.554 188.686c.284 12.977-4.805 22.693-15.107 28.54-9.787 5.554-18.25 7.579-25.421 5.778-2.806-.705-3.96-4.064-2.177-6.343 8.169-10.45 14.25-18.703 18.227-24.734a4 4 0 0 1 2.225-1.639c6.537-1.895 12.19-3.662 16.954-5.298 2.562-.88 5.24.988 5.299 3.696z"/>
        <path fill="#3260D1"
              d="M127.554 188.686c.284 12.977-4.805 22.693-15.107 28.54-9.787 5.554-18.25 7.579-25.421 5.778-2.806-.705-3.96-4.064-2.177-6.343 3.958-5.064 18.747-.346 28.151-6.28 10.002-6.313 14.523-23.091 14.554-21.695z"
              opacity=".5"/>
        <circle cx="139" cy="119" r="10" fill="#FFF"/>
        <circle cx="140" cy="118" r="8" fill="#1E4EC2"/>
        <circle cx="133.5" cy="114.5" r="1.5" fill="#FFF"/>
        <circle cx="139" cy="116" r="3" fill="#FFF"/>
        <path fill="#1E4EC2"
              d="M163.529 125.124c3.067-1.22 5.345-.648 8.847 3.168a2 2 0 1 1-2.947 2.704c-2.503-2.727-3.315-2.596-4.421-2.156-1.226.488-2.013 2.047-2.178 5.059-.106 1.927-2.61 2.6-3.67.987-1.37-2.09-2.136-2.398-3.004-1.798-1.155.8-1.55 1.769-.837 5.23a2 2 0 0 1-3.918.807c-1-4.86-.289-7.41 2.478-9.325 1.929-1.336 3.881-1.327 5.678-.193.746-2.19 2.053-3.72 3.972-4.483z"/>
        <g transform="translate(58 8.681)">
            <path fill="#BFCCFF"
                  d="M99.295 36.616a71.29 71.29 0 0 1 24.271 16.934l13.99-6.494a9.5 9.5 0 1 1 2.041 3.537c-3.702 1.797-8.114 3.84-13.237 6.128 7.072 8.526 12.238 18.84 14.7 30.422 8.137 38.281-15.7 73.303-42.045 66.597-17.323-4.41-26.082-6.005-45.438-10.868-24.08-6.647-47.447-7.541-51.414-26.206-8.137-38.282 16.36-75.925 54.715-84.077 13.261-2.82 26.443-1.744 38.352 2.453l.862-13.008a9.5 9.5 0 1 1 4.082.143c-.437 4.084-.328 8.896-.879 14.44z"
                  opacity=".4"/>
            <circle cx="98.947" cy="12.22" r="10" fill="#6E89DB" opacity=".2" transform="rotate(-12 98.947 12.22)"/>
            <circle cx="146.525" cy="43.872" r="10" fill="#6E89DB" opacity=".2" transform="rotate(8 146.525 43.872)"/>
            <path fill="#9FB6FC"
                  d="M56.878 32.589C.245 58.123-1.228 114 15.142 132.089c-6.653-3.287-11.384-7.919-12.979-15.423-8.137-38.282 16.36-75.925 54.715-84.077z"
                  opacity=".3"/>
            <path fill="#8EA8F7"
                  d="M39.252 67.415a2 2 0 1 1-3.05-2.586c4.791-5.651 10.196-10.005 16.208-13.046a2 2 0 0 1 1.806 3.569c-5.523 2.794-10.509 6.81-14.964 12.063zM60.997 51.65a2 2 0 1 1-1.493-3.712c.701-.281 1.863-.788 3.472-1.515a2 2 0 0 1 1.646 3.646c-1.656.748-2.86 1.273-3.625 1.58z"/>
        </g>
        <g fill="#244EAD">
            <path d="M59.5 31l2.7-8.8 8.8-2.7-9-2.7L59.5 8l-2.7 8.8-8.8 2.7 8.8 2.7z" opacity=".2"/>
            <path d="M201.5 209l2.7-8.8 8.8-2.7-9-2.7-2.5-8.8-2.7 8.8-8.8 2.7 8.8 2.7zM31 94l2.2-4.8L38 87l-4.8-2.2L31 80l-2.2 4.8L24 87l4.8 2.2zM110.1 3.8L109 0l-1.2 3.8L104 5l3.8 1.2 1.1 3.8 1.2-3.8L114 5z"
                  opacity=".4"/>
            <path d="M8.6 55l-2.7 5.8L0 63.5l5.9 2.7L8.5 72l2.7-5.8 5.9-2.7-5.9-2.7z" opacity=".2"/>
        </g>
    </g>
</svg>
