<svg width="16" height="16" viewBox="0 0 16 16" xmlns="http://www.w3.org/2000/svg">
  <path fill-rule="evenodd" clip-rule="evenodd" d="m15.97 8.58-.9-2.8L13.3.2a.3.3 0 0 0-.58 0l-1.77 5.56h-5.9L3.28.22a.3.3 0 0 0-.58 0L.92 5.76l-.89 2.8a.63.63 0 0 0 .22.7L8 15l7.75-5.73a.63.63 0 0 0 .22-.7" fill="#FC6D26"/>
  <path d="m.03 8.58.9-2.8L8 15 .25 9.27a.62.62 0 0 1-.22-.7ZM8 15l7.08-9.23.89 2.8a.63.63 0 0 1-.22.7L8 15Z" fill="#FCA326"/>
  <path d="M.93 5.77h4.12L3.28.21a.3.3 0 0 0-.58 0L.92 5.77ZM8 15l2.95-9.23h4.13L13.3.21a.3.3 0 0 0-.58 0l-1.77 5.56h-5.9L8 15Z" fill="#E24329"/>
</svg>
