<svg xmlns="http://www.w3.org/2000/svg" width="16" height="16" viewBox="0 0 16 16"><g fill="none"><path fill="#FCA326" d="M5.019 6h-4.209l-.768 2.387c-.117.366.012.766.321.994l7.636 5.619 7.638-5.619c.309-.228.438-.628.32-.994l-.768-2.387h-10.17z"/><path fill="#FC6D26" d="M8 15l7.189-9h-14.377z"/><g fill="#E24329"><path d="M8 15l2.98-9h-5.96zM12.65.261l-1.67 5.739h4.209l-1.852-5.756c-.115-.334-.588-.322-.687.017m-9.301 0c-.098-.339-.571-.351-.687-.017l-1.852 5.756h4.209l-1.67-5.739z"/></g></g></svg>