<svg xmlns="http://www.w3.org/2000/svg" width="12" height="12" viewBox="0 0 12 12"><g fill="none"><path fill="#FCA326" d="M11.943 5.839l-.619-1.839h-10.649000000000001l-.619 1.839c-.154.461.013.968.412 1.25l5.532 3.911 5.531-3.911c.399-.282.566-.789.412-1.25"/><path fill="#E24329" d="M10.039.175c-.039-.116-.143-.175-.245-.175h-.001c-.103 0-.205.059-.244.176l-1.299 3.824h-4.5l-1.299-3.824c-.039-.117-.141-.176-.244-.176h-.001c-.103 0-.206.059-.245.175l-1.285 3.825h.002l5.322 7.025 5.322-7.025h.002l-1.285-3.825z"/><path fill="#FC6D26" d="M8.25 4l-2.25 7.024 5.322-7.024zM.678 4l5.322 7.024-2.25-7.024z"/></g></svg>