<svg width="24" height="24" viewBox="0 0 24 24" fill="none" xmlns="http://www.w3.org/2000/svg">
<path d="M18.5 6.75204C18.5 7.4424 17.9404 8.00204 17.25 8.00204C16.5597 8.00204 16 7.4424 16 6.75204C16 6.06169 16.5597 5.50204 17.25 5.50204C17.9404 5.50204 18.5 6.06169 18.5 6.75204Z" fill="url(#paint0_radial_6783_21)"/>
<path fill-rule="evenodd" clip-rule="evenodd" d="M7.00002 12.002C7.00002 9.24062 9.2386 7.00204 12 7.00204C14.7614 7.00204 17 9.24062 17 12.002C17 14.7635 14.7614 17.002 12 17.002C9.2386 17.002 7.00002 14.7635 7.00002 12.002ZM12 9.00204C10.3432 9.00204 9.00002 10.3452 9.00002 12.002C9.00002 13.6589 10.3432 15.002 12 15.002C13.6569 15.002 15 13.6589 15 12.002C15 10.3452 13.6569 9.00204 12 9.00204Z" fill="url(#paint1_radial_6783_21)"/>
<path fill-rule="evenodd" clip-rule="evenodd" d="M13.9007 2.00205L14 2.0027C15.0134 2.00974 15.4024 2.02595 16.123 2.05905C16.9525 2.0753 17.7731 2.23219 18.55 2.52305C19.2146 2.78082 19.818 3.17448 20.3217 3.67884C20.8253 4.1832 21.2182 4.78715 21.475 5.45205C21.7658 6.22903 21.923 7.04961 21.94 7.87905C21.988 8.94605 22 9.28605 22 12.002C22 14.718 21.988 15.059 21.94 16.125C21.9231 16.9548 21.7659 17.7757 21.475 18.553C21.2179 19.2172 20.8249 19.8204 20.3212 20.3239C19.8175 20.8274 19.2143 21.2202 18.55 21.477C17.7734 21.7688 16.9526 21.9261 16.123 21.942C15.056 21.991 14.716 22.002 12 22.002C9.284 22.002 8.94301 21.991 7.87701 21.942C7.04713 21.9262 6.22605 21.769 5.44904 21.477C4.78482 21.2203 4.18158 20.8276 3.67804 20.324C3.1745 19.8205 2.78177 19.2173 2.52502 18.553C2.23312 17.776 2.07583 16.9549 2.06 16.125C2.011 15.059 2 14.717 2 12.002C2 9.28705 2.011 8.94605 2.06 7.87905C2.07595 7.0495 2.23323 6.22874 2.52502 5.45205C2.78192 4.7878 3.17471 4.18452 3.67822 3.68084C4.18173 3.17715 4.78488 2.78417 5.44904 2.52705C6.22628 2.2361 7.04726 2.0792 7.87701 2.06305C8.94275 2.01406 9.28383 2.00205 11.9979 2.00205C11.999 2.00205 12 2.00115 12 2.00005C12 1.99894 12.0009 1.99805 12.002 1.99805C12.8239 1.99805 13.4281 1.99915 13.9007 2.00205ZM12 4.00205H13.8945C14.958 4.00861 15.3216 4.02435 16.0313 4.05694L16.0576 4.05815L16.0839 4.05866C16.6829 4.0704 17.2757 4.18303 17.8373 4.39179C18.2381 4.54893 18.6022 4.78734 18.9065 5.09208C19.2112 5.39727 19.4494 5.76228 19.606 6.16403C19.8151 6.72642 19.9281 7.32003 19.9404 7.92006L19.9409 7.94451L19.942 7.96893C19.988 8.99146 20 9.2967 20 12.002C20 14.7075 19.988 15.0136 19.942 16.0351L19.9409 16.0597L19.9404 16.0843C19.9282 16.6846 19.8151 17.2785 19.606 17.8411C19.4493 18.2416 19.2115 18.6053 18.9073 18.9094C18.6026 19.2139 18.2383 19.4519 17.8372 19.6084C17.2761 19.8179 16.6835 19.9309 16.0846 19.9424L16.0579 19.9429L16.0313 19.9442C15.0107 19.991 14.7071 20.002 12 20.002C9.29289 20.002 8.98833 19.991 7.96885 19.9442L7.94202 19.9429L7.91517 19.9424C7.31597 19.931 6.72309 19.818 6.1617 19.6083C5.76075 19.452 5.39658 19.2141 5.09225 18.9098C4.78793 18.6055 4.5501 18.2413 4.39379 17.8404C4.18407 17.279 4.07107 16.6861 4.05963 16.0869L4.05912 16.06L4.05789 16.0332C4.01103 15.0137 4 14.7082 4 12.002C4 9.29597 4.01102 8.99135 4.05789 7.9708L4.05912 7.94416L4.05963 7.9175C4.07114 7.31862 4.18412 6.72602 4.39372 6.16487C4.55021 5.76376 4.7882 5.39939 5.09268 5.09481C5.3968 4.79059 5.76059 4.55268 6.16112 4.39604C6.72315 4.18705 7.3164 4.07434 7.91595 4.06267L7.94241 4.06215L7.96885 4.06094C8.98917 4.01404 9.29444 4.00205 12 4.00205Z" fill="url(#paint2_radial_6783_21)"/>
<path d="M18.5 6.75204C18.5 7.4424 17.9404 8.00204 17.25 8.00204C16.5597 8.00204 16 7.4424 16 6.75204C16 6.06169 16.5597 5.50204 17.25 5.50204C17.9404 5.50204 18.5 6.06169 18.5 6.75204Z" fill="url(#paint3_radial_6783_21)"/>
<path fill-rule="evenodd" clip-rule="evenodd" d="M7.00002 12.002C7.00002 9.24062 9.2386 7.00204 12 7.00204C14.7614 7.00204 17 9.24062 17 12.002C17 14.7635 14.7614 17.002 12 17.002C9.2386 17.002 7.00002 14.7635 7.00002 12.002ZM12 9.00204C10.3432 9.00204 9.00002 10.3452 9.00002 12.002C9.00002 13.6589 10.3432 15.002 12 15.002C13.6569 15.002 15 13.6589 15 12.002C15 10.3452 13.6569 9.00204 12 9.00204Z" fill="url(#paint4_radial_6783_21)"/>
<path fill-rule="evenodd" clip-rule="evenodd" d="M16.123 2.05905C16.9525 2.0753 17.7731 2.23219 18.55 2.52305C19.2146 2.78082 19.818 3.17448 20.3217 3.67884C20.8253 4.1832 21.2182 4.78715 21.475 5.45205C21.7658 6.22903 21.923 7.04961 21.94 7.87905C21.988 8.94605 22 9.28605 22 12.002C22 14.718 21.988 15.059 21.94 16.125C21.9231 16.9548 21.7659 17.7757 21.475 18.553C21.2179 19.2172 20.8249 19.8204 20.3212 20.3239C19.8175 20.8274 19.2143 21.2202 18.55 21.477C17.7734 21.7688 16.9526 21.9261 16.123 21.942C15.056 21.991 14.716 22.002 12 22.002C9.284 22.002 8.94301 21.991 7.87701 21.942C7.04713 21.9262 6.22605 21.769 5.44904 21.477C4.78482 21.2203 4.18158 20.8276 3.67804 20.324C3.1745 19.8205 2.78177 19.2173 2.52502 18.553C2.23312 17.776 2.07583 16.9549 2.06 16.125C2.011 15.059 2 14.717 2 12.002C2 9.28705 2.011 8.94605 2.06 7.87905C2.07595 7.0495 2.23323 6.22874 2.52502 5.45205C2.78192 4.7878 3.17471 4.18452 3.67822 3.68084C4.18173 3.17715 4.78488 2.78417 5.44904 2.52705C6.22628 2.2361 7.04726 2.0792 7.87701 2.06305C8.94236 2.01408 9.28358 2.00206 11.995 2.00205C11.9968 2.00205 11.9987 2.00133 12 2.00005V2.00005V2.00005C12.0013 1.99877 12.003 1.99805 12.0049 1.99805C13.378 1.99805 14.751 1.99604 16.123 2.05905ZM12 4.00205C13.3445 4.00205 14.6879 3.99525 16.0313 4.05694C16.6505 4.07722 17.2547 4.17521 17.8373 4.39179C18.2381 4.54893 18.6022 4.78734 18.9065 5.09208C19.2112 5.39727 19.4494 5.76228 19.606 6.16403C19.8151 6.72642 19.9281 7.32003 19.9404 7.92006L19.942 7.96893C19.988 8.99146 20 9.2967 20 12.002C20 14.7075 19.988 15.0136 19.942 16.0351C19.9218 16.6542 19.8224 17.2588 19.606 17.8411C19.4493 18.2416 19.2115 18.6053 18.9073 18.9094C18.6026 19.2139 18.2383 19.4519 17.8372 19.6084C17.2675 19.8212 16.6655 19.9312 16.0579 19.9429C14.7058 20.005 13.3534 20.002 12 20.002C10.6466 20.002 9.29419 20.005 7.94202 19.9429C7.33784 19.9429 6.72656 19.8193 6.1617 19.6083C5.76075 19.452 5.39658 19.2141 5.09225 18.9098C4.78793 18.6055 4.5501 18.2413 4.39379 17.8404C4.17606 17.2575 4.07804 16.653 4.05789 16.0332C4.01103 15.0137 4 14.7082 4 12.002C4 9.29597 4.01102 8.99135 4.05789 7.9708C4.07807 7.35141 4.17617 6.74731 4.39372 6.16487C4.55021 5.76376 4.7882 5.39939 5.09268 5.09481C5.3968 4.79059 5.76059 4.55268 6.16112 4.39604C6.74429 4.17919 7.349 4.08121 7.96885 4.06094C8.98917 4.01404 9.29444 4.00205 12 4.00205Z" fill="url(#paint5_radial_6783_21)"/>
<radialGradient id="paint0_radial_6783_21" cx="0" cy="0" r="1" gradientUnits="userSpaceOnUse" gradientTransform="translate(18.9 24.7026) rotate(-115.771) scale(27.2781 40.568)">
<stop offset="0.24392" stop-color="#FF1B90"/>
<stop offset="0.436673" stop-color="#F80261"/>
<stop offset="0.688476" stop-color="#ED00C0"/>
<stop offset="0.776787" stop-color="#C500E9"/>
<stop offset="0.893155" stop-color="#7017FF"/>
</radialGradient>
<radialGradient id="paint1_radial_6783_21" cx="0" cy="0" r="1" gradientUnits="userSpaceOnUse" gradientTransform="translate(18.9 24.7026) rotate(-115.771) scale(27.2781 40.568)">
<stop offset="0.24392" stop-color="#FF1B90"/>
<stop offset="0.436673" stop-color="#F80261"/>
<stop offset="0.688476" stop-color="#ED00C0"/>
<stop offset="0.776787" stop-color="#C500E9"/>
<stop offset="0.893155" stop-color="#7017FF"/>
</radialGradient>
<radialGradient id="paint2_radial_6783_21" cx="0" cy="0" r="1" gradientUnits="userSpaceOnUse" gradientTransform="translate(18.9 24.7026) rotate(-115.771) scale(27.2781 40.568)">
<stop offset="0.24392" stop-color="#FF1B90"/>
<stop offset="0.436673" stop-color="#F80261"/>
<stop offset="0.688476" stop-color="#ED00C0"/>
<stop offset="0.776787" stop-color="#C500E9"/>
<stop offset="0.893155" stop-color="#7017FF"/>
</radialGradient>
<radialGradient id="paint3_radial_6783_21" cx="0" cy="0" r="1" gradientUnits="userSpaceOnUse" gradientTransform="translate(9.25 21.3119) rotate(-57.4448) scale(11.8191 12.2925)">
<stop stop-color="#FFD600"/>
<stop offset="0.484375" stop-color="#FF6930"/>
<stop offset="0.734375" stop-color="#FE3B36"/>
<stop offset="1" stop-color="#FE3B36" stop-opacity="0"/>
</radialGradient>
<radialGradient id="paint4_radial_6783_21" cx="0" cy="0" r="1" gradientUnits="userSpaceOnUse" gradientTransform="translate(9.25 21.3119) rotate(-57.4448) scale(11.8191 12.2925)">
<stop stop-color="#FFD600"/>
<stop offset="0.484375" stop-color="#FF6930"/>
<stop offset="0.734375" stop-color="#FE3B36"/>
<stop offset="1" stop-color="#FE3B36" stop-opacity="0"/>
</radialGradient>
<radialGradient id="paint5_radial_6783_21" cx="0" cy="0" r="1" gradientUnits="userSpaceOnUse" gradientTransform="translate(9.25 21.3119) rotate(-57.4448) scale(11.8191 12.2925)">
<stop stop-color="#FFD600"/>
<stop offset="0.484375" stop-color="#FF6930"/>
<stop offset="0.734375" stop-color="#FE3B36"/>
<stop offset="1" stop-color="#FE3B36" stop-opacity="0"/>
</radialGradient>
</svg>
