<svg xmlns="http://www.w3.org/2000/svg" width="24" height="24" fill="none" viewBox="0 0 24 25">
  <path fill="url(#a)" d="M18.5 6.762a1.25 1.25 0 1 1-2.5 0 1.25 1.25 0 0 1 2.5 0Z"/>
  <path fill="url(#b)" fill-rule="evenodd" d="M7 12.012a5 5 0 1 1 10 0 5 5 0 0 1-10 0Zm5-3a3 3 0 1 0 0 6 3 3 0 0 0 0-6Z" clip-rule="evenodd"/>
  <path fill="url(#c)" fill-rule="evenodd" d="M13.9 2.012h.1c1.013.007 1.402.024 2.123.057.83.016 1.65.173 2.427.464a5.121 5.121 0 0 1 2.925 2.929c.29.777.448 1.597.465 2.427.048 1.067.06 1.407.06 4.123s-.012 3.057-.06 4.123a7.354 7.354 0 0 1-.465 2.428 5.114 5.114 0 0 1-2.925 2.924 7.298 7.298 0 0 1-2.427.465c-1.067.049-1.407.06-4.123.06s-3.057-.011-4.123-.06a7.3 7.3 0 0 1-2.428-.465 5.11 5.11 0 0 1-2.924-2.924 7.3 7.3 0 0 1-.465-2.428C2.011 15.069 2 14.727 2 12.012c0-2.715.011-3.056.06-4.123a7.3 7.3 0 0 1 .465-2.427 5.115 5.115 0 0 1 2.924-2.925 7.333 7.333 0 0 1 2.428-.464c1.066-.05 1.407-.061 4.123-.061v-.004c.823 0 1.428 0 1.9.004Zm-1.9 2h1.895a42.72 42.72 0 0 1 2.136.055h.027l.026.001a5.332 5.332 0 0 1 1.753.334 3.121 3.121 0 0 1 1.769 1.772c.21.562.322 1.156.334 1.756v.024l.002.025C19.988 9 20 9.306 20 12.012c0 2.705-.012 3.011-.058 4.033l-.001.024v.025a5.356 5.356 0 0 1-.335 1.757 3.116 3.116 0 0 1-1.769 1.767 5.3 5.3 0 0 1-1.752.334h-.027l-.027.002c-1.02.047-1.324.058-4.031.058S8.988 20 7.969 19.954l-.027-.001h-.027a5.302 5.302 0 0 1-1.753-.335 3.112 3.112 0 0 1-1.768-1.768 5.3 5.3 0 0 1-.334-1.753v-.027l-.002-.027C4.01 15.023 4 14.718 4 12.012c0-2.706.011-3.01.058-4.031l.001-.027v-.027a5.3 5.3 0 0 1 .335-1.752 3.115 3.115 0 0 1 1.767-1.77 5.333 5.333 0 0 1 1.755-.333h.026l.027-.001c1.02-.047 1.325-.06 4.031-.06Z" clip-rule="evenodd"/>
  <path fill="url(#d)" d="M18.5 6.762a1.25 1.25 0 1 1-2.5 0 1.25 1.25 0 0 1 2.5 0Z"/>
  <path fill="url(#e)" fill-rule="evenodd" d="M7 12.012a5 5 0 1 1 10 0 5 5 0 0 1-10 0Zm5-3a3 3 0 1 0 0 6 3 3 0 0 0 0-6Z" clip-rule="evenodd"/>
  <path fill="url(#f)" fill-rule="evenodd" d="M13.9 2.012h.1c1.013.007 1.402.024 2.123.057.83.016 1.65.173 2.427.464a5.121 5.121 0 0 1 2.925 2.929c.29.777.448 1.597.465 2.427.048 1.067.06 1.407.06 4.123s-.012 3.057-.06 4.123a7.354 7.354 0 0 1-.465 2.428 5.114 5.114 0 0 1-2.925 2.924 7.298 7.298 0 0 1-2.427.465c-1.067.049-1.407.06-4.123.06s-3.057-.011-4.123-.06a7.3 7.3 0 0 1-2.428-.465 5.11 5.11 0 0 1-2.924-2.924 7.3 7.3 0 0 1-.465-2.428C2.011 15.069 2 14.727 2 12.012c0-2.715.011-3.056.06-4.123a7.3 7.3 0 0 1 .465-2.427 5.115 5.115 0 0 1 2.924-2.925 7.333 7.333 0 0 1 2.428-.464c1.066-.05 1.407-.061 4.123-.061v-.004c.823 0 1.428 0 1.9.004Zm-1.9 2h1.895a42.72 42.72 0 0 1 2.136.055h.027l.026.001a5.332 5.332 0 0 1 1.753.334 3.121 3.121 0 0 1 1.769 1.772c.21.562.322 1.156.334 1.756v.024l.002.025C19.988 9 20 9.306 20 12.012c0 2.705-.012 3.011-.058 4.033l-.001.024v.025a5.356 5.356 0 0 1-.335 1.757 3.116 3.116 0 0 1-1.769 1.767 5.3 5.3 0 0 1-1.752.334h-.027l-.027.002c-1.02.047-1.324.058-4.031.058S8.988 20 7.969 19.954l-.027-.001h-.027a5.302 5.302 0 0 1-1.753-.335 3.112 3.112 0 0 1-1.768-1.768 5.3 5.3 0 0 1-.334-1.753v-.027l-.002-.027C4.01 15.023 4 14.718 4 12.012c0-2.706.011-3.01.058-4.031l.001-.027v-.027a5.3 5.3 0 0 1 .335-1.752 3.115 3.115 0 0 1 1.767-1.77 5.333 5.333 0 0 1 1.755-.333h.026l.027-.001c1.02-.047 1.325-.06 4.031-.06Z" clip-rule="evenodd"/>
  <defs>
    <radialGradient id="a" cx="0" cy="0" r="1" gradientTransform="matrix(0 -19.8254 18.4355 0 7.313 23.552)" gradientUnits="userSpaceOnUse">
      <stop stop-color="#FD5"/>
      <stop offset=".1" stop-color="#FD5"/>
      <stop offset=".5" stop-color="#FF543E"/>
      <stop offset="1" stop-color="#C837AB"/>
    </radialGradient>
    <radialGradient id="b" cx="0" cy="0" r="1" gradientTransform="matrix(0 -19.8254 18.4355 0 7.313 23.552)" gradientUnits="userSpaceOnUse">
      <stop stop-color="#FD5"/>
      <stop offset=".1" stop-color="#FD5"/>
      <stop offset=".5" stop-color="#FF543E"/>
      <stop offset="1" stop-color="#C837AB"/>
    </radialGradient>
    <radialGradient id="c" cx="0" cy="0" r="1" gradientTransform="matrix(0 -19.8254 18.4355 0 7.313 23.552)" gradientUnits="userSpaceOnUse">
      <stop stop-color="#FD5"/>
      <stop offset=".1" stop-color="#FD5"/>
      <stop offset=".5" stop-color="#FF543E"/>
      <stop offset="1" stop-color="#C837AB"/>
    </radialGradient>
    <radialGradient id="d" cx="0" cy="0" r="1" gradientTransform="matrix(1.73907 8.68968 -35.81256 7.16717 -1.35 3.449)" gradientUnits="userSpaceOnUse">
      <stop stop-color="#3771C8"/>
      <stop offset=".128" stop-color="#3771C8"/>
      <stop offset="1" stop-color="#60F" stop-opacity="0"/>
    </radialGradient>
    <radialGradient id="e" cx="0" cy="0" r="1" gradientTransform="matrix(1.73907 8.68968 -35.81256 7.16717 -1.35 3.449)" gradientUnits="userSpaceOnUse">
      <stop stop-color="#3771C8"/>
      <stop offset=".128" stop-color="#3771C8"/>
      <stop offset="1" stop-color="#60F" stop-opacity="0"/>
    </radialGradient>
    <radialGradient id="f" cx="0" cy="0" r="1" gradientTransform="matrix(1.73907 8.68968 -35.81256 7.16717 -1.35 3.449)" gradientUnits="userSpaceOnUse">
      <stop stop-color="#3771C8"/>
      <stop offset=".128" stop-color="#3771C8"/>
      <stop offset="1" stop-color="#60F" stop-opacity="0"/>
    </radialGradient>
  </defs>
</svg>
