<svg xmlns="http://www.w3.org/2000/svg" width="16" height="16" fill="none" viewBox="0 0 16 16">
  <path fill="url(#a)" fill-rule="evenodd" d="M4 8.008a4 4 0 1 1 8 0 4 4 0 0 1-8 0Zm4-2a2 2 0 1 0 0 4 2 2 0 0 0 0-4Z" clip-rule="evenodd"/>
  <path fill="url(#b)" d="M12 5.008a1 1 0 1 0 0-2 1 1 0 0 0 0 2Z"/>
  <path fill="url(#c)" fill-rule="evenodd" d="M10 .015 9.52.011C9.143.009 8.659.008 8 .008V.01c-2.173 0-2.446.01-3.298.049a5.867 5.867 0 0 0-1.943.37A4.092 4.092 0 0 0 .42 2.77a5.838 5.838 0 0 0-.372 1.942C.008 5.565 0 5.838 0 8.009c0 2.172.009 2.445.048 3.298.013.664.138 1.32.372 1.942a4.088 4.088 0 0 0 2.34 2.339c.62.233 1.278.36 1.942.372.852.039 1.125.048 3.298.048s2.445-.009 3.298-.048a5.839 5.839 0 0 0 1.942-.372 4.092 4.092 0 0 0 2.34-2.339 5.882 5.882 0 0 0 .372-1.942c.038-.853.048-1.125.048-3.298 0-2.172-.01-2.444-.048-3.297a5.882 5.882 0 0 0-.372-1.942A4.095 4.095 0 0 0 13.24.428a5.866 5.866 0 0 0-1.942-.371C10.828.035 10.534.022 10 .015Zm-.486 1.996H8c-2.162 0-2.4.01-3.207.047h-.026l-.026.001c-.434.009-.863.09-1.27.24A2.092 2.092 0 0 0 2.29 3.485a3.838 3.838 0 0 0-.241 1.266v.027l-.002.026C2.009 5.61 2 5.847 2 8.01c0 2.163.009 2.4.046 3.206l.001.027v.027c.009.433.09.861.242 1.267a2.087 2.087 0 0 0 1.183 1.183c.406.151.835.233 1.268.241h.027l.026.002c.807.037 1.043.046 3.207.046 2.164 0 2.4-.009 3.207-.046l.026-.001h.027a3.84 3.84 0 0 0 1.267-.242 2.092 2.092 0 0 0 1.184-1.182 3.88 3.88 0 0 0 .241-1.27v-.025l.002-.025c.036-.808.046-1.046.046-3.208 0-2.161-.01-2.398-.046-3.207l-.001-.025v-.024a3.881 3.881 0 0 0-.242-1.27 2.096 2.096 0 0 0-1.184-1.187 3.867 3.867 0 0 0-1.268-.24h-.026l-.026-.002a33.774 33.774 0 0 0-1.693-.043Z" clip-rule="evenodd"/>
  <path fill="url(#d)" fill-rule="evenodd" d="M4 8.008a4 4 0 1 1 8 0 4 4 0 0 1-8 0Zm4-2a2 2 0 1 0 0 4 2 2 0 0 0 0-4Z" clip-rule="evenodd"/>
  <path fill="url(#e)" d="M12 5.008a1 1 0 1 0 0-2 1 1 0 0 0 0 2Z"/>
  <path fill="url(#f)" fill-rule="evenodd" d="M10 .015 9.52.011C9.143.009 8.659.008 8 .008V.01c-2.173 0-2.446.01-3.298.049a5.867 5.867 0 0 0-1.943.37A4.092 4.092 0 0 0 .42 2.77a5.838 5.838 0 0 0-.372 1.942C.008 5.565 0 5.838 0 8.009c0 2.172.009 2.445.048 3.298.013.664.138 1.32.372 1.942a4.088 4.088 0 0 0 2.34 2.339c.62.233 1.278.36 1.942.372.852.039 1.125.048 3.298.048s2.445-.009 3.298-.048a5.839 5.839 0 0 0 1.942-.372 4.092 4.092 0 0 0 2.34-2.339 5.882 5.882 0 0 0 .372-1.942c.038-.853.048-1.125.048-3.298 0-2.172-.01-2.444-.048-3.297a5.882 5.882 0 0 0-.372-1.942A4.095 4.095 0 0 0 13.24.428a5.866 5.866 0 0 0-1.942-.371C10.828.035 10.534.022 10 .015Zm-.486 1.996H8c-2.162 0-2.4.01-3.207.047h-.026l-.026.001c-.434.009-.863.09-1.27.24A2.092 2.092 0 0 0 2.29 3.485a3.838 3.838 0 0 0-.241 1.266v.027l-.002.026C2.009 5.61 2 5.847 2 8.01c0 2.163.009 2.4.046 3.206l.001.027v.027c.009.433.09.861.242 1.267a2.087 2.087 0 0 0 1.183 1.183c.406.151.835.233 1.268.241h.027l.026.002c.807.037 1.043.046 3.207.046 2.164 0 2.4-.009 3.207-.046l.026-.001h.027a3.84 3.84 0 0 0 1.267-.242 2.092 2.092 0 0 0 1.184-1.182 3.88 3.88 0 0 0 .241-1.27v-.025l.002-.025c.036-.808.046-1.046.046-3.208 0-2.161-.01-2.398-.046-3.207l-.001-.025v-.024a3.881 3.881 0 0 0-.242-1.27 2.096 2.096 0 0 0-1.184-1.187 3.867 3.867 0 0 0-1.268-.24h-.026l-.026-.002a33.774 33.774 0 0 0-1.693-.043Z" clip-rule="evenodd"/>
  <defs>
    <radialGradient id="a" cx="0" cy="0" r="1" gradientTransform="matrix(0 -15.8572 14.7484 0 4.25 17.24)" gradientUnits="userSpaceOnUse">
      <stop stop-color="#FD5"/>
      <stop offset=".1" stop-color="#FD5"/>
      <stop offset=".5" stop-color="#FF543E"/>
      <stop offset="1" stop-color="#C837AB"/>
    </radialGradient>
    <radialGradient id="b" cx="0" cy="0" r="1" gradientTransform="matrix(0 -15.8572 14.7484 0 4.25 17.24)" gradientUnits="userSpaceOnUse">
      <stop stop-color="#FD5"/>
      <stop offset=".1" stop-color="#FD5"/>
      <stop offset=".5" stop-color="#FF543E"/>
      <stop offset="1" stop-color="#C837AB"/>
    </radialGradient>
    <radialGradient id="c" cx="0" cy="0" r="1" gradientTransform="matrix(0 -15.8572 14.7484 0 4.25 17.24)" gradientUnits="userSpaceOnUse">
      <stop stop-color="#FD5"/>
      <stop offset=".1" stop-color="#FD5"/>
      <stop offset=".5" stop-color="#FF543E"/>
      <stop offset="1" stop-color="#C837AB"/>
    </radialGradient>
    <radialGradient id="d" cx="0" cy="0" r="1" gradientTransform="rotate(78.681 -2.048 -1.055) scale(7.08823 29.218)" gradientUnits="userSpaceOnUse">
      <stop stop-color="#3771C8"/>
      <stop offset=".128" stop-color="#3771C8"/>
      <stop offset="1" stop-color="#60F" stop-opacity="0"/>
    </radialGradient>
    <radialGradient id="e" cx="0" cy="0" r="1" gradientTransform="rotate(78.681 -2.048 -1.055) scale(7.08823 29.218)" gradientUnits="userSpaceOnUse">
      <stop stop-color="#3771C8"/>
      <stop offset=".128" stop-color="#3771C8"/>
      <stop offset="1" stop-color="#60F" stop-opacity="0"/>
    </radialGradient>
    <radialGradient id="f" cx="0" cy="0" r="1" gradientTransform="rotate(78.681 -2.048 -1.055) scale(7.08823 29.218)" gradientUnits="userSpaceOnUse">
      <stop stop-color="#3771C8"/>
      <stop offset=".128" stop-color="#3771C8"/>
      <stop offset="1" stop-color="#60F" stop-opacity="0"/>
    </radialGradient>
  </defs>
</svg>
