<svg width="16" height="16" viewBox="0 0 16 16" fill="none" xmlns="http://www.w3.org/2000/svg">
<path fill-rule="evenodd" clip-rule="evenodd" d="M4 7.99805C4 5.78891 5.79086 3.99805 8 3.99805C10.2091 3.99805 12 5.78891 12 7.99805C12 10.2072 10.2091 11.998 8 11.998C5.79086 11.998 4 10.2072 4 7.99805ZM8 5.99805C6.89543 5.99805 6 6.89348 6 7.99805C6 9.10262 6.89543 9.99805 8 9.99805C9.10457 9.99805 10 9.10262 10 7.99805C10 6.89348 9.10457 5.99805 8 5.99805Z" fill="url(#paint0_radial_6783_19)"/>
<path d="M12 4.99805C12.5523 4.99805 13 4.55033 13 3.99805C13 3.44576 12.5523 2.99805 12 2.99805C11.4477 2.99805 11 3.44576 11 3.99805C11 4.55033 11.4477 4.99805 12 4.99805Z" fill="url(#paint1_radial_6783_19)"/>
<path fill-rule="evenodd" clip-rule="evenodd" d="M10 0.00563748C9.85937 0.00380196 9.7021 0.00235874 9.52055 0.00124638C9.14247 -0.00107011 8.65911 -0.00195169 8.00161 -0.00195312C8.00073 -0.00195313 8 -0.00123689 8 -0.000353372C8 0.000530148 7.99924 0.00124638 7.99836 0.00124638C5.82706 0.00125123 5.5542 0.0108542 4.70161 0.0500365C4.0378 0.0629597 3.38102 0.188451 2.75923 0.421162C2.2279 0.626818 1.74539 0.941142 1.34258 1.34401C0.939769 1.74687 0.625535 2.2294 0.42002 2.76069C0.186582 3.38193 0.0607583 4.0384 0.047998 4.70191C0.00879805 5.55534 0 5.82808 0 7.99965C0 10.1712 0.00879805 10.4448 0.047998 11.2974C0.0606675 11.9612 0.186493 12.6179 0.42002 13.2394C0.625412 13.7707 0.9396 14.2532 1.34243 14.6559C1.74526 15.0587 2.22785 15.3728 2.75923 15.5781C3.38084 15.8116 4.0377 15.9374 4.70161 15.9501C5.55441 15.9892 5.8272 15.998 8 15.998C10.1728 15.998 10.4448 15.9892 11.2984 15.9501C11.9621 15.9373 12.6187 15.8115 13.24 15.5781C13.7714 15.3727 14.254 15.0585 14.657 14.6558C15.0599 14.253 15.3743 13.7706 15.58 13.2394C15.8127 12.6177 15.9385 11.9611 15.952 11.2974C15.9904 10.4448 16 10.172 16 7.99965C16 5.82728 15.9904 5.55534 15.952 4.70191C15.9384 4.03849 15.8126 3.38216 15.58 2.76069C15.3745 2.22888 15.0603 1.74582 14.6573 1.34241C14.2544 0.939002 13.7717 0.624137 13.24 0.417963C12.6185 0.185325 11.962 0.0598354 11.2984 0.0468374C10.8276 0.0252172 10.5336 0.0126028 10 0.00563748ZM9.51441 2.00125H8C5.83764 2.00125 5.60056 2.01083 4.79343 2.04793L4.767 2.04914L4.74054 2.04966C4.30697 2.0581 3.87794 2.1394 3.4714 2.29013C3.20358 2.39533 2.96034 2.55464 2.75689 2.75812C2.55309 2.96195 2.39369 3.20562 2.28861 3.47381C2.13743 3.87942 2.05595 4.30764 2.04763 4.74036L2.04712 4.76703L2.04589 4.79367C2.00883 5.60064 2 5.83701 2 7.99965C2 10.1623 2.00883 10.3994 2.04589 11.2055L2.04712 11.2324L2.04763 11.2592C2.0559 11.6922 2.13742 12.1207 2.28873 12.5266C2.39366 12.7946 2.5529 13.038 2.7565 13.2415C2.96014 13.4451 3.20372 13.6044 3.47192 13.7094C3.87789 13.8606 4.30654 13.9422 4.73976 13.9504L4.76661 13.9509L4.79343 13.9522C5.59972 13.9892 5.83609 13.998 8 13.998C10.1639 13.998 10.3995 13.9892 11.2067 13.9522L11.2333 13.9509L11.26 13.9504C11.693 13.9421 12.1214 13.8606 12.5272 13.7094C12.7955 13.6044 13.0393 13.4449 13.2432 13.2412C13.4467 13.0378 13.6059 12.7947 13.7111 12.5271C13.862 12.1201 13.9436 11.6907 13.9524 11.2566L13.9529 11.232L13.954 11.2074C13.9904 10.3993 14 10.1614 14 7.99965C14 5.83793 13.9904 5.60076 13.954 4.79181L13.9529 4.76738L13.9524 4.74293C13.9435 4.3088 13.8619 3.87931 13.7109 3.47233C13.6057 3.20388 13.4462 2.95993 13.2423 2.7558C13.0387 2.55194 12.7952 2.39225 12.5272 2.28667C12.121 2.13616 11.6924 2.05494 11.2593 2.04645L11.233 2.04594L11.2067 2.04473C10.6457 2.01897 10.3602 2.00648 9.51441 2.00125Z" fill="url(#paint2_radial_6783_19)"/>
<path fill-rule="evenodd" clip-rule="evenodd" d="M4 7.99805C4 5.78891 5.79086 3.99805 8 3.99805C10.2091 3.99805 12 5.78891 12 7.99805C12 10.2072 10.2091 11.998 8 11.998C5.79086 11.998 4 10.2072 4 7.99805ZM8 5.99805C6.89543 5.99805 6 6.89348 6 7.99805C6 9.10262 6.89543 9.99805 8 9.99805C9.10457 9.99805 10 9.10262 10 7.99805C10 6.89348 9.10457 5.99805 8 5.99805Z" fill="url(#paint3_radial_6783_19)"/>
<path d="M12 4.99805C12.5523 4.99805 13 4.55033 13 3.99805C13 3.44576 12.5523 2.99805 12 2.99805C11.4477 2.99805 11 3.44576 11 3.99805C11 4.55033 11.4477 4.99805 12 4.99805Z" fill="url(#paint4_radial_6783_19)"/>
<path fill-rule="evenodd" clip-rule="evenodd" d="M10 0.00563748C9.56685 -1.60627e-05 8.97577 -0.00194795 8.00391 -0.00195312C8.00246 -0.00195312 8.00103 -0.00137812 8 -0.000353372V-0.000353372V-0.000353372C7.99895 0.000672413 7.99747 0.00124639 7.996 0.00124639C5.82687 0.00125818 5.55389 0.0108684 4.70161 0.0500365C4.0378 0.0629597 3.38102 0.188451 2.75923 0.421162C2.2279 0.626818 1.74539 0.941142 1.34258 1.34401C0.939769 1.74687 0.625535 2.2294 0.42002 2.76069C0.186582 3.38193 0.0607583 4.0384 0.047998 4.70191C0.00879805 5.55534 0 5.82808 0 7.99965C0 10.1712 0.00879805 10.4448 0.047998 11.2974C0.0606675 11.9612 0.186493 12.6179 0.42002 13.2394C0.625412 13.7707 0.9396 14.2532 1.34243 14.6559C1.74526 15.0587 2.22785 15.3728 2.75923 15.5781C3.38084 15.8116 4.0377 15.9374 4.70161 15.9501C5.55441 15.9892 5.8272 15.998 8 15.998C10.1728 15.998 10.4448 15.9892 11.2984 15.9501C11.9621 15.9373 12.6187 15.8115 13.24 15.5781C13.7714 15.3727 14.254 15.0585 14.657 14.6558C15.0599 14.253 15.3743 13.7706 15.58 13.2394C15.8127 12.6177 15.9385 11.9611 15.952 11.2974C15.9904 10.4448 16 10.172 16 7.99965C16 5.82728 15.9904 5.55534 15.952 4.70191C15.9384 4.03849 15.8126 3.38216 15.58 2.76069C15.3745 2.22888 15.0603 1.74582 14.6573 1.34241C14.2544 0.939002 13.7717 0.624137 13.24 0.417963C12.6185 0.185325 11.962 0.0598354 11.2984 0.0468374C10.8276 0.0252172 10.5336 0.0126028 10 0.00563748ZM9.51441 2.00125C7.93235 2.00125 6.34777 1.9765 4.767 2.04914C4.32452 2.05776 3.88677 2.13613 3.4714 2.29013C3.20358 2.39533 2.96034 2.55464 2.75689 2.75812C2.55309 2.96195 2.39369 3.20562 2.28861 3.47381C2.13414 3.88826 2.05561 4.32526 2.04712 4.76703C1.99764 5.84418 2 6.9215 2 7.99965C2 9.07782 1.9976 10.1552 2.04712 11.2324C2.05556 11.6745 2.1341 12.1118 2.28873 12.5266C2.39366 12.7946 2.5529 13.038 2.7565 13.2415C2.96014 13.4451 3.20372 13.6044 3.47192 13.7094C3.88685 13.864 4.32434 13.9425 4.76661 13.9509C5.84402 14.0005 6.9216 13.998 8 13.998C9.07839 13.998 10.1559 14.0004 11.2333 13.9509C11.6753 13.9424 12.1125 13.8639 12.5272 13.7094C12.7955 13.6044 13.0393 13.4449 13.2432 13.2412C13.4467 13.0378 13.6059 12.7947 13.7111 12.5271C13.865 12.112 13.9439 11.6743 13.9529 11.232L13.954 11.2074C13.9904 10.3993 14 10.1614 14 7.99965C14 5.83793 13.9904 5.60076 13.954 4.79181L13.9529 4.76738C13.9438 4.32512 13.8649 3.88744 13.7109 3.47233C13.6057 3.20388 13.4462 2.95993 13.2423 2.7558C13.0387 2.55194 12.7952 2.39225 12.5272 2.28667C12.1123 2.1329 11.675 2.0546 11.233 2.04594C10.6601 2.01964 10.0879 2.00479 9.51441 2.00125Z" fill="url(#paint5_radial_6783_19)"/>
<radialGradient id="paint0_radial_6783_19" cx="0" cy="0" r="1" gradientUnits="userSpaceOnUse" gradientTransform="translate(13.52 18.158) rotate(-115.776) scale(21.8189 32.4532)">
<stop offset="0.24392" stop-color="#FF1B90"/>
<stop offset="0.436673" stop-color="#F80261"/>
<stop offset="0.688476" stop-color="#ED00C0"/>
<stop offset="0.776787" stop-color="#C500E9"/>
<stop offset="0.893155" stop-color="#7017FF"/>
</radialGradient>
<radialGradient id="paint1_radial_6783_19" cx="0" cy="0" r="1" gradientUnits="userSpaceOnUse" gradientTransform="translate(13.52 18.158) rotate(-115.776) scale(21.8189 32.4532)">
<stop offset="0.24392" stop-color="#FF1B90"/>
<stop offset="0.436673" stop-color="#F80261"/>
<stop offset="0.688476" stop-color="#ED00C0"/>
<stop offset="0.776787" stop-color="#C500E9"/>
<stop offset="0.893155" stop-color="#7017FF"/>
</radialGradient>
<radialGradient id="paint2_radial_6783_19" cx="0" cy="0" r="1" gradientUnits="userSpaceOnUse" gradientTransform="translate(13.52 18.158) rotate(-115.776) scale(21.8189 32.4532)">
<stop offset="0.24392" stop-color="#FF1B90"/>
<stop offset="0.436673" stop-color="#F80261"/>
<stop offset="0.688476" stop-color="#ED00C0"/>
<stop offset="0.776787" stop-color="#C500E9"/>
<stop offset="0.893155" stop-color="#7017FF"/>
</radialGradient>
<radialGradient id="paint3_radial_6783_19" cx="0" cy="0" r="1" gradientUnits="userSpaceOnUse" gradientTransform="translate(5.8 15.446) rotate(-57.4396) scale(9.45393 9.83345)">
<stop stop-color="#FFD600"/>
<stop offset="0.484375" stop-color="#FF6930"/>
<stop offset="0.734375" stop-color="#FE3B36"/>
<stop offset="1" stop-color="#FE3B36" stop-opacity="0"/>
</radialGradient>
<radialGradient id="paint4_radial_6783_19" cx="0" cy="0" r="1" gradientUnits="userSpaceOnUse" gradientTransform="translate(5.8 15.446) rotate(-57.4396) scale(9.45393 9.83345)">
<stop stop-color="#FFD600"/>
<stop offset="0.484375" stop-color="#FF6930"/>
<stop offset="0.734375" stop-color="#FE3B36"/>
<stop offset="1" stop-color="#FE3B36" stop-opacity="0"/>
</radialGradient>
<radialGradient id="paint5_radial_6783_19" cx="0" cy="0" r="1" gradientUnits="userSpaceOnUse" gradientTransform="translate(5.8 15.446) rotate(-57.4396) scale(9.45393 9.83345)">
<stop stop-color="#FFD600"/>
<stop offset="0.484375" stop-color="#FF6930"/>
<stop offset="0.734375" stop-color="#FE3B36"/>
<stop offset="1" stop-color="#FE3B36" stop-opacity="0"/>
</radialGradient>
</svg>
