<svg width="224" height="212" viewBox="0 0 224 212" fill="none" xmlns="http://www.w3.org/2000/svg">
  <path d="M190.52 60.64c-6.92-22.97-20.76-44.94-39.4-60.1-.7-.58-1.69-.72-2.54-.3L118.5 13.87c-26.83-4.97-53.66-6.1-79.64 3.54a2.3 2.3 0 00-1.55 2.13c-.43 7.37-1.98 38.13-1.98 38.13-17.93 19-31.91 42.81-35.3 68.76-.14.85.28 1.84.99 2.27l32.2 22.54c6.91 22.96 20.75 44.94 39.39 60.1.7.57 1.7.71 2.54.29L105.23 198c26.83 4.96 53.66 6.1 79.64-3.55a2.3 2.3 0 001.56-2.12l1.97-38.14c17.94-19 31.92-42.81 35.3-68.75a2.33 2.33 0 00-.98-2.27l-32.2-22.54z" fill="#FFE84D"/>
</svg>
