<svg width="16" height="17" viewBox="0 0 16 17" xmlns="http://www.w3.org/2000/svg"><path d="M7 4.5a1.5 1.5 0 1 1-3 0 1.5 1.5 0 0 1 3 0Z"/><path fill-rule="evenodd" clip-rule="evenodd" d="M0 1a1 1 0 0 1 1-1h14a1 1 0 1 1 0 2v8a1 1 0 1 1 0 2h-3.743l1.582 2.46a1 1 0 1 1-1.682 1.082L8.892 12.02 8.88 12H7.128l-.015.024-2.265 3.522a1 1 0 1 1-1.682-1.082L4.75 12H1a1 1 0 1 1 0-2V2a1 1 0 0 1-1-1Zm3 9h2.77L4 8.23l-1 1V10Zm3.93 0H13V7.93l-2-2L6.93 10ZM3 2h10v3.1l-.59-.58a2 2 0 0 0-2.82 0L6.35 7.75l-.94-.93A2 2 0 0 0 3 6.51V2Z"/></svg>