<svg xmlns="http://www.w3.org/2000/svg" xlink="http://www.w3.org/1999/xlink" width="22" height="22" viewBox="0 0 22 22"><path d="M13.9767,10.9997 C16.0767,13.1127 17.9747,15.0257 17.9747,15.0257 C19.3417,16.3917 19.3417,18.6077 17.9747,19.9747 C16.6077,21.3417 14.3927,21.3417 13.0257,19.9747 C11.6587,18.6077 11.6587,16.3917 13.0257,15.0257 C13.1967,14.8537 13.3807,14.7037 13.5767,14.5757 L11.9937,12.9937 C10.7517,14.2437 9.6287,15.3707 8.9997,15.9997 C5.9997,18.9997 1.9997,18.9997 1.9997,18.9997 L9.9997,10.9997 L1.9997,2.9997 C1.9997,2.9997 5.9997,2.9997 8.9997,5.9997 C9.6287,6.6297 11.9937,9.0057 11.9937,9.0057 L13.5767,7.4247 C13.3807,7.2957 13.1967,7.1457 13.0257,6.9747 C11.6587,5.6077 11.6587,3.3917 13.0257,2.0247 C14.3927,0.6587 16.6077,0.6587 17.9747,2.0247 C19.3417,3.3917 19.3417,5.6077 17.9747,6.9747 C17.9747,6.9747 16.0767,8.8877 13.9767,10.9997 Z M17.0557,19.0557 C17.9137,18.1987 17.9127,16.8017 17.0557,15.9447 C16.1987,15.0867 14.8017,15.0867 13.9447,15.9447 C13.0857,16.8017 13.0867,18.1987 13.9447,19.0557 C14.8017,19.9127 16.1987,19.9137 17.0557,19.0557 Z M13.9447,2.9447 C13.0867,3.8017 13.0857,5.1987 13.9447,6.0557 C14.8017,6.9137 16.1987,6.9127 17.0557,6.0557 C17.9127,5.1987 17.9137,3.8017 17.0557,2.9447 C16.1987,2.0867 14.8017,2.0867 13.9447,2.9447 Z"/></svg>
