<svg xmlns="http://www.w3.org/2000/svg" xlink="http://www.w3.org/1999/xlink" width="16" height="16" viewBox="0 0 16 16"><path d="M13.9569,10.7269 L13.9419,10.7309 C14.5839,11.2809 14.9999,12.0879 14.9999,12.9999 C14.9999,14.6569 13.6559,15.9999 11.9999,15.9999 C10.3439,15.9999 8.9999,14.6569 8.9999,12.9999 C8.9999,11.9759 9.5159,11.0739 10.2989,10.5319 L8.8689,9.2209 C7.5769,10.4039 5.7419,12.0869 5.2449,12.5419 C3.8169,13.8519 0.9999,13.9999 0.9999,13.9999 L7.5389,7.9999 L0.9999,1.9999 C0.9999,1.9999 3.8169,2.1479 5.2449,3.4579 C5.7419,3.9129 7.5769,5.5959 8.8689,6.7789 L10.2989,5.4679 C9.5159,4.9259 8.9999,4.0249 8.9999,2.9999 C8.9999,1.3429 10.3439,-0.0001 11.9999,-0.0001 C13.6559,-0.0001 14.9999,1.3429 14.9999,2.9999 C14.9999,3.9119 14.5839,4.7189 13.9419,5.2689 L13.9569,5.2739 C13.2739,5.9569 12.4009,5.9999 11.6409,6.7059 L10.2869,7.9999 L11.6409,9.2949 C12.4009,9.9999 13.2739,10.0439 13.9569,10.7269 Z M13.9629,12.6289 C13.9539,12.5839 13.9399,12.5419 13.9279,12.4969 C13.9099,12.4259 13.8899,12.3559 13.8629,12.2879 C13.8419,12.2329 13.8169,12.1799 13.7919,12.1279 C13.7679,12.0789 13.7419,12.0319 13.7149,11.9849 C13.6789,11.9239 13.6409,11.8659 13.5999,11.8099 C13.5789,11.7829 13.5569,11.7589 13.5359,11.7329 C13.1689,11.2889 12.6209,10.9999 11.9999,10.9999 C11.2809,10.9999 10.6559,11.3829 10.3029,11.9529 C10.2979,11.9609 10.2939,11.9709 10.2889,11.9799 C10.2119,12.1079 10.1519,12.2449 10.1059,12.3899 C10.0939,12.4259 10.0809,12.4609 10.0709,12.4989 C10.0289,12.6599 9.9999,12.8259 9.9999,12.9999 C9.9999,14.1049 10.8959,14.9999 11.9999,14.9999 C13.1049,14.9999 13.9999,14.1049 13.9999,12.9999 C13.9999,12.8729 13.9849,12.7499 13.9629,12.6289 Z M10.2889,4.0209 C10.2939,4.0289 10.2979,4.0389 10.3029,4.0469 C10.6559,4.6169 11.2809,4.9999 11.9999,4.9999 C12.6209,4.9999 13.1689,4.7109 13.5359,4.2669 C13.5569,4.2409 13.5789,4.2169 13.5999,4.1909 C13.6409,4.1339 13.6789,4.0759 13.7149,4.0149 C13.7419,3.9679 13.7679,3.9209 13.7919,3.8719 C13.8169,3.8199 13.8419,3.7679 13.8629,3.7119 C13.8899,3.6449 13.9099,3.5739 13.9279,3.5029 C13.9399,3.4589 13.9539,3.4159 13.9629,3.3709 C13.9849,3.2509 13.9999,3.1269 13.9999,2.9999 C13.9999,1.8959 13.1049,0.9999 11.9999,0.9999 C10.8959,0.9999 9.9999,1.8959 9.9999,2.9999 C9.9999,3.1739 10.0289,3.3399 10.0709,3.5019 C10.0809,3.5389 10.0939,3.5739 10.1059,3.6099 C10.1519,3.7549 10.2119,3.8929 10.2889,4.0209 Z"/></svg>
