<svg xmlns="http://www.w3.org/2000/svg" xlink="http://www.w3.org/1999/xlink" width="12" height="12" viewBox="0 0 12 12"><path d="M9.736,7.339 C10.629,7.871 11,8.571 11,9.5 C11,10.881 9.881,12 8.5,12 C7.119,12 6,10.881 6,9.5 C6,8.723 6.362,8.037 6.918,7.579 L6.264,6.956 C5.467,7.668 4.346,8.669 3.895,9.067 C2.266,10.5 0,11 0,11 L5.258,6 L0,1 C0,1 2.266,1.5 3.895,2.933 C4.346,3.331 5.467,4.332 6.264,5.044 L6.918,4.421 C6.362,3.963 6,3.277 6,2.5 C6,1.119 7.119,0 8.5,0 C9.881,0 11,1.119 11,2.5 C11,3.429 10.629,4.129 9.736,4.661 C8.844,5.192 8.282,4.757 7.402,5.552 L6.906,6 L7.402,6.448 C8.282,7.243 8.844,6.808 9.736,7.339 Z M8.5,11 C9.328,11 10,10.329 10,9.5 C10,8.671 9.328,8 8.5,8 C7.672,8 7,8.671 7,9.5 C7,10.329 7.672,11 8.5,11 Z M8.5,1 C9.328,1 10,1.671 10,2.5 C10,3.329 9.328,4 8.5,4 C7.672,4 7,3.329 7,2.5 C7,1.671 7.672,1 8.5,1"/></svg>
