<svg xmlns="http://www.w3.org/2000/svg" xlink="http://www.w3.org/1999/xlink" width="22" height="22" viewBox="0 0 22 22"><path d="M20.005,3 C20.505,3 21.005,3.5 21.005,4 L21.005,5 C21.005,5.5 20.505,6 20.005,6 L7.005,6 C6.505,6 6.005,5.5 6.005,5 L6.005,4 C6.005,3.5 6.505,3 7.005,3 L20.005,3 Z M20.005,9 C20.505,9 21.005,9.5 21.005,10 L21.005,11 C21.005,11.5 20.505,12 20.005,12 L7.005,12 C6.505,12 6.005,11.5 6.005,11 L6.005,10 C6.005,9.5 6.505,9 7.005,9 L20.005,9 Z M20.005,15 C20.505,15 21.005,15.5 21.005,16 L21.005,17 C21.005,17.5 20.505,18 20.005,18 L7.005,18 C6.505,18 6.005,17.5 6.005,17 L6.005,16 C6.005,15.5 6.505,15 7.005,15 L20.005,15 Z M2.505,2.75 C3.441,2.75 4.26,3.566 4.26,4.5 C4.26,5.434 3.441,6.25 2.505,6.25 C1.569,6.25 0.75,5.434 0.75,4.5 C0.75,3.566 1.569,2.75 2.505,2.75 Z M2.505,12.25 C1.571,12.25 0.755,11.434 0.755,10.5 C0.755,9.566 1.571,8.75 2.505,8.75 C3.439,8.75 4.255,9.566 4.255,10.5 C4.255,11.434 3.439,12.25 2.505,12.25 Z M2.505,14.75 C3.441,14.75 4.26,15.566 4.26,16.5 C4.26,17.434 3.441,18.25 2.505,18.25 C1.569,18.25 0.75,17.434 0.75,16.5 C0.75,15.566 1.569,14.75 2.505,14.75 Z"/></svg>
