<svg xmlns="http://www.w3.org/2000/svg" xlink="http://www.w3.org/1999/xlink" width="16" height="16" viewBox="0 0 16 16"><path d="M1.5,11 C1.8,11 2,11.2 2,11.5 L2,12.5 C2,12.8 1.8,13 1.5,13 L0.5,13 C0.2,13 0,12.8 0,12.5 L0,11.5 C0,11.2 0.2,11 0.5,11 L1.5,11 Z M1.5,7 C1.8,7 2,7.2 2,7.5 L2,8.5 C2,8.8 1.8,9 1.5,9 L0.5,9 C0.2,9 0,8.8 0,8.5 L0,7.5 C0,7.2 0.2,7 0.5,7 L1.5,7 Z M1.5,3 C1.8,3 2,3.2 2,3.5 L2,4.5 C2,4.8 1.8,5 1.5,5 L0.5,5 C0.2,5 0,4.8 0,4.5 L0,3.5 C0,3.2 0.2,3 0.5,3 L1.5,3 Z M15.5,11 C15.8,11 16,11.2 16,11.5 L16,12.5 C16,12.8 15.8,13 15.5,13 L3.5,13 C3.2,13 3,12.8 3,12.5 L3,11.5 C3,11.2 3.2,11 3.5,11 L15.5,11 Z M15.5,7 C15.8,7 16,7.2 16,7.5 L16,8.5 C16,8.8 15.8,9 15.5,9 L3.5,9 C3.2,9 3,8.8 3,8.5 L3,7.5 C3,7.2 3.2,7 3.5,7 L15.5,7 Z M15.5,3 C15.8,3 16,3.2 16,3.5 L16,4.5 C16,4.8 15.8,5 15.5,5 L3.5,5 C3.2,5 3,4.8 3,4.5 L3,3.5 C3,3.2 3.2,3 3.5,3 L15.5,3 Z"/></svg>
