<svg xmlns="http://www.w3.org/2000/svg" xlink="http://www.w3.org/1999/xlink" width="12" height="12" viewBox="0 0 12 12"><path d="M1.5,9 L0.5,9 C0.2,9 0,9.2 0,9.5 L0,10.5 C0,10.8 0.2,11 0.5,11 L1.5,11 C1.8,11 2,10.8 2,10.5 L2,9.5 C2,9.2 1.8,9 1.5,9 M1.5,5 L0.5,5 C0.2,5 0,5.2 0,5.5 L0,6.5 C0,6.8 0.2,7 0.5,7 L1.5,7 C1.8,7 2,6.8 2,6.5 L2,5.5 C2,5.2 1.8,5 1.5,5 M1.5,1 L0.5,1 C0.2,1 0,1.2 0,1.5 L0,2.5 C0,2.8 0.2,3 0.5,3 L1.5,3 C1.8,3 2,2.8 2,2.5 L2,1.5 C2,1.2 1.8,1 1.5,1 M11.5,9 L3.5,9 C3.2,9 3,9.2 3,9.5 L3,10.5 C3,10.8 3.2,11 3.5,11 L11.4,11 C11.7,11 11.9,10.8 11.9,10.5 L11.9,9.5 C12,9.2 11.8,9 11.5,9 M11.5,5 L3.5,5 C3.2,5 3,5.2 3,5.5 L3,6.5 C3,6.8 3.2,7 3.5,7 L11.4,7 C11.8,7 12,6.8 12,6.5 L12,5.5 C12,5.2 11.8,5 11.5,5 M11.5,1 L3.5,1 C3.2,1 3,1.2 3,1.5 L3,2.5 C3,2.8 3.2,3 3.5,3 L11.4,3 C11.8,3 12,2.8 12,2.5 L12,1.5 C12,1.2 11.8,1 11.5,1"/></svg>
