<svg xmlns="http://www.w3.org/2000/svg" width="8" height="8" viewBox="0 0 8 8"><path d="M1.5 4.75a.75.75 0 110 1.5.75.75 0 010-1.5zM7.75 5a.25.25 0 01.25.25v.5a.25.25 0 01-.25.25h-4.5A.25.25 0 013 5.75v-.5A.25.25 0 013.25 5h4.5zM1.5 2.75a.75.75 0 110 1.5.75.75 0 010-1.5zM7.75 3a.25.25 0 01.25.25v.5a.25.25 0 01-.25.25h-4.5A.25.25 0 013 3.75v-.5A.25.25 0 013.25 3h4.5zM1.5.75a.75.75 0 110 1.5.75.75 0 010-1.5zM7.75 1a.25.25 0 01.25.25v.5a.25.25 0 01-.25.25h-4.5A.25.25 0 013 1.75v-.5A.25.25 0 013.25 1h4.5z"/></svg>