<svg xmlns="http://www.w3.org/2000/svg" width="80" height="80" viewBox="0 0 80 80">
    <g fill="#CBD1D3" fill-rule="evenodd">
        <path d="M54.943 40.346c1.318.228 2.591.121 3.682-.346C60.13 43.55 61 47.638 61 52H48.348c0-1.6-.127-3.158-.348-4.673l.013.007 6.93-6.988zM46 27.765c-.433 1.24-.456 2.678-.085 4.144l-3.063 3.088-.003.003c-2.359-3.37-5.405-5.882-8.849-7.126l.048-.155a24.651 24.651 0 0 1 5.9-.719c2.089 0 4.114.273 6.052.765z"
              opacity=".66"/>
        <path d="M33.82 28.158c1.105.394 2.166.93 3.18 1.57C28.68 33.71 22.924 42.178 22.924 52H15c0-11.624 8.047-21.367 18.885-24l-.065.158zm22.108-6.986c2.012-1.967 5.853-1.4 8.579 1.267 2.727 2.667 3.306 6.423 1.294 8.39-.06.06-.128.11-.193.166-2.464.09-5.295-1.035-7.554-3.245-1.567-1.533-2.599-3.337-3.054-5.103.196-.553.5-1.056.928-1.475zM61 70V60h6v10h-6z"
              opacity=".33"/>
        <path d="M77.1 7.6a.9.9 0 0 1 0 1.8c-1.49 0-2.7 1.21-2.7 2.7a.9.9 0 0 1-1.8 0c0-1.49-1.21-2.7-2.7-2.7a.9.9 0 0 1 0-1.8c1.49 0 2.7-1.21 2.7-2.7a.9.9 0 0 1 1.8 0c0 1.49 1.21 2.7 2.7 2.7zM54.5 12a.5.5 0 1 1 0 1 1.5 1.5 0 0 0-1.5 1.5.5.5 0 0 1-1 0 1.5 1.5 0 0 0-1.5-1.5.5.5 0 1 1 0-1 1.5 1.5 0 0 0 1.5-1.5.5.5 0 0 1 1 0 1.5 1.5 0 0 0 1.5 1.5zm19 27a.5.5 0 1 1 0 1 1.5 1.5 0 0 0-1.5 1.5.5.5 0 0 1-1 0 1.5 1.5 0 0 0-1.5-1.5.5.5 0 1 1 0-1 1.5 1.5 0 0 0 1.5-1.5.5.5 0 0 1 1 0 1.5 1.5 0 0 0 1.5 1.5z"/>
        <path d="M68.47 17.53c3.939 3.942 4.697 9.595 1.688 12.605l-8.108 8.108a25.822 25.822 0 0 1 3.927 12.85 5.007 5.007 0 0 1 4.037 4.904 1 1 0 0 1-1 1h-1V70a1 1 0 0 1-2 0v-9.002H14V70a1 1 0 0 1-2 0V56.997h-1a1 1 0 0 1-1.001-1 5.008 5.008 0 0 1 4.024-4.904C14.501 37.17 25.968 25.99 40.007 25.99c1.899 0 3.745.215 5.529.604a5.968 5.968 0 0 1 1.079-1.5l9.251-9.252c3.01-3.01 8.663-2.251 12.604 1.689zm.274 11.19c2.229-2.23 1.471-6.613-1.688-9.774-1.935-1.934-4.33-2.969-6.406-2.969-1.316 0-2.505.415-3.37 1.28-2.227 2.23-1.471 6.613 1.69 9.775 3.16 3.16 7.547 3.917 9.774 1.688zm-9.251 9.251l5.998-5.998c-.034 0-.068.004-.102.004-2.614 0-5.519-1.216-7.835-3.53-2.346-2.35-3.553-5.303-3.518-7.946l-6.007 6.007c-2.227 2.23-1.471 6.613 1.69 9.775 3.16 3.159 7.546 3.919 9.774 1.688zm4.499 13.024a23.824 23.824 0 0 0-3.408-11.32c-.24.208-.503.378-.77.543 1.291 3.292 2.057 6.951 2.172 10.777h2.006zm3.85 4.001a3.006 3.006 0 0 0-2.829-2H15.001a3.007 3.007 0 0 0-2.83 2h55.672zm-5.83 4.001h4.001v-2h-4v2zm-7.001 0h5.001v-2h-5.001v2zm-7.002 0h5.001v-2h-5v2zm-7.002 0h5.002v-2h-5.002v2zm-7.001 0h5.001v-2h-5.001v2zm-7.002 0h5.001v-2h-5v2zm-7.002 0h5.002v-2h-5.002v2zm-6.001 0h4v-2h-4v2zM33.726 28.83c-9.89 2.686-17.266 11.543-17.705 22.166h30.956C46.65 40.6 41.306 31.58 33.726 28.83zm6.281-.839c-1.003 0-1.991.07-2.962.19 2.258 1.288 4.28 3.1 5.99 5.301l1.912-1.912c-.2-1.057-.226-2.098-.055-3.07a23.982 23.982 0 0 0-4.885-.509zM57.98 40.981a7.503 7.503 0 0 1-1.843.247c-.326 0-.656-.019-.99-.057l-6.429 6.43c.146 1.11.224 2.247.258 3.394h11.01c-.112-3.561-.82-6.962-2.006-10.014zm-12.372-7.244l-1.395 1.395c1.895 2.9 3.305 6.33 4.086 10.059l4.568-4.569c-1.606-.575-3.19-1.551-4.564-2.925a12.622 12.622 0 0 1-2.695-3.96z"/>
    </g>
</svg>
