<svg xmlns="http://www.w3.org/2000/svg" xlink="http://www.w3.org/1999/xlink" width="22" height="22" viewBox="0 0 22 22"><path d="M20.2949707,2.22760467 C19.8559707,1.95460467 19.3069707,1.92460467 18.8429707,2.15160467 C15.9119707,3.58060467 14.7949707,3.40060467 13.1049707,3.12760467 C12.2689707,2.99460467 11.3199707,2.84160467 10.0709707,2.84160467 C7.4399707,2.84160467 4.7969707,4.26260467 3.3389707,6.46060467 C2.2849707,8.04960467 1.3759707,10.6946047 2.6759707,14.4816047 C1.4569707,15.7776047 0.488970704,17.3196047 0.0429707042,19.1446047 C-0.153029296,19.9496047 0.339970704,20.7606047 1.1449707,20.9566047 C1.2639707,20.9866047 1.3839707,20.9996047 1.5009707,20.9996047 C2.1769707,20.9996047 2.7899707,20.5406047 2.9569707,19.8556047 C4.3969707,13.9596047 14.0549707,11.5796047 14.1519707,11.5556047 C14.9569707,11.3626047 15.4539707,10.5536047 15.2619707,9.74860467 C15.0699707,8.94360467 14.2649707,8.44160467 13.4569707,8.63760467 C13.1689707,8.70660467 8.8919707,9.75660467 5.1949707,12.3306047 C4.8679707,10.7036047 5.0769707,9.26860467 5.8399707,8.11960467 C6.8829707,6.54560467 8.7169707,5.84160467 10.0709707,5.84160467 C11.0809707,5.84160467 11.8679707,5.96760467 12.6289707,6.09060467 C14.1469707,6.33260467 15.5989707,6.56760467 17.9999707,5.75160467 L17.9999707,6.02660467 C17.9999707,9.01860467 17.0549707,13.2146047 14.3929707,15.1966047 C12.8579707,16.3376047 10.9029707,16.5656047 8.5869707,15.8716047 C7.7989707,15.6356047 6.9569707,16.0816047 6.7199707,16.8766047 C6.4819707,17.6696047 6.9319707,18.5066047 7.7259707,18.7446047 C8.9499707,19.1116047 10.0569707,19.2636047 11.0499707,19.2636047 C13.3629707,19.2636047 15.0589707,18.4396047 16.1829707,17.6036047 C19.7339707,14.9606047 20.9999707,9.89060467 20.9999707,6.02660467 L20.9999707,3.49960467 C20.9999707,2.98260467 20.7329707,2.50160467 20.2949707,2.22760467"/></svg>
