<svg xmlns="http://www.w3.org/2000/svg" xlink="http://www.w3.org/1999/xlink" width="16" height="16" viewBox="0 0 16 16"><path d="M15.5366156,1.15716951 C15.2466156,0.972169507 14.8846156,0.949169507 14.5746156,1.09516951 C12.2426156,2.19216951 11.3496156,2.05316951 9.99361565,1.84416951 C9.35061565,1.74516951 8.62261565,1.63316951 7.66761565,1.63316951 C5.62561565,1.63316951 3.59861565,2.71416951 2.50561565,4.38616951 C1.74361565,5.55116951 1.11361565,7.49616951 2.10661565,10.2531695 C1.14561565,11.2231695 0.379615648,12.3801695 0.0306156481,13.7551695 C-0.104384352,14.2901695 0.219615648,14.8341695 0.755615648,14.9701695 C0.837615648,14.9901695 0.920615648,15.0001695 1.00161565,15.0001695 C1.44761565,15.0001695 1.85461565,14.6981695 1.97061565,14.2451695 C3.10861565,9.74516951 10.7176156,7.93916951 10.7946156,7.92216951 C11.3316156,7.79816951 11.6676156,7.26116951 11.5446156,6.72216951 C11.4216156,6.18516951 10.8816156,5.84816951 10.3466156,5.97216951 C10.1186156,6.02516951 6.65261565,6.84716951 3.76061565,8.87016951 C3.43561565,7.56316951 3.57361565,6.40716951 4.18061565,5.47916951 C5.01461565,4.20416951 6.53261565,3.63316951 7.66761565,3.63316951 C8.46861565,3.63316951 9.08861565,3.72816951 9.68761565,3.82116951 C10.8876156,4.00716951 12.0346156,4.18516951 14.0006156,3.49616951 L14.0006156,3.89516951 C14.0006156,6.01816951 13.2476156,9.06516951 11.1256156,10.6611695 C9.77361565,11.6761695 8.08461565,11.9011695 6.11161565,11.3281695 C5.58161565,11.1761695 5.02661565,11.4811695 4.87261565,12.0111695 C4.71961565,12.5421695 5.02461565,13.0951695 5.55561565,13.2501695 C6.44361565,13.5071695 7.30361565,13.6351695 8.12561565,13.6351695 C9.68761565,13.6351695 11.1126156,13.1731695 12.3266156,12.2601695 C15.0356156,10.2231695 16.0006156,6.60316951 16.0006156,3.89516951 L16.0006156,2.00116951 C16.0006156,1.65916951 15.8256156,1.34016951 15.5366156,1.15716951"/></svg>
