<svg xmlns="http://www.w3.org/2000/svg" xlink="http://www.w3.org/1999/xlink" width="12" height="12" viewBox="0 0 12 12"><path d="M11.6455,1.1121 C11.4225,0.9761 11.1465,0.9631 10.9165,1.0781 C9.1735,1.9421 8.5075,1.8341 7.5005,1.6691 C7.0175,1.5901 6.4695,1.5001 5.7495,1.5001 C4.2735,1.5001 2.7825,2.3041 1.9515,3.5491 C1.3315,4.4771 0.8095,6.0431 1.5905,8.2971 C0.8635,9.0651 0.2825,9.9831 0.0205,11.0751 C-0.0765,11.4771 0.1725,11.8831 0.5755,11.9791 C0.6335,11.9931 0.6925,12.0001 0.7505,12.0001 C1.0895,12.0001 1.3965,11.7681 1.4795,11.4251 C2.3375,7.8411 8.0455,6.4101 8.1035,6.3951 C8.5055,6.2981 8.7525,5.8921 8.6555,5.4901 C8.5575,5.0881 8.1515,4.8371 7.7495,4.9381 C7.5805,4.9791 4.9905,5.6271 2.8255,7.2161 C2.5655,6.1171 2.6865,5.1481 3.1985,4.3821 C3.8795,3.3621 4.9995,3.0001 5.7495,3.0001 C6.3475,3.0001 6.8105,3.0761 7.2585,3.1491 C8.1645,3.2971 9.0255,3.4381 10.4995,2.8941 L10.4995,3.2501 C10.4995,5.0011 9.9045,7.4871 8.2265,8.7291 C7.2375,9.4601 6.0175,9.6141 4.5935,9.1771 C4.1985,9.0591 3.7795,9.2811 3.6575,9.6761 C3.5375,10.0721 3.7595,10.4921 4.1565,10.6131 C4.8255,10.8171 5.4735,10.9191 6.0935,10.9191 C7.2105,10.9191 8.2365,10.5891 9.1185,9.9351 C11.2455,8.3611 11.9995,5.3491 11.9995,3.2501 L11.9995,1.7501 C11.9995,1.4901 11.8665,1.2491 11.6455,1.1121"/></svg>
