<svg xmlns="http://www.w3.org/2000/svg" xlink="http://www.w3.org/1999/xlink" width="16" height="16" viewBox="0 0 16 16"><path d="M1,1 L1,7 L7,7 L7,11 L4,11 L4,10 L5,10 L5,9 L1,9 C0.447,9 0,8.552 0,8 L0,1 C0,0.448 0.447,0 1,0 L11,0 C11.553,0 12,0.448 12,1 L12,2 L11,2 L11,1 L1,1 Z M15,3 C15.553,3 16,3.448 16,4 L16,14 C16,14.552 15.553,15 15,15 L9,15 C8.447,15 8,14.552 8,14 L8,4 C8,3.448 8.447,3 9,3 L15,3 Z M12,14.625 C12.346,14.625 12.625,14.345 12.625,14 C12.625,13.655 12.346,13.375 12,13.375 C11.654,13.375 11.375,13.655 11.375,14 C11.375,14.345 11.654,14.625 12,14.625 Z M9,13 L15,13 L15,5 L9,5 L9,13 Z"/></svg>
