<svg xmlns="http://www.w3.org/2000/svg" xlink="http://www.w3.org/1999/xlink" width="12" height="12" viewBox="0 0 12 12"><path d="M1,1 L1,5 L5,5 L5,8 L2,8 L2,7 L3,7 L3,6 L1,6 C0.447,6 0,5.552 0,5 L0,1 C0,0.448 0.447,0 1,0 L8,0 C8.553,0 9,0.448 9,1 L9,3 L8,3 L8,1 L1,1 Z M11,4 C11.553,4 12,4.448 12,5 L12,11 C12,11.552 11.553,12 11,12 L7,12 C6.447,12 6,11.552 6,11 L6,5 C6,4.448 6.447,4 7,4 L11,4 Z M9,11.6 C9.332,11.6 9.6,11.332 9.6,11 C9.6,10.668 9.332,10.4 9,10.4 C8.668,10.4 8.4,10.668 8.4,11 C8.4,11.332 8.668,11.6 9,11.6 Z M7,10 L11,10 L11,5 L7,5 L7,10 Z"/></svg>
