<svg xmlns="http://www.w3.org/2000/svg" width="24" height="24" fill="none" viewBox="0 0 24 24">
  <path fill="#7F54B3" fill-rule="evenodd" d="M2.24 5.01h19.526C22.997 5.01 24 6.064 24 7.357v7.83c0 1.295-1.003 2.348-2.234 2.348h-7.005l.958 2.475-4.233-2.475H2.234C1.003 17.535 0 16.482 0 15.188v-7.83C0 6.063 1.003 5.01 2.24 5.01Z" clip-rule="evenodd"/>
  <path fill="#fff" d="M1.212 7.142a.815.815 0 0 1 .616-.32c.495-.033.78.213.856.74.305 2.148.635 3.975.984 5.476l2.151-4.295c.197-.387.438-.594.736-.614.432-.033.698.254.806.867.203 1.2.514 2.381.927 3.522.26-2.615.691-4.509 1.294-5.676a.753.753 0 0 1 .648-.454.812.812 0 0 1 .615.207c.178.14.286.36.298.594a.93.93 0 0 1-.095.493c-.38.747-.698 1.988-.945 3.722-.242 1.674-.337 2.988-.273 3.928.025.234-.02.467-.114.674a.622.622 0 0 1-.52.374c-.261.02-.515-.107-.775-.38-.914-.981-1.637-2.442-2.17-4.383l-1.415 2.968c-.578 1.168-1.073 1.761-1.479 1.795-.267.02-.495-.214-.679-.707-.501-1.348-1.04-3.956-1.618-7.824a.895.895 0 0 1 .152-.707ZM16.144 8.758a2.3 2.3 0 0 0-1.567-1.194 2.42 2.42 0 0 0-.534-.06c-.939 0-1.707.514-2.303 1.541a5.65 5.65 0 0 0-.762 2.901c0 .794.16 1.474.47 2.041a2.3 2.3 0 0 0 1.567 1.194c.178.04.356.06.534.06.945 0 1.713-.513 2.303-1.54.508-.88.774-1.888.762-2.922 0-.793-.16-1.467-.47-2.02Zm-1.237 2.862c-.134.673-.381 1.18-.75 1.527-.285.273-.551.38-.793.333-.24-.046-.431-.273-.577-.667a2.766 2.766 0 0 1-.171-.94c0-.253.025-.507.07-.754.095-.44.266-.853.52-1.227.324-.5.666-.714 1.021-.634.242.054.432.274.578.667.108.3.171.614.171.934 0 .254-.019.507-.07.76ZM22.287 8.758c-.33-.62-.901-1.06-1.568-1.194a2.418 2.418 0 0 0-.533-.06c-.939 0-1.707.514-2.303 1.541a5.65 5.65 0 0 0-.762 2.901c0 .794.159 1.474.47 2.041a2.3 2.3 0 0 0 1.567 1.194c.178.04.356.06.533.06.946 0 1.714-.513 2.304-1.54.508-.88.774-1.888.761-2.922 0-.793-.158-1.467-.47-2.02Zm-1.238 2.862c-.133.673-.38 1.18-.749 1.527-.285.273-.552.38-.793.333-.24-.046-.431-.273-.577-.667a2.768 2.768 0 0 1-.171-.94c0-.253.025-.507.07-.754.095-.44.266-.853.52-1.227.323-.5.666-.714 1.021-.634.241.054.432.274.578.667.108.3.171.614.171.934 0 .254-.019.507-.07.76Z"/>
</svg>
