<svg xmlns="http://www.w3.org/2000/svg" width="16" height="16" fill="none" viewBox="0 0 16 16">
  <path fill="#7F54B3" fill-rule="evenodd" d="M1.493 3.01h13.018c.82 0 1.489.702 1.489 1.565v5.22c0 .863-.668 1.565-1.49 1.565H9.84l.64 1.65-2.823-1.65H1.49C.67 11.36 0 10.658 0 9.795v-5.22C0 3.712.668 3.01 1.493 3.01Z" clip-rule="evenodd"/>
  <path fill="#fff" d="M.808 4.431a.543.543 0 0 1 .41-.213c.33-.022.52.142.572.493.203 1.432.423 2.65.655 3.651L3.88 5.498c.132-.257.292-.395.491-.409.288-.022.466.17.537.578.136.8.343 1.588.618 2.348.174-1.743.461-3.006.863-3.784a.502.502 0 0 1 .432-.302.542.542 0 0 1 .41.138c.119.093.19.24.199.395a.62.62 0 0 1-.064.33c-.253.498-.465 1.325-.63 2.48-.16 1.117-.224 1.993-.182 2.62a.856.856 0 0 1-.076.449.415.415 0 0 1-.347.249c-.173.013-.343-.072-.516-.254-.61-.653-1.091-1.627-1.447-2.921l-.943 1.979c-.385.778-.715 1.173-.986 1.196-.178.013-.33-.143-.453-.472-.334-.898-.694-2.636-1.078-5.215a.596.596 0 0 1 .101-.472ZM10.763 5.509c-.22-.414-.601-.707-1.045-.796a1.614 1.614 0 0 0-.356-.04c-.626 0-1.138.342-1.535 1.027a3.766 3.766 0 0 0-.508 1.934c0 .53.106.983.313 1.36.22.414.6.708 1.045.797.118.026.237.04.355.04.63 0 1.143-.343 1.536-1.027a3.802 3.802 0 0 0 .508-1.948c0-.53-.106-.978-.313-1.347Zm-.825 1.907c-.09.45-.254.787-.5 1.019-.19.182-.368.253-.528.222-.161-.031-.288-.182-.385-.445-.072-.2-.115-.409-.115-.627 0-.169.017-.338.047-.502.063-.294.178-.57.347-.818.216-.334.444-.476.681-.423.16.036.288.183.385.445.072.2.114.409.114.622 0 .17-.012.338-.046.507ZM14.858 5.509c-.22-.414-.6-.707-1.045-.796a1.614 1.614 0 0 0-.356-.04c-.626 0-1.138.342-1.535 1.027a3.767 3.767 0 0 0-.508 1.934c0 .53.106.983.313 1.36.22.414.601.708 1.045.797.119.026.237.04.355.04.63 0 1.143-.343 1.536-1.027a3.803 3.803 0 0 0 .508-1.948c0-.53-.106-.978-.313-1.347Zm-.825 1.907c-.09.45-.254.787-.5 1.019-.19.182-.367.253-.528.222-.16-.031-.288-.182-.385-.445-.072-.2-.114-.409-.114-.627 0-.169.017-.338.046-.502.064-.294.178-.57.347-.818.216-.334.444-.476.681-.423.161.036.288.183.385.445.072.2.114.409.114.622 0 .17-.012.338-.046.507Z"/>
</svg>
