<svg width="144" height="80" viewBox="0 0 144 80" fill="none" xmlns="http://www.w3.org/2000/svg">
<mask id="mask0_751_30797" style="mask-type:alpha" maskUnits="userSpaceOnUse" x="10" y="0" width="31" height="41">
<path fill-rule="evenodd" clip-rule="evenodd" d="M40.8836 0L23.9167 2.9868L10.1201 17.3779L40.8836 40.2808V0Z" fill="white"/>
</mask>
<g mask="url(#mask0_751_30797)">
<path opacity="0.5" d="M77.7033 40.2808C77.7033 60.3193 61.3504 76.5748 41.1642 76.5748C20.978 76.5748 4.625 60.3193 4.625 40.2808C4.625 20.2424 20.978 3.98682 41.1642 3.98682C61.3504 3.98682 77.7033 20.2424 77.7033 40.2808Z" stroke="#2BB3FF" stroke-width="2"/>
</g>
<g opacity="0.5">
<mask id="mask1_751_30797" style="mask-type:alpha" maskUnits="userSpaceOnUse" x="0" y="17" width="41" height="24">
<path fill-rule="evenodd" clip-rule="evenodd" d="M0.77832 34.8041L8.72402 17.6392L40.8837 40.2809L0.77832 34.8041Z" fill="white"/>
</mask>
<g mask="url(#mask1_751_30797)">
<path d="M77.6632 40.2808C77.6632 60.3203 61.3272 76.5748 41.1641 76.5748C21.001 76.5748 4.66504 60.3203 4.66504 40.2808C4.66504 20.2414 21.001 3.98682 41.1641 3.98682C61.3272 3.98682 77.6632 20.2414 77.6632 40.2808Z" stroke="#FDC23C" stroke-width="2"/>
</g>
</g>
<g opacity="0.5">
<mask id="mask2_751_30797" style="mask-type:alpha" maskUnits="userSpaceOnUse" x="0" y="36" width="41" height="34">
<path fill-rule="evenodd" clip-rule="evenodd" d="M0 36.0535L9.7322 69.1994L40.8838 40.3177L0 36.0535Z" fill="white"/>
</mask>
<g mask="url(#mask2_751_30797)">
<path d="M77.6504 40.275C77.6504 60.4397 61.3028 76.7865 41.137 76.7865C20.9711 76.7865 4.62354 60.4397 4.62354 40.275C4.62354 20.1103 20.9711 3.76343 41.137 3.76343C61.3028 3.76343 77.6504 20.1103 77.6504 40.275Z" stroke="#AB6CFE" stroke-width="2"/>
</g>
</g>
<mask id="mask3_751_30797" style="mask-type:alpha" maskUnits="userSpaceOnUse" x="11" y="38" width="71" height="42">
<path fill-rule="evenodd" clip-rule="evenodd" d="M81.8387 38.3794L71.9228 68.1043C71.9228 68.1043 52.5657 79.7799 42.152 79.9957C31.7383 80.2116 11.0933 69.3651 11.0933 69.3651L40.856 40.3601L81.8387 38.3794Z" fill="white"/>
</mask>
<g mask="url(#mask3_751_30797)">
<path opacity="0.5" d="M77.6934 40.3601C77.6934 60.418 61.3322 76.6886 41.1368 76.6886C20.9413 76.6886 4.58008 60.418 4.58008 40.3601C4.58008 20.3021 20.9413 4.03149 41.1368 4.03149C61.3322 4.03149 77.6934 20.3021 77.6934 40.3601Z" stroke="#FF622D" stroke-width="2"/>
</g>
<mask id="mask4_751_30797" style="mask-type:alpha" maskUnits="userSpaceOnUse" x="40" y="0" width="42" height="41">
<path fill-rule="evenodd" clip-rule="evenodd" d="M41.9855 0L67.1167 7.01858L78.7939 21.8858L81.7402 36.9383L40.9429 40.2808L41.9855 0Z" fill="white"/>
</mask>
<g mask="url(#mask4_751_30797)">
<path opacity="0.5" d="M77.7937 40.2808C77.7937 60.3185 61.4278 76.5748 41.2238 76.5748C21.0198 76.5748 4.65381 60.3185 4.65381 40.2808C4.65381 20.2431 21.0198 3.98682 41.2238 3.98682C61.4278 3.98682 77.7937 20.2431 77.7937 40.2808Z" stroke="#59DDAA" stroke-width="2"/>
</g>
<g clip-path="url(#clip0_751_30797)">
<ellipse opacity="0.01" cx="41.336" cy="39.9109" rx="33.3409" ry="33.1196" fill="#FDC23C"/>
<mask id="mask5_751_30797" style="mask-type:alpha" maskUnits="userSpaceOnUse" x="7" y="6" width="68" height="68">
<ellipse cx="41.336" cy="39.9109" rx="33.3409" ry="33.1196" fill="white"/>
</mask>
<g mask="url(#mask5_751_30797)">
<path opacity="0.2" fill-rule="evenodd" clip-rule="evenodd" d="M41.2103 39.9109V-0.73584L10.7632 18.8348L41.2103 39.9109Z" fill="#2BB3FF"/>
<path opacity="0.3" fill-rule="evenodd" clip-rule="evenodd" d="M41.239 39.9108L94.0523 36.5393L40.9585 -2.24146L41.239 39.9108Z" fill="#59DDAA"/>
<path opacity="0.2" fill-rule="evenodd" clip-rule="evenodd" d="M41.2967 40.0531L7.99512 71.8796L65.964 75.2885L77.6964 37.6526L41.2967 40.0531Z" fill="#FF622D"/>
<path opacity="0.2" fill-rule="evenodd" clip-rule="evenodd" d="M41.4618 40.0029L11.6807 68.2197L4.97559 35.8962L41.4618 40.0029Z" fill="#AB6CFE"/>
<path opacity="0.2" fill-rule="evenodd" clip-rule="evenodd" d="M41.21 39.911L11.9232 19.3367L7.4917 36.0723L41.21 39.911Z" fill="#FDC23C"/>
</g>
<g opacity="0.5">
<path d="M74.1768 40.1971C74.1768 58.3346 59.4735 73.0379 41.336 73.0379C23.1985 73.0379 8.49512 58.3346 8.49512 40.1971C8.49512 22.0596 23.1985 7.3562 41.336 7.3562C59.4735 7.3562 74.1768 22.0596 74.1768 40.1971Z" stroke="#C4C7CF"/>
<path d="M66.5559 40.1971C66.5559 54.1258 55.2645 65.4172 41.3358 65.4172C27.4071 65.4172 16.1157 54.1258 16.1157 40.1971C16.1157 26.2685 27.4071 14.9771 41.3358 14.9771C55.2645 14.9771 66.5559 26.2685 66.5559 40.1971Z" stroke="#C4C7CF"/>
<path d="M58.9355 40.197C58.9355 49.9168 51.056 57.7963 41.3361 57.7963C31.6163 57.7963 23.7368 49.9168 23.7368 40.197C23.7368 30.4771 31.6163 22.5977 41.3361 22.5977C51.056 22.5977 58.9355 30.4771 58.9355 40.197Z" stroke="#C4C7CF"/>
<path d="M51.3145 40.1971C51.3145 45.7081 46.847 50.1756 41.336 50.1756C35.825 50.1756 31.3574 45.7081 31.3574 40.1971C31.3574 34.6861 35.825 30.2185 41.336 30.2185C46.847 30.2185 51.3145 34.6861 51.3145 40.1971Z" stroke="#C4C7CF"/>
</g>
<g opacity="0.5" clip-path="url(#clip1_751_30797)">
<circle r="2.5" transform="matrix(-1 0 0 1 25.2378 34.0049)" fill="#FDC23C" stroke="white"/>
</g>
<circle r="2.5" transform="matrix(-1 0 0 1 25.2378 34.0049)" stroke="white"/>
<g opacity="0.5" clip-path="url(#clip2_751_30797)">
<circle r="1.5" transform="matrix(-1 0 0 1 14.9971 29.9565)" fill="#FDC23C" stroke="white"/>
</g>
<circle r="1.5" transform="matrix(-1 0 0 1 14.9971 29.9565)" stroke="white"/>
<g opacity="0.5" clip-path="url(#clip3_751_30797)">
<circle cx="28.7852" cy="17.5486" r="3.5" fill="#2BB3FF" stroke="white" stroke-width="2"/>
</g>
<circle cx="28.7852" cy="17.5486" r="3" stroke="white"/>
<g opacity="0.5" clip-path="url(#clip4_751_30797)">
<circle cx="22.6411" cy="18.4539" r="2.5" fill="#2BB3FF" stroke="white" stroke-width="2"/>
</g>
<circle cx="22.6411" cy="18.4539" r="2" stroke="white"/>
<g opacity="0.7">
<path d="M36.021 29.6217C37.792 29.6217 39.2076 28.155 39.2076 26.3709C39.2076 24.5867 37.792 23.1201 36.021 23.1201C34.2501 23.1201 32.8345 24.5867 32.8345 26.3709C32.8345 28.155 34.2501 29.6217 36.021 29.6217Z" fill="#2BB3FF" stroke="white"/>
</g>
<g opacity="0.5" clip-path="url(#clip5_751_30797)">
<circle cx="15.02" cy="49.1274" r="2" fill="#AB6CFE" stroke="white"/>
</g>
<circle cx="15.02" cy="49.1274" r="2" stroke="white"/>
<g opacity="0.7">
<g clip-path="url(#clip6_751_30797)">
<ellipse cx="22.0426" cy="45.1228" rx="2.61635" ry="2.63939" fill="#AB6CFE"/>
</g>
<path d="M22.0426 48.2622C23.7679 48.2622 25.159 46.8525 25.159 45.1228C25.159 43.3931 23.7679 41.9834 22.0426 41.9834C20.3174 41.9834 18.9263 43.3931 18.9263 45.1228C18.9263 46.8525 20.3174 48.2622 22.0426 48.2622Z" stroke="white"/>
<path fill-rule="evenodd" clip-rule="evenodd" d="M22.5126 44.7695H22.2459V45.303H21.7124V45.5697H22.2459V46.1032H22.5126V45.5697H23.046V45.303H22.5126V44.7695Z" fill="#AB6CFE"/>
</g>
<g opacity="0.5" clip-path="url(#clip7_751_30797)">
<circle cx="16.02" cy="42.5066" r="3" fill="#AB6CFE" stroke="white"/>
</g>
<circle cx="16.02" cy="42.5066" r="3" stroke="white"/>
<g opacity="0.5" clip-path="url(#clip8_751_30797)">
<circle cx="49.1948" cy="68.2507" r="1.5" fill="#FF622D" stroke="white"/>
</g>
<circle cx="49.1948" cy="68.2507" r="1.5" stroke="white"/>
<g opacity="0.5" clip-path="url(#clip9_751_30797)">
<circle cx="31.7144" cy="64.2974" r="2.5" fill="#FF622D" stroke="white"/>
</g>
<circle cx="31.7144" cy="64.2974" r="2.5" stroke="white"/>
<g opacity="0.7">
<g clip-path="url(#clip10_751_30797)">
<ellipse cx="41.3426" cy="56.9422" rx="4.76931" ry="4.93293" fill="#FF622D"/>
</g>
<path d="M41.3426 62.3751C44.2685 62.3751 46.6119 59.9267 46.6119 56.9422C46.6119 53.9577 44.2685 51.5093 41.3426 51.5093C38.4166 51.5093 36.0732 53.9577 36.0732 56.9422C36.0732 59.9267 38.4166 62.3751 41.3426 62.3751Z" stroke="white"/>
<path fill-rule="evenodd" clip-rule="evenodd" d="M41.9457 56.5818H41.679V57.1152H41.1455V57.382H41.679V57.9154H41.9457V57.382H42.4791V57.1152H41.9457V56.5818Z" fill="#FF622D"/>
</g>
<g opacity="0.5" clip-path="url(#clip11_751_30797)">
<circle cx="54.0527" cy="56.7239" r="3.5" fill="#FF622D" stroke="white"/>
</g>
<circle cx="54.0527" cy="56.7239" r="3.5" stroke="white"/>
<g opacity="0.5" clip-path="url(#clip12_751_30797)">
<circle cx="62.3882" cy="55.1523" r="2.5" fill="#FF622D" stroke="white"/>
</g>
<circle cx="62.3882" cy="55.1523" r="2.5" stroke="white"/>
<g opacity="0.5" clip-path="url(#clip13_751_30797)">
<circle cx="61.1016" cy="28.5271" r="3.5" fill="#59DDAA" stroke="white"/>
</g>
<circle cx="61.1016" cy="28.5271" r="3.5" stroke="white"/>
<g opacity="0.5" clip-path="url(#clip14_751_30797)">
<circle cx="58.6494" cy="17.1201" r="2" fill="#59DDAA" stroke="white"/>
</g>
<circle cx="58.6494" cy="17.1201" r="2" stroke="white"/>
<g opacity="0.7">
<g clip-path="url(#clip15_751_30797)">
<ellipse cx="48.7046" cy="23.3226" rx="3.55814" ry="3.51111" fill="#59DDAA"/>
</g>
<path d="M48.5418 27.8821C50.6775 27.8821 52.4372 26.2028 52.4372 24.0968C52.4372 21.9909 50.6775 20.3115 48.5418 20.3115C46.4061 20.3115 44.6465 21.9909 44.6465 24.0968C44.6465 26.2028 46.4061 27.8821 48.5418 27.8821Z" stroke="white"/>
</g>
</g>
<defs>
<clipPath id="clip0_751_30797">
<rect width="66.6817" height="66.8722" fill="white" transform="translate(7.99512 6.66577)"/>
</clipPath>
<clipPath id="clip1_751_30797">
<rect width="4" height="4" fill="white" transform="matrix(-1 0 0 1 27.2378 32.0049)"/>
</clipPath>
<clipPath id="clip2_751_30797">
<rect width="2" height="2" fill="white" transform="matrix(-1 0 0 1 15.9971 28.9565)"/>
</clipPath>
<clipPath id="clip3_751_30797">
<rect width="5" height="5" fill="white" transform="translate(26.2852 15.0486)"/>
</clipPath>
<clipPath id="clip4_751_30797">
<rect width="3" height="3" fill="white" transform="translate(21.1411 16.9539)"/>
</clipPath>
<clipPath id="clip5_751_30797">
<rect width="3" height="3" fill="white" transform="translate(13.52 47.6274)"/>
</clipPath>
<clipPath id="clip6_751_30797">
<rect width="6" height="6" fill="white" transform="translate(19.4263 42.4834)"/>
</clipPath>
<clipPath id="clip7_751_30797">
<rect width="5" height="5" fill="white" transform="translate(13.52 40.0066)"/>
</clipPath>
<clipPath id="clip8_751_30797">
<rect width="2" height="2" fill="white" transform="translate(48.1948 67.2507)"/>
</clipPath>
<clipPath id="clip9_751_30797">
<rect width="4" height="4" fill="white" transform="translate(29.7144 62.2974)"/>
</clipPath>
<clipPath id="clip10_751_30797">
<rect width="10" height="10" fill="white" transform="translate(36.5732 52.0093)"/>
</clipPath>
<clipPath id="clip11_751_30797">
<rect width="6" height="6" fill="white" transform="translate(51.0527 53.7239)"/>
</clipPath>
<clipPath id="clip12_751_30797">
<rect width="4" height="4" fill="white" transform="translate(60.3882 53.1523)"/>
</clipPath>
<clipPath id="clip13_751_30797">
<rect width="6" height="6" fill="white" transform="translate(58.1016 25.5271)"/>
</clipPath>
<clipPath id="clip14_751_30797">
<rect width="3" height="3" fill="white" transform="translate(57.1494 15.6201)"/>
</clipPath>
<clipPath id="clip15_751_30797">
<rect width="8" height="8" fill="white" transform="translate(45.1465 19.8115)"/>
</clipPath>
</defs>
</svg>
