<svg width="144" height="80" viewBox="0 0 144 80" fill="none" xmlns="http://www.w3.org/2000/svg">
<circle opacity="0.5" cx="15.5" cy="53.5" r="5.5" fill="#2BB3FF"/>
<circle opacity="0.5" cx="49.8184" cy="46.5" r="5.5" fill="#2BB3FF"/>
<circle opacity="0.5" cx="61.2886" cy="21.5" r="5.5" fill="#2BB3FF"/>
<circle opacity="0.5" cx="77.7588" cy="15.5" r="5.5" fill="#2BB3FF"/>
<circle opacity="0.5" cx="115.258" cy="44.5" r="5.5" fill="#2BB3FF"/>
<circle opacity="0.5" cx="35.5" cy="33.5" r="5.5" fill="#59DDAA"/>
<circle opacity="0.5" cx="63.5649" cy="56.5" r="5.5" fill="#59DDAA"/>
<circle opacity="0.5" cx="33.0811" cy="25.5" r="5.5" fill="#59DDAA"/>
<circle opacity="0.5" cx="113.858" cy="10.5" r="5.5" fill="#59DDAA"/>
<circle opacity="0.5" cx="98.0737" cy="54.5" r="5.5" fill="#59DDAA"/>
<circle opacity="0.5" cx="136.642" cy="65.5" r="5.5" fill="#59DDAA"/>
<circle opacity="0.5" cx="46.3813" cy="66.5" r="5.5" fill="#AB6CFE"/>
<circle opacity="0.5" cx="96.6743" cy="20.5" r="5.5" fill="#AB6CFE"/>
<circle opacity="0.5" cx="80.8901" cy="64.5" r="5.5" fill="#AB6CFE"/>
<circle opacity="0.5" cx="96.6416" cy="45.5" r="5.5" fill="#AB6CFE"/>
<circle opacity="0.5" cx="15.9814" cy="19.031" r="5.5" fill="#FDC23C"/>
<circle opacity="0.5" cx="15.4507" cy="46.5" r="5.5" fill="#FDC23C"/>
<circle opacity="0.5" cx="86.3638" cy="10.5" r="5.5" fill="#FDC23C"/>
<circle opacity="0.5" cx="23.6416" cy="18.5" r="5.5" fill="#FDC23C"/>
<circle opacity="0.5" cx="45.9814" cy="25.2256" r="5.5" fill="#FF622D"/>
<circle opacity="0.5" cx="117.295" cy="60.5" r="5.5" fill="#FF622D"/>
<circle opacity="0.5" cx="70.5796" cy="34.5" r="5.5" fill="#FF622D"/>
</svg>
