<svg xmlns="http://www.w3.org/2000/svg" xlink="http://www.w3.org/1999/xlink" width="22" height="22" viewBox="0 0 22 22"><path d="M10.9998,0.9997 C16.5138,0.9997 20.9998,5.4857 20.9998,10.9997 C20.9998,16.5137 16.5138,20.9997 10.9998,20.9997 C5.4868,20.9997 0.9998,16.5137 0.9998,10.9997 C0.9998,5.4857 5.4868,0.9997 10.9998,0.9997 Z M14.0088,18.4077 C16.9318,17.2157 18.9998,14.3467 18.9998,10.9997 C18.9998,6.7707 15.6988,3.3067 11.5388,3.0277 C11.6498,3.1417 11.7848,3.2557 11.9848,3.3637 C13.2688,4.0587 12.6798,4.3797 12.4118,4.5937 C12.1448,4.8077 11.6818,4.1657 11.3778,3.7377 C11.0738,3.3097 10.3578,3.0647 9.3598,3.4217 C8.3618,3.7787 9.4508,4.2507 8.8448,4.7147 C8.2378,5.1777 8.1668,5.5567 8.8088,5.9137 C9.4508,6.2707 9.9078,6.3627 10.0858,6.1487 C10.2648,5.9347 10.0938,4.6787 11.3058,5.2847 C12.5188,5.8907 13.5178,6.2477 12.5188,7.1397 C11.5198,8.0317 10.5218,9.0307 10.4868,9.6007 C10.4508,10.1707 10.6988,10.7487 10.4858,10.7837 C10.2718,10.8197 9.9758,10.5387 9.8318,10.3427 C9.6908,10.1457 9.2538,9.9067 8.9338,10.0317 C8.6128,10.1557 7.9898,10.5977 8.3278,11.0617 C8.6678,11.5257 9.1168,11.3247 9.5818,11.5377 C10.0448,11.7527 9.9078,12.7427 9.3668,12.2877 C8.9218,11.9137 8.4308,12.1967 8.0038,12.0897 C7.5768,11.9827 7.3828,11.6687 6.9548,10.9197 C6.5268,10.1707 5.6408,9.9617 5.2788,9.5297 C4.2598,8.3137 4.3118,7.3907 4.1118,6.9517 C3.4098,8.1417 2.9998,9.5227 2.9998,10.9997 C2.9998,15.4107 6.5888,18.9997 10.9998,18.9997 C11.7748,18.9997 12.5218,18.8837 13.2308,18.6777 C13.0928,18.1147 13.2518,17.5167 13.2718,17.1347 C13.2998,16.5897 13.3498,14.9607 13.1158,14.5977 C12.8828,14.2357 12.0348,14.1067 11.7048,13.3267 C11.3738,12.5457 11.5138,10.9127 12.5538,11.0037 C12.5538,11.0037 13.6278,10.9537 14.2248,11.3357 C14.8208,11.7167 14.9178,11.8827 15.7548,11.9407 C16.5918,11.9977 17.0128,12.4047 16.6128,13.3647 C16.2128,14.3247 15.4668,15.8757 15.0698,16.3657 C14.6728,16.8567 14.1598,17.2927 14.0518,18.0297 C14.0308,18.1697 14.0198,18.2887 14.0088,18.4077 Z"/></svg>
