<svg xmlns="http://www.w3.org/2000/svg" xlink="http://www.w3.org/1999/xlink" width="16" height="16" viewBox="0 0 16 16"><path d="M8.0004,0 C12.4184,0 16.0004,3.582 16.0004,8 C16.0004,12.418 12.4184,16 8.0004,16 C3.5824,16 0.0004,12.418 0.0004,8 C0.0004,3.582 3.5824,0 8.0004,0 Z M10.5234,14.522 C13.1384,13.506 15.0004,10.969 15.0004,8 C15.0004,5.283 13.4414,2.928 11.1724,1.769 C10.9534,1.987 10.5914,2.271 10.1434,2.334 C9.3934,2.438 8.6304,3.987 8.4084,4.402 C8.1854,4.817 8.7754,6 8.6094,6.127 C8.4434,6.254 8.3054,6.142 8.1854,6.021 C8.0644,5.9 7.3514,5.209 6.8314,5.417 C6.3104,5.625 6.1434,5.813 6.7684,6.75 C7.3934,7.688 7.4764,8.542 7.2484,8.771 C7.0184,9 6.6014,8.521 6.6014,8.521 C6.6014,8.521 4.9564,6.792 4.2264,6.5 C3.4984,6.209 3.5814,6.084 3.3734,5.063 C3.2324,4.374 2.7954,3.894 2.5254,3.651 C1.5734,4.847 1.0004,6.356 1.0004,8 C1.0004,11.86 4.1404,15 8.0004,15 C8.6384,15 9.2534,14.907 9.8414,14.746 C9.3904,14.122 9.4364,13.643 9.7414,12.956 C10.0464,12.266 10.1594,11.244 10.0164,10.93 C9.8744,10.616 9.2334,10.348 9.0464,9.76 C8.8594,9.172 8.8464,8.49 9.4824,8.07 C10.1184,7.651 10.7484,7.864 11.1754,8.235 C11.6044,8.606 11.9434,8.904 12.5994,9.047 C13.2554,9.189 13.3554,9.646 12.9264,10.359 C12.4994,11.072 11.7284,12.214 11.3574,12.556 C10.9864,12.898 10.7484,13.184 10.5764,13.754 C10.4704,14.106 10.4494,14.338 10.5234,14.522 Z"/></svg>
