<svg xmlns="http://www.w3.org/2000/svg" xlink="http://www.w3.org/1999/xlink" width="12" height="12" viewBox="0 0 12 12"><path d="M6,0 C9.313,0 12,2.687 12,6 C12,9.314 9.313,12 6,12 C2.686,12 0,9.314 0,6 C0,2.687 2.686,0 6,0 Z M7.86,10.633 C9.697,9.892 11,8.099 11,6 C11,4.019 9.833,2.319 8.158,1.51 C7.568,1.714 7.396,2.57 7.062,2.904 C6.808,3.158 6.596,3.114 6.284,3.114 C5.972,3.114 5.533,3.181 5.308,3.261 C5.084,3.342 4.9,3.663 4.9,3.974 C4.9,4.285 4.997,4.637 5.115,4.755 C5.232,4.872 5.33,5.123 5.33,5.311 C5.33,5.499 5.199,5.654 5.039,5.654 C4.879,5.654 4.421,5.405 4.019,5.102 C3.618,4.799 3.204,4.655 2.957,4.55 C2.71,4.446 2.623,4.273 2.623,3.932 C2.623,3.6 2.34,2.998 2.152,2.846 C1.443,3.709 1,4.799 1,6 C1,8.757 3.243,11 6,11 C6.273,11 6.535,10.962 6.797,10.92 C7.111,10.05 7.752,8.08 7.193,7.876 C6.476,7.614 6.223,6.804 6.236,6.106 C6.25,5.407 7.14,5.352 7.32,5.489 C7.5,5.627 7.961,5.852 9.074,6.164 C10.185,6.476 9.597,8.395 8.75,9.03 C8.181,9.456 7.951,10.191 7.86,10.633 Z"/></svg>
