<svg width="44" height="44" viewBox="0 0 44 44" xmlns="http://www.w3.org/2000/svg"><path fill-rule="evenodd" clip-rule="evenodd" d="M0 0H38V3.24466H34.8852V25.2709H38V28.5156H25.6033L31.6459 38H27.5344L21.8656 28.5156H16.1967L10.4344 38H6.2918L12.3344 28.5156H0V25.2709H31.6459L31.6434 21.2318L31.6459 21.2344V16.6719L31.6434 16.6694L31.6459 3.24466H0V0ZM31.6434 16.6694L25.3438 10.4688L17.375 18.3438L12.6562 13.625L6.32812 19.9375V3.24466H3.125V25.2709H6.32812V24.3438L12.6562 18.125L17.375 22.8125L25.3438 14.9062L31.6434 21.2318V16.6694ZM22.125 9.5C22.125 11.2259 20.7259 12.625 19 12.625C17.2741 12.625 15.875 11.2259 15.875 9.5C15.875 7.77411 17.2741 6.375 19 6.375C20.7259 6.375 22.125 7.77411 22.125 9.5Z"/></svg>
