<svg width="22" height="22" viewBox="0 0 22 22" xmlns="http://www.w3.org/2000/svg"><path fill-rule="evenodd" clip-rule="evenodd" d="M0.96875 0.96875H18.9688V2.49735H17.4713V12.948H18.9688V14.5233H13.1351L16.0363 18.9688H13.993L11.3258 14.5233H8.58053L5.96008 18.9688H3.99475L6.83357 14.5233H0.96875V12.948H15.9428V2.49735H4.01562H2.5H0.96875V0.96875ZM2.5 2.49735V12.948H4.01562V12.5555L6.98438 9.56738L9.25 11.8202L13 8.06552L15.9428 11.0039V8.88409L13 5.93788L9.25 9.66124L6.98438 7.43974L4.01562 10.3965V2.49735H2.5ZM11.5156 5.4959C11.5156 6.3297 10.8405 7.00559 10.0078 7.00559C9.17508 7.00559 8.5 6.3297 8.5 5.4959C8.5 4.66211 9.17508 3.98622 10.0078 3.98622C10.8405 3.98622 11.5156 4.66211 11.5156 5.4959Z"/></svg>
