<svg width="16" height="16" viewBox="0 0 16 16" xmlns="http://www.w3.org/2000/svg"><path fill-rule="evenodd" clip-rule="evenodd" d="M0 0H14V1.17255H12.9939V8.97375H14V10.1776H9.45291L11.6602 14H10.1315L8.01782 10.1776H5.91199L3.86072 14H2.32422L4.55487 10.1776H0V8.97375H1V8.98438H2.17188V8.97375H11.7616V7.43378L11.7656 7.4375V5.78125L11.7616 5.77747V1.17255H2.17188L1 1.17188L0 1.17255V0ZM1 1.17188V8.97375H2.17188V8.65625L4.64062 6.32812L6.40625 8.07812L9.3125 5.17188L11.7616 7.43378V5.77747L9.3125 3.5L6.40625 6.32812L4.64062 4.67188L2.17188 7V1.17255L1 1.17188ZM8.29688 3.20312C8.29688 3.86761 7.75821 4.40625 7.09375 4.40625C6.42929 4.40625 5.89062 3.86761 5.89062 3.20312C5.89062 2.53864 6.42929 2 7.09375 2C7.75821 2 8.29688 2.53864 8.29688 3.20312Z"/></svg>
