<svg width="12" height="12" viewBox="0 0 12 12" xmlns="http://www.w3.org/2000/svg"><path fill-rule="evenodd" clip-rule="evenodd" d="M0.992188 0H10.9922V0.999219H10.0008V6.98673H10.9922V7.99766H8.00234L9.61045 10H8.50975L6.9875 7.99766H4.98906L3.49804 10H2.41295L4.00546 7.99766H0.992188V6.98673H1.99141V1.00312H2.99843V5.11319L4.32552 3.58314L5.56674 4.83216L7.65885 2.73224L8.97814 4.22326V0.999219H0.992188V0ZM8.97814 5.58158L7.65885 4.05152L5.56674 6.08899L4.32552 4.83216L2.99843 6.42467V6.98673H8.97814V5.58158Z"/><path d="M6.83918 2.50195C6.83918 2.96973 6.45996 3.34895 5.99219 3.34895C5.52441 3.34895 5.14519 2.96973 5.14519 2.50195C5.14519 2.03418 5.52441 1.65496 5.99219 1.65496C6.45996 1.65496 6.83918 2.03418 6.83918 2.50195Z"/></svg>
