<svg width="8" height="8" viewBox="0 0 8 8" xmlns="http://www.w3.org/2000/svg"><path fill-rule="evenodd" clip-rule="evenodd" d="M0 0H8V1.01172H7.00391V5H7.99219V6.02344H6.03906L7.28906 8H6.19531L4.99219 6.02344H3.02344L1.83594 8H0.742188L1.99219 6.02344H0V5H1V1.01172H0V0ZM1.99219 1.01172V4.00781L2.90625 3.00781L3.5 3.5L4.77344 2.41406L6 3.41406V1.01172H1.99219ZM6 4.42969L4.77344 3.41406L3.5 4.51562L2.90625 4.00781L2.03125 5H6V4.42969ZM4.67578 2.00781C4.67578 2.38104 4.37323 2.68359 4 2.68359C3.62677 2.68359 3.32422 2.38104 3.32422 2.00781C3.32422 1.63458 3.62677 1.33203 4 1.33203C4.37323 1.33203 4.67578 1.63458 4.67578 2.00781Z"/></svg>
