<svg width="24" height="24" viewBox="0 0 24 24" xmlns="http://www.w3.org/2000/svg"><path d="M9.152 1a4.03 4.03 0 0 0-4.03 4.03v4.86a2.185 2.185 0 0 1-.26.175 8.434 8.434 0 0 1-.964.462l-.089.038-1.203.516a1 1 0 0 0 .12 1.88l1.022.293c.266.076.711.242 1.067.448.145.084.245.157.306.212v5.056A4.03 4.03 0 0 0 9.151 23a1 1 0 1 0 0-2 2.03 2.03 0 0 1-2.03-2.03v-5.221c0-.535-.283-.935-.511-1.175a3.548 3.548 0 0 0-.794-.603 5.554 5.554 0 0 0-.131-.074c.066-.036.131-.072.195-.11.239-.142.512-.327.737-.559.211-.217.504-.604.504-1.136V5.03A2.03 2.03 0 0 1 9.151 3a1 1 0 0 0 0-2Zm5.696 0a4.03 4.03 0 0 1 4.03 4.03v4.86c.058.046.143.106.26.175.309.183.673.338.964.462l.089.038 1.203.516a1 1 0 0 1-.12 1.88l-1.022.293a5.235 5.235 0 0 0-1.067.448 1.91 1.91 0 0 0-.306.212v5.056a4.03 4.03 0 0 1-4.03 4.03 1 1 0 1 1 0-2 2.03 2.03 0 0 0 2.03-2.03v-5.221c0-.535.283-.935.511-1.175.238-.251.53-.45.794-.603l.131-.074a6.119 6.119 0 0 1-.195-.11 3.559 3.559 0 0 1-.737-.559c-.211-.217-.504-.604-.504-1.136V5.03A2.03 2.03 0 0 0 14.849 3a1 1 0 1 1 0-2Z"/></svg>