<svg width="24" height="24" viewBox="0 0 24 24" xmlns="http://www.w3.org/2000/svg"><path fill-rule="evenodd" clip-rule="evenodd" d="M3 7V3h4v4H3ZM1 2a1 1 0 0 1 1-1h6a1 1 0 0 1 1 1v6a1 1 0 0 1-1 1H2a1 1 0 0 1-1-1V2Zm1 9a1 1 0 1 0 0 2h20a1 1 0 1 0 0-2H2Zm-1 5a1 1 0 0 1 1-1h16a1 1 0 1 1 0 2H2a1 1 0 0 1-1-1Zm4.332 4.63a.106.106 0 0 0-.06-.18l-1.352-.225-.642-1.169a.11.11 0 0 0-.192 0l-.643 1.169-1.352.224a.106.106 0 0 0-.06.18l.956.944-.195 1.305c-.013.084.076.148.155.111l1.235-.583 1.234.583c.08.037.169-.027.156-.111l-.195-1.305.955-.944Zm5.818 0a.106.106 0 0 0-.06-.18l-1.352-.225-.642-1.169a.11.11 0 0 0-.192 0l-.642 1.169-1.353.224a.106.106 0 0 0-.06.18l.956.944-.195 1.305c-.013.084.076.148.155.111L9 22.406l1.235.583c.079.037.168-.027.155-.111l-.195-1.305.955-.944Zm5.818 0a.106.106 0 0 0-.059-.18l-1.352-.225-.643-1.169a.11.11 0 0 0-.192 0l-.642 1.169-1.353.224a.106.106 0 0 0-.059.18l.955.944-.195 1.305c-.013.084.077.148.155.111l1.235-.583 1.235.583c.079.037.168-.027.155-.111l-.195-1.305.955-.944Z"/></svg>