<svg width="16" height="16" viewBox="0 0 16 16" xmlns="http://www.w3.org/2000/svg"><path d="M0 1a1 1 0 0 1 1-1h4a1 1 0 0 1 1 1v3a1 1 0 0 1-1 1H1a1 1 0 0 1-1-1V1ZM0 8a1 1 0 0 1 1-1h14a1 1 0 1 1 0 2H1a1 1 0 0 1-1-1ZM1 9.995a1 1 0 0 0 0 2h11a1 1 0 0 0 0-2H1ZM3.204 14.087a.08.08 0 0 1 .045.135l-.717.708.147.978c.01.064-.058.112-.117.084l-.926-.437-.926.437c-.059.028-.126-.02-.116-.084l.146-.978-.716-.708a.08.08 0 0 1 .044-.135l1.015-.168.481-.877a.083.083 0 0 1 .145 0l.481.877 1.014.168ZM7.568 14.087a.08.08 0 0 1 .045.135l-.717.708.147.978c.01.064-.058.112-.117.084L6 15.555l-.926.437c-.06.028-.126-.02-.117-.084l.147-.978-.717-.708a.08.08 0 0 1 .045-.135l1.014-.168.482-.877a.083.083 0 0 1 .144 0l.482.877 1.014.168ZM11.932 14.087a.08.08 0 0 1 .044.135l-.716.708.146.978c.01.064-.057.112-.116.084l-.926-.437-.926.437c-.06.028-.127-.02-.117-.084l.147-.978-.717-.708a.08.08 0 0 1 .045-.135l1.014-.168.481-.877a.083.083 0 0 1 .145 0l.481.877 1.015.168Z"/></svg>