<svg xmlns="http://www.w3.org/2000/svg" width="16" height="16" viewBox="0 0 16 16">
  <path d="M0 1.031a1 1 0 0 1 1-1h4a1 1 0 0 1 1 1v3a1 1 0 0 1-1 1H1a1 1 0 0 1-1-1v-3ZM0 7.031a1 1 0 0 1 1-1h14a1 1 0 1 1 0 2H1a1 1 0 0 1-1-1ZM0 10.026a1 1 0 0 1 1-1h11a1 1 0 1 1 0 2H1a1 1 0 0 1-1-1ZM4.236 13.64a.107.107 0 0 0-.058-.18l-1.323-.225-.628-1.168a.107.107 0 0 0-.188 0l-.628 1.168-1.322.225a.107.107 0 0 0-.058.18l.934.943-.191 1.305a.107.107 0 0 0 .152.111l1.207-.582 1.208.582a.107.107 0 0 0 .152-.111l-.191-1.305.934-.943ZM9.236 13.64a.107.107 0 0 0-.058-.18l-1.323-.225-.628-1.168a.107.107 0 0 0-.188 0l-.628 1.168-1.322.225a.107.107 0 0 0-.058.18l.934.943-.191 1.305a.107.107 0 0 0 .152.111l1.207-.582 1.208.582a.107.107 0 0 0 .152-.111l-.191-1.305.934-.943ZM14.178 13.46a.106.106 0 0 1 .058.18l-.934.943.19 1.305a.107.107 0 0 1-.152.111l-1.207-.582-1.207.582a.107.107 0 0 1-.152-.111l.191-1.305-.934-.943a.107.107 0 0 1 .058-.18l1.322-.225.628-1.168a.107.107 0 0 1 .188 0l.628 1.168 1.323.225Z"/>
</svg>
