<svg xmlns="http://www.w3.org/2000/svg" width="24" height="24" fill="none" viewBox="0 0 24 24">
  <path fill="#95BF47" d="M19.498 4.44c-.018-.11-.11-.185-.201-.185-.091 0-1.699-.037-1.699-.037s-1.351-1.334-1.48-1.464c-.127-.13-.401-.093-.492-.056 0 0-.256.074-.676.204a5.477 5.477 0 0 0-.329-.815C14.146 1.16 13.434.66 12.594.66c-.055 0-.11 0-.183.018-.018-.037-.055-.055-.073-.092-.365-.408-.84-.594-1.406-.575C9.835.048 8.74.845 7.862 2.272c-.621 1-1.096 2.26-1.242 3.243-1.26.39-2.137.667-2.155.686-.64.204-.658.222-.73.834C3.68 7.498 2 20.564 2 20.564l13.954 2.446L22 21.49c-.018-.018-2.484-16.939-2.502-17.05Zm-5.242-1.316c-.33.093-.694.223-1.078.334 0-.556-.073-1.353-.329-2.02.822.167 1.224 1.112 1.407 1.686Zm-1.827.575c-.73.222-1.534.482-2.338.723.22-.871.658-1.742 1.17-2.317.2-.204.474-.445.785-.593.328.649.402 1.557.383 2.187ZM10.95.752c.257 0 .476.056.658.167-.292.167-.584.39-.858.686-.694.76-1.224 1.946-1.443 3.076-.658.204-1.315.408-1.918.593C7.772 3.495 9.251.808 10.95.752Z"/>
  <path fill="#5E8E3E" d="M19.297 4.255c-.091 0-1.699-.037-1.699-.037s-1.351-1.334-1.48-1.464a.346.346 0 0 0-.182-.093v20.33l6.046-1.52-2.484-17.05a.215.215 0 0 0-.201-.166Z"/>
  <path fill="#fff" d="m12.575 7.405-.694 2.67s-.785-.372-1.717-.297c-1.37.092-1.37.963-1.37 1.186.074 1.186 3.16 1.445 3.343 4.244.128 2.205-1.15 3.706-2.995 3.817-2.229.149-3.452-1.186-3.452-1.186l.474-2.038s1.224.945 2.21.87c.64-.036.877-.574.859-.944-.091-1.557-2.612-1.465-2.776-4.022-.128-2.15 1.26-4.337 4.328-4.522 1.188-.093 1.79.222 1.79.222Z"/>
</svg>
