<svg xmlns="http://www.w3.org/2000/svg" width="16" height="16" fill="none" viewBox="0 0 16 16">
  <path fill="#95BF47" d="M13.248 3.092c-.012-.077-.076-.13-.14-.13-.064 0-1.19-.025-1.19-.025s-.945-.928-1.035-1.018c-.09-.09-.281-.065-.345-.039 0 0-.18.052-.473.142a3.786 3.786 0 0 0-.23-.567C9.502.81 9.004.462 8.415.462c-.038 0-.076 0-.127.013C8.275.449 8.249.436 8.237.41c-.256-.283-.589-.412-.985-.4-.767.026-1.534.58-2.148 1.573-.435.697-.767 1.573-.87 2.257-.881.27-1.495.464-1.508.477-.447.141-.46.154-.511.58C2.176 5.219 1 14.308 1 14.308l9.768 1.702L15 14.953c-.013-.013-1.739-11.784-1.752-11.861ZM9.58 2.177c-.23.064-.486.154-.754.232 0-.387-.051-.942-.23-1.406.575.116.856.774.984 1.174Zm-1.279.4c-.511.154-1.074.334-1.636.502.153-.606.46-1.212.818-1.612.14-.141.333-.309.55-.412.23.451.281 1.083.268 1.521ZM7.265.526c.179 0 .332.038.46.115-.204.116-.409.271-.6.477-.487.529-.857 1.354-1.01 2.14l-1.343.413C5.04 2.434 6.076.565 7.265.526Z"/>
  <path fill="#5E8E3E" d="M13.108 2.963c-.064 0-1.19-.026-1.19-.026s-.945-.928-1.035-1.019a.243.243 0 0 0-.128-.064v14.143l4.232-1.057-1.739-11.861a.15.15 0 0 0-.14-.116Z"/>
  <path fill="#fff" d="M8.403 5.155 7.917 7.01s-.55-.258-1.202-.206c-.959.065-.959.67-.959.825.051.825 2.212 1.006 2.34 2.952.09 1.535-.806 2.579-2.097 2.656-1.56.103-2.416-.825-2.416-.825l.332-1.418s.857.658 1.547.606c.448-.026.614-.4.601-.658C5.999 9.86 4.235 9.925 4.12 8.146 4.03 6.65 5.002 5.129 7.15 5c.83-.064 1.253.155 1.253.155Z"/>
</svg>
