<svg xmlns="http://www.w3.org/2000/svg" xlink="http://www.w3.org/1999/xlink" width="22" height="22" viewBox="0 0 22 22"><path d="M1,20 L1,15 L6,15 L6,20 L1,20 Z M8,20 L8,15 L12.999,15 L12.999,20 L8,20 Z M1,13 L1,8.001 L6,8.001 L6,13 L1,13 Z M8,13 L8,8 L13,8 L13,13 L8,13 Z M15,20 L15,15 L19.999,15 L19.999,20 L15,20 Z M15,13 L15,8.001 L19.999,8.001 L19.999,13 L15,13 Z M1,6 L1,1.001 L6,1.001 L6,6 L1,6 Z M8,6 L8,1.001 L12.999,1.001 L12.999,6 L8,6 Z M15,6 L15,1.001 L19.999,1.001 L19.999,6 L15,6 Z"/></svg>
