<svg xmlns="http://www.w3.org/2000/svg" xlink="http://www.w3.org/1999/xlink" width="22" height="22" viewBox="0 0 22 22"><path d="M3.7539,11 C4.4409,11 4.9999,11.558 4.9999,12.246 L4.9999,19.754 C4.9999,20.442 4.4409,21 3.7539,21 L2.2459,21 C1.5589,21 0.9999,20.442 0.9999,19.754 L0.9999,12.246 C0.9999,11.558 1.5589,11 2.2459,11 L3.7539,11 Z M19.4092,9 C20.5432,9 21.3122,10.169 20.8762,11.229 L17.7422,18.848 C17.2072,20.151 15.9502,21 14.5562,21 L7.4782,21 C6.6622,21 6.0002,20.329 6.0002,19.502 L6.0002,11.5 L10.0002,5 L10.0002,1.5 C10.0002,0.671 10.6722,0 11.5002,0 C12.8812,0 14.0002,2.239 14.0002,5 L12.4002,9 L19.4092,9 Z"/></svg>
