<svg width="16" height="16" viewBox="0 0 16 16" xmlns="http://www.w3.org/2000/svg"><path fill-rule="evenodd" clip-rule="evenodd" d="m13.854 13.312 1.963-4.292C16.438 7.596 15.4 6 13.854 6H10l.734-2.527c.313-.889.08-1.792-.697-2.243-.732-.425-1.6-.225-2.198.404L4.32 4.808A4 4 0 0 0 3 7.778v3.858a2 2 0 0 0 .789 1.592l1.26.96a4 4 0 0 0 2.423.816h3.764c1.135 0 2.162-.646 2.618-1.692ZM5.66 6.292l2.944-2.656-.525 1.805A2 2 0 0 0 10 7.999h3.854a.12.12 0 0 1 .064.014.16.16 0 0 1 .053.052.173.173 0 0 1 .028.076.146.146 0 0 1-.012.072l-1.96 4.284-.006.016a.832.832 0 0 1-.785.49H7.472a2 2 0 0 1-1.211-.408L5 11.636V7.777a2 2 0 0 1 .66-1.485Z"/><path d="M1 5.999a1 1 0 0 0-1 1v5.004a1 1 0 0 0 2 0V6.999a1 1 0 0 0-1-1Z"/></svg>