<svg xmlns="http://www.w3.org/2000/svg" xlink="http://www.w3.org/1999/xlink" width="12" height="12" viewBox="0 0 12 12"><path d="M11.3999,5 C11.6999,5 11.9999,5.3 11.9999,5.6 L11.9999,5.8 L10.1999,10.7 C9.8999,11.5 9.0989,12 8.2989,12 L3.4999,12 C3.1999,12 2.9999,11.8 2.9999,11.5 L2.9999,6 L4.9999,2.8 L4.9999,0.8 C4.9999,0.3 5.2989,0 5.6999,0 C6.6999,0 7.4999,0.8 7.4999,1.8 L7.4999,5 L11.3999,5 Z M1.4999,6 C1.7989,6 1.9999,6.2 1.9999,6.5 L1.9999,11.5 C1.9999,11.8 1.7989,12 1.4999,12 L0.4999,12 C0.1999,12 -0.0001,11.8 -0.0001,11.5 L-0.0001,6.5 C-0.0001,6.2 0.1999,6 0.4999,6 L1.4999,6 Z"/></svg>
