<svg width="16" height="16" viewBox="0 0 16 16" xmlns="http://www.w3.org/2000/svg"><path d="M5 1C3.437 1 2.03 2.188 2.03 3.818v2.677a5.817 5.817 0 0 1-.558.243l-.84.332a1 1 0 0 0 .113 1.897l.665.175c.156.041.417.132.62.24v2.8C2.03 13.812 3.437 15 5 15a1 1 0 1 0 0-2c-.613 0-.97-.44-.97-.818V9.049c0-.497-.283-.84-.457-1.009a2.001 2.001 0 0 0-.11-.098c.038-.031.075-.064.111-.098.159-.15.456-.486.456-.989V3.818C4.03 3.441 4.387 3 5 3a1 1 0 1 0 0-2Zm5 0c.872 0 1.701.26 2.336.728.634.468 1.127 1.196 1.127 2.09v2.617l.01.004c.248.108.541.2.779.275l1.05.333a1 1 0 0 1-.096 1.931l-.83.176a5.18 5.18 0 0 0-.913.288v2.74c0 .894-.493 1.622-1.127 2.09C11.7 14.741 10.872 15 10 15a1 1 0 0 1 0-2c.488 0 .89-.148 1.148-.337.257-.19.315-.371.315-.481V9.049c0-.59.407-.948.578-1.081l.034-.026a2.082 2.082 0 0 1-.037-.027c-.149-.113-.575-.463-.575-1.06V3.818c0-.11-.058-.291-.315-.48C10.89 3.147 10.488 3 10 3a1 1 0 0 1 0-2Z"/></svg>