<svg xmlns="http://www.w3.org/2000/svg" xlink="http://www.w3.org/1999/xlink" width="22" height="22" viewBox="0 0 22 22"><path d="M19.5,9 L21,9 L21,12 L19.5,12 C18.673,12 18,12.673 18,13.5 L18,16.5 C18,18.981 15.981,21 13.5,21 L12,21 L12,18 L13.5,18 C14.327,18 15,17.327 15,16.5 L15,13.5 C15,12.344 15.451,11.298 16.17,10.5 C15.451,9.702 15,8.656 15,7.5 L15,4.5 C15,3.673 14.327,3 13.5,3 L12,3 L12,0 L13.5,0 C15.981,0 18,2.019 18,4.5 L18,7.5 C18,8.327 18.673,9 19.5,9 Z M4,4.5 C4,2.019 6.019,0 8.5,0 L10,0 L10,3 L8.5,3 C7.673,3 7,3.673 7,4.5 L7,7.5 C7,8.656 6.549,9.702 5.83,10.5 C6.549,11.298 7,12.344 7,13.5 L7,16.5 C7,17.327 7.673,18 8.5,18 L10,18 L10,21 L8.5,21 C6.019,21 4,18.981 4,16.5 L4,13.5 C4,12.673 3.327,12 2.5,12 L1,12 L1,9 L2.5,9 C3.327,9 4,8.327 4,7.5 L4,4.5 Z"/></svg>
