<svg xmlns="http://www.w3.org/2000/svg" xlink="http://www.w3.org/1999/xlink" width="16" height="16" viewBox="0 0 16 16"><path d="M6,16 C4.3,16 3,14.7 3,13 L3,10 C3,9.4 2.6,9 2,9 L1,9 L1,7 L2,7 C2.6,7 3,6.6 3,6 L3,3 C3,1.3 4.3,0 6,0 L7,0 L7,2 L6,2 C5.4,2 5,2.4 5,3 L5,6 C5,6.8 4.7,7.5 4.2,8 C4.7,8.5 5,9.2 5,10 L5,13 C5,13.6 5.4,14 6,14 L7,14 L7,16 L6,16 Z M9,16 L9,14 L10,14 C10.6,14 11,13.6 11,13 L11,10 C11,9.2 11.3,8.5 11.8,8 C11.3,7.5 11,6.8 11,6 L11,3 C11,2.4 10.6,2 10,2 L9,2 L9,0 L10,0 C11.7,0 13,1.3 13,3 L13,6 C13,6.6 13.4,7 14,7 L15,7 L15,9 L14,9 C13.4,9 13,9.4 13,10 L13,13 C13,14.7 11.7,16 10,16 L9,16 Z"/></svg>
