<svg xmlns="http://www.w3.org/2000/svg" xlink="http://www.w3.org/1999/xlink" width="12" height="12" viewBox="0 0 12 12"><path d="M3.25,2.5 L3.25,4.5 C3.25,5.078 3.024,5.601 2.664,6 C3.024,6.399 3.25,6.922 3.25,7.5 L3.25,9.5 C3.25,9.914 3.587,10.25 4,10.25 L5,10.25 L5,11.75 L4,11.75 C2.76,11.75 1.75,10.741 1.75,9.5 L1.75,7.5 C1.75,7.086 1.413,6.75 1,6.75 L0,6.75 L0,5.25 L1,5.25 C1.413,5.25 1.75,4.914 1.75,4.5 L1.75,2.5 C1.75,1.259 2.76,0.25 4,0.25 L5,0.25 L5,1.75 L4,1.75 C3.587,1.75 3.25,2.086 3.25,2.5 Z M7.75,2.5 C7.75,2.086 7.413,1.75 7,1.75 L6,1.75 L6,0.25 L7,0.25 C8.24,0.25 9.25,1.259 9.25,2.5 L9.25,4.5 C9.25,4.914 9.587,5.25 10,5.25 L11,5.25 L11,6.75 L10,6.75 C9.587,6.75 9.25,7.086 9.25,7.5 L9.25,9.5 C9.25,10.741 8.24,11.75 7,11.75 L6,11.75 L6,10.25 L7,10.25 C7.413,10.25 7.75,9.914 7.75,9.5 L7.75,7.5 C7.75,6.922 7.976,6.399 8.336,6 C7.976,5.601 7.75,5.078 7.75,4.5 L7.75,2.5 Z"/></svg>
