<svg width="24" height="24" viewBox="0 0 24 24" xmlns="http://www.w3.org/2000/svg"><path d="M19.665 4.51C18.865 3.59 17.8 3.006 16.5 3c-2-.007-2.741.733-3.5 1.5-1.172 1.313-1.165 2.877-.864 4.1-3.953-.128-7.444-2.099-9.682-5.112a7.473 7.473 0 0 0-.374 2.325c0 3.04 1.818 5.647 4.403 6.75-1.391 0-3.357-.404-4.483-1.063.24 2.597 2.586 4.78 4.882 5.676A11.843 11.843 0 0 1 1 18.75 12.424 12.424 0 0 0 8.137 21c6.984 0 12.646-5.777 12.66-12.909C22.116 7.271 23 5.501 23 5.501c0-.001-1.021.51-2.333.801C21.789 5.633 22.5 3.5 22.5 3.5s-1.345.807-2.654 1.237a5.537 5.537 0 0 0-.181-.226Z"/></svg>