<svg xmlns="http://www.w3.org/2000/svg" xlink="http://www.w3.org/1999/xlink" width="22" height="22" viewBox="0 0 22 22"><path d="M17.9673,4.3428 C17.2403,3.5248 16.1893,3.0038 15.0073,2.9998 C14.0353,2.9968 13.1343,3.4498 12.4443,4.1318 C10.8643,5.6918 10.8493,6.8908 11.1233,7.9778 C7.5293,7.8638 4.3553,6.1118 2.3213,3.4338 C2.1043,4.0838 1.9813,4.7768 1.9813,5.4998 C1.9813,8.2028 3.6343,10.5198 5.9843,11.4998 C4.7193,11.4998 3.5343,11.1598 2.5103,10.5738 C2.7293,12.8818 4.2593,14.8038 6.3463,15.6008 C4.7633,16.4858 2.9423,16.9958 0.9993,16.9988 C2.8483,18.2598 5.0793,18.9998 7.4873,18.9998 C13.8453,18.9998 18.9973,13.8508 18.9973,7.4998 L20.9283,4.4508 C20.9783,4.3708 20.9993,4.2868 20.9993,4.2058 C20.9993,3.9258 20.7383,3.6768 20.4243,3.7518 L17.9673,4.3428 Z"/></svg>
