<svg xmlns="http://www.w3.org/2000/svg" xlink="http://www.w3.org/1999/xlink" width="12" height="12" viewBox="0 0 12 12"><path d="M3.3999,11 C7.2999,11 10.4999,7.7 10.4999,3.7 L10.4999,3.5 C11.3999,3.1 11.9999,2 11.9999,1 C11.5999,1.4 10.7999,1.8 10.0999,1.9 C9.6999,1.4 8.9999,1 8.1999,1 C6.9999,1 5.9999,2 5.9999,3.3 C5.9999,3.5 5.9999,3.6 6.0999,3.8 C5.5999,4 4.9999,4.1 4.4999,4.1 C2.6999,4.1 1.1999,3.2 0.1999,1.8 C0.0999,2.2 -0.0001,2.6 -0.0001,3.1 C-0.0001,5.3 1.7999,7.7 3.7999,8.4 C2.7999,9.5 1.4999,10.2 -0.0001,10.2 C0.9999,10.7 2.1999,11 3.3999,11"/></svg>
