<svg width="157" height="80" viewBox="0 0 157 80" fill="none" xmlns="http://www.w3.org/2000/svg">
<rect width="144" height="80" fill="#F6F7F8"/>
<g filter="url(#filter0_i)">
<rect width="28" height="40" fill="white"/>
<path fill-rule="evenodd" clip-rule="evenodd" d="M12.5 16L11 17.499L15.001 21.5L11 25.499L12.5 26.999L18 21.5L12.5 16Z" fill="#A6B0B3"/>
</g>
<g filter="url(#filter1_i)">
<rect width="116" height="40" transform="translate(28)" fill="white"/>
<path d="M49.4261 20C49.0483 17.9119 47.3778 16.679 45.3295 16.679C42.7244 16.679 40.8352 18.6875 40.8352 21.9091C40.8352 25.1307 42.7244 27.1392 45.3295 27.1392C47.3778 27.1392 49.0483 25.9062 49.4261 23.8182H48.1932C47.8949 25.2301 46.6818 25.9858 45.3295 25.9858C43.4801 25.9858 42.0284 24.554 42.0284 21.9091C42.0284 19.2642 43.4801 17.8324 45.3295 17.8324C46.6818 17.8324 47.8949 18.5881 48.1932 20H49.4261ZM53.5066 27.179C54.839 27.179 55.535 26.4631 55.7736 25.9659H55.8333V27H57.0066V21.9688C57.0066 19.5426 55.1571 19.2642 54.1827 19.2642C53.0293 19.2642 51.7168 19.6619 51.1202 21.054L52.2338 21.4517C52.4924 20.8949 53.1039 20.2983 54.2225 20.2983C55.3013 20.2983 55.8333 20.87 55.8333 21.8494V21.8892C55.8333 22.456 55.2566 22.4062 53.8645 22.5852C52.4476 22.7692 50.9015 23.0824 50.9015 24.8324C50.9015 26.3239 52.0549 27.179 53.5066 27.179ZM53.6855 26.125C52.7509 26.125 52.0748 25.7074 52.0748 24.892C52.0748 23.9972 52.8901 23.7188 53.8049 23.5994C54.302 23.5398 55.6344 23.4006 55.8333 23.1619V24.2358C55.8333 25.1903 55.0776 26.125 53.6855 26.125ZM62.4691 19.3636H60.8384V17.5341H59.6651V19.3636H58.5117V20.358H59.6651V25.1307C59.6651 26.4631 60.739 27.0994 61.7333 27.0994C62.1708 27.0994 62.4492 27.0199 62.6083 26.9602L62.3697 25.9062C62.2702 25.9261 62.1112 25.9659 61.8526 25.9659C61.3356 25.9659 60.8384 25.8068 60.8384 24.8125V20.358H62.4691V19.3636ZM68.3306 27H69.4641V25.8267H69.6033C69.8619 26.2443 70.359 27.1591 71.8306 27.1591C73.7397 27.1591 75.0721 25.6278 75.0721 23.2017C75.0721 20.7955 73.7397 19.2642 71.8107 19.2642C70.3192 19.2642 69.8619 20.179 69.6033 20.5767H69.5039V16.8182H68.3306V27ZM69.484 23.1818C69.484 21.4716 70.2397 20.3182 71.6715 20.3182C73.163 20.3182 73.8988 21.571 73.8988 23.1818C73.8988 24.8125 73.1431 26.1051 71.6715 26.1051C70.2596 26.1051 69.484 24.9119 69.484 23.1818ZM76.8668 27H78.0401V22.1676C78.0401 21.1335 78.8555 20.3778 79.9691 20.3778C80.2823 20.3778 80.6055 20.4375 80.685 20.4574V19.2642C80.5508 19.2543 80.2425 19.2443 80.0685 19.2443C79.1538 19.2443 78.3583 19.7614 78.0799 20.517H78.0004V19.3636H76.8668V27ZM85.0451 27.1591C86.5962 27.1591 87.7298 26.3835 88.0877 25.2301L86.9542 24.9119C86.6559 25.7074 85.9648 26.1051 85.0451 26.1051C83.668 26.1051 82.7184 25.2152 82.6637 23.5795H88.207V23.0824C88.207 20.2386 86.5167 19.2642 84.9258 19.2642C82.8576 19.2642 81.4854 20.8949 81.4854 23.2415C81.4854 25.5881 82.8377 27.1591 85.0451 27.1591ZM82.6637 22.5653C82.7433 21.3771 83.5835 20.3182 84.9258 20.3182C86.1985 20.3182 87.0138 21.2727 87.0138 22.5653H82.6637ZM93.1935 27.1591C94.7447 27.1591 95.8782 26.3835 96.2362 25.2301L95.1026 24.9119C94.8043 25.7074 94.1133 26.1051 93.1935 26.1051C91.8164 26.1051 90.8668 25.2152 90.8121 23.5795H96.3555V23.0824C96.3555 20.2386 94.6651 19.2642 93.0742 19.2642C91.006 19.2642 89.6339 20.8949 89.6339 23.2415C89.6339 25.5881 90.9862 27.1591 93.1935 27.1591ZM90.8121 22.5653C90.8917 21.3771 91.7319 20.3182 93.0742 20.3182C94.3469 20.3182 95.1623 21.2727 95.1623 22.5653H90.8121ZM101.024 27.1591C102.495 27.1591 102.993 26.2443 103.251 25.8267H103.39V27H104.524V16.8182H103.35V20.5767H103.251C102.993 20.179 102.535 19.2642 101.044 19.2642C99.1147 19.2642 97.7823 20.7955 97.7823 23.2017C97.7823 25.6278 99.1147 27.1591 101.024 27.1591ZM101.183 26.1051C99.7113 26.1051 98.9556 24.8125 98.9556 23.1818C98.9556 21.571 99.6914 20.3182 101.183 20.3182C102.615 20.3182 103.37 21.4716 103.37 23.1818C103.37 24.9119 102.595 26.1051 101.183 26.1051ZM112.245 21.0739C111.877 19.9901 111.051 19.2642 109.54 19.2642C107.929 19.2642 106.736 20.179 106.736 21.4716C106.736 22.5256 107.363 23.2315 108.765 23.5597L110.037 23.858C110.808 24.0369 111.171 24.4048 111.171 24.9318C111.171 25.5881 110.475 26.125 109.381 26.125C108.422 26.125 107.82 25.7124 107.611 24.892L106.498 25.1705C106.771 26.468 107.84 27.1591 109.401 27.1591C111.176 27.1591 112.384 26.1896 112.384 24.8722C112.384 23.8082 111.718 23.1371 110.355 22.804L109.222 22.5256C108.317 22.3018 107.909 21.9986 107.909 21.4119C107.909 20.7557 108.605 20.2784 109.54 20.2784C110.564 20.2784 110.987 20.8452 111.191 21.3722L112.245 21.0739Z" fill="#0071BC"/>
</g>
<rect width="28" height="40" transform="translate(0 40)" fill="white"/>
<path fill-rule="evenodd" clip-rule="evenodd" d="M12.5 56L11 57.499L15.001 61.5L11 65.499L12.5 66.999L18 61.5L12.5 56Z" fill="#A6B0B3"/>
<rect width="116" height="40" transform="translate(28 40)" fill="white"/>
<path d="M44.375 67C47.4773 67 49.2273 65.071 49.2273 61.8892C49.2273 58.7273 47.4773 56.8182 44.5142 56.8182H41.233V67H44.375ZM42.4659 65.9062V57.9119H44.4347C46.821 57.9119 48.0341 59.4233 48.0341 61.8892C48.0341 64.375 46.821 65.9062 44.2955 65.9062H42.4659ZM54.2386 67.1591C56.3068 67.1591 57.6989 65.5881 57.6989 63.2216C57.6989 60.8352 56.3068 59.2642 54.2386 59.2642C52.1705 59.2642 50.7784 60.8352 50.7784 63.2216C50.7784 65.5881 52.1705 67.1591 54.2386 67.1591ZM54.2386 66.1051C52.6676 66.1051 51.9517 64.7528 51.9517 63.2216C51.9517 61.6903 52.6676 60.3182 54.2386 60.3182C55.8097 60.3182 56.5256 61.6903 56.5256 63.2216C56.5256 64.7528 55.8097 66.1051 54.2386 66.1051ZM62.5723 70.0227C64.4018 70.0227 65.8734 69.1875 65.8734 67.2188V59.3636H64.7399V60.5767H64.6206C64.362 60.179 63.8848 59.2642 62.3933 59.2642C60.4643 59.2642 59.1319 60.7955 59.1319 63.142C59.1319 65.5284 60.524 66.8807 62.3734 66.8807C63.8649 66.8807 64.3422 66.0057 64.6007 65.5881H64.7001V67.1392C64.7001 68.4119 63.8052 68.9886 62.5723 68.9886C61.1852 68.9886 60.698 68.2578 60.3848 67.8352L59.4501 68.4915C59.9274 69.2919 60.867 70.0227 62.5723 70.0227ZM62.5325 65.8267C61.0609 65.8267 60.3052 64.7131 60.3052 63.1222C60.3052 61.571 61.041 60.3182 62.5325 60.3182C63.9643 60.3182 64.72 61.4716 64.72 63.1222C64.72 64.8125 63.9444 65.8267 62.5325 65.8267ZM72.1177 67H73.2512V65.8267H73.3904C73.649 66.2443 74.1461 67.1591 75.6177 67.1591C77.5268 67.1591 78.8592 65.6278 78.8592 63.2017C78.8592 60.7955 77.5268 59.2642 75.5978 59.2642C74.1064 59.2642 73.649 60.179 73.3904 60.5767H73.291V56.8182H72.1177V67ZM73.2711 63.1818C73.2711 61.4716 74.0268 60.3182 75.4586 60.3182C76.9501 60.3182 77.6859 61.571 77.6859 63.1818C77.6859 64.8125 76.9302 66.1051 75.4586 66.1051C74.0467 66.1051 73.2711 64.9119 73.2711 63.1818ZM80.6539 67H81.8272V62.1676C81.8272 61.1335 82.6426 60.3778 83.7562 60.3778C84.0694 60.3778 84.3926 60.4375 84.4721 60.4574V59.2642C84.3379 59.2543 84.0297 59.2443 83.8556 59.2443C82.9409 59.2443 82.1454 59.7614 81.867 60.517H81.7875V59.3636H80.6539V67ZM88.8322 67.1591C90.3833 67.1591 91.5169 66.3835 91.8748 65.2301L90.7413 64.9119C90.443 65.7074 89.752 66.1051 88.8322 66.1051C87.4551 66.1051 86.5055 65.2152 86.4508 63.5795H91.9941V63.0824C91.9941 60.2386 90.3038 59.2642 88.7129 59.2642C86.6447 59.2642 85.2725 60.8949 85.2725 63.2415C85.2725 65.5881 86.6248 67.1591 88.8322 67.1591ZM86.4508 62.5653C86.5304 61.3771 87.3706 60.3182 88.7129 60.3182C89.9856 60.3182 90.801 61.2727 90.801 62.5653H86.4508ZM96.9806 67.1591C98.5318 67.1591 99.6653 66.3835 100.023 65.2301L98.8897 64.9119C98.5914 65.7074 97.9004 66.1051 96.9806 66.1051C95.6035 66.1051 94.6539 65.2152 94.5993 63.5795H100.143V63.0824C100.143 60.2386 98.4522 59.2642 96.8613 59.2642C94.7931 59.2642 93.421 60.8949 93.421 63.2415C93.421 65.5881 94.7733 67.1591 96.9806 67.1591ZM94.5993 62.5653C94.6788 61.3771 95.519 60.3182 96.8613 60.3182C98.1341 60.3182 98.9494 61.2727 98.9494 62.5653H94.5993ZM104.811 67.1591C106.282 67.1591 106.78 66.2443 107.038 65.8267H107.177V67H108.311V56.8182H107.138V60.5767H107.038C106.78 60.179 106.322 59.2642 104.831 59.2642C102.902 59.2642 101.569 60.7955 101.569 63.2017C101.569 65.6278 102.902 67.1591 104.811 67.1591ZM104.97 66.1051C103.498 66.1051 102.743 64.8125 102.743 63.1818C102.743 61.571 103.479 60.3182 104.97 60.3182C106.402 60.3182 107.157 61.4716 107.157 63.1818C107.157 64.9119 106.382 66.1051 104.97 66.1051ZM116.032 61.0739C115.664 59.9901 114.839 59.2642 113.327 59.2642C111.716 59.2642 110.523 60.179 110.523 61.4716C110.523 62.5256 111.15 63.2315 112.552 63.5597L113.824 63.858C114.595 64.0369 114.958 64.4048 114.958 64.9318C114.958 65.5881 114.262 66.125 113.168 66.125C112.209 66.125 111.607 65.7124 111.398 64.892L110.285 65.1705C110.558 66.468 111.627 67.1591 113.188 67.1591C114.963 67.1591 116.171 66.1896 116.171 64.8722C116.171 63.8082 115.505 63.1371 114.143 62.804L113.009 62.5256C112.104 62.3018 111.697 61.9986 111.697 61.4119C111.697 60.7557 112.393 60.2784 113.327 60.2784C114.351 60.2784 114.774 60.8452 114.978 61.3722L116.032 61.0739Z" fill="#0071BC"/>
<defs>
<filter id="filter0_i" x="0" y="0" width="28" height="40" filterUnits="userSpaceOnUse" color-interpolation-filters="sRGB">
<feFlood flood-opacity="0" result="BackgroundImageFix"/>
<feBlend mode="normal" in="SourceGraphic" in2="BackgroundImageFix" result="shape"/>
<feColorMatrix in="SourceAlpha" type="matrix" values="0 0 0 0 0 0 0 0 0 0 0 0 0 0 0 0 0 0 127 0" result="hardAlpha"/>
<feOffset dy="-1"/>
<feComposite in2="hardAlpha" operator="arithmetic" k2="-1" k3="1"/>
<feColorMatrix type="matrix" values="0 0 0 0 0.870588 0 0 0 0 0.890196 0 0 0 0 0.898039 0 0 0 1 0"/>
<feBlend mode="normal" in2="shape" result="effect1_innerShadow"/>
</filter>
<filter id="filter1_i" x="28" y="0" width="129" height="40" filterUnits="userSpaceOnUse" color-interpolation-filters="sRGB">
<feFlood flood-opacity="0" result="BackgroundImageFix"/>
<feBlend mode="normal" in="SourceGraphic" in2="BackgroundImageFix" result="shape"/>
<feColorMatrix in="SourceAlpha" type="matrix" values="0 0 0 0 0 0 0 0 0 0 0 0 0 0 0 0 0 0 127 0" result="hardAlpha"/>
<feOffset dy="-1"/>
<feComposite in2="hardAlpha" operator="arithmetic" k2="-1" k3="1"/>
<feColorMatrix type="matrix" values="0 0 0 0 0.870588 0 0 0 0 0.890196 0 0 0 0 0.898039 0 0 0 1 0"/>
<feBlend mode="normal" in2="shape" result="effect1_innerShadow"/>
</filter>
</defs>
</svg>
