<svg width="144" height="80" viewBox="0 0 144 80" fill="none" xmlns="http://www.w3.org/2000/svg">
  <g filter="url(#a)">
    <path fill="#fff" d="M0 0h40v40H0z"/>
    <path fill-rule="evenodd" clip-rule="evenodd" d="M18.3 24.7a1 1 0 0 1 0-1.4l3.29-3.3-3.3-3.3a1 1 0 0 1 1.42-1.4l4 4a1 1 0 0 1 0 1.4l-4 4a1 1 0 0 1-1.42 0Z" fill="#A9ABB6"/>
  </g>
  <g filter="url(#b)">
    <path fill="#fff" d="M40 0h104v40H40z"/>
    <path d="M61.58 20.13h-1.56a2.37 2.37 0 0 0-.93-1.52c-.23-.17-.5-.3-.79-.4a3.09 3.09 0 0 0-2.5.31c-.45.3-.82.73-1.09 1.3-.26.57-.4 1.27-.4 2.09 0 .83.14 1.53.4 2.1.27.57.64 1 1.1 1.29a3.18 3.18 0 0 0 2.48.3 2.4 2.4 0 0 0 1.73-1.89l1.56.01a4.15 4.15 0 0 1-1.4 2.47c-.36.3-.79.53-1.26.7-.47.17-1 .25-1.55.25-.88 0-1.67-.21-2.36-.63a4.38 4.38 0 0 1-1.63-1.8c-.4-.78-.59-1.72-.59-2.8 0-1.09.2-2.02.6-2.8a4.35 4.35 0 0 1 3.98-2.43c.54 0 1.04.08 1.51.23a3.99 3.99 0 0 1 2.2 1.76c.24.43.4.91.5 1.46Zm3.94 7.04c-.49 0-.92-.1-1.32-.27-.39-.18-.7-.45-.93-.79a2.27 2.27 0 0 1-.33-1.27c0-.43.08-.78.24-1.06.17-.28.4-.5.68-.66.28-.17.6-.29.94-.37.35-.08.7-.15 1.06-.19l1.12-.13c.28-.04.49-.1.62-.17.13-.08.2-.21.2-.4v-.03c0-.43-.13-.77-.37-1-.25-.24-.6-.36-1.09-.36-.5 0-.9.1-1.18.33-.29.22-.48.46-.6.73l-1.39-.32A2.69 2.69 0 0 1 65 19.46a4.33 4.33 0 0 1 2.3-.09c.34.07.66.2.96.4.3.18.54.45.74.8.19.35.28.8.28 1.36V27h-1.45v-1.04h-.06a2.3 2.3 0 0 1-1.17 1.03c-.3.12-.66.18-1.08.18Zm.32-1.2c.41 0 .76-.08 1.05-.24a1.7 1.7 0 0 0 .9-1.48v-.99a.78.78 0 0 1-.3.15 4.8 4.8 0 0 1-.51.11 60.57 60.57 0 0 1-1.02.15c-.29.04-.55.1-.8.18-.23.09-.42.21-.56.38a.93.93 0 0 0-.2.63c0 .37.13.65.4.84.27.18.62.28 1.04.28Zm8.99-6.6v1.19h-4.17v-1.2h4.17Zm-3.05-1.84h1.48v7.23c0 .29.05.5.13.65.09.14.2.24.34.3a1.74 1.74 0 0 0 .77.05l.2-.05.27 1.23c-.09.03-.21.07-.37.1a2.92 2.92 0 0 1-1.69-.15 1.88 1.88 0 0 1-.82-.68c-.2-.3-.31-.68-.31-1.14v-7.54ZM80.3 27V16.82h1.48v3.78h.1c.08-.16.2-.34.37-.55.16-.2.38-.4.67-.55.3-.16.67-.24 1.15-.24a2.98 2.98 0 0 1 2.79 1.82c.27.59.41 1.3.41 2.12a5 5 0 0 1-.4 2.12 2.93 2.93 0 0 1-2.78 1.83 2.15 2.15 0 0 1-1.82-.78c-.18-.21-.3-.4-.4-.56h-.12V27H80.3Zm1.45-3.82c0 .54.08 1 .24 1.41.15.4.38.72.67.95.3.23.66.34 1.09.34.44 0 .81-.12 1.11-.35.3-.24.53-.56.68-.97.15-.4.23-.87.23-1.38 0-.5-.07-.95-.23-1.36-.15-.4-.37-.71-.67-.95-.3-.23-.67-.34-1.12-.34-.43 0-.8.1-1.1.33-.29.22-.51.53-.67.93-.15.4-.23.86-.23 1.4Zm7.2 3.82v-7.64h1.43v1.22h.08c.14-.41.38-.74.73-.97a2.1 2.1 0 0 1 1.2-.36 6.38 6.38 0 0 1 .64.03v1.43a3.04 3.04 0 0 0-.78-.09c-.35 0-.66.07-.94.22a1.66 1.66 0 0 0-.88 1.5V27h-1.49Zm8.38.15c-.75 0-1.4-.16-1.94-.48a3.27 3.27 0 0 1-1.25-1.37 4.63 4.63 0 0 1-.44-2.07c0-.78.15-1.47.44-2.07.3-.6.7-1.06 1.23-1.4a3.74 3.74 0 0 1 3.11-.29 3.03 3.03 0 0 1 1.85 1.87c.19.48.28 1.07.28 1.76v.53h-6.07v-1.11h4.61c0-.4-.08-.74-.24-1.04a1.8 1.8 0 0 0-1.67-.99c-.42 0-.78.1-1.1.31-.3.2-.54.47-.71.8a2.3 2.3 0 0 0-.25 1.05v.87c0 .52.09.95.27 1.3.18.37.44.64.76.83.32.18.7.28 1.14.28.28 0 .54-.04.77-.12a1.6 1.6 0 0 0 .99-.97l1.4.25c-.1.42-.31.78-.6 1.09-.29.3-.65.55-1.09.72-.43.17-.93.25-1.49.25Zm8.22 0c-.75 0-1.4-.16-1.94-.48a3.26 3.26 0 0 1-1.26-1.37 4.62 4.62 0 0 1-.43-2.07c0-.78.14-1.47.43-2.07.3-.6.7-1.06 1.24-1.4a3.75 3.75 0 0 1 3.11-.29 3.03 3.03 0 0 1 1.85 1.87c.18.48.28 1.07.28 1.76v.53h-6.07v-1.11h4.61c0-.4-.08-.74-.24-1.04a1.8 1.8 0 0 0-1.67-.99c-.42 0-.79.1-1.1.31-.3.2-.55.47-.71.8a2.3 2.3 0 0 0-.25 1.05v.87c0 .52.09.95.27 1.3.18.37.43.64.76.83.32.18.7.28 1.13.28.29 0 .54-.04.78-.12a1.6 1.6 0 0 0 .99-.97l1.4.25c-.11.42-.31.78-.6 1.09-.3.3-.66.55-1.1.72-.43.17-.92.25-1.48.25Zm7.78 0a2.96 2.96 0 0 1-2.78-1.83c-.27-.59-.4-1.3-.4-2.12 0-.83.13-1.53.4-2.12a2.97 2.97 0 0 1 2.79-1.81c.48 0 .86.07 1.15.23.29.16.52.34.67.55.17.2.3.4.38.55h.1v-3.78h1.48V27h-1.45v-1.19h-.13c-.09.16-.22.35-.39.56a2.15 2.15 0 0 1-1.82.78Zm.33-1.27c.43 0 .8-.11 1.09-.34.3-.23.52-.54.67-.95.16-.4.24-.87.24-1.4 0-.54-.08-1-.23-1.4-.16-.4-.38-.7-.67-.93-.3-.22-.66-.33-1.1-.33-.44 0-.82.11-1.12.34-.3.24-.52.55-.67.95-.15.4-.23.86-.23 1.36 0 .51.08.97.23 1.38.16.4.38.73.68.97.3.23.67.35 1.11.35Zm11.3-4.65-1.34.24a1.6 1.6 0 0 0-.27-.5 1.33 1.33 0 0 0-.5-.38c-.2-.1-.45-.15-.76-.15-.42 0-.77.1-1.06.29-.28.18-.42.42-.42.72 0 .25.1.46.28.61.2.16.5.29.92.39l1.21.27c.7.17 1.23.42 1.57.76.35.33.52.77.52 1.31a2 2 0 0 1-.4 1.23 2.6 2.6 0 0 1-1.1.83c-.46.2-1 .3-1.62.3-.86 0-1.55-.18-2.1-.54a2.31 2.31 0 0 1-.99-1.57l1.44-.22c.09.38.27.66.55.85.28.2.64.29 1.09.29.49 0 .88-.1 1.17-.3.29-.21.43-.46.43-.76a.78.78 0 0 0-.26-.6 1.76 1.76 0 0 0-.81-.37l-1.3-.28a3.11 3.11 0 0 1-1.58-.78c-.34-.35-.5-.8-.5-1.34 0-.45.12-.85.37-1.19.25-.34.6-.6 1.05-.79.44-.19.95-.29 1.52-.29.83 0 1.48.18 1.95.54.48.36.79.83.94 1.43Z" fill="#006DCA"/>
  </g>
  <g filter="url(#c)">
    <path fill="#fff" d="M0 40h40v40H0z"/>
    <path fill-rule="evenodd" clip-rule="evenodd" d="M18.3 64.7a1 1 0 0 1 0-1.4l3.29-3.3-3.3-3.3a1 1 0 0 1 1.42-1.4l4 4a1 1 0 0 1 0 1.4l-4 4a1 1 0 0 1-1.42 0Z" fill="#A9ABB6"/>
  </g>
  <g filter="url(#d)">
    <path fill="#fff" d="M40 40h104v40H40z"/>
    <path d="M56.41 67h-3.3V56.82h3.4c1 0 1.86.2 2.58.61.72.4 1.26.99 1.65 1.74.38.76.57 1.67.57 2.72 0 1.06-.2 1.98-.58 2.74a4.08 4.08 0 0 1-1.67 1.76c-.73.4-1.61.61-2.65.61Zm-1.76-1.34h1.68c.78 0 1.42-.15 1.93-.44.52-.3.9-.72 1.16-1.28.25-.56.38-1.24.38-2.05 0-.8-.13-1.47-.38-2.03a2.7 2.7 0 0 0-1.13-1.27 3.69 3.69 0 0 0-1.87-.43h-1.77v7.5Zm11.67 1.5a3.32 3.32 0 0 1-3.12-1.87 4.57 4.57 0 0 1-.44-2.07c0-.8.15-1.49.44-2.08a3.31 3.31 0 0 1 3.12-1.88 3.31 3.31 0 0 1 3.12 1.87c.3.6.44 1.3.44 2.09 0 .79-.15 1.47-.44 2.06a3.32 3.32 0 0 1-3.12 1.87Zm0-1.25c.47 0 .85-.13 1.16-.37.3-.25.53-.57.67-.98.15-.4.23-.86.23-1.35 0-.49-.08-.93-.23-1.34a2.19 2.19 0 0 0-.67-.99c-.3-.25-.7-.37-1.16-.37-.46 0-.85.12-1.16.37-.3.25-.53.58-.68.99-.15.4-.22.85-.22 1.34 0 .5.07.94.22 1.35.15.4.38.73.68.98.3.24.7.37 1.16.37Zm8.42 4.11a4.6 4.6 0 0 1-1.57-.24 3.03 3.03 0 0 1-1.06-.63 2.65 2.65 0 0 1-.62-.86l1.28-.52c.1.14.21.3.36.46.15.16.36.3.62.42s.6.17 1 .17c.57 0 1.03-.13 1.4-.4.37-.28.55-.71.55-1.31v-1.5h-.1a3.4 3.4 0 0 1-.38.54c-.16.2-.4.37-.68.52-.3.14-.68.22-1.14.22a3 3 0 0 1-2.77-1.68 4.56 4.56 0 0 1-.42-2.06c0-.81.13-1.5.4-2.09.29-.58.67-1.02 1.15-1.33a2.97 2.97 0 0 1 1.65-.47c.47 0 .85.08 1.15.24.29.16.51.34.68.55.16.2.29.4.38.55h.1v-1.24h1.47v7.8c0 .67-.16 1.2-.46 1.62-.3.43-.72.74-1.24.94-.52.2-1.1.3-1.75.3Zm-.01-4.37c.42 0 .78-.1 1.08-.3.3-.2.52-.49.68-.86.15-.38.23-.83.23-1.36 0-.51-.08-.96-.23-1.36-.15-.39-.38-.7-.67-.91-.3-.22-.66-.33-1.1-.33-.44 0-.82.11-1.11.34-.3.23-.53.55-.68.94-.15.4-.22.83-.22 1.32 0 .5.07.94.23 1.32.15.38.37.67.67.88.3.22.67.32 1.12.32ZM84 67V56.82h1.49v3.78h.09c.09-.16.21-.34.37-.55.16-.2.39-.4.68-.55.29-.16.67-.24 1.14-.24a2.98 2.98 0 0 1 2.8 1.82c.27.59.4 1.3.4 2.12a5 5 0 0 1-.4 2.12 2.94 2.94 0 0 1-2.78 1.83 2.15 2.15 0 0 1-1.82-.78c-.17-.21-.3-.4-.4-.56h-.11V67H84Zm1.46-3.82c0 .54.08 1 .23 1.41.16.4.38.72.68.95.3.23.66.34 1.08.34.45 0 .82-.12 1.12-.35.3-.24.52-.56.67-.97.16-.4.24-.87.24-1.38 0-.5-.08-.95-.23-1.36-.15-.4-.38-.71-.68-.95-.3-.23-.67-.34-1.12-.34-.43 0-.8.1-1.09.33-.3.22-.52.53-.67.93-.15.4-.23.86-.23 1.4ZM92.65 67v-7.64h1.43v1.22h.08c.14-.41.39-.74.74-.97a2.1 2.1 0 0 1 1.2-.36 6.38 6.38 0 0 1 .63.03v1.43a3.04 3.04 0 0 0-.78-.09c-.34 0-.66.07-.93.22a1.66 1.66 0 0 0-.89 1.5V67h-1.48Zm8.39.15c-.75 0-1.4-.16-1.95-.48a3.27 3.27 0 0 1-1.25-1.37 4.62 4.62 0 0 1-.44-2.07c0-.78.15-1.47.44-2.07.3-.6.7-1.06 1.23-1.4a3.74 3.74 0 0 1 3.11-.29 3.04 3.04 0 0 1 1.86 1.87c.18.48.27 1.07.27 1.76v.53h-6.07v-1.11h4.62c0-.4-.08-.74-.24-1.04a1.8 1.8 0 0 0-1.68-.99c-.41 0-.78.1-1.09.31-.3.2-.55.47-.72.8a2.3 2.3 0 0 0-.24 1.05v.87c0 .52.09.95.26 1.3.19.37.44.64.77.83.32.18.7.28 1.13.28.28 0 .54-.04.77-.12a1.6 1.6 0 0 0 .99-.97l1.41.25c-.11.42-.31.78-.6 1.09-.3.3-.66.55-1.1.72-.43.17-.92.25-1.48.25Zm8.21 0c-.75 0-1.4-.16-1.94-.48a3.27 3.27 0 0 1-1.25-1.37 4.62 4.62 0 0 1-.44-2.07c0-.78.15-1.47.44-2.07.3-.6.7-1.06 1.23-1.4a3.75 3.75 0 0 1 3.11-.29 3.04 3.04 0 0 1 1.85 1.87c.19.48.28 1.07.28 1.76v.53h-6.07v-1.11h4.62c0-.4-.08-.74-.24-1.04a1.8 1.8 0 0 0-1.68-.99c-.42 0-.78.1-1.1.31-.3.2-.54.47-.7.8a2.3 2.3 0 0 0-.26 1.05v.87c0 .52.1.95.27 1.3.18.37.44.64.76.83.33.18.7.28 1.14.28.28 0 .54-.04.77-.12a1.6 1.6 0 0 0 .99-.97l1.4.25c-.1.42-.3.78-.6 1.09-.29.3-.65.55-1.09.72-.43.17-.93.25-1.48.25Zm7.79 0a2.96 2.96 0 0 1-2.78-1.83c-.28-.59-.41-1.3-.41-2.12 0-.83.14-1.53.41-2.12a2.97 2.97 0 0 1 2.79-1.81c.47 0 .85.07 1.14.23.3.16.52.34.68.55.16.2.29.4.38.55h.09v-3.78h1.48V67h-1.45v-1.19h-.12c-.1.16-.22.35-.4.56a2.15 2.15 0 0 1-1.81.78Zm.33-1.27c.42 0 .79-.11 1.08-.34.3-.23.52-.54.68-.95.15-.4.23-.87.23-1.4 0-.54-.08-1-.23-1.4-.15-.4-.37-.7-.67-.93-.3-.22-.66-.33-1.1-.33-.44 0-.81.11-1.11.34-.3.24-.53.55-.68.95-.15.4-.22.86-.22 1.36 0 .51.08.97.23 1.38.15.4.38.73.67.97.3.23.68.35 1.12.35Zm11.3-4.65-1.35.24a1.6 1.6 0 0 0-.27-.5 1.33 1.33 0 0 0-.49-.38c-.2-.1-.46-.15-.77-.15-.42 0-.77.1-1.05.29-.28.18-.42.42-.42.72 0 .25.1.46.28.61.19.16.5.29.92.39l1.2.27c.71.17 1.23.42 1.58.76.34.33.52.77.52 1.31a2 2 0 0 1-.4 1.23 2.6 2.6 0 0 1-1.1.83c-.47.2-1.01.3-1.63.3-.85 0-1.55-.18-2.09-.54a2.31 2.31 0 0 1-1-1.57l1.44-.22c.1.38.28.66.55.85.28.2.65.29 1.1.29.48 0 .87-.1 1.16-.3.3-.21.44-.46.44-.76a.78.78 0 0 0-.27-.6 1.75 1.75 0 0 0-.8-.37l-1.3-.28a3.11 3.11 0 0 1-1.58-.78c-.34-.35-.51-.8-.51-1.34 0-.45.13-.85.38-1.19.25-.34.6-.6 1.04-.79.45-.19.95-.29 1.53-.29.82 0 1.47.18 1.95.54.47.36.78.83.94 1.43Z" fill="#006DCA"/>
  </g>
  <defs>
    <filter id="a" x="0" y="0" width="40" height="40" filterUnits="userSpaceOnUse" color-interpolation-filters="sRGB">
      <feFlood flood-opacity="0" result="BackgroundImageFix"/>
      <feBlend in="SourceGraphic" in2="BackgroundImageFix" result="shape"/>
      <feColorMatrix in="SourceAlpha" values="0 0 0 0 0 0 0 0 0 0 0 0 0 0 0 0 0 0 127 0" result="hardAlpha"/>
      <feOffset dy="-1"/>
      <feComposite in2="hardAlpha" operator="arithmetic" k2="-1" k3="1"/>
      <feColorMatrix values="0 0 0 0 0.878431 0 0 0 0 0.882353 0 0 0 0 0.913725 0 0 0 1 0"/>
      <feBlend in2="shape" result="effect1_innerShadow_760_53743"/>
    </filter>
    <filter id="b" x="40" y="0" width="104" height="40" filterUnits="userSpaceOnUse" color-interpolation-filters="sRGB">
      <feFlood flood-opacity="0" result="BackgroundImageFix"/>
      <feBlend in="SourceGraphic" in2="BackgroundImageFix" result="shape"/>
      <feColorMatrix in="SourceAlpha" values="0 0 0 0 0 0 0 0 0 0 0 0 0 0 0 0 0 0 127 0" result="hardAlpha"/>
      <feOffset dy="-1"/>
      <feComposite in2="hardAlpha" operator="arithmetic" k2="-1" k3="1"/>
      <feColorMatrix values="0 0 0 0 0.878431 0 0 0 0 0.882353 0 0 0 0 0.913725 0 0 0 1 0"/>
      <feBlend in2="shape" result="effect1_innerShadow_760_53743"/>
    </filter>
    <filter id="c" x="0" y="40" width="40" height="40" filterUnits="userSpaceOnUse" color-interpolation-filters="sRGB">
      <feFlood flood-opacity="0" result="BackgroundImageFix"/>
      <feBlend in="SourceGraphic" in2="BackgroundImageFix" result="shape"/>
      <feColorMatrix in="SourceAlpha" values="0 0 0 0 0 0 0 0 0 0 0 0 0 0 0 0 0 0 127 0" result="hardAlpha"/>
      <feOffset dy="-1"/>
      <feComposite in2="hardAlpha" operator="arithmetic" k2="-1" k3="1"/>
      <feColorMatrix values="0 0 0 0 0.878431 0 0 0 0 0.882353 0 0 0 0 0.913725 0 0 0 1 0"/>
      <feBlend in2="shape" result="effect1_innerShadow_760_53743"/>
    </filter>
    <filter id="d" x="40" y="40" width="104" height="40" filterUnits="userSpaceOnUse" color-interpolation-filters="sRGB">
      <feFlood flood-opacity="0" result="BackgroundImageFix"/>
      <feBlend in="SourceGraphic" in2="BackgroundImageFix" result="shape"/>
      <feColorMatrix in="SourceAlpha" values="0 0 0 0 0 0 0 0 0 0 0 0 0 0 0 0 0 0 127 0" result="hardAlpha"/>
      <feOffset dy="-1"/>
      <feComposite in2="hardAlpha" operator="arithmetic" k2="-1" k3="1"/>
      <feColorMatrix values="0 0 0 0 0.878431 0 0 0 0 0.882353 0 0 0 0 0.913725 0 0 0 1 0"/>
      <feBlend in2="shape" result="effect1_innerShadow_760_53743"/>
    </filter>
  </defs>
</svg>
