<svg width="169" height="80" viewBox="0 0 169 80" fill="none" xmlns="http://www.w3.org/2000/svg">
<rect width="144" height="80" fill="#F6F7F8"/>
<g filter="url(#filter0_ii)">
<rect width="40" height="40" fill="#E5E6E8"/>
<path d="M12 15C12 13.8954 12.8954 13 14 13H26C27.1046 13 28 13.8954 28 15V27C28 28.1046 27.1046 29 26 29H14C12.8954 29 12 28.1046 12 27V15Z" fill="#2B94E1"/>
<path fill-rule="evenodd" clip-rule="evenodd" d="M24.855 18.0596L24.0063 17.1533C23.91 17.0506 23.7838 17 23.6575 17C23.53 17 23.4037 17.0506 23.3075 17.1533L18.8412 21.9193L16.6912 19.6242C16.595 19.5229 16.4688 19.471 16.3425 19.471C16.2162 19.471 16.0888 19.5229 15.9925 19.6256L15.1437 20.5305C15.05 20.6305 15 20.7611 15 20.8944C15 21.033 15.045 21.1689 15.1437 21.2742L18.4913 24.8461C18.685 25.0513 18.9975 25.0513 19.1912 24.8461L24.855 18.8059C24.9537 18.6993 25 18.5633 25 18.4221C25 18.2915 24.9487 18.1595 24.855 18.0596Z" fill="white"/>
</g>
<g filter="url(#filter1_i)">
<rect width="104" height="40" transform="translate(40)" fill="#E5E6E8"/>
<path d="M48.6761 16.9119H51.8778V26H53.1108V16.9119H56.3125V15.8182H48.6761V16.9119ZM58.2154 26H59.4483V21.446H64.8773V26H66.1103V15.8182H64.8773V20.3523H59.4483V15.8182H58.2154V26Z" fill="#333333"/>
<path d="M73 18H83V16H73V18Z" fill="#A6B0B3"/>
<path d="M73 22H79V19.999H73V22Z" fill="#A6B0B3"/>
<path d="M76 26H73V24H76V26Z" fill="#A6B0B3"/>
</g>
<rect width="40" height="40" transform="translate(0 40)" fill="#D5EAF9"/>
<path d="M12 56C12 54.8954 12.8954 54 14 54H26C27.1046 54 28 54.8954 28 56V68C28 69.1046 27.1046 70 26 70H14C12.8954 70 12 69.1046 12 68V56Z" fill="#2B94E1"/>
<path fill-rule="evenodd" clip-rule="evenodd" d="M24.855 59.0596L24.0063 58.1533C23.91 58.0506 23.7838 58 23.6575 58C23.53 58 23.4037 58.0506 23.3075 58.1533L18.8412 62.9193L16.6912 60.6242C16.595 60.5229 16.4688 60.471 16.3425 60.471C16.2162 60.471 16.0888 60.5229 15.9925 60.6256L15.1437 61.5305C15.05 61.6305 15 61.7611 15 61.8944C15 62.033 15.045 62.1689 15.1437 62.2742L18.4913 65.8461C18.685 66.0513 18.9975 66.0513 19.1912 65.8461L24.855 59.8059C24.9537 59.6993 25 59.5633 25 59.4221C25 59.2915 24.9487 59.1595 24.855 59.0596Z" fill="white"/>
<rect width="104" height="40" transform="translate(40 40)" fill="#D5EAF9"/>
<path d="M57.4261 60C57.0483 57.9119 55.3778 56.679 53.3295 56.679C50.7244 56.679 48.8352 58.6875 48.8352 61.9091C48.8352 65.1307 50.7244 67.1392 53.3295 67.1392C55.3778 67.1392 57.0483 65.9062 57.4261 63.8182H56.1932C55.8949 65.2301 54.6818 65.9858 53.3295 65.9858C51.4801 65.9858 50.0284 64.554 50.0284 61.9091C50.0284 59.2642 51.4801 57.8324 53.3295 57.8324C54.6818 57.8324 55.8949 58.5881 56.1932 60H57.4261ZM64.0719 63.8778C64.0719 65.3097 62.9782 65.9659 62.1032 65.9659C61.1287 65.9659 60.4327 65.25 60.4327 64.1364V59.3636H59.2594V64.2159C59.2594 66.1648 60.2935 67.0994 61.7253 67.0994C62.8787 67.0994 63.6344 66.483 63.9924 65.7074H64.0719V67H65.2452V59.3636H64.0719V63.8778ZM70.7152 59.3636H69.0845V57.5341H67.9112V59.3636H66.7578V60.358H67.9112V65.1307C67.9112 66.4631 68.9851 67.0994 69.9794 67.0994C70.4169 67.0994 70.6953 67.0199 70.8544 66.9602L70.6158 65.9062C70.5163 65.9261 70.3572 65.9659 70.0987 65.9659C69.5817 65.9659 69.0845 65.8068 69.0845 64.8125V60.358H70.7152V59.3636ZM75.5998 67.1591C77.1509 67.1591 78.2844 66.3835 78.6424 65.2301L77.5089 64.9119C77.2106 65.7074 76.5195 66.1051 75.5998 66.1051C74.2227 66.1051 73.2731 65.2152 73.2184 63.5795H78.7617V63.0824C78.7617 60.2386 77.0714 59.2642 75.4805 59.2642C73.4123 59.2642 72.0401 60.8949 72.0401 63.2415C72.0401 65.5881 73.3924 67.1591 75.5998 67.1591ZM73.2184 62.5653C73.2979 61.3771 74.1381 60.3182 75.4805 60.3182C76.7532 60.3182 77.5685 61.2727 77.5685 62.5653H73.2184ZM87.3675 67.1591C88.8391 67.1591 89.3363 66.2443 89.5948 65.8267H89.734V67H90.8675V56.8182H89.6942V60.5767H89.5948C89.3363 60.179 88.8789 59.2642 87.3874 59.2642C85.4585 59.2642 84.1261 60.7955 84.1261 63.2017C84.1261 65.6278 85.4585 67.1591 87.3675 67.1591ZM87.5266 66.1051C86.055 66.1051 85.2994 64.8125 85.2994 63.1818C85.2994 61.571 86.0352 60.3182 87.5266 60.3182C88.9585 60.3182 89.7141 61.4716 89.7141 63.1818C89.7141 64.9119 88.9386 66.1051 87.5266 66.1051ZM96.2816 67.1591C98.3498 67.1591 99.7418 65.5881 99.7418 63.2216C99.7418 60.8352 98.3498 59.2642 96.2816 59.2642C94.2134 59.2642 92.8214 60.8352 92.8214 63.2216C92.8214 65.5881 94.2134 67.1591 96.2816 67.1591ZM96.2816 66.1051C94.7106 66.1051 93.9947 64.7528 93.9947 63.2216C93.9947 61.6903 94.7106 60.3182 96.2816 60.3182C97.8526 60.3182 98.5685 61.6903 98.5685 63.2216C98.5685 64.7528 97.8526 66.1051 96.2816 66.1051ZM104.615 70.0227C106.445 70.0227 107.916 69.1875 107.916 67.2188V59.3636H106.783V60.5767H106.664C106.405 60.179 105.928 59.2642 104.436 59.2642C102.507 59.2642 101.175 60.7955 101.175 63.142C101.175 65.5284 102.567 66.8807 104.416 66.8807C105.908 66.8807 106.385 66.0057 106.644 65.5881H106.743V67.1392C106.743 68.4119 105.848 68.9886 104.615 68.9886C103.228 68.9886 102.741 68.2578 102.428 67.8352L101.493 68.4915C101.97 69.2919 102.91 70.0227 104.615 70.0227ZM104.575 65.8267C103.104 65.8267 102.348 64.7131 102.348 63.1222C102.348 61.571 103.084 60.3182 104.575 60.3182C106.007 60.3182 106.763 61.4716 106.763 63.1222C106.763 64.8125 105.987 65.8267 104.575 65.8267ZM113.146 70.0227C114.976 70.0227 116.448 69.1875 116.448 67.2188V59.3636H115.314V60.5767H115.195C114.936 60.179 114.459 59.2642 112.968 59.2642C111.039 59.2642 109.706 60.7955 109.706 63.142C109.706 65.5284 111.098 66.8807 112.948 66.8807C114.439 66.8807 114.916 66.0057 115.175 65.5881H115.274V67.1392C115.274 68.4119 114.379 68.9886 113.146 68.9886C111.759 68.9886 111.272 68.2578 110.959 67.8352L110.024 68.4915C110.502 69.2919 111.441 70.0227 113.146 70.0227ZM113.107 65.8267C111.635 65.8267 110.879 64.7131 110.879 63.1222C110.879 61.571 111.615 60.3182 113.107 60.3182C114.539 60.3182 115.294 61.4716 115.294 63.1222C115.294 64.8125 114.519 65.8267 113.107 65.8267ZM121.698 67.1591C123.766 67.1591 125.158 65.5881 125.158 63.2216C125.158 60.8352 123.766 59.2642 121.698 59.2642C119.629 59.2642 118.237 60.8352 118.237 63.2216C118.237 65.5881 119.629 67.1591 121.698 67.1591ZM121.698 66.1051C120.127 66.1051 119.411 64.7528 119.411 63.2216C119.411 61.6903 120.127 60.3182 121.698 60.3182C123.269 60.3182 123.985 61.6903 123.985 63.2216C123.985 64.7528 123.269 66.1051 121.698 66.1051ZM132.358 61.0739C131.99 59.9901 131.165 59.2642 129.653 59.2642C128.043 59.2642 126.849 60.179 126.849 61.4716C126.849 62.5256 127.476 63.2315 128.878 63.5597L130.151 63.858C130.921 64.0369 131.284 64.4048 131.284 64.9318C131.284 65.5881 130.588 66.125 129.494 66.125C128.535 66.125 127.933 65.7124 127.724 64.892L126.611 65.1705C126.884 66.468 127.953 67.1591 129.514 67.1591C131.289 67.1591 132.497 66.1896 132.497 64.8722C132.497 63.8082 131.831 63.1371 130.469 62.804L129.335 62.5256C128.43 62.3018 128.023 61.9986 128.023 61.4119C128.023 60.7557 128.719 60.2784 129.653 60.2784C130.678 60.2784 131.1 60.8452 131.304 61.3722L132.358 61.0739Z" fill="#0071BC"/>
<defs>
<filter id="filter0_ii" x="0" y="0" width="40" height="40" filterUnits="userSpaceOnUse" color-interpolation-filters="sRGB">
<feFlood flood-opacity="0" result="BackgroundImageFix"/>
<feBlend mode="normal" in="SourceGraphic" in2="BackgroundImageFix" result="shape"/>
<feColorMatrix in="SourceAlpha" type="matrix" values="0 0 0 0 0 0 0 0 0 0 0 0 0 0 0 0 0 0 127 0" result="hardAlpha"/>
<feOffset dy="-1"/>
<feComposite in2="hardAlpha" operator="arithmetic" k2="-1" k3="1"/>
<feColorMatrix type="matrix" values="0 0 0 0 0.870588 0 0 0 0 0.890196 0 0 0 0 0.898039 0 0 0 1 0"/>
<feBlend mode="normal" in2="shape" result="effect1_innerShadow"/>
<feColorMatrix in="SourceAlpha" type="matrix" values="0 0 0 0 0 0 0 0 0 0 0 0 0 0 0 0 0 0 127 0" result="hardAlpha"/>
<feOffset dx="-1" dy="-1"/>
<feComposite in2="hardAlpha" operator="arithmetic" k2="-1" k3="1"/>
<feColorMatrix type="matrix" values="0 0 0 0 0.870588 0 0 0 0 0.890196 0 0 0 0 0.898039 0 0 0 1 0"/>
<feBlend mode="normal" in2="effect1_innerShadow" result="effect2_innerShadow"/>
</filter>
<filter id="filter1_i" x="40" y="0" width="104" height="40" filterUnits="userSpaceOnUse" color-interpolation-filters="sRGB">
<feFlood flood-opacity="0" result="BackgroundImageFix"/>
<feBlend mode="normal" in="SourceGraphic" in2="BackgroundImageFix" result="shape"/>
<feColorMatrix in="SourceAlpha" type="matrix" values="0 0 0 0 0 0 0 0 0 0 0 0 0 0 0 0 0 0 127 0" result="hardAlpha"/>
<feOffset dy="-1"/>
<feComposite in2="hardAlpha" operator="arithmetic" k2="-1" k3="1"/>
<feColorMatrix type="matrix" values="0 0 0 0 0.870588 0 0 0 0 0.890196 0 0 0 0 0.898039 0 0 0 1 0"/>
<feBlend mode="normal" in2="shape" result="effect1_innerShadow"/>
</filter>
</defs>
</svg>
