<svg xmlns="http://www.w3.org/2000/svg" width="144" height="80" fill="none"><path fill="#fff" d="M0 0h144v80H0z"/><mask id="a" fill="#fff"><path d="M0 0h40v40H0V0Z"/></mask><path fill="#F4F5F9" d="M0 0h40v40H0V0Z"/><rect width="16" height="16" x="12" y="12" fill="#008FF8" rx="4"/><path stroke="#fff" stroke-linecap="round" stroke-linejoin="round" stroke-width="2" d="M23.25 18 19 22.25 16.75 20"/><path fill="#E0E1E9" d="M40 39H0v2h40v-2Z" mask="url(#a)"/><mask id="b" fill="#fff"><path d="M0 40h40v40H0V40Z"/></mask><path fill="#E9F7FF" d="M0 40h40v40H0V40Z"/><rect width="16" height="16" x="12" y="52" fill="#008FF8" rx="4"/><path stroke="#fff" stroke-linecap="round" stroke-linejoin="round" stroke-width="2" d="M23.25 58 19 62.25 16.75 60"/><path fill="#E0E1E9" d="M40 79H0v2h40v-2Z" mask="url(#b)"/><mask id="c" fill="#fff"><path d="M40 40h104v40H40V40Z"/></mask><path fill="#E9F7FF" d="M40 40h104v40H40V40Z"/><path fill="#006DCA" d="M61.575 60.13h-1.55a2.37 2.37 0 0 0-.93-1.517 2.574 2.574 0 0 0-.791-.398 3.086 3.086 0 0 0-.92-.134c-.586 0-1.112.147-1.576.442-.46.295-.825.728-1.093 1.298-.266.57-.398 1.266-.398 2.088 0 .829.132 1.528.398 2.098.268.57.634 1.001 1.098 1.293.464.291.986.437 1.566.437.322 0 .627-.043.915-.129.292-.09.555-.22.79-.393a2.379 2.379 0 0 0 .94-1.496l1.551.005c-.083.5-.243.96-.482 1.382a3.812 3.812 0 0 1-.91 1.084 4.115 4.115 0 0 1-1.263.7 4.67 4.67 0 0 1-1.55.25c-.882 0-1.668-.21-2.357-.627-.69-.421-1.233-1.023-1.63-1.805-.395-.782-.593-1.715-.593-2.799 0-1.087.2-2.02.597-2.799.398-.782.941-1.382 1.63-1.8.69-.42 1.474-.631 2.352-.631.54 0 1.044.078 1.512.234.47.152.893.378 1.267.676.375.295.685.656.93 1.084.245.424.411.91.497 1.456Zm6.557 3.703v-4.47h1.491V67h-1.462v-1.322h-.08a2.383 2.383 0 0 1-.844 1.019c-.385.268-.864.402-1.437.402-.49 0-.925-.107-1.303-.323a2.27 2.27 0 0 1-.885-.97c-.212-.427-.318-.955-.318-1.585v-4.857h1.487v4.678c0 .52.144.935.432 1.243.289.308.663.462 1.124.462.278 0 .555-.07.83-.209.278-.139.509-.35.691-.631.186-.282.277-.64.274-1.074Zm7.053-4.47v1.194h-4.171v-1.193h4.171Zm-3.053-1.829h1.487v7.224c0 .288.043.505.13.651.085.143.196.24.332.293.14.05.29.075.453.075.12 0 .223-.008.313-.025.09-.016.159-.03.209-.04l.268 1.228a2.499 2.499 0 0 1-.368.1c-.159.036-.358.056-.596.06a2.615 2.615 0 0 1-1.094-.21 1.876 1.876 0 0 1-.82-.675c-.21-.305-.314-.688-.314-1.149v-7.532Zm7.906 9.62c-.752 0-1.4-.16-1.943-.482a3.272 3.272 0 0 1-1.253-1.367c-.292-.59-.438-1.281-.438-2.074 0-.782.146-1.471.438-2.068a3.398 3.398 0 0 1 1.233-1.397c.53-.334 1.15-.502 1.86-.502.43 0 .848.072 1.252.214.404.142.767.366 1.089.671.321.305.575.701.76 1.188.186.484.279 1.073.279 1.765v.527h-6.07v-1.113h4.613c0-.392-.08-.738-.239-1.04a1.803 1.803 0 0 0-.67-.72 1.875 1.875 0 0 0-1.005-.264 1.94 1.94 0 0 0-1.094.308 2.07 2.07 0 0 0-.716.796 2.296 2.296 0 0 0-.248 1.059v.87c0 .51.09.944.268 1.302.183.358.436.632.761.82.325.186.704.28 1.138.28.282 0 .539-.04.771-.12a1.599 1.599 0 0 0 .99-.97l1.406.254a2.547 2.547 0 0 1-.606 1.089 2.94 2.94 0 0 1-1.089.72c-.434.17-.93.254-1.487.254Zm11.49-.005a2.96 2.96 0 0 1-1.65-.472c-.481-.318-.86-.77-1.134-1.357-.272-.59-.408-1.298-.408-2.123 0-.826.138-1.532.413-2.118.278-.587.66-1.036 1.143-1.348a2.974 2.974 0 0 1 1.646-.467c.474 0 .855.08 1.143.239.292.156.517.338.676.547.163.209.289.393.378.552h.09v-3.784h1.486V67H93.86v-1.188h-.125c-.09.162-.219.348-.388.557a2.155 2.155 0 0 1-.686.546c-.291.156-.67.234-1.133.234Zm.328-1.268c.428 0 .789-.112 1.084-.338.298-.228.523-.545.676-.95.156-.404.234-.874.234-1.411 0-.53-.077-.995-.23-1.392-.151-.398-.375-.708-.67-.93-.295-.222-.66-.333-1.094-.333-.447 0-.82.116-1.119.348a2.126 2.126 0 0 0-.676.95c-.149.4-.224.853-.224 1.357 0 .51.077.97.23 1.377.152.408.377.73.675.97.302.235.673.352 1.114.352Zm8.794 1.273c-.716 0-1.341-.164-1.875-.492a3.319 3.319 0 0 1-1.243-1.377c-.295-.59-.442-1.28-.442-2.068 0-.792.147-1.485.442-2.078a3.312 3.312 0 0 1 1.243-1.383c.534-.328 1.159-.492 1.875-.492.715 0 1.34.164 1.874.492.533.328.948.79 1.243 1.383.295.593.442 1.285.442 2.078 0 .788-.147 1.478-.442 2.068a3.323 3.323 0 0 1-1.243 1.377c-.534.328-1.159.492-1.874.492Zm.004-1.248c.464 0 .849-.122 1.154-.368.305-.245.53-.571.676-.98.149-.407.224-.856.224-1.346 0-.488-.075-.935-.224-1.343a2.187 2.187 0 0 0-.676-.989c-.305-.249-.69-.373-1.154-.373-.467 0-.855.124-1.163.373a2.222 2.222 0 0 0-.681.99 3.96 3.96 0 0 0-.219 1.342c0 .49.073.94.219 1.347.15.408.376.734.681.98.308.245.696.367 1.163.367Zm8.416 4.117c-.606 0-1.128-.08-1.566-.239-.434-.159-.789-.37-1.064-.631a2.652 2.652 0 0 1-.616-.86l1.277-.527c.09.145.209.3.358.462.153.166.358.307.617.423.262.116.598.174 1.009.174.563 0 1.029-.138 1.397-.413.368-.272.552-.706.552-1.303v-1.501h-.095a3.351 3.351 0 0 1-.387.542 2.107 2.107 0 0 1-.686.517c-.292.146-.672.219-1.139.219-.603 0-1.147-.141-1.631-.423-.48-.285-.861-.704-1.143-1.258-.278-.557-.418-1.241-.418-2.053 0-.812.138-1.508.413-2.088.278-.58.66-1.024 1.143-1.333a2.976 2.976 0 0 1 1.646-.467c.474 0 .857.08 1.148.239.292.156.519.338.682.547.165.209.293.393.382.552h.11v-1.238h1.456v7.805c0 .656-.152 1.195-.457 1.616-.305.42-.718.732-1.238.934-.517.203-1.1.304-1.75.304Zm-.015-4.37c.428 0 .789-.1 1.084-.299.298-.202.524-.49.676-.865.156-.377.234-.83.234-1.357 0-.514-.076-.966-.229-1.357a2.013 2.013 0 0 0-.671-.915c-.295-.222-.66-.333-1.094-.333-.447 0-.82.116-1.118.348-.299.229-.524.54-.677.935a3.718 3.718 0 0 0-.223 1.322c0 .5.076.94.228 1.318.153.377.378.672.677.885.301.212.672.318 1.113.318Zm8.656 4.37c-.607 0-1.129-.08-1.566-.239-.434-.159-.789-.37-1.064-.631a2.655 2.655 0 0 1-.617-.86l1.278-.527c.089.145.209.3.358.462.152.166.358.307.616.423.262.116.599.174 1.01.174.563 0 1.029-.138 1.397-.413.368-.272.552-.706.552-1.303v-1.501h-.095a3.364 3.364 0 0 1-.388.542 2.086 2.086 0 0 1-.686.517c-.291.146-.671.219-1.138.219-.603 0-1.147-.141-1.631-.423-.481-.285-.862-.704-1.143-1.258-.279-.557-.418-1.241-.418-2.053 0-.812.138-1.508.413-2.088.278-.58.659-1.024 1.143-1.333a2.976 2.976 0 0 1 1.646-.467c.474 0 .856.08 1.148.239.292.156.519.338.681.547.166.209.294.393.383.552h.109v-1.238h1.457v7.805c0 .656-.152 1.195-.457 1.616-.305.42-.718.732-1.238.934-.517.203-1.101.304-1.75.304Zm-.015-4.37c.427 0 .789-.1 1.084-.299.298-.202.523-.49.676-.865.156-.377.233-.83.233-1.357 0-.514-.076-.966-.228-1.357-.153-.391-.376-.696-.671-.915-.295-.222-.66-.333-1.094-.333-.448 0-.82.116-1.119.348-.298.229-.523.54-.676.935a3.718 3.718 0 0 0-.224 1.322c0 .5.077.94.229 1.318.153.377.378.672.676.885.302.212.673.318 1.114.318Zm8.67 1.501c-.716 0-1.34-.164-1.874-.492a3.316 3.316 0 0 1-1.243-1.377c-.295-.59-.442-1.28-.442-2.068 0-.792.147-1.485.442-2.078a3.31 3.31 0 0 1 1.243-1.383c.534-.328 1.158-.492 1.874-.492.716 0 1.341.164 1.875.492.533.328.948.79 1.242 1.383.295.593.443 1.285.443 2.078 0 .788-.148 1.478-.443 2.068a3.314 3.314 0 0 1-1.242 1.377c-.534.328-1.159.492-1.875.492Zm.005-1.248c.464 0 .849-.122 1.154-.368.305-.245.53-.571.676-.98.149-.407.224-.856.224-1.346 0-.488-.075-.935-.224-1.343a2.187 2.187 0 0 0-.676-.989c-.305-.249-.69-.373-1.154-.373-.467 0-.855.124-1.163.373a2.22 2.22 0 0 0-.681.99 3.956 3.956 0 0 0-.219 1.342c0 .49.073.94.219 1.347.149.408.376.734.681.98.308.245.696.367 1.163.367Zm10.937-4.678-1.348.239a1.601 1.601 0 0 0-.268-.493 1.339 1.339 0 0 0-.487-.382c-.206-.1-.463-.15-.771-.15-.421 0-.772.095-1.054.284-.282.185-.423.426-.423.72 0 .256.095.461.284.617.189.156.494.284.915.383l1.213.278c.702.163 1.226.413 1.571.751.344.338.517.777.517 1.318 0 .457-.133.865-.398 1.223-.262.354-.628.633-1.099.835-.467.202-1.009.303-1.625.303-.856 0-1.553-.182-2.094-.547-.54-.368-.871-.89-.994-1.566l1.437-.219c.089.375.273.658.552.85.278.19.641.284 1.089.284.487 0 .876-.101 1.168-.303.292-.206.437-.456.437-.751a.78.78 0 0 0-.268-.602c-.176-.162-.446-.285-.81-.367l-1.293-.284c-.713-.162-1.24-.42-1.581-.775-.338-.355-.507-.804-.507-1.348 0-.45.126-.845.378-1.183.252-.338.6-.602 1.044-.79.444-.193.953-.289 1.526-.289.825 0 1.475.18 1.949.537.474.355.787.83.94 1.427Z"/><path fill="#E0E1E9" d="M144 79H40v2h104v-2Z" mask="url(#c)"/><mask id="d" fill="#fff"><path d="M40 0h104v40H40V0Z"/></mask><path fill="#F4F5F9" d="M40 0h104v40H40V0Z"/><path fill="#191B23" d="M52.528 16.406v-1.133h6.755v1.133H56.56V24h-1.313v-7.594h-2.719ZM60.775 24v-8.727h1.317v3.792h4.35v-3.792h1.322V24h-1.321v-3.805h-4.351V24h-1.317Z"/><path fill="#E0E1E9" d="M144 40v1h1v-1h-1Zm-1-40v40h2V0h-2Zm1 39H40v2h104v-2Z" mask="url(#d)"/></svg>