<svg width="144" height="80" viewBox="0 0 144 80" fill="none" xmlns="http://www.w3.org/2000/svg">
  <path fill="#fff" d="M0 0h144v80H0z"/>
  <g filter="url(#a)">
    <path fill="#F4F5F9" d="M0 0h40v40H0z"/>
    <path d="M12 16a4 4 0 0 1 4-4h8a4 4 0 0 1 4 4v8a4 4 0 0 1-4 4h-8a4 4 0 0 1-4-4v-8Z" fill="#008FF8"/>
    <path d="M23.25 18 19 22.25 16.75 20" stroke="#fff" stroke-width="2" stroke-linecap="round" stroke-linejoin="round"/>
  </g>
  <g filter="url(#b)">
    <path fill="#E9F7FF" d="M0 40h40v40H0z"/>
    <path d="M12 56a4 4 0 0 1 4-4h8a4 4 0 0 1 4 4v8a4 4 0 0 1-4 4h-8a4 4 0 0 1-4-4v-8Z" fill="#008FF8"/>
    <path d="M23.25 58 19 62.25 16.75 60" stroke="#fff" stroke-width="2" stroke-linecap="round" stroke-linejoin="round"/>
  </g>
  <g filter="url(#c)">
    <path fill="#E9F7FF" d="M40 40h104v40H40z"/>
    <path d="M61.58 60.13h-1.56a2.37 2.37 0 0 0-.93-1.52c-.23-.17-.5-.3-.79-.4a3.09 3.09 0 0 0-2.5.31c-.45.3-.82.73-1.09 1.3-.26.57-.4 1.27-.4 2.09 0 .83.14 1.53.4 2.1.27.57.64 1 1.1 1.29a3.18 3.18 0 0 0 2.48.3 2.4 2.4 0 0 0 1.73-1.89l1.56.01a4.15 4.15 0 0 1-1.4 2.47c-.36.3-.79.53-1.26.7-.47.17-1 .25-1.55.25-.88 0-1.67-.21-2.36-.63a4.38 4.38 0 0 1-1.63-1.8c-.4-.78-.59-1.72-.59-2.8 0-1.09.2-2.02.6-2.8a4.35 4.35 0 0 1 3.98-2.43c.54 0 1.04.08 1.51.23a3.99 3.99 0 0 1 2.2 1.76c.24.43.4.91.5 1.46Zm6.55 3.7v-4.47h1.5V67h-1.47v-1.32h-.08c-.17.4-.46.74-.84 1.02-.39.27-.87.4-1.44.4a2.27 2.27 0 0 1-2.19-1.3 3.55 3.55 0 0 1-.32-1.58v-4.86h1.5v4.68c0 .52.13.94.42 1.24.3.31.67.47 1.13.47a1.82 1.82 0 0 0 1.52-.84c.18-.28.27-.64.27-1.08Zm7.06-4.47v1.2H71v-1.2h4.17Zm-3.06-1.83h1.49v7.23c0 .29.04.5.13.65.08.14.2.24.33.3a1.73 1.73 0 0 0 .77.05l.2-.05.27 1.23a2.91 2.91 0 0 1-2.06-.05 1.88 1.88 0 0 1-.81-.68c-.21-.3-.32-.68-.32-1.14v-7.54Zm7.9 9.62c-.74 0-1.4-.16-1.94-.48a3.27 3.27 0 0 1-1.25-1.37 4.62 4.62 0 0 1-.44-2.07c0-.78.15-1.47.44-2.07.3-.6.7-1.06 1.23-1.4a3.74 3.74 0 0 1 3.11-.29 3.03 3.03 0 0 1 1.86 1.87c.18.48.27 1.07.27 1.76v.53h-6.07v-1.11h4.62c0-.4-.08-.74-.24-1.04a1.8 1.8 0 0 0-1.68-.99c-.41 0-.78.1-1.09.31-.3.2-.55.47-.72.8a2.3 2.3 0 0 0-.24 1.05v.87c0 .52.09.95.26 1.3.19.37.44.64.77.83.32.18.7.28 1.13.28.29 0 .54-.04.77-.12a1.6 1.6 0 0 0 .99-.97l1.41.25c-.11.42-.31.78-.6 1.09-.3.3-.66.55-1.1.72-.43.17-.92.25-1.48.25Zm11.5 0a2.96 2.96 0 0 1-2.79-1.83c-.27-.59-.4-1.3-.4-2.12 0-.83.13-1.53.4-2.12a2.97 2.97 0 0 1 2.79-1.81c.48 0 .86.07 1.15.23.3.16.52.34.68.55.16.2.29.4.38.55h.08v-3.78h1.5V67h-1.46v-1.19h-.12c-.1.16-.22.35-.4.56a2.15 2.15 0 0 1-1.81.78Zm.33-1.27c.42 0 .78-.11 1.08-.34.3-.23.52-.54.68-.95.15-.4.23-.87.23-1.4 0-.54-.08-1-.23-1.4-.15-.4-.38-.7-.67-.93-.3-.22-.66-.33-1.1-.33-.44 0-.81.11-1.11.34-.3.24-.53.55-.68.95-.15.4-.22.86-.22 1.36 0 .51.07.97.23 1.38.15.4.37.73.67.97.3.23.68.35 1.12.35Zm8.79 1.27a3.32 3.32 0 0 1-3.12-1.87 4.57 4.57 0 0 1-.44-2.06c0-.8.15-1.49.44-2.08a3.31 3.31 0 0 1 3.12-1.88 3.32 3.32 0 0 1 3.12 1.87c.3.6.44 1.3.44 2.09 0 .79-.15 1.47-.44 2.06a3.32 3.32 0 0 1-3.12 1.87Zm0-1.24c.47 0 .85-.13 1.16-.37.3-.25.53-.57.67-.98.15-.4.23-.86.23-1.35 0-.49-.08-.93-.23-1.34a2.19 2.19 0 0 0-.67-.99c-.3-.25-.7-.37-1.16-.37-.46 0-.85.12-1.16.37-.3.25-.53.58-.68.99-.15.4-.22.85-.22 1.34 0 .5.07.94.22 1.35.15.4.38.73.68.98.3.24.7.37 1.16.37Zm8.42 4.11a4.6 4.6 0 0 1-1.57-.24 3.04 3.04 0 0 1-1.06-.63 2.65 2.65 0 0 1-.62-.86l1.28-.52c.1.14.21.3.36.46.15.16.36.3.62.42s.6.17 1 .17c.57 0 1.03-.13 1.4-.4.37-.28.55-.71.55-1.31v-1.5h-.1c-.08.16-.2.34-.38.54-.16.2-.4.37-.68.52-.3.14-.68.22-1.14.22a3 3 0 0 1-2.77-1.68 4.57 4.57 0 0 1-.42-2.06c0-.81.13-1.5.4-2.09.29-.58.67-1.02 1.15-1.33a2.98 2.98 0 0 1 1.65-.47c.47 0 .85.08 1.15.24.29.16.51.34.68.55.16.2.29.4.38.55h.1v-1.24h1.47v7.8c0 .67-.16 1.2-.46 1.62-.3.43-.72.74-1.24.94-.52.2-1.1.3-1.75.3Zm-.01-4.37c.42 0 .78-.1 1.08-.3.3-.2.52-.49.67-.86.16-.38.24-.83.24-1.36 0-.51-.08-.96-.23-1.36-.15-.39-.38-.7-.67-.91-.3-.22-.66-.33-1.1-.33-.44 0-.81.11-1.11.34-.3.23-.53.55-.68.94-.15.4-.22.83-.22 1.32 0 .5.07.94.22 1.32.16.38.38.67.68.88.3.22.67.32 1.12.32Zm8.65 4.37c-.6 0-1.13-.08-1.56-.24a3.04 3.04 0 0 1-1.07-.63 2.66 2.66 0 0 1-.62-.86l1.28-.52c.1.14.21.3.36.46.15.16.36.3.62.42s.6.17 1 .17c.57 0 1.03-.13 1.4-.4.37-.28.55-.71.55-1.31v-1.5h-.09c-.09.16-.22.34-.39.54-.16.2-.4.37-.68.52-.3.14-.68.22-1.14.22a2.99 2.99 0 0 1-2.77-1.68 4.55 4.55 0 0 1-.42-2.06c0-.81.13-1.5.4-2.09.29-.58.67-1.02 1.15-1.33a2.98 2.98 0 0 1 1.65-.47c.47 0 .85.08 1.15.24.29.16.52.34.68.55.16.2.3.4.38.55h.1v-1.24h1.47v7.8c0 .67-.16 1.2-.46 1.62-.3.43-.72.74-1.24.94-.52.2-1.1.3-1.75.3Zm-.01-4.37c.42 0 .78-.1 1.08-.3.3-.2.52-.49.68-.86.15-.38.23-.83.23-1.36 0-.51-.08-.96-.23-1.36-.15-.39-.38-.7-.67-.91-.3-.22-.66-.33-1.1-.33-.44 0-.81.11-1.11.34-.3.23-.53.55-.68.94-.15.4-.22.83-.22 1.32 0 .5.07.94.23 1.32.15.38.37.67.67.88.3.22.67.32 1.12.32Zm8.67 1.5a3.32 3.32 0 0 1-3.12-1.87 4.57 4.57 0 0 1-.44-2.06c0-.8.14-1.49.44-2.08a3.31 3.31 0 0 1 3.12-1.88 3.3 3.3 0 0 1 3.12 1.87c.29.6.44 1.3.44 2.09 0 .79-.15 1.47-.45 2.06a3.31 3.31 0 0 1-3.11 1.87Zm0-1.24c.46 0 .85-.13 1.16-.37.3-.25.53-.57.67-.98.15-.4.23-.86.23-1.35 0-.49-.08-.93-.23-1.34a2.19 2.19 0 0 0-.67-.99c-.31-.25-.7-.37-1.16-.37-.47 0-.85.12-1.16.37-.3.25-.53.58-.68.99-.15.4-.22.85-.22 1.34 0 .5.07.94.22 1.35.15.4.37.73.68.98.3.24.7.37 1.16.37Zm10.94-4.68-1.35.24a1.6 1.6 0 0 0-.27-.5 1.34 1.34 0 0 0-.48-.38c-.21-.1-.47-.15-.78-.15-.42 0-.77.1-1.05.29-.28.18-.42.42-.42.72 0 .25.1.46.28.61.19.16.5.29.92.39l1.2.27c.71.17 1.23.42 1.58.76.34.33.52.77.52 1.31a2 2 0 0 1-.4 1.23 2.6 2.6 0 0 1-1.1.83c-.47.2-1 .3-1.63.3-.85 0-1.55-.18-2.09-.54a2.31 2.31 0 0 1-1-1.57l1.44-.22c.1.38.28.66.56.85.27.2.64.29 1.08.29.5 0 .88-.1 1.17-.3.3-.21.44-.46.44-.76a.78.78 0 0 0-.27-.6 1.76 1.76 0 0 0-.8-.37l-1.3-.28a3.1 3.1 0 0 1-1.58-.78c-.34-.35-.5-.8-.5-1.34 0-.45.12-.85.37-1.19.25-.34.6-.6 1.04-.79.45-.19.96-.29 1.53-.29.82 0 1.47.18 1.95.54.47.36.78.83.94 1.43Z" fill="#006DCA"/>
  </g>
  <path d="M40 0h104v40H40V0Z" fill="#F4F5F9"/>
  <path d="M52.53 16.4v-1.13h6.75v1.14h-2.72V24h-1.31v-7.6h-2.72Zm8.25 7.6v-8.73h1.31v3.8h4.35v-3.8h1.32V24h-1.32v-3.8H62.1V24h-1.31Z" fill="#191B23"/>
  <path d="M86 15a1 1 0 1 1 0 2H76a1 1 0 1 1 0-2h10ZM83 20a1 1 0 0 0-1-1h-6a1 1 0 1 0 0 2h6a1 1 0 0 0 1-1ZM79 24a1 1 0 0 0-1-1h-2a1 1 0 1 0 0 2h2a1 1 0 0 0 1-1Z" fill="#A9ABB6"/>
  <path d="M144 39H40v2h104v-2Z" fill="#E0E1E9"/>
  <defs>
    <filter id="a" x="0" y="0" width="40" height="40" filterUnits="userSpaceOnUse" color-interpolation-filters="sRGB">
      <feFlood flood-opacity="0" result="BackgroundImageFix"/>
      <feBlend in="SourceGraphic" in2="BackgroundImageFix" result="shape"/>
      <feColorMatrix in="SourceAlpha" values="0 0 0 0 0 0 0 0 0 0 0 0 0 0 0 0 0 0 127 0" result="hardAlpha"/>
      <feOffset dy="-1"/>
      <feComposite in2="hardAlpha" operator="arithmetic" k2="-1" k3="1"/>
      <feColorMatrix values="0 0 0 0 0.878431 0 0 0 0 0.882353 0 0 0 0 0.913725 0 0 0 1 0"/>
      <feBlend in2="shape" result="effect1_innerShadow_760_66191"/>
      <feColorMatrix in="SourceAlpha" values="0 0 0 0 0 0 0 0 0 0 0 0 0 0 0 0 0 0 127 0" result="hardAlpha"/>
      <feOffset dx="-1" dy="-1"/>
      <feComposite in2="hardAlpha" operator="arithmetic" k2="-1" k3="1"/>
      <feColorMatrix values="0 0 0 0 0.878431 0 0 0 0 0.882353 0 0 0 0 0.913725 0 0 0 1 0"/>
      <feBlend in2="effect1_innerShadow_760_66191" result="effect2_innerShadow_760_66191"/>
    </filter>
    <filter id="b" x="0" y="40" width="40" height="40" filterUnits="userSpaceOnUse" color-interpolation-filters="sRGB">
      <feFlood flood-opacity="0" result="BackgroundImageFix"/>
      <feBlend in="SourceGraphic" in2="BackgroundImageFix" result="shape"/>
      <feColorMatrix in="SourceAlpha" values="0 0 0 0 0 0 0 0 0 0 0 0 0 0 0 0 0 0 127 0" result="hardAlpha"/>
      <feOffset dy="-1"/>
      <feComposite in2="hardAlpha" operator="arithmetic" k2="-1" k3="1"/>
      <feColorMatrix values="0 0 0 0 0.878431 0 0 0 0 0.882353 0 0 0 0 0.913725 0 0 0 1 0"/>
      <feBlend in2="shape" result="effect1_innerShadow_760_66191"/>
    </filter>
    <filter id="c" x="40" y="40" width="104" height="40" filterUnits="userSpaceOnUse" color-interpolation-filters="sRGB">
      <feFlood flood-opacity="0" result="BackgroundImageFix"/>
      <feBlend in="SourceGraphic" in2="BackgroundImageFix" result="shape"/>
      <feColorMatrix in="SourceAlpha" values="0 0 0 0 0 0 0 0 0 0 0 0 0 0 0 0 0 0 127 0" result="hardAlpha"/>
      <feOffset dy="-1"/>
      <feComposite in2="hardAlpha" operator="arithmetic" k2="-1" k3="1"/>
      <feColorMatrix values="0 0 0 0 0.878431 0 0 0 0 0.882353 0 0 0 0 0.913725 0 0 0 1 0"/>
      <feBlend in2="shape" result="effect1_innerShadow_760_66191"/>
    </filter>
  </defs>
</svg>
