<svg width="144" height="80" viewBox="0 0 144 80" fill="none" xmlns="http://www.w3.org/2000/svg">
  <path d="M76 0h68v80H76V0Z" fill="#F4F5F9"/>
  <path d="M115.53 34.4v-1.13h6.75v1.14h-2.72V42h-1.31v-7.6h-2.72Zm8.25 7.6v-8.73h1.31v3.8h4.35v-3.8h1.32V42h-1.32v-3.8h-4.35V42h-1.31Z" fill="#191B23"/>
  <path d="M144 79H76v2h68v-2Z" fill="#E0E1E9"/>
  <path d="M0 0h76v80H0V0Z" fill="#F4F5F9"/>
  <path d="M12.53 34.4v-1.13h6.75v1.14h-2.72V42h-1.31v-7.6h-2.72Zm8.25 7.6v-8.73h1.31v3.8h4.35v-3.8h1.32V42h-1.32v-3.8H22.1V42h-1.31Z" fill="#191B23"/>
  <path d="M46 33a1 1 0 1 1 0 2H36a1 1 0 1 1 0-2h10ZM43 38a1 1 0 0 0-1-1h-6a1 1 0 1 0 0 2h6a1 1 0 0 0 1-1ZM39 42a1 1 0 0 0-1-1h-2a1 1 0 1 0 0 2h2a1 1 0 0 0 1-1Z" fill="#A9ABB6"/>
  <path d="M76 80v1h1v-1h-1ZM75 0v80h2V0h-2Zm1 79H0v2h76v-2Z" fill="#E0E1E9"/>
  <path d="M75 0v80h2V0h-2Z" fill="#6C6E79"/>
  <g filter="url(#a)">
    <path d="M69.41 50 73 46.41V49h6v-2.58L82.58 50 79 53.59V51h-6v2.59L69.41 50ZM68 50l6 6v-4h4v4l6-6-6-6v4h-4v-4l-6 6Z" fill="#fff"/>
    <path d="M76.5 51h2.52v2.59L82.58 50l-3.56-3.58v2.6H73v-2.6L69.41 50 73 53.59V51h3.5Z" fill="#191B23"/>
  </g>
  <defs>
    <filter id="a" x="66.2" y="43.2" width="19.6" height="15.6" filterUnits="userSpaceOnUse" color-interpolation-filters="sRGB">
      <feFlood flood-opacity="0" result="BackgroundImageFix"/>
      <feColorMatrix in="SourceAlpha" values="0 0 0 0 0 0 0 0 0 0 0 0 0 0 0 0 0 0 127 0" result="hardAlpha"/>
      <feOffset dy="1"/>
      <feGaussianBlur stdDeviation=".9"/>
      <feColorMatrix values="0 0 0 0 0 0 0 0 0 0 0 0 0 0 0 0 0 0 0.65 0"/>
      <feBlend in2="BackgroundImageFix" result="effect1_dropShadow_756_52421"/>
      <feBlend in="SourceGraphic" in2="effect1_dropShadow_756_52421" result="shape"/>
    </filter>
  </defs>
</svg>
