<svg width="144" height="80" viewBox="0 0 144 80" fill="none" xmlns="http://www.w3.org/2000/svg">
<g clip-path="url(#clip0_430_19405)">
<g clip-path="url(#clip1_430_19405)">
<mask id="path-3-inside-1_430_19405" fill="white">
<path d="M76 0H144V80H76V0Z"/>
</mask>
<path d="M76 0H144V80H76V0Z" fill="#F4F5F9"/>
<path d="M144 79H76V81H144V79Z" fill="#E0E1E9" mask="url(#path-3-inside-1_430_19405)"/>
<path d="M102.028 34.4062V33.2727H108.783V34.4062H106.06V42H104.747V34.4062H102.028ZM110.275 42V33.2727H111.592V37.0653H115.943V33.2727H117.264V42H115.943V38.1946H111.592V42H110.275Z" fill="#191B23"/>
</g>
<g clip-path="url(#clip2_430_19405)">
<mask id="path-6-inside-2_430_19405" fill="white">
<path d="M0 0H76V80H0V0Z"/>
</mask>
<mask id="path-8-inside-3_430_19405" fill="white">
<path d="M0 0H76V80H0V0Z"/>
</mask>
<path d="M0 0H76V80H0V0Z" fill="#F4F5F9"/>
<path d="M76 80V81H77V80H76ZM75 0V80H77V0H75ZM76 79H0V81H76V79Z" fill="#E0E1E9" mask="url(#path-8-inside-3_430_19405)"/>
<path d="M30.0284 34.4062V33.2727H36.7827V34.4062H34.0597V42H32.7472V34.4062H30.0284ZM38.2752 42V33.2727H39.592V37.0653H43.9428V33.2727H45.2638V42H43.9428V38.1946H39.592V42H38.2752Z" fill="#191B23"/>
</g>
<path d="M75 0V80H77V0H75Z" fill="#6C6E79" mask="url(#path-6-inside-2_430_19405)"/>
<g filter="url(#filter0_d_430_19405)">
<path d="M74 42V48.01H72.98V44.54L67 50.01L72.98 55.47V51.99H74V58H74.02H77.98V51.99H79.04V55.46L85 49.99L79.04 44.53V48H77.98V42H74Z" fill="white"/>
<path d="M83.3402 49.99L80.0202 46.77V49.02H77.0002V43.06H76.9802V43.04H75.0402V49.04H71.9802V46.76L68.6602 50.01L71.9802 53.23V50.98H75.0402V56.98H75.0602H76.9802H77.0002V50.98H80.0202V53.24L83.3402 49.99Z" fill="#191B23"/>
</g>
</g>
<rect x="0.5" y="0.5" width="143" height="79" rx="5.5" stroke="#E0E1E9"/>
<defs>
<filter id="filter0_d_430_19405" x="65.2" y="41.2" width="21.6" height="19.6" filterUnits="userSpaceOnUse" color-interpolation-filters="sRGB">
<feFlood flood-opacity="0" result="BackgroundImageFix"/>
<feColorMatrix in="SourceAlpha" type="matrix" values="0 0 0 0 0 0 0 0 0 0 0 0 0 0 0 0 0 0 127 0" result="hardAlpha"/>
<feOffset dy="1"/>
<feGaussianBlur stdDeviation="0.9"/>
<feColorMatrix type="matrix" values="0 0 0 0 0 0 0 0 0 0 0 0 0 0 0 0 0 0 0.65 0"/>
<feBlend mode="normal" in2="BackgroundImageFix" result="effect1_dropShadow_430_19405"/>
<feBlend mode="normal" in="SourceGraphic" in2="effect1_dropShadow_430_19405" result="shape"/>
</filter>
<clipPath id="clip0_430_19405">
<rect width="144" height="80" rx="6" fill="white"/>
</clipPath>
<clipPath id="clip1_430_19405">
<rect width="68" height="80" fill="white" transform="translate(76)"/>
</clipPath>
<clipPath id="clip2_430_19405">
<path d="M0 0H76V80H0V0Z" fill="white"/>
</clipPath>
</defs>
</svg>
