<svg xmlns="http://www.w3.org/2000/svg" width="144" height="80" fill="none"><g clip-path="url(#a)"><mask id="b" fill="#fff"><path d="M76 0h68v80H76V0Z"/></mask><path fill="#F4F5F9" d="M76 0h68v80H76V0Z"/><path fill="#191B23" d="M115.528 34.406v-1.133h6.755v1.133h-2.723V42h-1.313v-7.594h-2.719ZM123.775 42v-8.727h1.317v3.792h4.351v-3.792h1.321V42h-1.321v-3.805h-4.351V42h-1.317Z"/><path fill="#E0E1E9" d="M144 79H76v2h68v-2Z" mask="url(#b)"/></g><g clip-path="url(#c)"><mask id="d" fill="#fff"><path d="M0 0h76v80H0V0Z"/></mask><path fill="#F4F5F9" d="M0 0h76v80H0V0Z"/><path fill="#191B23" d="M12.528 34.406v-1.133h6.755v1.133H16.56V42h-1.313v-7.594h-2.719ZM20.775 42v-8.727h1.317v3.792h4.35v-3.792h1.322V42h-1.321v-3.805h-4.351V42h-1.317Z"/><path fill="#E0E1E9" d="M76 80v1h1v-1h-1ZM75 0v80h2V0h-2Zm1 79H0v2h76v-2Z" mask="url(#d)"/></g><path fill="#6C6E79" d="M75 0v80h2V0h-2Z" mask="url(#path-4-inside-2_756_52421)"/><g filter="url(#e)"><path fill="#fff" d="M74 42v6.01h-1.02v-3.47L67 50.01l5.98 5.46v-3.48H74V58h3.98v-6.01h1.06v3.47L85 49.99l-5.96-5.46V48h-1.06v-6H74Z"/><path fill="#191B23" d="m83.34 49.99-3.32-3.22v2.25H77v-5.96h-.02v-.02h-1.94v6h-3.06v-2.28l-3.32 3.25 3.32 3.22v-2.25h3.06v6H77v-6h3.02v2.26l3.32-3.25Z"/></g><defs><clipPath id="a"><path fill="#fff" d="M76 0h68v80H76z"/></clipPath><clipPath id="c"><path fill="#fff" d="M0 0h76v80H0V0Z"/></clipPath><filter id="e" width="21.6" height="19.6" x="65.2" y="41.2" color-interpolation-filters="sRGB" filterUnits="userSpaceOnUse"><feFlood flood-opacity="0" result="BackgroundImageFix"/><feColorMatrix in="SourceAlpha" result="hardAlpha" values="0 0 0 0 0 0 0 0 0 0 0 0 0 0 0 0 0 0 127 0"/><feOffset dy="1"/><feGaussianBlur stdDeviation=".9"/><feColorMatrix values="0 0 0 0 0 0 0 0 0 0 0 0 0 0 0 0 0 0 0.65 0"/><feBlend in2="BackgroundImageFix" result="effect1_dropShadow_756_52421"/><feBlend in="SourceGraphic" in2="effect1_dropShadow_756_52421" result="shape"/></filter></defs></svg>