<svg xmlns="http://www.w3.org/2000/svg" width="144" height="77" fill="none" viewBox="0 0 144 77">
  <rect width="144" height="77" fill="#fff" rx="6"/>
  <rect width="134" height="28" x="4.5" y="24.5" fill="#8A8E9B" fill-opacity=".1" rx="5.5"/>
  <rect width="134" height="28" x="4.5" y="24.5" stroke="#C4C7CF" rx="5.5"/>
  <path fill="#6C6E79" fill-rule="evenodd" d="M18.25 38.5a2.25 2.25 0 1 1-4.5 0 2.25 2.25 0 0 1 4.5 0Zm-1.5 0a.75.75 0 1 1-1.5 0 .75.75 0 0 1 1.5 0Z" clip-rule="evenodd"/>
  <path fill="#6C6E79" fill-rule="evenodd" d="M15 32.5a.75.75 0 0 0-.721.544l-.3 1.052-.084.046-1.038-.431a.75.75 0 0 0-.88.233l-1.256 1.623a.75.75 0 0 0-.013.901l.667.914-.044.256-.927.48a.75.75 0 0 0-.39.814l.387 1.923a.75.75 0 0 0 .666.599l1.102.102.105.15-.128 1.105a.75.75 0 0 0 .412.759l1.724.852c.299.148.66.08.885-.166l.696-.759h.273l.695.76a.75.75 0 0 0 .886.165l1.723-.852a.75.75 0 0 0 .413-.759l-.128-1.105.105-.15 1.103-.102a.75.75 0 0 0 .666-.6l.386-1.922a.75.75 0 0 0-.39-.814l-.927-.48-.044-.255.667-.914a.75.75 0 0 0-.013-.9l-1.257-1.625a.75.75 0 0 0-.88-.233l-1.038.431-.085-.046-.3-1.052a.75.75 0 0 0-.72-.544H15Zm.335 2.31.231-.81h.865l.231.81a.75.75 0 0 0 .363.453l.676.368c.199.109.437.121.646.034l.84-.349.56.725-.522.714a.75.75 0 0 0-.133.57l.16.935a.75.75 0 0 0 .395.54l.757.39-.165.822-.893.082a.75.75 0 0 0-.546.317l-.468.67a.75.75 0 0 0-.13.515l.1.863-.745.369-.537-.587a.75.75 0 0 0-.553-.244h-.935a.75.75 0 0 0-.553.244l-.537.587-.745-.369.1-.863a.75.75 0 0 0-.13-.515l-.466-.669a.75.75 0 0 0-.547-.318l-.893-.082-.164-.822.755-.392a.75.75 0 0 0 .394-.54l.16-.935a.75.75 0 0 0-.133-.57l-.521-.714.56-.723.838.35a.75.75 0 0 0 .647-.035l.676-.368a.75.75 0 0 0 .362-.453Z" clip-rule="evenodd"/>
  <path fill="#6C6E79" d="M24.799 34.727h1.332l2.315 5.654h.085l2.316-5.654h1.331V42h-1.044v-5.263h-.067l-2.145 5.252h-.867l-2.145-5.255h-.067V42h-1.044v-7.273Zm10.477 7.394c-.346 0-.658-.064-.938-.192-.28-.13-.5-.318-.664-.565-.16-.246-.241-.548-.241-.905 0-.308.059-.561.177-.76.119-.199.278-.356.48-.472.2-.116.426-.204.674-.263.249-.06.502-.104.76-.135l.796-.093c.203-.025.351-.067.444-.124.092-.057.138-.149.138-.277v-.025c0-.31-.087-.55-.263-.72-.172-.171-.43-.256-.774-.256-.357 0-.639.08-.845.238-.204.156-.344.33-.423.522l-.997-.227a1.92 1.92 0 0 1 .518-.803c.23-.206.494-.355.792-.447.298-.095.612-.143.941-.143.218 0 .449.027.693.079.246.05.475.142.688.277.216.135.392.327.53.578.137.249.206.572.206.97V42H36.93v-.746h-.043a1.513 1.513 0 0 1-.309.405 1.64 1.64 0 0 1-.53.33 2.053 2.053 0 0 1-.773.132Zm.23-.852c.294 0 .545-.058.753-.175.211-.116.37-.267.48-.454.111-.19.167-.392.167-.607v-.703a.554.554 0 0 1-.22.106c-.107.03-.229.058-.366.082a41.63 41.63 0 0 1-.401.06c-.13.017-.24.03-.327.043-.206.026-.394.07-.565.131a.97.97 0 0 0-.405.267.666.666 0 0 0-.149.454c0 .263.097.462.291.597.194.132.442.199.743.199Zm4.938-2.508V42h-1.062v-5.455H40.4v.888h.067a1.56 1.56 0 0 1 .59-.696c.27-.175.61-.263 1.02-.263.37 0 .696.079.976.235.279.154.496.383.65.689.153.305.23.683.23 1.133V42h-1.061v-3.342c0-.395-.103-.704-.31-.927-.205-.224-.488-.337-.848-.337-.246 0-.465.053-.657.16a1.15 1.15 0 0 0-.451.469c-.109.203-.163.45-.163.738Zm6.502 3.36c-.346 0-.658-.064-.938-.192-.28-.13-.5-.318-.664-.565-.16-.246-.241-.548-.241-.905 0-.308.059-.561.177-.76a1.31 1.31 0 0 1 .48-.472c.2-.116.426-.204.674-.263.249-.06.502-.104.76-.135l.796-.093c.203-.025.351-.067.444-.124.092-.057.138-.149.138-.277v-.025c0-.31-.088-.55-.263-.72-.172-.171-.43-.256-.774-.256-.357 0-.639.08-.845.238-.204.156-.344.33-.423.522l-.998-.227a1.92 1.92 0 0 1 .519-.803c.23-.206.494-.355.792-.447.298-.095.612-.143.941-.143.218 0 .449.027.692.079.247.05.476.142.69.277.215.135.391.327.529.578.137.249.205.572.205.97V42H48.6v-.746h-.042a1.513 1.513 0 0 1-.31.405 1.638 1.638 0 0 1-.528.33 2.052 2.052 0 0 1-.774.132Zm.23-.852c.294 0 .545-.058.753-.175.211-.116.37-.267.48-.454.111-.19.167-.392.167-.607v-.703a.553.553 0 0 1-.22.106 3.43 3.43 0 0 1-.366.082 41.63 41.63 0 0 1-.402.06c-.13.017-.239.03-.326.043-.206.026-.395.07-.565.131a.97.97 0 0 0-.405.267.665.665 0 0 0-.149.454c0 .263.097.462.291.597.194.132.442.199.742.199Zm6.163 2.89c-.434 0-.806-.057-1.119-.17a2.166 2.166 0 0 1-.76-.451 1.895 1.895 0 0 1-.44-.615l.912-.376c.064.104.15.214.256.33.109.118.256.22.44.302.187.083.428.124.721.124.403 0 .735-.098.998-.294.263-.195.394-.505.394-.93v-1.073h-.067a2.418 2.418 0 0 1-.277.387 1.498 1.498 0 0 1-.49.37c-.209.103-.48.155-.813.155-.431 0-.82-.1-1.165-.301a2.142 2.142 0 0 1-.817-.899c-.199-.398-.298-.887-.298-1.467 0-.58.098-1.077.294-1.491.2-.414.472-.732.817-.952a2.125 2.125 0 0 1 1.176-.334c.338 0 .612.057.82.17.208.112.37.242.486.392.119.149.21.28.274.394h.078v-.885h1.04v5.576c0 .468-.108.853-.326 1.154-.218.3-.513.523-.884.668a3.41 3.41 0 0 1-1.25.216Zm-.011-3.121c.305 0 .563-.071.774-.213.213-.145.374-.35.483-.618.111-.27.167-.593.167-.97 0-.367-.055-.69-.163-.97a1.44 1.44 0 0 0-.48-.653c-.21-.158-.47-.238-.781-.238-.32 0-.586.083-.8.249a1.5 1.5 0 0 0-.482.668c-.106.281-.16.596-.16.944 0 .358.055.671.163.941.11.27.27.48.483.632.216.152.481.228.796.228Zm6.246 1.072c-.537 0-1-.115-1.388-.344a2.336 2.336 0 0 1-.895-.977c-.208-.421-.313-.915-.313-1.48 0-.56.105-1.052.313-1.478.21-.426.504-.759.88-.998.38-.239.822-.359 1.329-.359.308 0 .606.051.895.153.288.102.548.262.777.48.23.217.411.5.544.848.132.346.199.766.199 1.26v.377h-4.336v-.795h3.295c0-.28-.057-.527-.17-.742a1.29 1.29 0 0 0-.48-.515 1.34 1.34 0 0 0-.717-.188c-.298 0-.559.073-.781.22-.22.144-.391.334-.512.568a1.64 1.64 0 0 0-.177.756v.622c0 .364.064.675.191.93.13.256.312.451.544.586.232.133.503.199.813.199.201 0 .385-.028.55-.085a1.143 1.143 0 0 0 .707-.692l1.005.18a1.82 1.82 0 0 1-.433.778 2.1 2.1 0 0 1-.778.515c-.31.12-.664.181-1.062.181Zm8.463 0c-.528 0-.983-.12-1.364-.359a2.375 2.375 0 0 1-.874-.997c-.203-.424-.305-.91-.305-1.456 0-.554.104-1.043.313-1.467.208-.426.501-.759.88-.998.38-.239.825-.359 1.34-.359.413 0 .783.077 1.107.231.324.152.586.365.785.64.201.274.32.595.359.962h-1.034a1.238 1.238 0 0 0-.39-.66c-.202-.185-.472-.278-.81-.278-.296 0-.555.078-.778.235-.22.154-.392.374-.515.66-.123.284-.184.62-.184 1.009 0 .397.06.74.18 1.03.121.288.292.512.512.67.223.16.484.239.785.239.201 0 .383-.037.547-.11.166-.076.304-.184.415-.324.114-.14.193-.307.238-.504h1.034a2.009 2.009 0 0 1-.345.945 1.984 1.984 0 0 1-.77.653c-.32.159-.695.238-1.126.238Zm5.674 0c-.512 0-.958-.117-1.34-.352a2.37 2.37 0 0 1-.887-.983c-.21-.422-.316-.914-.316-1.477 0-.566.105-1.061.316-1.485.21-.424.507-.753.888-.987.381-.234.827-.352 1.339-.352.51 0 .957.118 1.338.352.381.234.677.563.888.987.21.424.316.919.316 1.485 0 .563-.105 1.055-.316 1.477a2.37 2.37 0 0 1-.888.983c-.38.235-.827.352-1.338.352Zm.003-.891c.332 0 .606-.088.824-.263a1.54 1.54 0 0 0 .483-.7c.106-.29.16-.612.16-.962 0-.348-.053-.668-.16-.959a1.562 1.562 0 0 0-.483-.706c-.218-.178-.492-.267-.824-.267-.334 0-.61.089-.83.267-.219.177-.38.413-.487.706-.105.291-.157.611-.157.959 0 .35.053.671.157.962.106.292.268.525.486.7.22.175.497.263.831.263Zm4.786-6.492V42h-1.062v-7.273H78.5Zm4.884 5.01v-3.192h1.065V42h-1.044v-.945h-.057a1.702 1.702 0 0 1-.603.728c-.275.192-.617.288-1.027.288-.35 0-.66-.077-.93-.23a1.622 1.622 0 0 1-.632-.693c-.152-.306-.227-.683-.227-1.133v-3.47h1.061v3.342c0 .372.103.668.31.888.205.22.473.33.802.33.199 0 .397-.05.593-.149.199-.1.363-.25.494-.451.132-.201.197-.457.195-.767ZM85.876 42v-5.455h1.02v.888h.067c.113-.3.299-.535.557-.703.258-.17.567-.256.927-.256.364 0 .67.086.916.256.249.17.432.405.55.703h.057c.13-.291.338-.523.622-.696.284-.175.622-.263 1.015-.263.495 0 .899.156 1.211.466.315.31.473.777.473 1.402V42h-1.062v-3.558c0-.37-.1-.637-.302-.803a1.098 1.098 0 0 0-.72-.248c-.346 0-.615.106-.807.32-.192.21-.288.481-.288.812V42h-1.058v-3.626c0-.296-.092-.534-.277-.714-.184-.18-.425-.27-.72-.27-.202 0-.388.054-.558.16-.168.105-.304.25-.409.437a1.338 1.338 0 0 0-.152.65V42h-1.062Zm9.9-3.239V42h-1.062v-5.455h1.019v.888h.067a1.56 1.56 0 0 1 .59-.696c.27-.175.61-.263 1.02-.263.37 0 .696.079.976.235.279.154.496.383.65.689.153.305.23.683.23 1.133V42h-1.062v-3.342c0-.395-.102-.704-.308-.927-.206-.224-.49-.337-.85-.337a1.33 1.33 0 0 0-.656.16 1.15 1.15 0 0 0-.451.469c-.109.203-.163.45-.163.738Zm9.002-.884-.963.17a1.145 1.145 0 0 0-.191-.351.962.962 0 0 0-.348-.273 1.265 1.265 0 0 0-.551-.107c-.301 0-.551.067-.753.203-.201.132-.302.304-.302.514 0 .183.068.33.203.44.135.112.353.203.653.274l.867.199c.502.116.876.295 1.122.536.246.242.369.555.369.941 0 .327-.094.618-.284.874a1.856 1.856 0 0 1-.785.597 2.9 2.9 0 0 1-1.161.216c-.611 0-1.109-.13-1.495-.39-.386-.263-.623-.636-.71-1.12l1.026-.155c.064.267.195.47.394.607.199.135.458.202.778.202.348 0 .626-.072.835-.216.208-.147.312-.326.312-.537a.557.557 0 0 0-.192-.43c-.125-.115-.318-.203-.579-.262l-.923-.203c-.509-.116-.885-.3-1.129-.553-.242-.254-.362-.575-.362-.963 0-.322.09-.604.27-.845a1.76 1.76 0 0 1 .745-.565 2.725 2.725 0 0 1 1.09-.206c.59 0 1.054.128 1.393.384.338.253.562.593.671 1.02Z"/>
  <g clip-path="url(#a)">
    <rect width="24" height="16" x="108.5" y="30.5" fill="#fff" rx="8"/>
    <rect width="24" height="16" x="108.5" y="30.5" stroke="#C4C7CF" rx="8"/>
    <path fill="#6C6E79" d="M116.411 34.727V42h-1.101v-6.172h-.043l-1.74 1.136v-1.05l1.815-1.187h1.069Zm5.664-.34-2.343 8.707h-.948l2.343-8.708h.948ZM123.191 42v-.795l2.46-2.55c.263-.277.48-.52.65-.728.173-.21.302-.41.387-.6.086-.19.128-.39.128-.604 0-.242-.057-.45-.17-.625a1.12 1.12 0 0 0-.465-.408 1.482 1.482 0 0 0-.664-.146c-.261 0-.488.053-.682.16a1.097 1.097 0 0 0-.448.45 1.423 1.423 0 0 0-.156.683h-1.048c0-.443.102-.83.306-1.162.203-.331.483-.588.838-.77a2.587 2.587 0 0 1 1.211-.277c.457 0 .859.091 1.207.273.351.18.624.426.821.739.196.31.294.66.294 1.051 0 .27-.051.534-.152.792-.1.258-.274.546-.522.863-.249.315-.595.697-1.037 1.147l-1.446 1.513v.053h3.274V42h-4.786Z"/>
  </g>
  <defs>
    <clipPath id="a">
      <rect width="25" height="17" x="108" y="30" fill="#fff" rx="8.5"/>
    </clipPath>
  </defs>
</svg>
