<svg width="144" height="80" viewBox="0 0 144 80" fill="none" xmlns="http://www.w3.org/2000/svg">
<g clip-path="url(#clip0_756_52421)">
<mask id="path-1-inside-1_756_52421" fill="white">
<path d="M76 0H144V80H76V0Z"/>
</mask>
<path d="M76 0H144V80H76V0Z" fill="#F4F5F9"/>
<path d="M115.528 34.4062V33.2727H122.283V34.4062H119.56V42H118.247V34.4062H115.528ZM123.775 42V33.2727H125.092V37.0653H129.443V33.2727H130.764V42H129.443V38.1946H125.092V42H123.775Z" fill="#191B23"/>
<path d="M144 79H76V81H144V79Z" fill="#E0E1E9" mask="url(#path-1-inside-1_756_52421)"/>
</g>
<g clip-path="url(#clip1_756_52421)">
<mask id="path-6-inside-3_756_52421" fill="white">
<path d="M0 0H76V80H0V0Z"/>
</mask>
<path d="M0 0H76V80H0V0Z" fill="#F4F5F9"/>
<path d="M12.5284 34.4062V33.2727H19.2827V34.4062H16.5597V42H15.2472V34.4062H12.5284ZM20.7752 42V33.2727H22.092V37.0653H26.4428V33.2727H27.7638V42H26.4428V38.1946H22.092V42H20.7752Z" fill="#191B23"/>
<path d="M76 80V81H77V80H76ZM75 0V80H77V0H75ZM76 79H0V81H76V79Z" fill="#E0E1E9" mask="url(#path-6-inside-3_756_52421)"/>
</g>
<path d="M75 0V80H77V0H75Z" fill="#6C6E79" mask="url(#path-4-inside-2_756_52421)"/>
<g filter="url(#filter0_d_756_52421)">
<path d="M74 42V48.01H72.98V44.54L67 50.01L72.98 55.47V51.99H74V58H74.02H77.98V51.99H79.04V55.46L85 49.99L79.04 44.53V48H77.98V42H74Z" fill="white"/>
<path d="M83.3402 49.99L80.0202 46.77V49.02H77.0002V43.06H76.9802V43.04H75.0402V49.04H71.9802V46.76L68.6602 50.01L71.9802 53.23V50.98H75.0402V56.98H75.0602H76.9802H77.0002V50.98H80.0202V53.24L83.3402 49.99Z" fill="#191B23"/>
</g>
<defs>
<filter id="filter0_d_756_52421" x="65.2" y="41.2" width="21.6" height="19.6" filterUnits="userSpaceOnUse" color-interpolation-filters="sRGB">
<feFlood flood-opacity="0" result="BackgroundImageFix"/>
<feColorMatrix in="SourceAlpha" type="matrix" values="0 0 0 0 0 0 0 0 0 0 0 0 0 0 0 0 0 0 127 0" result="hardAlpha"/>
<feOffset dy="1"/>
<feGaussianBlur stdDeviation="0.9"/>
<feColorMatrix type="matrix" values="0 0 0 0 0 0 0 0 0 0 0 0 0 0 0 0 0 0 0.65 0"/>
<feBlend mode="normal" in2="BackgroundImageFix" result="effect1_dropShadow_756_52421"/>
<feBlend mode="normal" in="SourceGraphic" in2="effect1_dropShadow_756_52421" result="shape"/>
</filter>
<clipPath id="clip0_756_52421">
<rect width="68" height="80" fill="white" transform="translate(76)"/>
</clipPath>
<clipPath id="clip1_756_52421">
<path d="M0 0H76V80H0V0Z" fill="white"/>
</clipPath>
</defs>
</svg>
