<svg xmlns="http://www.w3.org/2000/svg" width="144" height="80" fill="none"><mask id="a" fill="#fff"><path d="M0 0h143v40H0V0Z"/></mask><path fill="#F4F5F9" d="M0 0h143v40H0V0Z"/><path fill="#191B23" d="M12.528 16.406v-1.133h6.755v1.133H16.56V24h-1.313v-7.594h-2.719ZM20.775 24v-8.727h1.317v3.792h4.35v-3.792h1.322V24h-1.321v-3.805h-4.351V24h-1.317Z"/><path fill="#E0E1E9" d="M143 40v1h1v-1h-1Zm-1-40v40h2V0h-2Zm1 39H0v2h143v-2Z" mask="url(#a)"/><mask id="c" fill="#fff"><path d="M0 40h143v40H0V40Z"/></mask><path fill="#fff" d="M0 40h143v40H0V40Z"/><g filter="url(#b)"><rect width="61" height="28" x="12" y="44" fill="#fff" rx="6"/><path fill="#191B23" d="M20 48h1v20h-1z"/><rect width="60" height="27" x="12.5" y="44.5" stroke="#006DCA" rx="5.5"/></g><path fill="#009F81" fill-rule="evenodd" d="M96.707 54.293a1 1 0 0 1 0 1.414l-5.996 6a1 1 0 0 1-1.414 0L86.293 58.7a1 1 0 0 1 1.414-1.414l2.297 2.3 5.289-5.292a1 1 0 0 1 1.414 0Z" clip-rule="evenodd"/><path fill="#6C6E79" d="M118.323 53.323a1.101 1.101 0 0 0 0 1.559L121.441 58l-3.118 3.118a1.101 1.101 0 1 0 1.559 1.56L123 59.558l3.118 3.118a1.102 1.102 0 0 0 1.559-1.559L124.559 58l3.118-3.118a1.101 1.101 0 1 0-1.559-1.56L123 56.442l-3.118-3.118a1.102 1.102 0 0 0-1.559 0Z"/><path fill="#E0E1E9" d="M143 79H0v2h143v-2Z" mask="url(#c)"/><defs><filter id="b" width="67" height="34" x="9" y="41" color-interpolation-filters="sRGB" filterUnits="userSpaceOnUse"><feFlood flood-opacity="0" result="BackgroundImageFix"/><feColorMatrix in="SourceAlpha" result="hardAlpha" values="0 0 0 0 0 0 0 0 0 0 0 0 0 0 0 0 0 0 127 0"/><feMorphology in="SourceAlpha" operator="dilate" radius="3" result="effect1_dropShadow_766_65115"/><feOffset/><feColorMatrix values="0 0 0 0 0 0 0 0 0 0.560784 0 0 0 0 0.972549 0 0 0 0.3 0"/><feBlend in2="BackgroundImageFix" result="effect1_dropShadow_766_65115"/><feBlend in="SourceGraphic" in2="effect1_dropShadow_766_65115" result="shape"/></filter></defs></svg>