<svg xmlns="http://www.w3.org/2000/svg" width="144" height="80" fill="none"><path fill="#fff" d="M0 0h144v80H0z"/><path stroke="#A9ABB6" d="M8.3 19.5h49.4c.169 0 .357.088.52.304.163.217.28.542.28.93v35.533c0 .387-.117.712-.28.929-.163.216-.351.304-.52.304H8.3c-.169 0-.357-.088-.52-.304-.163-.217-.28-.542-.28-.93V20.734c0-.387.117-.712.28-.929.163-.216.351-.304.52-.304Z"/><path fill="#A9ABB6" fill-rule="evenodd" d="M58.783 20.086v3.588H7v-3.588C7 19.611 7.605 19 8.083 19H57.7c.479 0 1.083.61 1.083 1.086ZM56.09 22.87a.94.94 0 0 0 .929-.953.917.917 0 0 0-.929-.904.917.917 0 0 0-.928.904.94.94 0 0 0 .928.953Zm-1.857-.953a.94.94 0 0 1-.928.953.94.94 0 0 1-.929-.953.917.917 0 0 1 .929-.904c.5-.013.915.392.928.904Zm-3.713.953a.94.94 0 0 0 .928-.953.917.917 0 0 0-.928-.904.917.917 0 0 0-.929.904.94.94 0 0 0 .929.953Z" clip-rule="evenodd"/><rect width="13.867" height="1.3" x="12.199" y="34.6" fill="#A9ABB6" rx=".65"/><rect width="19.067" height="1.3" x="12.199" y="38.934" fill="#A9ABB6" rx=".65"/><rect width="10.4" height="1.3" x="12.199" y="41.533" fill="#A9ABB6" rx=".65"/><path stroke="#A9ABB6" d="M36.574 31.025h17.117v17.117H36.574z"/><path fill="#A9ABB6" d="M50.55 36.333c0 .758-.758 1.516-1.517 1.516-.975 0-1.733-.758-1.733-1.516 0-.975.758-1.734 1.733-1.734.759 0 1.517.759 1.517 1.734ZM46.432 43.049l1.95-3.033 3.25 4.333h-13l4.334-6.5 3.466 5.2Z"/><path stroke="#A9ABB6" d="M50.55 36.333c0 .758-.758 1.516-1.517 1.516-.975 0-1.733-.758-1.733-1.516 0-.975.758-1.734 1.733-1.734.759 0 1.517.759 1.517 1.734ZM46.432 43.049l1.95-3.033 3.25 4.333h-13l4.334-6.5 3.466 5.2Z"/><rect width="70" height="8" x="67" y="27" fill="#E0E1E9" fill-opacity=".8" rx="4"/><rect width="42" height="8" x="67" y="43" fill="#E0E1E9" fill-opacity=".8" rx="4"/></svg>