<svg width="144" height="80" viewBox="0 0 144 80" fill="none" xmlns="http://www.w3.org/2000/svg">
  <g filter="url(#a)">
    <path fill="#fff" d="M0 0h144v40H0z"/>
    <path d="M5 27v-7.64h1.49V27h-1.5Zm.75-8.81a.94.94 0 0 1-.67-.26.84.84 0 0 1-.27-.63c0-.24.1-.45.27-.63.19-.17.41-.26.67-.26.26 0 .48.09.66.26.19.18.28.39.28.63s-.1.45-.28.63a.93.93 0 0 1-.66.26Zm4.22 4.28V27H8.5v-7.64H9.9v1.25h.1c.17-.4.45-.73.82-.98.38-.24.86-.37 1.43-.37.52 0 .98.11 1.37.33.39.22.7.54.9.97.22.42.33.95.33 1.58V27h-1.49v-4.68c0-.55-.14-.98-.43-1.3a1.53 1.53 0 0 0-1.19-.47c-.34 0-.65.08-.92.23a1.6 1.6 0 0 0-.63.65c-.15.29-.23.63-.23 1.04Zm10.45-3.1v1.19h-4.17v-1.2h4.17Zm-3.06-1.84h1.5v7.23c0 .29.03.5.12.65.09.14.2.24.33.3a1.74 1.74 0 0 0 .77.05l.2-.05.28 1.23c-.09.03-.21.07-.37.1a2.91 2.91 0 0 1-1.7-.15 1.88 1.88 0 0 1-.81-.68c-.21-.3-.32-.68-.32-1.14v-7.54Zm7.91 9.62c-.75 0-1.4-.16-1.94-.48a3.27 3.27 0 0 1-1.26-1.37 4.63 4.63 0 0 1-.43-2.07c0-.78.14-1.47.43-2.07.3-.6.71-1.06 1.24-1.4a3.74 3.74 0 0 1 3.11-.29 3.03 3.03 0 0 1 1.85 1.87c.18.48.28 1.07.28 1.76v.53h-6.07v-1.11h4.61c0-.4-.08-.74-.24-1.04a1.8 1.8 0 0 0-1.67-.99c-.42 0-.79.1-1.1.31-.3.2-.54.47-.71.8a2.3 2.3 0 0 0-.25 1.05v.87c0 .52.09.95.27 1.3.18.37.43.64.76.83.32.18.7.28 1.14.28.28 0 .53-.04.77-.12a1.6 1.6 0 0 0 .99-.97l1.4.25c-.11.42-.31.78-.6 1.09-.3.3-.66.55-1.1.72-.43.17-.92.25-1.48.25ZM30.2 27v-7.64h1.43v1.22h.08c.14-.41.39-.74.74-.97a2.1 2.1 0 0 1 1.2-.36 6.38 6.38 0 0 1 .63.03v1.43a3.04 3.04 0 0 0-.78-.09c-.34 0-.66.07-.93.22a1.66 1.66 0 0 0-.89 1.5V27H30.2Zm6.86-4.53V27h-1.49v-7.64H37v1.25h.1c.17-.4.44-.73.82-.98.37-.24.85-.37 1.42-.37.52 0 .98.11 1.37.33.4.22.7.54.91.97.22.42.32.95.32 1.58V27h-1.48v-4.68c0-.55-.15-.98-.44-1.3a1.53 1.53 0 0 0-1.18-.47c-.35 0-.66.08-.92.23a1.6 1.6 0 0 0-.64.65c-.15.29-.22.63-.22 1.04Zm9.1 4.7c-.48 0-.92-.1-1.31-.27-.4-.18-.7-.45-.93-.79a2.27 2.27 0 0 1-.34-1.27c0-.43.08-.78.25-1.06.16-.28.39-.5.67-.66.28-.17.6-.29.94-.37.35-.08.7-.15 1.07-.19l1.11-.13c.29-.04.5-.1.62-.17.13-.08.2-.21.2-.4v-.03c0-.43-.13-.77-.37-1-.24-.24-.6-.36-1.09-.36-.5 0-.89.1-1.18.33-.28.22-.48.46-.59.73l-1.4-.32a2.69 2.69 0 0 1 1.84-1.75 4.33 4.33 0 0 1 2.28-.09c.35.07.67.2.97.4.3.18.55.45.74.8.2.35.29.8.29 1.36V27h-1.45v-1.04h-.06a2.3 2.3 0 0 1-1.17 1.03c-.3.12-.67.18-1.1.18Zm.32-1.2c.41 0 .76-.08 1.06-.24a1.7 1.7 0 0 0 .9-1.48v-.99a.78.78 0 0 1-.3.15 4.8 4.8 0 0 1-.52.11 60.07 60.07 0 0 1-1.02.15c-.29.04-.55.1-.79.18-.23.09-.42.21-.57.38a.93.93 0 0 0-.2.63c0 .37.13.65.4.84.28.18.62.28 1.04.28Zm6.91-9.15V27h-1.48V16.82h1.48Zm6.5 5.23v1.3h-4.51v-1.3h4.51Zm3.47-5.23V27h-1.49V16.82h1.5Zm2 10.18v-7.64h1.49V27h-1.49Zm.75-8.81a.94.94 0 0 1-.66-.26.84.84 0 0 1-.28-.63.94.94 0 0 1 .94-.89c.26 0 .48.09.66.26.19.18.28.39.28.63s-.1.45-.28.63a.93.93 0 0 1-.66.26Zm4.22 4.28V27h-1.48v-7.64h1.42v1.25h.1c.17-.4.45-.73.82-.98.38-.24.86-.37 1.43-.37.52 0 .98.11 1.37.33.39.22.7.54.9.97.22.42.33.95.33 1.58V27h-1.49v-4.68c0-.55-.14-.98-.43-1.3a1.53 1.53 0 0 0-1.19-.47c-.34 0-.65.08-.92.23a1.6 1.6 0 0 0-.63.65c-.15.29-.23.63-.23 1.04Zm8.25 1.94V22.6h.25l3.04-3.24h1.78l-3.47 3.68h-.23l-1.37 1.37ZM77.21 27V16.82h1.5V27h-1.5Zm4.83 0-2.74-3.63 1.03-1.04L83.86 27h-1.82Zm3.96.1c-.27 0-.5-.1-.7-.3a.96.96 0 0 1-.3-.7c0-.27.1-.5.3-.7.2-.2.43-.29.7-.29.27 0 .5.1.7.3.2.19.3.42.3.69a1.03 1.03 0 0 1-.5.86.95.95 0 0 1-.5.13Zm6.19.05c-.74 0-1.38-.16-1.91-.5-.53-.34-.94-.8-1.22-1.4a4.65 4.65 0 0 1-.43-2.03c0-.78.14-1.46.44-2.06.29-.6.7-1.06 1.23-1.4.53-.33 1.15-.5 1.87-.5.58 0 1.1.11 1.55.33a2.7 2.7 0 0 1 1.6 2.24h-1.44a1.73 1.73 0 0 0-.55-.93 1.61 1.61 0 0 0-1.13-.38c-.42 0-.78.1-1.09.33-.3.21-.55.52-.72.92-.17.4-.26.87-.26 1.41 0 .56.08 1.04.25 1.44.17.4.41.72.72.94.31.23.68.34 1.1.34.28 0 .54-.06.76-.16.24-.1.43-.25.59-.45.15-.2.27-.43.33-.7h1.45a2.8 2.8 0 0 1-1.57 2.23 3.5 3.5 0 0 1-1.57.33Zm7.94 0a3.32 3.32 0 0 1-3.12-1.87 4.57 4.57 0 0 1-.44-2.06c0-.8.15-1.49.44-2.08a3.31 3.31 0 0 1 3.12-1.88 3.31 3.31 0 0 1 3.12 1.87c.3.6.44 1.3.44 2.09 0 .79-.15 1.47-.44 2.06a3.32 3.32 0 0 1-3.12 1.87Zm0-1.24c.47 0 .86-.13 1.16-.37.3-.25.53-.57.68-.98.15-.4.22-.86.22-1.35 0-.49-.07-.93-.22-1.34a2.18 2.18 0 0 0-.68-.99c-.3-.25-.69-.37-1.15-.37-.47 0-.86.12-1.17.37-.3.25-.53.58-.68.99-.14.4-.22.85-.22 1.34 0 .5.08.94.22 1.35.15.4.38.73.68.98.31.24.7.37 1.17.37Zm5.22 1.09v-7.64h1.43v1.25h.1c.15-.42.41-.75.77-.99.36-.24.8-.36 1.3-.36.51 0 .94.12 1.28.36.35.24.6.57.77.99h.08c.19-.41.48-.74.87-.98.4-.24.88-.37 1.42-.37.7 0 1.26.22 1.7.66.44.43.66 1.08.66 1.96V27h-1.48v-4.98c0-.52-.15-.9-.43-1.13a1.54 1.54 0 0 0-1-.34c-.5 0-.87.15-1.13.44-.27.3-.4.68-.4 1.14V27h-1.49v-5.08c0-.41-.13-.74-.39-1-.26-.25-.6-.37-1-.37-.29 0-.55.07-.79.22-.23.15-.42.35-.57.61-.14.26-.21.57-.21.91V27h-1.49Z" fill="#006DCA"/>
  </g>
  <g filter="url(#b)">
    <path fill="#fff" d="M0 40h144v40H0z"/>
    <path d="M8.29 67.15c-.75 0-1.4-.16-1.94-.48a3.27 3.27 0 0 1-1.26-1.37 4.63 4.63 0 0 1-.43-2.07c0-.78.14-1.47.43-2.07.3-.6.71-1.06 1.24-1.4a3.74 3.74 0 0 1 3.11-.29 3.03 3.03 0 0 1 1.85 1.87c.18.48.28 1.07.28 1.76v.53H5.5v-1.11h4.61c0-.4-.08-.74-.24-1.04a1.8 1.8 0 0 0-1.67-.99c-.42 0-.79.1-1.1.31-.3.2-.54.47-.71.8a2.3 2.3 0 0 0-.25 1.05v.87c0 .52.09.95.27 1.3.18.37.43.64.76.83.32.18.7.28 1.14.28.28 0 .53-.04.77-.12a1.6 1.6 0 0 0 .99-.97l1.4.25c-.11.42-.31.78-.6 1.09-.3.3-.66.55-1.1.72-.43.17-.92.25-1.48.25Zm5.92-7.79 1.69 2.98 1.7-2.98h1.62l-2.38 3.82 2.4 3.82h-1.62l-1.72-2.85L14.18 67h-1.63l2.38-3.82-2.35-3.82h1.63Zm10.1 0v1.2h-4.17v-1.2h4.17Zm-3.05-1.83h1.49v7.23c0 .29.04.5.13.65.08.14.2.24.33.3a1.74 1.74 0 0 0 .77.05l.2-.05.27 1.23a2.91 2.91 0 0 1-2.06-.05 1.88 1.88 0 0 1-.82-.68c-.2-.3-.3-.68-.3-1.14v-7.54Zm7.9 9.62c-.74 0-1.4-.16-1.94-.48a3.27 3.27 0 0 1-1.25-1.37 4.62 4.62 0 0 1-.44-2.07c0-.78.15-1.47.44-2.07.3-.6.7-1.06 1.23-1.4a3.74 3.74 0 0 1 3.11-.29 3.03 3.03 0 0 1 1.86 1.87c.18.48.27 1.07.27 1.76v.53h-6.07v-1.11H31c0-.4-.08-.74-.24-1.04a1.8 1.8 0 0 0-1.68-.99c-.41 0-.78.1-1.1.31-.3.2-.54.47-.7.8a2.3 2.3 0 0 0-.26 1.05v.87c0 .52.1.95.27 1.3.19.37.44.64.76.83.33.18.7.28 1.14.28.28 0 .54-.04.77-.12a1.6 1.6 0 0 0 .99-.97l1.4.25c-.1.42-.3.78-.6 1.09-.29.3-.65.55-1.09.72-.43.17-.93.25-1.48.25ZM34.1 67v-7.64h1.44v1.22h.08c.14-.41.38-.74.74-.97a2.1 2.1 0 0 1 1.2-.36 6.38 6.38 0 0 1 .63.03v1.43a3.04 3.04 0 0 0-.78-.09c-.35 0-.66.07-.94.22a1.66 1.66 0 0 0-.88 1.5V67h-1.49Zm6.86-4.53V67h-1.48v-7.64h1.42v1.25h.1c.17-.4.45-.73.82-.98.38-.24.86-.37 1.43-.37.52 0 .98.11 1.37.33.39.22.7.54.9.97.22.42.33.95.33 1.58V67h-1.49v-4.68c0-.55-.14-.98-.43-1.3a1.53 1.53 0 0 0-1.19-.47c-.34 0-.65.08-.92.23a1.6 1.6 0 0 0-.63.65c-.15.29-.23.63-.23 1.04Zm9.1 4.7c-.48 0-.92-.1-1.3-.27-.4-.18-.7-.45-.94-.79a2.27 2.27 0 0 1-.33-1.27c0-.43.08-.78.24-1.06.17-.28.4-.5.68-.66.28-.17.6-.29.94-.37.35-.08.7-.15 1.06-.19l1.12-.13c.28-.04.49-.1.62-.17.13-.08.2-.21.2-.4v-.03c0-.43-.13-.77-.38-1-.24-.24-.6-.36-1.08-.36-.5 0-.9.1-1.18.33-.29.22-.48.46-.6.73l-1.4-.32a2.69 2.69 0 0 1 1.84-1.75 4.33 4.33 0 0 1 2.29-.09c.35.07.67.2.96.4.3.18.55.45.75.8.19.35.28.8.28 1.36V67h-1.45v-1.04h-.06a2.3 2.3 0 0 1-1.17 1.03c-.3.12-.66.18-1.08.18Zm.33-1.2c.41 0 .76-.08 1.05-.24a1.7 1.7 0 0 0 .9-1.48v-.99a.77.77 0 0 1-.3.15 4.8 4.8 0 0 1-.51.11 60.07 60.07 0 0 1-1.02.15c-.29.04-.55.1-.8.18-.23.09-.42.21-.56.38a.93.93 0 0 0-.2.63c0 .37.13.65.4.84.27.18.62.28 1.04.28Zm6.91-9.15V67H55.8V56.82h1.5Zm6.5 5.23v1.3h-4.51v-1.3h4.51Zm3.47-5.23V67h-1.49V56.82h1.49Zm2 10.18v-7.64h1.48V67h-1.48Zm.75-8.81a.94.94 0 0 1-.67-.26.84.84 0 0 1-.27-.63c0-.24.09-.45.27-.63.19-.17.4-.26.67-.26.26 0 .48.09.66.26.18.18.28.39.28.63s-.1.45-.28.63a.93.93 0 0 1-.66.26Zm4.22 4.28V67h-1.49v-7.64h1.43v1.25h.1c.17-.4.45-.73.82-.98.38-.24.85-.37 1.43-.37.52 0 .97.11 1.36.33.4.22.7.54.91.97.22.42.33.95.33 1.58V67h-1.49v-4.68c0-.55-.14-.98-.43-1.3a1.53 1.53 0 0 0-1.19-.47c-.34 0-.65.08-.92.23a1.6 1.6 0 0 0-.63.65c-.15.29-.23.63-.23 1.04Zm8.25 1.94-.01-1.81h.26l3.04-3.24h1.78l-3.47 3.68h-.23l-1.37 1.37ZM81.1 67V56.82h1.49V67H81.1Zm4.82 0-2.73-3.63 1.02-1.04L87.76 67h-1.83Zm3.97.1c-.27 0-.5-.1-.7-.3a.96.96 0 0 1-.3-.7c0-.27.1-.5.3-.7.2-.2.43-.29.7-.29.27 0 .5.1.7.3.2.19.3.42.3.69 0 .18-.05.35-.15.5a.95.95 0 0 1-.86.5Zm6.18.05c-.73 0-1.37-.16-1.9-.5-.53-.34-.94-.8-1.23-1.4a4.65 4.65 0 0 1-.42-2.03c0-.78.14-1.46.43-2.06.3-.6.7-1.06 1.24-1.4.53-.33 1.15-.5 1.87-.5.58 0 1.1.11 1.55.33a2.7 2.7 0 0 1 1.6 2.24h-1.44a1.73 1.73 0 0 0-.55-.93 1.61 1.61 0 0 0-1.14-.38c-.4 0-.77.1-1.08.33-.31.21-.55.52-.72.92-.18.4-.26.87-.26 1.41 0 .56.08 1.04.25 1.44.17.4.4.72.72.94.3.23.67.34 1.1.34.28 0 .53-.06.76-.16.23-.1.43-.25.58-.45.16-.2.27-.43.34-.7h1.44a2.77 2.77 0 0 1-1.56 2.24 3.5 3.5 0 0 1-1.58.32Zm7.95 0a3.32 3.32 0 0 1-3.12-1.87 4.57 4.57 0 0 1-.44-2.06c0-.8.15-1.49.44-2.08a3.32 3.32 0 0 1 3.12-1.88 3.32 3.32 0 0 1 3.12 1.87c.3.6.44 1.3.44 2.09 0 .79-.15 1.47-.44 2.06a3.32 3.32 0 0 1-3.12 1.87Zm0-1.24c.47 0 .85-.13 1.16-.37.3-.25.53-.57.67-.98.15-.4.23-.86.23-1.35 0-.49-.08-.93-.23-1.34a2.19 2.19 0 0 0-.67-.99c-.3-.25-.7-.37-1.16-.37-.46 0-.85.12-1.16.37-.3.25-.53.58-.68.99-.15.4-.22.85-.22 1.34 0 .5.07.94.22 1.35.15.4.38.73.68.98.3.24.7.37 1.16.37Zm5.22 1.09v-7.64h1.42v1.25h.1c.16-.42.42-.75.78-.99.36-.24.8-.36 1.3-.36s.94.12 1.28.36c.35.24.6.57.77.99h.08c.18-.41.47-.74.87-.98s.87-.37 1.42-.37c.7 0 1.26.22 1.7.66.44.43.66 1.08.66 1.96V67h-1.49v-4.98c0-.52-.14-.9-.42-1.13a1.54 1.54 0 0 0-1.01-.34c-.48 0-.86.15-1.13.44-.27.3-.4.68-.4 1.14V67h-1.48v-5.08c0-.41-.13-.74-.4-1-.25-.25-.59-.37-1-.37-.28 0-.54.07-.78.22s-.43.35-.57.61c-.14.26-.22.57-.22.91V67h-1.48Z" fill="#006DCA"/>
    <path d="M139.39 55.08a1 1 0 0 0-.4-.08h-4.24a1 1 0 0 0 0 2h1.83l-6.28 6.3a1 1 0 0 0 1.41 1.4l6.29-6.28v1.83a1 1 0 0 0 2 0V56a1 1 0 0 0-.61-.92Z" fill="#A9ABB6"/>
    <path d="M126 59a1 1 0 0 1 1-1h4v2h-3v7h7v-3h2v4a1 1 0 0 1-1 1h-9a1 1 0 0 1-1-1v-9Z" fill="#A9ABB6"/>
  </g>
  <defs>
    <filter id="a" x="0" y="0" width="144" height="40" filterUnits="userSpaceOnUse" color-interpolation-filters="sRGB">
      <feFlood flood-opacity="0" result="BackgroundImageFix"/>
      <feBlend in="SourceGraphic" in2="BackgroundImageFix" result="shape"/>
      <feColorMatrix in="SourceAlpha" values="0 0 0 0 0 0 0 0 0 0 0 0 0 0 0 0 0 0 127 0" result="hardAlpha"/>
      <feOffset dy="-1"/>
      <feComposite in2="hardAlpha" operator="arithmetic" k2="-1" k3="1"/>
      <feColorMatrix values="0 0 0 0 0.878431 0 0 0 0 0.882353 0 0 0 0 0.913725 0 0 0 1 0"/>
      <feBlend in2="shape" result="effect1_innerShadow_766_66801"/>
    </filter>
    <filter id="b" x="0" y="40" width="144" height="40" filterUnits="userSpaceOnUse" color-interpolation-filters="sRGB">
      <feFlood flood-opacity="0" result="BackgroundImageFix"/>
      <feBlend in="SourceGraphic" in2="BackgroundImageFix" result="shape"/>
      <feColorMatrix in="SourceAlpha" values="0 0 0 0 0 0 0 0 0 0 0 0 0 0 0 0 0 0 127 0" result="hardAlpha"/>
      <feOffset dy="-1"/>
      <feComposite in2="hardAlpha" operator="arithmetic" k2="-1" k3="1"/>
      <feColorMatrix values="0 0 0 0 0.878431 0 0 0 0 0.882353 0 0 0 0 0.913725 0 0 0 1 0"/>
      <feBlend in2="shape" result="effect1_innerShadow_766_66801"/>
    </filter>
  </defs>
</svg>
