<svg xmlns="http://www.w3.org/2000/svg" width="144" height="80" fill="none"><path fill="#fff" d="M0 0h144v80H0z"/><mask id="a" fill="#fff"><path d="M80 0h64v40H80V0Z"/></mask><path fill="#fff" d="M80 0h64v40H80V0Z"/><path fill="#191B23" d="M92.528 16.406v-1.133h6.755v1.133H96.56V24h-1.313v-7.594h-2.719ZM100.775 24v-8.727h1.317v3.792h4.351v-3.792h1.321V24h-1.321v-3.805h-4.351V24h-1.317Z"/><path fill="#E0E1E9" d="M144 39H80v2h64v-2Z" mask="url(#a)"/><mask id="b" fill="#fff"><path d="M0 0h80v40H0V0Z"/></mask><path fill="#fff" d="M0 0h80v40H0V0Z"/><path fill="#191B23" d="M12.528 16.406v-1.133h6.755v1.133H16.56V24h-1.313v-7.594h-2.719ZM20.775 24v-8.727h1.317v3.792h4.35v-3.792h1.322V24h-1.321v-3.805h-4.351V24h-1.317Z"/><path fill="#E0E1E9" d="M80 39H0v2h80v-2Z" mask="url(#b)"/><mask id="c" fill="#fff"><path d="M0 40h80v40H0V40Z"/></mask><path fill="#fff" d="M0 40h80v40H0V40Z"/><rect width="64" height="8" x="8" y="52" fill="#E0E1E9" fill-opacity=".8" rx="4"/><path fill="#E0E1E9" d="M80 79H0v2h80v-2Z" mask="url(#c)"/><mask id="d" fill="#fff"><path d="M80 40h64v40H80V40Z"/></mask><path fill="#fff" d="M80 40h64v40H80V40Z"/><path fill="#A9ABB6" fill-rule="evenodd" d="M116.042 57.011v1.073A2.01 2.01 0 0 1 118 60.03v3.009a4.007 4.007 0 0 1-1.194 2.804A4.02 4.02 0 0 1 113.983 67h-3.966a4.02 4.02 0 0 1-2.823-1.157A4.007 4.007 0 0 1 106 63.039V60.09a2.007 2.007 0 0 1 2.008-2.006v-1.073a4.019 4.019 0 0 1 8.034 0Zm-2.597-1.418a2.007 2.007 0 0 0-3.428 1.418v1.073h4.016v-1.073c0-.532-.211-1.042-.588-1.418Zm1.991 8.822c.375-.366.593-.863.606-1.386V60.09h-7.983v2.939a2.004 2.004 0 0 0 2.008 1.955h3.966c.525 0 1.028-.204 1.403-.57Zm-2.701-.677a1.005 1.005 0 0 1-1.714-.71v-1.002a1.003 1.003 0 0 1 2.008 0v1.003c0 .266-.106.52-.294.709Z" clip-rule="evenodd"/><path fill="#E0E1E9" d="M144 79H80v2h64v-2Z" mask="url(#d)"/></svg>