<svg width="144" height="80" viewBox="0 0 144 80" fill="none" xmlns="http://www.w3.org/2000/svg">
<rect width="144" height="80" fill="white"/>
<path d="M0 0H144V28H0V0Z" fill="#F4F5F9"/>
<path d="M12.5284 10.4062V9.27273H19.2827V10.4062H16.5597V18H15.2472V10.4062H12.5284ZM20.7752 18V9.27273H22.092V13.0653H26.4428V9.27273H27.7638V18H26.4428V14.1946H22.092V18H20.7752Z" fill="#191B23"/>
<path d="M46 9C46.5523 9 47 9.44772 47 10C47 10.5523 46.5523 11 46 11H36C35.4477 11 35 10.5523 35 10C35 9.44772 35.4477 9 36 9H46Z" fill="#A9ABB6"/>
<path d="M43 14C43 13.4477 42.5523 13 42 13H36C35.4477 13 35 13.4477 35 14C35 14.5523 35.4477 15 36 15H42C42.5523 15 43 14.5523 43 14Z" fill="#A9ABB6"/>
<path d="M39 18C39 17.4477 38.5523 17 38 17H36C35.4477 17 35 17.4477 35 18C35 18.5523 35.4477 19 36 19H38C38.5523 19 39 18.5523 39 18Z" fill="#A9ABB6"/>
<path d="M144 27H0V29H144V27Z" fill="#E0E1E9"/>
<path d="M78.48 67.2237C79.3195 68.6777 81.2038 69.1951 82.4731 68.0962C84.8743 66.0171 86.6209 63.2533 87.4548 60.1411C88.5531 56.0422 87.9781 51.6749 85.8564 48C83.7347 44.3251 80.24 41.6435 76.1411 40.5452C73.029 39.7113 69.7621 39.842 66.761 40.882C65.1746 41.4317 64.6805 43.3223 65.52 44.7763V44.7763C66.3595 46.2303 68.2233 46.6746 69.8629 46.3129C71.4028 45.9732 73.0161 46.0023 74.5675 46.418C77.1088 47.099 79.2755 48.7615 80.591 51.04C81.9064 53.3185 82.2629 56.0262 81.582 58.5675C81.1663 60.1188 80.3848 61.5306 79.3207 62.6943C78.1877 63.9334 77.6405 65.7697 78.48 67.2237V67.2237Z" fill="#C4C7CF"/>
</svg>
