<svg xmlns="http://www.w3.org/2000/svg" width="144" height="80" fill="none"><path fill="#fff" d="M0 0h144v80H0z"/><mask id="a" fill="#fff"><path d="M0 0h144v28H0V0Z"/></mask><path fill="#fff" d="M0 0h144v28H0V0Z"/><path fill="#191B23" d="M12.528 10.406V9.273h6.755v1.133H16.56V18h-1.313v-7.594h-2.719ZM20.775 18V9.273h1.317v3.792h4.35V9.273h1.322V18h-1.321v-3.805h-4.351V18h-1.317Z"/><path fill="#E0E1E9" d="M144 27H0v2h144v-2Z" mask="url(#a)"/><path fill="#C4C7CF" d="M78.48 67.224c.84 1.454 2.724 1.971 3.993.872a16 16 0 0 0-15.712-27.214c-1.586.55-2.08 2.44-1.241 3.894.84 1.454 2.703 1.899 4.343 1.537a9.919 9.919 0 0 1 9.458 16.381c-1.133 1.24-1.68 3.076-.841 4.53Z"/></svg>