<svg width="144" height="80" viewBox="0 0 144 80" fill="none" xmlns="http://www.w3.org/2000/svg">
  <g filter="url(#a)">
    <path fill="#fff" d="M0 0h144v40H0z"/>
    <path d="m10.65 27-2.24-7.64h1.53l1.5 5.61h.07l1.5-5.6h1.54l1.5 5.58h.07l1.49-5.59h1.53L16.9 27h-1.52l-1.55-5.51h-.11L12.17 27h-1.52Zm11.56 0-2.25-7.64h1.54l1.5 5.61h.07l1.5-5.6h1.54l1.49 5.58h.07l1.49-5.59h1.53L28.45 27h-1.51l-1.56-5.51h-.11L23.72 27H22.2Zm11.55 0-2.25-7.64h1.54l1.5 5.61h.07l1.5-5.6h1.54l1.49 5.58h.07l1.5-5.59h1.53L40 27H38.5l-1.55-5.51h-.12L35.27 27h-1.51Zm10.9.1c-.28 0-.51-.1-.7-.3a.96.96 0 0 1-.3-.7c0-.27.1-.5.3-.7.19-.2.42-.29.7-.29.26 0 .5.1.7.3.19.19.29.42.29.69a1.03 1.03 0 0 1-.5.86.95.95 0 0 1-.5.13Zm4.45-10.28V27h-1.49V16.82h1.49Zm2 10.18v-7.64h1.49V27h-1.5Zm.75-8.81a.94.94 0 0 1-.67-.26.84.84 0 0 1-.27-.63c0-.24.1-.45.27-.63.19-.17.41-.26.67-.26.26 0 .48.09.66.26.19.18.28.39.28.63s-.1.45-.28.63a.93.93 0 0 1-.66.26Zm4.22 4.28V27H54.6v-7.64h1.42v1.25h.1c.17-.4.45-.73.82-.98.38-.24.86-.37 1.43-.37.52 0 .97.11 1.37.33.39.22.69.54.9.97.22.42.33.95.33 1.58V27h-1.49v-4.68c0-.55-.14-.98-.43-1.3a1.53 1.53 0 0 0-1.19-.47c-.34 0-.65.08-.92.23a1.6 1.6 0 0 0-.63.65c-.15.29-.23.63-.23 1.04Zm8.25 1.94-.01-1.81h.26l3.04-3.24h1.78l-3.47 3.68h-.23l-1.37 1.37ZM62.96 27V16.82h1.49V27h-1.49Zm4.82 0-2.73-3.63 1.02-1.04L69.61 27h-1.83Zm5.68-1.87c-.4 0-.76-.1-1.1-.3-.33-.2-.6-.46-.79-.79-.2-.33-.3-.7-.3-1.1 0-.4.1-.77.3-1.1a2.24 2.24 0 0 1 1.9-1.08 2.2 2.2 0 0 1 2.19 2.19 2.25 2.25 0 0 1-1.09 1.9c-.33.18-.7.28-1.1.28Zm7.41 0c-.4 0-.76-.1-1.1-.3-.33-.2-.59-.46-.79-.79-.2-.33-.3-.7-.3-1.1 0-.4.1-.77.3-1.1a2.24 2.24 0 0 1 1.9-1.08 2.2 2.2 0 0 1 2.19 2.19 2.24 2.24 0 0 1-1.09 1.9c-.33.18-.7.28-1.1.28Zm7.41 0c-.4 0-.76-.1-1.1-.3-.33-.2-.59-.46-.79-.79-.2-.33-.3-.7-.3-1.1 0-.4.1-.77.3-1.1a2.24 2.24 0 0 1 1.9-1.08 2.2 2.2 0 0 1 2.19 2.19 2.25 2.25 0 0 1-1.09 1.9c-.33.18-.7.28-1.1.28Zm8 2.02c-.76 0-1.4-.16-1.95-.48a3.27 3.27 0 0 1-1.25-1.37 4.62 4.62 0 0 1-.44-2.07c0-.78.15-1.47.44-2.07.3-.6.7-1.06 1.23-1.4a3.74 3.74 0 0 1 3.11-.29 3.03 3.03 0 0 1 1.85 1.87c.19.48.28 1.07.28 1.76v.53h-6.07v-1.11h4.62c0-.4-.08-.74-.24-1.04a1.8 1.8 0 0 0-1.68-.99c-.42 0-.78.1-1.1.31-.3.2-.54.47-.7.8a2.3 2.3 0 0 0-.26 1.05v.87c0 .52.1.95.27 1.3.18.37.44.64.76.83.33.18.7.28 1.14.28.28 0 .54-.04.77-.12a1.6 1.6 0 0 0 .99-.97l1.4.25c-.1.42-.3.78-.6 1.09-.29.3-.65.55-1.09.72-.43.17-.93.25-1.48.25Zm6.4-4.68V27h-1.48v-7.64h1.43v1.25h.1c.17-.4.44-.73.82-.98.38-.24.85-.37 1.43-.37.52 0 .97.11 1.36.33.4.22.7.54.91.97.22.42.33.95.33 1.58V27h-1.5v-4.68c0-.55-.14-.98-.42-1.3a1.53 1.53 0 0 0-1.2-.47c-.34 0-.64.08-.91.23a1.6 1.6 0 0 0-.63.65c-.16.29-.23.63-.23 1.04Zm9.75 4.68a2.96 2.96 0 0 1-2.79-1.83c-.27-.59-.4-1.3-.4-2.12 0-.83.13-1.53.4-2.12a2.97 2.97 0 0 1 2.79-1.81c.48 0 .86.07 1.15.23.3.16.52.34.68.55.16.2.29.4.38.55h.08v-3.78h1.5V27h-1.46v-1.19h-.12c-.1.16-.22.35-.4.56a2.17 2.17 0 0 1-1.81.78Zm.33-1.27c.42 0 .78-.11 1.08-.34.3-.23.52-.54.68-.95.15-.4.23-.87.23-1.4 0-.54-.08-1-.23-1.4-.15-.4-.38-.7-.67-.93-.3-.22-.66-.33-1.1-.33-.44 0-.81.11-1.11.34-.3.24-.53.55-.68.95-.15.4-.22.86-.22 1.36 0 .51.07.97.23 1.38.15.4.37.73.67.97.3.23.68.35 1.12.35Zm5.57 1.12v-7.64h1.49V27h-1.49Zm.75-8.81a.94.94 0 0 1-.66-.26.84.84 0 0 1-.28-.63.93.93 0 0 1 .94-.89c.26 0 .48.09.67.26.18.18.27.39.27.63s-.09.45-.27.63a.93.93 0 0 1-.67.26Zm4.23 4.28V27h-1.49v-7.64h1.43v1.25h.1c.17-.4.44-.73.82-.98.37-.24.85-.37 1.42-.37.52 0 .98.11 1.37.33.4.22.7.54.91.97.22.42.32.95.32 1.58V27h-1.48v-4.68c0-.55-.15-.98-.44-1.3a1.53 1.53 0 0 0-1.18-.47c-.35 0-.66.08-.92.23-.27.14-.48.36-.64.65-.15.29-.22.63-.22 1.04Zm10.08 7.55a4.6 4.6 0 0 1-1.57-.24 3.03 3.03 0 0 1-1.06-.63 2.64 2.64 0 0 1-.62-.86l1.28-.52c.09.14.2.3.36.46.15.16.36.3.61.42.27.12.6.17 1.01.17.57 0 1.03-.13 1.4-.4.37-.28.55-.71.55-1.31v-1.5h-.1c-.08.16-.21.34-.38.54s-.4.37-.69.52c-.29.14-.67.22-1.14.22a3 3 0 0 1-2.77-1.68 4.57 4.57 0 0 1-.42-2.06c0-.81.14-1.5.42-2.09a2.97 2.97 0 0 1 2.79-1.8c.47 0 .85.08 1.14.24.3.16.52.34.69.55.16.2.29.4.38.55h.1v-1.24h1.46v7.8c0 .67-.15 1.2-.45 1.62-.3.43-.72.74-1.24.94-.52.2-1.1.3-1.75.3Zm-.02-4.37c.43 0 .8-.1 1.09-.3.3-.2.52-.49.67-.86.16-.38.24-.83.24-1.36 0-.51-.08-.96-.23-1.36-.15-.39-.38-.7-.67-.91-.3-.22-.66-.33-1.1-.33-.44 0-.82.11-1.12.34-.3.23-.52.55-.67.94-.15.4-.23.83-.23 1.32 0 .5.08.94.23 1.32.16.38.38.67.68.88.3.22.67.32 1.11.32Z" fill="#006DCA"/>
  </g>
  <g filter="url(#b)">
    <path fill="#fff" d="M0 40h144v40H0z"/>
    <path d="m10.65 67-2.24-7.64h1.53l1.5 5.61h.07l1.5-5.6h1.54l1.5 5.58h.07l1.49-5.59h1.53L16.9 67h-1.52l-1.55-5.51h-.11L12.17 67h-1.52Zm11.56 0-2.25-7.64h1.54l1.5 5.61h.07l1.5-5.6h1.54l1.49 5.58h.07l1.49-5.59h1.53L28.45 67h-1.51l-1.56-5.51h-.11L23.72 67H22.2Zm11.55 0-2.25-7.64h1.54l1.5 5.61h.07l1.5-5.6h1.54l1.49 5.58h.07l1.5-5.59h1.53L40 67H38.5l-1.55-5.51h-.12L35.27 67h-1.51Zm10.9.1c-.28 0-.51-.1-.7-.3a.96.96 0 0 1-.3-.7c0-.27.1-.5.3-.7.19-.2.42-.29.7-.29.26 0 .5.1.7.3.19.19.29.42.29.69a1.03 1.03 0 0 1-.5.86.95.95 0 0 1-.5.13Zm4.45-10.28V67h-1.49V56.82h1.49Zm5.22 10.33a3.32 3.32 0 0 1-3.12-1.87 4.57 4.57 0 0 1-.44-2.06c0-.8.14-1.49.44-2.08a3.31 3.31 0 0 1 3.12-1.88 3.31 3.31 0 0 1 3.12 1.87c.29.6.43 1.3.43 2.09 0 .79-.14 1.47-.44 2.06a3.32 3.32 0 0 1-3.11 1.87Zm0-1.24c.46 0 .85-.13 1.15-.37.3-.25.53-.57.68-.98.15-.4.22-.86.22-1.35 0-.49-.07-.93-.22-1.34a2.19 2.19 0 0 0-.68-.99c-.3-.25-.69-.37-1.15-.37-.47 0-.85.12-1.16.37-.3.25-.54.58-.68.99-.15.4-.22.85-.22 1.34 0 .5.07.94.22 1.35.14.4.37.73.68.98.3.24.7.37 1.16.37Zm6.7-3.44V67h-1.49v-7.64h1.43v1.25h.1c.17-.4.45-.73.82-.98.38-.24.85-.37 1.43-.37.52 0 .97.11 1.36.33.4.22.7.54.91.97.22.42.33.95.33 1.58V67h-1.49v-4.68c0-.55-.14-.98-.43-1.3a1.53 1.53 0 0 0-1.19-.47c-.34 0-.65.08-.92.23a1.6 1.6 0 0 0-.63.65c-.15.29-.23.63-.23 1.04Zm10.08 7.55a4.6 4.6 0 0 1-1.56-.24 3.03 3.03 0 0 1-1.07-.63 2.65 2.65 0 0 1-.61-.86l1.27-.52c.1.14.21.3.36.46.15.16.36.3.62.42s.6.17 1 .17c.57 0 1.04-.13 1.4-.4.37-.28.56-.71.56-1.31v-1.5h-.1c-.09.16-.22.34-.39.54-.16.2-.39.37-.68.52-.3.14-.67.22-1.14.22A3 3 0 0 1 68 65.2a4.56 4.56 0 0 1-.42-2.06c0-.81.14-1.5.41-2.09a2.97 2.97 0 0 1 2.79-1.8c.47 0 .86.08 1.15.24.29.16.52.34.68.55.17.2.3.4.38.55h.11v-1.24h1.46v7.8c0 .67-.15 1.2-.46 1.62-.3.43-.72.74-1.24.94-.51.2-1.1.3-1.75.3Zm-.01-4.37c.43 0 .79-.1 1.08-.3.3-.2.53-.49.68-.86.15-.38.23-.83.23-1.36 0-.51-.07-.96-.23-1.36-.15-.39-.37-.7-.67-.91-.3-.22-.66-.33-1.1-.33-.44 0-.81.11-1.11.34-.3.23-.52.55-.68.94-.15.4-.22.83-.22 1.32 0 .5.08.94.23 1.32.15.38.38.67.67.88.3.22.68.32 1.12.32Zm6.94-8.83V67h-1.49V56.82h1.49Zm2 10.18v-7.64h1.48V67h-1.48Zm.75-8.81a.94.94 0 0 1-.67-.26.84.84 0 0 1-.27-.63c0-.24.1-.45.27-.63.19-.17.41-.26.67-.26.26 0 .48.09.66.26.19.18.28.39.28.63s-.1.45-.28.63a.93.93 0 0 1-.66.26ZM85 62.47V67h-1.49v-7.64h1.43v1.25h.1c.17-.4.45-.73.82-.98.38-.24.85-.37 1.43-.37.52 0 .97.11 1.37.33.39.22.69.54.9.97.22.42.33.95.33 1.58V67H88.4v-4.68c0-.55-.14-.98-.43-1.3a1.53 1.53 0 0 0-1.19-.47c-.34 0-.65.08-.92.23a1.6 1.6 0 0 0-.63.65c-.15.29-.23.63-.23 1.04Zm8.25 1.94-.01-1.81h.26l3.04-3.24h1.78l-3.47 3.68h-.23l-1.37 1.37ZM91.89 67V56.82h1.49V67h-1.49Zm4.82 0-2.73-3.63L95 62.33 98.54 67H96.7Zm5.68-1.87c-.4 0-.76-.1-1.1-.3-.33-.2-.6-.46-.79-.79-.2-.33-.3-.7-.3-1.1 0-.4.1-.77.3-1.1a2.24 2.24 0 0 1 1.9-1.08 2.2 2.2 0 0 1 2.19 2.19 2.25 2.25 0 0 1-1.09 1.9c-.33.18-.7.28-1.1.28Zm7.42 0c-.4 0-.77-.1-1.1-.3a2.13 2.13 0 0 1-1.09-1.9c0-.4.1-.76.29-1.09a2.24 2.24 0 0 1 1.9-1.08 2.2 2.2 0 0 1 2.19 2.19 2.25 2.25 0 0 1-1.09 1.9c-.33.18-.7.28-1.1.28Zm7.4 0c-.4 0-.76-.1-1.1-.3a2.3 2.3 0 0 1-.79-.79c-.2-.33-.3-.7-.3-1.1 0-.4.1-.77.3-1.1a2.25 2.25 0 0 1 1.9-1.08 2.2 2.2 0 0 1 2.19 2.19 2.25 2.25 0 0 1-1.09 1.9c-.33.18-.7.28-1.1.28Z" fill="#006DCA"/>
  </g>
  <defs>
    <filter id="a" x="0" y="0" width="144" height="40" filterUnits="userSpaceOnUse" color-interpolation-filters="sRGB">
      <feFlood flood-opacity="0" result="BackgroundImageFix"/>
      <feBlend in="SourceGraphic" in2="BackgroundImageFix" result="shape"/>
      <feColorMatrix in="SourceAlpha" values="0 0 0 0 0 0 0 0 0 0 0 0 0 0 0 0 0 0 127 0" result="hardAlpha"/>
      <feOffset dy="-1"/>
      <feComposite in2="hardAlpha" operator="arithmetic" k2="-1" k3="1"/>
      <feColorMatrix values="0 0 0 0 0.878431 0 0 0 0 0.882353 0 0 0 0 0.913725 0 0 0 1 0"/>
      <feBlend in2="shape" result="effect1_innerShadow_764_59287"/>
    </filter>
    <filter id="b" x="0" y="40" width="144" height="40" filterUnits="userSpaceOnUse" color-interpolation-filters="sRGB">
      <feFlood flood-opacity="0" result="BackgroundImageFix"/>
      <feBlend in="SourceGraphic" in2="BackgroundImageFix" result="shape"/>
      <feColorMatrix in="SourceAlpha" values="0 0 0 0 0 0 0 0 0 0 0 0 0 0 0 0 0 0 127 0" result="hardAlpha"/>
      <feOffset dy="-1"/>
      <feComposite in2="hardAlpha" operator="arithmetic" k2="-1" k3="1"/>
      <feColorMatrix values="0 0 0 0 0.878431 0 0 0 0 0.882353 0 0 0 0 0.913725 0 0 0 1 0"/>
      <feBlend in2="shape" result="effect1_innerShadow_764_59287"/>
    </filter>
  </defs>
</svg>
