<svg width="144" height="80" viewBox="0 0 144 80" fill="none" xmlns="http://www.w3.org/2000/svg">
  <path d="M72 40h72v40H72V40Z" fill="#F4F5F9"/>
  <path d="M84.53 56.4v-1.13h6.75v1.14h-2.72V64h-1.31v-7.6h-2.72Zm8.25 7.6v-8.73h1.31v3.8h4.35v-3.8h1.32V64h-1.32v-3.8H94.1V64h-1.31Z" fill="#191B23"/>
  <path d="M118 55a1 1 0 0 1 0 2h-10a1 1 0 0 1 0-2h10ZM115 60a1 1 0 0 0-1-1h-6a1 1 0 0 0 0 2h6a1 1 0 0 0 1-1ZM111 64a1 1 0 0 0-1-1h-2a1 1 0 0 0 0 2h2a1 1 0 0 0 1-1Z" fill="#A9ABB6"/>
  <path d="M144 79H72v2h72v-2Z" fill="#E0E1E9"/>
  <g filter="url(#a)">
    <path fill="#F4F5F9" d="M0 40h72v40H0z"/>
    <path d="M12.53 56.4v-1.13h6.75v1.14h-2.72V64h-1.31v-7.6h-2.72Zm8.25 7.6v-8.73h1.31v3.8h4.35v-3.8h1.32V64h-1.32v-3.8H22.1V64h-1.31Z" fill="#191B23"/>
    <path d="M46 55a1 1 0 1 1 0 2H36a1 1 0 1 1 0-2h10ZM43 60a1 1 0 0 0-1-1h-6a1 1 0 1 0 0 2h6a1 1 0 0 0 1-1ZM39 64a1 1 0 0 0-1-1h-2a1 1 0 1 0 0 2h2a1 1 0 0 0 1-1Z" fill="#A9ABB6"/>
  </g>
  <path d="M0 0h144v40H0V0Z" fill="#F4F5F9"/>
  <path d="M20.2 18.11h-1.32a2.03 2.03 0 0 0-.8-1.3 2.2 2.2 0 0 0-.68-.34 2.64 2.64 0 0 0-2.14.26c-.4.26-.7.63-.93 1.12a4.23 4.23 0 0 0-.34 1.79c0 .7.1 1.3.34 1.8.23.48.54.85.94 1.1.4.25.84.38 1.34.38.28 0 .54-.04.78-.11.25-.08.48-.2.68-.34a2.07 2.07 0 0 0 .8-1.28h1.34a3.56 3.56 0 0 1-1.2 2.12c-.31.25-.67.45-1.08.6a4 4 0 0 1-1.33.2c-.75 0-1.43-.17-2.02-.53a3.76 3.76 0 0 1-1.4-1.54 5.27 5.27 0 0 1-.5-2.4c0-.94.17-1.74.5-2.4a3.73 3.73 0 0 1 3.42-2.09c.47 0 .9.07 1.3.2a3.42 3.42 0 0 1 1.88 1.51c.21.37.35.78.43 1.25Zm4.24 6.02a2.84 2.84 0 0 1-2.67-1.6c-.26-.5-.38-1.1-.38-1.77 0-.68.12-1.28.38-1.78a2.84 2.84 0 0 1 2.67-1.61 2.84 2.84 0 0 1 2.67 1.6c.25.51.38 1.1.38 1.79 0 .67-.13 1.26-.38 1.77a2.84 2.84 0 0 1-2.67 1.6Zm0-1.07c.4 0 .73-.1 1-.31.25-.21.45-.5.57-.84.13-.35.2-.74.2-1.16 0-.41-.07-.8-.2-1.15a1.87 1.87 0 0 0-.58-.85c-.26-.2-.59-.32-.99-.32s-.73.11-1 .32c-.26.22-.45.5-.58.85a3.4 3.4 0 0 0-.19 1.15c0 .42.07.8.2 1.16.12.35.31.63.57.84.27.2.6.31 1 .31Zm5.75-7.79V24H28.9v-8.73h1.28Zm7.63 11.32c-.52 0-.97-.07-1.34-.2a2.6 2.6 0 0 1-.91-.54 2.27 2.27 0 0 1-.53-.74l1.1-.45c.07.12.17.25.3.4.13.13.3.26.53.35.22.1.51.15.86.15.49 0 .88-.11 1.2-.35.32-.23.47-.6.47-1.12v-1.28h-.08c-.07.14-.19.3-.33.46a1.8 1.8 0 0 1-.59.44 2.73 2.73 0 0 1-2.37-.17c-.41-.24-.74-.6-.98-1.08a3.9 3.9 0 0 1-.36-1.76c0-.7.12-1.3.35-1.79a2.55 2.55 0 0 1 2.4-1.54c.4 0 .73.07.98.2.25.14.44.3.58.47.14.18.25.34.33.48h.1v-1.07h1.24v6.7a2.3 2.3 0 0 1-.39 1.38 2.3 2.3 0 0 1-1.06.8 4.1 4.1 0 0 1-1.5.26Zm-.01-3.74c.36 0 .67-.09.93-.26.25-.17.44-.42.58-.74.13-.33.2-.71.2-1.17 0-.44-.07-.82-.2-1.16-.13-.33-.32-.6-.58-.78a1.51 1.51 0 0 0-.93-.29c-.39 0-.7.1-.96.3-.26.2-.45.46-.58.8-.13.34-.2.72-.2 1.13 0 .43.07.81.2 1.13.13.33.33.58.58.76.26.18.58.28.96.28ZM42.48 24v-6.55h1.23v1.04h.07c.12-.35.33-.62.63-.83.3-.2.65-.3 1.03-.3a5.43 5.43 0 0 1 .54.03v1.22a2.61 2.61 0 0 0-.66-.08c-.3 0-.57.06-.8.19a1.43 1.43 0 0 0-.76 1.28v4h-1.28Zm7.13.13a2.84 2.84 0 0 1-2.67-1.6c-.25-.5-.38-1.1-.38-1.77 0-.68.13-1.28.38-1.78a2.84 2.84 0 0 1 2.67-1.61 2.84 2.84 0 0 1 2.67 1.6c.25.51.38 1.1.38 1.79 0 .67-.13 1.26-.38 1.77a2.84 2.84 0 0 1-2.67 1.6Zm0-1.07c.4 0 .73-.1 1-.31.25-.21.45-.5.57-.84.13-.35.2-.74.2-1.16 0-.41-.07-.8-.2-1.15a1.87 1.87 0 0 0-.58-.85c-.26-.2-.59-.32-.99-.32s-.73.11-1 .32c-.25.22-.45.5-.58.85a3.4 3.4 0 0 0-.18 1.15c0 .42.06.8.18 1.16.13.35.33.63.59.84.26.2.6.31 1 .31Zm8.62-1.77v-3.84h1.28V24h-1.25v-1.13h-.07c-.15.35-.4.64-.73.87a2.1 2.1 0 0 1-1.23.35 1.95 1.95 0 0 1-1.88-1.1 3.04 3.04 0 0 1-.27-1.37v-4.17h1.28v4.01c0 .45.12.8.37 1.07.25.26.57.4.96.4a1.56 1.56 0 0 0 1.3-.72c.16-.25.24-.55.24-.92Zm2.99 5.16v-9h1.24v1.07h.11c.07-.14.18-.3.32-.48s.33-.33.58-.47c.25-.13.57-.2.98-.2a2.56 2.56 0 0 1 2.4 1.55c.23.5.35 1.11.35 1.82 0 .7-.12 1.31-.36 1.82a2.52 2.52 0 0 1-2.38 1.57 1.85 1.85 0 0 1-1.56-.67 3.54 3.54 0 0 1-.33-.48h-.08v3.47h-1.27Zm1.25-5.72c0 .46.07.86.2 1.2.13.35.33.63.58.82.25.2.56.3.93.3.38 0 .7-.11.95-.31.26-.2.45-.48.58-.83.13-.35.2-.75.2-1.18 0-.43-.06-.82-.2-1.17a1.78 1.78 0 0 0-.57-.81c-.26-.2-.58-.3-.96-.3-.37 0-.68.1-.94.29-.25.19-.44.45-.58.8-.13.34-.2.73-.2 1.19Zm10.6-.62V24H71.8v-6.55h1.22v1.07h.09c.15-.35.38-.63.7-.84a2.2 2.2 0 0 1 1.23-.31c.44 0 .83.1 1.17.28.33.19.6.46.78.83a3 3 0 0 1 .27 1.36V24H76v-4.01c0-.47-.12-.85-.37-1.11-.25-.27-.59-.4-1.02-.4-.3 0-.56.06-.79.18-.22.13-.4.32-.54.57-.13.24-.2.54-.2.88Zm7.8 4.03c-.4 0-.78-.07-1.12-.23a1.9 1.9 0 0 1-.8-.67c-.19-.3-.28-.66-.28-1.09 0-.37.07-.67.21-.91.14-.24.33-.43.58-.57a3 3 0 0 1 .8-.31c.3-.07.6-.13.92-.17l.95-.1c.25-.04.42-.09.53-.16.11-.06.17-.17.17-.33v-.03c0-.37-.1-.66-.32-.86-.2-.2-.51-.3-.92-.3-.43 0-.77.09-1.02.28-.24.18-.41.4-.5.62l-1.2-.27a2.3 2.3 0 0 1 1.57-1.5 3.7 3.7 0 0 1 1.96-.08c.3.06.57.17.83.34.26.16.47.39.63.69.17.3.25.69.25 1.16V24h-1.25v-.9h-.05c-.08.17-.2.33-.37.5-.16.15-.37.28-.63.39-.26.1-.57.15-.93.15Zm.29-1.02c.35 0 .65-.07.9-.2a1.46 1.46 0 0 0 .77-1.28v-.84a.66.66 0 0 1-.26.12c-.13.04-.27.07-.44.1a53.1 53.1 0 0 1-.87.12c-.25.04-.48.09-.68.16-.2.08-.36.18-.49.32a.8.8 0 0 0-.17.55c0 .31.11.55.34.71.24.16.53.24.9.24Zm4.65.88v-6.55h1.22v1.07h.08c.14-.36.36-.64.67-.84.3-.2.68-.31 1.11-.31.44 0 .8.1 1.1.3.3.21.52.5.66.85h.07c.16-.35.4-.63.74-.84.35-.2.75-.31 1.22-.31.6 0 1.08.19 1.46.56.37.37.56.93.56 1.68V24h-1.27v-4.27c0-.44-.12-.76-.36-.96-.24-.2-.53-.3-.87-.3-.41 0-.74.13-.97.38a1.4 1.4 0 0 0-.34.98V24h-1.27v-4.35c0-.36-.11-.64-.33-.86a1.19 1.19 0 0 0-.87-.32c-.24 0-.46.06-.67.2-.2.12-.36.29-.49.51a1.6 1.6 0 0 0-.18.78V24h-1.27Zm13.42.13c-.64 0-1.2-.14-1.66-.41a2.8 2.8 0 0 1-1.08-1.17c-.25-.5-.37-1.1-.37-1.78 0-.67.12-1.26.37-1.77.26-.51.6-.91 1.06-1.2a3.21 3.21 0 0 1 2.67-.25 2.6 2.6 0 0 1 1.58 1.6c.16.41.24.92.24 1.5v.46h-5.2v-.95h3.95c0-.34-.07-.64-.2-.9a1.55 1.55 0 0 0-1.44-.84c-.36 0-.67.09-.94.27-.26.17-.46.4-.61.68-.14.28-.21.58-.21.9v.75c0 .44.07.81.23 1.12.15.3.37.54.65.7.28.16.6.24.98.24.24 0 .46-.03.66-.1s.37-.18.51-.32c.15-.14.26-.3.33-.51l1.21.21c-.1.36-.27.67-.52.94-.25.26-.56.47-.93.61-.38.15-.8.22-1.28.22Z" fill="#191B23"/>
  <path d="M144 39H0v2h144v-2Z" fill="#E0E1E9"/>
  <defs>
    <filter id="a" x="0" y="40" width="72" height="40" filterUnits="userSpaceOnUse" color-interpolation-filters="sRGB">
      <feFlood flood-opacity="0" result="BackgroundImageFix"/>
      <feBlend in="SourceGraphic" in2="BackgroundImageFix" result="shape"/>
      <feColorMatrix in="SourceAlpha" values="0 0 0 0 0 0 0 0 0 0 0 0 0 0 0 0 0 0 127 0" result="hardAlpha"/>
      <feOffset dy="-1"/>
      <feComposite in2="hardAlpha" operator="arithmetic" k2="-1" k3="1"/>
      <feColorMatrix values="0 0 0 0 0.878431 0 0 0 0 0.882353 0 0 0 0 0.913725 0 0 0 1 0"/>
      <feBlend in2="shape" result="effect1_innerShadow_764_60103"/>
      <feColorMatrix in="SourceAlpha" values="0 0 0 0 0 0 0 0 0 0 0 0 0 0 0 0 0 0 127 0" result="hardAlpha"/>
      <feOffset dx="-1" dy="-1"/>
      <feComposite in2="hardAlpha" operator="arithmetic" k2="-1" k3="1"/>
      <feColorMatrix values="0 0 0 0 0.878431 0 0 0 0 0.882353 0 0 0 0 0.913725 0 0 0 1 0"/>
      <feBlend in2="effect1_innerShadow_764_60103" result="effect2_innerShadow_764_60103"/>
    </filter>
  </defs>
</svg>
