<svg xmlns="http://www.w3.org/2000/svg" width="144" height="80" fill="none"><mask id="a" fill="#fff"><path d="M72 40h72v40H72V40Z"/></mask><path fill="#F4F5F9" d="M72 40h72v40H72V40Z"/><path fill="#191B23" d="M84.528 56.406v-1.133h6.755v1.133H88.56V64h-1.313v-7.594h-2.719ZM92.775 64v-8.727h1.317v3.792h4.35v-3.792h1.322V64h-1.321v-3.805h-4.351V64h-1.317Z"/><path fill="#E0E1E9" d="M144 80v1h1v-1h-1Zm-1-40v40h2V40h-2Zm1 39H72v2h72v-2Z" mask="url(#a)"/><mask id="b" fill="#fff"><path d="M0 40h72v40H0V40Z"/></mask><path fill="#F4F5F9" d="M0 40h72v40H0V40Z"/><path fill="#191B23" d="M12.528 56.406v-1.133h6.755v1.133H16.56V64h-1.313v-7.594h-2.719ZM20.775 64v-8.727h1.317v3.792h4.35v-3.792h1.322V64h-1.321v-3.805h-4.351V64h-1.317Z"/><path fill="#E0E1E9" d="M72 79H0v2h72v-2Z" mask="url(#b)"/><mask id="c" fill="#fff"><path d="M0 0h144v40H0V0Z"/></mask><path fill="#F4F5F9" d="M0 0h144v40H0V0Z"/><path fill="#191B23" d="M20.207 18.11h-1.33a2.032 2.032 0 0 0-.796-1.299 2.202 2.202 0 0 0-.678-.34 2.645 2.645 0 0 0-.788-.116c-.503 0-.953.127-1.35.38-.396.252-.708.623-.938 1.112-.228.488-.341 1.085-.341 1.79 0 .71.113 1.309.34 1.798.23.488.545.858.942 1.108.398.25.846.375 1.343.375.275 0 .537-.037.784-.111.25-.077.476-.19.677-.337a2.038 2.038 0 0 0 .805-1.283l1.33.005a3.559 3.559 0 0 1-.413 1.184 3.269 3.269 0 0 1-.78.93 3.525 3.525 0 0 1-1.082.6c-.406.142-.85.213-1.33.213-.755 0-1.429-.179-2.02-.537-.59-.36-1.056-.876-1.397-1.547-.338-.67-.507-1.47-.507-2.399 0-.931.17-1.731.51-2.399.342-.67.808-1.184 1.399-1.542.59-.361 1.262-.542 2.015-.542.463 0 .895.067 1.296.2.403.131.765.325 1.086.58.321.253.587.563.797.93.21.363.353.779.426 1.248Zm4.23 6.022c-.613 0-1.148-.14-1.606-.422a2.844 2.844 0 0 1-1.065-1.18c-.253-.506-.38-1.097-.38-1.773 0-.679.127-1.273.38-1.781a2.838 2.838 0 0 1 1.065-1.185c.458-.281.993-.422 1.607-.422s1.149.14 1.606.422c.458.281.813.676 1.066 1.185.253.508.379 1.102.379 1.781 0 .676-.126 1.267-.38 1.773-.252.505-.607.899-1.065 1.18-.457.281-.992.422-1.606.422Zm.005-1.07c.398 0 .727-.105.989-.315.261-.21.454-.49.58-.84a3.34 3.34 0 0 0 .191-1.154c0-.418-.064-.801-.192-1.15a1.874 1.874 0 0 0-.58-.849c-.26-.213-.59-.32-.988-.32-.4 0-.733.107-.997.32a1.903 1.903 0 0 0-.584.848c-.125.35-.187.733-.187 1.15 0 .421.062.806.187 1.156.128.35.323.629.584.84.264.21.596.314.997.314Zm5.743-7.79V24h-1.274v-8.727h1.274Zm7.635 11.319c-.52 0-.968-.068-1.343-.205a2.6 2.6 0 0 1-.912-.54 2.274 2.274 0 0 1-.528-.738l1.095-.452c.077.125.18.257.307.397.13.142.307.262.528.362.225.1.513.149.865.149.483 0 .883-.118 1.198-.354.315-.233.473-.605.473-1.116v-1.287h-.081c-.077.139-.188.294-.332.464-.143.17-.339.319-.589.444-.25.125-.575.187-.975.187-.518 0-.983-.12-1.398-.362-.412-.244-.739-.604-.98-1.078-.239-.478-.358-1.064-.358-1.76s.118-1.293.354-1.79c.238-.497.565-.878.98-1.142.414-.267.884-.4 1.41-.4.406 0 .735.067.985.204.25.133.444.29.583.469.142.179.252.336.328.473h.094v-1.061h1.249v6.69c0 .562-.131 1.024-.392 1.385-.262.36-.615.628-1.061.801-.444.173-.944.26-1.5.26Zm-.013-3.746c.366 0 .676-.085.929-.255.256-.174.449-.421.58-.742.133-.324.2-.712.2-1.163 0-.44-.066-.828-.196-1.164a1.729 1.729 0 0 0-.576-.784c-.252-.19-.565-.285-.937-.285-.384 0-.703.1-.959.298a1.798 1.798 0 0 0-.58.801 3.183 3.183 0 0 0-.191 1.134c0 .429.065.805.196 1.129.13.324.324.577.58.758.258.182.576.273.954.273ZM42.48 24v-6.546h1.232v1.04h.068c.12-.352.33-.629.63-.83a1.805 1.805 0 0 1 1.032-.308 5.432 5.432 0 0 1 .541.03v1.22a2.299 2.299 0 0 0-.272-.048c-.131-.02-.262-.03-.392-.03-.301 0-.57.064-.806.192a1.425 1.425 0 0 0-.758 1.283V24H42.48Zm7.129.132c-.614 0-1.15-.14-1.607-.422a2.844 2.844 0 0 1-1.065-1.18c-.253-.506-.38-1.097-.38-1.773 0-.679.127-1.273.38-1.781a2.838 2.838 0 0 1 1.065-1.185c.458-.281.993-.422 1.607-.422.613 0 1.149.14 1.606.422.458.281.813.676 1.066 1.185.252.508.379 1.102.379 1.781 0 .676-.127 1.267-.38 1.773-.252.505-.607.899-1.065 1.18-.457.281-.993.422-1.606.422Zm.004-1.07c.398 0 .727-.105.989-.315.261-.21.454-.49.58-.84a3.34 3.34 0 0 0 .19-1.154c0-.418-.063-.801-.19-1.15a1.874 1.874 0 0 0-.58-.849c-.262-.213-.591-.32-.989-.32-.4 0-.733.107-.997.32a1.905 1.905 0 0 0-.584.848c-.125.35-.188.733-.188 1.15 0 .421.063.806.188 1.156.128.35.322.629.584.84.264.21.596.314.997.314Zm8.615-1.777v-3.83h1.279V24h-1.253v-1.134h-.068c-.15.35-.392.641-.725.874-.33.23-.74.345-1.231.345-.42 0-.793-.092-1.117-.277a1.946 1.946 0 0 1-.758-.83c-.182-.367-.273-.82-.273-1.36v-4.163h1.274v4.01c0 .445.124.8.371 1.065.247.264.568.396.963.396.239 0 .476-.06.712-.179a1.5 1.5 0 0 0 .592-.541c.16-.241.237-.548.234-.92Zm2.99 5.17v-9h1.245v1.06h.107a3.56 3.56 0 0 1 .32-.472c.139-.18.332-.336.579-.47.247-.136.574-.204.98-.204.528 0 1 .134 1.415.4.415.268.74.653.976 1.156.238.503.358 1.108.358 1.815 0 .707-.118 1.314-.354 1.82-.236.503-.56.89-.972 1.163-.412.27-.882.405-1.41.405-.398 0-.723-.067-.976-.2a1.847 1.847 0 0 1-.588-.47 3.544 3.544 0 0 1-.328-.476h-.077v3.473H61.22Zm1.25-5.728c0 .46.066.864.2 1.21.133.347.326.618.58.814.252.194.562.29.928.29.38 0 .7-.1.955-.302.255-.205.449-.482.58-.831.133-.35.2-.743.2-1.18 0-.433-.066-.82-.196-1.164a1.782 1.782 0 0 0-.58-.814c-.256-.199-.575-.298-.959-.298-.37 0-.682.095-.937.285-.253.19-.445.456-.576.797-.13.341-.196.739-.196 1.193Zm10.607-.613V24h-1.274v-6.546h1.223v1.066h.08c.151-.347.387-.625.708-.835.324-.21.732-.316 1.223-.316.446 0 .837.094 1.172.282.335.184.595.46.78.826.185.367.277.82.277 1.36V24H75.99v-4.01c0-.474-.124-.845-.371-1.112-.247-.27-.587-.405-1.018-.405-.296 0-.559.064-.789.192a1.378 1.378 0 0 0-.541.562c-.13.245-.196.54-.196.887Zm7.803 4.03c-.415 0-.79-.076-1.125-.23a1.895 1.895 0 0 1-.797-.677c-.194-.295-.29-.657-.29-1.086 0-.37.07-.674.213-.912.142-.239.334-.428.575-.567.242-.14.512-.244.81-.316a8.05 8.05 0 0 1 .912-.161l.954-.111c.245-.031.422-.081.533-.15.11-.068.166-.178.166-.332v-.03c0-.372-.105-.66-.315-.865-.207-.204-.517-.306-.93-.306-.428 0-.766.095-1.013.285a1.528 1.528 0 0 0-.507.627l-1.198-.273c.142-.398.35-.719.622-.963.276-.248.593-.426.95-.537.359-.114.735-.17 1.13-.17.261 0 .538.03.83.093.296.06.572.17.828.332.258.162.47.394.635.695.164.298.247.686.247 1.163V24h-1.245v-.895h-.05a1.814 1.814 0 0 1-.371.486c-.165.159-.377.291-.635.396a2.463 2.463 0 0 1-.93.158Zm.276-1.022c.353 0 .654-.07.904-.209.253-.139.445-.32.575-.545.134-.227.2-.47.2-.729v-.843a.665.665 0 0 1-.264.127 4.11 4.11 0 0 1-.439.098c-.164.026-.325.05-.481.073l-.392.05a3.153 3.153 0 0 0-.678.159c-.201.073-.363.18-.486.32-.119.136-.178.317-.178.545 0 .315.116.554.349.716.233.159.53.238.89.238Zm4.65.878v-6.546h1.224v1.066h.08c.137-.36.36-.642.67-.844.31-.204.68-.307 1.112-.307.438 0 .804.103 1.1.307.298.205.518.486.66.844h.068c.156-.35.405-.628.746-.835.34-.21.747-.316 1.219-.316.593 0 1.078.186 1.453.559.378.372.567.933.567 1.683V24h-1.275v-4.27c0-.443-.12-.764-.362-.963a1.318 1.318 0 0 0-.865-.298c-.415 0-.737.128-.967.383-.23.253-.345.578-.345.976V24h-1.27v-4.35c0-.356-.111-.641-.333-.857-.221-.216-.51-.324-.865-.324-.241 0-.464.064-.669.191-.201.125-.365.3-.49.525a1.606 1.606 0 0 0-.183.78V24h-1.274Zm13.427.132c-.645 0-1.2-.138-1.666-.413a2.804 2.804 0 0 1-1.074-1.172c-.25-.506-.375-1.098-.375-1.777 0-.67.125-1.261.375-1.773.253-.511.605-.91 1.057-1.197.455-.287.986-.43 1.594-.43.37 0 .727.06 1.074.183.346.122.657.313.933.575.275.261.493.6.652 1.018.159.415.238.92.238 1.513v.452h-5.203v-.955h3.955c0-.335-.068-.632-.205-.89a1.545 1.545 0 0 0-.575-.618 1.608 1.608 0 0 0-.86-.226c-.359 0-.671.088-.938.264-.264.173-.469.4-.614.682a1.969 1.969 0 0 0-.213.908v.745c0 .438.077.81.23 1.117.156.307.374.541.652.703.279.159.604.238.976.238.242 0 .462-.034.66-.102a1.373 1.373 0 0 0 .849-.831l1.206.218c-.097.355-.27.666-.52.933a2.53 2.53 0 0 1-.934.618 3.49 3.49 0 0 1-1.274.217Z"/><path fill="#E0E1E9" d="M143 0v40h2V0h-2Z" mask="url(#c)"/></svg>