<svg xmlns="http://www.w3.org/2000/svg" width="144" height="80" fill="none"><path fill="#fff" d="M0 0h144v80H0z"/><rect width="80" height="8" x="32" y="51" fill="#E0E1E9" fill-opacity=".8" rx="4"/><rect width="48" height="8" x="48" y="67" fill="#E0E1E9" fill-opacity=".8" rx="4"/><path fill="#A9ABB6" fill-rule="evenodd" d="M93 4H51a3 3 0 0 0-3 3v33a3 3 0 0 0 3 3h42a3 3 0 0 0 3-3V7a3 3 0 0 0-3-3ZM49.5 7A1.5 1.5 0 0 1 51 5.5h42A1.5 1.5 0 0 1 94.5 7v33a1.5 1.5 0 0 1-1.5 1.5H51a1.5 1.5 0 0 1-1.5-1.5V7Z" clip-rule="evenodd"/><path fill="#E0E1E9" d="M49.5 7.5a2 2 0 0 1 2-2h41a2 2 0 0 1 2 2v7h-45v-7Z"/><path fill="#A9ABB6" d="M51 28a.75.75 0 0 1 .75-.75h40.5a.75.75 0 0 1 0 1.5h-40.5A.75.75 0 0 1 51 28Z"/><rect width="1.5" height="24" x="79.5" y="16" fill="#A9ABB6" rx=".75"/><rect width="1.5" height="24" x="63" y="16" fill="#A9ABB6" rx=".75"/><rect width="4.5" height="1.5" x="87" y="8.5" fill="#A9ABB6" rx=".75"/><rect width="19.5" height="1.5" x="64.5" y="8.5" fill="#A9ABB6" rx=".75"/></svg>