<svg xmlns="http://www.w3.org/2000/svg" width="144" height="80" fill="none"><path fill="#fff" d="M0 0h144v80H0z"/><rect width="80" height="8" x="32" y="51" fill="#E0E1E9" fill-opacity=".8" rx="4"/><rect width="48" height="8" x="48" y="67" fill="#E0E1E9" fill-opacity=".8" rx="4"/><path fill="#A9ABB6" fill-rule="evenodd" d="M65.506 37.572a.22.22 0 0 1 .182.09c.295.35.598.667.924 1a.25.25 0 0 1-.174.425H54a1.008 1.008 0 0 1-1-1V6c.004-.55.45-.996 1-1h20.967a.758.758 0 0 1 .288.06c.093.037.178.09.25.16l7.575 7.574a.757.757 0 0 1 .159.25c.039.091.06.19.06.288v6.242a.242.242 0 0 1-.394.19c-.325-.243-.659-.47-1.007-.682a.25.25 0 0 1-.114-.205v-4.545a.25.25 0 0 0-.242-.242h-6.333a1.008 1.008 0 0 1-1-1V6.757a.25.25 0 0 0-.242-.242h-19.21a.25.25 0 0 0-.242.242V37.33a.25.25 0 0 0 .242.243h10.75Zm10.38-29.604a.242.242 0 0 0-.161.206v4.158a.25.25 0 0 0 .242.243h4.128a.242.242 0 0 0 .174-.417L76.141 8.03a.242.242 0 0 0-.254-.062Z" clip-rule="evenodd"/><path fill="#A9ABB6" d="M58.303 14.56h10.605a.757.757 0 0 0 0-1.515H58.303a.758.758 0 0 0 0 1.515ZM65.25 19.99h-6.947a.758.758 0 0 0 0 1.515h6.947a.757.757 0 1 0 0-1.515ZM65.25 23.467h-6.947a.758.758 0 0 0 0 1.515h6.947a.757.757 0 1 0 0-1.515ZM75.725 17.28a.758.758 0 0 0-.757-.758H58.303a.758.758 0 0 0 0 1.515h16.665c.418 0 .757-.34.757-.758ZM77.504 25.603a2.402 2.402 0 0 0-.856-.56 3.507 3.507 0 0 0-1.364-.227 5.35 5.35 0 0 0-1.348.166c-.406.11-.798.268-1.167.47l.47 1.265a3.99 3.99 0 0 1 .924-.371c.3-.088.612-.134.924-.137.338-.027.672.08.932.296a.97.97 0 0 1 .31.757c.006.21-.047.417-.15.599a2.527 2.527 0 0 1-.387.538c-.16.174-.326.34-.5.515a5.95 5.95 0 0 0-.508.56 2.69 2.69 0 0 0-.386.652 2.114 2.114 0 0 0-.151.81 1.895 1.895 0 0 0 0 .288c0 .106 0 .204.037.295h1.44a1.253 1.253 0 0 1 0-.166v-.16a1.515 1.515 0 0 1 .174-.757 3.03 3.03 0 0 1 .432-.621c.174-.197.363-.386.568-.576.2-.185.39-.383.568-.59.172-.209.317-.438.432-.682.118-.262.177-.546.174-.833a2.983 2.983 0 0 0-.121-.758 1.924 1.924 0 0 0-.447-.773ZM75.058 32.497c-.282 0-.553.108-.758.303a1.053 1.053 0 0 0-.318.757c-.006.286.11.562.318.758a1.099 1.099 0 0 0 1.515 0c.21-.196.325-.472.318-.758.001-.285-.114-.558-.318-.757a1.083 1.083 0 0 0-.757-.303Z"/><path fill="#A9ABB6" fill-rule="evenodd" d="m84.815 35.3 5.007 4.438a2.129 2.129 0 0 1 .037 3.022l-.227.228a2.128 2.128 0 0 1-3.03 0l-4.939-4.379-.424-.378-.825-.758a8.608 8.608 0 0 1-1.712.856 9.353 9.353 0 0 1-11.416-4.166 8.872 8.872 0 0 1-.697-1.515 9.34 9.34 0 0 1 1.962-9.43c.34-.377.712-.722 1.114-1.03a9.362 9.362 0 0 1 14.392 11.028c-.137.344-.3.679-.485 1l.485.432.758.651Zm-15.742-1.137a7.917 7.917 0 0 0 3.379 2.651 7.795 7.795 0 0 0 5.954 0 7.87 7.87 0 0 0 4.893-7.272 7.682 7.682 0 0 0-.758-3.333 7.832 7.832 0 0 0-3.181-3.439 7.532 7.532 0 0 0-1.659-.757 7.645 7.645 0 0 0-2.272-.349 7.771 7.771 0 0 0-4.886 1.735c-.4.311-.766.664-1.09 1.053a7.825 7.825 0 0 0-1.236 8.196c.227.536.514 1.044.856 1.515Zm14.521 4.105-.757-.651-.182-.16-1.03-.916a8.893 8.893 0 0 0 1.045-1.09l.932.833.272.242.705.621-.985 1.121Zm4.925 3.614.227-.227a.591.591 0 0 0 .03-.841l-3.03-2.659-1.014 1.114 2.946 2.613a.59.59 0 0 0 .841 0Z" clip-rule="evenodd"/></svg>