<svg width="144" height="80" viewBox="0 0 144 80" fill="none" xmlns="http://www.w3.org/2000/svg">
<path d="M0 32C0 28.6863 2.68629 26 6 26H22C25.3137 26 28 28.6863 28 32V48C28 51.3137 25.3137 54 22 54H6C2.68629 54 0 51.3137 0 48V32Z" fill="#8A8E9B" fill-opacity="0.1"/>
<path fill-rule="evenodd" clip-rule="evenodd" d="M15.7071 35.2929C16.0976 35.6834 16.0976 36.3166 15.7071 36.7071L12.4142 40L15.7071 43.2929C16.0976 43.6834 16.0976 44.3166 15.7071 44.7071C15.3166 45.0976 14.6834 45.0976 14.2929 44.7071L10.2929 40.7071C9.90237 40.3166 9.90237 39.6834 10.2929 39.2929L14.2929 35.2929C14.6834 34.9024 15.3166 34.9024 15.7071 35.2929Z" fill="#6C6E79"/>
<path d="M6 27H22V25H6V27ZM27 32V48H29V32H27ZM22 53H6V55H22V53ZM1 48V32H-1V48H1ZM6 53C3.23858 53 1 50.7614 1 48H-1C-1 51.866 2.13401 55 6 55V53ZM27 48C27 50.7614 24.7614 53 22 53V55C25.866 55 29 51.866 29 48H27ZM22 27C24.7614 27 27 29.2386 27 32H29C29 28.134 25.866 25 22 25V27ZM6 25C2.13401 25 -1 28.134 -1 32H1C1 29.2386 3.23858 27 6 27V25Z" fill="#C4C7CF"/>
<path d="M30 32C30 28.6863 32.6863 26 36 26H52C55.3137 26 58 28.6863 58 32V48C58 51.3137 55.3137 54 52 54H36C32.6863 54 30 51.3137 30 48V32Z" fill="#008FF8"/>
<path fill-rule="evenodd" clip-rule="evenodd" d="M42.2929 44.7071C41.9024 44.3166 41.9024 43.6834 42.2929 43.2929L45.5858 40L42.2929 36.7071C41.9024 36.3166 41.9024 35.6834 42.2929 35.2929C42.6834 34.9024 43.3166 34.9024 43.7071 35.2929L47.7071 39.2929C48.0976 39.6834 48.0976 40.3166 47.7071 40.7071L43.7071 44.7071C43.3166 45.0976 42.6834 45.0976 42.2929 44.7071Z" fill="white"/>
<path d="M63.1186 45V34.8182H66.7479C67.54 34.8182 68.1963 34.9624 68.7166 35.2507C69.237 35.5391 69.6264 35.9335 69.8849 36.4339C70.1435 36.9311 70.2727 37.4912 70.2727 38.1143C70.2727 38.7408 70.1418 39.3042 69.88 39.8047C69.6214 40.3018 69.2304 40.6963 68.7067 40.9879C68.1863 41.2763 67.5317 41.4205 66.7429 41.4205H64.2472V40.1179H66.6037C67.1042 40.1179 67.5102 40.0317 67.8217 39.8594C68.1333 39.6837 68.362 39.4451 68.5078 39.1435C68.6536 38.8419 68.7266 38.4988 68.7266 38.1143C68.7266 37.7299 68.6536 37.3885 68.5078 37.0902C68.362 36.7919 68.1316 36.5582 67.8168 36.3892C67.5052 36.2202 67.0942 36.1357 66.5838 36.1357H64.6548V45H63.1186ZM74.1083 45.169C73.6244 45.169 73.1869 45.0795 72.7958 44.9006C72.4047 44.7183 72.0948 44.4548 71.8661 44.1101C71.6407 43.7654 71.5281 43.3428 71.5281 42.8423C71.5281 42.4115 71.6109 42.0568 71.7766 41.7784C71.9424 41.5 72.1661 41.2796 72.4478 41.1172C72.7295 40.9548 73.0444 40.8321 73.3924 40.7493C73.7404 40.6664 74.0951 40.6035 74.4563 40.5604C74.9137 40.5073 75.2849 40.4643 75.57 40.4311C75.855 40.3946 76.0621 40.3366 76.1914 40.2571C76.3207 40.1776 76.3853 40.0483 76.3853 39.8693V39.8345C76.3853 39.4003 76.2627 39.0639 76.0174 38.8253C75.7755 38.5866 75.4142 38.4673 74.9336 38.4673C74.4331 38.4673 74.0387 38.5784 73.7504 38.8004C73.4653 39.0192 73.2681 39.2628 73.1587 39.5312L71.7617 39.2131C71.9274 38.7491 72.1694 38.3745 72.4876 38.0895C72.8091 37.8011 73.1786 37.5923 73.5962 37.4631C74.0138 37.3305 74.453 37.2642 74.9137 37.2642C75.2186 37.2642 75.5418 37.3007 75.8832 37.3736C76.2279 37.4432 76.5494 37.5724 76.8477 37.7614C77.1493 37.9503 77.3962 38.2204 77.5884 38.5717C77.7807 38.9197 77.8768 39.3722 77.8768 39.929V45H76.4251V43.956H76.3654C76.2693 44.1482 76.1251 44.3371 75.9329 44.5227C75.7406 44.7083 75.4937 44.8625 75.1921 44.9851C74.8905 45.1077 74.5292 45.169 74.1083 45.169ZM74.4315 43.9759C74.8424 43.9759 75.1938 43.8946 75.4854 43.7322C75.7804 43.5698 76.0041 43.3577 76.1566 43.0959C76.3124 42.8307 76.3903 42.5473 76.3903 42.2457V41.2614C76.3372 41.3144 76.2345 41.3641 76.082 41.4105C75.9329 41.4536 75.7622 41.4917 75.57 41.5249C75.3777 41.5547 75.1905 41.5829 75.0082 41.6094C74.8259 41.6326 74.6734 41.6525 74.5508 41.669C74.2624 41.7055 73.9989 41.7668 73.7603 41.853C73.525 41.9392 73.3361 42.0634 73.1935 42.2259C73.0543 42.3849 72.9847 42.5971 72.9847 42.8622C72.9847 43.2301 73.1206 43.5085 73.3924 43.6974C73.6642 43.883 74.0105 43.9759 74.4315 43.9759ZM83.0584 48.0227C82.4519 48.0227 81.9299 47.9432 81.4924 47.7841C81.0582 47.625 80.7035 47.4145 80.4284 47.1527C80.1533 46.8909 79.9479 46.6042 79.812 46.2926L81.0897 45.7656C81.1792 45.9115 81.2985 46.0656 81.4476 46.228C81.6001 46.3937 81.8056 46.5346 82.0641 46.6506C82.3259 46.7666 82.6623 46.8246 83.0733 46.8246C83.6368 46.8246 84.1025 46.687 84.4703 46.4119C84.8382 46.1402 85.0222 45.706 85.0222 45.1094V43.608H84.9277C84.8382 43.7704 84.709 43.951 84.54 44.1499C84.3742 44.3487 84.1455 44.5211 83.8539 44.6669C83.5622 44.8127 83.1827 44.8857 82.7154 44.8857C82.1122 44.8857 81.5686 44.7448 81.0847 44.4631C80.6041 44.178 80.223 43.7588 79.9412 43.2053C79.6628 42.6484 79.5236 41.964 79.5236 41.152C79.5236 40.34 79.6612 39.6439 79.9363 39.0639C80.2147 38.4839 80.5958 38.0398 81.0797 37.7315C81.5636 37.42 82.1122 37.2642 82.7253 37.2642C83.1993 37.2642 83.5821 37.3438 83.8738 37.5028C84.1654 37.6586 84.3925 37.8409 84.5549 38.0497C84.7206 38.2585 84.8482 38.4425 84.9377 38.6016H85.0471V37.3636H86.5037V45.169C86.5037 45.8253 86.3513 46.3639 86.0463 46.7848C85.7414 47.2057 85.3288 47.5173 84.8084 47.7195C84.2914 47.9216 83.708 48.0227 83.0584 48.0227ZM83.0435 43.6527C83.4711 43.6527 83.8323 43.5533 84.1273 43.3544C84.4256 43.1522 84.651 42.8639 84.8034 42.4893C84.9592 42.1115 85.0371 41.6591 85.0371 41.1321C85.0371 40.6184 84.9609 40.166 84.8084 39.7749C84.656 39.3838 84.4322 39.0788 84.1373 38.8601C83.8423 38.638 83.4777 38.527 83.0435 38.527C82.5961 38.527 82.2232 38.643 81.9249 38.875C81.6266 39.1037 81.4012 39.4152 81.2488 39.8097C81.0996 40.2041 81.025 40.6449 81.025 41.1321C81.025 41.6326 81.1013 42.0717 81.2537 42.4496C81.4062 42.8274 81.6316 43.1224 81.9299 43.3345C82.2315 43.5466 82.6027 43.6527 83.0435 43.6527ZM91.7885 45.1541C91.0362 45.1541 90.3882 44.9934 89.8446 44.6719C89.3044 44.3471 88.8868 43.8913 88.5918 43.3047C88.3001 42.7147 88.1543 42.0237 88.1543 41.2315C88.1543 40.4493 88.3001 39.7599 88.5918 39.1634C88.8868 38.5668 89.2978 38.1011 89.8248 37.7663C90.3551 37.4316 90.9748 37.2642 91.6841 37.2642C92.115 37.2642 92.5326 37.3355 92.937 37.478C93.3413 37.6205 93.7042 37.8442 94.0257 38.1491C94.3472 38.4541 94.6008 38.8501 94.7864 39.3374C94.972 39.8213 95.0648 40.4096 95.0648 41.1023V41.6293H88.9945V40.5156H93.6081C93.6081 40.1245 93.5286 39.7782 93.3695 39.4766C93.2104 39.1716 92.9867 38.9313 92.6983 38.7557C92.4133 38.58 92.0785 38.4922 91.6941 38.4922C91.2765 38.4922 90.9119 38.5949 90.6003 38.8004C90.2921 39.0026 90.0534 39.2678 89.8844 39.5959C89.7187 39.9207 89.6358 40.2737 89.6358 40.6548V41.5249C89.6358 42.0353 89.7253 42.4695 89.9043 42.8274C90.0866 43.1854 90.3401 43.4588 90.665 43.6477C90.9898 43.8333 91.3693 43.9261 91.8034 43.9261C92.0852 43.9261 92.342 43.8864 92.574 43.8068C92.806 43.724 93.0066 43.6013 93.1756 43.4389C93.3446 43.2765 93.4739 43.076 93.5634 42.8374L94.9703 43.0909C94.8577 43.5052 94.6555 43.8681 94.3638 44.1797C94.0755 44.4879 93.7125 44.7282 93.275 44.9006C92.8408 45.0696 92.3453 45.1541 91.7885 45.1541ZM97.7085 45.0945C97.4367 45.0945 97.203 44.9983 97.0075 44.8061C96.8119 44.6106 96.7141 44.3752 96.7141 44.1001C96.7141 43.8284 96.8119 43.5964 97.0075 43.4041C97.203 43.2086 97.4367 43.1108 97.7085 43.1108C97.9802 43.1108 98.2139 43.2086 98.4094 43.4041C98.605 43.5964 98.7028 43.8284 98.7028 44.1001C98.7028 44.2824 98.6564 44.4498 98.5636 44.6023C98.4741 44.7514 98.3548 44.8707 98.2056 44.9602C98.0565 45.0497 97.8907 45.0945 97.7085 45.0945ZM97.7085 39.5362C97.4367 39.5362 97.203 39.4384 97.0075 39.2429C96.8119 39.0473 96.7141 38.8137 96.7141 38.5419C96.7141 38.2701 96.8119 38.0381 97.0075 37.8459C97.203 37.6503 97.4367 37.5526 97.7085 37.5526C97.9802 37.5526 98.2139 37.6503 98.4094 37.8459C98.605 38.0381 98.7028 38.2701 98.7028 38.5419C98.7028 38.7242 98.6564 38.8916 98.5636 39.044C98.4741 39.1932 98.3548 39.3125 98.2056 39.402C98.0565 39.4915 97.8907 39.5362 97.7085 39.5362Z" fill="#191B23"/>
<path d="M104 32C104 28.6863 106.686 26 110 26H138C141.314 26 144 28.6863 144 32V48C144 51.3137 141.314 54 138 54H110C106.686 54 104 51.3137 104 48V32Z" fill="white"/>
<path d="M118.175 34.8182V45H116.634V36.3594H116.574L114.138 37.9503V36.4787L116.678 34.8182H118.175Z" fill="#191B23"/>
<path d="M110 27H138V25H110V27ZM143 32V48H145V32H143ZM138 53H110V55H138V53ZM105 48V32H103V48H105ZM110 53C107.239 53 105 50.7614 105 48H103C103 51.866 106.134 55 110 55V53ZM143 48C143 50.7614 140.761 53 138 53V55C141.866 55 145 51.866 145 48H143ZM138 27C140.761 27 143 29.2386 143 32H145C145 28.134 141.866 25 138 25V27ZM110 25C106.134 25 103 28.134 103 32H105C105 29.2386 107.239 27 110 27V25Z" fill="#C4C7CF"/>
</svg>
