<svg xmlns="http://www.w3.org/2000/svg" width="144" height="81" fill="none"><path fill="#fff" d="M0 .55h144v80H0z"/><g clip-path="url(#a)"><g clip-path="url(#b)"><rect width="27" height="27" x="4.5" y="27.051" fill="#8A8E9B" fill-opacity=".1" rx="5.5"/><path fill="#6C6E79" fill-rule="evenodd" d="M20.707 35.844a1 1 0 0 1 0 1.414l-3.293 3.293 3.293 3.293a1 1 0 0 1-1.414 1.414l-4-4a1 1 0 0 1 0-1.414l4-4a1 1 0 0 1 1.414 0Z" clip-rule="evenodd"/><rect width="27" height="27" x="4.5" y="27.051" stroke="#C4C7CF" rx="5.5"/><rect width="28" height="28" x="34" y="26.551" fill="#008FF8" rx="6"/><path fill="#fff" fill-rule="evenodd" d="M45.293 45.258a1 1 0 0 1 0-1.414l3.293-3.293-3.293-3.293a1 1 0 0 1 1.414-1.414l4 4a1 1 0 0 1 0 1.414l-4 4a1 1 0 0 1-1.414 0Z" clip-rule="evenodd"/></g><g clip-path="url(#c)"><g clip-path="url(#d)"><path fill="#191B23" d="M67.119 45.55V35.37h3.629c.792 0 1.448.144 1.969.432.52.289.91.683 1.168 1.184.258.497.388 1.057.388 1.68 0 .627-.131 1.19-.393 1.69-.259.498-.65.892-1.173 1.184-.52.288-1.175.432-1.964.432h-2.496V40.67h2.357c.5 0 .906-.086 1.218-.259.311-.175.54-.414.686-.716.146-.301.219-.644.219-1.029 0-.384-.073-.726-.22-1.024a1.569 1.569 0 0 0-.69-.701c-.312-.169-.723-.254-1.233-.254h-1.93v8.865H67.12Zm10.99.17c-.485 0-.922-.09-1.313-.269a2.21 2.21 0 0 1-.93-.79c-.225-.345-.338-.767-.338-1.268 0-.43.083-.785.249-1.064.165-.278.39-.499.67-.661.282-.162.597-.285.945-.368a9.365 9.365 0 0 1 1.064-.189l1.114-.13c.285-.036.492-.094.621-.173.13-.08.194-.209.194-.388v-.035c0-.434-.122-.77-.368-1.009-.242-.239-.603-.358-1.083-.358-.5 0-.895.111-1.184.333-.285.219-.482.463-.591.731l-1.397-.318c.165-.464.407-.839.726-1.124a2.944 2.944 0 0 1 1.108-.626 4.33 4.33 0 0 1 1.318-.199c.305 0 .628.036.97.11.344.069.665.198.964.387.301.19.548.46.74.81.193.349.289.8.289 1.358v5.07h-1.452v-1.043h-.06c-.096.192-.24.38-.432.567a2.3 2.3 0 0 1-.74.462c-.302.122-.664.184-1.085.184Zm.323-1.193c.41 0 .762-.082 1.053-.244.295-.162.52-.375.672-.636a1.65 1.65 0 0 0 .233-.85v-.985c-.053.053-.156.103-.308.15-.15.042-.32.08-.512.114-.192.03-.38.058-.562.084l-.457.06a3.685 3.685 0 0 0-.79.184c-.236.086-.425.21-.567.373-.14.159-.21.37-.21.636 0 .368.137.646.408.835.272.186.618.279 1.04.279Zm8.626 4.047c-.606 0-1.128-.08-1.566-.24-.434-.158-.788-.369-1.064-.63a2.652 2.652 0 0 1-.616-.86l1.278-.528c.09.146.209.3.358.463.152.165.358.306.616.422.262.116.598.174 1.01.174.563 0 1.029-.137 1.396-.412.368-.272.552-.706.552-1.303V44.16h-.094c-.09.162-.219.343-.388.542a2.098 2.098 0 0 1-.686.517c-.292.145-.671.218-1.139.218a3.18 3.18 0 0 1-1.63-.422c-.48-.285-.862-.705-1.144-1.258-.278-.557-.417-1.241-.417-2.053 0-.812.137-1.508.412-2.088.279-.58.66-1.024 1.144-1.333a2.974 2.974 0 0 1 1.645-.467c.474 0 .857.08 1.149.239.291.155.519.338.68.546.167.21.294.393.384.552h.11v-1.238h1.456v7.806c0 .656-.153 1.195-.458 1.616a2.69 2.69 0 0 1-1.238.934c-.517.202-1.1.303-1.75.303Zm-.015-4.37c.428 0 .79-.1 1.084-.299.299-.202.524-.49.676-.865.156-.378.234-.83.234-1.357 0-.514-.076-.966-.229-1.357a2.016 2.016 0 0 0-.67-.915c-.296-.222-.66-.333-1.095-.333-.447 0-.82.116-1.118.348-.298.228-.524.54-.676.934-.15.395-.224.836-.224 1.323 0 .5.076.94.229 1.317.152.378.378.673.676.885.301.212.673.319 1.113.319Zm8.745 1.5c-.752 0-1.4-.16-1.943-.481a3.272 3.272 0 0 1-1.253-1.367c-.292-.59-.438-1.282-.438-2.074 0-.782.146-1.471.438-2.068a3.398 3.398 0 0 1 1.233-1.397c.53-.335 1.15-.502 1.86-.502.43 0 .848.071 1.252.214.404.142.767.366 1.089.67.321.306.575.702.76 1.19.186.483.279 1.071.279 1.764v.527h-6.07v-1.114h4.613c0-.39-.08-.737-.239-1.039a1.804 1.804 0 0 0-.67-.72 1.875 1.875 0 0 0-1.005-.264 1.94 1.94 0 0 0-1.094.308 2.069 2.069 0 0 0-.716.796 2.296 2.296 0 0 0-.248 1.059v.87c0 .51.09.944.268 1.302.183.358.436.632.761.82.325.186.704.279 1.138.279.282 0 .539-.04.771-.12.232-.082.433-.205.602-.367.169-.163.298-.363.387-.602l1.407.254a2.547 2.547 0 0 1-.606 1.088 2.939 2.939 0 0 1-1.089.721c-.434.17-.93.254-1.487.254Zm5.92-.059a.967.967 0 0 1-.701-.288.964.964 0 0 1-.293-.706c0-.272.098-.504.293-.696a.959.959 0 0 1 .701-.293c.272 0 .506.097.701.293a.94.94 0 0 1 .294.696c0 .182-.047.35-.139.502-.09.15-.209.269-.358.358a.951.951 0 0 1-.498.134Zm0-5.558a.959.959 0 0 1-.701-.293.959.959 0 0 1-.293-.701c0-.272.098-.504.293-.696a.959.959 0 0 1 .701-.294c.272 0 .506.098.701.294a.94.94 0 0 1 .294.696c0 .182-.047.35-.139.502-.09.149-.209.268-.358.358a.951.951 0 0 1-.498.134Z"/><rect width="31" height="27" x="108.5" y="27.051" fill="#fff" rx="5.5"/><path fill="#191B23" d="M122.175 35.369v10.182h-1.541v-8.64h-.06l-2.436 1.59V37.03l2.54-1.661h1.497Z"/><rect width="31" height="27" x="108.5" y="27.051" stroke="#C4C7CF" rx="5.5"/></g></g></g><defs><clipPath id="a"><path fill="#fff" d="M4 26.55h136v28H4z"/></clipPath><clipPath id="b"><path fill="#fff" d="M4 26.55h58v28H4z"/></clipPath><clipPath id="c"><path fill="#fff" d="M66 26.55h74v28H66z"/></clipPath><clipPath id="d"><path fill="#fff" d="M66 26.55h74v28H66z"/></clipPath></defs></svg>