<svg xmlns="http://www.w3.org/2000/svg" width="144" height="80" fill="none"><mask id="a" fill="#fff"><path d="M0 0h40v40H0V0Z"/></mask><path fill="#F4F5F9" d="M0 0h40v40H0V0Z"/><rect width="15" height="15" x="12.5" y="12.5" fill="#fff" rx="3.5"/><rect width="15" height="15" x="12.5" y="12.5" stroke="#C4C7CF" rx="3.5"/><path fill="#E0E1E9" d="M40 39H0v2h40v-2Z" mask="url(#a)"/><mask id="b" fill="#fff"><path d="M0 40h40v40H0V40Z"/></mask><path fill="#fff" d="M0 40h40v40H0V40Z"/><rect width="15" height="15" x="12.5" y="52.5" fill="#fff" rx="3.5"/><rect width="15" height="15" x="12.5" y="52.5" stroke="#C4C7CF" rx="3.5"/><path fill="#E0E1E9" d="M40 79H0v2h40v-2Z" mask="url(#b)"/><mask id="c" fill="#fff"><path d="M40 40h104v40H40V40Z"/></mask><path fill="#fff" d="M40 40h104v40H40V40Z"/><path fill="#006DCA" d="M53.119 67V56.818h1.536v8.86h4.614V67h-6.15Zm11 .154c-.717 0-1.341-.164-1.875-.492a3.317 3.317 0 0 1-1.243-1.377c-.295-.59-.442-1.28-.442-2.068 0-.792.147-1.485.442-2.078a3.31 3.31 0 0 1 1.243-1.383c.534-.328 1.158-.492 1.874-.492.716 0 1.34.164 1.875.492a3.31 3.31 0 0 1 1.242 1.383c.295.593.443 1.285.443 2.078 0 .788-.148 1.478-.443 2.068a3.317 3.317 0 0 1-1.242 1.377c-.534.328-1.159.492-1.875.492Zm.004-1.248c.464 0 .849-.122 1.154-.368.305-.245.53-.571.676-.98.149-.407.224-.856.224-1.346 0-.488-.075-.935-.224-1.343a2.187 2.187 0 0 0-.676-.989c-.305-.249-.69-.373-1.154-.373-.467 0-.855.124-1.163.373a2.22 2.22 0 0 0-.681.99 3.958 3.958 0 0 0-.219 1.342c0 .49.073.94.219 1.347.149.408.376.734.68.98.31.245.697.367 1.164.367Zm6.7-3.44V67h-1.486v-7.636h1.427v1.242h.095c.175-.404.45-.729.825-.974.378-.245.853-.368 1.427-.368.52 0 .976.11 1.367.328.39.216.694.537.91.965.215.427.323.956.323 1.586V67h-1.487v-4.678c0-.554-.144-.986-.432-1.298-.289-.315-.685-.472-1.189-.472a1.86 1.86 0 0 0-.92.224c-.264.149-.475.367-.63.656-.153.285-.23.63-.23 1.034Zm10.083 7.557c-.607 0-1.129-.08-1.566-.239-.434-.159-.789-.37-1.064-.631a2.65 2.65 0 0 1-.616-.86l1.277-.527c.09.145.21.3.358.462.153.166.358.307.617.423.262.116.598.174 1.009.174.563 0 1.03-.138 1.397-.413.368-.272.552-.706.552-1.303v-1.501h-.095c-.09.162-.218.343-.387.542a2.097 2.097 0 0 1-.687.517c-.291.146-.67.219-1.138.219-.603 0-1.147-.141-1.63-.423-.481-.285-.862-.704-1.144-1.258-.279-.557-.418-1.241-.418-2.053 0-.812.138-1.508.413-2.088.278-.58.66-1.024 1.143-1.333a2.974 2.974 0 0 1 1.646-.467c.474 0 .857.08 1.148.239.292.156.52.338.681.547.166.209.294.393.383.552h.11v-1.238h1.456v7.805c0 .656-.152 1.195-.457 1.616-.305.42-.718.732-1.238.934-.517.203-1.1.304-1.75.304Zm-.015-4.37c.428 0 .789-.1 1.084-.299.298-.202.524-.49.676-.865.156-.377.234-.83.234-1.357 0-.514-.077-.966-.229-1.357-.152-.391-.376-.696-.671-.915-.295-.222-.66-.333-1.094-.333-.447 0-.82.116-1.119.348a2.1 2.1 0 0 0-.676.935c-.149.394-.223.835-.223 1.322 0 .5.076.94.228 1.318.153.377.378.672.677.885.301.212.672.318 1.113.318Zm10.646-8.835V67H90.05V56.818h1.487Zm2 10.182v-7.636h1.486V67h-1.487Zm.75-8.815a.945.945 0 0 1-.666-.258.84.84 0 0 1-.273-.627.83.83 0 0 1 .273-.626.935.935 0 0 1 .666-.264c.259 0 .479.088.661.264a.824.824 0 0 1 .279.626c0 .242-.093.451-.279.627a.927.927 0 0 1-.66.258Zm4.222 4.28V67h-1.486v-7.636h1.427v1.242h.094c.176-.404.45-.729.825-.974.378-.245.854-.368 1.427-.368.521 0 .976.11 1.367.328.391.216.695.537.91.965.216.427.323.956.323 1.586V67h-1.486v-4.678c0-.554-.144-.986-.433-1.298-.288-.315-.684-.472-1.188-.472-.345 0-.651.074-.92.224a1.61 1.61 0 0 0-.631.656c-.153.285-.229.63-.229 1.034Zm8.248 1.945-.01-1.815h.259l3.042-3.231h1.78l-3.47 3.679h-.234l-1.367 1.367ZM105.39 67V56.818h1.486V67h-1.486Zm4.822 0-2.734-3.63 1.024-1.038L112.037 67h-1.825Zm12.398-5.772-1.347.239a1.584 1.584 0 0 0-.269-.493 1.322 1.322 0 0 0-.487-.382c-.205-.1-.462-.15-.77-.15-.421 0-.773.095-1.054.284-.282.185-.423.426-.423.72 0 .256.095.461.284.617.188.156.493.284.914.383l1.213.278c.703.163 1.227.413 1.571.751.345.338.517.777.517 1.318 0 .457-.132.865-.397 1.223-.262.354-.628.633-1.099.835-.467.202-1.009.303-1.626.303-.855 0-1.553-.182-2.093-.547-.54-.368-.871-.89-.994-1.566l1.437-.219c.089.375.273.658.552.85.278.19.641.284 1.088.284.488 0 .877-.101 1.169-.303.291-.206.437-.456.437-.751a.78.78 0 0 0-.268-.602c-.176-.162-.446-.285-.811-.367l-1.292-.284c-.713-.162-1.24-.42-1.581-.775-.338-.355-.507-.804-.507-1.348 0-.45.126-.845.377-1.183.252-.338.6-.602 1.044-.79.445-.193.953-.289 1.527-.289.825 0 1.475.18 1.949.537.474.355.787.83.939 1.427Zm5 5.926c-.715 0-1.34-.164-1.874-.492a3.323 3.323 0 0 1-1.243-1.377c-.295-.59-.442-1.28-.442-2.068 0-.792.147-1.485.442-2.078a3.316 3.316 0 0 1 1.243-1.383c.534-.328 1.159-.492 1.874-.492.716 0 1.341.164 1.875.492.533.328.948.79 1.243 1.383.295.593.442 1.285.442 2.078 0 .788-.147 1.478-.442 2.068a3.323 3.323 0 0 1-1.243 1.377c-.534.328-1.159.492-1.875.492Zm.005-1.248c.464 0 .849-.122 1.154-.368.305-.245.53-.571.676-.98.149-.407.224-.856.224-1.346 0-.488-.075-.935-.224-1.343a2.187 2.187 0 0 0-.676-.989c-.305-.249-.69-.373-1.154-.373-.467 0-.855.124-1.163.373a2.22 2.22 0 0 0-.681.99 3.956 3.956 0 0 0-.219 1.342c0 .49.073.94.219 1.347.149.408.376.734.681.98.308.245.696.367 1.163.367Z"/><path fill="#E0E1E9" d="M144 79H40v2h104v-2Z" mask="url(#c)"/><mask id="d" fill="#fff"><path d="M40 0h104v40H40V0Z"/></mask><path fill="#F4F5F9" d="M40 0h104v40H40V0Z"/><path fill="#191B23" d="M52.528 16.406v-1.133h6.755v1.133H56.56V24h-1.313v-7.594h-2.719ZM60.775 24v-8.727h1.317v3.792h4.35v-3.792h1.322V24h-1.321v-3.805h-4.351V24h-1.317Z"/><path fill="#E0E1E9" d="M144 40v1h1v-1h-1Zm-1-40v40h2V0h-2Zm1 39H40v2h104v-2Z" mask="url(#d)"/><rect width="40" height="6" x="1" y="73" fill="#191B23" fill-opacity=".3" rx="3"/><path fill="url(#e)" d="M0 0h80v5H0z" transform="rotate(-90 109.5 -29.5)"/><defs><linearGradient id="e" x1="40" x2="40" y1="0" y2="5" gradientUnits="userSpaceOnUse"><stop stop-color="#fff" stop-opacity="0"/><stop offset=".885" stop-color="#191B23" stop-opacity=".1"/></linearGradient></defs></svg>