<svg width="144" height="92" viewBox="0 0 144 92" fill="none" xmlns="http://www.w3.org/2000/svg">
  <g filter="url(#a)">
    <path fill="#F4F5F9" d="M0 0h40v40H0z"/>
    <path d="M12 16a4 4 0 0 1 4-4h8a4 4 0 0 1 4 4v8a4 4 0 0 1-4 4h-8a4 4 0 0 1-4-4v-8Z" fill="#fff"/>
    <path d="M16 13h8v-2h-8v2Zm11 3v8h2v-8h-2Zm-3 11h-8v2h8v-2Zm-11-3v-8h-2v8h2Zm3 3a3 3 0 0 1-3-3h-2a5 5 0 0 0 5 5v-2Zm11-3a3 3 0 0 1-3 3v2a5 5 0 0 0 5-5h-2Zm-3-11a3 3 0 0 1 3 3h2a5 5 0 0 0-5-5v2Zm-8-2a5 5 0 0 0-5 5h2a3 3 0 0 1 3-3v-2Z" fill="#C4C7CF"/>
  </g>
  <g filter="url(#b)">
    <path fill="#fff" d="M0 40h40v40H0z"/>
    <path d="M12 56a4 4 0 0 1 4-4h8a4 4 0 0 1 4 4v8a4 4 0 0 1-4 4h-8a4 4 0 0 1-4-4v-8Z" fill="#fff"/>
    <path d="M16 53h8v-2h-8v2Zm11 3v8h2v-8h-2Zm-3 11h-8v2h8v-2Zm-11-3v-8h-2v8h2Zm3 3a3 3 0 0 1-3-3h-2a5 5 0 0 0 5 5v-2Zm11-3a3 3 0 0 1-3 3v2a5 5 0 0 0 5-5h-2Zm-3-11a3 3 0 0 1 3 3h2a5 5 0 0 0-5-5v2Zm-8-2a5 5 0 0 0-5 5h2a3 3 0 0 1 3-3v-2Z" fill="#C4C7CF"/>
  </g>
  <g filter="url(#c)">
    <path fill="#fff" d="M40 40h104v40H40z"/>
    <path d="M53.12 67V56.82h1.53v8.86h4.62V67h-6.15Zm11 .15A3.32 3.32 0 0 1 61 65.28a4.57 4.57 0 0 1-.44-2.06c0-.8.15-1.49.44-2.08a3.31 3.31 0 0 1 3.12-1.88 3.31 3.31 0 0 1 3.12 1.87c.29.6.44 1.3.44 2.09 0 .79-.15 1.47-.44 2.06a3.32 3.32 0 0 1-3.12 1.87Zm0-1.24c.47 0 .85-.13 1.16-.37.3-.25.53-.57.67-.98.15-.4.23-.86.23-1.35 0-.49-.08-.93-.23-1.34a2.19 2.19 0 0 0-.67-.99c-.3-.25-.7-.37-1.16-.37-.46 0-.85.12-1.16.37-.3.25-.53.58-.68.99-.15.4-.22.85-.22 1.34 0 .5.07.94.22 1.35.15.4.37.73.68.98.3.24.7.37 1.16.37Zm6.7-3.44V67h-1.48v-7.64h1.42v1.25h.1c.17-.4.45-.73.82-.98.38-.24.86-.37 1.43-.37.52 0 .98.11 1.37.33.39.22.7.54.9.97.22.42.33.95.33 1.58V67h-1.49v-4.68c0-.55-.14-.98-.43-1.3a1.53 1.53 0 0 0-1.19-.47c-.34 0-.65.08-.92.23a1.6 1.6 0 0 0-.63.65c-.15.29-.23.63-.23 1.04Zm10.09 7.55a4.6 4.6 0 0 1-1.57-.24 3.03 3.03 0 0 1-1.06-.63 2.65 2.65 0 0 1-.62-.86l1.28-.52c.09.14.2.3.36.46.15.16.35.3.61.42s.6.17 1.01.17c.56 0 1.03-.13 1.4-.4.37-.28.55-.71.55-1.31v-1.5h-.1a3.4 3.4 0 0 1-.38.54c-.17.2-.4.37-.69.52-.29.14-.67.22-1.14.22a3 3 0 0 1-2.77-1.68 4.56 4.56 0 0 1-.42-2.06c0-.81.14-1.5.41-2.09.28-.58.66-1.02 1.15-1.33a2.97 2.97 0 0 1 1.64-.47c.48 0 .86.08 1.15.24.3.16.52.34.68.55.17.2.3.4.39.55h.1v-1.24h1.46v7.8c0 .67-.15 1.2-.46 1.62-.3.43-.71.74-1.23.94-.52.2-1.1.3-1.75.3Zm-.02-4.37c.43 0 .79-.1 1.08-.3.3-.2.53-.49.68-.86.16-.38.23-.83.23-1.36 0-.51-.07-.96-.22-1.36-.16-.39-.38-.7-.68-.91-.29-.22-.65-.33-1.09-.33-.45 0-.82.11-1.12.34-.3.23-.52.55-.67.94-.15.4-.23.83-.23 1.32 0 .5.08.94.23 1.32.15.38.38.67.68.88.3.22.67.32 1.11.32Zm10.65-8.83V67h-1.49V56.82h1.49Zm2 10.18v-7.64h1.48V67h-1.48Zm.75-8.81a.94.94 0 0 1-.67-.26.84.84 0 0 1-.27-.63c0-.24.09-.45.27-.63.19-.17.4-.26.67-.26.26 0 .48.09.66.26.18.18.28.39.28.63s-.1.45-.28.63a.93.93 0 0 1-.66.26Zm4.22 4.28V67h-1.49v-7.64h1.43v1.25h.1c.17-.4.44-.73.82-.98.38-.24.85-.37 1.43-.37.52 0 .97.11 1.36.33.4.22.7.54.91.97.22.42.33.95.33 1.58V67h-1.49v-4.68c0-.55-.14-.98-.43-1.3a1.53 1.53 0 0 0-1.2-.47c-.34 0-.64.08-.91.23a1.6 1.6 0 0 0-.63.65c-.15.29-.23.63-.23 1.04Zm8.25 1.94-.01-1.81h.26l3.04-3.24h1.78l-3.47 3.68h-.24l-1.36 1.37ZM105.39 67V56.82h1.49V67h-1.49Zm4.82 0-2.73-3.63 1.02-1.04 3.54 4.67h-1.83ZM58.72 81.23l-1.35.24a1.6 1.6 0 0 0-.26-.5 1.33 1.33 0 0 0-.5-.38c-.2-.1-.45-.15-.76-.15-.42 0-.77.1-1.06.29-.28.18-.42.42-.42.72 0 .25.1.46.28.61.2.16.5.29.92.39l1.21.27c.7.17 1.23.42 1.57.76.35.33.52.77.52 1.31a2 2 0 0 1-.4 1.23 2.6 2.6 0 0 1-1.1.83c-.46.2-1 .3-1.62.3-.86 0-1.55-.18-2.1-.54a2.31 2.31 0 0 1-.99-1.57l1.44-.22c.09.38.27.66.55.85.28.2.64.29 1.09.29.49 0 .88-.1 1.17-.3.29-.21.43-.46.43-.76a.78.78 0 0 0-.26-.6 1.76 1.76 0 0 0-.81-.37l-1.3-.28a3.1 3.1 0 0 1-1.58-.78c-.34-.35-.5-.8-.5-1.34 0-.45.12-.85.37-1.19.25-.34.6-.6 1.05-.79.44-.19.95-.29 1.52-.29.83 0 1.48.18 1.95.54.48.36.79.83.94 1.43Zm5 5.92a3.32 3.32 0 0 1-3.12-1.87 4.57 4.57 0 0 1-.44-2.06c0-.8.15-1.49.44-2.08a3.31 3.31 0 0 1 3.12-1.88 3.31 3.31 0 0 1 3.12 1.87c.3.6.44 1.3.44 2.09 0 .79-.15 1.47-.44 2.06a3.32 3.32 0 0 1-3.12 1.87Zm0-1.24c.47 0 .86-.13 1.16-.37.3-.25.53-.57.68-.98.15-.4.22-.86.22-1.35 0-.49-.07-.93-.22-1.34a2.19 2.19 0 0 0-.68-.99c-.3-.25-.69-.37-1.15-.37-.47 0-.86.12-1.17.37-.3.25-.53.58-.68.99-.14.4-.22.85-.22 1.34 0 .5.08.94.22 1.35.15.4.38.73.68.98.31.24.7.37 1.17.37ZM68.95 87v-7.64h1.43v1.25h.1c.15-.42.41-.75.77-.99.36-.24.8-.36 1.3-.36.51 0 .94.12 1.28.36.35.24.6.57.77.99h.08c.19-.41.48-.74.87-.98.4-.24.87-.37 1.42-.37.7 0 1.26.22 1.7.66.44.43.66 1.08.66 1.96V87h-1.49v-4.98c0-.52-.14-.9-.42-1.13a1.54 1.54 0 0 0-1-.34c-.5 0-.87.15-1.14.44-.26.3-.4.68-.4 1.14V87H73.4v-5.08c0-.41-.13-.74-.39-1-.26-.25-.6-.37-1-.37-.29 0-.55.07-.79.22-.23.15-.42.35-.57.61-.14.26-.21.57-.21.91V87h-1.49Z" fill="#006DCA"/>
  </g>
  <g filter="url(#d)">
    <path fill="#F4F5F9" d="M40 0h104v40H40z"/>
    <path d="M52.53 16.4v-1.13h6.75v1.14h-2.72V24h-1.31v-7.6h-2.72Zm8.25 7.6v-8.73h1.31v3.8h4.35v-3.8h1.32V24h-1.32v-3.8H62.1V24h-1.31Z" fill="#191B23"/>
    <path d="M86 15a1 1 0 1 1 0 2H76a1 1 0 1 1 0-2h10ZM83 20a1 1 0 0 0-1-1h-6a1 1 0 1 0 0 2h6a1 1 0 0 0 1-1ZM79 24a1 1 0 0 0-1-1h-2a1 1 0 1 0 0 2h2a1 1 0 0 0 1-1Z" fill="#A9ABB6"/>
  </g>
  <rect x="1" y="73" width="40" height="6" rx="3" fill="#191B23" fill-opacity=".3"/>
  <path transform="matrix(0 -1 -1 0 144 80)" fill="url(#e)" d="M0 0h80v5H0z"/>
  <defs>
    <filter id="a" x="0" y="0" width="40" height="40" filterUnits="userSpaceOnUse" color-interpolation-filters="sRGB">
      <feFlood flood-opacity="0" result="BackgroundImageFix"/>
      <feBlend in="SourceGraphic" in2="BackgroundImageFix" result="shape"/>
      <feColorMatrix in="SourceAlpha" values="0 0 0 0 0 0 0 0 0 0 0 0 0 0 0 0 0 0 127 0" result="hardAlpha"/>
      <feOffset dy="-1"/>
      <feComposite in2="hardAlpha" operator="arithmetic" k2="-1" k3="1"/>
      <feColorMatrix values="0 0 0 0 0.878431 0 0 0 0 0.882353 0 0 0 0 0.913725 0 0 0 1 0"/>
      <feBlend in2="shape" result="effect1_innerShadow_762_85094"/>
      <feColorMatrix in="SourceAlpha" values="0 0 0 0 0 0 0 0 0 0 0 0 0 0 0 0 0 0 127 0" result="hardAlpha"/>
      <feOffset dx="-1" dy="-1"/>
      <feComposite in2="hardAlpha" operator="arithmetic" k2="-1" k3="1"/>
      <feColorMatrix values="0 0 0 0 0.878431 0 0 0 0 0.882353 0 0 0 0 0.913725 0 0 0 1 0"/>
      <feBlend in2="effect1_innerShadow_762_85094" result="effect2_innerShadow_762_85094"/>
    </filter>
    <filter id="b" x="0" y="40" width="40" height="40" filterUnits="userSpaceOnUse" color-interpolation-filters="sRGB">
      <feFlood flood-opacity="0" result="BackgroundImageFix"/>
      <feBlend in="SourceGraphic" in2="BackgroundImageFix" result="shape"/>
      <feColorMatrix in="SourceAlpha" values="0 0 0 0 0 0 0 0 0 0 0 0 0 0 0 0 0 0 127 0" result="hardAlpha"/>
      <feOffset dy="-1"/>
      <feComposite in2="hardAlpha" operator="arithmetic" k2="-1" k3="1"/>
      <feColorMatrix values="0 0 0 0 0.878431 0 0 0 0 0.882353 0 0 0 0 0.913725 0 0 0 1 0"/>
      <feBlend in2="shape" result="effect1_innerShadow_762_85094"/>
    </filter>
    <filter id="c" x="40" y="40" width="104" height="52" filterUnits="userSpaceOnUse" color-interpolation-filters="sRGB">
      <feFlood flood-opacity="0" result="BackgroundImageFix"/>
      <feBlend in="SourceGraphic" in2="BackgroundImageFix" result="shape"/>
      <feColorMatrix in="SourceAlpha" values="0 0 0 0 0 0 0 0 0 0 0 0 0 0 0 0 0 0 127 0" result="hardAlpha"/>
      <feOffset dy="-1"/>
      <feComposite in2="hardAlpha" operator="arithmetic" k2="-1" k3="1"/>
      <feColorMatrix values="0 0 0 0 0.878431 0 0 0 0 0.882353 0 0 0 0 0.913725 0 0 0 1 0"/>
      <feBlend in2="shape" result="effect1_innerShadow_762_85094"/>
    </filter>
    <filter id="d" x="40" y="0" width="104" height="40" filterUnits="userSpaceOnUse" color-interpolation-filters="sRGB">
      <feFlood flood-opacity="0" result="BackgroundImageFix"/>
      <feBlend in="SourceGraphic" in2="BackgroundImageFix" result="shape"/>
      <feColorMatrix in="SourceAlpha" values="0 0 0 0 0 0 0 0 0 0 0 0 0 0 0 0 0 0 127 0" result="hardAlpha"/>
      <feOffset dy="-1"/>
      <feComposite in2="hardAlpha" operator="arithmetic" k2="-1" k3="1"/>
      <feColorMatrix values="0 0 0 0 0.878431 0 0 0 0 0.882353 0 0 0 0 0.913725 0 0 0 1 0"/>
      <feBlend in2="shape" result="effect1_innerShadow_762_85094"/>
      <feColorMatrix in="SourceAlpha" values="0 0 0 0 0 0 0 0 0 0 0 0 0 0 0 0 0 0 127 0" result="hardAlpha"/>
      <feOffset dx="-1" dy="-1"/>
      <feComposite in2="hardAlpha" operator="arithmetic" k2="-1" k3="1"/>
      <feColorMatrix values="0 0 0 0 0.878431 0 0 0 0 0.882353 0 0 0 0 0.913725 0 0 0 1 0"/>
      <feBlend in2="effect1_innerShadow_762_85094" result="effect2_innerShadow_762_85094"/>
    </filter>
    <linearGradient id="e" x1="8.22" y1="1.03" x2="8.22" y2="5" gradientUnits="userSpaceOnUse">
      <stop stop-color="#191B23" stop-opacity=".1"/>
      <stop offset="1" stop-color="#fff" stop-opacity=".01"/>
    </linearGradient>
  </defs>
</svg>
