<svg width="144" height="80" viewBox="0 0 144 80" fill="none" xmlns="http://www.w3.org/2000/svg">
<path d="M80 0H144V40H80V0Z" fill="#F4F5F9"/>
<path d="M92.5284 16.4062V15.2727H99.2827V16.4062H96.5597V24H95.2472V16.4062H92.5284ZM100.775 24V15.2727H102.092V19.0653H106.443V15.2727H107.764V24H106.443V20.1946H102.092V24H100.775Z" fill="#191B23"/>
<path d="M126 15C126.552 15 127 15.4477 127 16C127 16.5523 126.552 17 126 17H116C115.448 17 115 16.5523 115 16C115 15.4477 115.448 15 116 15H126Z" fill="#A9ABB6"/>
<path d="M123 20C123 19.4477 122.552 19 122 19H116C115.448 19 115 19.4477 115 20C115 20.5523 115.448 21 116 21H122C122.552 21 123 20.5523 123 20Z" fill="#A9ABB6"/>
<path d="M119 24C119 23.4477 118.552 23 118 23H116C115.448 23 115 23.4477 115 24C115 24.5523 115.448 25 116 25H118C118.552 25 119 24.5523 119 24Z" fill="#A9ABB6"/>
<path d="M144 39H80V41H144V39Z" fill="#E0E1E9"/>
<g filter="url(#filter0_ii_768_65785)">
<rect width="80" height="40" fill="#F4F5F9"/>
<path d="M12.5284 16.4062V15.2727H19.2827V16.4062H16.5597V24H15.2472V16.4062H12.5284ZM20.7752 24V15.2727H22.092V19.0653H26.4428V15.2727H27.7638V24H26.4428V20.1946H22.092V24H20.7752Z" fill="#191B23"/>
<path d="M46 15C46.5523 15 47 15.4477 47 16C47 16.5523 46.5523 17 46 17H36C35.4477 17 35 16.5523 35 16C35 15.4477 35.4477 15 36 15H46Z" fill="#A9ABB6"/>
<path d="M43 20C43 19.4477 42.5523 19 42 19H36C35.4477 19 35 19.4477 35 20C35 20.5523 35.4477 21 36 21H42C42.5523 21 43 20.5523 43 20Z" fill="#A9ABB6"/>
<path d="M39 24C39 23.4477 38.5523 23 38 23H36C35.4477 23 35 23.4477 35 24C35 24.5523 35.4477 25 36 25H38C38.5523 25 39 24.5523 39 24Z" fill="#A9ABB6"/>
</g>
<g filter="url(#filter1_i_768_65785)">
<rect width="80" height="40" transform="translate(0 40)" fill="white"/>
<rect x="8" y="52" width="64" height="8" rx="4" fill="#E0E1E9" fill-opacity="0.8"/>
</g>
<g filter="url(#filter2_i_768_65785)">
<rect width="64" height="40" transform="translate(80 40)" fill="white"/>
<rect x="88" y="52" width="48" height="8" rx="4" fill="#E0E1E9" fill-opacity="0.8"/>
</g>
<defs>
<filter id="filter0_ii_768_65785" x="0" y="0" width="80" height="40" filterUnits="userSpaceOnUse" color-interpolation-filters="sRGB">
<feFlood flood-opacity="0" result="BackgroundImageFix"/>
<feBlend mode="normal" in="SourceGraphic" in2="BackgroundImageFix" result="shape"/>
<feColorMatrix in="SourceAlpha" type="matrix" values="0 0 0 0 0 0 0 0 0 0 0 0 0 0 0 0 0 0 127 0" result="hardAlpha"/>
<feOffset dy="-1"/>
<feComposite in2="hardAlpha" operator="arithmetic" k2="-1" k3="1"/>
<feColorMatrix type="matrix" values="0 0 0 0 0.878431 0 0 0 0 0.882353 0 0 0 0 0.913725 0 0 0 1 0"/>
<feBlend mode="normal" in2="shape" result="effect1_innerShadow_768_65785"/>
<feColorMatrix in="SourceAlpha" type="matrix" values="0 0 0 0 0 0 0 0 0 0 0 0 0 0 0 0 0 0 127 0" result="hardAlpha"/>
<feOffset dx="-1" dy="-1"/>
<feComposite in2="hardAlpha" operator="arithmetic" k2="-1" k3="1"/>
<feColorMatrix type="matrix" values="0 0 0 0 0.878431 0 0 0 0 0.882353 0 0 0 0 0.913725 0 0 0 1 0"/>
<feBlend mode="normal" in2="effect1_innerShadow_768_65785" result="effect2_innerShadow_768_65785"/>
</filter>
<filter id="filter1_i_768_65785" x="0" y="40" width="80" height="40" filterUnits="userSpaceOnUse" color-interpolation-filters="sRGB">
<feFlood flood-opacity="0" result="BackgroundImageFix"/>
<feBlend mode="normal" in="SourceGraphic" in2="BackgroundImageFix" result="shape"/>
<feColorMatrix in="SourceAlpha" type="matrix" values="0 0 0 0 0 0 0 0 0 0 0 0 0 0 0 0 0 0 127 0" result="hardAlpha"/>
<feOffset dy="-1"/>
<feComposite in2="hardAlpha" operator="arithmetic" k2="-1" k3="1"/>
<feColorMatrix type="matrix" values="0 0 0 0 0.878431 0 0 0 0 0.882353 0 0 0 0 0.913725 0 0 0 1 0"/>
<feBlend mode="normal" in2="shape" result="effect1_innerShadow_768_65785"/>
</filter>
<filter id="filter2_i_768_65785" x="80" y="40" width="64" height="40" filterUnits="userSpaceOnUse" color-interpolation-filters="sRGB">
<feFlood flood-opacity="0" result="BackgroundImageFix"/>
<feBlend mode="normal" in="SourceGraphic" in2="BackgroundImageFix" result="shape"/>
<feColorMatrix in="SourceAlpha" type="matrix" values="0 0 0 0 0 0 0 0 0 0 0 0 0 0 0 0 0 0 127 0" result="hardAlpha"/>
<feOffset dy="-1"/>
<feComposite in2="hardAlpha" operator="arithmetic" k2="-1" k3="1"/>
<feColorMatrix type="matrix" values="0 0 0 0 0.878431 0 0 0 0 0.882353 0 0 0 0 0.913725 0 0 0 1 0"/>
<feBlend mode="normal" in2="shape" result="effect1_innerShadow_768_65785"/>
</filter>
</defs>
</svg>
