<svg width="144" height="80" viewBox="0 0 144 80" fill="none" xmlns="http://www.w3.org/2000/svg">
<mask id="path-1-inside-1_768_65785" fill="white">
<path d="M80 0H144V40H80V0Z"/>
</mask>
<path d="M80 0H144V40H80V0Z" fill="white"/>
<path d="M92.5284 16.4062V15.2727H99.2827V16.4062H96.5597V24H95.2472V16.4062H92.5284ZM100.775 24V15.2727H102.092V19.0653H106.443V15.2727H107.764V24H106.443V20.1946H102.092V24H100.775Z" fill="#191B23"/>
<path d="M144 39H80V41H144V39Z" fill="#E0E1E9" mask="url(#path-1-inside-1_768_65785)"/>
<mask id="path-4-inside-2_768_65785" fill="white">
<path d="M0 0H80V40H0V0Z"/>
</mask>
<path d="M0 0H80V40H0V0Z" fill="white"/>
<path d="M12.5284 16.4062V15.2727H19.2827V16.4062H16.5597V24H15.2472V16.4062H12.5284ZM20.7752 24V15.2727H22.092V19.0653H26.4428V15.2727H27.7638V24H26.4428V20.1946H22.092V24H20.7752Z" fill="#191B23"/>
<path d="M80 39H0V41H80V39Z" fill="#E0E1E9" mask="url(#path-4-inside-2_768_65785)"/>
<mask id="path-7-inside-3_768_65785" fill="white">
<path d="M0 40H80V80H0V40Z"/>
</mask>
<path d="M0 40H80V80H0V40Z" fill="white"/>
<rect x="8" y="52" width="64" height="8" rx="4" fill="#E0E1E9" fill-opacity="0.8"/>
<path d="M80 79H0V81H80V79Z" fill="#E0E1E9" mask="url(#path-7-inside-3_768_65785)"/>
<mask id="path-10-inside-4_768_65785" fill="white">
<path d="M80 40H144V80H80V40Z"/>
</mask>
<path d="M80 40H144V80H80V40Z" fill="white"/>
<rect x="88" y="52" width="48" height="8" rx="4" fill="#E0E1E9" fill-opacity="0.8"/>
<path d="M144 79H80V81H144V79Z" fill="#E0E1E9" mask="url(#path-10-inside-4_768_65785)"/>
</svg>
