<svg xmlns="http://www.w3.org/2000/svg" width="144" height="80" fill="none"><mask id="a" fill="#fff"><path d="M80 0h64v40H80V0Z"/></mask><path fill="#fff" d="M80 0h64v40H80V0Z"/><path fill="#191B23" d="M92.528 16.406v-1.133h6.755v1.133H96.56V24h-1.313v-7.594h-2.719ZM100.775 24v-8.727h1.317v3.792h4.351v-3.792h1.321V24h-1.321v-3.805h-4.351V24h-1.317Z"/><path fill="#E0E1E9" d="M144 39H80v2h64v-2Z" mask="url(#a)"/><mask id="b" fill="#fff"><path d="M0 0h80v40H0V0Z"/></mask><path fill="#fff" d="M0 0h80v40H0V0Z"/><path fill="#191B23" d="M12.528 16.406v-1.133h6.755v1.133H16.56V24h-1.313v-7.594h-2.719ZM20.775 24v-8.727h1.317v3.792h4.35v-3.792h1.322V24h-1.321v-3.805h-4.351V24h-1.317Z"/><path fill="#E0E1E9" d="M80 39H0v2h80v-2Z" mask="url(#b)"/><mask id="c" fill="#fff"><path d="M0 40h80v40H0V40Z"/></mask><path fill="#fff" d="M0 40h80v40H0V40Z"/><rect width="64" height="8" x="8" y="52" fill="#E0E1E9" fill-opacity=".8" rx="4"/><path fill="#E0E1E9" d="M80 79H0v2h80v-2Z" mask="url(#c)"/><mask id="d" fill="#fff"><path d="M80 40h64v40H80V40Z"/></mask><path fill="#fff" d="M80 40h64v40H80V40Z"/><rect width="48" height="8" x="88" y="52" fill="#E0E1E9" fill-opacity=".8" rx="4"/><path fill="#E0E1E9" d="M144 79H80v2h64v-2Z" mask="url(#d)"/></svg>