<svg xmlns="http://www.w3.org/2000/svg" width="144" height="80" fill="none"><path fill="#fff" d="M0 0h144v80H0z"/><rect width="80" height="8" x="32" y="51" fill="#E0E1E9" fill-opacity=".8" rx="4"/><rect width="48" height="8" x="48" y="67" fill="#E0E1E9" fill-opacity=".8" rx="4"/><path fill="#A9ABB6" d="M63.641 37.858h-2.164c-.7 0-.944-.346-.74-1.099l10.577-18.396c.567-.587 1.068-.587 1.635 0L83.53 36.767c.2.672-.078 1.091-.745 1.091h-12.13a.637.637 0 1 0 0 1.274h12.13c1.602 0 2.427-1.333 1.936-2.822l-.052-.117-10.655-18.529-.083-.114c-1.106-1.2-2.495-1.2-3.6 0l-.084.114-10.654 18.529a.638.638 0 0 0-.059.136c-.467 1.577.324 2.803 1.942 2.803h2.164a.637.637 0 1 0 0-1.274Z"/><path fill="#A9ABB6" d="M65.653 38.495c0 .352.285.637.636.637h2.153a.637.637 0 1 0 0-1.274H66.29a.637.637 0 0 0-.637.637ZM70.997 25.604a1.273 1.273 0 0 1 2.546 0v3.82a1.273 1.273 0 0 1-2.546 0v-3.82ZM72.27 34.516a1.273 1.273 0 1 0 0-2.546 1.273 1.273 0 0 0 0 2.546Z"/><path fill="#A9ABB6" fill-rule="evenodd" d="M89.245 42.791c1.906 0 2.67-1.501 2.122-3.163l-16.975-29.52c-1.36-1.477-2.884-1.477-4.244 0l-16.975 29.52c-.547 1.85.216 3.163 2.122 3.163h33.95ZM73.363 10.873l16.83 29.268c.256.893-.078 1.377-.948 1.377h-33.95c-.926 0-1.209-.378-.94-1.392l16.822-29.253c.78-.8 1.405-.8 2.186 0Z" clip-rule="evenodd"/></svg>