<svg xmlns="http://www.w3.org/2000/svg" width="144" height="80" fill="none"><g clip-path="url(#a)"><mask id="b" fill="#fff"><path d="M76 0h68v80H76V0Z"/></mask><path fill="#E0E1E9" d="M76 0h68v80H76V0Z"/><path fill="#191B23" d="M95.58 34.21v-.937h6.545v.937h-2.744V42h-1.057v-7.79h-2.745Zm8.176 7.79v-8.727h1.057v3.886h4.653v-3.886h1.057V42h-1.057v-3.903h-4.653V42h-1.057Z"/><path fill="#8A8E9B" d="M129 33a1 1 0 0 1 0 2h-10a1 1 0 0 1 0-2h10ZM126 38a1 1 0 0 0-1-1h-6a1 1 0 0 0 0 2h6a1 1 0 0 0 1-1ZM122 42a1 1 0 0 0-1-1h-2a1 1 0 0 0 0 2h2a1 1 0 0 0 1-1Z"/><path fill="#E0E1E9" d="M144 79H76v2h68v-2Z" mask="url(#b)"/></g><g clip-path="url(#c)"><mask id="d" fill="#fff"><path d="M0 0h76v80H0V0Z"/></mask><path fill="#F4F5F9" d="M0 0h76v80H0V0Z"/><path fill="#191B23" d="M12.58 34.21v-.937h6.545v.937h-2.744V42h-1.057v-7.79h-2.745ZM20.755 42v-8.727h1.057v3.886h4.653v-3.886h1.057V42h-1.057v-3.903h-4.653V42h-1.057Z"/><path fill="#E0E1E9" d="M76 80v1h1v-1h-1ZM75 0v80h2V0h-2Zm1 79H0v2h76v-2Z" mask="url(#d)"/></g><defs><clipPath id="a"><path fill="#fff" d="M76 0h68v80H76z"/></clipPath><clipPath id="c"><path fill="#fff" d="M0 0h76v80H0z"/></clipPath></defs></svg>