<svg width="144" height="80" viewBox="0 0 144 80" fill="none" xmlns="http://www.w3.org/2000/svg">
<path d="M76 0H144V80H76V0Z" fill="#E0E1E9"/>
<path d="M95.5795 34.2102V33.2727H102.125V34.2102H99.3807V42H98.3239V34.2102H95.5795ZM103.756 42V33.2727H104.813V37.1591H109.466V33.2727H110.523V42H109.466V38.0966H104.813V42H103.756Z" fill="#191B23"/>
<path d="M129 33C129.552 33 130 33.4477 130 34C130 34.5523 129.552 35 129 35H119C118.448 35 118 34.5523 118 34C118 33.4477 118.448 33 119 33H129Z" fill="#8A8E9B"/>
<path d="M126 38C126 37.4477 125.552 37 125 37H119C118.448 37 118 37.4477 118 38C118 38.5523 118.448 39 119 39H125C125.552 39 126 38.5523 126 38Z" fill="#8A8E9B"/>
<path d="M122 42C122 41.4477 121.552 41 121 41H119C118.448 41 118 41.4477 118 42C118 42.5523 118.448 43 119 43H121C121.552 43 122 42.5523 122 42Z" fill="#8A8E9B"/>
<path d="M144 79H76V81H144V79Z" fill="#E0E1E9"/>
<path d="M0 0H76V80H0V0Z" fill="#F4F5F9"/>
<path d="M12.5795 34.2102V33.2727H19.125V34.2102H16.3807V42H15.3239V34.2102H12.5795ZM20.756 42V33.2727H21.8129V37.1591H26.4663V33.2727H27.5231V42H26.4663V38.0966H21.8129V42H20.756Z" fill="#191B23"/>
<path d="M46 33C46.5523 33 47 33.4477 47 34C47 34.5523 46.5523 35 46 35H36C35.4477 35 35 34.5523 35 34C35 33.4477 35.4477 33 36 33H46Z" fill="#A9ABB6"/>
<path d="M43 38C43 37.4477 42.5523 37 42 37H36C35.4477 37 35 37.4477 35 38C35 38.5523 35.4477 39 36 39H42C42.5523 39 43 38.5523 43 38Z" fill="#A9ABB6"/>
<path d="M39 42C39 41.4477 38.5523 41 38 41H36C35.4477 41 35 41.4477 35 42C35 42.5523 35.4477 43 36 43H38C38.5523 43 39 42.5523 39 42Z" fill="#A9ABB6"/>
<path d="M76 80V81H77V80H76ZM75 0V80H77V0H75ZM76 79H0V81H76V79Z" fill="#E0E1E9"/>
</svg>
