<svg xmlns="http://www.w3.org/2000/svg" width="144" height="80" fill="none" viewBox="0 0 144 80"><g clip-path="url(#a)"><mask id="b" fill="#fff"><path d="M0 40h40v40H0V40Z"/></mask><path fill="#F4F5F9" d="M0 40h40v40H0V40Z"/><path fill="#E0E1E9" d="M40 79H0v2h40v-2Z" mask="url(#b)"/><path fill="#008FF8" d="M12 56a4 4 0 0 1 4-4h8a4 4 0 0 1 4 4v8a4 4 0 0 1-4 4h-8a4 4 0 0 1-4-4v-8Z"/><path stroke="#fff" stroke-linecap="round" stroke-linejoin="round" stroke-width="2" d="M23.25 58 19 62.25 16.75 60"/><mask id="c" fill="#fff"><path d="M0 0h144v40H0V0Z"/></mask><path fill="#fff" d="M0 0h144v40H0V0Z"/><path fill="#E0E1E9" d="M144 39H0v2h144v-2Z" mask="url(#c)"/><path fill="#191B23" d="M14.175 14.818V25h-1.542v-8.64h-.06l-2.435 1.59V16.48l2.54-1.66h1.497Zm7.687 10.321c-.683 0-1.293-.117-1.83-.353-.533-.235-.956-.562-1.267-.98a2.6 2.6 0 0 1-.497-1.46h1.56c.02.3.122.563.304.785.185.218.427.387.726.507.298.12.63.179.994.179.401 0 .756-.07 1.064-.209.312-.14.555-.333.73-.582.177-.252.264-.542.264-.87 0-.341-.087-.641-.263-.9-.172-.261-.426-.467-.76-.616-.332-.15-.733-.224-1.204-.224h-.86v-1.253h.86c.378 0 .71-.068.994-.204a1.63 1.63 0 0 0 .677-.566c.162-.245.243-.532.243-.86 0-.315-.071-.589-.214-.82a1.436 1.436 0 0 0-.596-.553 1.938 1.938 0 0 0-.905-.198c-.332 0-.641.061-.93.184-.285.119-.517.291-.696.517a1.33 1.33 0 0 0-.288.8H18.48a2.51 2.51 0 0 1 .488-1.452 3.15 3.15 0 0 1 1.232-.979 4.012 4.012 0 0 1 1.7-.353c.654 0 1.217.128 1.691.383.477.252.845.588 1.104 1.009.262.421.39.882.388 1.382.003.57-.156 1.054-.478 1.452a2.314 2.314 0 0 1-1.272.8v.08c.676.102 1.2.371 1.57.805.375.434.56.973.558 1.616a2.515 2.515 0 0 1-.468 1.506 3.181 3.181 0 0 1-1.278 1.05c-.54.251-1.158.377-1.854.377Zm9.3-.139v-7.636h1.436v1.213h.08c.139-.411.384-.734.736-.97a2.106 2.106 0 0 1 1.203-.358 6.382 6.382 0 0 1 .631.035v1.422a2.66 2.66 0 0 0-.318-.055 3.037 3.037 0 0 0-.458-.035 1.94 1.94 0 0 0-.94.224 1.663 1.663 0 0 0-.884 1.497V25H31.16Zm8.316.154c-.716 0-1.341-.164-1.875-.492a3.319 3.319 0 0 1-1.243-1.377c-.294-.59-.442-1.28-.442-2.068 0-.793.148-1.485.442-2.078a3.312 3.312 0 0 1 1.243-1.383c.534-.328 1.159-.492 1.875-.492.715 0 1.34.164 1.874.492.534.328.948.79 1.243 1.383.295.593.442 1.285.442 2.078 0 .788-.147 1.478-.442 2.068a3.319 3.319 0 0 1-1.243 1.377c-.534.328-1.158.492-1.874.492Zm.005-1.248c.464 0 .848-.122 1.153-.368.305-.245.53-.571.676-.98.15-.407.224-.856.224-1.346 0-.488-.075-.935-.224-1.343a2.187 2.187 0 0 0-.676-.989c-.305-.249-.69-.373-1.153-.373-.468 0-.855.124-1.164.373a2.222 2.222 0 0 0-.68.99 3.96 3.96 0 0 0-.22 1.342c0 .49.073.94.22 1.347.148.408.375.734.68.98.308.245.696.367 1.164.367ZM46.12 25l-2.247-7.636h1.536l1.496 5.608h.075l1.501-5.608h1.536l1.492 5.583h.075l1.486-5.583h1.536L52.364 25h-1.516l-1.551-5.514h-.115L47.631 25H46.12Zm15.62-5.772-1.348.239a1.599 1.599 0 0 0-.269-.493 1.33 1.33 0 0 0-.487-.382c-.205-.1-.462-.15-.77-.15-.421 0-.773.095-1.054.284-.282.186-.423.426-.423.72 0 .256.094.461.283.617.19.156.494.284.915.383l1.213.278c.703.163 1.227.413 1.571.751.345.338.517.777.517 1.318 0 .457-.132.865-.397 1.223-.262.354-.629.633-1.1.835-.466.202-1.008.303-1.625.303-.855 0-1.553-.182-2.093-.547-.54-.368-.872-.89-.994-1.566l1.437-.219c.09.375.273.658.551.85.279.19.642.284 1.09.284.486 0 .876-.101 1.168-.303.291-.206.437-.456.437-.751a.78.78 0 0 0-.268-.602c-.176-.162-.446-.285-.81-.367l-1.293-.284c-.713-.162-1.24-.42-1.581-.775-.338-.355-.507-.804-.507-1.348 0-.45.126-.845.377-1.183.252-.338.6-.602 1.044-.79.445-.193.953-.289 1.527-.289.825 0 1.475.18 1.949.537.474.355.787.83.94 1.427Zm11.21 0-1.347.239a1.595 1.595 0 0 0-.269-.493 1.33 1.33 0 0 0-.487-.382c-.205-.1-.462-.15-.77-.15-.421 0-.773.095-1.055.284-.281.186-.422.426-.422.72 0 .256.094.461.283.617.19.156.494.284.915.383l1.213.278c.703.163 1.227.413 1.571.751.345.338.517.777.517 1.318 0 .457-.132.865-.398 1.223-.261.354-.628.633-1.098.835-.468.202-1.01.303-1.626.303-.855 0-1.553-.182-2.093-.547-.54-.368-.872-.89-.994-1.566l1.436-.219c.09.375.274.658.552.85.279.19.642.284 1.09.284.486 0 .876-.101 1.167-.303.292-.206.438-.456.438-.751a.78.78 0 0 0-.268-.602c-.176-.162-.446-.285-.81-.367l-1.294-.284c-.712-.162-1.24-.42-1.58-.775-.338-.355-.507-.804-.507-1.348 0-.45.125-.845.377-1.183.252-.338.6-.602 1.044-.79.445-.193.953-.289 1.527-.289.825 0 1.475.18 1.948.537.474.355.788.83.94 1.427Zm5.075 5.926c-.753 0-1.4-.16-1.944-.482a3.271 3.271 0 0 1-1.253-1.367c-.291-.59-.437-1.281-.437-2.073 0-.783.145-1.472.437-2.069a3.398 3.398 0 0 1 1.233-1.397c.53-.334 1.15-.502 1.86-.502.43 0 .848.072 1.252.214.405.142.768.366 1.09.671.32.305.574.701.76 1.188.185.484.278 1.073.278 1.765v.527h-6.07v-1.113h4.614c0-.391-.08-.738-.24-1.04a1.804 1.804 0 0 0-.67-.72 1.875 1.875 0 0 0-1.005-.264 1.94 1.94 0 0 0-1.093.308 2.07 2.07 0 0 0-.716.796 2.296 2.296 0 0 0-.249 1.059v.87c0 .51.09.945.269 1.302.182.358.435.632.76.82.325.186.705.28 1.139.28.281 0 .538-.04.77-.12a1.598 1.598 0 0 0 .99-.97l1.407.254a2.548 2.548 0 0 1-.607 1.089 2.94 2.94 0 0 1-1.089.72c-.434.17-.93.254-1.486.254Zm6.412-10.336V25h-1.486V14.818h1.486Zm5.291 10.336c-.752 0-1.4-.16-1.944-.482a3.271 3.271 0 0 1-1.253-1.367c-.291-.59-.437-1.281-.437-2.073 0-.783.146-1.472.437-2.069a3.398 3.398 0 0 1 1.233-1.397c.53-.334 1.15-.502 1.86-.502.43 0 .848.072 1.252.214.405.142.768.366 1.09.671.32.305.574.701.76 1.188.186.484.278 1.073.278 1.765v.527h-6.07v-1.113h4.614c0-.391-.08-.738-.24-1.04a1.803 1.803 0 0 0-.67-.72 1.875 1.875 0 0 0-1.005-.264 1.94 1.94 0 0 0-1.093.308 2.068 2.068 0 0 0-.716.796 2.295 2.295 0 0 0-.249 1.059v.87c0 .51.09.945.269 1.302.182.358.436.632.76.82.325.186.705.28 1.139.28.282 0 .538-.04.77-.12a1.597 1.597 0 0 0 .99-.97l1.407.254a2.549 2.549 0 0 1-.607 1.089 2.941 2.941 0 0 1-1.088.72c-.435.17-.93.254-1.487.254Zm8.142 0c-.739 0-1.375-.167-1.909-.502a3.325 3.325 0 0 1-1.223-1.397c-.285-.593-.427-1.273-.427-2.038 0-.776.145-1.46.437-2.054a3.352 3.352 0 0 1 1.233-1.397c.53-.334 1.155-.502 1.874-.502.58 0 1.097.108 1.551.323.454.212.821.51 1.099.895a2.7 2.7 0 0 1 .502 1.348H99.56a1.734 1.734 0 0 0-.546-.925c-.282-.259-.66-.388-1.134-.388-.414 0-.777.11-1.089.328-.308.216-.548.524-.72.925-.173.398-.259.868-.259 1.412 0 .557.085 1.037.254 1.442.169.404.407.717.715.94.312.221.678.332 1.1.332.28 0 .536-.051.765-.154.232-.106.426-.257.582-.452.159-.196.27-.431.333-.706h1.446a2.804 2.804 0 0 1-.482 1.322 2.77 2.77 0 0 1-1.079.915c-.447.222-.973.333-1.576.333Zm8.292-7.79v1.193h-4.172v-1.193h4.172Zm-3.053-1.83h1.487v7.224c0 .288.043.505.129.651.086.143.197.24.333.293.139.05.29.075.452.075.12 0 .224-.008.314-.025.089-.016.159-.03.208-.04l.269 1.228a2.497 2.497 0 0 1-.368.1 2.916 2.916 0 0 1-.597.06 2.612 2.612 0 0 1-1.093-.21 1.874 1.874 0 0 1-.821-.675c-.209-.305-.313-.688-.313-1.149v-7.532Zm7.906 9.62c-.752 0-1.4-.16-1.944-.482a3.273 3.273 0 0 1-1.253-1.367c-.291-.59-.437-1.281-.437-2.073 0-.783.146-1.472.437-2.069a3.398 3.398 0 0 1 1.233-1.397c.531-.334 1.15-.502 1.86-.502.431 0 .848.072 1.253.214a3.03 3.03 0 0 1 1.088.671c.322.305.575.701.761 1.188.186.484.278 1.073.278 1.765v.527h-6.07v-1.113h4.614c0-.391-.08-.738-.239-1.04a1.805 1.805 0 0 0-.671-.72 1.875 1.875 0 0 0-1.004-.264 1.94 1.94 0 0 0-1.094.308 2.071 2.071 0 0 0-.716.796 2.293 2.293 0 0 0-.249 1.059v.87c0 .51.09.945.269 1.302.182.358.436.632.761.82.324.186.704.28 1.138.28.282 0 .539-.04.771-.12.232-.083.432-.206.601-.368.169-.163.298-.363.388-.602l1.407.254a2.549 2.549 0 0 1-.607 1.089 2.939 2.939 0 0 1-1.088.72c-.435.17-.93.254-1.487.254Zm7.784-.005a2.958 2.958 0 0 1-1.65-.472c-.481-.318-.859-.77-1.134-1.357-.272-.59-.407-1.298-.407-2.123 0-.826.137-1.531.412-2.118.279-.587.66-1.036 1.144-1.348a2.973 2.973 0 0 1 1.645-.467c.474 0 .855.08 1.144.239.291.156.517.338.676.547.162.209.288.392.378.552h.089v-3.784h1.487V25h-1.452v-1.188h-.124c-.09.162-.219.348-.388.557a2.154 2.154 0 0 1-.686.547c-.292.155-.67.233-1.134.233Zm.328-1.268c.428 0 .789-.112 1.084-.338.299-.228.524-.545.676-.95.156-.404.234-.874.234-1.411 0-.53-.076-.994-.229-1.392-.152-.398-.376-.708-.671-.93-.295-.222-.659-.333-1.094-.333-.447 0-.82.116-1.118.348a2.125 2.125 0 0 0-.676.95 3.876 3.876 0 0 0-.224 1.357c0 .51.076.97.229 1.377.152.408.378.73.676.97.301.235.673.352 1.113.352Z"/><mask id="d" fill="#fff"><path d="M40 40h104v40H40V40Z"/></mask><path fill="#F4F5F9" d="M40 40h104v40H40V40Z"/><path fill="#E0E1E9" d="M144 80v1h1v-1h-1Zm0-40h-1v40h2V40h-1Zm0 40v-1H40v2h104v-1Z" mask="url(#d)"/><path fill="#191B23" d="M52.528 56.406v-1.133h6.755v1.133H56.56V64h-1.313v-7.594h-2.719ZM60.775 64v-8.727h1.317v3.792h4.35v-3.792h1.322V64h-1.321v-3.805h-4.351V64h-1.317Z"/></g><rect width="143" height="79" x=".5" y=".5" stroke="#E0E1E9" rx="5.5"/><defs><clipPath id="a"><rect width="144" height="80" fill="#fff" rx="6"/></clipPath></defs></svg>