<svg width="144" height="80" viewBox="0 0 144 80" fill="none" xmlns="http://www.w3.org/2000/svg">
  <g filter="url(#a)">
    <path fill="#F4F5F9" d="M0 0h40v40H0z"/>
    <path d="M12 16a4 4 0 0 1 4-4h8a4 4 0 0 1 4 4v8a4 4 0 0 1-4 4h-8a4 4 0 0 1-4-4v-8Z" fill="#008FF8"/>
    <path d="M23.25 18 19 22.25 16.75 20" stroke="#fff" stroke-width="2" stroke-linecap="round" stroke-linejoin="round"/>
  </g>
  <path d="M40 0h104v40H40V0Z" fill="#F4F5F9"/>
  <path d="M52.53 16.4v-1.13h6.75v1.14h-2.72V24h-1.31v-7.6h-2.72Zm8.25 7.6v-8.73h1.31v3.8h4.35v-3.8h1.32V24h-1.32v-3.8H62.1V24h-1.31Z" fill="#191B23"/>
  <path d="M86 15a1 1 0 1 1 0 2H76a1 1 0 1 1 0-2h10ZM83 20a1 1 0 0 0-1-1h-6a1 1 0 1 0 0 2h6a1 1 0 0 0 1-1ZM79 24a1 1 0 0 0-1-1h-2a1 1 0 1 0 0 2h2a1 1 0 0 0 1-1Z" fill="#A9ABB6"/>
  <path d="M144 39H40v2h104v-2Z" fill="#E0E1E9"/>
  <g filter="url(#b)">
    <path fill="#F4F5F9" d="M0 40h144v40H0z"/>
    <path d="M14.17 56.82V67h-1.54v-8.64h-.06l-2.43 1.59v-1.47l2.54-1.66h1.5Zm7.7 10.32c-.7 0-1.3-.12-1.84-.35a3.1 3.1 0 0 1-1.27-.98 2.6 2.6 0 0 1-.5-1.46h1.57c.02.3.12.56.3.78.19.22.43.39.73.5.3.13.63.19 1 .19.4 0 .75-.07 1.06-.21.3-.14.55-.34.73-.58.17-.26.26-.55.26-.87 0-.35-.09-.65-.26-.9a1.72 1.72 0 0 0-.76-.62 2.92 2.92 0 0 0-1.2-.22h-.87v-1.26h.86c.38 0 .71-.06 1-.2a1.52 1.52 0 0 0 .92-1.43c0-.31-.07-.59-.22-.82a1.44 1.44 0 0 0-.6-.55c-.25-.13-.55-.2-.9-.2-.33 0-.64.06-.93.19-.28.11-.51.29-.7.51-.17.22-.27.5-.28.8h-1.49c.02-.55.18-1.03.49-1.45.31-.42.72-.74 1.23-.98a4.01 4.01 0 0 1 1.7-.35c.65 0 1.22.13 1.7.38.47.25.84.59 1.1 1.01.26.42.39.88.38 1.38a2.21 2.21 0 0 1-1.75 2.26v.07c.68.1 1.2.38 1.57.81.38.43.56.97.56 1.62 0 .56-.15 1.06-.47 1.5-.3.45-.73.8-1.27 1.05s-1.16.38-1.86.38Zm9.3-.14v-7.64h1.43v1.22h.08c.14-.41.38-.74.73-.97a2.1 2.1 0 0 1 1.2-.36 6.38 6.38 0 0 1 .64.03v1.43a3.04 3.04 0 0 0-.78-.09c-.35 0-.66.07-.94.22a1.66 1.66 0 0 0-.88 1.5V67h-1.49Zm8.3.15a3.32 3.32 0 0 1-3.12-1.87 4.57 4.57 0 0 1-.43-2.06c0-.8.15-1.49.44-2.08a3.31 3.31 0 0 1 3.12-1.88 3.31 3.31 0 0 1 3.12 1.87c.29.6.44 1.3.44 2.09 0 .79-.15 1.47-.45 2.06a3.32 3.32 0 0 1-3.11 1.87Zm.01-1.24c.47 0 .85-.13 1.16-.37.3-.25.53-.57.67-.98.15-.4.23-.86.23-1.35 0-.49-.08-.93-.23-1.34a2.19 2.19 0 0 0-.67-.99c-.3-.25-.7-.37-1.16-.37-.46 0-.85.12-1.16.37-.3.25-.53.58-.68.99-.15.4-.22.85-.22 1.34 0 .5.07.94.22 1.35.15.4.37.73.68.98.3.24.7.37 1.16.37ZM46.12 67l-2.25-7.64h1.54l1.5 5.61h.07l1.5-5.6h1.54l1.49 5.58h.07l1.49-5.59h1.54L52.36 67h-1.51l-1.55-5.51h-.12L47.63 67h-1.51Zm15.62-5.77-1.35.24a1.6 1.6 0 0 0-.27-.5 1.33 1.33 0 0 0-.48-.38c-.2-.1-.47-.15-.77-.15-.43 0-.78.1-1.06.29-.28.18-.42.42-.42.72 0 .25.1.46.28.61.2.16.5.29.92.39l1.21.27c.7.17 1.23.42 1.57.76.35.33.52.77.52 1.31a2 2 0 0 1-.4 1.23 2.6 2.6 0 0 1-1.1.83c-.47.2-1 .3-1.62.3-.86 0-1.56-.18-2.1-.54a2.31 2.31 0 0 1-1-1.57l1.45-.22c.09.38.27.66.55.85.28.2.64.29 1.09.29.48 0 .87-.1 1.16-.3.3-.21.44-.46.44-.76a.78.78 0 0 0-.27-.6 1.76 1.76 0 0 0-.8-.37l-1.3-.28a3.1 3.1 0 0 1-1.58-.78c-.34-.35-.5-.8-.5-1.34 0-.45.12-.85.37-1.19.25-.34.6-.6 1.04-.79.45-.19.96-.29 1.53-.29.83 0 1.48.18 1.95.54.47.36.79.83.94 1.43Zm11.21 0-1.35.24a1.6 1.6 0 0 0-.27-.5 1.33 1.33 0 0 0-.48-.38c-.2-.1-.47-.15-.77-.15-.42 0-.78.1-1.06.29-.28.18-.42.42-.42.72 0 .25.1.46.28.61.2.16.5.29.92.39l1.21.27c.7.17 1.23.42 1.57.76.35.33.52.77.52 1.31a2 2 0 0 1-.4 1.23 2.6 2.6 0 0 1-1.1.83c-.46.2-1 .3-1.62.3-.86 0-1.56-.18-2.1-.54a2.31 2.31 0 0 1-.99-1.57l1.44-.22c.09.38.27.66.55.85.28.2.64.29 1.09.29.48 0 .87-.1 1.17-.3.29-.21.43-.46.43-.76a.78.78 0 0 0-.27-.6 1.76 1.76 0 0 0-.8-.37l-1.3-.28a3.1 3.1 0 0 1-1.58-.78c-.34-.35-.5-.8-.5-1.34 0-.45.12-.85.37-1.19.25-.34.6-.6 1.05-.79.44-.19.95-.29 1.52-.29.83 0 1.48.18 1.95.54.47.36.79.83.94 1.43Zm5.07 5.92c-.75 0-1.4-.16-1.94-.48a3.27 3.27 0 0 1-1.25-1.37 4.63 4.63 0 0 1-.44-2.07c0-.78.15-1.47.44-2.07.3-.6.7-1.06 1.23-1.4a3.74 3.74 0 0 1 3.11-.29 3.03 3.03 0 0 1 1.85 1.87c.19.48.28 1.07.28 1.76v.53h-6.07v-1.11h4.61c0-.4-.08-.74-.23-1.04a1.8 1.8 0 0 0-1.68-.99c-.42 0-.78.1-1.1.31-.3.2-.54.47-.7.8a2.3 2.3 0 0 0-.26 1.05v.87c0 .52.1.95.27 1.3.18.37.44.64.76.83.33.18.7.28 1.14.28.28 0 .54-.04.77-.12a1.6 1.6 0 0 0 .99-.97l1.4.25c-.1.42-.3.78-.6 1.09-.29.3-.65.55-1.09.72-.43.17-.93.25-1.49.25Zm6.42-10.33V67h-1.49V56.82h1.49Zm5.29 10.33c-.75 0-1.4-.16-1.95-.48a3.27 3.27 0 0 1-1.25-1.37 4.63 4.63 0 0 1-.44-2.07c0-.78.15-1.47.44-2.07.3-.6.7-1.06 1.23-1.4a3.74 3.74 0 0 1 3.11-.29 3.03 3.03 0 0 1 1.86 1.87c.18.48.27 1.07.27 1.76v.53h-6.07v-1.11h4.62c0-.4-.08-.74-.24-1.04a1.8 1.8 0 0 0-1.68-.99c-.41 0-.78.1-1.09.31-.3.2-.55.47-.72.8a2.3 2.3 0 0 0-.24 1.05v.87c0 .52.08.95.26 1.3.19.37.44.64.76.83.33.18.7.28 1.14.28.28 0 .54-.04.77-.12a1.6 1.6 0 0 0 .99-.97l1.41.25c-.11.42-.32.78-.6 1.09-.3.3-.66.55-1.1.72-.43.17-.93.25-1.48.25Zm8.14 0c-.74 0-1.38-.16-1.9-.5-.54-.34-.95-.8-1.23-1.4a4.65 4.65 0 0 1-.43-2.03c0-.78.15-1.46.44-2.06.29-.6.7-1.06 1.23-1.4.53-.33 1.16-.5 1.88-.5.58 0 1.1.11 1.55.33a2.7 2.7 0 0 1 1.6 2.24h-1.45a1.73 1.73 0 0 0-.55-.93 1.61 1.61 0 0 0-1.13-.38c-.41 0-.78.1-1.09.33-.3.21-.55.52-.72.92-.17.4-.26.87-.26 1.41 0 .56.09 1.04.26 1.44.16.4.4.72.71.94.31.23.68.34 1.1.34.28 0 .54-.06.77-.16.23-.1.42-.25.58-.45.16-.2.27-.43.33-.7h1.45a2.8 2.8 0 0 1-1.56 2.23 3.5 3.5 0 0 1-1.58.33Zm8.3-7.79v1.2h-4.18v-1.2h4.17Zm-3.06-1.83h1.49v7.23c0 .29.04.5.13.65.08.14.2.24.33.3a1.74 1.74 0 0 0 .77.05l.2-.05.27 1.23a2.92 2.92 0 0 1-2.06-.05 1.87 1.87 0 0 1-.82-.68c-.2-.3-.31-.68-.31-1.14v-7.54Zm7.9 9.62c-.75 0-1.4-.16-1.94-.48a3.27 3.27 0 0 1-1.25-1.37 4.63 4.63 0 0 1-.44-2.07c0-.78.15-1.47.44-2.07.3-.6.7-1.06 1.23-1.4a3.75 3.75 0 0 1 3.11-.29 3.03 3.03 0 0 1 1.85 1.87c.19.48.28 1.07.28 1.76v.53h-6.07v-1.11h4.61c0-.4-.08-.74-.23-1.04a1.8 1.8 0 0 0-1.68-.99c-.42 0-.78.1-1.1.31-.3.2-.54.47-.7.8a2.3 2.3 0 0 0-.26 1.05v.87c0 .52.1.95.27 1.3.18.37.44.64.76.83.33.18.7.28 1.14.28.28 0 .54-.04.77-.12a1.6 1.6 0 0 0 .99-.97l1.4.25c-.1.42-.3.78-.6 1.09-.29.3-.65.55-1.09.72-.43.17-.93.25-1.48.25Zm7.79 0a2.96 2.96 0 0 1-2.78-1.83c-.28-.59-.41-1.3-.41-2.12 0-.83.14-1.53.41-2.12a2.97 2.97 0 0 1 2.79-1.81c.47 0 .85.07 1.14.23.3.16.52.34.68.55.16.2.29.4.38.55h.09v-3.78h1.48V67h-1.45v-1.19h-.12c-.1.16-.22.35-.4.56a2.15 2.15 0 0 1-1.81.78Zm.33-1.27c.43 0 .79-.11 1.08-.34.3-.23.53-.54.68-.95.15-.4.23-.87.23-1.4 0-.54-.08-1-.23-1.4-.15-.4-.37-.7-.67-.93-.3-.22-.66-.33-1.1-.33-.44 0-.81.11-1.11.34-.3.24-.53.55-.68.95-.15.4-.22.86-.22 1.36 0 .51.08.97.23 1.38.15.4.38.73.67.97.3.23.68.35 1.12.35Z" fill="#191B23"/>
  </g>
  <defs>
    <filter id="a" x="0" y="0" width="40" height="40" filterUnits="userSpaceOnUse" color-interpolation-filters="sRGB">
      <feFlood flood-opacity="0" result="BackgroundImageFix"/>
      <feBlend in="SourceGraphic" in2="BackgroundImageFix" result="shape"/>
      <feColorMatrix in="SourceAlpha" values="0 0 0 0 0 0 0 0 0 0 0 0 0 0 0 0 0 0 127 0" result="hardAlpha"/>
      <feOffset dy="-1"/>
      <feComposite in2="hardAlpha" operator="arithmetic" k2="-1" k3="1"/>
      <feColorMatrix values="0 0 0 0 0.878431 0 0 0 0 0.882353 0 0 0 0 0.913725 0 0 0 1 0"/>
      <feBlend in2="shape" result="effect1_innerShadow_766_68064"/>
      <feColorMatrix in="SourceAlpha" values="0 0 0 0 0 0 0 0 0 0 0 0 0 0 0 0 0 0 127 0" result="hardAlpha"/>
      <feOffset dx="-1" dy="-1"/>
      <feComposite in2="hardAlpha" operator="arithmetic" k2="-1" k3="1"/>
      <feColorMatrix values="0 0 0 0 0.878431 0 0 0 0 0.882353 0 0 0 0 0.913725 0 0 0 1 0"/>
      <feBlend in2="effect1_innerShadow_766_68064" result="effect2_innerShadow_766_68064"/>
    </filter>
    <filter id="b" x="0" y="40" width="144" height="40" filterUnits="userSpaceOnUse" color-interpolation-filters="sRGB">
      <feFlood flood-opacity="0" result="BackgroundImageFix"/>
      <feBlend in="SourceGraphic" in2="BackgroundImageFix" result="shape"/>
      <feColorMatrix in="SourceAlpha" values="0 0 0 0 0 0 0 0 0 0 0 0 0 0 0 0 0 0 127 0" result="hardAlpha"/>
      <feOffset dy="-1"/>
      <feComposite in2="hardAlpha" operator="arithmetic" k2="-1" k3="1"/>
      <feColorMatrix values="0 0 0 0 0.878431 0 0 0 0 0.882353 0 0 0 0 0.913725 0 0 0 1 0"/>
      <feBlend in2="shape" result="effect1_innerShadow_766_68064"/>
    </filter>
  </defs>
</svg>
