<svg width="144" height="80" viewBox="0 0 144 80" fill="none" xmlns="http://www.w3.org/2000/svg">
  <path fill="#fff" d="M0 0h144v80H0z"/>
  <g filter="url(#a)">
    <path fill="#fff" d="M0 2h24v24H0z"/>
    <path fill-rule="evenodd" clip-rule="evenodd" d="M7.3 12.3a1 1 0 0 1 1.4 0l3.3 3.29 3.3-3.3a1 1 0 0 1 1.4 1.42l-4 4a1 1 0 0 1-1.4 0l-4-4a1 1 0 0 1 0-1.42Z" fill="#A9ABB6"/>
  </g>
  <g filter="url(#b)">
    <path fill="#fff" d="M24 2h120v24H24z"/>
    <path d="M41.58 12.13h-1.56a2.37 2.37 0 0 0-.93-1.52c-.23-.17-.5-.3-.79-.4a3.09 3.09 0 0 0-2.5.31c-.45.3-.82.73-1.09 1.3-.26.57-.4 1.27-.4 2.09 0 .83.14 1.53.4 2.1.27.57.64 1 1.1 1.29a3.18 3.18 0 0 0 2.48.3 2.4 2.4 0 0 0 1.73-1.89l1.56.01a4.15 4.15 0 0 1-1.4 2.47c-.36.3-.79.53-1.26.7-.47.17-1 .25-1.55.25-.88 0-1.67-.21-2.36-.63a4.38 4.38 0 0 1-1.63-1.8c-.4-.78-.59-1.72-.59-2.8 0-1.09.2-2.02.6-2.8a4.35 4.35 0 0 1 3.98-2.43c.54 0 1.04.08 1.51.23a3.99 3.99 0 0 1 2.2 1.76c.24.43.4.91.5 1.46Zm3.94 7.04c-.49 0-.92-.1-1.32-.27-.39-.18-.7-.45-.93-.79a2.27 2.27 0 0 1-.33-1.27c0-.43.08-.78.24-1.06.17-.28.4-.5.68-.66.28-.17.6-.29.94-.37.35-.08.7-.15 1.06-.19l1.12-.13c.28-.04.49-.1.62-.17.13-.08.2-.21.2-.4v-.03c0-.43-.13-.77-.37-1-.25-.24-.6-.36-1.09-.36-.5 0-.9.1-1.18.33-.29.22-.48.46-.6.73l-1.39-.32A2.69 2.69 0 0 1 45 11.46a4.33 4.33 0 0 1 2.3-.09c.34.07.66.2.96.4.3.18.54.45.74.8.19.35.28.8.28 1.36V19h-1.45v-1.04h-.06a2.3 2.3 0 0 1-1.17 1.03c-.3.12-.66.18-1.08.18Zm.32-1.2c.41 0 .76-.08 1.05-.24a1.7 1.7 0 0 0 .9-1.48v-.99a.78.78 0 0 1-.3.15 4.8 4.8 0 0 1-.51.11 60.57 60.57 0 0 1-1.02.15c-.29.04-.55.1-.8.18-.23.09-.42.21-.56.38a.93.93 0 0 0-.2.63c0 .37.13.65.4.84.27.18.62.28 1.04.28Zm8.99-6.6v1.19h-4.17v-1.2h4.17Zm-3.05-1.84h1.48v7.23c0 .29.05.5.13.65.09.14.2.24.34.3a1.74 1.74 0 0 0 .77.05l.2-.05.27 1.23c-.09.03-.21.07-.37.1a2.92 2.92 0 0 1-1.69-.15 1.88 1.88 0 0 1-.82-.68c-.2-.3-.31-.68-.31-1.14V9.53ZM60.3 19V8.82h1.48v3.78h.1c.08-.16.2-.34.37-.55.16-.2.38-.4.67-.55.3-.16.67-.24 1.15-.24a2.98 2.98 0 0 1 2.79 1.82c.27.59.41 1.3.41 2.12a5 5 0 0 1-.4 2.12 2.93 2.93 0 0 1-2.78 1.83 2.15 2.15 0 0 1-1.82-.78c-.18-.21-.3-.4-.4-.56h-.12V19H60.3Zm1.46-3.82c0 .54.07 1 .23 1.41.15.4.38.72.67.95.3.23.66.34 1.09.34.44 0 .81-.12 1.11-.35.3-.24.53-.56.68-.97.15-.4.23-.87.23-1.38 0-.5-.07-.95-.23-1.36-.15-.4-.37-.71-.67-.95-.3-.23-.67-.34-1.12-.34-.43 0-.8.1-1.1.33-.29.22-.51.53-.67.93-.15.4-.22.86-.22 1.4ZM68.94 19v-7.64h1.44v1.22h.08c.14-.41.38-.74.73-.97a2.1 2.1 0 0 1 1.2-.36 6.38 6.38 0 0 1 .64.03v1.43a3.04 3.04 0 0 0-.78-.09c-.35 0-.66.07-.94.22a1.66 1.66 0 0 0-.88 1.5V19h-1.49Zm8.4.15c-.76 0-1.4-.16-1.95-.48a3.27 3.27 0 0 1-1.25-1.37 4.63 4.63 0 0 1-.44-2.07c0-.78.15-1.47.44-2.07.3-.6.7-1.06 1.23-1.4a3.74 3.74 0 0 1 3.11-.29 3.03 3.03 0 0 1 1.85 1.87c.19.48.28 1.07.28 1.76v.53h-6.07v-1.11h4.61c0-.4-.08-.74-.24-1.04a1.8 1.8 0 0 0-1.67-.99c-.42 0-.78.1-1.1.31-.3.2-.54.47-.71.8a2.3 2.3 0 0 0-.25 1.05v.87c0 .52.09.95.27 1.3.18.37.44.64.76.83.32.18.7.28 1.14.28.28 0 .54-.04.77-.12a1.6 1.6 0 0 0 .99-.97l1.4.25c-.1.42-.31.78-.6 1.09-.29.3-.65.55-1.09.72-.43.17-.93.25-1.49.25Zm8.21 0c-.75 0-1.4-.16-1.94-.48a3.27 3.27 0 0 1-1.26-1.37 4.62 4.62 0 0 1-.43-2.07c0-.78.14-1.47.43-2.07.3-.6.71-1.06 1.24-1.4a3.74 3.74 0 0 1 3.11-.29 3.03 3.03 0 0 1 1.85 1.87c.18.48.28 1.07.28 1.76v.53h-6.07v-1.11h4.61c0-.4-.08-.74-.24-1.04a1.8 1.8 0 0 0-1.67-.99c-.42 0-.79.1-1.1.31-.3.2-.54.47-.71.8a2.3 2.3 0 0 0-.25 1.05v.87c0 .52.09.95.27 1.3.18.37.43.64.76.83.32.18.7.28 1.14.28.28 0 .53-.04.77-.12a1.6 1.6 0 0 0 .99-.97l1.4.25c-.11.42-.31.78-.6 1.09-.3.3-.66.55-1.1.72-.43.17-.92.25-1.48.25Zm7.78 0a2.96 2.96 0 0 1-2.78-1.83c-.27-.59-.4-1.3-.4-2.12 0-.83.13-1.53.4-2.12a2.97 2.97 0 0 1 2.79-1.81c.48 0 .86.07 1.15.23.29.16.52.34.67.55.17.2.3.4.38.55h.1V8.82h1.48V19h-1.45v-1.19h-.13c-.09.16-.22.35-.39.56a2.15 2.15 0 0 1-1.82.78Zm.33-1.27c.43 0 .8-.11 1.09-.34.3-.23.52-.54.67-.95.16-.4.24-.87.24-1.4 0-.54-.08-1-.23-1.4-.15-.4-.38-.7-.67-.93-.3-.22-.66-.33-1.1-.33-.44 0-.82.11-1.12.35-.3.23-.52.54-.67.94-.15.4-.23.86-.23 1.36 0 .51.08.97.23 1.38.16.4.38.73.68.97.3.23.67.35 1.11.35Zm11.3-4.65-1.34.24a1.6 1.6 0 0 0-.27-.5 1.33 1.33 0 0 0-.5-.38c-.2-.1-.45-.15-.76-.15-.42 0-.77.1-1.06.29-.28.18-.42.42-.42.72 0 .25.1.46.28.61.2.16.5.29.92.39l1.21.27c.7.17 1.23.42 1.57.76.35.33.52.77.52 1.31a2 2 0 0 1-.4 1.23 2.6 2.6 0 0 1-1.1.83c-.46.2-1 .3-1.62.3-.86 0-1.55-.18-2.1-.54a2.31 2.31 0 0 1-.99-1.57l1.44-.22c.09.38.27.66.55.85.28.2.64.29 1.09.29.49 0 .88-.1 1.17-.3.29-.21.43-.46.43-.76a.78.78 0 0 0-.26-.6 1.76 1.76 0 0 0-.81-.37l-1.3-.28a3.1 3.1 0 0 1-1.58-.78c-.34-.35-.5-.8-.5-1.34 0-.45.12-.85.37-1.19.25-.33.6-.6 1.05-.79.44-.19.95-.29 1.52-.29.83 0 1.48.18 1.95.54.48.36.79.83.94 1.43Z" fill="#006DCA"/>
  </g>
  <g filter="url(#c)">
    <path fill="#fff" d="M24 26h120v26H24z"/>
    <path d="M33.12 44V33.82h3.73c.72 0 1.32.12 1.8.36a2.45 2.45 0 0 1 1.4 2.31c0 .43-.07.79-.22 1.08-.16.29-.37.52-.63.7-.26.17-.54.3-.86.37v.1c.34.02.67.13 1 .33.32.2.59.48.8.85.21.37.32.81.32 1.34a2.5 2.5 0 0 1-1.5 2.38c-.5.24-1.15.36-1.94.36h-3.9Zm1.53-1.32h2.22c.74 0 1.26-.14 1.58-.42.32-.29.48-.65.48-1.07a1.68 1.68 0 0 0-.94-1.53c-.3-.16-.65-.24-1.06-.24h-2.28v3.26Zm0-4.46h2.06c.35 0 .66-.06.93-.2a1.48 1.48 0 0 0 .91-1.41c0-.42-.14-.77-.44-1.06-.3-.28-.75-.42-1.36-.42h-2.1v3.1Zm10.8 5.93c-.75 0-1.4-.16-1.94-.48a3.27 3.27 0 0 1-1.26-1.37 4.62 4.62 0 0 1-.43-2.07c0-.78.14-1.47.43-2.07.3-.6.71-1.06 1.24-1.4a3.74 3.74 0 0 1 3.11-.29 3.03 3.03 0 0 1 1.85 1.87c.18.48.28 1.07.28 1.76v.53h-6.07v-1.11h4.61c0-.4-.08-.74-.24-1.04a1.8 1.8 0 0 0-1.67-.99c-.42 0-.79.1-1.1.31-.3.2-.54.47-.71.8a2.3 2.3 0 0 0-.25 1.05v.87c0 .52.09.95.27 1.3.18.37.43.64.76.83.32.18.7.28 1.14.28.28 0 .53-.04.77-.12a1.6 1.6 0 0 0 .99-.97l1.4.25c-.11.42-.31.78-.6 1.09-.3.3-.66.55-1.1.72-.43.17-.92.25-1.48.25Zm6.41-4.68V44h-1.48v-7.64h1.42v1.25h.1c.17-.4.45-.73.82-.98.38-.24.86-.37 1.43-.37.52 0 .98.11 1.37.33.39.22.7.54.9.97.22.42.33.95.33 1.58V44h-1.49v-4.68c0-.55-.14-.98-.43-1.3a1.53 1.53 0 0 0-1.19-.47c-.34 0-.65.08-.92.23a1.6 1.6 0 0 0-.63.65c-.15.29-.23.63-.23 1.04Zm10.09 7.55a4.6 4.6 0 0 1-1.57-.24 3.03 3.03 0 0 1-1.06-.63 2.65 2.65 0 0 1-.62-.86l1.28-.52c.09.14.2.3.35.46.16.16.36.3.62.42s.6.17 1.01.17c.56 0 1.03-.13 1.4-.4.37-.28.55-.71.55-1.31v-1.5h-.1a3.4 3.4 0 0 1-.38.54c-.17.2-.4.37-.69.52-.3.14-.67.22-1.14.22a3 3 0 0 1-2.77-1.68 4.56 4.56 0 0 1-.42-2.06c0-.81.14-1.5.41-2.09.28-.58.66-1.02 1.15-1.33a2.97 2.97 0 0 1 1.64-.47c.48 0 .86.08 1.15.24.3.16.52.34.68.55.17.2.3.4.38.55h.11v-1.24h1.46v7.8c0 .67-.15 1.2-.46 1.62-.3.43-.71.74-1.23.94-.52.2-1.1.3-1.75.3Zm-.02-4.37c.43 0 .79-.1 1.08-.3.3-.2.53-.49.68-.86.16-.38.23-.83.23-1.36 0-.51-.07-.96-.22-1.36-.16-.39-.38-.7-.68-.91-.3-.22-.66-.33-1.09-.33-.45 0-.82.11-1.12.34-.3.23-.52.55-.67.94-.15.4-.23.83-.23 1.32 0 .5.08.94.23 1.32.15.38.38.67.68.88.3.22.67.32 1.11.32Zm7.68 1.52c-.49 0-.92-.09-1.32-.27-.39-.18-.7-.45-.93-.79a2.27 2.27 0 0 1-.33-1.27c0-.43.08-.78.24-1.06.17-.28.4-.5.68-.66.28-.17.6-.29.94-.37.35-.08.7-.15 1.06-.19l1.12-.13c.28-.04.49-.1.62-.17.13-.08.2-.21.2-.4v-.03c0-.43-.13-.77-.37-1-.25-.24-.6-.36-1.09-.36-.5 0-.9.1-1.18.33-.29.22-.48.46-.6.73l-1.39-.32a2.69 2.69 0 0 1 1.83-1.75 4.33 4.33 0 0 1 2.3-.09c.34.07.66.2.96.4.3.18.54.45.74.8.19.35.28.8.28 1.36V44h-1.45v-1.04h-.06a2.3 2.3 0 0 1-1.17 1.03c-.3.12-.66.18-1.08.18Zm.32-1.2c.41 0 .76-.08 1.05-.24a1.7 1.7 0 0 0 .9-1.48v-.99a.78.78 0 0 1-.3.15 4.8 4.8 0 0 1-.51.11 60.07 60.07 0 0 1-1.02.15c-.29.04-.55.1-.8.18-.23.09-.42.21-.56.38a.93.93 0 0 0-.2.63c0 .37.13.65.4.84.27.18.62.28 1.04.28Zm6.91-9.15V44h-1.49V33.82h1.5Zm54.84 0V44h-1.55v-8.64h-.05l-2.44 1.59v-1.47l2.54-1.66h1.5ZM136.03 44v-1.11l3.44-3.57c.37-.4.68-.73.91-1.02.25-.3.43-.58.55-.84.11-.27.17-.55.17-.85a1.57 1.57 0 0 0-.89-1.44c-.27-.14-.58-.2-.93-.2-.36 0-.68.07-.95.22-.27.14-.48.36-.63.63a2 2 0 0 0-.21.95h-1.47a2.9 2.9 0 0 1 1.6-2.7c.5-.26 1.06-.4 1.7-.4.63 0 1.2.14 1.69.4.49.24.87.59 1.14 1.03.28.43.42.92.42 1.47a3 3 0 0 1-.22 1.1c-.14.37-.38.77-.73 1.21-.35.45-.83.98-1.45 1.61l-2.02 2.12v.07h4.58V44h-6.7Z" fill="#006DCA"/>
    <path d="M82.84 44v-1.11l3.45-3.57c.37-.4.67-.73.91-1.02.24-.3.42-.58.54-.84.12-.27.18-.55.18-.85a1.56 1.56 0 0 0-.89-1.45c-.27-.13-.58-.2-.93-.2-.36 0-.68.08-.95.23-.28.14-.48.36-.63.63-.15.27-.22.59-.22.95h-1.47a2.9 2.9 0 0 1 1.6-2.7c.5-.26 1.07-.4 1.7-.4.64 0 1.2.14 1.7.4.48.24.86.59 1.14 1.03.27.43.41.92.41 1.47a3 3 0 0 1-.21 1.1c-.14.37-.38.77-.73 1.21-.35.45-.83.98-1.45 1.61l-2.03 2.12v.07h4.59V44h-6.7Zm12.57.14c-.68 0-1.3-.12-1.83-.35a3.1 3.1 0 0 1-1.27-.98 2.6 2.6 0 0 1-.5-1.46h1.57c.02.3.12.56.3.78.18.22.43.39.72.5.3.13.63.19 1 .19.4 0 .75-.07 1.06-.21.31-.14.56-.34.73-.58.18-.26.27-.55.27-.87 0-.35-.1-.65-.27-.9a1.72 1.72 0 0 0-.76-.62 2.92 2.92 0 0 0-1.2-.22h-.86v-1.26h.86c.38 0 .7-.06 1-.2.28-.14.5-.33.67-.57.16-.24.24-.53.24-.86 0-.31-.07-.59-.21-.82a1.44 1.44 0 0 0-.6-.55c-.25-.13-.55-.2-.9-.2-.33 0-.64.06-.93.19-.29.11-.52.29-.7.51-.18.22-.27.5-.29.8h-1.48c.01-.55.18-1.03.49-1.45.3-.42.72-.74 1.23-.98a4.01 4.01 0 0 1 1.7-.35c.65 0 1.22.13 1.69.38.48.25.84.59 1.1 1.01.26.42.4.88.4 1.38a2.21 2.21 0 0 1-1.76 2.26v.07c.68.1 1.2.38 1.57.81.38.43.56.97.56 1.62 0 .56-.15 1.06-.47 1.5-.31.45-.74.8-1.28 1.05s-1.16.38-1.85.38Zm9.29 0c-.46 0-.9-.09-1.34-.25a3.14 3.14 0 0 1-1.2-.8 4 4 0 0 1-.86-1.5 9.6 9.6 0 0 1-.05-4.71c.18-.68.43-1.27.77-1.74.33-.48.74-.84 1.21-1.09.47-.25 1-.37 1.6-.37.6 0 1.14.12 1.61.36.47.24.85.57 1.15.99.3.42.48.9.56 1.43h-1.52c-.1-.42-.3-.77-.61-1.04-.3-.26-.7-.4-1.2-.4-.74 0-1.32.33-1.74.98a5.05 5.05 0 0 0-.63 2.7h.08a2.77 2.77 0 0 1 1.51-1.2c.32-.12.66-.17 1.02-.17a3.15 3.15 0 0 1 2.75 1.62c.28.5.42 1.07.42 1.72 0 .65-.15 1.24-.44 1.77-.3.53-.7.94-1.23 1.25a3.6 3.6 0 0 1-1.86.45Zm0-1.3c.38 0 .73-.09 1.04-.28.3-.2.55-.45.73-.78.18-.32.27-.69.27-1.09 0-.39-.09-.74-.26-1.06a1.99 1.99 0 0 0-.72-.77 1.9 1.9 0 0 0-1.03-.28 1.98 1.98 0 0 0-1.48.63 2.1 2.1 0 0 0-.6 1.5 2.2 2.2 0 0 0 .99 1.84c.31.2.66.3 1.05.3Zm5.65-9.02h1.87l3.24 7.91h.12l3.24-7.91h1.86V44h-1.46v-7.37h-.1l-3 7.36h-1.21l-3-7.36h-.1V44h-1.46V33.82Z" fill="#191B23"/>
  </g>
  <g filter="url(#d)">
    <path fill="#fff" d="M24 54h120v26H24z"/>
    <path d="M33.12 72V61.82h3.73c.72 0 1.32.12 1.8.36a2.45 2.45 0 0 1 1.4 2.31c0 .43-.07.79-.22 1.08-.16.29-.37.52-.63.7-.26.17-.54.3-.86.37v.1c.34.02.67.13 1 .33.32.2.59.48.8.85.21.37.32.81.32 1.34a2.5 2.5 0 0 1-1.5 2.38c-.5.24-1.15.36-1.94.36h-3.9Zm1.53-1.32h2.22c.74 0 1.26-.14 1.58-.43.32-.28.48-.64.48-1.06a1.68 1.68 0 0 0-.94-1.53c-.3-.16-.65-.24-1.06-.24h-2.28v3.26Zm0-4.46h2.06c.35 0 .66-.06.93-.2a1.48 1.48 0 0 0 .91-1.41c0-.42-.14-.77-.44-1.06-.3-.28-.75-.42-1.36-.42h-2.1v3.1Zm7.5 5.78v-7.64h1.45v1.22h.08c.13-.41.38-.74.73-.97a2.1 2.1 0 0 1 1.2-.36 6.38 6.38 0 0 1 .64.03v1.43a3.04 3.04 0 0 0-.78-.09c-.35 0-.66.07-.94.22a1.66 1.66 0 0 0-.88 1.5V72h-1.5Zm5.38 0v-7.64h1.49V72h-1.49Zm.75-8.81a.94.94 0 0 1-.66-.26.84.84 0 0 1-.28-.63.94.94 0 0 1 .94-.89c.26 0 .48.09.66.26.19.18.28.39.28.63s-.09.45-.28.63a.93.93 0 0 1-.66.26Zm6.3 1.17v1.2h-4.17v-1.2h4.17Zm-3.05-1.83h1.49v7.23c0 .29.04.5.13.65.08.14.2.24.33.3a1.74 1.74 0 0 0 .77.05l.2-.05.27 1.23a2.92 2.92 0 0 1-2.06-.05 1.88 1.88 0 0 1-.82-.68c-.2-.3-.3-.68-.3-1.14v-7.54Zm4.7 9.47v-7.64h1.48V72h-1.48Zm.75-8.81a.94.94 0 0 1-.67-.26.84.84 0 0 1-.27-.63c0-.24.09-.45.27-.63.19-.17.41-.26.67-.26.26 0 .48.09.66.26.19.18.28.39.28.63s-.1.45-.28.63a.93.93 0 0 1-.66.26Zm8.46 3.04-1.35.24a1.6 1.6 0 0 0-.27-.5 1.33 1.33 0 0 0-.49-.38c-.2-.1-.46-.15-.77-.15-.42 0-.77.1-1.05.29-.28.18-.42.42-.42.72 0 .25.1.46.28.61.19.16.5.29.91.39l1.22.27c.7.17 1.22.42 1.57.76.34.33.52.77.52 1.31a2 2 0 0 1-.4 1.23 2.6 2.6 0 0 1-1.1.83c-.47.2-1.01.3-1.63.3-.85 0-1.55-.18-2.09-.54a2.31 2.31 0 0 1-1-1.57l1.44-.22c.1.38.28.66.55.85.28.2.65.29 1.1.29.48 0 .87-.1 1.16-.3.3-.21.44-.46.44-.76a.78.78 0 0 0-.27-.6 1.76 1.76 0 0 0-.8-.37l-1.3-.28a3.1 3.1 0 0 1-1.58-.78c-.34-.35-.51-.8-.51-1.34 0-.45.13-.85.38-1.19.25-.34.6-.6 1.04-.79.45-.19.95-.29 1.53-.29.82 0 1.47.18 1.95.54.47.36.78.83.94 1.43Zm3.27 1.24V72h-1.49V61.82h1.47v3.79h.1c.17-.41.44-.74.81-.98.37-.24.85-.37 1.44-.37.53 0 .98.11 1.38.33.39.21.7.53.91.96.22.43.33.96.33 1.6V72h-1.49v-4.68c0-.56-.14-1-.43-1.3a1.56 1.56 0 0 0-1.2-.47c-.36 0-.67.08-.95.23-.27.14-.5.36-.65.65-.16.29-.23.63-.23 1.04Zm61.65-5.65V72h-1.54v-8.64h-.06l-2.43 1.59v-1.47l2.54-1.66h1.5Zm7.7 10.32c-.7 0-1.3-.12-1.84-.35a3.1 3.1 0 0 1-1.27-.98 2.6 2.6 0 0 1-.5-1.46h1.57c.02.3.12.56.3.78.19.22.43.39.73.5.3.13.63.19 1 .19.4 0 .75-.07 1.05-.21.32-.14.56-.34.74-.58.17-.26.26-.55.26-.87 0-.35-.09-.65-.26-.9a1.72 1.72 0 0 0-.76-.62 2.92 2.92 0 0 0-1.2-.22H137v-1.26h.86c.38 0 .71-.06 1-.2a1.53 1.53 0 0 0 .92-1.43c0-.31-.07-.59-.22-.82a1.43 1.43 0 0 0-.6-.55c-.25-.13-.55-.2-.9-.2-.33 0-.64.06-.93.19-.28.11-.51.29-.7.51-.17.22-.27.5-.28.8h-1.49a2.5 2.5 0 0 1 .49-1.45c.31-.42.72-.74 1.23-.98a4 4 0 0 1 1.7-.35c.65 0 1.22.13 1.7.38.47.25.84.59 1.1 1.01.26.42.39.88.38 1.38a2.22 2.22 0 0 1-1.75 2.26v.07c.68.1 1.2.38 1.57.81.38.43.56.97.56 1.62 0 .56-.15 1.06-.47 1.5-.3.45-.73.8-1.27 1.05s-1.16.38-1.86.38Z" fill="#006DCA"/>
    <path d="M94.1 72.14c-.69 0-1.3-.12-1.83-.35A3.1 3.1 0 0 1 91 70.8a2.6 2.6 0 0 1-.5-1.46h1.56c.02.3.12.56.3.78.2.22.43.39.73.5.3.13.63.19 1 .19.4 0 .75-.07 1.06-.21.31-.14.56-.34.73-.58.18-.26.26-.55.26-.87 0-.35-.08-.65-.26-.9a1.72 1.72 0 0 0-.76-.62 2.92 2.92 0 0 0-1.2-.22h-.86v-1.26h.86c.38 0 .7-.06 1-.2.28-.14.5-.33.67-.57.16-.24.24-.53.24-.86 0-.31-.07-.59-.21-.82a1.44 1.44 0 0 0-.6-.55c-.25-.13-.56-.2-.9-.2-.34 0-.65.06-.93.19-.29.11-.52.29-.7.51-.18.22-.27.5-.29.8h-1.48c.01-.55.17-1.03.48-1.45.31-.42.73-.74 1.24-.98a4.01 4.01 0 0 1 1.7-.35c.65 0 1.21.13 1.69.38.47.25.84.59 1.1 1.01.26.42.4.88.39 1.38a2.21 2.21 0 0 1-1.75 2.26v.07c.67.1 1.2.38 1.57.81.37.43.56.97.56 1.62 0 .56-.16 1.06-.47 1.5-.31.45-.74.8-1.28 1.05s-1.16.38-1.85.38Zm9.29 0c-.46 0-.9-.09-1.35-.25a3.15 3.15 0 0 1-1.2-.8 3.98 3.98 0 0 1-.85-1.5 9.62 9.62 0 0 1-.05-4.71 5.3 5.3 0 0 1 .77-1.74c.33-.48.73-.84 1.2-1.09.48-.25 1.01-.37 1.6-.37.61 0 1.15.12 1.62.36.47.24.85.57 1.14.99.3.42.48.9.56 1.43h-1.51c-.1-.42-.3-.77-.61-1.04-.3-.26-.7-.4-1.2-.4-.74 0-1.32.33-1.74.98a5.06 5.06 0 0 0-.63 2.7h.08a2.77 2.77 0 0 1 1.5-1.2c.33-.12.67-.17 1.02-.17a3.15 3.15 0 0 1 2.75 1.62c.29.5.43 1.07.43 1.72 0 .65-.15 1.24-.44 1.77-.3.53-.7.94-1.24 1.25a3.6 3.6 0 0 1-1.85.45Zm-.01-1.3c.4 0 .74-.09 1.05-.28.3-.2.55-.45.73-.78.18-.32.27-.69.27-1.09 0-.39-.09-.74-.27-1.06a2 2 0 0 0-.71-.77c-.3-.19-.65-.28-1.04-.28a1.98 1.98 0 0 0-1.47.63 2.1 2.1 0 0 0-.6 1.5 2.19 2.19 0 0 0 .99 1.84c.3.2.66.3 1.05.3Zm5.66-9.02h1.86l3.24 7.91h.12l3.24-7.91h1.87V72h-1.46v-7.37h-.1l-3 7.36h-1.21l-3-7.36h-.1V72h-1.46V61.82Z" fill="#191B23"/>
  </g>
  <defs>
    <filter id="a" x="0" y="2" width="24" height="24" filterUnits="userSpaceOnUse" color-interpolation-filters="sRGB">
      <feFlood flood-opacity="0" result="BackgroundImageFix"/>
      <feBlend in="SourceGraphic" in2="BackgroundImageFix" result="shape"/>
      <feColorMatrix in="SourceAlpha" values="0 0 0 0 0 0 0 0 0 0 0 0 0 0 0 0 0 0 127 0" result="hardAlpha"/>
      <feOffset dy="-1"/>
      <feComposite in2="hardAlpha" operator="arithmetic" k2="-1" k3="1"/>
      <feColorMatrix values="0 0 0 0 0.878431 0 0 0 0 0.882353 0 0 0 0 0.913725 0 0 0 1 0"/>
      <feBlend in2="shape" result="effect1_innerShadow_767_63991"/>
    </filter>
    <filter id="b" x="24" y="2" width="120" height="24" filterUnits="userSpaceOnUse" color-interpolation-filters="sRGB">
      <feFlood flood-opacity="0" result="BackgroundImageFix"/>
      <feBlend in="SourceGraphic" in2="BackgroundImageFix" result="shape"/>
      <feColorMatrix in="SourceAlpha" values="0 0 0 0 0 0 0 0 0 0 0 0 0 0 0 0 0 0 127 0" result="hardAlpha"/>
      <feOffset dy="-1"/>
      <feComposite in2="hardAlpha" operator="arithmetic" k2="-1" k3="1"/>
      <feColorMatrix values="0 0 0 0 0.878431 0 0 0 0 0.882353 0 0 0 0 0.913725 0 0 0 1 0"/>
      <feBlend in2="shape" result="effect1_innerShadow_767_63991"/>
    </filter>
    <filter id="c" x="24" y="26" width="120" height="26" filterUnits="userSpaceOnUse" color-interpolation-filters="sRGB">
      <feFlood flood-opacity="0" result="BackgroundImageFix"/>
      <feBlend in="SourceGraphic" in2="BackgroundImageFix" result="shape"/>
      <feColorMatrix in="SourceAlpha" values="0 0 0 0 0 0 0 0 0 0 0 0 0 0 0 0 0 0 127 0" result="hardAlpha"/>
      <feOffset dy="-1"/>
      <feComposite in2="hardAlpha" operator="arithmetic" k2="-1" k3="1"/>
      <feColorMatrix values="0 0 0 0 0.878431 0 0 0 0 0.882353 0 0 0 0 0.913725 0 0 0 1 0"/>
      <feBlend in2="shape" result="effect1_innerShadow_767_63991"/>
    </filter>
    <filter id="d" x="24" y="54" width="120" height="26" filterUnits="userSpaceOnUse" color-interpolation-filters="sRGB">
      <feFlood flood-opacity="0" result="BackgroundImageFix"/>
      <feBlend in="SourceGraphic" in2="BackgroundImageFix" result="shape"/>
      <feColorMatrix in="SourceAlpha" values="0 0 0 0 0 0 0 0 0 0 0 0 0 0 0 0 0 0 127 0" result="hardAlpha"/>
      <feOffset dy="-1"/>
      <feComposite in2="hardAlpha" operator="arithmetic" k2="-1" k3="1"/>
      <feColorMatrix values="0 0 0 0 0.878431 0 0 0 0 0.882353 0 0 0 0 0.913725 0 0 0 1 0"/>
      <feBlend in2="shape" result="effect1_innerShadow_767_63991"/>
    </filter>
  </defs>
</svg>
