<svg xmlns="http://www.w3.org/2000/svg" width="144" height="73" fill="none" viewBox="0 0 144 73">
  <rect width="144" height="73" fill="#fff" rx="6"/>
  <rect width="93" height="20" x="25" y="26.5" fill="#8A8E9B" fill-opacity=".1" rx="5.5"/>
  <rect width="93" height="20" x="25" y="26.5" stroke="#C4C7CF" rx="5.5"/>
  <path fill="#6C6E79" fill-rule="evenodd" d="M38.75 36.5a2.25 2.25 0 1 1-4.5 0 2.25 2.25 0 0 1 4.5 0Zm-1.5 0a.75.75 0 1 1-1.5 0 .75.75 0 0 1 1.5 0Z" clip-rule="evenodd"/>
  <path fill="#6C6E79" fill-rule="evenodd" d="M35.5 30.5a.75.75 0 0 0-.721.544l-.3 1.052-.084.046-1.038-.431a.75.75 0 0 0-.88.234l-1.256 1.622a.75.75 0 0 0-.013.901l.667.914-.044.256-.927.48a.75.75 0 0 0-.39.814l.387 1.923a.75.75 0 0 0 .666.599l1.102.102.105.15-.128 1.105a.75.75 0 0 0 .412.759l1.724.852c.299.148.66.08.885-.166l.696-.759h.273l.695.76a.75.75 0 0 0 .886.165l1.723-.852a.75.75 0 0 0 .413-.759l-.128-1.105.105-.15 1.103-.102a.75.75 0 0 0 .666-.6l.386-1.922a.75.75 0 0 0-.39-.814l-.927-.48-.044-.255.667-.914a.75.75 0 0 0-.013-.9l-1.257-1.625a.75.75 0 0 0-.88-.233l-1.038.431-.084-.046-.3-1.052a.75.75 0 0 0-.722-.544H35.5Zm.335 2.31.231-.81h.865l.231.81a.75.75 0 0 0 .363.453l.676.368c.199.109.437.121.646.034l.84-.349.56.725-.522.714a.75.75 0 0 0-.133.57l.16.935a.75.75 0 0 0 .395.54l.757.39-.165.822-.893.082a.75.75 0 0 0-.546.317l-.468.67a.75.75 0 0 0-.13.515l.1.863-.745.369-.537-.587a.75.75 0 0 0-.553-.244h-.935a.75.75 0 0 0-.553.244l-.537.587-.745-.369.1-.863a.75.75 0 0 0-.13-.515l-.467-.669a.75.75 0 0 0-.546-.318l-.893-.082-.165-.822.757-.392a.75.75 0 0 0 .393-.54l.16-.935a.75.75 0 0 0-.133-.57l-.521-.714.56-.723.838.35a.75.75 0 0 0 .647-.035l.676-.368a.75.75 0 0 0 .362-.453Z" clip-rule="evenodd"/>
  <path fill="#6C6E79" d="M44.94 33.672v-.945h5.629v.945h-2.27V40h-1.093v-6.328H44.94Zm7.633 6.449c-.346 0-.659-.064-.938-.192-.28-.13-.5-.318-.664-.565-.16-.246-.241-.548-.241-.905 0-.308.059-.561.177-.76a1.31 1.31 0 0 1 .48-.472c.2-.116.426-.204.674-.263.249-.06.502-.104.76-.135l.796-.093c.203-.025.351-.067.444-.124.092-.057.138-.149.138-.277v-.025c0-.31-.088-.55-.263-.72-.173-.171-.43-.256-.774-.256-.357 0-.64.08-.845.238-.204.156-.345.33-.423.522l-.997-.227a1.92 1.92 0 0 1 .518-.803c.23-.206.494-.355.792-.447a3.09 3.09 0 0 1 .94-.143c.219 0 .45.027.693.079.247.05.476.142.69.277.215.135.391.327.528.578.138.249.206.572.206.97V40h-1.037v-.746h-.042a1.51 1.51 0 0 1-.31.405 1.64 1.64 0 0 1-.528.33 2.053 2.053 0 0 1-.774.132Zm.23-.852c.294 0 .545-.058.753-.175.211-.116.37-.267.48-.454.111-.19.167-.392.167-.607v-.703a.554.554 0 0 1-.22.106c-.107.03-.229.058-.366.082l-.402.06c-.13.017-.239.03-.326.043a2.64 2.64 0 0 0-.565.131.97.97 0 0 0-.405.267.666.666 0 0 0-.149.454c0 .263.097.462.291.597.194.132.442.199.742.199Zm3.96.731v-7.273h1.063v2.703h.064c.061-.114.15-.245.266-.395.116-.149.277-.279.483-.39.206-.114.478-.17.817-.17.44 0 .833.11 1.179.333.345.223.616.544.813.963.199.419.298.923.298 1.512 0 .59-.098 1.095-.295 1.517a2.299 2.299 0 0 1-.81.97 2.097 2.097 0 0 1-1.175.336c-.331 0-.602-.055-.813-.166a1.537 1.537 0 0 1-.49-.391 2.949 2.949 0 0 1-.273-.398h-.09V40h-1.036Zm1.041-2.727c0 .383.056.72.167 1.008.112.29.273.515.483.678.21.161.469.242.774.242.318 0 .583-.084.796-.252.213-.17.374-.401.483-.693.111-.29.167-.619.167-.983 0-.36-.055-.683-.164-.97a1.483 1.483 0 0 0-.483-.678c-.213-.166-.48-.249-.799-.249-.307 0-.568.08-.78.238-.212.159-.371.38-.48.664a2.77 2.77 0 0 0-.164.995ZM64 32.727V40h-1.062v-7.273H64Zm3.78 7.383c-.538 0-1-.115-1.389-.344a2.336 2.336 0 0 1-.895-.977c-.208-.421-.312-.915-.312-1.48 0-.56.104-1.052.312-1.478.21-.426.504-.759.88-.998.38-.239.822-.359 1.329-.359.308 0 .606.051.895.153.289.102.548.262.778.48.23.217.41.5.543.848.132.346.199.766.199 1.26v.377h-4.336v-.795h3.295c0-.28-.057-.527-.17-.742a1.288 1.288 0 0 0-.48-.515 1.34 1.34 0 0 0-.717-.188c-.298 0-.559.073-.781.22-.22.144-.39.334-.512.568a1.64 1.64 0 0 0-.177.756v.622c0 .364.064.675.192.93.13.256.31.451.543.586.232.133.503.199.813.199.201 0 .385-.028.55-.085a1.14 1.14 0 0 0 .707-.692l1.005.18a1.82 1.82 0 0 1-.433.778 2.1 2.1 0 0 1-.778.515c-.31.12-.664.181-1.061.181Zm10.252-4.233-.963.17a1.14 1.14 0 0 0-.192-.351.949.949 0 0 0-.347-.273 1.261 1.261 0 0 0-.551-.107c-.3 0-.552.067-.753.203-.201.132-.302.304-.302.514 0 .183.068.33.203.44.135.112.353.203.653.274l.867.199c.502.116.876.295 1.122.536.246.242.37.555.37.941 0 .327-.096.618-.285.874a1.86 1.86 0 0 1-.785.597c-.334.144-.72.216-1.161.216-.61 0-1.11-.13-1.495-.39-.386-.263-.623-.636-.71-1.12l1.026-.155c.064.267.195.47.394.607.2.135.458.202.778.202.348 0 .626-.072.834-.216.209-.147.313-.326.313-.537a.557.557 0 0 0-.192-.43c-.125-.115-.318-.203-.579-.262l-.923-.203c-.509-.116-.885-.3-1.13-.553-.24-.254-.361-.575-.361-.963 0-.322.09-.604.27-.845.18-.241.428-.43.745-.565.317-.137.68-.206 1.09-.206.59 0 1.054.128 1.392.384.339.253.563.593.672 1.02Zm3.624 4.233c-.537 0-1-.115-1.388-.344a2.336 2.336 0 0 1-.895-.977c-.208-.421-.313-.915-.313-1.48 0-.56.105-1.052.313-1.478.21-.426.504-.759.88-.998.38-.239.822-.359 1.329-.359.308 0 .606.051.895.153.289.102.548.262.777.48.23.217.411.5.544.848.132.346.199.766.199 1.26v.377H79.66v-.795h3.295c0-.28-.057-.527-.17-.742a1.288 1.288 0 0 0-.48-.515 1.34 1.34 0 0 0-.717-.188c-.298 0-.559.073-.781.22-.22.144-.39.334-.512.568a1.641 1.641 0 0 0-.177.756v.622c0 .364.064.675.192.93.13.256.31.451.543.586.232.133.503.199.813.199.201 0 .385-.028.55-.085a1.142 1.142 0 0 0 .707-.692l1.005.18a1.82 1.82 0 0 1-.433.778 2.1 2.1 0 0 1-.778.515c-.31.12-.664.181-1.062.181Zm6.065-5.565v.853h-2.98v-.853h2.98Zm-2.18-1.306h1.061v5.16c0 .205.031.36.093.465.061.101.14.171.238.21.099.035.207.052.323.052.085 0 .16-.005.223-.017l.15-.029.191.877a2.07 2.07 0 0 1-.689.114 1.87 1.87 0 0 1-.78-.15 1.341 1.341 0 0 1-.587-.482c-.149-.218-.224-.491-.224-.82v-5.38Zm5.9 1.306v.853h-2.979v-.853h2.98Zm-2.18-1.306h1.062v5.16c0 .205.03.36.092.465.062.101.141.171.238.21.1.035.207.052.323.052.086 0 .16-.005.224-.017l.15-.029.191.877a2.07 2.07 0 0 1-.689.114 1.87 1.87 0 0 1-.781-.15 1.341 1.341 0 0 1-.586-.482c-.15-.218-.224-.491-.224-.82v-5.38ZM92.616 40v-5.455h1.062V40h-1.062Zm.536-6.296a.675.675 0 0 1-.475-.185.6.6 0 0 1-.196-.447c0-.175.065-.325.196-.448a.668.668 0 0 1 .475-.188c.185 0 .342.063.473.188a.588.588 0 0 1 .198.448.595.595 0 0 1-.198.447.662.662 0 0 1-.473.185Zm3.016 3.057V40h-1.062v-5.455h1.02v.888h.067a1.56 1.56 0 0 1 .59-.696c.27-.175.61-.263 1.019-.263.371 0 .697.079.976.235.28.154.496.383.65.689.154.305.23.683.23 1.133V40h-1.06v-3.342c0-.395-.104-.704-.31-.927-.206-.224-.489-.337-.849-.337a1.33 1.33 0 0 0-.656.16 1.15 1.15 0 0 0-.451.469c-.11.203-.164.45-.164.738Zm7.202 5.398c-.433 0-.806-.057-1.119-.17a2.171 2.171 0 0 1-.76-.451 1.899 1.899 0 0 1-.44-.615l.913-.376c.064.104.149.214.255.33.109.118.256.22.441.302.187.083.427.124.721.124.402 0 .735-.098.997-.294.263-.195.395-.505.395-.93v-1.073h-.068a2.411 2.411 0 0 1-.277.387 1.498 1.498 0 0 1-.49.37c-.208.103-.479.155-.813.155-.431 0-.819-.1-1.165-.301a2.149 2.149 0 0 1-.817-.899c-.199-.398-.298-.887-.298-1.467 0-.58.098-1.077.295-1.491.199-.414.471-.732.816-.952a2.127 2.127 0 0 1 1.176-.334c.338 0 .612.057.82.17.209.112.371.242.487.392.118.149.209.28.273.394h.078v-.885h1.041v5.576c0 .468-.109.853-.327 1.154-.218.3-.512.523-.884.668a3.409 3.409 0 0 1-1.25.216Zm-.011-3.121c.306 0 .564-.071.774-.213.213-.145.374-.35.483-.618.112-.27.167-.593.167-.97 0-.367-.054-.69-.163-.97a1.44 1.44 0 0 0-.48-.653c-.21-.158-.471-.238-.781-.238-.319 0-.586.083-.799.249a1.5 1.5 0 0 0-.483.668c-.106.281-.16.596-.16.944 0 .358.055.671.164.941.109.27.27.48.483.632.215.152.48.228.795.228Zm7.983-3.16-.962.17a1.128 1.128 0 0 0-.192-.352.945.945 0 0 0-.348-.273 1.26 1.26 0 0 0-.55-.107c-.301 0-.552.067-.753.203-.201.132-.302.304-.302.514 0 .183.067.33.202.44.135.112.353.203.654.274l.866.199c.502.116.876.295 1.122.536.247.242.37.555.37.941 0 .327-.095.618-.284.874a1.863 1.863 0 0 1-.785.597 2.904 2.904 0 0 1-1.161.216c-.611 0-1.11-.13-1.495-.39-.386-.263-.623-.636-.711-1.12l1.027-.155c.064.267.195.47.394.607.199.135.458.202.777.202.348 0 .627-.072.835-.216.208-.147.312-.326.312-.537a.556.556 0 0 0-.191-.43c-.126-.115-.319-.203-.579-.262l-.923-.203c-.509-.116-.886-.3-1.13-.553-.241-.254-.362-.575-.362-.963 0-.322.09-.604.27-.845.18-.241.429-.43.746-.565.317-.137.68-.206 1.09-.206.589 0 1.053.128 1.392.384.339.253.562.593.671 1.02Z"/>
</svg>
