<svg width="58" height="38" viewBox="0 0 58 38" fill="none" xmlns="http://www.w3.org/2000/svg">
<circle cx="13" cy="26" r="6" fill="#898D9A"/>
<circle cx="13" cy="26" r="4" fill="#D1D4DB"/>
<circle opacity="0.7" cx="29" cy="26" r="4" fill="#898D9A"/>
<circle cx="45" cy="26" r="4" fill="#898D9A"/>
<path fill-rule="evenodd" clip-rule="evenodd" d="M14.2929 4.29289C14.6834 3.90237 15.3166 3.90237 15.7071 4.29289L19 7.58579L22.2929 4.29289C22.6834 3.90237 23.3166 3.90237 23.7071 4.29289C24.0976 4.68342 24.0976 5.31658 23.7071 5.70711L19.7071 9.70711C19.3166 10.0976 18.6834 10.0976 18.2929 9.70711L14.2929 5.70711C13.9024 5.31658 13.9024 4.68342 14.2929 4.29289Z" fill="#898D9A"/>
<path fill-rule="evenodd" clip-rule="evenodd" d="M54 16H4C2.89543 16 2 16.8954 2 18V34C2 35.1046 2.89543 36 4 36H54C55.1046 36 56 35.1046 56 34V18C56 16.8954 55.1046 16 54 16ZM4 14C1.79086 14 0 15.7909 0 18V34C0 36.2091 1.79086 38 4 38H54C56.2091 38 58 36.2091 58 34V18C58 15.7909 56.2091 14 54 14H4Z" fill="#D1D4DB"/>
<circle cx="6" cy="6" r="6" fill="#898D9A"/>
<circle cx="6" cy="6" r="4" fill="#D1D4DB"/>
</svg>
