<svg width="100" height="48" viewBox="0 0 100 48" fill="none" xmlns="http://www.w3.org/2000/svg">
<path fill-rule="evenodd" clip-rule="evenodd" d="M96 2H4C2.89543 2 2 2.89543 2 4V44C2 45.1046 2.89543 46 4 46H96C97.1046 46 98 45.1046 98 44V4C98 2.89543 97.1046 2 96 2ZM4 0C1.79086 0 0 1.79086 0 4V44C0 46.2091 1.79086 48 4 48H96C98.2091 48 100 46.2091 100 44V4C100 1.79086 98.2091 0 96 0H4Z" fill="#D1D4DB"/>
<rect x="8" y="10" width="32" height="12" rx="6" fill="#D1D4DB"/>
<rect x="44" y="10" width="20" height="12" rx="6" fill="#D1D4DB"/>
<rect x="68" y="10" width="23" height="12" rx="6" fill="#D1D4DB"/>
<rect x="8" y="26" width="44" height="12" rx="6" fill="#D1D4DB"/>
<path d="M31.1897 13.1937C30.9314 13.452 30.9314 13.8708 31.1897 14.1292L33.0606 16L31.1897 17.8708C30.9314 18.1292 30.9314 18.548 31.1897 18.8063C31.448 19.0646 31.8668 19.0646 32.1252 18.8063L33.996 16.9354L35.8668 18.8063C36.1252 19.0646 36.544 19.0646 36.8023 18.8063C37.0606 18.548 37.0606 18.1292 36.8023 17.8708L34.9314 16L36.8023 14.1292C37.0606 13.8708 37.0606 13.452 36.8023 13.1937C36.544 12.9354 36.1252 12.9354 35.8668 13.1937L33.996 15.0646L32.1252 13.1937C31.8668 12.9354 31.448 12.9354 31.1897 13.1937Z" fill="#898D9A"/>
<path d="M55.1897 13.1937C54.9314 13.452 54.9314 13.8708 55.1897 14.1292L57.0606 16L55.1897 17.8708C54.9314 18.1292 54.9314 18.548 55.1897 18.8063C55.448 19.0646 55.8668 19.0646 56.1252 18.8063L57.996 16.9354L59.8668 18.8063C60.1252 19.0646 60.544 19.0646 60.8023 18.8063C61.0606 18.548 61.0606 18.1292 60.8023 17.8708L58.9314 16L60.8023 14.1292C61.0606 13.8708 61.0606 13.452 60.8023 13.1937C60.544 12.9354 60.1252 12.9354 59.8668 13.1937L57.996 15.0646L56.1252 13.1937C55.8668 12.9354 55.448 12.9354 55.1897 13.1937Z" fill="#898D9A"/>
<path d="M82.1897 13.1937C81.9314 13.452 81.9314 13.8708 82.1897 14.1292L84.0606 16L82.1897 17.8708C81.9314 18.1292 81.9314 18.548 82.1897 18.8063C82.448 19.0646 82.8668 19.0646 83.1252 18.8063L84.996 16.9354L86.8668 18.8063C87.1252 19.0646 87.544 19.0646 87.8023 18.8063C88.0606 18.548 88.0606 18.1292 87.8023 17.8708L85.9314 16L87.8023 14.1292C88.0606 13.8708 88.0606 13.452 87.8023 13.1937C87.544 12.9354 87.1252 12.9354 86.8668 13.1937L84.996 15.0646L83.1252 13.1937C82.8668 12.9354 82.448 12.9354 82.1897 13.1937Z" fill="#898D9A"/>
<path d="M43.1897 29.1937C42.9314 29.452 42.9314 29.8708 43.1897 30.1292L45.0606 32L43.1897 33.8708C42.9314 34.1292 42.9314 34.548 43.1897 34.8063C43.448 35.0646 43.8668 35.0646 44.1252 34.8063L45.996 32.9354L47.8668 34.8063C48.1252 35.0646 48.544 35.0646 48.8023 34.8063C49.0606 34.548 49.0606 34.1292 48.8023 33.8708L46.9314 32L48.8023 30.1292C49.0606 29.8708 49.0606 29.452 48.8023 29.1937C48.544 28.9354 48.1252 28.9354 47.8668 29.1937L45.996 31.0646L44.1252 29.1937C43.8668 28.9354 43.448 28.9354 43.1897 29.1937Z" fill="#898D9A"/>
</svg>
