<svg width="60" height="56" viewBox="0 0 60 56" fill="none" xmlns="http://www.w3.org/2000/svg">
<path fill-rule="evenodd" clip-rule="evenodd" d="M56 2H4C2.89543 2 2 2.89543 2 4V52C2 53.1046 2.89543 54 4 54H56C57.1046 54 58 53.1046 58 52V4C58 2.89543 57.1046 2 56 2ZM4 0C1.79086 0 0 1.79086 0 4V52C0 54.2091 1.79086 56 4 56H56C58.2091 56 60 54.2091 60 52V4C60 1.79086 58.2091 0 56 0H4Z" fill="#D1D4DB"/>
<path d="M49.1937 5.19373C48.9354 5.45204 48.9354 5.87084 49.1937 6.12915L51.0646 8L49.1937 9.87085C48.9354 10.1292 48.9354 10.548 49.1937 10.8063C49.452 11.0646 49.8708 11.0646 50.1292 10.8063L52 8.93542L53.8708 10.8063C54.1292 11.0646 54.548 11.0646 54.8063 10.8063C55.0646 10.548 55.0646 10.1292 54.8063 9.87085L52.9354 8L54.8063 6.12915C55.0646 5.87085 55.0646 5.45204 54.8063 5.19373C54.548 4.93542 54.1292 4.93542 53.8708 5.19373L52 7.06458L50.1292 5.19373C49.8708 4.93542 49.452 4.93542 49.1937 5.19373Z" fill="#898D9A"/>
<rect x="6" y="8" width="34" height="4" rx="2" fill="#D1D4DB"/>
<rect x="6" y="19" width="47" height="16" rx="2" fill="#D1D4DB"/>
<rect x="6" y="39" width="22" height="8" rx="2" fill="#D1D4DB"/>
</svg>
