<svg width="24" height="24" viewBox="0 0 24 24" fill="none" xmlns="http://www.w3.org/2000/svg">
<g>
<path d="M19.2176 18.147C11.1216 22 6.09715 18.7763 2.88084 16.8183C2.68182 16.6949 2.34355 16.8472 2.63704 17.1843C3.70855 18.4835 7.22013 21.615 11.8038 21.615C16.3905 21.615 19.1192 19.1123 19.4606 18.6757C19.7996 18.2428 19.5601 18.004 19.2175 18.147H19.2176ZM21.4913 16.8913C21.2739 16.6082 20.1693 16.5554 19.4741 16.6408C18.7779 16.7238 17.7328 17.1493 17.8237 17.4048C17.8703 17.5005 17.9655 17.4575 18.4438 17.4145C18.9234 17.3667 20.2669 17.1971 20.5469 17.5631C20.8281 17.9316 20.1184 19.687 19.9887 19.9701C19.8635 20.2533 20.0366 20.3263 20.2718 20.1377C20.5039 19.9492 20.9239 19.4611 21.2058 18.7703C21.4858 18.0758 21.6565 17.1069 21.4913 16.8913Z" fill="#FF9900"/>
<path fill-rule="evenodd" clip-rule="evenodd" d="M13.7739 10.285C13.7739 11.296 13.7994 12.1391 13.2885 13.0369C12.876 13.7669 12.2227 14.2158 11.4928 14.2158C10.4964 14.2158 9.91606 13.4566 9.91606 12.3362C9.91606 10.1244 11.8978 9.72292 13.7739 9.72292V10.285ZM16.3908 16.6101C16.2192 16.7633 15.971 16.7743 15.7776 16.6721C14.9163 15.9567 14.7629 15.6246 14.2885 14.9421C12.8651 16.3947 11.8578 16.829 10.011 16.829C7.82843 16.829 6.12761 15.4822 6.12761 12.7851C6.12761 10.6792 7.27005 9.24479 8.89409 8.54409C10.303 7.92355 12.2702 7.81408 13.7739 7.6426V7.30679C13.7739 6.68994 13.8213 5.96001 13.46 5.42718C13.1424 4.94904 12.5366 4.75194 12.0037 4.75194C11.0147 4.75194 10.1314 5.25924 9.91606 6.31036C9.87221 6.544 9.70073 6.77395 9.46716 6.78488L6.94878 6.51485C6.73714 6.4673 6.50358 6.29582 6.56197 5.97094C7.14227 2.9198 9.89775 2 12.365 2C13.6278 2 15.2775 2.33581 16.2739 3.29208C17.5367 4.47091 17.4163 6.04394 17.4163 7.75569V11.7996C17.4163 13.015 17.9199 13.5478 18.3944 14.2048C18.5622 14.4384 18.5988 14.7195 18.3871 14.8946C17.8579 15.3362 16.9162 16.1575 16.398 16.6174L16.3907 16.6101" fill="black"/>
</g>
<defs>
<rect width="20" height="20" fill="white" transform="translate(2 2)"/>
</defs>
</svg>
