<svg xmlns="http://www.w3.org/2000/svg" width="16" height="16" fill="none" viewBox="0 0 16 16">
  <g>
    <path fill="#F90" d="M13.774 12.918C7.297 16 3.278 13.42.704 11.855c-.159-.1-.43.023-.194.292.857 1.04 3.666 3.545 7.333 3.545 3.67 0 5.852-2.002 6.126-2.351.27-.347.08-.538-.195-.423Zm1.819-1.005c-.174-.226-1.058-.269-1.614-.2-.557.066-1.393.406-1.32.61.037.077.113.043.496.009.384-.039 1.459-.174 1.683.118.225.295-.343 1.7-.447 1.926-.1.227.038.285.226.134.186-.15.522-.541.748-1.094.224-.555.36-1.33.228-1.503Z"/>
    <path fill="#000" fill-rule="evenodd" d="M9.42 6.628c0 .809.02 1.483-.39 2.201-.33.584-.852.944-1.436.944-.797 0-1.261-.608-1.261-1.504 0-1.77 1.585-2.09 3.086-2.09v.449Zm2.093 5.06a.433.433 0 0 1-.49.05c-.69-.573-.813-.838-1.192-1.384-1.139 1.162-1.945 1.51-3.422 1.51-1.746 0-3.107-1.078-3.107-3.236 0-1.685.914-2.832 2.213-3.393 1.127-.496 2.701-.584 3.904-.72v-.27c0-.493.038-1.077-.251-1.503-.254-.383-.739-.54-1.165-.54-.791 0-1.498.405-1.67 1.246-.035.187-.172.371-.36.38L3.96 3.612c-.17-.038-.356-.175-.31-.435C4.115.736 6.32 0 8.293 0c1.01 0 2.33.269 3.127 1.034 1.01.943.914 2.201.914 3.57V7.84c0 .972.403 1.398.783 1.924.134.187.163.412-.006.552a87.947 87.947 0 0 0-1.592 1.378l-.006-.006" clip-rule="evenodd"/>
  </g>
  <defs>
      <path fill="#fff" d="M0 0h16v16H0z"/>
  </defs>
</svg>
