<svg width="16" height="16" viewBox="0 0 16 16" xmlns="http://www.w3.org/2000/svg"><path d="M12.511 5c.833 0 1.507-.672 1.507-1.5S13.344 2 12.511 2c-.832 0-1.506.672-1.506 1.5S11.679 5 12.51 5Z"/><path fill-rule="evenodd" clip-rule="evenodd" d="M7.758 4.053a1.208 1.208 0 0 0-2.017.061L.18 13.174C-.312 13.974.266 15 1.207 15h13.585c.959 0 1.534-1.06 1.01-1.857L11.454 6.53a1.209 1.209 0 0 0-1.987-.043l-1.71-2.435ZM13.306 13H7.552l2.764-4.164a1.03 1.03 0 0 0 .025-.038l.102-.154L13.306 13Zm-8.163 0L8.276 8.28l-1.461-2.08L2.64 13h2.503Z"/></svg>