<svg xmlns="http://www.w3.org/2000/svg" xlink="http://www.w3.org/1999/xlink" width="22" height="22" viewBox="0 0 22 22"><path d="M16.1469,0 L18.9999,2.854 L2.8539,19 L-0.0001,16.147 L16.1469,0 Z M12.3529,5.207 L13.7929,6.646 L17.5859,2.854 L16.1469,1.414 L12.3529,5.207 Z M20.6777,16.6856 C21.1077,16.7996 21.1077,17.2826 20.6777,17.3966 L18.3827,18.0036 C17.6837,18.1896 17.1367,18.7416 16.9527,19.4486 L16.3517,21.7666 C16.2567,22.1326 15.7427,22.1326 15.6487,21.7666 L15.0467,19.4486 C14.8637,18.7416 14.3167,18.1896 13.6167,18.0036 L11.3227,17.3966 C10.8927,17.2826 10.8927,16.7996 11.3227,16.6856 L13.6167,16.0786 C14.3167,15.8926 14.8637,15.3406 15.0467,14.6336 L15.6487,12.3156 C15.7427,11.9496 16.2567,11.9496 16.3517,12.3156 L16.9527,14.6336 C17.1367,15.3406 17.6837,15.8926 18.3827,16.0786 L20.6777,16.6856 Z M21.8066,8.7872 C22.0646,8.8552 22.0646,9.1442 21.8066,9.2132 L20.4296,9.5782 C20.0096,9.6892 19.6816,10.0202 19.5726,10.4442 L19.2106,11.8362 C19.1546,12.0552 18.8456,12.0552 18.7886,11.8362 L18.4276,10.4442 C18.3186,10.0202 17.9906,9.6892 17.5706,9.5782 L16.1936,9.2132 C15.9356,9.1442 15.9356,8.8552 16.1936,8.7872 L17.5706,8.4222 C17.9906,8.3102 18.3186,7.9792 18.4276,7.5562 L18.7886,6.1642 C18.8456,5.9452 19.1546,5.9452 19.2106,6.1642 L19.5726,7.5562 C19.6816,7.9792 20.0096,8.3102 20.4296,8.4222 L21.8066,8.7872 Z"/></svg>
