<svg xmlns="http://www.w3.org/2000/svg" width="22" height="22" viewBox="0 0 22 22"><path d="M14.005 1C15.105 1 16 1.895 16 2.995V4h4.101C21.147 4 22 4.853 22 5.899v6.767l-1 .235v5.802A2.299 2.299 0 0118.703 21H3.297A2.299 2.299 0 011 18.703v-5.802l-1-.235V5.899C0 4.853.853 4 1.899 4H6V2.995C6 1.895 6.895 1 7.995 1zM18 13.605l-5 1.175v.218c0 .553-.449 1.002-1.002 1.002h-1.996A1.002 1.002 0 019 14.998v-.218l-5-1.175V18h14v-4.395zM19 7H3v3.334l6 1.876v-.208C9 11.449 9.449 11 10.002 11h1.996c.553 0 1.002.449 1.002 1.002v.208l6-1.876V7zm-5-4.005L7.995 3l.001 1H14V2.995z"/></svg>
