<svg xmlns="http://www.w3.org/2000/svg" width="16" height="16" viewBox="0 0 16 16"><path d="M9.672 1A1.33 1.33 0 0111 2.328V3h3.699C15.416 3 16 3.584 16 4.301v4.458l-1 .337v4.307c0 .881-.716 1.597-1.597 1.597H2.597A1.598 1.598 0 011 13.403V9.096l-1-.337V4.301C0 3.584.584 3 1.301 3H5v-.672A1.33 1.33 0 016.328 1zM13 9.77l-3.5 1.177v.455c0 .33-.268.598-.598.598H7.098a.598.598 0 01-.598-.598v-.455L3 9.77V13h10V9.77zM14 5H2v2.396l4.5 1.941v-.739c0-.33.268-.598.598-.598h1.804c.33 0 .598.268.598.598v.739L14 7.396V5zM9.672 2H6.328A.327.327 0 006 2.328V3h4v-.672A.327.327 0 009.672 2z"/></svg>
