<svg xmlns="http://www.w3.org/2000/svg" xlink="http://www.w3.org/1999/xlink" width="16" height="16" viewBox="0 0 16 16"><path d="M14.9199,6.7988 C14.9679,6.5328 14.9999,6.2658 14.9999,5.9998 C14.9999,3.7908 13.2089,1.9998 10.9999,1.9998 C9.4829,1.9998 8.1779,3.0048 7.4999,4.2498 C6.8219,3.0048 5.5179,1.9998 3.9999,1.9998 C1.7909,1.9998 -0.0001,3.7908 -0.0001,5.9998 C-0.0001,6.2658 0.0319,6.5328 0.0799,6.7988 C0.0819,6.8048 0.0839,6.8108 0.0849,6.8178 C0.7089,10.1948 4.9529,13.5038 6.7269,14.7538 C7.1919,15.0818 7.8079,15.0818 8.2739,14.7538 C10.0469,13.5038 14.2909,10.1948 14.9149,6.8178 C14.9159,6.8108 14.9179,6.8048 14.9199,6.7988"/></svg>
