<svg xmlns="http://www.w3.org/2000/svg" xlink="http://www.w3.org/1999/xlink" width="12" height="12" viewBox="0 0 12 12"><path d="M11.9385,4.86127 C11.9745,4.65727 12.0005,4.45327 12.0005,4.25027 C12.0005,2.45527 10.5445,1.00027 8.7505,1.00027 C7.5865,1.00027 6.5745,1.83127 6.0005,2.75027 C5.4255,1.83127 4.4135,1.00027 3.2505,1.00027 C1.4555,1.00027 0.0005,2.45527 0.0005,4.25027 C0.0005,4.45327 0.0255,4.65727 0.0615,4.86127 C0.0665,4.88827 0.0715,4.91427 0.0775,4.94127 C0.5125,7.12527 2.8655,9.25527 4.4735,10.48327 C5.3755,11.17227 6.6255,11.17227 7.5265,10.48327 C9.1345,9.25527 11.4875,7.12527 11.9225,4.94127 C11.9285,4.91427 11.9335,4.88827 11.9385,4.86127"/></svg>
