<svg width="145" height="80" viewBox="0 0 145 80" fill="none" xmlns="http://www.w3.org/2000/svg">
<mask id="path-1-outside-1_751_30783" maskUnits="userSpaceOnUse" x="0" y="4" width="72" height="72" fill="black">
<rect fill="white" y="4" width="72" height="72"/>
<path d="M71 40C71 59.33 55.33 75 36 75C16.67 75 1 59.33 1 40C1 20.67 16.67 5 36 5C55.33 5 71 20.67 71 40ZM12.9 40C12.9 52.7578 23.2422 63.1 36 63.1C48.7578 63.1 59.1 52.7578 59.1 40C59.1 27.2422 48.7578 16.9 36 16.9C23.2422 16.9 12.9 27.2422 12.9 40Z"/>
</mask>
<path d="M71 40C71 59.33 55.33 75 36 75C16.67 75 1 59.33 1 40C1 20.67 16.67 5 36 5C55.33 5 71 20.67 71 40ZM12.9 40C12.9 52.7578 23.2422 63.1 36 63.1C48.7578 63.1 59.1 52.7578 59.1 40C59.1 27.2422 48.7578 16.9 36 16.9C23.2422 16.9 12.9 27.2422 12.9 40Z" fill="#C4C7CF"/>
<path d="M71 40C71 59.33 55.33 75 36 75C16.67 75 1 59.33 1 40C1 20.67 16.67 5 36 5C55.33 5 71 20.67 71 40ZM12.9 40C12.9 52.7578 23.2422 63.1 36 63.1C48.7578 63.1 59.1 52.7578 59.1 40C59.1 27.2422 48.7578 16.9 36 16.9C23.2422 16.9 12.9 27.2422 12.9 40Z" stroke="white" stroke-width="2" mask="url(#path-1-outside-1_751_30783)"/>
<mask id="path-2-outside-2_751_30783" maskUnits="userSpaceOnUse" x="-1" y="4" width="73" height="73" fill="black">
<rect fill="white" x="-1" y="4" width="73" height="73"/>
<path d="M36 5C44.9021 5 53.4698 8.39216 59.9592 14.4861C66.4485 20.58 70.372 28.9178 70.9309 37.8023C71.4899 46.6869 68.6424 55.4506 62.968 62.3098C57.2935 69.1691 49.2186 73.6083 40.3867 74.724C31.5547 75.8397 22.6295 73.5481 15.4275 68.3156C8.22552 63.083 3.28804 55.3028 1.61994 46.5583C-0.0481482 37.8139 1.67852 28.7624 6.44853 21.246C11.2185 13.7297 18.6734 8.31345 27.2959 6.09958L30.2553 17.6257C24.5644 19.0869 19.6442 22.6616 16.496 27.6224C13.3478 32.5832 12.2082 38.5572 13.3092 44.3285C14.4101 50.0998 17.6688 55.2348 22.4222 58.6883C27.1755 62.1418 33.0661 63.6542 38.8952 62.9179C44.7243 62.1815 50.0537 59.2516 53.7989 54.7245C57.544 50.1974 59.4233 44.4134 59.0544 38.5495C58.6855 32.6857 56.096 27.1828 51.813 23.1608C47.53 19.1388 41.8754 16.9 36 16.9L36 5Z"/>
</mask>
<path d="M36 5C44.9021 5 53.4698 8.39216 59.9592 14.4861C66.4485 20.58 70.372 28.9178 70.9309 37.8023C71.4899 46.6869 68.6424 55.4506 62.968 62.3098C57.2935 69.1691 49.2186 73.6083 40.3867 74.724C31.5547 75.8397 22.6295 73.5481 15.4275 68.3156C8.22552 63.083 3.28804 55.3028 1.61994 46.5583C-0.0481482 37.8139 1.67852 28.7624 6.44853 21.246C11.2185 13.7297 18.6734 8.31345 27.2959 6.09958L30.2553 17.6257C24.5644 19.0869 19.6442 22.6616 16.496 27.6224C13.3478 32.5832 12.2082 38.5572 13.3092 44.3285C14.4101 50.0998 17.6688 55.2348 22.4222 58.6883C27.1755 62.1418 33.0661 63.6542 38.8952 62.9179C44.7243 62.1815 50.0537 59.2516 53.7989 54.7245C57.544 50.1974 59.4233 44.4134 59.0544 38.5495C58.6855 32.6857 56.096 27.1828 51.813 23.1608C47.53 19.1388 41.8754 16.9 36 16.9L36 5Z" fill="#FDC23C"/>
<path d="M36 5C44.9021 5 53.4698 8.39216 59.9592 14.4861C66.4485 20.58 70.372 28.9178 70.9309 37.8023C71.4899 46.6869 68.6424 55.4506 62.968 62.3098C57.2935 69.1691 49.2186 73.6083 40.3867 74.724C31.5547 75.8397 22.6295 73.5481 15.4275 68.3156C8.22552 63.083 3.28804 55.3028 1.61994 46.5583C-0.0481482 37.8139 1.67852 28.7624 6.44853 21.246C11.2185 13.7297 18.6734 8.31345 27.2959 6.09958L30.2553 17.6257C24.5644 19.0869 19.6442 22.6616 16.496 27.6224C13.3478 32.5832 12.2082 38.5572 13.3092 44.3285C14.4101 50.0998 17.6688 55.2348 22.4222 58.6883C27.1755 62.1418 33.0661 63.6542 38.8952 62.9179C44.7243 62.1815 50.0537 59.2516 53.7989 54.7245C57.544 50.1974 59.4233 44.4134 59.0544 38.5495C58.6855 32.6857 56.096 27.1828 51.813 23.1608C47.53 19.1388 41.8754 16.9 36 16.9L36 5Z" stroke="white" stroke-width="2" mask="url(#path-2-outside-2_751_30783)"/>
<mask id="path-3-outside-3_751_30783" maskUnits="userSpaceOnUse" x="0" y="4" width="72" height="72" fill="black">
<rect fill="white" y="4" width="72" height="72"/>
<path d="M36 5C44.6176 5 52.9322 8.17922 59.3514 13.9287C65.7706 19.6782 69.843 27.5938 70.7886 36.1593C71.7343 44.7248 69.4867 53.3381 64.4763 60.3495C59.4659 67.3608 52.045 72.2772 43.635 74.1571C35.225 76.037 26.417 74.7481 18.8982 70.5374C11.3795 66.3266 5.67839 59.4901 2.88701 51.3371C0.095631 43.1841 0.410182 34.288 3.77041 26.3525C7.13065 18.4171 13.3003 12.0002 21.0977 8.33105L26.1645 19.0985C21.0182 21.5201 16.9462 25.7553 14.7285 30.9927C12.5107 36.2301 12.3031 42.1015 14.1454 47.4825C15.9877 52.8634 19.7504 57.3756 24.7128 60.1547C29.6752 62.9337 35.4885 63.7844 41.0391 62.5437C46.5897 61.303 51.4875 58.0581 54.7944 53.4306C58.1012 48.8032 59.5846 43.1184 58.9605 37.4651C58.3364 31.8119 55.6486 26.5876 51.4119 22.7929C47.1753 18.9983 41.6876 16.9 36 16.9L36 5Z"/>
</mask>
<path d="M36 5C44.6176 5 52.9322 8.17922 59.3514 13.9287C65.7706 19.6782 69.843 27.5938 70.7886 36.1593C71.7343 44.7248 69.4867 53.3381 64.4763 60.3495C59.4659 67.3608 52.045 72.2772 43.635 74.1571C35.225 76.037 26.417 74.7481 18.8982 70.5374C11.3795 66.3266 5.67839 59.4901 2.88701 51.3371C0.095631 43.1841 0.410182 34.288 3.77041 26.3525C7.13065 18.4171 13.3003 12.0002 21.0977 8.33105L26.1645 19.0985C21.0182 21.5201 16.9462 25.7553 14.7285 30.9927C12.5107 36.2301 12.3031 42.1015 14.1454 47.4825C15.9877 52.8634 19.7504 57.3756 24.7128 60.1547C29.6752 62.9337 35.4885 63.7844 41.0391 62.5437C46.5897 61.303 51.4875 58.0581 54.7944 53.4306C58.1012 48.8032 59.5846 43.1184 58.9605 37.4651C58.3364 31.8119 55.6486 26.5876 51.4119 22.7929C47.1753 18.9983 41.6876 16.9 36 16.9L36 5Z" fill="#F67CF2"/>
<path d="M36 5C44.6176 5 52.9322 8.17922 59.3514 13.9287C65.7706 19.6782 69.843 27.5938 70.7886 36.1593C71.7343 44.7248 69.4867 53.3381 64.4763 60.3495C59.4659 67.3608 52.045 72.2772 43.635 74.1571C35.225 76.037 26.417 74.7481 18.8982 70.5374C11.3795 66.3266 5.67839 59.4901 2.88701 51.3371C0.095631 43.1841 0.410182 34.288 3.77041 26.3525C7.13065 18.4171 13.3003 12.0002 21.0977 8.33105L26.1645 19.0985C21.0182 21.5201 16.9462 25.7553 14.7285 30.9927C12.5107 36.2301 12.3031 42.1015 14.1454 47.4825C15.9877 52.8634 19.7504 57.3756 24.7128 60.1547C29.6752 62.9337 35.4885 63.7844 41.0391 62.5437C46.5897 61.303 51.4875 58.0581 54.7944 53.4306C58.1012 48.8032 59.5846 43.1184 58.9605 37.4651C58.3364 31.8119 55.6486 26.5876 51.4119 22.7929C47.1753 18.9983 41.6876 16.9 36 16.9L36 5Z" stroke="white" stroke-width="2" mask="url(#path-3-outside-3_751_30783)"/>
<mask id="path-4-outside-4_751_30783" maskUnits="userSpaceOnUse" x="0" y="4" width="72" height="72" fill="black">
<rect fill="white" y="4" width="72" height="72"/>
<path d="M36 5C43.8617 5 51.4944 7.6468 57.6683 12.5139C63.8422 17.381 68.1977 24.185 70.0329 31.8294C71.8682 39.4739 71.0764 47.5136 67.785 54.6531C64.4936 61.7926 58.8945 67.6161 51.8897 71.1852C44.8849 74.7543 36.8824 75.8612 29.1718 74.3275C21.4612 72.7937 14.4915 68.7087 9.38579 62.7307C4.28005 56.7526 1.33563 49.2297 1.02698 41.3741C0.718338 33.5185 3.06344 25.7877 7.68441 19.4275L17.3117 26.4222C14.2619 30.6199 12.7141 35.7222 12.9178 40.9069C13.1215 46.0916 15.0648 51.0567 18.4346 55.0022C21.8044 58.9478 26.4044 61.6439 31.4934 62.6561C36.5824 63.6684 41.864 62.9379 46.4872 60.5823C51.1103 58.2266 54.8058 54.3831 56.9781 49.671C59.1504 44.959 59.673 39.6527 58.4617 34.6074C57.2505 29.5621 54.3758 25.0715 50.3011 21.8592C46.2263 18.6469 41.1887 16.9 36 16.9L36 5Z"/>
</mask>
<path d="M36 5C43.8617 5 51.4944 7.6468 57.6683 12.5139C63.8422 17.381 68.1977 24.185 70.0329 31.8294C71.8682 39.4739 71.0764 47.5136 67.785 54.6531C64.4936 61.7926 58.8945 67.6161 51.8897 71.1852C44.8849 74.7543 36.8824 75.8612 29.1718 74.3275C21.4612 72.7937 14.4915 68.7087 9.38579 62.7307C4.28005 56.7526 1.33563 49.2297 1.02698 41.3741C0.718338 33.5185 3.06344 25.7877 7.68441 19.4275L17.3117 26.4222C14.2619 30.6199 12.7141 35.7222 12.9178 40.9069C13.1215 46.0916 15.0648 51.0567 18.4346 55.0022C21.8044 58.9478 26.4044 61.6439 31.4934 62.6561C36.5824 63.6684 41.864 62.9379 46.4872 60.5823C51.1103 58.2266 54.8058 54.3831 56.9781 49.671C59.1504 44.959 59.673 39.6527 58.4617 34.6074C57.2505 29.5621 54.3758 25.0715 50.3011 21.8592C46.2263 18.6469 41.1887 16.9 36 16.9L36 5Z" fill="#FF622D"/>
<path d="M36 5C43.8617 5 51.4944 7.6468 57.6683 12.5139C63.8422 17.381 68.1977 24.185 70.0329 31.8294C71.8682 39.4739 71.0764 47.5136 67.785 54.6531C64.4936 61.7926 58.8945 67.6161 51.8897 71.1852C44.8849 74.7543 36.8824 75.8612 29.1718 74.3275C21.4612 72.7937 14.4915 68.7087 9.38579 62.7307C4.28005 56.7526 1.33563 49.2297 1.02698 41.3741C0.718338 33.5185 3.06344 25.7877 7.68441 19.4275L17.3117 26.4222C14.2619 30.6199 12.7141 35.7222 12.9178 40.9069C13.1215 46.0916 15.0648 51.0567 18.4346 55.0022C21.8044 58.9478 26.4044 61.6439 31.4934 62.6561C36.5824 63.6684 41.864 62.9379 46.4872 60.5823C51.1103 58.2266 54.8058 54.3831 56.9781 49.671C59.1504 44.959 59.673 39.6527 58.4617 34.6074C57.2505 29.5621 54.3758 25.0715 50.3011 21.8592C46.2263 18.6469 41.1887 16.9 36 16.9L36 5Z" stroke="white" stroke-width="2" mask="url(#path-4-outside-4_751_30783)"/>
<mask id="path-5-outside-5_751_30783" maskUnits="userSpaceOnUse" x="35" y="4" width="37" height="72" fill="black">
<rect fill="white" x="35" y="4" width="37" height="72"/>
<path d="M36 5C40.5963 5 45.1475 5.9053 49.3939 7.66422C53.6403 9.42313 57.4987 12.0012 60.7487 15.2513C63.9988 18.5013 66.5769 22.3597 68.3358 26.6061C70.0947 30.8525 71 35.4037 71 40C71 44.5963 70.0947 49.1475 68.3358 53.3939C66.5769 57.6403 63.9988 61.4987 60.7487 64.7487C57.4987 67.9988 53.6403 70.5769 49.3939 72.3358C45.1475 74.0947 40.5963 75 36 75L36 63.1C39.0335 63.1 42.0374 62.5025 44.84 61.3416C47.6426 60.1807 50.1891 58.4792 52.3342 56.3342C54.4792 54.1891 56.1807 51.6426 57.3416 48.84C58.5025 46.0374 59.1 43.0335 59.1 40C59.1 36.9665 58.5025 33.9626 57.3416 31.16C56.1807 28.3574 54.4792 25.8109 52.3342 23.6658C50.1891 21.5208 47.6426 19.8193 44.84 18.6584C42.0374 17.4975 39.0335 16.9 36 16.9L36 5Z"/>
</mask>
<path d="M36 5C40.5963 5 45.1475 5.9053 49.3939 7.66422C53.6403 9.42313 57.4987 12.0012 60.7487 15.2513C63.9988 18.5013 66.5769 22.3597 68.3358 26.6061C70.0947 30.8525 71 35.4037 71 40C71 44.5963 70.0947 49.1475 68.3358 53.3939C66.5769 57.6403 63.9988 61.4987 60.7487 64.7487C57.4987 67.9988 53.6403 70.5769 49.3939 72.3358C45.1475 74.0947 40.5963 75 36 75L36 63.1C39.0335 63.1 42.0374 62.5025 44.84 61.3416C47.6426 60.1807 50.1891 58.4792 52.3342 56.3342C54.4792 54.1891 56.1807 51.6426 57.3416 48.84C58.5025 46.0374 59.1 43.0335 59.1 40C59.1 36.9665 58.5025 33.9626 57.3416 31.16C56.1807 28.3574 54.4792 25.8109 52.3342 23.6658C50.1891 21.5208 47.6426 19.8193 44.84 18.6584C42.0374 17.4975 39.0335 16.9 36 16.9L36 5Z" fill="#59DDAA"/>
<path d="M36 5C40.5963 5 45.1475 5.9053 49.3939 7.66422C53.6403 9.42313 57.4987 12.0012 60.7487 15.2513C63.9988 18.5013 66.5769 22.3597 68.3358 26.6061C70.0947 30.8525 71 35.4037 71 40C71 44.5963 70.0947 49.1475 68.3358 53.3939C66.5769 57.6403 63.9988 61.4987 60.7487 64.7487C57.4987 67.9988 53.6403 70.5769 49.3939 72.3358C45.1475 74.0947 40.5963 75 36 75L36 63.1C39.0335 63.1 42.0374 62.5025 44.84 61.3416C47.6426 60.1807 50.1891 58.4792 52.3342 56.3342C54.4792 54.1891 56.1807 51.6426 57.3416 48.84C58.5025 46.0374 59.1 43.0335 59.1 40C59.1 36.9665 58.5025 33.9626 57.3416 31.16C56.1807 28.3574 54.4792 25.8109 52.3342 23.6658C50.1891 21.5208 47.6426 19.8193 44.84 18.6584C42.0374 17.4975 39.0335 16.9 36 16.9L36 5Z" stroke="white" stroke-width="2" mask="url(#path-5-outside-5_751_30783)"/>
<mask id="path-6-outside-6_751_30783" maskUnits="userSpaceOnUse" x="35" y="4" width="37" height="37" fill="black">
<rect fill="white" x="35" y="4" width="37" height="37"/>
<path d="M36 5C40.5963 5 45.1475 5.9053 49.3939 7.66422C53.6403 9.42313 57.4987 12.0012 60.7487 15.2513C63.9988 18.5013 66.5769 22.3597 68.3358 26.6061C70.0947 30.8525 71 35.4037 71 40L59.1 40C59.1 36.9665 58.5025 33.9626 57.3416 31.16C56.1807 28.3574 54.4792 25.8109 52.3342 23.6658C50.1891 21.5208 47.6426 19.8193 44.84 18.6584C42.0374 17.4975 39.0335 16.9 36 16.9L36 5Z"/>
</mask>
<path d="M36 5C40.5963 5 45.1475 5.9053 49.3939 7.66422C53.6403 9.42313 57.4987 12.0012 60.7487 15.2513C63.9988 18.5013 66.5769 22.3597 68.3358 26.6061C70.0947 30.8525 71 35.4037 71 40L59.1 40C59.1 36.9665 58.5025 33.9626 57.3416 31.16C56.1807 28.3574 54.4792 25.8109 52.3342 23.6658C50.1891 21.5208 47.6426 19.8193 44.84 18.6584C42.0374 17.4975 39.0335 16.9 36 16.9L36 5Z" fill="#2BB3FF"/>
<path d="M36 5C40.5963 5 45.1475 5.9053 49.3939 7.66422C53.6403 9.42313 57.4987 12.0012 60.7487 15.2513C63.9988 18.5013 66.5769 22.3597 68.3358 26.6061C70.0947 30.8525 71 35.4037 71 40L59.1 40C59.1 36.9665 58.5025 33.9626 57.3416 31.16C56.1807 28.3574 54.4792 25.8109 52.3342 23.6658C50.1891 21.5208 47.6426 19.8193 44.84 18.6584C42.0374 17.4975 39.0335 16.9 36 16.9L36 5Z" stroke="white" stroke-width="2" mask="url(#path-6-outside-6_751_30783)"/>
</svg>
