<svg width="144" height="80" viewBox="0 0 144 80" fill="none" xmlns="http://www.w3.org/2000/svg">
<rect y="14" width="1" height="66" fill="#AB6CFE"/>
<rect x="17" y="14" width="1" height="2" fill="#AB6CFE"/>
<rect x="35" y="19" width="1" height="2" fill="#AB6CFE"/>
<rect x="52" y="24" width="1" height="56" fill="#AB6CFE"/>
<rect y="11" width="18" height="3" fill="#AB6CFE"/>
<rect x="17" y="16" width="19" height="3" fill="#AB6CFE"/>
<rect x="35" y="21" width="18" height="3" fill="#AB6CFE"/>
<rect x="55" y="15" width="1" height="65" fill="#FDC23C"/>
<rect x="70" y="15" width="1" height="65" fill="#FDC23C"/>
<rect x="55" y="11" width="16" height="4" fill="#FDC23C"/>
<rect x="56" y="15" width="14" height="4" fill="#2BB3FF"/>
<rect x="73" y="15" width="1" height="65" fill="#59DDAA"/>
<rect x="90" y="15" width="1" height="65" fill="#59DDAA"/>
<rect x="73" y="11" width="18" height="4" fill="#59DDAA"/>
<rect x="74" y="15" width="16" height="4" fill="#FDC23C"/>
<rect x="90" y="33" width="1" height="47" fill="#FDC23C"/>
<rect x="107" y="33" width="1" height="47" fill="#FDC23C"/>
<rect x="90" y="30" width="18" height="3" fill="#FDC23C"/>
<rect x="91" y="33" width="16" height="3" fill="#AB6CFE"/>
<rect x="110" y="14" width="1" height="66" fill="#FF8786"/>
<rect x="126" y="14" width="1" height="18" fill="#FF8786"/>
<rect x="143" y="32" width="1" height="48" fill="#FF8786"/>
<rect x="110" y="11" width="17" height="3" fill="#FF8786"/>
<rect x="126" y="32" width="17" height="3" fill="#FF8786"/>
</svg>
