<svg xmlns="http://www.w3.org/2000/svg" width="20" height="16" viewBox="0 0 20 16">
    <g fill="none" fill-rule="evenodd">
        <path d="M-3-4h26v24H-3z"/>
        <g fill-rule="nonzero">
            <path fill="#E24329" d="M10.006 15.361l3.68-9.142h-7.36z"/>
            <path fill="#FC6D26" d="M10.006 15.361L6.326 6.22H1.168z"/>
            <path fill="#FCA326" d="M1.168 6.219L.05 8.997c-.102.254.01.531.277.688l9.679 5.676L1.168 6.22z"/>
            <path fill="#E24329" d="M1.168 6.219h5.158L4.109.712C3.995.43 3.5.43 3.385.712L1.168 6.22z"/>
            <path fill="#FC6D26" d="M10.006 15.361l3.68-9.142h5.157z"/>
            <path fill="#FCA326" d="M18.843 6.219l1.119 2.778c.102.254-.01.531-.277.688l-9.68 5.676 8.838-9.142z"/>
            <path fill="#E24329" d="M18.843 6.219h-5.157L15.902.712c.114-.283.61-.283.725 0l2.216 5.507z"/>
        </g>
    </g>
</svg>
