<svg width="134" height="18" viewBox="0 0 134 18" fill="none" xmlns="http://www.w3.org/2000/svg">
  <g clip-path="url(#clip0)">
    <path d="M92.6 7.45c0-2.18-1.34-3.77-3.92-3.77h-8.31V15h2.73v-3.87h3.23L89.5 15h3.08v-.25l-3.08-3.68c1.94-.4 3.1-1.8 3.1-3.62zm-4.22 1.4h-5.27V6.03h5.27c.98 0 1.6.52 1.6 1.41 0 .92-.6 1.41-1.6 1.41zM133.9 3.68h-2.57v4.3h-6.88v-4.3h-2.77v11.33h2.77v-4.47h6.88v4.47h2.56V3.68zM73.06 3.68L70 13.21h-.17L66.8 3.68h-4.87v11.33h2.6V5.7h.16l3.05 9.3h4.2l3.05-9.3h.16V15h2.69V3.68h-4.77zM43.3 8.31c-.96-.1-2.76-.26-3.72-.37-.95-.1-1.5-.38-1.5-1 0-.6.58-1.11 2.93-1.11 2.08 0 4 .45 5.66 1.25V4.55a13.09 13.09 0 00-5.8-1.18c-3.23 0-5.46 1.34-5.46 3.62 0 1.93 1.31 2.98 3.93 3.27.95.1 2.57.25 3.7.34 1.23.1 1.59.48 1.59 1.04 0 .77-.87 1.24-3.05 1.24-2.22 0-4.47-.73-6.07-1.75v2.61c1.3.86 3.5 1.6 5.98 1.6 3.52 0 5.78-1.36 5.78-3.8.02-1.83-1.19-2.94-3.97-3.23zM49.08 3.68v11.33h10.56v-2.32h-7.95v-2.3h7.81V8.1H51.7V6h7.95V3.68H49.08zM116.03 8.31c-.96-.1-2.77-.26-3.73-.37-.95-.1-1.5-.38-1.5-1 0-.6.59-1.11 2.94-1.11 2.08 0 4 .45 5.66 1.25V4.55a13.08 13.08 0 00-5.81-1.18c-3.22 0-5.45 1.34-5.45 3.62 0 1.93 1.3 2.98 3.93 3.27.95.1 2.56.25 3.7.34 1.22.1 1.58.48 1.58 1.04 0 .77-.86 1.24-3.04 1.24-2.22 0-4.47-.73-6.07-1.75v2.61c1.29.86 3.5 1.6 5.98 1.6 3.51 0 5.77-1.36 5.77-3.8.03-1.83-1.18-2.94-3.96-3.23zM103.55 3.68v5.8c0 2.2-1.33 3.4-3.34 3.4s-3.33-1.19-3.33-3.44V3.68h-2.72v5.5c0 4.12 2.56 6.15 6.1 6.15 3.39 0 6.02-1.95 6.02-6V3.67h-2.73z" fill="#171A22"/>
    <path d="M26.06 9.28c0 .55-.28.63-.98.63-.74 0-.87-.12-.95-.68-.15-1.42-1.1-2.63-2.72-2.76-.52-.05-.64-.24-.64-.88 0-.59.1-.87.55-.87a4.68 4.68 0 014.74 4.56zm4.07 0C30.13 5 27.24.5 20.57.5H7.32c-.27 0-.44.14-.44.38 0 .14.1.26.2.33.47.38 1.19.8 2.13 1.27a31 31 0 002.35 1.05c.3.13.41.26.41.43 0 .23-.16.38-.49.38H.96c-.31 0-.46.2-.46.4 0 .17.06.32.2.46.85.9 2.22 1.97 4.2 3.21a60.57 60.57 0 005.6 3.08c.29.14.38.3.38.46-.01.2-.16.35-.5.35H5.56c-.27 0-.43.14-.43.37 0 .12.1.28.24.4 1.1 1 2.85 2.08 5.2 3.08a24.54 24.54 0 009.84 2.13c6.75 0 9.72-5.05 9.72-9zm-8.81 6.05a6.09 6.09 0 01-6.08-6.05 6.04 6.04 0 016.08-5.97 6.02 6.02 0 110 12.02z" fill="#FF622D"/>
  </g>
  <defs>
    <clipPath id="clip0">
      <path fill="#fff" transform="translate(.5 .5)" d="M0 0h134v17.78H0z"/>
    </clipPath>
  </defs>
</svg>
