<svg width="111" height="23" viewBox="0 0 111 23" fill="none" xmlns="http://www.w3.org/2000/svg">
  <path d="M25.8 10.98c0 .55-.27.64-.97.64-.75 0-.89-.13-.97-.69a2.95 2.95 0 00-2.74-2.75c-.52-.05-.65-.24-.65-.87 0-.6.1-.87.56-.87a4.7 4.7 0 014.78 4.54zm4.12 0c0-4.25-2.91-8.75-9.65-8.75H6.88c-.27 0-.44.13-.44.38 0 .13.1.25.2.32.48.38 1.2.8 2.16 1.27.92.46 1.65.76 2.37 1.05.3.12.42.26.42.43 0 .23-.17.38-.5.38H.46c-.31 0-.46.2-.46.4 0 .17.06.31.2.46.86.89 2.24 1.96 4.24 3.2a61.42 61.42 0 005.66 3.07c.29.13.38.29.38.46-.01.19-.16.34-.5.34H5.11c-.27 0-.43.15-.43.37 0 .12.1.28.24.4 1.1 1 2.88 2.08 5.24 3.07a25.05 25.05 0 009.95 2.12c6.82 0 9.81-5.03 9.81-8.97zm-8.9 6.04a6.1 6.1 0 01-6.13-6.04c0-3.3 2.8-5.95 6.14-5.95a5.99 5.99 0 110 11.99z" fill="#FF642D"/>
  <path d="M45.68 7.35c-.6-2.27-2.34-3.53-5-3.53-2.78 0-5 1.64-5 3.94 0 2.97 2.47 3.51 4.58 3.98 1.57.32 2.92.6 2.92 1.87 0 1.32-1.1 1.88-2.5 1.88-1.55 0-2.63-.69-3.01-2.36l-2.54.7c.67 2.47 2.5 3.85 5.53 3.85 3 0 5.07-1.6 5.07-4.16 0-2.88-2.41-3.54-4.5-4-1.58-.35-2.97-.62-2.97-1.87 0-1.04.88-1.65 2.4-1.65 1.38 0 2.26.77 2.53 2l2.49-.65zm6.2 10.33c2.17 0 3.73-1.02 4.27-2.82l-2.12-.44c-.29.76-.97 1.28-2.16 1.28-1.3 0-2.21-.61-2.43-2.01h6.7c.07-.35.1-.7.1-1.03 0-2.61-1.83-4.38-4.48-4.38a4.54 4.54 0 00-4.66 4.76c0 2.68 1.78 4.64 4.77 4.64zm-.12-7.5c1.15 0 1.9.63 2.1 1.76H49.5a2.23 2.23 0 012.25-1.76zm6.48 7.32h2.29v-5.53c0-1.17.81-1.58 1.6-1.58.87 0 1.44.54 1.44 1.58v5.53h2.29v-5.53c0-1.18.8-1.58 1.6-1.58.86 0 1.44.54 1.44 1.58v5.53h2.29v-5.7c0-2.3-1.44-3.52-3.23-3.52-1.18 0-2.03.54-2.68 1.34a2.97 2.97 0 00-2.57-1.34c-.97 0-1.71.44-2.29 1.08l-.12-.88h-2.06v9.02zm15.37 0h2.28v-4.64c0-1.48.96-2.29 2.14-2.29.3 0 .62.02.94.1l.27-2.22a3.07 3.07 0 00-.88-.13c-1.14 0-1.94.49-2.48 1.22l-.13-1.06H73.6v9.02zm9.2-9.02h-2.28v5.62c0 2.4 1.56 3.58 3.42 3.58 1.22 0 2-.38 2.59-1.06l.1.88h2.06V8.48h-2.29v5.19c0 1.42-.95 1.9-1.83 1.9-1.14 0-1.77-.57-1.77-1.69v-5.4zm11.7 9.2c2.58 0 3.84-1.28 3.84-2.99 0-2.1-1.9-2.43-3.39-2.66-1.04-.16-1.85-.3-1.85-.97 0-.54.54-.92 1.42-.92.81 0 1.35.34 1.53 1.12l2.27-.47c-.52-1.6-1.75-2.5-3.8-2.5-2.18 0-3.76 1.2-3.76 2.88 0 2.06 1.69 2.46 3.17 2.7 1.08.2 2.05.28 2.05.97 0 .63-.56.99-1.48.99-.92 0-1.58-.38-1.76-1.32l-2.34.47c.5 1.93 2.09 2.7 4.1 2.7zm5.59-.18h2.28v-5.07c0-1.52 1.05-2.02 2-2.02 1.06 0 1.82.68 1.82 2.02v5.07h2.28v-5.44c0-2.48-1.62-3.78-3.54-3.78-1.06 0-1.9.42-2.56 1.03v-5.3h-2.28v13.5z" fill="#171A22"/>
</svg>
