<svg width="134" height="18" viewBox="0 0 134 18" fill="none" xmlns="http://www.w3.org/2000/svg">
<path d="M49.0322 14.4287H59.4746V11.8073H51.802V9.83735H59.4746V7.27954H51.802V5.56374H59.4746V2.94238H49.0322V14.4287Z" fill="#171A22"/>
<path d="M43.3106 7.66083L40.6204 7.35898C38.9808 7.16833 38.1053 6.99358 38.1053 6.27866C38.1053 5.59552 39.3469 5.38898 41.4163 5.38898C43.4857 5.38898 45.173 5.70673 46.8126 6.31043V3.67319C45.6187 3.32367 44.0747 2.94238 41.4163 2.94238C37.8665 2.94238 35.3037 3.92738 35.3037 6.38987C35.3037 8.86825 37.7074 9.58316 39.6812 9.78969L42.4032 10.0915C44.1702 10.2822 44.7751 10.4569 44.7751 11.2195C44.7751 11.9027 43.5494 12.4428 41.273 12.4428C38.9649 12.4428 36.9115 11.998 35.3515 11.299L35.3355 13.8727C36.6727 14.5399 38.0257 15.1436 41.273 15.1436C44.5681 15.1436 47.4493 13.6185 47.4493 11.1242C47.4652 8.61405 45.5869 7.91502 43.3106 7.66083Z" fill="#171A22"/>
<path d="M115.878 7.66083L113.188 7.35898C111.548 7.16833 110.673 6.99358 110.673 6.27866C110.673 5.59552 111.914 5.38898 113.984 5.38898C116.053 5.38898 117.74 5.70673 119.38 6.31043V3.67319C118.186 3.32367 116.642 2.94238 113.984 2.94238C110.434 2.94238 107.871 3.92738 107.871 6.38987C107.871 8.86825 110.275 9.58316 112.249 9.78969L114.971 10.0915C116.738 10.2822 117.342 10.4569 117.342 11.2195C117.342 11.9027 116.117 12.4428 113.84 12.4428C111.532 12.4428 109.479 11.998 107.919 11.299L107.903 13.8727C109.24 14.5399 110.593 15.1436 113.84 15.1436C117.136 15.1436 120.017 13.6185 120.017 11.1242C120.017 8.61405 118.154 7.91502 115.878 7.66083Z" fill="#171A22"/>
<path d="M70.1065 12.6176H69.8677L66.7796 2.94238H61.7812V14.4287H64.4396V4.99181H64.5988L67.6869 14.4287H72.0644L75.1526 4.99181H75.3117V14.4287H78.0656V2.94238H73.1946L70.1065 12.6176Z" fill="#171A22"/>
<path d="M131.373 2.94238V7.15244H124.369V2.94238H121.6V14.4287H124.369V9.78969H131.373V14.4287H134V2.94238H131.373Z" fill="#171A22"/>
<path d="M103.709 8.70937C103.757 11.0607 102.356 12.0139 100.318 12.0139C98.3605 12.0139 96.8642 10.9971 96.912 8.70937L96.9757 2.94238H94.2059L94.1422 8.94768C94.0945 12.5064 96.8642 14.7623 100.318 14.7623C103.757 14.7623 106.447 12.5064 106.463 8.94768L106.511 2.94238H103.741L103.709 8.70937Z" fill="#171A22"/>
<path d="M92.8124 6.75527C92.8124 4.64229 91.332 2.94238 89.008 2.94238H83.1819H80.6191H80.4121V14.4446H83.1819V10.5364H86.6361L90.0108 14.4446H93.0512V14.0474L89.8675 10.4411C91.6822 10.0915 92.8124 8.56639 92.8124 6.75527ZM83.1819 5.56374H88.6259C89.5173 5.56374 89.963 6.16745 89.963 6.94592C89.963 7.66083 89.5173 8.24865 88.6259 8.24865H83.1819V5.56374Z" fill="#171A22"/>
<path d="M25.9449 8.88085C25.9449 9.43689 25.6584 9.53222 24.958 9.53222C24.2099 9.53222 24.0666 9.40512 23.987 8.84908C23.8437 7.40336 22.8727 6.18005 21.2331 6.05296C20.7238 6.0053 20.5805 5.81465 20.5805 5.16328C20.5805 4.55958 20.6601 4.2895 21.1376 4.2895C23.987 4.27361 25.9449 6.54545 25.9449 8.88085ZM30.0837 8.88085C30.0837 4.55958 27.1547 0 20.3895 0H6.97041C6.41327 0 6.31776 0.47661 6.79531 0.778463C8.02101 1.5887 9.74018 2.49426 11.2524 3.06619C11.8891 3.3045 11.7618 3.87643 11.1251 3.87643H0.491688C-0.0336138 3.87643 -0.176878 4.30539 0.252914 4.70256C2.8635 7.11739 6.58837 9.57988 10.1222 11.105C10.7589 11.3751 10.6316 11.947 9.99487 11.947H5.23532C4.6941 11.947 4.55084 12.3919 4.99655 12.7414C7.55939 14.6796 13.5287 18 20.3895 18C27.2502 18 30.0837 12.8685 30.0837 8.88085ZM21.1376 14.9974C17.7789 14.9974 14.9773 12.2648 14.9773 8.86496C14.9773 5.5128 17.7789 2.82789 21.1376 2.82789C24.5919 2.82789 27.2821 5.5128 27.2821 8.86496C27.2821 12.2648 24.5919 14.9974 21.1376 14.9974Z" fill="#FF642D"/>
</svg>
