<svg xmlns="http://www.w3.org/2000/svg" xlink="http://www.w3.org/1999/xlink" width="22" height="22" viewBox="0 0 22 22"><path d="M11,1 C16.522,1 21,5.478 21,11 C21,16.522 16.522,21 11,21 C5.478,21 1,16.522 1,11 C1,5.478 5.478,1 11,1 Z M11,19.125 C15.48,19.125 19.125,15.48 19.125,11 C19.125,6.52 15.48,2.875 11,2.875 C6.52,2.875 2.875,6.52 2.875,11 C2.875,15.48 6.52,19.125 11,19.125 Z M5.4004,10.4424 C5.3804,10.6294 5.3734,10.8164 5.3734,11.0004 L4.1244,11.0044 C4.1234,10.7784 4.1334,10.5504 4.1564,10.3214 L5.4074,10.3694 L5.4004,10.4424 Z M5.832,8.7598 C5.756,8.9298 5.693,9.1058 5.635,9.2838 L4.444,8.9028 C4.514,8.6838 4.595,8.4718 4.686,8.2628 L5.832,8.7598 Z M5.4863,12.1152 C5.5213,12.2982 5.5693,12.4762 5.6243,12.6512 L4.4333,13.0332 C4.3633,12.8142 4.3063,12.5902 4.2603,12.3642 L5.4863,12.1152 Z M6.7178,7.3379 C6.5958,7.4809 6.4828,7.6289 6.3738,7.7829 L5.3508,7.0659 C5.4818,6.8789 5.6198,6.6989 5.7658,6.5279 L6.7178,7.3379 Z M7.9824,6.2393 C7.8234,6.3413 7.6704,6.4493 7.5214,6.5653 L6.7524,5.5803 C6.9314,5.4393 7.1174,5.3073 7.3084,5.1853 L7.9824,6.2393 Z M9.5137,5.5605 C9.3327,5.6105 9.1537,5.6685 8.9787,5.7365 L8.5337,4.5685 C8.7447,4.4885 8.9627,4.4165 9.1817,4.3555 L9.5137,5.5605 Z M11.1738,5.3662 C10.9868,5.3602 10.7988,5.3622 10.6148,5.3752 L10.5288,4.1292 C10.7558,4.1122 10.9848,4.1092 11.2148,4.1162 L11.1738,5.3662 Z M9.4102,16.3848 C9.5492,16.4238 9.6902,16.4608 9.8342,16.4898 L9.9572,16.5168 L9.7192,17.7428 L9.5752,17.7138 C9.4002,17.6768 9.2272,17.6328 9.0582,17.5838 L9.4102,16.3848 Z M13.2266,4.4824 L12.8216,5.6644 C12.6466,5.6034 12.4656,5.5524 12.2856,5.5094 L12.5676,4.2944 C12.7916,4.3444 13.0116,4.4074 13.2266,4.4824 Z M11.0693,16.6133 C11.2583,16.6113 11.4463,16.5993 11.6313,16.5803 L11.7673,17.8223 C11.5413,17.8473 11.3133,17.8613 11.0853,17.8633 L11.0693,16.6133 Z M12.7207,16.3438 C12.8997,16.2878 13.0747,16.2228 13.2447,16.1478 L13.7437,17.2928 C13.5347,17.3828 13.3217,17.4648 13.1037,17.5338 L12.7207,16.3438 Z M14.2217,15.5996 C14.3737,15.4946 14.5227,15.3786 14.6647,15.2556 L15.4777,16.2056 C15.3037,16.3556 15.1217,16.4946 14.9357,16.6246 L14.2217,15.5996 Z M16.4727,9.6875 C16.4297,9.5055 16.3747,9.3245 16.3147,9.1495 L17.4977,8.7425 C17.5717,8.9565 17.6347,9.1745 17.6897,9.3985 L16.4727,9.6875 Z M15.4355,14.4492 C15.5505,14.3022 15.6585,14.1482 15.7615,13.9882 L16.8135,14.6622 C16.6925,14.8532 16.5595,15.0402 16.4215,15.2172 L15.4355,14.4492 Z M16.6211,10.7969 L17.8711,10.7509 C17.8801,10.9789 17.8761,11.2069 17.8611,11.4389 L16.6131,11.3549 C16.6271,11.1669 16.6291,10.9829 16.6211,10.7969 Z M16.2568,12.9912 C16.3218,12.8172 16.3808,12.6422 16.4298,12.4602 L17.6358,12.7832 C17.5768,13.0062 17.5058,13.2242 17.4258,13.4342 L16.2568,12.9912 Z M16.5,5.5 L12.834,12.895 L5.5,16.5 L9.166,9.167 L16.5,5.5 Z M11,12.25 C11.69,12.25 12.25,11.69 12.25,11 C12.25,10.31 11.69,9.75 11,9.75 C10.31,9.75 9.75,10.31 9.75,11 C9.75,11.69 10.31,12.25 11,12.25 Z"/></svg>
