<svg xmlns="http://www.w3.org/2000/svg" xlink="http://www.w3.org/1999/xlink" width="16" height="16" viewBox="0 0 16 16"><path d="M8,0 C12.418,0 16,3.582 16,8 C16,12.418 12.418,16 8,16 C3.582,16 0,12.418 0,8 C0,3.582 3.582,0 8,0 Z M8,14.5 C11.584,14.5 14.5,11.584 14.5,8 C14.5,4.416 11.584,1.5 8,1.5 C4.416,1.5 1.5,4.416 1.5,8 C1.5,11.584 4.416,14.5 8,14.5 Z M3.5195,7.5537 C3.5045,7.7037 3.4985,7.8527 3.4985,7.9997 L2.4985,8.0037 C2.4985,7.8237 2.5065,7.6407 2.5255,7.4567 L3.5255,7.4947 L3.5195,7.5537 Z M3.8652,6.208 C3.8042,6.344 3.7542,6.484 3.7082,6.627 L2.7562,6.322 C2.8102,6.146 2.8762,5.977 2.9482,5.81 L3.8652,6.208 Z M3.5898,8.8926 C3.6168,9.0386 3.6548,9.1816 3.6988,9.3216 L2.7468,9.6256 C2.6908,9.4516 2.6448,9.2726 2.6088,9.0916 L3.5898,8.8926 Z M4.5742,5.0703 C4.4762,5.1843 4.3872,5.3033 4.2992,5.4253 L3.4802,4.8523 C3.5852,4.7033 3.6962,4.5593 3.8122,4.4223 L4.5742,5.0703 Z M5.5859,4.1914 C5.4589,4.2724 5.3359,4.3594 5.2169,4.4524 L4.6019,3.6644 C4.7459,3.5514 4.8939,3.4464 5.0469,3.3484 L5.5859,4.1914 Z M6.8105,3.6484 C6.6655,3.6884 6.5225,3.7354 6.3825,3.7894 L6.0265,2.8544 C6.1965,2.7904 6.3715,2.7334 6.5445,2.6844 L6.8105,3.6484 Z M8.1387,3.4932 C7.9887,3.4882 7.8387,3.4902 7.6917,3.5002 L7.6227,2.5032 C7.8047,2.4902 7.9887,2.4872 8.1717,2.4932 L8.1387,3.4932 Z M6.7285,12.3076 C6.8385,12.3396 6.9525,12.3686 7.0665,12.3926 L7.1655,12.4126 L6.9745,13.3946 L6.8605,13.3706 C6.7205,13.3416 6.5825,13.3066 6.4475,13.2676 L6.7285,12.3076 Z M9.7812,2.7861 L9.4572,3.7311 C9.3162,3.6831 9.1732,3.6421 9.0272,3.6081 L9.2542,2.6351 C9.4332,2.6761 9.6092,2.7261 9.7812,2.7861 Z M8.0557,12.4912 C8.2067,12.4892 8.3577,12.4802 8.5047,12.4642 L8.6137,13.4582 C8.4327,13.4772 8.2507,13.4892 8.0687,13.4912 L8.0557,12.4912 Z M9.377,12.2754 C9.52,12.2304 9.66,12.1774 9.796,12.1184 L10.195,13.0344 C10.027,13.1064 9.857,13.1714 9.683,13.2274 L9.377,12.2754 Z M10.5771,11.6797 C10.6991,11.5947 10.8181,11.5027 10.9311,11.4057 L11.5821,12.1647 C11.4431,12.2837 11.2981,12.3947 11.1481,12.4997 L10.5771,11.6797 Z M12.3779,6.9502 C12.3439,6.8042 12.3009,6.6602 12.2519,6.5192 L13.1979,6.1932 C13.2569,6.3652 13.3089,6.5402 13.3519,6.7192 L12.3779,6.9502 Z M11.5488,10.7598 C11.6408,10.6418 11.7268,10.5188 11.8088,10.3908 L12.6508,10.9298 C12.5538,11.0828 12.4468,11.2318 12.3378,11.3738 L11.5488,10.7598 Z M12.4971,7.8379 L13.4971,7.8009 C13.5041,7.9829 13.5011,8.1659 13.4881,8.3509 L12.4901,8.2829 C12.5021,8.1339 12.5031,7.9849 12.4971,7.8379 Z M12.2051,9.5928 C12.2581,9.4538 12.3051,9.3138 12.3441,9.1678 L13.3091,9.4268 C13.2621,9.6048 13.2051,9.7798 13.1411,9.9478 L12.2051,9.5928 Z M12.5,3.5 L9.5,9.55 L3.5,12.5 L6.5,6.5 L12.5,3.5 Z M8,9 C8.553,9 9,8.553 9,8 C9,7.447 8.553,7 8,7 C7.447,7 7,7.447 7,8 C7,8.553 7.447,9 8,9 Z"/></svg>
