<svg xmlns="http://www.w3.org/2000/svg" xlink="http://www.w3.org/1999/xlink" width="12" height="12" viewBox="0 0 12 12"><path d="M6,0 C9.313,0 12,2.687 12,6 C12,9.313 9.313,12 6,12 C2.687,12 0,9.313 0,6 C0,2.687 2.687,0 6,0 Z M6,10.875 C8.688,10.875 10.875,8.688 10.875,6 C10.875,3.312 8.688,1.125 6,1.125 C3.312,1.125 1.125,3.312 1.125,6 C1.125,8.688 3.312,10.875 6,10.875 Z M9,3 L7.5,7.5 L3,9 L4.5,4.5 L9,3 Z M6,7 C6.553,7 7,6.552 7,6 C7,5.448 6.553,5 6,5 C5.447,5 5,5.448 5,6 C5,6.552 5.447,7 6,7 Z M6.0098,9.25 C6.1668,9.249 6.3218,9.238 6.4718,9.216 L6.5438,9.711 C6.3698,9.736 6.1928,9.749 6.0118,9.75 L6.0098,9.25 Z M4.9551,9.603 L5.0961,9.124 C5.2411,9.166 5.3921,9.198 5.5471,9.219 L5.4781,9.714 C5.3001,9.69 5.1241,9.652 4.9551,9.603 Z M6.9229,9.1167 C7.0709,9.0727 7.2169,9.0177 7.3569,8.9537 L7.5659,9.4087 C7.4039,9.4817 7.2369,9.5447 7.0659,9.5957 L6.9229,9.1167 Z M7.7627,8.731 C7.8927,8.648 8.0157,8.555 8.1317,8.454 L8.4597,8.831 C8.3257,8.947 8.1837,9.055 8.0327,9.152 L7.7627,8.731 Z M8.459,8.125 C8.561,8.008 8.652,7.885 8.735,7.755 L9.157,8.024 C9.061,8.175 8.953,8.318 8.836,8.453 L8.459,8.125 Z M8.959,7.3467 C9.022,7.2077 9.077,7.0637 9.12,6.9147 L9.601,7.0547 C9.55,7.2277 9.487,7.3957 9.412,7.5567 L8.959,7.3467 Z M2.291,6.5552 L2.785,6.4802 C2.809,6.6352 2.843,6.7862 2.886,6.9332 L2.407,7.0762 C2.356,6.9072 2.318,6.7332 2.291,6.5552 Z M9.25,6 L9.75,5.958 L9.75,6 C9.75,6.181 9.737,6.359 9.712,6.533 L9.218,6.461 C9.239,6.311 9.25,6.157 9.25,6 Z M2.7803,5.5576 C2.7593,5.7026 2.7503,5.8496 2.7503,5.9996 L2.2503,6.0206 L2.2503,5.9996 C2.2503,5.8266 2.2613,5.6566 2.2843,5.4896 L2.7803,5.5576 Z M9.707,5.4229 L9.213,5.5009 C9.188,5.3469 9.154,5.1949 9.109,5.0489 L9.588,4.9029 C9.639,5.0719 9.679,5.2449 9.707,5.4229 Z M3.0342,4.6694 C2.9712,4.8094 2.9182,4.9544 2.8752,5.1034 L2.3942,4.9664 C2.4432,4.7944 2.5062,4.6264 2.5792,4.4634 L3.0342,4.6694 Z M3.5273,3.8896 C3.4263,4.0066 3.3363,4.1306 3.2533,4.2616 L2.8313,3.9936 C2.9253,3.8436 3.0323,3.7006 3.1483,3.5646 L3.5273,3.8896 Z M4.2217,3.2788 C4.0927,3.3628 3.9697,3.4578 3.8537,3.5598 L3.5237,3.1838 C3.6577,3.0658 3.7997,2.9578 3.9487,2.8608 L4.2217,3.2788 Z M5.0576,2.8882 C4.9086,2.9332 4.7636,2.9892 4.6246,3.0542 L4.4136,2.6002 C4.5746,2.5262 4.7406,2.4622 4.9126,2.4092 L5.0576,2.8882 Z M7.0225,2.3906 L6.8855,2.8716 C6.7395,2.8296 6.5875,2.7986 6.4335,2.7786 L6.4985,2.2826 C6.6775,2.3066 6.8525,2.3426 7.0225,2.3906 Z M5.9707,2.75 C5.8147,2.752 5.6597,2.764 5.5087,2.787 L5.4347,2.292 C5.6077,2.266 5.7847,2.252 5.9647,2.25 L5.9707,2.75 Z"/></svg>
