<svg xmlns="http://www.w3.org/2000/svg" xlink="http://www.w3.org/1999/xlink" width="22" height="22" viewBox="0 0 22 22"><path d="M11,-0.0001 C15.418,-0.0001 19,3.5819 19,7.9999 C19,9.3149 19.025,10.4589 17.924,12.0099 C16.334,14.2499 15,14.3549 15,15.9999 L15,18.7509 C15,19.3559 14.562,19.8369 13.99,19.9509 C13.991,19.9689 14,19.9839 14,20.0009 L14,20.9989 C14,21.5519 13.552,21.9999 12.999,21.9999 L9.001,21.9999 C8.448,21.9999 8,21.5519 8,20.9989 L8,20.0009 C8,19.9839 8.009,19.9689 8.01,19.9509 C7.438,19.8369 7,19.3559 7,18.7509 L7,15.9999 C7,14.3549 5.666,14.2499 4.076,12.0099 C2.975,10.4589 3,9.3149 3,7.9999 C3,3.5819 6.582,-0.0001 11,-0.0001 Z M17.5,8.0879 L17.5,7.9999 C17.5,4.4159 14.584,1.4999 11,1.4999 C7.416,1.4999 4.5,4.4159 4.5,7.9999 L4.5,8.0879 C4.5,9.2889 4.499,10.0149 5.299,11.1419 C5.855,11.9249 6.375,12.4039 6.833,12.8269 C7.436,13.3839 8.095,14.0009 8.367,14.9999 L13.633,14.9999 C13.905,14.0009 14.564,13.3839 15.167,12.8269 C15.625,12.4039 16.145,11.9249 16.701,11.1419 C17.501,10.0149 17.5,9.2889 17.5,8.0879 Z M11,3 C11.276,3 11.5,3.224 11.5,3.5 C11.5,3.776 11.276,4 11,4 C8.794,4 7,5.794 7,8 C7,8.276 6.776,8.5 6.5,8.5 C6.224,8.5 6,8.276 6,8 C6,5.243 8.243,3 11,3 Z"/></svg>
