<svg xmlns="http://www.w3.org/2000/svg" xlink="http://www.w3.org/1999/xlink" width="16" height="16" viewBox="0 0 16 16"><path d="M7.9999,0 C11.3089,0 13.9999,2.691 13.9999,6 C13.9999,6.741 13.8659,7.466 13.6009,8.157 C13.2489,9.04 12.6559,9.559 12.1329,10.017 C11.4759,10.593 10.9999,11.009 10.9999,12 L10.9999,14.147 C10.9999,14.618 10.6169,15 10.1469,15 L9.9999,15 L9.9999,15.403 C9.9999,15.732 9.7319,16 9.4029,16 L6.5969,16 C6.2679,16 5.9999,15.732 5.9999,15.403 L5.9999,15 L5.8539,15 C5.3829,15 4.9999,14.618 4.9999,14.147 L4.9999,12 C4.9999,11.009 4.5239,10.593 3.8669,10.017 C3.3439,9.559 2.7509,9.04 2.3979,8.152 C2.1339,7.466 1.9999,6.741 1.9999,6 C1.9999,2.691 4.6909,0 7.9999,0 Z M12.6689,7.793 C12.8889,7.222 12.9999,6.618 12.9999,6 C12.9999,3.243 10.7569,1 7.9999,1 C5.2429,1 2.9999,3.243 2.9999,6 C2.9999,6.618 3.1109,7.222 3.3289,7.788 C3.5909,8.446 4.0449,8.844 4.5259,9.265 C5.0299,9.706 5.5649,10.209 5.8269,11 L10.1729,11 C10.4359,10.209 10.9699,9.706 11.4739,9.265 C11.9549,8.844 12.4089,8.446 12.6689,7.793 Z M8,2.125 C8.207,2.125 8.375,2.293 8.375,2.5 C8.375,2.707 8.207,2.875 8,2.875 C6.277,2.875 4.875,4.277 4.875,6 C4.875,6.207 4.707,6.375 4.5,6.375 C4.293,6.375 4.125,6.207 4.125,6 C4.125,3.863 5.863,2.125 8,2.125 Z"/></svg>
