<svg xmlns="http://www.w3.org/2000/svg" xlink="http://www.w3.org/1999/xlink" width="12" height="12" viewBox="0 0 12 12"><path d="M5.5002,0.0003 C7.9852,0.0003 10.0002,2.0143 10.0002,4.5003 C10.0002,5.6863 9.2652,6.7223 8.1652,7.3863 C7.7502,7.6373 7.7502,8.0683 7.7502,9.0003 L7.7502,10.3543 C7.7502,10.7113 7.4612,11.0003 7.1032,11.0003 L6.6252,11.0003 L6.6252,11.5003 C6.6252,11.7763 6.4002,12.0003 6.1252,12.0003 L4.8752,12.0003 C4.5992,12.0003 4.3752,11.7763 4.3752,11.5003 L4.3752,11.0003 L3.8962,11.0003 C3.5392,11.0003 3.2502,10.7113 3.2502,10.3543 L3.2502,9.0003 C3.2502,8.0683 3.2502,7.6373 2.8352,7.3863 C1.7342,6.7223 1.0002,5.6863 1.0002,4.5003 C1.0002,2.0143 3.0142,0.0003 5.5002,0.0003 Z M7.8232,6.8213 C8.7872,6.2393 9.3402,5.3933 9.3402,4.5003 C9.3402,2.3833 7.6172,0.6603 5.5002,0.6603 C3.3832,0.6603 1.6602,2.3833 1.6602,4.5003 C1.6602,5.3933 2.2132,6.2393 3.1762,6.8213 C3.6372,7.1003 3.8022,7.4973 3.8672,8.0003 L7.1332,8.0003 C7.1972,7.4973 7.3622,7.1003 7.8232,6.8213 Z M5.5,1.7949 C5.683,1.7949 5.83,1.9429 5.83,2.1249 C5.83,2.3069 5.683,2.4549 5.5,2.4549 C4.372,2.4549 3.455,3.3729 3.455,4.4999 C3.455,4.6819 3.308,4.8299 3.125,4.8299 C2.942,4.8299 2.795,4.6819 2.795,4.4999 C2.795,3.0079 4.009,1.7949 5.5,1.7949 Z"/></svg>
