<svg xmlns="http://www.w3.org/2000/svg" width="24" height="24" viewBox="0 0 24 24"><path d="M17.369 3.267a.388.388 0 0 0-.738 0l-.756 2.299a.485.485 0 0 1-.31.31l-2.298.755a.388.388 0 0 0 0 .738l2.299.756a.485.485 0 0 1 .31.31l.755 2.298c.117.356.62.356.738 0l.756-2.299a.485.485 0 0 1 .31-.31l2.298-.755a.388.388 0 0 0 0-.738l-2.299-.756a.485.485 0 0 1-.31-.31l-.755-2.298ZM9.873 9.27a.393.393 0 0 0-.746 0l-1.295 3.936a.982.982 0 0 1-.626.626L3.27 15.127a.393.393 0 0 0 0 .746l3.936 1.295c.297.097.529.33.626.626l1.295 3.936c.118.36.628.36.746 0l1.295-3.936a.982.982 0 0 1 .626-.626l3.936-1.295a.393.393 0 0 0 0-.746l-3.936-1.295a.982.982 0 0 1-.626-.626L9.873 9.27Z"/></svg>