<svg xmlns="http://www.w3.org/2000/svg" width="16" height="16" viewBox="0 0 16 16"><path d="M12.365 1.264a.385.385 0 0 0-.73 0l-.511 1.553a.48.48 0 0 1-.307.307l-1.553.51a.385.385 0 0 0 0 .731l1.553.511a.48.48 0 0 1 .307.307l.51 1.553a.385.385 0 0 0 .731 0l.511-1.553a.48.48 0 0 1 .307-.307l1.553-.51a.385.385 0 0 0 0-.731l-1.553-.511a.48.48 0 0 1-.307-.307l-.51-1.553ZM6.371 5.269a.39.39 0 0 0-.742 0L4.704 8.08a.977.977 0 0 1-.623.623l-2.812.925a.39.39 0 0 0 0 .742l2.812.925a.977.977 0 0 1 .623.623l.925 2.812a.39.39 0 0 0 .742 0l.925-2.812a.977.977 0 0 1 .623-.623l2.812-.925a.39.39 0 0 0 0-.742L7.92 8.704a.977.977 0 0 1-.623-.623L6.371 5.27Z"/></svg>