<svg xmlns="http://www.w3.org/2000/svg" xlink="http://www.w3.org/1999/xlink" width="22" height="22" viewBox="0 0 22 22"><path d="M21.5029,8 L11.4969,8 C11.2229,8 10.9999,7.777 10.9999,7.503 L10.9999,5.497 C10.9999,5.223 11.2229,5 11.4969,5 L21.5029,5 C21.7769,5 21.9999,5.223 21.9999,5.497 L21.9999,7.503 C21.9999,7.777 21.7769,8 21.5029,8 Z M4.0088,9.9126 L1.0868,6.9916 C0.9708,6.8746 0.9708,6.6856 1.0868,6.5696 L2.3078,5.3506 C2.4238,5.2336 2.6128,5.2336 2.7288,5.3506 L4.2198,6.8416 L7.9738,3.0876 C8.0898,2.9706 8.2798,2.9706 8.3958,3.0876 L9.6148,4.3066 C9.7318,4.4226 9.7318,4.6116 9.6148,4.7276 L4.4308,9.9126 C4.3148,10.0296 4.1248,10.0296 4.0088,9.9126 Z M21.5029,17 L11.4969,17 C11.2229,17 10.9999,16.777 10.9999,16.502 L10.9999,14.497 C10.9999,14.223 11.2229,14 11.4969,14 L21.5029,14 C21.7769,14 21.9999,14.223 21.9999,14.497 L21.9999,16.502 C21.9999,16.777 21.7769,17 21.5029,17 Z M4.0088,18.9126 L1.0868,15.9916 C0.9708,15.8746 0.9708,15.6856 1.0868,15.5696 L2.3078,14.3506 C2.4238,14.2336 2.6128,14.2336 2.7288,14.3506 L4.2198,15.8416 L7.9738,12.0876 C8.0898,11.9706 8.2798,11.9706 8.3958,12.0876 L9.6148,13.3066 C9.7318,13.4226 9.7318,13.6116 9.6148,13.7276 L4.4308,18.9126 C4.3148,19.0296 4.1248,19.0296 4.0088,18.9126 Z"/></svg>
