<svg width="16" height="16" viewBox="0 0 16 16" xmlns="http://www.w3.org/2000/svg"><path d="M4.685 1.293a.992.992 0 0 0-1.408 0L1.991 2.586l-.292-.293a.992.992 0 0 0-1.407 0 1.003 1.003 0 0 0 0 1.414l.995 1a.992.992 0 0 0 1.407 0l1.991-2a1.003 1.003 0 0 0 0-1.414Zm0 5a.992.992 0 0 0-1.408 0L1.991 7.586l-.292-.293a.992.992 0 0 0-1.407 0 1.003 1.003 0 0 0 0 1.414l.995 1a.992.992 0 0 0 1.407 0l1.991-2a1.003 1.003 0 0 0 0-1.414Zm-1.408 5a.992.992 0 0 1 1.408 0c.389.39.389 1.024 0 1.414l-1.99 2a.992.992 0 0 1-1.408 0l-.995-1a1.003 1.003 0 0 1 0-1.414.992.992 0 0 1 1.407 0l.292.293 1.286-1.293ZM7.037 2a.998.998 0 0 0-.995 1c0 .552.446 1 .995 1h6.968c.55 0 .995-.448.995-1s-.446-1-.995-1H7.037Zm0 5a.998.998 0 0 0-.995 1c0 .552.446 1 .995 1h6.968c.55 0 .995-.448.995-1s-.446-1-.995-1H7.037Zm-.995 6c0-.552.446-1 .995-1h6.968c.55 0 .995.448.995 1s-.446 1-.995 1H7.037a.998.998 0 0 1-.995-1Z"/></svg>