<svg xmlns="http://www.w3.org/2000/svg" xlink="http://www.w3.org/1999/xlink" width="12" height="12" viewBox="0 0 12 12"><path d="M12,9.5 C12,9.775 11.775,10 11.5,10 L7.5,10 C7.225,10 7,9.775 7,9.5 L7,8.5 C7,8.225 7.225,8 7.5,8 L11.5,8 C11.775,8 12,8.225 12,8.5 L12,9.5 Z M12,4.5 C12,4.775 11.775,5 11.5,5 L7.5,5 C7.225,5 7,4.775 7,4.5 L7,3.5 C7,3.225 7.225,3 7.5,3 L11.5,3 C11.775,3 12,3.225 12,3.5 L12,4.5 Z M5.019,6 L6.151,7.131 L2.283,11 L0,8.716 L1.132,7.585 L2.283,8.736 L2.283,8.737 L5.019,6 Z M5.019,1 L6.151,2.131 L2.283,6 L0,3.716 L1.132,2.585 L2.283,3.736 L2.283,3.737 L5.019,1 Z"/></svg>
