<svg xmlns="http://www.w3.org/2000/svg" width="24" height="24" fill="none" viewBox="0 0 24 24">
  <path fill="#4DBDEB" d="M24 9.3h-7.719v.773c-.734-1.056-2.048-1.76-3.554-1.76-1.644 0-3.059.838-3.74 2.058V9.292H6.622l-2.102 2.93-2.527-2.93H.014L0 14.713h1.873l.018-2.614 2.47 2.826h.46l2.28-2.826.025 2.614h1.861v-1.063c.682 1.22 2.097 2.058 3.74 2.058 2.31 0 4.176-1.653 4.176-3.698 0-.284-.04-.56-.108-.826h2.488l-3.518 3.536h7.84v-1.772h-3.136L24 9.3Zm-11.273 4.33c-1.019 0-1.84-.728-1.84-1.63 0-.902.821-1.63 1.84-1.63 1.02 0 1.84.728 1.84 1.63 0 .902-.82 1.63-1.84 1.63Z"/>
</svg>
