<svg xmlns="http://www.w3.org/2000/svg" width="16" height="16" fill="none" viewBox="0 0 16 16">
  <path fill="#4DBDEB" d="M16 6.203h-5.146v.516c-.49-.704-1.365-1.174-2.37-1.174-1.095 0-2.039.56-2.493 1.372v-.719H4.415L3.014 8.152 1.329 6.198H.01L0 9.811h1.249l.012-1.743 1.647 1.885h.306l1.52-1.885.016 1.743h1.242v-.708c.454.813 1.397 1.372 2.493 1.372 1.54 0 2.783-1.102 2.783-2.465 0-.19-.026-.374-.071-.551h1.659L10.51 9.816h5.226V8.635h-2.09L16 6.203ZM8.485 9.09c-.68 0-1.227-.484-1.227-1.086 0-.601.547-1.086 1.227-1.086s1.226.485 1.226 1.086c0 .602-.547 1.086-1.226 1.086Z"/>
</svg>
