<svg width="16" height="16" viewBox="0 0 16 16" xmlns="http://www.w3.org/2000/svg"><path fill-rule="evenodd" clip-rule="evenodd" d="M2 5.978H1c-.552 0-1-.449-1-1.002V2.883c0-.453.304-.85.741-.968l7-1.88a.998.998 0 0 1 .518 0l7 1.88c.437.118.741.515.741.968v2.093c0 .553-.448 1.002-1 1.002h-1v5.01h1c.552 0 1 .45 1 1.003v3.007C16 15.55 15.552 16 15 16H1c-.552 0-1-.449-1-1.002V11.99c0-.553.448-1.002 1-1.002h1v-5.01ZM8 2.04l6 1.612v.321H2v-.32L8 2.04ZM4 5.978v5.01h1v-5.01H4Zm3 0v5.01h2v-5.01H7Zm4 0v5.01h1v-5.01h-1Zm-9 7.015h12v1.003H2v-1.003Z"/></svg>