<svg xmlns="http://www.w3.org/2000/svg" xlink="http://www.w3.org/1999/xlink" width="22" height="22" viewBox="0 0 22 22"><path d="M8.642,12.819 C7.449,11.057 6,8.585 6,6.114 C6,3.273 8.244,1 11,1 C13.756,1 16,3.273 16,6.114 C16,8.585 14.551,11.057 13.358,12.818 C12.364,14.267 11.597,15.545 11,15.545 C10.403,15.545 9.636,14.267 8.642,12.819 Z M11,4 C9.896,4 9,4.895 9,6 C9,7.105 9.896,8 11,8 C12.104,8 13,7.105 13,6 C13,4.895 12.104,4 11,4 Z M20.5254,4.1489 C20.8204,4.3319 21.0004,4.6529 21.0004,4.9999 L21.0004,16.9999 C21.0004,17.3789 20.7864,17.7249 20.4484,17.8939 L14.4484,20.8939 C14.1664,21.0349 13.8344,21.0349 13.5524,20.8939 L8.0004,18.1179 L2.4474,20.8949 C2.3054,20.9649 2.1534,20.9999 2.0004,20.9999 C1.8174,20.9999 1.6344,20.9499 1.4744,20.8509 C1.1794,20.6679 1.0004,20.3469 1.0004,19.9999 L1.0004,7.9999 C1.0004,7.6209 1.2134,7.2749 1.5524,7.1059 L4.0004,5.8819 L4.0004,8.1179 L3.0004,8.6179 L3.0004,18.3819 L7.5524,16.1049 C7.6934,16.0349 7.8464,15.9999 8.0004,15.9999 C8.1534,15.9999 8.3064,16.0349 8.4474,16.1059 L14.0004,18.8819 L19.0004,16.3819 L19.0004,6.6179 L18.0004,7.1189 L18.0004,4.8809 L19.5514,4.1049 C19.8624,3.9509 20.2304,3.9659 20.5254,4.1489 Z"/></svg>
