<svg xmlns="http://www.w3.org/2000/svg" xlink="http://www.w3.org/1999/xlink" width="16" height="16" viewBox="0 0 16 16"><path d="M8.547,10.717 C8.277,11.094 7.723,11.094 7.453,10.717 C6.358,9.182 4,5.679 4,3.988 C4,1.786 5.791,0 8,0 C10.209,0 12,1.786 12,3.988 C12,5.679 9.642,9.182 8.547,10.717 Z M6,4 C6,5.104 6.896,6 8,6 C9.104,6 10,5.104 10,4 C10,2.896 9.104,2 8,2 C6.896,2 6,2.896 6,4 Z M14.5254,2.1494 C14.8204,2.3314 15.0004,2.6534 15.0004,3.0004 L15.0004,12.0004 C15.0004,12.3784 14.7864,12.7254 14.4474,12.8944 L10.4474,14.8944 C10.1664,15.0354 9.8344,15.0354 9.5524,14.8944 L6.0004,13.1184 L2.4474,14.8944 C2.3054,14.9644 2.1534,15.0004 2.0004,15.0004 C1.8174,15.0004 1.6344,14.9494 1.4744,14.8504 C1.1794,14.6684 1.0004,14.3464 1.0004,14.0004 L1.0004,5.0004 C1.0004,4.6214 1.2134,4.2744 1.5524,4.1054 L3.0004,3.3814 L3.0004,12.3814 L5.5524,11.1054 C5.6934,11.0354 5.8464,11.0004 6.0004,11.0004 C6.1534,11.0004 6.3064,11.0354 6.4474,11.1054 L10.0004,12.8814 L13.0004,11.3814 L13.0004,2.3814 L13.5524,2.1054 C13.8624,1.9504 14.2304,1.9674 14.5254,2.1494 Z"/></svg>
