<svg xmlns="http://www.w3.org/2000/svg" xlink="http://www.w3.org/1999/xlink" width="12" height="12" viewBox="0 0 12 12"><path d="M6,8.7268 C5.643,8.7268 5.182,7.9598 4.586,7.0908 C3.869,6.0338 3,4.5508 3,3.0688 C3,1.3638 4.347,-0.0002 6,-0.0002 C7.653,-0.0002 9,1.3638 9,3.0688 C9,4.5508 8.131,6.0338 7.415,7.0908 C6.818,7.9598 6.357,8.7268 6,8.7268 Z M6,1.7998 C5.338,1.7998 4.8,2.3378 4.8,2.9998 C4.8,3.6628 5.338,4.1998 6,4.1998 C6.662,4.1998 7.2,3.6628 7.2,2.9998 C7.2,2.3378 6.662,1.7998 6,1.7998 Z M11.751,2.0674 C11.905,2.1574 12,2.3214 12,2.5004 L12,9.5004 C12,9.6794 11.904,9.8454 11.748,9.9344 L8.248,11.9344 C8.103,12.0174 7.926,12.0224 7.776,11.9474 L4.016,10.0674 L0.748,11.9344 C0.671,11.9784 0.586,12.0004 0.5,12.0004 C0.413,12.0004 0.326,11.9774 0.249,11.9324 C0.095,11.8424 0,11.6784 0,11.5004 L0,4.5004 C0,4.3204 0.096,4.1544 0.252,4.0664 L2,3.0674 L2,4.2184 L1,4.7904 L1,10.6384 L3.752,9.0664 C3.829,9.0224 3.914,9.0004 4,9.0004 C4.076,9.0004 4.153,9.0174 4.224,9.0524 L7.984,10.9334 L11,9.2104 L11,3.3614 L10,3.9334 L10,2.7814 L11.252,2.0664 C11.407,1.9784 11.598,1.9784 11.751,2.0674 Z"/></svg>
