<svg xmlns="http://www.w3.org/2000/svg" xlink="http://www.w3.org/1999/xlink" width="44" height="44" viewBox="0 0 44 44"><path d="M39.4002,9.6998 L33.3002,3.5998 C32.9002,3.1998 32.4002,2.9998 31.9002,2.9998 C31.4002,2.9998 30.9002,3.1998 30.5002,3.5998 L5.0002,28.9998 L3.0002,39.9998 L14.0002,37.9998 L39.4002,12.4998 C40.2002,11.7998 40.2002,10.4998 39.4002,9.6998 L39.4002,9.6998 Z M13.0002,36.0998 L8.2002,37.1998 L5.7002,34.6998 L6.9002,29.9998 L8.2002,28.6998 L14.4002,34.9008 L13.0002,36.0998 Z M26.9002,9.8998 L33.0002,15.9998 L15.7002,33.4998 L9.5002,27.2998 L26.9002,9.8998 Z M35.0992,14.0998 L29.0002,7.9998 L31.9002,4.9998 L38.0002,11.0998 L35.0992,14.0998 Z M26.7002,14.2998 C27.0992,14.6998 27.0992,15.2998 26.7002,15.6998 L14.7002,27.6998 C14.5002,27.9008 14.2002,27.9998 14.0002,27.9998 C13.8002,27.9998 13.5002,27.9008 13.3002,27.6998 C12.9002,27.2998 12.9002,26.6998 13.3002,26.2998 L25.3002,14.2998 C25.7002,13.8998 26.3002,13.8998 26.7002,14.2998 Z"/></svg>
