<svg xmlns="http://www.w3.org/2000/svg" xlink="http://www.w3.org/1999/xlink" width="22" height="22" viewBox="0 0 22 22"><path d="M1.9004,21 C2.0004,21 2.0994,21 2.2004,20.9 L8.0004,19 L17.2994,9.7 L12.2994,4.7 L3.0004,14 L1.0994,19.8 C1.0004,19.9 1.0004,20 1.0004,20.1 C1.0004,20.6 1.4004,21 1.9004,21 L1.9004,21 Z M4.5994,18.6 L3.5004,17.5 L4.4004,14.9 L7.2994,17.8 L4.5994,18.6 Z M18.7004,8.3 L20.5994,6.4 C20.9004,6.1 21.0004,5.8 21.0004,5.5 C21.0004,5.2 20.9004,4.9 20.7004,4.7 L17.4004,1.4 C17.0994,1.1 16.7994,1 16.5004,1 C16.2004,1 15.9004,1.1 15.7004,1.3 L13.7994,3.2 L18.7004,8.3 Z"/></svg>
