<svg xmlns="http://www.w3.org/2000/svg" width="24" height="24" fill="none" viewBox="0 0 24 24">
  <path fill="#81C995" d="M17.785 9.611a2.762 2.762 0 0 1 3.78.92 2.723 2.723 0 0 1-1.028 3.815l-14.34 8.203a2.763 2.763 0 0 1-3.78-.919 2.724 2.724 0 0 1 1.028-3.817l14.34-8.202Z"/>
  <path fill="#34A853" d="M7.482 3.761A2.739 2.739 0 0 0 4.747 1.02c-.195 0-.39.02-.581.059A2.828 2.828 0 0 0 2 3.861v16.293l5.477.098.005-16.49Z"/>
  <path fill="#5BB974" d="M17.847 14.356a2.892 2.892 0 0 0 3.757-1.007 2.701 2.701 0 0 0-.98-3.732L6.188 1.399a2.73 2.73 0 0 0-3.791 1.012 2.712 2.712 0 0 0 .982 3.722l.028.015 14.439 8.208Z"/>
  <path fill="#81C995" d="M20.529 14.375 7.478 21.617v-6.22l10.355-5.738a2.852 2.852 0 0 1 4.046 1.497 2.723 2.723 0 0 1-1.35 3.219Z"/>
  <path fill="#1E8E3E" d="M4.744 23.01a2.73 2.73 0 0 0 2.738-2.72 2.73 2.73 0 0 0-2.738-2.72 2.73 2.73 0 0 0-2.738 2.72 2.73 2.73 0 0 0 2.738 2.72Z"/>
</svg>
