<svg xmlns="http://www.w3.org/2000/svg" width="16" height="16" fill="none" viewBox="0 0 16 16">
  <path fill="#81C995" d="M12.05 6.265c.91-.57 2.094-.27 2.646.668.552.94.262 2.162-.647 2.732l-.073.043-10.037 5.966c-.91.57-2.095.27-2.648-.668-.552-.94-.262-2.162.648-2.732l.073-.044L12.05 6.265Z"/>
  <path fill="#34A853" d="M4.837 2.01C4.842.916 3.985.023 2.923.018c-.137 0-.273.014-.407.043C1.616.288.988 1.126 1 2.083v11.85l3.834.071.003-11.993Z"/>
  <path fill="#5BB974" d="M12.093 9.716c.928.496 2.07.178 2.63-.732.539-.936.24-2.146-.666-2.702a.34.34 0 0 1-.02-.013L3.931.293c-.9-.56-2.07-.263-2.614.666a2.504 2.504 0 0 0-.04.07c-.533.943-.225 2.155.688 2.707l.02.01 10.107 5.97Z"/>
  <path fill="#81C995" d="m13.97 9.73-9.136 5.267v-4.525l7.25-4.172c.96-.55 2.171-.191 2.704.801.05.093.092.189.127.288.272.912-.125 1.896-.945 2.34Z"/>
  <path fill="#1E8E3E" d="M2.92 16.01c1.06 0 1.918-.886 1.918-1.979 0-1.092-.859-1.978-1.917-1.978-1.059 0-1.917.886-1.917 1.978 0 1.093.858 1.979 1.917 1.979Z"/>
</svg>
