<svg xmlns="http://www.w3.org/2000/svg" xlink="http://www.w3.org/1999/xlink" width="16" height="16" viewBox="0 0 16 16"><path d="M0.498,4 C0.223,4 0,3.777 0,3.502 L0,2.498 C0,2.223 0.223,2 0.498,2 L12.502,2 C12.777,2 13,2.223 13,2.498 L13,3.502 C13,3.777 12.777,4 12.502,4 L0.498,4 Z M0.498,8 C0.223,8 0,7.777 0,7.502 L0,6.498 C0,6.223 0.223,6 0.498,6 L8.502,6 C8.777,6 9,6.223 9,6.498 L9,7.502 C9,7.777 8.777,8 8.502,8 L0.498,8 Z M5.502,10 C5.777,10 6,10.223 6,10.498 L6,11.502 C6,11.777 5.777,12 5.502,12 L0.498,12 C0.223,12 0,11.777 0,11.502 L0,10.498 C0,10.223 0.223,10 0.498,10 L5.502,10 Z M16,10 L16,12 L13,12 L13,15 L11,15 L11,12 L8,12 L8,10 L11,10 L11,7 L13,7 L13,10 L16,10 Z"/></svg>
