<svg xmlns="http://www.w3.org/2000/svg" xlink="http://www.w3.org/1999/xlink" width="12" height="12" viewBox="0 0 12 12"><path d="M4.5,7 C4.775,7 5,7.225 5,7.5 L5,8.5 C5,8.775 4.775,9 4.5,9 L0.5,9 C0.225,9 0,8.775 0,8.5 L0,7.5 C0,7.225 0.225,7 0.5,7 L4.5,7 Z M0.5,6 C0.225,6 0,5.775 0,5.5 L0,4.5 C0,4.225 0.225,4 0.5,4 L6.5,4 C6.775,4 7,4.225 7,4.5 L7,5.5 C7,5.775 6.775,6 6.5,6 L0.5,6 Z M0.5,3 C0.225,3 0,2.775 0,2.5 L0,1.5 C0,1.225 0.225,1 0.5,1 L9.5,1 C9.775,1 10,1.225 10,1.5 L10,2.5 C10,2.775 9.775,3 9.5,3 L0.5,3 Z M10,7 L12,7 L12,9 L10,9 L10,11 L8,11 L8,9 L6,9 L6,7 L8,7 L8,5 L10,5 L10,7 Z"/></svg>
