<svg width="16" height="16" viewBox="0 0 16 16" xmlns="http://www.w3.org/2000/svg"><path d="M16 1.501a1.501 1.501 0 1 1-3.002 0 1.501 1.501 0 0 1 3.002 0ZM8.997 5.004a2.001 2.001 0 1 0 0-4.002 2.001 2.001 0 0 0 0 4.002Z"/><path fill-rule="evenodd" clip-rule="evenodd" d="m5.596 4.292 6.125 6.174c.51.513.322 1.381-.353 1.64L1.36 15.932c-.81.31-1.604-.489-1.29-1.298l3.883-10a1 1 0 0 1 1.643-.342ZM5.26 6.795 4.245 9.41l4.121 1.639c.026.01.05.02.075.033l.777-.297-3.958-3.99Zm-2.508 6.462.769-1.98 2.162.859-2.931 1.12Z"/><path d="M11.998 8.007a1 1 0 1 0-.001-2.001 1 1 0 0 0 0 2Z"/></svg>