<svg xmlns="http://www.w3.org/2000/svg" width="24" height="24" viewBox="0 0 24 24">
  <path d="M10.093 6.464C7.329 5.702 6.798 5.17 6.035 2.407a.555.555 0 0 0-1.07 0C4.202 5.17 3.67 5.702.907 6.464a.555.555 0 0 0 0 1.072c2.764.763 3.295 1.294 4.058 4.057a.555.555 0 0 0 1.07 0c.763-2.764 1.294-3.295 4.058-4.057a.556.556 0 0 0 0-1.072ZM22.93 12.25c-3.869-1.068-4.613-1.811-5.68-5.68a.778.778 0 0 0-1.5 0c-1.067 3.868-1.81 4.613-5.68 5.68a.778.778 0 0 0 0 1.5c3.869 1.069 4.613 1.811 5.68 5.68a.778.778 0 0 0 1.5 0c1.067-3.87 1.81-4.613 5.68-5.68a.778.778 0 0 0 0-1.5ZM9 18.379l-2.44-2.44a1.5 1.5 0 0 0-2.12 0l-4 4a1.5 1.5 0 0 0 2.12 2.122l2.94-2.94 2.44 2.44a1.5 1.5 0 0 0 2.12 0l2.5-2.5a1.5 1.5 0 0 0-2.12-2.122L9 18.38Z" />
</svg>