<svg xmlns="http://www.w3.org/2000/svg" xlink="http://www.w3.org/1999/xlink" width="44" height="44" viewBox="0 0 44 44"><path d="M20.4748,29.1792 C20.4318,30.5292 19.9108,31.8662 18.8838,32.8922 L15.3838,36.3922 C13.2388,38.5372 9.7488,38.5352 7.6048,36.3922 C5.4608,34.2472 5.4608,30.7572 7.6048,28.6142 L11.1048,25.1142 C12.1318,24.0862 13.4698,23.5662 14.8188,23.5232 L17.4678,20.8732 C14.5618,19.9952 11.2768,20.7002 8.9848,22.9922 L5.4848,26.4912 C2.1718,29.8052 2.1718,35.1992 5.4848,38.5122 C7.1408,40.1712 9.3178,40.9992 11.4948,40.9992 C13.6718,40.9992 15.8488,40.1712 17.5058,38.5142 L21.0058,35.0142 C23.2968,32.7222 24.0018,29.4382 23.1238,26.5332 L20.4748,29.1792 Z M12.5848,31.4132 C12.9758,31.8042 13.4868,31.9992 13.9988,31.9992 C14.5108,31.9992 15.0218,31.8042 15.4128,31.4132 L31.4128,15.4132 C32.1938,14.6322 32.1938,13.3662 31.4128,12.5852 C30.6318,11.8042 29.3658,11.8042 28.5848,12.5852 L12.5848,28.5852 C11.8038,29.3662 11.8038,30.6322 12.5848,31.4132 L12.5848,31.4132 Z M38.5138,5.4852 C35.1998,2.1712 29.8068,2.1712 26.4928,5.4852 L22.9928,8.9852 C20.7018,11.2772 19.9968,14.5622 20.8748,17.4672 L23.5228,14.8192 C23.5658,13.4712 24.0868,12.1332 25.1138,11.1062 L28.6138,7.6062 C29.6848,6.5342 31.0948,5.9992 32.5028,5.9992 C33.9108,5.9992 35.3198,6.5352 36.3918,7.6062 C38.5368,9.7512 38.5368,13.2412 36.3918,15.3862 L32.8918,18.8862 C31.8648,19.9132 30.5278,20.4332 29.1788,20.4762 L26.5308,23.1242 C27.3358,23.3672 28.1698,23.4922 29.0038,23.4922 C31.1808,23.4922 33.3578,22.6632 35.0148,21.0062 L38.5148,17.5062 C41.8268,14.1922 41.8268,8.7992 38.5138,5.4852 L38.5138,5.4852 Z"/></svg>
