<svg xmlns="http://www.w3.org/2000/svg" xlink="http://www.w3.org/1999/xlink" width="22" height="22" viewBox="0 0 22 22"><path d="M9.9648,14.8638 L11.7498,13.0778 C11.9018,13.5318 11.9998,14.0068 11.9998,14.4998 C11.9998,15.7018 11.5308,16.8318 10.6818,17.6818 L7.6818,20.6818 C6.8318,21.5308 5.7018,21.9998 4.4998,21.9998 C3.2978,21.9998 2.1668,21.5318 1.3188,20.6818 C0.4688,19.8318 -0.0002,18.7018 -0.0002,17.4998 C-0.0002,16.2978 0.4678,15.1678 1.3188,14.3178 L4.3188,11.3178 C5.1678,10.4688 6.2978,9.9998 7.4998,9.9998 C7.9928,9.9998 8.4678,10.0978 8.9218,10.2488 L7.1358,12.0348 C6.6078,12.1118 6.1168,12.3468 5.7328,12.7318 L2.7328,15.7318 C2.2598,16.2048 1.9998,16.8318 1.9998,17.4998 C1.9998,18.1678 2.2598,18.7948 2.7338,19.2678 C3.6778,20.2128 5.3228,20.2128 6.2678,19.2678 L9.2678,16.2678 C9.6528,15.8828 9.8878,15.3928 9.9648,14.8638 Z M5.7928,16.2068 C5.4028,15.8158 5.4028,15.1838 5.7928,14.7928 L14.7928,5.7928 C15.1838,5.4018 15.8168,5.4018 16.2068,5.7928 C16.5978,6.1838 16.5978,6.8158 16.2068,7.2068 L7.2068,16.2068 C7.0118,16.4018 6.7558,16.4998 6.4998,16.4998 C6.2438,16.4998 5.9878,16.4018 5.7928,16.2068 Z M20.6818,1.3178 C21.5308,2.1678 21.9998,3.2978 21.9998,4.4998 C21.9998,5.7018 21.5308,6.8318 20.6818,7.6818 L17.6818,10.6818 C16.8318,11.5308 15.7018,11.9998 14.4998,11.9998 C14.0068,11.9998 13.5318,11.9018 13.0778,11.7508 L14.8878,9.9408 C15.4008,9.8658 15.8898,9.6458 16.2678,9.2678 L19.2678,6.2678 C19.7398,5.7948 19.9998,5.1678 19.9998,4.4998 C19.9998,3.8318 19.7408,3.2038 19.2678,2.7318 C18.7948,2.2598 18.1678,1.9998 17.4998,1.9998 C16.8318,1.9998 16.2048,2.2598 15.7338,2.7318 L12.7338,5.7318 C12.3478,6.1168 12.1128,6.6068 12.0358,7.1358 L10.2498,8.9218 C10.0978,8.4678 9.9998,7.9928 9.9998,7.4998 C9.9998,6.2978 10.4678,5.1678 11.3188,4.3178 L14.3188,1.3178 C15.1678,0.4688 16.2978,-0.0002 17.4998,-0.0002 C18.7018,-0.0002 19.8318,0.4688 20.6818,1.3178 Z"/></svg>
