<svg xmlns="http://www.w3.org/2000/svg" xlink="http://www.w3.org/1999/xlink" width="16" height="16" viewBox="0 0 16 16"><path d="M8,10.2002 L8.8,9.3002 C8.9,9.7002 9,10.1002 9,10.5002 C9,11.5002 8.7,12.3002 8,13.0002 L6,15.0002 C5.3,15.6002 4.5,16.0002 3.5,16.0002 C2.5,16.0002 1.7,15.7002 1,15.0002 C0.4,14.3002 0,13.5002 0,12.5002 C0,11.5002 0.3,10.7002 1,10.0002 L3,8.0002 C3.7,7.3002 4.6,7.0002 5.5,7.0002 C5.9,7.0002 6.3,7.1002 6.7,7.2002 L5.9,8.0002 L5.5,8.0002 C4.8,8.0002 4.2,8.2002 3.7,8.7002 L1.7,10.7002 C1.3,11.2002 1,11.8002 1,12.5002 C1,13.2002 1.3,13.8002 1.7,14.3002 C2.2,14.8002 2.9,15.0002 3.5,15.0002 C4.1,15.0002 4.8,14.7002 5.3,14.3002 L7.3,12.3002 C7.7,11.8002 8,11.2002 8,10.5002 L8,10.2002 Z M3.5,12.5 C3.2,12.2 3.2,11.8 3.4,11.4 L11.4,3.4 C11.7,3.1 12.2,3.1 12.5,3.4 C12.8,3.7 12.8,4.2 12.5,4.5 L4.5,12.5 C4.4,12.6 4.2,12.7 4,12.7 C3.8,12.7 3.6,12.6 3.5,12.5 Z M15,1 C15.6,1.7 16,2.5 16,3.5 C16,4.5 15.7,5.3 15,6 L13,8 C12.3,8.6 11.4,9 10.5,9 C10.1,9 9.7,8.9 9.3,8.8 L10.2,8 L10.5,8 C11.1,8 11.8,7.7 12.3,7.3 L14.3,5.3 C14.7,4.8 15,4.2 15,3.5 C15,2.8 14.7,2.2 14.3,1.7 C13.8,1.3 13.2,1 12.5,1 C11.8,1 11.2,1.2 10.7,1.6 L8.7,3.6 C8.3,4.1 8,4.7 8,5.4 L8,5.8 L7.2,6.7 C7.1,6.3 7,5.9 7,5.5 C7,4.5 7.4,3.7 8,3 L10,1 C10.7,0.3 11.6,0 12.5,0 C13.4,0 14.3,0.3 15,1 Z"/></svg>
