<svg xmlns="http://www.w3.org/2000/svg" xlink="http://www.w3.org/1999/xlink" width="12" height="12" viewBox="0 0 12 12"><path d="M11.1943,0.8057 C12.2683,1.8787 12.2683,3.6197 11.1943,4.6947 L9.6943,6.1947 C9.1583,6.7317 8.4533,6.9997 7.7503,6.9997 C7.5603,6.9997 7.3713,6.9767 7.1833,6.9377 L8.1813,5.9407 C8.4823,5.8637 8.7613,5.7127 8.9873,5.4877 L10.4873,3.9877 C10.8183,3.6577 11.0003,3.2177 11.0003,2.7497 C11.0003,2.2827 10.8183,1.8427 10.4873,1.5127 C10.1563,1.1817 9.7163,0.9997 9.2503,0.9997 C8.7833,0.9997 8.3433,1.1817 8.0123,1.5127 L6.5123,3.0127 C6.2873,3.2387 6.1363,3.5177 6.0603,3.8197 L5.0623,4.8167 C4.8793,3.9377 5.1233,2.9877 5.8053,2.3057 L7.3053,0.8057 C7.8413,0.2687 8.5473,-0.0003 9.2503,-0.0003 C9.9533,-0.0003 10.6583,0.2687 11.1943,0.8057 Z M5.9395,8.1807 L6.9375,7.1837 C7.1215,8.0627 6.8765,9.0127 6.1945,9.6947 L4.6945,11.1947 C4.1585,11.7317 3.4535,11.9997 2.7505,11.9997 C2.0465,11.9997 1.3415,11.7317 0.8055,11.1947 C-0.2685,10.1207 -0.2685,8.3797 0.8055,7.3057 L2.3055,5.8057 C2.8415,5.2687 3.5465,4.9997 4.2505,4.9997 C4.4395,4.9997 4.6285,5.0237 4.8165,5.0627 L3.8185,6.0597 C3.5175,6.1367 3.2385,6.2867 3.0125,6.5127 L1.5125,8.0127 C1.1815,8.3427 1.0005,8.7827 1.0005,9.2497 C1.0005,9.7177 1.1815,10.1577 1.5125,10.4877 C1.8435,10.8187 2.2835,10.9997 2.7505,10.9997 C3.2165,10.9997 3.6565,10.8187 3.9875,10.4877 L5.4875,8.9877 C5.7125,8.7617 5.8635,8.4827 5.9395,8.1807 Z M2.6465,9.3535 C2.4515,9.1585 2.4515,8.8415 2.6465,8.6465 L8.6465,2.6465 C8.8415,2.4515 9.1585,2.4515 9.3535,2.6465 C9.5485,2.8415 9.5485,3.1585 9.3535,3.3535 L3.3535,9.3535 C3.2555,9.4515 3.1275,9.4995 3.0005,9.4995 C2.8725,9.4995 2.7445,9.4515 2.6465,9.3535 Z"/></svg>
