<svg xmlns="http://www.w3.org/2000/svg" xlink="http://www.w3.org/1999/xlink" width="22" height="22" viewBox="0 0 22 22"><path d="M19.0002,3 C20.6542,3 22.0002,4.346 22.0002,6 L22.0002,17 C22.0002,18.654 20.6542,20 19.0002,20 L3.0002,20 C1.3462,20 0.0002,18.654 0.0002,17 L0.0002,6 C0.0002,4.346 1.3462,3 3.0002,3 L19.0002,3 Z M20.0002,17 L20.0002,6 C20.0002,5.448 19.5522,5 19.0002,5 L3.0002,5 C2.4482,5 2.0002,5.448 2.0002,6 L2.0002,17 C2.0002,17.552 2.4482,18 3.0002,18 L19.0002,18 C19.5522,18 20.0002,17.552 20.0002,17 Z M14.9512,11.041 C15.3502,11.216 15.3502,11.784 14.9512,11.959 L8.7022,14.693 C8.3712,14.838 8.0002,14.595 8.0002,14.234 L8.0002,8.766 C8.0002,8.405 8.3712,8.162 8.7022,8.307 L14.9512,11.041 Z"/></svg>
