<svg xmlns="http://www.w3.org/2000/svg" xlink="http://www.w3.org/1999/xlink" width="16" height="16" viewBox="0 0 16 16"><path d="M13.5,1 C14.879,1 16,2.121 16,3.5 L16,11.5 C16,12.879 14.879,14 13.5,14 L2.5,14 C1.121,14 0,12.879 0,11.5 L0,3.5 C0,2.121 1.121,1 2.5,1 L13.5,1 Z M14,11.5 L14,3.5 C14,3.225 13.775,3 13.5,3 L2.5,3 C2.225,3 2,3.225 2,3.5 L2,11.5 C2,11.775 2.225,12 2.5,12 L13.5,12 C13.775,12 14,11.775 14,11.5 Z M11.2725,7.1455 C11.5765,7.2805 11.5765,7.7195 11.2725,7.8545 L6.5335,9.9665 C6.2815,10.0795 6.0005,9.8915 6.0005,9.6125 L6.0005,5.3875 C6.0005,5.1085 6.2815,4.9205 6.5335,5.0335 L11.2725,7.1455 Z"/></svg>
