<svg xmlns="http://www.w3.org/2000/svg" xlink="http://www.w3.org/1999/xlink" width="12" height="12" viewBox="0 0 12 12"><path d="M10.167,1 C11.178,1 12,1.822 12,2.833 L12,9.167 C12,10.178 11.178,11 10.167,11 L1.833,11 C0.822,11 0,10.178 0,9.167 L0,2.833 C0,1.822 0.822,1 1.833,1 L10.167,1 Z M11,9.167 L11,2.833 C11,2.374 10.626,2 10.167,2 L1.833,2 C1.374,2 1,2.374 1,2.833 L1,9.167 C1,9.626 1.374,10 1.833,10 L10.167,10 C10.626,10 11,9.626 11,9.167 Z M8.2969,5.7158 C8.5439,5.8238 8.5439,6.1758 8.2969,6.2838 L4.4339,7.9738 C4.2299,8.0638 3.9999,7.9128 3.9999,7.6898 L3.9999,4.3108 C3.9999,4.0868 4.2299,3.9368 4.4339,4.0268 L8.2969,5.7158 Z"/></svg>
