<svg width="24" height="24" viewBox="0 0 24 24" xmlns="http://www.w3.org/2000/svg">
<path d="M8.41998 9.32948L6.0991 6.56342L6.98764 5.81787L8.99998 8.21585L11.0123 5.81787L11.9009 6.56342L9.57998 9.32948V11.4588H8.41998V9.32948Z"/>
<path fill-rule="evenodd" clip-rule="evenodd" d="M17.74 8.65875V8.55875H16.58V8.65875C16.58 9.56452 15.8458 10.2987 14.94 10.2987C14.7318 10.2987 14.5329 10.2599 14.3499 10.1892L17.3339 7.20522L17.2899 7.13731C16.7909 6.36849 15.9253 5.85908 14.94 5.85908C13.3934 5.85908 12.14 7.11286 12.14 8.65908C12.14 10.2053 13.3934 11.4588 14.94 11.4588C16.4862 11.4588 17.74 10.205 17.74 8.65875ZM13.4845 9.41416C13.3668 9.18814 13.3003 8.93141 13.3003 8.65875C13.3 7.75301 14.0342 7.01875 14.94 7.01875C15.2126 7.01875 15.4693 7.08544 15.6954 7.20324L13.4845 9.41416Z"/>
<path d="M11.081 12.0986L11.9014 12.919L9.82008 15L11.9014 17.081L11.081 17.9014L8.99998 15.8201L6.91899 17.9014L6.09856 17.081L8.17989 15L6.09856 12.919L6.91899 12.0986L8.99998 14.1799L11.081 12.0986Z"/>
<path d="M12.26 13.42V12.26H17.74V13.42H15.58V17.74H14.42V13.42H12.26Z"/>
<path fill-rule="evenodd" clip-rule="evenodd" d="M12 24.0098C18.6274 24.0098 24 18.6372 24 12.0098C24 5.38235 18.6274 0.00976562 12 0.00976562C5.37258 0.00976562 0 5.38235 0 12.0098C0 18.6372 5.37258 24.0098 12 24.0098ZM12 22.0098C17.5228 22.0098 22 17.5326 22 12.0098C22 6.48692 17.5228 2.00977 12 2.00977C6.47715 2.00977 2 6.48692 2 12.0098C2 17.5326 6.47715 22.0098 12 22.0098Z"/>
</svg>
