<svg xmlns="http://www.w3.org/2000/svg" width="24" height="24" fill="none" viewBox="0 0 24 24">
  <path d="M14.52 13.33h-2.16v-.96h5.28v.96h-2.16v4.32h-.96v-4.32ZM9 14.331l2.081-2.081.679.679-2.081 2.08 2.081 2.082-.679.679L9 15.688 6.919 17.77l-.679-.68 2.081-2.08-2.081-2.081.679-.68L9 14.332Z"/>
  <path fill-rule="evenodd" d="M17.64 8.95a2.7 2.7 0 1 1-.434-1.467l-3.03 3.03A1.74 1.74 0 0 0 16.68 8.95h.96Zm-1.781-1.478a1.74 1.74 0 0 0-2.396 2.396l2.396-2.396Z" clip-rule="evenodd"/>
  <path d="M6.975 6.25 9 8.662l2.025-2.412.735.617-2.28 2.717v2.066h-.96V9.584L6.24 6.867l.735-.617Z"/>
  <path fill-rule="evenodd" d="M0 12.01c0-6.628 5.373-12 12-12s12 5.372 12 12c0 6.627-5.373 12-12 12s-12-5.373-12-12Zm.96 0c0 6.097 4.943 11.04 11.04 11.04 6.097 0 11.04-4.943 11.04-11.04C23.04 5.912 18.097.97 12 .97 5.903.97.96 5.912.96 12.01Z" clip-rule="evenodd"/>
</svg>
