<svg xmlns="http://www.w3.org/2000/svg" width="24" height="24" fill="none" viewBox="0 0 24 24">
  <path fill="#000" d="M8.32 9.376 5.958 6.56 7 5.687 9 8.07l2-2.383 1.042.874L9.68 9.376v2.193H8.32V9.376Z"/>
  <path fill="#000" fill-rule="evenodd" d="M14.94 11.569a2.9 2.9 0 0 0 2.9-2.9v-.2h-1.36v.2a1.54 1.54 0 0 1-1.944 1.486l2.926-2.926-.088-.136a2.9 2.9 0 1 0-2.434 4.476Zm-1.425-2.317a1.54 1.54 0 0 1 2.009-2.009l-2.01 2.01Z" clip-rule="evenodd"/>
  <path fill="#000" d="m11.081 11.967.962.962-2.081 2.081 2.08 2.081-.961.962L9 15.972l-2.081 2.08-.962-.961 2.081-2.081-2.08-2.081.961-.962L9 14.05l2.081-2.082ZM12.16 13.53v-1.36h5.68v1.36h-2.16v4.32h-1.36v-4.32h-2.16Z"/>
  <path fill="#000" fill-rule="evenodd" d="M24 12.01c0 6.627-5.373 12-12 12s-12-5.373-12-12c0-6.628 5.373-12 12-12s12 5.372 12 12Zm-2 0c0 5.523-4.477 10-10 10s-10-4.477-10-10 4.477-10 10-10 10 4.477 10 10Z" clip-rule="evenodd"/>
</svg>
