<svg xmlns="http://www.w3.org/2000/svg" width="16" height="16" fill="none" viewBox="0 0 16 16">
  <path d="M9.68 8.89H8.24v-.64h3.52v.64h-1.44v2.88h-.64V8.89ZM6 9.557 7.387 8.17l.453.452-1.388 1.388 1.388 1.387-.453.453L6 10.462 4.613 11.85l-.453-.453 1.388-1.387L4.16 8.622l.453-.452L6 9.557Z"/>
  <path fill-rule="evenodd" d="M11.76 5.97a1.8 1.8 0 1 1-.29-.978l-2.02 2.02a1.16 1.16 0 0 0 1.67-1.042h.64Zm-1.188-.985a1.16 1.16 0 0 0-1.597 1.597l1.597-1.597Z" clip-rule="evenodd"/>
  <path d="M4.65 4.17 6 5.778 7.35 4.17l.49.411-1.52 1.812V7.77h-.64V6.393L4.16 4.58l.49-.411Z"/>
  <path fill-rule="evenodd" d="M0 8.01a8 8 0 1 1 16 0 8 8 0 0 1-16 0Zm.64 0a7.36 7.36 0 1 0 14.72 0 7.36 7.36 0 0 0-14.72 0Z" clip-rule="evenodd"/>
</svg>
