<svg xmlns="http://www.w3.org/2000/svg" width="16" height="16" fill="none" viewBox="0 0 16 16">
  <path fill="#000" d="m5.52 6.216-1.602-1.91.797-.668 1.325 1.58 1.325-1.58.797.669L6.56 6.216V7.72H5.52V6.216Z"/>
  <path fill="#000" fill-rule="evenodd" d="M10 7.72a2 2 0 0 0 2-2v-.2h-.985l.752-.751-.089-.136A2 2 0 1 0 10 7.72Zm0-1.04c.53 0 .96-.43.96-.96v-.145L9.865 6.671c.044.006.09.009.135.009Zm-.922-.693a.96.96 0 0 1 1.189-1.19l-1.19 1.19Z" clip-rule="evenodd"/>
  <path fill="#000" d="M8.08 8.955v.385h1.44v2.88h1.04V9.34H12V8.3H8.08v.49l-.653-.653L6.04 9.525 4.653 8.137l-.736.736 1.388 1.387-1.388 1.387.736.736 1.387-1.388 1.387 1.388.736-.736-1.388-1.387L8.08 8.955Z"/>
  <path fill="#000" fill-rule="evenodd" d="M16 8.01a8 8 0 1 1-16 0 8 8 0 0 1 16 0Zm-2 0a6 6 0 1 1-12 0 6 6 0 0 1 12 0Z" clip-rule="evenodd"/>
</svg>
