<svg width="24" height="24" viewBox="0 0 24 24" xmlns="http://www.w3.org/2000/svg"><path fill-rule="evenodd" clip-rule="evenodd" d="m8.872 3 .522 2.012c.426 1.64-.571 3.161-1.956 3.671-.713.263-1.65.7-2.375 1.322C4.361 10.607 4 11.245 4 12c0 1.826.842 3.822 1.98 5.634A23.888 23.888 0 0 0 8.564 21h6.938a18.522 18.522 0 0 0 2.52-3.083C19.128 16.207 20 14.159 20 12c0-.755-.361-1.393-1.064-1.995-.725-.622-1.661-1.06-2.374-1.322-1.385-.51-2.382-2.03-1.956-3.671L15.128 3H8.872ZM7.579 1a1 1 0 0 0-.968 1.251l.847 3.264c.14.54-.187 1.098-.712 1.292C5.116 7.407 2 8.954 2 12c0 4.762 4.284 9.524 5.433 10.716.18.186.426.284.684.284h7.804a.928.928 0 0 0 .635-.241C17.689 21.712 22 17.375 22 12c0-3.046-3.116-4.593-4.746-5.193-.525-.194-.853-.751-.712-1.292l.847-3.264A1 1 0 0 0 16.421 1H7.58Z"/></svg>