<svg xmlns="http://www.w3.org/2000/svg" width="44" height="44" viewBox="0 0 44 44"><path fill="#FFF" fill-rule="evenodd" d="M21.986 6.599s-13.751 0-17.203.897c-1.848.517-3.37 2.039-3.886 3.915C0 14.863 0 22.013 0 22.013s0 7.177.897 10.575a5.6 5.6 0 003.886 3.888c3.479.924 17.203.924 17.203.924s13.78 0 17.23-.897c1.876-.517 3.37-1.984 3.86-3.887C44 29.19 44 22.04 44 22.04s.027-7.177-.924-10.63a5.433 5.433 0 00-3.86-3.86c-3.45-.951-17.23-.951-17.23-.951z"/><path fill-rule="evenodd" fill="#000" d="M29.053 22.013l-11.442-6.606v13.185z"/></svg>