<svg xmlns="http://www.w3.org/2000/svg" xlink="http://www.w3.org/1999/xlink" width="22" height="22" viewBox="0 0 22 22"><path d="M17.744,10.853 C17.039,13.425 14.908,15.402 12.25,15.883 L12.25,16.996 C12.25,18.655 14.288,19.736 15.254,20.109 C16.221,20.482 17,21.036 17,22 L5,22 C5,21.036 5.779,20.482 6.746,20.109 C7.712,19.736 9.75,18.655 9.75,16.996 L9.75,15.883 C7.092,15.402 4.961,13.425 4.256,10.853 C1.818,10.288 0,8.107 0,5.499 C0,4.119 1.119,3 2.498,3 L4,3 L4,1.996 C4,1.446 4.445,1 4.996,1 L17.004,1 C17.555,1 18,1.446 18,1.996 L18,3 L19.502,3 C20.881,3 22,4.119 22,5.499 C22,8.107 20.182,10.288 17.744,10.853 Z M1.5,5.499 C1.5,7.178 2.541,8.612 4.01,9.205 C4.008,9.137 4,9.069 4,9 L4,4.5 L2.498,4.5 C1.947,4.5 1.5,4.948 1.5,5.499 Z M19.502,4.5 L18,4.5 L18,9 C18,9.069 17.992,9.137 17.99,9.205 C19.459,8.612 20.5,7.178 20.5,5.499 C20.5,4.948 20.053,4.5 19.502,4.5 Z"/></svg>
