<svg xmlns="http://www.w3.org/2000/svg" xlink="http://www.w3.org/1999/xlink" width="16" height="16" viewBox="0 0 16 16"><path d="M14.001,2.0004 C15.105,2.0004 16,2.8954 16,3.9994 C16,5.8944 14.68,7.4724 12.91,7.8854 C12.55,9.8964 10.992,11.4844 9,11.8914 L9,13.0004 C9,13.9684 9.902,14.4874 10.753,14.8244 C11.604,15.1604 12,15.3654 12,16.0004 L4,16.0004 C4,15.3654 4.396,15.1604 5.247,14.8244 C6.098,14.4874 7,13.9684 7,13.0004 L7,11.8914 C5.008,11.4844 3.45,9.8964 3.09,7.8854 C1.32,7.4724 0,5.8944 0,3.9994 C0,2.8954 0.895,2.0004 1.999,2.0004 L3,2.0004 L3,1.0004 L13,1.0004 L13,2.0004 L14.001,2.0004 Z M13,6.8154 C14.162,6.4014 15,5.3014 15,3.9994 C15,3.4484 14.552,3.0004 14.001,3.0004 L13,3.0004 L13,6.8154 Z M3,6.8154 L3,3.0004 L1.999,3.0004 C1.448,3.0004 1,3.4484 1,3.9994 C1,5.3014 1.838,6.4014 3,6.8154 Z"/></svg>
