<svg xmlns="http://www.w3.org/2000/svg" xlink="http://www.w3.org/1999/xlink" width="12" height="12" viewBox="0 0 12 12"><path d="M9.5004,1.9995 C10.3284,1.9995 11.0004,2.6715 11.0004,3.4995 L11.0004,3.9995 C11.0004,5.4145 10.0174,6.5925 8.6994,6.9095 C8.2484,7.9335 7.3234,8.7015 6.2004,8.9295 L6.2004,9.6395 C6.2004,10.3915 6.8264,10.8825 7.3604,11.1415 C7.8944,11.3995 8.0004,11.6005 8.0004,11.9995 L5.5004,11.9995 L3.0004,11.9995 C3.0004,11.6005 3.1054,11.3995 3.6394,11.1415 C4.1734,10.8825 4.7994,10.3915 4.7994,9.6395 L4.7994,8.9295 C3.6764,8.7015 2.7524,7.9335 2.3004,6.9095 C0.9824,6.5925 0.0004,5.4145 0.0004,3.9995 L0.0004,3.4995 C0.0004,2.6715 0.6714,1.9995 1.5004,1.9995 L2.0004,1.9995 L2.0004,1.4995 C2.0004,1.2235 2.2234,0.9995 2.5004,0.9995 L8.5004,0.9995 C8.7764,0.9995 9.0004,1.2235 9.0004,1.4995 L9.0004,1.9995 L9.5004,1.9995 Z M10.4004,3.9995 L10.4004,3.4995 C10.4004,3.0035 9.9964,2.6005 9.5004,2.6005 L9.0004,2.6005 L9.0004,5.4995 C9.0004,5.7445 8.9744,5.9825 8.9264,6.2125 C9.7914,5.8495 10.4004,4.9945 10.4004,3.9995 Z M0.5994,3.9995 C0.5994,4.9945 1.2094,5.8495 2.0734,6.2125 C2.0254,5.9825 2.0004,5.7445 2.0004,5.4995 L2.0004,2.6005 L1.5004,2.6005 C1.0044,2.6005 0.5994,3.0035 0.5994,3.4995 L0.5994,3.9995 Z"/></svg>
