<svg xmlns="http://www.w3.org/2000/svg" width="24" height="24" fill="none" viewBox="0 0 24 24">
  <path fill="#1976D2" fill-rule="evenodd" d="M15.04 14.056 9.6 11.904a1.17 1.17 0 0 0-1.642 1.066c0 .255.085.503.24.705v.01l3.877 4.427a2.571 2.571 0 1 0 2.965-4.056Zm-1.76-8.658c1.197-.374 2.486.242 2.88 1.375.394 1.133-.264 2.357-1.46 2.725-1.198.368-2.487-.244-2.88-1.376-.394-1.133.257-2.352 1.46-2.724ZM21.6 6.75a1.218 1.218 0 0 0-.702-.48l-1.034-.268c-.013-.05-.024-.1-.04-.148C18.742 2.688 15.237.97 11.982 2.01A6.114 6.114 0 0 0 8.32 5.178L6.45 8.142 2.024 6.395a1.32 1.32 0 0 0-1.342.2 1.262 1.262 0 0 0-.39 1.363c.031.094.075.184.129.268v.01l4.608 6.118 3.326 4.667c1.44 2.577 4.567 4.13 7.58 3.165 3.252-1.045 5.022-4.46 3.95-7.63a5.97 5.97 0 0 0-1.627-2.497 6.01 6.01 0 0 0 1.76-3.222l.998-.287v-.012a1.196 1.196 0 0 0 .769-.89 1.173 1.173 0 0 0-.193-.898" clip-rule="evenodd"/>
</svg>
