<svg xmlns="http://www.w3.org/2000/svg" width="16" height="16" fill="none" viewBox="0 0 16 16">
  <path fill="#1976D2" fill-rule="evenodd" d="M10.027 9.374 6.4 7.939a.78.78 0 0 0-1.094.71c0 .17.056.336.16.471v.006c.018.023 2.584 2.952 2.584 2.952a1.714 1.714 0 1 0 1.977-2.704ZM8.853 3.602c.798-.25 1.658.161 1.92.916.263.756-.176 1.572-.974 1.817-.797.245-1.657-.162-1.92-.917-.262-.756.172-1.568.974-1.816Zm5.547.901a.812.812 0 0 0-.468-.32l-.69-.179c-.008-.033-.015-.066-.026-.098-.721-2.11-3.058-3.256-5.228-2.563a4.076 4.076 0 0 0-2.441 2.112L4.3 5.431 1.35 4.268a.88.88 0 0 0-.895.134.842.842 0 0 0-.26.908.81.81 0 0 0 .086.178v.006l3.071 4.08 2.218 3.11c.96 1.72 3.044 2.754 5.053 2.11 2.168-.696 3.348-2.972 2.634-5.085a3.98 3.98 0 0 0-1.085-1.665 4.007 4.007 0 0 0 1.173-2.149l.666-.19v-.009a.799.799 0 0 0 .512-.593.78.78 0 0 0-.128-.599" clip-rule="evenodd"/>
</svg>
