<svg width="44" height="44" viewBox="0 0 44 44" fill="none" xmlns="http://www.w3.org/2000/svg">
  <path d="M23 2.5c-10.6 0-19 8.5-19 19 0 3.2.7 6.1 2.1 8.8L2 42.5l12.7-3.8c2.5 1.2 5.3 1.8 8.3 1.8 10.5 0 19-8.4 19-19a19 19 0 00-19-19z" fill="#00D16B"/>
  <path d="M31.9 31a4 4 0 001.1-1.9c.2-.8 0-1.2-.7-1.7l-3.6-2c-.6-.3-1.3-.2-1.8.3l-1.6 1.6c-.6.6-3-.6-5.2-2.9-2.2-2.2-3.5-4.5-2.9-5.2l1.6-1.6c.5-.5.6-1.2.3-1.8 0 0-1.5-2.9-2-3.6-.4-.7-.9-.9-1.7-.7a4 4 0 00-1.9 1.1c-2.9 2.9-1.1 9.4 3.9 14.4 5.2 5.1 11.6 6.9 14.5 4z" fill="#fff"/>
</svg>
