<svg width="24" height="24" xmlns="http://www.w3.org/2000/svg">
  <path d="M12.05 1A10.99 10.99 0 0 0 2.3 17L0 24l7.34-2.19c1.42.66 3.07 1.1 4.7 1.1C18.08 22.9 23 17.97 23 11.94 23 5.93 18.07 1 12.05 1Z" fill="#00D16B"/>
  <path d="M17.2 17.32c.32-.33.54-.66.65-1.1.11-.43 0-.76-.44-.98l-2.08-1.1c-.33-.22-.76-.1-1.1.11l-.87.99c-.33.33-1.75-.33-2.95-1.65-1.32-1.3-1.98-2.62-1.65-2.95l.88-.88c.33-.33.33-.66.1-1.1L8.66 6.6c-.22-.44-.55-.55-.98-.44-.44.1-.77.33-1.1.65-1.64 1.65-.66 5.37 2.3 8.33 2.96 2.85 6.68 3.94 8.32 2.19Z" fill="#fff"/>
</svg>
