<svg width="22" height="22" viewBox="0 0 22 22" fill="none" xmlns="http://www.w3.org/2000/svg">
  <g clip-path="url(#clip0)">
    <path d="M12 .5a10.03 10.03 0 00-8.9 14.6L1 21.5l6.7-2c1.3.6 2.8 1 4.3 1 5.5 0 10-4.5 10-10S17.5.5 12 .5z" fill="#00D16B"/>
    <path d="M16.7 15.4c.3-.3.5-.6.6-1 .1-.4 0-.7-.4-.9l-1.9-1c-.3-.2-.7-.1-1 .1l-.8.9c-.3.3-1.6-.3-2.7-1.5C9.3 10.8 8.7 9.6 9 9.3l.8-.8c.3-.3.3-.6.1-1l-1-1.9c-.2-.4-.5-.5-.9-.4-.4.1-.7.3-1 .6-1.5 1.5-.6 4.9 2.1 7.6 2.7 2.6 6.1 3.6 7.6 2z" fill="#fff"/>
  </g>
  <defs>
    <clipPath id="clip0">
      <path fill="#fff" transform="translate(0 .5)" d="M0 0h22v22H0z"/>
    </clipPath>
  </defs>
</svg>
