<svg width="16" height="16" viewBox="0 0 16 16" fill="none" xmlns="http://www.w3.org/2000/svg">
  <g clip-path="url(#clip0)">
    <path d="M8.15.5A7.79 7.79 0 00.4 8.3c0 1.3.3 2.5.9 3.5L0 16.5l4.97-1.2A7.79 7.79 0 0016 8.2C16 3.9 12.42.5 8.15.5z" fill="#00D16B"/>
    <path d="M12.02 12c.2-.2.4-.5.5-.8.1-.3 0-.5-.3-.7-.3-.2-1.49-.8-1.49-.8a.6.6 0 00-.7.1l-.79.7c-.3.3-1.19-.3-2.08-1.2-.9-.9-1.4-1.9-1.2-2.1l.7-.7c.2-.2.2-.5.1-.7 0 0-.6-1.2-.8-1.5-.2-.3-.4-.4-.7-.3-.3.1-.59.2-.79.5-1.19 1.2-.5 3.8 1.6 5.9 2.08 2 4.76 2.8 5.95 1.6z" fill="#fff"/>
  </g>
  <defs>
    <clipPath id="clip0">
      <path fill="#fff" transform="translate(0 .5)" d="M0 0h16v16H0z"/>
    </clipPath>
  </defs>
</svg>
