<svg width="12" height="12" viewBox="0 0 12 12" fill="none" xmlns="http://www.w3.org/2000/svg">
  <g clip-path="url(#clip0)">
    <path d="M6.2.5A5.8 5.8 0 001 8.9l-1 3.6 3.7-.9c.7.4 1.6.6 2.5.6 3.2 0 5.8-2.6 5.8-5.8C12 3.2 9.4.5 6.2.5z" fill="#00D16B"/>
    <path d="M8.8 8.9c.1-.1.3-.3.3-.5s0-.4-.2-.5c-.2-.1-1-.6-1-.6-.2-.1-.4-.1-.5.1l-.5.5c-.2.2-.8-.2-1.5-.8-.6-.6-1-1.3-.8-1.5l.5-.5c.1-.1.2-.3.1-.5 0 0-.4-.8-.6-1-.1-.2-.3-.3-.5-.2-.2.1-.4.1-.5.3-.8.8-.3 2.7 1.1 4.1C6.2 9.2 8 9.7 8.8 8.9z" fill="#fff"/>
  </g>
  <defs>
    <clipPath id="clip0">
      <path fill="#fff" transform="translate(0 .5)" d="M0 0h12v12H0z"/>
    </clipPath>
  </defs>
</svg>
