<svg xmlns="http://www.w3.org/2000/svg" xlink="http://www.w3.org/1999/xlink" width="22" height="22" viewBox="0 0 22 22"><path d="M20,6 L18,6 L18,19 C18,20.104 17.104,21 16,21 L6,21 C4.896,21 4,20.104 4,19 L4,6 L2,6 C2,4.343 3.344,3 5,3 L9,3 L9,2.5 C9,1.671 9.672,1 10.5,1 L11.5,1 C12.328,1 13,1.671 13,2.5 L13,3 L17,3 C18.656,3 20,4.343 20,6 Z M15.5,19 C15.776,19 16,18.776 16,18.5 L16,6 L6,6 L6,18.5 C6,18.776 6.224,19 6.5,19 L15.5,19 Z M7,18 L7,7 L9,7 L9,18 L7,18 Z M10,18 L10,7 L12,7 L12,18 L10,18 Z M13,18 L13,7 L15,7 L15,18 L13,18 Z"/></svg>
