<svg xmlns="http://www.w3.org/2000/svg" xlink="http://www.w3.org/1999/xlink" width="16" height="16" viewBox="0 0 16 16"><path d="M14,3 L13,3 L13,13.5 C13,14.329 12.328,15 11.5,15 L3.5,15 C2.672,15 2,14.329 2,13.5 L2,3 L1,3 C1,1.896 1.896,1 3,1 L6.092,1 C6.299,0.419 6.848,0 7.5,0 C8.152,0 8.701,0.419 8.908,1 L12,1 C13.104,1 14,1.896 14,3 Z M12,13.5 L12,3 L3,3 L3,13.5 C3,13.776 3.225,14 3.5,14 L11.5,14 C11.775,14 12,13.776 12,13.5 Z M4,13 L4,4 L5,4 L5,13 L4,13 Z M6,13 L6,4 L7,4 L7,13 L6,13 Z M8,13 L8,4 L9,4 L9,13 L8,13 Z M10,13 L10,4 L11,4 L11,13 L10,13 Z"/></svg>
