<svg xmlns="http://www.w3.org/2000/svg" xlink="http://www.w3.org/1999/xlink" width="12" height="12" viewBox="0 0 12 12"><path d="M11,3 L10,3 L10,10.5 C10,11.329 9.328,12 8.5,12 L2.5,12 C1.672,12 1,11.329 1,10.5 L1,3 L0,3 C0,1.896 0.896,1 2,1 L4,1 C4,0.448 4.447,0 5,0 L6,0 C6.553,0 7,0.448 7,1 L9,1 C10.104,1 11,1.896 11,3 Z M9,10.5 L9,3 L2,3 L2,10.5 C2,10.776 2.225,11 2.5,11 L8.5,11 C8.775,11 9,10.776 9,10.5 Z M3,10 L3,4 L4,4 L4,10 L3,10 Z M7,10 L7,4 L8,4 L8,10 L7,10 Z M5,10 L5,4 L6,4 L6,10 L5,10 Z"/></svg>
