<svg xmlns="http://www.w3.org/2000/svg" xlink="http://www.w3.org/1999/xlink" width="22" height="22" viewBox="0 0 22 22"><path d="M7.5,3 C9.06,3 10.507,3.479 11.707,4.293 L9.516,6.484 C8.911,6.175 8.227,6 7.5,6 C5.019,6 3,8.019 3,10.5 C3,12.981 5.019,15 7.5,15 C9.453,15 11.103,13.742 11.724,12 L7,12 L7,9 L15,9 L15,10.5 C15,14.642 11.643,18 7.5,18 C3.357,18 0,14.642 0,10.5 C0,6.358 3.357,3 7.5,3 Z M18,7.0002 L20,7.0002 L20,9.0002 L22,9.0002 L22,11.0002 L20,11.0002 L20,12.9992 L18,12.9992 L18,11.0002 L16,11.0002 L16,9.0002 L18,9.0002 L18,7.0002 Z"/></svg>
