<svg xmlns="http://www.w3.org/2000/svg" xlink="http://www.w3.org/1999/xlink" width="16" height="16" viewBox="0 0 16 16"><path d="M5,9 L5,7 L10,7 L10,8 C10,10.757 7.757,13 5,13 C2.243,13 0,10.757 0,8 C0,5.243 2.243,3 5,3 C6.123,3 7.152,3.384 7.988,4.012 L6.552,5.448 C6.1,5.169 5.571,5 5,5 C3.346,5 2,6.346 2,8 C2,9.654 3.346,11 5,11 C6.302,11 7.401,10.162 7.816,9 L5,9 Z M11.9997,4.9999 L14.0007,4.9999 L14.0007,6.9999 L16.0007,6.9999 L16.0007,9.0009 L14.0007,9.0009 L14.0007,10.9999 L11.9997,10.9999 L11.9997,9.0009 L10.5007,9.0009 L10.5007,6.9999 L11.9997,6.9999 L11.9997,4.9999 Z"/></svg>
