<svg width="24" height="24" viewBox="0 0 24 24" fill="none" xmlns="http://www.w3.org/2000/svg">
<path fill-rule="evenodd" clip-rule="evenodd" d="M13.749 2.46845C12.0747 1.50249 9.93428 2.07673 8.96831 3.75107L1.46831 16.7511C0.502353 18.4254 1.0766 20.5658 2.75094 21.5317C4.42527 22.4977 6.56565 21.9235 7.53161 20.2491L15.0316 7.24913C15.9976 5.57479 15.4233 3.43441 13.749 2.46845Z" fill="#FFC107"/>
<circle cx="4.5" cy="18.5" r="3.5" fill="#4CAF50"/>
<path fill-rule="evenodd" clip-rule="evenodd" d="M10.2509 2.46845C11.9253 1.50249 14.0657 2.07673 15.0316 3.75107L22.5316 16.7511C23.4976 18.4254 22.9233 20.5658 21.249 21.5317C19.5747 22.4977 17.4343 21.9235 16.4683 20.2491L8.96833 7.24913C8.00236 5.57479 8.57661 3.43441 10.2509 2.46845Z" fill="#1976D2"/>
</svg>
