<svg width="16" height="16" viewBox="0 0 16 16" fill="none" xmlns="http://www.w3.org/2000/svg">
<path fill-rule="evenodd" clip-rule="evenodd" d="M9.20482 0.309437C7.99502 -0.355954 6.47487 0.0853782 5.80948 1.29518L0.309484 11.2952C-0.355907 12.505 0.0854244 14.0251 1.29523 14.6905C2.50503 15.3559 4.02517 14.9146 4.69056 13.7048L10.1906 3.70477C10.856 2.49497 10.4146 0.974828 9.20482 0.309437Z" fill="#FFC107"/>
<circle cx="2.5" cy="12.5" r="2.5" fill="#4CAF50"/>
<path fill-rule="evenodd" clip-rule="evenodd" d="M6.79518 0.309437C8.00498 -0.355954 9.52513 0.0853782 10.1905 1.29518L15.6905 11.2952C16.3559 12.505 15.9146 14.0251 14.7048 14.6905C13.495 15.3559 11.9748 14.9146 11.3094 13.7048L5.80944 3.70477C5.14405 2.49497 5.58538 0.974828 6.79518 0.309437Z" fill="#1976D2"/>
</svg>
