<svg width="16" height="16" viewBox="0 0 16 16" xmlns="http://www.w3.org/2000/svg"><path fill-rule="evenodd" clip-rule="evenodd" d="m13.854 2.695 1.963 4.292c.621 1.425-.417 3.021-1.963 3.021H10l.734 2.528c.313.888.08 1.791-.697 2.243-.732.425-1.6.224-2.198-.404L4.32 11.2A4 4 0 0 1 3 8.23V4.371a2 2 0 0 1 .789-1.591l1.26-.96a4 4 0 0 1 2.423-.816h3.764c1.135 0 2.162.646 2.618 1.691ZM5.66 9.715l2.944 2.656-.525-1.804A2 2 0 0 1 10 8.009h3.854a.12.12 0 0 0 .064-.015.16.16 0 0 0 .053-.052.173.173 0 0 0 .028-.076.146.146 0 0 0-.012-.071l-1.96-4.284-.006-.017a.832.832 0 0 0-.785-.49H7.472a2 2 0 0 0-1.211.408L5 4.372V8.23a2 2 0 0 0 .66 1.485Z"/><path d="M1 10.008a1 1 0 0 1-1-1V4.006a1 1 0 0 1 2 0V9.01a1 1 0 0 1-1 1Z"/></svg>