<svg xmlns="http://www.w3.org/2000/svg" xlink="http://www.w3.org/1999/xlink" width="22" height="22" viewBox="0 0 22 22"><path d="M3.7539,11 L2.2459,11 C1.5589,11 0.9999,10.442 0.9999,9.754 L0.9999,2.246 C0.9999,1.558 1.5589,1 2.2459,1 L3.7539,1 C4.4409,1 4.9999,1.558 4.9999,2.246 L4.9999,9.754 C4.9999,10.442 4.4409,11 3.7539,11 Z M19.4092,13 L12.4002,13 L14.0002,17 C14.0002,19.761 12.8812,22 11.5002,22 C10.6722,22 10.0002,21.329 10.0002,20.5 L10.0002,17 L6.0002,10.5 L6.0002,2.498 C6.0002,1.671 6.6622,1 7.4782,1 L14.5562,1 C15.9502,1 17.2072,1.849 17.7422,3.152 L20.8762,10.771 C21.3122,11.831 20.5432,13 19.4092,13 Z"/></svg>
