<svg xmlns="http://www.w3.org/2000/svg" xlink="http://www.w3.org/1999/xlink" width="12" height="12" viewBox="0 0 12 12"><path d="M11.3999,7 L7.4999,7 L7.4999,10.2 C7.4999,11.2 6.6999,12 5.6999,12 C5.2989,12 4.9999,11.7 4.9999,11.2 L4.9999,9.2 L2.9999,6 L2.9999,0.5 C2.9999,0.2 3.1999,0 3.4999,0 L8.2989,0 C9.0989,0 9.8999,0.5 10.1999,1.3 L11.9999,6.2 L11.9999,6.4 C11.9999,6.7 11.6999,7 11.3999,7 Z M1.4999,6 L0.4999,6 C0.1999,6 -0.0001,5.8 -0.0001,5.5 L-0.0001,0.5 C-0.0001,0.2 0.1999,0 0.4999,0 L1.4999,0 C1.7989,0 1.9999,0.2 1.9999,0.5 L1.9999,5.5 C1.9999,5.8 1.7989,6 1.4999,6 Z"/></svg>
