<svg xmlns="http://www.w3.org/2000/svg" xlink="http://www.w3.org/1999/xlink" width="22" height="22" viewBox="0 0 22 22"><path d="M19.5,5 C20.879,5 22,6.121 22,7.5 L22,19.5 C22,20.879 20.879,22 19.5,22 L6.5,22 C5.121,22 4,20.879 4,19.5 L4,18 L2.5,18 C1.121,18 0,16.879 0,15.5 L0,3.5 C0,2.121 1.121,1 2.5,1 L15.5,1 C16.879,1 18,2.121 18,3.5 L18,5 L19.5,5 Z M20,19.5 L20,7.5 C20,7.225 19.775,7 19.5,7 L18,7 L18,15.5 C18,16.879 16.879,18 15.5,18 L6,18 L6,19.5 C6,19.775 6.225,20 6.5,20 L19.5,20 C19.775,20 20,19.775 20,19.5 Z M2.5,16 L15.5,16 C15.775,16 16,15.775 16,15.5 L16,6 L2,6 L2,15.5 C2,15.775 2.225,16 2.5,16 Z M15.5,2.25 C14.81,2.25 14.25,2.81 14.25,3.5 C14.25,4.19 14.81,4.75 15.5,4.75 C16.19,4.75 16.75,4.19 16.75,3.5 C16.75,2.81 16.19,2.25 15.5,2.25 Z"/></svg>
