<svg xmlns="http://www.w3.org/2000/svg" xlink="http://www.w3.org/1999/xlink" width="16" height="16" viewBox="0 0 16 16"><path d="M15,3 C15.6,3 16,3.4 16,4 L16,15 C16,15.6 15.6,16 15,16 L3,16 C2.4,16 2,15.6 2,15 L2,14 L1,14 C0.4,14 0,13.6 0,13 L0,2 C0,1.4 0.4,1 1,1 L13,1 C13.6,1 14,1.4 14,2 L14,3 L15,3 Z M15,15 L15,4 L14,4 L14,13 C14,13.6 13.6,14 13,14 L3,14 L3,15 L15,15 Z M1,13 L13,13 L13,4 L1,4 L1,13 Z M12.5,1.67 C12.002,1.67 11.67,2.002 11.67,2.5 C11.67,2.998 12.002,3.33 12.5,3.33 C12.998,3.33 13.33,2.998 13.33,2.5 C13.33,2.002 12.998,1.67 12.5,1.67 Z"/></svg>
