<svg xmlns="http://www.w3.org/2000/svg" xlink="http://www.w3.org/1999/xlink" width="12" height="12" viewBox="0 0 12 12"><path d="M10.75,2 C11.44,2 12,2.56 12,3.25 L12,10.75 C12,11.44 11.44,12 10.75,12 L3.25,12 C2.56,12 2,11.44 2,10.75 L2,10 L1.25,10 C0.56,10 0,9.44 0,8.75 L0,2.25 C0,1.56 0.56,1 1.25,1 L8.75,1 C9.352,1 9.83,1.434 9.949,2 L10.75,2 Z M11,10.75 L11,3.25 C11,3.112 10.888,3 10.75,3 L10,3 L10,8.75 C10,9.44 9.44,10 8.75,10 L3,10 L3,10.75 C3,10.888 3.112,11 3.25,11 L10.75,11 C10.888,11 11,10.888 11,10.75 Z M1.25,9 L8.75,9 C8.888,9 9,8.888 9,8.75 L9,4 L1,4 L1,8.75 C1,8.888 1.112,9 1.25,9 Z M8.5,1.75 C8.086,1.75 7.75,2.086 7.75,2.5 C7.75,2.914 8.086,3.25 8.5,3.25 C8.914,3.25 9.25,2.914 9.25,2.5 C9.25,2.086 8.914,1.75 8.5,1.75 Z"/></svg>
