<svg width="24" height="24" viewBox="0 0 24 24" xmlns="http://www.w3.org/2000/svg"><path fill-rule="evenodd" clip-rule="evenodd" d="M20 5V2a1 1 0 0 0-1-1H5a1 1 0 0 0-1 1v3H1a1 1 0 0 0-1 1v10a1 1 0 0 0 1 1h3v-2H2V7h20v8h-2v2h3a1 1 0 0 0 1-1V6a1 1 0 0 0-1-1h-3ZM6 3v2h12V3H6Z"/><path d="M9 13a1 1 0 0 1 1-1h4a1 1 0 1 1 0 2h-4a1 1 0 0 1-1-1ZM9 16a1 1 0 0 1 1-1h4a1 1 0 1 1 0 2h-4a1 1 0 0 1-1-1ZM9 19a1 1 0 0 1 1-1h4a1 1 0 1 1 0 2h-4a1 1 0 0 1-1-1Z"/><path fill-rule="evenodd" clip-rule="evenodd" d="M7 9a1 1 0 0 0-1 1v12a1 1 0 0 0 1 1h10a1 1 0 0 0 1-1V10a1 1 0 0 0-1-1H7Zm1 2v10h8V11H8Z"/></svg>