<svg width="24" height="24" viewBox="0 0 24 24" xmlns="http://www.w3.org/2000/svg"><path d="M13 18.018a1 1 0 1 1-2 0 1 1 0 0 1 2 0ZM9.5 9.4c0-1.373.977-2.4 2.5-2.4 1.523 0 2.5 1.027 2.5 2.4 0 .998-.518 1.51-1.381 2.212l-.163.131C12.168 12.376 11 13.313 11 15a1 1 0 1 0 2 0c0-.692.409-1.045 1.381-1.837.887-.722 2.119-1.761 2.119-3.763C16.5 6.892 14.597 5 12 5S7.5 6.892 7.5 9.4a1 1 0 0 0 2 0Z"/><path fill-rule="evenodd" clip-rule="evenodd" d="M12 23c6.075 0 11-4.925 11-11S18.075 1 12 1 1 5.925 1 12s4.925 11 11 11Zm0-2a9 9 0 1 0 0-18 9 9 0 0 0 0 18Z"/></svg>