<svg xmlns="http://www.w3.org/2000/svg" xlink="http://www.w3.org/1999/xlink" width="22" height="22" viewBox="0 0 22 22"><path d="M18.0664,5.4336 L21.0004,2.4996 L21.0004,10.9996 L12.5004,10.9996 L15.9234,7.5766 C14.8234,6.0016 13.0004,4.9996 11.0004,4.9996 C9.2954,4.9996 7.6654,5.7286 6.5284,6.9996 C5.9754,7.6166 5.0274,7.6706 4.4104,7.1176 C3.7934,6.5646 3.7404,5.6166 4.2924,4.9986 C5.9984,3.0936 8.4434,1.9996 11.0004,1.9996 C13.8124,1.9996 16.3944,3.3196 18.0664,5.4336 Z M15.4717,15 C16.0247,14.383 16.9727,14.33 17.5897,14.883 C18.2067,15.435 18.2597,16.383 17.7077,17.001 C16.0017,18.907 13.5567,20 10.9997,20 C8.1877,20 5.6057,18.68 3.9337,16.566 L0.9997,19.5 L0.9997,11 L9.4997,11 L6.0757,14.423 C7.1767,15.999 8.9997,17 10.9997,17 C12.7047,17 14.3347,16.271 15.4717,15 Z"/></svg>
