<svg xmlns="http://www.w3.org/2000/svg" xlink="http://www.w3.org/1999/xlink" width="16" height="16" viewBox="0 0 16 16"><path d="M13.7998,4.2002 L15.9998,2.0002 L15.9998,8.0002 L9.9998,8.0002 L12.4008,5.6002 C11.4998,4.0002 9.7998,3.0002 7.9998,3.0002 C6.2998,3.0002 4.7998,3.8002 3.7998,5.2002 C3.4998,5.7002 2.8998,5.8002 2.3998,5.5002 C1.9998,5.2002 1.8998,4.6002 2.1998,4.1002 C3.4998,2.2002 5.5998,1.0002 7.9998,1.0002 C10.4008,1.0002 12.5998,2.2002 13.7998,4.2002 Z M12.1998,10.8002 C12.4998,10.3002 13.0998,10.2002 13.4998,10.5002 C13.9998,10.8002 14.0998,11.4002 13.7998,11.9002 C12.4998,13.8002 10.4008,15.0002 7.9998,15.0002 C5.5998,15.0002 3.3998,13.8002 2.1998,11.8002 L-0.0002,14.0002 L-0.0002,8.0002 L5.9998,8.0002 L3.5998,10.4002 C4.4998,12.0002 6.1998,13.0002 7.9998,13.0002 C9.6998,13.0002 11.1998,12.2002 12.1998,10.8002 Z"/></svg>
