<svg xmlns="http://www.w3.org/2000/svg" xlink="http://www.w3.org/1999/xlink" width="12" height="12" viewBox="0 0 12 12"><path d="M10.0996,3.1494 L11.9996,1.2504 L11.9996,6.0004 L7.2496,6.0004 L9.0146,4.2354 C8.4016,3.1824 7.2736,2.5004 5.9996,2.5004 C4.9646,2.5004 3.9886,2.9544 3.3226,3.7474 C3.0536,4.0634 2.5796,4.1024 2.2646,3.8374 C1.9486,3.5704 1.9076,3.0974 2.1736,2.7804 C3.1266,1.6494 4.5216,1.0004 5.9996,1.0004 C7.6826,1.0004 9.1886,1.8354 10.0996,3.1494 Z M8.6777,8.2529 C8.9447,7.9359 9.4187,7.8969 9.7357,8.1619 C10.0517,8.4299 10.0927,8.9019 9.8257,9.2199 C8.8727,10.3509 7.4787,10.9999 5.9997,10.9999 C4.3177,10.9999 2.8117,10.1649 1.9007,8.8509 L-0.0003,10.7499 L-0.0003,5.9999 L4.7497,5.9999 L2.9857,7.7649 C3.5987,8.8169 4.7267,9.4999 5.9997,9.4999 C7.0347,9.4999 8.0117,9.0459 8.6777,8.2529 Z"/></svg>
