<svg xmlns="http://www.w3.org/2000/svg" xlink="http://www.w3.org/1999/xlink" width="22" height="22" viewBox="0 0 22 22"><path d="M17.9772,11.463 L19.6542,13.468 C20.0572,13.949 20.1132,14.625 19.7972,15.166 L18.8162,16.834 C18.5002,17.375 17.8752,17.664 17.2502,17.562 L14.7752,17.157 C14.4402,17.391 14.0842,17.593 13.7112,17.77 L12.8632,20.03 C12.6452,20.613 12.0872,21 11.4642,21 L9.5362,21 C8.9132,21 8.3552,20.613 8.1372,20.03 L7.2892,17.77 C6.9162,17.593 6.5602,17.391 6.2252,17.157 L3.7502,17.562 C3.1252,17.664 2.5002,17.375 2.1842,16.834 L1.2032,15.166 C0.8872,14.625 0.9432,13.949 1.3462,13.468 L3.0232,11.463 C3.0142,11.309 3.0002,11.156 3.0002,11 C3.0002,10.844 3.0142,10.691 3.0232,10.537 L1.3462,8.532 C0.9432,8.051 0.8872,7.375 1.2032,6.834 L2.1842,5.166 C2.5002,4.625 3.1252,4.336 3.7502,4.438 L6.2252,4.843 C6.5602,4.609 6.9162,4.407 7.2892,4.23 L8.1372,1.97 C8.3552,1.387 8.9132,1 9.5362,1 L11.4642,1 C12.0872,1 12.6452,1.387 12.8632,1.97 L13.7112,4.23 C14.0842,4.407 14.4402,4.609 14.7752,4.843 L17.2502,4.438 C17.8752,4.336 18.5002,4.625 18.8162,5.166 L19.7972,6.834 C20.1132,7.375 20.0572,8.051 19.6542,8.532 L17.9772,10.537 C17.9862,10.691 18.0002,10.844 18.0002,11 C18.0002,11.156 17.9862,11.309 17.9772,11.463 Z M10.5002,16 C13.2622,16 15.5002,13.761 15.5002,11 C15.5002,8.238 13.2622,6 10.5002,6 C7.7382,6 5.5002,8.238 5.5002,11 C5.5002,13.761 7.7382,16 10.5002,16 Z M10.5002,8.5 C11.8812,8.5 13.0002,9.619 13.0002,11 C13.0002,12.381 11.8812,13.5 10.5002,13.5 C9.1192,13.5 8.0002,12.381 8.0002,11 C8.0002,9.619 9.1192,8.5 10.5002,8.5 Z"/></svg>
