<svg xmlns="http://www.w3.org/2000/svg" xlink="http://www.w3.org/1999/xlink" width="16" height="16" viewBox="0 0 16 16"><path d="M13.953,8.713 L15.246,10.162 C15.534,10.484 15.582,10.952 15.365,11.325 L14.581,12.675 C14.364,13.048 13.932,13.241 13.508,13.154 L11.627,12.772 C11.227,13.076 10.791,13.336 10.322,13.533 L9.729,15.316 C9.592,15.725 9.21,16 8.779,16 L7.221,16 C6.79,16 6.408,15.725 6.271,15.316 L5.678,13.533 C5.209,13.336 4.773,13.076 4.373,12.772 L2.492,13.154 C2.068,13.241 1.636,13.048 1.419,12.675 L0.635,11.325 C0.418,10.952 0.466,10.484 0.754,10.162 L2.047,8.713 C2.019,8.479 2,8.242 2,8 C2,7.758 2.019,7.521 2.047,7.287 L0.754,5.838 C0.466,5.516 0.418,5.048 0.635,4.675 L1.419,3.325 C1.636,2.952 2.068,2.759 2.492,2.845 L4.373,3.228 C4.773,2.924 5.209,2.664 5.678,2.467 L6.271,0.684 C6.408,0.275 6.79,0 7.221,0 L8.779,0 C9.21,0 9.592,0.275 9.729,0.684 L10.322,2.467 C10.791,2.664 11.227,2.924 11.627,3.228 L13.508,2.845 C13.932,2.759 14.364,2.952 14.581,3.325 L15.365,4.675 C15.582,5.048 15.534,5.516 15.246,5.838 L13.953,7.287 C13.981,7.521 14,7.758 14,8 C14,8.242 13.981,8.479 13.953,8.713 Z M8,12 C10.209,12 12,10.209 12,8 C12,5.791 10.209,4 8,4 C5.791,4 4,5.791 4,8 C4,10.209 5.791,12 8,12 Z M8,6 C9.104,6 10,6.896 10,8 C10,9.104 9.104,10 8,10 C6.896,10 6,9.104 6,8 C6,6.896 6.896,6 8,6 Z"/></svg>
