<svg xmlns="http://www.w3.org/2000/svg" xlink="http://www.w3.org/1999/xlink" width="12" height="12" viewBox="0 0 12 12"><path d="M10.2112509,6.388 L11.3482509,7.741 C11.5182509,7.945 11.5492509,8.226 11.4242509,8.446 L10.7952509,9.554 C10.6702509,9.774 10.4162509,9.888 10.1562509,9.839 L8.39625088,9.507 C8.22125088,9.628 8.02925088,9.725 7.83625088,9.818 L7.21125088,11.581 C7.12125088,11.833 6.89525088,12 6.63925088,12 L5.36125088,12 C5.10525088,12 4.87925088,11.833 4.78925088,11.581 L4.16425088,9.818 C3.97125088,9.725 3.77925088,9.628 3.60425088,9.507 L1.84425088,9.839 C1.58425088,9.888 1.33025088,9.774 1.20525088,9.554 L0.576250877,8.446 C0.451250877,8.226 0.482250877,7.945 0.652250877,7.741 L1.78925088,6.388 C1.77725088,6.258 1.75025088,6.133 1.75025088,6 C1.75025088,5.867 1.77725088,5.742 1.78925088,5.612 L0.652250877,4.259 C0.482250877,4.055 0.451250877,3.774 0.576250877,3.554 L1.20525088,2.446 C1.33025088,2.226 1.58425088,2.112 1.84425088,2.161 L3.60425088,2.493 C3.77925088,2.372 3.97125088,2.275 4.16425088,2.182 L4.78925088,0.419 C4.87925088,0.167 5.10525088,0 5.36125088,0 L6.63925088,0 C6.89525088,0 7.12125088,0.167 7.21125088,0.419 L7.83625088,2.182 C8.02925088,2.275 8.22125088,2.372 8.39625088,2.493 L10.1562509,2.161 C10.4162509,2.112 10.6702509,2.226 10.7952509,2.446 L11.4242509,3.554 C11.5492509,3.774 11.5182509,4.055 11.3482509,4.259 L10.2112509,5.612 C10.2232509,5.742 10.2502509,5.867 10.2502509,6 C10.2502509,6.133 10.2232509,6.258 10.2112509,6.388 Z M6.00025088,9 C7.65625088,9 9.00025088,7.657 9.00025088,6 C9.00025088,4.343 7.65625088,3 6.00025088,3 C4.34425088,3 3.00025088,4.343 3.00025088,6 C3.00025088,7.657 4.34425088,9 6.00025088,9 Z M6.00025088,4.5 C6.82825088,4.5 7.50025088,5.171 7.50025088,6 C7.50025088,6.829 6.82825088,7.5 6.00025088,7.5 C5.17225088,7.5 4.50025088,6.829 4.50025088,6 C4.50025088,5.171 5.17225088,4.5 6.00025088,4.5 Z"/></svg>
