<svg xmlns="http://www.w3.org/2000/svg" xlink="http://www.w3.org/1999/xlink" width="22" height="22" viewBox="0 0 22 22"><path d="M4,3 L4,18 L18,18 C18,19.654 16.654,21 15,21 L4,21 C2.346,21 1,19.654 1,18 L1,3 C1,1.346 2.346,0 4,0 L12,0 C12.396,0 12.779,0.158 13.061,0.439 L17.561,4.939 C17.842,5.221 18,5.602 18,6 L18,9.004 L9,9 L9,3 L4,3 Z M11,2.604 L11,7 L15.396,7 L11,2.604 Z M6,17 L6,10 L11,10 L11,14 L8,14 L8,17 L6,17 Z M16,17 L12,17 L12,10 L17,10 L17,16 L16,16 L16,17 Z M22,11 L20,11 L20,13 L21,13 L21,14 L20,14 L20,17 L18,17 L18,10 L22,10 L22,11 Z M8,13 L9,13 L9,11 L8,11 L8,13 Z M14,16 L15,16 L15,11 L14,11 L14,16 Z"/></svg>
