<svg xmlns="http://www.w3.org/2000/svg" xlink="http://www.w3.org/1999/xlink" width="16" height="16" viewBox="0 0 16 16"><path d="M2,14 L11,14 L13,14 C13,15.1 12.1,16 11,16 L2,16 C0.9,16 0,15.1 0,14 L0,2 C0,0.9 0.9,0 2,0 L8.5,0 L13,4.5 L13,7 L11,7 L6,7 L6,2 L2,2 L2,7 L2,14 Z M8,2 L8,5 L11,5 L8,2 Z M3,8 L7,8 L7,11 L4,11 L4,13 L3,13 L3,8 Z M4,10 L6,10 L6,9 L4,9 L4,10 Z M8,8 L12,8 L12,12 L11,12 L11,9 L9,9 L9,12 L11,12 L11,13 L8,13 L8,8 Z M16,9 L14,9 L14,10 L16,10 L16,11 L14,11 L14,13 L13,13 L13,8 L16,8 L16,9 Z"/></svg>
