<svg xmlns="http://www.w3.org/2000/svg" xlink="http://www.w3.org/1999/xlink" width="12" height="12" viewBox="0 0 12 12"><path d="M0.9999,0.0003 L5.0009,0.0003 L8.9999,4.0003 L8.9999,5.9993 L7.9999,5.9993 L7.9999,4.9993 L3.9999,4.9993 L3.9999,1.0003 L1.9999,1.0003 L1.9999,5.9993 L0.9999,5.9993 L0.9999,0.0003 Z M5.0009,1.4143 L5.0009,4.0003 L7.5859,4.0003 L5.0009,1.4143 Z M0,6.9996 L3,6.9996 L3,10.0006 L1,10.0006 L1,11.9996 L0,11.9996 L0,6.9996 Z M1,9.0006 L2,9.0006 L2,8.0006 L1,8.0006 L1,9.0006 Z M3.9996,6.9996 L8.0006,6.9996 L8.0006,11.0006 L7.0006,11.0006 L7.0006,8.0006 L5.0006,8.0006 L5.0006,11.0006 L7.0006,11.0006 L7.0006,11.9996 L3.9996,11.9996 L3.9996,6.9996 Z M9,6.9996 L12,6.9996 L12,8.0006 L10,8.0006 L10,9.0006 L12,9.0006 L12,10.0006 L10,10.0006 L10,11.9996 L9,11.9996 L9,6.9996 Z"/></svg>
