<svg width="24" height="24" viewBox="0 0 24 24" xmlns="http://www.w3.org/2000/svg"><path fill-rule="evenodd" clip-rule="evenodd" d="m16.928 7.778-3.254 5.38a1.02 1.02 0 0 1-.322.322l-5.578 3.452c-.45.28-.968-.238-.688-.688l3.473-5.558a.984.984 0 0 1 .322-.323l5.36-3.273c.45-.28.967.239.687.688ZM13.004 12a1 1 0 0 1-2.002 0 .997.997 0 0 1 1.001-.996c.553 0 1 .443 1 .996Z"/><path fill-rule="evenodd" clip-rule="evenodd" d="M23 12c0 6.075-4.925 11-11 11S1 18.075 1 12 5.925 1 12 1s11 4.925 11 11Zm-2 0a9 9 0 1 1-18 0 9 9 0 0 1 18 0Z"/></svg>