<svg width="24" height="24" xmlns="http://www.w3.org/2000/svg">
  <path fill-rule="evenodd" clip-rule="evenodd" d="m23.95 13.64-1.34-4.13-2.66-8.2a.46.46 0 0 0-.87 0l-2.66 8.2H7.58L4.92 1.3a.46.46 0 0 0-.87 0l-2.66 8.2-1.34 4.13a.92.92 0 0 0 .33 1.02L12 23.11l11.62-8.45a.92.92 0 0 0 .33-1.02" fill="#FC6D26"/>
  <path d="M.04 13.64 1.4 9.51 12 23.1.38 14.66a.91.91 0 0 1-.33-1.02ZM12 23.11 22.61 9.5l1.35 4.13a.92.92 0 0 1-.34 1.02L12 23.11Z" fill="#FCA326"/>
  <path d="M1.39 9.5h6.19L4.92 1.33a.46.46 0 0 0-.87 0L1.39 9.5ZM12 23.1l4.42-13.6h6.2l-2.67-8.18a.46.46 0 0 0-.87 0L16.42 9.5H7.58L12 23.1Z" fill="#E24329"/>
</svg>
