<svg xmlns="http://www.w3.org/2000/svg" xlink="http://www.w3.org/1999/xlink" width="22" height="22" viewBox="0 0 22 22"><path d="M18.684,3.0001 C19.963,3.0001 21,4.0371 21,5.3161 L21,15.6841 C21,16.9631 19.963,18.0001 18.684,18.0001 L3.316,18.0001 C2.037,18.0001 1,16.9631 1,15.6841 L1,5.3161 C1,4.0371 2.037,3.0001 3.316,3.0001 L18.684,3.0001 Z M19,15.6841 L19,5.3161 C19,5.1421 18.858,5.0001 18.684,5.0001 L3.316,5.0001 C3.142,5.0001 3,5.1421 3,5.3161 L3,15.6841 C3,15.8581 3.142,16.0001 3.316,16.0001 L18.684,16.0001 C18.858,16.0001 19,15.8581 19,15.6841 Z M17.5313,6.2207 C17.8233,6.5137 17.8233,6.9887 17.5293,7.2817 L14.3203,10.4777 L17.5293,13.6757 C17.8233,13.9677 17.8233,14.4427 17.5313,14.7357 C17.2393,15.0297 16.7643,15.0307 16.4703,14.7377 L13.2583,11.5367 L10.9773,13.8087 L8.7423,11.5807 L5.5293,14.7817 C5.3833,14.9277 5.1913,14.9997 5.0003,14.9997 C4.8073,14.9997 4.6153,14.9267 4.4683,14.7797 C4.1773,14.4857 4.1773,14.0117 4.4703,13.7187 L7.6793,10.5217 L4.4703,7.3247 C4.1773,7.0327 4.1773,6.5577 4.4683,6.2637 C4.7603,5.9707 5.2353,5.9697 5.5293,6.2627 L10.9773,11.6917 L16.4703,6.2187 C16.7643,5.9257 17.2393,5.9277 17.5313,6.2207 Z"/></svg>
