<svg xmlns="http://www.w3.org/2000/svg" xlink="http://www.w3.org/1999/xlink" width="16" height="16" viewBox="0 0 16 16"><path d="M14,2 L2,2 C0.9,2 0,2.9 0,4 L0,12 C0,13.1 0.9,14 2,14 L14,14 C15.1,14 16,13.1 16,12 L16,4 C16,2.9 15.1,2 14,2 L14,2 Z M15,12 C15,12.552 14.552,13 14,13 L2,13 C1.448,13 1,12.552 1,12 L1,4 C1,3.448 1.448,3 2,3 L14,3 C14.552,3 15,3.448 15,4 L15,12 Z M13.8535,4.1465 C13.6585,3.9515 13.3415,3.9515 13.1465,4.1465 L7.9995,9.2925 L2.8535,4.1465 C2.6585,3.9515 2.3415,3.9515 2.1465,4.1465 C1.9515,4.3415 1.9515,4.6585 2.1465,4.8535 L5.2925,8.0005 L2.1465,11.1465 C1.9515,11.3415 1.9515,11.6585 2.1465,11.8535 C2.2445,11.9515 2.3725,12.0005 2.4995,12.0005 C2.6275,12.0005 2.7555,11.9515 2.8535,11.8535 L5.9995,8.7075 L7.9995,10.7075 L9.9995,8.7075 L13.1465,11.8535 C13.2445,11.9515 13.3725,12.0005 13.4995,12.0005 C13.6275,12.0005 13.7555,11.9515 13.8535,11.8535 C14.0485,11.6585 14.0485,11.3415 13.8535,11.1465 L10.7075,8.0005 L13.8535,4.8535 C14.0485,4.6585 14.0485,4.3415 13.8535,4.1465 Z"/></svg>
