<svg xmlns="http://www.w3.org/2000/svg" xlink="http://www.w3.org/1999/xlink" width="12" height="12" viewBox="0 0 12 12"><path d="M10.5,1 C11.326,1 12,1.674 12,2.5 L12,8.5 C12,9.325 11.326,10 10.5,10 L1.5,10 C0.675,10 0,9.325 0,8.5 L0,2.5 C0,1.674 0.675,1 1.5,1 L10.5,1 Z M11,8.5 L11,2.5 C11,2.225 10.775,2 10.5,2 L1.5,2 C1.229,2 1,2.229 1,2.5 L1,8.5 C1,8.771 1.229,9 1.5,9 L10.5,9 C10.771,9 11,8.771 11,8.5 Z M9.8535,3.1465 C10.0485,3.3415 10.0485,3.6585 9.8535,3.8535 L8.2075,5.5005 L9.8535,7.1465 C10.0485,7.3415 10.0485,7.6585 9.8535,7.8535 C9.7555,7.9515 9.6275,8.0005 9.4995,8.0005 C9.3725,8.0005 9.2445,7.9515 9.1465,7.8535 L7.4995,6.2075 L5.9995,7.7075 L4.4995,6.2075 L2.8535,7.8535 C2.7555,7.9515 2.6275,8.0005 2.4995,8.0005 C2.3725,8.0005 2.2445,7.9515 2.1465,7.8535 C1.9515,7.6585 1.9515,7.3415 2.1465,7.1465 L3.7925,5.5005 L2.1465,3.8535 C1.9515,3.6585 1.9515,3.3415 2.1465,3.1465 C2.3415,2.9515 2.6585,2.9515 2.8535,3.1465 L5.9995,6.2925 L9.1465,3.1465 C9.3415,2.9515 9.6585,2.9515 9.8535,3.1465 Z"/></svg>
