<svg xmlns="http://www.w3.org/2000/svg" xlink="http://www.w3.org/1999/xlink" width="22" height="22" viewBox="0 0 22 22"><path d="M17,19 C17.553,19 18,19.447 18,20 C18,20.553 17.553,21 17,21 L5,21 C4.447,21 4,20.553 4,20 C4,19.447 4.447,19 5,19 L17,19 Z M19,6 C20.104,6 21,6.896 21,8 C21,9.104 20.104,10 19,10 C18.929,10 18.861,9.986 18.791,9.979 L16.5,18 L5.5,18 L3.209,9.979 C3.139,9.986 3.071,10 3,10 C1.896,10 1,9.104 1,8 C1,6.896 1.896,6 3,6 C4.104,6 5,6.896 5,8 C5,8.553 4.776,9.053 4.414,9.414 L8,13 L10.428,4.907 C9.604,4.659 9,3.904 9,3 C9,1.896 9.896,1 11,1 C12.104,1 13,1.896 13,3 C13,3.904 12.396,4.659 11.572,4.907 L14,13 L17.586,9.414 C17.224,9.053 17,8.553 17,8 C17,6.896 17.896,6 19,6 Z"/></svg>
