<svg xmlns="http://www.w3.org/2000/svg" xlink="http://www.w3.org/1999/xlink" width="16" height="16" viewBox="0 0 16 16"><path d="M3,13 L1.5,7 C0.7,7 0,6.3 0,5.5 C0,4.7 0.7,4 1.5,4 C2.3,4 3,4.7 3,5.5 C3,5.8 2.9,6.1 2.7,6.4 L6,9 L7.5,2.9 C6.9,2.7 6.5,2.2 6.5,1.5 C6.5,0.7 7.2,0 8,0 C8.8,0 9.5,0.7 9.5,1.5 C9.5,2.1 9.1,2.7 8.5,2.9 L10,9 L13.3,6.4 C13.1,6.1 13,5.8 13,5.5 C13,4.7 13.7,4 14.5,4 C15.3,4 16,4.7 16,5.5 C16,6.3 15.3,7 14.5,7 L13,13 L3,13 Z M3,16 C2.4,16 2,15.6 2,15 C2,14.4 2.4,14 3,14 L13,14 C13.6,14 14,14.4 14,15 C14,15.6 13.6,16 13,16 L3,16 Z"/></svg>
