<svg xmlns="http://www.w3.org/2000/svg" xlink="http://www.w3.org/1999/xlink" width="12" height="12" viewBox="0 0 12 12"><path d="M2,12 L2,11 L10,11 L10,12 L2,12 Z M10.875,3 C11.496,3 12,3.504 12,4.125 C12,4.746 11.496,5.25 10.875,5.25 C10.812,5.25 10.757,5.224 10.696,5.214 L9.5,10 L2.5,10 L1.304,5.214 C1.243,5.224 1.188,5.25 1.125,5.25 C0.504,5.25 0,4.746 0,4.125 C0,3.504 0.504,3 1.125,3 C1.746,3 2.25,3.504 2.25,4.125 C2.25,4.436 2.124,4.717 1.92,4.92 L4,7 L5.609,2.171 C5.183,2.012 4.875,1.607 4.875,1.125 C4.875,0.504 5.379,0 6,0 C6.621,0 7.125,0.504 7.125,1.125 C7.125,1.607 6.817,2.012 6.391,2.171 L8,7 L10.08,4.92 C9.876,4.717 9.75,4.436 9.75,4.125 C9.75,3.504 10.254,3 10.875,3 Z"/></svg>
