<svg xmlns="http://www.w3.org/2000/svg" xlink="http://www.w3.org/1999/xlink" width="22" height="22" viewBox="0 0 22 22"><path d="M17.5,4 C19.434,4 21,5.567 21,7.5 L21,17.5 C21,19.433 19.434,21 17.5,21 L3.5,21 C1.566,21 0,19.433 0,17.5 L0,7.5 C0,5.567 1.566,4 3.5,4 L6,4 L6,3 C6,1.346 7.346,0 9,0 L12,0 C13.654,0 15,1.346 15,3 L15,4 L17.5,4 Z M15,14 L15,11 L12,11 L12,8 L9,8 L9,11 L6,11 L6,14 L9,14 L9,17 L12,17 L12,14 L15,14 Z M8,3 L8,4 L13,4 L13,3 C13,2.448 12.552,2 12,2 L9,2 C8.448,2 8,2.448 8,3 Z"/></svg>
