<svg xmlns="http://www.w3.org/2000/svg" xlink="http://www.w3.org/1999/xlink" width="16" height="16" viewBox="0 0 16 16"><path d="M13.5,3 C14.881,3 16,4.119 16,5.5 L16,12.5 C16,13.881 14.881,15 13.5,15 L2.5,15 C1.119,15 0,13.881 0,12.5 L0,5.5 C0,4.119 1.119,3 2.5,3 L4.75,3 L4.75,2.25 C4.75,1.01 5.76,0 7,0 L9,0 C10.24,0 11.25,1.01 11.25,2.25 L11.25,3 L13.5,3 Z M11,10 L11,8 L9,8 L9,6 L7,6 L7,8 L5,8 L5,10 L7,10 L7,12 L9,12 L9,10 L11,10 Z M6.25,2.25 L6.25,3 L9.75,3 L9.75,2.25 C9.75,1.837 9.413,1.5 9,1.5 L7,1.5 C6.587,1.5 6.25,1.837 6.25,2.25 Z"/></svg>
