<svg xmlns="http://www.w3.org/2000/svg" xlink="http://www.w3.org/1999/xlink" width="22" height="22" viewBox="0 0 22 22"><path d="M11,0.0005 C17.075,0.0005 22,4.9245 22,11.0005 C22,17.0755 17.075,22.0005 11,22.0005 C4.925,22.0005 0,17.0755 0,11.0005 C0,4.9245 4.925,0.0005 11,0.0005 Z M12,19.6885 C16.026,19.2275 19.228,16.0265 19.688,12.0005 L15,12.0005 L15,10.0005 L19.688,10.0005 C19.228,5.9735 16.026,2.7725 12,2.3115 L12,7.0005 L10,7.0005 L10,2.3115 C5.974,2.7725 2.772,5.9735 2.312,10.0005 L7,10.0005 L7,12.0005 L2.312,12.0005 C2.772,16.0265 5.974,19.2275 10,19.6885 L10,15.0005 L12,15.0005 L12,19.6885 Z"/></svg>
