<svg xmlns="http://www.w3.org/2000/svg" xlink="http://www.w3.org/1999/xlink" width="16" height="16" viewBox="0 0 16 16"><path d="M8,-0.0001 C3.6,-0.0001 0,3.5999 0,7.9999 C0,12.3999 3.6,15.9999 8,15.9999 C12.4,15.9999 16,12.3999 16,7.9999 C16,3.5999 12.4,-0.0001 8,-0.0001 M9,13.8999 L9,9.9999 L7,9.9999 L7,13.8999 C4.5,13.4999 2.5,11.4999 2.1,8.9999 L6,8.9999 L6,6.9999 L2.1,6.9999 C2.5,4.4999 4.5,2.4999 7,2.0999 L7,5.9999 L9,5.9999 L9,2.0999 C11.5,2.4999 13.5,4.4999 13.9,6.9999 L10,6.9999 L10,8.9999 L13.9,8.9999 C13.5,11.4999 11.5,13.4999 9,13.8999"/></svg>
