<svg xmlns="http://www.w3.org/2000/svg" xlink="http://www.w3.org/1999/xlink" width="12" height="12" viewBox="0 0 12 12"><path d="M6,9.9004 L6,7.0004 L5,7.0004 L5,9.9004 C2.9,9.7004 1.3,8.0994 1.1,6.0004 L4,6.0004 L4,5.0004 L1.1,5.0004 C1.3,2.9004 2.9,1.2994 5,1.1004 L5,4.0004 L6,4.0004 L6,1.1004 C8.1,1.2994 9.7,2.9004 9.9,5.0004 L7,5.0004 L7,6.0004 L9.9,6.0004 C9.7,8.0994 8.1,9.7004 6,9.9004 M5.5,0.0004 C2.5,0.0004 0,2.5004 0,5.5004 C0,8.5004 2.5,11.0004 5.5,11.0004 C8.5,11.0004 11,8.5004 11,5.5004 C11,2.5004 8.5,0.0004 5.5,0.0004"/></svg>
