<svg xmlns="http://www.w3.org/2000/svg" xlink="http://www.w3.org/1999/xlink" width="22" height="22" viewBox="0 0 22 22"><path d="M11.5,1 C7.359,1 4,4.3 4,8.37 C4,8.686 4.026,8.986 4.065,9.289 C4.706,15.041 11.016,21.68 11.016,21.68 C11.128,21.801 11.335,22 11.5,22 C11.665,22 11.872,21.801 11.984,21.68 C11.984,21.68 18.294,15.041 18.935,9.289 C18.974,8.986 19,8.686 19,8.37 C19,4.3 15.641,1 11.5,1 M11.5,12 C9.567,12 8,10.433 8,8.5 C8,6.567 9.567,5 11.5,5 C13.433,5 15,6.567 15,8.5 C15,10.433 13.433,12 11.5,12"/></svg>
