<svg xmlns="http://www.w3.org/2000/svg" xlink="http://www.w3.org/1999/xlink" width="22" height="22" viewBox="0 0 22 22"><path d="M11.9997,1.0002 L21.9997,1.0002 L21.9997,4.0002 L15.0007,4.0002 L15.0007,18.0002 L21.9997,18.0002 L21.9997,21.0002 L11.9997,21.0002 L11.9997,1.0002 Z M17,16 L17,14 L21.999,14 L21.999,16 L17,16 Z M17,12 L17,10 L21.999,10 L21.999,12 L17,12 Z M17,8 L17,5.999 L21.999,5.999 L21.999,8 L17,8 Z M0,10.9983 L6,4.9993 L7.398,6.3993 L3.799,9.9993 L10,9.9993 L10,11.9983 L3.799,11.9983 L7.398,15.5983 L6,17.0003 L0,10.9983 Z"/></svg>
