<svg xmlns="http://www.w3.org/2000/svg" xlink="http://www.w3.org/1999/xlink" width="16" height="16" viewBox="0 0 16 16"><path d="M9.9999,-0.0003 L15.9989,-0.0003 L15.9989,2.0007 L11.9999,2.0007 L11.9999,13.0007 L15.9989,13.0007 L15.9989,14.9997 L9.9999,14.9997 L9.9999,-0.0003 Z M13,7 L13,6 L16,6 L16,7 L13,7 Z M13,5 L13,4 L16,4 L16,5 L13,5 Z M13,9 L13,8 L16,8 L16,9 L13,9 Z M13,11 L13,9.999 L16,9.999 L16,11 L13,11 Z M0.0009,7.0008 L5.0059,2.0008 L6.2399,3.2328 L3.4689,5.9998 L7.9989,5.9998 L7.9989,7.9998 L3.4689,7.9998 L6.2389,10.7678 L5.0059,12.0008 L0.0009,7.0008 Z"/></svg>
