<svg xmlns="http://www.w3.org/2000/svg" xlink="http://www.w3.org/1999/xlink" width="12" height="12" viewBox="0 0 12 12"><path d="M7.0002,0.0002 L11.9992,0.0002 L11.9992,1.0002 L8.0002,1.0002 L8.0002,10.0002 L11.9992,10.0002 L11.9992,11.0002 L7.0002,11.0002 L7.0002,0.0002 Z M9,9 L9,8 L12,8 L12,9 L9,9 Z M9,7 L9,5.999 L12,5.999 L12,7 L9,7 Z M9,5 L9,4 L12,4 L12,5 L9,5 Z M9,3 L9,2 L12,2 L12,3 L9,3 Z M0,5.5001 L3.353,2.1471 L4.061,2.8531 L1.914,5.0001 L6,5.0001 L6,5.9991 L1.914,5.9991 L4.061,8.1461 L3.353,8.8531 L0,5.5001 Z"/></svg>
