<svg width="16" height="16" viewBox="0 0 16 16" xmlns="http://www.w3.org/2000/svg">
  <path d="M9.48 1.15a.07.07 0 0 0-.04-.13L8.5.86 8.07.04a.08.08 0 0 0-.14 0L7.5.86l-.93.16a.07.07 0 0 0-.04.13l.66.66-.14.92c0 .06.06.1.11.07L8 2.4l.85.4c.05.03.11-.01.1-.07l-.13-.92.66-.66ZM5.48 2.15a.07.07 0 0 0-.04-.13l-.93-.16-.44-.82a.08.08 0 0 0-.14 0l-.44.82-.93.16a.07.07 0 0 0-.04.13l.66.66-.14.92c0 .06.06.1.11.07L4 3.4l.85.4c.05.03.11-.01.1-.07l-.13-.92.66-.66ZM13.44 2.02c.06 0 .08.08.04.13l-.66.66.14.92c0 .06-.06.1-.11.07L12 3.4l-.85.4a.08.08 0 0 1-.1-.07l.13-.92-.66-.66a.07.07 0 0 1 .04-.13l.93-.16.44-.82c.03-.05.1-.05.14 0l.44.82.93.16ZM7 8a1 1 0 1 0 0 2h2a1 1 0 0 0 0-2H7Z"/>
  <path fill-rule="evenodd" clip-rule="evenodd" d="M15 16a1 1 0 0 0 1-1V9a1 1 0 0 0-1-1h-2V6a1 1 0 0 0-1-1H4a1 1 0 0 0-1 1v4H1a1 1 0 0 0-1 1v4a1 1 0 0 0 1 1h14ZM5 7v7h2v-1a1 1 0 1 1 2 0v1h2V7H5Zm9 7h-1v-4h1v4ZM3 14v-2H2v2h1Z"/>
</svg>
