<svg width="480" height="455" viewBox="0 0 480 455" fill="none" xmlns="http://www.w3.org/2000/svg">
<g clip-path="url(#clip0)">
<path d="M361.284 371.192C327.593 404.909 281.123 425.721 229.774 425.721V438.51C229.774 441.068 227.683 443.161 225.127 443.161C116.503 440.719 28.9064 353.054 26.4667 244.345C26.3506 241.787 28.5579 239.695 31.1138 239.695H43.8931C43.8931 136.915 127.191 53.5524 229.89 53.5524V40.7631C229.89 38.2052 231.981 36.1124 234.537 36.1124C287.164 37.2751 334.912 58.5518 370.346 92.3853C372.205 94.1293 372.205 97.1523 370.346 99.0125L361.4 108.081C395.091 141.798 415.887 188.305 415.887 239.695H428.666C431.222 239.695 433.313 241.787 433.313 244.345C432.151 297.014 410.891 344.799 377.084 380.261C375.341 382.121 372.321 382.121 370.462 380.261L361.284 371.192Z" fill="#B880FF"/>
<path fill-rule="evenodd" clip-rule="evenodd" d="M215.202 323.692L143.673 356.354C139.575 358.258 135.428 357.33 132.354 354.938C127.767 351.374 125.669 344.588 129.621 339.071L181.731 267.009C183.487 264.617 186.415 263.884 189.049 264.763C190.562 265.251 191.977 266.326 192.953 267.888L218.812 310.51C221.788 315.343 220.081 321.495 215.202 323.692Z" fill="black" stroke="black" stroke-width="3.57905" stroke-miterlimit="10" stroke-linecap="round" stroke-linejoin="round"/>
<path fill-rule="evenodd" clip-rule="evenodd" d="M189.098 264.764C186.512 263.885 183.536 264.617 181.779 267.009L129.67 339.071C125.669 344.588 129.963 352.693 134.549 356.257L104.494 342.147C101.176 339.852 100.151 335.947 102.396 332.822L102.445 332.773L158.018 255.878L158.067 255.829C159.579 253.779 162.312 253.046 164.751 254.12L189.098 264.764Z" fill="white" stroke="black" stroke-width="3.57905" stroke-miterlimit="10" stroke-linecap="round" stroke-linejoin="round"/>
<path d="M190.269 265.3L189.098 264.763" stroke="black" stroke-width="3.57905" stroke-miterlimit="10" stroke-linecap="round" stroke-linejoin="round"/>
<path d="M132.256 335.458L107.568 325.742" stroke="black" stroke-width="3.57905" stroke-miterlimit="10" stroke-linecap="round" stroke-linejoin="round"/>
<path d="M174.314 277.408L148.455 269.157" stroke="black" stroke-width="3.57905" stroke-miterlimit="10" stroke-linecap="round" stroke-linejoin="round"/>
<path d="M160.457 296.498L146.357 290.249" stroke="black" stroke-width="3.57905" stroke-miterlimit="10" stroke-linecap="round" stroke-linejoin="round"/>
<path d="M146.21 316.173L121.18 306.848" stroke="black" stroke-width="3.57905" stroke-miterlimit="10" stroke-linecap="round" stroke-linejoin="round"/>
<path fill-rule="evenodd" clip-rule="evenodd" d="M360.502 302.064C350.744 314.855 336.448 342.782 334.887 343.123C332.838 343.563 336.497 317.101 330.837 318.468C325.177 319.835 307.173 363.092 307.173 363.092L299.855 374.907C300.294 374.272 366.943 340.292 393.339 326.963C406.952 320.079 455.109 293.813 453.499 286.001C450.864 273.405 361.429 329.404 361.429 329.404C361.429 329.404 374.896 295.766 367.626 295.766C365.918 295.766 363.43 298.256 360.502 302.064Z" fill="white" stroke="#B880FF" stroke-width="3.57905" stroke-miterlimit="10"/>
<path d="M296.049 394.778L313.028 386.282" stroke="black" stroke-width="3.57905" stroke-miterlimit="10" stroke-linecap="round" stroke-linejoin="round"/>
<path d="M249.794 416.455L296.048 394.777" stroke="black" stroke-width="3.57905" stroke-miterlimit="10" stroke-linecap="round" stroke-linejoin="round"/>
<path fill-rule="evenodd" clip-rule="evenodd" d="M310.979 336.971C310.979 336.971 337.18 288.198 330.642 285.22C324.104 282.29 310.979 336.971 310.979 336.971Z" fill="white"/>
<path fill-rule="evenodd" clip-rule="evenodd" d="M332.691 309.924C332.691 309.924 356.697 294.643 352.793 290.591C348.841 286.587 332.691 309.924 332.691 309.924Z" fill="white"/>
<path fill-rule="evenodd" clip-rule="evenodd" d="M274.922 152.374L104.542 118.296C103.03 118.003 101.664 116.246 101.468 114.391L89.9048 12.9866C89.6608 11.0825 90.6855 9.47137 92.1492 9.42254L270.628 0.878633C273.702 0.732166 275.117 3.36857 275.361 6.15145L286.485 142.317C287.022 148.664 281.265 153.741 275.019 152.423C274.971 152.423 274.971 152.374 274.922 152.374Z" fill="white" stroke="black" stroke-width="3.57905" stroke-miterlimit="10" stroke-linecap="round" stroke-linejoin="round"/>
<path fill-rule="evenodd" clip-rule="evenodd" d="M276.825 152.814L104.494 118.296C103.03 118.003 101.713 116.246 101.469 114.39L89.6611 13.0353C89.4171 11.1312 90.393 9.52007 91.8567 9.47125L263.846 2.48965C266.823 2.39201 269.409 4.54019 269.653 7.32306L281.753 149.201C281.997 151.837 279.753 153.448 276.825 152.814Z" fill="white"/>
<path fill-rule="evenodd" clip-rule="evenodd" d="M90.637 9.86148C90.637 9.86148 158.067 86.4149 171.045 88.1237C185.39 89.979 267.408 3.95398 267.408 3.95398" fill="white"/>
<path fill-rule="evenodd" clip-rule="evenodd" d="M276.825 152.814L104.494 118.296C103.03 118.003 101.713 116.246 101.469 114.39L89.6611 13.0353C89.4171 11.1312 90.393 9.52007 91.8567 9.47125L263.846 2.48965C266.823 2.39201 269.409 4.54019 269.653 7.32306L281.753 149.201C281.997 151.837 279.753 153.448 276.825 152.814Z" fill="white" stroke="black" stroke-width="2.55647" stroke-miterlimit="10" stroke-linecap="round" stroke-linejoin="round"/>
<path fill-rule="evenodd" clip-rule="evenodd" d="M90.637 9.86148C90.637 9.86148 158.067 86.4149 171.045 88.1237C185.39 89.979 267.408 3.95398 267.408 3.95398" fill="white"/>
<path d="M90.637 9.86148C90.637 9.86148 158.067 86.4149 171.045 88.1237C185.39 89.979 267.408 3.95398 267.408 3.95398" stroke="black" stroke-width="2.55647" stroke-miterlimit="10" stroke-linecap="round" stroke-linejoin="round"/>
<path d="M275.898 141.194L194.416 73.7214" stroke="black" stroke-width="2.55647" stroke-miterlimit="10" stroke-linecap="round" stroke-linejoin="round"/>
<path d="M109.031 109.46L146.6 69.181" stroke="black" stroke-width="2.55647" stroke-miterlimit="10" stroke-linecap="round" stroke-linejoin="round"/>
<path d="M276.825 152.814L104.494 118.296C103.03 118.003 101.713 116.246 101.469 114.39L89.6611 13.0353C89.4171 11.1312 90.393 9.52007 91.8567 9.47125L263.846 2.48965C266.823 2.39201 269.409 4.54019 269.653 7.32306L281.753 149.201C281.997 151.837 279.753 153.448 276.825 152.814Z" stroke="black" stroke-width="3.57905" stroke-miterlimit="10" stroke-linecap="round" stroke-linejoin="round"/>
<path d="M90.637 9.86148C90.637 9.86148 158.067 86.4149 171.045 88.1237C185.39 89.979 267.408 3.95398 267.408 3.95398" stroke="black" stroke-width="3.57905" stroke-miterlimit="10" stroke-linecap="round" stroke-linejoin="round"/>
<path d="M275.898 141.194L194.416 73.7214" stroke="black" stroke-width="3.57905" stroke-miterlimit="10" stroke-linecap="round" stroke-linejoin="round"/>
<path d="M109.031 109.46L146.6 69.181" stroke="black" stroke-width="3.57905" stroke-miterlimit="10" stroke-linecap="round" stroke-linejoin="round"/>
<path fill-rule="evenodd" clip-rule="evenodd" d="M152.749 266.375L142.893 253.779L137.428 253.339L116.497 147.981L129.378 142.854L152.749 266.375Z" fill="#B880FF" stroke="black" stroke-width="3.57905" stroke-miterlimit="10" stroke-linecap="round" stroke-linejoin="round"/>
<path fill-rule="evenodd" clip-rule="evenodd" d="M158.067 265.642L148.406 270.134C147.43 270.573 146.308 270.036 146.162 268.962L123.327 148.566L136.208 143.538L159.043 263.836C159.189 264.568 158.799 265.301 158.067 265.642Z" fill="black" stroke="black" stroke-width="3.57905" stroke-miterlimit="10" stroke-linecap="round" stroke-linejoin="round"/>
<path fill-rule="evenodd" clip-rule="evenodd" d="M127.231 108.727L120.302 107.8C114.838 109.655 111.422 115.367 112.398 121.079L116.399 147.688L123.327 148.615" fill="#B880FF"/>
<path d="M127.231 108.727L120.302 107.8C114.838 109.655 111.422 115.367 112.398 121.079L116.399 147.688L123.327 148.615" stroke="black" stroke-width="3.57905" stroke-miterlimit="10" stroke-linecap="round" stroke-linejoin="round"/>
<path fill-rule="evenodd" clip-rule="evenodd" d="M123.328 148.566L136.208 143.538L137.087 141.731C138.014 139.876 138.306 137.777 137.867 135.726L135.721 124.546L129.134 123.228L127.182 108.727C121.669 110.583 118.302 116.295 119.278 122.007L123.328 148.566Z" fill="white" stroke="black" stroke-width="3.57905" stroke-miterlimit="10" stroke-linecap="round" stroke-linejoin="round"/>
<path d="M224.274 370.6C258.786 366.68 284.844 346.583 282.476 325.712C280.108 304.842 250.211 291.101 215.699 295.022C181.187 298.942 155.129 319.039 157.497 339.91C159.865 360.78 189.762 374.521 224.274 370.6Z" fill="black" stroke="black" stroke-width="3.57905" stroke-miterlimit="10" stroke-linecap="round" stroke-linejoin="round"/>
<path fill-rule="evenodd" clip-rule="evenodd" d="M264.237 207.349L285.803 311.145L286.681 315.246C288.925 335.654 262.432 355.866 226.131 360.944C188.708 366.168 155.042 353.376 150.894 332.334L130.695 235.08L264.237 207.349Z" fill="white" stroke="black" stroke-width="3.57905" stroke-miterlimit="10" stroke-linecap="round" stroke-linejoin="round"/>
<path fill-rule="evenodd" clip-rule="evenodd" d="M130.256 233.371C130.061 232.394 129.963 231.418 129.866 230.49C130.061 232.053 130.353 233.615 130.646 235.177C130.549 234.591 130.402 234.005 130.256 233.371Z" fill="white" stroke="black" stroke-width="3.57905" stroke-miterlimit="10" stroke-linecap="round" stroke-linejoin="round"/>
<path fill-rule="evenodd" clip-rule="evenodd" d="M267.897 225.754L265.896 216.136L264.676 219.603C254.43 206.177 225.448 199.097 193.636 203.443C169.24 206.763 149.138 215.941 139.234 227.024L130.256 233.371L132.793 245.674C136.599 263.885 170.021 274.528 207.444 269.45C244.867 264.373 272.093 245.479 268.287 227.219C268.189 226.731 268.043 226.243 267.897 225.754Z" fill="black" stroke="black" stroke-width="3.57905" stroke-miterlimit="10" stroke-linecap="round" stroke-linejoin="round"/>
<path fill-rule="evenodd" clip-rule="evenodd" d="M286.339 313.439C286.437 314.025 286.535 314.66 286.632 315.295L285.754 311.194C285.998 311.926 286.193 312.707 286.339 313.439Z" fill="white" stroke="black" stroke-width="3.57905" stroke-miterlimit="10" stroke-linecap="round" stroke-linejoin="round"/>
<path fill-rule="evenodd" clip-rule="evenodd" d="M266.091 216.136C266.823 219.944 266.579 223.753 265.359 227.463C260.041 244.209 236.328 258.953 205.638 262.81C169.191 267.449 136.354 255.145 130.695 235.177C130.353 233.615 130.109 232.052 129.914 230.49C125.084 195.289 148.26 161.846 183.584 154.474C220.471 146.809 256.576 170.487 264.237 207.348C264.578 209.106 265.896 214.916 266.091 216.136Z" fill="white"/>
<path fill-rule="evenodd" clip-rule="evenodd" d="M194.368 153.351C210.566 153.4 225.155 164.58 234.279 181.815C230.424 186.941 223.642 191.481 214.957 194.704C210.566 170.585 201.637 153.742 191.733 153.742C198.808 153.937 205.443 171.659 208.663 196.705C205.053 197.682 201.198 198.463 197.149 198.951C190.074 199.83 183.243 199.83 176.949 199.049C178.51 172.88 184.121 154.035 191.44 153.693C181.243 154.083 173.094 172.392 170.411 197.926C162.604 196.168 156.164 193.19 151.968 189.236C159.579 168.633 174.607 154.328 192.465 153.351C173.875 154.279 157.969 167.021 149.089 185.769C148.113 184.256 147.479 182.693 147.137 181.033C146.747 179.032 146.796 177.079 147.333 175.126C156.652 164.971 169.142 157.501 183.682 154.474C202.272 150.617 220.617 154.669 235.255 164.434C236.426 166.094 237.206 167.9 237.597 169.755C238.182 172.636 237.743 175.468 236.474 178.251C226.277 162.969 211.103 153.253 194.368 153.351Z" fill="#B880FF"/>
<path d="M192.839 164.258C198.606 163.71 203.048 160.806 202.76 157.773C202.472 154.74 197.563 152.726 191.795 153.274C186.028 153.823 181.586 156.726 181.874 159.759C182.162 162.793 187.071 164.807 192.839 164.258Z" fill="white" stroke="#B880FF" stroke-width="3.57905" stroke-miterlimit="10" stroke-linecap="round" stroke-linejoin="round"/>
<path fill-rule="evenodd" clip-rule="evenodd" d="M266.091 216.136C266.823 219.944 266.579 223.753 265.359 227.463C260.041 244.209 236.328 258.953 205.638 262.81C169.191 267.449 136.354 255.145 130.695 235.177C130.353 233.615 130.109 232.052 129.914 230.49C125.084 195.289 148.26 161.846 183.584 154.474C220.471 146.809 256.576 170.487 264.237 207.348C264.578 209.106 265.896 214.916 266.091 216.136Z" stroke="black" stroke-width="3.57905" stroke-miterlimit="10" stroke-linecap="round" stroke-linejoin="round"/>
<path fill-rule="evenodd" clip-rule="evenodd" d="M138.599 215.404C139.331 221.751 141.624 241.426 142.795 250.996C142.161 250.507 141.527 250.068 140.892 249.58L136.94 215.599C136.891 215.062 137.428 214.721 137.867 215.014C138.111 215.111 138.355 215.258 138.599 215.404Z" stroke="black" stroke-width="3.57905" stroke-miterlimit="10" stroke-linecap="round" stroke-linejoin="round"/>
<path fill-rule="evenodd" clip-rule="evenodd" d="M187.878 225.852L193.099 263.787C172.655 264.275 154.358 259.393 142.746 251.044C141.624 241.475 139.331 221.751 138.55 215.453C150.894 222.386 167.727 226.242 187 225.217C187.439 225.12 187.829 225.413 187.878 225.852Z" fill="#B880FF" stroke="black" stroke-width="3.57905" stroke-miterlimit="10" stroke-linecap="round" stroke-linejoin="round"/>
<path d="M174.509 250.361L178.949 243.135L184.951 251.826" stroke="white" stroke-width="3.57905" stroke-miterlimit="10" stroke-linecap="round" stroke-linejoin="round"/>
<path d="M144.991 243.819L149.431 236.593L154.505 245.479" stroke="white" stroke-width="3.57905" stroke-miterlimit="10" stroke-linecap="round" stroke-linejoin="round"/>
<path d="M218.52 247.09C223.855 247.09 228.18 242.762 228.18 237.423C228.18 232.084 223.855 227.756 218.52 227.756C213.184 227.756 208.859 232.084 208.859 237.423C208.859 242.762 213.184 247.09 218.52 247.09Z" stroke="black" stroke-width="3.57905" stroke-miterlimit="10" stroke-linecap="round" stroke-linejoin="round"/>
<path d="M283.412 300.013L282.583 295.912L272.385 246.357L271.312 241.622C271.263 241.475 271.263 241.329 271.214 241.182" stroke="black" stroke-width="3.57905" stroke-miterlimit="10" stroke-linecap="round" stroke-linejoin="round"/>
<path d="M271.36 241.671C274.629 259.784 247.501 278.385 210.371 283.414C173.387 288.394 140.307 277.994 135.915 260.174L147.625 316.955C151.724 337.997 185.39 350.837 222.813 345.662C250.77 341.805 272.922 328.916 280.631 313.928" stroke="black" stroke-width="3.57905" stroke-miterlimit="10" stroke-linecap="round" stroke-linejoin="round"/>
<path fill-rule="evenodd" clip-rule="evenodd" d="M164.751 337.412C161.677 321.544 153.92 286.002 151.87 276.725L164.751 337.412Z" fill="white"/>
<path d="M164.751 337.412C161.677 321.544 153.92 286.002 151.87 276.725" stroke="black" stroke-width="3.57905" stroke-miterlimit="10" stroke-linecap="round" stroke-linejoin="round"/>
<path fill-rule="evenodd" clip-rule="evenodd" d="M181.438 284.195C183.829 295.034 191.879 331.943 194.563 346.151L181.438 284.195Z" fill="white"/>
<path d="M181.438 284.195C183.829 295.034 191.879 331.943 194.563 346.151" stroke="black" stroke-width="3.57905" stroke-miterlimit="10" stroke-linecap="round" stroke-linejoin="round"/>
<path fill-rule="evenodd" clip-rule="evenodd" d="M209.639 283.511C211.591 292.397 219.885 330.186 222.813 345.662L209.639 283.511Z" fill="white"/>
<path d="M209.639 283.511C211.591 292.397 219.885 330.186 222.813 345.662" stroke="black" stroke-width="3.57905" stroke-miterlimit="10" stroke-linecap="round" stroke-linejoin="round"/>
<path fill-rule="evenodd" clip-rule="evenodd" d="M250.087 338.388C247.16 323.302 240.183 291.225 237.109 276.92L250.087 338.388Z" fill="white"/>
<path d="M250.087 338.388C247.16 323.302 240.183 291.225 237.109 276.92" stroke="black" stroke-width="3.57905" stroke-miterlimit="10" stroke-linecap="round" stroke-linejoin="round"/>
<path fill-rule="evenodd" clip-rule="evenodd" d="M262.724 262.078C265.945 276.92 271.849 304.407 275.362 321.544L262.724 262.078Z" fill="white"/>
<path d="M262.724 262.078C265.945 276.92 271.849 304.407 275.362 321.544" stroke="black" stroke-width="3.57905" stroke-miterlimit="10" stroke-linecap="round" stroke-linejoin="round"/>
<path d="M218.519 243.526C221.888 243.526 224.618 240.794 224.618 237.423C224.618 234.053 221.888 231.321 218.519 231.321C215.151 231.321 212.42 234.053 212.42 237.423C212.42 240.794 215.151 243.526 218.519 243.526Z" fill="#B880FF"/>
<path d="M229.888 315.978C232.717 315.978 235.011 313.683 235.011 310.852C235.011 308.02 232.717 305.725 229.888 305.725C227.058 305.725 224.765 308.02 224.765 310.852C224.765 313.683 227.058 315.978 229.888 315.978Z" fill="#B880FF" stroke="#B880FF" stroke-width="3.57905" stroke-miterlimit="10" stroke-linecap="round" stroke-linejoin="round"/>
<path d="M226.912 301.526C229.741 301.526 232.035 299.231 232.035 296.4C232.035 293.569 229.741 291.274 226.912 291.274C224.082 291.274 221.788 293.569 221.788 296.4C221.788 299.231 224.082 301.526 226.912 301.526Z" fill="white" stroke="black" stroke-width="3.57905" stroke-miterlimit="10" stroke-linecap="round" stroke-linejoin="round"/>
<path d="M161.433 295.522C166.459 297.328 172.216 298.549 177.876 299.379" stroke="black" stroke-width="3.57905" stroke-miterlimit="10" stroke-linecap="round" stroke-linejoin="round"/>
<path d="M163.336 302.845C168.362 304.652 173.68 305.775 179.34 306.605" stroke="black" stroke-width="3.57905" stroke-miterlimit="10" stroke-linecap="round" stroke-linejoin="round"/>
<path fill-rule="evenodd" clip-rule="evenodd" d="M178.462 314.367C174.168 313.488 170.167 312.317 166.459 310.852C165.288 310.413 164.41 309.387 164.166 308.167C162.605 300.795 161.092 293.862 159.921 288.638C159.58 287.173 160.994 285.904 162.409 286.343C165.727 287.368 169.289 288.247 173.046 288.882C174.656 289.175 175.973 290.395 176.315 292.055L180.609 312.219C180.853 313.488 179.73 314.611 178.462 314.367Z" stroke="black" stroke-width="3.57905" stroke-miterlimit="10" stroke-linecap="round" stroke-linejoin="round"/>
<path fill-rule="evenodd" clip-rule="evenodd" d="M169.191 331.943C168.313 327.744 167.337 323.155 166.361 318.419C166.166 317.589 166.995 316.955 167.727 317.248C171.679 318.761 176.022 319.982 180.608 320.909C181.779 321.153 182.706 322.081 182.95 323.253L185.536 335.556C185.78 336.777 184.707 337.899 183.487 337.655C178.998 336.728 174.753 335.458 170.85 333.945C169.972 333.603 169.386 332.822 169.191 331.943Z" fill="white" stroke="black" stroke-width="3.57905" stroke-miterlimit="10" stroke-linecap="round" stroke-linejoin="round"/>
<path fill-rule="evenodd" clip-rule="evenodd" d="M269.019 296.059L260.188 296.498C251.259 296.987 245.599 288.296 243.94 277.506L238.768 243.624L249.795 235.275L259.602 234.738" fill="#B880FF"/>
<path d="M269.019 296.059L260.188 296.498C251.259 296.987 245.599 288.296 243.94 277.506L238.768 243.624L249.795 235.275L259.602 234.738" stroke="black" stroke-width="3.57905" stroke-miterlimit="10" stroke-linecap="round" stroke-linejoin="round"/>
<path fill-rule="evenodd" clip-rule="evenodd" d="M275.752 233.957L282.046 274.772C283.705 285.562 277.899 295.131 269.019 296.059C260.187 297.035 251.649 289.028 249.99 278.238L244.769 244.356L259.602 234.738L275.752 233.957Z" fill="white" stroke="black" stroke-width="3.57905" stroke-miterlimit="10" stroke-linecap="round" stroke-linejoin="round"/>
<path fill-rule="evenodd" clip-rule="evenodd" d="M273.166 275.846C273.557 279.557 272.093 282.975 269.653 284.732L269.702 285.416L266.628 285.953C262.481 286.392 258.724 282.633 258.236 277.506C257.699 272.38 260.676 268.132 264.774 267.449L266.775 267.107C267.165 267.058 267.555 267.156 267.799 267.449L268.385 268.084C270.824 269.353 272.776 272.234 273.166 275.846Z" fill="black" stroke="black" stroke-width="3.57905" stroke-miterlimit="10" stroke-linecap="round" stroke-linejoin="round"/>
<path d="M268.851 285.479C272.985 285.118 275.975 280.687 275.529 275.583C275.083 270.48 271.37 266.636 267.236 266.997C263.102 267.359 260.112 271.79 260.558 276.893C261.004 281.997 264.717 285.841 268.851 285.479Z" fill="#B880FF" stroke="black" stroke-width="3.57905" stroke-miterlimit="10" stroke-linecap="round" stroke-linejoin="round"/>
<path fill-rule="evenodd" clip-rule="evenodd" d="M263.018 255.927L250.966 240.353L244.038 239.62L233.157 175.321L249.698 169.609L263.018 255.927Z" fill="#B880FF" stroke="black" stroke-width="3.57905" stroke-miterlimit="10" stroke-linecap="round" stroke-linejoin="round"/>
<path fill-rule="evenodd" clip-rule="evenodd" d="M269.848 255.243L257.406 260.321C256.138 260.809 254.772 260.125 254.577 258.856L241.842 176.249L258.431 170.634L271.166 253.095C271.263 253.974 270.727 254.901 269.848 255.243Z" fill="black" stroke="black" stroke-width="3.57905" stroke-miterlimit="10" stroke-linecap="round" stroke-linejoin="round"/>
<path fill-rule="evenodd" clip-rule="evenodd" d="M246.575 122.056L237.792 120.689C230.717 122.739 226.229 129.477 227.253 136.41L233.059 174.882L241.842 176.249" fill="#B880FF"/>
<path d="M246.575 122.056L237.792 120.689C230.717 122.739 226.229 129.477 227.253 136.41L233.059 174.882L241.842 176.249" stroke="black" stroke-width="3.57905" stroke-miterlimit="10" stroke-linecap="round" stroke-linejoin="round"/>
<path fill-rule="evenodd" clip-rule="evenodd" d="M241.842 176.249L258.431 170.634L259.651 168.389C260.87 166.24 261.309 163.799 260.919 161.358L259.065 149.055L250.429 147.2L246.526 122.007C239.451 124.058 234.962 130.795 235.987 137.728L241.842 176.249Z" fill="white" stroke="black" stroke-width="3.57905" stroke-miterlimit="10" stroke-linecap="round" stroke-linejoin="round"/>
<path fill-rule="evenodd" clip-rule="evenodd" d="M307.222 370.562L231.936 407.618C227.594 409.766 223.496 408.985 220.568 406.739C216.226 403.321 214.664 396.437 219.153 390.579L278.044 313.928C279.996 311.389 283.07 310.51 285.607 311.291C287.119 311.731 288.437 312.756 289.315 314.318L311.954 356.891C314.589 361.627 312.345 368.023 307.222 370.562Z" fill="#B880FF" stroke="black" stroke-width="3.57905" stroke-miterlimit="10" stroke-linecap="round" stroke-linejoin="round"/>
<path fill-rule="evenodd" clip-rule="evenodd" d="M228.619 405.372C225.448 406.006 222.374 404.591 220.764 401.661C219.154 398.781 219.495 395.314 221.691 392.483L280.582 315.832C281.314 314.855 282.241 314.513 282.875 314.367C284.046 314.123 285.656 314.416 286.535 316.027L309.174 358.6C310.003 360.113 310.101 361.92 309.515 363.677C308.93 365.435 307.71 366.802 306.051 367.583L230.815 404.639C230.034 404.981 229.302 405.225 228.619 405.372Z" fill="#B880FF" stroke="black" stroke-width="3.57905" stroke-miterlimit="10" stroke-linecap="round" stroke-linejoin="round"/>
<path d="M299.366 370.805L294.39 330.82" stroke="black" stroke-width="3.57905" stroke-miterlimit="10" stroke-linecap="round" stroke-linejoin="round"/>
<path d="M287.803 376.518L280.289 316.173" stroke="black" stroke-width="3.57905" stroke-miterlimit="10" stroke-linecap="round" stroke-linejoin="round"/>
<path d="M276.288 382.181L269.75 329.893" stroke="black" stroke-width="3.57905" stroke-miterlimit="10" stroke-linecap="round" stroke-linejoin="round"/>
<path d="M264.724 387.893L259.162 343.611" stroke="black" stroke-width="3.57905" stroke-miterlimit="10" stroke-linecap="round" stroke-linejoin="round"/>
<path d="M253.161 393.606L248.624 357.331" stroke="black" stroke-width="3.57905" stroke-miterlimit="10" stroke-linecap="round" stroke-linejoin="round"/>
<path d="M241.598 399.269L238.084 371.098" stroke="black" stroke-width="3.57905" stroke-miterlimit="10" stroke-linecap="round" stroke-linejoin="round"/>
<path d="M230.034 404.933L227.546 384.818" stroke="black" stroke-width="3.57905" stroke-miterlimit="10" stroke-linecap="round" stroke-linejoin="round"/>
<path d="M247.355 391.36L281.85 374.223" stroke="black" stroke-width="3.57905" stroke-miterlimit="10" stroke-linecap="round" stroke-linejoin="round"/>
<path d="M240.719 375.688L274.483 331.65" stroke="black" stroke-width="3.57905" stroke-miterlimit="10" stroke-linecap="round" stroke-linejoin="round"/>
<path d="M300.683 351.276L305.709 360.699C306.002 361.285 306.051 361.92 305.807 362.554C305.563 363.189 305.123 363.677 304.538 363.97L296.975 367.681" stroke="black" stroke-width="3.57905" stroke-miterlimit="10" stroke-linecap="round" stroke-linejoin="round"/>
<path d="M288.925 328.428L294.829 339.462" stroke="black" stroke-width="3.57905" stroke-miterlimit="10" stroke-linecap="round" stroke-linejoin="round"/>
<path d="M234.669 398.39L229.302 401.026C228.912 401.222 228.473 401.368 228.083 401.466C226.521 401.808 224.96 401.026 224.13 399.464C223.301 397.951 223.447 396.291 224.618 394.777L230.132 387.6" stroke="black" stroke-width="3.57905" stroke-miterlimit="10" stroke-linecap="round" stroke-linejoin="round"/>
<path fill-rule="evenodd" clip-rule="evenodd" d="M285.656 311.193C283.07 310.412 280.045 311.291 278.093 313.83L219.202 390.481C214.713 396.34 216.324 403.224 220.617 406.641L197.295 390.481C194.123 388.284 193.489 383.597 195.978 380.277L196.026 380.228L254.918 303.577L254.966 303.528C256.674 301.331 259.504 300.501 261.895 301.478L285.656 311.193Z" fill="white" stroke="black" stroke-width="3.57905" stroke-miterlimit="10" stroke-linecap="round" stroke-linejoin="round"/>
<path d="M221.593 407.373L220.617 406.69" stroke="black" stroke-width="3.57905" stroke-miterlimit="10" stroke-linecap="round" stroke-linejoin="round"/>
<path d="M286.827 311.682L285.656 311.194" stroke="black" stroke-width="3.57905" stroke-miterlimit="10" stroke-linecap="round" stroke-linejoin="round"/>
<path d="M222.13 386.672L201.15 373.588" stroke="black" stroke-width="3.57905" stroke-miterlimit="10" stroke-linecap="round" stroke-linejoin="round"/>
<path d="M269.604 324.912L246.965 313.878" stroke="black" stroke-width="3.57905" stroke-miterlimit="10" stroke-linecap="round" stroke-linejoin="round"/>
<path d="M253.991 345.222L231.449 334.14" stroke="black" stroke-width="3.57905" stroke-miterlimit="10" stroke-linecap="round" stroke-linejoin="round"/>
<path d="M237.89 366.167L216.226 353.912" stroke="black" stroke-width="3.57905" stroke-miterlimit="10" stroke-linecap="round" stroke-linejoin="round"/>
<path d="M300.092 357.541C301.649 347.251 296.82 337.986 289.307 336.848C281.794 335.71 274.441 343.129 272.884 353.419C271.327 363.71 276.156 372.975 283.669 374.113C291.182 375.251 298.535 367.832 300.092 357.541Z" fill="#B880FF" stroke="black" stroke-width="3.57905" stroke-miterlimit="10" stroke-linecap="round" stroke-linejoin="round"/>
<path d="M295.412 356.832C296.437 350.061 293.272 343.966 288.343 343.219C283.414 342.473 278.588 347.357 277.563 354.128C276.539 360.9 279.704 366.994 284.633 367.741C289.561 368.488 294.388 363.604 295.412 356.832Z" stroke="black" stroke-width="3.57905" stroke-miterlimit="10" stroke-linecap="round" stroke-linejoin="round"/>
<path d="M288.721 328.991C289.579 323.667 287.039 318.829 283.049 318.185C279.059 317.542 275.128 321.335 274.27 326.659C273.412 331.983 275.952 336.82 279.942 337.464C283.932 338.108 287.863 334.314 288.721 328.991Z" fill="#B880FF" stroke="black" stroke-width="3.57905" stroke-miterlimit="10" stroke-linecap="round" stroke-linejoin="round"/>
<path d="M247.958 388.938C249.009 382.416 245.914 376.493 241.046 375.707C236.178 374.922 231.38 379.572 230.329 386.093C229.278 392.615 232.372 398.539 237.24 399.324C242.108 400.11 246.907 395.46 247.958 388.938Z" fill="#B880FF" stroke="black" stroke-width="3.57905" stroke-miterlimit="10" stroke-linecap="round" stroke-linejoin="round"/>
<path d="M243.478 388.215C243.997 384.994 242.477 382.07 240.083 381.683C237.689 381.297 235.327 383.595 234.808 386.816C234.289 390.037 235.809 392.961 238.203 393.347C240.597 393.733 242.959 391.436 243.478 388.215Z" fill="black"/>
<path d="M286.589 361.174C288.987 361.147 290.902 358.568 290.866 355.413C290.831 352.259 288.858 349.724 286.46 349.751C284.062 349.778 282.147 352.357 282.182 355.511C282.218 358.665 284.191 361.201 286.589 361.174Z" fill="black"/>
<path d="M281.792 332.174C283.624 332.154 285.088 330.214 285.061 327.841C285.034 325.468 283.527 323.562 281.695 323.583C279.863 323.603 278.399 325.543 278.426 327.916C278.453 330.288 279.96 332.195 281.792 332.174Z" fill="black"/>
<path d="M70.7302 332.188L100.883 320.128" stroke="black" stroke-width="3.57905" stroke-miterlimit="10" stroke-linecap="round" stroke-linejoin="round"/>
</g>
<defs>
<clipPath id="clip0">
<rect width="480" height="455" fill="white"/>
</clipPath>
</defs>
</svg>
