<svg width="216" height="210" viewBox="0 0 216 210" fill="none" xmlns="http://www.w3.org/2000/svg">
    <path d="M38.014 172.504C55.8017 189.824 80.475 200.58 107.587 200.58V207.145C107.587 208.402 108.735 209.519 110.026 209.519C167.405 208.262 213.883 163.146 215.174 107.134C215.174 105.877 214.026 104.76 212.735 104.76H205.993C205.993 51.8211 161.954 8.93948 107.587 8.93948V2.37455C107.587 1.11743 106.439 0 105.148 0C77.3191 0.558718 52.0721 11.4537 33.2802 28.9136C32.2761 29.8914 32.2761 31.4279 33.2802 32.266L38.014 36.8754C20.2263 54.1956 9.1807 78.2205 9.1807 104.62H2.43865C1.14761 104.62 0 105.737 0 106.994C0.573797 134.092 11.9063 158.676 29.694 176.974C30.6981 177.952 32.276 177.952 33.1367 176.974L38.014 172.504Z" fill="#45E0A8"/>
</svg>
