<svg width="119" height="112" viewBox="0 0 119 112" fill="none" xmlns="http://www.w3.org/2000/svg">
    <g clip-path="url(#clip0)">
        <path d="M73.1685 27.543C72.7938 64.7328 88.9063 79.3464 104.738 81.0326C127.314 83.3745 142.583 65.9506 152.794 60.7047C156.073 68.1051 159.351 75.5056 162.724 82.9061L147.361 99.8617C125.721 111.009 93.8712 111.197 76.2599 99.1123C55.6509 84.967 48.9999 50.4939 52.4659 29.1355C59.398 28.6671 66.2364 28.105 73.1685 27.543Z" fill="#45E0A8" stroke="black" stroke-width="3.74051" stroke-miterlimit="10" stroke-linecap="round" stroke-linejoin="round"/>
        <path d="M162.723 82.9982C159.444 75.5977 156.166 68.1972 152.793 60.7967C142.582 65.949 127.313 83.4666 104.737 81.1247C91.8094 79.8132 78.7882 69.8834 74.4791 46.1831C71.013 46.1831 61.177 47.1199 52.6523 55.1761C55.369 72.319 62.8631 90.1177 76.1653 99.298C93.6829 111.382 125.627 111.195 147.266 100.047L162.723 82.9982Z" fill="black" stroke="black" stroke-width="3.74051" stroke-miterlimit="10" stroke-linecap="round" stroke-linejoin="round"/>
        <path d="M75.8843 52.0872C75.416 50.2136 74.9476 48.2464 74.5729 46.0918C71.1068 46.0918 61.2707 47.0286 52.7461 55.0848C53.1208 57.4267 53.5892 59.7687 54.1513 62.1106C57.1489 59.7687 61.3644 56.9584 66.8913 54.8038C70.17 53.4923 73.2614 52.6492 75.8843 52.0872Z" fill="white" stroke="black" stroke-width="3.74051" stroke-miterlimit="10" stroke-linecap="round" stroke-linejoin="round"/>
        <path d="M108.204 25.0118C109.234 25.0118 110.077 23.2319 110.077 20.9837C110.077 18.7354 109.234 16.9556 108.204 16.9556L84.0352 16.2998C85.0656 16.2998 85.9087 18.4544 85.9087 20.9837C85.9087 23.5129 85.0656 25.6675 84.0352 25.6675L108.204 25.0118Z" fill="#45E0A8" stroke="black" stroke-width="3.74051" stroke-miterlimit="10" stroke-linecap="round" stroke-linejoin="round"/>
        <path d="M84.0349 27.9165C85.8148 27.9165 87.2199 24.8252 87.2199 20.9844C87.2199 17.1436 85.8148 14.0523 84.0349 14.0523L38.5078 10.9609V31.0079L84.0349 27.9165Z" fill="#45E0A8" stroke="black" stroke-width="3.74051" stroke-miterlimit="10" stroke-linecap="round" stroke-linejoin="round"/>
        <path d="M38.603 5.15264L10.7809 2.99805C10.5936 2.99805 10.4999 2.99805 10.3125 2.99805C6.19073 2.99805 2.81836 11.0543 2.81836 21.0777C2.81836 31.1012 6.19073 39.1574 10.3125 39.1574C10.4999 39.1574 10.5936 39.1574 10.7809 39.1574L38.603 37.0028C42.6311 37.0028 45.9098 29.8834 45.9098 21.1714C45.9098 12.4595 42.6311 5.15264 38.603 5.15264Z" fill="#45E0A8"/>
        <path d="M4.69141 8.90243C9.65629 11.057 13.9654 12.8369 13.9654 12.8369L45.1599 14.4294C44.0358 8.9961 41.5065 5.15535 38.5088 5.15535L10.6867 3.00076C10.4994 3.00076 10.4057 3.00076 10.2184 3.00076C8.06378 2.90708 6.09656 5.24902 4.69141 8.90243Z" fill="white"/>
        <path d="M10.2188 39.0646C14.3577 39.0646 17.7129 30.9701 17.7129 20.9849C17.7129 10.9998 14.3577 2.90527 10.2188 2.90527C6.07986 2.90527 2.72461 10.9998 2.72461 20.9849C2.72461 30.9701 6.07986 39.0646 10.2188 39.0646Z" fill="white" stroke="black" stroke-width="3.74051" stroke-miterlimit="10" stroke-linecap="round" stroke-linejoin="round"/>
        <path d="M7.78317 20.9841C7.78317 12.5531 10.4998 5.71468 13.9659 5.33997C12.8417 3.84114 11.6239 2.99805 10.2188 2.99805C6.09698 2.99805 2.72461 11.0543 2.72461 21.0777C2.72461 31.1012 6.09698 39.1574 10.2188 39.1574C11.5303 39.1574 12.8417 38.3143 13.9659 36.8155C10.4998 36.2534 7.78317 29.415 7.78317 20.9841Z" fill="#45E0A8" stroke="black" stroke-width="3.74051" stroke-miterlimit="10" stroke-linecap="round" stroke-linejoin="round"/>
        <path d="M38.603 5.15264L10.7809 2.99805C10.5936 2.99805 10.4999 2.99805 10.3125 2.99805C6.19073 2.99805 2.81836 11.0543 2.81836 21.0777C2.81836 31.1012 6.19073 39.1574 10.3125 39.1574C10.4999 39.1574 10.5936 39.1574 10.7809 39.1574L38.603 37.0028C42.6311 37.0028 45.9098 29.8834 45.9098 21.1714C45.9098 12.4595 42.6311 5.15264 38.603 5.15264Z" stroke="black" stroke-width="3.74051" stroke-miterlimit="10" stroke-linecap="round" stroke-linejoin="round"/>
        <path d="M54.2478 12.1782C56.215 18.8292 58.3696 21.9206 60.5242 21.6396C61.742 21.4522 61.9293 19.2039 58.0886 10.5856C56.1213 7.68166 51.5312 9.64887 51.4375 10.9604L52.1869 12.3655" fill="#45E0A8"/>
        <path d="M57.5273 9.931C59.2135 7.77643 61.6491 8.33847 62.3049 9.55627C66.9887 17.7062 67.0824 21.547 66.052 22.109C64.5531 22.8584 62.3049 20.6102 60.4313 16.7694" fill="#45E0A8"/>
        <path d="M67.9238 10.3048C68.3922 8.33762 71.2025 8.52498 71.9519 9.83645C76.2611 17.3306 75.6054 20.2346 74.6686 20.5156C73.4508 20.7967 71.5772 18.7358 70.2658 15.7381" fill="#45E0A8"/>
        <path d="M62.3965 9.83535C63.5206 7.96181 65.4878 8.43019 66.1436 8.71122C69.0476 10.1164 72.5136 20.9829 70.6401 21.9197C68.6729 22.9501 66.7993 19.6715 65.5815 16.4864" fill="#45E0A8"/>
        <path d="M54.248 12.179C56.2152 18.8301 58.3698 21.9215 60.5243 21.6404C61.7421 21.4531 61.9295 19.2048 58.0887 10.5865C56.1215 7.68253 52.0934 8.90035 51.625 11.8043L54.248 12.179Z" stroke="black" stroke-width="2.5" stroke-miterlimit="10" stroke-linecap="round" stroke-linejoin="round"/>
        <path d="M57.6211 9.74291C59.3073 7.58834 61.6492 8.33775 62.3049 9.55555C66.9888 17.7055 67.0825 21.5462 66.052 22.1083C64.5532 22.8577 62.586 20.8905 60.7124 17.1434" stroke="black" stroke-width="2.5" stroke-miterlimit="10" stroke-linecap="round" stroke-linejoin="round"/>
        <path d="M67.9258 10.3044C68.3942 8.33713 71.2045 8.52449 71.9539 9.83597C76.263 17.3301 75.6073 20.2341 74.6705 20.5152C73.4527 20.7962 71.5792 18.7353 70.2677 15.7376" stroke="black" stroke-width="2.5" stroke-miterlimit="10" stroke-linecap="round" stroke-linejoin="round"/>
        <path d="M62.3984 9.83731C63.5226 7.96377 65.4898 8.43214 66.1455 8.71317C69.0495 10.1183 72.5156 20.9849 70.642 21.9216C68.6748 22.9521 66.8013 19.6734 65.5835 16.4884" stroke="black" stroke-width="2.5" stroke-miterlimit="10" stroke-linecap="round" stroke-linejoin="round"/>
        <path d="M62.3965 38.1278C62.3965 37.0037 62.4902 35.4112 63.0522 33.6314C63.6143 31.6641 64.5511 30.1653 65.2068 29.2285" stroke="black" stroke-width="3.74051" stroke-miterlimit="10" stroke-linecap="round" stroke-linejoin="round"/>
    </g>
    <defs>
        <clipPath id="clip0">
            <rect width="134" height="111" fill="white" transform="translate(0.5 0.240234)"/>
        </clipPath>
    </defs>
</svg>
