<svg width="450" height="450" viewBox="0 0 450 450" fill="none" xmlns="http://www.w3.org/2000/svg">
    <path d="M91.1096 350.63C108.666 368.229 129.527 382.185 152.494 391.697C175.461 401.209 200.081 406.088 224.94 406.055V419.041C224.939 419.664 225.062 420.281 225.302 420.856C225.541 421.43 225.893 421.952 226.337 422.389C226.781 422.827 227.307 423.172 227.885 423.404C228.463 423.636 229.082 423.75 229.705 423.741C340.235 421.247 429.414 332.091 431.913 221.534C431.922 220.911 431.807 220.292 431.575 219.714C431.343 219.136 430.998 218.61 430.561 218.166C430.124 217.723 429.602 217.371 429.027 217.131C428.452 216.891 427.836 216.768 427.213 216.769H414.221C414.221 112.232 329.475 27.4857 224.94 27.4857V14.5387C224.942 13.9149 224.82 13.297 224.58 12.721C224.341 12.145 223.989 11.6225 223.546 11.1841C223.102 10.7458 222.575 10.4003 221.996 10.1679C221.418 9.93545 220.798 9.82082 220.175 9.83066C168.567 10.9554 119.254 31.3793 81.9636 67.0737C81.5168 67.507 81.1607 68.0249 80.9163 68.5973C80.6718 69.1697 80.5438 69.785 80.5397 70.4074C80.5356 71.0298 80.6555 71.6468 80.8924 72.2224C81.1293 72.7979 81.4785 73.3205 81.9196 73.7597L91.0816 82.9437C73.4834 100.501 59.5277 121.362 50.0161 144.329C40.5045 167.295 35.6246 191.915 35.6566 216.774H22.7006C22.0775 216.773 21.4605 216.895 20.8855 217.135C20.3105 217.375 19.7891 217.727 19.3515 218.171C18.914 218.614 18.5692 219.141 18.3373 219.719C18.1053 220.297 17.9909 220.916 18.0006 221.539C19.1237 273.147 39.5487 322.46 75.2456 359.749C75.6785 360.196 76.1963 360.552 76.7686 360.797C77.341 361.042 77.9564 361.17 78.5788 361.174C79.2013 361.178 79.8183 361.058 80.3938 360.821C80.9693 360.584 81.4918 360.234 81.9306 359.793L91.1096 350.63Z" fill="#45E0A8"/>
    <path d="M250.225 3C249.333 4.008 248.455 5.01267 247.593 6.014" stroke="black" stroke-width="2" stroke-linecap="round" stroke-linejoin="round"/>
    <path d="M242.353 12.2734C229.676 27.8984 220.164 43.3544 211.016 62.7444C194.341 98.0914 188.016 138.07 181.044 176.458C175.534 206.802 170.544 237.248 166.075 267.796C166.033 268.086 165.99 269.469 165.947 271.182" stroke="black" stroke-width="2" stroke-linecap="round" stroke-linejoin="round" stroke-dasharray="8.16 8.16"/>
    <path d="M165.852 275.255C165.805 277.242 165.757 278.93 165.71 279.255C165.71 279.255 164.333 279.802 162.01 280.768" stroke="black" stroke-width="2" stroke-linecap="round" stroke-linejoin="round"/>
    <path d="M154.799 283.854C140.328 290.204 116.044 301.818 111.186 310.185C105.405 320.143 88.3356 385.075 82.5146 407.592" stroke="black" stroke-width="2" stroke-linecap="round" stroke-linejoin="round" stroke-dasharray="7.85 7.85"/>
    <path d="M81.534 411.395C80.897 413.87 80.543 415.267 80.543 415.267L84.418 416.257" stroke="black" stroke-width="2" stroke-linecap="round" stroke-linejoin="round"/>
    <path d="M88.6816 417.348L95.0766 418.983" stroke="black" stroke-width="2" stroke-linecap="round" stroke-linejoin="round" stroke-dasharray="4.4 4.4"/>
    <path d="M97.207 419.527L101.082 420.517L103.304 417.191" stroke="black" stroke-width="2" stroke-linecap="round" stroke-linejoin="round"/>
    <path d="M107.66 410.666L140.852 360.959L198.208 337.857" stroke="black" stroke-width="2" stroke-linecap="round" stroke-linejoin="round" stroke-dasharray="7.84 7.84"/>
    <path d="M201.848 336.392L205.559 334.898L207.084 338.595" stroke="black" stroke-width="2" stroke-linecap="round" stroke-linejoin="round"/>
    <path d="M208.68 346.373L222.831 420.563" stroke="black" stroke-width="2" stroke-linecap="round" stroke-linejoin="round" stroke-dasharray="7.95 7.95"/>
    <path d="M223.576 424.468L224.325 428.398H228.325" stroke="black" stroke-width="2" stroke-linecap="round" stroke-linejoin="round"/>
    <path d="M235.512 428.398H246.291" stroke="black" stroke-width="2" stroke-linecap="round" stroke-linejoin="round" stroke-dasharray="7.19 7.19"/>
    <path d="M249.884 428.398H253.884" stroke="black" stroke-width="2" stroke-linecap="round" stroke-linejoin="round"/>
    <path d="M250.225 3C251.124 4.016 252.001 5.02033 252.857 6.013" stroke="black" stroke-width="2" stroke-linecap="round" stroke-linejoin="round"/>
    <path d="M257.983 12.1445C270.083 27.0985 277.93 40.5825 287.064 59.9445C303.739 95.2915 310.064 135.272 317.036 173.659C322.548 204.002 327.537 234.447 332.005 264.994C332.128 265.825 384.114 288.423 391.128 300.505C396.944 310.524 406.828 382.067 410.028 406.195" stroke="black" stroke-width="2" stroke-linecap="round" stroke-linejoin="round" stroke-dasharray="7.99 7.99"/>
    <path d="M410.549 410.152C410.881 412.687 411.063 414.115 411.063 414.115L407.188 415.105" stroke="black" stroke-width="2" stroke-linecap="round" stroke-linejoin="round"/>
    <path d="M400.872 416.722L396.997 417.713L395.115 414.184" stroke="black" stroke-width="2" stroke-linecap="round" stroke-linejoin="round"/>
    <path d="M391.286 407L368.439 364.134L310.325 333.143L298.754 335.01" stroke="black" stroke-width="2" stroke-linecap="round" stroke-linejoin="round" stroke-dasharray="8.14 8.14"/>
    <path d="M294.736 335.658L290.787 336.295L290.037 340.224" stroke="black" stroke-width="2" stroke-linecap="round" stroke-linejoin="round"/>
    <path d="M288.625 347.627L275.209 417.96" stroke="black" stroke-width="2" stroke-linecap="round" stroke-linejoin="round" stroke-dasharray="7.54 7.54"/>
    <path d="M274.503 421.662L273.754 425.592H269.754" stroke="black" stroke-width="2" stroke-linecap="round" stroke-linejoin="round"/>
    <path d="M262.568 425.591H251.789" stroke="black" stroke-width="2" stroke-linecap="round" stroke-linejoin="round" stroke-dasharray="7.19 7.19"/>
    <path d="M248.195 425.591H244.195" stroke="black" stroke-width="2" stroke-linecap="round" stroke-linejoin="round"/>
    <path d="M237.61 129.213C236.413 128.62 235.265 127.936 234.174 127.166" stroke="black" stroke-width="2" stroke-linecap="round" stroke-linejoin="round"/>
    <path d="M228.396 121.543C225.524 117.726 223.766 113.187 223.318 108.432C222.87 103.676 223.749 98.8887 225.858 94.6026C232.126 81.9486 247.696 77.0336 260.349 83.3026C265.861 85.9843 270.229 90.5536 272.659 96.1809C275.089 101.808 275.42 108.12 273.593 113.971C271.766 119.822 267.901 124.824 262.7 128.068C257.499 131.312 251.308 132.584 245.249 131.652" stroke="black" stroke-width="2" stroke-linecap="round" stroke-linejoin="round" stroke-dasharray="8.09 8.09"/>
    <path d="M241.31 130.718C240.038 130.311 238.8 129.81 237.604 129.218" stroke="black" stroke-width="2" stroke-linecap="round" stroke-linejoin="round"/>
    <path d="M267.145 115.056C266.1 117.165 264.884 116.967 262.208 115.642C259.37 114.234 259.124 113.508 259.843 111.242C261.969 105.526 260.609 99.0935 254.685 95.5515C252.819 94.4265 252.694 93.4515 253.899 91.0215C255.025 88.7495 255.872 87.8565 257.657 88.7405C268.363 94.0405 271.485 106.301 267.145 115.06" fill="white"/>
    <path d="M190.917 417.661L189.184 441.274C189.184 441.274 283.032 450.659 304.658 445.763C305.356 443.477 305.557 441.068 305.246 438.699C304.936 436.329 304.121 434.053 302.858 432.025C298.497 425.081 287.206 418.067 267.935 407.406C267.935 407.406 213.767 406.642 190.916 417.659" fill="black"/>
    <path d="M190.917 417.661L189.184 441.274C189.184 441.274 283.032 450.659 304.658 445.763C305.356 443.478 305.557 441.069 305.246 438.699C304.936 436.329 304.121 434.054 302.858 432.025C298.497 425.081 287.206 418.067 267.935 407.406C267.936 407.408 213.768 406.644 190.917 417.661Z" stroke="black" stroke-width="2" stroke-linecap="round" stroke-linejoin="round"/>
    <path d="M192.04 406.591L189.184 434.745C189.184 434.745 283.032 444.13 304.658 439.234C304.658 439.234 306.291 422.097 267.936 400.878C267.936 400.878 214.891 395.578 192.036 406.591" fill="#45E0A8"/>
    <path d="M257.326 400.475C257.734 401.7 276.101 412.686 284.26 440.652C284.26 440.652 299.354 442.503 304.66 439.239C304.66 439.239 306.488 427.659 289.731 415.72C272.974 403.781 267.937 400.883 267.937 400.883L257.326 400.475Z" fill="white"/>
    <path d="M192.04 406.592L189.184 434.746C189.184 434.746 283.032 444.131 304.658 439.235C304.658 439.235 306.291 422.098 267.936 400.879C267.936 400.879 214.891 395.574 192.04 406.592Z" stroke="black" stroke-width="2" stroke-linecap="round" stroke-linejoin="round"/>
    <path d="M114.061 190.718C114.061 190.718 85.0293 245.574 142.346 252.127" stroke="black" stroke-width="2" stroke-linecap="round" stroke-linejoin="round"/>
    <path d="M128.043 163.498C128.043 163.498 128.056 158.137 136.855 153.184C145.654 148.231 167.81 141.015 169.71 155.479C171.61 169.943 164.371 183.506 177.586 186.328C186.535 188.385 195.286 191.227 203.737 194.82L192.473 208.091L169.631 262.554L146.995 242.727L128.043 163.498Z" fill="white"/>
    <path d="M140.57 224.808C140.57 224.808 132.125 244.477 132.182 250.925C132.239 257.373 132.676 269.2 130.64 268.437C128.604 267.674 126.989 262.554 126.989 262.554C126.989 262.554 126.195 274.224 123.137 277.297C120.109 280.342 115.137 278.597 114.06 274.588C113.308 271.801 109.092 277.156 110.012 272.688C114.374 251.494 129.539 223.488 129.539 223.488L140.57 224.808Z" fill="white"/>
    <path d="M127.349 264.107C127.349 264.107 124.823 272.793 123.977 275.883C122.647 280.744 120.545 279.16 120.545 279.16" stroke="black" stroke-width="2" stroke-linecap="round" stroke-linejoin="round"/>
    <path d="M141.035 402.512L137.363 427.287H93.7026C93.7026 427.287 92.0696 422.287 95.7426 419.336C99.4156 416.385 111.428 410.765 112.064 402.512" fill="#45E0A8"/>
    <path d="M141.035 402.512L137.363 427.287H93.7026C93.7026 427.287 92.0696 422.287 95.7426 419.336C99.4156 416.385 111.428 410.765 112.064 402.512" stroke="black" stroke-width="2" stroke-linecap="round" stroke-linejoin="round"/>
    <path d="M136.954 432.027H93.3398L93.7018 427.288H137.362L136.954 432.027Z" fill="black"/>
    <path d="M136.954 432.027H93.3398L93.7018 427.288H137.362L136.954 432.027Z" stroke="black" stroke-width="2" stroke-linecap="round" stroke-linejoin="round"/>
    <path d="M186.326 200.359C186.326 200.359 214.64 233.992 229.658 269.492C244.676 304.992 267.934 400.88 267.934 400.88C267.934 400.88 212.034 398.839 192.034 406.592C192.034 406.592 188.769 312.336 186.321 300.503C184.975 294.003 178.452 276.891 172.849 262.803C168.259 251.261 164.287 241.745 164.287 241.745" fill="white"/>
    <path d="M144.299 225.016C144.299 225.016 134.909 278.875 129.609 305.808C124.309 332.741 118.183 351.916 115.327 372.318C112.471 392.72 112.063 402.513 112.063 402.513C112.063 402.513 132.057 405.777 141.033 402.513C141.033 402.513 155.315 340.313 161.027 314.49C164.437 299.017 169.252 283.887 175.412 269.29" fill="white"/>
    <path d="M169.466 254.359L162.387 308.696L175.414 269.292L169.466 254.359Z" fill="black"/>
    <path d="M169.466 254.359L162.387 308.696L175.414 269.292L169.466 254.359Z" stroke="black" stroke-width="2" stroke-linecap="round" stroke-linejoin="round"/>
    <path d="M181.815 286.229C181.815 286.229 196.415 260.371 223.606 256.566C223.606 256.566 226.396 262.194 229.547 269.54C231.547 274.191 233.683 279.532 235.347 284.568C235.347 284.568 205.093 278.876 186.323 300.502L184.144 293.61L181.815 286.229Z" fill="#45E0A8"/>
    <path d="M218.493 419.336C218.493 420.783 218.064 422.198 217.259 423.402C216.455 424.606 215.312 425.544 213.975 426.098C212.637 426.652 211.166 426.797 209.746 426.515C208.326 426.233 207.022 425.536 205.998 424.512C204.975 423.488 204.277 422.184 203.995 420.764C203.713 419.344 203.858 417.873 204.412 416.535C204.966 415.198 205.904 414.055 207.108 413.251C208.312 412.446 209.727 412.017 211.175 412.018C213.115 412.018 214.977 412.789 216.349 414.161C217.722 415.533 218.493 417.395 218.493 419.336V419.336Z" stroke="black" stroke-width="2" stroke-linecap="round" stroke-linejoin="round"/>
    <path d="M184.148 293.61C184.148 293.61 213.194 262.243 229.548 269.54" stroke="white" stroke-width="2" stroke-linecap="round" stroke-linejoin="round"/>
    <path d="M126.346 229.096L119.046 247.322C119.046 247.322 114.819 255.861 112.063 263.281C110.793 266.699 109.05 274.607 110.618 275.132C112.186 275.657 114.67 268.439 114.67 268.439" stroke="black" stroke-width="2" stroke-linecap="round" stroke-linejoin="round"/>
    <path d="M116.982 262.555C116.982 262.555 111.293 273.149 115.798 277.005" stroke="black" stroke-width="2" stroke-linecap="round" stroke-linejoin="round"/>
    <path d="M152.459 138.715C152.867 139.327 157.559 146.584 157.559 146.584" stroke="black" stroke-width="2" stroke-linecap="round" stroke-linejoin="round"/>
    <path d="M146.994 115.93C147.28 116.359 151.659 119.973 153.9 123.185C154.984 124.737 155.773 126.475 156.228 128.312C157.968 135.247 147.766 140.8 147.766 140.8" stroke="black" stroke-width="2" stroke-linecap="round" stroke-linejoin="round"/>
    <path d="M156.428 126.066C156.428 126.066 159.544 123.846 158.784 122.039C157.56 119.129 153.021 122.039 153.021 122.039" stroke="black" stroke-width="2" stroke-linecap="round" stroke-linejoin="round"/>
    <path d="M146.995 115.93C147.718 118.352 147.98 120.888 147.767 123.406C147.359 127.29 148.834 134.227 149.933 138.715C150.593 141.394 150.976 144.134 151.076 146.891L131.83 156.558C131.83 156.558 124.397 143 125.118 129.458C125.781 116.992 134.8 109.767 146.995 115.934" fill="black"/>
    <path d="M146.995 115.93C147.718 118.352 147.98 120.888 147.767 123.406C147.359 127.29 148.834 134.227 149.933 138.715C150.593 141.394 150.976 144.134 151.076 146.891L131.83 156.558C131.83 156.558 124.397 143 125.118 129.458C125.781 116.988 134.8 109.763 146.995 115.93Z" stroke="black" stroke-width="2" stroke-linecap="round" stroke-linejoin="round"/>
    <path d="M108.188 99.7471L118.467 106.276" stroke="black" stroke-width="2" stroke-linecap="round" stroke-linejoin="round"/>
    <path d="M122.47 91.5859L127.349 98.5229" stroke="black" stroke-width="2" stroke-linecap="round" stroke-linejoin="round"/>
    <path d="M144.709 106.275C141.444 107.295 146.137 110.151 149.809 111.575C153.481 112.999 156.949 113.615 155.009 110.554C153.069 107.493 144.709 106.27 144.709 106.27" fill="white"/>
    <path d="M131.83 156.557C131.83 156.557 106.69 109.517 140.219 102.168C167.742 96.1352 167.213 150.546 167.213 150.546" stroke="white" stroke-width="2" stroke-linecap="round" stroke-linejoin="round"/>
    <path d="M186.326 200.359C186.326 200.359 214.64 233.992 229.658 269.492C244.676 304.992 267.934 400.88 267.934 400.88C267.934 400.88 212.034 398.839 192.034 406.592C192.034 406.592 188.769 312.336 186.321 300.503C184.975 294.003 178.452 276.891 172.849 262.803C168.259 251.261 164.287 241.745 164.287 241.745" stroke="black" stroke-width="2" stroke-linecap="round" stroke-linejoin="round"/>
    <path d="M190.103 229.947C191.633 229.122 192.865 227.836 193.624 226.272C194.083 224.931 194.327 223.527 194.347 222.111C194.313 220.796 194.738 219.511 195.547 218.475L207.274 206.639C209.292 204.602 211.311 202.565 213.331 200.527C214.035 199.628 214.936 198.902 215.964 198.405C217.234 198.075 218.537 197.889 219.849 197.848C220.808 197.78 221.745 197.521 222.603 197.087C223.462 196.653 224.225 196.052 224.849 195.32C226.446 193.494 227.405 191.198 227.582 188.78C227.579 188.642 227.536 188.508 227.458 188.394C227.38 188.281 227.271 188.192 227.143 188.14C227.016 188.088 226.876 188.074 226.741 188.1C226.605 188.126 226.481 188.192 226.382 188.288L222.061 192.65L216.98 191.901C216.713 190.21 216.447 188.519 216.18 186.827L220.501 182.466C220.597 182.366 220.662 182.241 220.688 182.105C220.713 181.969 220.699 181.829 220.645 181.701C220.592 181.574 220.503 181.464 220.388 181.387C220.274 181.31 220.139 181.267 220.001 181.266C218.268 181.405 216.593 181.953 215.113 182.866C213.634 183.669 212.428 184.897 211.652 186.391C210.576 188.791 211.466 191.81 209.952 194.013C209.52 194.544 209.043 195.037 208.526 195.486L206.753 197.275L203.053 201.013L195.504 208.633L191.116 213.062C190.541 213.726 189.796 214.222 188.961 214.497C188.047 214.718 187.113 214.847 186.173 214.883C184.115 214.887 182.141 215.697 180.673 217.14C178.896 219.019 177.821 221.454 177.629 224.034C177.632 224.171 177.675 224.305 177.753 224.419C177.831 224.532 177.941 224.62 178.068 224.672C178.195 224.725 178.335 224.738 178.471 224.712C178.606 224.686 178.73 224.621 178.829 224.525C180.269 223.072 181.709 221.618 183.15 220.164L188.231 220.912C188.498 222.604 188.764 224.295 189.031 225.986L184.709 230.347C184.613 230.446 184.548 230.571 184.522 230.707C184.497 230.843 184.511 230.983 184.564 231.111C184.618 231.239 184.707 231.348 184.821 231.425C184.936 231.503 185.071 231.545 185.209 231.547C186.942 231.408 188.618 230.859 190.098 229.947" fill="#45E0A8"/>
    <path d="M190.103 229.947C191.633 229.122 192.865 227.836 193.624 226.272C194.083 224.931 194.327 223.527 194.347 222.111C194.313 220.796 194.738 219.511 195.547 218.475L207.274 206.639C209.292 204.602 211.311 202.565 213.331 200.527C214.035 199.628 214.936 198.902 215.964 198.405C217.234 198.075 218.537 197.889 219.849 197.848C220.808 197.78 221.745 197.521 222.603 197.087C223.462 196.653 224.225 196.052 224.849 195.32C226.446 193.494 227.405 191.198 227.582 188.78C227.579 188.642 227.536 188.508 227.458 188.394C227.38 188.281 227.271 188.192 227.143 188.14C227.016 188.088 226.876 188.074 226.741 188.1C226.605 188.126 226.481 188.192 226.382 188.288L222.061 192.65L216.98 191.901C216.713 190.21 216.447 188.519 216.18 186.827L220.501 182.466C220.597 182.366 220.662 182.241 220.688 182.105C220.713 181.969 220.699 181.829 220.645 181.701C220.592 181.574 220.503 181.464 220.388 181.387C220.274 181.31 220.139 181.267 220.001 181.266C218.268 181.405 216.593 181.953 215.113 182.866C213.634 183.669 212.428 184.897 211.652 186.391C210.576 188.791 211.466 191.81 209.952 194.013C209.52 194.544 209.043 195.037 208.526 195.486L206.753 197.275L203.053 201.013L195.504 208.633L191.116 213.062C190.541 213.726 189.796 214.222 188.961 214.497C188.047 214.718 187.113 214.847 186.173 214.883C184.115 214.887 182.141 215.697 180.673 217.14C178.896 219.019 177.821 221.454 177.629 224.034C177.632 224.171 177.675 224.305 177.753 224.419C177.831 224.532 177.941 224.62 178.068 224.672C178.195 224.725 178.335 224.738 178.471 224.712C178.606 224.686 178.73 224.621 178.829 224.525C180.269 223.072 181.709 221.618 183.15 220.164L188.231 220.912C188.498 222.604 188.764 224.295 189.031 225.986L184.709 230.347C184.613 230.446 184.548 230.571 184.522 230.707C184.497 230.843 184.511 230.983 184.564 231.111C184.618 231.239 184.707 231.348 184.821 231.425C184.936 231.503 185.071 231.545 185.209 231.547C186.944 231.408 188.621 230.86 190.103 229.947V229.947Z" stroke="black" stroke-width="2" stroke-linecap="round" stroke-linejoin="round"/>
    <path d="M122.055 253.759C122.055 254.059 124.355 260.459 127.349 259.668C127.349 259.668 127.978 271.123 130.642 268.438C133.306 265.753 131.71 253.306 132.333 248.409C132.956 243.512 138.833 228.359 138.833 228.359" stroke="black" stroke-width="2" stroke-linecap="round" stroke-linejoin="round"/>
    <path d="M123.138 265.38C123.138 265.38 121.584 276.016 119.952 278.534C119.952 278.534 117.743 282.386 116.16 277.567" stroke="black" stroke-width="2" stroke-linecap="round" stroke-linejoin="round"/>
    <path d="M119.691 264.789C119.691 264.789 118.108 275.135 115.797 277.004" stroke="black" stroke-width="2" stroke-linecap="round" stroke-linejoin="round"/>
    <path d="M155.566 188.513C155.566 188.513 161.774 180.541 170.476 181.268C170.476 181.268 171.665 184.886 177.586 186.329C177.586 186.329 164.924 191.182 164.293 200.218C164.293 200.218 156.593 196.325 155.566 188.518" fill="#45E0A8"/>
    <path d="M201.647 193.945C201.647 193.945 209.985 202.445 210.833 206.877C211.681 211.309 204.195 218.277 201.647 217.822C199.099 217.367 192.376 206.973 192.376 206.973L182.429 203.034V194.76L201.647 193.945Z" fill="white"/>
    <path d="M196.936 206.245C196.936 206.245 201.22 212.974 200.609 216.854C199.998 220.734 195.42 211.923 193.179 209.015C190.938 206.107 184.079 203.593 177.759 203.797C171.439 204.001 156.949 200.941 154.909 185.231C152.869 169.521 159.194 154.831 159.194 154.831" stroke="black" stroke-width="2" stroke-linecap="round" stroke-linejoin="round"/>
    <path d="M208.583 213.59C209.728 212.437 210.503 210.969 210.81 209.374C211.082 207.056 208.905 198.906 203.737 194.825C198.569 190.744 179.799 188.569 173.298 185.304C166.797 182.039 173.642 163.21 169.734 153.749C168.287 150.249 161.618 144.949 148.788 147.493C130.642 151.087 128.43 162.993 128.43 162.993" stroke="black" stroke-width="2" stroke-linecap="round" stroke-linejoin="round"/>
    <path d="M200.609 203.797C203.183 207.274 204.584 211.479 204.609 215.804C204.609 215.804 210.317 212.979 208.055 207.47C205.793 201.961 203.469 200.359 203.469 200.359" stroke="black" stroke-width="2" stroke-linecap="round" stroke-linejoin="round"/>
    <path d="M204.609 215.805C204.694 217.671 200.609 218.58 200.609 216.855" stroke="black" stroke-width="2" stroke-linecap="round" stroke-linejoin="round"/>
    <path fill-rule="evenodd" clip-rule="evenodd" d="M324.31 127.362L330.748 133.449L337.186 139.535L335.135 148.153L333.083 156.773L324.593 159.305L316.103 161.838L311.183 160.667L303.225 149.667L305.278 141.048L307.329 132.43L319.39 126.193L324.31 127.362ZM322.032 136.93C320.515 136.57 318.925 136.667 317.464 137.21C316.002 137.753 314.735 138.717 313.821 139.98C312.907 141.243 312.388 142.749 312.33 144.307C312.272 145.865 312.677 147.405 313.494 148.733C314.311 150.06 315.504 151.116 316.921 151.766C318.338 152.417 319.916 152.632 321.455 152.386C322.994 152.139 324.426 151.442 325.569 150.382C326.713 149.322 327.516 147.947 327.878 146.43C328.118 145.423 328.157 144.378 327.993 143.355C327.83 142.332 327.466 141.351 326.923 140.469C326.38 139.587 325.669 138.82 324.829 138.213C323.99 137.606 323.039 137.17 322.032 136.93Z" fill="black"/>
    <path d="M324.31 127.362L330.748 133.449L337.186 139.535L335.135 148.153L333.083 156.773L324.593 159.305L316.103 161.838L311.183 160.667L303.225 149.667L305.278 141.048L307.329 132.43L319.39 126.193L324.31 127.362ZM322.032 136.93C320.515 136.57 318.925 136.667 317.464 137.21C316.002 137.753 314.735 138.717 313.821 139.98C312.907 141.243 312.388 142.749 312.33 144.307C312.272 145.865 312.677 147.405 313.494 148.733C314.311 150.06 315.504 151.116 316.921 151.766C318.338 152.417 319.916 152.632 321.455 152.386C322.994 152.139 324.426 151.442 325.569 150.382C326.713 149.322 327.516 147.947 327.878 146.43C328.118 145.423 328.157 144.378 327.994 143.355C327.83 142.333 327.467 141.352 326.924 140.47C326.382 139.588 325.671 138.821 324.832 138.214C323.993 137.607 323.043 137.17 322.036 136.93H322.032Z" stroke="black" stroke-width="1.5" stroke-linecap="round" stroke-linejoin="round"/>
    <path fill-rule="evenodd" clip-rule="evenodd" d="M317.978 127.193L324.978 133.81L331.978 140.427L329.747 149.796L327.517 159.167L318.287 161.921L309.057 164.674L302.057 158.057L295.057 151.441L297.287 142.07L299.518 132.7L308.747 129.946L317.978 127.193ZM315.503 137.593C313.853 137.201 312.125 137.306 310.535 137.896C308.946 138.486 307.567 139.534 306.573 140.907C305.579 142.281 305.015 143.918 304.951 145.613C304.888 147.307 305.329 148.982 306.217 150.426C307.106 151.869 308.403 153.017 309.944 153.724C311.485 154.431 313.201 154.665 314.875 154.396C316.549 154.127 318.106 153.368 319.349 152.215C320.591 151.062 321.464 149.566 321.857 147.916C322.117 146.821 322.16 145.686 321.981 144.574C321.803 143.463 321.408 142.397 320.818 141.439C320.228 140.48 319.455 139.647 318.543 138.987C317.631 138.328 316.598 137.854 315.503 137.593Z" fill="#45E0A8"/>
    <path d="M317.978 127.193L324.978 133.81L331.978 140.427L329.747 149.796L327.517 159.167L318.287 161.921L309.057 164.674L302.057 158.057L295.057 151.441L297.287 142.07L299.518 132.7L308.747 129.946L317.978 127.193ZM315.503 137.593C313.853 137.201 312.125 137.306 310.535 137.896C308.946 138.486 307.567 139.534 306.573 140.907C305.579 142.281 305.015 143.918 304.951 145.613C304.888 147.307 305.329 148.982 306.217 150.426C307.106 151.869 308.403 153.017 309.944 153.724C311.485 154.431 313.201 154.665 314.875 154.396C316.549 154.127 318.106 153.369 319.349 152.215C320.591 151.062 321.464 149.566 321.857 147.916C322.382 145.705 322.008 143.376 320.817 141.44C319.625 139.505 317.714 138.122 315.503 137.595V137.593Z" stroke="black" stroke-width="1.855" stroke-linecap="round" stroke-linejoin="round"/>
    <path fill-rule="evenodd" clip-rule="evenodd" d="M328.739 137.365L321.721 143.447C322.089 144.662 322.182 145.943 321.995 147.198C321.808 148.452 321.346 149.65 320.64 150.705L331.84 140.996L331.976 140.426L328.739 137.365ZM306.887 162.623L317.234 153.659C316.089 154.209 314.837 154.497 313.567 154.504C312.297 154.512 311.041 154.237 309.889 153.701L303.4 159.326L306.887 162.623Z" fill="white"/>
    <path d="M317.978 127.193L324.978 133.81L331.978 140.427L329.747 149.796L327.517 159.167L318.287 161.921L309.057 164.674L302.057 158.057L295.057 151.441L297.287 142.07L299.518 132.7L308.747 129.946L317.978 127.193ZM315.503 137.593C313.853 137.201 312.125 137.306 310.535 137.896C308.946 138.486 307.567 139.534 306.573 140.907C305.579 142.281 305.015 143.918 304.951 145.613C304.888 147.307 305.329 148.982 306.217 150.426C307.106 151.869 308.403 153.017 309.944 153.724C311.485 154.431 313.201 154.665 314.875 154.396C316.549 154.127 318.106 153.369 319.349 152.215C320.591 151.062 321.464 149.566 321.857 147.916C322.382 145.705 322.008 143.376 320.817 141.44C319.625 139.505 317.714 138.122 315.503 137.595V137.593Z" stroke="black" stroke-width="1.855" stroke-linecap="round" stroke-linejoin="round"/>
    <path d="M128.042 163.498L117.479 162.364C125.227 154.333 143.465 160.45 146.311 167.327L166.482 216.074C167.349 218.229 167.422 220.622 166.688 222.825C165.954 225.029 164.462 226.901 162.477 228.106L149.641 236.445C143.128 240.676 125.812 236.914 123.976 229.806L120.691 186.006C119.679 181.944 119.832 177.679 121.132 173.699C122.432 169.72 124.827 166.187 128.042 163.506" fill="#45E0A8"/>
    <path d="M128.042 163.498L117.479 162.364C125.227 154.333 143.465 160.45 146.311 167.327L166.482 216.074C167.349 218.229 167.422 220.622 166.688 222.825C165.954 225.029 164.462 226.901 162.477 228.106L149.641 236.445C143.128 240.676 125.812 236.914 123.976 229.806L120.691 186.006C119.678 181.943 119.829 177.676 121.13 173.695C122.43 169.714 124.826 166.18 128.042 163.498V163.498Z" stroke="black" stroke-width="2" stroke-linecap="round" stroke-linejoin="round"/>
    <path d="M117.48 162.365C118.629 161.276 120.029 160.488 121.556 160.072C123.083 159.655 124.689 159.622 126.231 159.975C127.774 160.329 129.206 161.058 130.398 162.098C131.591 163.139 132.509 164.457 133.069 165.938L150.281 211.427C151.032 213.413 151.104 215.592 150.486 217.624C149.867 219.655 148.593 221.424 146.862 222.655L135.909 230.437C134.626 231.349 133.139 231.933 131.578 232.135C130.017 232.337 128.43 232.153 126.957 231.598C125.484 231.042 124.17 230.133 123.131 228.951C122.092 227.768 121.36 226.348 120.999 224.816L111.208 183.366C110.323 179.623 110.437 175.713 111.538 172.028C112.638 168.343 114.687 165.011 117.479 162.366" fill="black"/>
    <path d="M117.48 162.365C118.629 161.276 120.029 160.488 121.556 160.072C123.083 159.655 124.689 159.622 126.231 159.975C127.774 160.329 129.206 161.058 130.398 162.098C131.591 163.139 132.509 164.457 133.069 165.938L150.281 211.427C151.032 213.413 151.104 215.592 150.486 217.624C149.867 219.655 148.593 221.424 146.862 222.655L135.909 230.437C134.626 231.349 133.139 231.933 131.578 232.135C130.017 232.337 128.43 232.153 126.957 231.598C125.484 231.042 124.17 230.133 123.131 228.951C122.092 227.768 121.36 226.348 120.999 224.816L111.208 183.366C110.323 179.622 110.437 175.713 111.538 172.027C112.639 168.342 114.687 165.01 117.48 162.365V162.365Z" stroke="black" stroke-width="2" stroke-linecap="round" stroke-linejoin="round"/>
    <path d="M152.099 216.788L167.129 220.924" stroke="black" stroke-width="2" stroke-linecap="round" stroke-linejoin="round"/>
    <path d="M162.387 308.696C162.387 308.696 144.621 296.724 130.762 300.503L127.349 316.674C127.349 316.674 149.11 313.289 159.614 320.853L162.387 308.696Z" fill="#45E0A8"/>
    <path d="M128.43 308.696C128.43 308.696 146.43 301.746 161.03 314.489" stroke="white" stroke-width="2" stroke-linecap="round" stroke-linejoin="round"/>
    <path d="M141.98 238.219C141.98 238.219 141.021 243.826 137.245 264.774C134.631 279.274 131.779 294.791 129.61 305.807C124.305 332.737 118.184 351.915 115.329 372.317C112.474 392.719 112.064 402.512 112.064 402.512C112.064 402.512 132.058 405.776 141.035 402.512C141.035 402.512 155.316 340.312 161.029 314.489C164.439 299.016 169.254 283.886 175.414 269.289" stroke="black" stroke-width="2" stroke-linecap="round" stroke-linejoin="round"/>
    <path d="M125.092 177.953C125.865 181.018 124.561 183.991 122.179 184.591C119.797 185.191 117.239 183.191 116.466 180.129C115.693 177.067 116.998 174.091 119.38 173.492C121.762 172.893 124.32 174.892 125.092 177.953Z" fill="#45E0A8"/>
    <path d="M122.055 177.791C118.435 182.377 115.418 187.408 113.076 192.761" stroke="#45E0A8" stroke-width="2" stroke-linecap="round" stroke-linejoin="round"/>
    <path fill-rule="evenodd" clip-rule="evenodd" d="M265.949 290.6L271.553 286.635L279.051 282.271L283.765 285.498L290.375 288.326L292.803 299.099L292.385 301.905L286.781 305.868L281.178 309.83L274.568 307.004L267.96 304.178L266.955 297.389L265.949 290.6Z" fill="black"/>
    <path d="M265.949 290.6L271.553 286.635L279.051 282.271L283.765 285.498L290.375 288.326L292.803 299.099L292.385 301.905L286.781 305.868L281.178 309.83L274.568 307.004L267.96 304.178L266.955 297.389L265.949 290.6Z" stroke="black" stroke-width="1.855" stroke-linecap="round" stroke-linejoin="round"/>
    <path fill-rule="evenodd" clip-rule="evenodd" d="M269.191 289.001L274.122 285.636L279.051 282.271L284.954 284.796L290.858 287.319L291.831 293.208L292.803 299.099L287.873 302.464L282.943 305.828L277.04 303.304L271.136 300.779L270.164 294.891L269.191 289.001Z" fill="#45E0A8"/>
    <path d="M269.191 289.001L274.122 285.636L279.051 282.271L284.954 284.796L290.858 287.319L291.831 293.208L292.803 299.099L287.873 302.464L282.943 305.828L277.04 303.304L271.136 300.779L270.164 294.891L269.191 289.001Z" stroke="black" stroke-width="1.855" stroke-linecap="round" stroke-linejoin="round"/>
    <path fill-rule="evenodd" clip-rule="evenodd" d="M288.258 275.207L278.736 287.774C277.401 289.086 276.569 290.824 276.383 292.686C276.282 294.198 276.787 295.688 277.785 296.828C278.783 297.968 280.194 298.665 281.706 298.766C284.277 298.935 286.506 297.193 287.985 295.188L297.092 281.488L288.258 275.207Z" fill="#45E0A8"/>
    <path d="M288.258 275.207L278.736 287.774C277.401 289.086 276.569 290.824 276.383 292.686C276.282 294.198 276.787 295.688 277.785 296.828C278.783 297.968 280.194 298.665 281.706 298.766C284.277 298.935 286.506 297.193 287.985 295.188L297.092 281.488L288.258 275.207Z" stroke="black" stroke-width="2" stroke-linecap="round" stroke-linejoin="round"/>
    <path fill-rule="evenodd" clip-rule="evenodd" d="M286.846 276.844C285.739 278.977 287.111 281.885 289.91 283.344C292.709 284.803 295.879 284.244 296.987 282.114C298.095 279.984 296.722 277.073 293.921 275.614C291.12 274.155 287.953 274.714 286.846 276.844Z" fill="#45E0A8"/>
    <path d="M286.846 276.844C285.739 278.977 287.111 281.885 289.91 283.344C292.709 284.803 295.879 284.244 296.987 282.114C298.095 279.984 296.722 277.073 293.921 275.614C291.12 274.155 287.953 274.71 286.846 276.844Z" stroke="black" stroke-width="1.855" stroke-linecap="round" stroke-linejoin="round"/>
    <path d="M278.735 287.773C278.735 287.773 280.206 295.462 289.641 292.692" stroke="black" stroke-width="1.855" stroke-linecap="round" stroke-linejoin="round"/>
    <path d="M281.483 283.355C281.483 283.355 282.955 291.044 292.39 288.274" stroke="black" stroke-width="1.855" stroke-linecap="round" stroke-linejoin="round"/>
</svg>
