<svg width="224" height="212" viewBox="0 0 224 212" fill="none" xmlns="http://www.w3.org/2000/svg">
    <path d="M190.522 60.6388C183.603 37.673 169.764 15.6996 151.124 0.530812C150.418 -0.0362446 149.43 -0.178008 148.582 0.247284L118.504 13.8566C91.6737 8.8949 64.8434 7.76078 38.8604 17.4007C38.0131 17.6843 37.3071 18.5349 37.3071 19.5272C36.8834 26.8989 35.3301 57.6618 35.3301 57.6618C17.3962 76.6582 3.41615 100.475 0.0270567 126.417C-0.114155 127.268 0.309477 128.26 1.01554 128.686L33.2119 151.226C40.1313 174.192 53.9701 196.165 72.6101 211.334C73.3162 211.901 74.3047 212.043 75.1519 211.618L105.23 198.008C132.06 202.97 158.891 204.104 184.874 194.464C185.721 194.181 186.427 193.33 186.427 192.338L188.404 154.203C206.338 135.207 220.318 111.39 223.707 85.4476C223.848 84.597 223.425 83.6046 222.719 83.1793L190.522 60.6388Z" fill="#FFE84D"/>
</svg>
