<svg width="450" height="450" viewBox="0 0 450 450" fill="none" xmlns="http://www.w3.org/2000/svg">
    <path d="M124.658 75.4316C123.593 75.4317 122.538 75.6416 121.554 76.0495C120.57 76.4573 119.675 77.0551 118.922 77.8086L52.8542 143.882C19.7602 177.104 1.199 222.099 1.24422 268.991C1.28945 315.884 19.9374 360.843 53.0954 394.001C86.2534 427.16 131.212 445.808 178.105 445.854C224.998 445.899 269.993 427.338 303.215 394.245L369.291 328.169C370.044 327.416 370.641 326.523 371.048 325.539C371.455 324.556 371.665 323.502 371.664 322.438V80.0236C371.664 78.8057 371.18 77.6377 370.319 76.7765C369.457 75.9154 368.289 75.4316 367.071 75.4316H124.658Z" fill="#FF98AA"/>
    <path d="M93.4886 174.344C93.4886 174.344 82.5146 175.899 73.7066 179.537C64.8986 183.175 56.5996 187.2 56.5996 187.2L72.7996 183.381C72.7996 183.381 64.6816 190.081 65.8586 189.689C67.0356 189.297 81.3786 183.5 81.3786 183.5L94.7696 179.73L93.4886 174.344Z" fill="white"/>
    <path d="M78.4944 229.899C78.1114 230.856 74.4734 234.134 72.9414 238.24C71.4094 242.346 82.5154 266.749 84.6224 269.771C86.7294 272.793 89.7634 266.486 89.7634 266.486L89.0934 258.72L111.622 284.042C111.622 284.042 116.6 283.708 116.022 280.835C115.444 277.962 111.622 268.005 111.622 268.005L124.068 276.623C124.068 276.623 125.983 278.023 128.281 274.834C126.039 266.413 123.093 258.195 119.473 250.267C113.92 238.516 102.473 220.067 100.539 217.899C98.6054 215.731 78.4944 229.899 78.4944 229.899Z" fill="black"/>
    <path d="M78.4944 229.899C78.1114 230.856 74.4734 234.134 72.9414 238.24C71.4094 242.346 82.5154 266.749 84.6224 269.771C86.7294 272.793 89.7634 266.486 89.7634 266.486L89.0934 258.72L111.622 284.042C111.622 284.042 116.6 283.708 116.022 280.835C115.444 277.962 111.622 268.005 111.622 268.005L124.068 276.623C124.068 276.623 125.983 278.023 128.281 274.834C126.039 266.413 123.093 258.195 119.473 250.267C113.92 238.516 102.473 220.067 100.539 217.899C98.6054 215.731 78.4944 229.899 78.4944 229.899Z" stroke="black" stroke-width="2" stroke-linecap="round" stroke-linejoin="round"/>
    <path d="M231.5 266.485C233.049 263.9 448.618 54.293 448.618 54.293" stroke="#FF98AA" stroke-width="2" stroke-miterlimit="10"/>
    <path d="M213.637 318.791C213.351 322.254 212.044 325.554 209.882 328.275C207.72 330.995 204.8 333.013 201.491 334.074C198.182 335.135 194.633 335.19 191.292 334.234C187.951 333.277 184.969 331.352 182.723 328.701C180.477 326.05 179.067 322.792 178.672 319.34C178.278 315.887 178.915 312.396 180.505 309.306C182.095 306.216 184.565 303.667 187.603 301.981C190.642 300.295 194.112 299.548 197.575 299.834C199.874 300.024 202.114 300.665 204.165 301.721C206.217 302.776 208.041 304.226 209.532 305.986C211.024 307.746 212.154 309.783 212.858 311.98C213.562 314.177 213.827 316.492 213.637 318.791Z" fill="white"/>
    <path d="M213.637 318.791C213.351 322.254 212.044 325.554 209.882 328.275C207.72 330.995 204.8 333.013 201.491 334.074C198.182 335.135 194.633 335.19 191.292 334.234C187.951 333.277 184.969 331.352 182.723 328.701C180.477 326.05 179.067 322.792 178.672 319.34C178.278 315.887 178.915 312.396 180.505 309.306C182.095 306.216 184.565 303.667 187.603 301.981C190.642 300.295 194.112 299.548 197.575 299.834C199.874 300.024 202.114 300.665 204.165 301.721C206.217 302.776 208.041 304.226 209.532 305.986C211.024 307.746 212.154 309.783 212.858 311.98C213.562 314.177 213.827 316.492 213.637 318.791Z" stroke="#FF98AA" stroke-width="2" stroke-linecap="round" stroke-linejoin="round"/>
    <path d="M264.914 296.601C265.215 292.963 264.435 289.318 262.673 286.122C260.911 282.926 258.245 280.321 255.009 278.634C256.15 258.465 241.421 229.334 221.17 227.662C215.943 227.229 210.48 239.51 205.806 241.08C202.862 237.142 198.617 234.375 193.826 233.27C189.035 232.166 184.008 232.795 179.636 235.046C175.265 237.297 171.833 241.024 169.95 245.566C168.067 250.108 167.854 255.17 169.349 259.854C166.375 261.639 163.895 264.141 162.136 267.131C160.378 270.122 159.396 273.505 159.282 276.972C159.167 280.439 159.923 283.88 161.481 286.98C163.038 290.08 165.347 292.74 168.197 294.718C167.938 295.63 167.767 296.565 167.686 297.51C167.411 300.806 168.263 304.098 170.104 306.846C171.945 309.594 174.665 311.636 177.818 312.635C180.971 313.635 184.37 313.533 187.458 312.348C190.546 311.162 193.139 308.963 194.813 306.11C197.182 307.947 199.764 309.492 202.503 310.71C201.567 314.086 201.397 317.63 202.006 321.08C202.615 324.531 203.987 327.802 206.023 330.655C208.058 333.507 210.706 335.868 213.771 337.566C216.836 339.264 220.242 340.256 223.74 340.468C227.238 340.681 230.739 340.109 233.987 338.795C237.235 337.48 240.149 335.457 242.515 332.872C244.881 330.287 246.639 327.206 247.661 323.854C248.683 320.503 248.944 316.965 248.423 313.5C252.708 313.039 256.698 311.1 259.708 308.016C262.718 304.932 264.559 300.895 264.914 296.601Z" fill="white"/>
    <path d="M264.914 296.601C265.215 292.963 264.435 289.318 262.673 286.122C260.911 282.926 258.245 280.321 255.009 278.634C256.15 258.465 241.421 229.334 221.17 227.662C215.943 227.229 210.48 239.51 205.806 241.08C202.862 237.142 198.617 234.375 193.826 233.27C189.035 232.166 184.008 232.795 179.636 235.046C175.265 237.297 171.833 241.024 169.95 245.566C168.067 250.108 167.854 255.17 169.349 259.854C166.375 261.639 163.895 264.141 162.136 267.131C160.378 270.122 159.396 273.505 159.282 276.972C159.167 280.439 159.923 283.88 161.481 286.98C163.038 290.08 165.347 292.74 168.197 294.718C167.938 295.63 167.767 296.565 167.686 297.51C167.411 300.806 168.263 304.098 170.104 306.846C171.945 309.594 174.665 311.636 177.818 312.635C180.971 313.635 184.37 313.533 187.458 312.348C190.546 311.162 193.139 308.963 194.813 306.11C197.182 307.947 199.764 309.492 202.503 310.71C201.567 314.086 201.397 317.63 202.006 321.08C202.615 324.531 203.987 327.802 206.023 330.655C208.058 333.507 210.706 335.868 213.771 337.566C216.836 339.264 220.242 340.256 223.74 340.468C227.238 340.681 230.739 340.109 233.987 338.795C237.235 337.48 240.149 335.457 242.515 332.872C244.881 330.287 246.639 327.206 247.661 323.854C248.683 320.503 248.944 316.965 248.423 313.5C252.708 313.039 256.698 311.1 259.708 308.016C262.718 304.932 264.559 300.895 264.914 296.601Z" stroke="#FF98AA" stroke-width="2" stroke-linecap="round" stroke-linejoin="round"/>
    <path d="M200.636 261.077C196.124 257.905 192.781 253.336 191.123 248.075C189.466 242.815 189.585 237.155 191.464 231.969C193.343 226.783 196.876 222.359 201.518 219.381C206.16 216.402 211.654 215.034 217.151 215.487" fill="white"/>
    <path d="M200.636 261.077C196.124 257.905 192.781 253.336 191.123 248.075C189.466 242.815 189.585 237.155 191.464 231.969C193.343 226.783 196.876 222.359 201.518 219.381C206.16 216.402 211.654 215.034 217.151 215.487" stroke="#FF98AA" stroke-width="2" stroke-linecap="round" stroke-linejoin="round"/>
    <path d="M245.26 272.553C246.746 269.453 248.975 266.769 251.749 264.738C254.522 262.707 257.754 261.392 261.158 260.909C264.561 260.427 268.031 260.793 271.259 261.974C274.488 263.155 277.375 265.115 279.664 267.68C281.953 270.244 283.573 273.334 284.381 276.676C285.189 280.017 285.159 283.506 284.295 286.833C283.431 290.16 281.758 293.223 279.426 295.748C277.094 298.274 274.174 300.184 270.927 301.311C272.192 303.384 273.027 305.691 273.38 308.094C273.734 310.497 273.599 312.947 272.984 315.297C272.368 317.646 271.285 319.848 269.8 321.769C268.314 323.691 266.456 325.293 264.336 326.48C262.217 327.666 259.88 328.413 257.465 328.676C255.051 328.939 252.608 328.712 250.283 328.008C247.958 327.305 245.799 326.14 243.935 324.583C242.071 323.025 240.54 321.108 239.434 318.946" fill="white"/>
    <path d="M245.26 272.553C246.746 269.453 248.975 266.769 251.749 264.738C254.522 262.707 257.754 261.392 261.158 260.909C264.561 260.427 268.031 260.793 271.259 261.974C274.488 263.155 277.375 265.115 279.664 267.68C281.953 270.244 283.573 273.334 284.381 276.676C285.189 280.017 285.159 283.506 284.295 286.833C283.431 290.16 281.758 293.223 279.426 295.748C277.094 298.274 274.174 300.184 270.927 301.311C272.192 303.384 273.027 305.691 273.38 308.094C273.734 310.497 273.599 312.947 272.984 315.297C272.368 317.646 271.285 319.848 269.8 321.769C268.314 323.691 266.456 325.293 264.336 326.48C262.217 327.666 259.88 328.413 257.465 328.676C255.051 328.939 252.608 328.712 250.283 328.008C247.958 327.305 245.799 326.14 243.935 324.583C242.071 323.025 240.54 321.108 239.434 318.946" stroke="#FF98AA" stroke-width="2" stroke-linecap="round" stroke-linejoin="round"/>
    <path d="M268.099 231.183C280.74 244.015 282.799 262.478 272.711 272.42C262.623 282.362 244.188 280.02 231.547 267.189C218.906 254.358 216.847 235.889 226.936 225.951C237.025 216.013 255.458 218.351 268.099 231.183Z" fill="black"/>
    <path d="M268.099 231.182C280.74 244.014 282.799 262.477 272.711 272.419C262.623 282.361 244.188 280.019 231.547 267.188C218.906 254.357 216.847 235.888 226.936 225.95C237.025 216.012 255.457 218.349 268.099 231.182Z" stroke="black" stroke-width="2" stroke-linecap="round" stroke-linejoin="round"/>
    <path d="M315.174 85.1055C315.174 85.1055 275.457 122.867 230.404 225.183L230.412 225.19C226.641 234.372 230.396 247.678 240.474 257.909C250.862 268.455 264.609 272.314 273.868 268.087L273.877 268.096C376.762 224.356 415.029 185.126 415.029 185.126L315.174 85.1055Z" fill="white"/>
    <path d="M315.174 85.1055C315.174 85.1055 275.457 122.867 230.404 225.183L230.412 225.19C226.641 234.372 230.396 247.678 240.474 257.909C250.862 268.455 264.609 272.314 273.868 268.087L273.877 268.096C376.762 224.356 415.029 185.126 415.029 185.126L315.174 85.1055Z" stroke="black" stroke-width="2" stroke-linecap="round" stroke-linejoin="round"/>
    <path d="M424.219 171.315C421.733 176.865 418.628 182.132 414.383 185.825C394.99 204.912 357.066 197.862 329.672 170.039C302.272 142.231 295.786 104.2 315.181 85.1119C315.194 85.1002 315.205 85.0863 315.213 85.0709C315.966 84.1219 328.792 68.9199 377.946 60.2109C376.608 61.0143 375.372 61.9756 374.263 63.0739C370.08 67.1999 368 72.8789 367.849 79.2899C379.86 84.2785 390.751 91.6215 399.88 100.886C409.008 110.15 416.19 121.148 421 133.232C427.412 133.19 433.12 131.183 437.287 127.07C437.444 126.927 437.589 126.772 437.722 126.607C435.588 137.279 432.762 147.801 429.264 158.107C427.8 162.249 426.206 166.873 424.216 171.317" fill="#FF98AA"/>
    <path d="M424.219 171.315C421.733 176.865 418.628 182.132 414.383 185.825C394.99 204.912 357.066 197.862 329.672 170.039C302.272 142.231 295.786 104.2 315.181 85.1119C315.194 85.1002 315.205 85.0863 315.213 85.0709C315.966 84.1219 328.792 68.9199 377.946 60.2109C376.608 61.0143 375.372 61.9756 374.263 63.0739C370.08 67.1999 368 72.8789 367.849 79.2899C379.86 84.2785 390.751 91.6215 399.88 100.886C409.008 110.15 416.19 121.148 421 133.232C427.412 133.19 433.12 131.183 437.287 127.07C437.444 126.927 437.589 126.772 437.722 126.607C435.588 137.279 432.762 147.801 429.264 158.107C427.8 162.247 426.209 166.871 424.219 171.315Z" stroke="black" stroke-width="2" stroke-linecap="round" stroke-linejoin="round"/>
    <path d="M312.591 100.657C309.579 120.334 316.806 145.8 335.674 164.957C354.044 183.615 379.102 191.277 398.434 189.418" stroke="black" stroke-width="2" stroke-linecap="round" stroke-linejoin="round"/>
    <path d="M300.5 226.441C293.431 225.848 286.797 222.783 281.763 217.786C277.917 213.875 275.236 208.97 274.022 203.621C272.807 198.272 273.107 192.691 274.887 187.503C276.918 181.766 280.773 176.852 285.861 173.513C290.949 170.174 296.992 168.593 303.063 169.014C309.842 169.574 316.297 172.775 321.729 178.267C329.338 185.961 332.329 195.386 330.164 204.804C329.059 209.422 326.815 213.69 323.636 217.218C320.458 220.745 316.446 223.421 311.968 225C308.29 226.286 304.381 226.775 300.499 226.437" fill="black"/>
    <path d="M300.5 226.441C293.431 225.848 286.797 222.783 281.763 217.786C277.917 213.875 275.236 208.97 274.022 203.621C272.807 198.272 273.107 192.691 274.887 187.503C276.918 181.766 280.773 176.852 285.861 173.513C290.949 170.174 296.992 168.593 303.063 169.014C309.842 169.574 316.297 172.775 321.729 178.267C329.338 185.961 332.329 195.386 330.164 204.804C329.059 209.422 326.815 213.69 323.636 217.218C320.458 220.745 316.446 223.421 311.968 225C308.291 226.287 304.382 226.778 300.5 226.441V226.441Z" stroke="black" stroke-width="2" stroke-linecap="round" stroke-linejoin="round"/>
    <path d="M297.381 228.809C290.312 228.216 283.678 225.152 278.644 220.154C274.798 216.243 272.117 211.339 270.903 205.99C269.688 200.641 269.988 195.059 271.768 189.871C273.799 184.134 277.653 179.22 282.742 175.881C287.83 172.542 293.872 170.961 299.944 171.382C306.723 171.942 313.178 175.142 318.61 180.635C326.219 188.329 329.21 197.754 327.045 207.172C325.941 211.791 323.697 216.059 320.518 219.588C317.34 223.116 313.329 225.792 308.85 227.372C305.172 228.658 301.263 229.148 297.381 228.809Z" fill="#FF98AA"/>
    <path d="M297.381 228.809C290.312 228.216 283.678 225.152 278.644 220.154C274.798 216.243 272.117 211.339 270.903 205.99C269.688 200.641 269.988 195.059 271.768 189.871C273.799 184.134 277.653 179.22 282.742 175.881C287.83 172.542 293.872 170.961 299.944 171.382C306.723 171.942 313.178 175.142 318.61 180.635C326.219 188.329 329.21 197.754 327.045 207.172C325.941 211.791 323.697 216.059 320.518 219.588C317.34 223.116 313.329 225.792 308.85 227.372C305.172 228.658 301.263 229.148 297.381 228.809V228.809Z" stroke="black" stroke-width="2" stroke-linecap="round" stroke-linejoin="round"/>
    <path d="M306.614 221.223C298.214 224.18 288.852 221.278 283.244 215.606C277.636 209.934 274.839 200.542 277.889 192.175C282.752 178.841 300.464 171.487 314.009 185.184C327.554 198.881 320.002 216.51 306.609 221.223" fill="#1D1D1B"/>
    <path d="M448.613 54.2931C448.613 54.2931 446.707 75.3931 442.513 100.903C441.169 109.194 439.564 117.962 437.72 126.603C437.588 126.768 437.443 126.923 437.286 127.066C425.632 138.552 402.057 133.539 384.661 115.866C378.201 109.436 373.245 101.655 370.15 93.0811C408.491 67.7601 448.61 54.2861 448.61 54.2861" fill="white"/>
    <path d="M448.613 54.293C448.613 54.293 446.707 75.393 442.513 100.903C441.169 109.194 439.564 117.962 437.72 126.603C437.588 126.768 437.443 126.923 437.286 127.066C425.632 138.552 402.057 133.539 384.661 115.866C378.201 109.436 373.245 101.655 370.15 93.081C408.499 67.767 448.613 54.293 448.613 54.293Z" stroke="black" stroke-width="2" stroke-linecap="round" stroke-linejoin="round"/>
    <path d="M448.615 54.293C448.615 54.293 408.501 67.767 370.155 93.088C366.128 81.318 367.239 70.001 374.263 63.075C375.371 61.9765 376.608 61.0149 377.946 60.211C383.734 59.194 390.029 58.263 396.871 57.45H396.885C414.06 55.489 431.328 54.4349 448.615 54.292" fill="#1D1D1B"/>
    <path d="M448.614 54.293C448.614 54.293 446.708 75.393 442.514 100.903C441.17 109.194 439.565 117.962 437.721 126.603C437.588 126.768 437.443 126.923 437.287 127.066C425.633 138.552 402.058 133.539 384.662 115.866C367.251 98.194 362.59 74.566 374.262 63.066C375.37 61.9674 376.607 61.0059 377.945 60.202C383.733 59.185 390.028 58.254 396.87 57.441C396.87 57.441 396.87 57.427 396.884 57.441C414.06 55.4834 431.327 54.4326 448.614 54.293V54.293Z" stroke="black" stroke-width="2" stroke-linecap="round" stroke-linejoin="round"/>
    <path d="M249.166 185.445L214.081 196.354L197.385 250.266L230.404 225.183L249.166 185.445Z" fill="#FF98AA"/>
    <path d="M249.166 185.445L214.081 196.354L197.385 250.266L230.404 225.183L249.166 185.445Z" stroke="black" stroke-width="2" stroke-linecap="round" stroke-linejoin="round"/>
    <path d="M317.428 248.077L306.379 282.306L252.721 299.801L277.312 266.412L317.428 248.077Z" fill="#FF98AA"/>
    <path d="M317.428 248.077L306.379 282.306L252.721 299.801L277.312 266.412L317.428 248.077Z" stroke="black" stroke-width="2" stroke-linecap="round" stroke-linejoin="round"/>
    <path d="M270.6 227.814L217.979 281.928" stroke="black" stroke-width="2" stroke-linecap="round" stroke-linejoin="round"/>
    <path d="M208.187 311.52C207.036 313.738 205.051 315.408 202.669 316.163C200.287 316.918 197.703 316.695 195.484 315.544C193.266 314.394 191.596 312.409 190.841 310.027C190.087 307.644 190.309 305.06 191.46 302.842" fill="white"/>
    <path d="M208.187 311.52C207.036 313.738 205.051 315.408 202.669 316.163C200.287 316.918 197.703 316.695 195.484 315.544C193.266 314.394 191.596 312.409 190.841 310.027C190.087 307.644 190.309 305.06 191.46 302.842" stroke="#FF98AA" stroke-width="2" stroke-linecap="round" stroke-linejoin="round"/>
    <path d="M171.234 274.833C169.827 273.631 168.758 272.082 168.134 270.34C167.51 268.597 167.352 266.722 167.676 264.9C168 263.077 168.795 261.371 169.982 259.951C171.168 258.531 172.706 257.446 174.441 256.803" fill="white"/>
    <path d="M171.234 274.833C169.827 273.631 168.758 272.082 168.134 270.34C167.51 268.597 167.352 266.722 167.676 264.9C168 263.077 168.795 261.371 169.982 259.951C171.168 258.531 172.706 257.446 174.441 256.803" stroke="#FF98AA" stroke-width="2" stroke-linecap="round" stroke-linejoin="round"/>
    <path d="M186.136 285.765C184.319 286.336 182.353 286.19 180.64 285.358C178.927 284.525 177.598 283.069 176.924 281.288C176.25 279.507 176.283 277.536 177.016 275.778C177.749 274.02 179.126 272.61 180.866 271.835" fill="white"/>
    <path d="M186.136 285.765C184.319 286.336 182.353 286.19 180.64 285.358C178.927 284.525 177.598 283.069 176.924 281.288C176.25 279.507 176.283 277.536 177.016 275.778C177.749 274.02 179.126 272.61 180.866 271.835" stroke="#FF98AA" stroke-width="2" stroke-linecap="round" stroke-linejoin="round"/>
    <path d="M317.684 203.391C317.272 205.62 316.093 205.757 313.264 205.234C310.264 204.679 309.845 204.07 309.914 201.778C310.376 195.923 307.421 190.324 301.002 188.605C298.976 188.053 298.602 187.186 299.08 184.615C299.524 182.215 300.073 181.164 301.958 181.515C306.934 182.351 311.379 185.119 314.325 189.217C317.27 193.314 318.478 198.41 317.684 203.393" fill="white"/>
    <path d="M71.1538 228.909C71.3198 228.76 65.1358 221.226 64.5358 220.232C60.0178 212.744 65.3898 203.902 72.1748 200.101C81.8748 194.665 81.1108 189.686 81.1108 189.686C82.0354 191.851 82.4317 194.206 82.2668 196.556C82.2668 196.556 86.4668 193.897 87.7498 189.686C87.7498 189.686 93.6218 192.632 92.5998 201.559C92.1898 205.141 88.6558 210.253 84.5698 215.089C80.3729 219.955 75.8931 224.569 71.1538 228.909Z" fill="black"/>
    <path d="M71.1538 228.909C71.3198 228.76 65.1358 221.226 64.5358 220.232C60.0178 212.744 65.3898 203.902 72.1748 200.101C81.8748 194.665 81.1108 189.686 81.1108 189.686C82.0354 191.851 82.4317 194.206 82.2668 196.556C82.2668 196.556 86.4668 193.897 87.7498 189.686C87.7498 189.686 93.6218 192.632 92.5998 201.559C92.1898 205.141 88.6558 210.253 84.5698 215.089C80.3729 219.955 75.8931 224.569 71.1538 228.909V228.909Z" stroke="black" stroke-width="2" stroke-linecap="round" stroke-linejoin="round"/>
    <path d="M89.7637 268.005C89.7637 268.005 92.2827 272.597 93.8147 273.939" stroke="black" stroke-width="2" stroke-linecap="round" stroke-linejoin="round"/>
    <path d="M85.835 270.584C85.835 270.584 87.035 276.622 92.72 277.584" stroke="black" stroke-width="2" stroke-linecap="round" stroke-linejoin="round"/>
    <path d="M90.5586 273.939L93.8136 277.58" stroke="black" stroke-width="2" stroke-linecap="round" stroke-linejoin="round"/>
    <path d="M116.792 284.041C116.792 286.647 115.721 288.761 114.398 288.761C113.075 288.761 112.005 286.647 112.005 284.041C112.005 281.435 113.076 279.322 114.398 279.322C115.72 279.322 116.792 281.435 116.792 284.041Z" stroke="black" stroke-width="2" stroke-linecap="round" stroke-linejoin="round"/>
    <path d="M107.5 393.501C108.229 396.82 107.454 399.811 105.771 400.18C104.088 400.549 102.132 398.159 101.403 394.84C100.674 391.521 101.448 388.53 103.132 388.161C104.816 387.792 106.771 390.182 107.5 393.501Z" fill="white"/>
    <path d="M107.5 393.501C108.229 396.82 107.454 399.811 105.771 400.18C104.088 400.549 102.132 398.159 101.403 394.84C100.674 391.521 101.448 388.53 103.132 388.161C104.816 387.792 106.766 390.183 107.5 393.501Z" stroke="black" stroke-width="2" stroke-linecap="round" stroke-linejoin="round"/>
    <path d="M122.554 382.48C124.674 385.137 125.3 388.162 123.954 389.237C122.608 390.312 119.797 389.031 117.677 386.376C115.557 383.721 114.93 380.696 116.277 379.621C117.624 378.546 120.435 379.826 122.555 382.48" fill="white"/>
    <path d="M122.554 382.48C124.674 385.137 125.3 388.162 123.954 389.237C122.608 390.312 119.797 389.031 117.677 386.376C115.557 383.721 114.93 380.696 116.277 379.621C117.624 378.546 120.434 379.826 122.554 382.48Z" stroke="black" stroke-width="2" stroke-linecap="round" stroke-linejoin="round"/>
    <path d="M128.82 274.17C131.359 274.757 133.175 276.277 132.878 277.57C132.581 278.863 130.278 279.425 127.741 278.838C125.204 278.251 123.384 276.73 123.682 275.443C123.98 274.156 126.28 273.582 128.82 274.17Z" stroke="black" stroke-width="2" stroke-linecap="round" stroke-linejoin="round"/>
    <path d="M109.133 231.047C109.133 231.047 107.409 228.2 112.005 219.175C116.601 210.15 129.877 192.622 121.962 179.601C114.047 166.58 87.7998 164.792 87.7998 164.792C87.7998 164.792 95.3938 168.741 92.7208 181.447C92.7208 181.447 104.602 181.642 107.665 189.685C110.728 197.728 105.424 212.475 97.2818 217.672C89.1398 222.869 109.134 231.047 109.134 231.047" fill="black"/>
    <path d="M109.133 231.047C109.133 231.047 107.409 228.2 112.005 219.175C116.601 210.15 129.877 192.622 121.962 179.601C114.047 166.58 87.7998 164.792 87.7998 164.792C87.7998 164.792 95.3938 168.741 92.7208 181.447C92.7208 181.447 104.602 181.642 107.665 189.685C110.728 197.728 105.424 212.475 97.2818 217.672C89.1398 222.869 109.133 231.047 109.133 231.047Z" stroke="black" stroke-width="2" stroke-linecap="round" stroke-linejoin="round"/>
    <path d="M89.2767 164.93C89.2767 164.93 73.4077 166.419 67.5567 168.93C61.7057 171.441 50.4837 179.801 50.9997 181.448C51.5157 183.095 67.5617 174.24 67.5617 174.24C67.5617 174.24 49.7117 182.155 50.2217 183.94C50.7317 185.725 72.8017 177.44 72.8017 177.44C72.8017 177.44 56.6017 184.108 56.6017 187.199C56.6017 190.29 75.9897 181.45 75.9897 181.45C75.9897 181.45 61.7507 189.814 65.0897 189.688C68.4287 189.562 80.3447 183.688 80.3447 183.688L92.7187 181.45" stroke="black" stroke-width="2" stroke-linecap="round" stroke-linejoin="round"/>
    <path d="M56.6001 254.871C56.6001 254.871 55.3241 238.324 41.5371 240.371C27.7501 242.418 27.7501 259.26 19.3251 262.835C19.3251 262.835 24.9421 262.895 27.7501 261.078C27.7501 261.078 25.7071 275.234 15.4951 281.928C17.7994 282.898 20.3047 283.293 22.7957 283.08C25.2866 282.868 27.6887 282.053 29.7951 280.707C29.7951 280.707 29.0301 283.599 24.9451 286.107C24.9451 286.107 36.4341 285.607 43.5831 275.756C48.339 269.063 52.686 262.088 56.6001 254.871Z" fill="black"/>
    <path d="M56.6001 254.871C56.6001 254.871 55.3241 238.324 41.5371 240.371C27.7501 242.418 27.7501 259.26 19.3251 262.835C19.3251 262.835 24.9421 262.895 27.7501 261.078C27.7501 261.078 25.7071 275.234 15.4951 281.928C17.7994 282.898 20.3047 283.293 22.7957 283.08C25.2866 282.868 27.6887 282.053 29.7951 280.707C29.7951 280.707 29.0301 283.599 24.9451 286.107C24.9451 286.107 36.4341 285.607 43.5831 275.756C48.339 269.063 52.686 262.088 56.6001 254.871V254.871Z" stroke="black" stroke-width="2" stroke-linecap="round" stroke-linejoin="round"/>
    <path d="M59.3527 265.818C59.3527 265.818 66.3027 262.191 69.3667 263.151C72.4307 264.111 83.9197 288.76 83.9197 288.76L81.1117 293.472C84.7547 302.089 86.7247 307.622 87.2187 311.6L71.4997 326.409L43.8347 308.281C43.8347 308.281 39.0787 295.918 39.0997 289.6C39.1137 285.534 46.8137 273.939 46.8137 273.939L59.3527 265.818Z" fill="white"/>
    <path d="M59.3527 265.818C59.3527 265.818 66.3027 262.191 69.3667 263.151C72.4307 264.111 83.9197 288.76 83.9197 288.76L81.1117 293.472C84.7547 302.089 86.7247 307.622 87.2187 311.6L71.4997 326.409L43.8347 308.281C43.8347 308.281 39.0787 295.918 39.0997 289.6C39.1137 285.534 46.8137 273.939 46.8137 273.939L59.3527 265.818Z" stroke="black" stroke-width="2" stroke-linecap="round" stroke-linejoin="round"/>
    <path d="M84.3579 297.86C84.3579 297.86 87.7979 292.707 83.9199 288.76" stroke="black" stroke-width="2" stroke-linecap="round" stroke-linejoin="round"/>
    <path d="M76.4827 315.125C76.4827 315.125 85.8347 309.725 93.8127 311.601C99.8447 313.019 113.983 338.454 115.835 342.301C117.687 346.148 112 347.855 112 347.855L121.2 381.3C121.2 381.3 119.285 384.874 116.8 384.618C114.315 384.362 105.5 376.576 105.5 376.576L107.926 392.533C107.926 392.533 103.377 395.087 100.545 393.81C97.7127 392.533 74.4717 363.94 74.4717 363.94L79.5857 383.09C79.5857 383.09 75.9707 385.898 72.7957 383.345C69.6207 380.792 55.5957 351.756 54.8127 347.855C52.9617 338.664 67.5567 328.775 67.5567 328.775L76.4827 315.125Z" fill="black"/>
    <path d="M76.4827 315.125C76.4827 315.125 85.8347 309.725 93.8127 311.601C99.8447 313.019 113.983 338.454 115.835 342.301C117.687 346.148 112 347.855 112 347.855L121.2 381.3C121.2 381.3 119.285 384.874 116.8 384.618C114.315 384.362 105.5 376.576 105.5 376.576L107.926 392.533C107.926 392.533 103.377 395.087 100.545 393.81C97.7127 392.533 74.4717 363.94 74.4717 363.94L79.5857 383.09C79.5857 383.09 75.9707 385.898 72.7957 383.345C69.6207 380.792 55.5957 351.756 54.8127 347.855C52.9617 338.664 67.5567 328.775 67.5567 328.775L76.4827 315.125Z" stroke="black" stroke-width="2" stroke-linecap="round" stroke-linejoin="round"/>
    <path d="M79.3512 318.494C79.3512 318.494 84.8042 336.817 79.5862 338.244C71.5862 340.432 64.8652 330.822 64.8652 330.822L79.3512 318.494Z" fill="#FF98AA"/>
    <path d="M79.3512 318.494C79.3512 318.494 84.8042 336.817 79.5862 338.244C71.5862 340.432 64.8652 330.822 64.8652 330.822L79.3512 318.494Z" stroke="#FF98AA" stroke-width="2" stroke-linecap="round" stroke-linejoin="round"/>
    <path d="M73.707 171.686C73.707 171.686 77.728 175.195 79.261 178.133" stroke="black" stroke-width="2" stroke-linecap="round" stroke-linejoin="round"/>
    <path d="M70.5156 276.5C70.7706 277.13 81.3786 294.264 81.3786 294.264" stroke="black" stroke-width="2" stroke-linecap="round" stroke-linejoin="round"/>
    <path d="M114.911 343.288C114.911 343.288 119.098 351.596 116.792 354.238C114.486 356.88 112.005 352.885 112.005 352.885" stroke="black" stroke-width="2" stroke-linecap="round" stroke-linejoin="round"/>
    <path d="M79.5859 383.09C79.5859 383.09 82.1329 386.153 82.1329 389.409" stroke="black" stroke-width="2" stroke-linecap="round" stroke-linejoin="round"/>
    <path d="M73.9004 385.389C73.9004 385.389 77.9214 395.346 82.1344 396.112L80.0164 389.412" stroke="black" stroke-width="2" stroke-linecap="round" stroke-linejoin="round"/>
    <path d="M67.4994 298.071C67.4994 298.071 57.0894 292.7 50.2064 299.8C43.3234 306.9 40.0064 316.352 36.0474 315.125C36.0474 315.125 37.7174 320.281 41.5474 319.77C41.5474 319.77 38.5864 326.409 34.3164 326.409C39.1014 333.279 59.2344 335.582 62.8694 328.775L67.4994 298.071Z" fill="black"/>
    <path d="M67.4994 298.071C67.4994 298.071 57.0894 292.7 50.2064 299.8C43.3234 306.9 40.0064 316.352 36.0474 315.125C36.0474 315.125 37.7174 320.281 41.5474 319.77C41.5474 319.77 38.5864 326.409 34.3164 326.409C39.1014 333.279 59.2344 335.582 62.8694 328.775L67.4994 298.071Z" stroke="black" stroke-width="2" stroke-linecap="round" stroke-linejoin="round"/>
    <path d="M65.7632 297.474C66.3677 297.594 66.953 297.796 67.5032 298.074C72.0112 300.33 75.1772 305.301 77.1572 309.727C79.9762 316.027 80.4572 324.26 76.9062 330.381C76.4976 331.157 75.9352 331.841 75.2532 332.393C72.9402 334.1 69.4042 332.982 66.9722 332.066C66.2442 331.791 58.4992 326.866 59.2572 326.412C59.2572 326.412 53.4682 329.329 52.8282 323.858C52.2012 318.497 56.4872 319.758 56.6002 319.773C55.0292 319.589 53.9502 314.867 53.7482 313.807C53.0843 310.612 53.4379 307.29 54.7592 304.307C56.6252 300.307 61.3162 296.599 65.7592 297.481" fill="#FF98AA"/>
    <path d="M65.8125 315.311C65.8125 315.311 70.8215 311.601 71.4995 313.388C72.1775 315.175 68.6555 318.495 68.6555 318.495" fill="#FF98AA"/>
    <path d="M65.8125 315.311C65.8125 315.311 70.8215 311.601 71.4995 313.388C72.1775 315.175 68.6555 318.495 68.6555 318.495" stroke="black" stroke-width="2" stroke-linecap="round" stroke-linejoin="round"/>
    <path d="M59.2568 299.083C61.9285 299.901 64.3987 301.272 66.5076 303.105C68.6165 304.938 70.3172 307.193 71.4998 309.725C75.7518 318.494 75.2548 332.391 75.2548 332.391C75.2548 332.391 82.8638 320.605 77.9158 311.648C72.9678 302.691 66.7658 294.736 59.2588 299.083" fill="white"/>
    <path d="M65.7634 297.474C66.3678 297.595 66.9531 297.796 67.5034 298.074C72.0114 300.33 75.1774 305.301 77.1574 309.727C79.9764 316.027 80.4574 324.26 76.9064 330.381C76.4978 331.157 75.9353 331.842 75.2534 332.393C72.9404 334.1 69.4044 332.982 66.9724 332.066C66.2444 331.791 58.4994 326.866 59.2574 326.412C59.2574 326.412 53.9844 328.778 52.8284 323.858C51.5794 318.543 56.4874 319.758 56.6004 319.773C55.0294 319.589 53.9504 314.867 53.7484 313.807C53.0844 310.612 53.438 307.29 54.7594 304.307C56.6254 300.3 61.3164 296.592 65.7634 297.474Z" stroke="black" stroke-width="2" stroke-linecap="round" stroke-linejoin="round"/>
    <path d="M48.9414 291.175C48.9414 291.175 52.7334 295.915 52.6244 299.801" stroke="black" stroke-width="2" stroke-linecap="round" stroke-linejoin="round"/>
    <path d="M48.7246 276.044C48.7246 276.044 53.2826 283.022 56.6016 281.928C59.9206 280.834 58.0826 271.559 58.0826 271.559L48.7246 276.044Z" fill="#FF98AA"/>
    <path d="M48.7246 276.044C48.7246 276.044 53.2826 283.022 56.6016 281.928C59.9206 280.834 58.0826 271.559 58.0826 271.559L48.7246 276.044Z" stroke="black" stroke-width="2" stroke-linecap="round" stroke-linejoin="round"/>
    <path d="M81.3789 232.579C81.7609 234.611 88.2609 240.07 93.8139 238.239C99.3669 236.408 93.8139 229 93.8139 229L81.3789 232.579Z" fill="#FF98AA"/>
    <path d="M81.3789 232.579C81.7609 234.611 88.2609 240.07 93.8139 238.239C99.3669 236.408 93.8139 229 93.8139 229L81.3789 232.579Z" stroke="#FF98AA" stroke-width="2" stroke-linecap="round" stroke-linejoin="round"/>
    <path d="M83.4083 205.488C83.4083 205.488 73.9623 202.579 70.8973 212.281C69.0403 218.165 72.9403 226.541 72.9403 226.541C72.9403 226.541 68.0893 224.792 67.5783 227.601C67.0673 230.41 75.7493 230.92 75.7493 230.92C75.7493 230.92 82.6423 237.303 91.0673 235.771C99.4923 234.239 100.514 210.694 83.4083 205.488Z" fill="#FF98AA"/>
    <path d="M77.1562 205.523C77.1562 205.523 88.1333 212.023 90.9413 221.218C93.7493 230.413 93.1693 234.836 93.1693 234.836C93.1693 234.836 100.536 226.936 95.5493 216.895C90.5623 206.854 83.8003 204.253 77.1562 205.523Z" fill="white"/>
    <path d="M85.835 215.218C85.835 215.218 88.644 213.175 89.535 214.579C90.426 215.983 88.386 217.899 88.386 217.899" fill="#FF98AA"/>
    <path d="M85.835 215.218C85.835 215.218 88.644 213.175 89.535 214.579C90.426 215.983 88.386 217.899 88.386 217.899" stroke="black" stroke-width="2" stroke-linecap="round" stroke-linejoin="round"/>
    <path d="M83.4083 205.488C83.4083 205.488 73.9623 202.579 70.8973 212.281C69.0403 218.165 72.9403 226.541 72.9403 226.541C72.9403 226.541 68.0893 224.792 67.5783 227.601C67.0673 230.41 75.7493 230.92 75.7493 230.92C75.7493 230.92 82.6423 237.303 91.0673 235.771C99.4923 234.239 100.514 210.694 83.4083 205.488Z" stroke="black" stroke-width="2" stroke-linecap="round" stroke-linejoin="round"/>
    <path d="M55.7671 274.622C56.7936 273.822 57.5919 272.765 58.0821 271.559C59.0406 269.379 59.4443 266.996 59.2571 264.622C58.3881 256.196 54.8141 243.685 44.3461 245.473C33.8781 247.261 38.9841 264.622 38.9841 264.622C38.9841 264.622 32.8571 262.988 34.6441 266.485C36.4311 269.982 41.0041 270.585 41.0271 270.585C41.9451 270.705 42.8351 272.206 43.4181 272.827C44.8991 274.402 46.4861 275.827 48.7241 276.045C51.0048 276.327 53.3179 275.926 55.3701 274.891C55.5034 274.807 55.6367 274.718 55.7701 274.623" fill="#FF98AA"/>
    <path d="M41.5469 246.511C41.5469 246.511 52.3179 252.224 55.3239 261.44C58.3299 270.656 55.3239 275.031 55.3239 275.031C55.3239 275.031 61.6319 269.962 58.4609 259.603C55.2899 249.244 51.2609 244.23 41.5469 246.511Z" fill="white"/>
    <path d="M52.1995 260.765C52.1995 260.765 53.9815 257.473 52.2595 256.803C50.8225 256.245 49.6095 257.603 48.9395 259.26" fill="#FF98AA"/>
    <path d="M52.1995 260.765C52.1995 260.765 53.9815 257.473 52.2595 256.803C50.8225 256.245 49.6095 257.603 48.9395 259.26" stroke="black" stroke-width="2" stroke-linecap="round" stroke-linejoin="round"/>
    <path d="M55.7671 274.622C56.7936 273.822 57.5919 272.765 58.0821 271.559C59.0406 269.379 59.4443 266.996 59.2571 264.622C58.3881 256.196 54.8141 243.685 44.3461 245.473C33.8781 247.261 38.9841 264.622 38.9841 264.622C38.9841 264.622 32.8571 262.988 34.6441 266.485C36.4311 269.982 41.0041 270.585 41.0271 270.585C41.9451 270.705 42.8351 272.206 43.4181 272.827C44.8991 274.402 46.4861 275.827 48.7241 276.045C51.0048 276.327 53.3179 275.926 55.3701 274.891C55.5061 274.807 55.6384 274.717 55.7671 274.622Z" stroke="black" stroke-width="2" stroke-linecap="round" stroke-linejoin="round"/>
</svg>
