<svg xmlns="http://www.w3.org/2000/svg" xlink="http://www.w3.org/1999/xlink" width="22" height="22" viewBox="0 0 22 22"><path d="M0,20 L22,20 L22,2 L0,2 L0,20 Z M2,18 L2,4 L20,4 L20,18 L2,18 Z M15.3999,11.7002 C15.1999,11.4002 14.6999,11.4002 14.4999,11.7002 L12.9999,14.3002 L9.3999,7.8002 C9.1999,7.5002 8.6999,7.5002 8.4999,7.8002 L3.9999,16.0002 L17.9999,16.0002 L15.3999,11.7002 Z M15.5,9 C16.329,9 17,8.328 17,7.5 C17,6.672 16.329,6 15.5,6 C14.671,6 14,6.672 14,7.5 C14,8.328 14.671,9 15.5,9 Z"/></svg>
