<svg xmlns="http://www.w3.org/2000/svg" width="22" height="22" viewBox="0 0 22 22"><path d="M16 6v4h4v11H1v-7h4V6h11zm-2 2H7v11h2v-3h3v3h2V8zm-9 8H3v3h2v-3zm13-4h-2v7h2v-7zm-8 0v2H8v-2h2zm3 0v2h-2v-2h2zm-3-3v2H8V9h2zm3 0v2h-2V9h2zM5.563 1.886c.035-.07.14-.07.176 0l.457.89 1.02.142c.08.01.113.105.054.16l-.738.693.174.978c.014.077-.07.135-.142.099l-.913-.462-.914.462c-.072.035-.156-.022-.143-.1l.175-.978-.74-.692a.094.094 0 01.055-.16l1.022-.143zm9.699 0c.036-.07.14-.07.176 0l.457.89 1.02.142c.08.01.114.105.056.161l-.74.692.175.978c.014.077-.07.135-.142.099l-.914-.462-.912.462c-.073.035-.156-.022-.144-.1l.175-.978-.738-.69a.093.093 0 01.053-.163l1.02-.141zm-4.856-.83a.107.107 0 01.187 0l.485.943 1.082.15c.086.013.12.114.058.172l-.783.734.185 1.036c.014.082-.076.145-.152.107l-.968-.491-.969.49c-.076.039-.166-.024-.152-.106l.186-1.036-.784-.734c-.062-.058-.028-.16.058-.171l1.082-.151z"/></svg>
