<svg xmlns="http://www.w3.org/2000/svg" width="16" height="16" viewBox="0 0 16 16"><path d="M12 4v3h3v8H0v-5h3V4h9zm2 4h-2v6h2V8zm-3-3H4v9h2v-2h3v2h2V5zm-8 6H1v3h2v-3zm3.875-1.875v1.75h-1.75v-1.75h1.75zm3 0v1.75h-1.75v-1.75h1.75zm0-3v1.75h-1.75v-1.75h1.75zm-3 0v1.75h-1.75v-1.75h1.75zm4.309-5.085a.074.074 0 01.132 0l.346.673.774.108c.061.009.085.081.042.122l-.56.525.132.74c.011.059-.054.103-.109.075l-.691-.349-.691.349c-.055.028-.12-.016-.109-.075l.132-.74-.56-.525c-.043-.041-.019-.113.042-.122l.774-.108zm-7.368 0l.346.673.774.108c.061.009.085.081.042.122l-.56.525.132.74c.011.059-.054.103-.109.075l-.691-.349-.691.349c-.055.028-.12-.016-.109-.075l.132-.74-.56-.525c-.043-.041-.019-.113.042-.122l.774-.108.346-.673a.074.074 0 01.132 0zM7.428.043a.081.081 0 01.144 0l.378.735.844.118c.066.009.093.088.045.133l-.61.573.144.806c.011.065-.059.113-.118.083L7.5 2.109l-.755.382c-.059.03-.129-.018-.118-.083l.144-.806-.61-.573C6.113.984 6.14.905 6.206.896L7.05.778z"/></svg>
