<svg xmlns="http://www.w3.org/2000/svg" width="12" height="12" viewBox="0 0 12 12"><path d="M9 3v2h2v7H0V8h2V3h7zM8 4H3v7h1.5V9h2v2H8V4zm2 2H9v5h1V6zM2 9H1v2h1V9zM5 6.999v1H4V7h1.001zm1.999 0v1H6V7h1zm-1.999-2v1H4V5h1.001zM7 5v1H6V5h1zM2.946.533a.06.06 0 01.107 0l.277.538.619.087c.049.007.069.064.034.098l-.45.42.107.591c.009.047-.042.082-.086.06L3 2.047l-.554.28c-.043.021-.094-.014-.086-.06l.106-.593-.448-.419a.057.057 0 01.033-.098l.619-.087zm5 0a.06.06 0 01.107 0l.277.538.619.087c.049.007.069.064.034.098l-.45.42.107.591c.009.047-.042.082-.086.06L8 2.047l-.554.28c-.043.021-.094-.014-.086-.06l.106-.593-.448-.419a.057.057 0 01.033-.098l.619-.087zm-2.5-.5a.06.06 0 01.107 0L5.83.57l.619.087c.049.007.069.064.034.098l-.45.42.107.591c.009.047-.042.082-.086.06L5.5 1.547l-.554.28c-.043.021-.094-.014-.086-.06l.106-.593-.448-.419A.057.057 0 014.55.657L5.17.57z"/></svg>
