<svg xmlns="http://www.w3.org/2000/svg" width="22" height="22" viewBox="0 0 22 22"><path d="M11,1A10,10,0,1,0,21,11,10,10,0,0,0,11,1Zm-.909,1.854V6.661a15.612,15.612,0,0,1-2.28-.327A6.075,6.075,0,0,1,10.091,2.854Zm0,9.062V13.99a13.364,13.364,0,0,0-2.606.369,18.5,18.5,0,0,1-.327-2.443ZM7.151,10.091a18.344,18.344,0,0,1,.326-2.443,13.374,13.374,0,0,0,2.607.369v2.074Zm.411-6.527A10.6,10.6,0,0,0,6.49,5.972a10.721,10.721,0,0,1-1.456-.554A7.8,7.8,0,0,1,7.562,3.564ZM4.146,6.518a16.408,16.408,0,0,0,1.976.789l.02.007A20.327,20.327,0,0,0,5.794,10.1H2.875A8.22,8.22,0,0,1,4.146,6.518ZM2.879,11.909H5.8a20.327,20.327,0,0,0,.348,2.784l-.02.007a16.408,16.408,0,0,0-1.976.789A8.2,8.2,0,0,1,2.879,11.909Zm2.159,4.68a10.667,10.667,0,0,1,1.456-.553,10.565,10.565,0,0,0,1.072,2.407A7.775,7.775,0,0,1,5.038,16.589Zm5.056,2.564a6.071,6.071,0,0,1-2.279-3.48,15.459,15.459,0,0,1,2.279-.326ZM19.118,10.1H16.2a20.327,20.327,0,0,0-.348-2.784l.019-.007a16.419,16.419,0,0,0,1.977-.789A8.22,8.22,0,0,1,19.118,10.1Zm-2.152-4.68a10.721,10.721,0,0,1-1.456.554,10.6,10.6,0,0,0-1.072-2.408A7.8,7.8,0,0,1,16.966,5.418ZM11.909,2.854a6.075,6.075,0,0,1,2.28,3.48,15.612,15.612,0,0,1-2.28.327Zm0,5.163a13.374,13.374,0,0,0,2.607-.369,18.344,18.344,0,0,1,.326,2.443H11.909Zm2.937,3.9a18.5,18.5,0,0,1-.327,2.443,13.364,13.364,0,0,0-2.606-.369V11.916Zm-2.933,7.237V15.347a15.49,15.49,0,0,1,2.28.326A6.076,6.076,0,0,1,11.913,19.153Zm2.528-.71a10.565,10.565,0,0,0,1.072-2.407,10.667,10.667,0,0,1,1.456.553A7.775,7.775,0,0,1,14.441,18.443Zm3.409-2.954a16.408,16.408,0,0,0-1.976-.789l-.02-.007a20.327,20.327,0,0,0,.348-2.784h2.919A8.2,8.2,0,0,1,17.85,15.489Z" /></svg>