<svg xmlns="http://www.w3.org/2000/svg" width="16" height="16" viewBox="0 0 16 16"><path d="M7.5,0A7.5,7.5,0,1,0,15,7.5,7.5,7.5,0,0,0,7.5,0ZM6.818,1.39V4.245A11.545,11.545,0,0,1,5.108,4,4.559,4.559,0,0,1,6.818,1.39Zm0,6.8V9.743a9.971,9.971,0,0,0-1.954.276,13.68,13.68,0,0,1-.245-1.832Zm-2.2-1.369a13.845,13.845,0,0,1,.245-1.832,9.993,9.993,0,0,0,1.955.277V6.818Zm.309-4.895a7.938,7.938,0,0,0-.8,1.806,7.94,7.94,0,0,1-1.092-.416A5.832,5.832,0,0,1,4.922,1.923ZM2.36,4.139a12.3,12.3,0,0,0,1.482.591l.015,0A15.2,15.2,0,0,0,3.6,6.823H1.406A6.155,6.155,0,0,1,2.36,4.139ZM1.409,8.182H3.6a15.339,15.339,0,0,0,.261,2.088l-.015.005a12.384,12.384,0,0,0-1.482.592A6.165,6.165,0,0,1,1.409,8.182Zm1.619,3.51a7.857,7.857,0,0,1,1.092-.415,7.944,7.944,0,0,0,.8,1.805A5.849,5.849,0,0,1,3.028,11.692Zm3.793,1.923a4.552,4.552,0,0,1-1.71-2.61,11.545,11.545,0,0,1,1.71-.245Zm6.767-6.792H11.4a15.2,15.2,0,0,0-.261-2.088l.015,0a12.3,12.3,0,0,0,1.482-.591A6.153,6.153,0,0,1,13.588,6.823Zm-1.614-3.51a7.976,7.976,0,0,1-1.091.416,7.978,7.978,0,0,0-.8-1.806A5.832,5.832,0,0,1,11.974,3.313ZM8.182,1.39A4.559,4.559,0,0,1,9.892,4a11.545,11.545,0,0,1-1.71.245Zm0,3.873a9.993,9.993,0,0,0,1.955-.277,14.013,14.013,0,0,1,.245,1.832h-2.2Zm2.2,2.924a13.68,13.68,0,0,1-.245,1.832,9.971,9.971,0,0,0-1.954-.276V8.187Zm-2.2,5.428V10.76a11.532,11.532,0,0,1,1.709.245A4.552,4.552,0,0,1,8.185,13.615Zm1.9-.533a7.948,7.948,0,0,0,.8-1.805,7.809,7.809,0,0,1,1.092.415A5.843,5.843,0,0,1,10.081,13.082Zm2.557-2.215a12.384,12.384,0,0,0-1.482-.592l-.015-.005A15.339,15.339,0,0,0,11.4,8.182h2.189A6.165,6.165,0,0,1,12.638,10.867Z" /></svg>