<svg xmlns="http://www.w3.org/2000/svg" width="12" height="12" viewBox="0 0 12 12"><path d="M5.5,0A5.5,5.5,0,1,0,11,5.5,5.5,5.5,0,0,0,5.5,0ZM5,1.02V3.113a8.526,8.526,0,0,1-1.254-.179A3.337,3.337,0,0,1,5,1.02ZM5,6V7.145a7.237,7.237,0,0,0-1.434.2A10.247,10.247,0,0,1,3.385,6ZM3.383,5a10.224,10.224,0,0,1,.179-1.344A7.311,7.311,0,0,0,5,3.859V5Zm.226-3.59A5.832,5.832,0,0,0,3.02,2.734a5.908,5.908,0,0,1-.8-.3A4.293,4.293,0,0,1,3.609,1.41ZM1.73,3.035a9.136,9.136,0,0,0,1.087.434l.011,0A11.288,11.288,0,0,0,2.637,5H1.031A4.534,4.534,0,0,1,1.73,3.035ZM1.033,6H2.639A11.288,11.288,0,0,0,2.83,7.531l-.011,0a9.136,9.136,0,0,0-1.087.434A4.534,4.534,0,0,1,1.033,6ZM2.221,8.574a5.946,5.946,0,0,1,.8-.3,5.873,5.873,0,0,0,.59,1.324A4.282,4.282,0,0,1,2.221,8.574ZM5,9.984A3.341,3.341,0,0,1,3.748,8.07,8.526,8.526,0,0,1,5,7.891ZM9.965,5H8.359a11.131,11.131,0,0,0-.191-1.531l.011,0a9.136,9.136,0,0,0,1.087-.434A4.522,4.522,0,0,1,9.965,5ZM8.781,2.43a5.908,5.908,0,0,1-.8.3A5.832,5.832,0,0,0,7.391,1.41,4.293,4.293,0,0,1,8.781,2.43ZM6,1.02A3.337,3.337,0,0,1,7.254,2.934,8.526,8.526,0,0,1,6,3.113ZM6,3.859a7.311,7.311,0,0,0,1.434-.2A10.224,10.224,0,0,1,7.613,5H6ZM7.615,6a10.247,10.247,0,0,1-.179,1.344A7.237,7.237,0,0,0,6,7.145V6ZM6,9.984V7.891a8.526,8.526,0,0,1,1.254.179A3.341,3.341,0,0,1,6,9.984Zm1.391-.39A5.832,5.832,0,0,0,7.982,8.27a5.908,5.908,0,0,1,.8.3A4.293,4.293,0,0,1,7.393,9.594ZM9.268,7.969a9.136,9.136,0,0,0-1.087-.434l-.011,0A11.288,11.288,0,0,0,8.361,6H9.967A4.534,4.534,0,0,1,9.268,7.969Z" /></svg>