<svg width="16" height="16" viewBox="0 0 16 16" xmlns="http://www.w3.org/2000/svg"><path fill-rule="evenodd"
                                                                                  clip-rule="evenodd" d="M2.296 3.041a1.6 1.6 0 1 1 .867-1.1l5.213 4.18A4.105 4.105 0 0 1 10.3 5.32V3.327a1.5 1.5 0 1 1 1.4 0v2.036a4.127 4.127 0 1 1-3.235 7.392l-1.492 1.557a1.4 1.4 0 1 1-.938-1.044l1.448-1.512a4.107 4.107 0 0 1-.734-2.35c0-.833.246-1.608.67-2.257L2.297 3.041Zm8.578 8.49a2.126 2.126 0 1 0 0-4.251 2.126 2.126 0 0 0 0 4.251Z" fill="#FF7A59"/></svg>
