<svg width="24" height="24" viewBox="0 0 24 24" fill="none" xmlns="http://www.w3.org/2000/svg"><path d="M2 4a2 2 0 0 1 2-2h16a2 2 0 0 1 2 2v16a2 2 0 0 1-2 2H4a2 2 0 0 1-2-2V4Z" fill="#F7DF1E"/><path d="m7 18.347 1.51-.89c.29.503.555.929 1.19.929.61 0 .994-.232.994-1.136v-6.147h1.853v6.172c0 1.873-1.125 2.725-2.767 2.725-1.483 0-2.343-.75-2.78-1.653m6.553-.194 1.51-.852c.397.633.913 1.098 1.826 1.098.768 0 1.258-.375 1.258-.891 0-.62-.503-.84-1.35-1.2l-.464-.195c-1.337-.555-2.224-1.252-2.224-2.724 0-1.356 1.06-2.389 2.714-2.389 1.178 0 2.026.4 2.634 1.446l-1.443.904c-.317-.555-.662-.774-1.191-.774-.543 0-.887.335-.887.774 0 .542.344.762 1.139 1.098l.463.193c1.575.66 2.462 1.33 2.462 2.841C20 19.109 18.69 20 16.929 20c-1.721 0-2.833-.8-3.376-1.846" fill="#000"/></svg>