<svg width="16" height="16" viewBox="0 0 16 16" fill="none" xmlns="http://www.w3.org/2000/svg"><path d="M0 1a1 1 0 0 1 1-1h14a1 1 0 0 1 1 1v14a1 1 0 0 1-1 1H1a1 1 0 0 1-1-1V1Z" fill="#F7DF1E"/><path d="m4 13.53 1.277-.791c.246.447.47.826 1.008.826.515 0 .84-.206.84-1.01V7.092h1.568v5.486c0 1.664-.952 2.422-2.34 2.422C5.097 15 4.37 14.334 4 13.53m5.545-.171 1.277-.758c.336.563.773.976 1.546.976.65 0 1.064-.333 1.064-.792 0-.551-.426-.746-1.143-1.068l-.392-.172c-1.131-.493-1.881-1.113-1.881-2.422 0-1.205.896-2.123 2.296-2.123.997 0 1.714.356 2.229 1.286l-1.221.803c-.269-.493-.56-.689-1.008-.689-.46 0-.75.299-.75.689 0 .482.29.677.963.976l.391.172C14.25 10.822 15 11.419 15 12.762 15 14.208 13.891 15 12.401 15c-1.456 0-2.397-.712-2.856-1.641" fill="#000"/></svg>