<svg xmlns="http://www.w3.org/2000/svg" xlink="http://www.w3.org/1999/xlink" width="22" height="22" viewBox="0 0 22 22"><path d="M10.4998,0.9997 C14.6428,0.9997 17.9998,4.3577 17.9998,8.4997 C17.9998,13.5417 12.6698,19.8467 10.9768,21.7657 C10.8468,21.9117 10.6808,21.9987 10.5038,21.9997 L10.4998,21.9987 L10.4958,21.9997 C10.3198,21.9987 10.1538,21.9117 10.0238,21.7657 C8.3298,19.8467 2.9998,13.5417 2.9998,8.4997 C2.9998,4.3577 6.3578,0.9997 10.4998,0.9997 Z M10.6768,9.0107 C9.3758,8.6447 8.9998,8.4167 8.9998,7.9997 C8.9998,7.4677 9.7008,6.9997 10.4998,6.9997 C11.1988,6.9997 11.8228,7.3587 11.9678,7.8047 C12.0038,7.9127 12.0838,7.9997 12.1978,7.9997 L13.7868,7.9997 C13.9028,7.9997 14.0008,7.9007 13.9908,7.7857 C13.8738,6.3767 12.6108,5.2427 10.9998,5.0427 L10.9998,3.9997 L9.9998,3.9997 L9.9998,5.0427 C8.3088,5.2537 6.9998,6.4917 6.9998,7.9997 C6.9998,10.0527 8.9618,10.6057 10.1338,10.9357 L10.3228,10.9897 C11.6238,11.3557 11.9998,11.5827 11.9998,11.9997 C11.9998,12.5317 11.2988,12.9997 10.4998,12.9997 C9.8008,12.9997 9.1768,12.6417 9.0318,12.1957 C8.9958,12.0867 8.9158,11.9997 8.8018,11.9997 L7.2128,11.9997 C7.0978,11.9997 6.9988,12.0997 7.0088,12.2137 C7.1258,13.6237 8.3898,14.7567 9.9998,14.9567 L9.9998,15.9997 L10.9998,15.9997 L10.9998,14.9567 C12.6918,14.7457 13.9998,13.5077 13.9998,11.9997 C13.9998,9.9477 12.0378,9.3947 10.8658,9.0647 L10.6768,9.0107 Z"/></svg>
