<svg xmlns="http://www.w3.org/2000/svg" xlink="http://www.w3.org/1999/xlink" width="16" height="16" viewBox="0 0 16 16"><path d="M7.5004,0 C10.5374,0 13.0004,2.466 13.0004,5.508 C13.0004,9.786 9.2194,14.191 7.8764,15.808 C7.7744,15.93 7.6364,15.995 7.5004,16 C7.3634,15.995 7.2254,15.93 7.1244,15.808 C5.7804,14.191 2.0004,9.786 2.0004,5.508 C2.0004,2.466 4.4634,0 7.5004,0 Z M7.4434,5.708 C6.5404,5.472 6.2504,5.3 6.2504,5 C6.2504,4.646 6.7844,4.25 7.5004,4.25 C8.2154,4.25 8.7504,4.646 8.7504,5 L10.2504,5 C10.2504,3.879 9.2954,2.978 8.0004,2.79 L8.0004,2 L7.0004,2 L7.0004,2.79 C5.7054,2.978 4.7504,3.879 4.7504,5 C4.7504,6.554 6.3124,6.963 7.0634,7.159 L7.5564,7.292 C8.4604,7.528 8.7504,7.7 8.7504,8 C8.7504,8.354 8.2154,8.75 7.5004,8.75 C6.7844,8.75 6.2504,8.354 6.2504,8 L4.7504,8 C4.7504,9.121 5.7054,10.022 7.0004,10.21 L7.0004,11 L8.0004,11 L8.0004,10.21 C9.2954,10.022 10.2504,9.121 10.2504,8 C10.2504,6.446 8.6874,6.037 7.9364,5.841 L7.4434,5.708 Z"/></svg>
