<svg xmlns="http://www.w3.org/2000/svg" xlink="http://www.w3.org/1999/xlink" width="12" height="12" viewBox="0 0 12 12"><path d="M1,4.498 C1,2.014 3.015,0 5.5,0 C7.985,0 10,2.014 10,4.498 C10,7.082 7.064,10.459 5.902,11.806 C5.793,11.932 5.648,12 5.5,12 C5.352,12 5.207,11.932 5.098,11.806 C3.936,10.459 1,7.082 1,4.498 Z M7,4 L7,3 L6,3 L6,2 L5,2 L5,3 C4.447,3 4,3.447 4,4 L4,5 C4,5.553 4.447,6 5,6 L6,6 L6,7 L4,7 L4,8 L5,8 L5,9 L6,9 L6,8 C6.553,8 7,7.553 7,7 L7,6 C7,5.447 6.553,5 6,5 L5,5 L5,4 L6,4 L7,4 Z"/></svg>
