<svg xmlns="http://www.w3.org/2000/svg" xlink="http://www.w3.org/1999/xlink" width="22" height="22" viewBox="0 0 22 22"><path d="M13.291,0 C13.822,0 14.332,0.211 14.708,0.587 L19.413,5.292 C19.789,5.667 20,6.178 20,6.709 L20,18.005 C20,19.659 18.659,21 17.005,21 L6.995,21 C5.341,21 4,19.659 4,18.005 L4,15 L6.999,15 L7,18.005 L17.006,18 L17,7 L13,7 L13,3 L6.995,3 L6.996,8 L4,8 L4,2.995 C4,1.341 5.341,0 6.995,0 L13.291,0 Z M10,10.0002 L10,6.5002 L15,11.4992 L10,16.5002 L10,13.0002 L1,13.0002 L1,10.0002 L10,10.0002 Z"/></svg>
