<svg width="16" height="16" viewBox="0 0 16 16" xmlns="http://www.w3.org/2000/svg">
  <path d="m9.15.06 1.25 2.78v9.66l-1.23 3.43 4.63-1.28c.34-.1.65-.3.86-.58.22-.28.34-.63.34-.98V2.9c0-.35-.12-.69-.33-.97a1.66 1.66 0 0 0-.87-.58L9.15.06Z" fill="url(#a)"/>
  <path d="m3.28 12.4 1.36-.72a1.17 1.17 0 0 0 .61-1.02v-5.2c0-.23.07-.46.21-.65a1.18 1.18 0 0 1 .57-.43l4.37-1.54V1.67c0-.36-.13-.72-.35-1A1.71 1.71 0 0 0 8.68 0c-.3 0-.59.08-.85.22l-5 2.79a1.63 1.63 0 0 0-.6.59 1.58 1.58 0 0 0-.23.8v7.24c0 .15.04.3.11.42a.86.86 0 0 0 .31.31.88.88 0 0 0 .86.02Z" fill="url(#b)"/>
  <path d="M10.4 12.5H5.23a.89.89 0 0 0-.53.17.85.85 0 0 0-.3.46.83.83 0 0 0 .03.54.86.86 0 0 0 .37.41l3.08 1.7a1.72 1.72 0 0 0 2.18-.44 1.62 1.62 0 0 0 .33-1V12.5Z" fill="url(#c)"/>
  <path d="m3.28 12.4 1.36-.72a1.17 1.17 0 0 0 .61-1.02v-5.2c0-.23.07-.46.21-.65a1.18 1.18 0 0 1 .57-.43l4.37-1.54V1.67c0-.36-.13-.72-.35-1A1.71 1.71 0 0 0 8.68 0c-.3 0-.59.08-.85.22l-5 2.79a1.63 1.63 0 0 0-.6.59 1.58 1.58 0 0 0-.23.8v7.24c0 .15.04.3.11.42a.86.86 0 0 0 .31.31.88.88 0 0 0 .86.02Z" fill="url(#d)"/>
  <path d="M10.4 12.5H5.23a.89.89 0 0 0-.53.17.85.85 0 0 0-.3.46.83.83 0 0 0 .03.54.86.86 0 0 0 .37.41l3.08 1.7a1.72 1.72 0 0 0 2.18-.44 1.62 1.62 0 0 0 .33-1V12.5Z" fill="url(#e)"/>
  <defs>
    <linearGradient id="a" x1="12.07" y1="-.84" x2="12.07" y2="14.82" gradientUnits="userSpaceOnUse">
      <stop stop-color="#FFB900"/>
      <stop offset=".17" stop-color="#EF8400"/>
      <stop offset=".31" stop-color="#E25C01"/>
      <stop offset=".43" stop-color="#DB4401"/>
      <stop offset=".5" stop-color="#D83B01"/>
    </linearGradient>
    <linearGradient id="b" x1="9.18" y1="-.29" x2=".96" y2="11.74" gradientUnits="userSpaceOnUse">
      <stop stop-color="#800600"/>
      <stop offset=".6" stop-color="#C72127"/>
      <stop offset=".73" stop-color="#C13959"/>
      <stop offset=".85" stop-color="#BC4B81"/>
      <stop offset=".94" stop-color="#B95799"/>
      <stop offset="1" stop-color="#B85BA2"/>
    </linearGradient>
    <linearGradient id="c" x1="4.84" y1="14.25" x2="15.93" y2="14.25" gradientUnits="userSpaceOnUse">
      <stop stop-color="#F32B44"/>
      <stop offset=".6" stop-color="#A4070A"/>
    </linearGradient>
    <linearGradient id="d" x1="9.36" y1="-.53" x2="7.61" y2="2.02" gradientUnits="userSpaceOnUse">
      <stop stop-opacity=".4"/>
      <stop offset="1" stop-opacity="0"/>
    </linearGradient>
    <linearGradient id="e" x1="12.38" y1="14.49" x2="7.42" y2="14.05" gradientUnits="userSpaceOnUse">
      <stop stop-opacity=".4"/>
      <stop offset="1" stop-opacity="0"/>
    </linearGradient>
  </defs>
</svg>
