<svg xmlns="http://www.w3.org/2000/svg" xlink="http://www.w3.org/1999/xlink" width="22" height="22" viewBox="0 0 22 22"><path d="M15.5,0.000376319646 C18.537,0.000376319646 21,2.46337632 21,5.50037632 L21,11.5003763 C21,14.5373763 18.537,17.0003763 15.5,17.0003763 L10.879,17.0003763 L7.271,20.6073763 C6.434,21.4453763 5,20.8533763 5,19.6673763 L5,16.9753763 C2.197,16.7223763 0,14.3693763 0,11.5003763 L0,5.50037632 C0,2.46337632 2.463,0.000376319646 5.5,0.000376319646 L15.5,0.000376319646 Z M15,10.0003763 L15,7.00037632 L12,7.00037632 L12,4.00037632 L9,4.00037632 L9,7.00037632 L6,7.00037632 L6,10.0003763 L9,10.0003763 L9,13.0003763 L12,13.0003763 L12,10.0003763 L15,10.0003763 Z"/></svg>
