<svg xmlns="http://www.w3.org/2000/svg" xlink="http://www.w3.org/1999/xlink" width="16" height="16" viewBox="0 0 16 16"><path d="M12,0.000139105091 C14.209,0.000139105091 16,1.79113911 16,4.00013911 L16,8.00013911 C16,10.2091391 14.209,12.0001391 12,12.0001391 L8.506,12.0001391 L5.268,15.2781391 C4.8,15.7521391 4,15.4161391 4,14.7471391 L4,12.0001391 C1.791,12.0001391 0,10.2091391 0,8.00013911 L0,4.00013911 C0,1.79113911 1.791,0.000139105091 4,0.000139105091 L12,0.000139105091 Z M11.5,7.00013911 L11.5,5.00013911 L9,5.00013911 L9,2.50013911 L7,2.50013911 L7,5.00013911 L4.5,5.00013911 L4.5,7.00013911 L7,7.00013911 L7,9.50013911 L9,9.50013911 L9,7.00013911 L11.5,7.00013911 Z"/></svg>
