<svg width="135" height="112" viewBox="0 0 135 112" fill="none" xmlns="http://www.w3.org/2000/svg">
  <path d="M73.17 27.54c-.38 37.2 15.74 51.8 31.57 53.5 22.57 2.33 37.84-15.09 48.05-20.34 3.28 7.4 6.56 14.8 9.93 22.2l-15.36 16.96c-21.64 11.15-53.49 11.34-71.1-.75C55.66 84.97 49 50.5 52.46 29.14c6.94-.47 13.78-1.04 20.7-1.6z" fill="#45E0A8" stroke="#000" stroke-width="3" stroke-miterlimit="10" stroke-linecap="round" stroke-linejoin="round"/>
  <path d="M162.72 83c-3.28-7.4-6.55-14.8-9.93-22.2-10.2 5.15-25.48 22.67-48.05 20.32-12.93-1.3-25.95-11.24-30.26-34.94-3.47 0-13.3.94-21.83 9 2.72 17.14 10.21 34.94 23.52 44.12 17.51 12.08 49.46 11.9 71.1.75L162.72 83z" fill="#000" stroke="#000" stroke-width="3" stroke-miterlimit="10" stroke-linecap="round" stroke-linejoin="round"/>
  <path d="M75.89 52.09a82.77 82.77 0 01-1.32-6c-3.46 0-13.3.94-21.82 9a93.2 93.2 0 001.4 7.02 50.3 50.3 0 0112.74-7.3 55.6 55.6 0 019-2.72z" fill="#fff" stroke="#000" stroke-width="3" stroke-miterlimit="10" stroke-linecap="round" stroke-linejoin="round"/>
  <path d="M108.2 25.01c1.03 0 1.88-1.78 1.88-4.03 0-2.24-.84-4.02-1.88-4.02l-24.16-.66c1.03 0 1.87 2.15 1.87 4.68s-.84 4.69-1.87 4.69L108.2 25z" fill="#45E0A8" stroke="#000" stroke-width="3" stroke-miterlimit="10" stroke-linecap="round" stroke-linejoin="round"/>
  <path d="M84.04 27.92c1.78 0 3.18-3.1 3.18-6.94 0-3.84-1.4-6.93-3.18-6.93L38.5 10.96v20.05l45.53-3.1z" fill="#45E0A8" stroke="#000" stroke-width="3" stroke-miterlimit="10" stroke-linecap="round" stroke-linejoin="round"/>
  <path d="M38.6 5.15L10.78 3h-.47c-4.12 0-7.5 8.05-7.5 18.08 0 10.02 3.38 18.08 7.5 18.08h.47L38.6 37c4.03 0 7.31-7.12 7.31-15.83s-3.28-16.02-7.3-16.02z" fill="#45E0A8"/>
  <path d="M4.7 8.9c4.96 2.16 9.27 3.94 9.27 3.94l31.19 1.59C44.04 9 41.51 5.16 38.51 5.16L10.69 3h-.47C8.06 2.9 6.1 5.25 4.69 8.9z" fill="#fff"/>
  <path d="M10.22 39.06c4.14 0 7.5-8.09 7.5-18.08 0-9.98-3.36-18.07-7.5-18.07-4.14 0-7.5 8.09-7.5 18.07 0 9.99 3.36 18.08 7.5 18.08z" fill="#fff" stroke="#000" stroke-width="3" stroke-miterlimit="10" stroke-linecap="round" stroke-linejoin="round"/>
  <path d="M7.78 20.98c0-8.43 2.72-15.27 6.19-15.64C12.84 3.84 11.62 3 10.22 3c-4.12 0-7.5 8.05-7.5 18.08 0 10.02 3.38 18.08 7.5 18.08 1.31 0 2.62-.85 3.75-2.34-3.47-.57-6.19-7.4-6.19-15.84z" fill="#45E0A8" stroke="#000" stroke-width="3" stroke-miterlimit="10" stroke-linecap="round" stroke-linejoin="round"/>
  <path d="M38.6 5.15L10.78 3h-.47c-4.12 0-7.5 8.05-7.5 18.08 0 10.02 3.38 18.08 7.5 18.08h.47L38.6 37c4.03 0 7.31-7.12 7.31-15.83s-3.28-16.02-7.3-16.02z" stroke="#000" stroke-width="3" stroke-miterlimit="10" stroke-linecap="round" stroke-linejoin="round"/>
  <path d="M54.25 12.18c1.96 6.65 4.12 9.74 6.27 9.46 1.22-.19 1.4-2.44-2.43-11.05-1.97-2.9-6.56-.94-6.65.37l.75 1.4" fill="#45E0A8"/>
  <path d="M57.53 9.93c1.68-2.15 4.12-1.6 4.77-.37C67 17.7 67.08 21.55 66.05 22.1c-1.5.75-3.75-1.5-5.62-5.34M67.92 10.3c.47-1.96 3.28-1.77 4.03-.46 4.31 7.5 3.65 10.4 2.72 10.68-1.22.28-3.1-1.78-4.4-4.78" fill="#45E0A8"/>
  <path d="M62.4 9.84c1.12-1.88 3.09-1.41 3.74-1.13 2.9 1.4 6.37 12.27 4.5 13.21-1.97 1.03-3.84-2.25-5.06-5.43" fill="#45E0A8"/>
  <path d="M54.25 12.18c1.96 6.65 4.12 9.74 6.27 9.46 1.22-.19 1.4-2.44-2.43-11.05a3.53 3.53 0 00-6.47 1.21l2.63.38z" stroke="#000" stroke-width="3" stroke-miterlimit="10" stroke-linecap="round" stroke-linejoin="round"/>
  <path d="M57.62 9.74c1.69-2.15 4.03-1.4 4.68-.18C67 17.7 67.08 21.55 66.05 22.1c-1.5.75-3.47-1.22-5.34-4.97M67.92 10.3c.47-1.96 3.28-1.78 4.03-.46 4.31 7.49 3.66 10.4 2.72 10.68-1.22.28-3.1-1.78-4.4-4.78" stroke="#000" stroke-width="3" stroke-miterlimit="10" stroke-linecap="round" stroke-linejoin="round"/>
  <path d="M62.4 9.84c1.12-1.88 3.09-1.4 3.74-1.13 2.9 1.4 6.37 12.27 4.5 13.21-1.97 1.03-3.84-2.25-5.06-5.43M62.4 38.13c0-1.13.09-2.72.65-4.5.56-1.97 1.5-3.46 2.16-4.4" stroke="#000" stroke-width="3" stroke-miterlimit="10" stroke-linecap="round" stroke-linejoin="round"/>
</svg>
