<svg width="16" height="16" viewBox="0 0 16 16" xmlns="http://www.w3.org/2000/svg"><path fill-rule="evenodd" clip-rule="evenodd" d="M2 1a1 1 0 0 1 1-1h1.8A1.2 1.2 0 0 1 6 1.2v.801h5.744a1.2 1.2 0 0 1 1.164 1.492l-.9 3.602a1.2 1.2 0 0 1-1.164.91H5.2A1.2 1.2 0 0 1 4 6.803V2.002H3A1 1 0 0 1 2 1Zm4 7.004a1 1 0 1 1 0 2.001 1 1 0 0 1 0-2Zm4 0a1 1 0 1 1 0 2.001 1 1 0 0 1 0-2ZM6 4.002v2.001h4.22l.5-2H6Zm-4 8.005a1 1 0 0 1 1-1h10a1 1 0 0 1 0 2H3a1 1 0 0 1-1-1Zm0 2.992a1 1 0 0 1 1-1h7A1 1 0 0 1 10 16H3a1 1 0 0 1-1-1Z"/></svg>