<svg xmlns="http://www.w3.org/2000/svg" xlink="http://www.w3.org/1999/xlink" width="22" height="22" viewBox="0 0 22 22"><path d="M20.4951,16 C20.7731,16 21.0001,16.226 21.0001,16.505 L21.0001,18.495 C21.0001,18.774 20.7731,19 20.4951,19 L7.5051,19 C7.2261,19 7.0001,18.774 7.0001,18.495 L7.0001,16.505 C7.0001,16.226 7.2261,16 7.5051,16 L20.4951,16 Z M20.4951,9 C20.7731,9 21.0001,9.226 21.0001,9.505 L21.0001,11.495 C21.0001,11.774 20.7731,12 20.4951,12 L7.5051,12 C7.2261,12 7.0001,11.774 7.0001,11.495 L7.0001,9.505 C7.0001,9.226 7.2261,9 7.5051,9 L20.4951,9 Z M20.4951,2 C20.7731,2 21.0001,2.226 21.0001,2.505 L21.0001,4.495 C21.0001,4.774 20.7731,5 20.4951,5 L7.5051,5 C7.2261,5 7.0001,4.774 7.0001,4.495 L7.0001,2.505 C7.0001,2.226 7.2261,2 7.5051,2 L20.4951,2 Z M3,6 L3,2 L1,2 L1,1 L4,1 L4,6 L3,6 Z M1,8 L5,8 L5,11 L2,11 L2,12 L5,12 L5,13 L1,13 L1,10 L4,10 L4,9 L1,9 L1,8 Z M1,15 L5,15 L5,20 L1,20 L1,19 L4,19 L4,18 L1,18 L1,17 L4,17 L4,16 L1,16 L1,15 Z"/></svg>
