<svg xmlns="http://www.w3.org/2000/svg" xlink="http://www.w3.org/1999/xlink" width="16" height="16" viewBox="0 0 16 16"><path d="M15.5771,11 C15.8311,11 16.0001,11.2 16.0001,11.5 L16.0001,12.5 C16.0001,12.8 15.8311,13 15.5771,13 L5.4231,13 C5.1691,13 5.0001,12.8 5.0001,12.5 L5.0001,11.5 C5.0001,11.2 5.1691,11 5.4231,11 L15.5771,11 Z M15.5771,6 C15.8311,6 16.0001,6.2 16.0001,6.5 L16.0001,7.5 C16.0001,7.8 15.8311,8 15.5771,8 L5.4231,8 C5.1691,8 5.0001,7.8 5.0001,7.5 L5.0001,6.5 C5.0001,6.2 5.1691,6 5.4231,6 L15.5771,6 Z M15.5771,1 C15.8311,1 16.0001,1.2 16.0001,1.5 L16.0001,2.5 C16.0001,2.8 15.8311,3 15.5771,3 L5.4231,3 C5.1691,3 5.0001,2.8 5.0001,2.5 L5.0001,1.5 C5.0001,1.2 5.1691,1 5.4231,1 L15.5771,1 Z M0,12 L0,11 L3,11 L3,16 L0,16 L0,15 L2,15 L2,14 L0,14 L0,13 L2,13 L2,12 L0,12 Z M0,6 L0,5 L3,5 L3,8 L1,8 L1,9 L3,9 L3,10 L0,10 L0,7 L2,7 L2,6 L0,6 Z M1,4 L1,1 L0,1 L0,0 L2,0 L2,4 L1,4 Z"/></svg>
