<svg xmlns="http://www.w3.org/2000/svg" xlink="http://www.w3.org/1999/xlink" width="12" height="12" viewBox="0 0 12 12"><path d="M0,1.0001 L2,1.0001 L2,5.0001 L1,5.0001 L1,2.0001 L0,2.0001 L0,1.0001 Z M0,5.9996 L3,5.9996 L3,9.0006 L1,9.0006 L1,10.0006 L3,10.0006 L3,10.9996 L0,10.9996 L0,8.0006 L2,8.0006 L2,7.0006 L0,7.0006 L0,5.9996 Z M11.668,9 C11.852,9 12,9.149 12,9.333 L12,10.667 C12,10.851 11.852,11 11.668,11 L5.332,11 C5.148,11 5,10.851 5,10.667 L5,9.333 C5,9.149 5.148,9 5.332,9 L11.668,9 Z M11.668,1 C11.852,1 12,1.149 12,1.333 L12,2.667 C12,2.851 11.852,3 11.668,3 L5.332,3 C5.148,3 5,2.851 5,2.667 L5,1.333 C5,1.149 5.148,1 5.332,1 L11.668,1 Z M11.668,5 C11.852,5 12,5.149 12,5.333 L12,6.667 C12,6.851 11.852,7 11.668,7 L5.332,7 C5.148,7 5,6.851 5,6.667 L5,5.333 C5,5.149 5.148,5 5.332,5 L11.668,5 Z"/></svg>
