<svg width="24" height="24" xmlns="http://www.w3.org/2000/svg">
  <path d="M22.56 12.24c0-.9-.07-1.56-.23-2.25H12v4.09h6.06a5.38 5.38 0 0 1-2.25 3.57l-.02.13 3.27 2.53.23.03c2.07-1.92 3.27-4.75 3.27-8.1Z" fill="#4285F4"/>
  <path d="M12 23c2.97 0 5.46-.98 7.29-2.66l-3.48-2.7a6.5 6.5 0 0 1-3.81 1.1 6.62 6.62 0 0 1-6.26-4.56h-.13l-3.4 2.63-.04.13A11 11 0 0 0 12 23Z" fill="#34A853"/>
  <path d="M5.74 14.18A6.77 6.77 0 0 1 5.38 12c0-.76.13-1.5.35-2.17v-.15L2.28 7l-.12.05A11.01 11.01 0 0 0 1 12c0 1.77.43 3.45 1.17 4.94l3.57-2.76Z" fill="#FBBC05"/>
  <path d="M12 5.25c2.07 0 3.46.9 4.25 1.64l3.1-3.03a11 11 0 0 0-17.19 3.2l3.57 2.76A6.65 6.65 0 0 1 12 5.25Z" fill="#EB4335"/>
</svg>
