<svg width="16" height="16" xmlns="http://www.w3.org/2000/svg">
  <path d="M15.68 8.18c0-.66-.05-1.14-.17-1.64H8v2.97h4.4a3.91 3.91 0 0 1-1.63 2.6l-.01.1 2.37 1.84.17.01a7.82 7.82 0 0 0 2.38-5.88Z" fill="#4285F4"/>
  <path d="M8 16c2.16 0 3.97-.71 5.3-1.94l-2.53-1.95c-.67.47-1.58.8-2.77.8a4.81 4.81 0 0 1-4.55-3.33l-.1.01L.88 11.5l-.03.1A8 8 0 0 0 8 16Z" fill="#34A853"/>
  <path d="M3.45 9.58A4.92 4.92 0 0 1 3.18 8c0-.55.1-1.08.26-1.58v-.1L.94 4.36l-.09.04A8 8 0 0 0 0 8a8 8 0 0 0 .85 3.6l2.6-2.02Z" fill="#FBBC05"/>
  <path d="M8 3.1c1.5 0 2.52.64 3.1 1.18l2.25-2.2A7.69 7.69 0 0 0 8 0 8 8 0 0 0 .85 4.4l2.59 2.02A4.83 4.83 0 0 1 8 3.09Z" fill="#EB4335"/>
</svg>
