<svg width="16" height="16" viewBox="0 0 16 16" xmlns="http://www.w3.org/2000/svg"><path fill-rule="evenodd" clip-rule="evenodd" d="M10 1a1 1 0 1 1 2 0v1h3a1 1 0 0 1 1 1v12a1 1 0 0 1-1 1H1a1 1 0 0 1-1-1V3a1 1 0 0 1 1-1h3V1a1 1 0 0 1 2 0v1h4V1ZM4 4a1 1 0 0 0 2 0h4a1 1 0 1 0 2 0h2v10H2V4h2Zm7.696 4.351a.186.186 0 0 0-.102-.315l-2.325-.393-1.104-2.045a.188.188 0 0 0-.33 0L6.73 7.643l-2.325.393a.186.186 0 0 0-.102.315l1.642 1.652-.335 2.283a.187.187 0 0 0 .267.195L8 11.461l2.122 1.02a.187.187 0 0 0 .267-.195l-.335-2.283 1.642-1.652Z"/></svg>