<svg width="22" height="22" viewBox="0 0 22 22" xmlns="http://www.w3.org/2000/svg"><path d="M11.36 11a3.66 3.66 0 013.68-3.67A3.69 3.69 0 0118.72 11a3.66 3.66 0 01-3.68 3.67A3.69 3.69 0 0111.36 11z" fill="#1ABCFE"/><path d="M4 18.33a3.66 3.66 0 013.68-3.66h3.68v3.66A3.66 3.66 0 017.68 22 3.69 3.69 0 014 18.33z" fill="#0ACF83"/><path d="M11.36 0v7.33h3.68a3.69 3.69 0 003.68-3.66A3.66 3.66 0 0015.04 0h-3.68z" fill="#FF7262"/><path d="M4 3.67a3.66 3.66 0 003.68 3.66h3.68V0H7.68A3.69 3.69 0 004 3.67z" fill="#F24E1E"/><path d="M4 11a3.66 3.66 0 003.68 3.67h3.68V7.33H7.68A3.69 3.69 0 004 11z" fill="#A259FF"/></svg>
