<svg width="16" height="16" viewBox="0 0 16 16" xmlns="http://www.w3.org/2000/svg"><path d="M8.35 8a2.66 2.66 0 012.68-2.67A2.68 2.68 0 0113.7 8a2.66 2.66 0 01-2.67 2.67A2.68 2.68 0 018.35 8z" fill="#1ABCFE"/><path d="M3 13.33a2.66 2.66 0 012.68-2.66h2.67v2.66A2.66 2.66 0 015.68 16 2.68 2.68 0 013 13.33z" fill="#0ACF83"/><path d="M8.35 0v5.33h2.68a2.68 2.68 0 002.67-2.66A2.66 2.66 0 0011.03 0H8.35z" fill="#FF7262"/><path d="M3 2.67a2.66 2.66 0 002.68 2.66h2.67V0H5.68A2.68 2.68 0 003 2.67z" fill="#F24E1E"/><path d="M3 8a2.66 2.66 0 002.68 2.67h2.67V5.33H5.68A2.68 2.68 0 003 8z" fill="#A259FF"/></svg>
