<svg xmlns="http://www.w3.org/2000/svg" width="24" height="24" fill="none" viewBox="0 0 24 24">
  <path fill="#02BDF6" d="M20.27 3.398c-2.376-1.447-5.276-2.388-8.283-2.388-3.008 0-5.907.941-8.284 2.388-.702.506-.882 1.447-.522 2.127l1.152 2.04c.27.418.883.592 1.243.26l.134-.096c.658-.474 1.32-.953 2.063-1.263a.471.471 0 0 0 .27-.418V4.845c0-.174.09-.349.27-.349 1.153-.418 2.377-.592 3.62-.592h.18c1.242 0 2.467.174 3.62.592.18 0 .27.175.27.349v1.203c0 .174.09.348.27.418.792.349 1.495.854 2.197 1.36.36.348.972.174 1.242-.262l1.153-2.04c.288-.68.126-1.62-.594-2.126ZM14.976 15.182c0 1.599-1.338 2.894-2.99 2.894-1.65 0-2.989-1.295-2.989-2.894 0-1.598 1.339-2.893 2.99-2.893 1.65 0 2.99 1.295 2.99 2.893Z"/>
  <path fill="#02BDF6" fill-rule="evenodd" d="M11.987 7.32c-4.502 0-8.104 3.505-8.104 7.845s3.62 7.845 8.104 7.845c4.484 0 8.104-3.504 8.104-7.845 0-4.34-3.692-7.844-8.104-7.844Zm0 13.319c-3.08 0-5.547-2.388-5.547-5.37 0-2.98 2.467-5.368 5.547-5.368 3.08 0 5.546 2.388 5.546 5.369 0 2.98-2.449 5.369-5.546 5.369Z" clip-rule="evenodd"/>
</svg>
