<svg xmlns="http://www.w3.org/2000/svg" width="16" height="16" fill="none" viewBox="0 0 16 16">
  <path fill="#02BDF6" d="M14.473 1.747C12.757.694 10.663.01 8.491.01S4.225.694 2.508 1.747a1.234 1.234 0 0 0-.377 1.546l.832 1.484c.195.304.637.43.897.19l.097-.07c.475-.346.954-.693 1.49-.919a.343.343 0 0 0 .195-.304v-.875c0-.127.065-.254.195-.254.833-.304 1.717-.43 2.615-.43h.13c.897 0 1.781.126 2.614.43.13 0 .195.127.195.254v.875c0 .127.065.253.195.304.572.254 1.08.621 1.587.989.26.253.702.127.897-.19l.832-1.484c.209-.494.092-1.179-.429-1.546ZM10.65 10.317c0 1.162-.967 2.105-2.16 2.105-1.192 0-2.158-.943-2.158-2.105s.966-2.104 2.159-2.104c1.192 0 2.159.942 2.159 2.104Z"/>
  <path fill="#02BDF6" fill-rule="evenodd" d="M8.49 4.6c-3.251 0-5.852 2.548-5.852 5.705 0 3.156 2.614 5.705 5.853 5.705 3.238 0 5.852-2.549 5.852-5.705 0-3.157-2.666-5.706-5.852-5.706Zm0 9.686c-2.224 0-4.005-1.737-4.005-3.905 0-2.168 1.781-3.905 4.006-3.905 2.224 0 4.005 1.737 4.005 3.905 0 2.168-1.768 3.905-4.005 3.905Z" clip-rule="evenodd"/>
</svg>
