<svg xmlns="http://www.w3.org/2000/svg" xlink="http://www.w3.org/1999/xlink" width="22" height="22" viewBox="0 0 22 22"><path d="M-0.0005,10.471 C-0.0005,7.39 1.9565,5 5.1695,5 C7.7845,5 9.4365,6.731 10.9985,8.558 C12.6225,6.731 14.1235,5 16.8005,5 C20.0145,5 21.9995,7.361 21.9995,10.471 C21.9995,13.577 20.1065,16 16.8005,16 C14.3655,16 12.5345,14.355 10.9985,12.621 C9.4075,14.355 7.8135,16 5.2605,16 C2.0145,16 -0.0005,13.61 -0.0005,10.471 Z M19.1445,10.5 C19.1445,9.063 18.2415,7.958 16.7395,7.958 C15.2065,7.958 13.7045,9.452 12.8045,10.529 C13.8245,11.664 15.1775,13.01 16.8305,13.01 C18.3035,13.01 19.1445,11.875 19.1445,10.5 Z M9.1955,10.529 C8.2345,9.481 6.7315,7.958 5.1995,7.958 C3.7585,7.958 2.8845,9.154 2.8845,10.5 C2.8845,11.934 3.7585,13.01 5.2605,13.01 C6.7925,13.01 8.2665,11.605 9.1955,10.529 Z"/></svg>
