<svg xmlns="http://www.w3.org/2000/svg" xlink="http://www.w3.org/1999/xlink" width="16" height="16" viewBox="0 0 16 16"><path d="M-0.0001,7.979 C-0.0001,5.738 1.4229,4 3.7599,4 C5.6609,4 6.8629,5.26 7.9989,6.587 C9.1799,5.26 10.2729,4 12.2189,4 C14.5569,4 15.9999,5.717 15.9999,7.979 C15.9999,10.238 14.6229,12 12.2189,12 C10.4479,12 9.1149,10.805 7.9989,9.542 C6.8419,10.805 5.6829,12 3.8259,12 C1.4649,12 -0.0001,10.262 -0.0001,7.979 Z M13.9229,8 C13.9229,6.955 13.2669,6.151 12.1739,6.151 C11.0599,6.151 9.9669,7.238 9.3129,8.021 C10.0549,8.847 11.0379,9.825 12.2399,9.825 C13.3119,9.825 13.9229,9 13.9229,8 Z M6.6879,8.021 C5.9879,7.26 4.8959,6.151 3.7809,6.151 C2.7339,6.151 2.0979,7.021 2.0979,8 C2.0979,9.042 2.7339,9.825 3.8259,9.825 C4.9409,9.825 6.0119,8.805 6.6879,8.021 Z"/></svg>
