<svg xmlns="http://www.w3.org/2000/svg" xlink="http://www.w3.org/1999/xlink" width="12" height="12" viewBox="0 0 12 12"><path d="M0.0005,5.9841 C0.0005,4.3041 1.0665,3.0001 2.8205,3.0001 C4.2465,3.0001 5.1475,3.9441 5.9995,4.9401 C6.8845,3.9441 7.7045,3.0001 9.1645,3.0001 C10.9175,3.0001 12.0005,4.2881 12.0005,5.9841 C12.0005,7.6791 10.9665,9.0001 9.1645,9.0001 C7.8365,9.0001 6.8375,8.1031 5.9995,7.1571 C5.1305,8.1031 4.2615,9.0001 2.8705,9.0001 C1.0985,9.0001 0.0005,7.6961 0.0005,5.9841 Z M10.4425,6.0001 C10.4425,5.2161 9.9505,4.6131 9.1305,4.6131 C8.2955,4.6131 7.4745,5.4291 6.9845,6.0161 C7.5415,6.6351 8.2785,7.3691 9.1795,7.3691 C9.9835,7.3691 10.4425,6.7501 10.4425,6.0001 Z M5.0155,6.0161 C4.4915,5.4441 3.6715,4.6131 2.8365,4.6131 C2.0495,4.6131 1.5735,5.2661 1.5735,6.0001 C1.5735,6.7821 2.0495,7.3691 2.8705,7.3691 C3.7055,7.3691 4.5085,6.6031 5.0155,6.0161 Z"/></svg>
