<svg xmlns="http://www.w3.org/2000/svg" width="24" height="24" viewBox="0 0 24 24"><path  d="M4.838 5.224c-.067-.405.016-.842.33-1.099a7.88 7.88 0 0 1 1.66-1.047c.393-.183.84-.023 1.17.262A3.046 3.046 0 0 0 10 4.1c.758 0 1.454-.284 2.002-.759.33-.285.776-.445 1.17-.262.594.277 1.151.63 1.66 1.047.314.257.397.694.33 1.1a3.72 3.72 0 0 0-.028.994 7.983 7.983 0 0 0-3.597 1.937 3.5 3.5 0 0 0-2.508 6.52c.058.706.209 1.386.44 2.027L7.171 19a.836.836 0 0 1-.344-.078 7.881 7.881 0 0 1-1.66-1.047c-.314-.257-.397-.694-.33-1.1a3.668 3.668 0 0 0-.38-2.324 3.265 3.265 0 0 0-1.621-1.495c-.388-.161-.729-.47-.777-.896a9.386 9.386 0 0 1 0-2.12c.048-.426.389-.735.777-.896a3.265 3.265 0 0 0 1.62-1.495 3.668 3.668 0 0 0 .38-2.325Z"/><path  fill-rule="evenodd" d="M23 14a6 6 0 0 1-8.971 5.214l-2.797 2.796a1.5 1.5 0 1 1-2.121-2.12l2.765-2.766A6 6 0 1 1 23 14Zm-3 0a3 3 0 1 1-6 0 3 3 0 0 1 6 0Z" clip-rule="evenodd"/></svg>