<svg xmlns="http://www.w3.org/2000/svg" width="24" height="24" viewBox="0 0 24 24">
  <path d="M5.836 3.864c-.316.242-.397.66-.34 1.049a2.94 2.94 0 0 1-.346 1.862c-.317.566-.794.98-1.338 1.215-.382.165-.726.459-.77.866a7.495 7.495 0 0 0 0 1.601c.044.407.388.7.77.866.544.236 1.02.649 1.338 1.215a2.94 2.94 0 0 1 .345 1.862c-.056.389.025.807.341 1.049.405.308.842.572 1.307.786.39.18.836.025 1.175-.237l.06-.045a7.691 7.691 0 0 1-.213-3.974A2.907 2.907 0 0 1 7 9.656c0-1.62 1.343-2.934 3-2.934.541 0 1.049.14 1.487.385a8.054 8.054 0 0 1 3.037-1.23 2.96 2.96 0 0 1-.02-.965c.057-.389-.024-.807-.34-1.049a6.953 6.953 0 0 0-1.306-.786c-.391-.18-.837-.025-1.176.237a2.736 2.736 0 0 1-3.364 0c-.339-.262-.785-.417-1.175-.237a6.952 6.952 0 0 0-1.307.786Z"/>
  <path fill-rule="evenodd" d="M16 19.436c3.314 0 6-2.627 6-5.867 0-3.241-2.686-5.868-6-5.868s-6 2.627-6 5.868c0 1.267.41 2.44 1.11 3.4l-2.585 2.527a1.444 1.444 0 0 0 0 2.074 1.524 1.524 0 0 0 2.122 0l2.766-2.705a6.09 6.09 0 0 0 2.587.571Zm0-2.934c1.657 0 3-1.313 3-2.933 0-1.62-1.343-2.935-3-2.935s-3 1.314-3 2.934 1.343 2.934 3 2.934Z" clip-rule="evenodd"/>
</svg>
