<svg width="24" height="24" xmlns="http://www.w3.org/2000/svg">
  <path d="M8 24c2.2 0 4-1.72 4-3.83v-3.84H8c-2.2 0-4 1.72-4 3.84S5.8 24 8 24Z" fill="#0ACF83"/>
  <path d="M20 12.5c0 2.12-1.8 3.83-4 3.83s-4-1.71-4-3.83 1.8-3.83 4-3.83 4 1.71 4 3.83Z" fill="#1ABCFE"/>
  <path d="M4 12.5c0-2.12 1.8-3.83 4-3.83h4v7.66H8c-2.2 0-4-1.71-4-3.83Z" fill="#A259FF"/>
  <path d="M12 1h4c2.2 0 4 1.72 4 3.83s-1.8 3.84-4 3.84h-4V1Z" fill="#FF7262"/>
  <path d="M4 4.83C4 2.72 5.8 1 8 1h4v7.67H8c-2.2 0-4-1.72-4-3.84Z" fill="#F24E1E"/>
</svg>
