<svg width="16" height="16" xmlns="http://www.w3.org/2000/svg">
  <path d="M5.75 16c1.52 0 2.75-1.2 2.75-2.67v-2.66H5.75A2.71 2.71 0 0 0 3 13.33 2.71 2.71 0 0 0 5.75 16Z" fill="#0ACF83"/>
  <path d="M14 8a2.71 2.71 0 0 1-2.75 2.67C9.73 10.67 8.5 9.47 8.5 8s1.23-2.67 2.75-2.67S14 6.53 14 8Z" fill="#1ABCFE"/>
  <path d="M3 8a2.71 2.71 0 0 1 2.75-2.67H8.5v5.34H5.75A2.7 2.7 0 0 1 3 8Z" fill="#A259FF"/>
  <path d="M8.5 0h2.75C12.77 0 14 1.2 14 2.67a2.71 2.71 0 0 1-2.75 2.66H8.5V0Z" fill="#FF7262"/>
  <path d="M3 2.67A2.71 2.71 0 0 1 5.75 0H8.5v5.33H5.75A2.71 2.71 0 0 1 3 2.67Z" fill="#F24E1E"/>
</svg>
