<svg xmlns="http://www.w3.org/2000/svg" width="24" height="24" viewBox="0 0 24 24">
  <path d="M2 22.019a1 1 0 0 1-1-1v-18a1 1 0 0 1 2 0v17h20a1 1 0 0 1 0 2H2Z"/>
  <path fill-rule="evenodd" d="M18 4.019a1 1 0 0 0-1 1v12a1 1 0 0 0 1 1h3a1 1 0 0 0 1-1v-12a1 1 0 0 0-1-1h-3Zm1 2v1h1v-1h-1Zm0 10v-7h1v7h-1ZM11 8.019a1 1 0 0 1 1-1h3a1 1 0 0 1 1 1v9a1 1 0 0 1-1 1h-3a1 1 0 0 1-1-1v-9Zm2 2v-1h1v1h-1Zm0 2v4h1v-4h-1ZM6 10.019a1 1 0 0 0-1 1v6a1 1 0 0 0 1 1h3a1 1 0 0 0 1-1v-6a1 1 0 0 0-1-1H6Zm1 2v1h1v-1H7Zm0 4v-1h1v1H7Z" clip-rule="evenodd"/>
</svg>
