<svg xmlns="http://www.w3.org/2000/svg" xlink="http://www.w3.org/1999/xlink" width="22" height="22" viewBox="0 0 22 22"><path d="M15.75,3 C18.649,3 21,5.351 21,8.25 C21,12.729 15.638,17.292 12.767,19.415 C12.238,19.805 11.619,20 11,20 C10.381,20 9.762,19.805 9.233,19.415 C6.362,17.292 1,12.729 1,8.25 C1,5.351 3.351,3 6.25,3 C8.359,3 10.165,4.612 11,6.406 C11.835,4.612 13.641,3 15.75,3 Z M15.75,5.5 C14.719,5.5 13.721,6.486 13.267,7.461 C12.37,9.388 9.63,9.388 8.733,7.461 C8.279,6.486 7.281,5.5 6.25,5.5 C4.733,5.5 3.5,6.733 3.5,8.25 C3.5,10.605 6.266,14.112 10.719,17.404 C10.806,17.468 10.9,17.5 11,17.5 C11.1,17.5 11.194,17.468 11.281,17.404 C15.734,14.112 18.5,10.605 18.5,8.25 C18.5,6.733 17.267,5.5 15.75,5.5 Z"/></svg>
