<svg xmlns="http://www.w3.org/2000/svg" xlink="http://www.w3.org/1999/xlink" width="16" height="16" viewBox="0 0 16 16"><path d="M11.0002,1.9997 C13.2092,1.9997 15.0002,3.7907 15.0002,5.9997 C15.0002,6.2657 14.9682,6.5327 14.9202,6.7987 C14.9182,6.8047 14.9162,6.8107 14.9152,6.8177 C14.2912,10.1957 10.0472,13.5037 8.2732,14.7537 C8.0412,14.9177 7.7702,14.9997 7.5002,14.9997 C7.2292,14.9997 6.9592,14.9177 6.7262,14.7537 C4.9532,13.5037 0.7092,10.1957 0.0852,6.8177 C0.0842,6.8107 0.0822,6.8047 0.0802,6.7987 C0.0322,6.5327 0.0002,6.2657 0.0002,5.9997 C0.0002,3.7907 1.7912,1.9997 4.0002,1.9997 C5.5172,1.9997 6.8222,3.0047 7.5002,4.2497 C8.1782,3.0047 9.4822,1.9997 11.0002,1.9997 Z M13.4512,6.4917 C13.4842,6.2997 13.5002,6.1387 13.5002,5.9997 C13.5002,4.6217 12.3792,3.4997 11.0002,3.4997 C9.9782,3.4997 9.1852,4.2897 8.8172,4.9667 L8.4822,5.5837 L8.4812,5.5837 C8.0582,6.3617 6.9412,6.3617 6.5182,5.5837 L6.5182,5.5847 L6.1822,4.9667 C5.8142,4.2897 5.0212,3.4997 4.0002,3.4997 C2.6212,3.4997 1.5002,4.6217 1.5002,5.9997 C1.5002,6.1387 1.5152,6.2997 1.5492,6.4917 L1.5532,6.5057 L1.5602,6.5447 C2.0862,9.3927 6.1232,12.4827 7.5002,13.4627 C8.8772,12.4827 12.9142,9.3927 13.4392,6.5447 L13.4472,6.5057 L13.4512,6.4917 Z"/></svg>
