<svg xmlns="http://www.w3.org/2000/svg" xlink="http://www.w3.org/1999/xlink" width="12" height="12" viewBox="0 0 12 12"><path d="M8.75,1.00004 C10.545,1.00004 12,2.45504 12,4.25004 C12,4.45404 11.975,4.65804 11.938,4.86104 C11.487,7.12504 9.135,9.25504 7.526,10.48304 C7.075,10.82804 6.537,11.00004 6,11.00004 C5.463,11.00004 4.925,10.82804 4.474,10.48304 C2.865,9.25504 0.513,7.12504 0.062,4.86104 C0.025,4.65804 0,4.45404 0,4.25004 C0,2.45504 1.455,1.00004 3.25,1.00004 C4.413,1.00004 5.426,1.83204 6,2.75004 C6.574,1.83204 7.587,1.00004 8.75,1.00004 Z M8.75,2.20004 C8.019,2.20004 7.359,2.83904 7.018,3.38604 C6.548,4.13804 5.452,4.13804 4.982,3.38604 C4.641,2.83904 3.981,2.20004 3.25,2.20004 C2.119,2.20004 1.2,3.12004 1.2,4.25004 C1.2,4.35804 1.214,4.48604 1.243,4.65204 C1.522,6.05204 2.93,7.79304 5.202,9.53004 C5.434,9.70704 5.709,9.80004 6,9.80004 C6.291,9.80004 6.566,9.70704 6.799,9.52904 C9.07,7.79304 10.478,6.05204 10.762,4.62704 C10.786,4.48604 10.8,4.35804 10.8,4.25004 C10.8,3.12004 9.881,2.20004 8.75,2.20004 Z"/></svg>
