<svg xmlns="http://www.w3.org/2000/svg" xlink="http://www.w3.org/1999/xlink" width="22" height="22" viewBox="0 0 22 22"><path d="M11,19 C10.41,19 9.871,18.653 9.629,18.109 L6.775,11.689 L5.772,13.296 C5.498,13.734 5.018,14.001 4.5,14.001 L1.5,14.001 C0.672,14.001 0,13.329 0,12.501 C0,11.673 0.672,11.002 1.5,11.002 L3.669,11.002 L5.728,7.707 C6.021,7.236 6.549,6.955 7.105,7.006 C7.658,7.045 8.146,7.386 8.371,7.893 L10.744,13.232 L13.566,4.062 C13.755,3.448 14.313,3.023 14.955,3.004 C15.603,2.955 16.18,3.376 16.404,3.977 L19.039,11.002 L20.5,11.002 C21.328,11.002 22,11.673 22,12.501 C22,13.329 21.328,14.001 20.5,14.001 L18,14.001 C17.375,14.001 16.815,13.613 16.596,13.027 L15.14,9.147 L12.434,17.941 C12.25,18.539 11.714,18.96 11.09,18.997 C11.06,18.999 11.029,19 11,19"/></svg>
