<svg xmlns="http://www.w3.org/2000/svg" xlink="http://www.w3.org/1999/xlink" width="16" height="16" viewBox="0 0 16 16"><path d="M8,14 C7.602,14 7.239,13.763 7.081,13.394 L4.808,8.091 L3.832,9.555 C3.646,9.833 3.334,10 3,10 L1,10 C0.447,10 0,9.553 0,9 C0,8.447 0.447,8 1,8 L2.465,8 L4.168,5.445 C4.372,5.141 4.718,4.972 5.092,5.004 C5.457,5.038 5.774,5.269 5.919,5.606 L7.834,10.073 L10.042,2.713 C10.167,2.295 10.549,2.007 10.984,2 L11,2 C11.43,2 11.813,2.275 11.948,2.684 L13.721,8 L15,8 C15.553,8 16,8.447 16,9 C16,9.553 15.553,10 15,10 L13,10 C12.569,10 12.187,9.725 12.052,9.316 L11.05,6.313 L8.958,13.287 C8.837,13.69 8.477,13.975 8.057,13.998 C8.038,13.999 8.019,14 8,14"/></svg>
