<svg xmlns="http://www.w3.org/2000/svg" xlink="http://www.w3.org/1999/xlink" width="12" height="12" viewBox="0 0 12 12"><path d="M5.75,10 C5.439,10 5.16,9.809 5.049,9.517 L3.533,5.539 L2.85,6.45 C2.708,6.639 2.486,6.75 2.25,6.75 L0.75,6.75 C0.336,6.75 0,6.414 0,6 C0,5.586 0.336,5.25 0.75,5.25 L1.875,5.25 L3.15,3.55 C3.314,3.332 3.578,3.219 3.854,3.257 C4.125,3.295 4.354,3.478 4.451,3.733 L5.703,7.02 L7.538,1.513 C7.64,1.209 7.923,1.003 8.243,1 L8.25,1 C8.567,1 8.852,1.2 8.957,1.5 L10.28,5.25 L11.25,5.25 C11.664,5.25 12,5.586 12,6 C12,6.414 11.664,6.75 11.25,6.75 L9.75,6.75 C9.432,6.75 9.148,6.55 9.043,6.25 L8.271,4.061 L6.462,9.487 C6.361,9.788 6.083,9.993 5.766,10 L5.75,10 Z"/></svg>
