<svg width="24" height="24" viewBox="0 0 24 24" xmlns="http://www.w3.org/2000/svg"><path fill-rule="evenodd" clip-rule="evenodd" d="M12.493 5s-6.876 0-8.602.448a2.843 2.843 0 0 0-1.943 1.957c-.448 1.726-.448 5.3-.448 5.3s.01 3.187.46 4.886a2.8 2.8 0 0 0 1.942 1.943c1.74.462 8.602.462 8.602.462s6.89 0 8.615-.448a2.734 2.734 0 0 0 1.93-1.943c.462-1.713.45-4.887.45-4.887s.014-3.587-.461-5.313a2.716 2.716 0 0 0-1.93-1.93C19.383 5 12.493 5 12.493 5Zm-1.816 4.061 5.097 3.04a.473.473 0 0 1 0 .807l-5.098 3.027c-.3.179-.676-.045-.676-.404V9.465c0-.359.376-.583.677-.404Z"/></svg>