<svg xmlns="http://www.w3.org/2000/svg" width="44" height="44" viewBox="0 0 44 44"><path d="M22.07 6.599c1.148.002 13.852.043 17.147.951a5.433 5.433 0 013.859 3.86c.84 3.047.917 8.993.923 10.35v.407c-.005.972-.071 7.292-.923 10.449-.49 1.903-1.984 3.37-3.86 3.887-3.241.843-15.597.894-17.083.897h-.23c-1.143-.002-13.8-.042-17.12-.924a5.6 5.6 0 01-3.886-3.888C.07 29.457.006 23.116 0 22.14v-.254c.006-.972.07-7.294.897-10.475.516-1.876 2.038-3.398 3.886-3.915 3.295-.856 15.975-.895 17.12-.897zm-4.46 8.808v13.185l11.443-6.579-11.442-6.606z"/></svg>