<svg width="16" height="16" viewBox="0 0 16 16" xmlns="http://www.w3.org/2000/svg"><path fill-rule="evenodd" clip-rule="evenodd" d="M7.995 3s-5 0-6.256.326A2.068 2.068 0 0 0 .326 4.75C0 6.004 0 8.603 0 8.603s.009 2.409.335 3.644a2.036 2.036 0 0 0 1.413 1.413c1.265.336 6.256.336 6.256.336s5.01 0 6.266-.326a1.988 1.988 0 0 0 1.403-1.413c.336-1.245.327-3.644.327-3.644s.01-2.609-.336-3.864a1.975 1.975 0 0 0-1.403-1.403C13.006 3 7.995 3 7.995 3ZM6.951 6.045l3.399 2.171c.2.128.2.45 0 .577l-3.4 2.162c-.2.128-.45-.032-.45-.288V6.333c0-.256.25-.416.451-.288Z"/></svg>