<svg xmlns="http://www.w3.org/2000/svg" width="22" height="22" viewBox="0 0 22 22"><path d="M11.033 3.302c.562 0 6.926.021 8.575.476a2.716 2.716 0 011.93 1.93c.43 1.563.46 4.656.462 5.222v.131c-.002.399-.029 3.64-.462 5.245a2.734 2.734 0 01-1.93 1.944c-1.534.398-7.148.442-8.376.447h-.477c-1.224-.005-6.817-.05-8.363-.461a2.8 2.8 0 01-1.944-1.943c-.406-1.54-.444-4.63-.448-5.196v-.18c.004-.564.042-3.646.448-5.21A2.843 2.843 0 012.392 3.75c1.649-.428 8-.447 8.562-.448zM8.805 7.705v6.59l5.721-3.288-5.72-3.302z"/></svg>