<svg xmlns="http://www.w3.org/2000/svg" width="16" height="16" viewBox="0 0 16 16"><path d="M8.393 2.403c1.21.009 4.828.058 5.868.344a1.975 1.975 0 011.403 1.404c.295 1.069.331 3.12.335 3.705v.25c-.003.47-.036 2.646-.335 3.753a1.988 1.988 0 01-1.403 1.413c-1.184.308-5.706.325-6.219.326h-.094c-.511 0-5.016-.019-6.209-.336A2.036 2.036 0 01.326 11.85C0 10.614 0 8.005 0 8.005v-.01c0-.18.012-2.636.326-3.844A2.068 2.068 0 011.74 2.728c1.04-.27 4.652-.317 5.86-.325zm-1.99 3.2v4.793l4.162-2.391-4.161-2.402z"/></svg>