<svg xmlns="http://www.w3.org/2000/svg" width="12" height="12" viewBox="0 0 12 12"><path d="M6.044 1.801c.44.001 3.773.017 4.651.26.512.133.92.54 1.053 1.052.226.819.25 2.405.252 2.805v.186c-.004.398-.033 1.978-.252 2.79a1.492 1.492 0 01-1.053 1.06c-.815.212-3.747.24-4.514.244h-.369c-.764-.004-3.685-.033-4.508-.251a1.527 1.527 0 01-1.06-1.06C.022 8.041.003 6.337 0 6.047V5.96c.002-.289.021-1.989.245-2.848a1.55 1.55 0 011.06-1.067c.878-.229 4.204-.244 4.643-.245zM4.803 4.203v3.594l3.12-1.793-3.12-1.801z"/></svg>