<svg xmlns="http://www.w3.org/2000/svg" width="44" height="44" viewBox="0 0 44 44"><path d="M13,5l3-3V8H13ZM31,5,28,2V8h3Z" fill="#7b7b7b" fill-rule="evenodd"/><path d="M16,2H28V5H16Z" fill="#5a5a5a"/><path d="M1,13,6,8H38l5,5V39.077A2.841,2.841,0,0,1,40.25,42H3.75A2.841,2.841,0,0,1,1,39.077Z" fill="#e6e7e8" fill-rule="evenodd"/><path d="M1,19V13L6,8H38l5,5v6Z" fill="#d0d1d2" fill-rule="evenodd"/><path d="M4,42V14.566A1.572,1.572,0,0,1,5.579,13H38.421A1.572,1.572,0,0,1,40,14.566V42Z" fill="#458cf5" fill-rule="evenodd"/><path d="M4,19H40V42H4Z" fill="#fff"/><path d="M27,22l8,8-1-5,6,6V42H27ZM7,35H19V22H7Zm0,7H23V38H7Z" fill="#d0d1d2" fill-rule="evenodd"/><path d="M33,42H27V35a5.908,5.908,0,0,1-4-6c0-4.484,2.316-6.2,4-7v8l3,2,3-2V22c1.678.739,4,2.465,4,7a6.228,6.228,0,0,1-4,6" fill="#505050" fill-rule="evenodd"/><path d="M8.25,15A1.25,1.25,0,1,1,7,16.25,1.25,1.25,0,0,1,8.25,15Zm4,0A1.25,1.25,0,1,1,11,16.25,1.25,1.25,0,0,1,12.25,15Z" fill="#e6e7e8" fill-rule="evenodd"/></svg>