<svg xmlns="http://www.w3.org/2000/svg" width="22" height="22" viewBox="0 0 22 22"><path d="M6,3,8,1V5H6ZM16,3,14,1V5h2Z" fill="#7b7b7b" fill-rule="evenodd"/><path d="M8,1h6V3H8Z" fill="#5a5a5a"/><path d="M0,7,2,5H20l2,2V19.538A1.42,1.42,0,0,1,20.625,21H1.375A1.42,1.42,0,0,1,0,19.538Z" fill="#e6e7e8" fill-rule="evenodd"/><path d="M0,9V7L2,5H20l2,2V9Z" fill="#d0d1d2" fill-rule="evenodd"/><path d="M2,21V7.707A.752.752,0,0,1,2.789,7H19.211A.752.752,0,0,1,20,7.707V21Z" fill="#458cf5" fill-rule="evenodd"/><path d="M2,9H20V21H2Z" fill="#fff"/><path d="M13,10l4,4-1-4,4,4v7H13M3,17H9V10H3Zm0,4h8V19H3Z" fill="#d0d1d2" fill-rule="evenodd"/><path d="M16,21H13V17.5c-1.747-.842-2.5-1.98-2.5-3.5A4.694,4.694,0,0,1,13,10v4l1.5,1L16,14V10a4.1,4.1,0,0,1,2.5,4c0,1.52-.959,2.494-2.5,3.5" fill="#505050" fill-rule="evenodd"/></svg>