<svg xmlns="http://www.w3.org/2000/svg" width="16" height="16" viewBox="0 0 16 16"><path d="M3,2,5,0V3H3ZM13,2,11,0V3h2Z" fill="#7b7b7b" fill-rule="evenodd"/><path d="M5,0h6V2H5Z" fill="#5a5a5a"/><path d="M0,5,2,3H14l2,2V15a1,1,0,0,1-1,1H1a1,1,0,0,1-1-1Z" fill="#e6e7e8" fill-rule="evenodd"/><path d="M0,7V5L2,3H14l2,2V7Z" fill="#d0d1d2" fill-rule="evenodd"/><path d="M1,16V5.556A.587.587,0,0,1,1.614,5H14.386A.587.587,0,0,1,15,5.556V16Z" fill="#458cf5" fill-rule="evenodd"/><path d="M1,7H15v9H1Z" fill="#fff"/><path d="M9,8l3,2V9l3,2v5H9M2,13H6V8H2Zm0,3H8V14H2Z" fill="#d0d1d2" fill-rule="evenodd"/><path d="M12,16H9V13.5a3.21,3.21,0,0,1-2-3A2.668,2.668,0,0,1,9,8v3l1.5,1L12,11V8a2.657,2.657,0,0,1,2,2.5,3.039,3.039,0,0,1-2,3Z" fill="#505050" fill-rule="evenodd"/></svg>