<svg xmlns="http://www.w3.org/2000/svg" width="12" height="12" viewBox="0 0 12 12"><path d="M3,1,4,0V2H3ZM9,1,8,0V2H9Z" fill="#7b7b7b" fill-rule="evenodd"/><path d="M4,0H8V1H4Z" fill="#5a5a5a"/><path d="M11.027,12H.973A1.032,1.032,0,0,1,0,10.919V3.5L1.672,2h8.656L12,3.5v7.419A1.032,1.032,0,0,1,11.027,12Z" fill="#e6e7e8" fill-rule="evenodd"/><path d="M0,5V3.5L1.672,2h8.656L12,3.5V5Z" fill="#d0d1d2" fill-rule="evenodd"/><path d="M1,12V3.5A.5.5,0,0,1,1.5,3h9a.5.5,0,0,1,.5.5V12Z" fill="#458cf5" fill-rule="evenodd"/><path d="M1,5H11v7H1Z" fill="#fff"/><path d="M7,6,9.5,8,9,6l2,2.5V12H8V9H7ZM2,10H5V6H2Zm0,2H6V11H2Z" fill="#d0d1d2" fill-rule="evenodd"/><path d="M9,12H7V9.5A1.567,1.567,0,0,1,6,8,1.935,1.935,0,0,1,7,6V8l1,.5L9,8V6a1.9,1.9,0,0,1,1,2A1.515,1.515,0,0,1,9,9.5" fill="#505050" fill-rule="evenodd"/></svg>