<svg width="480" height="455" viewBox="0 0 480 455" fill="none" xmlns="http://www.w3.org/2000/svg">
  <g clip-path="url(#clip0)">
    <path d="M361.28 371.2a185.27 185.27 0 01-131.5 54.52v12.79c0 2.56-2.1 4.65-4.65 4.65-108.63-2.44-196.22-90.1-198.66-198.82-.12-2.55 2.09-4.65 4.64-4.65H43.9c0-102.78 83.3-186.14 186-186.14V40.76c0-2.55 2.1-4.65 4.65-4.65a202.78 202.78 0 01135.8 56.28 4.63 4.63 0 010 6.62l-8.94 9.07a185.56 185.56 0 0154.49 131.61h12.78c2.55 0 4.64 2.1 4.64 4.66a203.1 203.1 0 01-56.23 135.91 4.63 4.63 0 01-6.62 0l-9.18-9.07z" fill="#B880FF"/>
    <path fill-rule="evenodd" clip-rule="evenodd" d="M215.2 323.7l-71.53 32.65c-4.1 1.9-8.24.98-11.32-1.41-4.58-3.57-6.68-10.35-2.73-15.87l52.11-72.06a6.4 6.4 0 017.32-2.25 7.31 7.31 0 013.9 3.13l25.86 42.62c2.98 4.83 1.27 10.99-3.6 13.18z" fill="#000" stroke="#000" stroke-width="3.58" stroke-miterlimit="10" stroke-linecap="round" stroke-linejoin="round"/>
    <path fill-rule="evenodd" clip-rule="evenodd" d="M189.1 264.76a6.43 6.43 0 00-7.32 2.25l-52.11 72.06c-4 5.52.3 13.62 4.88 17.19l-30.06-14.11c-3.31-2.3-4.34-6.2-2.1-9.33l.05-.05 55.58-76.9.05-.04a5.48 5.48 0 016.68-1.71l24.35 10.64z" fill="#fff" stroke="#000" stroke-width="3.58" stroke-miterlimit="10" stroke-linecap="round" stroke-linejoin="round"/>
    <path d="M190.27 265.3l-1.17-.54M132.26 335.46l-24.7-9.72M174.31 277.4l-25.85-8.24M160.46 296.5l-14.1-6.25M146.21 316.17l-25.03-9.32" stroke="#000" stroke-width="3.58" stroke-miterlimit="10" stroke-linecap="round" stroke-linejoin="round"/>
    <path fill-rule="evenodd" clip-rule="evenodd" d="M360.5 302.06c-9.76 12.8-24.05 40.72-25.61 41.06-2.05.44 1.6-26.02-4.05-24.65-5.66 1.36-23.67 44.62-23.67 44.62l-7.31 11.82c.43-.64 67.08-34.62 93.48-47.95 13.61-6.88 61.77-33.15 60.16-40.96-2.64-12.6-92.07 43.4-92.07 43.4s13.47-33.63 6.2-33.63c-1.71 0-4.2 2.49-7.13 6.3z" fill="#fff" stroke="#B880FF" stroke-width="3.58" stroke-miterlimit="10"/>
    <path d="M296.05 394.78l16.98-8.5M249.8 416.45l46.25-21.67" stroke="#000" stroke-width="3.58" stroke-miterlimit="10" stroke-linecap="round" stroke-linejoin="round"/>
    <path fill-rule="evenodd" clip-rule="evenodd" d="M310.98 336.97s26.2-48.77 19.66-51.75c-6.54-2.93-19.66 51.75-19.66 51.75zM332.7 309.92s24-15.28 20.1-19.33c-3.96-4-20.1 19.33-20.1 19.33z" fill="#fff"/>
    <path fill-rule="evenodd" clip-rule="evenodd" d="M274.92 152.37L104.54 118.3c-1.51-.3-2.88-2.05-3.07-3.9L89.9 12.98c-.24-1.9.79-3.52 2.25-3.57L270.63.88c3.07-.15 4.49 2.49 4.73 5.27l11.13 136.17a9.53 9.53 0 01-11.47 10.1c-.05 0-.05-.05-.1-.05z" fill="#fff" stroke="#000" stroke-width="3.58" stroke-miterlimit="10" stroke-linecap="round" stroke-linejoin="round"/>
    <path fill-rule="evenodd" clip-rule="evenodd" d="M276.82 152.81L104.5 118.3c-1.46-.3-2.78-2.05-3.02-3.91L89.67 13.04c-.25-1.9.72-3.52 2.19-3.57L263.85 2.5c2.97-.1 5.56 2.05 5.8 4.83l12.1 141.88c.25 2.64-2 4.25-4.93 3.61z" fill="#fff"/>
    <path fill-rule="evenodd" clip-rule="evenodd" d="M90.64 9.86s67.43 76.55 80.4 78.26c14.35 1.86 96.37-84.17 96.37-84.17" fill="#fff"/>
    <path fill-rule="evenodd" clip-rule="evenodd" d="M276.82 152.81L104.5 118.3c-1.46-.3-2.78-2.05-3.02-3.91L89.67 13.04c-.25-1.9.72-3.52 2.19-3.57L263.85 2.5c2.97-.1 5.56 2.05 5.8 4.83l12.1 141.88c.25 2.64-2 4.25-4.93 3.61z" fill="#fff" stroke="#000" stroke-width="2.56" stroke-miterlimit="10" stroke-linecap="round" stroke-linejoin="round"/>
    <path fill-rule="evenodd" clip-rule="evenodd" d="M90.64 9.86s67.43 76.55 80.4 78.26c14.35 1.86 96.37-84.17 96.37-84.17" fill="#fff"/>
    <path d="M90.64 9.86s67.43 76.55 80.4 78.26c14.35 1.86 96.37-84.17 96.37-84.17M275.9 141.2l-81.48-67.48M109.03 109.46l37.57-40.28" stroke="#000" stroke-width="2.56" stroke-miterlimit="10" stroke-linecap="round" stroke-linejoin="round"/>
    <path d="M276.82 152.81L104.5 118.3c-1.46-.3-2.78-2.05-3.02-3.91L89.67 13.04c-.25-1.9.72-3.52 2.19-3.57L263.85 2.5c2.97-.1 5.56 2.05 5.8 4.83l12.1 141.88c.25 2.64-2 4.25-4.93 3.61z" stroke="#000" stroke-width="3.58" stroke-miterlimit="10" stroke-linecap="round" stroke-linejoin="round"/>
    <path d="M90.64 9.86s67.43 76.55 80.4 78.26c14.35 1.86 96.37-84.17 96.37-84.17M275.9 141.2l-81.48-67.48M109.03 109.46l37.57-40.28" stroke="#000" stroke-width="3.58" stroke-miterlimit="10" stroke-linecap="round" stroke-linejoin="round"/>
    <path fill-rule="evenodd" clip-rule="evenodd" d="M152.75 266.38l-9.86-12.6-5.46-.44-20.93-105.36 12.88-5.13 23.37 123.53z" fill="#B880FF" stroke="#000" stroke-width="3.58" stroke-miterlimit="10" stroke-linecap="round" stroke-linejoin="round"/>
    <path fill-rule="evenodd" clip-rule="evenodd" d="M158.07 265.64l-9.66 4.5c-.98.43-2.1-.1-2.25-1.18l-22.83-120.4 12.88-5.02 22.83 120.3c.15.73-.24 1.46-.97 1.8z" fill="#000" stroke="#000" stroke-width="3.58" stroke-miterlimit="10" stroke-linecap="round" stroke-linejoin="round"/>
    <path fill-rule="evenodd" clip-rule="evenodd" d="M127.23 108.73l-6.93-.93a12.01 12.01 0 00-7.9 13.28l4 26.6 6.93.94" fill="#B880FF"/>
    <path d="M127.23 108.73l-6.93-.93a12.01 12.01 0 00-7.9 13.28l4 26.6 6.93.94" stroke="#000" stroke-width="3.58" stroke-miterlimit="10" stroke-linecap="round" stroke-linejoin="round"/>
    <path fill-rule="evenodd" clip-rule="evenodd" d="M123.33 148.57l12.88-5.03.88-1.8a9.12 9.12 0 00.78-6.01l-2.15-11.18-6.59-1.32-1.95-14.5a11.96 11.96 0 00-7.9 13.28l4.05 26.56z" fill="#fff" stroke="#000" stroke-width="3.58" stroke-miterlimit="10" stroke-linecap="round" stroke-linejoin="round"/>
    <path d="M224.27 370.6c34.52-3.92 60.57-24.02 58.2-44.89-2.36-20.87-32.26-34.6-66.77-30.69-34.51 3.92-60.57 24.02-58.2 44.89 2.37 20.87 32.26 34.61 66.77 30.69z" fill="#000" stroke="#000" stroke-width="3.58" stroke-miterlimit="10" stroke-linecap="round" stroke-linejoin="round"/>
    <path fill-rule="evenodd" clip-rule="evenodd" d="M264.24 207.35l21.56 103.8.88 4.1c2.25 20.4-24.25 40.62-60.55 45.7-37.42 5.22-71.09-7.57-75.24-28.62l-20.2-97.25 133.55-27.73zM130.26 233.37c-.2-.98-.3-1.95-.4-2.88.2 1.56.5 3.13.79 4.69-.1-.59-.25-1.18-.4-1.8z" fill="#fff" stroke="#000" stroke-width="3.58" stroke-miterlimit="10" stroke-linecap="round" stroke-linejoin="round"/>
    <path fill-rule="evenodd" clip-rule="evenodd" d="M267.9 225.75l-2-9.61-1.22 3.46c-10.25-13.42-39.23-20.5-71.04-16.16-24.4 3.32-44.5 12.5-54.4 23.58l-8.98 6.35 2.53 12.3c3.8 18.22 37.23 28.86 74.65 23.78 37.43-5.08 64.65-23.97 60.85-42.23-.1-.49-.25-.98-.4-1.47z" fill="#000" stroke="#000" stroke-width="3.58" stroke-miterlimit="10" stroke-linecap="round" stroke-linejoin="round"/>
    <path fill-rule="evenodd" clip-rule="evenodd" d="M286.34 313.44l.3 1.86-.89-4.1c.25.73.44 1.5.59 2.24z" fill="#fff" stroke="#000" stroke-width="3.58" stroke-miterlimit="10" stroke-linecap="round" stroke-linejoin="round"/>
    <path fill-rule="evenodd" clip-rule="evenodd" d="M266.1 216.14c.72 3.8.48 7.61-.74 11.32-5.32 16.75-29.03 31.5-59.72 35.35-36.45 4.64-69.29-7.66-74.94-27.63a51.93 51.93 0 01-.79-4.69 68.2 68.2 0 01134.32-23.14c.35 1.76 1.67 7.57 1.86 8.79z" fill="#fff"/>
    <path fill-rule="evenodd" clip-rule="evenodd" d="M194.37 153.35c16.2.05 30.78 11.23 39.9 28.47-3.85 5.12-10.63 9.66-19.31 12.88-4.4-24.11-13.32-40.96-23.23-40.96 7.08.2 13.71 17.92 16.93 42.97a81.4 81.4 0 01-11.51 2.24c-7.08.88-13.9.88-20.2.1 1.56-26.17 7.17-45.02 14.49-45.36-10.2.4-18.35 18.7-21.03 44.24-7.8-1.76-14.25-4.74-18.44-8.7 7.6-20.6 22.64-34.9 40.5-35.88-18.6.93-34.5 13.67-43.38 32.42a13.74 13.74 0 01-1.95-4.74c-.4-2-.34-3.95.2-5.9a68 68 0 0136.34-20.66 67.74 67.74 0 0151.57 9.96 14.36 14.36 0 012.35 5.32c.58 2.89.14 5.72-1.13 8.5-10.2-15.28-25.37-25-42.1-24.9z" fill="#B880FF"/>
    <path d="M192.84 164.26c5.77-.55 10.2-3.45 9.92-6.49-.29-3.03-5.2-5.04-10.97-4.5-5.76.55-10.2 3.46-9.92 6.49.3 3.03 5.2 5.05 10.97 4.5z" fill="#fff" stroke="#B880FF" stroke-width="3.58" stroke-miterlimit="10" stroke-linecap="round" stroke-linejoin="round"/>
    <path clip-rule="evenodd" d="M266.1 216.14c.72 3.8.48 7.61-.74 11.32-5.32 16.75-29.03 31.5-59.72 35.35-36.45 4.64-69.29-7.66-74.94-27.63a51.93 51.93 0 01-.79-4.69 68.2 68.2 0 01134.32-23.14c.35 1.76 1.67 7.57 1.86 8.79z" stroke="#000" stroke-width="3.58" stroke-miterlimit="10" stroke-linecap="round" stroke-linejoin="round"/>
    <path clip-rule="evenodd" d="M138.6 215.4c.73 6.35 3.02 26.03 4.2 35.6-.64-.5-1.27-.93-1.9-1.42l-3.96-33.98c-.05-.54.49-.88.93-.59.24.1.48.25.73.4z" stroke="#000" stroke-width="3.58" stroke-miterlimit="10" stroke-linecap="round" stroke-linejoin="round"/>
    <path fill-rule="evenodd" clip-rule="evenodd" d="M187.88 225.85l5.22 37.94c-20.44.48-38.74-4.4-50.35-12.75-1.13-9.56-3.42-29.29-4.2-35.59 12.34 6.94 29.18 10.8 48.45 9.77.44-.1.83.2.88.63z" fill="#B880FF" stroke="#000" stroke-width="3.58" stroke-miterlimit="10" stroke-linecap="round" stroke-linejoin="round"/>
    <path d="M174.5 250.36l4.45-7.23 6 8.7M145 243.82l4.43-7.23 5.07 8.89" stroke="#fff" stroke-width="3.58" stroke-miterlimit="10" stroke-linecap="round" stroke-linejoin="round"/>
    <path d="M218.52 247.09a9.66 9.66 0 100-19.33 9.66 9.66 0 000 19.33zM283.41 300.01l-.83-4.1-10.2-49.55-1.07-4.74c-.05-.15-.05-.3-.1-.44" stroke="#000" stroke-width="3.58" stroke-miterlimit="10" stroke-linecap="round" stroke-linejoin="round"/>
    <path d="M271.36 241.67c3.27 18.11-23.86 36.72-60.99 41.74-36.98 4.98-70.06-5.42-74.46-23.24l11.72 56.78c4.1 21.05 37.76 33.89 75.18 28.71 27.96-3.86 50.11-16.74 57.82-31.73" stroke="#000" stroke-width="3.58" stroke-miterlimit="10" stroke-linecap="round" stroke-linejoin="round"/>
    <path fill-rule="evenodd" clip-rule="evenodd" d="M164.75 337.41c-3.07-15.87-10.83-51.4-12.88-60.69l12.88 60.7z" fill="#fff"/>
    <path d="M164.75 337.41c-3.07-15.87-10.83-51.4-12.88-60.69" stroke="#000" stroke-width="3.58" stroke-miterlimit="10" stroke-linecap="round" stroke-linejoin="round"/>
    <path fill-rule="evenodd" clip-rule="evenodd" d="M181.44 284.2c2.39 10.83 10.44 47.74 13.12 61.95l-13.12-61.95z" fill="#fff"/>
    <path d="M181.44 284.2c2.39 10.83 10.44 47.74 13.12 61.95" stroke="#000" stroke-width="3.58" stroke-miterlimit="10" stroke-linecap="round" stroke-linejoin="round"/>
    <path fill-rule="evenodd" clip-rule="evenodd" d="M209.64 283.51c1.95 8.89 10.25 46.68 13.17 62.15l-13.17-62.15z" fill="#fff"/>
    <path d="M209.64 283.51c1.95 8.89 10.25 46.68 13.17 62.15" stroke="#000" stroke-width="3.58" stroke-miterlimit="10" stroke-linecap="round" stroke-linejoin="round"/>
    <path fill-rule="evenodd" clip-rule="evenodd" d="M250.09 338.39c-2.93-15.09-9.9-47.16-12.98-61.47l12.98 61.47z" fill="#fff"/>
    <path d="M250.09 338.39c-2.93-15.09-9.9-47.16-12.98-61.47" stroke="#000" stroke-width="3.58" stroke-miterlimit="10" stroke-linecap="round" stroke-linejoin="round"/>
    <path fill-rule="evenodd" clip-rule="evenodd" d="M262.72 262.08c3.22 14.84 9.13 42.33 12.64 59.46l-12.64-59.46z" fill="#fff"/>
    <path d="M262.72 262.08c3.22 14.84 9.13 42.33 12.64 59.46" stroke="#000" stroke-width="3.58" stroke-miterlimit="10" stroke-linecap="round" stroke-linejoin="round"/>
    <path d="M218.52 243.53a6.1 6.1 0 100-12.2 6.1 6.1 0 000 12.2z" fill="#B880FF"/>
    <path d="M229.89 315.98a5.12 5.12 0 100-10.25 5.12 5.12 0 000 10.25z" fill="#B880FF" stroke="#B880FF" stroke-width="3.58" stroke-miterlimit="10" stroke-linecap="round" stroke-linejoin="round"/>
    <path d="M226.91 301.53a5.12 5.12 0 100-10.25 5.12 5.12 0 000 10.25z" fill="#fff" stroke="#000" stroke-width="3.58" stroke-miterlimit="10" stroke-linecap="round" stroke-linejoin="round"/>
    <path d="M161.43 295.52a87.01 87.01 0 0016.45 3.86M163.34 302.85a82.37 82.37 0 0016 3.75" stroke="#000" stroke-width="3.58" stroke-miterlimit="10" stroke-linecap="round" stroke-linejoin="round"/>
    <path clip-rule="evenodd" d="M178.46 314.37c-4.3-.88-8.3-2.05-12-3.52a3.66 3.66 0 01-2.3-2.68c-1.56-7.38-3.07-14.3-4.24-19.53a1.96 1.96 0 012.49-2.3 82.88 82.88 0 0010.64 2.54 4.06 4.06 0 013.26 3.18l4.3 20.16a1.84 1.84 0 01-2.15 2.15z" stroke="#000" stroke-width="3.58" stroke-miterlimit="10" stroke-linecap="round" stroke-linejoin="round"/>
    <path fill-rule="evenodd" clip-rule="evenodd" d="M169.2 331.94c-.89-4.2-1.86-8.79-2.84-13.52-.2-.83.63-1.47 1.37-1.17a81.2 81.2 0 0012.88 3.66 3.04 3.04 0 012.34 2.34l2.59 12.3a1.77 1.77 0 01-2.05 2.1 79.59 79.59 0 01-12.64-3.7 2.76 2.76 0 01-1.66-2z" fill="#fff" stroke="#000" stroke-width="3.58" stroke-miterlimit="10" stroke-linecap="round" stroke-linejoin="round"/>
    <path fill-rule="evenodd" clip-rule="evenodd" d="M269.02 296.06l-8.83.44c-8.93.49-14.6-8.2-16.25-19l-5.17-33.88 11.02-8.34 9.81-.54" fill="#B880FF"/>
    <path d="M269.02 296.06l-8.83.44c-8.93.49-14.6-8.2-16.25-19l-5.17-33.88 11.02-8.34 9.81-.54" stroke="#000" stroke-width="3.58" stroke-miterlimit="10" stroke-linecap="round" stroke-linejoin="round"/>
    <path fill-rule="evenodd" clip-rule="evenodd" d="M275.75 233.96l6.3 40.81c1.65 10.8-4.15 20.36-13.03 21.29-8.83.98-17.37-7.03-19.03-17.82l-5.22-33.88 14.83-9.62 16.15-.78z" fill="#fff" stroke="#000" stroke-width="3.58" stroke-miterlimit="10" stroke-linecap="round" stroke-linejoin="round"/>
    <path fill-rule="evenodd" clip-rule="evenodd" d="M273.17 275.85c.39 3.7-1.08 7.13-3.52 8.88l.05.69-3.07.53c-4.15.44-7.9-3.32-8.4-8.44-.53-5.13 2.45-9.38 6.54-10.06l2-.34c.4-.05.79.05 1.03.34l.58.63c2.44 1.27 4.4 4.15 4.79 7.77z" fill="#000" stroke="#000" stroke-width="3.58" stroke-miterlimit="10" stroke-linecap="round" stroke-linejoin="round"/>
    <path d="M268.85 285.48c4.13-.36 7.13-4.8 6.68-9.9-.45-5.1-4.16-8.94-8.3-8.58-4.13.36-7.12 4.79-6.67 9.9.44 5.1 4.16 8.94 8.3 8.58z" fill="#B880FF" stroke="#000" stroke-width="3.58" stroke-miterlimit="10" stroke-linecap="round" stroke-linejoin="round"/>
    <path fill-rule="evenodd" clip-rule="evenodd" d="M263.02 255.93l-12.05-15.58-6.93-.73-10.88-64.3 16.54-5.71 13.32 86.32z" fill="#B880FF" stroke="#000" stroke-width="3.58" stroke-miterlimit="10" stroke-linecap="round" stroke-linejoin="round"/>
    <path fill-rule="evenodd" clip-rule="evenodd" d="M269.85 255.24l-12.44 5.08c-1.27.49-2.64-.2-2.83-1.46l-12.74-82.61 16.6-5.62 12.73 82.47c.1.87-.44 1.8-1.32 2.14z" fill="#000" stroke="#000" stroke-width="3.58" stroke-miterlimit="10" stroke-linecap="round" stroke-linejoin="round"/>
    <path fill-rule="evenodd" clip-rule="evenodd" d="M246.57 122.06l-8.78-1.37c-7.07 2.05-11.56 8.79-10.54 15.72l5.8 38.47 8.8 1.37" fill="#B880FF"/>
    <path d="M246.57 122.06l-8.78-1.37c-7.07 2.05-11.56 8.79-10.54 15.72l5.8 38.47 8.8 1.37" stroke="#000" stroke-width="3.58" stroke-miterlimit="10" stroke-linecap="round" stroke-linejoin="round"/>
    <path fill-rule="evenodd" clip-rule="evenodd" d="M241.84 176.25l16.6-5.62 1.21-2.24a10.71 10.71 0 001.27-7.03l-1.86-12.3-8.63-1.86-3.9-25.2c-7.08 2.06-11.57 8.8-10.54 15.73l5.85 38.52z" fill="#fff" stroke="#000" stroke-width="3.58" stroke-miterlimit="10" stroke-linecap="round" stroke-linejoin="round"/>
    <path fill-rule="evenodd" clip-rule="evenodd" d="M307.22 370.56l-75.28 37.06c-4.35 2.15-8.44 1.37-11.37-.88-4.34-3.42-5.9-10.3-1.42-16.16l58.9-76.65a7.04 7.04 0 017.56-2.64 6.24 6.24 0 013.7 3.03l22.64 42.57c2.64 4.74.4 11.13-4.73 13.67z" fill="#B880FF" stroke="#000" stroke-width="3.58" stroke-miterlimit="10" stroke-linecap="round" stroke-linejoin="round"/>
    <path fill-rule="evenodd" clip-rule="evenodd" d="M228.62 405.37a7.2 7.2 0 01-7.86-3.7c-1.6-2.89-1.26-6.36.93-9.19l58.9-76.65a3.86 3.86 0 012.29-1.46 3.3 3.3 0 013.66 1.66l22.63 42.57a6.3 6.3 0 01.34 5.08 6.53 6.53 0 01-3.46 3.9l-75.24 37.06c-.78.34-1.5.59-2.2.73z" fill="#B880FF" stroke="#000" stroke-width="3.58" stroke-miterlimit="10" stroke-linecap="round" stroke-linejoin="round"/>
    <path d="M299.37 370.8l-4.98-39.98M287.8 376.52l-7.51-60.35M276.29 382.18l-6.54-52.29M264.72 387.9l-5.56-44.29M253.16 393.6l-4.54-36.27M241.6 399.27l-3.52-28.17M230.03 404.93l-2.48-20.11M247.35 391.36l34.5-17.14M240.72 375.69l33.76-44.04M300.68 351.28l5.03 9.42c.3.59.34 1.22.1 1.85a2.59 2.59 0 01-1.27 1.42l-7.56 3.71M288.93 328.43l5.9 11.03M234.67 398.39l-5.37 2.64c-.39.2-.83.34-1.22.44-1.56.34-3.12-.44-3.95-2-.83-1.52-.68-3.18.49-4.7l5.51-7.17" stroke="#000" stroke-width="3.58" stroke-miterlimit="10" stroke-linecap="round" stroke-linejoin="round"/>
    <path fill-rule="evenodd" clip-rule="evenodd" d="M285.66 311.2a7.01 7.01 0 00-7.57 2.63l-58.89 76.65c-4.49 5.86-2.88 12.74 1.42 16.16l-23.33-16.16c-3.17-2.2-3.8-6.88-1.31-10.2l.05-.05 58.89-76.65.05-.05a5.98 5.98 0 016.92-2.05l23.77 9.71z" fill="#fff" stroke="#000" stroke-width="3.58" stroke-miterlimit="10" stroke-linecap="round" stroke-linejoin="round"/>
    <path d="M221.6 407.37l-.98-.68M286.83 311.68l-1.17-.49M222.13 386.67l-20.98-13.08M269.6 324.91l-22.64-11.03M254 345.22l-22.55-11.08M237.89 366.17l-21.66-12.26" stroke="#000" stroke-width="3.58" stroke-miterlimit="10" stroke-linecap="round" stroke-linejoin="round"/>
    <path d="M300.1 357.54c1.55-10.29-3.28-19.55-10.8-20.7-7.5-1.13-14.86 6.29-16.42 16.58-1.55 10.29 3.28 19.56 10.79 20.7 7.51 1.13 14.87-6.29 16.42-16.58z" fill="#B880FF" stroke="#000" stroke-width="3.58" stroke-miterlimit="10" stroke-linecap="round" stroke-linejoin="round"/>
    <path d="M295.41 356.83c1.03-6.77-2.14-12.86-7.07-13.61s-9.75 4.14-10.78 10.9c-1.02 6.78 2.14 12.87 7.07 13.62s9.76-4.14 10.78-10.9z" stroke="#000" stroke-width="3.58" stroke-miterlimit="10" stroke-linecap="round" stroke-linejoin="round"/>
    <path d="M288.72 329c.86-5.33-1.68-10.17-5.67-10.81-4-.65-7.92 3.14-8.78 8.47-.86 5.32 1.68 10.16 5.67 10.8 4 .65 7.92-3.15 8.78-8.47zM247.96 388.94c1.05-6.52-2.05-12.45-6.91-13.23-4.87-.79-9.67 3.86-10.72 10.38-1.05 6.53 2.04 12.45 6.91 13.23 4.87.79 9.67-3.86 10.72-10.38z" fill="#B880FF" stroke="#000" stroke-width="3.58" stroke-miterlimit="10" stroke-linecap="round" stroke-linejoin="round"/>
    <path d="M243.48 388.21c.52-3.22-1-6.14-3.4-6.53-2.4-.38-4.75 1.92-5.27 5.14-.52 3.22 1 6.14 3.4 6.53 2.39.38 4.75-1.91 5.27-5.14zM286.59 361.17c2.4-.02 4.31-2.6 4.28-5.76-.04-3.15-2.01-5.69-4.41-5.66-2.4.03-4.31 2.6-4.28 5.76.04 3.16 2.01 5.7 4.4 5.66zM281.8 332.17c1.82-.02 3.29-1.96 3.26-4.33-.03-2.37-1.53-4.28-3.37-4.26-1.83.02-3.3 1.96-3.26 4.34.02 2.37 1.53 4.27 3.36 4.25z" fill="#000"/>
    <path d="M70.73 332.19l30.15-12.06" stroke="#000" stroke-width="3.58" stroke-miterlimit="10" stroke-linecap="round" stroke-linejoin="round"/>
  </g>
  <defs>
    <clipPath id="clip0">
      <path fill="#fff" d="M0 0h480v455H0z"/>
    </clipPath>
  </defs>
</svg>
