<svg width="216" height="210" viewBox="0 0 216 210" fill="none" xmlns="http://www.w3.org/2000/svg">
  <path d="M38.01 172.5a99.59 99.59 0 0069.58 28.08v6.56a2.48 2.48 0 002.44 2.38c57.38-1.26 103.85-46.37 105.14-102.39a2.48 2.48 0 00-2.43-2.37h-6.75c0-52.94-44.04-95.82-98.4-95.82V2.37A2.48 2.48 0 00105.15 0a108.52 108.52 0 00-71.87 28.91c-1 .98-1 2.52 0 3.36l4.73 4.6C20.23 54.2 9.18 78.23 9.18 104.63H2.44A2.48 2.48 0 000 106.99c.57 27.1 11.9 51.69 29.7 69.98 1 .98 2.58.98 3.44 0L38 172.5z" fill="#45E0A8"/>
</svg>
