<svg xmlns="http://www.w3.org/2000/svg" width="304" height="305" fill="none" viewBox="0 0 304 305">
  <path fill="black" d="M160.072 249.805s-5.572-1.455-8.072-4.809Z"/>
  <path stroke="black" stroke-linecap="round" stroke-linejoin="round" stroke-width="2" d="M160.072 249.805s-5.572-1.455-8.072-4.809"/>
  <path stroke="black" stroke-linecap="round" stroke-linejoin="round" stroke-width="3" d="m76.678 74.54 10.61 19.113"/>
  <path fill="black" d="M64.23 213.354s10.631 8.167 15.87 2.962c0 0 20.887 20.543 28.798 12.622 0 0 18.527 18.231 31.118 4.824 0 0 16.262 15.645 35.535 1.761l-6.283 7.531s-13.726 3.754-21.015 1.941-18.436-2.73-23.189-5.009c-2.644-1.268-2.923-.709-4.318-.989-4.182-.839-5.693.461-9.56-.259-5.155-.958-15.975-4.55-19.58-8.459-3.603-3.909-15.141-3.331-27.378-16.925"/>
  <path stroke="black" stroke-linecap="round" stroke-linejoin="round" stroke-width="2" d="M64.23 213.354s10.631 8.167 15.87 2.962c0 0 20.887 20.543 28.798 12.622 0 0 18.527 18.231 31.118 4.824 0 0 16.262 15.645 35.535 1.761l-6.283 7.531s-13.726 3.754-21.015 1.941-18.436-2.73-23.189-5.009c-2.644-1.268-2.923-.709-4.318-.989-4.182-.839-5.693.461-9.56-.259-5.155-.958-15.975-4.55-19.58-8.459-3.603-3.909-15.14-3.331-27.377-16.925Z"/>
  <path fill="black" d="M55.155 129.183c16.005-14.005 37.809-23.838 48.593-28.189-19.834-11.839-38.473-14.806-49.864-5.924-10.277 8.013-12.64 24.098-8.125 43.414a100.224 100.224 0 0 1 9.396-9.301"/>
  <path stroke="black" stroke-linecap="round" stroke-linejoin="round" stroke-width="2" d="M55.155 129.183c16.005-14.005 37.809-23.838 48.593-28.189-19.834-11.839-38.473-14.806-49.864-5.924-10.277 8.013-12.64 24.098-8.125 43.414a100.224 100.224 0 0 1 9.396-9.301v0ZM53.43 148.846c0 3.788 3.694 7.633 7.533 6.895a7.935 7.935 0 0 0 4.79-3.284M109.314 155.736c0-.203 1.258 4.372 5.52 5.63 4.261 1.259 6.919-2.234 7.588-2.861"/>
  <path fill="black" d="M81.225 67.228a7.33 7.33 0 1 1-14.662 0 7.33 7.33 0 0 1 14.662 0"/>
  <path stroke="black" stroke-linecap="round" stroke-linejoin="round" stroke-width="2" d="M80.45 70.507a7.33 7.33 0 1 0-13.112-6.557 7.33 7.33 0 0 0 13.112 6.557Z"/>
  <path fill="white" d="M37.561 129.528s1.725 3.449 10.694-2.415c8.97-5.865 17.938-15.523 14.488-21.733-3.45-6.21-19.663 4.459-23.457 12.578-3.795 8.12-1.725 11.57-1.725 11.57ZM29.922 139.449c3.158-2.697 7.382 3.103 5.496 6.142-1.886 3.039-5.467 12.402-7.6 9.705-2.135-2.697-2.992-11.498 2.104-15.847"/>
  <path stroke="black" stroke-linecap="round" stroke-linejoin="round" stroke-width="2" d="M179.617 210.594s-12.873 0-27.617-13.799c-14.744-13.798-18.375-22.563-18.375-22.563M39.83 178.167s-3.05 3.108-2.832 4.829c.22 1.722 1.943 1.38 5.738 4.831 3.794 3.45 22.567 35.432 47.605 41.111 0 0 9.314 11.99 32.081 9.931 0 0 20.605 9.878 44.452 5.81"/>
  <path stroke="black" stroke-linecap="round" stroke-linejoin="round" stroke-width="2" d="M71.8 203.695c1.293 1.379 7.847 13.92 18.541 25.243M90.341 203.695c-.345 1.034 15.417 27.584 32.081 35.175M164.245 245.067c-23.031-2.781-44.583-31.713-43.456-31.713M131.046 194.381s7.935 20.007 22.766 27.942c14.832 7.934 24.446 6.89 24.446 6.89M178.26 101.505c.918.878 5.201.856 6.412 1.029 8.837 1.271 18.689 2.17 27.461.135 6.215-1.443 12.252-4.97 15.221-10.62 5.735-10.919.354-30.574-11.147-35.855M168.303 245.661s26.907-1.621 51.054-30.764"/>
  <path fill="black" d="M254.998 65.374s12.092 19.48 5.41 44.491c-5.53 20.695-25.873 48.615-25.873 48.615l12.818 11.754s18.493-37.608 20.296-55.884c2.805-28.427-8.647-44.444-12.653-48.977"/>
  <path stroke="black" stroke-linecap="round" stroke-linejoin="round" stroke-width="2" d="M254.998 65.374s12.092 19.48 5.41 44.491c-5.53 20.695-25.873 48.615-25.873 48.615l12.818 11.755s18.493-37.608 20.296-55.884c2.806-28.429-8.649-44.445-12.651-48.977Z"/>
  <path fill="white" d="M178.259 67.88s13.849-3.55 17.986-16.314c4.136-12.763 17.366-15.745 17.366-15.745s-11.147-8.484-19.084-2.311c-7.937 6.172-7.736 14.916-11.391 22.54-4.877 10.177-10.569 10.177-10.569 10.177l5.692 1.652ZM215.908 30.159a15.588 15.588 0 0 1 11.038-12.4c10.004-3.107 17.939-14.488 17.939-14.488L224 15.322s-7.556 8.187-8.092 14.837Z"/>
  <path fill="black" d="M245.739 6.337s-.854 15.389-7.883 26.398c-5.404 8.466-10.909 12.621-10.909 12.621l6.899 3.45s11.053-11.767 12.943-21.233c1.89-9.467-1.05-21.234-1.05-21.234"/>
  <path stroke="black" stroke-linecap="round" stroke-linejoin="round" stroke-width="2" d="M245.739 6.337s-.854 15.389-7.883 26.398c-5.404 8.466-10.909 12.621-10.909 12.621l6.899 3.45s11.053-11.767 12.943-21.233c1.89-9.467-1.05-21.236-1.05-21.236Z"/>
  <path fill="black" d="M249.714 194.381c4.83 18.282 4.729 41.469-2.291 56.093 0 0 18.357-20.131 14.883-49.884-2.76-23.63-27.77-42.111-27.77-42.111s10.349 17.619 15.178 35.902Z"/>
  <path stroke="black" stroke-linecap="round" stroke-linejoin="round" stroke-width="2" d="M249.714 194.381c4.83 18.282 4.729 41.469-2.291 56.093 0 0 18.357-20.131 14.883-49.884-2.76-23.63-27.77-42.111-27.77-42.111s10.353 17.619 15.178 35.902Z"/>
  <path fill="white" d="M223.225 186.404c.018.856.1 1.716.15 2.567 0 1.663.203 3.345.292 5.006.086 1.626.079 3.26.214 4.889.484 5.868 1.41 12.419 5.013 17.23 3.526 4.71 8.548 8.355 11.321 13.611 4.227 8.015 1.612 17.151-1.287 25.134 0 0 3.175-8.738-6.482-19.743-6.444-7.344-11.853-15.012-14.18-24.507-1.867-7.619.655-17.52 4.62-24.928.391-.731.333.374.338.642l.001.099Z"/>
  <path stroke="black" stroke-linecap="round" stroke-linejoin="round" stroke-width="2" d="M136.089 163.927c3.904-1.196 8.727 2.945 7.717 6"/>
  <path fill="black" d="m165.44 24.704-1.496 4.283-3.224 3.548a.191.191 0 0 0-.056.123.188.188 0 0 0 .043.129l3.257 3.003 2.015 4.105a.18.18 0 0 0 .193.073.172.172 0 0 0 .065-.032l4.737-2.956 5.416-1.419a.178.178 0 0 0 .121-.075.166.166 0 0 0 .027-.067.162.162 0 0 0-.002-.073l-1.674-4.251-.011-4.402a.188.188 0 0 0-.195-.162l-4.826-.08-4.194-1.83a.134.134 0 0 0-.196.084"/>
  <path stroke="black" stroke-linecap="round" stroke-linejoin="round" stroke-width="2" d="m165.44 24.704-1.496 4.283-3.224 3.548a.191.191 0 0 0-.056.123.188.188 0 0 0 .043.129l3.257 3.003 2.015 4.105a.18.18 0 0 0 .193.073.172.172 0 0 0 .065-.032l4.737-2.956 5.416-1.419a.178.178 0 0 0 .121-.075.166.166 0 0 0 .027-.067.162.162 0 0 0-.002-.073l-1.674-4.251-.011-4.402a.188.188 0 0 0-.195-.162l-4.826-.08-4.194-1.83a.134.134 0 0 0-.196.084"/>
  <path fill="black" d="m159.976 31.114.699 1.621 1.19-.04-1.277-1.54-.612-.041Z"/>
  <path stroke="black" stroke-linecap="round" stroke-linejoin="round" stroke-width="2" d="m159.976 31.114.699 1.621 1.19-.04-1.277-1.54-.612-.041Z"/>
  <path fill="black" d="m174.136 25.013.699 1.621-.846.837-.243-1.984.39-.474Z"/>
  <path stroke="black" stroke-linecap="round" stroke-linejoin="round" stroke-width="2" d="m174.136 25.013.699 1.621-.846.837-.243-1.984.39-.474Z"/>
  <path fill="white" d="m165.241 22.641-1.496 4.283-3.224 3.554a.187.187 0 0 0-.013.252l3.257 3.003 2.016 4.102a.18.18 0 0 0 .259.04l4.737-2.956 5.416-1.418a.179.179 0 0 0 .121-.075.166.166 0 0 0 .027-.068.162.162 0 0 0-.002-.073l-1.674-4.25-.011-4.403a.192.192 0 0 0-.196-.162l-4.825-.08-4.194-1.83a.134.134 0 0 0-.168.03.129.129 0 0 0-.029.054"/>
  <path stroke="black" stroke-linecap="round" stroke-linejoin="round" stroke-width="2" d="m165.241 22.641-1.496 4.283-3.224 3.554a.187.187 0 0 0-.013.252l3.257 3.003 2.016 4.102a.18.18 0 0 0 .259.04l4.737-2.956 5.416-1.418a.179.179 0 0 0 .121-.075.166.166 0 0 0 .027-.068.162.162 0 0 0-.002-.073l-1.674-4.25-.011-4.403a.192.192 0 0 0-.196-.162l-4.825-.08-4.194-1.83a.134.134 0 0 0-.168.03.129.129 0 0 0-.029.054"/>
  <path fill="black" d="m160.417 274.712-5.468 2.587-6.387.258a.245.245 0 0 0-.169.063.245.245 0 0 0-.082.161l.195 5.905-2.014 5.755a.244.244 0 0 0 .111.252.245.245 0 0 0 .092.031l7.241 1.734 6.418 3.816a.234.234 0 0 0 .338-.062l2.471-5.569 4.171-4.131a.25.25 0 0 0-.029-.338l-4.439-4.661-2.186-5.698a.2.2 0 0 0-.04-.071.175.175 0 0 0-.067-.046.18.18 0 0 0-.158.01"/>
  <path stroke="black" stroke-linecap="round" stroke-linejoin="round" stroke-width="2" d="m160.417 274.712-5.468 2.587-6.387.258a.245.245 0 0 0-.169.063.245.245 0 0 0-.082.161l.195 5.905-2.014 5.755a.244.244 0 0 0 .111.252.245.245 0 0 0 .092.031l7.241 1.734 6.418 3.816a.234.234 0 0 0 .338-.062l2.471-5.569 4.171-4.131a.25.25 0 0 0-.029-.338l-4.439-4.661-2.186-5.698a.2.2 0 0 0-.04-.071.175.175 0 0 0-.067-.046.18.18 0 0 0-.158.01"/>
  <path fill="black" d="m150.333 275.439-2.003 2.264 1.151 1.092.269-2.654.583-.702Z"/>
  <path stroke="black" stroke-linecap="round" stroke-linejoin="round" stroke-width="2" d="m150.333 275.439-2.003 2.264 1.151 1.092.269-2.654.583-.702Z"/>
  <path fill="black" d="m168.264 283.261-.886 2.181-1.587-.02 1.658-2.089.815-.072Z"/>
  <path stroke="black" stroke-linecap="round" stroke-linejoin="round" stroke-width="2" d="m168.264 283.261-.886 2.181-1.587-.02 1.658-2.089.815-.072Z"/>
  <path fill="white" d="m162.189 272.596-5.469 2.588-6.387.258a.243.243 0 0 0-.169.063.245.245 0 0 0-.082.161l.195 5.905-2.014 5.755a.227.227 0 0 0 0 .097.236.236 0 0 0 .111.154.23.23 0 0 0 .091.032l7.242 1.734 6.418 3.816a.244.244 0 0 0 .086.041.239.239 0 0 0 .185-.034.241.241 0 0 0 .066-.069l2.471-5.569 4.171-4.131a.25.25 0 0 0-.028-.338l-4.44-4.662-2.186-5.698a.188.188 0 0 0-.106-.116.171.171 0 0 0-.08-.013.176.176 0 0 0-.078.022"/>
  <path stroke="black" stroke-linecap="round" stroke-linejoin="round" stroke-width="2" d="m162.189 272.596-5.469 2.588-6.387.258a.243.243 0 0 0-.169.063.245.245 0 0 0-.082.161l.195 5.905-2.014 5.755a.227.227 0 0 0 0 .097.236.236 0 0 0 .111.154.23.23 0 0 0 .091.032l7.242 1.734 6.418 3.816a.244.244 0 0 0 .086.041.239.239 0 0 0 .185-.034.241.241 0 0 0 .066-.069l2.471-5.569 4.171-4.131a.25.25 0 0 0-.028-.338l-4.44-4.662-2.186-5.698a.188.188 0 0 0-.106-.116.171.171 0 0 0-.08-.013.176.176 0 0 0-.078.022"/>
  <path fill="black" d="M175.566 98.624a92.752 92.752 0 0 1 32.036 70.092c0 34.681-19.126 64.95-47.531 81.089-2.233 1.361 18.381-1.472 22.441-4.144 24.189-15.917 36.845-45.239 36.845-77.088 0-26.501-9.817-52.024-28.359-67.533-2.994-2.503-17.122-3.695-15.432-2.416"/>
  <path stroke="black" stroke-linecap="round" stroke-linejoin="round" stroke-width="2" d="M175.566 98.624a92.752 92.752 0 0 1 32.036 70.092c0 34.681-19.126 64.95-47.531 81.089-2.233 1.361 18.381-1.472 22.441-4.144 24.189-15.917 36.845-45.239 36.845-77.088 0-26.501-9.817-52.024-28.359-67.533-2.991-2.503-17.122-3.695-15.432-2.416Z"/>
  <path stroke="white" stroke-linecap="round" stroke-linejoin="round" stroke-width="2" d="M112.298 262.063c52.293 0 94.685-41.857 94.685-93.49 0-51.634-42.392-93.49-94.685-93.49s-94.685 41.856-94.685 93.49c0 51.633 42.392 93.49 94.685 93.49Z"/>
  <path stroke="black" stroke-linecap="round" stroke-linejoin="round" stroke-width="2" d="M234.536 158.479s16.903 13.579 25.182 31.813c8.279 18.234 1.102 40.18-4.484 50.313-7.417 13.454-17.593 16.904-17.593 16.904a14.974 14.974 0 0 0-1.38-17.594c-7.244-8.968-17.249-22.102-19.321-31.921M219.015 51.566s-2.555 7.589-15.076 14.66c-12.521 7.07-31.369 0-31.369 0s5.742.172 10.569-10.177c4.827-10.35 5.644-19.321 12.654-23.457 7.01-4.137 21.152 5.174 21.152 5.174a20.154 20.154 0 0 1 2.07-17.247c5.52-8.624 18.973-11.384 25.874-17.248 0 0 2.414 6.209 2.414 19.663 0 13.453-13.453 25.873-13.453 25.873a63.946 63.946 0 0 1 23.353 19.394 51.555 51.555 0 0 1 9.073 20.622c5.52 28.287-6.552 57.392-18.282 79.751"/>
  <path fill="black" d="m283.686 111.453.689.604c-.442-.44-.638-.604-.689-.604Z"/>
  <path stroke="black" stroke-linecap="round" stroke-linejoin="round" stroke-width="2" d="m283.686 111.453.689.604c-.439-.44-.638-.604-.689-.604Z"/>
  <path fill="white" d="M284.525 112.937c.086-.098-.99-1.486-.839-1.486l-5.353-4.687-3.494-8.46a.272.272 0 0 0-.4-.15l-8.099 4.087-6.47.987-.523-1.588-.367-1.666-2.441 2.989a.366.366 0 0 0-.108.135.297.297 0 0 0-.025.118l.517 8.849-2.8 8.706a.354.354 0 0 0 .316.417l10.924 2.323 9.766 5.478c.202.112 3.009-3.179 3.082-3.35l.919-5.202 5.395-7.5Z"/>
  <path stroke="black" stroke-linecap="round" stroke-linejoin="round" stroke-width="2" d="M284.525 112.937c.086-.098-.99-1.486-.839-1.486l-5.353-4.687-3.494-8.46a.272.272 0 0 0-.4-.15l-8.099 4.087-6.47.987-.523-1.588-.367-1.666-2.441 2.989a.366.366 0 0 0-.108.135v0a.297.297 0 0 0-.025.118l.517 8.849-2.8 8.706a.354.354 0 0 0 .316.417l10.924 2.323 9.766 5.478c.202.112 3.009-3.179 3.082-3.35l.919-5.202 5.395-7.5Z"/>
  <path fill="white" d="m277.014 94.912-8.1 4.089-9.567.63a.37.37 0 0 0-.367.345l.517 8.846-2.8 8.705a.359.359 0 0 0 .316.418l10.923 2.323 9.767 5.477a.354.354 0 0 0 .41 0 .355.355 0 0 0 .097-.107l3.493-8.445 6.097-6.35a.376.376 0 0 0-.056-.504l-6.835-6.815-3.495-8.463a.277.277 0 0 0-.4-.151"/>
  <path stroke="black" stroke-linecap="round" stroke-linejoin="round" stroke-width="2" d="m277.014 94.912-8.1 4.089-9.567.63a.37.37 0 0 0-.367.345l.517 8.846-2.8 8.705a.359.359 0 0 0 .316.418l10.923 2.323 9.767 5.477a.354.354 0 0 0 .41 0 .355.355 0 0 0 .097-.107l3.493-8.445 6.097-6.35a.376.376 0 0 0-.056-.504l-6.835-6.815-3.495-8.463a.277.277 0 0 0-.4-.151"/>
  <path stroke="white" stroke-linecap="round" stroke-linejoin="round" stroke-width="3" d="M184.442 235.432h6.209M189.42 228.938h6.209M194.497 222.445h6.209"/>
  <path fill="white" d="M54.647 227.543c-1.369 2.148 11.364 18.442 16.83 15.896 5.466-2.546-15.461-18.045-16.83-15.896ZM68.953 68.689a7.33 7.33 0 0 1 8.75-7.191 7.326 7.326 0 0 0-11.8 5.986 7.327 7.327 0 0 0 5.913 7.005 7.31 7.31 0 0 1-2.86-5.8"/>
  <path stroke="black" stroke-linecap="round" stroke-linejoin="round" stroke-width="2" d="M80.45 70.507a7.33 7.33 0 1 0-13.112-6.557 7.33 7.33 0 0 0 13.112 6.557Z"/>
  <path fill="black" d="M37.61 181.025s24.952 18.517 56.525 11.387c26.612-6.009 36.278-15.855 36.278-15.855s-21.101 17.504-56.201 13.468c-23.786-2.735-34.386-11.857-34.386-11.857l-2.216 2.857Z"/>
  <path stroke="black" stroke-linecap="round" stroke-linejoin="round" stroke-width="2" d="M37.61 181.025s24.952 18.517 56.525 11.387c26.612-6.009 36.278-15.855 36.278-15.855s-21.101 17.504-56.201 13.468c-23.786-2.735-34.386-11.857-34.386-11.857l-2.216 2.857Z"/>
  <path fill="white" d="M35.099 155.731c-.569 2.545 6.608 9.488 8.264 11.202a50.452 50.452 0 0 0 16.149 11.07c8.412 3.698 17.585 5.712 26.562 7.52 4.7.946 11.67 3.23 16.533 2.475 0 0-33.117 5.15-52.356-4.065-19.239-9.216-18.303-14.078-15.15-28.202"/>
  <path stroke="black" stroke-linecap="round" stroke-linejoin="round" stroke-width="2" d="M110.348 98.48s-33.116 11.384-55.192 30.702c-22.077 19.319-21.389 32.427-22.078 36.565-1.7 10.21 13.722 17.112 20.985 19.654a86.874 86.874 0 0 0 39.246 4.244c16.461-2.047 38.19-9.606 48.32-23.552"/>
  <path fill="white" d="M53.884 95.07c19.876-15.498 61.819 5.066 93.682 45.931 31.862 40.865 41.579 86.556 21.703 102.053l.095.127a92.954 92.954 0 0 0 37.619-74.609c0-51.633-42.392-93.49-94.685-93.49A95.045 95.045 0 0 0 53.842 95.02l.042.05Z"/>
  <path stroke="white" stroke-miterlimit="10" stroke-width="2" d="M53.884 95.07c19.876-15.498 61.819 5.066 93.682 45.931 31.862 40.865 41.579 86.556 21.703 102.053l.095.127a92.954 92.954 0 0 0 37.619-74.609c0-51.633-42.392-93.49-94.685-93.49A95.045 95.045 0 0 0 53.842 95.02l.042.05Z"/>
  <path fill="black" d="M172.948 178.205a1.95 1.95 0 0 0-.761 0h-.111v.012c-2.913.492-5.202 5.297-5.202 11.162 0 5.864 2.286 10.67 5.202 11.162v.05h7.209v-22.386h-6.337Z"/>
  <path stroke="black" stroke-linecap="round" stroke-linejoin="round" stroke-width="2" d="M172.948 178.205a1.95 1.95 0 0 0-.761 0h-.111v.012c-2.913.492-5.202 5.297-5.202 11.162 0 5.864 2.286 10.67 5.202 11.162v.05h7.209v-22.386h-6.337Z"/>
  <path fill="black" d="M185.31 189.379c0 6.192-2.549 11.214-5.693 11.214-3.144 0-5.692-5.02-5.692-11.214 0-6.194 2.549-11.214 5.692-11.214 3.144 0 5.693 5.019 5.693 11.214Z"/>
  <path stroke="white" stroke-linecap="round" stroke-linejoin="round" stroke-width="2" d="M179.617 200.591c3.144 0 5.693-5.02 5.693-11.212s-2.549-11.212-5.693-11.212c-3.143 0-5.692 5.02-5.692 11.212s2.549 11.212 5.692 11.212Z"/>
  <path fill="white" d="M181.487 189.379c0 2.288-.837 4.143-1.87 4.143-1.034 0-1.87-1.855-1.87-4.143s.837-4.142 1.87-4.142c1.032 0 1.87 1.854 1.87 4.142Z"/>
  <path stroke="black" stroke-linecap="round" stroke-linejoin="round" stroke-width="2" d="M181.487 189.379c0 2.288-.837 4.143-1.87 4.143-1.034 0-1.87-1.855-1.87-4.143s.837-4.142 1.87-4.142c1.032 0 1.87 1.854 1.87 4.142Z"/>
  <path stroke="black" stroke-linecap="round" stroke-linejoin="round" stroke-width="3" d="M152 76.749 140.015 95.03"/>
  <path fill="black" d="M146.423 97.668c-.789 1.174-4.105.33-7.406-1.888-3.301-2.217-5.337-4.967-4.55-6.142.787-1.175 4.105-.33 7.406 1.891 3.302 2.22 5.337 4.967 4.55 6.142"/>
  <path stroke="black" stroke-linecap="round" stroke-linejoin="round" stroke-width="2" d="M146.423 97.668c-.789 1.174-4.105.33-7.406-1.888-3.301-2.217-5.337-4.967-4.55-6.142.787-1.175 4.105-.33 7.406 1.891 3.302 2.22 5.339 4.964 4.55 6.14Z"/>
  <path fill="black" d="M163.542 70.18a7.327 7.327 0 0 1-4.525 6.773 7.333 7.333 0 0 1-9.995-5.342 7.328 7.328 0 0 1 7.189-8.76 7.335 7.335 0 0 1 5.184 2.146 7.32 7.32 0 0 1 2.147 5.183Z"/>
  <path stroke="black" stroke-linecap="round" stroke-linejoin="round" stroke-width="2" d="M162.446 74.033a7.33 7.33 0 0 0-2.382-10.09 7.33 7.33 0 1 0-7.707 12.472 7.33 7.33 0 0 0 10.089-2.382Z"/>
  <path fill="white" d="M151.936 71.57a7.33 7.33 0 0 1 8.749-7.19 7.326 7.326 0 1 0-5.886 12.992 7.31 7.31 0 0 1-2.861-5.801"/>
  <path stroke="black" stroke-linecap="round" stroke-linejoin="round" stroke-width="2" d="M162.446 74.033a7.33 7.33 0 0 0-2.382-10.09 7.33 7.33 0 1 0-7.707 12.472 7.33 7.33 0 0 0 10.089-2.382Z"/>
</svg>
