<svg xmlns="http://www.w3.org/2000/svg" xlink="http://www.w3.org/1999/xlink" width="22" height="22" viewBox="0 0 22 22"><path d="M17.9997,20 L3.9997,20 C2.3457,20 0.9997,18.654 0.9997,17 L0.9997,5 C0.9997,3.346 2.3457,2 3.9997,2 L8.6507,2 C9.3717,2 10.0407,2.358 10.4417,2.958 L11.8027,5 L17.9997,5 C19.6547,5 20.9997,6.346 20.9997,8 L20.9997,17 C20.9997,18.654 19.6547,20 17.9997,20 Z M3.9997,5 L3.9997,17 L17.9997,17 L17.9997,8 L11.3497,8 C10.6277,8 9.9587,7.642 9.5587,7.042 L8.1977,5 L3.9997,5 Z"/></svg>
