<svg xmlns="http://www.w3.org/2000/svg" xlink="http://www.w3.org/1999/xlink" width="16" height="16" viewBox="0 0 16 16"><path d="M13.5,15 L2.5,15 C1.121,15 0,13.878 0,12.5 L0,3.5 C0,2.122 1.121,1 2.5,1 L6.001,1 C6.335,1 6.647,1.167 6.833,1.445 L8.535,4 L13.5,4 C14.879,4 16,5.122 16,6.5 L16,12.5 C16,13.878 14.879,15 13.5,15 Z M2.5,3 C2.225,3 2,3.224 2,3.5 L2,12.5 C2,12.776 2.225,13 2.5,13 L13.5,13 C13.775,13 14,12.776 14,12.5 L14,6.5 C14,6.224 13.775,6 13.5,6 L8,6 C7.666,6 7.354,5.833 7.168,5.555 L5.466,3 L2.5,3 Z"/></svg>
