<svg xmlns="http://www.w3.org/2000/svg" width="24" height="24" fill="none" viewBox="0 0 24 24">
  <g>
    <path fill="#fff" d="M21.13 16.799c-3.356-1.624-3.89-4.132-3.914-4.318-.029-.225-.062-.402.187-.632.24-.221 1.303-.88 1.598-1.085.488-.341.702-.682.544-1.1-.11-.29-.38-.399-.664-.399-.09 0-.179.01-.266.03-.536.116-1.057.385-1.358.457a.474.474 0 0 1-.11.015c-.161 0-.222-.071-.206-.264.037-.586.117-1.73.024-2.797-.126-1.47-.6-2.197-1.162-2.841-.272-.312-1.534-1.654-3.97-1.654-2.435 0-3.696 1.342-3.966 1.65-.564.644-1.037 1.372-1.163 2.841-.092 1.068-.01 2.21.025 2.797.011.184-.045.264-.206.264a.478.478 0 0 1-.11-.015c-.301-.072-.821-.34-1.357-.457a1.235 1.235 0 0 0-.266-.03c-.286 0-.554.111-.665.399-.158.418.056.759.545 1.1.295.206 1.358.863 1.598 1.085.248.23.216.407.187.632-.024.189-.559 2.697-3.914 4.318-.196.095-.53.297.06.622.925.512 1.54.457 2.02.765.406.262.166.827.461 1.03.364.251 1.437-.017 2.824.44 1.162.384 1.869 1.466 3.93 1.466 2.062 0 2.788-1.087 3.93-1.465 1.384-.458 2.46-.19 2.824-.44.295-.204.055-.769.461-1.03.48-.31 1.095-.254 2.021-.766.588-.321.254-.523.058-.618Z"/>
    <path fill="#000" d="M22.59 16.608c-.151-.41-.438-.63-.764-.81a1.938 1.938 0 0 0-.167-.088l-.296-.15c-1.018-.54-1.813-1.22-2.364-2.028a4.6 4.6 0 0 1-.406-.72c-.047-.134-.045-.21-.011-.28a.457.457 0 0 1 .13-.136c.175-.116.355-.233.478-.312.218-.141.39-.253.502-.332.418-.293.71-.603.893-.95a1.892 1.892 0 0 0 .093-1.571c-.276-.729-.964-1.181-1.798-1.181a2.478 2.478 0 0 0-.66.087 15.444 15.444 0 0 0-.048-1.541c-.157-1.82-.794-2.774-1.458-3.534a5.814 5.814 0 0 0-1.483-1.194C14.223 1.292 13.079 1 11.833 1s-2.383.292-3.393.868a5.791 5.791 0 0 0-1.485 1.196c-.665.76-1.302 1.716-1.46 3.534a15.627 15.627 0 0 0-.047 1.542 2.477 2.477 0 0 0-.66-.087c-.834 0-1.523.451-1.799 1.18a1.894 1.894 0 0 0 .092 1.573c.183.347.475.657.893.95.11.077.284.189.502.332l.46.3c.058.038.108.088.146.148.036.072.037.15-.016.294a4.551 4.551 0 0 1-.399.705c-.539.789-1.31 1.457-2.296 1.993-.522.276-1.065.461-1.294 1.084-.172.47-.06 1.005.38 1.456.16.168.347.31.553.418a6 6 0 0 0 1.355.543c.097.025.19.066.273.122.16.14.137.35.35.66.108.16.243.297.401.407.448.309.95.328 1.483.349.48.018 1.026.04 1.649.245.258.085.526.25.836.442.746.459 1.767 1.086 3.475 1.086 1.709 0 2.737-.63 3.488-1.09.308-.19.574-.353.825-.436.623-.206 1.168-.227 1.65-.245.532-.02 1.034-.04 1.482-.349.187-.13.342-.3.456-.498.153-.26.15-.443.293-.57a.849.849 0 0 1 .257-.117c.479-.126.94-.31 1.373-.547a2.16 2.16 0 0 0 .581-.455l.006-.007c.412-.44.515-.96.346-1.418Zm-1.52.816c-.925.511-1.54.456-2.02.765-.407.262-.166.826-.461 1.03-.363.25-1.437-.018-2.824.44-1.143.378-1.873 1.465-3.93 1.465-2.057 0-2.77-1.085-3.932-1.468-1.384-.458-2.46-.19-2.823-.44-.295-.204-.056-.768-.462-1.03-.48-.308-1.095-.254-2.02-.762-.59-.326-.256-.527-.06-.623 3.355-1.624 3.89-4.131 3.915-4.317.028-.226.06-.403-.188-.632-.24-.222-1.303-.88-1.598-1.086-.488-.34-.703-.681-.545-1.1.111-.29.381-.398.665-.398.09 0 .179.01.266.03.536.116 1.056.384 1.357.457.036.01.073.014.11.015.161 0 .218-.081.207-.265-.035-.586-.118-1.729-.025-2.796.126-1.47.6-2.198 1.162-2.841.27-.31 1.54-1.651 3.967-1.651 2.428 0 3.7 1.336 3.97 1.644.563.644 1.037 1.372 1.163 2.84.092 1.069.013 2.212-.025 2.798-.013.193.045.264.206.264a.474.474 0 0 0 .11-.015c.302-.072.822-.34 1.358-.457.087-.02.177-.03.266-.03.285 0 .554.11.665.399.158.418-.056.759-.545 1.1-.295.206-1.358.863-1.598 1.085-.248.23-.216.406-.187.632.024.189.559 2.696 3.914 4.318.198.099.532.3-.057.629Z"/>
  </g>
  <defs>
      <path fill="#fff" d="M1 1h22v22H1z"/>
  </defs>
</svg>
