<svg xmlns="http://www.w3.org/2000/svg" width="16" height="16" fill="none" viewBox="0 0 16 16">
  <path fill="#fff" d="M14.527 11.616c-2.255-1.091-2.614-2.776-2.63-2.901-.02-.152-.042-.27.125-.425.161-.148.876-.59 1.074-.73.328-.228.472-.457.366-.738-.074-.195-.256-.268-.446-.268a.83.83 0 0 0-.18.02c-.36.078-.71.259-.912.307a.318.318 0 0 1-.074.01c-.108 0-.149-.048-.138-.178.025-.393.079-1.161.017-1.879-.086-.987-.404-1.476-.782-1.909-.182-.21-1.03-1.111-2.667-1.111-1.637 0-2.484.901-2.666 1.109-.378.432-.696.921-.78 1.909-.063.717-.007 1.485.016 1.879.007.123-.03.178-.138.178a.321.321 0 0 1-.075-.01c-.202-.05-.552-.23-.912-.308a.83.83 0 0 0-.179-.02c-.191 0-.372.075-.446.268-.106.281.037.51.366.74.198.138.913.58 1.074.729.167.154.145.273.126.424-.016.127-.376 1.812-2.63 2.902-.132.064-.357.2.04.418.621.344 1.035.307 1.357.514.273.176.112.555.31.692.244.169.966-.012 1.897.296.782.257 1.256.985 2.642.985 1.385 0 1.873-.73 2.64-.985.93-.308 1.653-.127 1.898-.296.198-.137.037-.516.31-.692.322-.207.736-.17 1.358-.514.395-.216.17-.352.039-.416Z"/>
  <path fill="#000" d="M15.508 11.488c-.102-.275-.294-.423-.514-.545a1.265 1.265 0 0 0-.111-.058l-.2-.101c-.684-.363-1.218-.82-1.588-1.363a3.091 3.091 0 0 1-.273-.483c-.031-.09-.03-.142-.007-.189a.307.307 0 0 1 .087-.091l.321-.21c.147-.095.263-.17.338-.223.28-.197.477-.405.6-.638a1.27 1.27 0 0 0 .063-1.056c-.187-.49-.649-.794-1.21-.794a1.665 1.665 0 0 0-.443.06 10.36 10.36 0 0 0-.031-1.037c-.106-1.223-.534-1.864-.98-2.375a3.907 3.907 0 0 0-.997-.802C9.885 1.196 9.117 1 8.28 1c-.838 0-1.602.196-2.28.583-.375.211-.713.483-.999.804-.446.51-.874 1.153-.98 2.375-.03.347-.037.703-.032 1.036a1.665 1.665 0 0 0-.443-.059c-.56 0-1.024.304-1.21.793a1.273 1.273 0 0 0 .062 1.057c.123.233.32.442.6.638.075.053.191.128.338.224.08.051.195.126.308.201a.33.33 0 0 1 .1.1c.023.048.024.1-.012.198a3.062 3.062 0 0 1-.268.473c-.362.53-.88.98-1.543 1.34-.35.185-.715.31-.87.728-.115.316-.04.675.256.978.108.113.234.208.372.282.287.158.593.28.91.364a.602.602 0 0 1 .184.082c.107.094.092.236.235.443.072.108.163.2.27.274.3.208.638.22.996.235.323.012.69.026 1.108.164.173.057.353.168.562.297.501.309 1.187.73 2.335.73s1.839-.424 2.344-.733c.207-.127.386-.237.554-.293.419-.138.785-.152 1.108-.164.358-.014.696-.027.997-.234.125-.088.23-.202.306-.335.103-.175.1-.298.197-.383a.569.569 0 0 1 .173-.08c.321-.083.631-.207.922-.367.147-.079.28-.182.391-.306l.004-.004c.277-.296.346-.645.233-.953Zm-1.02.548c-.623.344-1.037.307-1.359.514-.273.176-.111.556-.31.693-.244.168-.965-.012-1.897.295-.769.255-1.259.985-2.641.985-1.382 0-1.861-.729-2.642-.986-.93-.308-1.653-.128-1.898-.296-.198-.137-.037-.516-.31-.692-.322-.208-.736-.17-1.358-.513-.396-.218-.171-.354-.039-.418 2.254-1.091 2.614-2.776 2.63-2.901.02-.152.04-.27-.126-.425-.16-.149-.875-.59-1.074-.73-.328-.228-.472-.457-.366-.738.075-.195.256-.268.447-.268.06 0 .12.007.179.02.36.078.71.258.911.307.025.006.05.01.075.01.108 0 .146-.054.138-.178-.023-.394-.079-1.161-.017-1.879.086-.987.404-1.476.782-1.91.181-.207 1.034-1.108 2.665-1.108s2.487.897 2.668 1.104c.379.433.697.922.781 1.91.063.717.009 1.485-.016 1.879-.009.13.03.178.138.178.025 0 .05-.004.074-.01.203-.05.553-.23.913-.308a.829.829 0 0 1 .178-.02c.192 0 .373.075.447.268.106.281-.037.51-.366.74-.198.138-.913.58-1.074.729-.167.154-.145.273-.126.424.017.127.376 1.812 2.63 2.902.134.066.358.202-.038.422Z"/>
</svg>
