<svg xmlns="http://www.w3.org/2000/svg" xlink="http://www.w3.org/1999/xlink" width="44" height="44" viewBox="0 0 44 44"><path d="M41.814,15.201 C43.396,16.783 43.396,19.347 41.814,20.928 L23.928,38.814 C22.346,40.396 19.783,40.396 18.201,38.814 L8.186,28.799 C6.604,27.217 6.604,24.653 8.186,23.072 L26.072,5.186 C27.654,3.604 30.217,3.604 31.799,5.186 L41.814,15.201 Z M39,19 C39.553,19 40,18.553 40,18 C40,17.447 39.553,17 39,17 L30,17 L30,8 C30,7.447 29.553,7 29,7 C28.447,7 28,7.447 28,8 L28,25 L11,25 C10.447,25 10,25.447 10,26 C10,26.553 10.447,27 11,27 L20,27 L20,36 C20,36.553 20.447,37 21,37 C21.553,37 22,36.553 22,36 L22,27 L30,27 L30,19 L39,19 Z M11,38 C11.5,38 12,38.5 12,39 C12,39.5 11.6,40 11,40 L3,40 C2.4,40 2,39.5 2,39 C2,38.5 2.4,38 3,38 L11,38 Z M14,13 L2,13 C1.4,13 1,12.5 1,12 C1,11.5 1.4,11 2,11 L14,11 C14.6,11 15,11.5 15,12 C15,12.5 14.6,13 14,13 Z M8,8 C7.4,8 7,7.5 7,7 C7,6.5 7.4,6 8,6 L18,6 C18.6,6 19,6.5 19,7 C19,7.5 18.6,8 18,8 L8,8 Z M5,16 L10,16 C10.6,16 11,16.5 11,17 C11,17.5 10.6,18 10,18 L5,18 C4.4,18 4,17.5 4,17 C4,16.5 4.4,16 5,16 Z"/></svg>
