<svg xmlns="http://www.w3.org/2000/svg" xlink="http://www.w3.org/1999/xlink" width="22" height="22" viewBox="0 0 22 22"><path d="M21.258,7.771 C22.248,8.762 22.248,10.367 21.258,11.357 L13.357,19.257 C12.367,20.248 10.762,20.248 9.771,19.257 L4.742,14.229 C3.752,13.238 3.752,11.633 4.742,10.643 L12.643,2.743 C13.633,1.752 15.238,1.752 16.229,2.743 L21.258,7.771 Z M19.5,10.25 C19.914,10.25 20.25,9.914 20.25,9.5 C20.25,9.086 19.914,8.75 19.5,8.75 L15.25,8.75 L15.25,4.5 C15.25,4.086 14.914,3.75 14.5,3.75 C14.086,3.75 13.75,4.086 13.75,4.5 L13.75,11.75 L6.5,11.75 C6.086,11.75 5.75,12.086 5.75,12.5 C5.75,12.914 6.086,13.25 6.5,13.25 L10.75,13.25 L10.75,17.5 C10.75,17.914 11.086,18.25 11.5,18.25 C11.914,18.25 12.25,17.914 12.25,17.5 L12.25,13.25 L15.25,13.25 L15.25,10.25 L19.5,10.25 Z M4.5,3 C4.224,3 4,2.776 4,2.5 C4,2.224 4.224,2 4.5,2 L9.5,2 C9.776,2 10,2.224 10,2.5 C10,2.776 9.776,3 9.5,3 L4.5,3 Z M7,5.5 C7,5.776 6.776,6 6.5,6 L0.5,6 C0.224,6 0,5.776 0,5.5 C0,5.224 0.224,5 0.5,5 L6.5,5 C6.776,5 7,5.224 7,5.5 Z M2.5,8 L4.5,8 C4.776,8 5,8.224 5,8.5 C5,8.776 4.776,9 4.5,9 L2.5,9 C2.224,9 2,8.776 2,8.5 C2,8.224 2.224,8 2.5,8 Z M5.5,18 C5.776,18 6,18.224 6,18.5 C6,18.776 5.776,19 5.5,19 L1.5,19 C1.224,19 1,18.776 1,18.5 C1,18.224 1.224,18 1.5,18 L5.5,18 Z"/></svg>
