<svg xmlns="http://www.w3.org/2000/svg" xlink="http://www.w3.org/1999/xlink" width="16" height="16" viewBox="0 0 16 16"><path d="M15.533,6.352 C16.155,6.973 16.155,7.981 15.533,8.603 L9.604,14.533 C8.98,15.155 7.973,15.155 7.352,14.533 L3.467,10.648 C2.845,10.026 2.845,9.019 3.467,8.396 L9.396,2.466 C10.02,1.845 11.027,1.845 11.648,2.466 L15.533,6.352 Z M14.5,8 C14.776,8 15,7.776 15,7.5 C15,7.224 14.776,7 14.5,7 L11,7 L11,3.5 C11,3.224 10.776,3 10.5,3 C10.224,3 10,3.224 10,3.5 L10,9 L4.5,9 C4.224,9 4,9.224 4,9.5 C4,9.776 4.224,10 4.5,10 L8,10 L8,13.5 C8,13.776 8.224,14 8.5,14 C8.776,14 9,13.776 9,13.5 L9,10 L11,10 L11,8 L14.5,8 Z M3.5,13 C3.776,13 4,13.224 4,13.5 C4,13.776 3.776,14 3.5,14 L1.5,14 C1.224,14 1,13.776 1,13.5 C1,13.224 1.224,13 1.5,13 L3.5,13 Z M0.5,5 C0.224,5 0,4.776 0,4.5 C0,4.224 0.224,4 0.5,4 L4.5,4 C4.776,4 5,4.224 5,4.5 C5,4.776 4.776,5 4.5,5 L0.5,5 Z M3.5,2 C3.224,2 3,1.776 3,1.5 C3,1.224 3.224,1 3.5,1 L6.5,1 C6.776,1 7,1.224 7,1.5 C7,1.776 6.776,2 6.5,2 L3.5,2 Z M2,7.5 C2,7.776 1.776,8 1.5,8 L0.5,8 C0.224,8 0,7.776 0,7.5 C0,7.224 0.224,7 0.5,7 L1.5,7 C1.776,7 2,7.224 2,7.5 Z"/></svg>
