<svg xmlns="http://www.w3.org/2000/svg" xlink="http://www.w3.org/1999/xlink" width="12" height="12" viewBox="0 0 12 12"><path d="M11.619,4.38988 C12.127,4.89588 12.127,5.71888 11.619,6.22688 L7.227,10.61888 C6.719,11.12688 5.896,11.12688 5.389,10.61888 L2.381,7.60988 C1.873,7.10388 1.873,6.28088 2.381,5.77288 L6.773,1.38088 C7.281,0.87288 8.104,0.87288 8.61,1.38088 L11.619,4.38988 Z M10.5,5.99988 C10.776,5.99988 11,5.77588 11,5.49988 C11,5.22388 10.776,4.99988 10.5,4.99988 L8,4.99988 L8,2.49988 C8,2.22388 7.776,1.99988 7.5,1.99988 C7.224,1.99988 7,2.22388 7,2.49988 L7,5.99988 L3.5,5.99988 C3.224,5.99988 3,6.22388 3,6.49988 C3,6.77588 3.224,6.99988 3.5,6.99988 L6,6.99988 L6,9.49988 C6,9.77588 6.224,9.99988 6.5,9.99988 C6.776,9.99988 7,9.77588 7,9.49988 L7,6.99988 L8,6.99988 L8,5.99988 L10.5,5.99988 Z M0,9.82988 L0,9.16988 L2,9.16988 L2,9.82988 L0,9.82988 Z M0,4.82988 L0,4.16988 L2,4.16988 L2,4.82988 L0,4.82988 Z M0,1.82988 L0,1.16988 L4,1.16988 L4,1.82988 L0,1.82988 Z"/></svg>
