<svg width="16" height="16" viewBox="0 0 16 16" xmlns="http://www.w3.org/2000/svg"><path fill-rule="evenodd" clip-rule="evenodd" d="M7.999 1c-1.662 0-3.27.607-4.536 1.712A7.225 7.225 0 0 0 1.09 7.029a7.331 7.331 0 0 0 .921 4.865 7.035 7.035 0 0 0 3.776 3.094c.35.065.478-.156.478-.347 0-.17-.006-.621-.01-1.22-1.947.434-2.357-.962-2.357-.962a1.897 1.897 0 0 0-.778-1.05c-.635-.445.049-.437.049-.437.222.032.434.114.62.243.186.128.342.298.454.497.094.177.223.333.377.46a1.48 1.48 0 0 0 1.103.322c.196-.023.385-.086.557-.185a1.55 1.55 0 0 1 .444-.96c-1.556-.18-3.189-.797-3.189-3.547a2.816 2.816 0 0 1 .721-1.926 2.644 2.644 0 0 1 .069-1.9s.587-.192 1.924.736a6.468 6.468 0 0 1 3.505 0c1.335-.928 1.922-.735 1.922-.735.258.6.283 1.28.07 1.9a2.81 2.81 0 0 1 .719 1.925c0 2.757-1.636 3.364-3.195 3.542a1.745 1.745 0 0 1 .475 1.329c0 .959-.009 1.733-.009 1.968 0 .193.126.416.482.346a7.034 7.034 0 0 0 3.773-3.096 7.33 7.33 0 0 0 .918-4.866 7.224 7.224 0 0 0-2.375-4.316A6.897 6.897 0 0 0 8 1Z"/></svg>