<svg width="24" height="24" viewBox="0 0 24 24" xmlns="http://www.w3.org/2000/svg"><path d="M6.78 24a.992.992 0 0 1-.439-.11.998.998 0 0 1-.528-1.15L8.353 13H4.996a.993.993 0 0 1-.757-.36 1.001 1.001 0 0 1-.229-.8l1.753-11A1.001 1.001 0 0 1 6.759 0h8.663a.993.993 0 0 1 .846.46 1.003 1.003 0 0 1 0 1l-2.24 4.82h4.979a.992.992 0 0 1 .891.56 1.003 1.003 0 0 1-.105 1.05L7.566 23.61a.997.997 0 0 1-.787.39Zm-.618-13h3.485a.991.991 0 0 1 .81.375 1.001 1.001 0 0 1 .186.875l-1.673 6.3L16.936 8.3h-4.531a.992.992 0 0 1-.836-.47 1.003 1.003 0 0 1-.06-1l2.32-4.85H7.596L6.162 11Z"/></svg>