<svg width="24" height="24" viewBox="0 0 24 24" fill="none" xmlns="http://www.w3.org/2000/svg"><path d="M12.6 1.04a1.926 1.926 0 0 0-1.597 3l.823-.821a.812.812 0 1 1 .519.517l-.822.822A1.925 1.925 0 1 0 12.6 1.04Z" fill="#34A853"/><path d="M11.259 6.972a2.992 2.992 0 0 0-.6-1.803L9.59 6.236A1.53 1.53 0 0 1 9.3 8.083L9.88 9.5a3.008 3.008 0 0 0 1.38-2.528Z" fill="#FBBC04"/><path d="M8.204 8.333h-.028a1.531 1.531 0 1 1 .841-2.81l1.057-1.058a3.01 3.01 0 1 0-1.29 5.287l-.58-1.419Z" fill="#EA4335"/><path d="M11.994 9.3a6.83 6.83 0 0 0-1.972.29l.846 2.066a4.607 4.607 0 1 1-1.035.4l-.837-2.06A6.83 6.83 0 1 0 12 9.298l-.006.001Z" fill="#4285F4"/></svg>