<svg xmlns="http://www.w3.org/2000/svg" xlink="http://www.w3.org/1999/xlink" width="22" height="22" viewBox="0 0 22 22"><path d="M21.957,18.906 C22.136,19.444 21.736,20 21.169,20 L0.831,20 C0.264,20 -0.136,19.443 0.043,18.905 L2.004,13 L2.004,3.655 C2.004,2.741 2.746,2 3.66,2 L18.348,2 C19.263,2 20.004,2.741 20.004,3.655 L20.004,13 L21.957,18.906 Z M9.004,18 L13.004,18 L13.004,17 L9.004,17 L9.004,18 Z M4.004,12 L18.004,12 L18.004,4 L4.004,4 L4.004,12 Z M9.0044,10.5 L9.0044,5.5 L14.0044,8 L9.0044,10.5 Z"/></svg>
