<svg xmlns="http://www.w3.org/2000/svg" xlink="http://www.w3.org/1999/xlink" width="12" height="12" viewBox="0 0 12 12"><path d="M11.967,11.125 C12.098,11.49 11.828,11.875 11.44,11.875 L0.56,11.875 C0.172,11.875 -0.098,11.49 0.033,11.125 L1.125,7.391 L1.125,1.652 C1.125,1.292 1.417,1 1.777,1 L10.223,1 C10.583,1 10.875,1.292 10.875,1.652 L10.875,7.391 L11.967,11.125 Z M1.875,7 L10.125,7 L10.125,1.75 L1.875,1.75 L1.875,7 Z M4.5,10.875 L7.5,10.875 L7.5,9.875 L4.5,9.875 L4.5,10.875 Z M4.5,2.625 L8.594,4.375 L4.5,6.125 L4.5,2.625 Z"/></svg>
