<svg xmlns="http://www.w3.org/2000/svg" xlink="http://www.w3.org/1999/xlink" width="22" height="22" viewBox="0 0 22 22"><path d="M19.5,5 C20.879,5 22,6.121 22,7.5 L22,19.5 C22,20.879 20.879,22 19.5,22 L6.5,22 C5.121,22 4,20.879 4,19.5 L4,18 L2.5,18 C1.121,18 0,16.879 0,15.5 L0,3.5 C0,2.121 1.121,1 2.5,1 L15.5,1 C16.879,1 18,2.121 18,3.5 L18,5 L19.5,5 Z M20,19.5 L20,7.5 C20,7.225 19.775,7 19.5,7 L18,7 L18,15.5 C18,16.879 16.879,18 15.5,18 L6,18 L6,19.5 C6,19.775 6.225,20 6.5,20 L19.5,20 C19.775,20 20,19.775 20,19.5 Z M2.5,16 L15.5,16 C15.775,16 16,15.775 16,15.5 L16,7 L2,7 L2,15.5 C2,15.775 2.225,16 2.5,16 Z M2,5 L10,5 L10,3 L2,3 L2,5 Z M12,2.875 C11.379,2.875 10.875,3.379 10.875,4 C10.875,4.621 11.379,5.125 12,5.125 C12.621,5.125 13.125,4.621 13.125,4 C13.125,3.379 12.621,2.875 12,2.875 Z M15,2.875 C14.379,2.875 13.875,3.379 13.875,4 C13.875,4.621 14.379,5.125 15,5.125 C15.621,5.125 16.125,4.621 16.125,4 C16.125,3.379 15.621,2.875 15,2.875 Z M4,12 L4,9 L7,9 L7,12 L4,12 Z M8,10 L8,9 L14,9 L14,10 L8,10 Z M8,12 L8,11 L14,11 L14,12 L8,12 Z M4,14 L4,13 L14.001,13 L14.001,14 L4,14 Z"/></svg>
