<svg width="16" height="16" viewBox="0 0 16 16" xmlns="http://www.w3.org/2000/svg"><path d="M8 3a1 1 0 1 1 2 0 1 1 0 0 1-2 0Zm-.5 3a.5.5 0 0 0 0 1h2a.5.5 0 0 0 0-1h-2Zm0 2a.5.5 0 0 0 0 1h2a.5.5 0 0 0 0-1h-2ZM4 6a1 1 0 0 0-1 1v1a1 1 0 0 0 1 1h1a1 1 0 0 0 1-1V7a1 1 0 0 0-1-1H4Z"/><path fill-rule="evenodd" clip-rule="evenodd" d="M12 0a1 1 0 0 1 1 1v10a1 1 0 0 1-1 1H1a1 1 0 0 1-1-1V1a1 1 0 0 1 1-1h11ZM9 4h2V2H2v2h7ZM2 5v5h9V5H2Z"/><path d="M3 13a1 1 0 1 0 0 2h12a1 1 0 0 0 1-1V4a1 1 0 1 0-2 0v9H3Z"/></svg>