<svg xmlns="http://www.w3.org/2000/svg" xlink="http://www.w3.org/1999/xlink" width="16" height="16" viewBox="0 0 16 16"><path d="M15,3 C15.6,3 16,3.4 16,4 L16,15 C16,15.6 15.6,16 15,16 L3,16 C2.4,16 2,15.6 2,15 L2,14 L1,14 C0.4,14 0,13.6 0,13 L0,2 C0,1.4 0.4,1 1,1 L13,1 C13.6,1 14,1.4 14,2 L14,3 L15,3 Z M1,13 L13,13 L13,4 L1,4 L1,13 Z M15,15 L15,4 L14,4 L14,13 C14,13.6 13.6,14 13,14 L3,14 L3,15 L15,15 Z M1,3 L9,3 L9,2 L1,2 L1,3 Z M10.5,2 C10.2,2 10,2.2 10,2.5 C10,2.8 10.2,3 10.5,3 C10.8,3 11,2.8 11,2.5 C11,2.2 10.8,2 10.5,2 Z M12.5,2 C12.2,2 12,2.2 12,2.5 C12,2.8 12.2,3 12.5,3 C12.8,3 13,2.8 13,2.5 C13,2.2 12.8,2 12.5,2 Z M3,11 L3,10 L11,10 L11,11 L3,11 Z M7,9 L7,8 L11,8 L11,9 L7,9 Z M7,7 L7,6 L11,6 L11,7 L7,7 Z M3,9 L3,6 L6,6 L6,9 L3,9 Z"/></svg>
