<svg width="87" height="29" viewBox="0 0 87 29" fill="none" xmlns="http://www.w3.org/2000/svg">
<path fill-rule="evenodd" clip-rule="evenodd" d="M4 29C1.79086 29 0 27.2091 0 25V4C0 1.79086 1.79086 0 4 0H83C85.2091 0 87 1.79086 87 4V25C87 27.2091 85.2091 29 83 29H4ZM4 2H58V27H4C2.89543 27 2 26.1046 2 25V4C2 2.89543 2.89543 2 4 2ZM60 27H83C84.1046 27 85 26.1046 85 25V4C85 2.89543 84.1046 2 83 2H60V27Z" fill="#D1D4DB"/>
<path d="M10.0043 19H11.8487V14.6747H16.0795V13.1285H11.8487V10.3643H16.527V8.81818H10.0043V19Z" fill="#898D9A"/>
<path d="M18.1278 19H19.9276V11.3636H18.1278V19ZM19.0327 10.2798C19.6044 10.2798 20.0717 9.84232 20.0717 9.30539C20.0717 8.76349 19.6044 8.32599 19.0327 8.32599C18.456 8.32599 17.9886 8.76349 17.9886 9.30539C17.9886 9.84232 18.456 10.2798 19.0327 10.2798Z" fill="#898D9A"/>
<path d="M23.5779 8.81818H21.7782V19H23.5779V8.81818Z" fill="#898D9A"/>
<path d="M29.2418 11.3636H27.7354V9.53409H25.9357V11.3636H24.8519V12.7557H25.9357V17.0014C25.9258 18.4382 26.9698 19.1442 28.3221 19.1044C28.8342 19.0895 29.1871 18.9901 29.381 18.9254L29.0778 17.5185C28.9783 17.5433 28.7745 17.5881 28.5508 17.5881C28.0984 17.5881 27.7354 17.429 27.7354 16.7031V12.7557H29.2418V11.3636Z" fill="#898D9A"/>
<path d="M34.0456 19.1491C35.8255 19.1491 37.0485 18.2791 37.3667 16.9517L35.6863 16.7628C35.4426 17.4091 34.8461 17.7472 34.0705 17.7472C32.9071 17.7472 32.1365 16.9815 32.1216 15.674H37.4412V15.1222C37.4412 12.4425 35.8304 11.2642 33.9512 11.2642C31.7637 11.2642 30.3368 12.87 30.3368 15.2266C30.3368 17.6229 31.7438 19.1491 34.0456 19.1491ZM32.1266 14.4609C32.1813 13.4865 32.9022 12.6662 33.976 12.6662C35.0101 12.6662 35.7061 13.4219 35.7161 14.4609H32.1266Z" fill="#898D9A"/>
<path d="M38.9638 19H40.7635V14.5106C40.7635 13.5412 41.4943 12.8551 42.4837 12.8551C42.7869 12.8551 43.1648 12.9098 43.3189 12.9595V11.304C43.1548 11.2741 42.8714 11.2543 42.6726 11.2543C41.7976 11.2543 41.0668 11.7514 40.7884 12.6364H40.7088V11.3636H38.9638V19Z" fill="#898D9A"/>
<path d="M68.3229 10.3229C67.8924 10.7534 67.8924 11.4514 68.3229 11.8819L71.441 15L68.3229 18.1181C67.8924 18.5486 67.8924 19.2466 68.3229 19.6771C68.7534 20.1076 69.4514 20.1076 69.8819 19.6771L73 16.559L76.1181 19.6771C76.5486 20.1076 77.2466 20.1076 77.6771 19.6771C78.1076 19.2466 78.1076 18.5486 77.6771 18.1181L74.559 15L77.6771 11.8819C78.1076 11.4514 78.1076 10.7534 77.6771 10.3229C77.2466 9.89237 76.5486 9.89237 76.1181 10.3229L73 13.441L69.8819 10.3229C69.4514 9.89237 68.7534 9.89237 68.3229 10.3229Z" fill="#898D9A"/>
</svg>
