<svg width="98" height="22" viewBox="0 0 98 22" fill="none" xmlns="http://www.w3.org/2000/svg">
<rect width="22" height="22" rx="2" fill="#D1D4DB"/>
<path fill-rule="evenodd" clip-rule="evenodd" d="M13.7071 6.29289C14.0976 6.68342 14.0976 7.31658 13.7071 7.70711L10.4142 11L13.7071 14.2929C14.0976 14.6834 14.0976 15.3166 13.7071 15.7071C13.3166 16.0976 12.6834 16.0976 12.2929 15.7071L8.29289 11.7071C7.90237 11.3166 7.90237 10.6834 8.29289 10.2929L12.2929 6.29289C12.6834 5.90237 13.3166 5.90237 13.7071 6.29289Z" fill="#898D9A"/>
<rect x="26" width="22" height="22" rx="2" fill="#D1D4DB"/>
<path fill-rule="evenodd" clip-rule="evenodd" d="M35.2929 15.7071C34.9024 15.3166 34.9024 14.6834 35.2929 14.2929L38.5858 11L35.2929 7.70711C34.9024 7.31658 34.9024 6.68342 35.2929 6.29289C35.6834 5.90237 36.3166 5.90237 36.7071 6.29289L40.7071 10.2929C41.0976 10.6834 41.0976 11.3166 40.7071 11.7071L36.7071 15.7071C36.3166 16.0976 35.6834 16.0976 35.2929 15.7071Z" fill="#898D9A"/>
<path d="M57.0043 16H58.8487V12.5597H60.7976C63.1491 12.5597 64.4119 11.1477 64.4119 9.18892C64.4119 7.24502 63.1641 5.81818 60.8224 5.81818H57.0043V16ZM58.8487 11.0433V7.35937H60.5391C61.9212 7.35937 62.5327 8.10511 62.5327 9.18892C62.5327 10.2727 61.9212 11.0433 60.549 11.0433H58.8487Z" fill="#898D9A"/>
<path d="M67.9952 16.1541C69.1934 16.1541 69.9093 15.5923 70.2374 14.951H70.297V16H72.0272V10.8892C72.0272 8.87073 70.3816 8.2642 68.9249 8.2642C67.3191 8.2642 66.0861 8.98011 65.6884 10.3722L67.3688 10.6108C67.5478 10.0888 68.0549 9.64133 68.9348 9.64133C69.7701 9.64133 70.2274 10.0689 70.2274 10.8196V10.8494C70.2274 11.3665 69.6855 11.3913 68.3382 11.5355C66.8567 11.6946 65.4398 12.1371 65.4398 13.8572C65.4398 15.3587 66.5385 16.1541 67.9952 16.1541ZM68.4625 14.8317C67.7118 14.8317 67.1749 14.4886 67.1749 13.8274C67.1749 13.1364 67.7765 12.848 68.5819 12.7337C69.0542 12.669 69.9988 12.5497 70.2324 12.3608V13.2606C70.2324 14.1108 69.5463 14.8317 68.4625 14.8317Z" fill="#898D9A"/>
<path d="M77.1578 19.0227C79.2211 19.0227 80.7424 18.0781 80.7424 16.1243V8.36363H78.9675V9.62642H78.8681C78.5946 9.07457 78.0229 8.2642 76.6756 8.2642C74.9107 8.2642 73.5236 9.6463 73.5236 12.157C73.5236 14.6477 74.9107 15.8906 76.6706 15.8906C77.9782 15.8906 78.5897 15.1896 78.8681 14.6278H78.9576V16.0746C78.9576 17.1981 78.2118 17.6605 77.1877 17.6605C76.1039 17.6605 75.6266 17.1484 75.4078 16.701L73.7871 17.0937C74.1152 18.1626 75.214 19.0227 77.1578 19.0227ZM77.1728 14.4787C75.9846 14.4787 75.3581 13.554 75.3581 12.147C75.3581 10.7599 75.9746 9.74076 77.1728 9.74076C78.3311 9.74076 78.9675 10.7003 78.9675 12.147C78.9675 13.6037 78.3212 14.4787 77.1728 14.4787Z" fill="#898D9A"/>
<path d="M85.9675 16.1491C87.7473 16.1491 88.9703 15.2791 89.2885 13.9517L87.6081 13.7628C87.3645 14.4091 86.7679 14.7472 85.9924 14.7472C84.829 14.7472 84.0584 13.9815 84.0435 12.674H89.3631V12.1222C89.3631 9.44247 87.7523 8.2642 85.873 8.2642C83.6855 8.2642 82.2587 9.87002 82.2587 12.2266C82.2587 14.6229 83.6657 16.1491 85.9675 16.1491ZM84.0485 11.4609C84.1032 10.4865 84.824 9.66619 85.8979 9.66619C86.932 9.66619 87.628 10.4219 87.638 11.4609H84.0485Z" fill="#898D9A"/>
<path d="M96.9212 10.3821C96.6726 9.08948 95.6385 8.2642 93.8487 8.2642C92.0092 8.2642 90.7564 9.16903 90.7614 10.581C90.7564 11.6946 91.4425 12.4304 92.9091 12.7337L94.2116 13.0071C94.9126 13.1612 95.2408 13.4446 95.2408 13.8771C95.2408 14.3991 94.674 14.7919 93.8189 14.7919C92.9936 14.7919 92.4567 14.4339 92.3026 13.7479L90.5476 13.9169C90.7713 15.3189 91.9496 16.1491 93.8239 16.1491C95.733 16.1491 97.0803 15.1598 97.0852 13.7131C97.0803 12.6243 96.3793 11.9581 94.9375 11.6449L93.6349 11.3665C92.8594 11.1925 92.5511 10.924 92.5561 10.4815C92.5511 9.96448 93.1229 9.60653 93.8736 9.60653C94.7038 9.60653 95.1413 10.0589 95.2805 10.5611L96.9212 10.3821Z" fill="#898D9A"/>
</svg>
