<svg xmlns="http://www.w3.org/2000/svg" xlink="http://www.w3.org/1999/xlink" width="22" height="22" viewBox="0 0 22 22"><path d="M16.5352,10 L20.4192,10 C19.0602,13.496 15.5902,17.035 13.2592,19.131 C11.9712,20.29 10.0292,20.29 8.7412,19.131 C6.8562,17.437 4.2242,14.797 2.5662,12 L6.0002,12 C6.3452,12 6.6652,11.822 6.8472,11.53 L8.5432,8.818 L12.1782,14.069 C12.3642,14.339 12.6722,14.5 13.0002,14.5 L13.0092,14.5 C13.3402,14.497 13.6482,14.33 13.8322,14.055 L16.5352,10 Z M5.4453,10 L1.5813,10 C1.2203,9.071 1.0003,8.145 1.0003,7.25 C1.0003,4.351 3.3503,2 6.2503,2 C8.3593,2 10.1653,3.706 11.0003,5.5 C11.8353,3.706 13.6403,2 15.7503,2 C18.6493,2 21.0003,4.351 21.0003,7.25 C21.0003,7.498 20.9803,7.748 20.9493,8 L16.0003,8 C15.6663,8 15.3533,8.167 15.1683,8.445 L12.9843,11.721 L9.3223,6.431 C9.1313,6.154 8.7993,6.004 8.4763,6 C8.1403,6.008 7.8303,6.185 7.6523,6.47 L5.4453,10 Z"/></svg>
