<svg xmlns="http://www.w3.org/2000/svg" xlink="http://www.w3.org/1999/xlink" width="16" height="16" viewBox="0 0 16 16"><path d="M2.5,7 L0.389,7 C0.146,6.315 0,5.642 0,5 C0,2.791 1.791,1 4,1 C5.518,1 6.822,2.004 7.5,3.25 C8.178,2.004 9.482,1 11,1 C13.209,1 15,2.791 15,5 C15,5.325 14.957,5.661 14.89,6 L11.5,6 C11.203,6 10.922,6.132 10.731,6.359 L9.041,8.389 L6.05,4.4 C5.673,3.896 4.827,3.896 4.45,4.4 L2.5,7 Z M11.9687,8 L14.1977,8 C13.0997,10.281 11.0937,12.574 9.5617,14.132 C8.4227,15.289 6.5767,15.289 5.4387,14.132 C4.1307,12.803 2.4807,10.937 1.3417,9 L2.9997,9 C3.3147,9 3.6117,8.852 3.7997,8.6 L5.2497,6.667 L8.1997,10.6 C8.3837,10.845 8.6687,10.992 8.9747,11 L8.9997,11 C9.2957,11 9.5777,10.868 9.7687,10.641 L11.9687,8 Z"/></svg>
