<svg xmlns="http://www.w3.org/2000/svg" xlink="http://www.w3.org/1999/xlink" width="12" height="12" viewBox="0 0 12 12"><path d="M2.7168,6 L0.3768,6 C0.1428,5.408 -0.0002,4.817 -0.0002,4.25 C-0.0002,2.455 1.4548,1 3.2498,1 C4.4128,1 5.4258,1.79 5.9998,2.708 C6.5738,1.79 7.5868,1 8.7498,1 C10.5448,1 11.9998,2.455 11.9998,4.25 C11.9998,4.496 11.9668,4.747 11.9188,5 L8.9998,5 C8.8238,5 8.6608,5.092 8.5708,5.243 L7.4538,7.105 L4.9008,3.7 C4.8008,3.567 4.6298,3.494 4.4748,3.5 C4.3078,3.509 4.1568,3.6 4.0708,3.743 L2.7168,6 Z M9.2832,6 L11.6232,6 C10.8172,8.043 8.8752,10.115 7.4982,11.406 C6.6522,12.198 5.3472,12.198 4.5022,11.406 C3.3492,10.326 1.8032,8.699 0.8552,7 L3.0002,7 C3.1762,7 3.3392,6.908 3.4292,6.757 L4.5462,4.895 L7.0992,8.3 C7.1942,8.426 7.3432,8.5 7.5002,8.5 C7.5092,8.5 7.5172,8.5 7.5252,8.5 C7.6922,8.491 7.8432,8.4 7.9292,8.257 L9.2832,6 Z"/></svg>
