<svg xmlns="http://www.w3.org/2000/svg" xlink="http://www.w3.org/1999/xlink" width="22" height="22" viewBox="0 0 22 22"><path d="M16.5,12 C18.985,12 21,14.015 21,16.5 C21,18.985 18.985,21 16.5,21 C14.015,21 12,18.985 12,16.5 L12,15 L9,15 L9,16.5 C9,18.985 6.985,21 4.5,21 C2.015,21 0,18.985 0,16.5 C0,14.015 2.015,12 4.5,12 L6,12 L6,9 L4.5,9 C2.015,9 0,6.985 0,4.5 C0,4.414 0.021,4.334 0.025,4.25 C0.02,4.166 0,4.085 0,4 C0,1.794 1.794,0 4,0 C4.086,0 4.166,0.02 4.25,0.025 C4.334,0.021 4.414,0 4.5,0 C6.985,0 9,2.015 9,4.5 L9,6 L12,6 L12,4.5 C12,2.015 14.015,0 16.5,0 C18.985,0 21,2.015 21,4.5 C21,6.985 18.985,9 16.5,9 L15,9 L15,12 L16.5,12 Z M16.5,18 C17.327,18 18,17.327 18,16.5 C18,15.673 17.327,15 16.5,15 L15,15 L15,16.5 C15,17.327 15.673,18 16.5,18 Z M9,12 L12,12 L12,9 L9,9 L9,12 Z M6,16.5 L6,15 L4.5,15 C3.673,15 3,15.673 3,16.5 C3,17.327 3.673,18 4.5,18 C5.327,18 6,17.327 6,16.5 Z M4.5,6 L6,6 L6,4.5 C6,3.673 5.327,3 4.5,3 C3.673,3 3,3.673 3,4.5 C3,5.327 3.673,6 4.5,6 Z M15,4.5 L15,6 L16.5,6 C17.327,6 18,5.327 18,4.5 C18,3.673 17.327,3 16.5,3 C15.673,3 15,3.673 15,4.5 Z"/></svg>
