<svg xmlns="http://www.w3.org/2000/svg" xlink="http://www.w3.org/1999/xlink" width="16" height="16" viewBox="0 0 16 16"><path d="M12,9 C13.654,9 15,10.346 15,12 C15,13.654 13.654,15 12,15 C10.346,15 9,13.654 9,12 L9,11 L6,11 L6,12 C6,13.654 4.654,15 3,15 C1.346,15 0,13.654 0,12 C0,10.346 1.346,9 3,9 L4,9 L4,6 L3,6 C1.346,6 0,4.654 0,3 C0,1.346 1.346,0 3,0 C4.654,0 6,1.346 6,3 L6,4 L9,4 L9,3 C9,1.346 10.346,0 12,0 C13.654,0 15,1.346 15,3 C15,4.654 13.654,6 12,6 L11,6 L11,9 L12,9 Z M12,13 C12.552,13 13,12.551 13,12 C13,11.449 12.552,11 12,11 L11,11 L11,12 C11,12.551 11.448,13 12,13 Z M6,9 L9,9 L9,6 L6,6 L6,9 Z M4,12 L4,11 L3,11 C2.448,11 2,11.449 2,12 C2,12.551 2.448,13 3,13 C3.552,13 4,12.551 4,12 Z M3,4 L4,4 L4,3 C4,2.449 3.552,2 3,2 C2.448,2 2,2.449 2,3 C2,3.551 2.448,4 3,4 Z M11,3 L11,4 L12,4 C12.552,4 13,3.551 13,3 C13,2.449 12.552,2 12,2 C11.448,2 11,2.449 11,3 Z"/></svg>
