<svg xmlns="http://www.w3.org/2000/svg" xlink="http://www.w3.org/1999/xlink" width="12" height="12" viewBox="0 0 12 12"><path d="M9,7 C10.104,7 11,7.896 11,9 C11,10.104 10.104,11 9,11 C7.896,11 7,10.104 7,9 L7,8 L5,8 L5,9 C5,10.104 4.104,11 3,11 C1.896,11 1,10.104 1,9 C1,7.896 1.896,7 3,7 L4,7 L4,5 L3,5 C1.896,5 1,4.104 1,3 C1,1.896 1.896,1 3,1 C4.104,1 5,1.896 5,3 L5,4 L7,4 L7,3 C7,1.896 7.896,1 9,1 C10.104,1 11,1.896 11,3 C11,4.104 10.104,5 9,5 L8,5 L8,7 L9,7 Z M9,10 C9.553,10 10,9.552 10,9 C10,8.448 9.553,8 9,8 L8,8 L8,9 C8,9.552 8.447,10 9,10 Z M5,7 L7,7 L7,5 L5,5 L5,7 Z M4,9 L4,8 L3,8 C2.447,8 2,8.448 2,9 C2,9.552 2.447,10 3,10 C3.553,10 4,9.552 4,9 Z M3,4 L4,4 L4,3 C4,2.448 3.553,2 3,2 C2.447,2 2,2.448 2,3 C2,3.552 2.447,4 3,4 Z M8,3 L8,4 L9,4 C9.553,4 10,3.552 10,3 C10,2.448 9.553,2 9,2 C8.447,2 8,2.448 8,3 Z"/></svg>
