<svg width="16" height="16" xmlns="http://www.w3.org/2000/svg">
  <path d="M14.98 1h-3.56a1.02 1.02 0 0 0-.72.3L9 3.1 2.3 9.7a1.02 1.02 0 0 0-.3.72v3.56A1.02 1.02 0 0 0 3.02 15h3.56a1.02 1.02 0 0 0 .72-.3l8.4-8.4c.2-.2.3-.45.3-.72V2.02A1.02 1.02 0 0 0 14.98 1Z" fill="#28A8EA"/>
  <path d="M3.02 1h3.56c.27 0 .53.1.72.3l1.67 1.8L9 6.18A1.82 1.82 0 0 1 7.18 8H4L2.3 6.3a1.02 1.02 0 0 1-.3-.72V2.02A1.02 1.02 0 0 1 3.02 1Z" fill="#50D9FF"/>
  <path d="M11.42 15h3.56A1.02 1.02 0 0 0 16 13.98v-3.56c0-.27-.1-.53-.3-.72L14 8h-3.18A1.82 1.82 0 0 0 9 9.82V13l1.7 1.7c.2.2.45.3.72.3Z" fill="#0078D4"/>
  <path opacity=".4" d="M2 3h6a2 2 0 0 1 2 2v6a2 2 0 0 1-2 2H2V3Z"/>
  <path d="M.82 3a.82.82 0 0 0-.82.82v7.36c0 .45.37.82.82.82h7.36a.82.82 0 0 0 .82-.82V3.82A.82.82 0 0 0 8.18 3H.82Z" fill="#0078D4"/>
  <path d="M3 5v5h3V9H4V8h2V7H4V6h2V5H3Z" fill="#fff"/>
</svg>
