<svg xmlns="http://www.w3.org/2000/svg" width="22" height="22" viewBox="0 0 22 22"><path fill="#046DB2" d="M2 3.142l11-2.142v19l-11-2.323v-14.535zm8 4.608v-1.75l-5 .5v8l5 .5v-1.75l-3-.25v-1.701h3v-1.599h-3v-1.7l3-.25zm9.504-2.75c.826 0 1.496.67 1.496 1.496v9.008c0 .826-.67 1.496-1.496 1.496h-5.504v-2.192l2.361-2.697-.267-.268-2.094 1.861v-3.631l3.457-3.073h1.543v1.543l-1.104 1.103.708.707 1.103-1.103c.188-.188.293-.443.293-.707v-1.945c0-.331-.268-.598-.599-.598h-2.358l-3.043 3.474v-4.474h5.504zm.496 10.401v-2.358l-3.889-3.405-.267.268 3.156 3.551v1.543h-1.543l-1.103-1.104-.708.707 1.104 1.104c.187.187.441.293.707.293h1.944c.331 0 .599-.269.599-.599z"/></svg>