<svg xmlns="http://www.w3.org/2000/svg" width="16" height="16" viewBox="0 0 16 16"><path fill="#046DB2" d="M1 3l8-2v14l-8-2v-10zm6 2.8v-1.6l-4 .55v6.5l4 .548v-1.596l-2.404-.202v-1.254h2.404v-1.496h-2.404v-1.25l2.404-.2zm8-1.8c.553 0 1 .448 1 1v7c0 .552-.447 1-1 1h-5v-1h.335c.078 0 .153-.031.208-.086l2.027-2.593-.214-.214-2.313 1.893h-.043v-1.962l.68.533.214-.214-.894-1.092v-2.265h.043l.353.354.708-.707-.647-.647h-.457v-1h5zm0 3.457v-1.959c0-.275-.223-.498-.498-.498h-1.837c-.078 0-.153.031-.208.086l-2.027 2.594.214.214 2.313-1.894h1.043v1.043l-.354.354.708.707.646-.647zm0 4.045v-1.837c0-.078-.031-.153-.086-.208l-2.594-2.027-.214.214 1.894 2.313v1.043h-1.043l-.353-.353-.708.707.647.646h1.959c.275 0 .498-.222.498-.498z"/></svg>