<svg xmlns="http://www.w3.org/2000/svg" width="12" height="12" viewBox="0 0 12 12"><path fill="#046DB2" d="M1 1.5l5-1.5v11l-5-1.5v-8zm3.752 2.189v-1.189l-2.752.5v5l2.752.5v-1.199l-1.752-.176v-1h1.752v-1.254h-1.752v-.999l1.752-.183zm5.59-1.689c.363 0 .658.295.658.659v5.683c0 .363-.295.658-.658.658h-3.342v-.869l1.687-1.968-.15-.149-1.537 1.271v-2.742l1.467-1.213h1.203v1.201l-.279.272.46.473.479-.466v-1.743c0-.219-.178-.397-.396-.397h-1.508c-.149 0-.291.06-.397.164l-1.029 1.203v-.62l.275-.268-.275-.283v-.866h3.342zm-.012 5.934v-1.508c0-.148-.059-.291-.164-.396l-2.004-1.716-.148.15 1.656 2.003v1.203h-1.2l-.273-.279-.472.461.465.478h1.744c.218 0 .396-.177.396-.396z"/></svg>