<svg xmlns="http://www.w3.org/2000/svg" xlink="http://www.w3.org/1999/xlink" width="22" height="22" viewBox="0 0 22 22"><path d="M20.6816,1.3184 C21.5316,2.1684 21.9996,3.2974 21.9996,4.5004 C21.9996,5.7024 21.5316,6.8324 20.6816,7.6814 L17.6816,10.6814 C16.8316,11.5314 15.7026,12.0004 14.4996,12.0004 C14.0066,12.0004 13.5326,11.9024 13.0776,11.7514 L14.8886,9.9414 C15.4006,9.8664 15.8906,9.6464 16.2676,9.2674 L19.2676,6.2674 C19.7406,5.7954 19.9996,5.1684 19.9996,4.5004 C19.9996,3.8324 19.7416,3.2044 19.2676,2.7324 C18.7946,2.2594 18.1676,2.0004 17.4996,2.0004 C16.8316,2.0004 16.2046,2.2594 15.7346,2.7324 L12.7346,5.7324 C12.3476,6.1174 12.1136,6.6074 12.0356,7.1354 L10.2496,8.9224 C10.0976,8.4674 9.9996,7.9934 9.9996,7.5004 C9.9996,6.2974 10.4676,5.1684 11.3186,4.3184 L14.3186,1.3184 C15.1676,0.4684 16.2976,0.0004 17.4996,0.0004 C18.7026,0.0004 19.8316,0.4684 20.6816,1.3184 Z M9.9648,14.8643 L11.7498,13.0783 C11.9018,13.5323 11.9998,14.0073 11.9998,14.5003 C11.9998,15.7023 11.5308,16.8323 10.6818,17.6813 L7.6818,20.6813 C6.8318,21.5313 5.7018,22.0003 4.4998,22.0003 C3.2978,22.0003 2.1668,21.5323 1.3188,20.6813 C0.4688,19.8323 -0.0002,18.7023 -0.0002,17.5003 C-0.0002,16.2983 0.4678,15.1683 1.3188,14.3183 L4.3188,11.3183 C5.1678,10.4683 6.2978,10.0003 7.4998,10.0003 C7.9928,10.0003 8.4678,10.0973 8.9218,10.2493 L7.1358,12.0353 C6.6078,12.1123 6.1168,12.3463 5.7328,12.7323 L2.7328,15.7323 C2.2598,16.2053 1.9998,16.8323 1.9998,17.5003 C1.9998,18.1683 2.2598,18.7953 2.7348,19.2673 C3.6778,20.2133 5.3228,20.2133 6.2678,19.2673 L9.2678,16.2673 C9.6528,15.8833 9.8888,15.3923 9.9648,14.8643 Z M5.793,16.207 C5.402,15.816 5.402,15.184 5.793,14.793 L10.293,10.293 L11.707,11.707 L7.207,16.207 C7.012,16.402 6.756,16.5 6.5,16.5 C6.244,16.5 5.988,16.402 5.793,16.207 Z M7,5 L7,0 L8,0 L8,5 L7,5 Z M-1.35525272e-19,8 L-1.35525272e-19,7 L5,7 L5,8 L-1.35525272e-19,8 Z M5.3535,4.6465 L4.6465,5.3535 L0.6465,1.3535 L1.3535,0.6465 L5.3535,4.6465 Z"/></svg>
