<svg xmlns="http://www.w3.org/2000/svg" xlink="http://www.w3.org/1999/xlink" width="16" height="16" viewBox="0 0 16 16"><path d="M1,15 C0.4,14.3 0,13.5 0,12.5 C0,11.5 0.3,10.7 1,10 L3,8 C3.7,7.4 4.6,7 5.5,7 C5.9,7 6.3,7.1 6.6,7.2 L5.8,8 L5.5,8 C4.9,8 4.2,8.3 3.7,8.7 L1.7,10.7 C1.3,11.2 1,11.8 1,12.5 C1,13.2 1.3,13.8 1.7,14.3 C2.2,14.7 2.8,15 3.5,15 C4.2,15 4.8,14.8 5.3,14.4 L7.3,12.4 C7.7,11.9 8,11.3 8,10.6 L8,10.2 L8.8,9.3 C8.9,9.7 9,10.1 9,10.5 C9,11.5 8.7,12.3 8,13 L6,15 C5.3,15.7 4.4,16 3.5,16 C2.6,16 1.7,15.7 1,15 Z M7.5,7.5 L8.6,8.6 L4.6,12.6 C4.3,12.9 3.8,12.9 3.5,12.6 C3.2,12.3 3.2,11.8 3.5,11.5 L7.5,7.5 Z M8,5.7998 L7.2,6.6998 C7.1,6.2998 7,5.8998 7,5.4998 C7,4.5998 7.4,3.6998 8,2.9998 L10,0.9998 C10.7,0.3998 11.5,-0.0002 12.5,-0.0002 C13.5,-0.0002 14.3,0.2998 15,0.9998 C15.6,1.6998 16,2.4998 16,3.4998 C16,4.4998 15.7,5.2998 15,5.9998 L13,7.9998 C12.3,8.6998 11.4,8.9998 10.5,8.9998 C10.1,8.9998 9.7,8.8998 9.3,8.7998 L10.1,7.9998 L10.5,7.9998 C11.2,7.9998 11.8,7.7998 12.3,7.2998 L14.3,5.2998 C14.7,4.7998 15,4.1998 15,3.4998 C15,2.7998 14.7,2.1998 14.3,1.6998 C13.8,1.1998 13.1,0.9998 12.5,0.9998 C11.9,0.9998 11.2,1.2998 10.7,1.6998 L8.7,3.6998 C8.3,4.1998 8,4.7998 8,5.4998 L8,5.7998 Z M0.874,1.1572 L1.228,0.8032 L4.198,3.7732 L3.844,4.1272 L0.874,1.1572 Z M5.2,4 L5.2,-8.13151629e-20 L5.7,-8.13151629e-20 L5.7,4 L5.2,4 Z M0,5.7 L0,5.2 L4,5.2 L4,5.7 L0,5.7 Z"/></svg>
