<svg xmlns="http://www.w3.org/2000/svg" xlink="http://www.w3.org/1999/xlink" width="22" height="22" viewBox="0 0 22 22"><path d="M11,1 C5.5,1 1,5.5 1,11 C1,15.1 3.5,18.6 7,20.2 C7,19.5 7,18.7 7.2,17.9 C7.4,17.1 8.5,12.5 8.5,12.5 C8.5,12.5 8.2,11.9 8.2,10.9 C8.2,9.4 9.1,8.3 10.1,8.3 C11,8.3 11.4,9 11.4,9.8 C11.4,10.7 10.8,12.1 10.5,13.3 C10.3,14.4 11,15.2 12.1,15.2 C14,15.2 15.3,12.8 15.3,9.9 C15.3,7.7 13.8,6.1 11.1,6.1 C8.1,6.1 6.2,8.4 6.2,10.9 C6.2,11.8 6.5,12.4 6.9,12.9 C7,13 7.1,13.1 7,13.4 L6.8,14.2 C6.7,14.5 6.5,14.5 6.3,14.4 C4.9,13.8 4.3,12.3 4.3,10.6 C4.3,7.8 6.7,4.4 11.4,4.4 C15.2,4.4 17.7,7.2 17.7,10.1 C17.7,14 15.5,17 12.3,17 C11.2,17 10.2,16.4 9.9,15.8 C9.9,15.8 9.3,18.1 9.2,18.5 C9,19.3 8.6,20 8.2,20.6 C9.1,20.9 10,21 11,21 C16.5,21 21,16.5 21,11 C21,5.5 16.5,1 11,1"/></svg>
