<svg width="16" height="16" viewBox="0 0 16 16" xmlns="http://www.w3.org/2000/svg"><path fill-rule="evenodd" clip-rule="evenodd" d="M8 0a8 8 0 0 0-3.212 15.327c-.021-.558-.004-1.229.14-1.837l1.029-4.359s-.255-.511-.255-1.266c0-1.185.687-2.07 1.543-2.07.727 0 1.078.546 1.078 1.2 0 .732-.466 1.826-.706 2.839-.2.849.426 1.541 1.262 1.541 1.517 0 2.538-1.947 2.538-4.253 0-1.753-1.181-3.065-3.33-3.065-2.426 0-3.938 1.809-3.938 3.831 0 .696.205 1.188.528 1.568.148.175.168.245.115.446-.039.147-.127.502-.163.643-.054.202-.218.274-.401.199-1.118-.456-1.638-1.68-1.638-3.056 0-2.272 1.916-4.998 5.718-4.998 3.054 0 5.064 2.21 5.064 4.583 0 3.139-1.745 5.483-4.317 5.483-.864 0-1.676-.467-1.954-.996 0 0-.465 1.843-.563 2.199-.17.616-.502 1.232-.805 1.713A8 8 0 1 0 8 0"/></svg>