<svg xmlns="http://www.w3.org/2000/svg" xlink="http://www.w3.org/1999/xlink" width="16" height="16" viewBox="0 0 16 16"><path d="M8,0 C3.582,0 0,3.581 0,8 C0,11.275 1.97,14.09 4.788,15.327 C4.767,14.769 4.784,14.098 4.928,13.49 C5.081,12.841 5.957,9.131 5.957,9.131 C5.957,9.131 5.702,8.62 5.702,7.865 C5.702,6.68 6.389,5.795 7.245,5.795 C7.972,5.795 8.323,6.341 8.323,6.995 C8.323,7.727 7.857,8.821 7.617,9.834 C7.417,10.683 8.043,11.375 8.879,11.375 C10.396,11.375 11.417,9.428 11.417,7.122 C11.417,5.369 10.236,4.057 8.087,4.057 C5.661,4.057 4.149,5.866 4.149,7.888 C4.149,8.584 4.354,9.076 4.677,9.456 C4.825,9.631 4.845,9.701 4.792,9.902 C4.753,10.049 4.665,10.404 4.629,10.545 C4.575,10.747 4.411,10.819 4.228,10.744 C3.11,10.288 2.59,9.064 2.59,7.688 C2.59,5.416 4.506,2.69 8.308,2.69 C11.362,2.69 13.372,4.9 13.372,7.273 C13.372,10.412 11.627,12.756 9.055,12.756 C8.191,12.756 7.379,12.289 7.101,11.76 C7.101,11.76 6.636,13.603 6.538,13.959 C6.368,14.575 6.036,15.191 5.733,15.672 C6.453,15.885 7.212,16 8,16 C12.418,16 16,12.418 16,8 C16,3.581 12.418,0 8,0"/></svg>
