<svg xmlns="http://www.w3.org/2000/svg" xlink="http://www.w3.org/1999/xlink" width="12" height="12" viewBox="0 0 12 12"><path d="M6.8857,9.5322 C6.2397,9.5322 5.5947,9.2872 5.1927,8.7942 C5.1927,8.7942 4.4237,11.3182 4.3417,11.5472 C4.2587,11.7762 3.9017,12.0002 3.5787,12.0002 C3.0947,12.0002 2.5367,11.4982 2.6937,11.0132 C2.8497,10.5272 4.2247,6.2462 4.2247,6.2462 C4.2247,6.2462 4.0637,5.7532 4.0637,5.0152 C4.0637,3.6192 4.7877,3.2052 5.4327,3.2052 C5.9997,3.2052 6.5627,3.4542 6.5627,4.2722 C6.5627,5.3442 5.8387,5.9182 5.8387,6.7402 C5.8387,7.3132 6.3187,7.8072 6.8857,7.8072 C8.7397,7.8072 9.4637,6.3262 9.4637,5.0152 C9.4637,3.2052 7.9337,1.7292 6.0787,1.7292 C4.2247,1.7292 2.6937,3.2052 2.6937,5.0152 C2.6937,5.5892 2.8547,6.0822 3.0947,6.5752 C3.1767,6.7402 3.1767,6.8212 3.1767,6.9852 C3.1767,7.4782 2.8547,7.8072 2.3697,7.8072 C2.0467,7.8072 1.8077,7.6432 1.6467,7.3982 C1.2397,6.6562 0.9997,5.8382 0.9997,4.9302 C0.9997,2.2182 3.2557,0.0002 5.9997,0.0002 C8.7397,0.0002 10.9957,2.2182 10.9957,4.9302 C11.0787,7.2332 9.7877,9.5322 6.8857,9.5322"/></svg>
