<svg xmlns="http://www.w3.org/2000/svg" xlink="http://www.w3.org/1999/xlink" width="22" height="22" viewBox="0 0 22 22"><path d="M4,2 L18,2 L18,4 L22,4 L22,18 L18,18 L18,20 L4,20 L4,18 L0,18 L0,4 L4,4 L4,2 Z M6.001,18 L16.001,18 L16.001,4 L6.001,4 L6.001,18 Z M18,16.001 L20,16.001 L20,6 L18,6 L18,16.001 Z M2,16.001 L4,16.001 L4,6 L2,6 L2,16.001 Z M8.001,13 L8.001,12 L14.001,12 L14.001,13 L8.001,13 Z M8.001,15 L8.001,14 L11.001,14 L11.001,15 L8.001,15 Z M8.001,10 L8.001,5.999 L14.001,5.999 L14.001,10 L8.001,10 Z"/></svg>
