<svg xmlns="http://www.w3.org/2000/svg" xlink="http://www.w3.org/1999/xlink" width="16" height="16" viewBox="0 0 16 16"><path d="M2.9997,0.9996 L12.9997,0.9996 L12.9997,3.0006 L16.0007,3.0006 L16.0007,13.0006 L12.9997,13.0006 L12.9997,14.9996 L2.9997,14.9996 L2.9997,13.0006 L-0.0003,13.0006 L-0.0003,3.0006 L2.9997,3.0006 L2.9997,0.9996 Z M5.0007,13.0006 L10.9997,13.0006 L10.9997,3.0006 L5.0007,3.0006 L5.0007,13.0006 Z M12.9997,11.0006 L14.0007,11.0006 L14.0007,5.0006 L12.9997,5.0006 L12.9997,11.0006 Z M1.9997,11.0006 L2.9997,11.0006 L2.9997,5.0006 L1.9997,5.0006 L1.9997,11.0006 Z M6,6 L6,4 L10,4 L10,6 L6,6 Z M6,9 L6,8 L10,8 L10,9 L6,9 Z M6,11 L6,9.999 L8,9.999 L8,11 L6,11 Z"/></svg>
