<svg xmlns="http://www.w3.org/2000/svg" xlink="http://www.w3.org/1999/xlink" width="12" height="12" viewBox="0 0 12 12"><path d="M1.9998,1.0001 L9.9998,1.0001 L9.9998,2.0001 L11.9998,2.0001 L11.9998,10.0001 L9.9998,10.0001 L9.9998,11.0001 L1.9998,11.0001 L1.9998,10.0001 L-0.0002,10.0001 L-0.0002,2.0001 L1.9998,2.0001 L1.9998,1.0001 Z M2.9998,10.0001 L8.9998,10.0001 L8.9998,2.0001 L2.9998,2.0001 L2.9998,10.0001 Z M9.9998,9.0001 L10.9998,9.0001 L10.9998,3.0001 L9.9998,3.0001 L9.9998,9.0001 Z M0.9998,9.0001 L1.9998,9.0001 L1.9998,3.0001 L0.9998,3.0001 L0.9998,9.0001 Z M4,5 L4,3 L8,3 L8,5 L4,5 Z M4,7 L4,5.999 L8.001,5.999 L8.001,7 L4,7 Z M4,9 L4,8 L6.001,8 L6.001,9 L4,9 Z"/></svg>
