<svg xmlns="http://www.w3.org/2000/svg" xlink="http://www.w3.org/1999/xlink" width="22" height="22" viewBox="0 0 22 22"><path d="M13,1 C13.266,1 13.52,1.105 13.707,1.292 L18.707,6.293 C18.895,6.48 19,6.735 19,7 L19,18.749 C19,19.992 17.992,21 16.749,21 L4.251,21 C3.008,21 2,19.992 2,18.749 L2,3.251 C2,2.008 3.008,1 4.251,1 L13,1 Z M16.749,19 C16.888,19 17,18.887 17,18.749 L17,8 L12,8 L12,3 L4.251,3 C4.112,3 4,3.113 4,3.251 L4,18.749 C4,18.887 4.112,19 4.251,19 L16.749,19 Z M14,4 L14,6 L16,6 L14,4 Z M8,12 C7.447,12 7,11.552 7,11 C7,10.448 7.447,10 8,10 C8.553,10 9,10.448 9,11 C9,11.552 8.553,12 8,12 Z M13,10 C13.553,10 14,10.448 14,11 C14,11.552 13.553,12 13,12 C12.447,12 12,11.552 12,11 C12,10.448 12.447,10 13,10 Z M10.5,15.25 C9.535,15.25 8.75,16.035 8.75,17 L7.25,17 C7.25,15.208 8.708,13.75 10.5,13.75 C12.292,13.75 13.75,15.208 13.75,17 L12.25,17 C12.25,16.035 11.465,15.25 10.5,15.25 Z"/></svg>
