<svg xmlns="http://www.w3.org/2000/svg" xlink="http://www.w3.org/1999/xlink" width="12" height="12" viewBox="0 0 12 12"><path d="M8,0 L11,2.5 L11,12 L0,12 L0,0 L8,0 Z M10,11 L10,3 L7,3 L7,1 L1,1 L1,11 L10,11 Z M4,6 C3.447,6 3,5.552 3,5 C3,4.448 3.447,4 4,4 C4.553,4 5,4.448 5,5 C5,5.552 4.553,6 4,6 Z M6,5 C6,4.448 6.447,4 7,4 C7.553,4 8,4.448 8,5 C8,5.552 7.553,6 7,6 C6.447,6 6,5.552 6,5 Z M4,10 L3,10 L3,9.5 C3,8.119 4.119,7 5.5,7 C6.881,7 8,8.119 8,9.5 L8,10 L7,10 L7,9.5 C7,8.673 6.327,8 5.5,8 C4.673,8 4,8.673 4,9.5 L4,10 Z"/></svg>
