<svg xmlns="http://www.w3.org/2000/svg" width="32" height="24" fill="none" viewBox="0 0 32 24">
  <path fill="#0079BE" fill-rule="evenodd" d="M32 21.818c0 1.2-.9 2.182-2 2.182H2c-1.1 0-2-.982-2-2.182V2.182C0 .982.9 0 2 0h28c1.1 0 2 .982 2 2.182v19.636Z" clip-rule="evenodd"/>
  <path fill="#fff" d="M19.692 12.487c-.003-1.854-1.14-3.436-2.739-4.062v8.124c1.6-.627 2.736-2.207 2.739-4.062Zm-5.792 4.06V8.426c-1.598.628-2.732 2.207-2.736 4.061.004 1.853 1.138 3.433 2.736 4.06ZM15.427 5.62c-3.714.002-6.724 3.075-6.725 6.867 0 3.792 3.01 6.864 6.726 6.865 3.715 0 6.725-3.073 6.726-6.865 0-3.792-3.011-6.865-6.726-6.867ZM15.412 20C11.346 20.02 8 16.658 8 12.565 8 8.093 11.346 5 15.411 5h1.905C21.333 5 25 8.091 25 12.565 25 16.656 21.333 20 17.316 20h-1.905Z"/>
</svg>
