<svg xmlns="http://www.w3.org/2000/svg" width="21" height="16" fill="none" viewBox="0 0 21 16">
  <path fill="#0079BE" fill-rule="evenodd" d="M21 14.546c0 .8-.59 1.454-1.313 1.454H1.313C.592 16 0 15.345 0 14.546V1.455C0 .655.59 0 1.313 0h18.375C20.409 0 21 .655 21 1.455v13.09Z" clip-rule="evenodd"/>
  <path fill="#fff" d="M12.574 8.49a3.193 3.193 0 0 0-2.008-2.978v5.957a3.193 3.193 0 0 0 2.008-2.979Zm-4.247 2.978V5.512A3.196 3.196 0 0 0 6.32 8.49a3.195 3.195 0 0 0 2.007 2.978Zm1.12-8.013C6.723 3.456 4.515 5.71 4.515 8.49c0 2.781 2.208 5.034 4.932 5.035 2.724 0 4.932-2.254 4.933-5.035 0-2.78-2.209-5.034-4.933-5.035ZM9.435 14C6.454 14.014 4 11.549 4 8.548 4 5.268 6.454 2.999 9.435 3h1.397c2.946 0 5.635 2.267 5.635 5.548 0 3-2.69 5.452-5.635 5.452H9.435Z"/>
</svg>
