<svg xmlns="http://www.w3.org/2000/svg" xlink="http://www.w3.org/1999/xlink" width="22" height="22" viewBox="0 0 22 22"><path d="M19,8.9996 C20.104,8.9996 21,9.8956 21,10.9996 C21,12.1046 20.104,12.9996 19,12.9996 L19,17.6836 C19,18.9606 17.961,19.9996 16.684,19.9996 L4.316,19.9996 C3.039,19.9996 2,18.9606 2,17.6836 L2,12.9996 C0.896,12.9996 0,12.1046 0,10.9996 C0,9.8956 0.896,8.9996 2,8.9996 C2.034,8.9996 2.066,9.0086 2.1,9.0096 C2.561,6.7256 4.582,4.9996 7,4.9996 L9.5,4.9996 L9.5,3.7226 C8.904,3.3756 8.5,2.7386 8.5,1.9996 C8.5,0.8956 9.396,-0.0004 10.5,-0.0004 C11.604,-0.0004 12.5,0.8956 12.5,1.9996 C12.5,2.7386 12.096,3.3756 11.5,3.7226 L11.5,4.9996 L14,4.9996 C16.418,4.9996 18.439,6.7256 18.9,9.0096 C18.934,9.0086 18.966,8.9996 19,8.9996 Z M17,17.6836 L17,9.9996 C17,8.3456 15.654,6.9996 14,6.9996 L7,6.9996 C5.346,6.9996 4,8.3456 4,9.9996 L4,17.6836 C4,17.8586 4.142,17.9996 4.316,17.9996 L6,17.9996 L6,13.9996 L15,13.9996 L15,17.9996 L16.684,17.9996 C16.858,17.9996 17,17.8586 17,17.6836 Z M12,17.9996 L13,17.9996 L13,15.9996 L12,15.9996 L12,17.9996 Z M10,17.9996 L11,17.9996 L11,15.9996 L10,15.9996 L10,17.9996 Z M8,17.9996 L9,17.9996 L9,15.9996 L8,15.9996 L8,17.9996 Z M7.5,9 C8.328,9 9,9.672 9,10.5 C9,11.328 8.328,12 7.5,12 C6.672,12 6,11.328 6,10.5 C6,9.672 6.672,9 7.5,9 Z M13.5,9 C14.328,9 15,9.672 15,10.5 C15,11.328 14.328,12 13.5,12 C12.672,12 12,11.328 12,10.5 C12,9.672 12.672,9 13.5,9 Z"/></svg>
