<svg xmlns="http://www.w3.org/2000/svg" xlink="http://www.w3.org/1999/xlink" width="16" height="16" viewBox="0 0 16 16"><path d="M14,7.092 C14.581,7.299 15,7.848 15,8.5 C15,9.152 14.581,9.701 14,9.908 L14,15 L1,15 L1,9.908 C0.419,9.701 0,9.152 0,8.5 C0,7.848 0.419,7.299 1,7.092 L1,6.658 C1,5.19 2.189,4 3.658,4 L7,4 L7,2.908 C6.419,2.701 6,2.152 6,1.5 C6,0.672 6.672,0 7.5,0 C8.328,0 9,0.672 9,1.5 C9,2.152 8.581,2.701 8,2.908 L8,4 L11.342,4 C12.811,4 14,5.19 14,6.658 L14,7.092 Z M13,14 L13,6.658 C13,5.744 12.256,5 11.342,5 L8,5 L7,5 L3.658,5 C2.744,5 2,5.744 2,6.658 L2,14 L4,14 L4,11 L11,11 L11,14 L13,14 Z M9,14 L10,14 L10,12 L9,12 L9,14 Z M7,14 L8,14 L8,12 L7,12 L7,14 Z M5,14 L6,14 L6,12 L5,12 L5,14 Z M5,6.75 C5.69,6.75 6.25,7.31 6.25,8 C6.25,8.69 5.69,9.25 5,9.25 C4.31,9.25 3.75,8.69 3.75,8 C3.75,7.31 4.31,6.75 5,6.75 Z M10,6.75 C10.69,6.75 11.25,7.31 11.25,8 C11.25,8.69 10.69,9.25 10,9.25 C9.31,9.25 8.75,8.69 8.75,8 C8.75,7.31 9.31,6.75 10,6.75 Z"/></svg>
