<svg xmlns="http://www.w3.org/2000/svg" xlink="http://www.w3.org/1999/xlink" width="12" height="12" viewBox="0 0 12 12"><path d="M10,6 C10.553,6 11,6.447 11,7 C11,7.553 10.553,8 10,8 L10,11 L1,11 L1,7 C0.447,7 0,6.553 0,6 C0,5.447 0.447,5 1,5 L1,4.504 C1,3.674 1.674,3 2.504,3 L5,3 L5,2.393 C4.56,2.199 4.25,1.762 4.25,1.25 C4.25,0.56 4.81,0 5.5,0 C6.19,0 6.75,0.56 6.75,1.25 C6.75,1.762 6.44,2.199 6,2.393 L6,3 L8.496,3 C9.326,3 10,3.674 10,4.504 L10,6 Z M9,10 L9,4.504 C9,4.227 8.773,4 8.496,4 L2.504,4 C2.227,4 2,4.227 2,4.504 L2,10 L3,10 L3,8 L8,8 L8,10 L9,10 Z M6,10 L7,10 L7,9 L6,9 L6,10 Z M4,10 L5,10 L5,9 L4,9 L4,10 Z M4,5 C4.553,5 5,5.447 5,6 C5,6.553 4.553,7 4,7 C3.447,7 3,6.553 3,6 C3,5.447 3.447,5 4,5 Z M7,5 C7.553,5 8,5.447 8,6 C8,6.553 7.553,7 7,7 C6.447,7 6,6.553 6,6 C6,5.447 6.447,5 7,5 Z"/></svg>
