<svg width="16" height="16" viewBox="0 0 16 16" xmlns="http://www.w3.org/2000/svg"><path d="M14 4a1 1 0 0 1-1.469.884C12.832 5.526 13 6.244 13 7a3 3 0 1 0-2.647-4.413C11 2.933 11.563 3.417 12 4a1 1 0 0 1 2 0ZM3.1 8H3a3 3 0 0 0-3 3v1h2v-1a1 1 0 0 1 1-1h1a4.977 4.977 0 0 1-.9-2Zm8.9 2h1a1 1 0 0 1 1 1v1h2v-1a3 3 0 0 0-3-3h-.1a4.977 4.977 0 0 1-.9 2ZM3 5c.17 0 .329-.042.469-.116A4.974 4.974 0 0 0 3 7a3 3 0 1 1 2.647-4.413C5 2.933 4.437 3.417 4 4a1 1 0 1 0-1 1Z"/><path fill-rule="evenodd" clip-rule="evenodd" d="M8 10a3 3 0 1 0 0-6 3 3 0 0 0 0 6Zm0-2a1 1 0 1 0 0-2 1 1 0 0 0 0 2Z"/><path d="M6 11a3 3 0 0 0-3 3v1h2v-1a1 1 0 0 1 1-1h4a1 1 0 0 1 1 1v1h2v-1a3 3 0 0 0-3-3H6Z"/></svg>