<svg xmlns="http://www.w3.org/2000/svg" xlink="http://www.w3.org/1999/xlink" width="22" height="22" viewBox="0 0 22 22"><path d="M12.4482,13.6318 C13.0192,16.1638 17.0002,16.0078 17.0002,18.4438 L17.0002,19.9998 L5.0002,19.9998 L5.0002,18.4438 C5.0002,16.0078 8.9802,16.1638 9.5522,13.6318 C8.3442,13.0018 7.5002,11.6168 7.5002,9.9998 C7.5002,7.7908 9.0672,5.9998 11.0002,5.9998 C12.9332,5.9998 14.5002,7.7908 14.5002,9.9998 C14.5002,11.6168 13.6562,13.0018 12.4482,13.6318 Z M17.4482,10.6318 C18.0192,13.1638 22.0002,13.0078 22.0002,15.4438 L22.0002,16.9998 L18.7172,16.9998 C18.1322,15.5508 16.7412,14.7788 15.8212,14.2778 C15.5782,14.1448 15.3572,14.0218 15.1652,13.9058 C16.0082,12.8348 16.5002,11.4508 16.5002,9.9998 C16.5002,7.5708 15.1682,5.4808 13.2612,4.5368 C13.9022,3.6078 14.8842,2.9998 16.0002,2.9998 C17.9332,2.9998 19.5002,4.7908 19.5002,6.9998 C19.5002,8.6168 18.6562,10.0018 17.4482,10.6318 Z M6.835,13.9063 C6.643,14.0213 6.422,14.1443 6.179,14.2773 C5.258,14.7793 3.868,15.5513 3.283,17.0003 L0,17.0003 L0,15.4443 C0,13.0083 3.981,13.1643 4.552,10.6323 C3.344,10.0023 2.5,8.6173 2.5,7.0003 C2.5,4.7913 4.067,3.0003 6,3.0003 C7.116,3.0003 8.098,3.6073 8.738,4.5373 C6.832,5.4803 5.5,7.5713 5.5,10.0003 C5.5,11.4513 5.992,12.8353 6.835,13.9063 Z"/></svg>
