<svg xmlns="http://www.w3.org/2000/svg" xlink="http://www.w3.org/1999/xlink" width="16" height="16" viewBox="0 0 16 16"><path d="M4.982,10.163 L4.76,10.273 C4.406,10.447 3.956,10.676 3.548,11 L2.84217094e-14,11 L2.84217094e-14,10.067 C2.84217094e-14,8.557 2.824,8.703 3.061,7.024 C2.241,6.617 1.667,5.698 1.667,4.625 C1.667,3.175 2.711,2 4,2 C5.088,2 5.994,2.842 6.253,3.975 C5.02,4.662 4.167,6.031 4.167,7.625 C4.167,8.559 4.465,9.45 4.982,10.163 Z M12.94,7.024 C13.176,8.703 16,8.557 16,10.067 L16,11 L12.452,11 C12.044,10.676 11.594,10.447 11.24,10.273 L11.019,10.163 C11.536,9.45 11.834,8.559 11.834,7.625 C11.834,6.031 10.98,4.662 9.748,3.975 C10.006,2.842 10.912,2 12,2 C13.289,2 14.333,3.175 14.334,4.625 C14.334,5.697 13.76,6.617 12.94,7.024 Z M8.94,10.024 C9.176,11.703 12,11.557 12,13.067 L12,14 L4,14 L4,13.067 C4,11.557 6.824,11.703 7.061,10.024 C6.241,9.617 5.667,8.698 5.667,7.625 C5.667,6.175 6.711,5 8,5 C9.289,5 10.333,6.175 10.334,7.625 C10.334,8.697 9.76,9.617 8.94,10.024 Z"/></svg>
