<svg xmlns="http://www.w3.org/2000/svg" xlink="http://www.w3.org/1999/xlink" width="12" height="12" viewBox="0 0 12 12"><path d="M6.7051,7.0183 C6.8821,8.2773 9.0001,8.1683 9.0001,9.3003 L9.0001,10.0003 L3.0001,10.0003 L3.0001,9.3003 C3.0001,8.1683 5.1171,8.2773 5.2951,7.0183 C4.6811,6.7133 4.2501,6.0233 4.2501,5.2193 C4.2501,4.1313 5.0331,3.2503 6.0001,3.2503 C6.9671,3.2503 7.7501,4.1313 7.7501,5.2193 C7.7501,6.0223 7.3201,6.7133 6.7051,7.0183 Z M10,5.0002 C10.178,6.2592 12,5.9182 12,7.0502 L12,7.7502 L9.889,7.7502 C9.549,7.3832 9.129,7.1392 8.803,6.9712 C9.09,6.4492 9.25,5.8462 9.25,5.2192 C9.249,3.8562 8.503,2.6872 7.432,2.1212 C7.713,1.4602 8.305,1.0002 9,1.0002 C9.967,1.0002 10.75,1.8812 10.75,2.9692 C10.75,3.7722 10.615,4.6952 10,5.0002 Z M2.75,5.219 C2.75,5.846 2.91,6.448 3.198,6.971 C2.871,7.139 2.451,7.384 2.111,7.75 L-4.4408921e-16,7.75 L-4.4408921e-16,7.051 C-4.4408921e-16,5.918 1.822,6.26 2,5 C1.385,4.695 1.25,3.774 1.25,2.969 C1.25,1.882 2.033,1 3,1 C3.694,1 4.287,1.46 4.568,2.12 C3.496,2.688 2.75,3.857 2.75,5.219 Z"/></svg>
