<svg xmlns="http://www.w3.org/2000/svg" xlink="http://www.w3.org/1999/xlink" width="22" height="22" viewBox="0 0 22 22"><path d="M17,5 L21,5 L21,18 C21,19.654 19.654,21 18,21 L5,21 C3.346,21 2,19.654 2,18 L2,1 L17,1 L17,5 Z M19,18 L19,7 L17,7 L17,18 C17,18.551 17.448,19 18,19 C18.552,19 19,18.551 19,18 Z M4,18 C4,18.551 4.448,19 5,19 L15.185,19 C15.072,18.686 15,18.352 15,18 L15,3 L4,3 L4,18 Z M6,17 L6,16 L10,16 L10,17 L6,17 Z M6,15 L6,14 L13,14 L13,15 L6,15 Z M6,13 L6,12 L13,12 L13,13 L6,13 Z M6,11 L6,10 L13,10 L13,11 L6,11 Z M6,8 L6,5 L13,5 L13,8 L6,8 Z"/></svg>
