<svg xmlns="http://www.w3.org/2000/svg" xlink="http://www.w3.org/1999/xlink" width="16" height="16" viewBox="0 0 16 16"><path d="M12,5 L16,5 L16,13 C16,14.654 14.654,16 13,16 L4,16 C2.346,16 1,14.654 1,13 L1,1 L12,1 L12,5 Z M3,13 C3,13.552 3.448,14 4,14 L10.185,14 C10.072,13.686 10,13.353 10,13 L10,3 L3,3 L3,13 Z M14,13 L14,7 L12,7 L12,13 C12,13.552 12.448,14 13,14 C13.552,14 14,13.552 14,13 Z M4,13 L4,12 L7.001,12 L7.001,13 L4,13 Z M4,11 L4,10 L9,10 L9,11 L4,11 Z M4,9 L4,8 L9,8 L9,9 L4,9 Z M4,7 L4,4 L9,4 L9,7 L4,7 Z"/></svg>
