<svg width="16" height="16" viewBox="0 0 16 16" xmlns="http://www.w3.org/2000/svg"><path fill-rule="evenodd" clip-rule="evenodd" d="M6 1v1h3a1 1 0 0 1 0 2h-.741a14.634 14.634 0 0 1-.632 1.374c-.265.505-.62 1.108-1.063 1.671.306.142.641.27.988.383l-.79 1.845c-.588-.2-1.201-.458-1.746-.789-.78.516-1.62.863-2.29 1.089-.435.147-.817.249-1.092.314l-.463.098a1 1 0 0 1-.34-1.97l.078-.016a10.505 10.505 0 0 0 1.178-.321 8.69 8.69 0 0 0 1.395-.603 9.035 9.035 0 0 1-.372-.53l-.098-.152c-.281-.447-.52-.9-.713-1.297A18.146 18.146 0 0 1 1.81 4H1a1 1 0 0 1 0-2h1.477a1 1 0 0 1 .046 0H4V1a1 1 0 0 1 2 0Zm-.144 3.444c.082-.156.156-.305.222-.444H3.992a11.936 11.936 0 0 0 .694 1.298l.049.077c.09.142.183.28.278.408.269-.348.515-.74.728-1.125l.115-.214ZM11.727 6.313a.997.997 0 0 0-1.121-.232.998.998 0 0 0-.528.531l-2.997 6.994a1 1 0 1 0 1.838.788L9.088 14h3.824l.169.394a1 1 0 0 0 1.838-.788l-2.997-6.994a1 1 0 0 0-.195-.299ZM11 9.538 12.055 12h-2.11L11 9.538Z"/></svg>