<svg width="24" height="24" viewBox="0 0 24 24" xmlns="http://www.w3.org/2000/svg"><path d="M1 7a5 5 0 0 1 9.17-2.759 6.962 6.962 0 0 0-1.88.822A3 3 0 1 0 5.093 9.86a7.05 7.05 0 0 0-.033 2.05A5.002 5.002 0 0 1 1 7Zm4.674 7H4a4 4 0 0 0-4 4v1h2v-1a2 2 0 0 1 2-2h3.101a7.018 7.018 0 0 1-1.427-2ZM20 16h-3.101a7.018 7.018 0 0 0 1.427-2H20a4 4 0 0 1 4 4v1h-2v-1a2 2 0 0 0-2-2Zm-1.059-4.088A5.002 5.002 0 0 0 18 2c-1.742 0-3.276.89-4.17 2.241a6.996 6.996 0 0 1 1.88.822 3 3 0 1 1 3.198 4.798 7.054 7.054 0 0 1 .033 2.05Z"/><path fill-rule="evenodd" clip-rule="evenodd" d="M7 11a5 5 0 1 1 10 0 5 5 0 0 1-10 0Zm5-3a3 3 0 1 0 0 6 3 3 0 0 0 0-6Z"/><path d="M9 18a4 4 0 0 0-4 4v1h2v-1a2 2 0 0 1 2-2h6a2 2 0 0 1 2 2v1h2v-1a4 4 0 0 0-4-4H9Z"/></svg>