<svg width="24" height="24" viewBox="0 0 24 24" xmlns="http://www.w3.org/2000/svg"><path d="M17 16h-3.101a7.018 7.018 0 0 0 1.427-2H17a4 4 0 0 1 4 4v1h-2v-1a2 2 0 0 0-2-2ZM15.941 11.912A5.002 5.002 0 0 0 15 2c-1.742 0-3.276.89-4.17 2.241.671.182 1.303.461 1.88.822a3 3 0 1 1 3.198 4.798 7.054 7.054 0 0 1 .033 2.05Z"/><path fill-rule="evenodd" clip-rule="evenodd" d="M4 11a5 5 0 1 1 10 0 5 5 0 0 1-10 0Zm5-3a3 3 0 1 0 0 6 3 3 0 0 0 0-6Z"/><path d="M6 18a4 4 0 0 0-4 4v1h2v-1a2 2 0 0 1 2-2h6a2 2 0 0 1 2 2v1h2v-1a4 4 0 0 0-4-4H6Z"/></svg>