<svg width="17" height="16" viewBox="0 0 17 16" xmlns="http://www.w3.org/2000/svg"><path d="M16 2a1 1 0 0 0-1.436-.9c-1.396.676-2.214.92-3.54.847-.222-.012-.481-.054-.835-.11l-.407-.064a12.237 12.237 0 0 0-1.868-.163c-1.409.001-3.038.351-4.527 1.715-1.309 1.2-1.735 2.753-1.753 4.13a7.931 7.931 0 0 0 .498 2.825 8.52 8.52 0 0 0-.663.77c-.572.752-.994 1.575-1.397 2.577a1 1 0 0 0 1.856.746c.363-.904.706-1.551 1.133-2.112.426-.56.968-1.076 1.773-1.68 1.572-1.178 3.615-2 5.487-2.634a1 1 0 1 0-.642-1.894c-1.855.629-4.077 1.499-5.889 2.813a5.808 5.808 0 0 1-.156-1.385c.012-.993.311-1.955 1.104-2.681 1.027-.94 2.125-1.19 3.178-1.19.538-.001 1.06.064 1.565.14l.31.05c.383.06.788.125 1.123.144 1.203.066 2.125-.085 3.08-.425a14.437 14.437 0 0 1-.303 2.668c-.367 1.684-1.142 3.397-2.752 4.628-1.356 1.038-3.183.97-4.649.538a1 1 0 0 0-.564 1.919c1.721.506 4.329.737 6.428-.868 2.11-1.613 3.061-3.822 3.491-5.79.378-1.735.365-3.36.357-4.293v-.004A38.805 38.805 0 0 1 16 2Z"/></svg>