<svg width="16" height="16" viewBox="0 0 16 16" fill="none" xmlns="http://www.w3.org/2000/svg"><path d="M8.936.038a1.399 1.399 0 0 0-1.16 2.18l.597-.597a.59.59 0 1 1 .377.376l-.597.596A1.398 1.398 0 1 0 8.936.038Z" fill="#34A853"/><path d="M7.961 4.348c.001-.473-.152-.932-.435-1.31l-.776.775c.243.443.156.994-.212 1.341l.421 1.03a2.185 2.185 0 0 0 1.002-1.836Z" fill="#FBBC04"/><path d="M5.742 5.336h-.02a1.112 1.112 0 1 1 .611-2.042l.768-.768a2.186 2.186 0 1 0-.937 3.84l-.422-1.03Z" fill="#EA4335"/><path d="M8.496 6.039c-.485 0-.968.07-1.433.21l.614 1.5a3.347 3.347 0 1 1-.752.29l-.607-1.495A4.961 4.961 0 1 0 8.5 6.038h-.004Z" fill="#4285F4"/></svg>