<svg width="16" height="16" viewBox="0 0 16 16" xmlns="http://www.w3.org/2000/svg"><path fill-rule="evenodd" clip-rule="evenodd" d="M11 4a3 3 0 1 1-6 0C5 2.837 6.472 1.168 7.352.273A.897.897 0 0 1 8.641.273C9.523 1.167 11 2.838 11 3.999Zm-2.064-.118c.038.085.056.139.063.163a1 1 0 0 1-1.998 0c.007-.025.024-.079.063-.164.083-.181.22-.414.414-.688.159-.224.337-.45.52-.666.184.217.363.443.523.668.195.274.332.507.415.687Z"/><path fill-rule="evenodd" clip-rule="evenodd" d="M5 7a1 1 0 1 0 0 2v6a1 1 0 0 0 1 1h4a1 1 0 0 0 1-1V9a1 1 0 1 0 0-2H5Zm2 7V9h2v5H7Z"/></svg>