<svg xmlns="http://www.w3.org/2000/svg" width="24" height="24" viewBox="0 0 24 24">
  <path fill-rule="evenodd" d="M12.422 4.012c-2.205-.09-4.36.544-6.064 1.767-1.702 1.222-2.828 2.94-3.204 4.818-.375 1.875.016 3.817 1.12 5.47a1 1 0 0 1 .12.868l-.898 2.724 3.512-.756a1 1 0 0 1 .651.08c1.924.945 4.174 1.233 6.326.802 2.152-.432 4.033-1.547 5.308-3.112 1.272-1.562 1.858-3.468 1.674-5.364-.184-1.898-1.13-3.694-2.694-5.045-1.568-1.353-3.646-2.161-5.85-2.252Zm-7.23.143c2.08-1.495 4.68-2.249 7.312-2.14 2.633.107 5.149 1.071 7.075 2.735 1.93 1.665 3.142 3.924 3.379 6.366.236 2.444-.524 4.867-2.115 6.82-1.587 1.949-3.89 3.293-6.465 3.81a12 12 0 0 1-7.28-.817L2.21 21.982a1 1 0 0 1-1.16-1.291l1.295-3.934c-1.188-1.99-1.603-4.301-1.153-6.553.482-2.41 1.915-4.553 3.998-6.05Z" clip-rule="evenodd"/>
</svg>
