<svg xmlns="http://www.w3.org/2000/svg" width="16" height="16" viewBox="0 0 16 16">
  <path fill-rule="evenodd" d="M8.285 3.01c-1.491-.059-2.941.35-4.078 1.128C3.072 4.914 2.342 5.99 2.1 7.14c-.24 1.146.007 2.34.729 3.368a1 1 0 0 1 .126.902l-.436 1.262 1.933-.397a1 1 0 0 1 .625.074c1.291.605 2.81.79 4.262.513 1.454-.277 2.708-.992 3.549-1.975.836-.977 1.208-2.153 1.09-3.31-.117-1.16-.726-2.278-1.765-3.132-1.042-.857-2.436-1.377-3.928-1.436Zm-5.207-.523C4.59 1.453 6.468.937 8.363 1.011c1.895.074 3.716.735 5.12 1.889 1.407 1.157 2.31 2.741 2.486 4.475.176 1.736-.394 3.447-1.561 4.813-1.164 1.36-2.838 2.285-4.693 2.639a9.06 9.06 0 0 1-5.175-.528l-3.34.684a1 1 0 0 1-1.145-1.306l.851-2.462C.098 9.85-.18 8.272.143 6.73.5 5.022 1.563 3.523 3.078 2.487Z" clip-rule="evenodd"/>
</svg>
