<svg xmlns="http://www.w3.org/2000/svg" width="24" height="24" fill="none" viewBox="0 0 24 24">
  <path fill="#1856ED" d="M11.176 23.01C5.116 23.01 1 18.07 1 12.82c0-5.331 4.197-9.934 9.785-10.15a.395.395 0 0 1 .405.392v1.633a.398.398 0 0 1-.378.391c-4.103.189-7.41 3.55-7.41 7.747 0 4.103 3.24 7.775 7.774 7.775 4.414 0 7.545-3.523 7.734-7.41a.398.398 0 0 1 .392-.378h1.633c.216 0 .391.175.391.405-.189 5.183-4.36 9.785-10.15 9.785Z"/>
  <path fill="#1856ED" d="M11.19 17.611a4.758 4.758 0 0 1-4.792-4.791 4.761 4.761 0 0 1 4.373-4.738.39.39 0 0 1 .419.392v1.633a.392.392 0 0 1-.338.391 2.367 2.367 0 0 0-2.051 2.335c0 1.296 1.012 2.39 2.389 2.39a2.377 2.377 0 0 0 2.335-2.052.404.404 0 0 1 .391-.338h1.633a.39.39 0 0 1 .392.419c-.216 2.416-2.24 4.36-4.751 4.36Z"/>
  <path fill="#FF9E1A" d="M20.597 10.822c-.189-3.955-3.347-7.22-7.41-7.41a.398.398 0 0 1-.377-.391V1.4c0-.216.175-.391.404-.391 5.278.202 9.583 4.427 9.786 9.785a.395.395 0 0 1-.392.405h-1.633c-.189 0-.364-.162-.378-.378ZM13.255 8.851c-.243-.04-.419-.243-.419-.445V6.813a.39.39 0 0 1 .419-.391 4.8 4.8 0 0 1 4.36 4.346.39.39 0 0 1-.392.418h-1.714a.307.307 0 0 1-.31-.27c-.122-.958-.85-1.876-1.944-2.065Z"/>
</svg>
