<svg xmlns="http://www.w3.org/2000/svg" width="16" height="16" fill="none" viewBox="0 0 16 16">
  <path fill="#1856ED" d="M7.401 16.01C2.994 16.01 0 12.416 0 8.598c0-3.877 3.053-7.224 7.116-7.381a.287.287 0 0 1 .295.284V2.69a.29.29 0 0 1-.275.285c-2.984.137-5.389 2.581-5.389 5.634 0 2.984 2.356 5.654 5.654 5.654 3.21 0 5.487-2.562 5.624-5.389a.29.29 0 0 1 .285-.275h1.188c.157 0 .285.128.285.295-.138 3.77-3.171 7.116-7.382 7.116Z"/>
  <path fill="#1856ED" d="M7.41 12.083A3.46 3.46 0 0 1 3.927 8.6a3.463 3.463 0 0 1 3.18-3.446.284.284 0 0 1 .305.285v1.188a.285.285 0 0 1-.246.284A1.721 1.721 0 0 0 5.673 8.61c0 .942.737 1.737 1.738 1.737.834 0 1.58-.628 1.698-1.492a.294.294 0 0 1 .285-.245h1.187c.167 0 .295.137.285.304-.157 1.757-1.63 3.17-3.455 3.17Z"/>
  <path fill="#FF9E1A" d="M14.253 7.146c-.138-2.876-2.435-5.252-5.39-5.389a.29.29 0 0 1-.274-.285V.294c0-.157.127-.284.294-.284 3.838.147 6.97 3.22 7.117 7.116a.287.287 0 0 1-.285.295h-1.188c-.137 0-.265-.118-.274-.275ZM8.913 5.713c-.177-.03-.305-.177-.305-.324V4.23c0-.167.138-.295.305-.285a3.491 3.491 0 0 1 3.17 3.16.284.284 0 0 1-.284.305h-1.247a.223.223 0 0 1-.226-.196c-.088-.697-.618-1.365-1.413-1.502Z"/>
</svg>
