<svg xmlns="http://www.w3.org/2000/svg" xlink="http://www.w3.org/1999/xlink" width="22" height="22" viewBox="0 0 22 22"><path d="M11,1 C16.523,1 21,5.478 21,11 C21,16.522 16.523,21 11,21 C5.477,21 1,16.522 1,11 C1,5.478 5.477,1 11,1 Z M11,19 C15.411,19 19,15.411 19,11 C19,10.309 18.902,9.641 18.736,9 L14.445,9 C14.789,9.591 15,10.268 15,11 C15,11.729 14.791,12.403 14.449,12.992 L14.464,13 L11,19 Z M3,11 C3,14.67 5.488,17.763 8.863,18.701 L11,15 C9.52,15 8.242,14.187 7.551,12.991 L7.536,13 L4.077,7.009 C3.396,8.186 3,9.546 3,11 Z M13,11 C13,9.897 12.104,9 11,9 C9.896,9 9,9.897 9,11 C9,12.103 9.896,13 11,13 C12.104,13 13,12.103 13,11 Z M17.918,7 C16.531,4.613 13.953,3 11,3 C8.82,3 6.843,3.879 5.398,5.298 L7.546,9.017 C8.236,7.817 9.517,7 11,7 L17.918,7 Z"/></svg>
