<svg xmlns="http://www.w3.org/2000/svg" xlink="http://www.w3.org/1999/xlink" width="16" height="16" viewBox="0 0 16 16"><path d="M8,0 C12.418,0 16,3.582 16,8 C16,12.418 12.418,16 8,16 C3.582,16 0,12.418 0,8 C0,3.582 3.582,0 8,0 Z M8,15 C11.859,15 15,11.859 15,8 C15,7.305 14.895,6.635 14.705,6 L10.221,6 C10.7,6.531 11,7.229 11,8 C11,8.547 10.843,9.053 10.588,9.494 L10.598,9.5 L7.439,14.972 C7.625,14.986 7.811,15 8,15 Z M1,8 C1,11.302 3.301,14.07 6.381,14.804 L8.614,10.936 C8.416,10.978 8.211,11 8,11 C6.891,11 5.932,10.39 5.412,9.494 L5.402,9.5 L2.242,4.028 C1.461,5.157 1,6.525 1,8 Z M10,8 C10,6.897 9.104,6 8,6 C6.896,6 6,6.897 6,8 C6,9.103 6.896,10 8,10 C9.104,10 10,9.103 10,8 Z M8,1 C5.999,1 4.196,1.849 2.919,3.199 L5.159,7.079 C5.55,5.876 6.666,5 8,5 L14.314,5 C13.188,2.639 10.785,1 8,1 Z"/></svg>
