<svg xmlns="http://www.w3.org/2000/svg" xlink="http://www.w3.org/1999/xlink" width="12" height="12" viewBox="0 0 12 12"><path d="M6,0 C9.313,0 12,2.687 12,6 C12,9.313 9.313,12 6,12 C2.687,12 0,9.313 0,6 C0,2.687 2.687,0 6,0 Z M6,11.25 C8.895,11.25 11.25,8.895 11.25,6 C11.25,5.613 11.201,5.238 11.122,4.875 L7.49,4.875 C7.729,5.189 7.875,5.576 7.875,6 C7.875,6.341 7.776,6.657 7.617,6.933 L7.624,6.938 L5.182,11.167 C5.45,11.21 5.72,11.25 6,11.25 Z M0.75,6 C0.75,8.342 2.301,10.307 4.423,10.981 L6.229,7.852 C6.153,7.861 6.078,7.875 6,7.875 C5.307,7.875 4.708,7.493 4.383,6.933 L4.376,6.938 L1.938,2.715 C1.207,3.617 0.75,4.75 0.75,6 Z M7.125,6 C7.125,5.38 6.62,4.875 6,4.875 C5.38,4.875 4.875,5.38 4.875,6 C4.875,6.62 5.38,7.125 6,7.125 C6.62,7.125 7.125,6.62 7.125,6 Z M10.889,4.125 C10.131,2.156 8.232,0.75 6,0.75 C4.638,0.75 3.406,1.285 2.473,2.139 L4.276,5.264 C4.563,4.595 5.228,4.125 6,4.125 L10.889,4.125 Z"/></svg>
