<svg xmlns="http://www.w3.org/2000/svg" xlink="http://www.w3.org/1999/xlink" width="22" height="22" viewBox="0 0 22 22"><path d="M19.5,0 L22,0 L22,2 L20.499,2 C20.224,2 20,2.224 20,2.499 L20,16.501 C20,18.985 17.986,21 15.501,21 L6.499,21 C4.014,21 2,18.985 2,16.501 L2,2.499 C2,2.224 1.776,2 1.501,2 L0,2 L0,0 L2.5,0 C3.328,0 4,0.672 4,1.5 L4,16.501 C4,17.881 5.119,19 6.499,19 L15.501,19 C16.881,19 18,17.881 18,16.501 L18,1.5 C18,0.672 18.672,0 19.5,0 Z M12,4 L12,2 L16,2 L16,4 L12,4 Z M6.998,17 C6.447,17 6,16.553 6,16.002 L6,6 L16,6 L16,8 L13,8 L13,10 L16,10 L16,12 L13,12 L13,14 L16,14 L16,16.002 C16,16.553 15.553,17 15.002,17 L6.998,17 Z"/></svg>
