<svg xmlns="http://www.w3.org/2000/svg" xlink="http://www.w3.org/1999/xlink" width="16" height="16" viewBox="0 0 16 16"><path d="M13.0039,0 L15.9999,0 L15.9999,2 L13.9999,2 L13.9999,13.004 C13.9999,14.658 12.6579,16 11.0039,16 L4.9959,16 C3.3419,16 1.9999,14.658 1.9999,13.004 L1.9999,2 L-0.0001,2 L-0.0001,0 L2.9959,0 C3.5509,0 3.9999,0.449 3.9999,1.004 L3.9999,13.004 C3.9999,13.552 4.4479,14 4.9959,14 L11.0039,14 C11.5519,14 11.9999,13.552 11.9999,13.004 L11.9999,1.004 C11.9999,0.449 12.4489,0 13.0039,0 Z M9,4 L9,3 L11,3 L11,4 L9,4 Z M11,11 L11,13 L5,13 L5,5 L11,5 L11,6 L9,6 L9,7 L11,7 L11,8 L9,8 L9,9 L11,9 L11,10 L9,10 L9,11 L11,11 Z"/></svg>
