<svg width="24" height="24" viewBox="0 0 24 24" fill="none" xmlns="http://www.w3.org/2000/svg">
<g clip-path="url(#clip0_323_410)">
<path d="M22.5453 13.4923L22.5325 13.4667L22.4922 13.4062C22.4836 13.3925 22.4748 13.3791 22.4656 13.3658L19.2343 8.44333C19.2563 8.59733 19.282 8.75041 19.282 8.91083C19.282 9.59008 19.0812 10.2464 18.7008 10.8065L16.1314 14.8215L17.4294 16.8189L17.4276 16.8207C17.4361 16.8282 17.4435 16.8369 17.4496 16.8464C17.7316 17.2465 18.1054 17.5731 18.5397 17.7988C18.9741 18.0245 19.4562 18.1427 19.9457 18.1435C20.7555 18.1428 21.532 17.8207 22.1046 17.2481C22.6772 16.6755 22.9993 15.899 23 15.0892C23 14.5272 22.8432 13.9745 22.5453 13.4923Z" fill="#95C748"/>
<path d="M7.10867 15.0892C7.1077 15.8989 6.78559 16.6752 6.213 17.2478C5.64041 17.8204 4.86409 18.1425 4.05433 18.1435C2.37042 18.1435 1 16.774 1 15.0892C1 13.4043 2.37042 12.0339 4.05433 12.0339C4.8641 12.0354 5.64028 12.3577 6.21279 12.9304C6.7853 13.5031 7.10746 14.2794 7.10867 15.0892Z" fill="#35BFC0"/>
<path d="M17.7099 11.7488C17.1677 12.1013 16.5352 12.2894 15.8885 12.2906C15.2831 12.2875 14.69 12.1199 14.1725 11.8057C13.928 11.6572 13.1836 10.9369 13.0477 10.7258L10.6534 7.34057C10.6439 7.33157 10.6356 7.3214 10.6287 7.31032C10.3569 6.86531 9.97518 6.49778 9.52017 6.24314C9.06517 5.9885 8.55225 5.85534 8.03083 5.85649C7.50735 5.85367 6.992 5.986 6.53465 6.24069C6.0773 6.49539 5.69342 6.86381 5.42017 7.31032C5.4148 7.31962 5.40834 7.32824 5.40092 7.33599L2.25858 12.2337C2.63498 11.994 3.05539 11.8316 3.49525 11.7562C3.93511 11.6808 4.38558 11.6939 4.82035 11.7946C5.25511 11.8953 5.66544 12.0816 6.02734 12.3428C6.38924 12.6039 6.69545 12.9346 6.92808 13.3154C6.93315 13.3205 6.93776 13.326 6.94183 13.3319L9.46817 16.8785C9.74972 17.2714 10.1212 17.5913 10.5516 17.8114C10.982 18.0314 11.4588 18.1453 11.9423 18.1435C12.4274 18.1468 12.9062 18.0337 13.3386 17.8138C13.771 17.5938 14.1443 17.2734 14.4273 16.8794L14.4356 16.8675C14.5025 16.7731 14.5612 16.6823 14.6143 16.5879L15.9362 14.5208L17.7099 11.7488Z" fill="#3152A0"/>
<path d="M15.8885 11.9652C16.6984 11.9642 17.4749 11.642 18.0475 11.0692C18.6201 10.4964 18.9421 9.71984 18.9428 8.90992C18.9419 8.10016 18.6198 7.32384 18.0472 6.75126C17.4746 6.17867 16.6983 5.85656 15.8885 5.85559C15.0787 5.85656 14.3024 6.17867 13.7298 6.75126C13.1572 7.32384 12.8351 8.10016 12.8342 8.90992C12.8354 9.71969 13.1575 10.496 13.73 11.0686C14.3026 11.6413 15.0787 11.9637 15.8885 11.9652Z" fill="#F38334"/>
</g>
<defs>
<clipPath id="clip0_323_410">
<rect width="22" height="22" fill="white" transform="translate(1 1)"/>
</clipPath>
</defs>
</svg>
