<svg xmlns="http://www.w3.org/2000/svg" width="16" height="16" fill="none" viewBox="0 0 16 16">
  <g clip-path="url(#a)">
    <path fill="#95C748" d="m15.67 9.085-.01-.018-.03-.044a.701.701 0 0 0-.019-.03l-2.35-3.58c.016.112.035.224.035.34 0 .494-.146.972-.423 1.379l-1.868 2.92.944 1.453-.002.001a2.226 2.226 0 0 0 1.831.962A2.223 2.223 0 0 0 16 10.247c0-.409-.114-.811-.33-1.162Z"/>
    <path fill="#35BFC0" d="M4.443 10.247a2.224 2.224 0 0 1-2.222 2.221A2.224 2.224 0 0 1 0 10.247C0 9.02.997 8.025 2.221 8.025a2.225 2.225 0 0 1 2.222 2.222Z"/>
    <path fill="#3152A0" d="M12.153 7.817a2.439 2.439 0 0 1-1.325.394A2.428 2.428 0 0 1 9.58 7.86c-.178-.108-.72-.632-.818-.786L7.021 4.611a.113.113 0 0 1-.018-.022 2.208 2.208 0 0 0-1.89-1.057 2.212 2.212 0 0 0-1.912 1.076L.915 8.17a2.442 2.442 0 0 1 3.406.799l1.838 2.579a2.204 2.204 0 0 0 1.799.92 2.206 2.206 0 0 0 1.807-.92l.006-.008a2.32 2.32 0 0 0 .13-.203l.962-1.504 1.29-2.016Z"/>
    <path fill="#F38334" d="M10.828 7.975a2.224 2.224 0 0 0 2.221-2.222 2.224 2.224 0 0 0-2.221-2.222 2.224 2.224 0 0 0-2.221 2.222 2.225 2.225 0 0 0 2.221 2.222Z"/>
  </g>
  <defs>
    <clipPath id="a">
      <path fill="#fff" d="M0 0h16v16H0z"/>
    </clipPath>
  </defs>
</svg>
