<svg xmlns="http://www.w3.org/2000/svg" width="24" height="24" fill="none" viewBox="0 0 24 24">
  <path fill="#00A1E0" d="M15.472 12.053c.087-.127.132-.305.132-.532 0-.227-.045-.405-.132-.53-.087-.124-.218-.184-.4-.184-.183 0-.314.06-.399.184-.086.125-.13.303-.13.53 0 .227.044.406.13.532.085.125.216.186.399.186.182 0 .313-.061.4-.186ZM20.22 10.99a.746.746 0 0 0-.112.313h.992a.632.632 0 0 0-.092-.312.438.438 0 0 0-.39-.193c-.182 0-.312.069-.397.193ZM9.08 10.99a.75.75 0 0 0-.113.313h.992a.635.635 0 0 0-.092-.312.439.439 0 0 0-.39-.193c-.182 0-.312.069-.397.193ZM5.88 12.092a.275.275 0 0 0 .08.079s.125.093.408.077c.2-.011.376-.047.376-.047v-.603s-.178-.028-.378-.03c-.284-.004-.404.096-.403.095-.084.057-.124.14-.124.257 0 .073.014.132.041.172Z"/>
  <path fill="#00A1E0" fill-rule="evenodd" d="M13.03 4.51c-1.191 0-2.269.477-3.043 1.245-.851-1.06-2.195-1.745-3.706-1.745-2.574 0-4.662 1.985-4.662 4.434 0 .626.138 1.223.384 1.763C.806 10.873 0 12.119 0 13.547 0 15.674 1.794 17.4 4.006 17.4c.282 0 .557-.028.823-.082.608 1.57 2.192 2.69 4.05 2.69 1.784 0 3.315-1.032 3.972-2.504.5.233 1.061.363 1.655.363 1.417 0 2.653-.744 3.3-1.845.33.063.671.096 1.02.096 2.857 0 5.174-2.225 5.174-4.97 0-2.746-2.317-4.972-5.174-4.972-.745 0-1.453.152-2.093.424a4.285 4.285 0 0 0-3.702-2.09Zm1.136 5.1c.053.01.093.018.137.031.01.004.037.016.026.046l-.106.278c-.01.021-.015.034-.06.021a.612.612 0 0 0-.335-.007.295.295 0 0 0-.117.069.39.39 0 0 0-.098.141c-.043.12-.064.246-.07.286l-.003.013h.445c.037 0 .049.016.045.043l-.052.275c-.008.04-.046.039-.046.039h-.459l-.313 1.689a2.422 2.422 0 0 1-.122.445.863.863 0 0 1-.18.296.647.647 0 0 1-.258.171c-.097.033-.214.05-.341.05a.883.883 0 0 1-.331-.053c-.018-.006-.032-.027-.022-.053l.103-.27c.015-.034.05-.02.05-.02a.646.646 0 0 0 .187.035c.06 0 .116-.008.164-.023a.257.257 0 0 0 .127-.094.653.653 0 0 0 .097-.188c.031-.084.06-.193.084-.327l.311-1.658h-.307c-.037 0-.049-.017-.045-.043l.052-.275c.008-.04.046-.039.046-.039h.316l.017-.09c.047-.265.141-.468.28-.6.139-.134.337-.202.589-.202.072 0 .136.005.189.014Zm-10.69 2.697c-.012.031 0 .042.007.048a1.046 1.046 0 0 0 .112.067l.029.016c.244.123.475.16.717.16.492 0 .798-.25.798-.651v-.008c0-.371-.345-.506-.669-.604l-.042-.013c-.244-.075-.454-.14-.454-.293v-.008c0-.131.123-.228.313-.228.212 0 .464.067.626.153 0 0 .048.029.065-.015l.1-.257c.01-.024-.007-.043-.024-.052a1.45 1.45 0 0 0-.705-.18h-.05c-.45 0-.764.259-.764.63v.008c0 .392.347.519.672.607l.053.016c.236.07.44.129.44.288v.007c0 .146-.133.254-.347.254a1.209 1.209 0 0 1-.683-.203l-.032-.02c-.014-.008-.05-.023-.065.021l-.097.257Zm7.214.048c-.007-.006-.02-.017-.007-.048l.097-.257c.015-.042.056-.026.065-.02l.017.01.064.038c.287.172.551.174.635.174.214 0 .347-.108.347-.254v-.007c0-.16-.204-.219-.44-.288l-.054-.016c-.325-.088-.672-.215-.672-.607v-.008c0-.371.314-.63.765-.63h.05c.264 0 .52.072.704.18.017.01.034.028.024.052l-.1.257c-.017.044-.065.015-.065.015a1.476 1.476 0 0 0-.625-.153c-.191 0-.314.097-.314.228v.008c0 .153.21.218.454.293l.043.013c.323.098.668.233.668.604v.008c0 .401-.305.65-.798.65a1.52 1.52 0 0 1-.717-.16l-.03-.015a1.045 1.045 0 0 1-.107-.063l-.002-.002-.002-.002Zm5.137-1.595c.084.095.147.21.187.34.04.13.06.27.06.42 0 .15-.02.292-.06.421a.88.88 0 0 1-.502.567 1.107 1.107 0 0 1-.44.082c-.167 0-.315-.028-.441-.082a.88.88 0 0 1-.503-.567 1.42 1.42 0 0 1-.06-.42c0-.15.02-.292.06-.421a.944.944 0 0 1 .187-.34.905.905 0 0 1 .316-.229c.125-.055.274-.084.44-.084.167 0 .315.029.44.084a.9.9 0 0 1 .316.229Zm3.51 1.394s.038-.014.052.024l.1.265c.014.033-.016.047-.016.047a1.746 1.746 0 0 1-.582.099c-.356 0-.63-.098-.811-.29-.182-.193-.273-.455-.273-.78 0-.15.022-.292.067-.421a.96.96 0 0 1 .2-.34.949.949 0 0 1 .33-.229c.132-.056.286-.084.459-.084a1.664 1.664 0 0 1 .583.086c.009.003.035.016.024.046l-.068.182-.033.085c-.015.04-.047.028-.047.028a1.43 1.43 0 0 0-.434-.06c-.204 0-.356.065-.457.191-.1.127-.157.294-.157.516 0 .243.063.424.176.535.113.111.271.168.47.168.081 0 .157-.006.226-.016a.98.98 0 0 0 .19-.052Zm1.977-1.438a.81.81 0 0 1 .178.31c.083.279.048.522.042.565l-.001.006c-.004.034-.04.034-.04.034h-1.391c.008.2.059.343.162.44.1.095.26.155.476.156.3 0 .445-.052.543-.088l.027-.01s.04-.013.053.023l.09.242c.02.041.004.056-.01.064-.088.046-.3.131-.702.132-.195 0-.365-.026-.504-.078a.866.866 0 0 1-.552-.557 1.356 1.356 0 0 1-.063-.423c0-.15.02-.292.061-.423a.91.91 0 0 1 .509-.577c.128-.057.285-.085.459-.085.149 0 .285.031.399.077.086.036.174.1.264.192Zm-11.141 0a.812.812 0 0 1 .178.31c.083.279.048.522.042.565v.006c-.005.034-.041.034-.041.034H8.96c.009.2.059.343.162.44.1.095.26.155.475.156.302 0 .446-.052.544-.088l.028-.01s.038-.013.052.023l.09.242c.02.041.005.056-.01.064-.088.046-.3.131-.701.132-.195 0-.365-.026-.505-.078a.866.866 0 0 1-.551-.557 1.355 1.355 0 0 1-.064-.423c0-.15.021-.292.061-.423a.91.91 0 0 1 .509-.577c.128-.057.286-.085.46-.085.148 0 .284.031.398.077.087.036.174.1.264.192Zm-3.876.518c.087 0 .16.002.217.006 0 0 .11.01.23.025v-.056c0-.176-.04-.26-.115-.315-.078-.057-.194-.086-.344-.086 0 0-.339-.004-.606.135-.013.007-.023.01-.023.01s-.033.011-.046-.021l-.098-.252c-.015-.037.012-.053.012-.053.125-.093.43-.149.43-.149.1-.02.268-.033.372-.033.278 0 .493.062.639.184.146.122.221.319.221.584v1.212s.003.035-.031.043c0 0-.051.014-.098.024-.046.01-.214.042-.35.064a2.63 2.63 0 0 1-.423.034 1.74 1.74 0 0 1-.368-.036.778.778 0 0 1-.283-.117.552.552 0 0 1-.182-.207.664.664 0 0 1-.063-.302.614.614 0 0 1 .276-.524.915.915 0 0 1 .29-.129 1.38 1.38 0 0 1 .343-.042Zm11.416-.725c.01.004.031.018.02.048-.012.036-.08.217-.104.278-.009.023-.024.039-.05.036 0 0-.08-.018-.153-.018a.7.7 0 0 0-.187.025.431.431 0 0 0-.294.293c-.03.084-.046.216-.046.348v.988c0 .022-.019.04-.042.04h-.365a.042.042 0 0 1-.043-.04V10.53a.04.04 0 0 1 .04-.04h.357a.04.04 0 0 1 .04.04v.162a.724.724 0 0 1 .594-.22c.091.005.21.029.233.037Zm-9.624 1.998a.04.04 0 0 1-.04.04h-.37a.039.039 0 0 1-.039-.04V9.679c0-.022.017-.04.04-.04h.369a.04.04 0 0 1 .04.04v2.828Z" clip-rule="evenodd"/>
</svg>
