<svg xmlns="http://www.w3.org/2000/svg" width="16" height="16" fill="none" viewBox="0 0 16 16">
  <path fill="#00A1E0" d="M10.314 8.54a.653.653 0 0 0 .088-.367.65.65 0 0 0-.087-.364c-.058-.085-.146-.126-.267-.126-.122 0-.21.041-.266.126a.655.655 0 0 0-.086.364c0 .157.029.28.086.366.057.086.144.128.266.128.121 0 .209-.042.266-.128ZM13.48 7.81a.522.522 0 0 0-.075.214h.662a.444.444 0 0 0-.062-.215.29.29 0 0 0-.26-.132c-.121 0-.208.047-.265.132ZM6.053 7.81a.526.526 0 0 0-.075.214h.662a.447.447 0 0 0-.062-.215.29.29 0 0 0-.26-.132c-.121 0-.208.047-.265.132ZM3.92 8.566a.186.186 0 0 0 .054.054c-.001 0 .083.065.271.054.133-.008.25-.033.25-.033v-.414s-.118-.02-.25-.021c-.19-.003-.27.066-.27.066-.056.038-.083.096-.083.176 0 .05.01.09.028.118Z"/>
  <path fill="#00A1E0" fill-rule="evenodd" d="M8.687 3.354c-.794 0-1.513.327-2.029.855a3.123 3.123 0 0 0-2.47-1.2C2.47 3.01 1.08 4.375 1.08 6.059c0 .43.091.84.255 1.212A2.646 2.646 0 0 0 0 9.566a2.66 2.66 0 0 0 2.67 2.65c.189 0 .372-.019.55-.056a2.876 2.876 0 0 0 2.7 1.85c1.189 0 2.21-.71 2.647-1.722.334.16.708.25 1.103.25.946 0 1.77-.512 2.201-1.27.22.044.447.067.68.067 1.905 0 3.449-1.53 3.449-3.418C16 6.03 14.456 4.5 12.55 4.5c-.496 0-.968.104-1.394.291a2.841 2.841 0 0 0-2.469-1.437Zm.757 3.506a.807.807 0 0 1 .092.021c.006.003.024.012.017.032l-.071.191c-.006.015-.01.023-.04.014a.558.558 0 0 0-.124-.018.328.328 0 0 0-.1.013.195.195 0 0 0-.077.048.268.268 0 0 0-.065.097 1.186 1.186 0 0 0-.048.197l-.001.009h.296c.025 0 .033.01.03.029l-.034.19c-.005.027-.031.026-.031.026h-.306L8.773 8.87c-.022.12-.05.223-.081.306a.598.598 0 0 1-.12.204.43.43 0 0 1-.172.117.69.69 0 0 1-.228.035.572.572 0 0 1-.22-.037c-.012-.004-.021-.018-.015-.036l.07-.186c.009-.023.033-.014.033-.014a.222.222 0 0 0 .05.016.35.35 0 0 0 .183-.007.172.172 0 0 0 .085-.065.456.456 0 0 0 .065-.13c.02-.057.04-.132.055-.224l.208-1.14h-.205c-.024 0-.032-.011-.03-.03l.035-.189c.005-.027.03-.026.03-.026h.211l.012-.062c.031-.183.094-.322.186-.413.093-.092.225-.139.393-.139.048 0 .09.004.126.01ZM2.317 8.714c-.008.021 0 .029.005.033l.002.003c.024.017.048.03.072.043l.02.01c.163.086.317.11.478.11.328 0 .532-.17.532-.447v-.005c0-.255-.23-.348-.446-.415l-.028-.009c-.163-.052-.303-.097-.303-.202V7.83c0-.09.082-.157.21-.157a.96.96 0 0 1 .416.105s.032.02.044-.01l.066-.176c.007-.017-.004-.03-.015-.037a.944.944 0 0 0-.47-.124h-.033c-.3 0-.51.179-.51.434v.006c0 .269.23.356.448.417l.035.01c.158.048.293.09.293.199v.005c0 .1-.088.174-.23.174a.787.787 0 0 1-.456-.14.755.755 0 0 0-.022-.013c-.01-.006-.033-.016-.043.015l-.065.176Zm4.81.033c-.005-.004-.013-.012-.005-.033l.065-.176c.01-.03.037-.019.043-.015l.011.007.043.027c.191.118.368.12.423.12.143 0 .231-.075.231-.175v-.005c0-.11-.135-.15-.293-.198l-.036-.01c-.216-.062-.448-.15-.448-.418v-.006c0-.255.21-.433.51-.433h.033c.177 0 .347.05.47.123.011.007.022.02.016.037l-.067.176c-.011.03-.043.01-.043.01a.96.96 0 0 0-.417-.105c-.127 0-.21.067-.21.157v.005c0 .105.141.15.304.202l.028.01c.216.066.446.159.446.414v.005c0 .276-.204.448-.532.448a.989.989 0 0 1-.479-.11l-.019-.01c-.024-.014-.048-.027-.072-.044l-.001-.002h-.001Zm3.425-1.096a.643.643 0 0 1 .124.233c.027.09.04.186.04.29 0 .102-.013.2-.04.289a.643.643 0 0 1-.124.233.586.586 0 0 1-.21.156.718.718 0 0 1-.294.057.719.719 0 0 1-.294-.057.587.587 0 0 1-.21-.156.648.648 0 0 1-.125-.233 1.005 1.005 0 0 1-.04-.29c0-.103.013-.2.04-.289a.605.605 0 0 1 .335-.39.703.703 0 0 1 .294-.058c.11 0 .21.02.293.057a.601.601 0 0 1 .21.158Zm2.34.958s.025-.01.034.016l.067.183a.024.024 0 0 1-.01.032c-.104.04-.248.068-.389.068-.237 0-.42-.067-.54-.2-.122-.132-.183-.313-.183-.536 0-.103.015-.2.045-.29a.632.632 0 0 1 .354-.39.757.757 0 0 1 .305-.058 1.084 1.084 0 0 1 .388.059c.007.003.025.011.017.032l-.045.125-.022.059c-.01.027-.032.018-.032.018a.925.925 0 0 0-.29-.04c-.135 0-.237.044-.303.13a.564.564 0 0 0-.106.355c0 .168.043.292.118.368.076.077.18.115.313.115a.635.635 0 0 0 .278-.046Zm1.317-.989c.038.04.096.127.119.213.055.192.032.36.028.389v.004c-.003.023-.028.024-.028.024l-.927-.001c.006.138.04.236.108.303.067.065.173.107.317.107.201 0 .297-.036.363-.06l.018-.007s.026-.01.035.015l.06.167c.013.028.003.038-.007.044-.058.031-.2.09-.467.09a.949.949 0 0 1-.337-.053.599.599 0 0 1-.368-.383.96.96 0 0 1-.042-.29c0-.104.014-.202.041-.291a.608.608 0 0 1 .34-.396.735.735 0 0 1 .305-.06c.1 0 .19.022.266.053a.544.544 0 0 1 .176.132Zm-7.427 0c.038.04.095.127.118.213.056.192.033.36.029.389v.004c-.003.023-.028.024-.028.024l-.927-.001c.006.138.04.236.108.303.067.065.173.107.317.107a.902.902 0 0 0 .363-.06l.018-.007s.026-.01.035.015l.06.167c.013.028.003.038-.007.044-.059.031-.2.09-.468.09a.95.95 0 0 1-.336-.053.599.599 0 0 1-.368-.383 1.013 1.013 0 0 1-.001-.582.608.608 0 0 1 .34-.396.736.736 0 0 1 .305-.058c.1 0 .19.02.266.052a.544.544 0 0 1 .176.132Zm-2.584.356a2.095 2.095 0 0 1 .298.022V7.96c0-.122-.026-.18-.077-.217a.378.378 0 0 0-.23-.06s-.225-.002-.403.093a.121.121 0 0 1-.015.008s-.023.007-.03-.015l-.066-.173c-.01-.026.008-.037.008-.037.083-.064.286-.102.286-.102.067-.013.179-.023.248-.023.186 0 .329.042.426.126.098.084.148.22.148.402v.833s.002.024-.021.03c0 0-.034.01-.065.016-.031.007-.143.03-.234.045a1.704 1.704 0 0 1-.281.023c-.09 0-.173-.009-.246-.025a.512.512 0 0 1-.189-.08.376.376 0 0 1-.12-.143.469.469 0 0 1-.043-.208c0-.079.016-.15.05-.21a.442.442 0 0 1 .134-.15.6.6 0 0 1 .193-.088.894.894 0 0 1 .229-.029Zm7.61-.498a.024.024 0 0 1 .014.033c-.008.025-.053.15-.07.191-.005.016-.015.027-.033.025 0 0-.053-.013-.102-.013a.455.455 0 0 0-.124.018.286.286 0 0 0-.115.067.343.343 0 0 0-.081.134.783.783 0 0 0-.03.24v.678a.028.028 0 0 1-.029.028h-.243a.028.028 0 0 1-.029-.028V7.493c0-.016.011-.028.027-.028h.238c.015 0 .026.012.026.028v.11a.47.47 0 0 1 .396-.151c.061.004.14.02.156.026ZM5.394 8.851a.027.027 0 0 1-.027.028H5.12c-.016 0-.027-.012-.027-.028V6.907c0-.015.011-.027.027-.027h.246c.015 0 .027.012.027.027v1.944Z" clip-rule="evenodd"/>
</svg>
