<svg xmlns="http://www.w3.org/2000/svg" xlink="http://www.w3.org/1999/xlink" width="22" height="22" viewBox="0 0 22 22"><path d="M5.5,5 C5.224,5 5,4.776 5,4.5 L5,2 L6.5,2 C7.053,2 7.5,1.553 7.5,1 C7.5,0.447 7.947,0 8.5,0 L9.5,0 C10.053,0 10.5,0.447 10.5,1 C10.5,1.553 10.947,2 11.5,2 L13,2 L13,4.5 C13,4.776 12.776,5 12.5,5 L5.5,5 Z M15,19.5 L15,17.829 L17,15.829 L17,19.5 C17,20.879 15.879,22 14.5,22 L2.5,22 C1.121,22 0,20.879 0,19.5 L0,4.5 C0,3.121 1.121,2 2.5,2 L4,2 L4,4 L2.5,4 C2.225,4 2,4.225 2,4.5 L2,19.5 C2,19.775 2.225,20 2.5,20 L14.5,20 C14.775,20 15,19.775 15,19.5 Z M21.7677,7.1083 C22.0777,7.4183 22.0777,7.9223 21.7677,8.2333 L12.9997,17.0003 L9.9997,17.0003 L9.9997,14.0003 L18.7677,5.2333 C19.0777,4.9223 19.5817,4.9223 19.8927,5.2333 L21.7677,7.1083 Z M10.8047,16.1953 L13.0547,16.1953 L10.8047,13.9453 L10.8047,16.1953 Z M15,4.5 C15,4.225 14.775,4 14.5,4 L14,4 L14,2 L14.5,2 C15.826,2 16.903,3.04 16.984,4.347 L15.001,6.329 L15,4.5 Z"/></svg>
