<svg xmlns="http://www.w3.org/2000/svg" xlink="http://www.w3.org/1999/xlink" width="16" height="16" viewBox="0 0 16 16"><path d="M6.5979,9.3058 L13.9049,1.9998 L15.9999,4.0948 L8.6929,11.4008 L5.9999,12.0008 L6.5979,9.3058 Z M7.1889,9.4178 L6.7899,11.2098 L8.5819,10.8078 L7.1889,9.4178 Z M11,14 L11,11.976 L13,9.976 L13,15 C13,15.6 12.6,16 12,16 L1,16 C0.4,16 0,15.6 0,15 L0,2 C0,1.4 0.4,1 1,1 L3,1 L3,3 L2,3 L2,14 L11,14 Z M11,3 L4,3 L4,1 L6.092,1 C6.299,0.419 6.848,0 7.5,0 C8.152,0 8.701,0.419 8.908,1 L11,1 L11,3 Z"/></svg>
