<svg width="24" height="24" viewBox="0 0 24 24" xmlns="http://www.w3.org/2000/svg"><path fill-rule="evenodd" clip-rule="evenodd" d="M5 9a2.997 2.997 0 0 0 2.816-2H21a1 1 0 1 0 0-2H7.816A2.997 2.997 0 0 0 5 3C3.346 3 2 4.346 2 6s1.346 3 3 3Zm1-3a1 1 0 1 0-2 0 1 1 0 0 0 2 0Zm15 5h-6.184A2.997 2.997 0 0 0 12 9a2.995 2.995 0 0 0-2.815 2H3a1 1 0 1 0 0 2h6.184A2.997 2.997 0 0 0 12 15a2.996 2.996 0 0 0 2.816-2H21a1 1 0 1 0 0-2Zm-10 1a1 1 0 1 0 2 0 1 1 0 0 0-2 0Zm5.184 5A2.997 2.997 0 0 1 19 15c1.654 0 3 1.346 3 3s-1.346 3-3 3a2.995 2.995 0 0 1-2.815-2H3a1 1 0 1 1 0-2h13.184ZM18 18a1 1 0 1 0 2 0 1 1 0 0 0-2 0Z"/></svg>