<svg xmlns="http://www.w3.org/2000/svg" xlink="http://www.w3.org/1999/xlink" width="22" height="22" viewBox="0 0 22 22"><path d="M11,1 C16.514,1 21,5.486 21,11 C21,16.514 16.514,21 11,21 C5.486,21 1,16.514 1,11 C1,5.486 5.486,1 11,1 Z M11,19 C15.411,19 19,15.411 19,11 C19,6.589 15.411,3 11,3 C6.589,3 3,6.589 3,11 C3,15.411 6.589,19 11,19 Z M11.5,6 C12.328,6 13,6.671 13,7.5 C13,8.329 12.328,9 11.5,9 C10.672,9 10,8.329 10,7.5 C10,6.671 10.672,6 11.5,6 Z M11.1973,14.3115 C11.1423,14.5345 11.3123,14.7495 11.5423,14.7495 L13.0003,14.7495 L13.0003,15.9995 L10.6383,15.9995 C10.1753,15.9995 9.7443,15.7905 9.4573,15.4255 C9.1713,15.0605 9.0693,14.5925 9.1793,14.1425 L9.7773,11.6885 C9.8323,11.4655 9.6623,11.2495 9.4323,11.2495 L8.0003,11.2495 L8.0003,9.8955 L10.3613,9.8955 C10.8253,9.8955 11.2563,10.1055 11.5433,10.4705 C11.8293,10.8345 11.9293,11.3025 11.8203,11.7535 L11.1973,14.3115 Z"/></svg>
