<svg xmlns="http://www.w3.org/2000/svg" xlink="http://www.w3.org/1999/xlink" width="16" height="16" viewBox="0 0 16 16"><path d="M8,0 C12.411,0 16,3.589 16,8 C16,12.411 12.411,16 8,16 C3.589,16 0,12.411 0,8 C0,3.589 3.589,0 8,0 Z M8,15 C11.86,15 15,11.859 15,8 C15,4.141 11.86,1 8,1 C4.14,1 1,4.141 1,8 C1,11.859 4.14,15 8,15 Z M8,6 L8,4 L10,4 L10,6 L8,6 Z M9.1685,8.4336 L8.5265,10.9996 L10.0005,10.9996 L10.0005,11.9996 L7.9495,11.9996 C7.5915,11.9996 7.2605,11.8376 7.0405,11.5556 C6.8205,11.2746 6.7445,10.9126 6.8315,10.5666 L7.4735,7.9996 L6.0005,7.9996 L6.0005,6.9996 L8.0505,6.9996 C8.4085,6.9996 8.7395,7.1626 8.9595,7.4436 C9.1795,7.7266 9.2555,8.0856 9.1685,8.4336 Z"/></svg>
