<svg xmlns="http://www.w3.org/2000/svg" xlink="http://www.w3.org/1999/xlink" width="16" height="16" viewBox="0 0 16 16"><path d="M0,-0.0003 L6,-0.0003 L6,14.9997 L0,14.9997 L0,13.0007 L4,13.0007 L4,2.0007 L0,2.0007 L0,-0.0003 Z M0,7 L0,6 L3,6 L3,7 L0,7 Z M0,5 L0,4 L3,4 L3,5 L0,5 Z M0,9 L0,8 L3,8 L3,9 L0,9 Z M0,11 L0,9.999 L3,9.999 L3,11 L0,11 Z M9.7596,3.2325 L10.9946,2.0005 L15.9996,6.9995 L15.9996,7.0015 L10.9946,12.0005 L9.7596,10.7675 L12.5316,7.9995 L8.0006,7.9995 L8.0006,6.0005 L12.5316,6.0005 L9.7596,3.2325 Z"/></svg>
