<svg xmlns="http://www.w3.org/2000/svg" xlink="http://www.w3.org/1999/xlink" width="12" height="12" viewBox="0 0 12 12"><path d="M0,0.0002 L5,0.0002 L5,11.0002 L0,11.0002 L0,10.0002 L4,10.0002 L4,1.0002 L0,1.0002 L0,0.0002 Z M0,3 L0,2 L3,2 L3,3 L0,3 Z M0,5 L0,4 L3,4 L3,5 L0,5 Z M0,7 L0,5.999 L3,5.999 L3,7 L0,7 Z M0,9 L0,8 L3,8 L3,9 L0,9 Z M7.9398,2.8532 L8.6458,2.1472 L11.9998,5.5002 L8.6458,8.8532 L7.9398,8.1462 L10.0858,5.9992 L6.0008,5.9992 L6.0008,4.9992 L10.0858,4.9992 L7.9398,2.8532 Z"/></svg>
