<svg width="16" height="16" viewBox="0 0 16 16" xmlns="http://www.w3.org/2000/svg">
  <path fill-rule="evenodd" clip-rule="evenodd" d="M8 1a6.9 6.9 0 0 0-4.54 1.71 7.33 7.33 0 0 0-1.45 9.18A7.03 7.03 0 0 0 5.8 15c.35.06.47-.16.47-.35v-1.22c-1.95.43-2.36-.96-2.36-.96a1.9 1.9 0 0 0-.78-1.05c-.64-.45.05-.44.05-.44a1.45 1.45 0 0 1 1.07.74 1.52 1.52 0 0 0 .9.74 1.46 1.46 0 0 0 1.14-.14c.03-.37.19-.7.44-.96-1.55-.18-3.18-.8-3.18-3.55-.01-.71.24-1.4.72-1.92-.22-.62-.2-1.3.06-1.9 0 0 .6-.2 1.93.73a6.47 6.47 0 0 1 3.5 0c1.34-.93 1.93-.73 1.93-.73.25.6.28 1.28.07 1.9.47.52.73 1.2.71 1.92 0 2.76-1.63 3.37-3.19 3.54a1.72 1.72 0 0 1 .48 1.33l-.01 1.97c0 .2.12.42.48.35a7.03 7.03 0 0 0 3.77-3.1 7.33 7.33 0 0 0-1.46-9.18A6.9 6.9 0 0 0 8 1Z" fill="#231E1B"/>
</svg>
