<svg width="22" height="22" viewBox="0 0 22 22" fill="none" xmlns="http://www.w3.org/2000/svg">
  <path fill-rule="evenodd" clip-rule="evenodd" d="M11.24 1a10.24 10.24 0 00-3.23 19.96c.5.1.7-.22.7-.5l-.02-1.73c-2.85.62-3.45-1.38-3.45-1.38a2.71 2.71 0 00-1.14-1.5c-.93-.63.07-.62.07-.62a2.15 2.15 0 011.58 1.06 2.18 2.18 0 002.98.85c.04-.52.27-1 .65-1.37-2.28-.26-4.67-1.14-4.67-5.06-.01-1.02.36-2 1.06-2.75a3.69 3.69 0 01.1-2.71s.86-.28 2.81 1.05a9.7 9.7 0 015.13 0c1.96-1.33 2.82-1.05 2.82-1.05.37.86.41 1.83.1 2.7.69.76 1.07 1.74 1.05 2.76 0 3.93-2.4 4.8-4.68 5.05a2.45 2.45 0 01.7 1.9l-.01 2.8c0 .28.18.6.7.5A10.24 10.24 0 0011.24 1z" fill="#231E1B"/>
</svg>
