<svg width="16" height="16" viewBox="0 0 16 16" fill="none" xmlns="http://www.w3.org/2000/svg">
  <g clip-path="url(#clip0)">
    <path fill-rule="evenodd" clip-rule="evenodd" d="M7.74 0A7.74 7.74 0 005.3 15.1c.38.06.52-.18.52-.38V13.4c-2.16.47-2.61-1.04-2.61-1.04a2.05 2.05 0 00-.86-1.13c-.7-.48.05-.47.05-.47a1.63 1.63 0 011.19.8 1.65 1.65 0 002.25.64c.04-.4.21-.76.5-1.03-1.73-.2-3.53-.86-3.53-3.83a3 3 0 01.8-2.08c-.24-.67-.22-1.4.07-2.05 0 0 .65-.2 2.13.8a7.33 7.33 0 013.88 0c1.47-1 2.12-.8 2.12-.8.29.65.32 1.38.08 2.05.52.57.8 1.3.8 2.08 0 2.97-1.81 3.63-3.54 3.82a1.85 1.85 0 01.53 1.43l-.01 2.13c0 .2.14.45.53.37A7.74 7.74 0 007.74 0z" fill="#231E1B"/>
  </g>
  <defs>
    <clipPath id="clip0">
      <path fill="#fff" d="M0 0h16v16H0z"/>
    </clipPath>
  </defs>
</svg>
