<svg width="12" height="12" viewBox="0 0 12 12" fill="none" xmlns="http://www.w3.org/2000/svg">
  <g clip-path="url(#clip0)">
    <path fill-rule="evenodd" clip-rule="evenodd" d="M5.75 0a5.75 5.75 0 00-1.82 11.2c.29.05.4-.13.4-.28l-.02-.98c-1.6.35-1.93-.77-1.93-.77-.1-.34-.33-.64-.64-.84-.52-.35.04-.35.04-.35a1.2 1.2 0 01.88.6 1.22 1.22 0 001.67.47c.03-.29.16-.56.37-.76-1.28-.15-2.62-.64-2.62-2.84 0-.57.2-1.13.6-1.55-.18-.5-.16-1.04.05-1.52 0 0 .48-.15 1.58.6a5.44 5.44 0 012.88 0c1.1-.75 1.58-.6 1.58-.6.2.48.23 1.03.05 1.52.4.42.6.98.6 1.55 0 2.2-1.35 2.69-2.63 2.83a1.37 1.37 0 01.39 1.07v1.57c0 .16.1.33.39.28A5.75 5.75 0 005.75 0z" fill="#231E1B"/>
  </g>
  <defs>
    <clipPath id="clip0">
      <path fill="#fff" d="M0 0h12v12H0z"/>
    </clipPath>
  </defs>
</svg>
