<svg xmlns="http://www.w3.org/2000/svg" xlink="http://www.w3.org/1999/xlink" width="22" height="22" viewBox="0 0 22 22"><path d="M7.5,1 C11.642,1 15,4.3 15,8.37 C15,8.686 14.974,8.986 14.935,9.289 C14.294,15.041 7.984,21.68 7.984,21.68 C7.872,21.801 7.665,22 7.5,22 C7.335,22 7.128,21.801 7.016,21.68 C7.016,21.68 0.706,15.041 0.065,9.289 C0.026,8.986 0,8.686 0,8.37 C0,4.3 3.358,1 7.5,1 Z M7.5,12 C9.433,12 11,10.433 11,8.5 C11,6.567 9.433,5 7.5,5 C5.567,5 4,6.567 4,8.5 C4,10.433 5.567,12 7.5,12 Z M20.75,10 C21.44,10 22,10.56 22,11.25 L22,11.75 C22,12.44 21.44,13 20.75,13 L18.25,13 C17.56,13 17,12.44 17,11.75 L17,11.25 C17,10.56 17.56,10 18.25,10 L20.75,10 Z M20.75,16 C21.44,16 22,16.56 22,17.25 L22,17.75 C22,18.44 21.44,19 20.75,19 L16.25,19 C15.56,19 15,18.44 15,17.75 L15,17.25 C15,16.56 15.56,16 16.25,16 L20.75,16 Z M20.75,4 C21.44,4 22,4.56 22,5.25 L22,5.75 C22,6.44 21.44,7 20.75,7 L18.25,7 C17.56,7 17,6.44 17,5.75 L17,5.25 C17,4.56 17.56,4 18.25,4 L20.75,4 Z"/></svg>
