<svg xmlns="http://www.w3.org/2000/svg" xlink="http://www.w3.org/1999/xlink" width="16" height="16" viewBox="0 0 16 16"><path d="M5.5,0 C8.531,0 11,2.5 11,5.625 C11,8.344 9.495,11.15 8.183,13.089 C7.088,14.683 6.146,16 5.5,16 C4.854,16 3.912,14.683 2.817,13.089 C1.505,11.15 0,8.344 0,5.625 C0,2.5 2.469,0 5.5,0 Z M5.5,8 C6.875,8 8,6.875 8,5.5 C8,4.125 6.875,3 5.5,3 C4.125,3 3,4.125 3,5.5 C3,6.875 4.125,8 5.5,8 Z M13,5 L13,3 L16,3 L16,5 L13,5 Z M13,9 L13,7 L16,7 L16,9 L13,9 Z M12,13 L13,11 L16,11 L16,13 L12,13 Z"/></svg>
