<svg xmlns="http://www.w3.org/2000/svg" xlink="http://www.w3.org/1999/xlink" width="12" height="12" viewBox="0 0 12 12"><path d="M4,0 C6.208,0 8,1.886 8,4.211 C8,4.392 7.986,4.563 7.965,4.736 C7.684,7.443 5.309,10.653 4.395,11.658 C4.208,11.863 4.092,12 4,12 C3.908,12 3.792,11.863 3.605,11.658 C2.691,10.653 0.316,7.443 0.035,4.736 C0.014,4.563 0,4.392 0,4.211 C0,1.886 1.792,0 4,0 Z M4,6 C5.104,6 6,5.104 6,4 C6,2.896 5.105,2 4,2 C2.893,2 2,2.896 2,4 C2,5.104 2.896,6 4,6 Z M9,4 L9,2 L12,2 L12,4 L9,4 Z M9,7 L9,5 L12,5 L12,7 L9,7 Z M8,10 L9,8 L12,8 L12,10 L8,10 Z"/></svg>
