<svg xmlns="http://www.w3.org/2000/svg" xlink="http://www.w3.org/1999/xlink" width="22" height="22" viewBox="0 0 22 22"><path d="M0,4.9995 L10,4.9995 L10,7.0005 L2,7.0005 L2,18.0005 L15.001,18.0005 L15.001,11.9995 L17,11.9995 L17,19.9995 L0,19.9995 L0,4.9995 Z M9.0879,15.5486 L10.9999,12.9996 L13.9999,16.9996 L2.9999,16.9996 L6.2309,10.9996 L9.0879,15.5486 Z M11.5,11.9998 C10.671,11.9998 10,11.3278 10,10.4998 C10,9.6718 10.671,8.9998 11.5,8.9998 C12.329,8.9998 13,9.6718 13,10.4998 C13,11.3278 12.329,11.9998 11.5,11.9998 Z M16.0002,0 L19.0002,0 L19.0002,3 L21.9992,3 L21.9992,5.999 L19.0002,5.999 L19.0002,9 L16.0002,9 L16.0002,5.999 L12.9992,5.999 L12.9992,3 L16.0002,3 L16.0002,0 Z"/></svg>
