<svg xmlns="http://www.w3.org/2000/svg" xlink="http://www.w3.org/1999/xlink" width="16" height="16" viewBox="0 0 16 16"><path d="M0,4.0002 L8,4.0002 L8,5.0002 L1,5.0002 L1,14.0002 L12,14.0002 L12,8.9992 L13,8.9992 L13,15.0002 L0,15.0002 L0,4.0002 Z M7.334,11.8887 L8.75,9.9997 L11,12.9997 L2,12.9997 L5,7.9997 L7.334,11.8887 Z M11.9997,0.9996 L14.0007,0.9996 L14.0007,3.0006 L16.0007,3.0006 L16.0007,5.0006 L14.0007,5.0006 L14.0007,6.9996 L11.9997,6.9996 L11.9997,5.0006 L9.9997,5.0006 L9.9997,3.0006 L11.9997,3.0006 L11.9997,0.9996 Z M7,7.5 C7,6.672 7.672,6 8.5,6 C9.328,6 10,6.672 10,7.5 C10,8.328 9.328,9 8.5,9 C7.672,9 7,8.328 7,7.5 Z"/></svg>
