<svg xmlns="http://www.w3.org/2000/svg" xlink="http://www.w3.org/1999/xlink" width="22" height="22" viewBox="0 0 22 22"><path d="M0,15 C0,14.5 0.5,14 1,14 L6,14 L6,17 L1,17 C0.5,17 0,16.5 0,16 L0,15 Z M1,5 C0.5,5 0,4.5 0,4 L0,3 C0,2.5 0.5,2 1,2 L15,2 C15.5,2 16,2.5 16,3 L16,4 C16,4.5 15.5,5 15,5 L1,5 Z M1,11 C0.5,11 0,10.5 0,10 L0,9 C0,8.5 0.5,8 1,8 L12,8 L12,11 L1,11 Z M19.5215,9.7671 L22.0005,12.2461 L13.2475,21.0001 L8.0005,15.7531 L10.4785,13.2731 L13.2475,16.0411 L19.5215,9.7671 Z"/></svg>
