<svg xmlns="http://www.w3.org/2000/svg" xlink="http://www.w3.org/1999/xlink" width="16" height="16" viewBox="0 0 16 16"><path d="M0.498,4 C0.223,4 0,3.777 0,3.502 L0,2.498 C0,2.223 0.223,2 0.498,2 L12.502,2 C12.777,2 13,2.223 13,2.498 L13,3.502 C13,3.777 12.777,4 12.502,4 L0.498,4 Z M0.498,8 C0.223,8 0,7.777 0,7.502 L0,6.498 C0,6.223 0.223,6 0.498,6 L8.502,6 C8.777,6 9,6.223 9,6.498 L9,7.502 C9,7.777 8.777,8 8.502,8 L0.498,8 Z M9.3223,15 L5.7323,11.411 L7.5003,9.643 L9.3223,11.465 L14.2323,6.554 L16.0003,8.322 L9.3223,15 Z M3.5039,12 L0.4959,12 C0.2229,12 -0.0001,11.778 -0.0001,11.503 L-0.0001,10.497 C-0.0001,10.222 0.2229,10 0.4959,10 L3.5039,10 C3.7769,10 3.9999,10.222 3.9999,10.497 L3.9999,11.503 C3.9999,11.778 3.7769,12 3.5039,12 Z"/></svg>
