<svg width="12" height="12" viewBox="0 0 12 12" xmlns="http://www.w3.org/2000/svg" xmlns:xlink="http://www.w3.org/1999/xlink"><path d="M10.826 5.24l1.174 1.174-4.587 4.587-2.587-2.587 1.174-1.174 1.413 1.413 3.413-3.413zm-7.327 1.761c.276 0 .501.224.501.501v.998c0 .277-.225.501-.501.501h-2.998c-.276 0-.501-.224-.501-.501v-.998c0-.277.225-.501.501-.501zm4-3c.276 0 .501.224.501.501v.998c0 .277-.225.501-.501.501h-6.998c-.276 0-.501-.224-.501-.501v-.998c0-.277.225-.501.501-.501zm3.043-3.001c.252 0 .458.225.458.5v1c0 .275-.206.5-.458.5h-10.083c-.252 0-.458-.225-.458-.5v-1c0-.275.206-.5.458-.5z"/></svg>