<svg xmlns="http://www.w3.org/2000/svg" xlink="http://www.w3.org/1999/xlink" width="22" height="22" viewBox="0 0 22 22"><path d="M10.9995,0.9999 C11.2145,0.9999 11.4305,1.1109 11.5405,1.3339 L14.3025,6.9099 L20.4815,7.8039 C20.9765,7.8749 21.1735,8.4789 20.8165,8.8239 L16.3435,13.1669 L17.3985,19.2979 C17.4665,19.6859 17.1555,19.9999 16.8045,19.9999 C16.7125,19.9999 16.6155,19.9779 16.5225,19.9299 L10.9995,17.0369 L5.4765,19.9299 C5.3835,19.9779 5.2865,19.9999 5.1945,19.9999 C4.8435,19.9999 4.5325,19.6859 4.6005,19.2979 L5.6555,13.1669 L1.1825,8.8239 C0.8255,8.4789 1.0225,7.8749 1.5175,7.8039 L7.6965,6.9099 L10.4585,1.3339 C10.5685,1.1109 10.7845,0.9999 10.9995,0.9999 Z M10.9995,5.4229 L9.2215,9.0129 L5.2675,9.5849 L8.1275,12.3619 L7.4505,16.2989 L10.9995,14.4399 L14.5485,16.2989 L13.8715,12.3619 L16.7315,9.5849 L12.7775,9.0129 L10.9995,5.4229 Z"/></svg>
