<svg xmlns="http://www.w3.org/2000/svg" xlink="http://www.w3.org/1999/xlink" width="16" height="16" viewBox="0 0 16 16"><path d="M8,0 C8.172,0 8.344,0.088 8.433,0.264 L10.643,4.665 L15.587,5.371 C15.982,5.428 16.14,5.903 15.854,6.177 L12.275,9.606 L13.119,14.446 C13.174,14.752 12.926,15 12.645,15 C12.57,15 12.493,14.982 12.419,14.944 L8,12.66 L3.581,14.944 C3.507,14.982 3.43,15 3.355,15 C3.074,15 2.826,14.752 2.881,14.446 L3.725,9.606 L0.146,6.177 C-0.14,5.903 0.018,5.428 0.413,5.371 L5.357,4.665 L7.567,0.264 C7.656,0.088 7.828,0 8,0 Z M8,2.968 L6.412,6.131 L2.929,6.628 L5.447,9.041 L4.846,12.489 L8,10.859 L11.154,12.489 L10.553,9.041 L13.071,6.628 L9.588,6.131 L8,2.968 Z"/></svg>
