<svg xmlns="http://www.w3.org/2000/svg" xlink="http://www.w3.org/1999/xlink" width="12" height="12" viewBox="0 0 12 12"><path d="M6.0001,-0.0002 C6.1271,-0.0002 6.2541,0.0638 6.3201,0.1908 L7.9801,3.4238 L11.6931,3.9418 C11.9861,3.9828 12.1041,4.3298 11.8911,4.5278 L9.2031,7.0448 L9.8391,10.5978 C9.8771,10.8198 9.6931,10.9998 9.4851,10.9998 C9.4311,10.9998 9.3741,10.9878 9.3201,10.9598 L6.0001,9.2828 L2.6801,10.9598 C2.6251,10.9878 2.5681,10.9998 2.5141,10.9998 C2.3061,10.9998 2.1211,10.8198 2.1601,10.5978 L2.7951,7.0448 L0.1081,4.5278 C-0.1039,4.3298 0.0141,3.9828 0.3071,3.9418 L4.0201,3.4238 L5.6801,0.1908 C5.7441,0.0638 5.8721,-0.0002 6.0001,-0.0002 Z M6.0001,2.3038 L4.8341,4.5728 L2.3541,4.9188 L4.1461,6.5968 L3.7091,9.0398 L6.0001,7.8818 L8.2911,9.0398 L7.8541,6.5968 L9.6461,4.9188 L7.1641,4.5728 L6.0001,2.3038 Z"/></svg>
