<svg xmlns="http://www.w3.org/2000/svg" xlink="http://www.w3.org/1999/xlink" width="16" height="16" viewBox="0 0 16 16"><path d="M8.9998,6.0818 C9.3888,5.4678 10.0818,4.5908 11.6348,4.5908 C13.5588,4.5908 14.9998,5.8808 14.9998,8.6528 L14.9998,13.9998 L11.9998,13.9998 L11.9998,8.9998 C11.9998,7.7868 11.6548,6.9588 10.5968,6.9588 C9.7888,6.9588 9.3088,7.5168 9.0978,8.0568 C9.0198,8.2498 8.9998,8.5178 8.9998,8.7878 L8.9998,13.9998 L5.9998,13.9998 L5.9998,4.9998 L8.9998,4.9998 L8.9998,6.0818 Z M1,14 L1,5 L4,5 L4,14 L1,14 Z M2.5,1 C3.328,1 4,1.672 4,2.5 C4,3.328 3.328,4 2.5,4 C1.672,4 1,3.328 1,2.5 C1,1.672 1.672,1 2.5,1 Z"/></svg>
