<svg xmlns="http://www.w3.org/2000/svg" xlink="http://www.w3.org/1999/xlink" width="12" height="12" viewBox="0 0 12 12"><path d="M5.01141535,12.0001 C3.93952472,12.0001 2.93122082,11.5881 2.1732266,10.8381 C0.608791132,9.2921 0.608791132,6.7751 2.1732266,5.2281 L6.50015233,0.8651 C7.6669184,-0.2879 9.55938066,-0.2879 10.7231188,0.8621 C11.2873249,1.4191 11.597184,2.1601 11.597184,2.9481 C11.597184,3.7351 11.2873249,4.4761 10.7231188,5.0331 L6.76055514,9.0371 C6.01568199,9.7731 4.7328449,9.7701 3.99200901,9.0401 C3.62360968,8.6751 3.41972842,8.1891 3.41972842,7.6741 C3.41972842,7.1571 3.62360968,6.6721 3.99200901,6.3071 L7.26622105,3.0711 L7.84960409,3.6461 L4.57539204,6.8821 C4.36040833,7.0941 4.24332799,7.3751 4.24332799,7.6741 C4.24332799,7.9721 4.36040833,8.2531 4.57539204,8.4651 C5.0154526,8.9011 5.73509292,8.9011 6.17515348,8.4651 L10.1377171,4.4611 C10.5495169,4.0551 10.7735845,3.5181 10.7735845,2.9481 C10.7735845,2.3771 10.5495169,1.8401 10.1407451,1.4371 C9.29897785,0.6051 7.92833052,0.6051 7.08555399,1.4371 L2.75963758,5.8001 C1.51212645,7.0331 1.51212645,9.0331 2.75660964,10.2631 C3.9607203,11.4541 6.06311971,11.4541 7.26622105,10.2631 L11.4124797,6.1641 L11.9999,6.7391 L7.84960409,10.8381 C7.09261918,11.5881 6.08330597,12.0001 5.01141535,12.0001"/></svg>
