<svg width="24" height="24" viewBox="0 0 24 24" xmlns="http://www.w3.org/2000/svg"><path fill-rule="evenodd" clip-rule="evenodd" d="M1 11.67C1 5.539 5.803 1 12 1s11 4.539 11 10.67-4.803 10.67-11 10.67a12 12 0 0 1-3.184-.423.878.878 0 0 0-.588.043l-2.183.964a.88.88 0 0 1-1.235-.778l-.06-1.957a.879.879 0 0 0-.295-.627C2.315 17.648 1 14.877 1 11.67Zm7.626-2.006L5.395 14.79c-.31.492.294 1.047.757.695l3.471-2.634a.66.66 0 0 1 .795-.002l2.57 1.927a1.65 1.65 0 0 0 2.386-.44l3.231-5.126c.31-.492-.294-1.047-.758-.695l-3.47 2.634a.66.66 0 0 1-.795.002l-2.57-1.927a1.65 1.65 0 0 0-2.386.44Z"/></svg>