<svg width="16" height="16" viewBox="0 0 16 16" xmlns="http://www.w3.org/2000/svg"><path fill-rule="evenodd" clip-rule="evenodd" d="M16 7.5c0 4.142-3.582 7.5-8 7.5-.96 0-1.881-.159-2.734-.45L3.6 15.8A1 1 0 0 1 2 15v-2.5l.058.022C.778 11.192 0 9.432 0 7.5 0 3.358 3.582 0 8 0s8 3.358 8 7.5ZM5.546 6.301l-2.35 3.728c-.225.358.214.761.551.506l2.525-1.916a.48.48 0 0 1 .578-.002l1.869 1.402a1.2 1.2 0 0 0 1.735-.32l2.35-3.728c.226-.358-.214-.761-.551-.506L9.728 7.381a.48.48 0 0 1-.578.002L7.281 5.98a1.2 1.2 0 0 0-1.735.32Z"/></svg>