<svg width="24" height="24" viewBox="0 0 24 24" xmlns="http://www.w3.org/2000/svg"><path d="M17.5 8a1.5 1.5 0 1 0 0-3 1.5 1.5 0 0 0 0 3Z"/><path fill-rule="evenodd" clip-rule="evenodd" d="M12.27 2.178 1.441 13.006a1.508 1.508 0 0 0 0 2.133l7.42 7.42a1.51 1.51 0 0 0 2.133 0L21.822 11.73A4.022 4.022 0 0 0 23 8.887V3.01C23 1.901 22.1 1 20.989 1h-5.876c-1.066 0-2.09.424-2.844 1.178ZM9.927 20.781l-6.709-6.709L13.691 3.6a2.011 2.011 0 0 1 1.422-.589h5.876v5.876c0 .533-.212 1.045-.59 1.422L9.929 20.78Z"/></svg>