<svg xmlns="http://www.w3.org/2000/svg" width="32" height="22" viewBox="0 0 32 22"><g fill="none"><path fill="#00ADEF" d="M32 20c0 1.1-.9 2-2 2h-28c-1.1 0-2-.9-2-2v-18c0-1.1.9-2 2-2h28c1.1 0 2 .9 2 2v18z"/><path fill="#FFF" d="M31 13.4l-2.4-2.8 2.4-2.8v-.8h-1.4l-2 2.3-1.9-2.3h-6.3v7h6.2l2-2.3 1.9 2.3h1.5v-.6zm-6.2-.9h-3.9v-1.4h3.4v-1.4h-3.4v-1.2h3.9l1.7 2-1.7 2zm-11.4-.8l-2-4.7h-2.6v6.6l-2.7-6.6h-2.3l-2.8 7h1.7l.6-1.6h3.3l.6 1.6h3.2v-5.5l2.3 5.5h1.3l2.3-5.5v5.5h1.6v-7h-2.6l-1.9 4.7zm-9.5-.7l1.1-2.8 1 2.8h-2.1z"/></g></svg>