<svg xmlns="http://www.w3.org/2000/svg" width="32" height="22" viewBox="0 0 32 22"><g fill="none"><path fill="#000" d="M32 20c0 1.1-.9 2-2 2h-28c-1.1 0-2-.9-2-2v-18c0-1.1.9-2 2-2h28c1.1 0 2 .9 2 2v18z"/><path fill="#FFF" d="M30 1c.551 0 1 .448 1 1v18c0 .552-.449 1-1 1h-28c-.551 0-1-.448-1-1v-18c0-.552.449-1 1-1h28"/><path fill="#000" d="M10.7 10.866c0 1.65 1.466 2.2 1.466 2.2 0 .092-.275.917-.824 1.651-.551.733-1.1 1.283-1.742 1.283-.733 0-1.008-.734-1.834-.734-.824 0-1.1.734-1.833.734-.733 0-1.283-.734-1.741-1.375-.642-.917-1.192-2.292-1.192-3.667 0-.734.183-1.283.458-1.833.458-.825 1.284-1.375 2.292-1.375.733 0 1.375.733 1.833.733.458 0 1.192-.733 2.017-.733.733 0 1.558.183 2.291 1.009-.091.09-1.191.732-1.191 2.107zm-.825-5.866c0 .55-.275 1.191-.642 1.558-.458.458-1.1.734-1.65.734 0-.551.275-1.193.734-1.651.366-.366 1.008-.641 1.558-.641zm7.416 2.477c1.367 0 2.319.943 2.319 2.315 0 1.377-.971 2.324-2.353 2.324h-1.514v2.407h-1.094v-7.046h2.642zm-1.548 3.721h1.255c.952 0 1.494-.513 1.494-1.401 0-.889-.542-1.397-1.489-1.397h-1.26v2.798zm3.837 1.865c0-.899.688-1.45 1.909-1.519l1.406-.083v-.395c0-.571-.386-.913-1.03-.913-.611 0-.991.293-1.084.752h-.996c.058-.928.849-1.612 2.119-1.612 1.245 0 2.041.66 2.041 1.69v3.54h-1.011v-.845h-.024c-.298.571-.948.933-1.621.933-1.006 0-1.709-.625-1.709-1.548zm3.315-.464v-.405l-1.265.078c-.63.044-.986.322-.986.762 0 .449.371.742.938.742.737 0 1.313-.508 1.313-1.177zm1.898 3.813v-.854c.078.019.254.019.342.019.493 0 .752-.205.913-.732l.093-.318-1.856-5.141h1.143l1.303 4.179h.015l1.304-4.179h1.113l-1.929 5.405c-.439 1.245-.942 1.645-2.011 1.645-.083 0-.352-.009-.43-.024z"/></g></svg>