<svg width="32" height="22" viewBox="0 0 32 22" xmlns="http://www.w3.org/2000/svg"><path d="M32 20c0 1.1-.9 2-2 2h-28c-1.1 0-2-.9-2-2v-18c0-1.1.9-2 2-2h28c1.1 0 2 .9 2 2v18z" fill="#EBEBEB"/><path d="M12.549 6l-.858 4.382h.027c.567-.895 1.385-1.364 2.242-1.364 1.398 0 1.925 1.213 1.925 2.399 0 2.04-1.411 4.577-3.969 4.577-1.121 0-1.965-.483-1.965-1.724 0-.316.053-.717.106-1.034l1.397-7.236h1.095zm8.084 3.018c.607 0 1.279.111 1.714.262l-.646 3.474c-.211 1.158-.304 2.343-.277 3.087h-1.016c0-.399.067-1.033.145-1.722h-.026c-.699 1.378-1.569 1.875-2.479 1.875-1.121 0-1.833-.938-1.833-2.206 0-2.316 1.635-4.77 4.418-4.77zm5.787.014c.593 0 1.134.18 1.332.289l-.317.91c-.25-.124-.606-.248-1.081-.248-1.662 0-2.703 1.709-2.703 3.28 0 1.075.54 1.78 1.582 1.78.646 0 1.147-.207 1.477-.373l.106.91c-.33.165-.989.414-1.846.414-1.649 0-2.453-1.172-2.453-2.592 0-2.274 1.609-4.37 3.903-4.37zm4.248-.014c.58 0 1.095.165 1.332.331l-.304.868c-.224-.137-.632-.303-1.107-.303-.66 0-1.134.427-1.134 1.007 0 .482.303.785.87 1.117.712.426 1.2 1.006 1.2 1.75 0 1.406-1.095 2.205-2.439 2.205-.687-.014-1.293-.235-1.583-.468l.303-.841c.303.193.857.413 1.372.413.738 0 1.213-.496 1.213-1.089 0-.524-.224-.84-.884-1.226-.738-.428-1.147-1.021-1.147-1.696 0-1.172.963-2.068 2.308-2.068zm-17.13.951c-.95 0-1.925 1.02-2.242 2.592l-.145.702c-.053.221-.092.497-.079.842 0 .634.343.992 1.029.992 1.648 0 2.65-2.053 2.65-3.529 0-.827-.343-1.599-1.213-1.599zm6.818-.042c-1.648 0-2.994 1.807-3.007 3.654 0 .744.251 1.475 1.094 1.475.911 0 1.992-1.241 2.309-3.018l.369-2.013c-.159-.042-.396-.098-.765-.098z" fill="#000"/><path d="M10.063 6l-1.419 6.675c-.412 1.938-2.124 3.325-4.106 3.325h-4.538v-2.206c.484.075.985.117 1.5.117 3.86 0 7-2.223 7-4.955 0-1.108-.523-2.13-1.395-2.956h2.958zm-6.214 0c1.277.626 2.151 1.725 2.151 2.956 0 1.897-2.061 3.499-4.5 3.499-.525 0-1.026-.087-1.5-.222v-1.233l1.063-5h2.786z" fill="#E40138"/></svg>