<svg xmlns="http://www.w3.org/2000/svg" width="32" height="22" viewBox="0 0 32 22"><g fill="none"><path fill="#F7931A" d="M32 20c0 1.1-.9 2-2 2h-28c-1.1 0-2-.9-2-2v-18c0-1.1.9-2 2-2h28c1.1 0 2 .9 2 2v18z"/><path fill="#FFF" d="M19.751 10.281c1.167.538 1.934 1.794 1.71 3.208-.234 1.477-1.601 2.511-3.096 2.511h-.365v2h-1v-2h-2v2h-1v-2h-3.25l.75-1.75h1c.276 0 .5-.225.5-.501v-5.498c0-.276-.224-.501-.5-.501h-1.5v-1.75h3v-2h1v2h2v-2h1v2.013c1.282.065 2.407 1.025 2.494 2.314.052.767-.244 1.463-.743 1.954zm-2.751 3.969c1.062 0 1.708-.615 1.708-1.375s-.63-1.375-1.708-1.375h-2v2.75h2zm-2-6.5v2.5h1.5c.984 0 1.687-.56 1.687-1.25s-.781-1.25-1.687-1.25h-1.5z"/></g></svg>