<svg xmlns="http://www.w3.org/2000/svg" width="32" height="22" viewBox="0 0 32 22"><g fill="none"><path fill="#B1D387" d="M30 22h-28l-2-2v-18c0-1.1.9-2 2-2h28c1.1 0 2 .9 2 2v18l-2 2z"/><path fill="#77AB38" d="M30 20h-28c-1.1 0-2-.9-2-2v2c0 1.1.9 2 2 2h28c1.1 0 2-.9 2-2v-2c0 1.1-.9 2-2 2"/><path fill="#679C27" d="M2 18v-16h28v16h-28zm23.142-2c.362-1.4 1.457-2.496 2.858-2.858v-6.284c-1.401-.362-2.496-1.458-2.858-2.858h-18.284c-.362 1.4-1.457 2.496-2.858 2.858v6.284c1.401.362 2.496 1.458 2.858 2.858h18.284zm-9.142-11c2.761 0 5 2.238 5 5s-2.239 5-5 5-5-2.238-5-5 2.239-5 5-5zm0 8.5c1.933 0 3.5-1.567 3.5-3.5s-1.567-3.5-3.5-3.5-3.5 1.567-3.5 3.5 1.567 3.5 3.5 3.5zm-7-3.5c0 .553-.448 1-1 1s-1-.447-1-1c0-.553.448-1 1-1s1 .447 1 1zm16 0c0 .553-.448 1-1 1s-1-.447-1-1c0-.553.448-1 1-1s1 .447 1 1z"/></g></svg>