<svg xmlns="http://www.w3.org/2000/svg" width="32" height="22" viewBox="0 0 32 22"><g fill="none"><path fill="#BFBFBF" d="M2 2c-1.1 0-2 .9-2 2v16c0 1.1.9 2 2 2h28c1.1 0 2-.9 2-2v-16l-2-2h-28z"/><path fill="#FFF" d="M24 2l-1 1h-21c-.553 0-1 .447-1 1v16c0 .553.447 1 1 1h28c.553 0 1-.447 1-1v-11l1-1v-4.005c0-1.101-.894-1.995-1.995-1.995h-6.005z"/><path fill="#BFBFBF" d="M4 9v-3h5v3h-5zm0 3v-1h12v1h-12zm0 3v-1h9v1h-9zm9 4v-1h5v1h-5zm9 0v-1h6v1h-6z"/><path fill="#4D4D4D" d="M31.263 3.043c.292.162.398.53.237.822l-3.384 6.139c-.162.292-.53.398-.823.237-.293-.161-.399-.529-.237-.822l3.385-6.138c.161-.293.529-.399.822-.238zm-1.808-2.913c.747.455.723 1.974-.053 3.392l-2.031 3.711-2.705-1.647 2.031-3.711c.776-1.419 2.011-2.2 2.758-1.745zm-5.414 6.598l2.705 1.648c-3.45 6.306-6.852 11.049-7.599 10.594-.747-.455 1.444-5.937 4.894-12.242z"/></g></svg>