<svg xmlns="http://www.w3.org/2000/svg" width="32" height="22" viewBox="0 0 32 22"><g fill="none"><path fill="#2283CB" d="M32 20c0 1.1-.9 2-2 2h-28c-1.1 0-2-.9-2-2v-18c0-1.1.9-2 2-2h28c1.1 0 2 .9 2 2v18z"/><path fill="#FFF" d="M17 5c3.313 0 6 2.687 6 6s-2.687 6-6 6h-3c-3.313 0-6-2.687-6-6s2.687-6 6-6h3zm-3 11c2.761 0 5-2.238 5-5s-2.239-5-5-5-5 2.238-5 5 2.239 5 5 5zm1-7.816c1.163.413 2 1.512 2 2.816 0 1.305-.837 2.404-2 2.817v-5.633zm-4 2.816c0-1.305.837-2.403 2-2.816v5.632c-1.163-.413-2-1.511-2-2.816z"/></g></svg>