<svg width="32" height="22" viewBox="0 0 32 22" xmlns="http://www.w3.org/2000/svg"><path d="M32 20c0 1.1-.9 2-2 2h-28c-1.1 0-2-.9-2-2v-18c0-1.1.9-2 2-2h28c1.1 0 2 .9 2 2v18z" fill="#EBEBEB"/><path d="M16.427 5l-.002 4.323-1.255-.027c-2.69.098-5.805 1.338-5.806 3.008-.001 1.837 2.956 4.046 6.507 4.049 2.872.002 5.218-2.204 5.219-5.52.001-3.55-2.011-5.089-4.298-5.631v-.184c4.161.231 7.209 2.913 7.208 5.982-.002 3.505-3.588 6.003-8.012 6-4.423-.003-7.989-2.695-7.988-6.012.001-3.48 3.117-5.992 8.427-5.988zm-.025 4.569l-.002 6.288c-1.524-.117-3.484-1.194-3.483-3.05 0-1.836 1.67-3.167 3.485-3.238z" fill="#000"/></svg>