<svg xmlns="http://www.w3.org/2000/svg" width="32" height="22" viewBox="0 0 32 22"><g fill="none"><path fill="#EBEBEB" d="M32 20c0 1.1-.9 2-2 2h-28c-1.1 0-2-.9-2-2v-18c0-1.1.9-2 2-2h28c1.1 0 2 .9 2 2v18z"/><circle cx="17.5" cy="10.5" r="2.5" fill="#FF8400"/><path fill="#231F20" d="M1.5 8c1.4 0 2.5 1.1 2.5 2.5s-1.1 2.5-2.5 2.5h-1.5v-5h1.5zm0 1h-.5v3h.5c.8 0 1.5-.7 1.5-1.5s-.7-1.5-1.5-1.5zm3.5-1h1v5h-1v-5zm4 1.9c1.2.4 1.5.8 1.4 1.5 0 1-.7 1.6-1.7 1.6-.7 0-1.2-.3-1.7-.9l.6-.5c.3.4.6.6 1.1.6.5 0 .8-.3.8-.7 0-.2-.1-.4-.3-.5-.1-.1-.3-.2-.7-.3-.9-.3-1.2-.6-1.2-1.3 0-.8.6-1.4 1.5-1.4.6 0 1.1.2 1.5.6l-.5.6c-.3-.3-.5-.4-.8-.4-.4 0-.7.2-.7.5s.1.4.7.6zm5.5 1.7v1.2c-.3.1-.6.2-1 .2-1.4 0-2.5-1.1-2.5-2.5s1.1-2.5 2.5-2.5c.4 0 .7.1 1 .2v1.2c-.3-.2-.6-.4-1-.4-.8 0-1.5.7-1.5 1.5s.7 1.5 1.5 1.5c.4 0 .7-.2 1-.4zm8.2-3.6h1.1l-1.5 5h-1.1l-1.6-5h1.1l1 3.3 1-3.3zm4.3 1h-2v1h2v1h-2v1h2v1h-3v-5h3v1zm3.2 1.9l1.8 2.1h-1.4l-1.5-2h-.1v2h-1v-5h1.5c1.3 0 2 .6 2 1.5 0 .7-.5 1.3-1.3 1.4zm-.9-.6c.7 0 1.1-.3 1.1-.8 0-.4-.4-.7-1.1-.7h-.3v1.5h.3z"/><path fill="#FF8400" d="M12 22l20-7v5c0 1.1-.9 2-2 2h-18z"/></g></svg>