<svg xmlns="http://www.w3.org/2000/svg" width="32" height="22" viewBox="0 0 32 22"><g fill="none"><path fill="#EBEBEB" d="M32 20c0 1.1-.9 2-2 2h-28c-1.1 0-2-.9-2-2v-18c0-1.1.9-2 2-2h28c1.1 0 2 .9 2 2v18z"/><path fill="#FFCF26" d="M18.25 6.713v-1.388c0-1.45-2.351-2.625-5.25-2.625s-5.25 1.175-5.25 2.625v7.35c0 1.407 2.219 2.546 5 2.612v1.388c0 1.45 2.351 2.625 5.25 2.625s5.25-1.175 5.25-2.625v-7.35c0-1.407-2.219-2.546-5-2.612"/><path fill="#FFF" d="M18 7c2.762 0 5 1.119 5 2.5s-2.238 2.5-5 2.5-5-1.119-5-2.5c0-.599.438-1.141 1.141-1.571-.369.043-.747.071-1.141.071-2.762 0-5-1.119-5-2.5s2.238-2.5 5-2.5 5 1.119 5 2.5c0 .599-.438 1.141-1.141 1.571.369-.043.747-.071 1.141-.071zm0 4c1.657 0 3-.717 3-1.6 0-.883-1.343-1.6-3-1.6s-3 .717-3 1.6c0 .883 1.343 1.6 3 1.6zm-8-5.6c0 .883 1.343 1.6 3 1.6s3-.717 3-1.6c0-.883-1.343-1.6-3-1.6s-3 .717-3 1.6z" opacity=".5"/><path fill="#FF8D24" d="M13 2c3.364 0 6 1.757 6 4v.053c2.872.308 5 1.931 5 3.947v6c0 2.243-2.636 4-6 4s-6-1.757-6-4v-.053l-.121-.014c-2.873-.35-4.879-1.967-4.879-3.933v-6c0-2.243 2.636-4 6-4zm9.854 12.902c-.057 0-.092.02-.129.082-.682 1.172-2.538 2.016-4.725 2.016s-4.042-.844-4.724-2.016c-.037-.062-.072-.082-.13-.082-.079 0-.146.066-.146.147v.951c0 1.657 2.239 3 5 3 2.762 0 5-1.343 5-3v-.951c0-.081-.066-.147-.146-.147zm0-3c-.057 0-.092.02-.129.082-.682 1.172-2.538 2.016-4.725 2.016s-4.042-.844-4.724-2.016c-.037-.062-.072-.082-.13-.082-.079 0-.146.066-.146.147v.951c0 1.657 2.239 3 5 3 2.762 0 5-1.343 5-3v-.951c0-.081-.066-.147-.146-.147zm-14.708-1c-.08 0-.146.066-.146.147v.951c0 1.452 1.717 2.662 4 2.94v-2.007c-1.738-.213-3.151-.962-3.725-1.949-.037-.062-.072-.082-.129-.082zm0-3c-.08 0-.146.066-.146.147v.951c0 1.452 1.717 2.662 4 2.94v-1.94l.004-.066c-1.739-.213-3.154-.962-3.729-1.95-.037-.062-.072-.082-.129-.082zm9.854-.902c-2.762 0-5 1.343-5 3s2.238 3 5 3 5-1.343 5-3-2.238-3-5-3zm-5-4c-2.762 0-5 1.343-5 3 0 1.494 1.825 2.723 4.207 2.952.676-1.718 2.976-2.952 5.793-2.952 0-1.657-2.238-3-5-3z"/></g></svg>