<svg xmlns="http://www.w3.org/2000/svg" width="32" height="22" viewBox="0 0 32 22"><g fill="none"><path fill="#EBEBEB" d="M32 20c0 1.1-.9 2-2 2h-28c-1.1 0-2-.9-2-2v-18c0-1.1.9-2 2-2h28c1.1 0 2 .9 2 2v18z"/><path fill="#4285F4" d="M8 10v2h2.829c-.142.738-.54 1.241-1.067 1.56v1.2h1.498c1.057-.917 1.74-2.254 1.74-3.76v-1h-5z"/><path fill="#34A853" d="M8 14c-1.269 0-2.35-.794-2.788-1.909h-1.6v1.255c.844 1.571 2.483 2.654 4.388 2.654 1.251 0 2.382-.479 3.26-1.24l-1.498-1.2c-.503.304-1.125.44-1.762.44"/><path fill="#FABB05" d="M5.169 10.05v-1.183h-1.673c-.309.65-.496 1.368-.496 2.133 0 .852.234 1.643.612 2.346l1.6-1.255c-.132-.339-.212-.705-.212-1.091 0-.334.067-.649.169-.95"/><path fill="#E94235" d="M8 8c.77 0 1.502.291 2.062.82l1.373-1.455c-.933-.88-2.153-1.365-3.435-1.365-1.991 0-3.7 1.179-4.504 2.867l1.673 1.183c.4-1.187 1.511-2.05 2.831-2.05"/><path fill="#5F6368" d="M17.5 7c1.381 0 2.5 1.119 2.5 2.5s-1.119 2.5-2.5 2.5h-1.5v2.5h-1v-7.5h2.5zm0 4c.827 0 1.5-.673 1.5-1.5s-.673-1.5-1.5-1.5h-1.5v3h1.5zm5-2c1.379 0 2.5 1.105 2.5 2.352v3.148h-1v-.796h-.046c-.439.583-1.025.876-1.757.876-.624 0-1.147-.167-1.567-.501-.42-.334-.63-.751-.63-1.251 0-.529.222-.948.665-1.261.443-.313 1.035-.47 1.774-.47.628 0 1.145.104 1.553.31-.047-.776-.657-1.306-1.492-1.407-.493-.061-1.092.114-1.394.497l-.806-.527c.401-.694 1.297-.97 2.2-.97zm.974 4.276c.351-.299.525-.649.525-1.053-.331-.236-.794-.354-1.387-.354-.431 0-.792.095-1.08.282-.289.188-.434.419-.434.697 0 .251.118.459.353.626.235.167.511.25.827.25.446 0 .845-.149 1.196-.448zm5.526-4.276h1l-2.971 7h-1l.971-2.288v-.067l-1.971-4.645h1l1.485 3.5 1.486-3.5z"/></g></svg>