<svg xmlns="http://www.w3.org/2000/svg" width="32" height="22" viewBox="0 0 32 22"><g fill="none"><path fill="#BFBFBF" d="M30.003 0h-28.006c-1.102 0-1.997.895-1.997 1.997v18.006c0 1.102.895 1.997 1.997 1.997h28.006c1.103 0 1.997-.895 1.997-1.997v-18.006c0-1.102-.894-1.997-1.997-1.997"/><path fill="#FFF" d="M30.003 1c.55 0 .997.447.997.997v18.006c0 .55-.447.997-.997.997h-28.006c-.55 0-.997-.447-.997-.997v-18.006c0-.55.447-.997.997-.997h28.006"/><path fill="#E6E6E6" d="M5 9h22v-2h-22z"/><path fill="#8DFFC7" d="M20 18h7v-2h-7z"/><path fill="#BFBFBF" d="M28 6v13h-9v-3h-15v-10h24zm-24 13v-1h12v1h-12zm16-1h7v-2h-7v2zm-9-3h8v-2h-8v2zm-6 0h5v-2h-5v2zm0-3h5v-2h-5v2zm0-3h5v-2h-5v2zm6 0h8v-2h-8v2zm0 3h8v-2h-8v2zm9 3h7v-2h-7v2zm0-3h7v-2h-7v2zm0-3h7v-2h-7v2zm-16-4v-2h5v2h-5z"/></g></svg>