<svg width="32" height="22" viewBox="0 0 32 22" xmlns="http://www.w3.org/2000/svg"><path d="M32 20c0 1.1-.9 2-2 2h-28c-1.1 0-2-.9-2-2v-18c0-1.1.9-2 2-2h28c1.1 0 2 .9 2 2v18z" fill="#23394B"/><path d="M16 6.5c-1.1-1-2.5-1.5-4-1.5-3.3 0-6 2.7-6 6s2.7 6 6 6c1.5 0 2.9-.6 4-1.5v-9z" fill="#ED0006"/><path d="M20 5c-1.5 0-2.9.6-4 1.5v8.9c1.1 1 2.5 1.5 4 1.5 3.3 0 6-2.7 6-6s-2.7-5.9-6-5.9" fill="#00A1DF"/><path d="M14 11c0 1.8.8 3.4 2 4.5 1.2-1.1 2-2.7 2-4.5 0-1.8-.8-3.4-2-4.5-1.2 1.1-2 2.7-2 4.5" fill="#7573C0"/></svg>