<svg xmlns="http://www.w3.org/2000/svg" width="32" height="22" viewBox="0 0 32 22"><g fill="none"><path fill="#EBEBEB" d="M32 20c0 1.1-.9 2-2 2h-28c-1.1 0-2-.9-2-2v-18c0-1.1.9-2 2-2h28c1.1 0 2 .9 2 2v18z"/><path fill="#2D448C" d="M21.26 7.557c.171-1.089-.001-1.83-.59-2.501-.649-.739-1.821-1.056-3.32-1.056h-4.351c-.306 0-.568.223-.615.526l-1.812 11.489c-.036.228.139.433.368.433h2.687s7.488-8.967 7.633-8.891"/><path fill="#179BD7" d="M21.26 7.557c-.013.083-6.655 2.693-6.979 4.745l-.653 4.146-.185 1.174c-.032.2.121.378.322.378h2.264c.269 0 .496-.195.539-.459l.022-.115.426-2.706.027-.148c.042-.265.27-.46.539-.46h.338c2.194 0 3.912-.891 4.414-3.469.209-1.076.101-1.976-.454-2.607-.168-.192-.376-.35-.62-.479"/><path fill="#1D285C" d="M20.66 7.317l-.271-.069-.287-.055c-.344-.056-.722-.082-1.126-.082h-3.411c-.084 0-.163.019-.235.054-.157.075-.274.224-.302.407l-.726 4.595-.021.134c.048-.302.306-.525.613-.525h1.277c2.508 0 4.471-1.019 5.045-3.964l.044-.256c-.145-.077-.302-.142-.472-.198l-.128-.041"/></g></svg>