<svg xmlns="http://www.w3.org/2000/svg" width="32" height="22" viewBox="0 0 32 22"><g fill="none"><path fill="#3056D3" d="M32 20c0 1.1-.9 2-2 2h-28c-1.1 0-2-.9-2-2v-18c0-1.1.9-2 2-2h28c1.1 0 2 .9 2 2v18z"/><path fill="#FFF" d="M9 7.25c2.067 0 3.75 1.683 3.75 3.75s-1.683 3.75-3.75 3.75h-1v-1.5h1c1.24 0 2.25-1.01 2.25-2.25s-1.01-2.25-2.25-2.25-2.25 1.01-2.25 2.25v5.75h-1.5v-5.75c0-2.067 1.683-3.75 3.75-3.75zm8 0c2.067 0 3.75 1.683 3.75 3.75v3.75h-1.5v-3.75c0-1.24-1.01-2.25-2.25-2.25s-2.25 1.01-2.25 2.25 1.01 2.25 2.25 2.25h1v1.5h-1c-2.067 0-3.75-1.683-3.75-3.75s1.683-3.75 3.75-3.75zm9.465 0h1.75l-4.43 9.5h-1.75l4.43-9.5zm-2.299 3.037l-.875 1.876-2.291-4.913h1.75l1.416 3.037z"/></g></svg>