<svg xmlns="http://www.w3.org/2000/svg" width="32" height="22" viewBox="0 0 32 22"><g fill="none"><path fill="#B1D387" d="M29.867 10.97c-.459.831-1.333 1.347-2.282 1.347-.239 0-.479-.034-.708-.099-5.111 8.782-6.838 8.782-7.615 8.782-.411 0-.811-.111-1.157-.322-1.853-1.129-1.071-3.557.057-6.378.899-2.247 3.833-7.999 3.833-7.999l2.352-4.301h-22.349c-1.104 0-1.998.895-1.998 1.998v16.004c0 1.104.894 1.998 1.998 1.998h28.004c1.103 0 1.998-.894 1.998-1.998v-12.901l-2.133 3.869z"/><path fill="#679C27" d="M17.026 19c.049.371.166.706.363 1h-15.389v-16h21.254l-.547 1h-16.849c-.362 1.4-1.458 2.496-2.858 2.858v8.284c1.4.362 2.496 1.458 2.858 2.858h11.168zm12.841-8.03l.133-.242v9.272h-8.667c.286-.259.606-.588.965-1h3.843c.363-1.4 1.458-2.496 2.859-2.858v-4.258c.351-.229.656-.533.867-.914zm-3.867 6.03h-2.153c.218-.309.447-.642.686-1h1.467v1zm-20-3v-1h9v1h-9zm7 2h4.526c-.116.344-.217.678-.3 1h-4.226v-1zm-7-5v-3h5v3h-5z"/><path fill="#4D4D4D" d="M31.263 3.043c.292.162.398.53.237.822l-3.384 6.139c-.162.292-.53.398-.823.237-.293-.161-.399-.529-.237-.822l3.385-6.138c.161-.293.529-.399.822-.238zm-1.808-2.913c.747.455.723 1.974-.053 3.392l-2.031 3.711-2.705-1.647 2.031-3.711c.776-1.419 2.011-2.2 2.758-1.745zm-5.414 6.598l2.705 1.648c-3.45 6.306-6.852 11.049-7.599 10.594-.747-.455 1.444-5.937 4.894-12.242z"/></g></svg>