<svg xmlns="http://www.w3.org/2000/svg" width="32" height="22" viewBox="0 0 32 22"><g fill="none"><path fill="#E21735" d="M2 0c-1.1 0-2 .9-2 2v18c0 1.1.9 2 2 2h14v-22h-14z"/><path fill="#007B84" d="M30 0h-14v22h14c1.1 0 2-.9 2-2v-18c0-1.1-.9-2-2-2"/><path fill="#00447C" d="M13.933 0l-5.933 22h10.066l5.934-22z"/><path fill="#FFF" d="M3.736 4.013c.102.024.419.035 1.495.024l-.014.046c-.134.408-.919 3.545-.919 3.545l-.087.339c-.189.658-.401 1.4-1.212 1.875-.467.282-1.159.438-1.895.438-.301 0-.72-.028-1.104-.141v-6.033l.021-.092c.018.024.281.037 1.764.024l-.011.046c-.137.4-.898 3.42-.898 3.42l-.146.904.009.153c.047.445.325.678.802.678.297 0 .552-.086.772-.265.386-.309.5-.787.656-1.457.002-.003.728-3.318.767-3.502zm4.165 2.555c.29 0 .605.079.737.41.124.295.042.656-.123 1.371l-.084.364c-.169.794-.197.94-.291 1.485l-.062.048c-.525-.009-.712-.009-1.326.023l-.023-.047.163-.694.076-.318c.113-.492.224-1.064.237-1.24.011-.104.049-.366-.255-.366-.128 0-.261.06-.397.123-.073.262-.223.999-.294 1.335-.153.706-.162.788-.231 1.138l-.044.048c-.541-.009-.73-.009-1.354.023l-.028-.052.307-1.263c.262-1.14.325-1.576.395-2.156l.052-.033c.608-.085.755-.102 1.414-.235l.055.06-.101.363.331-.189c.311-.15.657-.196.846-.196zm2.983.747l.012.027.009.031-.183.744-.175.744-.193.862-.081.476-.03.026-.027.022-.722-.002-.686.025-.016-.025-.018-.028c.08-.301.124-.405.164-.513.041-.107.077-.214.149-.52.093-.4.15-.677.187-.922l.099-.671.023-.017.025-.023.721-.105c.207-.028.415-.069.742-.131zm.007-1.007c.293.171.249.502-.1.742-.347.241-.87.291-1.162.123-.296-.176-.256-.509.094-.744.351-.24.871-.295 1.168-.121zm1.795 4.016c-.235 0-.6-.03-.853-.137-.819-.329-.689-1.212-.575-1.702.112-.48.298-.982.702-1.352.561-.513 1.281-.543 1.582-.543.502 0 .986.111 1.26.459.18.227.324.601.14 1.402-.057.242-.22.828-.577 1.222-.463.486-1.079.65-1.679.65zm-.047-1.802c-.048.21-.087.403-.085.593.004.383.265.383.309.383.148 0 .281-.095.393-.253.162-.213.281-.716.307-.85.145-.609.122-.987-.205-.987-.417 0-.581.509-.719 1.115zm3.804 1.724c-.541-.009-.728-.009-1.352.023l-.027-.052.306-1.263c.262-1.14.322-1.575.396-2.155l.046-.034c.608-.085.758-.102 1.417-.235l.05.061-.094.363.329-.19c.309-.15.657-.196.846-.196.286 0 .604.079.739.41.122.295.039.656-.127 1.371l-.082.364c-.174.794-.198.94-.291 1.485l-.064.048c-.528-.009-.708-.009-1.324.023l-.023-.046.167-.696.072-.317c.115-.492.226-1.064.237-1.24.012-.104.049-.366-.253-.366-.132 0-.263.061-.399.123-.071.263-.224.999-.298 1.335-.147.707-.158.789-.224 1.138l-.047.048zm4.529.023c-.171-.018-.578-.018-1.571-.006l1.02-4.162.408-1.872.045-.229c.188.024.644.028 1.782.013l.438-.004c.888.004 1.658.015 2.044.549.153.201.206.459.206.72 0 .198-.031.396-.071.562-.158.679-.51 1.239-1.026 1.618-.758.551-1.725.551-2.582.551h-.09l-.124.118-.208.844-.271 1.297zm.755-3.321l-.018.094h.235c.364 0 .716-.012 1.004-.155.35-.167.622-.517.715-.933.101-.454-.044-.802-.397-.937l-.914-.078-.174-.018-.006.072-.014.096-.431 1.858zm3.267 3.289c-.816-.315-.684-1.197-.569-1.68.108-.48.299-.98.698-1.344.566-.511 1.226-.651 1.507-.543.219.083.361.218.46.374l.019-.146.048-.039c.631-.089.806-.115 1.462-.235l.019.053-.355 1.478c-.241 1.034-.329 1.558-.421 2.099l-.058.043c-.636-.004-.818-.004-1.404.02l-.037-.048.058-.221c-.215.179-.447.304-.697.317-.237.013-.47-.021-.73-.13zm.809-1.651c-.049.213-.088.405-.086.593.009.376.267.376.309.376.148 0 .403-.093.511-.245.058-.075.11-.188.155-.309l.131-.528.075-.334c.029-.412-.111-.653-.375-.653-.418 0-.579.504-.72 1.099zm6.198-.256c-.778 1.336-1.757 3.033-1.958 3.463l-.054.061h.008l-.511.867c-.161.296-.461.517-.938.519l-.813-.014.237-.78h.16l.188-.026.105-.094.287-.45-.003-.006c.409-.609.509-.871.934-1.564-.076-.776-.111-1.027-.173-1.536l-.122-.92c-.079-.628-.06-.539-.139-.937l-.004-.008.011-.069.049-.044c.629-.079.645-.1 1.325-.23l.057.056.09 1.732.004.098c.362-.799.349-.58.793-1.594l.002.01.007-.029.044-.044.414-.057v1.594zm-18.592 3.497h1.359l-.239.449h1.368l-.248.823h-1.869l-.203.174-.23.109c-.106.052-.327.156-.615.156h-.598l.24-.79h.181c.151 0 .255-.014.308-.047.06-.039.127-.122.201-.257l.345-.618zm-.156 5.229c-.04.121.325.137.456.137l.682-.093-.274.9h-1.537c-.125 0-.216-.017-.35-.048-.129-.032-.187-.09-.244-.175-.055-.089-.143-.163-.084-.354l.443-1.445h-.758l.252-.826h.76l.202-.673h-.758l.242-.786h3.337l-.247.786h-1.334l-.208.673h1.364l-.249.812h-1.363l-.332 1.093zm2.917.016c.025.039.087.084.173.084l.802-.074-.276.918h-.895c-.286 0-.493-.006-.638-.017-.139-.013-.283 0-.381-.073-.082-.073-.21-.169-.207-.267.009-.091.048-.242.106-.449l1.631-5.356h1.165l-.17.581s.369-.292.627-.397c.255-.093.836-.178.836-.178l1.886-.011-.642 2.119c-.108.362-.235.597-.314.705-.07.107-.154.201-.317.289-.159.084-.304.132-.438.146l-.58.017h-1.818l-.511 1.673c-.049.167-.072.248-.039.292zm.88-3.097l-.118.381h1.654l.252-.004.121-.377h-1.909zm.382-1.263l-.278.919s.373-.338 1.012-.447c.146-.026 1.053-.017 1.053-.017l.139-.454h-1.926zm1.449 2.901l.113-.358h.89l-.109.508c-.046.159-.085.279-.207.381-.127.108-.277.22-.626.22l-.648.027-.005.574c-.007.161.037.147.063.172l.085.052.205-.013.617-.033-.256.84h-.709c-.496 0-.864-.012-.984-.106-.119-.075-.135-.169-.134-.331l.046-2.242h1.132l-.016.458h.272l.195-.034.076-.116zm5.545 1.251l-.267.862h-.341l-.08.267h-1.215l.083-.267h-2.464l.246-.798h.251l1.293-4.241.257-.855h1.238l-.13.432s.33-.235.643-.316c.258-.067 1.535-.099 1.963-.108v-.003h1.322l.013.487c-.009.082.063.121.218.121h.268l-.246.805h-.714c-.617.044-.852-.219-.836-.515l-.013-.478-.135.431h-.423l-1.276 4.177h.345zm-1.011-3.328c.203-.053.507-.07.507-.07l.237-.778h-.983l-.328 1.067s.369-.164.567-.219zm.019 1.526l.239-.778h-.988l-.339 1.111s.376-.188.576-.248c.203-.046.512-.084.512-.084zm-.551 1.814l.282-.938h-.982l-.286.938h.986zm2.374-2.592l.242-.807h3.955l-.246.807h-1.326l-.208.654h1.331l-.221.717h-1.438l-.256.301h.584l.143.903.045.187c.03.031.206.049.307.049h.177l-.269.877h-.449l-.316-.011c-.134-.012-.228-.089-.32-.136-.083-.038-.205-.137-.235-.305l-.141-.901-.654.887c-.207.281-.488.495-.963.495h-.914l.24-.784h.349c.102 0 .189-.039.256-.072.067-.029.127-.062.194-.159l.954-1.331h-1.26l.216-.717h1.44l.204-.654h-1.421z"/></g></svg>