<svg width="32" height="22" viewBox="0 0 32 22" xmlns="http://www.w3.org/2000/svg"><path d="M30 0h-28c-1.1 0-2 .9-2 2v18c0 1.1.9 2 2 2h28c1.1 0 2-.9 2-2v-18c0-1.1-.9-2-2-2" fill="#1C3378"/><path d="M16.374 15.62l1.494 4.795h-.901l-.416-1.359h-1.459l-.396 1.359h-.866l1.473-4.795h1.071zm-4.93-.035c.614 0 1.063.135 1.356.392.273.234.45.61.45 1.06 0 .453-.137.83-.396 1.088-.334.348-.859.511-1.452.511-.155 0-.3-.009-.41-.029v1.808h-.832v-4.73c.301-.058.717-.1 1.284-.1zm7.691.035l.553 1.23c.157.357.272.626.396.955h.012c.117-.308.248-.606.403-.955l.553-1.23h.948l-1.528 2.774v2.021h-.838v-2l-1.452-2.795h.953zm-3.321.696h-.013c-.068.279-.137.615-.218.898l-.354 1.18h1.178l-.36-1.18c-.09-.292-.164-.619-.233-.898zm-4.338-.063c-.229 0-.395.021-.484.044v1.62c.103.029.24.037.41.037.627 0 1.01-.322 1.01-.884 0-.532-.354-.817-.936-.817zm18.527-15.253c.55 0 .997.446.997.998v12.002h-30v-12c0-.553.448-1 1-1zm-15.978 2h-4.05v.225c.788.225 1.8.45 2.363.788.337.224.45.337.562.787l1.8 7.2h2.475l3.825-9h-2.362l-2.475 6.075-1.013-5.175c-.112-.562-.562-.9-1.125-.9z" fill="#fff"/></svg>