<svg xmlns="http://www.w3.org/2000/svg" width="32" height="22" viewBox="0 0 32 22"><defs><linearGradient id="a" x1="0%" y1="50%" y2="50%"><stop offset="0%" stop-color="#201D66"/><stop offset="100%" stop-color="#054CA4"/></linearGradient></defs><g fill="none"><path fill="url(#a)" d="M32 20c0 1.1-.9 2-2 2h-28c-1.1 0-2-.9-2-2v-18c0-1.1.9-2 2-2h28c1.1 0 2 .9 2 2v18z"/><path fill="#FFF" d="M10.7 7h2.1l-3.4 8h-2.2l-1.6-6.4c-.1-.4-.2-.5-.5-.7-.5-.3-1.4-.5-2.1-.7v-.2h3.6c.5 0 .9.3 1 .8l.9 4.6 2.2-5.4zm3.1 0h2.1l-1.8 8h-2.1l1.8-8zm2.6 2.6c.1-1.6 1.5-2.7 3.6-2.8.8 0 1.5.2 2 .4l-.5 1.8c-1-.5-1.8-.4-2.1-.4-.6.1-.9.4-.9.7-.1.9 2.9 1.1 2.9 3.2 0 1.7-1.5 2.8-3.7 2.8-.9 0-1.8-.2-2.3-.4l.4-1.8c.5.2 1.1.5 2.2.5.6 0 1.3-.3 1.3-.8 0-.3-.3-.6-1.1-1s-1.8-1-1.8-2.2zm10.9-2.6l1.7 8h-1.9l-.3-1h-2.7l-.4 1h-2.2l3.1-7.5c.2-.3.5-.5.9-.5h1.8zm-2.6 5h1.7l-.6-3-1.1 3z"/></g></svg>