<svg width="16" height="16" viewBox="0 0 16 16" xmlns="http://www.w3.org/2000/svg"><path d="M7.999 0a8 8 0 1 0 8 8 8.009 8.009 0 0 0-8-8ZM.806 8c0-1.009.212-2.006.623-2.927l3.431 9.4A7.193 7.193 0 0 1 .806 8ZM8 15.193a7.188 7.188 0 0 1-2.032-.293l2.159-6.27 2.21 6.056a.67.67 0 0 0 .052.1A7.177 7.177 0 0 1 8 15.192Zm.99-10.565c.433-.023.823-.068.823-.068.388-.046.342-.616-.045-.593 0 0-1.165.092-1.918.092-.706 0-1.894-.092-1.894-.092-.388-.023-.433.57-.045.593 0 0 .366.045.754.068l1.12 3.07-1.574 4.721-2.619-7.792c.433-.022.823-.068.823-.068.388-.046.342-.615-.046-.593 0 0-1.165.092-1.917.092-.135 0-.294-.003-.463-.008a7.19 7.19 0 0 1 10.867-1.354c-.031-.002-.061-.006-.093-.006-.707 0-1.208.615-1.208 1.276 0 .593.342 1.095.707 1.687.273.48.592 1.095.592 1.984 0 .616-.237 1.33-.547 2.325l-.717 2.397-2.6-7.731Zm5.32-.078a7.194 7.194 0 0 1-2.695 9.668l2.197-6.352c.41-1.026.547-1.847.547-2.576a5.52 5.52 0 0 0-.048-.74Z"/></svg>