<svg xmlns="http://www.w3.org/2000/svg" width="260" height="260" fill="none" viewBox="0 0 260 260">
  <path fill="#B880FF" d="M92.627 19.365a5.12 5.12 0 0 0-3.602 1.494l-41.64 41.65c-43.61 43.578-43.61 114.226-.014 157.805 43.597 43.579 114.227 43.584 157.801 0l41.649-41.644a5.087 5.087 0 0 0 1.499-3.612v-152.8c0-.38-.075-.757-.22-1.108a2.9 2.9 0 0 0-2.677-1.785H92.627Z"/>
  <mask id="a" width="237" height="246" x="12" y="7" maskUnits="userSpaceOnUse" style="mask-type:alpha">
    <path fill="#45DEA6" d="M132.185 8.81c-1.351.002-29.039-4.073-46.894 0C53.845 15.98 42.26 52.943 42.26 52.943c-43.611 43.58-38.486 123.791 5.111 167.37 43.597 43.579 114.227 43.584 157.801 0l41.649-41.644a5.087 5.087 0 0 0 1.499-3.612v-152.8a2.904 2.904 0 0 0-.848-2.047 2.907 2.907 0 0 0-2.048-.846L132.185 8.81Z"/>
  </mask>
  <g mask="url(#a)">
    <path fill="#B880FF" d="M102.051 65.788c16.708-8.547 24.3-27.112 16.957-41.468-7.343-14.356-26.84-19.065-43.548-10.518-16.709 8.546-24.3 27.112-16.958 41.467 7.343 14.356 26.84 19.065 43.549 10.519Z"/>
    <path fill="#fff" d="M64.952 49.877a31.017 31.017 0 0 1-.036-28.206c-8.984 9.515-11.958 22.756-6.417 33.596 7.333 14.355 26.845 19.067 43.542 10.519.843-.431 1.655-.894 2.448-1.375a31.058 31.058 0 0 1-39.537-14.534Z"/>
    <path stroke="#000" stroke-linecap="round" stroke-linejoin="round" d="M102.051 65.788c16.708-8.547 24.3-27.112 16.957-41.468-7.343-14.356-26.84-19.065-43.548-10.518-16.709 8.546-24.3 27.112-16.958 41.467 7.343 14.356 26.84 19.065 43.549 10.519Z"/>
    <path fill="#B880FF" d="M24.83 94.17c-6.876-13.438 18.365-44.399 58.525-64.942 40.159-20.542 80.035-22.884 86.905-9.446"/>
    <path stroke="#000" stroke-linecap="round" stroke-linejoin="round" d="M24.83 94.17c-6.876-13.438 18.365-44.399 58.525-64.942 40.159-20.542 80.035-22.884 86.905-9.446"/>
    <path fill="#000" stroke="#000" stroke-linecap="round" stroke-linejoin="round" d="M107.527 76.492c40.159-20.542 68.247-45.929 62.736-56.703-5.511-10.775-42.535-2.857-82.694 17.685-40.16 20.542-68.248 45.929-62.737 56.703 5.512 10.775 42.535 2.857 82.695-17.685Z"/>
    <path stroke="#fff" stroke-miterlimit="10" d="M74.085 56.198c2.915-1.868 4.72-4.256 4.03-5.332-.69-1.076-3.613-.434-6.528 1.435-2.916 1.869-4.72 4.256-4.03 5.332.69 1.076 3.613.434 6.528-1.435ZM43.64 84.917c3.103-1.587 5.102-3.886 4.463-5.134-.639-1.249-3.672-.974-6.775.613-3.104 1.588-5.102 3.886-4.463 5.135.639 1.248 3.672.974 6.775-.614ZM110.657 37.521c3.221-1.27 5.452-3.264 4.983-4.453-.468-1.19-3.46-1.124-6.682.147-3.221 1.27-5.452 3.264-4.983 4.453.468 1.19 3.46 1.123 6.682-.147ZM151.751 29.619c3.103-1.587 5.101-3.886 4.462-5.135-.638-1.248-3.672-.974-6.775.614-3.103 1.587-5.101 3.886-4.462 5.134.638 1.249 3.672.974 6.775-.613Z"/>
    <path fill="#B880FF" d="M72.675 53.837c-2.195 1.375-3.79 3.08-4.18 4.313 1.233.17 3.355-.51 5.5-1.866s3.79-3.08 4.18-4.313c-1.233-.183-3.36.49-5.5 1.866ZM109.823 34.82c-2.497 1.004-4.358 2.43-4.817 3.566 1.265.316 3.461 0 5.752-.917 2.494-1.003 4.359-2.429 4.818-3.566-1.265-.316-3.461-.004-5.753.917ZM150.441 26.666c-2.452 1.256-4.207 2.952-4.524 4.226 1.275.358 3.543-.096 5.853-1.274 2.453-1.256 4.203-2.952 4.524-4.226-1.269-.357-3.561.092-5.853 1.274ZM42.306 81.97c-2.453 1.25-4.208 2.947-4.524 4.22 1.274.363 3.543-.091 5.853-1.273 2.452-1.252 4.207-2.948 4.523-4.222-1.274-.362-3.542.092-5.852 1.274ZM101.755 65.203c18.536-9.482 31.619-20.968 29.221-25.655-2.397-4.688-19.367-.802-37.903 8.68-18.537 9.48-31.62 20.967-29.222 25.655 2.398 4.687 19.368.801 37.904-8.68Z"/>
    <path fill="#fff" d="M128.982 42.837c-1.893-3.695-17.147.33-34.078 8.988-16.93 8.658-29.118 18.672-27.225 22.367C81.555 133.8 95.431 193.404 109.31 253.007c3.043 1.559 47.277 23.261 90.971-2.09 40.631-23.572 46.058-67.673 46.539-72.243L128.982 42.837Z"/>
    <path stroke="#B880FF" stroke-linecap="round" stroke-linejoin="round" d="M151.739 200.395c-27.276 4.583-49.602 3.098-55.39-3.048-2.608-2.773-.16-7.884 4.34-11M221.356 156.427c6.196 1.283 10.083 3.533 10.835 6.728 2.049 8.708-19.997 21.565-51.068 30.544M131.503 237.057c-15.313-.202-26.583-3.034-27.926-8.681-1.224-5.211 6.417-11.894 18.132-18.375M255.176 192.869c2.567 10.913-29.054 27.679-70.62 37.446-15.891 3.731-30.938 5.903-43.602 6.55M190.944 131.177c10.51.536 20.598 2.429 21.574 6.586M107.527 76.492c40.159-20.542 68.247-45.929 62.736-56.703-5.511-10.775-42.535-2.857-82.694 17.685-40.16 20.542-68.248 45.929-62.737 56.703 5.511 10.775 42.535 2.857 82.695-17.685Z"/>
    <path stroke="#B880FF" stroke-linecap="round" stroke-linejoin="round" d="M101.756 65.208c16.929-8.66 29.121-18.675 27.23-22.371-1.89-3.696-17.147.328-34.076 8.987-16.93 8.66-29.12 18.675-27.23 22.371 1.89 3.696 17.147-.327 34.076-8.987Z"/>
    <path stroke="#B880FF" stroke-linecap="round" stroke-linejoin="round" d="M100.554 62.858c14.878-7.61 25.676-16.25 24.118-19.296-1.559-3.047-14.884.652-29.762 8.263-14.878 7.61-25.676 16.25-24.118 19.296 1.559 3.047 14.883-.652 29.762-8.263Z"/>
    <path fill="#B880FF" d="M146.348 125.429c5.619 1.063 9.754 5.271 13.613 9.08 13.64 14.25 18.911 20.423 39.417 22.523 5.541.742 11.738 1.375 16.427 4.963a15.658 15.658 0 0 1 2.621 2.576 13.47 13.47 0 0 1 2.508 5.716c.577 2.585.265 4.867 2.222 6.393l.674.495.335.253a29.925 29.925 0 0 0 2.663 1.535c7.333 3.451 15.762 4.785 23.833 5.042a3.75 3.75 0 0 1 2.646 1.152 3.773 3.773 0 0 1 1.049 2.689 3.757 3.757 0 0 1-3.841 3.666 77.212 77.212 0 0 1-16.707-2.924c-4.776-1.439-9.707-3.373-13.704-6.504a10.563 10.563 0 0 1-4.253-6.705c-.505-2.704-.243-4.758-1.417-6.907-1.76-2.938-4.707-4.3-8.14-5.303-2.392-.674-4.977-1.123-7.604-1.582-21.01-3.08-27.202-10.046-40.475-25.419a55.042 55.042 0 0 0-5.565-5.532c-1.98-1.641-4.184-3.021-6.618-3.557a.832.832 0 0 1-.633-1.008.837.837 0 0 1 .954-.642h-.005Z"/>
    <path fill="#fff" d="M166.941 153.058c-1.599.22-3.281.403-5.041.54-3.117.243-6.046.303-8.75.243 1.095-.11 2.237 2.223 2.539 5.207.303 2.984-.344 5.5-1.444 5.61 3.351-.082 10.932-1.178 11.5-1.421 3.043 3.364 6.449 5.404 8.25 3.91 2.438-2.026-4.565-14.053-7.054-14.089Z"/>
    <path stroke="#B880FF" stroke-linecap="round" stroke-linejoin="round" d="M166.259 156.431c.765.687 2.328 6.375-.527 6.806"/>
    <path stroke="#B880FF" stroke-linecap="round" stroke-linejoin="round" d="M166.941 153.058c-1.599.22-3.281.403-5.041.54-3.117.243-6.046.303-8.75.243 1.095-.11 2.237 2.223 2.539 5.207.303 2.984-.344 5.5-1.444 5.61 3.351-.082 10.932-1.178 11.5-1.421 3.043 3.364 6.449 5.404 8.25 3.91 2.438-2.026-4.565-14.053-7.054-14.089Z"/>
    <path fill="#fff" d="M113.866 88.294c-1.93-2.823-7.278-13.965-8.172-17.829a13.815 13.815 0 0 1-.298-3.717c.029-.485.083-.969.16-1.448a1.037 1.037 0 0 0-.186-.82 1.05 1.05 0 0 0-.73-.418.889.889 0 0 0-.197 0c-1.201.179-2.081 2.599-2.233 6.096l-5.041 2.897c1.485 9.735 13.892 31.877 15.382 39.38a69.352 69.352 0 0 0 1.113 7.21c.619 2.979 1.701 10.014 7.256 18.659.504.788.11 4.125.385 5.018 4.271 14.136 11.458 25.232 23.416 20.905.495-9.808.992-19.617 1.49-29.425l-10.927-31.653-21.418-14.855Z"/>
    <path fill="#fff" d="m98.892 74.577-.522 3.267c-2.59-7.379-3.997-12.86-3.387-13.291.916-.66 2.168 1.191 3.91 4.606"/>
    <path fill="#fff" d="M100.024 67.587c-1.013-2.264-2.635-5.807-3.763-5.29-.848.386.335 4.437 1.206 6.912"/>
    <path fill="#fff" d="M101.331 66.753c-1.009-2.264-2.631-5.803-3.763-5.285-.844.385.339 4.432 1.21 6.912"/>
    <path fill="#fff" d="M100.537 69.214c-.866-2.475-2.048-6.527-1.205-6.912 1.128-.518 2.75 3.025 3.763 5.29l.701 1.833-1.375 4.065-3.126 1.284-1.297-1.426-1.031-5.642 3.41-1.75"/>
    <path stroke="#B880FF" stroke-linecap="round" stroke-linejoin="round" d="M100.753 84.215c-.715-2.713 5.866-7.439 8.172-5.45"/>
    <path stroke="#B880FF" stroke-linecap="round" stroke-linejoin="round" d="M97.829 76.084c3.515 10.895 13.42 29.884 14.703 36.36.229 2.292.889 4.639 1.114 7.21.733 8.479 7.256 18.659 7.256 18.659 1.109 11.816 10.372 31.336 23.801 25.923.495-9.808.992-19.616 1.49-29.425l-10.927-31.653-21.4-14.864c-1.93-2.823-7.278-13.965-8.172-17.829a13.855 13.855 0 0 1-.298-3.717c.029-.485.083-.969.16-1.448a1.046 1.046 0 0 0-.916-1.237.889.889 0 0 0-.197 0c-1.201.178-2.081 2.598-2.232 6.095"/>
    <path stroke="#B880FF" stroke-linecap="round" stroke-linejoin="round" d="M97.829 76.085c-2.585-7.38-3.456-11.101-2.846-11.546.916-.66 1.512 1.013 3.254 4.427"/>
    <path stroke="#B880FF" stroke-linecap="round" stroke-linejoin="round" d="M99.644 67.587c-1.013-2.264-2.242-5.807-3.369-5.29-.417.189-.344 1.261-.06 2.595"/>
    <path stroke="#B880FF" stroke-linecap="round" stroke-linejoin="round" d="M101.55 67.252c-1.013-2.264-2.85-6.302-3.983-5.784-.256.115-.325.573-.27 1.22M102.678 66.67c-1.004-2.181-2.361-4.817-3.346-4.363M98.714 70.612a11.405 11.405 0 0 1 3.634-2.232"/>
    <path fill="#B880FF" stroke="#B880FF" stroke-linecap="round" stroke-linejoin="round" d="M124.357 108.865c7.728 0 13.993-6.265 13.993-13.993 0-7.728-6.265-13.993-13.993-13.993-7.728 0-13.993 6.265-13.993 13.993 0 7.728 6.265 13.993 13.993 13.993Z"/>
    <path fill="#fff" stroke="#B880FF" stroke-linecap="round" stroke-linejoin="round" d="M133.272 84.087a13.956 13.956 0 0 1 2.402 7.842 13.992 13.992 0 0 1-13.993 13.993 13.933 13.933 0 0 1-8.915-3.208 13.987 13.987 0 0 0 11.591 6.151 13.994 13.994 0 0 0 8.915-24.778Z"/>
    <path fill="#fff" stroke="#B880FF" stroke-linecap="round" stroke-linejoin="round" d="M124.357 80.879a13.873 13.873 0 0 0-3.456.43 13.99 13.99 0 0 1 12.893 13.948 13.942 13.942 0 0 1-1.416 6.146c-1.787 3.667 2.012 4.437 4.359 0a13.908 13.908 0 0 0 1.613-6.531 13.997 13.997 0 0 0-8.638-12.928 13.993 13.993 0 0 0-5.355-1.065Z"/>
    <path fill="#fff" stroke="#B880FF" stroke-linecap="round" stroke-linejoin="round" d="M137.464 103.529c2.123-3.013 2.293-6.548.379-7.897-1.914-1.349-5.187 0-7.31 3.013-2.123 3.013-2.292 6.549-.378 7.897 1.914 1.349 5.187 0 7.309-3.013Z"/>
    <path fill="#fff" stroke="#B880FF" stroke-linecap="round" stroke-linejoin="round" d="M137.462 103.533c1.618-2.297 1.817-4.944.443-5.912-1.374-.968-3.8.11-5.419 2.406-1.618 2.297-1.816 4.944-.442 5.912s3.799-.109 5.418-2.406Z"/>
    <path fill="#B880FF" stroke="#B880FF" stroke-linecap="round" stroke-linejoin="round" d="M162.7 174.222c2.553-2.825 3.78-5.876 2.741-6.814-1.038-.939-3.949.59-6.502 3.415-2.552 2.825-3.779 5.876-2.741 6.814 1.039.938 3.95-.591 6.502-3.415Z"/>
    <path fill="#fff" d="M132.768 146.27c8.296 17.801 28.972 36.002 34.724 40.407l6.659-9.167c-14.414-12.994-25.153-35.59-27.958-42.69-.385-.293-4.386-3.268-8.401-1.861-4.222 1.467-6.999 7.256-5.024 13.311Z"/>
    <path fill="#fff" d="M162.7 174.222c2.553-2.825 3.78-5.876 2.741-6.814-1.038-.939-3.949.59-6.502 3.415-2.552 2.825-3.779 5.876-2.741 6.814 1.039.938 3.95-.591 6.502-3.415Z"/>
    <path stroke="#B880FF" stroke-linecap="round" stroke-linejoin="round" d="M132.768 146.27c8.296 17.801 28.972 36.002 34.724 40.407M174.152 177.501c-14.415-12.994-25.154-35.59-27.959-42.69"/>
    <path fill="#fff" d="M177.882 179.71a117.303 117.303 0 0 1-4.781-4.276 111.196 111.196 0 0 1-7.672-8.026c1.04.917-.188 3.992-2.75 6.816-2.562 2.823-5.464 4.354-6.504 3.414 2.929 3.08 10.399 9.277 11.119 9.625-.582 5.73.394 10.661 3.332 11.092 3.997.559 9.359-16.252 7.256-18.645Z"/>
    <path stroke="#B880FF" stroke-linecap="round" stroke-linejoin="round" d="M174.151 181.956c0 1.306-4.024 7.608-6.847 5.289"/>
    <path stroke="#B880FF" stroke-linecap="round" stroke-linejoin="round" d="M177.882 179.71a117.303 117.303 0 0 1-4.781-4.276 111.196 111.196 0 0 1-7.672-8.026c1.04.917-.188 3.992-2.75 6.816-2.562 2.823-5.464 4.354-6.504 3.414 2.929 3.08 10.399 9.277 11.119 9.625-.582 5.73.394 10.661 3.332 11.092 3.997.559 9.359-16.252 7.256-18.645Z"/>
    <path fill="#fff" d="M134.4 115.753c-2.897-2.135-2.696-6.416-.404-8.369 2.292-1.952 5.871-1.696 9.199.853 2.69 2.264 7.269 6.416 8.415 13.461.917 5.541-3.071 10.876-8.131 15.982a5.282 5.282 0 0 1-5.61-.366 5.31 5.31 0 0 1-1.893-5.789c2.448-2.351 5.926-5.858 5.381-8.214-.481-2.071-3.68-5.023-6.957-7.558Z"/>
    <path fill="#fff" d="M134.001 115.424c-.161-.097-3.493-2.15-3.429-5.501.064-3.506 3.804-6.37 7.334-5.985 2.456.265 4.583 2.062 5.6 4.583"/>
    <path stroke="#B880FF" stroke-linecap="round" stroke-linejoin="round" d="M134.001 115.424c-.161-.097-3.493-2.15-3.429-5.501.064-3.506 3.804-6.37 7.334-5.985 2.456.265 4.583 2.062 5.6 4.583"/>
    <path fill="#fff" d="m137.901 130.837-1.925.674c-1.788 1.375-8.489 6.55-8.062 7.237.944 1.692 5.894-1.544 6.316-2.048-4.052 6.095-6.472 8.786-5.413 9.666.916.765 2.686-1.05 5.477-4.767l5.22 2.191 3.965-6.123c.862-2.59 0-5.225-1.833-6.38a4.91 4.91 0 0 0-3.745-.45Z"/>
    <path fill="#fff" d="M136.843 142.108c-3.589 5.179-5.262 6.618-6.128 6.087-.729-.459-.074-2.035 3.346-7.256"/>
    <path fill="#fff" d="M139.052 142.424c-3.584 5.184-5.257 6.619-6.124 6.087-.728-.458-.073-2.031 3.346-7.256"/>
    <path fill="#fff" d="M139.514 143.804c-2.915 4.189-3.887 4.863-4.734 4.4-.761-.413-.065-1.833 2.997-6.495"/>
    <path stroke="#B880FF" stroke-linecap="round" stroke-linejoin="round" d="M135.976 131.525c-1.788 1.375-8.489 6.55-8.062 7.237.944 1.691 5.894-1.545 6.316-2.049-4.052 6.096-6.472 8.787-5.413 9.667.916.765 2.686-1.05 5.477-4.767M139.515 143.799l3.964-6.119"/>
    <path stroke="#B880FF" stroke-linecap="round" stroke-linejoin="round" d="M136.348 142.814c-3.25 4.606-4.808 5.885-5.633 5.381-.459-.289-.362-1.055.696-2.975"/>
    <path stroke="#B880FF" stroke-linecap="round" stroke-linejoin="round" d="M138.419 143.332c-3.154 4.441-4.675 5.678-5.5 5.179-.275-.165-.353-.491-.165-1.114M139.515 143.804c-2.915 4.189-3.887 4.863-4.735 4.4"/>
    <path fill="#fff" stroke="#B880FF" stroke-linecap="round" stroke-linejoin="round" d="m138.369 129.105-2.393 2.42c2.122-1.063 8.195 3.937 7.503 6.156l2.246-2.375c1.393-1.631-3.992-7.677-7.356-6.201Z"/>
    <path stroke="#B880FF" stroke-linecap="round" stroke-linejoin="round" d="M143.479 137.681c5.042-5.106 9.034-10.441 8.131-15.983-1.146-7.044-5.724-11.197-8.415-13.461a8.7 8.7 0 0 0-4.125-1.833"/>
    <path stroke="#B880FF" stroke-linecap="round" stroke-linejoin="round" d="M132.364 110.033c-.861 2.315 1.206 4.918 1.637 5.391 2.841 2.323 6.357 4.693 7.333 7.887.72 2.292-2.933 5.863-5.381 8.214"/>
    <path fill="#fff" stroke="#B880FF" stroke-linecap="round" stroke-linejoin="round" d="M153.151 124.767c.391-2.342-.241-4.399-1.412-4.594-1.171-.196-2.438 1.544-2.829 3.886s.241 4.399 1.412 4.595c1.171.195 2.438-1.545 2.829-3.887Z"/>
    <path stroke="#B880FF" stroke-linecap="round" stroke-linejoin="round" d="M144.992 122.207a8.595 8.595 0 0 0-1.806.101 8.408 8.408 0 0 0-1.985.568M143.525 124.031h-2.118M117.721 107.196c-1.513 5.62 3.565 22.537 6.636 27.615M127.075 113.599l1.44 7.403"/>
    <path fill="#fff" stroke="#B880FF" stroke-linecap="round" stroke-linejoin="round" d="M125.558 141.256a14.178 14.178 0 0 1-3.011-1.605 13.453 13.453 0 0 1-1.646-1.338 1.83 1.83 0 0 0-.43 1.228 1.877 1.877 0 0 0 .788 1.398c.484.213.992.367 1.512.459a6.508 6.508 0 0 0 2.787-.142ZM151.47 171.102c1.231-1.06.464-3.971-1.714-6.501-2.178-2.531-4.942-3.723-6.174-2.663-1.232 1.06-.464 3.971 1.714 6.502 2.178 2.53 4.942 3.722 6.174 2.662Z"/>
    <path stroke="#B880FF" stroke-linecap="round" stroke-linejoin="round" d="M152.632 162.747a15.044 15.044 0 0 0 5.967-4.267M156.184 163.769a8.932 8.932 0 0 0 2.576-1.953c.41-.45.772-.942 1.082-1.466"/>
    <path stroke="#fff" stroke-linecap="round" stroke-linejoin="round" d="M61.913 155.276a2.997 2.997 0 1 0 0-5.995 2.997 2.997 0 0 0 0 5.995Z"/>
    <path fill="#B880FF" stroke="#B880FF" stroke-linecap="round" stroke-linejoin="round" d="M86.714 108.865a2.214 2.214 0 1 0 0-4.427 2.214 2.214 0 0 0 0 4.427Z"/>
    <path fill="#B880FF" d="M176.608 118.705a1.718 1.718 0 1 0 .002-3.436 1.718 1.718 0 0 0-.002 3.436Z"/>
    <path stroke="#B880FF" stroke-linecap="round" stroke-linejoin="round" d="m87.347 89.679 10.468 32.368M82.95 76.085l2.128 6.568"/>
    <path stroke="#fff" stroke-linecap="round" stroke-linejoin="round" d="M232.058 180.498a6.93 6.93 0 0 0-2.214 2.75 6.878 6.878 0 0 0-.5 3.818M234.459 181.502a6.882 6.882 0 0 0-2.213 2.75 6.878 6.878 0 0 0-.5 3.818"/>
    <path stroke="#B880FF" stroke-linecap="round" stroke-linejoin="round" d="M196.505 152.801c-11.143 5.715-30.925 12.962-42.452 15.647-33.678 7.847-62.64 7.132-64.726-1.728-.509-2.181.65-4.642 3.208-7.237M107.257 148.483c-13.2.39-22.688-1.783-23.737-6.251-.853-3.635 4.194-8.113 12.375-12.669M176.154 131.942a151.505 151.505 0 0 1-20.671 7.915M135.064 65.918l10.519 12.371M124.045 52.966l6.403 7.53"/>
    <path fill="#fff" d="M124.046 86.544c.046.247-2.374 0-4.002.614-2.805 1.059-3.905 3.382-4.5 3.07-.596-.31-.152-3.01 1.375-4.583 2.236-2.305 6.673-1.558 7.127.899Z"/>
  </g>
  <path fill="#B880FF" d="M247.38 162.275v12.783a4.12 4.12 0 0 1-1.219 2.947l-41.635 41.649a109.945 109.945 0 0 1-36.603 24.292 110.285 110.285 0 0 1-41.636 8.104 110.67 110.67 0 0 1-27.211-3.378v.957a111.895 111.895 0 0 0 27.211 3.36 111.215 111.215 0 0 0 78.899-32.689l41.649-41.644a5.1 5.1 0 0 0 1.499-3.612v-12.471l-.954-.298ZM148.169 95.766a1.338 1.338 0 1 0 0-2.677 1.338 1.338 0 0 0 0 2.677ZM93.43 92.131a1.55 1.55 0 1 0 0-3.098 1.55 1.55 0 0 0 0 3.098ZM113.693 189.821a2.146 2.146 0 1 0-.002-4.292 2.146 2.146 0 0 0 .002 4.292Z"/>
  <path stroke="#B880FF" stroke-linecap="round" stroke-linejoin="round" d="M161.08 108.31c7.393-1.916 24.429-2.69 28.596 3.529"/>
</svg>
