<svg width="80" height="80" viewBox="0 0 80 80" fill="none" xmlns="http://www.w3.org/2000/svg"><path d="M40.041 4.302V1.908c0-.495-.495-.908-.99-.908C19.489 3.229 4.3 19.82 4.3 39.959H1.909c-.495 0-.908.495-.908.99C3.229 60.511 19.819 75.7 39.959 75.7v2.393c0 .495.495.908.99.908C60.511 76.771 75.7 60.181 75.7 40.041h2.393c.495 0 .908-.412.908-.99C76.771 19.489 60.181 4.3 40.041 4.3Z" fill="#E0E1E9"/><path d="M63.914 57.68s.087-.055.119-.087l6.495-4.323-3.134-1.697-3.134.757-8.3-31.677a5.705 5.705 0 0 0-6.68-4.15L9.704 24.565 8.31 21.442 4.894 27.32a6.504 6.504 0 0 0-.216.367v.022a5.637 5.637 0 0 0-.454 4.247l10.44 36.649a2.587 2.587 0 0 0 3.178 1.794l45.272-12.342a2.94 2.94 0 0 0 .746-.346l.054-.033Z" fill="#E0E1E9" stroke="#6C6E79" stroke-width=".7" stroke-linecap="round" stroke-linejoin="round"/><path d="M69.753 53.616 22.081 66.617a2.734 2.734 0 0 1-3.35-1.891L7.74 26.132c-.962-3.372 1.156-6.852 4.593-7.554l42.873-8.744c3.135-.637 6.225 1.286 7.025 4.377l9.446 36.076a2.73 2.73 0 0 1-1.924 3.329Z" fill="#fff"/><path d="M63.438 18.88 9.054 30.822l-1.34-4.69c-.962-3.372 1.156-6.853 4.593-7.555l42.874-8.732c3.134-.638 6.225 1.286 7.025 4.377l1.221 4.668.01-.01Z" fill="#6C6E79"/><path d="M16.384 23.49a1.873 1.873 0 0 1-1.416 2.367c-1.091.238-2.226-.454-2.529-1.524a1.868 1.868 0 0 1 1.427-2.366c1.091-.227 2.215.464 2.518 1.534v-.01Z" fill="#fff"/><path d="M23.365 22.01c.292 1.06-.324 2.107-1.394 2.334-1.07.227-2.183-.454-2.475-1.524-.292-1.07.324-2.118 1.405-2.345 1.08-.227 2.172.465 2.464 1.524v.011Z" fill="#E0E1E9"/><path d="M9.077 30.914s.324-3.155.605-6.387l-1.373-3.08-3.415 5.88a6.504 6.504 0 0 0-.216.367v.021a5.638 5.638 0 0 0-.454 4.248l1.394 4.906 3.459-5.965v.01Z" fill="#6C6E79"/><path d="m71.686 50.286-6.474-24.728c-3.75.584-6.7 1.524-8.516 2.875-8.462 6.28-7.22 18.265-11.65 21.042-5.285 3.307-11.705-6.311-18.914-4.301-4.896 1.362-6.7 8.343-8.203 16.72l.81 2.83a2.743 2.743 0 0 0 3.351 1.892l47.672-13.002a2.73 2.73 0 0 0 1.924-3.328Z" fill="#E0E1E9"/><path d="M69.753 53.616 22.081 66.617a2.734 2.734 0 0 1-3.35-1.891L7.74 26.132c-.962-3.372 1.156-6.852 4.593-7.554l42.873-8.744c3.135-.637 6.225 1.286 7.025 4.377l9.446 36.076a2.73 2.73 0 0 1-1.924 3.329Z" stroke="#6C6E79" stroke-width=".7" stroke-linecap="round" stroke-linejoin="round"/><path d="M17.93 61.9c1.501-8.375 3.306-15.357 8.202-16.718 7.209-2.01 13.628 7.608 18.913 4.3 4.442-2.777 3.2-14.762 11.65-21.041 3.416-2.53 10.808-3.664 20.146-3.556" stroke="#6C6E79" stroke-width=".7" stroke-linecap="round" stroke-linejoin="round"/><path d="M59.331 27.92c.443 1.674-.367 3.296-1.816 3.641-1.448.346-3.004-.745-3.458-2.42-.454-1.675.367-3.33 1.837-3.653 1.46-.325 2.994.767 3.448 2.442l-.011-.01ZM28.759 44.57c.443 1.675-.368 3.296-1.816 3.642-1.448.346-3.005-.746-3.458-2.42-.454-1.676.367-3.33 1.837-3.654 1.459-.324 2.994.768 3.448 2.443l-.011-.011ZM47.672 48.877c.443 1.675-.368 3.297-1.816 3.642-1.448.346-3.005-.745-3.459-2.42-.453-1.675.368-3.33 1.838-3.653 1.47-.325 2.993.767 3.447 2.442l-.01-.01Z" fill="#6C6E79"/></svg>