<svg width="80" height="80" viewBox="0 0 80 80" fill="none" xmlns="http://www.w3.org/2000/svg">
  <path d="M40.04 4.3V1.9c0-.49-.5-.9-.99-.9A39.23 39.23 0 0 0 4.3 39.96H1.9c-.49 0-.9.5-.9.99A39.23 39.23 0 0 0 39.96 75.7v2.4c0 .49.5.9.99.9A39.23 39.23 0 0 0 75.7 40.04h2.4c.49 0 .9-.41.9-.99A39.23 39.23 0 0 0 40.04 4.3Z" fill="#E0E1E9"/>
  <path d="M63.91 57.68s.1-.05.12-.09l6.5-4.32-3.14-1.7-3.13.76-8.3-31.68a5.7 5.7 0 0 0-6.68-4.15L9.7 24.57l-1.4-3.13-3.4 5.88a6.5 6.5 0 0 0-.22.37v.02a5.64 5.64 0 0 0-.46 4.25L14.66 68.6a2.59 2.59 0 0 0 3.18 1.79l45.27-12.34c.27-.08.52-.2.75-.35l.05-.03Z" fill="#E0E1E9" stroke="#6C6E79" stroke-width=".7" stroke-linecap="round" stroke-linejoin="round"/>
  <path d="m69.75 53.62-47.67 13a2.73 2.73 0 0 1-3.35-1.9L7.74 26.14a6.03 6.03 0 0 1 4.6-7.55L55.2 9.83a6.02 6.02 0 0 1 7.02 4.38l9.45 36.08a2.73 2.73 0 0 1-1.93 3.33Z" fill="#fff"/>
  <path d="M63.44 18.88 9.05 30.82l-1.34-4.69a6.03 6.03 0 0 1 4.6-7.55l42.87-8.74a6.02 6.02 0 0 1 7.03 4.38l1.22 4.67v-.01Z" fill="#6C6E79"/>
  <path d="M16.38 23.49a1.87 1.87 0 0 1-1.41 2.37 2.19 2.19 0 0 1-2.53-1.53 1.87 1.87 0 0 1 1.43-2.36 2.2 2.2 0 0 1 2.51 1.53v-.01Z" fill="#fff"/>
  <path d="M23.37 22.01c.29 1.06-.33 2.1-1.4 2.33a2.15 2.15 0 0 1-2.47-1.52 1.85 1.85 0 0 1 1.4-2.34A2.14 2.14 0 0 1 23.37 22V22Z" fill="#E0E1E9"/>
  <path d="M9.08 30.91s.32-3.15.6-6.38l-1.37-3.08-3.42 5.88a6.5 6.5 0 0 0-.21.36v.03a5.64 5.64 0 0 0-.46 4.24l1.4 4.9 3.46-5.96v.01Z" fill="#6C6E79"/>
  <path d="M71.69 50.29 65.2 25.56c-3.75.58-6.7 1.52-8.51 2.87-8.47 6.28-7.22 18.27-11.65 21.05-5.29 3.3-11.7-6.32-18.92-4.3-4.9 1.36-6.7 8.34-8.2 16.71l.81 2.83a2.74 2.74 0 0 0 3.35 1.9l47.67-13a2.73 2.73 0 0 0 1.93-3.33Z" fill="#E0E1E9"/>
  <path d="m69.75 53.62-47.67 13a2.73 2.73 0 0 1-3.35-1.9L7.74 26.14a6.03 6.03 0 0 1 4.6-7.55L55.2 9.83a6.02 6.02 0 0 1 7.02 4.38l9.45 36.08a2.73 2.73 0 0 1-1.93 3.33Z" stroke="#6C6E79" stroke-width=".7" stroke-linecap="round" stroke-linejoin="round"/>
  <path d="M17.93 61.9c1.5-8.38 3.3-15.36 8.2-16.72 7.21-2 13.63 7.61 18.92 4.3 4.44-2.77 3.2-14.76 11.65-21.04 3.41-2.53 10.8-3.66 20.14-3.55" stroke="#6C6E79" stroke-width=".7" stroke-linecap="round" stroke-linejoin="round"/>
  <path d="M59.33 27.92c.44 1.67-.37 3.3-1.81 3.64-1.45.35-3-.74-3.46-2.42-.46-1.67.36-3.33 1.83-3.65 1.46-.33 3 .77 3.45 2.44v-.01ZM28.76 44.57c.44 1.68-.37 3.3-1.82 3.64-1.45.35-3-.74-3.46-2.42-.45-1.67.37-3.33 1.84-3.65 1.46-.33 3 .77 3.45 2.44l-.01-.01ZM47.67 48.88c.44 1.67-.37 3.3-1.81 3.64-1.45.35-3-.75-3.46-2.42-.46-1.68.36-3.33 1.83-3.65 1.47-.33 3 .76 3.45 2.44v-.01Z" fill="#6C6E79"/>
</svg>
