<svg width="80" height="80" viewBox="0 0 80 80" fill="none" xmlns="http://www.w3.org/2000/svg"><path d="M39.959 1C18.46 1 1 15.865 1 37.502 1 58.89 21.838 68.305 39.465 78.876c.33.165.74.165 1.07 0C58.573 68.636 79 58.891 79 37.502 78.918 15.948 61.539 1 39.959 1Z" fill="#E0E1E9"/><path d="M65.925 57.617s.086-.054.119-.086l6.495-4.324-3.134-1.696-3.134.756-8.3-31.677a5.705 5.705 0 0 0-6.68-4.15l-39.588 8.073-1.394-3.123-3.415 5.88a6.51 6.51 0 0 0-.216.367v.021a5.638 5.638 0 0 0-.454 4.248l10.44 36.648a2.587 2.587 0 0 0 3.177 1.794l45.273-12.342a2.94 2.94 0 0 0 .746-.346l.054-.032.01-.011Z" fill="#E0E1E9" stroke="#6C6E79" stroke-width=".7" stroke-linecap="round" stroke-linejoin="round"/><path d="M71.763 53.553 24.091 66.555a2.734 2.734 0 0 1-3.35-1.892L9.749 26.07c-.961-3.372 1.157-6.852 4.594-7.555l42.873-8.743c3.134-.638 6.225 1.286 7.025 4.377l9.446 36.075a2.73 2.73 0 0 1-1.924 3.33Z" fill="#fff"/><path d="M65.452 18.818 11.07 30.76l-1.34-4.69c-.962-3.372 1.156-6.852 4.593-7.555l42.884-8.743c3.134-.638 6.225 1.286 7.025 4.377l1.221 4.669Z" fill="#6C6E79"/><path d="M18.394 23.427a1.873 1.873 0 0 1-1.416 2.367c-1.08.238-2.226-.454-2.529-1.524a1.868 1.868 0 0 1 1.427-2.366c1.091-.227 2.215.464 2.518 1.534v-.01Z" fill="#fff"/><path d="M25.375 21.958c.292 1.059-.324 2.107-1.394 2.334-1.07.227-2.183-.454-2.475-1.524-.292-1.07.324-2.118 1.405-2.345 1.08-.227 2.172.465 2.464 1.524v.01Z" fill="#E0E1E9"/><path d="M11.087 30.862s.324-3.156.605-6.387l-1.372-3.08-3.415 5.879a6.51 6.51 0 0 0-.217.367v.022a5.638 5.638 0 0 0-.453 4.247l1.394 4.907 3.458-5.966v.01Z" fill="#6C6E79"/><path d="M71.763 53.553 24.091 66.555a2.734 2.734 0 0 1-3.35-1.892L9.749 26.07c-.961-3.372 1.157-6.852 4.594-7.555l42.873-8.743c3.134-.638 6.225 1.286 7.025 4.377l9.446 36.075a2.73 2.73 0 0 1-1.924 3.33v0Z" stroke="#6C6E79" stroke-width=".7" stroke-linecap="round" stroke-linejoin="round"/><path d="m19.636 37.994-.519 3.264 3.123-.746 2.184 2.605.55 3.069 2.378 2.205 3.967.151 1.426.303-1.361-.843-2.551-1.578.378-.487 1.297.033 2.432-3.242 2.064-1.74-2.55-1.881-.8.227-.227 1.783-.865.022-1.513-1.178 2.054-2.032-1.049-1.21-.637.108-1.081.918-7.328-1.232-1.372 1.48Z" fill="#E0E1E9" stroke="#6C6E79" stroke-width=".7" stroke-linecap="round" stroke-linejoin="round"/><path d="m33.017 33.731 3.977-2.799 1.913.735-.086 4.301-2.897 2.832-.713-.227-1.037-4.323-1.038-.065-.119-.454ZM32.086 50.378l1.502-2.713 5.112 1.46.919.032.076 2.29-2.843 3.621.627 1.719-.573.497-1.902-1.157-.983-4.312-1.935-1.437Z" fill="#6C6E79" stroke="#6C6E79" stroke-width=".7" stroke-linecap="round" stroke-linejoin="round"/><path d="m41.384 46.005 1.697 1.264 2.69-1.08.606.205.875 3.393.681 1.06 1.08.529 1.017-.281.659-.908 1.654-6.29-4.183-2.745-2.097.54-1.815-.032-2.627 1.783-.237 2.562Z" stroke="#6C6E79" stroke-width=".7" stroke-linecap="round" stroke-linejoin="round"/><path d="m40.928 40.382.065 1.156.66.238 2.16-1.708 2.087.4 2.204-.54.249.195-.313 1.026 2.799 1.762 1.361-.562-.162-.605-1.577-.843.497-.487 2.312.508 1.114 1.103.994.68.627-.161.151-1.233.757-.734.886.626 1.07.108.454-.41-.195-.757.249-.313.853.043.638-.8.346-.497-.367-.508-.865-.756 1.33-1.557.172-.93-.108-1.318-.065-.237-1.07.043-.432-.238-.216-.8 1.275-.68.162-.465.638-.778.843.724.68.432.552-.173-.951-3.61-1.221-.605-7.674 2.507-1.07.627-.346-.389.249-.692-.27-.28-1.794.41-1.362 3.837-2.518 1.718-2.562-.562-1.729 2.54.919 1.21-2.486 2.335Z" fill="#E0E1E9" stroke="#6C6E79" stroke-width=".7" stroke-linecap="round" stroke-linejoin="round"/><path d="m61.98 45.577 2.302-2.13 1.394-.356.908.097.162.627 1.243 1.027-.519 2.431-1.426.379-1.016-.822-2.41.627-.638-1.88Z" fill="#6C6E79" stroke="#6C6E79" stroke-width=".7" stroke-linecap="round" stroke-linejoin="round"/></svg>