<svg width="80" height="80" viewBox="0 0 80 80" fill="none" xmlns="http://www.w3.org/2000/svg">
  <path d="M39.96 1C18.46 1 1 15.87 1 37.5c0 21.4 20.84 30.8 38.46 41.38.33.16.75.16 1.08 0C58.57 68.64 79 58.89 79 37.5 78.92 15.95 61.54 1 39.96 1Z" fill="#E0E1E9"/>
  <path d="M65.92 57.62s.1-.06.12-.09l6.5-4.32-3.14-1.7-3.13.76-8.3-31.68a5.7 5.7 0 0 0-6.68-4.15L11.7 24.51l-1.4-3.12-3.4 5.88-.22.37v.02a5.64 5.64 0 0 0-.46 4.25l10.44 36.64a2.59 2.59 0 0 0 3.18 1.8L65.11 58c.27-.08.52-.2.75-.35l.05-.03.01-.01Z" fill="#E0E1E9" stroke="#6C6E79" stroke-width=".7" stroke-linecap="round" stroke-linejoin="round"/>
  <path d="m71.76 53.55-47.67 13a2.73 2.73 0 0 1-3.35-1.89l-11-38.59a6.03 6.03 0 0 1 4.6-7.55l42.88-8.75a6.02 6.02 0 0 1 7.02 4.38l9.45 36.07a2.73 2.73 0 0 1-1.93 3.33Z" fill="#fff"/>
  <path d="M65.45 18.82 11.07 30.76l-1.34-4.69a6.03 6.03 0 0 1 4.6-7.55L57.2 9.77a6.02 6.02 0 0 1 7.02 4.38l1.22 4.67Z" fill="#6C6E79"/>
  <path d="M18.4 23.43a1.87 1.87 0 0 1-1.42 2.36 2.2 2.2 0 0 1-2.53-1.52 1.87 1.87 0 0 1 1.43-2.37 2.2 2.2 0 0 1 2.51 1.54v-.01Z" fill="#fff"/>
  <path d="M25.37 21.96c.3 1.06-.32 2.1-1.39 2.33a2.15 2.15 0 0 1-2.47-1.52 1.85 1.85 0 0 1 1.4-2.35 2.14 2.14 0 0 1 2.46 1.53Z" fill="#E0E1E9"/>
  <path d="M11.09 30.86s.32-3.15.6-6.39l-1.37-3.08-3.42 5.88-.21.37v.02a5.64 5.64 0 0 0-.46 4.25l1.4 4.9 3.46-5.96v.01Z" fill="#6C6E79"/>
  <path d="m71.76 53.55-47.67 13a2.73 2.73 0 0 1-3.35-1.89l-11-38.59a6.03 6.03 0 0 1 4.6-7.55l42.88-8.75a6.02 6.02 0 0 1 7.02 4.38l9.45 36.07a2.73 2.73 0 0 1-1.93 3.33v0Z" stroke="#6C6E79" stroke-width=".7" stroke-linecap="round" stroke-linejoin="round"/>
  <path d="m19.64 38-.52 3.26 3.12-.75 2.18 2.6.55 3.08 2.38 2.2 3.97.15 1.43.3-1.37-.84-2.55-1.58.38-.48 1.3.03 2.43-3.24L35 40.99l-2.55-1.88-.8.22-.22 1.79-.87.02-1.51-1.18 2.05-2.03-1.05-1.21-.63.1-1.08.93L21 36.5 19.64 38Z" fill="#E0E1E9" stroke="#6C6E79" stroke-width=".7" stroke-linecap="round" stroke-linejoin="round"/>
  <path d="m33.02 33.73 3.97-2.8 1.92.74-.09 4.3-2.9 2.83-.7-.23-1.05-4.32-1.03-.06-.12-.46ZM32.09 50.38l1.5-2.72 5.11 1.46.92.04.07 2.29-2.84 3.62.63 1.72-.57.5-1.9-1.16-.99-4.31-1.93-1.44Z" fill="#6C6E79" stroke="#6C6E79" stroke-width=".7" stroke-linecap="round" stroke-linejoin="round"/>
  <path d="m41.38 46 1.7 1.27 2.7-1.08.6.2.87 3.4.68 1.06 1.08.53 1.02-.29.66-.9 1.65-6.3-4.18-2.74-2.1.54-1.81-.03-2.63 1.78-.24 2.56Z" stroke="#6C6E79" stroke-width=".7" stroke-linecap="round" stroke-linejoin="round"/>
  <path d="m40.93 40.38.06 1.16.66.24 2.16-1.71 2.09.4 2.2-.54.25.2-.31 1.02 2.8 1.76 1.36-.56-.16-.6-1.58-.85.5-.49 2.31.51 1.11 1.1 1 .69.62-.17.16-1.23.75-.73.89.62 1.07.11.45-.4-.2-.77.26-.3.85.03.64-.8.34-.5-.36-.5-.87-.76 1.33-1.55.17-.93-.1-1.32-.07-.24-1.07.04-.43-.23-.22-.8 1.28-.68.16-.47.64-.78.84.73.68.43.55-.17-.95-3.61-1.22-.6-7.67 2.5-1.07.63-.35-.4.25-.69-.27-.28-1.8.41-1.36 3.84-2.51 1.72-2.57-.56-1.72 2.54.91 1.2-2.48 2.34Z" fill="#E0E1E9" stroke="#6C6E79" stroke-width=".7" stroke-linecap="round" stroke-linejoin="round"/>
  <path d="m61.98 45.58 2.3-2.13 1.4-.36.9.1.17.62 1.24 1.03-.52 2.43-1.43.38-1.01-.82-2.41.63-.64-1.88Z" fill="#6C6E79" stroke="#6C6E79" stroke-width=".7" stroke-linecap="round" stroke-linejoin="round"/>
</svg>
