<svg xmlns="http://www.w3.org/2000/svg" width="80" height="80" fill="none" viewBox="0 0 80 80">
  <path fill="#E0E1E9" d="M57.81 4.7a22.12 22.12 0 0 0-17.81 9 22.12 22.12 0 0 0-17.97-9A22.1 22.1 0 0 0 .02 25.93C-.91 50.51 34.7 76.01 39.48 79.31a.9.9 0 0 0 1.04 0C45.19 75.95 80 50.14 80 26.9A22.18 22.18 0 0 0 57.82 4.71"/>
  <path fill="#fff" stroke="#6C6E79" stroke-linecap="round" stroke-linejoin="round" stroke-width=".7" d="M43.68 64.8c14.64 0 26.5-2.93 26.5-6.56s-11.86-6.56-26.5-6.56-26.51 2.94-26.51 6.56c0 3.63 11.87 6.56 26.5 6.56Z"/>
  <path fill="#6C6E79" stroke="#6C6E79" stroke-linecap="round" stroke-linejoin="round" stroke-width=".7" d="M43.68 64.81c-13.5 0-24.62-2.5-26.3-5.72.95 2.8 4.04 5.95 6.54 7.67a6.98 6.98 0 0 0 1.5.9c3.46 1.6 10.32 2.71 18.23 2.71 7.92 0 14.78-1.1 18.25-2.72.08-.03.15-.08.23-.12a6.9 6.9 0 0 0 1.26-.77c2.51-1.72 5.6-4.87 6.53-7.67-1.67 3.23-12.8 5.72-26.29 5.72h.05Z"/>
  <path stroke="#6C6E79" stroke-linecap="round" stroke-linejoin="round" stroke-width=".7" d="M61.65 41.55c2.42-.6 3.78-.26 4.85.79 2.73 2.7-.93 10.4-8.2 12.47m-31.83 5.85c-.42-.38-.64-.76-.64-1.17 0-2.44 8-4.42 17.84-4.42 4.86 0 9.27.49 12.5 1.26"/>
  <path fill="#fff" stroke="#6C6E79" stroke-linecap="round" stroke-linejoin="round" stroke-width=".7" d="M43.68 43.88c10.16 0 18.4-2.63 18.4-5.86 0-3.24-8.24-5.86-18.4-5.86-10.17 0-18.41 2.62-18.41 5.86 0 3.23 8.24 5.85 18.4 5.85Z"/>
  <path fill="#6C6E79" stroke="#6C6E79" stroke-linecap="round" stroke-linejoin="round" stroke-width=".7" d="M43.68 43.88c5.98 0 11.27-.91 14.63-2.33-1.78-2.04-7.65-3.54-14.63-3.54-6.99 0-12.85 1.5-14.63 3.55 3.36 1.4 8.65 2.31 14.63 2.31Z"/>
  <path fill="#fff" stroke="#6C6E79" stroke-linecap="round" stroke-linejoin="round" stroke-width=".7" d="M62.09 38.02c0 3.24-8.25 5.85-18.41 5.85-10.17 0-18.41-2.61-18.41-5.85-1.25 10.57 3.71 19.4 8.44 22.82C35.25 62.1 39.13 63 43.67 63c4.54 0 8.42-.9 9.95-2.17 4.73-3.42 9.7-12.25 8.45-22.82h.02Z"/>
  <path stroke="#6C6E79" stroke-linecap="round" stroke-linejoin="round" stroke-width=".7" d="M32.98 49.32a3.67 3.67 0 0 1 3.63-2.38 3.65 3.65 0 0 1 2.57 1.6m16.98.78a3.67 3.67 0 0 0-3.62-2.38 3.66 3.66 0 0 0-2.58 1.6m-9.7 2.43a4.5 4.5 0 0 0 4.56 4.92 4.43 4.43 0 0 0 4.06-4.92h-8.63ZM51.87 1c1.63 1.25 4.83 3.68 5.31 7.64 1.12 8.98-12.63 12.34-10.3 18.57m-2.8-18.48c5.87 7.52-10.28 15.53-8.25 25.01a9.91 9.91 0 0 0 4.38 6.06"/>
</svg>
