<svg width="80" height="80" viewBox="0 0 80 80" fill="none" xmlns="http://www.w3.org/2000/svg"><path d="M57.811 4.702c-7.315 0-13.78 3.558-17.813 9.006C35.93 8.216 29.4 4.647 22.03 4.702 10.184 4.779.46 14.095.018 25.93c-.928 24.576 34.687 50.08 39.46 53.384.321.22.73.22 1.04 0C45.19 75.954 80 50.14 80 26.89c0-12.255-9.934-22.178-22.178-22.178" fill="#E0E1E9"/><path d="M43.678 64.804c14.64 0 26.51-2.939 26.51-6.564s-11.87-6.564-26.51-6.564c-14.641 0-26.51 2.94-26.51 6.564 0 3.625 11.869 6.564 26.51 6.564Z" fill="#fff" stroke="#6C6E79" stroke-width=".7" stroke-linecap="round" stroke-linejoin="round"/><path d="M43.678 64.815c-13.493 0-24.62-2.497-26.29-5.724.94 2.796 4.034 5.945 6.532 7.67.331.264.762.53 1.26.773.077.044.165.088.231.121 3.47 1.614 10.332 2.719 18.245 2.719 7.912 0 14.774-1.105 18.244-2.719.077-.033.154-.088.232-.121a6.89 6.89 0 0 0 1.26-.774c2.508-1.724 5.59-4.873 6.53-7.669-1.668 3.227-12.796 5.724-26.289 5.724h.045Z" fill="#6C6E79" stroke="#6C6E79" stroke-width=".7" stroke-linecap="round" stroke-linejoin="round"/><path d="M61.645 41.555c2.42-.597 3.78-.265 4.851.784 2.73 2.697-.928 10.41-8.188 12.476M26.472 60.66c-.42-.375-.64-.762-.64-1.17 0-2.443 7.989-4.42 17.834-4.42 4.863 0 9.272.486 12.498 1.26" stroke="#6C6E79" stroke-width=".7" stroke-linecap="round" stroke-linejoin="round"/><path d="M43.678 43.875c10.167 0 18.41-2.622 18.41-5.856 0-3.235-8.243-5.857-18.41-5.857-10.168 0-18.41 2.622-18.41 5.857 0 3.234 8.242 5.856 18.41 5.856Z" fill="#fff" stroke="#6C6E79" stroke-width=".7" stroke-linecap="round" stroke-linejoin="round"/><path d="M43.678 43.876c5.978 0 11.271-.907 14.63-2.321-1.779-2.044-7.647-3.547-14.63-3.547-6.984 0-12.852 1.503-14.63 3.547 3.358 1.403 8.652 2.32 14.63 2.32Z" fill="#6C6E79" stroke="#6C6E79" stroke-width=".7" stroke-linecap="round" stroke-linejoin="round"/><path d="M62.088 38.019c0 3.237-8.244 5.856-18.41 5.856s-18.41-2.619-18.41-5.856c-1.249 10.575 3.713 19.404 8.442 22.819 1.536 1.27 5.415 2.176 9.957 2.176 4.541 0 8.42-.906 9.956-2.177 4.73-3.414 9.702-12.243 8.443-22.818h.022Z" fill="#fff" stroke="#6C6E79" stroke-width=".7" stroke-linecap="round" stroke-linejoin="round"/><path d="M32.981 49.323c.64-1.569 2.133-2.52 3.624-2.387 1.57.144 2.454 1.415 2.575 1.603M56.165 49.323c-.641-1.57-2.133-2.52-3.625-2.387-1.57.144-2.453 1.415-2.575 1.602M40.252 50.97c-.332 2.818 2.155 5.039 4.564 4.917 2.276-.11 4.398-2.287 4.066-4.917h-8.63ZM51.877 1c1.636 1.249 4.83 3.68 5.315 7.636 1.116 8.984-12.63 12.343-10.31 18.575M44.097 8.735c5.868 7.514-10.288 15.526-8.254 25.007.364 1.724 1.624 4.288 4.376 6.056" stroke="#6C6E79" stroke-width=".7" stroke-linecap="round" stroke-linejoin="round"/></svg>