<svg width="80" height="80" viewBox="0 0 80 80" fill="none" xmlns="http://www.w3.org/2000/svg"><path d="M14.783 65.206c6.456 6.455 15.365 10.446 25.222 10.446v2.443c0 .49.404.894.895.883 20.827-.469 37.63-17.273 38.1-38.1a.882.882 0 0 0-.883-.894h-2.443c0-19.694-15.964-35.669-35.669-35.669V1.883A.882.882 0 0 0 39.111 1c-10.086.23-19.235 4.286-26.04 10.785a.876.876 0 0 0 0 1.265l1.723 1.733c-6.477 6.445-10.468 15.354-10.468 25.2H1.883a.882.882 0 0 0-.883.895c.23 10.086 4.297 19.235 10.785 26.04.338.36.905.36 1.265 0l1.733-1.723v.01Z" fill="#E0E1E9"/><path d="M65.402 59.983s.087-.055.12-.088l6.553-4.362-3.162-1.712-3.162.764-8.375-31.961a5.756 5.756 0 0 0-6.739-4.187L10.705 26.57 9.3 23.42l-3.446 5.932c-.077.12-.153.25-.218.37v.022a5.688 5.688 0 0 0-.458 4.286L15.71 71.007a2.61 2.61 0 0 0 3.206 1.81l45.679-12.453c.273-.076.523-.207.752-.349l.055-.032Z" fill="#6C6E79" stroke="#6C6E79" stroke-width=".7" stroke-linecap="round" stroke-linejoin="round"/><path d="M10.073 32.983s.327-3.184.61-6.444L9.3 23.43l-3.446 5.932c-.077.12-.153.25-.218.37v.023a5.688 5.688 0 0 0-.458 4.285l1.406 4.95 3.49-6.019v.011Z" fill="#6C6E79"/><path d="M71.29 55.882 23.19 69a2.758 2.758 0 0 1-3.38-1.908L8.72 28.152c-.97-3.402 1.167-6.913 4.635-7.622l43.258-8.822c3.162-.643 6.281 1.298 7.088 4.417l9.53 36.399a2.754 2.754 0 0 1-1.94 3.358Z" fill="#fff" stroke="#6C6E79" stroke-width=".7" stroke-linecap="round" stroke-linejoin="round"/><path d="m63.107 16 1.131 4.308L10.322 32.1l-1.255-4.375c-.91-3.175 1.092-6.454 4.345-7.117l43.05-8.733c2.966-.602 5.889 1.213 6.645 4.122V16Z" fill="#E0E1E9" stroke="#6C6E79" stroke-width=".7"/><path d="M17.444 25.48a1.89 1.89 0 0 1-1.428 2.389c-1.102.24-2.247-.458-2.552-1.538a1.885 1.885 0 0 1 1.44-2.388c1.1-.229 2.235.47 2.54 1.549v-.011ZM24.488 23.998c.295 1.068-.327 2.126-1.406 2.355-1.08.23-2.203-.458-2.497-1.537-.295-1.08.327-2.138 1.417-2.367 1.09-.229 2.192.47 2.486 1.538v.01Z" fill="#6C6E79"/><path d="M57.344 37.52 20.9 46.647l-1.887-6.652 36.65-8.855a.893.893 0 0 1 1.069.633l1.265 4.656c.13.48-.164.97-.643 1.09h-.011ZM52.437 49.787l-28.504 7.535-1.876-6.598 28.624-7.327 1.756 6.39Z" fill="#E0E1E9"/><path d="M77.168 28.992c0 6.76-3.184 12.77-8.135 16.618a20.926 20.926 0 0 1-2.617 1.734 20.545 20.545 0 0 1-3.304 1.494 20.908 20.908 0 0 1-6.99 1.189c-11.624 0-21.045-9.422-21.045-21.046 0-11.624 9.432-21.024 21.045-21.024 7.263 0 13.663 3.675 17.447 9.28a20.949 20.949 0 0 1 3.599 11.766v-.011Z" fill="#fff"/><path d="M63.123 48.849a20.909 20.909 0 0 1-6.99 1.189c-11.624 0-21.045-9.422-21.045-21.046 0-11.624 9.421-21.035 21.034-21.035 5.213 0 9.978 1.898 13.653 5.027M73.57 17.226a20.949 20.949 0 0 1 3.598 11.766c0 6.76-3.184 12.77-8.135 16.618" stroke="#6C6E79" stroke-linecap="round" stroke-linejoin="round"/><path d="M56.122 14.794v14.198l8.2-5.616M53.767 45.61l9.356 3.239-8.418 6.107" stroke="#6C6E79" stroke-linecap="round" stroke-linejoin="round"/></svg>