<svg width="80" height="80" viewBox="0 0 80 80" fill="none" xmlns="http://www.w3.org/2000/svg">
  <path d="M14.78 65.2a35.54 35.54 0 0 0 25.23 10.45v2.44c0 .5.4.9.89.89A39.01 39.01 0 0 0 79 40.88c.01-.5-.4-.9-.88-.9h-2.45A35.67 35.67 0 0 0 40.01 4.32V1.88c0-.49-.4-.9-.9-.88a38.88 38.88 0 0 0-26.04 10.78.88.88 0 0 0 0 1.27l1.72 1.73a35.42 35.42 0 0 0-10.46 25.2H1.88c-.49 0-.9.4-.88.9a38.93 38.93 0 0 0 10.78 26.04c.34.36.91.36 1.27 0l1.73-1.73v.02Z" fill="#E0E1E9"/>
  <path d="m65.4 59.98.12-.08 6.56-4.37-3.17-1.7-3.16.75-8.37-31.96a5.76 5.76 0 0 0-6.74-4.18L10.7 26.57 9.3 23.42l-3.45 5.93-.22.37v.02a5.69 5.69 0 0 0-.45 4.29L15.7 71.01a2.61 2.61 0 0 0 3.2 1.8L64.6 60.37c.27-.07.52-.2.75-.34l.05-.04v0Z" fill="#6C6E79" stroke="#6C6E79" stroke-width=".7" stroke-linecap="round" stroke-linejoin="round"/>
  <path d="M10.07 32.98s.33-3.18.61-6.44l-1.38-3.1-3.45 5.92-.22.37v.03a5.69 5.69 0 0 0-.45 4.28L6.58 39l3.5-6.02v.01Z" fill="#6C6E79"/>
  <path d="M71.29 55.88 23.19 69a2.76 2.76 0 0 1-3.38-1.9L8.72 28.14a6.08 6.08 0 0 1 4.63-7.62l43.26-8.82a6.07 6.07 0 0 1 7.1 4.41l9.52 36.4a2.75 2.75 0 0 1-1.94 3.36Z" fill="#fff" stroke="#6C6E79" stroke-width=".7" stroke-linecap="round" stroke-linejoin="round"/>
  <path d="m63.1 16 1.14 4.3-53.92 11.8-1.25-4.37a5.68 5.68 0 0 1 4.34-7.12l43.05-8.73A5.7 5.7 0 0 1 63.11 16Z" fill="#E0E1E9" stroke="#6C6E79" stroke-width=".7"/>
  <path d="M17.44 25.48a1.89 1.89 0 0 1-1.42 2.39 2.2 2.2 0 0 1-2.56-1.54 1.88 1.88 0 0 1 1.44-2.39c1.1-.23 2.24.47 2.54 1.55ZM24.49 24a1.86 1.86 0 0 1-1.4 2.35 2.16 2.16 0 0 1-2.5-1.53A1.87 1.87 0 0 1 22 22.45c1.1-.23 2.2.47 2.49 1.54Z" fill="#6C6E79"/>
  <path d="M57.34 37.52 20.9 46.65l-1.89-6.66 36.65-8.85a.9.9 0 0 1 1.07.63L58 36.43a.89.89 0 0 1-.65 1.09ZM52.44 49.79l-28.5 7.53-1.88-6.6 28.62-7.32 1.76 6.39Z" fill="#E0E1E9"/>
  <path d="M77.17 29a21 21 0 0 1-21.05 21.03A21.04 21.04 0 1 1 77.17 29Z" fill="#fff"/>
  <path d="M63.12 48.85a21.04 21.04 0 1 1 6.65-35.86M73.57 17.23a21 21 0 0 1-4.54 28.38" stroke="#6C6E79" stroke-linecap="round" stroke-linejoin="round"/>
  <path d="M56.12 14.8V29l8.2-5.62M53.77 45.61l9.35 3.24-8.42 6.1" stroke="#6C6E79" stroke-linecap="round" stroke-linejoin="round"/>
</svg>
