<svg width="80" height="80" viewBox="0 0 80 80" fill="none" xmlns="http://www.w3.org/2000/svg"><path d="M40.25 4.302V1.908c0-.495-.489-.908-.977-.908C19.98 3.229 5 19.82 5 39.959c0 19.727 15.793 35.74 35.25 35.74v2.393c0 .495.489.908.977.908C60.52 76.771 75.5 60.181 75.5 40.041c0-19.81-15.793-35.74-35.25-35.74Z" fill="#E0E1E9"/><path d="M65.925 57.607s.086-.054.119-.087l6.495-4.323-3.134-1.696-3.134.756-8.3-31.677a5.705 5.705 0 0 0-6.68-4.15l-39.588 8.073-1.394-3.123-3.415 5.88a6.504 6.504 0 0 0-.216.367v.021a5.637 5.637 0 0 0-.454 4.248l10.44 36.648a2.587 2.587 0 0 0 3.177 1.794l45.273-12.342a2.94 2.94 0 0 0 .746-.346l.054-.032.01-.011Z" fill="#E0E1E9" stroke="#6C6E79" stroke-width=".7" stroke-linecap="round" stroke-linejoin="round"/><path d="M71.77 53.554 24.098 66.555a2.734 2.734 0 0 1-3.35-1.891L9.756 26.07c-.962-3.372 1.157-6.852 4.594-7.554l42.873-8.744c3.134-.637 6.225 1.286 7.025 4.377l9.446 36.076a2.73 2.73 0 0 1-1.924 3.329Z" fill="#fff"/><path d="M65.448 18.818 11.065 30.761l-1.34-4.69c-.962-3.373 1.156-6.853 4.593-7.555l42.884-8.744c3.135-.637 6.226 1.286 7.025 4.377l1.221 4.67Z" fill="#6C6E79"/><path d="M18.394 23.419a1.873 1.873 0 0 1-1.416 2.366c-1.091.238-2.226-.454-2.529-1.523a1.868 1.868 0 0 1 1.427-2.367c1.091-.227 2.215.464 2.518 1.534v-.01Z" fill="#fff"/><path d="M25.375 21.938c.292 1.06-.324 2.108-1.394 2.335-1.07.227-2.183-.454-2.475-1.524-.292-1.07.324-2.118 1.405-2.345 1.07-.227 2.172.464 2.464 1.523v.011Z" fill="#E0E1E9"/><path d="M11.087 30.842s.324-3.155.605-6.387l-1.372-3.08-3.415 5.88a6.51 6.51 0 0 0-.216.367v.021a5.637 5.637 0 0 0-.454 4.248l1.394 4.906 3.458-5.965v.01Z" fill="#6C6E79"/><path d="M71.77 53.554 24.098 66.555a2.734 2.734 0 0 1-3.35-1.891L9.756 26.07c-.962-3.372 1.157-6.852 4.594-7.554l42.873-8.744c3.134-.637 6.225 1.286 7.025 4.377l9.446 36.076a2.73 2.73 0 0 1-1.924 3.329Z" stroke="#6C6E79" stroke-width=".7" stroke-linecap="round" stroke-linejoin="round"/><path d="M21.767 54.803c1.718-7.165 5.025-10.267 7.792-11.748 5.685-3.047 9.846 2.626 15.53 1.21 6.323-1.577 8.279-10.98 11.1-14.395 2.518-3.059 4.842-2.994 8.689-2.67" stroke="#6C6E79" stroke-width=".7" stroke-linecap="round" stroke-linejoin="round"/><path d="m34.517 48.516-7.112 1.783a.806.806 0 0 0-.572.995l2.702 9.64 8.602-2.291-2.648-9.576a.793.793 0 0 0-.961-.562l-.011.011Z" fill="#E0E1E9" stroke="#6C6E79" stroke-width=".7" stroke-linecap="round" stroke-linejoin="round"/><path d="m44.396 28.283-6.885 1.589a.786.786 0 0 0-.583.972l7.187 26.209 8.278-2.205-7.057-26.014a.787.787 0 0 0-.94-.562v.01Z" fill="#6C6E79"/><path d="m60.974 34.836-6.517 1.578a.802.802 0 0 0-.583.983l4.269 15.941 7.976-2.118-4.183-15.8a.803.803 0 0 0-.962-.573v-.011ZM23.937 62.422l45.65-12.137" stroke="#6C6E79" stroke-width=".7" stroke-linecap="round" stroke-linejoin="round"/><path d="M21.767 54.803c1.718-7.165 5.025-10.267 7.792-11.748 5.685-3.047 9.846 2.627 15.53 1.21 6.323-1.577 8.279-10.98 11.1-14.395 2.518-3.058 4.842-2.994 8.689-2.67" stroke="#6C6E79" stroke-width=".7" stroke-linecap="round" stroke-linejoin="round"/><path d="M58.79 29.258c.346 1.286-.54 2.604-1.977 2.94-1.438.334-2.897-.433-3.242-1.719-.346-1.286.55-2.616 1.999-2.95 1.448-.335 2.886.443 3.22 1.729ZM31.946 42.213c.367 1.329-.584 2.702-2.13 3.08-1.545.378-3.112-.39-3.48-1.73-.367-1.34.595-2.723 2.14-3.09 1.546-.368 3.102.41 3.47 1.729v.01ZM47.769 43.598c.356 1.297-.562 2.648-2.043 3.026-1.48.379-2.983-.378-3.34-1.686-.356-1.307.562-2.669 2.054-3.036 1.48-.368 2.972.389 3.318 1.696h.01Z" fill="#fff" stroke="#6C6E79" stroke-width=".7" stroke-linecap="round" stroke-linejoin="round"/><path d="m57.743 35.65-3.108 4.532M56.132 45.834l6.153-8.972M57.685 51.402 63.79 42.5M62.57 52.123l2.693-3.927M44.396 28.283l-6.885 1.589a.786.786 0 0 0-.583.972l7.187 26.209 8.278-2.205-7.057-26.014a.787.787 0 0 0-.94-.562v.01Z" stroke="#6C6E79" stroke-width=".7" stroke-linecap="round" stroke-linejoin="round"/></svg>