<svg width="80" height="80" viewBox="0 0 80 80" fill="none" xmlns="http://www.w3.org/2000/svg">
  <g clip-path="url(#a)">
    <path d="M63.24 32.7c.29-4.8-.24-9.6-1.56-14.22a.94.94 0 0 0-.65-.65 42.52 42.52 0 0 0-14.17-1.6l-3.68-3.7a11.32 11.32 0 0 0-16.01 0l-3.73 3.7c-4.8-.3-9.6.24-14.22 1.56a.96.96 0 0 0-.65.65A42.7 42.7 0 0 0 7 32.65L3.3 36.34a11.32 11.32 0 0 0 0 16L7 56.05c-.28 4.78.25 9.59 1.57 14.2a.94.94 0 0 0 .65.65 42.28 42.28 0 0 0 14.2 1.56l3.7 3.7a11.32 11.32 0 0 0 16 0l3.69-3.7c4.79.29 9.6-.24 14.2-1.56a.94.94 0 0 0 .65-.66 42.5 42.5 0 0 0 1.57-14.2l3.7-3.7a11.32 11.32 0 0 0 0-16l-3.69-3.64Z" fill="#E0E1E9"/>
    <path d="M28.27 34.22a2.35 2.35 0 0 0-1.9 1.28L8.42 69.92a.72.72 0 0 0 .13.85l22.08-31.94c1.77-1.37 8.48 2.25 10.53 3.72-3.7-4.45-9.46-8.51-12.89-8.33Z" fill="#fff"/>
    <path d="m9.46 70.93 34-18.83a2.43 2.43 0 0 0 1.27-1.86c.54-5.66-10.98-16.32-16.47-16.03a2.35 2.35 0 0 0-1.89 1.3L8.42 69.9a.78.78 0 0 0 1.04 1.02Z" stroke="#6C6E79" stroke-width=".8" stroke-linecap="round" stroke-linejoin="round"/>
    <path d="M25.72 52.65a16.15 16.15 0 0 0-7.97-.56 604.5 604.5 0 0 1-2.14 4.08 18.93 18.93 0 0 1 11.92 4.76l5.63-3.13a16.27 16.27 0 0 0-7.44-5.15ZM16.18 63.74c-1.4-.44-2.86-.56-4.3-.38l-1.58 2.98c1.06.2 2.05.65 2.9 1.3.29.25.55.5.8.8l5.38-3a10.25 10.25 0 0 0-3.2-1.7ZM44.73 50.25v-.47a26.57 26.57 0 0 0-22.1-7.11L20.6 46.6a22.62 22.62 0 0 1 18.8 7.8l4.11-2.28a2.43 2.43 0 0 0 1.23-1.86Z" fill="#6C6E79"/>
    <path d="M24.42 26.63a1.66 1.66 0 1 0 0-3.32 1.66 1.66 0 0 0 0 3.32Z" stroke="#6C6E79" stroke-width=".8" stroke-linecap="round" stroke-linejoin="round"/>
    <path d="M56.16 4a1.57 1.57 0 1 0 0-3.13 1.57 1.57 0 0 0 0 3.14Z" stroke="#E0E1E9" stroke-width=".8" stroke-linecap="round" stroke-linejoin="round"/>
    <path d="M52.8 22.96a1.15 1.15 0 1 0 0-2.3 1.15 1.15 0 0 0 0 2.3Z" fill="#6C6E79"/>
    <path d="M73.93 20.66a2.3 2.3 0 1 0 0-4.6 2.3 2.3 0 0 0 0 4.6Z" fill="#E0E1E9"/>
    <path d="M46.1 3.06c3.65 6.27 2.62 20.07-4.91 22.92-3.36 1.1-8.05-1.35-9.23-4.6-1.9-7.92 7.37-9.4 9.71-2.18 2.18 5.79 0 13.19-6 15.68l-1.7-3.87c4.26-1.62 5.8-6.67 4.7-10.9a5.3 5.3 0 0 0-1.32-2.64c-1.89-1.66-3.77-.62-4.01 1.8-.25 2.4 2 4.01 4.03 4.83 3.68 1.57 6.48-1.96 7.37-5.2 1.36-4.45 1.1-10.16-1.57-13.94l2.97-1.9h-.04Z" fill="#6C6E79" stroke="#6C6E79" stroke-width=".8" stroke-linecap="round" stroke-linejoin="round"/>
    <path d="M37.11 27.8a9.16 9.16 0 0 0 1.33-3.7 9.2 9.2 0 0 0-.32-3.95M42.15 19.09a14.55 14.55 0 0 1-.19 9.93" stroke="#E0E1E9" stroke-width=".8" stroke-linecap="round" stroke-linejoin="round"/>
    <path d="M45.14 45.38a14.01 14.01 0 0 1 4.92-7.66c4.44-3.44 12.03-2.9 15.16 2.1 2.18 3.84.55 10.2-4.77 9.61-3.71-1.03-3.26-6.05-2.42-8.92 1.8-5.9 6.58-11.05 12.65-12.55 3.07-.73 6.29-.63 9.32.28l-.89 2.74a14.12 14.12 0 0 0-14.9 3.2c-2.84 2.79-5 6.8-4.84 10.83a3.2 3.2 0 0 0 1.11 2.5c1.07.4 2.35-.4 2.89-1.39 2.68-7.45-6.94-10.66-12.24-6.85a13.07 13.07 0 0 0-4.7 6.53l-1.34-.43h.05Z" fill="#6C6E79" stroke="#6C6E79" stroke-width=".8" stroke-linecap="round" stroke-linejoin="round"/>
    <path d="M61.68 39.98a6.44 6.44 0 0 0-3.33-1.62" stroke="#E0E1E9" stroke-width=".8" stroke-linecap="round" stroke-linejoin="round"/>
    <path d="M63.31 37.02a13.37 13.37 0 0 0-3.72-1.67" stroke="#fff" stroke-width=".8" stroke-linecap="round" stroke-linejoin="round"/>
    <path d="M57.97 48.25c1.3.64 4.52-.28 4.96-3.35" stroke="#E0E1E9" stroke-width=".8" stroke-linecap="round" stroke-linejoin="round"/>
    <path d="m61.13 7.79-4.7 4.81c-1.82 3.68 3.67 11.92 2.25 17.55.78-2.5 2.63-3.03 3.4-5.53.02-5.59-6.29-12.93-.95-16.83Z" fill="#E0E1E9" stroke="#6C6E79" stroke-width=".8" stroke-linecap="round" stroke-linejoin="round"/>
    <path d="M73.31 0c.14 1.26.51 5.18-2.03 8.49-3.46 4.49-11.85.58-14.9 4.11a11.2 11.2 0 0 1 4.31-4.63c1.41-.91 6.06.26 9.2-2.43A9.69 9.69 0 0 0 73.32 0Z" fill="#fff" stroke="#6C6E79" stroke-width=".8" stroke-linecap="round" stroke-linejoin="round"/>
    <path d="m46.37 29.46-3.3 1.12-.28 1.57-.66 7.12c3.57-.8 3.79-8.04 4.24-9.8Z" fill="#E0E1E9" stroke="#6C6E79" stroke-width=".8" stroke-linecap="round" stroke-linejoin="round"/>
    <path d="M61.87 22.64c.24 1.71.74 4.6-1.42 6.87-3.08 3.25-15.31-.78-17.66 2.62a5.43 5.43 0 0 1 2.4-4.42c4.33-2.92 12.3 2 16.68-5.07Z" fill="#fff" stroke="#6C6E79" stroke-width=".8" stroke-linecap="round" stroke-linejoin="round"/>
  </g>
  <defs>
    <clipPath id="a">
      <path fill="#fff" d="M0 0h80v80H0z"/>
    </clipPath>
  </defs>
</svg>
