<svg xmlns="http://www.w3.org/2000/svg" width="80" height="80" fill="none" viewBox="0 0 80 80">
  <g clip-path="url(#a)">
    <path fill="#E0E1E9" d="M40.51 79.997C62.49 79.714 79.977 61.39 79.977 39.4V.99a.994.994 0 0 0-.99-.99H54.306a.994.994 0 0 0-.99.99v2.753H27.638a.994.994 0 0 0-.99.99v35.265H.991A.985.985 0 0 0 0 41.01c.544 21.806 18.52 39.27 40.52 38.987"/>
    <path fill="#E0E1E9" stroke="#6C6E79" stroke-linecap="round" stroke-linejoin="round" stroke-width=".7" d="M66.16 57.374s.087-.054.12-.087l6.521-4.323-3.147-1.697-3.147.756-8.334-31.681a5.73 5.73 0 0 0-6.707-4.15l-39.74 8.063-1.4-3.124-3.428 5.88a6.507 6.507 0 0 0-.217.368v.021a5.618 5.618 0 0 0-.456 4.248l10.472 36.654a2.599 2.599 0 0 0 3.19 1.794l45.459-12.344c.271-.076.52-.205.749-.346l.054-.032h.01Z"/>
    <path fill="#fff" stroke="#6C6E79" stroke-linecap="round" stroke-linejoin="round" stroke-width=".7" d="M72.02 53.31 24.152 66.313a2.747 2.747 0 0 1-3.364-1.892L9.752 25.822c-.966-3.372 1.16-6.853 4.612-7.556l43.05-8.744c3.146-.638 6.25 1.286 7.053 4.377L73.95 49.98a2.729 2.729 0 0 1-1.931 3.33Z"/>
    <path fill="#6C6E79" d="m65.67 18.572.012-.003-.01.01-.003-.007ZM11.107 30.506l54.562-11.934-1.224-4.662c-.803-3.091-3.906-5.015-7.054-4.377l-43.049 8.733a6.037 6.037 0 0 0-4.015 2.865l-3.43 5.88a6.507 6.507 0 0 0-.216.367v.022a5.619 5.619 0 0 0-.456 4.248l1.4 4.908 3.472-5.967v.01l.01-.093Z"/>
    <path fill="#fff" d="M18.433 23.174a1.873 1.873 0 0 1-1.421 2.367c-1.097.238-2.236-.454-2.54-1.524a1.868 1.868 0 0 1 1.433-2.367c1.096-.227 2.224.464 2.528 1.535v-.011Z"/>
    <path fill="#E0E1E9" d="M25.443 21.693c.293 1.06-.325 2.108-1.4 2.335-1.074.227-2.192-.454-2.485-1.524-.293-1.07.326-2.12 1.411-2.346 1.085-.227 2.181.465 2.474 1.524v.01Z"/>
    <path fill="#6C6E79" fill-rule="evenodd" d="M39.705 39.405c-1.133-4.576.031-7.66 2.766-8.224 2.687-.536 5.08 1.74 6.16 6.148 1.087 4.444.029 7.523-2.609 8.209-2.702.717-5.18-1.54-6.317-6.133Zm1.853-.43c.796 3.24 2.185 5.156 3.98 4.703 1.76-.445 2.075-2.742 1.294-5.913-.773-3.136-2.125-5.043-3.9-4.666-1.813.368-2.162 2.672-1.374 5.876ZM35.513 44.614 29.29 46.15l-.47-1.88 3.336-10.826 2.445-.501 2.326 9.265 1.782-.432.478 1.914-1.765.428.817 3.253-1.877.488-.85-3.245Zm-.482-1.932-1.722-6.842-2.405 7.826 4.127-.984ZM50.904 40.808l5.29-1.303.731 3.02 1.59-.409-.727-3.003 1.508-.374-.428-1.765-1.513.357-2.054-8.573-2.069.422-2.749 9.898.421 1.73Zm3.354-9.402 1.52 6.314-3.497.833 1.977-7.147Z" clip-rule="evenodd"/>
    <path fill="#6C6E79" d="M56.335 46.717a.35.35 0 0 1-.251.427l-8.582 2.22a.35.35 0 0 1-.175-.677l8.581-2.221a.35.35 0 0 1 .427.251ZM44.455 49.79a.35.35 0 0 1-.25.428l-3.18.831a.35.35 0 1 1-.178-.677l3.18-.831a.35.35 0 0 1 .428.25ZM61.153 49.84a.35.35 0 1 0-.166-.68l-23.34 5.69a.35.35 0 1 0 .166.68l23.34-5.69Z"/>
  </g>
  <defs>
    <clipPath id="a">
      <path fill="#fff" d="M0 0h80v80H0z"/>
    </clipPath>
  </defs>
</svg>
