<svg width="80" height="80" viewBox="0 0 80 80" fill="none" xmlns="http://www.w3.org/2000/svg">
  <path d="M75.6 42.49c0-15.6-9.53-28.84-22.94-34.07l-3.78-6.75A1.28 1.28 0 0 0 47.81 1H32.27c-.41 0-.82.25-1.07.67l-3.78 6.75C14.02 13.65 4.47 26.97 4.47 42.5c0 2.02.17 3.96.5 5.82l-3.78 6.74c-.25.42-.25.85 0 1.27l7.73 13.83c.24.42.65.67 1.06.67h7.57a34.9 34.9 0 0 0 44.9 0h7.57c.4 0 .82-.25 1.06-.67l7.73-13.83c.25-.42.25-.85 0-1.27l-3.78-6.74c.41-1.94.58-3.88.58-5.82Z" fill="#E0E1E9"/>
  <path d="M65.92 57.6s.1-.05.12-.08l6.5-4.32-3.14-1.7-3.13.76-8.3-31.68a5.7 5.7 0 0 0-6.68-4.15L11.7 24.5l-1.4-3.12-3.4 5.88a6.5 6.5 0 0 0-.22.37v.02a5.64 5.64 0 0 0-.46 4.25l10.44 36.64a2.59 2.59 0 0 0 3.18 1.8L65.11 58c.27-.08.52-.2.75-.35l.05-.03.01-.01Z" fill="#E0E1E9" stroke="#6C6E79" stroke-width=".7" stroke-linecap="round" stroke-linejoin="round"/>
  <path d="m71.76 53.55-47.67 13a2.73 2.73 0 0 1-3.35-1.89l-11-38.59a6.03 6.03 0 0 1 4.6-7.55L57.2 9.77a6.02 6.02 0 0 1 7.03 4.38l9.44 36.07a2.73 2.73 0 0 1-1.92 3.33Z" fill="#fff"/>
  <path d="M65.45 18.82 11.06 30.76l-1.34-4.69a6.03 6.03 0 0 1 4.6-7.55L57.2 9.77a6.02 6.02 0 0 1 7.03 4.38l1.22 4.67Z" fill="#6C6E79"/>
  <path d="M18.39 23.42a1.87 1.87 0 0 1-1.42 2.37 2.19 2.19 0 0 1-2.52-1.53 1.87 1.87 0 0 1 1.42-2.37 2.2 2.2 0 0 1 2.52 1.54v-.01Z" fill="#fff"/>
  <path d="M25.38 21.94c.29 1.06-.33 2.1-1.4 2.33a2.15 2.15 0 0 1-2.47-1.52 1.85 1.85 0 0 1 1.4-2.35 2.14 2.14 0 0 1 2.47 1.53Z" fill="#E0E1E9"/>
  <path d="M11.09 30.84s.32-3.15.6-6.38l-1.37-3.09-3.42 5.88a6.5 6.5 0 0 0-.21.37v.02a5.64 5.64 0 0 0-.46 4.25l1.4 4.9 3.46-5.96v.01Z" fill="#6C6E79"/>
  <path d="m71.76 53.55-47.67 13a2.73 2.73 0 0 1-3.35-1.89l-11-38.59a6.03 6.03 0 0 1 4.6-7.55L57.2 9.77a6.02 6.02 0 0 1 7.03 4.38l9.44 36.07a2.73 2.73 0 0 1-1.92 3.33Z" stroke="#6C6E79" stroke-width=".7" stroke-linecap="round" stroke-linejoin="round"/>
  <path d="m43.3 32.43 1.88.93-3.15 3.16-3.2-1.58 4.46-2.5Z" fill="#6C6E79" stroke="#6C6E79" stroke-width=".7" stroke-linecap="round" stroke-linejoin="round"/>
  <path d="m56.77 51.33 2.04-2.03-2.55-.36-6.55-3.33a7.02 7.02 0 0 1-2.4 1.91l-9.82-5.36-.19-.72a6.69 6.69 0 0 1 4.74-4.92l-2.36-8.55c-1.9.49-3.65 1.23-5.22 2.2l-.14-.56-2.65 2.66c-.31.3-.6.59-.88.9l-.04.03c-3.3 3.6-4.74 8.42-3.41 13.18 2.27 8.07 11.65 12.58 20.75 10.14 2.84-.75 5.3-2.11 7.3-3.84h.02l.18-.19c.42-.38.81-.76 1.18-1.16ZM50.17 29.17l-2.35-8.53-3.15 3.16L47 32.32l3.16-3.15Z" fill="#6C6E79" stroke="#6C6E79" stroke-width=".7" stroke-linecap="round" stroke-linejoin="round"/>
  <path d="m62.94 28.95-.75 1.2c-3.54-5.03-10.43-7.74-17.52-6.35L47 32.33c3.35-.56 6.57 1.1 7.6 3.9l9.42-2.32 3.16-3.16-4.26-1.81h.01Z" fill="#6C6E79" stroke="#6C6E79" stroke-width=".7" stroke-linecap="round" stroke-linejoin="round"/>
  <path d="m57.76 33.07 9.43-2.31c-2.27-7.35-10.68-11.81-19.37-10.12l2.35 8.53c3.35-.56 6.57 1.1 7.6 3.9v0Z" fill="#fff" stroke="#6C6E79" stroke-width=".7" stroke-linecap="round" stroke-linejoin="round"/>
  <path d="M60.72 21.94a20.5 20.5 0 0 0-13.3-1.73l-4.92 4.66" stroke="#fff" stroke-width=".7" stroke-miterlimit="10"/>
  <path d="m65.06 35.6-4.52 1.1-1.75-1.94-3.16 3.16c.24 1.3-.02 2.6-.65 3.73l8.28 4.21a13.54 13.54 0 0 0 1.8-10.26Z" fill="#E0E1E9" stroke="#6C6E79" stroke-width=".7" stroke-linecap="round" stroke-linejoin="round"/>
  <path d="m66.43 42.7-3.15 3.16-8.3-4.21 3.16-3.17 8.3 4.23ZM58.8 34.75c.24 1.3-.02 2.59-.66 3.73l8.3 4.21a13.54 13.54 0 0 0 1.79-10.27l-9.42 2.33h0Z" fill="#E0E1E9" stroke="#6C6E79" stroke-width=".7" stroke-linecap="round" stroke-linejoin="round"/>
  <path d="M52.86 42.45a7.31 7.31 0 0 1-3.93 2.49c-3.71.94-7.49-.92-8.38-4.19-.9-3.26 1.2-6.32 4.64-7.39l-2.35-8.55c-8.98 2.27-14.57 10.44-12.33 18.4 2.27 8.08 11.65 12.59 20.75 10.16a17.7 17.7 0 0 0 9.9-6.7l-8.3-4.22h0Z" fill="#E0E1E9" stroke="#6C6E79" stroke-width=".7" stroke-linecap="round" stroke-linejoin="round"/>
</svg>
