<svg width="80" height="80" viewBox="0 0 80 80" fill="none" xmlns="http://www.w3.org/2000/svg"><path d="M75.608 42.488c0-15.6-9.54-28.84-22.944-34.067l-3.783-6.746C48.635 1.253 48.224 1 47.812 1H32.27c-.411 0-.823.253-1.07.675L27.419 8.42C14.014 13.649 4.474 26.97 4.474 42.488c0 2.023.165 3.963.494 5.818l-3.783 6.746c-.247.422-.247.843 0 1.265l7.73 13.829c.247.422.658.674 1.07.674h7.565C23.717 75.965 31.53 79 40 79c8.47 0 16.365-3.12 22.45-8.18h7.566c.411 0 .822-.252 1.069-.674l7.73-13.83c.247-.42.247-.843 0-1.264l-3.783-6.746c.411-1.94.576-3.879.576-5.818Z" fill="#E0E1E9"/><path d="M65.925 57.607s.086-.054.119-.087l6.495-4.323-3.134-1.696-3.134.756-8.3-31.677a5.705 5.705 0 0 0-6.68-4.15l-39.588 8.073-1.394-3.123-3.415 5.88a6.504 6.504 0 0 0-.216.367v.021a5.637 5.637 0 0 0-.454 4.248l10.44 36.648a2.587 2.587 0 0 0 3.177 1.794l45.273-12.342a2.94 2.94 0 0 0 .746-.346l.054-.032.01-.011Z" fill="#E0E1E9" stroke="#6C6E79" stroke-width=".7" stroke-linecap="round" stroke-linejoin="round"/><path d="M71.76 53.554 24.087 66.555a2.734 2.734 0 0 1-3.35-1.891L9.746 26.07c-.962-3.372 1.156-6.852 4.593-7.554l42.873-8.744c3.135-.637 6.226 1.286 7.025 4.377l9.446 36.076a2.73 2.73 0 0 1-1.924 3.329Z" fill="#fff"/><path d="M65.448 18.818 11.065 30.761l-1.34-4.69c-.962-3.373 1.156-6.853 4.593-7.555l42.884-8.744c3.134-.637 6.225 1.286 7.025 4.377l1.221 4.67Z" fill="#6C6E79"/><path d="M18.39 23.419a1.873 1.873 0 0 1-1.415 2.366c-1.092.238-2.227-.454-2.53-1.523a1.868 1.868 0 0 1 1.427-2.367c1.092-.227 2.216.464 2.518 1.534v-.01Z" fill="#fff"/><path d="M25.375 21.938c.292 1.06-.324 2.108-1.394 2.335-1.07.227-2.183-.454-2.475-1.524-.291-1.07.325-2.118 1.405-2.345 1.081-.227 2.172.464 2.464 1.523v.011Z" fill="#E0E1E9"/><path d="M11.087 30.842s.325-3.155.606-6.387l-1.373-3.08-3.415 5.88a6.504 6.504 0 0 0-.216.367v.021a5.637 5.637 0 0 0-.454 4.248l1.394 4.906 3.458-5.965v.01Z" fill="#6C6E79"/><path d="M71.76 53.554 24.087 66.555a2.734 2.734 0 0 1-3.35-1.891L9.746 26.07c-.962-3.372 1.156-6.852 4.593-7.554l42.873-8.744c3.135-.637 6.226 1.286 7.025 4.377l9.446 36.076a2.73 2.73 0 0 1-1.924 3.329Z" stroke="#6C6E79" stroke-width=".7" stroke-linecap="round" stroke-linejoin="round"/><path d="m43.291 32.434 1.892.929-3.156 3.156-3.2-1.578 4.464-2.507Z" fill="#6C6E79" stroke="#6C6E79" stroke-width=".7" stroke-linecap="round" stroke-linejoin="round"/><path d="m56.768 51.326 2.043-2.021-2.55-.368-6.55-3.328a7.021 7.021 0 0 1-2.4 1.913l-9.823-5.361-.184-.724c.432-2.205 2.215-4.14 4.733-4.917l-2.355-8.55a18.912 18.912 0 0 0-5.22 2.195l-.141-.552-2.648 2.66a13.87 13.87 0 0 0-.886.896l-.033.033C27.458 36.8 26.01 41.62 27.34 46.376c2.27 8.073 11.65 12.58 20.75 10.148a18.236 18.236 0 0 0 7.296-3.847h.022l.183-.184c.422-.378.81-.767 1.178-1.167ZM50.168 29.167l-2.346-8.527-3.155 3.156 2.345 8.527 3.156-3.156Z" fill="#6C6E79" stroke="#6C6E79" stroke-width=".7" stroke-linecap="round" stroke-linejoin="round"/><path d="m62.942 28.947-.756 1.21c-3.534-5.036-10.43-7.748-17.52-6.354l2.346 8.527c3.35-.562 6.57 1.102 7.598 3.89l9.424-2.312 3.155-3.156-4.258-1.816.011.011Z" fill="#6C6E79" stroke="#6C6E79" stroke-width=".7" stroke-linecap="round" stroke-linejoin="round"/><path d="m57.764 33.073 9.424-2.313c-2.27-7.349-10.678-11.813-19.367-10.116l2.345 8.527c3.35-.562 6.57 1.103 7.598 3.891v.01Z" fill="#fff" stroke="#6C6E79" stroke-width=".7" stroke-linecap="round" stroke-linejoin="round"/><path d="M60.724 21.944c-4.085-2.075-8.732-2.626-13.304-1.73l-4.92 4.659" stroke="#fff" stroke-width=".7" stroke-miterlimit="10"/><path d="m65.059 35.595-4.518 1.113-1.75-1.945-3.156 3.156c.238 1.297-.022 2.594-.66 3.728l8.29 4.215c1.902-3.07 2.626-6.69 1.794-10.267Z" fill="#E0E1E9" stroke="#6C6E79" stroke-width=".7" stroke-linecap="round" stroke-linejoin="round"/><path d="m66.431 42.706-3.156 3.156-8.29-4.215 3.157-3.166 8.289 4.225ZM58.803 34.747c.237 1.297-.022 2.593-.66 3.728l8.29 4.215c1.902-3.07 2.626-6.69 1.794-10.267l-9.414 2.324h-.01Z" fill="#E0E1E9" stroke="#6C6E79" stroke-width=".7" stroke-linecap="round" stroke-linejoin="round"/><path d="M52.858 42.45c-.92 1.157-2.28 2.065-3.924 2.486-3.717.94-7.49-.918-8.386-4.182-.897-3.264 1.21-6.322 4.647-7.392l-2.356-8.55c-8.981 2.27-14.569 10.44-12.332 18.406 2.27 8.073 11.651 12.58 20.75 10.148 4.27-1.145 7.718-3.61 9.911-6.7l-8.3-4.215h-.01Z" fill="#E0E1E9" stroke="#6C6E79" stroke-width=".7" stroke-linecap="round" stroke-linejoin="round"/></svg>