<svg width="80" height="80" viewBox="0 0 80 80" fill="none" xmlns="http://www.w3.org/2000/svg"><path d="M0 40.922A39.857 39.857 0 0 0 39.078 80a.911.911 0 0 0 .922-.911v-2.503c20.208 0 36.586-16.378 36.586-36.586C76.586 19.791 60.208 3.414 40 3.414V.911a.911.911 0 0 0-.922-.91C28.727.23 19.34 4.4 12.36 11.064a.908.908 0 0 0 0 1.295l1.778 1.778C7.52 20.758 3.425 29.901 3.425 40H.911a.911.911 0 0 0-.91.922Z" fill="#E0E1E9"/><path d="M66.16 57.374s.087-.054.12-.087l6.521-4.323-3.147-1.697-3.147.756-8.334-31.681a5.73 5.73 0 0 0-6.707-4.15l-39.74 8.063-1.4-3.124-3.428 5.88a6.507 6.507 0 0 0-.217.368v.021a5.618 5.618 0 0 0-.456 4.248l10.472 36.654a2.599 2.599 0 0 0 3.19 1.794l45.459-12.344c.271-.076.52-.205.749-.346l.054-.032h.01Z" fill="#E0E1E9" stroke="#6C6E79" stroke-width=".7" stroke-linecap="round" stroke-linejoin="round"/><path d="M72.02 53.31 24.152 66.313a2.747 2.747 0 0 1-3.364-1.892L9.752 25.822c-.966-3.372 1.16-6.853 4.612-7.556l43.05-8.744c3.146-.638 6.25 1.286 7.053 4.377L73.95 49.98a2.729 2.729 0 0 1-1.931 3.33Z" fill="#fff" stroke="#6C6E79" stroke-width=".7" stroke-linecap="round" stroke-linejoin="round"/><path d="M65.682 18.57 11.076 30.512l-1.346-4.69c-.966-3.373 1.161-6.854 4.612-7.556l43.05-8.734c3.147-.638 6.25 1.286 7.053 4.378l1.227 4.669.01-.01Z" fill="#6C6E79"/><path d="M18.433 23.174a1.873 1.873 0 0 1-1.421 2.367c-1.096.238-2.236-.454-2.54-1.524a1.868 1.868 0 0 1 1.433-2.367c1.096-.227 2.224.465 2.528 1.535v-.011Z" fill="#fff"/><path d="M25.444 21.693c.293 1.06-.326 2.108-1.4 2.335-1.075.227-2.192-.454-2.485-1.524-.293-1.07.325-2.12 1.41-2.346 1.086-.227 2.182.465 2.475 1.524v.01Z" fill="#E0E1E9"/><path d="M11.097 30.6s.326-3.157.608-6.389l-1.378-3.08-3.43 5.88a6.507 6.507 0 0 0-.216.367v.022a5.619 5.619 0 0 0-.456 4.248l1.4 4.908 3.472-5.967v.01Z" fill="#6C6E79"/><path d="M62.73 51.038 25.092 61.224l-6.037-21.372c-.253-.878.406-1.8 1.46-2.041l36.256-8.54 5.95 21.767h.01Z" fill="#E0E1E9" stroke="#6C6E79" stroke-width=".7" stroke-linecap="round" stroke-linejoin="round"/><path d="M57.627 32.366 19.526 41.52l-.472-1.679c-.253-.878.406-1.8 1.46-2.042l36.256-8.54.846 3.107h.01Z" fill="#6C6E79"/><path d="m65.047 42.443-4.5-16.564c-.231-.824-1.164-1.329-2.097-1.12l-29.78 6.718-3.524-1.065-1.669 2.569c-.318.428-.549.922-.406 1.438l5.95 21.207 36.992-9.649 1.8-2.711-2.755-.834-.011.01Z" fill="#6C6E79" stroke="#6C6E79" stroke-width=".7" stroke-linecap="round" stroke-linejoin="round"/><path d="M67.802 43.277 30.81 52.926l-5.95-21.208c-.24-.878.396-1.778 1.439-2.008l33.951-7.662c.933-.209 1.877.285 2.097 1.12l5.466 20.109h-.01Z" fill="#fff" stroke="#6C6E79" stroke-width=".7" stroke-linecap="round" stroke-linejoin="round"/><path d="M37.122 31.038c-3.81.878-6.18 4.259-5.27 7.519 1.34 4.797 9.54 7.826 9.54 7.826s5.422-6.41 4.127-11.12c-.89-3.204-4.621-5.103-8.397-4.236v.01Zm2.338 8.397c-1.636.395-3.282-.417-3.678-1.822-.395-1.405.626-2.865 2.262-3.25 1.635-.383 3.26.44 3.644 1.834.384 1.394-.615 2.843-2.24 3.238h.012Z" fill="#6C6E79"/><path d="m48.46 32.619 11.132-2.646M49.46 36.252l11.108-2.7M50.459 39.885l11.086-2.766" stroke="#6C6E79" stroke-width=".7" stroke-linecap="round" stroke-linejoin="round"/></svg>