<svg width="80" height="80" viewBox="0 0 80 80" fill="none" xmlns="http://www.w3.org/2000/svg"><path d="M77.88 38.188C77.88 17.653 61.134 1 40.483 1 19.833 1 3 17.653 3 38.188c0 12.425 6.16 23.47 15.618 30.2l-3.47 9.404c-.26.604.26 1.208.867 1.208h48.85c.607 0 1.128-.604.868-1.208l-3.471-9.405c9.457-6.73 15.618-17.774 15.618-30.199Z" fill="#E0E1E9"/><path d="M65.925 57.617s.086-.054.119-.086l6.495-4.324-3.134-1.696-3.134.756-8.3-31.677a5.705 5.705 0 0 0-6.68-4.15l-39.587 8.073-1.395-3.123-3.415 5.88a6.504 6.504 0 0 0-.216.367v.021a5.638 5.638 0 0 0-.454 4.248l10.44 36.648a2.587 2.587 0 0 0 3.178 1.794l45.272-12.342a2.94 2.94 0 0 0 .746-.346l.054-.032.011-.011Z" fill="#E0E1E9" stroke="#6C6E79" stroke-width=".7" stroke-linecap="round" stroke-linejoin="round"/><path d="M71.76 53.553 24.086 66.555a2.734 2.734 0 0 1-3.35-1.892L9.746 26.07c-.962-3.372 1.156-6.852 4.593-7.555l42.873-8.743c3.134-.638 6.225 1.286 7.025 4.377l9.446 36.075a2.73 2.73 0 0 1-1.924 3.33Z" fill="#fff"/><path d="M65.449 18.818 11.065 30.76l-1.34-4.69c-.962-3.372 1.156-6.852 4.593-7.555l42.885-8.743c3.134-.638 6.225 1.286 7.024 4.377l1.222 4.669Z" fill="#6C6E79"/><path d="M18.39 23.427a1.873 1.873 0 0 1-1.415 2.367c-1.08.238-2.226-.454-2.529-1.524a1.868 1.868 0 0 1 1.427-2.366c1.091-.227 2.215.464 2.518 1.534v-.01Z" fill="#fff"/><path d="M25.375 21.958c.292 1.059-.324 2.107-1.394 2.334-1.07.227-2.183-.454-2.475-1.524-.291-1.07.325-2.118 1.405-2.345 1.07-.227 2.173.465 2.464 1.524v.01Z" fill="#E0E1E9"/><path d="M11.087 30.862s.324-3.156.605-6.387l-1.372-3.08-3.415 5.879a6.504 6.504 0 0 0-.217.367v.022a5.637 5.637 0 0 0-.454 4.247l1.395 4.907 3.458-5.966v.01Z" fill="#6C6E79"/><path d="M71.76 53.553 24.086 66.555a2.734 2.734 0 0 1-3.35-1.892L9.746 26.07c-.962-3.372 1.156-6.852 4.593-7.555l42.873-8.743c3.134-.638 6.225 1.286 7.025 4.377l9.446 36.075a2.73 2.73 0 0 1-1.924 3.33Z" stroke="#6C6E79" stroke-width=".7" stroke-linecap="round" stroke-linejoin="round"/><path d="M42.083 38.584c-4.204.951-8.765-5.588-18.643-3.307l6.02 21.474c9.716-2.55 10.332-10.288 14.482-11.39.01 0 16.33-4.108 16.33-4.108v-.032l-1.762-6.56v-.033s-16.405 3.956-16.427 3.967v-.011Z" stroke="#6C6E79" stroke-width=".7" stroke-linecap="round" stroke-linejoin="round"/><path d="m31 49.5-2.5 4M44.459 37.962 32.5 55.5M49.236 38.74 45 45M55.494 37.362 51.5 43.5" stroke="#6C6E79" stroke-width=".7" stroke-miterlimit="10"/><path d="m57.7 41.32-.18.3.6.36.18-.3-.6-.36Zm1.5-2.5-1.5 2.5.6.36 1.5-2.5-.6-.36Z" fill="#6C6E79"/><path d="m23.44 35.267 4.28 15.26c9.759-2.475 9.856-6.322 15.52-7.727l16.362-4.053v-.033l-1.091-4.063v-.033s-16.406 3.956-16.428 3.966c-4.204.952-8.765-5.587-18.643-3.307v-.01Z" fill="#E0E1E9" stroke="#6C6E79" stroke-width=".7" stroke-linecap="round" stroke-linejoin="round"/></svg>