<svg width="80" height="80" viewBox="0 0 80 80" fill="none" xmlns="http://www.w3.org/2000/svg"><path d="M14.121 65.868c6.624 6.624 15.769 10.716 25.863 10.716v2.51c0 .502.414.917.916.906 21.367-.48 38.598-17.711 39.089-39.089a.906.906 0 0 0-.906-.916h-2.51c0-20.21-16.38-36.59-36.59-36.59v-2.5A.906.906 0 0 0 39.068 0c-10.356.23-19.74 4.398-26.714 11.066a.884.884 0 0 0 0 1.287l1.768 1.779C7.497 20.756 3.405 29.9 3.405 39.995H.906A.906.906 0 0 0 0 40.91c.23 10.345 4.398 19.73 11.066 26.714a.884.884 0 0 0 1.287 0l1.779-1.768-.011.011Z" fill="#E0E1E9"/><path d="M66.16 57.374s.087-.054.12-.087l6.521-4.323-3.147-1.697-3.147.756-8.334-31.681a5.73 5.73 0 0 0-6.707-4.15l-39.74 8.063-1.4-3.124-3.428 5.88a6.507 6.507 0 0 0-.217.368v.021a5.618 5.618 0 0 0-.456 4.248l10.472 36.654a2.599 2.599 0 0 0 3.19 1.794l45.459-12.344c.271-.076.52-.205.749-.346l.054-.032h.01Z" fill="#E0E1E9" stroke="#6C6E79" stroke-width=".7" stroke-linecap="round" stroke-linejoin="round"/><path d="M72.02 53.31 24.152 66.313a2.747 2.747 0 0 1-3.364-1.892L9.752 25.822c-.966-3.372 1.16-6.853 4.612-7.556l43.05-8.744c3.146-.638 6.25 1.286 7.053 4.377L73.95 49.98a2.729 2.729 0 0 1-1.931 3.33Z" fill="#fff" stroke="#6C6E79" stroke-width=".7" stroke-linecap="round" stroke-linejoin="round"/><path d="M65.682 18.57 11.076 30.512l-1.346-4.69c-.966-3.373 1.161-6.854 4.612-7.556l43.05-8.734c3.146-.638 6.25 1.286 7.053 4.378l1.226 4.669.011-.01Z" fill="#6C6E79"/><path d="M18.433 23.174a1.873 1.873 0 0 1-1.421 2.367c-1.097.238-2.236-.454-2.54-1.524a1.868 1.868 0 0 1 1.433-2.367c1.096-.227 2.224.465 2.528 1.535v-.011Z" fill="#fff"/><path d="M25.443 21.693c.293 1.06-.325 2.108-1.4 2.335-1.074.227-2.192-.454-2.485-1.524-.293-1.07.326-2.12 1.411-2.346 1.085-.227 2.181.465 2.474 1.524v.01Z" fill="#E0E1E9"/><path d="M11.097 30.6s.326-3.157.608-6.389l-1.378-3.08-3.43 5.88a6.507 6.507 0 0 0-.216.367v.022a5.619 5.619 0 0 0-.456 4.248l1.4 4.908 3.472-5.967v.01Z" fill="#6C6E79"/><path d="m41.09 56.868-14.122 3.754-3.884-13.531a2.196 2.196 0 0 1 1.582-2.728l10.05-2.445a2.191 2.191 0 0 1 2.62 1.528l3.753 13.412v.01Z" fill="#E0E1E9" stroke="#6C6E79" stroke-width=".7" stroke-linecap="round" stroke-linejoin="round"/><path d="M54.686 53.256 41.1 56.868l-6.984-24.924a2.183 2.183 0 0 1 1.615-2.717l9.625-2.172a2.179 2.179 0 0 1 2.586 1.55l6.733 24.651h.011Z" fill="#fff" stroke="#6C6E79" stroke-width=".7" stroke-linecap="round" stroke-linejoin="round"/><path d="m67.77 49.775-13.084 3.481-4.528-16.565a2.18 2.18 0 0 1 1.604-2.695l9.035-2.15a2.188 2.188 0 0 1 2.62 1.56l4.364 16.37h-.01Z" fill="#fff" stroke="#6C6E79" stroke-width=".7" stroke-linecap="round" stroke-linejoin="round"/><path d="M24.11 61.386 70.312 49.1" stroke="#6C6E79" stroke-width=".7" stroke-linecap="round" stroke-linejoin="round"/><path d="m41.504 30.427 1.637 1.714a.42.42 0 0 0 .338.12l2.433-.24a.405.405 0 0 1 .371.633l-1.222 1.767a.386.386 0 0 0-.032.404l.927 1.899a.405.405 0 0 1-.447.578l-2.423-.49a.387.387 0 0 0-.338.087l-1.91 1.538a.4.4 0 0 1-.655-.283l-.174-2.15a.412.412 0 0 0-.218-.328l-2.052-1.036c-.316-.164-.295-.622.044-.742l2.248-.84a.411.411 0 0 0 .25-.284l.546-2.172a.41.41 0 0 1 .688-.185l-.011.01Z" fill="#6C6E79"/><path d="M76.238 48.782c-1.778-6.394-8.413-10.497-14.83-9.155-1.091.229-2.106.61-3.033 1.102l-.371-.36-2.336 2.357h.011c-2.695 2.75-3.852 6.831-2.695 10.978 1.8 6.427 8.468 10.509 14.884 9.134a11.108 11.108 0 0 0 5.424-2.87l2.455-2.467-.36-.338c1.277-2.444 1.659-5.39.83-8.37l.021-.01Z" fill="#6C6E79" stroke="#6C6E79" stroke-width=".7" stroke-linecap="round" stroke-linejoin="round"/><path d="M78.442 46.545c1.78 6.395-1.953 12.68-8.358 14.055-6.417 1.375-13.095-2.706-14.885-9.133-1.8-6.428 1.975-12.735 8.413-14.088 6.417-1.343 13.052 2.76 14.83 9.155v.011Z" fill="#fff" stroke="#6C6E79" stroke-width=".7" stroke-linecap="round" stroke-linejoin="round"/><path d="M63.514 53.278c1.648 1.179 3.743 1.517 5.479.862 2.215-.83 2.782-2.87 2.848-3.153" fill="#fff"/><path d="M63.514 53.278c1.648 1.179 3.743 1.517 5.479.862 2.215-.83 2.782-2.87 2.848-3.153" stroke="#6C6E79" stroke-width=".7" stroke-linecap="round" stroke-linejoin="round"/><path d="M63.045 46.862c.186.676-.207 1.353-.895 1.495a1.367 1.367 0 0 1-1.582-.971c-.185-.688.207-1.354.895-1.495.687-.142 1.386.294 1.582.97ZM71.371 44.559c.186.677-.207 1.353-.894 1.495a1.367 1.367 0 0 1-1.583-.971c-.185-.688.208-1.353.895-1.495.688-.142 1.386.294 1.582.971Z" fill="#6C6E79"/></svg>