<svg width="80" height="80" viewBox="0 0 80 80" fill="none" xmlns="http://www.w3.org/2000/svg">
  <path d="M67.36 24.73A43.12 43.12 0 0 0 53.64 4.18a.72.72 0 0 0-.85-.07L42.34 8.78c-9.36-1.68-18.71-2.07-27.76 1.23-.3.08-.54.38-.54.77-.16 2.53-.7 13.03-.7 13.03C7.1 30.25 2.19 38.45 1.02 47.27c-.08.3.08.61.39.76l11.23 7.67a43.12 43.12 0 0 0 13.72 20.55c.23.22.62.22.85.07l10.45-4.67c9.36 1.68 18.71 2.07 27.76-1.23.3-.08.54-.38.54-.77l.7-13.03c6.24-6.44 11.15-14.64 12.32-23.46.08-.3-.08-.61-.39-.77l-11.23-7.66Z" fill="#E0E1E9"/>
  <path d="M65.92 57.62s.1-.06.12-.09l6.5-4.32-3.14-1.7-3.13.76-8.3-31.68a5.7 5.7 0 0 0-6.68-4.15L11.7 24.51l-1.4-3.12-3.4 5.88a6.5 6.5 0 0 0-.22.37v.02a5.64 5.64 0 0 0-.46 4.25l10.44 36.64a2.59 2.59 0 0 0 3.18 1.8L65.11 58c.27-.08.52-.2.75-.35l.05-.03.01-.01Z" fill="#E0E1E9" stroke="#6C6E79" stroke-width=".7" stroke-linecap="round" stroke-linejoin="round"/>
  <path d="m71.76 53.55-47.67 13a2.73 2.73 0 0 1-3.35-1.89L9.75 26.07a6.03 6.03 0 0 1 4.6-7.55l42.87-8.75a6.02 6.02 0 0 1 7.02 4.38l9.45 36.07a2.73 2.73 0 0 1-1.93 3.33Z" fill="#fff"/>
  <path d="M65.45 18.82 11.06 30.76l-1.34-4.69a6.03 6.03 0 0 1 4.6-7.55L57.2 9.77a6.02 6.02 0 0 1 7.03 4.38l1.22 4.67Z" fill="#6C6E79"/>
  <path d="M18.4 23.43a1.87 1.87 0 0 1-1.42 2.36 2.2 2.2 0 0 1-2.53-1.52 1.87 1.87 0 0 1 1.43-2.37 2.2 2.2 0 0 1 2.51 1.54v-.01Z" fill="#fff"/>
  <path d="M25.38 21.96c.29 1.06-.33 2.1-1.4 2.33a2.15 2.15 0 0 1-2.47-1.52 1.85 1.85 0 0 1 1.4-2.35 2.14 2.14 0 0 1 2.47 1.53Z" fill="#E0E1E9"/>
  <path d="M11.09 30.86s.32-3.15.6-6.39l-1.37-3.08-3.42 5.88-.21.37v.02a5.64 5.64 0 0 0-.46 4.25l1.4 4.9 3.46-5.96v.01Z" fill="#6C6E79"/>
  <path d="m71.76 53.55-47.67 13a2.73 2.73 0 0 1-3.35-1.89L9.75 26.07a6.03 6.03 0 0 1 4.6-7.55l42.87-8.75a6.02 6.02 0 0 1 7.02 4.38l9.45 36.07a2.73 2.73 0 0 1-1.93 3.33ZM19.28 32.6l8.27 29.44" stroke="#6C6E79" stroke-width=".7" stroke-linecap="round" stroke-linejoin="round"/>
  <path d="m49.3 39.69-8.87 2.17a.8.8 0 0 1-.95-.56l-2.1-7.66a.79.79 0 0 1 .58-.98l8.92-2.05c.41-.1.84.15.94.56l2.05 7.56a.78.78 0 0 1-.58.97v-.01Z" fill="#6C6E79" stroke="#6C6E79" stroke-width=".7" stroke-linecap="round" stroke-linejoin="round"/>
  <path d="m62.57 36.43-8.46 2.08a.8.8 0 0 1-.95-.56l-2.02-7.5a.79.79 0 0 1 .58-.98l8.52-1.97c.41-.1.83.16.94.57l1.96 7.39a.8.8 0 0 1-.58.97h.01Z" fill="#E0E1E9" stroke="#6C6E79" stroke-width=".7" stroke-linecap="round" stroke-linejoin="round"/>
  <path d="m38.86 54.75-9.18 2.41a.8.8 0 0 1-.97-.55l-2.17-7.76a.8.8 0 0 1 .57-.98l9.26-2.3c.4-.11.83.13.95.55l2.1 7.65a.8.8 0 0 1-.56.97v.01Z" fill="#6C6E79" stroke="#6C6E79" stroke-width=".7" stroke-linecap="round" stroke-linejoin="round"/>
  <path d="m52.42 51.2-8.78 2.3a.8.8 0 0 1-.96-.55l-2.09-7.59a.78.78 0 0 1 .58-.97L50 42.2c.42-.1.84.15.95.57l2.02 7.48a.8.8 0 0 1-.56.97v0Z" fill="#E0E1E9" stroke="#6C6E79" stroke-width=".7" stroke-linecap="round" stroke-linejoin="round"/>
  <path d="m35.61 43.04-9.28 2.27a.8.8 0 0 1-.95-.55l-2.2-7.85a.8.8 0 0 1 .59-.98l9.34-2.15a.8.8 0 0 1 .94.56l2.13 7.73a.78.78 0 0 1-.57.97v0ZM65.59 47.74l-8.39 2.2a.79.79 0 0 1-.96-.56l-2-7.43a.79.79 0 0 1 .57-.97l8.44-2.1c.43-.1.85.16.96.57l1.93 7.31c.1.43-.14.86-.56.97h0Z" stroke="#6C6E79" stroke-width=".7" stroke-linecap="round" stroke-linejoin="round"/>
  <mask maskUnits="userSpaceOnUse" x="23" y="33" width="14" height="13">
    <path d="m35.61 43.04-9.28 2.27a.8.8 0 0 1-.95-.55l-2.2-7.85a.8.8 0 0 1 .59-.98l9.34-2.15a.8.8 0 0 1 .94.56l2.13 7.73a.78.78 0 0 1-.57.97Z" fill="#D9D9D9"/>
  </mask>
  <g mask="url(#a)" stroke="#6C6E79" stroke-width=".7" stroke-miterlimit="10">
    <path d="M29.86 31.42 21.43 43.7M33.47 33.9l-8.43 12.28M37.08 36.37l-9.59 13.98M40.69 38.84l-9.25 13.49"/>
  </g>
  <mask maskUnits="userSpaceOnUse" x="54" y="38" width="13" height="12">
    <path d="m65.59 47.74-8.39 2.2a.79.79 0 0 1-.96-.56l-2-7.43a.79.79 0 0 1 .57-.97l8.44-2.1c.43-.1.85.16.96.57l1.93 7.31c.1.43-.14.86-.56.97Z" fill="#D9D9D9"/>
  </mask>
  <g mask="url(#b)" stroke="#6C6E79" stroke-width=".7" stroke-miterlimit="10">
    <path d="M60.52 36.37 52.1 48.66M64.13 38.84 55.7 51.13M67.74 41.32 58.15 55.3M71.35 43.8 62.1 57.27"/>
  </g>
</svg>
