<svg width="80" height="80" viewBox="0 0 80 80" fill="none" xmlns="http://www.w3.org/2000/svg"><path d="M26.955 1c-.451 0-.902.18-1.173.541l-13.89 13.89c-14.523 14.523-14.523 38.155 0 52.677 14.522 14.522 38.154 14.522 52.676 0l13.89-13.89c.362-.361.542-.722.542-1.173V1.992c0-.541-.451-.992-.992-.992H26.955Z" fill="#E0E1E9"/><path d="M65.925 57.617s.086-.054.119-.087l6.495-4.323-3.134-1.697-3.134.757-8.3-31.677a5.705 5.705 0 0 0-6.68-4.15l-39.588 8.073-1.394-3.123-3.415 5.88a6.502 6.502 0 0 0-.216.367v.021a5.638 5.638 0 0 0-.454 4.247l10.44 36.649a2.587 2.587 0 0 0 3.177 1.794l45.273-12.342a2.94 2.94 0 0 0 .746-.346l.054-.032.01-.011Z" fill="#E0E1E9" stroke="#6C6E79" stroke-width=".7" stroke-linecap="round" stroke-linejoin="round"/><path d="M71.77 53.553 24.098 66.555a2.734 2.734 0 0 1-3.35-1.892L9.755 26.07c-.962-3.372 1.156-6.852 4.593-7.555l42.874-8.743c3.134-.638 6.225 1.286 7.025 4.377l9.445 36.075a2.73 2.73 0 0 1-1.923 3.33Z" fill="#fff"/><path d="M65.448 18.818 11.065 30.76l-1.34-4.69c-.962-3.372 1.156-6.852 4.593-7.555l42.884-8.743c3.134-.638 6.225 1.286 7.025 4.377l1.221 4.669Z" fill="#6C6E79"/><path d="M18.404 23.428a1.873 1.873 0 0 1-1.416 2.366c-1.08.238-2.226-.454-2.528-1.523a1.868 1.868 0 0 1 1.426-2.367c1.092-.227 2.216.465 2.518 1.534v-.01Z" fill="#fff"/><path d="M25.375 21.958c.292 1.059-.324 2.107-1.394 2.334-1.07.227-2.183-.454-2.475-1.524-.292-1.07.324-2.118 1.405-2.345 1.08-.227 2.172.465 2.464 1.524v.01Z" fill="#E0E1E9"/><path d="M11.087 30.862s.324-3.156.605-6.387l-1.372-3.08-3.416 5.879a6.51 6.51 0 0 0-.216.367v.022a5.638 5.638 0 0 0-.454 4.247l1.395 4.907 3.458-5.966v.01Z" fill="#6C6E79"/><path d="M71.77 53.553 24.098 66.555a2.734 2.734 0 0 1-3.35-1.892L9.755 26.07c-.962-3.372 1.156-6.852 4.593-7.555l42.874-8.743c3.134-.638 6.225 1.286 7.025 4.377l9.445 36.075a2.73 2.73 0 0 1-1.923 3.33ZM21.44 30.445l8.96 31.396" stroke="#6C6E79" stroke-width=".7" stroke-linecap="round" stroke-linejoin="round"/><path d="m39.11 36.056-11.824 2.799-1.697-5.955 11.953-2.723a.793.793 0 0 1 .94.562l1.21 4.344a.794.794 0 0 1-.583.984v-.011Z" stroke="#6C6E79" stroke-width=".7" stroke-linecap="round" stroke-linejoin="round"/><path d="m62.377 40.292-32.39 8.106-1.675-5.912 32.563-7.867a.804.804 0 0 1 .951.562l1.124 4.139a.789.789 0 0 1-.573.972Z" fill="#6C6E79" stroke="#6C6E79" stroke-width=".7" stroke-linecap="round" stroke-linejoin="round"/><path d="M57.244 51.393 32.69 57.89l-1.665-5.869L55.71 45.71a.795.795 0 0 1 .962.55l1.134 4.162a.795.795 0 0 1-.562.972Z" fill="#E0E1E9" stroke="#6C6E79" stroke-width=".7" stroke-linecap="round" stroke-linejoin="round"/><path d="m26.438 35.61 2.356-3.465M34.979 30.83l-5.103 7.442M39.004 32.722l-2.72 3.968" stroke="#6C6E79" stroke-width=".7" stroke-miterlimit="10"/></svg>