<svg width="80" height="80" viewBox="0 0 80 80" fill="none" xmlns="http://www.w3.org/2000/svg"><path d="M39.368 3.294 23.005 20.459l-21.5 10.189c-.475.235-.633.705-.396 1.175l11.383 20.77 3.082 23.435c.08.47.554.784 1.028.706L40 72.423l23.398 4.31c.474.079.948-.235 1.027-.705l3.083-23.435 11.383-20.77c.237-.392.08-.94-.395-1.175l-21.5-10.19L40.631 3.294c-.316-.392-.87-.392-1.264 0Z" fill="#E0E1E9"/><path d="M65.925 57.617s.086-.054.119-.086l6.495-4.324-3.134-1.696-3.134.756-8.3-31.677a5.705 5.705 0 0 0-6.68-4.15l-39.588 8.073-1.394-3.123-3.415 5.88a6.51 6.51 0 0 0-.216.367v.021a5.638 5.638 0 0 0-.454 4.248l10.44 36.648a2.587 2.587 0 0 0 3.177 1.794l45.273-12.342a2.94 2.94 0 0 0 .746-.346l.054-.032.01-.011Z" fill="#E0E1E9" stroke="#6C6E79" stroke-width=".7" stroke-linecap="round" stroke-linejoin="round"/><path d="M71.759 53.553 24.087 66.555a2.734 2.734 0 0 1-3.35-1.892L9.744 26.07c-.962-3.372 1.157-6.852 4.593-7.555l42.874-8.743c3.134-.638 6.225 1.286 7.025 4.377l9.445 36.075a2.73 2.73 0 0 1-1.923 3.33Z" fill="#fff"/><path d="M65.438 18.818 11.054 30.76l-1.34-4.69c-.962-3.372 1.156-6.852 4.593-7.555l42.885-8.743c3.134-.638 6.225 1.286 7.024 4.377l1.222 4.669Z" fill="#6C6E79"/><path d="M18.39 23.427a1.873 1.873 0 0 1-1.415 2.367c-1.081.238-2.227-.454-2.53-1.524a1.868 1.868 0 0 1 1.427-2.366c1.092-.227 2.216.464 2.519 1.534v-.01Z" fill="#fff"/><path d="M25.372 21.958c.292 1.059-.324 2.107-1.394 2.334-1.07.227-2.184-.454-2.475-1.524-.292-1.07.324-2.118 1.405-2.345 1.07-.227 2.172.465 2.464 1.524v.01Z" fill="#E0E1E9"/><path d="M11.087 30.862s.324-3.156.605-6.387l-1.372-3.08-3.416 5.879a6.504 6.504 0 0 0-.216.367v.022a5.637 5.637 0 0 0-.454 4.247l1.395 4.907 3.458-5.966v.01Z" fill="#6C6E79"/><path d="M71.759 53.553 24.087 66.555a2.734 2.734 0 0 1-3.35-1.892L9.744 26.07c-.962-3.372 1.157-6.852 4.593-7.555l42.874-8.743c3.134-.638 6.225 1.286 7.025 4.377l9.445 36.075a2.73 2.73 0 0 1-1.923 3.33v0Z" stroke="#6C6E79" stroke-width=".7" stroke-linecap="round" stroke-linejoin="round"/><path d="m22.684 54.081 6.744-1.73 1.361 4.843 6.593-1.74-2.972-10.776 6.528-1.61 1.772 6.495 6.377-1.642-4.659-17.174 6.345-1.47 4.571 17.033 6.139-1.578-3.999-15.055 6.106-1.415" stroke="#6C6E79" stroke-width=".7" stroke-linecap="round" stroke-linejoin="round"/></svg>