<svg width="80" height="80" viewBox="0 0 80 80" fill="none" xmlns="http://www.w3.org/2000/svg"><path d="M71.183 27a46.187 46.187 0 0 0-1.727-15.715c-.083-.33-.412-.658-.74-.74A46.189 46.189 0 0 0 53 8.815l-4.114-4.113a12.515 12.515 0 0 0-17.772 0L27 8.816a46.189 46.189 0 0 0-15.715 1.728c-.33.083-.658.412-.74.74A46.188 46.188 0 0 0 8.815 27l-4.113 4.114a12.515 12.515 0 0 0 0 17.772L8.816 53a46.188 46.188 0 0 0 1.728 15.715c.083.33.412.658.74.74A46.187 46.187 0 0 0 27 71.184l4.114 4.114a12.515 12.515 0 0 0 17.772 0L53 71.183a46.187 46.187 0 0 0 15.715-1.727c.33-.083.658-.412.74-.74A46.187 46.187 0 0 0 71.184 53l4.114-4.114a12.515 12.515 0 0 0 0-17.772L71.183 27Z" fill="#E0E1E9"/><path d="M65.925 57.617s.086-.054.119-.087l6.495-4.323-3.134-1.697-3.134.757-8.3-31.677a5.705 5.705 0 0 0-6.68-4.15l-39.588 8.073-1.394-3.123-3.415 5.88a6.502 6.502 0 0 0-.216.367v.021a5.638 5.638 0 0 0-.454 4.247l10.44 36.649a2.587 2.587 0 0 0 3.177 1.794l45.273-12.342a2.94 2.94 0 0 0 .746-.346l.054-.032.01-.011Z" fill="#E0E1E9" stroke="#6C6E79" stroke-width=".7" stroke-linecap="round" stroke-linejoin="round"/><path d="M71.76 53.553 24.087 66.555a2.734 2.734 0 0 1-3.35-1.892L9.746 26.07c-.962-3.372 1.156-6.852 4.593-7.555l42.873-8.743c3.135-.638 6.226 1.286 7.025 4.377l9.446 36.075a2.73 2.73 0 0 1-1.924 3.33Z" fill="#fff"/><path d="M65.448 18.818 11.065 30.76l-1.34-4.69c-.962-3.372 1.156-6.852 4.593-7.555l42.884-8.743c3.134-.638 6.225 1.286 7.025 4.377l1.221 4.669Z" fill="#6C6E79"/><path d="M18.39 23.428a1.873 1.873 0 0 1-1.415 2.366c-1.081.238-2.227-.454-2.53-1.523a1.868 1.868 0 0 1 1.427-2.367c1.092-.227 2.216.465 2.518 1.534v-.01Z" fill="#fff"/><path d="M25.375 21.958c.292 1.059-.324 2.107-1.394 2.334-1.07.227-2.183-.454-2.475-1.524-.291-1.07.325-2.118 1.405-2.345 1.081-.227 2.172.465 2.464 1.524v.01Z" fill="#E0E1E9"/><path d="M11.087 30.862s.325-3.156.606-6.387l-1.373-3.08-3.415 5.879a6.504 6.504 0 0 0-.216.367v.022a5.637 5.637 0 0 0-.454 4.247l1.394 4.907 3.458-5.966v.01Z" fill="#6C6E79"/><path d="M71.76 53.553 24.087 66.555a2.734 2.734 0 0 1-3.35-1.892L9.746 26.07c-.962-3.372 1.156-6.852 4.593-7.555l42.873-8.743c3.135-.638 6.226 1.286 7.025 4.377l3.059 11.683 6.387 24.392a2.73 2.73 0 0 1-1.924 3.33Z" stroke="#6C6E79" stroke-width=".7" stroke-linecap="round" stroke-linejoin="round"/><path d="M19.936 61.83c1.502-8.375 3.307-15.357 8.203-16.718 7.209-2.01 13.628 7.608 18.913 4.301 4.442-2.777 3.2-14.763 11.65-21.042 1.676-1.243 4.302-2.151 7.642-2.735.291-.054.594-.097.907-.15" stroke="#6C6E79" stroke-width=".7" stroke-linecap="round" stroke-linejoin="round"/><path d="M61.342 27.857c.443 1.675-.368 3.296-1.816 3.642-1.448.346-3.005-.746-3.458-2.421-.454-1.675.367-3.329 1.837-3.653 1.47-.324 2.994.767 3.447 2.442l-.01-.01ZM30.765 44.517c.444 1.676-.367 3.297-1.815 3.643-1.46.346-3.005-.746-3.459-2.421-.454-1.675.368-3.329 1.838-3.653 1.47-.324 2.993.767 3.447 2.442l-.01-.01ZM49.682 48.814c.443 1.675-.368 3.297-1.816 3.642-1.448.346-3.004-.745-3.458-2.42-.454-1.676.367-3.33 1.837-3.654 1.46-.324 2.994.768 3.448 2.443l-.011-.01Z" fill="#6C6E79"/></svg>