<svg width="80" height="80" viewBox="0 0 80 80" fill="none" xmlns="http://www.w3.org/2000/svg">
  <path d="M71.18 27a46.19 46.19 0 0 0-1.72-15.72 1.11 1.11 0 0 0-.74-.74A46.19 46.19 0 0 0 53 8.82L48.89 4.7a12.51 12.51 0 0 0-17.78 0L27 8.82a46.19 46.19 0 0 0-15.72 1.72c-.32.09-.65.42-.74.74A46.19 46.19 0 0 0 8.82 27L4.7 31.11a12.51 12.51 0 0 0 0 17.78L8.82 53a46.19 46.19 0 0 0 1.72 15.72c.09.32.42.65.74.74A46.19 46.19 0 0 0 27 71.18l4.11 4.12a12.51 12.51 0 0 0 17.78 0L53 71.18c5.27.33 10.61-.24 15.72-1.72.32-.09.65-.42.74-.74A46.19 46.19 0 0 0 71.18 53l4.12-4.11a12.51 12.51 0 0 0 0-17.78L71.18 27Z" fill="#E0E1E9"/>
  <path d="M65.92 57.62s.1-.06.12-.09l6.5-4.32-3.14-1.7-3.13.76-8.3-31.68a5.7 5.7 0 0 0-6.68-4.15L11.7 24.51l-1.4-3.12-3.4 5.88a6.5 6.5 0 0 0-.22.37v.02a5.64 5.64 0 0 0-.46 4.25l10.44 36.64a2.59 2.59 0 0 0 3.18 1.8L65.11 58c.27-.08.52-.21.75-.35l.05-.03.01-.01Z" fill="#E0E1E9" stroke="#6C6E79" stroke-width=".7" stroke-linecap="round" stroke-linejoin="round"/>
  <path d="m71.76 53.55-47.67 13a2.73 2.73 0 0 1-3.35-1.89l-11-38.59a6.03 6.03 0 0 1 4.6-7.55L57.2 9.77a6.02 6.02 0 0 1 7.03 4.38l9.44 36.07a2.73 2.73 0 0 1-1.92 3.33Z" fill="#fff"/>
  <path d="M65.45 18.82 11.06 30.76l-1.34-4.69a6.03 6.03 0 0 1 4.6-7.55L57.2 9.77a6.02 6.02 0 0 1 7.03 4.38l1.22 4.67Z" fill="#6C6E79"/>
  <path d="M18.39 23.43a1.87 1.87 0 0 1-1.42 2.36 2.2 2.2 0 0 1-2.52-1.52 1.87 1.87 0 0 1 1.42-2.37 2.2 2.2 0 0 1 2.52 1.54v-.01Z" fill="#fff"/>
  <path d="M25.38 21.96c.29 1.06-.33 2.1-1.4 2.33a2.15 2.15 0 0 1-2.47-1.52 1.85 1.85 0 0 1 1.4-2.35 2.14 2.14 0 0 1 2.47 1.53Z" fill="#E0E1E9"/>
  <path d="M11.09 30.86s.32-3.15.6-6.39l-1.37-3.08-3.42 5.88a6.5 6.5 0 0 0-.21.37v.02a5.64 5.64 0 0 0-.46 4.25l1.4 4.9 3.46-5.96v.01Z" fill="#6C6E79"/>
  <path d="m71.76 53.55-47.67 13a2.73 2.73 0 0 1-3.35-1.89l-11-38.59a6.03 6.03 0 0 1 4.6-7.55L57.2 9.77a6.02 6.02 0 0 1 7.03 4.38l3.06 11.68 6.38 24.4a2.73 2.73 0 0 1-1.92 3.32Z" stroke="#6C6E79" stroke-width=".7" stroke-linecap="round" stroke-linejoin="round"/>
  <path d="M19.94 61.83c1.5-8.38 3.3-15.36 8.2-16.72 7.2-2 13.63 7.61 18.91 4.3 4.44-2.77 3.2-14.76 11.65-21.04 1.68-1.24 4.3-2.15 7.64-2.73.3-.06.6-.1.91-.15" stroke="#6C6E79" stroke-width=".7" stroke-linecap="round" stroke-linejoin="round"/>
  <path d="M61.34 27.86c.44 1.67-.37 3.3-1.81 3.64-1.45.34-3-.75-3.46-2.42-.46-1.68.37-3.33 1.83-3.66 1.47-.32 3 .77 3.45 2.45v-.01ZM30.77 44.52c.44 1.67-.37 3.3-1.82 3.64-1.46.35-3-.75-3.46-2.42-.45-1.68.37-3.33 1.84-3.65 1.47-.33 3 .76 3.45 2.44l-.01-.01ZM49.68 48.81c.45 1.68-.37 3.3-1.81 3.65-1.45.34-3-.75-3.46-2.42-.46-1.68.37-3.33 1.84-3.66 1.45-.32 2.99.77 3.44 2.45v-.02Z" fill="#6C6E79"/>
</svg>
