<svg width="80" height="80" viewBox="0 0 80 80" fill="none" xmlns="http://www.w3.org/2000/svg"><path d="M57.32 4a21.696 21.696 0 0 0-17.394 8.726A21.736 21.736 0 0 0 22.45 4c-11.54.082-21.02 9.052-21.433 20.47-.906 23.732 33.798 48.28 38.497 51.46.33.244.742.244.99 0C45.036 72.668 79 47.794 79 25.367 78.918 13.542 69.273 4 57.32 4Z" fill="#E0E1E9"/><path d="M65.925 56.967s.086-.054.119-.086l6.495-4.324-3.134-1.696-3.134.756-8.3-31.677a5.705 5.705 0 0 0-6.68-4.15l-39.588 8.073-1.394-3.123-3.415 5.88a6.504 6.504 0 0 0-.216.367v.022a5.637 5.637 0 0 0-.454 4.247l10.44 36.648a2.587 2.587 0 0 0 3.177 1.794l45.273-12.342a2.94 2.94 0 0 0 .746-.346l.054-.032.01-.011Z" fill="#E0E1E9" stroke="#6C6E79" stroke-width=".7" stroke-linecap="round" stroke-linejoin="round"/><path d="M71.762 52.903 24.09 65.905a2.734 2.734 0 0 1-3.35-1.892L9.747 25.42c-.962-3.372 1.157-6.852 4.593-7.555l42.874-8.743c3.134-.638 6.225 1.286 7.025 4.377l9.446 36.076a2.73 2.73 0 0 1-1.924 3.328Z" fill="#fff"/><path d="M65.451 18.168 11.068 30.11l-1.34-4.69c-.963-3.372 1.156-6.852 4.593-7.555l42.884-8.743c3.134-.638 6.225 1.286 7.025 4.377l1.221 4.669Z" fill="#6C6E79"/><path d="M18.393 22.778a1.873 1.873 0 0 1-1.416 2.367c-1.08.238-2.226-.454-2.529-1.524a1.868 1.868 0 0 1 1.427-2.367c1.092-.227 2.216.465 2.518 1.535v-.011Z" fill="#fff"/><path d="M25.375 21.308c.291 1.06-.325 2.108-1.395 2.334-1.07.227-2.183-.453-2.475-1.523-.291-1.07.325-2.119 1.405-2.346 1.07-.227 2.173.465 2.465 1.524v.011Z" fill="#E0E1E9"/><path d="M11.09 30.212s.324-3.155.605-6.387l-1.373-3.08-3.415 5.88a6.53 6.53 0 0 0-.216.367v.021a5.637 5.637 0 0 0-.454 4.248l1.394 4.906 3.458-5.966v.011Z" fill="#6C6E79"/><path d="M71.762 52.903 24.09 65.905a2.734 2.734 0 0 1-3.35-1.892L9.747 25.42c-.962-3.372 1.157-6.852 4.593-7.555l42.874-8.743c3.134-.638 6.225 1.286 7.025 4.377l9.446 36.076a2.73 2.73 0 0 1-1.924 3.328ZM29.958 46.03l2.918 10.472M45.425 46.992l1.588 5.815" stroke="#6C6E79" stroke-width=".7" stroke-linecap="round" stroke-linejoin="round"/><path d="M60.525 27.64c.691 2.637-1.114 5.328-4.053 6.03-2.972.714-5.977-.864-6.69-3.533-.713-2.67 1.135-5.404 4.128-6.074 2.962-.67 5.912.94 6.615 3.577Z" fill="#6C6E79" stroke="#6C6E79" stroke-width=".7" stroke-linecap="round" stroke-linejoin="round"/><path d="M49.478 40.981c.691 2.583-1.114 5.264-4.053 6.01-2.972.756-5.977-.746-6.69-3.362-.724-2.626 1.135-5.339 4.128-6.052 2.962-.713 5.912.821 6.615 3.404Z" stroke="#6C6E79" stroke-width=".7" stroke-linecap="round" stroke-linejoin="round"/><path d="M34.002 40.15c.692 2.529-1.102 5.155-4.053 5.89-2.972.735-5.976-.735-6.7-3.307-.724-2.572 1.134-5.231 4.128-5.923 2.961-.691 5.912.81 6.614 3.34h.011Z" fill="#E0E1E9" stroke="#6C6E79" stroke-width=".7" stroke-linecap="round" stroke-linejoin="round"/><path d="m56.373 33.282 4.259 15.974M38.658 43.162l3.667-5.344M41.22 46.5 47 38.068M45.828 46.844l3.726-5.436M70.595 48.97 23.128 61.54" stroke="#6C6E79" stroke-width=".7" stroke-linecap="round" stroke-linejoin="round"/></svg>