<svg width="80" height="80" viewBox="0 0 80 80" fill="none" xmlns="http://www.w3.org/2000/svg">
  <path d="M57.32 4a21.7 21.7 0 0 0-17.4 8.73A21.74 21.74 0 0 0 22.46 4c-11.54.08-21.02 9.05-21.43 20.47-.9 23.73 33.8 48.28 38.5 51.46.32.24.74.24.98 0C45.04 72.67 79 47.79 79 25.37A21.58 21.58 0 0 0 57.32 4Z" fill="#E0E1E9"/>
  <path d="M65.92 56.97s.1-.06.12-.09l6.5-4.32-3.14-1.7-3.13.76-8.3-31.68a5.7 5.7 0 0 0-6.68-4.15L11.7 23.86l-1.4-3.12-3.4 5.88a6.5 6.5 0 0 0-.22.37V27a5.64 5.64 0 0 0-.46 4.25L16.66 67.9a2.59 2.59 0 0 0 3.18 1.8l45.27-12.34c.27-.08.52-.2.75-.35l.05-.03.01-.01Z" fill="#E0E1E9" stroke="#6C6E79" stroke-width=".7" stroke-linecap="round" stroke-linejoin="round"/>
  <path d="m71.76 52.9-47.67 13a2.73 2.73 0 0 1-3.35-1.89l-11-38.59a6.03 6.03 0 0 1 4.6-7.55l42.88-8.75a6.02 6.02 0 0 1 7.02 4.38l9.45 36.07a2.73 2.73 0 0 1-1.93 3.33Z" fill="#fff"/>
  <path d="M65.45 18.17 11.07 30.1l-1.34-4.69a6.03 6.03 0 0 1 4.6-7.55L57.2 9.12a6.02 6.02 0 0 1 7.03 4.38l1.22 4.67Z" fill="#6C6E79"/>
  <path d="M18.4 22.78a1.87 1.87 0 0 1-1.42 2.36 2.2 2.2 0 0 1-2.53-1.52 1.87 1.87 0 0 1 1.43-2.37 2.2 2.2 0 0 1 2.51 1.54v-.01Z" fill="#fff"/>
  <path d="M25.37 21.3c.3 1.07-.32 2.12-1.39 2.34a2.15 2.15 0 0 1-2.47-1.52 1.85 1.85 0 0 1 1.4-2.35 2.14 2.14 0 0 1 2.46 1.53Z" fill="#E0E1E9"/>
  <path d="M11.09 30.21s.32-3.15.6-6.39l-1.37-3.08-3.41 5.88-.22.37v.02a5.64 5.64 0 0 0-.45 4.25l1.4 4.9 3.45-5.96v.01Z" fill="#6C6E79"/>
  <path d="m71.76 52.9-47.67 13a2.73 2.73 0 0 1-3.35-1.89l-11-38.59a6.03 6.03 0 0 1 4.6-7.55l42.88-8.75a6.02 6.02 0 0 1 7.02 4.38l9.45 36.07a2.73 2.73 0 0 1-1.93 3.33ZM29.96 46.03l2.92 10.47M45.42 47l1.6 5.8" stroke="#6C6E79" stroke-width=".7" stroke-linecap="round" stroke-linejoin="round"/>
  <path d="M60.52 27.64c.7 2.64-1.1 5.33-4.05 6.03-2.97.71-5.97-.86-6.69-3.53-.71-2.67 1.14-5.4 4.13-6.08 2.96-.67 5.91.94 6.61 3.58Z" fill="#6C6E79" stroke="#6C6E79" stroke-width=".7" stroke-linecap="round" stroke-linejoin="round"/>
  <path d="M49.48 40.98c.69 2.58-1.12 5.26-4.06 6.01-2.97.76-5.97-.75-6.69-3.36-.72-2.63 1.14-5.34 4.13-6.05 2.96-.72 5.92.82 6.62 3.4Z" stroke="#6C6E79" stroke-width=".7" stroke-linecap="round" stroke-linejoin="round"/>
  <path d="M34 40.15c.7 2.53-1.1 5.16-4.05 5.89-2.97.73-5.98-.73-6.7-3.3-.73-2.58 1.13-5.24 4.13-5.93 2.96-.7 5.9.81 6.61 3.34H34Z" fill="#E0E1E9" stroke="#6C6E79" stroke-width=".7" stroke-linecap="round" stroke-linejoin="round"/>
  <path d="m56.37 33.28 4.26 15.98M38.66 43.16l3.67-5.34M41.22 46.5 47 38.07M45.83 46.84l3.72-5.43M70.6 48.97 23.13 61.54" stroke="#6C6E79" stroke-width=".7" stroke-linecap="round" stroke-linejoin="round"/>
</svg>
