<svg width="80" height="80" viewBox="0 0 80 80" fill="none" xmlns="http://www.w3.org/2000/svg">
  <path d="M39 3.24V.88a.88.88 0 0 0-.98-.87A39.24 39.24 0 0 0 3.26 39H.88a.88.88 0 0 0-.87.97A39.24 39.24 0 0 0 39 74.74v2.36c0 .52.45.94.97.87a39.24 39.24 0 0 0 34.77-38.99h2.37a.9.9 0 0 0 .89-.97A39.24 39.24 0 0 0 39 3.24" fill="#E0E1E9"/>
  <path d="m66.16 57.37.12-.08 6.52-4.33-3.15-1.7-3.14.76-8.34-31.68a5.73 5.73 0 0 0-6.7-4.15l-39.74 8.06-1.4-3.12-3.43 5.88a6.5 6.5 0 0 0-.22.37v.02a5.62 5.62 0 0 0-.46 4.25L16.7 68.3a2.6 2.6 0 0 0 3.19 1.8l45.46-12.35c.27-.07.52-.2.74-.34l.06-.04h.01Z" fill="#E0E1E9" stroke="#6C6E79" stroke-width=".7" stroke-linecap="round" stroke-linejoin="round"/>
  <path d="m72.02 53.31-47.87 13a2.75 2.75 0 0 1-3.36-1.89L9.75 25.82a6.03 6.03 0 0 1 4.61-7.55l43.05-8.75a6.04 6.04 0 0 1 7.06 4.38l9.48 36.08a2.73 2.73 0 0 1-1.93 3.33v0Z" fill="#fff" stroke="#6C6E79" stroke-width=".7" stroke-linecap="round" stroke-linejoin="round"/>
  <path d="M65.68 18.57 11.08 30.5l-1.35-4.69a6.03 6.03 0 0 1 4.61-7.55L57.4 9.53a6.04 6.04 0 0 1 7.06 4.38l1.22 4.67.01-.01Z" fill="#6C6E79"/>
  <path d="M18.43 23.17a1.87 1.87 0 0 1-1.42 2.37 2.2 2.2 0 0 1-2.54-1.52 1.87 1.87 0 0 1 1.43-2.37 2.2 2.2 0 0 1 2.53 1.53Z" fill="#fff"/>
  <path d="M25.44 21.7c.3 1.05-.32 2.1-1.4 2.33a2.15 2.15 0 0 1-2.48-1.53 1.85 1.85 0 0 1 1.4-2.34 2.15 2.15 0 0 1 2.48 1.52v.01Z" fill="#E0E1E9"/>
  <path d="M11.1 30.6s.32-3.16.6-6.39l-1.37-3.08-3.43 5.88a6.5 6.5 0 0 0-.22.37v.02a5.62 5.62 0 0 0-.46 4.25l1.4 4.9 3.48-5.96v.01Z" fill="#6C6E79"/>
  <path d="M63.5 34.5c-5-1.17-5.64-2.17-9.74-1.17C47.72 34.82 47 44.4 41.81 44.16c-4.35-.2-8.34-9.4-17.02-10.5a9.31 9.31 0 0 0-7.26 1.88" stroke="#6C6E79" stroke-width=".7" stroke-linecap="round" stroke-linejoin="round"/>
  <path d="M22.63 34.33c.38 1.65 1.91 2.59 3.45 2.1 1.54-.47 2.5-2.22 2.13-3.88-.37-1.65-1.93-2.61-3.48-2.1a3.36 3.36 0 0 0-2.1 3.9v-.02ZM51.57 33.93c.38 1.65 1.92 2.6 3.45 2.11 1.54-.48 2.5-2.23 2.13-3.89-.37-1.65-1.93-2.6-3.48-2.1a3.36 3.36 0 0 0-2.1 3.9v-.02ZM39.62 44.77c.38 1.65 1.92 2.58 3.45 2.1 1.54-.48 2.5-2.23 2.13-3.88-.37-1.66-1.93-2.62-3.48-2.1a3.36 3.36 0 0 0-2.1 3.9v-.02Z" fill="#6C6E79"/>
  <path d="M76.24 48.78c-1.78-6.4-8.42-10.5-14.83-9.15-1.1.23-2.1.6-3.04 1.1l-.37-.36-2.33 2.36h0c-2.69 2.75-3.84 6.83-2.69 10.97 1.8 6.43 8.47 10.51 14.89 9.14a11.1 11.1 0 0 0 5.42-2.87l2.46-2.47-.36-.34c1.27-2.44 1.66-5.39.83-8.37h.02Z" fill="#6C6E79" stroke="#6C6E79" stroke-width=".7" stroke-linecap="round" stroke-linejoin="round"/>
  <path d="M78.44 46.55c1.78 6.39-1.95 12.68-8.36 14.05-6.41 1.38-13.1-2.7-14.88-9.13a11.09 11.09 0 0 1 8.41-14.1c6.42-1.33 13.05 2.77 14.83 9.16v.02Z" fill="#fff" stroke="#6C6E79" stroke-width=".7" stroke-linecap="round" stroke-linejoin="round"/>
  <path d="M72.84 52.18a5.96 5.96 0 0 0-5.48-.86 4.66 4.66 0 0 0-2.85 3.15" fill="#fff"/>
  <path d="M72.84 52.18a5.96 5.96 0 0 0-5.48-.86 4.66 4.66 0 0 0-2.85 3.15" stroke="#6C6E79" stroke-width=".7" stroke-linecap="round" stroke-linejoin="round"/>
  <path d="M63.05 46.86c.18.68-.21 1.35-.9 1.5-.69.14-1.4-.29-1.58-.97-.19-.7.2-1.36.9-1.5.68-.14 1.38.3 1.58.97ZM71.37 44.56c.19.68-.2 1.35-.9 1.5-.68.14-1.39-.29-1.58-.98-.18-.68.21-1.35.9-1.5.69-.13 1.39.3 1.58.98Z" fill="#6C6E79"/>
</svg>
