<svg width="80" height="80" viewBox="0 0 80 80" fill="none" xmlns="http://www.w3.org/2000/svg"><path d="M38.996 3.245V.884c0-.52-.455-.942-.975-.877C18.45 2.227 3.256 18.84 3.256 38.996H.884c-.52 0-.942.454-.877.974 2.22 19.57 18.833 34.765 38.989 34.765v2.361c0 .52.454.943.974.878 19.57-2.22 34.765-18.834 34.765-38.99h2.372c.52 0 .942-.454.888-.974-2.22-19.57-18.834-34.765-38.989-34.765" fill="#E0E1E9"/><path d="M66.16 57.374s.087-.054.12-.087l6.521-4.323-3.147-1.697-3.147.756-8.334-31.681a5.73 5.73 0 0 0-6.707-4.15l-39.74 8.063-1.4-3.124-3.428 5.88a6.507 6.507 0 0 0-.217.368v.021a5.618 5.618 0 0 0-.456 4.248l10.472 36.654a2.599 2.599 0 0 0 3.19 1.794l45.459-12.344c.271-.076.52-.205.749-.346l.054-.032h.01Z" fill="#E0E1E9" stroke="#6C6E79" stroke-width=".7" stroke-linecap="round" stroke-linejoin="round"/><path d="M72.02 53.31 24.152 66.313a2.747 2.747 0 0 1-3.364-1.892L9.752 25.822c-.966-3.372 1.16-6.853 4.612-7.556l43.05-8.744c3.146-.638 6.25 1.286 7.053 4.377L73.95 49.98a2.729 2.729 0 0 1-1.931 3.33Z" fill="#fff" stroke="#6C6E79" stroke-width=".7" stroke-linecap="round" stroke-linejoin="round"/><path d="M65.682 18.569 11.076 30.513 9.73 25.822c-.966-3.372 1.161-6.853 4.612-7.556l43.05-8.733c3.146-.638 6.25 1.286 7.053 4.377l1.226 4.67.011-.011Z" fill="#6C6E79"/><path d="M18.433 23.174a1.873 1.873 0 0 1-1.421 2.367c-1.097.238-2.236-.454-2.54-1.524a1.868 1.868 0 0 1 1.433-2.367c1.096-.227 2.224.464 2.528 1.535v-.011Z" fill="#fff"/><path d="M25.443 21.693c.293 1.06-.325 2.108-1.4 2.335-1.074.227-2.192-.454-2.485-1.524-.293-1.07.326-2.12 1.411-2.346 1.085-.227 2.181.465 2.474 1.524v.01Z" fill="#E0E1E9"/><path d="M11.097 30.6s.326-3.157.608-6.389l-1.378-3.08-3.43 5.88a6.507 6.507 0 0 0-.216.367v.022a5.619 5.619 0 0 0-.456 4.248l1.4 4.908 3.472-5.967v.01Z" fill="#6C6E79"/><path d="M63.5 34.5c-5-1.166-5.636-2.175-9.739-1.166-6.044 1.482-6.775 11.07-11.953 10.828-4.351-.202-8.337-9.395-17.021-10.5-3.506-.44-5.577.654-7.26 1.874" stroke="#6C6E79" stroke-width=".7" stroke-linecap="round" stroke-linejoin="round"/><path d="M22.63 34.332c.375 1.65 1.913 2.587 3.45 2.107 1.535-.48 2.491-2.23 2.126-3.887-.366-1.656-1.929-2.614-3.475-2.104-1.536.504-2.472 2.243-2.106 3.899l.005-.015ZM51.574 33.935c.376 1.65 1.913 2.586 3.45 2.106 1.535-.48 2.491-2.23 2.126-3.886-.365-1.656-1.929-2.614-3.475-2.105-1.536.504-2.472 2.244-2.106 3.9l.005-.015ZM39.624 44.767c.375 1.65 1.913 2.587 3.45 2.107 1.535-.48 2.491-2.23 2.126-3.887-.366-1.656-1.929-2.614-3.475-2.104-1.547.51-2.472 2.243-2.107 3.899l.006-.015Z" fill="#6C6E79"/><path d="M76.238 48.782c-1.778-6.394-8.413-10.497-14.83-9.155-1.091.23-2.106.611-3.033 1.102l-.371-.36-2.336 2.357h.011c-2.695 2.75-3.852 6.831-2.695 10.978 1.8 6.428 8.468 10.509 14.884 9.134a11.11 11.11 0 0 0 5.424-2.87l2.455-2.466-.36-.339c1.277-2.444 1.659-5.39.83-8.37l.021-.01Z" fill="#6C6E79" stroke="#6C6E79" stroke-width=".7" stroke-linecap="round" stroke-linejoin="round"/><path d="M78.442 46.545c1.78 6.395-1.953 12.68-8.358 14.056-6.417 1.375-13.095-2.707-14.885-9.134-1.8-6.428 1.975-12.735 8.413-14.088 6.417-1.342 13.052 2.76 14.83 9.156v.01Z" fill="#fff" stroke="#6C6E79" stroke-width=".7" stroke-linecap="round" stroke-linejoin="round"/><path d="M72.84 52.179c-1.647-1.179-3.742-1.517-5.478-.863-2.215.83-2.782 2.87-2.848 3.154" fill="#fff"/><path d="M72.84 52.179c-1.647-1.179-3.742-1.517-5.478-.863-2.215.83-2.782 2.87-2.848 3.154" stroke="#6C6E79" stroke-width=".7" stroke-linecap="round" stroke-linejoin="round"/><path d="M63.045 46.862c.186.676-.207 1.353-.895 1.495a1.367 1.367 0 0 1-1.582-.971c-.185-.688.207-1.354.895-1.495.687-.142 1.386.294 1.582.97ZM71.371 44.559c.186.677-.207 1.353-.894 1.495a1.367 1.367 0 0 1-1.583-.971c-.185-.688.208-1.353.895-1.495.688-.142 1.386.294 1.582.971Z" fill="#6C6E79"/></svg>