<svg width="260" height="260" viewBox="0 0 260 260" fill="none" xmlns="http://www.w3.org/2000/svg">
  <g clip-path="url(#a)">
    <path d="M136.87 149.77c2.5 2.71-4.24 12.26-12.12 7.8-5.54-3.13-16.02-1.73-16.02-1.73l11.04-7.37 17.1 1.3Z" fill="#171A22"/>
    <path d="M123.39 140.8c.65.23 5.77 3.99 7.29 4.42 1.52.44 6.13-.65 6.78 2.39.65 3.04-1.52 3.19-1.52 3.19a3.8 3.8 0 0 1-1.19 4.25c-2.16 1.96-3.89.33-3.89.33s-.53 2.46-4.51 1.3c-4.74-1.38-9.24-3.9-14.65-3.47-5.42.43 11.69-12.4 11.69-12.4Z" fill="#FF642D"/>
    <path d="M130.35 151.66s2.57 2.16.3 5.22M133.53 148.47s2.3-.14 2.62 2.86" stroke="#171A22" stroke-width="1.8" stroke-linecap="round" stroke-linejoin="round"/>
    <path d="M127.37 135.07s-.64 7.16-9.3 13.45c-8.66 6.3-10.6 7.82-10.6 7.82l5.82-17.58 14.08-3.7Z" fill="#fff"/>
    <path d="M86.48 71.95s3.03-16.72 23.16-26.06 34.42-5.2 40.7-3.47c6.28 1.73 19.7 7.82 28.35 3.04 0 0 .22 2.39-3.89 4.34 0 0 17.53 2.82 27.27-4.78 0 0 2.17 6.3-6.27 13.89-8.45 7.6-19.92 9.57-19.92 9.57s2.6 1.15 6.93 0c-1.3 2.31-7.69 8.77-20.15 5.2-12.63-3.6-34.64-6.5-43.73-4.78-9.1 1.72-14.5 4.56-19.7 9.98.02.01-7.99-5.63-12.75-6.93Z" fill="#FF642D"/>
    <path d="m85.2 190.28 68.63-.53s6.36 4.63 10.46 3.76c4.1-.87 9.45-2.24 9.67-5.5.22-3.25-1.52-4.78-1.52-4.78l-65.58-4.78-21.65 11.83ZM21.08 169.52c-6.07.22-25.05 1.45-20.34 11.67A10.62 10.62 0 0 0 4 185.14c8.85 6.79 21.58 7.04 32.23 8.73 8.65 1.37 17.3 2.75 25.98 3.87 3.54.5 7.1.8 10.67.88.51 0 1.02.12 1.48.35a16.77 16.77 0 0 0 9.06 1.37c6.07-.65 10.18-3.26 6.94-6.08-.97-.84-8.4.98-17.1-2.17-20.51-7.41-52.17-22.57-52.17-22.57Z" fill="#171A22"/>
    <path d="M256.86 165.7a9.72 9.72 0 0 1 .78 9.87 15 15 0 0 1-5.19 5.61c-8.18 5.51-19.12 5.38-28.55 4.4-16.3-1.71-32.44-4.98-48.37-8.8-5.1-1.22-10.6-2.16-15.45-.12s-8.22 8.24-5.53 12.76c2 3.34 6.22 4.39 9.76 6 3.53 1.6 7.11 5.24 5.71 8.87-1.4 3.64-6.31 3.93-10.18 3.65-32.83-2.32-66.22-1.3-98.75 3.82a373.9 373.9 0 0 0-35.66 7.6" stroke="#171A22" stroke-width="1.8" stroke-linecap="round" stroke-linejoin="round"/>
    <path d="M235.03 148.03a1.02 1.02 0 0 0-.18 1.43l4.68 6.07 1.59-1.24-4.69-6.07a1 1 0 0 0-1.4-.19ZM243.93 141.02a1.02 1.02 0 0 0-.18 1.42l4.68 6.07 1.6-1.24-4.7-6.07a1.01 1.01 0 0 0-1.4-.18Z" fill="#FF642D" stroke="#171A22" stroke-width="1.8" stroke-linecap="round" stroke-linejoin="round"/>
    <path d="m256 161.97-4.16 3.24-7.67-1.3 12.5-9.7-.67 7.76Z" fill="#171A22" stroke="#171A22" stroke-width="1.8" stroke-linecap="round" stroke-linejoin="round"/>
    <path d="m252.22 147.7-12.5 9.7 4.82 6.24 12.5-9.7-4.82-6.24Z" fill="#171A22" stroke="#171A22" stroke-width="1.8" stroke-linecap="round" stroke-linejoin="round"/>
    <path d="m252.18 145.76-15 11.64 2.02 2.62 15-11.64-2.02-2.62ZM259.36 166.85l-3.6 2.8-3.96-4.55 4.17-3.24 3.4 5Z" fill="#171A22" stroke="#171A22" stroke-width="1.8" stroke-linecap="round" stroke-linejoin="round"/>
    <path d="m246.72 153.95 6.24-4.85 1.03 1.33-7.28 3.52ZM200.1 109.97l-23.37 2.4-1.87-2.4v-25.3h25.24l1.97 2.52-1.97 22.78Z" fill="#171A22" stroke="#171A22" stroke-width="1.8" stroke-linecap="round" stroke-linejoin="round"/>
    <path d="M202.01 87.21h-25.24v25.31h25.24v-25.3Z" fill="#fff" stroke="#171A22" stroke-width="1.8" stroke-linecap="round" stroke-linejoin="round"/>
    <path d="M189.37 106.74a6.88 6.88 0 1 0-.02-13.77 6.88 6.88 0 0 0 .02 13.77Z" fill="#fff" stroke="#171A22" stroke-width="1.8" stroke-linecap="round" stroke-linejoin="round"/>
    <path d="M185.66 100.6a1.26 1.26 0 1 0 0-2.54 1.26 1.26 0 0 0 0 2.53ZM190.75 100.6a1.26 1.26 0 1 0 0-2.54 1.26 1.26 0 0 0 0 2.53Z" fill="#171A22" stroke="#171A22" stroke-width="1.8" stroke-linecap="round" stroke-linejoin="round"/>
    <path d="M192.3 93.6a6.89 6.89 0 0 1-7.26 11.44 6.89 6.89 0 0 0 11.3-7.15 6.92 6.92 0 0 0-4.03-4.3h0Z" fill="#171A22" stroke="#171A22" stroke-width="1.8" stroke-linecap="round" stroke-linejoin="round"/>
    <path d="M33.7 91.89a79.93 79.93 0 0 1 33.27-15.32c4.44-.88 7.32 1.18 5.19 5.72-3.24 6.91-8.31 11.53-13.76 16.4a22.26 22.26 0 0 1 23.7 14.36 22.43 22.43 0 0 1 1.32 9.81c-.7 7.93-5.53 14.89-10.86 20.8-4.5 5-11.28 12.26-18.67 17.36M92.04 101.81c5.18 0 9.38-1.55 9.38-3.47 0-1.91-4.2-3.47-9.38-3.47-5.18 0-9.38 1.56-9.38 3.47 0 1.92 4.2 3.47 9.38 3.47Z" fill="#FF642D"/>
    <path d="M26.7 99.83S45.3 73.3 65.22 70.47c18.56-2.66 35.26 5.69 49.72 23.72a145.98 145.98 0 0 1 3.1 4.06c8.1 11.17 14.85 26.38 8.79 40.01-3.11 6.98-8.33 10.04-14.25 14.19-2.77 1.94-9.78 8.05-7.31 12" stroke="#171A22" stroke-width="1.8" stroke-linecap="round" stroke-linejoin="round"/>
    <path d="M106.36 162.5s53.1 18.18 56.36 18.38c3.25.2 3.24-1.07 7.35-.66 4.11.41 4.74 2.8 4.77 3.7.07 2.31-1.73 2.16-1.73 2.16s.65 3.48-2.38 4.56c-3.03 1.09-4.77-.21-4.77-.21s-3.47 3.47-6.5.43c-3.03-3.03-12.12-5.4-25.53-6.51l-29.01-2.39 1.44-19.46ZM43.78 167.09s-.87 4.78.87 6.73c1.73 1.94 29 14.97 32.25 15.63 3.25.65 9.09-2.18 12.77-.22 3.68 1.95 4.77 6.07.44 6.72 0 0-.87 5.43-7.58 1.07-1.51 2.38-4.33 3.26-7.36-.65-4.55-.22-41.74-1.1-56.5-13.24.55.89.99 1.84 1.32 2.83.26 2.05-2.04.7-2.62 0a17.32 17.32 0 0 1-2.81-5.85s.64 5.2-.87 3.9c-1.52-1.3-2.6-7.8-.21-11.93 2.21-3.84 9.32-6.3 8.53-11.46-.22-1.49-.94-2.85-1.59-4.22-3.71-7.97-4.31-17.07-3.5-25.78 0 0-.43 7.38-1.51 7.17-1.09-.22.43-13.46.43-13.46s-1.06 6.51-2.17 4.56c-1.1-1.95 6.37-26.2 20.15-36.76 13.8-10.56 20.53 59.33 20.53 59.33s-9.92 13.02-10.57 15.63Z" fill="#FF642D"/>
    <path d="M82.03 193.77s2.33 1.06.6 4.52M89.02 191.85s2.43 1.43 1.28 5.16M164.69 186.11s3.11 1.06 1.06 5.47M171.05 182.92s2.65.27 2.61 4.33" stroke="#171A22" stroke-width="1.8" stroke-linecap="round" stroke-linejoin="round"/>
    <path d="M88.06 188.69s13.2 1.3 15.8-4.34c2.6-5.64 3.47-16.93 3.03-20.62-.44-3.69-2.6-6.08-7.58-7.6-4.98-1.52-12.56 1.74-12.56 1.74l-11.9-1.74v-21.7s-9.55 2.6-18.83 11.5c-9.29 8.9-12.56 17.58-12.78 21.7a9.9 9.9 0 0 0 2.6 6.95l31.2 9.1 11.02 5Z" fill="#fff"/>
    <path d="M76.94 156.95s6.68-.45 11.45.36c0 0 7.19-17.07 20.82-20.33" stroke="#171A22" stroke-width="1.8" stroke-linecap="round" stroke-linejoin="round"/>
    <path d="M75.19 134.43s-6.93 8.03-9.74 12.91c-2.82 4.89-4.33 9.88-3.58 10.31.75.44 3.71 0 8.66-.76 3.46-.53 5.5-.4 6.47-.65-.04.12.08-.02 0 0 .66-1.78-2.52-13.89-1.81-21.81Z" fill="#171A22"/>
    <path d="M77 156.24c-.97.25-3 .12-6.47.65-4.95.76-7.9 1.2-8.66.76-.75-.43.76-5.42 3.58-10.3 2.81-4.9 9.74-12.92 9.74-12.92-.71 7.92 2.47 20.03 1.81 21.81Zm0 0c.08-.02-.04.12 0 0Z" stroke="#171A22" stroke-width="1.8" stroke-linecap="round" stroke-linejoin="round"/>
    <path d="M106.98 162.6s-1.33-6.8-.76-12.6c.5-4.44 1.51-8.81 3.02-13.02 0 0-3.02 2.17-6.6 7.7-3.57 5.54-4.08 13.45-4.08 13.45 1.1.3 6.4 1.53 8.42 4.48Z" fill="#171A22" stroke="#171A22" stroke-width="1.8" stroke-linecap="round" stroke-linejoin="round"/>
    <path d="M89.1 183.5c.07-.14 2.2.15 4.97 0a13.6 13.6 0 0 0 7.2-2.37c3.1-2.21 3.38-7.84 3.18-11.51-.27-4.52-2.43-5.99-6.58-7.21a67.98 67.98 0 0 0-16.43-2.45c-5.5-.12-10.98.59-16.27 2.1-3.71 1.02-8.08 3.5-9.4 7.38-2.08 6.18 3.32 10.22 8.5 12.07 2.8 1 5.72 1.59 8.69 1.76.99.06 3.87.11 4.3.06.59-.07 1 2.3 3.19 1.7 2.38-.65 3.14-1.2 3.14-1.2s3.54 3.66 5.5-.32Z" fill="#FF642D"/>
    <path d="M83.93 183.14a4.1 4.1 0 0 0 2.46 2.1c1.88.57 3.03-1.02 3.32-2.32" stroke="#171A22" stroke-width="1.8" stroke-linecap="round" stroke-linejoin="round"/>
    <path d="m83.53 180.17-3.41-3 7.25.43-3.84 2.57Z" fill="#171A22" stroke="#171A22" stroke-width="1.8" stroke-linecap="round" stroke-linejoin="round"/>
    <path d="M83.64 180.37v2.88a3.82 3.82 0 0 1-2.45 1.8c-3.61.87-3.61-2.6-3.61-2.6" stroke="#171A22" stroke-width="1.8" stroke-linecap="round" stroke-linejoin="round"/>
    <path d="M70.42 178.75a7.48 7.48 0 1 0-.02-14.95 7.48 7.48 0 0 0 .02 14.95Z" fill="#171A22" stroke="#fff" stroke-width="1.8" stroke-linecap="round" stroke-linejoin="round"/>
    <path d="M73.43 169.5a2.22 2.22 0 1 0 0-4.44 2.22 2.22 0 0 0 0 4.44ZM74.75 173.41a.99.99 0 1 0 0-1.97.99.99 0 0 0 0 1.97Z" fill="#fff"/>
    <path d="M67.26 176.57a6.68 6.68 0 0 1-2.46-8.32" fill="#171A22"/>
    <path d="M67.26 176.57a6.68 6.68 0 0 1-2.46-8.32" stroke="#FF642D" stroke-width="1.8" stroke-linecap="round" stroke-linejoin="round"/>
    <path d="M94.58 179.39a7.48 7.48 0 1 0-.02-14.95 7.48 7.48 0 0 0 .02 14.95Z" fill="#171A22" stroke="#fff" stroke-width="1.8" stroke-linecap="round" stroke-linejoin="round"/>
    <path d="M96.32 169.5a2.22 2.22 0 1 0 0-4.44 2.22 2.22 0 0 0 0 4.44ZM99.6 173.52a1.04 1.04 0 1 0 0-2.08 1.04 1.04 0 0 0 0 2.08Z" fill="#fff"/>
    <path d="M91.42 177.83a6.68 6.68 0 0 1-2.46-8.3" fill="#171A22"/>
    <path d="M91.42 177.83a6.68 6.68 0 0 1-2.46-8.3" stroke="#FF642D" stroke-width="1.8" stroke-linecap="round" stroke-linejoin="round"/>
    <path d="M76.76 156.76c-3.28.15-11.33 1.12-13.17 1.34" stroke="#171A22" stroke-width="1.8" stroke-linecap="round" stroke-linejoin="round"/>
  </g>
  <defs>
    <clipPath id="a">
      <path fill="#fff" d="M0 0h260v260H0z"/>
    </clipPath>
  </defs>
</svg>
