<svg width="260" height="260" viewBox="0 0 260 260" fill="none" xmlns="http://www.w3.org/2000/svg">
  <path d="m93.15 196.62-13.62 3.45 3.66 40.18 39.39-3.4h102.06l16.5 2.49-37.28-61.64-110.7 18.92Z" fill="#B780FF" stroke="#B780FF" stroke-linecap="round" stroke-linejoin="round"/>
  <path d="M128.26 21.55v-6.62a2.48 2.48 0 0 0-2.74-2.47 109.99 109.99 0 0 0-97.36 109.26h-6.68a2.48 2.48 0 0 0-2.47 2.74 109.97 109.97 0 0 0 109.25 97.42v6.64a2.46 2.46 0 0 0 1.7 2.36c.34.1.69.14 1.03.1a109.98 109.98 0 0 0 97.43-109.26h6.64a2.47 2.47 0 0 0 2.47-2.73 109.98 109.98 0 0 0-109.27-97.44Z" fill="#B780FF"/>
  <path d="M128.26 21.55v-6.62a2.48 2.48 0 0 0-2.74-2.47 109.99 109.99 0 0 0-97.36 109.26h-6.68a2.48 2.48 0 0 0-2.47 2.74 109.97 109.97 0 0 0 109.25 97.42v6.64a2.46 2.46 0 0 0 1.7 2.36c.34.1.69.14 1.03.1a109.98 109.98 0 0 0 97.43-109.26h6.64a2.47 2.47 0 0 0 2.47-2.73 109.98 109.98 0 0 0-109.27-97.44" stroke="#fff" stroke-miterlimit="10"/>
  <path d="m167.75 117.45-33.5-55.88-65.33 22.14 3.46 38.01M73.61 135.21l5.16 64.92" stroke="#fff" stroke-linecap="round" stroke-linejoin="round"/>
  <path d="M104.64 81.68c18.04-6.11 31.3-15.12 29.6-20.11-1.7-5-17.7-4.1-35.74 2.02-18.04 6.11-31.3 15.12-29.6 20.12 1.7 5 17.7 4.09 35.73-2.03Z" fill="#fff"/>
  <path d="M103.24 77.53c37.12-12.57 63.73-33.04 59.44-45.71-4.3-12.67-37.87-12.75-74.99-.17S23.96 64.7 28.25 77.37c4.3 12.67 37.87 12.74 75 .16Z" fill="#000" stroke="#000" stroke-linecap="round" stroke-linejoin="round"/>
  <path d="M101.86 73.47C138.98 60.9 165.91 41.33 162 29.8c-3.91-11.55-37.18-10.71-74.3 1.87C50.57 44.24 23.65 63.8 27.56 75.34c3.92 11.55 37.18 10.71 74.3-1.87Z" fill="#fff" stroke="#B780FF" stroke-linecap="round" stroke-linejoin="round"/>
  <path d="m95.18 53.71 4.97 14.7M53.23 55.88l-12.8 8.76M69.93 59.7l-4.08 14.96M129.8 29.94l15.48-.83M118.86 43.13l12.33 9.4" stroke="#B780FF" stroke-linecap="round" stroke-linejoin="round"/>
  <path d="m123.3 21.03-7.14 3.92c-7.7.2-17.93 2.17-28.75 5.83-12.6 4.28-23.17 9.89-29.2 15.07l-5.28-1.22s-.14 10 .07 10.6c2.13 6.32 21.02 5.66 42.17-1.5 21.14-7.17 36.54-18.12 34.4-24.45-.14-.45-6.27-8.25-6.27-8.25Z" fill="#B780FF" stroke="#B780FF" stroke-linecap="round" stroke-linejoin="round"/>
  <path d="M91.26 42.23c19.43-6.58 33.8-15.97 32.1-20.96-1.69-5-18.8-3.71-38.23 2.87-19.42 6.58-33.8 15.97-32.1 20.96 1.7 5 18.81 3.71 38.23-2.87Z" fill="#fff" stroke="#B780FF" stroke-linecap="round" stroke-linejoin="round"/>
  <path d="M57.88 43.21c1.96 2.65 15.94.54 32.07-4.92 16.13-5.46 28.51-12.28 28.46-15.64a32.79 32.79 0 0 0-55.54-.55 32.78 32.78 0 0 0-5 21.11Z" fill="#000" stroke="#000" stroke-linecap="round" stroke-linejoin="round"/>
  <path d="M131.5 101.73a6.61 6.61 0 1 0 0-13.22 6.61 6.61 0 0 0 0 13.22ZM91.12 113.5a3.14 3.14 0 1 0 0-6.27 3.14 3.14 0 0 0 0 6.27ZM95.22 140.75a2.07 2.07 0 1 0 0-4.13 2.07 2.07 0 0 0 0 4.13ZM138.2 130.53a2.35 2.35 0 1 0 0-4.7 2.35 2.35 0 0 0 0 4.7ZM131.6 81.12a2.47 2.47 0 1 0 0-4.95 2.47 2.47 0 0 0 0 4.95ZM143.47 108.31a3.5 3.5 0 1 0 0-7 3.5 3.5 0 0 0 0 7Z" fill="#fff"/>
  <path d="M92.65 49.45a2.3 2.3 0 1 0 0-4.59 2.3 2.3 0 0 0 0 4.59ZM71.08 54.56a2.3 2.3 0 1 0 0-4.6 2.3 2.3 0 0 0 0 4.6ZM52.36 48.45a2.3 2.3 0 0 1 1.54 3.95 2.3 2.3 0 0 1-1.63.63M128.58 27.19a2.3 2.3 0 0 1-3.65-2.16c.08-.6.4-1.15.9-1.51M114.54 39.82a2.3 2.3 0 1 0 0-4.58 2.3 2.3 0 0 0 0 4.58Z" stroke="#fff" stroke-linecap="round" stroke-linejoin="round"/>
  <path d="M68.46 40.22C70.7 19.68 84.8 12.54 91.6 10.4c-4.8-.43-9.6.46-13.92 2.58-11.89 6.16-16.5 18.62-17.73 27.63.01 1.63 7.98.78 8.52-.39ZM107.31 15.68c.34 5.9-14.42 17.1-18.83 19.71 5.76-1.48 24.67-10.49 25.03-13.46-.29-.89-4.95-5.95-6.2-6.25Z" fill="#B780FF"/>
  <path d="M162.26 253c43.67 0 79.08-5.71 79.08-12.75 0-7.05-35.4-12.75-79.08-12.75-43.66 0-79.07 5.7-79.07 12.75 0 7.04 35.4 12.75 79.07 12.75Z" fill="#fff"/>
  <path d="M103.35 243.03c-.18-1.78.14-3.44 1.04-3.84 1.05-.49 3.28.85 4.74 3.84-.05-.68-.63-7.5 1.22-8.07 1.4-.44 4 2.88 6.45 8.07M146.82 241.52c2.57-2.76 3.59-3.13 4.03-2.88.44.25.49.93 0 2.88a2.9 2.9 0 0 1 1.7-1.6c.41-.12.85-.14 1.28-.06M195.74 236.85c.61-.8 3.57-4.52 4.74-3.92.23.11.86.63.19 3.92 3.21-4.52 5.21-6.6 5.88-6.26.67.35.31 2.2-.77 5.7a7.86 7.86 0 0 1 5.1-3.38" stroke="#B780FF" stroke-linecap="round" stroke-linejoin="round"/>
  <path d="M162.26 253c43.67 0 79.08-5.71 79.08-12.75 0-7.05-35.4-12.75-79.08-12.75-43.66 0-79.07 5.7-79.07 12.75 0 7.04 35.4 12.75 79.07 12.75Z" stroke="#B780FF" stroke-linecap="round" stroke-linejoin="round"/>
  <path d="M175.55 187.1c-1.1.5-2.29.81-3.5.93.84 4.77.7 15.06.18 19.76a.41.41 0 0 0 .14.33c.05.04.1.07.17.09a.4.4 0 0 0 .18 0l4.17-.94c.1-.03.2-.08.28-.14a.63.63 0 0 0 .17-.26c1.86-6.6 3.09-13.34 3.68-20.17.06-1.62.16-3.48.28-5.27-1.2 2.5-3.24 4.5-5.75 5.67Z" fill="#fff"/>
  <path d="m172.7 208.22 4.16-.94a.61.61 0 0 0 .45-.4c.22-.65.47-1.5.72-2.51l-5.65 1.04c-.05.88-.13 1.67-.2 2.35a.4.4 0 0 0 .51.47Z" fill="#000"/>
  <path d="M179.57 184.05c2.09.95 3.32 1.14 3.72.59.4-.55.2-1.43-1.88-3.42" fill="#B780FF"/>
  <path d="M179.57 184.05c2.09.95 3.32 1.14 3.72.59.4-.55.2-1.43-1.88-3.42" stroke="#B780FF" stroke-linecap="round" stroke-linejoin="round"/>
  <path d="M179.18 184.53c2.08 1.1 3.76 1.1 4.28.14.34-.63 0-1.46-2.08-3.45" stroke="#fff" stroke-linecap="round" stroke-linejoin="round"/>
  <path d="M174.14 187.61c1.63 1.98 2.48 2.5 3.07 2.16.58-.34.63-1.21-.08-3.57" fill="#B780FF"/>
  <path d="M174.14 187.61c1.63 1.98 2.48 2.5 3.07 2.16.58-.34.63-1.21-.08-3.57" stroke="#B780FF" stroke-linecap="round" stroke-linejoin="round"/>
  <path d="M171.01 188.08c1.56 0 3.1-.34 4.52-.98 4.64-2.09 6.39-7.16 6.64-7.91M163.52 185.8c1.26.82 2.64 1.44 4.1 1.82" stroke="#fff" stroke-linecap="round" stroke-linejoin="round"/>
  <path d="M167.61 187.62c0 2.56.29 3.7.95 3.8.67.12 1.46-1.24 2.28-3.38l.45-1.3" fill="#B780FF"/>
  <path d="M167.61 187.62c0 2.56.29 3.7.95 3.8.67.12 1.46-1.24 2.28-3.38l.45-1.3" stroke="#fff" stroke-linecap="round" stroke-linejoin="round"/>
  <path d="M167.02 184.65a15.28 15.28 0 0 0 8.78-.96.32.32 0 0 1 .12-.04.31.31 0 0 1 .24.1.3.3 0 0 1 .07.3.31.31 0 0 1-.12.16 9.2 9.2 0 0 1-4.5 1.6c-1.6.16-3.21-.03-4.73-.58a.32.32 0 0 1-.17-.4.31.31 0 0 1 .31-.18Z" fill="#fff"/>
  <path d="M100.62 164.82a6.8 6.8 0 0 0 4.08 4.63 6.82 6.82 0 0 0 8.13-2.64c-2.46.43-7.61-.68-12.21-2Z" fill="#000"/>
  <path d="M83.49 165.01c-.6-.2-4.17-1.52-9.34 3.22.87.83 1.95 1.4 3.13 1.62.9.16 1.84.1 2.72-.15" fill="#fff"/>
  <path d="M83.49 165.01c-.6-.2-4.17-1.52-9.34 3.22.87.83 1.95 1.4 3.13 1.62.9.16 1.84.1 2.72-.15" stroke="#fff" stroke-linecap="round" stroke-linejoin="round"/>
  <path d="M73.62 168.4c3.6.54 6.69-.7 7.8-.9" stroke="#B780FF" stroke-linecap="round" stroke-linejoin="round"/>
  <path d="M93.06 162.48c-2.09 0-5.29 0-8.1 1.5-4.87 2.64-5.56 9.52-12 14.02 2.02 2.62 2.4 5.54 4.4 8.18 9.44 1.8 13.27-2.37 16.84-1.22 4.23 1.38 12.85 15.07 25.58 16.47 19.15 6.64 46.65-19.06 53.98-22.58 2.16-8.34-1.44-18.05.72-26.42a18.26 18.26 0 0 0-10.59-1.77c-9.52 1.04-20.27 7.57-38.22 12.43a229.77 229.77 0 0 0-12.84 3.72c-4.13.7-15.85-3-19.77-4.33Z" fill="#fff"/>
  <path d="M171.01 151.34c1.55.36 3.06.88 4.5 1.55a30.4 30.4 0 0 1 9.38 8.93 47.1 47.1 0 0 1 3.68 6.11l2.14.98a1.78 1.78 0 0 1 1.98.77 101.98 101.98 0 0 1 8.92 18.74.7.7 0 0 1-.2.75c-.55.47-1.37 1.32-1.59 1.44-1.34.73-.36-.46-2.48.7A123.27 123.27 0 0 0 186 178.53a19.98 19.98 0 0 1-9.46 1.64c-9.3-.73-14.68-8.09-15.53-9.3" fill="#fff"/>
  <path d="M122.47 163.95c5.6 7.77 10.32 9.65 13.69 9.81 2.58.14 3.8-.76 8.34-.38 4.17.34 5.8 1.33 8.53.34.55-.2 3.43-1.25 4.4-3.77.7-1.87-.33-2.74.38-4.61.86-2.25 2.88-2.39 4.12-4.02 1.24-1.62 1.67-4.33-.89-10.2-8.86 1.83-19.18 7.59-35.36 11.97l-3.2.86ZM199.05 192.51c.87-1.04 1.67-2.23 2.52-3.36a.68.68 0 0 0 .09-.63 75.9 75.9 0 0 0-.88-2.4l-3.86 4.6 1.35 1.78a.48.48 0 0 0 .39.2.5.5 0 0 0 .4-.19ZM186.5 174.95c-1.58-.51-3.03 1.04-5.04.13-1.55-.67-1.3-1.83-2.7-2.36-2.31-.89-5.34 1.38-6.79 2.95-.9 1.14-1.66 2.4-2.23 3.74 9.63 2.24 14.32 0 16.28-.87 1.14 1.11 2.31 2.3 3.5 3.55-.5-5.12-1.82-6.73-3.01-7.14ZM182.28 163.3c1.6 1.27 3.73 2.86 6.31 4.63a47.1 47.1 0 0 0-3.68-6.1 30.42 30.42 0 0 0-9.38-8.94c-.3-.15-.66-.3-1.04-.46l.05.18c.17 1.32.55 2.61 1.11 3.82.84 1.76 2.06 3.29 6.63 6.87Z" fill="#000"/>
  <path d="M175.33 180.73c-7.64-.53-13.1-5.78-14.05-6.7" stroke="#B780FF" stroke-linecap="round" stroke-linejoin="round"/>
  <path d="M111.16 173.34A316.77 316.77 0 0 0 114.7 205l5.33 23.5a.37.37 0 0 0 .55.26l4.65-2.59a.67.67 0 0 0 .34-.6l-.8-21.67c2.1-6.16 4.14-12.33 6.16-18.5" fill="#fff"/>
  <path d="m120.57 228.75 4.65-2.59a.67.67 0 0 0 .34-.6l-.11-3.29-6.17 2.95c.25 1.04.5 2.2.74 3.28.02.05.04.1.08.15a.38.38 0 0 0 .3.14c.06 0 .11-.02.17-.04Z" fill="#000"/>
  <path d="m102.48 192.2-5.2 7.54a8.15 8.15 0 0 0-1.45 3.97l-1.49 17.49a.4.4 0 0 0 .3.41.4.4 0 0 0 .18 0l4.58-.95a.73.73 0 0 0 .56-.53l3.9-15.34 7.48-6.12a43.65 43.65 0 0 1-8.86-6.47Z" fill="#fff"/>
  <path d="m94.6 218.02-.29 3.19a.4.4 0 0 0 .3.41.4.4 0 0 0 .18 0l4.58-.94a.73.73 0 0 0 .56-.54l.77-3.04-6.1.92ZM134.63 197.92a12.68 12.68 0 0 0-6.35-4.4h-.06l-2.98 8.94c4.56.13 9.1-.68 13.33-2.36a7.2 7.2 0 0 1-3.94-2.18ZM129.9 184.9c-.72-2.57-2.95-3.5-5.2-5.02-3.7-2.55-3.08-8.03-7.8-8.85-1.15-.2-5.33-.1-5.73 3.13a321.55 321.55 0 0 0 2.7 25.78 29.4 29.4 0 0 0 6.1-4.1c3.55-3.12 5.22-6.16 7.3-5.77.7.2 1.3.66 1.66 1.28l1.04-3.22a5.08 5.08 0 0 0-.06-3.23Z" fill="#000"/>
  <path d="M125.97 201.97a199.34 199.34 0 0 0 3.75-14.55" stroke="#000" stroke-linecap="round" stroke-linejoin="round"/>
  <path d="M140.01 186.21c-1.04-.9-3.01-1.33-3.67-.52-.65.81 0 2.58 1.18 3.36 1.18.78 3.25.55 3.66-.39.4-.94-.52-1.91-1.17-2.45ZM92.05 174.8c1.52-2.12 1.27-4.9-.56-6.21-1.83-1.31-4.55-.66-6.06 1.45-1.52 2.12-1.27 4.9.56 6.2 1.83 1.32 4.54.67 6.06-1.45Z" fill="#000"/>
  <path d="M90.65 172.02c-.7 1.4-2.09 1.77-2.82 1.31a1.9 1.9 0 0 1-.5-1.93" fill="#000"/>
  <path d="M90.65 172.02c-.7 1.4-2.09 1.77-2.82 1.31a1.9 1.9 0 0 1-.5-1.93" stroke="#B780FF" stroke-linecap="round" stroke-linejoin="round"/>
  <path d="M83.49 165.01a6.25 6.25 0 0 1-1.97-4.68c.04-1.12.4-2.2 1.04-3.13a.3.3 0 0 1 .32-.13.3.3 0 0 1 .23.26 8.75 8.75 0 0 0 3.8 5.82" stroke="#fff" stroke-linecap="round" stroke-linejoin="round"/>
  <path d="M93.96 164.57c6.48-5.13 12.36-4.17 12.88-3.13.52 1.04-.99 5.55-7.7 7.53" fill="#fff"/>
  <path d="M96.85 166.37c4.98-2.63 7.15-2.6 7.3-2.21.2.63-1.75 2.37-5.26 3.67" stroke="#B780FF" stroke-linecap="round" stroke-linejoin="round"/>
  <path d="M91.7 163.92a10.9 10.9 0 0 0 5.42-8.46.32.32 0 0 1 .23-.27.33.33 0 0 1 .34.11 7.47 7.47 0 0 1 1.44 4.25 7.64 7.64 0 0 1-2.2 5.42" stroke="#fff" stroke-linecap="round" stroke-linejoin="round"/>
  <path d="M176.03 154.96a56.87 56.87 0 0 1 7.07-13.17 36.03 36.03 0 0 1 5.12-5.65l2.74-2.48c.81-.72 1.53-1.54 2.15-2.44l3.77 3.6a26.42 26.42 0 0 1-3.44 2.2c-1.04.63-2.08 1.22-3.13 1.85a22.8 22.8 0 0 0-5.2 4.53 30.93 30.93 0 0 0-6.54 12.39l-2.54-.83Z" fill="#000"/>
  <path d="M101.28 191.7a44.87 44.87 0 0 0 10.33 7.65" stroke="#B780FF" stroke-linecap="round" stroke-linejoin="round"/>
  <path d="M75.37 177.13c1.8-.49 3.68-.58 5.52-.26 1.94.3 4.71 2.37 4.72 4.5 0 2.7-3.42 4.58-7.6 4.8-6.94.32-7.05-5.47-6.12-7.3.3-.54 1.3-1.22 3.48-1.74Z" fill="#B780FF"/>
  <path d="M92.54 182.7c0 2.72-10.09 4.07-14.6 3.84-7.36-.37-7.15-5.93-6.08-7.64.88-1.4 2.51-2.26 4.7-2.77M75.05 181.63l-1.8-1.08M81.41 179.07l-1.1 1.54" stroke="#fff" stroke-linecap="round" stroke-linejoin="round"/>
  <path d="M92.8 162.14c-2.08 0-5.28 0-8.1 1.5-4.86 2.65-5.17 10.99-11 12.51" stroke="#B780FF" stroke-linecap="round" stroke-linejoin="round"/>
  <path d="M81.52 160.22a4.98 4.98 0 0 0 2.25-.74M82.07 162.14a4.75 4.75 0 0 0 2.24-.73M96.49 158.24a5.47 5.47 0 0 0 2.35.43M96.06 160.42c.38.16.77.28 1.18.35.5.07 1 .1 1.5.07" stroke="#fff" stroke-linecap="round" stroke-linejoin="round"/>
  <path d="M93.96 164.57c7.3-5.9 12.8-4.49 13.33-3.52.53.97-.94 5.83-7.3 8.08" stroke="#B780FF" stroke-linecap="round" stroke-linejoin="round"/>
  <path d="m201.59 172.58-27.4-44.4" stroke="#fff" stroke-linecap="round" stroke-linejoin="round"/>
  <path d="M87.7 152.89a1.25 1.25 0 1 0 .01-2.5 1.25 1.25 0 0 0 0 2.5ZM137 87.17a1.63 1.63 0 1 0 0-3.25 1.63 1.63 0 0 0 0 3.25Z" fill="#fff"/>
</svg>
