<svg width="80" height="80" viewBox="0 0 80 80" fill="none" xmlns="http://www.w3.org/2000/svg"><path d="M14.905 65.163c6.418 6.424 15.304 10.46 25.177 10.46v2.471c0 .494.412.906.905.906C61.804 78.506 78.507 61.786 79 40.947a.914.914 0 0 0-.905-.906h-2.468C75.627 20.356 59.665 4.377 40 4.377V1.906A.914.914 0 0 0 39.095 1c-10.038.247-19.17 4.283-26 10.79a.896.896 0 0 0 0 1.235l1.728 1.73c-6.418 6.425-10.45 15.32-10.45 25.204H1.905a.914.914 0 0 0-.905.906c.247 10.048 4.278 19.191 10.778 26.027.33.33.905.33 1.235 0l1.892-1.73Z" fill="#E0E1E9"/><path d="M65.925 57.607s.086-.054.119-.087l6.495-4.323-3.134-1.696-3.134.756-8.3-31.677a5.705 5.705 0 0 0-6.68-4.15l-39.588 8.073-1.394-3.123-3.415 5.88a6.51 6.51 0 0 0-.216.367v.021a5.637 5.637 0 0 0-.454 4.248l10.44 36.648a2.587 2.587 0 0 0 3.177 1.794l45.273-12.342a2.94 2.94 0 0 0 .746-.346l.054-.032.01-.011Z" fill="#E0E1E9" stroke="#6C6E79" stroke-width=".7" stroke-linecap="round" stroke-linejoin="round"/><path d="M71.759 53.554 24.087 66.555a2.734 2.734 0 0 1-3.35-1.891L9.744 26.07c-.962-3.372 1.157-6.852 4.593-7.554l42.874-8.744c3.134-.637 6.225 1.286 7.025 4.377l9.445 36.076a2.73 2.73 0 0 1-1.923 3.329Z" fill="#fff"/><path d="M65.438 18.818 11.054 30.761l-1.34-4.69c-.962-3.373 1.156-6.853 4.593-7.555l42.885-8.744c3.134-.637 6.225 1.286 7.024 4.377l1.222 4.67Z" fill="#6C6E79"/><path d="M18.39 23.419a1.873 1.873 0 0 1-1.415 2.366c-1.092.238-2.227-.454-2.53-1.523a1.868 1.868 0 0 1 1.427-2.367c1.092-.227 2.216.464 2.519 1.534v-.01Z" fill="#fff"/><path d="M25.372 21.938c.292 1.06-.324 2.108-1.394 2.335-1.07.227-2.184-.454-2.475-1.524-.292-1.07.324-2.118 1.405-2.345 1.08-.227 2.172.464 2.464 1.523v.011Z" fill="#E0E1E9"/><path d="M11.087 30.842s.324-3.155.605-6.387l-1.372-3.08-3.416 5.88a6.504 6.504 0 0 0-.216.367v.021a5.637 5.637 0 0 0-.454 4.248l1.395 4.906 3.458-5.965v.01Z" fill="#6C6E79"/><path d="M71.759 53.554 24.087 66.555a2.734 2.734 0 0 1-3.35-1.891L9.744 26.07c-.962-3.372 1.157-6.852 4.593-7.554l42.874-8.744c3.134-.637 6.225 1.286 7.025 4.377l9.445 36.076a2.73 2.73 0 0 1-1.923 3.329v0Z" stroke="#6C6E79" stroke-width=".7" stroke-linecap="round" stroke-linejoin="round"/><path d="m50.014 34.399 14.05 3.653c.703-2.194.81-4.56.173-6.895-1.891-6.982-9.716-11.262-17.778-9.684L50.002 34.4h.011Z" fill="#E0E1E9" stroke="#6C6E79" stroke-width=".7" stroke-linecap="round" stroke-linejoin="round"/><path d="m46.459 21.478-2.367 3.156 3.556 12.926 2.367-3.156-3.556-12.926Z" fill="#6C6E79" stroke="#6C6E79" stroke-width=".7" stroke-linecap="round" stroke-linejoin="round"/><path d="m64.066 38.054-2.367 3.156-14.05-3.653 2.367-3.156 14.05 3.653ZM55.582 51.398c.237-.291.453-.583.67-.886l2.118-2.799L46 43.5l-4.447-5.308-2.107-7.663a17.044 17.044 0 0 0-6.139 2.994l-.497-.281-1.891 2.572c-.378.443-.714.919-1.027 1.394l-.065.087v.032c-1.913 2.994-2.605 6.571-1.621 10.116 2.064 7.414 10.646 11.553 18.967 9.305 3.502-.94 6.387-2.864 8.398-5.306l.021-.033-.01-.01Z" fill="#6C6E79" stroke="#6C6E79" stroke-width=".7" stroke-linecap="round" stroke-linejoin="round"/><path d="M45.509 40.804 41.812 27.37c-8.192 2.107-13.282 9.608-11.25 16.903 2.032 7.295 10.645 11.553 18.967 9.305 5.144-1.383 8.981-4.885 10.624-9.046l-14.644-3.728Z" fill="#E0E1E9" stroke="#6C6E79" stroke-width=".7" stroke-linecap="round" stroke-linejoin="round"/><path d="m46.654 26.846 3.953-5.757M47.7 33.051l7.589-11.05M51.31 35.526l7.84-11.419M54.92 38.001l7.392-10.767M64.386 31.949l-5.098 7.425" stroke="#6C6E79" stroke-width=".7" stroke-miterlimit="10"/><path d="M57.918 22.32c-3.469-1.643-7.9-1.996-11.715-1.283l-3.253 3.664" stroke="#fff" stroke-width=".7" stroke-linecap="round" stroke-linejoin="round"/></svg>