<svg width="80" height="80" viewBox="0 0 80 80" fill="none" xmlns="http://www.w3.org/2000/svg"><path d="M72.024 26.685a48.67 48.67 0 0 0-1.78-16.191 1.055 1.055 0 0 0-.738-.738 48.39 48.39 0 0 0-16.19-1.78l-4.2-4.2c-5.036-5.035-13.196-5.035-18.232 0l-4.2 4.2a48.397 48.397 0 0 0-16.19 1.79c-.358.098-.64.38-.738.739a48.39 48.39 0 0 0-1.78 16.19l-4.2 4.2c-5.035 5.036-5.035 13.196 0 18.231l4.2 4.2a48.575 48.575 0 0 0 1.78 16.18c.098.358.38.64.738.738a48.39 48.39 0 0 0 16.19 1.78l4.2 4.2c5.036 5.035 13.196 5.035 18.232 0l4.2-4.2a48.67 48.67 0 0 0 16.19-1.78c.358-.097.64-.38.738-.738a48.39 48.39 0 0 0 1.78-16.19l4.2-4.2c5.035-5.036 5.035-13.196 0-18.232l-4.2-4.2Z" fill="#E0E1E9"/><path d="M66.16 57.374s.087-.054.12-.087l6.521-4.323-3.147-1.697-3.147.756-8.334-31.681a5.73 5.73 0 0 0-6.707-4.15l-39.74 8.063-1.4-3.124-3.428 5.88a6.507 6.507 0 0 0-.217.368v.021a5.618 5.618 0 0 0-.456 4.248l10.472 36.654a2.599 2.599 0 0 0 3.19 1.794l45.459-12.344c.271-.076.52-.205.749-.346l.054-.032h.01Z" fill="#E0E1E9" stroke="#6C6E79" stroke-width=".7" stroke-linecap="round" stroke-linejoin="round"/><path d="M72.02 53.31 24.152 66.313a2.747 2.747 0 0 1-3.364-1.892L9.752 25.822c-.966-3.372 1.16-6.853 4.612-7.556l43.05-8.744c3.146-.638 6.25 1.286 7.053 4.377L73.95 49.98a2.729 2.729 0 0 1-1.931 3.33Z" fill="#fff" stroke="#6C6E79" stroke-width=".7" stroke-linecap="round" stroke-linejoin="round"/><path d="M65.682 18.569 11.076 30.513 9.73 25.822c-.966-3.372 1.161-6.853 4.612-7.556l43.05-8.733c3.146-.638 6.25 1.286 7.053 4.377l1.226 4.67.011-.011Z" fill="#6C6E79"/><path d="M18.433 23.174a1.873 1.873 0 0 1-1.421 2.367c-1.097.238-2.236-.454-2.54-1.524a1.868 1.868 0 0 1 1.433-2.367c1.096-.227 2.224.464 2.528 1.535v-.011Z" fill="#fff"/><path d="M25.443 21.693c.293 1.06-.325 2.108-1.4 2.335-1.074.227-2.192-.454-2.485-1.524-.293-1.07.326-2.12 1.411-2.346 1.085-.227 2.181.465 2.474 1.524v.01Z" fill="#E0E1E9"/><path d="M11.097 30.6s.326-3.157.608-6.389l-1.378-3.08-3.43 5.88a6.507 6.507 0 0 0-.216.367v.022a5.619 5.619 0 0 0-.456 4.248l1.4 4.908 3.472-5.967v.01Z" fill="#6C6E79"/><path d="M33.658 33.852a14.135 14.135 0 0 0-1.671 12.35c.217.672.488 1.324.814 1.953a13.22 13.22 0 0 0 1.291 2.073 14.156 14.156 0 0 0 3.473 3.288c6.5 4.351 15.312 2.615 19.663-3.896 4.352-6.5 2.616-15.312-3.895-19.664a14.152 14.152 0 0 0-13.24-1.345 14.146 14.146 0 0 0-6.424 5.241h-.01Z" fill="#fff"/><path d="m52.693 39.159-7.26 2.582-3.31-8.28" stroke="#6C6E79" stroke-width="1.2" stroke-linecap="round" stroke-linejoin="round"/><path d="m40.528 51.92-6.447-2.463 2.301 6.272M31.738 44.65c-1.476-5.252.217-10.45 3.928-13.663" stroke="#6C6E79" stroke-width=".7" stroke-linecap="round" stroke-linejoin="round"/><path d="M36.48 30.336c1.476-1.085 3.223-1.877 5.176-2.29 7.564-1.584 15.388 3.256 17.483 10.798 2.094 7.531-2.312 14.943-9.854 16.56-5.806 1.248-11.774-1.291-15.203-5.958" stroke="#6C6E79" stroke-width=".7" stroke-linecap="round" stroke-linejoin="round"/></svg>