<svg width="260" height="260" viewBox="0 0 260 260" fill="none" xmlns="http://www.w3.org/2000/svg">
  <path d="M131.96 20.01C74.28 19.13 26.13 65.66 25.14 123.34a105 105 0 0 0 43.72 87.21 23.75 23.75 0 0 1 9.94 19.26v7.82a2.62 2.62 0 0 0 2.61 2.6h97.81a2.6 2.6 0 0 0 2.6-2.6v-7.82a23.9 23.9 0 0 1 10.03-19.32 105 105 0 0 0 43.66-85.3A105.19 105.19 0 0 0 131.96 20.01Z" fill="#FF788F"/>
  <path d="m253 165.94-188.97 55.3L7 197.06v-6.8l246-31.74v7.42Z" fill="#FF788F" stroke="#000" stroke-linecap="round" stroke-linejoin="round"/>
  <path d="m65.4 207.93-1.37 5.54v7.77L253 165.94v-7.42L65.4 207.93Z" fill="#000" stroke="#000" stroke-linecap="round" stroke-linejoin="round"/>
  <path d="M253 158.52 64.03 213.47 7 190.25l168.94-47.6L253 158.52Z" fill="#FF788F" stroke="#000" stroke-linecap="round" stroke-linejoin="round"/>
  <path d="M221.62 164.34c-1.9 2.51-7.8 4-16.78 4.67l-14.42-89.49c8.73-.6 14.15-2.2 16.79-4.67l14.41 89.49Z" fill="#000" stroke="#000" stroke-linecap="round" stroke-linejoin="round"/>
  <path d="m204.83 169.01-47.5-11.53-12.36-82.24 45.44 4.28 14.42 89.49Z" fill="#FF788F" stroke="#000" stroke-linecap="round" stroke-linejoin="round"/>
  <path d="m207.2 74.85-46.07-3.87c.6 1.95-6.57 3.28-16.16 4.26l45.46 4.28c8.37-.6 14.5-1.96 16.78-4.67Z" fill="#FF788F" stroke="#000" stroke-linecap="round" stroke-linejoin="round"/>
  <path d="M192.57 45.64v2.61" stroke="#fff" stroke-linecap="round" stroke-linejoin="round"/>
  <path d="M192.57 53.56V167.5" stroke="#fff" stroke-linecap="round" stroke-linejoin="round" stroke-dasharray="5.18 5.18"/>
  <path d="M192.57 170.16v2.61c-.69.54-1.42 1.03-2.19 1.44" stroke="#fff" stroke-linecap="round" stroke-linejoin="round"/>
  <path d="M185.58 176.3a113.35 113.35 0 0 1-17.82 4.32" stroke="#fff" stroke-linecap="round" stroke-linejoin="round" stroke-dasharray="5.13 5.13"/>
  <path d="m165.17 181.06-2.6.42v-2.63" stroke="#fff" stroke-linecap="round" stroke-linejoin="round"/>
  <path d="M162.57 173.5V58.73" stroke="#fff" stroke-linecap="round" stroke-linejoin="round" stroke-dasharray="5.22 5.22"/>
  <path d="M162.57 56.05v-2.62M89.92 158.54v2.62l2.52.7" stroke="#fff" stroke-linecap="round" stroke-linejoin="round"/>
  <path d="m97.64 163.32 59.8 16.72" stroke="#fff" stroke-linecap="round" stroke-linejoin="round" stroke-dasharray="5.28 5.28"/>
  <path d="m160.05 180.76 2.52.71v-2.62" stroke="#fff" stroke-linecap="round" stroke-linejoin="round"/>
  <path d="M162.57 173.5V58.73" stroke="#fff" stroke-linecap="round" stroke-linejoin="round" stroke-dasharray="5.22 5.22"/>
  <path d="M162.57 56.05v-2.62l-2.62-.15" stroke="#fff" stroke-linecap="round" stroke-linejoin="round"/>
  <path d="m154.77 53.02-60.89-2.36" stroke="#fff" stroke-linecap="round" stroke-linejoin="round" stroke-dasharray="5.08 5.08"/>
  <path d="M89.92 49.6v2.62" stroke="#fff" stroke-linecap="round" stroke-linejoin="round"/>
  <path d="M89.92 57.28v98.73" stroke="#fff" stroke-linecap="round" stroke-linejoin="round" stroke-dasharray="4.95 4.95"/>
  <path d="M146.32 94.95c0 19.86-20.34 16.47-20.34 27.72v2.96l-9.52-1.84v-3.6c0-15.97 19.2-13.92 19.2-26.42 0-6.97-4.88-11.24-11.24-11.96-7.26-.8-11.65 3.4-12.78 10.22l-8.68-3.3c1.94-11.33 10.17-17.8 21.74-16.78 12.11 1.1 21.62 9.73 21.62 23Zm-31.1 46.14c0-4.32 2.65-6.56 6.4-5.75 3.75.8 6.57 4.27 6.57 8.69 0 4.41-2.66 6.54-6.57 5.6a8.56 8.56 0 0 1-6.4-8.54Z" fill="#fff"/>
  <path d="M89.92 49.6c9.07-2 21.1-5.43 26.6-6.78" stroke="#fff" stroke-linecap="round" stroke-linejoin="round" stroke-dasharray="4.75 4.75"/>
  <path d="m116.52 42.83 2.63.1" stroke="#fff" stroke-linecap="round" stroke-linejoin="round"/>
  <path d="m124.59 43.12 62.63 2.32" stroke="#fff" stroke-linecap="round" stroke-linejoin="round" stroke-dasharray="5.33 5.33"/>
  <path d="m189.94 45.55 2.63.09" stroke="#fff" stroke-linecap="round" stroke-linejoin="round"/>
  <path d="M192.52 45.96c-4.84 1.6-18.4 5.73-29.95 7.5" stroke="#fff" stroke-linecap="round" stroke-linejoin="round" stroke-dasharray="5.14 5.14"/>
  <path d="m104.07 188.7-44.05 12.67 3.23-29.9 33.58-3.63 7.24 20.87Z" fill="#000" stroke="#FF788F" stroke-linecap="round" stroke-linejoin="round"/>
  <path d="m60.02 201.37 3.23-29.9-17.18-5.45-7.64 27.04 21.59 8.31Z" fill="#000" stroke="#FF788F" stroke-linecap="round" stroke-linejoin="round"/>
  <path d="m90.21 104.81-24.18-3.92a23.36 23.36 0 0 0-7.16.08c-15.44 2.53-28.02 19.47-28.02 37.83 0 14.06 7.37 24.88 17.77 28.03l21.93 6.95v-7.8l-4.28-.95c11.9-5.8 20.64-20.11 20.64-35.43 0-8.56-2.73-15.9-7.15-21.06l10.45-3.73Z" fill="#FF788F"/>
  <path d="m79.72 108.58 10.5-3.77-24.2-3.92a23.36 23.36 0 0 0-7.15.08c-7.07 1.16-13.53 5.33-18.47 11.24l32.1 6.43 10.49-5.34a26.27 26.27 0 0 0-3.27-4.72Z" fill="#fff"/>
  <path d="m90.21 104.81-24.18-3.92a23.36 23.36 0 0 0-7.16.08c-15.44 2.53-28.02 19.47-28.02 37.83 0 14.06 7.37 24.88 17.77 28.03l21.93 6.95v-7.8l-4.28-.95c11.9-5.8 20.64-20.11 20.64-35.43 0-8.56-2.73-15.9-7.15-21.06l10.45-3.73Z" stroke="#000" stroke-linecap="round" stroke-linejoin="round"/>
  <path d="M109.21 148.83c6.3-18.83-.75-38.17-15.75-43.19-15-5.02-32.28 6.17-38.59 25-6.3 18.82.76 38.16 15.76 43.18 15 5.02 32.28-6.17 38.58-25Z" fill="#FF788F" stroke="#000" stroke-linecap="round" stroke-linejoin="round"/>
  <path d="M105.79 147.68c5.5-16.45-.66-33.35-13.77-37.74-13.12-4.4-28.22 5.39-33.72 21.84-5.51 16.46.65 33.36 13.77 37.75 13.11 4.39 28.21-5.4 33.72-21.85Z" fill="#fff"/>
  <path d="M82.05 163.1v3.48M82.05 112.87v3.49M62.35 142.95l-2.95.48M104.69 136.03l-2.95.48" stroke="#FF788F" stroke-linecap="round" stroke-linejoin="round"/>
  <path d="m81.51 123.82-2.17 15.4a.66.66 0 0 0 .77.76l4.37-.7a.68.68 0 0 0 .56-.77l-2.19-14.69a.67.67 0 0 0-1.34 0Z" fill="#FF788F"/>
  <path d="m95.94 149.42-11.32-12.18a.68.68 0 0 0-1.08.11l-2.83 4.75a.68.68 0 0 0-.08.53.68.68 0 0 0 .34.42l14.16 7.42a.67.67 0 0 0 .84-.2.68.68 0 0 0-.03-.85Z" fill="#FF788F"/>
  <path d="M85.02 140.6c.66-1.97-.08-4-1.66-4.52-1.57-.53-3.38.64-4.04 2.62-.66 1.98.08 4 1.65 4.53 1.57.53 3.39-.65 4.05-2.62Z" fill="#000" stroke="#000" stroke-miterlimit="10"/>
  <path d="M86.03 140.94c.66-1.97-.08-4-1.65-4.53-1.58-.53-3.39.65-4.05 2.62-.66 1.98.08 4 1.65 4.53 1.58.53 3.39-.64 4.05-2.62Z" fill="#000" stroke="#FF788F" stroke-linecap="round" stroke-linejoin="round"/>
</svg>
