<svg width="80" height="80" viewBox="0 0 80 80" fill="none" xmlns="http://www.w3.org/2000/svg"><path d="M40.041 1.906v2.471c-19.685 0-35.664 15.979-35.664 35.664h-2.47a.914.914 0 0 0-.907.906C1.494 61.786 18.214 78.506 39.053 79a.914.914 0 0 0 .906-.906v-2.471c19.685 0 35.664-15.979 35.664-35.664h2.471a.914.914 0 0 0 .906-.906C78.506 18.214 61.786 1.494 40.947 1a.914.914 0 0 0-.906.906Z" fill="#E0E1E9"/><path d="M65.925 57.617s.086-.054.119-.086l6.495-4.324-3.134-1.696-3.134.756-8.3-31.677a5.705 5.705 0 0 0-6.68-4.15l-39.588 8.073-1.394-3.123-3.415 5.88a6.504 6.504 0 0 0-.216.367v.021a5.637 5.637 0 0 0-.454 4.248l10.44 36.648a2.587 2.587 0 0 0 3.177 1.794l45.273-12.342a2.94 2.94 0 0 0 .746-.346l.054-.032.01-.011Z" fill="#E0E1E9" stroke="#6C6E79" stroke-width=".7" stroke-linecap="round" stroke-linejoin="round"/><path d="M71.77 53.553 24.098 66.555a2.734 2.734 0 0 1-3.35-1.892L9.756 26.07c-.962-3.372 1.157-6.852 4.594-7.555l42.873-8.743c3.134-.638 6.225 1.286 7.025 4.377l9.446 36.075a2.73 2.73 0 0 1-1.924 3.33Z" fill="#fff"/><path d="M65.448 18.818 11.065 30.76l-1.34-4.69c-.962-3.372 1.156-6.852 4.593-7.555l42.884-8.743c3.135-.638 6.226 1.286 7.025 4.377l1.221 4.669Z" fill="#6C6E79"/><path d="M18.394 23.427a1.873 1.873 0 0 1-1.416 2.367c-1.08.238-2.226-.454-2.529-1.524a1.868 1.868 0 0 1 1.427-2.366c1.091-.227 2.215.464 2.518 1.534v-.01Z" fill="#fff"/><path d="M25.375 21.958c.292 1.059-.324 2.107-1.394 2.334-1.07.227-2.183-.454-2.475-1.524-.292-1.07.324-2.118 1.405-2.345 1.08-.227 2.172.465 2.464 1.524v.01Z" fill="#E0E1E9"/><path d="M11.087 30.862s.324-3.156.605-6.387l-1.372-3.08-3.415 5.879a6.51 6.51 0 0 0-.216.367v.022a5.638 5.638 0 0 0-.454 4.247l1.394 4.907 3.458-5.966v.01Z" fill="#6C6E79"/><path d="M71.77 53.553 24.098 66.555a2.734 2.734 0 0 1-3.35-1.892L9.756 26.07c-.962-3.372 1.157-6.852 4.594-7.555l42.873-8.743c3.134-.638 6.225 1.286 7.025 4.377l9.446 36.075a2.73 2.73 0 0 1-1.924 3.33Z" stroke="#6C6E79" stroke-width=".7" stroke-linecap="round" stroke-linejoin="round"/><path d="M40.797 31.456c.227.832-.368 1.697-1.319 1.924-.95.227-1.924-.27-2.15-1.113-.228-.843.367-1.708 1.329-1.924.962-.216 1.913.281 2.14 1.113ZM29.297 48.117c.227.843-.368 1.718-1.351 1.956-.984.238-1.967-.248-2.205-1.092-.238-.843.378-1.729 1.351-1.967.973-.237 1.956.26 2.194 1.103h.01ZM44.353 51.264c.227.832-.367 1.707-1.318 1.956-.962.248-1.934-.227-2.161-1.07-.227-.843.367-1.719 1.329-1.956.962-.238 1.924.237 2.15 1.07ZM62.878 46.53c.216.822-.356 1.676-1.286 1.924-.93.249-1.87-.227-2.086-1.048-.216-.822.357-1.686 1.286-1.924.93-.238 1.86.238 2.086 1.06v-.011ZM54.716 36.829c.216.821-.357 1.675-1.286 1.913-.93.238-1.87-.249-2.097-1.08-.227-.833.357-1.687 1.297-1.914.94-.227 1.87.26 2.086 1.08Z" fill="#6C6E79" stroke="#6C6E79" stroke-width=".7" stroke-linecap="round" stroke-linejoin="round"/><path d="M38.981 31.853 27.525 48.551l15.077 3.155 18.589-4.452-8.16-10.008-14.05-5.393Z" stroke="#6C6E79" stroke-width=".7" stroke-linecap="round" stroke-linejoin="round"/><path d="m43 33.5-11 16M47.5 35 37 50.5M51.5 36.5 41 51.5M55 39.5l-8 11M57.5 43l-4 6" stroke="#6C6E79" stroke-width=".7" stroke-miterlimit="10"/></svg>