<svg width="80" height="80" viewBox="0 0 80 80" fill="none" xmlns="http://www.w3.org/2000/svg">
  <path d="M40.04 1.9v2.48A35.68 35.68 0 0 0 4.38 40.04H1.9c-.5 0-.91.41-.91.9A38.95 38.95 0 0 0 39.05 79c.5 0 .9-.41.9-.9v-2.48a35.68 35.68 0 0 0 35.67-35.66h2.47c.5 0 .91-.41.91-.9A38.95 38.95 0 0 0 40.95 1c-.5 0-.9.41-.9.9Z" fill="#E0E1E9"/>
  <path d="M65.92 57.62s.1-.06.12-.09l6.5-4.32-3.14-1.7-3.13.76-8.3-31.68a5.7 5.7 0 0 0-6.68-4.15L11.7 24.51l-1.4-3.12-3.4 5.88a6.5 6.5 0 0 0-.22.37v.02a5.64 5.64 0 0 0-.46 4.25l10.44 36.64a2.59 2.59 0 0 0 3.18 1.8L65.11 58c.27-.08.52-.2.75-.35l.05-.03.01-.01Z" fill="#E0E1E9" stroke="#6C6E79" stroke-width=".7" stroke-linecap="round" stroke-linejoin="round"/>
  <path d="m71.77 53.55-47.67 13a2.73 2.73 0 0 1-3.35-1.89l-11-38.59a6.03 6.03 0 0 1 4.6-7.55l42.87-8.75a6.02 6.02 0 0 1 7.03 4.38l9.44 36.07a2.73 2.73 0 0 1-1.92 3.33Z" fill="#fff"/>
  <path d="M65.45 18.82 11.06 30.76l-1.34-4.69a6.03 6.03 0 0 1 4.6-7.55L57.2 9.77a6.02 6.02 0 0 1 7.03 4.38l1.22 4.67Z" fill="#6C6E79"/>
  <path d="M18.4 23.43a1.87 1.87 0 0 1-1.42 2.36 2.2 2.2 0 0 1-2.53-1.52 1.87 1.87 0 0 1 1.43-2.37 2.2 2.2 0 0 1 2.51 1.54v-.01Z" fill="#fff"/>
  <path d="M25.38 21.96c.29 1.06-.33 2.1-1.4 2.33a2.15 2.15 0 0 1-2.47-1.52 1.85 1.85 0 0 1 1.4-2.35 2.14 2.14 0 0 1 2.47 1.53Z" fill="#E0E1E9"/>
  <path d="M11.09 30.86s.32-3.15.6-6.39l-1.37-3.08-3.42 5.88-.21.37v.02a5.64 5.64 0 0 0-.46 4.25l1.4 4.9 3.46-5.96v.01Z" fill="#6C6E79"/>
  <path d="m71.77 53.55-47.67 13a2.73 2.73 0 0 1-3.35-1.89l-11-38.59a6.03 6.03 0 0 1 4.6-7.55l42.87-8.75a6.02 6.02 0 0 1 7.03 4.38l9.44 36.07a2.73 2.73 0 0 1-1.92 3.33Z" stroke="#6C6E79" stroke-width=".7" stroke-linecap="round" stroke-linejoin="round"/>
  <path d="M40.8 31.46c.22.83-.37 1.7-1.32 1.92-.95.23-1.93-.27-2.15-1.11-.23-.85.36-1.71 1.33-1.93.96-.21 1.91.28 2.14 1.12ZM29.3 48.12c.22.84-.37 1.72-1.35 1.95-.99.24-1.97-.25-2.2-1.09-.25-.84.37-1.73 1.34-1.97.97-.23 1.96.26 2.2 1.1h0ZM44.35 51.26c.23.84-.36 1.71-1.32 1.96-.96.25-1.93-.23-2.16-1.07-.22-.84.37-1.72 1.33-1.96.96-.23 1.93.24 2.15 1.07ZM62.88 46.53c.21.82-.36 1.68-1.29 1.92-.93.25-1.87-.22-2.08-1.04-.22-.83.35-1.69 1.28-1.93s1.86.24 2.09 1.06v0ZM54.72 36.83c.21.82-.36 1.67-1.29 1.91s-1.87-.25-2.1-1.08c-.22-.83.36-1.68 1.3-1.91.94-.23 1.87.26 2.09 1.08Z" fill="#6C6E79" stroke="#6C6E79" stroke-width=".7" stroke-linecap="round" stroke-linejoin="round"/>
  <path d="m38.98 31.85-11.45 16.7 15.07 3.16 18.59-4.46-8.16-10-14.05-5.4Z" stroke="#6C6E79" stroke-width=".7" stroke-linecap="round" stroke-linejoin="round"/>
  <mask id="a" maskUnits="userSpaceOnUse" x="27" y="31" width="35" height="21">
    <path d="m38.98 31.85-11.45 16.7 15.07 3.16 18.59-4.46-8.16-10-14.05-5.4Z" fill="#D9D9D9"/>
  </mask>
  <g mask="url(#a)" stroke="#6C6E79" stroke-width=".7" stroke-miterlimit="10">
    <path d="M44.36 31.75 31.13 51.03M48.1 34.03 33.6 55.2M52.88 34.8 37.53 57.17M57.03 36.5 43.81 55.78M60.78 38.77 46.27 59.94"/>
  </g>
</svg>
