<svg width="78" height="72" viewBox="0 0 78 72" fill="none" xmlns="http://www.w3.org/2000/svg">
  <path d="M52.12 7.42H27.05a1 1 0 0 0-.99 1.01v6.42H.99a1 1 0 0 0-.99 1v15.4C0 53.08 17.04 71.23 38.5 71.5 60.33 71.77 78 53.9 78 31.8V1a1 1 0 0 0-1-1H52.94a1 1 0 0 0-.99 1v6.42h.18Z" fill="#E0E1E9"/>
  <path d="M64.92 53.6s.1-.05.12-.08l6.5-4.32-3.14-1.7-3.13.76-8.3-31.68a5.7 5.7 0 0 0-6.68-4.15L10.7 20.5l-1.4-3.12-3.4 5.88-.22.37v.02a5.64 5.64 0 0 0-.46 4.25l10.44 36.64a2.59 2.59 0 0 0 3.18 1.8L64.11 54c.27-.08.52-.21.75-.35l.05-.03.02-.01Z" fill="#E0E1E9" stroke="#6C6E79" stroke-width=".7" stroke-linecap="round" stroke-linejoin="round"/>
  <path d="m70.76 49.55-47.67 13a2.73 2.73 0 0 1-3.35-1.89l-11-38.59a6.03 6.03 0 0 1 4.6-7.55L56.2 5.77a6.02 6.02 0 0 1 7.03 4.38l9.44 36.07a2.73 2.73 0 0 1-1.92 3.33Z" fill="#fff"/>
  <path d="M64.45 14.82 10.06 26.76l-1.34-4.69a6.03 6.03 0 0 1 4.6-7.55L56.2 5.77a6.02 6.02 0 0 1 7.03 4.38l1.22 4.67Z" fill="#6C6E79"/>
  <path d="M17.4 19.42a1.87 1.87 0 0 1-1.42 2.37 2.19 2.19 0 0 1-2.53-1.53 1.87 1.87 0 0 1 1.42-2.37 2.2 2.2 0 0 1 2.52 1.54v-.01Z" fill="#fff"/>
  <path d="M24.38 17.94c.29 1.06-.33 2.1-1.4 2.33a2.15 2.15 0 0 1-2.47-1.52 1.85 1.85 0 0 1 1.4-2.35 2.14 2.14 0 0 1 2.47 1.53Z" fill="#E0E1E9"/>
  <path d="M10.09 26.84s.32-3.15.6-6.38l-1.37-3.09-3.42 5.88a6.5 6.5 0 0 0-.21.37v.02a5.64 5.64 0 0 0-.46 4.25l1.4 4.9 3.46-5.96v.01Z" fill="#6C6E79"/>
  <path d="m70.76 49.55-47.67 13a2.73 2.73 0 0 1-3.35-1.89l-11-38.59a6.03 6.03 0 0 1 4.6-7.55L56.2 5.77a6.02 6.02 0 0 1 7.03 4.38l9.44 36.07a2.73 2.73 0 0 1-1.92 3.33Z" stroke="#6C6E79" stroke-width=".7" stroke-linecap="round" stroke-linejoin="round"/>
  <path d="m25.95 35.67-7.28 1.73a.79.79 0 0 1-.94-.55l-.94-3.37a.79.79 0 0 1 .58-.98l7.32-1.68a.8.8 0 0 1 .94.56l.92 3.3a.8.8 0 0 1-.58.99h-.02Z" fill="#6C6E79" stroke="#6C6E79" stroke-width=".7" stroke-linecap="round" stroke-linejoin="round"/>
  <path d="m44.2 26.87-7.3 1.73a.79.79 0 0 1-.93-.55l-.94-3.36a.79.79 0 0 1 .58-.98l7.32-1.69a.8.8 0 0 1 .94.56l.92 3.31a.8.8 0 0 1-.57.98h-.03ZM30.85 53.22l-7.18 1.9a.79.79 0 0 1-.96-.55l-.93-3.3a.78.78 0 0 1 .56-.97l7.21-1.85a.8.8 0 0 1 .96.55l.91 3.25a.78.78 0 0 1-.56.98l-.01-.01Z" fill="#E0E1E9" stroke="#6C6E79" stroke-width=".7" stroke-linecap="round" stroke-linejoin="round"/>
  <path d="m62.74 26.93-6.37 1.51a.79.79 0 0 1-.95-.56l-.83-3.11a.79.79 0 0 1 .59-.97l6.4-1.47c.4-.1.83.15.93.57l.82 3.07a.8.8 0 0 1-.59.97v-.01Z" fill="#6C6E79" stroke="#6C6E79" stroke-width=".7" stroke-linecap="round" stroke-linejoin="round"/>
  <path d="m67.16 43.62-6.29 1.66a.79.79 0 0 1-.96-.56l-.81-3.05a.8.8 0 0 1 .56-.97l6.31-1.62c.42-.1.86.14.96.56l.8 3.02c.1.42-.15.85-.57.96Z" fill="#E0E1E9" stroke="#6C6E79" stroke-width=".7" stroke-linecap="round" stroke-linejoin="round"/>
  <path d="m52.09 51.56-6.3 1.67a.79.79 0 0 1-.95-.56l-.81-3.05a.8.8 0 0 1 .56-.97l6.3-1.62c.43-.11.86.14.97.56l.79 3.01c.1.42-.14.86-.56.96Z" fill="#6C6E79" stroke="#6C6E79" stroke-width=".7" stroke-linecap="round" stroke-linejoin="round"/>
  <path d="m28.02 35.45 6.75 1.57M31.42 47.7l5.06-4.5M54.58 29.13l-4.8 4.26M41.2 29l1.3 4M45.35 42 47 46.5M57.73 40.94l-6.32-1.49" stroke="#6C6E79" stroke-width=".7" stroke-linecap="round" stroke-linejoin="round"/>
  <path d="m51.91 37.73-2.1-.52-.93-3.45a.8.8 0 0 0-.96-.56l-7.24 1.75-2.36-.59-.87-.34-1.54 2.31-.03.02a.81.81 0 0 0-.07.6l1.6 5.86c.13.4.55.66.96.55l11.48-2.9c.26-.06.37-.26.53-.49l1.53-2.24Z" fill="#E0E1E9" stroke="#6C6E79" stroke-width=".7" stroke-linecap="round" stroke-linejoin="round"/>
  <path d="M51.43 38.1 39.95 41a.78.78 0 0 1-.95-.55l-1.61-5.85a.78.78 0 0 1 .57-.98l11.53-2.78a.8.8 0 0 1 .95.56L52 37.14a.79.79 0 0 1-.57.97h0Z" fill="#fff" stroke="#6C6E79" stroke-width=".7" stroke-linecap="round" stroke-linejoin="round"/>
  <path d="M38.35 38 42 32.68M41.94 40.5l6.42-9.35M48.36 38.88l2.95-4.3" stroke="#6C6E79" stroke-width=".7" stroke-miterlimit="10"/>
</svg>
