<svg width="80" height="80" viewBox="0 0 80 80" fill="none" xmlns="http://www.w3.org/2000/svg"><path d="M53.12 11.425H28.052a1.01 1.01 0 0 0-.992 1.008v6.416H1.992A1.01 1.01 0 0 0 1 19.858v15.399c0 21.816 17.043 39.965 38.504 40.24C61.326 75.772 79 57.897 79 35.807V5.008C79 4.458 78.55 4 78.008 4H53.932a1.01 1.01 0 0 0-.992 1.008v6.417h.18Z" fill="#E0E1E9"/><path d="M65.925 57.607s.086-.054.119-.087l6.495-4.323-3.134-1.697-3.134.757-8.3-31.677a5.705 5.705 0 0 0-6.68-4.15l-39.587 8.073-1.395-3.123-3.415 5.88a6.467 6.467 0 0 0-.216.366v.022a5.638 5.638 0 0 0-.454 4.247l10.44 36.649a2.587 2.587 0 0 0 3.178 1.794l45.272-12.342c.27-.076.52-.206.746-.346l.054-.032.011-.011Z" fill="#E0E1E9" stroke="#6C6E79" stroke-width=".7" stroke-linecap="round" stroke-linejoin="round"/><path d="M71.76 53.554 24.086 66.555a2.734 2.734 0 0 1-3.35-1.891L9.746 26.07c-.962-3.372 1.156-6.852 4.593-7.554l42.873-8.744c3.134-.637 6.225 1.286 7.025 4.377l9.446 36.076a2.73 2.73 0 0 1-1.924 3.329Z" fill="#fff"/><path d="M65.449 18.818 11.065 30.761l-1.34-4.69c-.962-3.373 1.156-6.853 4.593-7.555l42.885-8.744c3.134-.637 6.225 1.286 7.024 4.377l1.222 4.67Z" fill="#6C6E79"/><path d="M18.39 23.419a1.873 1.873 0 0 1-1.415 2.366c-1.092.238-2.226-.454-2.529-1.523a1.868 1.868 0 0 1 1.427-2.367c1.091-.227 2.215.464 2.518 1.534v-.01Z" fill="#fff"/><path d="M25.375 21.938c.292 1.06-.324 2.108-1.394 2.335-1.07.227-2.183-.454-2.475-1.524-.291-1.07.325-2.118 1.405-2.345 1.081-.227 2.173.464 2.464 1.523v.011Z" fill="#E0E1E9"/><path d="M11.087 30.842s.324-3.155.605-6.387l-1.372-3.08-3.415 5.88a6.504 6.504 0 0 0-.217.367v.021a5.637 5.637 0 0 0-.454 4.248l1.395 4.906 3.458-5.965v.01Z" fill="#6C6E79"/><path d="M71.76 53.554 24.086 66.555a2.734 2.734 0 0 1-3.35-1.891L9.746 26.07c-.962-3.372 1.156-6.852 4.593-7.554l42.873-8.744c3.134-.637 6.225 1.286 7.025 4.377l9.446 36.076a2.73 2.73 0 0 1-1.924 3.329Z" stroke="#6C6E79" stroke-width=".7" stroke-linecap="round" stroke-linejoin="round"/><path d="m26.952 39.668-7.284 1.73a.79.79 0 0 1-.94-.552l-.94-3.361a.789.789 0 0 1 .583-.983l7.317-1.687a.793.793 0 0 1 .94.563l.919 3.307a.795.795 0 0 1-.573.983h-.022Z" fill="#6C6E79" stroke="#6C6E79" stroke-width=".7" stroke-linecap="round" stroke-linejoin="round"/><path d="m45.194 30.874-7.285 1.729a.79.79 0 0 1-.94-.551l-.94-3.361a.789.789 0 0 1 .583-.984l7.317-1.686a.793.793 0 0 1 .94.562l.919 3.307a.795.795 0 0 1-.573.984h-.021ZM31.847 57.216l-7.176 1.902a.786.786 0 0 1-.962-.55l-.93-3.297a.782.782 0 0 1 .562-.973l7.21-1.848a.795.795 0 0 1 .96.551l.909 3.253a.782.782 0 0 1-.562.973l-.011-.01Z" fill="#E0E1E9" stroke="#6C6E79" stroke-width=".7" stroke-linecap="round" stroke-linejoin="round"/><path d="m63.742 30.93-6.377 1.512a.787.787 0 0 1-.94-.562l-.832-3.112a.786.786 0 0 1 .583-.973l6.398-1.47a.785.785 0 0 1 .94.573l.811 3.07a.799.799 0 0 1-.584.972v-.01Z" fill="#6C6E79" stroke="#6C6E79" stroke-width=".7" stroke-linecap="round" stroke-linejoin="round"/><path d="m68.16 47.618-6.29 1.664a.788.788 0 0 1-.962-.561l-.81-3.048a.804.804 0 0 1 .562-.973l6.311-1.621a.787.787 0 0 1 .962.562l.789 3.015a.788.788 0 0 1-.562.962Z" fill="#E0E1E9" stroke="#6C6E79" stroke-width=".7" stroke-linecap="round" stroke-linejoin="round"/><path d="m53.088 55.564-6.29 1.665a.788.788 0 0 1-.962-.562l-.81-3.048a.804.804 0 0 1 .561-.973l6.312-1.62a.788.788 0 0 1 .962.561l.789 3.015a.788.788 0 0 1-.562.962Z" fill="#6C6E79" stroke="#6C6E79" stroke-width=".7" stroke-linecap="round" stroke-linejoin="round"/><path d="m29.016 39.445 6.755 1.578M32.419 51.695l5.058-4.486M55.58 33.127l-4.798 4.259M42.193 33l1.307 4M46.353 46 48 50.5M58.725 44.943l-6.312-1.492" stroke="#6C6E79" stroke-width=".7" stroke-linecap="round" stroke-linejoin="round"/><path d="m52.912 41.726-2.108-.519-.929-3.447a.794.794 0 0 0-.951-.562l-7.241 1.75-2.367-.583-.864-.346-1.546 2.313-.022.022a.812.812 0 0 0-.075.594l1.61 5.858c.119.41.54.659.951.55l11.478-2.895c.26-.065.372-.26.53-.487l1.534-2.248Z" fill="#E0E1E9" stroke="#6C6E79" stroke-width=".7" stroke-linecap="round" stroke-linejoin="round"/><path d="M52.426 42.11 40.95 45.005a.778.778 0 0 1-.951-.551l-1.61-5.858a.78.78 0 0 1 .572-.973l11.532-2.788a.804.804 0 0 1 .95.562l1.546 5.739a.789.789 0 0 1-.572.972h.01Z" fill="#fff" stroke="#6C6E79" stroke-width=".7" stroke-linecap="round" stroke-linejoin="round"/><path d="M39.352 42 43 36.681M42.943 44.5l6.416-9.353M49.364 42.878l2.949-4.3" stroke="#6C6E79" stroke-width=".7" stroke-miterlimit="10"/></svg>