<svg width="80" height="80" viewBox="0 0 80 80" fill="none" xmlns="http://www.w3.org/2000/svg">
  <path d="M53.12 11.42H28.05a1 1 0 0 0-.99 1.01v6.42H1.99a1 1 0 0 0-.99 1v15.4C1 57.08 18.04 75.23 39.5 75.5 61.33 75.77 79 57.9 79 35.8V5a1 1 0 0 0-1-1H53.94a1 1 0 0 0-.99 1v6.42h.18Z" fill="#E0E1E9"/>
  <path d="M65.92 57.6s.1-.05.12-.08l6.5-4.32-3.14-1.7-3.13.76-8.3-31.68a5.7 5.7 0 0 0-6.68-4.15L11.7 24.5l-1.4-3.12-3.4 5.88-.22.37v.02a5.64 5.64 0 0 0-.46 4.25l10.44 36.64a2.59 2.59 0 0 0 3.18 1.8L65.11 58c.27-.08.52-.21.75-.35l.05-.03.02-.01Z" fill="#E0E1E9" stroke="#6C6E79" stroke-width=".7" stroke-linecap="round" stroke-linejoin="round"/>
  <path d="m71.76 53.55-47.67 13a2.73 2.73 0 0 1-3.35-1.89l-11-38.59a6.03 6.03 0 0 1 4.6-7.55L57.2 9.77a6.02 6.02 0 0 1 7.03 4.38l9.44 36.07a2.73 2.73 0 0 1-1.92 3.33Z" fill="#fff"/>
  <path d="M65.45 18.82 11.06 30.76l-1.34-4.69a6.03 6.03 0 0 1 4.6-7.55L57.2 9.77a6.02 6.02 0 0 1 7.03 4.38l1.22 4.67Z" fill="#6C6E79"/>
  <path d="M18.4 23.42a1.87 1.87 0 0 1-1.42 2.37 2.19 2.19 0 0 1-2.53-1.53 1.87 1.87 0 0 1 1.42-2.37 2.2 2.2 0 0 1 2.52 1.54v-.01Z" fill="#fff"/>
  <path d="M25.38 21.94c.29 1.06-.33 2.1-1.4 2.33a2.15 2.15 0 0 1-2.47-1.52 1.85 1.85 0 0 1 1.4-2.35 2.14 2.14 0 0 1 2.47 1.53Z" fill="#E0E1E9"/>
  <path d="M11.09 30.84s.32-3.15.6-6.38l-1.37-3.09-3.42 5.88a6.5 6.5 0 0 0-.21.37v.02a5.64 5.64 0 0 0-.46 4.25l1.4 4.9 3.46-5.96v.01Z" fill="#6C6E79"/>
  <path d="m71.76 53.55-47.67 13a2.73 2.73 0 0 1-3.35-1.89l-11-38.59a6.03 6.03 0 0 1 4.6-7.55L57.2 9.77a6.02 6.02 0 0 1 7.03 4.38l9.44 36.07a2.73 2.73 0 0 1-1.92 3.33Z" stroke="#6C6E79" stroke-width=".7" stroke-linecap="round" stroke-linejoin="round"/>
  <path d="m26.95 39.67-7.28 1.73a.79.79 0 0 1-.94-.55l-.94-3.37a.79.79 0 0 1 .58-.98l7.32-1.68a.8.8 0 0 1 .94.56l.92 3.3a.8.8 0 0 1-.58.99h-.02Z" fill="#E0E1E9" stroke="#6C6E79" stroke-width=".7" stroke-linecap="round" stroke-linejoin="round"/>
  <path d="m31.85 57.22-7.18 1.9a.79.79 0 0 1-.96-.55l-.93-3.3a.78.78 0 0 1 .56-.97l7.21-1.85a.8.8 0 0 1 .96.55l.91 3.25a.78.78 0 0 1-.56.98l-.01-.01ZM63.74 30.93l-6.37 1.51a.79.79 0 0 1-.95-.56l-.83-3.11a.79.79 0 0 1 .59-.97l6.4-1.47c.4-.1.83.15.93.57l.82 3.07a.8.8 0 0 1-.59.97v-.01Z" fill="#6C6E79" stroke="#6C6E79" stroke-width=".7" stroke-linecap="round" stroke-linejoin="round"/>
  <path d="m68.16 47.62-6.29 1.66a.79.79 0 0 1-.96-.56l-.81-3.05a.8.8 0 0 1 .56-.97l6.31-1.62c.42-.1.86.14.96.56l.8 3.02c.1.42-.15.85-.57.96Z" fill="#E0E1E9" stroke="#6C6E79" stroke-width=".7" stroke-linecap="round" stroke-linejoin="round"/>
  <path d="m29.02 39.45 6.75 1.57M32.42 51.7l5.06-4.5M55.58 33.13l-4.8 4.26M58.73 44.94l-6.32-1.49" stroke="#6C6E79" stroke-width=".7" stroke-linecap="round" stroke-linejoin="round"/>
  <path d="m52.91 41.73-2.1-.52-.93-3.45a.8.8 0 0 0-.96-.56l-7.24 1.75-2.36-.59-.87-.34-1.54 2.31-.03.02a.81.81 0 0 0-.07.6l1.6 5.86c.13.4.55.66.96.55l11.48-2.9c.26-.06.37-.26.53-.49l1.53-2.24Z" fill="#E0E1E9" stroke="#6C6E79" stroke-width=".7" stroke-linecap="round" stroke-linejoin="round"/>
  <path d="M52.43 42.1 40.95 45a.78.78 0 0 1-.95-.55l-1.61-5.85a.78.78 0 0 1 .57-.98l11.53-2.78a.8.8 0 0 1 .95.56L53 41.14a.79.79 0 0 1-.57.97h0Z" fill="#fff" stroke="#6C6E79" stroke-width=".7" stroke-linecap="round" stroke-linejoin="round"/>
  <path d="M39.35 42 43 36.68M42.94 44.5l6.42-9.35M49.36 42.88l2.95-4.3" stroke="#6C6E79" stroke-width=".7" stroke-miterlimit="10"/>
</svg>
