<svg width="80" height="80" viewBox="0 0 80 80" fill="none" xmlns="http://www.w3.org/2000/svg">
  <path d="M5.23 57.65v9.55c0 .45.18.9.54 1.17l5.86 5.86c.36.36.72.54 1.17.54h9.55a38.96 38.96 0 0 0 35.3 0h9.55c.45 0 .9-.18 1.17-.54l5.86-5.86c.36-.36.54-.72.54-1.17v-9.55a38.96 38.96 0 0 0 0-35.3V12.8c0-.45-.18-.9-.54-1.17l-5.86-5.86a1.59 1.59 0 0 0-1.17-.54h-9.55a38.96 38.96 0 0 0-35.3 0H12.8c-.45 0-.9.18-1.17.54l-5.86 5.86c-.36.36-.54.72-.54 1.17v9.55a38.96 38.96 0 0 0 0 35.3Z" fill="#E0E1E9"/>
  <path d="M65.92 57.62s.1-.06.12-.09l6.5-4.32-3.14-1.7-3.13.76-8.3-31.68a5.7 5.7 0 0 0-6.68-4.15L11.7 24.51l-1.4-3.12-3.4 5.88a6.5 6.5 0 0 0-.22.37v.02a5.64 5.64 0 0 0-.46 4.25l10.44 36.64a2.59 2.59 0 0 0 3.18 1.8L65.11 58c.27-.08.52-.2.75-.35l.05-.03.01-.01Z" fill="#E0E1E9" stroke="#6C6E79" stroke-width=".7" stroke-linecap="round" stroke-linejoin="round"/>
  <path d="m71.76 53.55-47.67 13a2.73 2.73 0 0 1-3.35-1.89l-11-38.59a6.03 6.03 0 0 1 4.6-7.55L57.2 9.77a6.02 6.02 0 0 1 7.03 4.38l9.44 36.07a2.73 2.73 0 0 1-1.92 3.33Z" fill="#fff"/>
  <path d="M65.45 18.82 11.06 30.76l-1.34-4.69a6.03 6.03 0 0 1 4.6-7.55L57.2 9.77a6.02 6.02 0 0 1 7.03 4.38l1.22 4.67Z" fill="#6C6E79"/>
  <path d="M18.4 23.43a1.87 1.87 0 0 1-1.42 2.36 2.2 2.2 0 0 1-2.53-1.52 1.87 1.87 0 0 1 1.43-2.37 2.2 2.2 0 0 1 2.51 1.54v-.01Z" fill="#fff"/>
  <path d="M25.37 21.96c.3 1.06-.32 2.1-1.4 2.33a2.15 2.15 0 0 1-2.47-1.52 1.85 1.85 0 0 1 1.4-2.35 2.14 2.14 0 0 1 2.47 1.53Z" fill="#E0E1E9"/>
  <path d="M11.09 30.86s.32-3.15.6-6.39l-1.37-3.08-3.42 5.88a6.5 6.5 0 0 0-.21.37v.02a5.64 5.64 0 0 0-.46 4.25l1.4 4.9 3.46-5.96v.01Z" fill="#6C6E79"/>
  <path d="m71.76 53.55-47.67 13a2.73 2.73 0 0 1-3.35-1.89l-11-38.59a6.03 6.03 0 0 1 4.6-7.55L57.2 9.77a6.02 6.02 0 0 1 7.03 4.38l9.44 36.07a2.73 2.73 0 0 1-1.92 3.33Z" stroke="#6C6E79" stroke-width=".7" stroke-linecap="round" stroke-linejoin="round"/>
  <path d="M66.66 50.63 27.87 61l-7.8-27.7" stroke="#6C6E79" stroke-width=".7" stroke-miterlimit="10"/>
  <path d="M31.57 38.9c.39 1.42-.63 2.9-2.3 3.31-1.66.41-3.34-.41-3.74-1.85-.4-1.43.64-2.92 2.31-3.32 1.67-.4 3.33.44 3.72 1.86h.01ZM61.48 35.13c.65-1.4.84-3 .42-4.55-1.04-3.91-5.43-6.27-9.87-5.25-.67.15-1.3.39-1.88.67l-.4-.3-2.14 2.16a6.94 6.94 0 0 0-1.76 6.59c1.08 3.98 5.6 6.29 10.02 5.18a8.75 8.75 0 0 0 3.77-2l2.22-2.19-.37-.3h0ZM49.26 49.96l-.52-.37c.28-.88.33-1.82.08-2.75-.79-2.89-4.1-4.57-7.44-3.73-.4.1-.8.23-1.18.4l-.35-.24-1.7 1.7a5.2 5.2 0 0 0-1.41 4.98c.8 2.92 4.18 4.57 7.52 3.7a6.74 6.74 0 0 0 2.93-1.62l2.07-2.06v-.01Z" fill="#6C6E79" stroke="#6C6E79" stroke-width=".7" stroke-linecap="round" stroke-linejoin="round"/>
  <path d="M63.79 28.7c1.03 3.9-1.66 7.94-6.05 9.03-4.44 1.12-8.94-1.2-10.01-5.17-1.07-3.98 1.7-8.08 6.19-9.12 4.43-1.02 8.83 1.34 9.87 5.26Z" fill="#E0E1E9" stroke="#6C6E79" stroke-width=".7" stroke-linecap="round" stroke-linejoin="round"/>
  <path d="M50.72 44.93c.79 2.89-1.25 5.92-4.56 6.79-3.34.87-6.73-.77-7.53-3.7-.8-2.93 1.29-5.99 4.65-6.83 3.34-.83 6.66.84 7.44 3.73v.01Z" fill="#fff" stroke="#6C6E79" stroke-width=".7" stroke-linecap="round" stroke-linejoin="round"/>
  <mask id="a" style="mask-type:alpha" maskUnits="userSpaceOnUse" x="38" y="40" width="14" height="13">
    <path d="M50.72 44.93c.79 2.89-1.25 5.92-4.56 6.79-3.34.87-6.73-.77-7.53-3.7-.8-2.93 1.29-5.99 4.65-6.83 3.34-.83 6.66.84 7.44 3.73v.01Z" fill="#fff" stroke="#000" stroke-width=".7" stroke-linecap="round" stroke-linejoin="round"/>
  </mask>
  <g mask="url(#a)" stroke="#6C6E79" stroke-width=".7" stroke-miterlimit="10">
    <path d="m42.49 34.28-8.42 12.28M46.1 36.75l-8.43 12.29M49.7 39.23 40.12 53.2M53.31 41.7 44.06 55.2"/>
  </g>
</svg>
