<svg width="80" height="80" viewBox="0 0 80 80" fill="none" xmlns="http://www.w3.org/2000/svg"><path d="M5.233 57.654V67.2c0 .45.18.9.54 1.17l5.855 5.855c.36.36.72.54 1.171.54h9.547A38.959 38.959 0 0 0 40 79c6.395 0 12.34-1.531 17.654-4.233H67.2c.45 0 .9-.18 1.17-.54l5.855-5.855c.36-.36.54-.72.54-1.171v-9.547A38.96 38.96 0 0 0 79 40a38.68 38.68 0 0 0-4.233-17.654V12.8c0-.45-.18-.9-.54-1.17l-5.855-5.855c-.36-.36-.72-.54-1.171-.54h-9.547A38.959 38.959 0 0 0 40 1a38.678 38.678 0 0 0-17.654 4.233H12.8c-.45 0-.9.18-1.17.54l-5.855 5.855c-.36.36-.54.72-.54 1.171v9.547A38.959 38.959 0 0 0 1 40c0 6.395 1.531 12.34 4.233 17.654Z" fill="#E0E1E9"/><path d="M65.925 57.617s.086-.054.119-.086l6.495-4.324-3.134-1.696-3.134.756-8.3-31.677a5.705 5.705 0 0 0-6.68-4.15l-39.588 8.073-1.394-3.123-3.415 5.88a6.504 6.504 0 0 0-.216.367v.021a5.637 5.637 0 0 0-.454 4.248l10.44 36.648a2.587 2.587 0 0 0 3.177 1.794l45.273-12.342a2.94 2.94 0 0 0 .746-.346l.054-.032.01-.011Z" fill="#E0E1E9" stroke="#6C6E79" stroke-width=".7" stroke-linecap="round" stroke-linejoin="round"/><path d="M71.76 53.553 24.086 66.555a2.734 2.734 0 0 1-3.35-1.892L9.745 26.07c-.961-3.372 1.157-6.852 4.594-7.555l42.873-8.743c3.134-.638 6.225 1.286 7.025 4.377l9.446 36.075a2.73 2.73 0 0 1-1.924 3.33Z" fill="#fff"/><path d="M65.449 18.818 11.065 30.76l-1.34-4.69c-.962-3.372 1.156-6.852 4.593-7.555l42.885-8.743c3.134-.638 6.225 1.286 7.024 4.377l1.222 4.669Z" fill="#6C6E79"/><path d="M18.394 23.427a1.873 1.873 0 0 1-1.416 2.367c-1.08.238-2.226-.454-2.529-1.524a1.868 1.868 0 0 1 1.427-2.366c1.092-.227 2.216.464 2.518 1.534v-.01Z" fill="#fff"/><path d="M25.372 21.958c.291 1.059-.325 2.107-1.395 2.334-1.07.227-2.183-.454-2.474-1.524-.292-1.07.324-2.118 1.404-2.345 1.081-.227 2.173.465 2.465 1.524v.01Z" fill="#E0E1E9"/><path d="M11.087 30.862s.324-3.156.605-6.387l-1.373-3.08-3.415 5.879a6.509 6.509 0 0 0-.216.367v.022a5.638 5.638 0 0 0-.454 4.247l1.394 4.907 3.459-5.966v.01Z" fill="#6C6E79"/><path d="M71.76 53.553 24.086 66.555a2.734 2.734 0 0 1-3.35-1.892L9.745 26.07c-.961-3.372 1.157-6.852 4.594-7.555l42.873-8.743c3.134-.638 6.225 1.286 7.025 4.377l9.446 36.075a2.73 2.73 0 0 1-1.924 3.33Z" stroke="#6C6E79" stroke-width=".7" stroke-linecap="round" stroke-linejoin="round"/><path d="M66.66 50.627 27.87 61.013l-7.792-27.7" stroke="#6C6E79" stroke-width=".7" stroke-miterlimit="10"/><path d="M31.57 38.904c.389 1.415-.627 2.896-2.291 3.307-1.665.41-3.35-.411-3.75-1.849-.4-1.437.637-2.918 2.312-3.317 1.665-.4 3.329.432 3.718 1.858h.01ZM61.48 35.131c.65-1.405.844-2.993.422-4.55-1.037-3.912-5.436-6.268-9.867-5.252a8.82 8.82 0 0 0-1.88.67l-.4-.303-2.14 2.162c-1.665 1.783-2.41 4.204-1.762 6.592 1.08 3.978 5.588 6.29 10.019 5.177a8.746 8.746 0 0 0 3.772-2l2.215-2.182-.367-.303-.011-.01ZM49.262 49.959l-.52-.367a4.875 4.875 0 0 0 .077-2.756c-.79-2.886-4.107-4.561-7.436-3.729a6.89 6.89 0 0 0-1.178.41l-.357-.248-1.707 1.697c-1.297 1.35-1.892 3.188-1.405 4.982.81 2.918 4.182 4.572 7.522 3.696a6.737 6.737 0 0 0 2.929-1.61l2.075-2.064v-.011Z" fill="#6C6E79" stroke="#6C6E79" stroke-width=".7" stroke-linecap="round" stroke-linejoin="round"/><path d="M63.785 28.697c1.038 3.902-1.653 7.944-6.041 9.035-4.442 1.114-8.949-1.2-10.019-5.176-1.07-3.977 1.708-8.074 6.193-9.111 4.431-1.027 8.83 1.34 9.867 5.252Z" fill="#E0E1E9" stroke="#6C6E79" stroke-width=".7" stroke-linecap="round" stroke-linejoin="round"/><path d="M50.716 44.93c.79 2.886-1.243 5.923-4.56 6.788-3.34.875-6.723-.767-7.523-3.696-.8-2.929 1.286-5.987 4.648-6.83 3.34-.833 6.657.843 7.435 3.728v.01Z" fill="#fff" stroke="#6C6E79" stroke-width=".7" stroke-linecap="round" stroke-linejoin="round"/><path d="m43.006 41.254-4.35 6.309M47.986 41.73l-6.474 9.446M50.768 45.41l-4.181 6.095" stroke="#6C6E79" stroke-width=".7" stroke-miterlimit="10"/></svg>