<svg width="80" height="80" viewBox="0 0 80 80" fill="none" xmlns="http://www.w3.org/2000/svg"><path d="M40.585 74.872C61.996 74.603 79 56.867 79 35.547v-15.05a.996.996 0 0 0-.99-.985H53V5.985A.996.996 0 0 0 52.01 5H27.99c-.54 0-.99.448-.99.985v6.27H1.99c-.54 0-.99.449-.99.986v22.843c.18 21.589 17.903 39.057 39.585 38.788Z" fill="#E0E1E9"/><path d="M62.925 57.607s.086-.054.119-.087l6.495-4.323-3.134-1.696-3.134.756-8.3-31.677a5.705 5.705 0 0 0-6.68-4.15L8.703 24.503 7.31 21.38l-3.415 5.88a6.51 6.51 0 0 0-.216.367v.021a5.637 5.637 0 0 0-.454 4.248l10.44 36.648a2.587 2.587 0 0 0 3.178 1.794l45.272-12.342a2.94 2.94 0 0 0 .746-.346l.054-.032.01-.011Z" fill="#E0E1E9" stroke="#6C6E79" stroke-width=".7" stroke-linecap="round" stroke-linejoin="round"/><path d="M68.763 53.554 21.091 66.555a2.734 2.734 0 0 1-3.35-1.891L6.749 26.07c-.961-3.372 1.157-6.852 4.594-7.554l42.873-8.744c3.134-.637 6.225 1.286 7.025 4.377l9.446 36.076a2.73 2.73 0 0 1-1.924 3.329Z" fill="#fff"/><path d="M62.452 18.818 8.07 30.761l-1.34-4.69c-.962-3.373 1.156-6.853 4.593-7.555l42.884-8.744c3.134-.637 6.225 1.286 7.025 4.377l1.221 4.67Z" fill="#6C6E79"/><path d="M15.394 23.419a1.873 1.873 0 0 1-1.416 2.366c-1.091.238-2.226-.454-2.529-1.523a1.868 1.868 0 0 1 1.427-2.367c1.091-.227 2.215.464 2.518 1.534v-.01Z" fill="#fff"/><path d="M22.375 21.938c.292 1.06-.324 2.108-1.394 2.335-1.07.227-2.183-.454-2.475-1.524-.292-1.07.324-2.118 1.405-2.345 1.08-.227 2.172.464 2.464 1.523v.011Z" fill="#E0E1E9"/><path d="M8.087 30.842s.324-3.155.605-6.387l-1.372-3.08-3.415 5.88a6.51 6.51 0 0 0-.217.367v.021a5.637 5.637 0 0 0-.453 4.248l1.394 4.906 3.458-5.965v.01Z" fill="#6C6E79"/><path d="m70.684 50.223-4.982-19.021c-3.75.583-6.7 1.523-8.505 2.875-8.463 6.279-7.22 18.264-11.65 21.042-5.286 3.307-11.705-6.312-18.914-4.302-4.604 1.286-6.474 7.533-7.922 15.25.66.508 1.524.713 2.388.475l47.672-13.001a2.73 2.73 0 0 0 1.924-3.329l-.01.01Z" fill="#E0E1E9"/><path d="M18.69 66.108c1.502-8.376 3.047-13.931 7.932-15.293 7.209-2.01 13.629 7.608 18.913 4.301 4.442-2.777 3.2-14.763 11.651-21.042 3.415-2.529 10.808-3.664 20.145-3.556" stroke="#6C6E79" stroke-width=".7" stroke-linecap="round" stroke-linejoin="round"/><path d="M59.837 33.563c.443 1.675-.368 3.296-1.816 3.642-1.448.346-3.005-.746-3.458-2.421-.454-1.675.367-3.329 1.837-3.653 1.459-.324 2.994.767 3.447 2.443l-.01-.011ZM29.27 50.213c.443 1.675-.367 3.297-1.815 3.642-1.449.346-3.005-.745-3.459-2.42-.454-1.676.368-3.33 1.838-3.653 1.459-.325 2.993.767 3.447 2.442l-.01-.01ZM48.183 54.51c.444 1.676-.367 3.297-1.815 3.643-1.449.345-3.005-.746-3.459-2.421-.454-1.675.368-3.329 1.837-3.653 1.47-.325 2.994.767 3.448 2.442l-.01-.01Z" fill="#6C6E79"/><path d="M56.343 24.233c.443 1.675-.367 3.296-1.816 3.642-1.448.346-3.004-.745-3.458-2.42-.454-1.676.367-3.33 1.837-3.654 1.46-.324 2.994.768 3.448 2.443l-.011-.01ZM25.77 40.894c.443 1.675-.367 3.297-1.815 3.642-1.449.346-3.005-.745-3.459-2.42-.454-1.676.368-3.33 1.838-3.654 1.47-.324 2.993.768 3.447 2.443l-.01-.01ZM44.693 45.191c.444 1.675-.367 3.296-1.815 3.642-1.449.346-3.005-.745-3.459-2.42-.454-1.676.368-3.33 1.838-3.654 1.459-.324 2.993.768 3.447 2.443l-.01-.01Z" fill="#E0E1E9"/><path d="M68.763 53.554 21.091 66.555a2.734 2.734 0 0 1-3.35-1.891L6.749 26.07c-.961-3.372 1.157-6.852 4.594-7.554l42.873-8.744c3.134-.637 6.225 1.286 7.025 4.377l9.446 36.076a2.73 2.73 0 0 1-1.924 3.329v0Z" stroke="#6C6E79" stroke-width=".7" stroke-linecap="round" stroke-linejoin="round"/><path d="M63.23 21.728c3.09-.41 6.679-.583 10.613-.53" stroke="#fff" stroke-width=".7" stroke-linecap="round" stroke-linejoin="round"/><path d="M15.469 56.7c1.502-8.376 2.767-13.834 7.662-15.196 7.21-2.01 13.629 7.609 18.914 4.302 4.442-2.778 3.199-14.764 11.65-21.043 1.978-1.47 5.285-2.464 9.522-3.026" stroke="#E0E1E9" stroke-width=".7" stroke-linecap="round" stroke-linejoin="round"/><path d="m14.14 52.014 2.14 7.5" stroke="#6C6E79" stroke-width=".7" stroke-linecap="round" stroke-linejoin="round"/></svg>