<svg width="80" height="80" viewBox="0 0 80 80" fill="none" xmlns="http://www.w3.org/2000/svg"><path d="M4.348 58.16v9.773c0 .461.187.911.516 1.24l5.962 5.963c.33.33.769.516 1.241.516h9.772A39.918 39.918 0 0 0 40 80c6.533 0 12.715-1.57 18.16-4.348h9.773c.461 0 .911-.187 1.24-.516l5.963-5.962c.33-.33.516-.769.516-1.241v-9.772A39.885 39.885 0 0 0 80 40c0-6.533-1.57-12.715-4.348-18.16v-9.773c0-.461-.187-.911-.516-1.24l-5.962-5.963a1.744 1.744 0 0 0-1.241-.516h-9.772A39.885 39.885 0 0 0 40 0a39.884 39.884 0 0 0-18.16 4.348h-9.773c-.461 0-.911.187-1.24.516l-5.963 5.962c-.33.33-.516.769-.516 1.241v9.772A39.885 39.885 0 0 0 0 40c0 6.533 1.57 12.715 4.348 18.16Z" fill="#E0E1E9"/><path d="M66.16 57.374s.087-.054.12-.087l6.521-4.323-3.147-1.697-3.147.756-8.334-31.681a5.73 5.73 0 0 0-6.707-4.15l-39.74 8.063-1.4-3.124-3.428 5.88a6.507 6.507 0 0 0-.217.368v.021a5.618 5.618 0 0 0-.456 4.248l10.472 36.654a2.599 2.599 0 0 0 3.19 1.794l45.459-12.344c.271-.076.52-.205.749-.346l.054-.032h.01Z" fill="#E0E1E9" stroke="#6C6E79" stroke-width=".7" stroke-linecap="round" stroke-linejoin="round"/><path d="M72.02 53.31 24.152 66.313a2.747 2.747 0 0 1-3.364-1.892L9.752 25.822c-.966-3.372 1.16-6.853 4.612-7.556l43.05-8.744c3.146-.638 6.25 1.286 7.053 4.377L73.95 49.98a2.729 2.729 0 0 1-1.931 3.33Z" fill="#fff" stroke="#6C6E79" stroke-width=".7" stroke-linecap="round" stroke-linejoin="round"/><path d="M65.682 18.569 11.076 30.513 9.73 25.822c-.966-3.372 1.161-6.853 4.612-7.556l43.05-8.733c3.147-.638 6.25 1.286 7.053 4.377l1.227 4.67.01-.011Z" fill="#6C6E79"/><path d="M18.433 23.174a1.873 1.873 0 0 1-1.421 2.367c-1.096.238-2.236-.454-2.54-1.524a1.868 1.868 0 0 1 1.433-2.367c1.096-.227 2.224.464 2.528 1.535v-.011Z" fill="#fff"/><path d="M25.444 21.693c.293 1.06-.326 2.108-1.4 2.335-1.075.227-2.192-.454-2.485-1.524-.293-1.07.325-2.12 1.41-2.346 1.086-.227 2.182.465 2.475 1.524v.01Z" fill="#E0E1E9"/><path d="M11.097 30.6s.326-3.157.608-6.389l-1.378-3.08-3.43 5.88a6.507 6.507 0 0 0-.216.367v.022a5.619 5.619 0 0 0-.456 4.248l1.4 4.908 3.472-5.967v.01Z" fill="#6C6E79"/><path d="M33.658 33.852a14.135 14.135 0 0 0-1.67 12.35c.216.672.487 1.324.813 1.953.369.727.792 1.422 1.291 2.073a14.156 14.156 0 0 0 3.473 3.288c6.5 4.351 15.312 2.615 19.664-3.896 4.351-6.5 2.615-15.312-3.896-19.664a14.152 14.152 0 0 0-13.24-1.345 14.146 14.146 0 0 0-6.424 5.241h-.01Z" fill="#fff"/><path d="m65.266 51.033-16.328 4.326-7.521-27.593L58.074 24l7.192 27.033ZM45.677 56.215 28.472 60.77 20.5 32.487l17.579-3.975 7.598 27.703Z" fill="#fff" stroke="#E0E1E9" stroke-width=".7" stroke-linecap="round" stroke-linejoin="round"/><path d="m49.597 41.82 8.466-2.086M50.234 44.159l8.444-2.108M50.87 46.498l8.422-2.142M51.497 48.826l8.421-2.163M56.449 31.993c.56 2.262-1.022 4.634-3.536 5.292-2.536.67-5.062-.647-5.633-2.931-.57-2.284 1.043-4.678 3.59-5.325 2.548-.648 5.019.691 5.579 2.964v0Z" stroke="#6C6E79" stroke-width=".7" stroke-linecap="round" stroke-linejoin="round"/><path d="m53.594 31.85-1.757 2.877-1.768-.758M29.152 46.871l8.927-2.207M29.823 49.265l8.904-2.23M30.492 51.658l8.894-2.25M31.162 54.04l8.872-2.272M36.377 36.78c.593 2.306-1.076 4.722-3.722 5.413-2.668.692-5.336-.614-5.94-2.953-.604-2.339 1.098-4.776 3.777-5.446 2.668-.67 5.292.67 5.885 2.975v.011ZM32.896 36.088 30.25 39.92M33.654 39.042l-4.172-2.086" stroke="#6C6E79" stroke-width=".7" stroke-linecap="round" stroke-linejoin="round"/></svg>