<svg width="80" height="80" viewBox="0 0 80 80" fill="none" xmlns="http://www.w3.org/2000/svg"><path d="M26.69 0c-.46 0-.91.187-1.24.516l-14.26 14.26c-14.92 14.92-14.92 39.115 0 54.035 14.919 14.919 39.114 14.919 54.034 0l14.26-14.26c.33-.33.516-.77.516-1.242V.989A.984.984 0 0 0 79.012 0H26.69Z" fill="#E0E1E9"/><path d="M66.16 57.374s.087-.054.12-.087l6.521-4.323-3.147-1.697-3.147.756-8.334-31.681a5.73 5.73 0 0 0-6.707-4.15l-39.74 8.063-1.4-3.124-3.428 5.88a6.507 6.507 0 0 0-.217.368v.021a5.618 5.618 0 0 0-.456 4.248l10.472 36.654a2.599 2.599 0 0 0 3.19 1.794l45.459-12.344c.271-.076.52-.205.749-.346l.054-.032h.01Z" fill="#E0E1E9" stroke="#6C6E79" stroke-width=".7" stroke-linecap="round" stroke-linejoin="round"/><path d="M72.02 53.31 24.152 66.313a2.747 2.747 0 0 1-3.364-1.892L9.752 25.822c-.966-3.372 1.16-6.853 4.612-7.556l43.05-8.744c3.146-.638 6.25 1.286 7.053 4.377L73.95 49.98a2.729 2.729 0 0 1-1.931 3.33Z" fill="#fff" stroke="#6C6E79" stroke-width=".7" stroke-linecap="round" stroke-linejoin="round"/><path d="M65.682 18.57 11.076 30.512l-1.346-4.69c-.966-3.373 1.161-6.854 4.612-7.556l43.05-8.734c3.147-.638 6.25 1.286 7.053 4.378l1.227 4.669.01-.01Z" fill="#6C6E79"/><path d="M18.433 23.174a1.873 1.873 0 0 1-1.421 2.367c-1.096.238-2.236-.454-2.54-1.524a1.868 1.868 0 0 1 1.433-2.367c1.096-.227 2.224.465 2.528 1.535v-.011Z" fill="#fff"/><path d="M25.444 21.693c.293 1.06-.326 2.108-1.4 2.335-1.075.227-2.192-.454-2.485-1.524-.293-1.07.325-2.12 1.41-2.346 1.086-.227 2.182.465 2.475 1.524v.01Z" fill="#E0E1E9"/><path d="M11.097 30.6s.326-3.157.608-6.389l-1.378-3.08-3.43 5.88a6.507 6.507 0 0 0-.216.367v.022a5.619 5.619 0 0 0-.456 4.248l1.4 4.908 3.472-5.967v.01Z" fill="#6C6E79"/><path d="M33.658 33.852a14.135 14.135 0 0 0-1.67 12.35c.216.672.487 1.324.813 1.953.369.727.792 1.422 1.291 2.073a14.156 14.156 0 0 0 3.473 3.288c6.5 4.351 15.312 2.615 19.664-3.896 4.351-6.5 2.615-15.312-3.896-19.664a14.152 14.152 0 0 0-13.24-1.345 14.146 14.146 0 0 0-6.424 5.241h-.01Z" fill="#fff"/><path d="M51.69 40.054c-1.141-4.216-6.06-6.642-10.714-5.028-3.49 1.208-5.741 4.523-5.346 7.904.296 2.547 1.899 4.556 4.073 5.654 1.899.955 3.38 2.448 4.083 4.314l.023.066 5.653-1.493v-.066c-.34-1.866 0-3.831 1.131-5.445 1.197-1.701 1.658-3.82 1.087-5.906h.01Z" fill="#fff" stroke="#6C6E79" stroke-width=".7" stroke-linecap="round" stroke-linejoin="round"/><path d="m50.9 54.545-6.751 1.823c-.527.142-1.065-.132-1.197-.615l-.746-2.734c-.132-.483.186-.988.724-1.12l6.774-1.778c.516-.132 1.042.143 1.174.615l.736 2.7c.132.473-.187.967-.703 1.11h-.01Z" fill="#6C6E79"/><path d="m43.216 39.66 1.394 5.093M46.696 41.514l-5.588 1.395M29.91 34.795l2.613 1.384M50.57 31.92l1.472-2.284M40.734 30.613 40.021 28l.713 2.613ZM56.356 39.11l2.745-.68M57.388 49.352l-2.437-1.295M30.986 45.422 28 46.17l2.986-.747ZM37.1 52.723l-1.547 2.404" stroke="#6C6E79" stroke-width=".7" stroke-linecap="round" stroke-linejoin="round"/></svg>