<svg width="80" height="80" viewBox="0 0 80 80" fill="none" xmlns="http://www.w3.org/2000/svg"><path d="M76.426 41.408c0-15.563-9.761-28.837-23.493-34.053L49.06.64A1.274 1.274 0 0 0 47.952 0H32.048c-.457 0-.872.245-1.107.639l-3.874 6.716C13.335 12.571 3.574 25.845 3.574 41.408c0 1.98.16 3.928.468 5.822L.168 53.947a1.3 1.3 0 0 0 0 1.277L8.119 69c.224.394.65.638 1.107.638h7.76A36.269 36.269 0 0 0 40 77.834a36.269 36.269 0 0 0 23.014-8.197h7.76c.457 0 .873-.244 1.107-.638l7.951-13.774a1.3 1.3 0 0 0 0-1.278l-3.874-6.717c.308-1.894.468-3.842.468-5.822Z" fill="#E0E1E9"/><path d="M66.16 57.374s.087-.054.12-.087l6.521-4.323-3.147-1.697-3.147.756-8.334-31.681a5.73 5.73 0 0 0-6.707-4.15l-39.74 8.063-1.4-3.124-3.428 5.88a6.507 6.507 0 0 0-.217.368v.021a5.618 5.618 0 0 0-.456 4.248l10.472 36.654a2.599 2.599 0 0 0 3.19 1.794l45.459-12.344c.271-.076.52-.205.749-.346l.054-.032h.01Z" fill="#E0E1E9" stroke="#6C6E79" stroke-width=".7" stroke-linecap="round" stroke-linejoin="round"/><path d="M72.02 53.31 24.152 66.313a2.747 2.747 0 0 1-3.364-1.892L9.752 25.822c-.966-3.372 1.16-6.853 4.612-7.556l43.05-8.744c3.146-.638 6.25 1.286 7.053 4.377L73.95 49.98a2.729 2.729 0 0 1-1.931 3.33Z" fill="#fff" stroke="#6C6E79" stroke-width=".7" stroke-linecap="round" stroke-linejoin="round"/><path d="M65.682 18.57 11.076 30.512l-1.346-4.69c-.966-3.373 1.161-6.854 4.612-7.556l43.05-8.734c3.147-.638 6.25 1.286 7.053 4.378l1.227 4.669.01-.01Z" fill="#6C6E79"/><path d="M18.433 23.174a1.873 1.873 0 0 1-1.421 2.367c-1.096.238-2.236-.454-2.54-1.524a1.868 1.868 0 0 1 1.433-2.367c1.096-.227 2.224.465 2.528 1.535v-.011Z" fill="#fff"/><path d="M25.444 21.693c.293 1.06-.326 2.108-1.4 2.335-1.075.227-2.192-.454-2.485-1.524-.293-1.07.325-2.12 1.41-2.346 1.086-.227 2.182.465 2.475 1.524v.01Z" fill="#E0E1E9"/><path d="M11.097 30.6s.326-3.157.608-6.389l-1.378-3.08-3.43 5.88a6.507 6.507 0 0 0-.216.367v.022a5.619 5.619 0 0 0-.456 4.248l1.4 4.908 3.472-5.967v.01Z" fill="#6C6E79"/><path d="m30.814 30.13 7.6 27.303M48.623 26l7.302 26.728M21 47.247 64.888 36.26" stroke="#6C6E79" stroke-width=".7" stroke-linecap="round" stroke-linejoin="round"/></svg>