<svg width="80" height="80" viewBox="0 0 80 80" fill="none" xmlns="http://www.w3.org/2000/svg">
  <path d="M65.25 14.84a35.54 35.54 0 0 0-25.2-10.46V1.9c0-.5-.42-.91-.91-.91A39.04 39.04 0 0 0 13.1 11.79a.9.9 0 0 0 0 1.24l1.73 1.73a35.54 35.54 0 0 0-10.46 25.2H1.9c-.5 0-.91.41-.91.9A39.04 39.04 0 0 0 11.79 66.9a.9.9 0 0 0 1.24 0l1.73-1.73a35.54 35.54 0 0 0 25.2 10.46v2.47c0 .5.41.91.9.91A39.04 39.04 0 0 0 66.9 68.21a.9.9 0 0 0 0-1.24l-1.73-1.72a35.54 35.54 0 0 0 10.46-25.2h2.47c.5 0 .91-.42.91-.91A39.04 39.04 0 0 0 68.21 13.1a.9.9 0 0 0-1.24 0l-1.72 1.73Z" fill="#E0E1E9"/>
  <path d="M65.92 57.62s.1-.06.12-.09l6.5-4.32-3.14-1.7-3.13.76-8.3-31.68a5.7 5.7 0 0 0-6.68-4.15L11.7 24.51l-1.4-3.12-3.4 5.88a6.5 6.5 0 0 0-.22.37v.02a5.64 5.64 0 0 0-.46 4.25l10.44 36.64a2.59 2.59 0 0 0 3.18 1.8L65.11 58c.27-.08.52-.2.75-.35l.05-.03.01-.01Z" fill="#E0E1E9" stroke="#6C6E79" stroke-width=".7" stroke-linecap="round" stroke-linejoin="round"/>
  <path d="m71.76 53.55-47.67 13a2.73 2.73 0 0 1-3.35-1.89l-11-38.59a6.03 6.03 0 0 1 4.6-7.55l42.88-8.75a6.02 6.02 0 0 1 7.02 4.38l9.45 36.07a2.73 2.73 0 0 1-1.93 3.33Z" fill="#fff"/>
  <path d="M65.45 18.82 11.07 30.76l-1.34-4.69a6.03 6.03 0 0 1 4.6-7.55L57.2 9.77a6.02 6.02 0 0 1 7.02 4.38l1.22 4.67Z" fill="#6C6E79"/>
  <path d="M18.4 23.43a1.87 1.87 0 0 1-1.42 2.36 2.2 2.2 0 0 1-2.53-1.52 1.87 1.87 0 0 1 1.43-2.37 2.2 2.2 0 0 1 2.51 1.54v-.01Z" fill="#fff"/>
  <path d="M25.38 21.96c.29 1.06-.33 2.1-1.4 2.33a2.15 2.15 0 0 1-2.47-1.52 1.85 1.85 0 0 1 1.4-2.35 2.14 2.14 0 0 1 2.47 1.53Z" fill="#E0E1E9"/>
  <path d="M11.09 30.86s.32-3.15.6-6.39l-1.37-3.08-3.42 5.88a6.5 6.5 0 0 0-.21.37v.02a5.64 5.64 0 0 0-.46 4.25l1.4 4.9 3.46-5.96v.01Z" fill="#6C6E79"/>
  <path d="m71.76 53.55-47.67 13a2.73 2.73 0 0 1-3.35-1.89l-11-38.59a6.03 6.03 0 0 1 4.6-7.55l42.88-8.75a6.02 6.02 0 0 1 7.02 4.38l9.45 36.07a2.73 2.73 0 0 1-1.93 3.33Z" stroke="#6C6E79" stroke-width=".7" stroke-linecap="round" stroke-linejoin="round"/>
  <path d="M26 43.23a2.25 2.25 0 0 1-2.7-1.58l-1.24-4.4a2.25 2.25 0 0 1 4.33-1.2l1.22 4.4a2.26 2.26 0 0 1-1.63 2.78H26Z" stroke="#6C6E79" stroke-width=".7" stroke-linecap="round" stroke-linejoin="round"/>
  <path d="m44.9 35.92-13.4 3.24a1.8 1.8 0 0 1-2.16-1.28l-.02-.07c-.27-.99.33-2 1.33-2.24l13.41-3.17a1.8 1.8 0 0 1 .85 3.52Z" fill="#E0E1E9" stroke="#6C6E79" stroke-width=".7" stroke-linecap="round" stroke-linejoin="round"/>
  <path d="M63.65 42.3c.26.98-.33 1.97-1.3 2.23l-18.1 4.76a1.87 1.87 0 1 1-.94-3.62L61.43 41c.97-.25 1.96.32 2.22 1.3v0Z" stroke="#6C6E79" stroke-width=".7" stroke-linecap="round" stroke-linejoin="round"/>
  <path d="m39.1 46.4 1.16 4.2a2.1 2.1 0 1 1-4.04 1.12l-1.16-4.2a2.1 2.1 0 1 1 4.05-1.12h0Z" fill="#E0E1E9" stroke="#6C6E79" stroke-width=".7" stroke-linecap="round" stroke-linejoin="round"/>
  <mask id="a" style="mask-type:alpha" maskUnits="userSpaceOnUse" x="41" y="40" width="24" height="10">
    <path d="M63.65 42.3c.26.98-.33 1.97-1.3 2.23l-18.1 4.76a1.87 1.87 0 1 1-.94-3.62L61.43 41c.97-.25 1.96.32 2.22 1.3Z" fill="#D9D9D9" stroke="#000" stroke-width=".7" stroke-linecap="round" stroke-linejoin="round"/>
  </mask>
  <g mask="url(#a)" stroke="#6C6E79" stroke-width=".7" stroke-miterlimit="10">
    <path d="M50.12 29.2 36.91 48.48M53.87 31.47 39.35 52.64M58.65 32.26 43.3 54.64M62.8 33.95 49.58 53.23M66.55 36.23 52.03 57.4"/>
  </g>
  <mask id="b" style="mask-type:alpha" maskUnits="userSpaceOnUse" x="21" y="34" width="8" height="10">
    <path d="M26 43.23a2.25 2.25 0 0 1-2.7-1.58l-1.24-4.4a2.25 2.25 0 0 1 4.33-1.2l1.22 4.4a2.26 2.26 0 0 1-1.63 2.78H26Z" fill="#D9D9D9" stroke="#000" stroke-width=".7" stroke-linecap="round" stroke-linejoin="round"/>
  </mask>
  <g mask="url(#b)" stroke="#6C6E79" stroke-width=".7" stroke-miterlimit="10">
    <path d="M22.63 22.85 9.41 42.14M26.38 25.12 11.86 46.3M31.16 25.9 15.8 48.28M35.31 27.6 22.09 46.88M39.06 29.88 24.53 51.05"/>
  </g>
</svg>
