<svg width="80" height="80" viewBox="0 0 80 80" fill="none" xmlns="http://www.w3.org/2000/svg"><path d="M65.245 14.837c-6.425-6.424-15.32-10.46-25.204-10.46V1.906A.914.914 0 0 0 39.135 1c-10.048.247-19.191 4.283-26.027 10.79a.896.896 0 0 0 0 1.235l1.73 1.73C8.412 21.18 4.376 30.075 4.376 39.959H1.906a.914.914 0 0 0-.906.906c.247 10.048 4.283 19.191 10.79 26.027.33.33.906.33 1.235 0l1.73-1.73c6.425 6.425 15.32 10.461 25.204 10.461v2.471c0 .494.412.906.906.906 10.048-.247 19.191-4.283 26.027-10.79a.896.896 0 0 0 0-1.235l-1.73-1.73c6.425-6.425 10.461-15.32 10.461-25.204h2.47a.914.914 0 0 0 .907-.906c-.247-10.048-4.283-19.191-10.79-26.027a.896.896 0 0 0-1.235 0l-1.73 1.73Z" fill="#E0E1E9"/><path d="M65.925 57.617s.086-.054.119-.087l6.495-4.323-3.134-1.697-3.134.757-8.3-31.677a5.705 5.705 0 0 0-6.68-4.15l-39.588 8.073-1.394-3.123-3.415 5.88a6.502 6.502 0 0 0-.216.367v.021a5.638 5.638 0 0 0-.454 4.247l10.44 36.649a2.587 2.587 0 0 0 3.177 1.794l45.273-12.342a2.94 2.94 0 0 0 .746-.346l.054-.032.01-.011Z" fill="#E0E1E9" stroke="#6C6E79" stroke-width=".7" stroke-linecap="round" stroke-linejoin="round"/><path d="M71.762 53.553 24.09 66.555a2.734 2.734 0 0 1-3.35-1.892L9.749 26.07c-.962-3.372 1.156-6.852 4.593-7.555l42.873-8.743c3.134-.638 6.225 1.286 7.025 4.377l9.446 36.075a2.73 2.73 0 0 1-1.924 3.33Z" fill="#fff"/><path d="M65.452 18.818 11.068 30.76l-1.34-4.69c-.962-3.372 1.156-6.852 4.593-7.555l42.885-8.743c3.134-.638 6.225 1.286 7.024 4.377l1.222 4.669Z" fill="#6C6E79"/><path d="M18.394 23.428a1.873 1.873 0 0 1-1.416 2.366c-1.081.238-2.227-.454-2.53-1.523a1.868 1.868 0 0 1 1.428-2.367c1.091-.227 2.215.465 2.518 1.534v-.01Z" fill="#fff"/><path d="M25.375 21.958c.292 1.059-.324 2.107-1.394 2.334-1.07.227-2.183-.454-2.475-1.524-.292-1.07.324-2.118 1.405-2.345 1.08-.227 2.172.465 2.464 1.524v.01Z" fill="#E0E1E9"/><path d="M11.087 30.862s.324-3.156.605-6.387l-1.373-3.08-3.415 5.879a6.509 6.509 0 0 0-.216.367v.022a5.638 5.638 0 0 0-.454 4.247l1.394 4.907 3.459-5.966v.01Z" fill="#6C6E79"/><path d="M71.762 53.553 24.09 66.555a2.734 2.734 0 0 1-3.35-1.892L9.749 26.07c-.962-3.372 1.156-6.852 4.593-7.555l42.873-8.743c3.134-.638 6.225 1.286 7.025 4.377l9.446 36.075a2.73 2.73 0 0 1-1.924 3.33Z" stroke="#6C6E79" stroke-width=".7" stroke-linecap="round" stroke-linejoin="round"/><path d="M25.993 43.23a2.247 2.247 0 0 1-2.701-1.578l-1.233-4.398a2.255 2.255 0 0 1 1.654-2.8 2.258 2.258 0 0 1 2.68 1.59l1.221 4.398a2.256 2.256 0 0 1-1.631 2.788h.01Z" stroke="#6C6E79" stroke-width=".7" stroke-linecap="round" stroke-linejoin="round"/><path d="m44.907 35.917-13.401 3.242a1.802 1.802 0 0 1-2.162-1.276l-.022-.075c-.27-.984.325-2 1.33-2.237l13.412-3.167a1.809 1.809 0 0 1 2.161 1.286 1.803 1.803 0 0 1-1.318 2.227Z" fill="#E0E1E9" stroke="#6C6E79" stroke-width=".7" stroke-linecap="round" stroke-linejoin="round"/><path d="M63.646 42.306a1.821 1.821 0 0 1-1.297 2.226l-18.103 4.756a1.87 1.87 0 1 1-.94-3.62l18.124-4.66a1.819 1.819 0 0 1 2.216 1.298v0Z" stroke="#6C6E79" stroke-width=".7" stroke-linecap="round" stroke-linejoin="round"/><path d="m39.102 46.404 1.156 4.204a2.096 2.096 0 1 1-4.042 1.113l-1.156-4.204a2.103 2.103 0 0 1 4.053-1.113h-.011Z" fill="#E0E1E9" stroke="#6C6E79" stroke-width=".7" stroke-linecap="round" stroke-linejoin="round"/><path d="M44.23 45.53 42.26 48.4M50.742 43.785l-3.164 4.61M57.241 42.058l-3.175 4.632M63.036 41.36l-2.48 3.614M25.073 34.774l-2.639 3.849M27.238 39.37l-2.573 3.754" stroke="#6C6E79" stroke-width=".7" stroke-miterlimit="10"/></svg>