<svg xmlns="http://www.w3.org/2000/svg" width="80" height="80" fill="none" viewBox="0 0 80 80">
  <path fill="#E0E1E9" d="M40.51 80c21.98-.29 39.47-18.61 39.47-40.6V.99a1 1 0 0 0-1-.99H54.32a1 1 0 0 0-1 .99v2.75H27.65a1 1 0 0 0-1 1V40H1A.98.98 0 0 0 0 41 40 40 0 0 0 40.52 80"/>
  <path fill="#E0E1E9" stroke="#6C6E79" stroke-linecap="round" stroke-linejoin="round" stroke-width=".7" d="m66.16 57.37.12-.08 6.52-4.33-3.15-1.7-3.14.76-8.34-31.68a5.73 5.73 0 0 0-6.7-4.15l-39.74 8.06-1.4-3.12-3.43 5.88a6.5 6.5 0 0 0-.22.37v.02a5.62 5.62 0 0 0-.46 4.25L16.7 68.3a2.6 2.6 0 0 0 3.19 1.8l45.46-12.35c.27-.07.52-.2.74-.34l.06-.04h0Z"/>
  <path fill="#fff" stroke="#6C6E79" stroke-linecap="round" stroke-linejoin="round" stroke-width=".7" d="m72.02 53.31-47.87 13a2.75 2.75 0 0 1-3.36-1.89L9.75 25.82a6.03 6.03 0 0 1 4.61-7.55l43.05-8.75a6.04 6.04 0 0 1 7.06 4.38l9.48 36.08a2.73 2.73 0 0 1-1.93 3.33Z"/>
  <path fill="#6C6E79" d="m65.68 18.57-54.6 11.94-1.35-4.69a6.03 6.03 0 0 1 4.61-7.55L57.4 9.53a6.04 6.04 0 0 1 7.05 4.38l1.23 4.67.01-.01Z"/>
  <path fill="#fff" d="M18.43 23.17a1.87 1.87 0 0 1-1.42 2.37 2.2 2.2 0 0 1-2.54-1.52 1.87 1.87 0 0 1 1.44-2.37 2.2 2.2 0 0 1 2.52 1.53Z"/>
  <path fill="#E0E1E9" d="M25.44 21.7c.3 1.05-.32 2.1-1.4 2.33a2.15 2.15 0 0 1-2.48-1.53 1.85 1.85 0 0 1 1.4-2.34 2.15 2.15 0 0 1 2.48 1.52v.01Z"/>
  <path fill="#6C6E79" d="M11.1 30.6s.32-3.16.6-6.39l-1.37-3.08-3.43 5.88a6.5 6.5 0 0 0-.22.37v.02a5.62 5.62 0 0 0-.45 4.25l1.4 4.9 3.47-5.96Z"/>
  <path fill="#fff" d="M33.66 33.85a14.13 14.13 0 0 0-1.67 12.35 13.24 13.24 0 0 0 2.1 4.03 14.16 14.16 0 0 0 3.48 3.29 14.17 14.17 0 1 0 15.76-23.56A14.15 14.15 0 0 0 40.1 28.6a14.15 14.15 0 0 0-6.42 5.24h-.01Z"/>
  <path stroke="#6C6E79" stroke-linecap="round" stroke-linejoin="round" stroke-width=".7" d="M26.12 35.85 55.75 29M28.73 45.19l23.34-5.69M31.33 54.47l35.24-9.03"/>
  <path fill="#6C6E79" d="M22.32 36.74c.24.84-.3 1.7-1.2 1.92-.9.22-1.82-.31-2.06-1.16-.24-.85.3-1.72 1.2-1.93.9-.2 1.82.32 2.06 1.18v-.01Zm2.64 9.37c.24.85-.3 1.71-1.2 1.94a1.7 1.7 0 0 1-2.05-1.14c-.24-.85.3-1.72 1.2-1.94.9-.22 1.82.3 2.06 1.14h-.01Zm2.62 9.32c.24.84-.3 1.7-1.18 1.94-.89.22-1.8-.28-2.04-1.11-.24-.84.29-1.72 1.18-1.95.9-.23 1.8.27 2.04 1.12Z"/>
</svg>
