<svg width="80" height="80" viewBox="0 0 80 80" fill="none" xmlns="http://www.w3.org/2000/svg">
  <path d="M3 40.99A38.86 38.86 0 0 0 41.24 79c.5 0 .92-.41.92-.9v-2.47C61.94 75.63 78 59.66 78 40 78 20.34 61.94 4.37 42.16 4.37V1.91c0-.5-.42-.91-.91-.91a39.36 39.36 0 0 0-26.16 10.78.9.9 0 0 0 0 1.23l1.73 1.73a35.4 35.4 0 0 0-10.5 25.18h-2.5c-.4.16-.82.57-.82 1.07Z" fill="#E0E1E9"/>
  <path d="M65.92 57.6s.1-.05.12-.08l6.5-4.32-3.14-1.7-3.13.76-8.3-31.68a5.7 5.7 0 0 0-6.68-4.15L11.7 24.5l-1.4-3.12-3.4 5.88-.22.37v.02a5.64 5.64 0 0 0-.46 4.25l10.44 36.64a2.59 2.59 0 0 0 3.18 1.8L65.11 58c.27-.08.52-.21.75-.35l.05-.03.01-.01Z" fill="#E0E1E9" stroke="#6C6E79" stroke-width=".7" stroke-linecap="round" stroke-linejoin="round"/>
  <path d="m71.76 53.55-47.67 13a2.73 2.73 0 0 1-3.35-1.89l-11-38.59a6.03 6.03 0 0 1 4.6-7.55L57.2 9.77a6.02 6.02 0 0 1 7.03 4.38l9.44 36.07a2.73 2.73 0 0 1-1.92 3.33Z" fill="#fff"/>
  <path d="M65.45 18.82 11.06 30.76l-1.34-4.69a6.03 6.03 0 0 1 4.6-7.55L57.2 9.77a6.02 6.02 0 0 1 7.03 4.38l1.22 4.67Z" fill="#6C6E79"/>
  <path d="M18.4 23.42a1.87 1.87 0 0 1-1.42 2.37 2.19 2.19 0 0 1-2.53-1.53 1.87 1.87 0 0 1 1.43-2.37 2.2 2.2 0 0 1 2.51 1.54v-.01Z" fill="#fff"/>
  <path d="M25.37 21.94c.3 1.06-.32 2.1-1.4 2.33a2.15 2.15 0 0 1-2.47-1.52 1.85 1.85 0 0 1 1.4-2.35 2.14 2.14 0 0 1 2.47 1.53Z" fill="#E0E1E9"/>
  <path d="M11.09 30.84s.32-3.15.6-6.38l-1.37-3.09-3.42 5.88a6.5 6.5 0 0 0-.21.37v.02a5.64 5.64 0 0 0-.46 4.25l1.4 4.9 3.46-5.96v.01Z" fill="#6C6E79"/>
  <path d="m71.76 53.55-47.67 13a2.73 2.73 0 0 1-3.35-1.89l-11-38.59a6.03 6.03 0 0 1 4.6-7.55L57.2 9.77a6.02 6.02 0 0 1 7.03 4.38l9.44 36.07a2.73 2.73 0 0 1-1.92 3.33Z" stroke="#6C6E79" stroke-width=".7" stroke-linecap="round" stroke-linejoin="round"/>
  <path d="m67.07 51.28-38.9 10.47-8.37-29.52" stroke="#6C6E79" stroke-width=".7" stroke-linecap="round" stroke-linejoin="round"/>
  <path d="M50.83 41.06c1.36 5-2.14 10.26-7.9 11.77-5.85 1.53-11.8-1.35-13.22-6.48-1.43-5.13 2.26-10.47 8.17-11.87 5.82-1.39 11.59 1.58 12.95 6.58Z" fill="#6C6E79" stroke="#6C6E79" stroke-width=".7" stroke-linecap="round" stroke-linejoin="round"/>
  <path d="M57.36 31.9c1.03 3.82-1.61 7.77-5.96 8.86-4.39 1.1-8.85-1.15-9.9-5.04-1.08-3.9 1.68-7.91 6.1-8.94 4.37-1.02 8.73 1.28 9.76 5.11Z" fill="#fff" stroke="#6C6E79" stroke-width=".7" stroke-linecap="round" stroke-linejoin="round"/>
  <path d="M41.26 34.15c.01.52.08 1.04.23 1.57 1.02 3.7 5.11 5.92 9.28 5.18-1.16-3.94-5.04-6.56-9.5-6.74v0Z" fill="#E0E1E9" stroke="#6C6E79" stroke-width=".7" stroke-linecap="round" stroke-linejoin="round"/>
  <mask id="a" maskUnits="userSpaceOnUse" x="40" y="33" width="12" height="9">
    <path d="M41.26 34.15c.01.52.08 1.04.23 1.57 1.02 3.7 5.11 5.92 9.28 5.18-1.16-3.94-5.04-6.56-9.5-6.74v0Z" fill="#45DFA7" stroke="#000" stroke-width=".7" stroke-linecap="round" stroke-linejoin="round"/>
  </mask>
  <g mask="url(#a)" stroke="#6C6E79" stroke-width=".7" stroke-miterlimit="10">
    <path d="m46.18 25.45-8.43 12.3M49.79 27.93l-8.43 12.29M53.4 30.4 43.8 44.4M57 32.88l-9.24 13.49"/>
  </g>
</svg>
