<svg width="80" height="80" viewBox="0 0 80 80" fill="none" xmlns="http://www.w3.org/2000/svg"><path d="M40.585 78.997C61.996 78.727 79 60.873 79 39.412V1.992A1 1 0 0 0 78.01 1H53.99a1 1 0 0 0-.99.992v2.705H27.99a1 1 0 0 0-.99.992v34.355H1.99a1 1 0 0 0-.99.991c.63 21.19 18.173 38.232 39.585 37.962Z" fill="#E0E1E9"/><path d="M65.925 57.607s.086-.054.119-.087l6.495-4.323-3.134-1.696-3.134.756-8.3-31.677a5.705 5.705 0 0 0-6.68-4.15l-39.588 8.073-1.394-3.123-3.415 5.88a6.504 6.504 0 0 0-.216.367v.021a5.637 5.637 0 0 0-.454 4.248l10.44 36.648a2.587 2.587 0 0 0 3.177 1.794l45.273-12.342a2.94 2.94 0 0 0 .746-.346l.054-.032.01-.011Z" fill="#E0E1E9" stroke="#6C6E79" stroke-width=".7" stroke-linecap="round" stroke-linejoin="round"/><path d="M71.762 53.554 24.09 66.555a2.734 2.734 0 0 1-3.35-1.891L9.749 26.07c-.962-3.372 1.156-6.852 4.593-7.554l42.873-8.744c3.134-.637 6.225 1.286 7.025 4.377l9.446 36.076a2.73 2.73 0 0 1-1.924 3.329Z" fill="#fff"/><path d="M65.452 18.818 11.068 30.761l-1.34-4.69c-.962-3.373 1.156-6.853 4.593-7.555l42.885-8.744c3.134-.637 6.225 1.286 7.024 4.377l1.222 4.67Z" fill="#6C6E79"/><path d="M18.394 23.419a1.873 1.873 0 0 1-1.416 2.366c-1.092.238-2.227-.454-2.53-1.523a1.868 1.868 0 0 1 1.428-2.367c1.091-.227 2.215.464 2.518 1.534v-.01Z" fill="#fff"/><path d="M25.375 21.938c.292 1.06-.324 2.108-1.394 2.335-1.07.227-2.183-.454-2.475-1.524-.292-1.07.324-2.118 1.405-2.345 1.08-.227 2.172.464 2.464 1.523v.011Z" fill="#E0E1E9"/><path d="M11.087 30.842s.324-3.155.605-6.387l-1.373-3.08-3.415 5.88a6.509 6.509 0 0 0-.216.367v.021a5.637 5.637 0 0 0-.454 4.248l1.394 4.906 3.459-5.965v.01Z" fill="#6C6E79"/><path d="M71.762 53.554 24.09 66.555a2.734 2.734 0 0 1-3.35-1.891L9.749 26.07c-.962-3.372 1.156-6.852 4.593-7.554l42.873-8.744c3.134-.637 6.225 1.286 7.025 4.377l9.446 36.076a2.73 2.73 0 0 1-1.924 3.329Z" stroke="#6C6E79" stroke-width=".7" stroke-linecap="round" stroke-linejoin="round"/><path d="m34 41.806-7.057 1.707a.795.795 0 0 0-.573.984l3.34 11.92 8.505-2.215-3.274-11.845a.794.794 0 0 0-.952-.562l.011.01Z" stroke="#6C6E79" stroke-width=".7" stroke-linecap="round" stroke-linejoin="round"/><path d="m44.215 28.759-6.809 1.545a.784.784 0 0 0-.583.984l5.966 21.723 8.213-2.14-5.836-21.55a.782.782 0 0 0-.94-.562h-.01Z" fill="#6C6E79" stroke="#6C6E79" stroke-width=".7" stroke-linecap="round" stroke-linejoin="round"/><path d="m58.285 31.606-6.495 1.513a.786.786 0 0 0-.584.973l4.193 15.638 7.933-2.064-4.096-15.498a.787.787 0 0 0-.94-.562h-.011Z" fill="#E0E1E9" stroke="#6C6E79" stroke-width=".7" stroke-linecap="round" stroke-linejoin="round"/><path d="m23.355 61.283 46.84-12.386M27.56 48.601l4.306-6.276M35.5 44.764l-6.423 9.36M33.5 55.417l3.593-5.244" stroke="#6C6E79" stroke-width=".7" stroke-linecap="round" stroke-linejoin="round"/></svg>