<svg width="80" height="80" viewBox="0 0 80 80" fill="none" xmlns="http://www.w3.org/2000/svg">
  <path d="M40 4.24V1.88a.88.88 0 0 0-.98-.87A39.24 39.24 0 0 0 4.26 40H1.88a.88.88 0 0 0-.87.97A39.24 39.24 0 0 0 40 75.74v2.36c0 .52.45.94.97.87a39.24 39.24 0 0 0 34.77-38.99h2.37a.9.9 0 0 0 .89-.97A39.24 39.24 0 0 0 40 4.24" fill="#E0E1E9"/>
  <path d="m65.23 59.85.12-.09 6.5-4.33-3.13-1.7-3.14.76-8.32-31.75a5.72 5.72 0 0 0-6.7-4.16l-39.67 8.1-1.4-3.14-3.41 5.9-.22.36v.03a5.65 5.65 0 0 0-.46 4.25l10.47 36.73a2.6 2.6 0 0 0 3.18 1.8l45.37-12.37c.27-.08.52-.2.74-.35l.06-.03.01-.01Z" fill="#6C6E79" stroke="#6C6E79" stroke-width=".7" stroke-linecap="round" stroke-linejoin="round"/>
  <path d="M71.08 55.78 23.3 68.8a2.74 2.74 0 0 1-3.36-1.9L8.93 28.24a6.04 6.04 0 0 1 4.6-7.57L56.5 11.9a6.03 6.03 0 0 1 7.04 4.39l9.47 36.15a2.74 2.74 0 0 1-1.93 3.34Z" fill="#fff"/>
  <path d="m63.1 16 1.14 4.3-53.92 11.8-1.25-4.37a5.68 5.68 0 0 1 4.34-7.12l43.05-8.73A5.7 5.7 0 0 1 63.11 16Z" fill="#E0E1E9" stroke="#6C6E79" stroke-width=".7"/>
  <path d="M17.6 25.58a1.88 1.88 0 0 1-1.42 2.37 2.2 2.2 0 0 1-2.53-1.52 1.87 1.87 0 0 1 1.42-2.38 2.2 2.2 0 0 1 2.53 1.54ZM24.6 24.1a1.85 1.85 0 0 1-1.4 2.35 2.15 2.15 0 0 1-2.48-1.53 1.85 1.85 0 0 1 1.4-2.35 2.14 2.14 0 0 1 2.47 1.53Z" fill="#6C6E79"/>
  <path d="M71.08 55.78 23.3 68.8a2.74 2.74 0 0 1-3.36-1.9L8.93 28.24a6.04 6.04 0 0 1 4.6-7.57L56.5 11.9a6.03 6.03 0 0 1 7.04 4.39l9.47 36.15a2.74 2.74 0 0 1-1.93 3.34Z" stroke="#6C6E79" stroke-linecap="round" stroke-linejoin="round"/>
  <path d="m57.23 37.54-36.2 9.06-1.87-6.6 36.4-8.8c.46-.1.93.16 1.06.63l1.26 4.62a.88.88 0 0 1-.64 1.09h-.01ZM52.34 49.72l-28.3 7.49-1.86-6.56 28.43-7.27 1.73 6.34Z" fill="#E0E1E9"/>
  <path d="M56.01 50.05a20.98 20.98 0 1 0 0-41.96 20.98 20.98 0 0 0 0 41.96Z" fill="#fff"/>
  <path d="m52.44 32.51-8.12 3.9 12.43 6.45-1.5-8.89a1.99 1.99 0 0 0-2.82-1.46h.01ZM55.6 21.66l.58 3.38a2.15 2.15 0 0 0 3.04 1.58l3.09-1.48-6.7-3.48Z" fill="#E0E1E9"/>
  <path d="M69.9 21.41 54.26 13.3a1.2 1.2 0 0 0-1.62.51l-.08.17a1.2 1.2 0 0 0 .51 1.62l15.66 8.11c.59.3 1.31.07 1.62-.51l.08-.17a1.2 1.2 0 0 0-.51-1.62ZM42.12 36.73l15.65 8.11c.6.31 1.32.08 1.62-.51l.09-.16a1.2 1.2 0 0 0-.51-1.62L43.3 34.43a1.2 1.2 0 0 0-1.62.52l-.09.16a1.2 1.2 0 0 0 .52 1.62Z" fill="#6C6E79"/>
  <path d="M59.1 36.42a11.44 11.44 0 0 0-1.22-4.94 1.53 1.53 0 0 1 0-1.38l.04-.09c.23-.43.65-.73 1.14-.8a11.6 11.6 0 0 0 8.7-6.5h.03v-.02l-13.31-6.9v.02a11.47 11.47 0 0 0-.3 10.85c.22.44.23.96 0 1.39l-.04.09c-.23.43-.65.72-1.14.8a11.6 11.6 0 0 0-8.7 6.5h-.03v.02l13.31 6.9v-.02c.52-.9 1.57-3.03 1.52-5.92v0Z" stroke="#6C6E79" stroke-width=".7" stroke-linecap="round" stroke-linejoin="round"/>
  <path d="M56.01 50.05a20.98 20.98 0 1 0 0-41.96 20.98 20.98 0 0 0 0 41.96Z" stroke="#6C6E79" stroke-width=".7" stroke-linecap="round" stroke-linejoin="round"/>
</svg>
