<svg width="80" height="80" viewBox="0 0 80 80" fill="none" xmlns="http://www.w3.org/2000/svg"><path d="M39.996 4.245V1.884c0-.52-.455-.942-.975-.877C19.45 3.227 4.256 19.84 4.256 39.996H1.884c-.52 0-.942.454-.877.974 2.22 19.57 18.833 34.765 38.989 34.765v2.361c0 .52.454.943.974.878 19.57-2.22 34.765-18.834 34.765-38.99h2.372c.52 0 .942-.454.888-.974-2.22-19.57-18.834-34.765-38.989-34.765" fill="#E0E1E9"/><path d="M65.23 59.847s.087-.054.12-.086l6.508-4.332-3.14-1.7-3.142.758-8.317-31.744a5.717 5.717 0 0 0-6.693-4.159l-39.671 8.09-1.398-3.13-3.422 5.892c-.076.12-.152.25-.216.368v.022a5.65 5.65 0 0 0-.455 4.256l10.462 36.726a2.592 2.592 0 0 0 3.184 1.797l45.368-12.368c.27-.075.52-.205.747-.346l.054-.033.011-.01Z" fill="#6C6E79" stroke="#6C6E79" stroke-width=".7" stroke-linecap="round" stroke-linejoin="round"/><path d="m71.078 55.775-47.772 13.03a2.74 2.74 0 0 1-3.358-1.896L8.934 28.234c-.964-3.38 1.159-6.866 4.603-7.57l42.964-8.762c3.14-.64 6.238 1.289 7.04 4.386l9.465 36.152a2.735 2.735 0 0 1-1.928 3.335Z" fill="#fff"/><path d="m63.107 16 1.132 4.308L10.322 32.1l-1.255-4.375c-.91-3.175 1.093-6.454 4.345-7.117l43.05-8.733c2.966-.602 5.89 1.213 6.645 4.122V16Z" fill="#E0E1E9" stroke="#6C6E79" stroke-width=".7"/><path d="M17.599 25.58a1.877 1.877 0 0 1-1.42 2.372c-1.093.239-2.23-.455-2.534-1.527a1.872 1.872 0 0 1 1.43-2.372c1.094-.227 2.22.466 2.524 1.538v-.01ZM24.595 24.108c.292 1.06-.325 2.111-1.397 2.339-1.072.227-2.188-.455-2.48-1.527-.293-1.072.325-2.123 1.408-2.35 1.083-.228 2.176.465 2.469 1.527v.01Z" fill="#6C6E79"/><path d="m71.078 55.775-47.772 13.03a2.74 2.74 0 0 1-3.358-1.896L8.934 28.234c-.964-3.38 1.159-6.866 4.603-7.57l42.964-8.762c3.14-.64 6.238 1.289 7.04 4.386l9.465 36.152a2.735 2.735 0 0 1-1.928 3.335Z" stroke="#6C6E79" stroke-linecap="round" stroke-linejoin="round"/><path d="m57.226 37.537-36.194 9.065-1.874-6.606 36.4-8.795a.887.887 0 0 1 1.062.629l1.256 4.624a.88.88 0 0 1-.639 1.083h-.01ZM52.342 49.721l-28.3 7.484-1.862-6.552 28.43-7.278 1.732 6.346Z" fill="#E0E1E9"/><path d="M56.013 50.046c11.586 0 20.979-9.392 20.979-20.978 0-11.586-9.393-20.978-20.979-20.978-11.586 0-20.978 9.392-20.978 20.978 0 11.586 9.392 20.978 20.978 20.978Z" fill="#fff"/><path d="m52.44 32.512-8.123 3.899 12.433 6.444-1.495-8.88a1.989 1.989 0 0 0-2.826-1.463h.01ZM55.602 21.66l.574 3.379a2.146 2.146 0 0 0 3.043 1.581l3.087-1.484-6.704-3.476Z" fill="#E0E1E9"/><path d="M69.91 21.412 54.253 13.3a1.202 1.202 0 0 0-1.62.514l-.085.164a1.202 1.202 0 0 0 .515 1.62l15.655 8.112c.59.305 1.315.075 1.62-.515l.085-.163a1.202 1.202 0 0 0-.515-1.62ZM42.12 36.733l15.655 8.111c.59.306 1.315.076 1.62-.514l.085-.163a1.202 1.202 0 0 0-.515-1.62L43.31 34.434a1.202 1.202 0 0 0-1.62.514l-.085.164a1.202 1.202 0 0 0 .515 1.62Z" fill="#6C6E79"/><path d="M59.1 36.421a11.436 11.436 0 0 0-1.224-4.938 1.526 1.526 0 0 1 0-1.386l.044-.087c.227-.433.65-.726 1.137-.802a11.383 11.383 0 0 0 4.743-1.851 11.593 11.593 0 0 0 3.964-4.647h.022v-.021c-4.44-2.296-8.88-4.603-13.31-6.9v.023c-.52.898-1.57 3.021-1.517 5.913a11.436 11.436 0 0 0 1.224 4.938c.217.434.228.953 0 1.387l-.043.086c-.228.434-.65.726-1.137.802-1.18.173-2.946.628-4.744 1.852a11.593 11.593 0 0 0-3.964 4.646h-.022v.022c4.44 2.296 8.881 4.602 13.31 6.898v-.021c.52-.9 1.571-3.022 1.517-5.914v0Z" stroke="#6C6E79" stroke-width=".7" stroke-linecap="round" stroke-linejoin="round"/><path d="M56.013 50.046c11.586 0 20.979-9.392 20.979-20.978 0-11.586-9.393-20.978-20.979-20.978-11.586 0-20.978 9.392-20.978 20.978 0 11.586 9.392 20.978 20.978 20.978Z" stroke="#6C6E79" stroke-width=".7" stroke-linecap="round" stroke-linejoin="round"/></svg>