<svg width="80" height="80" viewBox="0 0 80 80" fill="none" xmlns="http://www.w3.org/2000/svg"><path d="M40.51 79.997C62.49 79.714 79.977 61.39 79.977 39.4V.99a.994.994 0 0 0-.99-.99H54.306a.994.994 0 0 0-.99.99v2.753H27.638a.994.994 0 0 0-.99.99v35.265H.991A.985.985 0 0 0 0 41.01c.544 21.806 18.52 39.27 40.52 38.987" fill="#E0E1E9"/><path d="M66.16 57.374s.087-.054.12-.087l6.521-4.323-3.147-1.697-3.147.756-8.334-31.681a5.73 5.73 0 0 0-6.707-4.15l-39.74 8.063-1.4-3.124-3.428 5.88a6.507 6.507 0 0 0-.217.368v.021a5.618 5.618 0 0 0-.456 4.248l10.472 36.654a2.599 2.599 0 0 0 3.19 1.794l45.459-12.344c.271-.076.52-.205.749-.346l.054-.032h.01Z" fill="#E0E1E9" stroke="#6C6E79" stroke-width=".7" stroke-linecap="round" stroke-linejoin="round"/><path d="M72.02 53.31 24.152 66.313a2.747 2.747 0 0 1-3.364-1.892L9.752 25.822c-.966-3.372 1.16-6.853 4.612-7.556l43.05-8.744c3.146-.638 6.25 1.286 7.053 4.377L73.95 49.98a2.729 2.729 0 0 1-1.931 3.33Z" fill="#fff" stroke="#6C6E79" stroke-width=".7" stroke-linecap="round" stroke-linejoin="round"/><path d="M65.682 18.57 11.076 30.512l-1.346-4.69c-.966-3.373 1.161-6.854 4.612-7.556l43.05-8.734c3.146-.638 6.25 1.286 7.053 4.378l1.226 4.669.011-.01Z" fill="#6C6E79"/><path d="M18.433 23.174a1.873 1.873 0 0 1-1.421 2.367c-1.097.238-2.236-.454-2.54-1.524a1.868 1.868 0 0 1 1.433-2.367c1.096-.227 2.224.465 2.528 1.535v-.011Z" fill="#fff"/><path d="M25.443 21.693c.293 1.06-.325 2.108-1.4 2.335-1.074.227-2.192-.454-2.485-1.524-.293-1.07.326-2.12 1.411-2.346 1.085-.227 2.181.465 2.474 1.524v.01Z" fill="#E0E1E9"/><path d="M11.097 30.6s.326-3.157.608-6.389l-1.378-3.08-3.43 5.88a6.507 6.507 0 0 0-.216.367v.022a5.619 5.619 0 0 0-.456 4.248l1.4 4.908 3.472-5.967v.01Z" fill="#6C6E79"/><path d="m40.481 27.976-7.447 28.427a.98.98 0 0 0 1.22 1.197l27.762-7.62c.73-.197.97-1.1.447-1.645L42.147 27.53c-.533-.545-1.47-.305-1.666.435v.01Z" fill="#E0E1E9" stroke="#6C6E79" stroke-width=".7" stroke-linecap="round" stroke-linejoin="round"/><path d="m43.443 35.477 2.373 8.645" stroke="#6C6E79" stroke-width="2" stroke-linecap="round" stroke-linejoin="round"/><path d="M48.353 48.346c.185.675-.24 1.372-.947 1.557-.708.185-1.438-.196-1.623-.871-.185-.675.24-1.372.947-1.557.708-.185 1.427.207 1.612.871h.01Z" fill="#6C6E79"/></svg>