<svg width="16" height="16" viewBox="0 0 16 16" xmlns="http://www.w3.org/2000/svg"><path d="m15.707 1.707-.389.389A3 3 0 0 1 13 7c0-.756-.168-1.474-.469-2.116a1 1 0 0 0 1.352-1.353l-2.931 2.931a3 3 0 0 1-3.49 3.49L6.414 11H10a3 3 0 0 1 3 3v1h-2v-1a1 1 0 0 0-1-1H4.414l-1.707 1.707-1 1a1 1 0 0 1-1.414-1.414l1-1 13-13a1 1 0 1 1 1.414 1.414ZM3 5c.17 0 .329-.042.469-.116A4.974 4.974 0 0 0 3 7a3 3 0 1 1 2.647-4.413C5 2.933 4.437 3.417 4 4a1 1 0 1 0-1 1Zm2 2 3-3a3 3 0 0 0-3 3ZM3.1 8c.049.24.115.476.197.703L0 12v-1a3 3 0 0 1 3-3h.1Z"/><path d="M12 10h1a1 1 0 0 1 1 1v1h2v-1a3 3 0 0 0-3-3h-.1a4.977 4.977 0 0 1-.9 2Z"/></svg>