<svg xmlns="http://www.w3.org/2000/svg" xlink="http://www.w3.org/1999/xlink" width="22" height="22" viewBox="0 0 22 22"><path d="M21.5967,5.3595 C22.1347,5.6035 22.1347,6.3655 21.5967,6.6095 L12.8477,10.8075 C12.3117,11.0645 11.6887,11.0645 11.1527,10.8075 L2.9997,6.8965 L2.9997,14.0355 C4.1407,14.2665 4.9997,15.2735 4.9997,16.4825 C4.9997,17.5475 3.5087,19.8275 2.8297,20.8105 C2.6697,21.0425 2.3297,21.0425 2.1697,20.8105 C1.4917,19.8275 -0.0003,17.5475 -0.0003,16.4825 C-0.0003,15.2735 0.8597,14.2665 1.9997,14.0355 L1.9997,5.9845 C1.9997,5.7325 2.1347,5.4815 2.4037,5.3595 L11.0317,1.2205 C11.6427,0.9265 12.3577,0.9265 12.9687,1.2205 L21.5967,5.3595 Z M18.4893,9.7404 C18.7233,9.6224 19.0003,9.7934 19.0003,10.0554 L19.0003,12.9884 C19.0003,13.2924 18.8283,13.5704 18.5563,13.7064 L12.8873,16.5414 C12.3293,16.8204 11.6713,16.8204 11.1123,16.5414 L5.4433,13.7064 C5.1723,13.5704 5.0003,13.2924 5.0003,12.9884 L5.0003,10.0594 C5.0003,9.7974 5.2753,9.6274 5.5103,9.7444 L11.1133,12.5414 C11.6723,12.8204 12.3293,12.8204 12.8873,12.5414 L18.4893,9.7404 Z"/></svg>
