<svg xmlns="http://www.w3.org/2000/svg" xlink="http://www.w3.org/1999/xlink" width="16" height="16" viewBox="0 0 16 16"><path d="M15.781,4.1612 C16.073,4.2952 16.073,4.7052 15.781,4.8392 L9.269,7.8322 C8.781,8.0562 8.219,8.0562 7.73,7.8322 L2,5.1982 L2,11.0952 C2.581,11.3012 3,11.8492 3,12.5012 C3,13.0602 2.312,14.1572 1.869,14.8072 C1.69,15.0682 1.309,15.0682 1.131,14.8072 C0.687,14.1572 0,13.0602 0,12.5012 C0,11.8492 0.419,11.3012 1,11.0952 L1,4.5002 C1,4.3642 1.073,4.2282 1.218,4.1612 L7.73,1.1682 C8.219,0.9442 8.781,0.9442 9.269,1.1682 L15.781,4.1612 Z M2.9998,7 L8.4998,9.5 L13.9998,7 L13.9998,9.5 L8.4998,12 L2.9998,9.5 L2.9998,7 Z"/></svg>
