<svg xmlns="http://www.w3.org/2000/svg" xlink="http://www.w3.org/1999/xlink" width="12" height="12" viewBox="0 0 12 12"><path d="M11.843,3.25875 C12.053,3.35375 12.053,3.64675 11.843,3.74075 L7.133,5.86375 C6.731,6.04475 6.27,6.04475 5.867,5.86375 L2,4.12075 L2,8.09175 C2.581,8.29775 3,8.84575 3,9.49575 C3,10.06975 2.28,11.18875 1.838,11.82175 C1.673,12.05875 1.327,12.05875 1.162,11.82175 C0.72,11.18875 0,10.06975 0,9.49575 C0,8.84575 0.419,8.29775 1,8.09175 L1,3.49975 C1,3.40375 1.053,3.30575 1.157,3.25875 L5.867,1.13575 C6.27,0.95475 6.731,0.95475 7.133,1.13575 L11.843,3.25875 Z M3.0002,5.99995 L6.5002,7.49395 L10.0002,5.99995 L10.0002,7.49995 L6.5002,9.00095 L3.0002,7.49995 L3.0002,5.99995 Z"/></svg>
