<svg xmlns="http://www.w3.org/2000/svg" width="24" height="24" viewBox="0 0 24 24">
  <path fill-rule="evenodd" d="M4.895 4C4.4 4 4 4.4 4 4.895 4 13.237 10.763 20 19.105 20c.494 0 .895-.4.895-.895v-2.751a1 1 0 0 0-.628-.928l-2.636-1.055a1 1 0 0 0-1.012.16l-.68.568a3.001 3.001 0 0 1-4.043-.183l-1.916-1.918a3 3 0 0 1-.184-4.041l.567-.68c0-.001 0 0 0 0a1 1 0 0 0 .161-1.013L8.574 4.63A1 1 0 0 0 7.646 4H4.895ZM2 4.895A2.895 2.895 0 0 1 4.895 2h2.75a3 3 0 0 1 2.786 1.886l1.055 2.635a3 3 0 0 1-.482 3.035l-.567.68a1 1 0 0 0 .062 1.348l1.916 1.918c.366.365.95.392 1.348.06l.68-.567a3 3 0 0 1 3.035-.48l2.637 1.054A3 3 0 0 1 22 16.354L22 19.105A2.895 2.895 0 0 1 19.105 22C9.659 22 2 14.341 2 4.895Z" clip-rule="evenodd"/>
</svg>
