<svg width="24" height="24" viewBox="0 0 24 24" xmlns="http://www.w3.org/2000/svg"><path fill-rule="evenodd" clip-rule="evenodd" d="M13 5V2.91c0-.503-.448-.91-1-.91s-1 .407-1 .91V5H2a1 1 0 0 0 0 2h.835C1.893 8.89 1 10.956 1 12a4 4 0 0 0 8 0c0-1.044-.893-3.11-1.835-5H11v13H8a1 1 0 1 0 0 2h8a1 1 0 1 0 0-2h-3V7h3.835C15.893 8.89 15 10.956 15 12a4 4 0 0 0 8 0c0-1.044-.893-3.11-1.835-5H22a1 1 0 1 0 0-2h-9Zm-6 7a2 2 0 1 1-4 0h4Zm-.647-2H3.647L5 7.154 6.353 10ZM21 12a2 2 0 1 1-4 0h4Zm-3.353-2h2.706L19 7.154 17.647 10Z"/></svg>