<svg xmlns="http://www.w3.org/2000/svg" xlink="http://www.w3.org/1999/xlink" width="22" height="22" viewBox="0 0 22 22"><path d="M21,19 C21,20.104 20.104,21 19,21 C17.896,21 17,20.104 17,19 C17,11.28 10.72,5 3,5 C1.896,5 1,4.104 1,3 C1,1.896 1.896,1 3,1 C12.925,1 21,9.075 21,19 Z M14,19 C14,20.104 13.104,21 12,21 C10.896,21 10,20.104 10,19 C10,15.141 6.859,12 3,12 C1.896,12 1,11.104 1,10 C1,8.896 1.896,8 3,8 C9.065,8 14,12.935 14,19 Z M7,18 C7,19.657 5.657,21 4,21 C2.343,21 1,19.657 1,18 C1,16.343 2.343,15 4,15 C5.657,15 7,16.343 7,18 Z"/></svg>
