<svg xmlns="http://www.w3.org/2000/svg" xlink="http://www.w3.org/1999/xlink" width="12" height="12" viewBox="0 0 12 12"><path d="M11,10.817 C11,11.47 10.471,12 9.816,12 C9.163,12 8.634,11.47 8.634,10.817 C8.634,6.709 5.292,3.367 1.184,3.367 C0.529,3.367 0,2.837 0,2.183 C0,1.53 0.529,1 1.184,1 C6.596,1 11,5.404 11,10.817 Z M7,10.806 C7,11.465 6.466,12 5.806,12 C5.146,12 4.612,11.465 4.612,10.806 C4.612,8.921 3.079,7.388 1.194,7.388 C0.534,7.388 0,6.854 0,6.194 C0,5.535 0.534,5 1.194,5 C4.396,5 7,7.605 7,10.806 Z M3,10.5 C3,11.329 2.328,12 1.5,12 C0.672,12 0,11.329 0,10.5 C0,9.671 0.672,9 1.5,9 C2.328,9 3,9.671 3,10.5 Z"/></svg>
