<svg xmlns="http://www.w3.org/2000/svg" xlink="http://www.w3.org/1999/xlink" width="22" height="22" viewBox="0 0 22 22"><path d="M13,1 C14.656,1 16,2.343 16,4 C16,5.657 14.656,7 13,7 C11.344,7 10,5.657 10,4 C10,2.343 11.344,1 13,1 Z M11.4238,17.3955 C11.3558,17.7065 11.5928,17.9995 11.9098,17.9995 L13.9998,17.9995 L13.9998,20.9995 L10.3158,20.9995 C9.6918,20.9995 9.0648,20.8405 8.5548,20.4815 C7.5098,19.7475 7.0578,18.5235 7.3188,17.3495 L8.5938,11.6055 C8.6638,11.2945 8.4268,10.9995 8.1088,10.9995 L5.9998,10.9995 L5.9998,7.9995 L9.6848,7.9995 C10.3088,7.9995 10.9358,8.1595 11.4448,8.5185 C12.4898,9.2525 12.9428,10.4765 12.6818,11.6505 L11.4238,17.3955 Z"/></svg>
