<svg xmlns="http://www.w3.org/2000/svg" xlink="http://www.w3.org/1999/xlink" width="8" height="8" viewBox="0 0 8 8"><path d="M5.168,4.43357 L4.525,6.99957 L6,6.99957 L6,7.99957 L3.949,7.99957 C3.591,7.99957 3.26,7.83757 3.04,7.55557 C2.82,7.27457 2.744,6.91257 2.831,6.56657 L3.473,3.99957 L2,3.99957 L2,2.99957 L4.05,2.99957 C4.408,2.99957 4.739,3.16257 4.959,3.44357 C5.18,3.72657 5.255,4.08557 5.168,4.43357 Z M4.8496,2.29977 C4.2146,2.29977 3.7006,1.78477 3.7006,1.14977 C3.7006,0.51477 4.2146,-0.00023 4.8496,-0.00023 C5.4856,-0.00023 5.9996,0.51477 5.9996,1.14977 C5.9996,1.78477 5.4856,2.29977 4.8496,2.29977 Z"/></svg>
