<svg xmlns="http://www.w3.org/2000/svg" xlink="http://www.w3.org/1999/xlink" width="22" height="22" viewBox="0 0 22 22"><path d="M4,9 C4,6.243 6.243,4 9,4 C11.757,4 14,6.243 14,9 C14,11.757 11.757,14 9,14 C6.243,14 4,11.757 4,9 M20.561,18.439 L15.061,12.939 C15.004,12.883 14.931,12.857 14.867,12.811 C15.581,11.714 16,10.406 16,9 C16,5.134 12.866,2 9,2 C5.134,2 2,5.134 2,9 C2,12.866 5.134,16 9,16 C10.406,16 11.714,15.581 12.811,14.867 C12.857,14.931 12.883,15.004 12.939,15.061 L18.439,20.561 C18.732,20.854 19.116,21 19.5,21 C19.884,21 20.268,20.854 20.561,20.561 C21.146,19.975 21.146,19.025 20.561,18.439"/></svg>
