<svg xmlns="http://www.w3.org/2000/svg" xlink="http://www.w3.org/1999/xlink" width="16" height="16" viewBox="0 0 16 16"><path d="M2.5,6.5 C2.5,4.294 4.294,2.5 6.5,2.5 C8.706,2.5 10.5,4.294 10.5,6.5 C10.5,8.706 8.706,10.5 6.5,10.5 C4.294,10.5 2.5,8.706 2.5,6.5 M14.707,13.293 L11.03,9.616 C11.641,8.73 12,7.657 12,6.5 C12,3.463 9.538,1 6.5,1 C3.462,1 1,3.463 1,6.5 C1,9.537 3.462,12 6.5,12 C7.658,12 8.73,11.641 9.616,11.03 L13.293,14.707 C13.488,14.902 13.744,15 14,15 C14.256,15 14.512,14.902 14.707,14.707 C15.098,14.316 15.098,13.684 14.707,13.293"/></svg>
