<svg xmlns="http://www.w3.org/2000/svg" xlink="http://www.w3.org/1999/xlink" width="12" height="12" viewBox="0 0 12 12"><path d="M5,7.75 C3.483,7.75 2.25,6.517 2.25,5 C2.25,3.483 3.483,2.25 5,2.25 C6.517,2.25 7.75,3.483 7.75,5 C7.75,6.517 6.517,7.75 5,7.75 M11.707,10.293 L8.435,7.02 L8.434,7.021 C8.785,6.426 9,5.741 9,5 C9,2.791 7.209,1 5,1 C2.791,1 1,2.791 1,5 C1,7.209 2.791,9 5,9 C5.74,9 6.426,8.785 7.021,8.434 L10.293,11.707 C10.488,11.902 10.744,12 11,12 C11.256,12 11.512,11.902 11.707,11.707 C12.098,11.316 12.098,10.684 11.707,10.293"/></svg>
