<svg width="16" height="16" viewBox="0 0 16 16" xmlns="http://www.w3.org/2000/svg"><path fill-rule="evenodd" clip-rule="evenodd" d="M8 8.5a.5.5 0 0 0 .5.5H10a2 2 0 0 0 2-2V6a2 2 0 0 0-2-2H8.5a.5.5 0 0 0-.5.5v4ZM11 7a1 1 0 0 1-1 1H9V5h1a1 1 0 0 1 1 1v1ZM6.5 9a.5.5 0 0 0 .5-.5v-4a.5.5 0 0 0-.5-.5H6a3 3 0 0 0-3 3v1.5a.5.5 0 0 0 1 0V8h2v.5a.5.5 0 0 0 .5.5ZM6 5v2H4a2 2 0 0 1 2-2Z"/><path fill-rule="evenodd" clip-rule="evenodd" d="M1 1a1 1 0 0 0-1 1v9a1 1 0 0 0 1 1h13a1 1 0 0 0 1-1V2a1 1 0 0 0-1-1H1Zm1 9V3h11v7H2Z"/><path d="M3 13.5a.5.5 0 0 1 .5-.5h9a.5.5 0 0 1 0 1h-9a.5.5 0 0 1-.5-.5Zm0 2a.5.5 0 0 1 .5-.5h9a.5.5 0 0 1 0 1h-9a.5.5 0 0 1-.5-.5Z"/></svg>