<svg width="172" height="140" viewBox="0 0 172 140" fill="none" xmlns="http://www.w3.org/2000/svg">
<path d="M0 0H120C122.209 0 124 1.79086 124 4V12C124 14.2091 122.209 16 120 16H0V0Z" fill="#E0E1E9" fill-opacity="0.8"/>
<path d="M0 28H156C158.209 28 160 29.7909 160 32V40C160 42.2091 158.209 44 156 44H0V28Z" fill="#E0E1E9" fill-opacity="0.8"/>
<path d="M0 56H138C140.209 56 142 57.7909 142 60V68C142 70.2091 140.209 72 138 72H0V56Z" fill="#E0E1E9" fill-opacity="0.8"/>
<path d="M0 84H156C158.209 84 160 85.7909 160 88V96C160 98.2091 158.209 100 156 100H0V84Z" fill="#E0E1E9" fill-opacity="0.8"/>
<path d="M0 112H116C118.209 112 120 113.791 120 116V124C120 126.209 118.209 128 116 128H0V112Z" fill="#E0E1E9" fill-opacity="0.8"/>
</svg>
