<svg width="132" height="156" viewBox="0 0 132 156" fill="none" xmlns="http://www.w3.org/2000/svg">
<g id="paragraph=false, chart type=&#240;&#159;&#147;&#138; bar chart (horizontal), picture div=false">
<path id="bone" d="M0 0H80C82.2091 0 84 1.79086 84 4V12C84 14.2091 82.2091 16 80 16H0V0Z" fill="#E0E1E9" fill-opacity="0.8"/>
<path id="bone_2" d="M0 32H116C118.209 32 120 33.7909 120 36V44C120 46.2091 118.209 48 116 48H0V32Z" fill="#E0E1E9" fill-opacity="0.8"/>
<path id="bone_3" d="M0 64H98C100.209 64 102 65.7909 102 68V76C102 78.2091 100.209 80 98 80H0V64Z" fill="#E0E1E9" fill-opacity="0.8"/>
<path id="bone_4" d="M0 96H77C79.2091 96 81 97.7909 81 100V108C81 110.209 79.2091 112 77 112H0V96Z" fill="#E0E1E9" fill-opacity="0.8"/>
<path id="bone_5" d="M0 128H42.5C44.7091 128 46.5 129.791 46.5 132V140C46.5 142.209 44.7091 144 42.5 144H0V128Z" fill="#E0E1E9" fill-opacity="0.8"/>
</g>
</svg>
