<svg width="156" height="160" viewBox="0 0 156 160" fill="none" xmlns="http://www.w3.org/2000/svg">
<path d="M12 16C12 13.7909 13.7909 12 16 12H23C25.2091 12 27 13.7909 27 16V148H12V16Z" fill="#E0E1E9" fill-opacity="0.8"/>
<path d="M51 42C51 39.7909 52.7909 38 55 38H62C64.2091 38 66 39.7909 66 42V148H51V42Z" fill="#E0E1E9" fill-opacity="0.8"/>
<path d="M90 63C90 60.7909 91.7909 59 94 59H101C103.209 59 105 60.7909 105 63V148H90V63Z" fill="#E0E1E9" fill-opacity="0.8"/>
<path d="M129 30C129 27.7909 130.791 26 133 26H140C142.209 26 144 27.7909 144 30V148H129V30Z" fill="#E0E1E9" fill-opacity="0.8"/>
</svg>
