<svg width="376" height="164" viewBox="0 0 376 164" fill="none" xmlns="http://www.w3.org/2000/svg">
<path d="M48 164C70.0914 164 88 146.091 88 124C88 101.909 70.0914 84 48 84C25.9086 84 8 101.909 8 124C8 146.091 25.9086 164 48 164Z" fill="#E0E1E9" fill-opacity="0.8"/>
<path d="M88 48C101.255 48 112 37.2548 112 24C112 10.7452 101.255 0 88 0C74.7452 0 64 10.7452 64 24C64 37.2548 74.7452 48 88 48Z" fill="#E0E1E9" fill-opacity="0.8"/>
<path d="M292.5 55C305.479 55 316 44.4787 316 31.5C316 18.5213 305.479 8 292.5 8C279.521 8 269 18.5213 269 31.5C269 44.4787 279.521 55 292.5 55Z" fill="#E0E1E9" fill-opacity="0.8"/>
<path d="M344 98C352.837 98 360 90.8366 360 82C360 73.1634 352.837 66 344 66C335.163 66 328 73.1634 328 82C328 90.8366 335.163 98 344 98Z" fill="#E0E1E9" fill-opacity="0.8"/>
<path d="M188 134C216.719 134 240 110.719 240 82C240 53.2812 216.719 30 188 30C159.281 30 136 53.2812 136 82C136 110.719 159.281 134 188 134Z" fill="#E0E1E9" fill-opacity="0.8"/>
</svg>
