<svg width="376" height="164" viewBox="0 0 376 164" fill="none" xmlns="http://www.w3.org/2000/svg">
<path d="M40 164C62.0914 164 80 146.091 80 124C80 101.909 62.0914 84 40 84C17.9086 84 0 101.909 0 124C0 146.091 17.9086 164 40 164Z" fill="#E0E1E9" fill-opacity="0.8"/>
<path d="M72 48C85.2548 48 96 37.2548 96 24C96 10.7452 85.2548 0 72 0C58.7452 0 48 10.7452 48 24C48 37.2548 58.7452 48 72 48Z" fill="#E0E1E9" fill-opacity="0.8"/>
<path d="M316.5 87C329.479 87 340 76.4787 340 63.5C340 50.5213 329.479 40 316.5 40C303.521 40 293 50.5213 293 63.5C293 76.4787 303.521 87 316.5 87Z" fill="#E0E1E9" fill-opacity="0.8"/>
<path d="M360 130C368.837 130 376 122.837 376 114C376 105.163 368.837 98 360 98C351.163 98 344 105.163 344 114C344 122.837 351.163 130 360 130Z" fill="#E0E1E9" fill-opacity="0.8"/>
<path d="M188 134C216.719 134 240 110.719 240 82C240 53.2812 216.719 30 188 30C159.281 30 136 53.2812 136 82C136 110.719 159.281 134 188 134Z" fill="#E0E1E9" fill-opacity="0.8"/>
</svg>
