<svg width="172" height="156" viewBox="0 0 172 156" fill="none" xmlns="http://www.w3.org/2000/svg">
  <path d="M0 0H120C122.209 0 124 1.79086 124 4V12C124 14.2091 122.209 16 120 16H0V0Z" fill="#E0E1E9" fill-opacity="0.8"/>
  <path d="M0 32H156C158.209 32 160 33.7909 160 36V44C160 46.2091 158.209 48 156 48H0V32Z" fill="#E0E1E9" fill-opacity="0.8"/>
  <path d="M0 64H138C140.209 64 142 65.7909 142 68V76C142 78.2091 140.209 80 138 80H0V64Z" fill="#E0E1E9" fill-opacity="0.8"/>
  <path d="M0 96H156C158.209 96 160 97.7909 160 100V108C160 110.209 158.209 112 156 112H0V96Z" fill="#E0E1E9" fill-opacity="0.8"/>
  <path d="M0 128H116C118.209 128 120 129.791 120 132V140C120 142.209 118.209 144 116 144H0V128Z" fill="#E0E1E9" fill-opacity="0.8"/>
  </svg>
  