<svg width="180" height="180" viewBox="0 0 180 180" fill="none" xmlns="http://www.w3.org/2000/svg">
<g id="paragraph=false, chart type=&#240;&#159;&#141;&#169; donut chart, picture div=false">
<g id="donut-chart">
<path d="M158.863 145.742C171.453 130.259 180 111.511 180 90C180 68.6168 172.543 48.9753 160.087 33.5343L137.731 55.1459C151.799 82.0673 151.475 95.4403 137.793 123.724L158.863 145.742Z" fill="#E0E1E9" fill-opacity="0.8"/>
<path d="M90 180C117.112 180 140.425 167.011 156.925 148.046L135.827 126C124.827 139.57 108.33 149 89.5 149C56.3629 149 29 123.137 29 90C28.5631 57.8576 54.8762 31.5799 87 30V0.049058C38.6831 1.63152 0 41.2983 0 90C0 139.706 40.2944 180 90 180Z" fill="#E0E1E9" fill-opacity="0.8"/>
<path d="M158.046 31.3327L135.634 53C125.132 39.6161 109.874 30.4552 90 30V0C117.915 0 141.538 11.3851 158.046 31.3327Z" fill="#E0E1E9" fill-opacity="0.8"/>
</g>
</g>
</svg>
