<svg width="476" height="104" viewBox="0 0 476 104" fill="none" xmlns="http://www.w3.org/2000/svg">
<path d="M12 14C12 12.8954 12.8954 12 14 12H120.901C122.005 12 122.901 12.8954 122.901 14V92H12V14Z" fill="#E0E1E9" fill-opacity="0.8"/>
<path d="M126.901 30C126.901 28.8954 127.796 28 128.901 28H234.802C235.906 28 236.802 28.8954 236.802 30V92H126.901V30Z" fill="#E0E1E9" fill-opacity="0.8"/>
<path d="M240.802 62C240.802 60.8954 241.697 60 242.802 60H348.702C349.807 60 350.702 60.8954 350.702 62V92H240.802V62Z" fill="#E0E1E9" fill-opacity="0.8"/>
<path d="M354.702 44C354.702 42.8954 355.598 42 356.702 42H461.603C462.708 42 463.603 42.8954 463.603 44V92H354.702V44Z" fill="#E0E1E9" fill-opacity="0.8"/>
</svg>
