<svg width="452" height="80" viewBox="0 0 452 80" fill="none" xmlns="http://www.w3.org/2000/svg">
<path d="M0 2C0 0.895429 0.895431 0 2 0H108.901C110.005 0 110.901 0.895431 110.901 2V80H0V2Z" fill="#E0E1E9" fill-opacity="0.8"/>
<path d="M228.802 50C228.802 48.8954 229.697 48 230.802 48H336.702C337.807 48 338.702 48.8954 338.702 50V80H228.802V50Z" fill="#E0E1E9" fill-opacity="0.8"/>
<path d="M342.702 32C342.702 30.8954 343.598 30 344.702 30H449.603C450.708 30 451.603 30.8954 451.603 32V80H342.702V32Z" fill="#E0E1E9" fill-opacity="0.8"/>
<path d="M114.901 18C114.901 16.8954 115.796 16 116.901 16H222.802C223.906 16 224.802 16.8954 224.802 18V80H114.901V18Z" fill="#E0E1E9" fill-opacity="0.8"/>
</svg>
