<svg width="172" height="148" viewBox="0 0 172 148" fill="none" xmlns="http://www.w3.org/2000/svg">
<path d="M0 0H120C122.209 0 124 1.79086 124 4V20C124 22.2091 122.209 24 120 24H0V0Z" fill="#E0E1E9" fill-opacity="0.8"/>
<path d="M0 28H156C158.209 28 160 29.7909 160 32V48C160 50.2091 158.209 52 156 52H0V28Z" fill="#E0E1E9" fill-opacity="0.8"/>
<path d="M0 56H138C140.209 56 142 57.7909 142 60V76C142 78.2091 140.209 80 138 80H0V56Z" fill="#E0E1E9" fill-opacity="0.8"/>
<path d="M0 84H156C158.209 84 160 85.7909 160 88V104C160 106.209 158.209 108 156 108H0V84Z" fill="#E0E1E9" fill-opacity="0.8"/>
<path d="M0 112H116C118.209 112 120 113.791 120 116V132C120 134.209 118.209 136 116 136H0V112Z" fill="#E0E1E9" fill-opacity="0.8"/>
</svg>
