<svg width="456" height="104" viewBox="0 0 456 104" fill="none" xmlns="http://www.w3.org/2000/svg">
<path d="M2 14C2 12.8954 2.89543 12 4 12H110.901C112.005 12 112.901 12.8954 112.901 14V92H2V14Z" fill="#E0E1E9" fill-opacity="0.8"/>
<path d="M116.901 30C116.901 28.8954 117.796 28 118.901 28H224.802C225.906 28 226.802 28.8954 226.802 30V92H116.901V30Z" fill="#E0E1E9" fill-opacity="0.8"/>
<path d="M230.802 62C230.802 60.8954 231.697 60 232.802 60H338.702C339.807 60 340.702 60.8954 340.702 62V92H230.802V62Z" fill="#E0E1E9" fill-opacity="0.8"/>
<path d="M344.702 44C344.702 42.8954 345.598 42 346.702 42H451.603C452.708 42 453.603 42.8954 453.603 44V92H344.702V44Z" fill="#E0E1E9" fill-opacity="0.8"/>
</svg>
