<svg width="132" height="152" viewBox="0 0 132 152" fill="none" xmlns="http://www.w3.org/2000/svg">
<g id="paragraph=false, chart type=&#240;&#159;&#147;&#138; histogram (horizontal), picture div=false">
<path id="Rectangle" d="M0 0H80C82.2091 0 84 1.79086 84 4V20C84 22.2091 82.2091 24 80 24H0V0Z" fill="#E0E1E9" fill-opacity="0.8"/>
<path id="Rectangle_2" d="M0 29H116C118.209 29 120 30.7909 120 33V49C120 51.2091 118.209 53 116 53H0V29Z" fill="#E0E1E9" fill-opacity="0.8"/>
<path id="Rectangle_3" d="M0 58H98C100.209 58 102 59.7909 102 62V78C102 80.2091 100.209 82 98 82H0V58Z" fill="#E0E1E9" fill-opacity="0.8"/>
<path id="Rectangle_4" d="M0 87H77C79.2091 87 81 88.7909 81 91V107C81 109.209 79.2091 111 77 111H0V87Z" fill="#E0E1E9" fill-opacity="0.8"/>
<path id="Rectangle_5" d="M0 116H42.5C44.7091 116 46.5 117.791 46.5 120V136C46.5 138.209 44.7091 140 42.5 140H0V116Z" fill="#E0E1E9" fill-opacity="0.8"/>
</g>
</svg>
