<svg width="400" height="400" viewBox="0 0 400 400" fill="none" xmlns="http://www.w3.org/2000/svg">
<path d="M158 200C158 193.373 163.373 188 170 188H230C236.627 188 242 193.373 242 200C242 206.627 236.627 212 230 212H170C163.373 212 158 206.627 158 200Z" fill="#E0E1E9" fill-opacity="0.8"/>
<path d="M274.697 17.9576C270.615 16.2668 265.935 18.2053 264.245 22.2872L252.764 50.0036C251.073 54.0856 253.012 58.7653 257.094 60.4561L256.17 60.0734L222.876 140.451L224.724 141.216L258.018 60.8388L257.094 60.4561C261.176 62.1469 265.855 60.2085 267.546 56.1265L279.027 28.4102C280.718 24.3282 278.779 19.6484 274.697 17.9576Z" fill="#E0E1E9" fill-opacity="0.8"/>
<path d="M338.446 60.5536C335.322 57.4294 330.257 57.4294 327.133 60.5536L305.919 81.7668C302.795 84.891 302.795 89.9563 305.919 93.0805L305.212 92.3734L243.694 153.892L245.108 155.306L306.627 93.7876L305.919 93.0805C309.044 96.2047 314.109 96.2047 317.233 93.0805L338.446 71.8673C341.571 68.7431 341.571 63.6778 338.446 60.5536Z" fill="#E0E1E9" fill-opacity="0.8"/>
<path d="M381.042 124.303C379.352 120.221 374.672 118.282 370.59 119.973L342.874 131.454C338.792 133.144 336.853 137.824 338.544 141.906L338.161 140.982L257.784 174.276L258.549 176.123L338.927 142.83L338.544 141.906C340.235 145.988 344.914 147.926 348.996 146.236L376.713 134.755C380.795 133.064 382.733 128.385 381.042 124.303Z" fill="#E0E1E9" fill-opacity="0.8"/>
<path d="M396 199.5C396 195.082 392.418 191.5 388 191.5H358C353.582 191.5 350 195.082 350 199.5V198.5H263V200.5H350V199.5C350 203.918 353.582 207.5 358 207.5H388C392.418 207.5 396 203.918 396 199.5Z" fill="#E0E1E9" fill-opacity="0.8"/>
<path d="M381.043 274.697C382.733 270.615 380.795 265.936 376.713 264.245L348.997 252.764C344.915 251.074 340.235 253.012 338.544 257.094L338.927 256.17L258.549 222.877L257.784 224.724L338.161 258.018L338.544 257.094C336.853 261.176 338.792 265.856 342.874 267.546L370.59 279.027C374.672 280.718 379.352 278.779 381.043 274.697Z" fill="#E0E1E9" fill-opacity="0.8"/>
<path d="M338.447 338.447C341.571 335.322 341.571 330.257 338.447 327.133L317.233 305.92C314.109 302.795 309.044 302.795 305.92 305.92L306.627 305.213L245.109 243.694L243.694 245.108L305.213 306.627L305.92 305.92C302.796 309.044 302.796 314.109 305.92 317.233L327.133 338.447C330.257 341.571 335.322 341.571 338.447 338.447Z" fill="#E0E1E9" fill-opacity="0.8"/>
<path d="M274.697 381.042C278.779 379.352 280.718 374.672 279.027 370.59L267.546 342.873C265.856 338.791 261.176 336.853 257.094 338.544L258.018 338.161L224.724 257.784L222.877 258.549L256.17 338.927L257.094 338.544C253.012 340.235 251.074 344.914 252.764 348.996L264.245 376.713C265.936 380.795 270.615 382.733 274.697 381.042Z" fill="#E0E1E9" fill-opacity="0.8"/>
<path d="M199.5 396C203.918 396 207.5 392.418 207.5 388V358C207.5 353.582 203.918 350 199.5 350H200.5V263H198.5V350H199.5C195.082 350 191.5 353.582 191.5 358V388C191.5 392.418 195.082 396 199.5 396Z" fill="#E0E1E9" fill-opacity="0.8"/>
<path d="M124.303 381.042C128.385 382.733 133.065 380.795 134.755 376.713L146.236 348.996C147.927 344.914 145.988 340.235 141.906 338.544L142.83 338.927L176.124 258.549L174.276 257.784L140.982 338.161L141.906 338.544C137.824 336.853 133.145 338.791 131.454 342.873L119.973 370.59C118.282 374.672 120.221 379.352 124.303 381.042Z" fill="#E0E1E9" fill-opacity="0.8"/>
<path d="M60.5536 338.446C63.6778 341.571 68.7431 341.571 71.8673 338.446L93.0805 317.233C96.2047 314.109 96.2047 309.044 93.0805 305.919L93.7876 306.627L155.306 245.108L153.892 243.694L92.3734 305.212L93.0805 305.919C89.9563 302.795 84.891 302.795 81.7668 305.919L60.5536 327.133C57.4294 330.257 57.4294 335.322 60.5536 338.446Z" fill="#E0E1E9" fill-opacity="0.8"/>
<path d="M17.9576 274.697C19.6484 278.779 24.3281 280.718 28.4101 279.027L56.1265 267.546C60.2084 265.856 62.1468 261.176 60.456 257.094L60.8387 258.018L141.216 224.724L140.451 222.877L60.0733 256.17L60.456 257.094C58.7652 253.012 54.0855 251.074 50.0035 252.764L22.2871 264.245C18.2052 265.936 16.2668 270.615 17.9576 274.697Z" fill="#E0E1E9" fill-opacity="0.8"/>
<path d="M3 199.5C3 203.918 6.58172 207.5 11 207.5H41C45.4183 207.5 49 203.918 49 199.5V200.5H136V198.5H49V199.5C49 195.082 45.4183 191.5 41 191.5H11C6.58172 191.5 3 195.082 3 199.5Z" fill="#E0E1E9" fill-opacity="0.8"/>
<path d="M17.9575 124.303C16.2667 128.385 18.2051 133.064 22.287 134.755L50.0034 146.236C54.0854 147.926 58.7651 145.988 60.4559 141.906L60.0732 142.83L140.451 176.123L141.216 174.276L60.8386 140.982L60.4559 141.906C62.1467 137.824 60.2083 133.144 56.1264 131.454L28.41 119.973C24.328 118.282 19.6483 120.221 17.9575 124.303Z" fill="#E0E1E9" fill-opacity="0.8"/>
<path d="M60.5533 60.5535C57.4291 63.6777 57.4291 68.743 60.5533 71.8672L81.7665 93.0804C84.8907 96.2046 89.9561 96.2046 93.0803 93.0804L92.3731 93.7875L153.891 155.306L155.306 153.892L93.7874 92.3733L93.0803 93.0804C96.2044 89.9562 96.2044 84.8909 93.0803 81.7667L71.8671 60.5535C68.7429 57.4293 63.6775 57.4293 60.5533 60.5535Z" fill="#E0E1E9" fill-opacity="0.8"/>
<path d="M124.303 17.9577C120.221 19.6485 118.282 24.3282 119.973 28.4102L131.454 56.1266C133.144 60.2085 137.824 62.147 141.906 60.4562L140.982 60.8388L174.276 141.216L176.123 140.451L142.83 60.0735L141.906 60.4562C145.988 58.7654 147.926 54.0856 146.236 50.0037L134.755 22.2873C133.064 18.2053 128.385 16.2669 124.303 17.9577Z" fill="#E0E1E9" fill-opacity="0.8"/>
<path d="M199.5 3C195.082 3 191.5 6.58172 191.5 11V41C191.5 45.4183 195.082 49 199.5 49H198.5V136H200.5V49H199.5C203.918 49 207.5 45.4183 207.5 41V11C207.5 6.58172 203.918 3 199.5 3Z" fill="#E0E1E9" fill-opacity="0.8"/>
</svg>
