<svg width="376" height="110" viewBox="0 0 376 110" fill="none" xmlns="http://www.w3.org/2000/svg">
<g clip-path="url(#clip0_10328_146979)">
<path d="M10 110C15.5228 110 20 105.523 20 100C20 94.4772 15.5228 90 10 90C4.47715 90 0 94.4772 0 100C0 105.523 4.47715 110 10 110Z" fill="#E0E1E9" fill-opacity="0.8"/>
<path d="M129 72C134.523 72 139 67.5228 139 62C139 56.4772 134.523 52 129 52C123.477 52 119 56.4772 119 62C119 67.5228 123.477 72 129 72Z" fill="#E0E1E9" fill-opacity="0.8"/>
<path d="M188 96C193.523 96 198 91.5228 198 86C198 80.4772 193.523 76 188 76C182.477 76 178 80.4772 178 86C178 91.5228 182.477 96 188 96Z" fill="#E0E1E9" fill-opacity="0.8"/>
<path d="M366 20C371.523 20 376 15.5228 376 10C376 4.47715 371.523 0 366 0C360.477 0 356 4.47715 356 10C356 15.5228 360.477 20 366 20Z" fill="#E0E1E9" fill-opacity="0.8"/>
<path d="M70 54C75.5228 54 80 49.5228 80 44C80 38.4772 75.5228 34 70 34C64.4772 34 60 38.4772 60 44C60 49.5228 64.4772 54 70 54Z" fill="#E0E1E9" fill-opacity="0.8"/>
<path d="M247 62C252.523 62 257 57.5228 257 52C257 46.4772 252.523 42 247 42C241.477 42 237 46.4772 237 52C237 57.5228 241.477 62 247 62Z" fill="#E0E1E9" fill-opacity="0.8"/>
<path d="M306 70C311.523 70 316 65.5228 316 60C316 54.4772 311.523 50 306 50C300.477 50 296 54.4772 296 60C296 65.5228 300.477 70 306 70Z" fill="#E0E1E9" fill-opacity="0.8"/>
</g>
<defs>
<clipPath id="clip0_10328_146979">
<rect width="376" height="110" fill="white"/>
</clipPath>
</defs>
</svg>
