<svg width="16" height="16" viewBox="0 0 16 16" xmlns="http://www.w3.org/2000/svg"><path fill-rule="evenodd" clip-rule="evenodd" d="M8 9.5a.5.5 0 0 0 .5.5H10a2 2 0 0 0 2-2V7a2 2 0 0 0-2-2H8.5a.5.5 0 0 0-.5.5v4ZM11 8a1 1 0 0 1-1 1H9V6h1a1 1 0 0 1 1 1v1Zm-4.5 2a.5.5 0 0 0 .5-.5v-4a.5.5 0 0 0-.5-.5H6a3 3 0 0 0-3 3v1.5a.5.5 0 0 0 1 0V9h2v.5a.5.5 0 0 0 .5.5ZM6 6v2H4a2 2 0 0 1 2-2Z"/><path fill-rule="evenodd" clip-rule="evenodd" d="M0 3a1 1 0 0 1 1-1h13a1 1 0 0 1 1 1v9a1 1 0 0 1-1 1H1a1 1 0 0 1-1-1V3Zm2 1v7h11V4H2Z"/></svg>