<svg xmlns="http://www.w3.org/2000/svg" xlink="http://www.w3.org/1999/xlink" width="22" height="22" viewBox="0 0 22 22"><path d="M19,3 C20.104,3 21,4.034 21,5.308 L21,15.692 C21,16.966 20.104,18 19,18 L3,18 C1.896,18 1,16.966 1,15.692 L1,5.308 C1,4.034 1.896,3 3,3 L19,3 Z M18,15 L18,6 L16,6 L16,9 L15,9 C13.344,9 12,10.343 12,12 C12,13.657 13.344,15 15,15 L18,15 Z M10,15 L10,6 L8,6 C5.791,6 4,7.791 4,10 L4,12 L4,15 L6,15 L6,12 L8,12 L8,15 L10,15 Z M6,10 C6,8.896 6.896,8 8,8 L8,10 L6,10 Z M14,12 C14,11.447 14.447,11 15,11 L16,11 L16,13 L15,13 C14.447,13 14,12.553 14,12 Z"/></svg>
