<svg xmlns="http://www.w3.org/2000/svg" xlink="http://www.w3.org/1999/xlink" width="16" height="16" viewBox="0 0 16 16"><path d="M13.5,2 C14.328,2 15,2.671 15,3.5 L15,12.5 C15,13.329 14.328,14 13.5,14 L1.5,14 C0.672,14 0,13.329 0,12.5 L0,3.5 C0,2.671 0.672,2 1.5,2 L13.5,2 Z M12,11 L12,5 L11,5 L11,7 L10,7 C8.896,7 8,7.896 8,9 C8,10.104 8.896,11 10,11 L12,11 Z M7,11 L7,5 L5,5 C3.896,5 3,5.896 3,7 L3,11 L4,11 L4,9 L6,9 L6,11 L7,11 Z M4,7 C4,6.449 4.448,6 5,6 L6,6 L6,8 L4,8 L4,7 Z M9,9 C9,8.449 9.448,8 10,8 L11,8 L11,10 L10,10 C9.448,10 9,9.551 9,9 Z"/></svg>
