<svg xmlns="http://www.w3.org/2000/svg" xlink="http://www.w3.org/1999/xlink" width="12" height="12" viewBox="0 0 12 12"><path d="M10,9 L8,9 C6.897,9 6,8.103 6,7 C6,5.897 6.897,5 8,5 L9,5 L9,3 L10,3 L10,9 Z M5,9 L4,9 L4,7 L3,7 L3,9 L2,9 L2,5 C2,3.897 2.897,3 4,3 L5,3 L5,9 Z M11,1 L1,1 C0.45,1 0,1.45 0,2 L0,10 C0,10.55 0.45,11 1,11 L11,11 C11.55,11 12,10.55 12,10 L12,2 C12,1.45 11.55,1 11,1 L11,1 Z M3,5 L3,6 L4,6 L4,4 C3.448,4 3,4.449 3,5 L3,5 Z M7,7 C7,7.551 7.448,8 8,8 L9,8 L9,6 L8,6 C7.448,6 7,6.449 7,7 L7,7 Z"/></svg>
