<svg xmlns="http://www.w3.org/2000/svg" width="22" height="22" viewBox="0 0 22 22"><path d="M18 14c1.654 0 3 1.346 3 3s-1.346 3-3 3a2.995 2.995 0 01-2.815-2H2a1 1 0 110-2h13.184A2.997 2.997 0 0118 14zm0 2a1 1 0 100 2 1 1 0 000-2zm-7-8c1.302 0 2.401.839 2.816 2H20a1 1 0 110 2h-6.184A2.996 2.996 0 0111 14a2.997 2.997 0 01-2.816-2H2a1 1 0 110-2h6.185A2.995 2.995 0 0111 8zm0 2a1 1 0 100 2 1 1 0 000-2zM4 2c1.302 0 2.401.839 2.816 2H20a1 1 0 110 2H6.816A2.997 2.997 0 014 8C2.346 8 1 6.654 1 5s1.346-3 3-3zm0 2a1 1 0 100 2 1 1 0 000-2z"/></svg>
