<svg xmlns="http://www.w3.org/2000/svg" width="16" height="16" viewBox="0 0 16 16"><path d="M13.5 10a2.5 2.5 0 11-2.449 3H.5a.5.5 0 010-1h10.551a2.5 2.5 0 012.449-2zm0 1c-.827 0-1.5.673-1.5 1.5s.673 1.5 1.5 1.5 1.5-.673 1.5-1.5-.673-1.5-1.5-1.5zM8 5a2.5 2.5 0 012.449 2H15.5a.5.5 0 010 1h-5.051a2.5 2.5 0 01-4.898 0H.5a.5.5 0 010-1h5.051A2.5 2.5 0 018 5zm0 1c-.827 0-1.5.673-1.5 1.5S7.173 9 8 9s1.5-.673 1.5-1.5S8.827 6 8 6zM2.5 0a2.5 2.5 0 012.449 2H15.5a.5.5 0 010 1H4.949A2.5 2.5 0 112.5 0zm0 1C1.673 1 1 1.673 1 2.5S1.673 4 2.5 4 4 3.327 4 2.5 3.327 1 2.5 1z"/></svg>
