<svg xmlns="http://www.w3.org/2000/svg" width="22" height="22" viewBox="0 0 22 22"><path d="M11 1a10.028 10.028 0 0110 10c0 5.522-4.478 10-10 10-5.523 0-10-4.478-10-10C1 5.477 5.477 1 11 1zm0 2.5a7.5 7.5 0 000 15 7.555 7.555 0 007.5-7.5c0-4.143-3.357-7.5-7.5-7.5zm2.83 7.925a1 1 0 011.27-.389l.104.055a1 1 0 01.389 1.271 5.016 5.016 0 01-4.621 2.781 5.053 5.053 0 01-4.58-2.689 1 1 0 011.8-.877 3.047 3.047 0 002.783 1.566 3.06 3.06 0 002.8-1.615zM8.5 7a1.5 1.5 0 110 3 1.5 1.5 0 010-3zm5 0A1.5 1.5 0 1113.499 10 1.5 1.5 0 0113.5 7z"/></svg>
