<svg width="24" height="24" viewBox="0 0 24 24" xmlns="http://www.w3.org/2000/svg"><path fill-rule="evenodd" clip-rule="evenodd" d="M9 11a1 1 0 1 0 2 0V5a1 1 0 0 0-1-1H9a4 4 0 0 0-4 4v3a1 1 0 1 0 2 0v-1h2v1ZM7 8a2 2 0 0 1 2-2v2H7Zm8-4h-1a1 1 0 0 0-1 1v6a1 1 0 0 0 1 1h1a4 4 0 0 0 0-8Zm0 6a2 2 0 1 0 0-4v4Z"/><path fill-rule="evenodd" clip-rule="evenodd" d="M2 0a1 1 0 0 0-1 1v14a1 1 0 0 0 1 1h20a1 1 0 0 0 1-1V1a1 1 0 0 0-1-1H2Zm1 14V2h18v12H3Z"/><path d="M4 19a1 1 0 0 1 1-1h14a1 1 0 1 1 0 2H5a1 1 0 0 1-1-1Zm0 4a1 1 0 0 1 1-1h14a1 1 0 1 1 0 2H5a1 1 0 0 1-1-1Z"/></svg>