<svg xmlns="http://www.w3.org/2000/svg" xlink="http://www.w3.org/1999/xlink" width="22" height="22" viewBox="0 0 22 22"><path d="M19,1 C20.104,1 21,1.896 21,3 L21,12 C21,13.104 20.104,14 19,14 L3,14 C1.896,14 1,13.104 1,12 L1,3 C1,1.896 1.896,1 3,1 L19,1 Z M3,16 L3,14.999 L19,14.999 L19,16 L3,16 Z M4,18 L4,17 L18,17 L18,18 L4,18 Z M6,20 L6,19 L17,19 L17,20 L6,20 Z M18,12 L18,3 L16,3 L16,6 L15,6 C13.344,6 12,7.343 12,9 C12,10.657 13.344,12 15,12 L18,12 Z M10,12 L10,3 L8,3 C5.791,3 4,4.791 4,7 L4,9 L4,12 L6,12 L6,9 L8,9 L8,12 L10,12 Z M14,9 C14,8.447 14.447,8 15,8 L16,8 L16,10 L15,10 C14.447,10 14,9.553 14,9 Z M6,7 C6,5.896 6.896,5 8,5 L8,7 L6,7 Z"/></svg>
