<svg xmlns="http://www.w3.org/2000/svg" width="16" height="16" viewBox="0 0 16 16"><path fill-rule="evenodd" d="M9 7.504a.5.5 0 0 0 .5.5H11a2 2 0 0 0 2-2v-1a2 2 0 0 0-2-2H9.5a.5.5 0 0 0-.5.5v4Zm3-1.5a1 1 0 0 1-1 1h-1v-3h1a1 1 0 0 1 1 1v1ZM7.5 8.004a.5.5 0 0 0 .5-.5v-4a.5.5 0 0 0-.5-.5H7a3 3 0 0 0-3 3v1.5a.5.5 0 0 0 1 0v-.5h2v.5a.5.5 0 0 0 .5.5Zm-.5-4v2H5a2 2 0 0 1 2-2Z" clip-rule="evenodd"/><path fill-rule="evenodd" d="M2 .004a1 1 0 0 0-1 1v9a1 1 0 0 0 1 1h13a1 1 0 0 0 1-1v-9a1 1 0 0 0-1-1H2Zm1 9v-7h11v7H3Z" clip-rule="evenodd"/><path d="M4 12.504a.5.5 0 0 1 .5-.5h9a.5.5 0 0 1 0 1h-9a.5.5 0 0 1-.5-.5ZM4 14.504a.5.5 0 0 1 .5-.5h9a.5.5 0 0 1 0 1h-9a.5.5 0 0 1-.5-.5Z"/></svg>