<svg xmlns="http://www.w3.org/2000/svg" xlink="http://www.w3.org/1999/xlink" width="16" height="16" viewBox="0 0 16 16"><path d="M13.393,1 C14.28,1 15,1.672 15,2.5 L15,9.5 C15,10.328 14.28,11 13.393,11 L1.607,11 C0.72,11 0,10.328 0,9.5 L0,2.5 C0,1.672 0.72,1 1.607,1 L13.393,1 Z M1,13 L1,12 L14.001,12 L14.001,13 L1,13 Z M2,15 L2,14 L13,14 L13,15 L2,15 Z M12,9 L12,3 L11,3 L11,5 L10,5 C8.897,5 8,5.896 8,7 C8,8.104 8.897,9 10,9 L12,9 Z M7,9 L7,3 L5,3 C3.897,3 3,3.896 3,5 L3,9 L4,9 L4,7 L6,7 L6,9 L7,9 Z M4,5 C4,4.449 4.448,4 5,4 L6,4 L6,6 L4,6 L4,5 Z M9,7 C9,6.449 9.448,6 10,6 L11,6 L11,8 L10,8 C9.448,8 9,7.551 9,7 Z"/></svg>
