<svg xmlns="http://www.w3.org/2000/svg" xlink="http://www.w3.org/1999/xlink" width="12" height="12" viewBox="0 0 12 12"><path d="M11,0 C11.553,0 12,0.447 12,1 L12,7 C12,7.553 11.553,8 11,8 L1,8 C0.447,8 0,7.553 0,7 L0,1 C0,0.447 0.447,0 1,0 L11,0 Z M1,10 L1,9 L11,9 L11,10 L1,10 Z M2,12 L2,11 L10,11 L10,12 L2,12 Z M5,7 L5,1 L4,1 C2.897,1 2,1.896 2,3 L2,7 L3,7 L3,5 L4,5 L4,7 L5,7 Z M3,3 C3,2.449 3.448,2 4,2 L4,4 L3,4 L3,3 Z M10,7 L10,1 L9,1 L9,3 L8,3 C6.897,3 6,3.896 6,5 C6,6.104 6.897,7 8,7 L10,7 Z M7,5 C7,4.449 7.448,4 8,4 L9,4 L9,6 L8,6 C7.448,6 7,5.551 7,5 Z"/></svg>
