<svg xmlns="http://www.w3.org/2000/svg" width="24" height="24" viewBox="0 0 24 24">
  <path fill-rule="evenodd" d="M16.935 1.051a5.748 5.748 0 0 0 2.576 3.764l.001.001c.921.587 2.02.929 3.198.929V9.87c-2.19 0-4.219-.684-5.875-1.846v8.385c0 4.188-3.487 7.595-7.772 7.595a7.851 7.851 0 0 1-4.455-1.377l-.002-.002C2.603 21.25 1.29 18.977 1.29 16.41c0-4.188 3.487-7.595 7.773-7.595.355 0 .704.029 1.047.074v4.213a3.575 3.575 0 0 0-1.047-.16c-1.958 0-3.55 1.556-3.55 3.468 0 1.332.773 2.49 1.903 3.07a3.59 3.59 0 0 0 1.646.399c1.913 0 3.472-1.486 3.543-3.338L12.612.004h4.223c0 .358.035.707.1 1.047Z" clip-rule="evenodd"/>
</svg>
