<svg xmlns="http://www.w3.org/2000/svg" width="16" height="16" viewBox="0 0 16 16">
  <path fill-rule="evenodd" d="M11.29.702a3.832 3.832 0 0 0 1.717 2.51h.001c.614.391 1.346.62 2.132.62v2.75a6.802 6.802 0 0 1-3.917-1.231v5.59c0 2.792-2.324 5.063-5.181 5.063a5.234 5.234 0 0 1-2.97-.918l-.001-.001C1.735 14.168.86 12.653.86 10.94c0-2.791 2.324-5.063 5.18-5.063.238 0 .47.02.7.05v.651L6.74 8.735a2.382 2.382 0 0 0-.698-.106c-1.305 0-2.367 1.037-2.367 2.312 0 .888.516 1.66 1.269 2.046.328.17.701.266 1.098.266 1.274 0 2.314-.99 2.362-2.225L8.408.004h2.815c0 .238.024.471.067.698Z" clip-rule="evenodd"/>
</svg>
