<svg xmlns="http://www.w3.org/2000/svg" width="22" height="22" viewBox="0 0 22 22"><path fill="#B286FF" d="M21 10.5c0 5.799-4.701 10.5-10.5 10.5s-10.5-4.701-10.5-10.5 4.701-10.5 10.5-10.5 10.5 4.701 10.5 10.5"/><path fill="#150435" d="M20 10.5c0 5.247-4.253 9.5-9.5 9.5s-9.5-4.253-9.5-9.5 4.253-9.5 9.5-9.5 9.5 4.253 9.5 9.5"/><path fill="#E3D6FF" d="M11 18.475l-.5.025-.5-.025v-7.475h1v7.475zm-7-3.323v-2.151h1v3.299c-.369-.35-.703-.734-1-1.148zm4-3.151v6.096c-.346-.114-.678-.253-1-.41v-5.686h1zm6-3v8.686c-.322.157-.654.296-1 .41v-9.096h1zm3 6.151c-.297.414-.631.798-1 1.148v-5.299h1v4.151zm.166-8.676c.174.287.333.583.469.892l-1.712 1.184-2.264-2.102-4.465 3.143-1.988-.767-2.277 2.496-2.103.504c-.056-.329-.091-.663-.105-1.004l1.676-.401 2.532-2.775 2.127.822 4.691-3.302 2.268 2.107 1.151-.797z"/></svg>