<svg xmlns="http://www.w3.org/2000/svg" width="16" height="16" viewBox="0 0 16 16"><path fill="#B286FF" d="M7.5 0c-4.143 0-7.5 3.357-7.5 7.5s3.357 7.5 7.5 7.5 7.5-3.357 7.5-7.5-3.357-7.5-7.5-7.5"/><path fill="#150435" d="M14 7.5c0 3.59-2.91 6.5-6.5 6.5s-6.5-2.91-6.5-6.5 2.91-6.5 6.5-6.5 6.5 2.91 6.5 6.5"/><path fill="#E3D6FF" d="M8 6h1v6.245c-.321.102-.654.169-1 .204v-6.449zm2 2h1v3.062c-.297.292-.639.532-1 .743v-3.805zm-6 3.062v-2.062h1v2.805c-.361-.211-.703-.451-1-.743zm2-3.062h1v4.449c-.346-.035-.679-.102-1-.204v-4.245zm-.905-1.997l-1.652 1.762-1.415.28c-.018-.18-.028-.361-.028-.545l.024-.474.909-.179 1.906-2.033 1.523.633 2.74-2.876 1.935 2.318.911-.613c.195.271.367.558.511.862l-1.611 1.083-1.795-2.148-2.441 2.562-1.517-.632z"/></svg>