<svg xmlns="http://www.w3.org/2000/svg" width="12" height="12" viewBox="0 0 12 12"><path fill="#B286FF" d="M11 5.5c0 3.037-2.463 5.5-5.5 5.5s-5.5-2.463-5.5-5.5 2.463-5.5 5.5-5.5 5.5 2.463 5.5 5.5"/><path fill="#150435" d="M10 5.5c0 2.485-2.015 4.5-4.5 4.5s-4.5-2.015-4.5-4.5 2.015-4.5 4.5-4.5 4.5 2.015 4.5 4.5"/><path fill="#E3D6FF" d="M8.58 3.132c.203.265.385.546.516.858l-1.521.993-1.703-1.725-2.706 2.912-1.542-.429-.024-.241c0-.267.027-.528.078-.781l1.17.324 3.003-3.23 1.861 1.886.868-.567zm-2.58 1.868v3.949c-.164.025-.328.051-.5.051s-.336-.026-.5-.051v-3.949h1zm1 3.65v-2.65h1v1.942c-.286.293-.627.529-1 .708zm-4-1.65h1v1.65c-.373-.179-.714-.415-1-.708v-.942z"/></svg>