<svg xmlns="http://www.w3.org/2000/svg" xlink="http://www.w3.org/1999/xlink" width="22" height="22" viewBox="0 0 22 22"><path d="M18.6833,3 C19.9633,3 21.0003,4.037 21.0003,5.316 L21.0003,15.684 C21.0003,16.963 19.9633,18 18.6833,18 L3.3163,18 C2.0373,18 1.0003,16.963 1.0003,15.684 L1.0003,5.316 C1.0003,4.037 2.0373,3 3.3163,3 L18.6833,3 Z M18.7793,14.666 L14.5723,10.474 L18.7793,6.281 C19.0733,5.989 19.0733,5.514 18.7813,5.221 C18.4893,4.927 18.0143,4.926 17.7203,5.219 L10.9733,11.941 L4.2793,5.271 C3.9863,4.978 3.5113,4.98 3.2183,5.273 C2.9263,5.567 2.9263,6.041 3.2203,6.334 L7.4273,10.526 L3.2203,14.719 C2.9263,15.011 2.9263,15.486 3.2183,15.779 C3.3653,15.926 3.5573,16 3.7503,16 C3.9413,16 4.1333,15.927 4.2793,15.781 L8.4903,11.585 L10.9733,14.059 L13.5093,11.532 L17.7203,15.728 C18.0143,16.021 18.4893,16.02 18.7813,15.727 C19.0733,15.433 19.0733,14.958 18.7793,14.666 Z"/></svg>
