<svg xmlns="http://www.w3.org/2000/svg" xlink="http://www.w3.org/1999/xlink" width="16" height="16" viewBox="0 0 16 16"><path d="M13.9995,2.0005 L1.9995,2.0005 C0.8995,2.0005 -0.0005,2.9005 -0.0005,4.0005 L-0.0005,12.0005 C-0.0005,13.0995 0.8995,14.0005 1.9995,14.0005 L13.9995,14.0005 C15.1005,14.0005 15.9995,13.0995 15.9995,12.0005 L15.9995,4.0005 C15.9995,2.9005 15.1005,2.0005 13.9995,2.0005 L13.9995,2.0005 Z M14.3535,11.6465 C14.4515,11.7445 14.4995,11.8725 14.4995,12.0005 C14.4995,12.1275 14.4515,12.2555 14.3535,12.3535 C14.2555,12.4515 14.1275,12.5005 13.9995,12.5005 C13.8725,12.5005 13.7445,12.4515 13.6465,12.3535 L9.9995,8.7075 L7.9995,10.7075 L5.9995,8.7075 L2.3535,12.3535 C2.2555,12.4515 2.1275,12.5005 1.9995,12.5005 C1.8725,12.5005 1.7445,12.4515 1.6465,12.3535 C1.5485,12.2555 1.4995,12.1265 1.4995,11.9985 C1.5005,11.8715 1.5495,11.7445 1.6465,11.6465 L5.2925,8.0005 L1.6465,4.3535 C1.5485,4.2555 1.4995,4.1275 1.4995,4.0005 C1.4995,3.8725 1.5485,3.7445 1.6465,3.6465 C1.7445,3.5485 1.8725,3.5005 1.9995,3.5005 C2.1275,3.5005 2.2555,3.5485 2.3535,3.6465 L7.9995,9.2925 L13.6465,3.6465 C13.7435,3.5485 13.8715,3.5005 13.9985,3.5005 C14.1265,3.5005 14.2555,3.5485 14.3535,3.6465 C14.4515,3.7445 14.4995,3.8725 14.4995,4.0005 C14.4995,4.1275 14.4515,4.2555 14.3535,4.3535 L10.7075,8.0005 L14.3535,11.6465 Z"/></svg>
