<svg xmlns="http://www.w3.org/2000/svg" xlink="http://www.w3.org/1999/xlink" width="12" height="12" viewBox="0 0 12 12"><path d="M10.5,1 L1.5,1 C0.675,1 0,1.674 0,2.5 L0,8.5 C0,9.325 0.675,10 1.5,10 L10.5,10 C11.326,10 12,9.325 12,8.5 L12,2.5 C12,1.674 11.326,1 10.5,1 L10.5,1 Z M10.854,8.146 C11.049,8.34 11.049,8.658 10.854,8.852 C10.756,8.951 10.628,9 10.5,9 C10.373,9 10.245,8.951 10.147,8.853 L7.5,6.207 L6,7.707 L4.5,6.207 L1.854,8.853 C1.66,9.048 1.342,9.048 1.147,8.853 C0.953,8.659 0.953,8.341 1.147,8.147 L3.793,5.5 L1.146,2.854 C0.952,2.659 0.952,2.341 1.146,2.146 C1.341,1.952 1.659,1.952 1.854,2.146 L6,6.292 L10.147,2.146 C10.341,1.952 10.659,1.952 10.853,2.146 C11.048,2.341 11.048,2.659 10.853,2.854 L8.208,5.5 L10.854,8.146 Z"/></svg>
