<svg xmlns="http://www.w3.org/2000/svg" xlink="http://www.w3.org/1999/xlink" width="22" height="22" viewBox="0 0 22 22"><path d="M3.421,2 L20,18.579 L18.579,20 L15.674,17.095 C14.087,17.727 12.492,18 11,18 C7.562,18 3.575,16.6 0.412,12.54 C0.138,12.12 0,11.56 0,11 C0,10.44 0.138,9.88 0.412,9.46 C1.651,7.87 3.018,6.696 4.426,5.847 L2,3.421 L3.421,2 Z M11,16.5 C12.156,16.5 13.226,16.141 14.11,15.531 L12.271,13.691 C11.883,13.877 11.459,14 11,14 C9.344,14 8,12.657 8,11 C8,10.541 8.123,10.117 8.309,9.729 L6.469,7.89 C5.859,8.774 5.5,9.844 5.5,11 C5.5,14.038 7.963,16.5 11,16.5 Z M21.5879,9.46 C21.8619,9.88 21.9999,10.44 21.9999,11 C21.9999,11.56 21.8619,12.12 21.5879,12.54 C20.8439,13.495 20.0539,14.297 19.2359,14.974 L16.3849,12.122 C16.4599,11.76 16.4999,11.385 16.4999,11 C16.4999,7.962 14.0369,5.5 10.9999,5.5 C10.6149,5.5 10.2399,5.54 9.8779,5.615 L8.5129,4.25 C9.3589,4.081 10.1949,4 10.9999,4 C14.4379,4 18.4249,5.4 21.5879,9.46 Z"/></svg>
