<svg xmlns="http://www.w3.org/2000/svg" xlink="http://www.w3.org/1999/xlink" width="16" height="16" viewBox="0 0 16 16"><path d="M2.5,1 L1.5,2 L3.623,4.123 C2.473,4.75 1.358,5.664 0.356,6.953 C0.119,7.258 0,7.629 0,8 C0,8.371 0.119,8.742 0.356,9.047 C2.622,11.96 5.459,13 8,13 C9.201,13 10.467,12.762 11.708,12.208 L14.5,15 L15.5,14 L2.5,1 Z M8,12 C5.791,12 4,10.209 4,8 C4,7.021 4.36,6.137 4.946,5.445 L6.364,6.863 C6.138,7.187 6,7.575 6,8 C6,9.104 6.896,10 8,10 C8.425,10 8.813,9.862 9.137,9.637 L10.555,11.055 C9.863,11.641 8.979,12 8,12 Z M15.6436,6.9531 C15.8806,7.2581 15.9996,7.6291 15.9996,8.0001 C15.9996,8.3711 15.8816,8.7421 15.6436,9.0471 C15.1646,9.6631 14.6566,10.1781 14.1346,10.6351 L11.9546,8.4541 C11.9716,8.3041 11.9996,8.1551 11.9996,8.0001 C11.9996,5.7911 10.2086,4.0001 7.9996,4.0001 C7.8446,4.0001 7.6966,4.0281 7.5456,4.0461 L6.6176,3.1171 C7.0836,3.0471 7.5476,3.0001 7.9996,3.0001 C10.5406,3.0001 13.3776,4.0391 15.6436,6.9531 Z"/></svg>
