<svg xmlns="http://www.w3.org/2000/svg" xlink="http://www.w3.org/1999/xlink" width="12" height="12" viewBox="0 0 12 12"><path d="M11,12 L12,11 L1,0 L0,1 L2.3,3.3 C1.5,3.9 0.7,4.8 0,6 C1.7,9 4,10 6,10 C6.8,10 7.6,9.8 8.4,9.4 L11,12 Z M6,9 C4.3,9 3,7.7 3,6 C3,5.4 3.2,4.9 3.4,4.4 L4.4,5.4 C4.3,5.6 4.3,5.8 4.3,6 C4.3,6.9 5.1,7.7 6,7.7 C6.2,7.7 6.4,7.7 6.6,7.6 L7.6,8.6 C7.1,8.8 6.6,9 6,9 L6,9 Z M10.8,7.8 C11.2,7.2 11.6,6.7 12,6 C10.3,3 8,2 6,2 C5.7,2 5.4,2 5.1,2.1 L6,3 C7.7,3 9,4.3 9,6 L10.8,7.8 Z"/></svg>
