<svg width="24" height="24" viewBox="0 0 24 24" xmlns="http://www.w3.org/2000/svg"><path d="M12.902 11c.112-.503.318-.926.843-1.376.07-.06.146-.12.223-.182C14.45 9.054 15 8.612 15 7.704 15 6.011 13.879 5 12 5c-1.654 0-3 1.346-3 3h1.804c0-.604.227-1.498 1.196-1.498s1.101.565 1.101 1.202c0 .367-.35.663-.943 1.163L12 9c-.687.583-.902 1.151-.902 2h1.804Zm-2.152 2a1.25 1.25 0 1 0 2.498.002A1.25 1.25 0 0 0 10.75 13Z"/><path fill-rule="evenodd" clip-rule="evenodd" d="M21.048 2H3.003A1.003 1.003 0 0 0 2 3v18.016a1 1 0 0 0 .551.89 1.004 1.004 0 0 0 1.003-.09l5.153-3.803h12.29a1.003 1.003 0 0 0 1.003-1V3a1 1 0 0 0-.952-1Zm-1.003 14.012H8.426c-.213.002-.42.072-.591.2l-3.83 2.822V4.022h16.04v11.99Z"/></svg>