<svg width="24" height="24" viewBox="0 0 24 24" xmlns="http://www.w3.org/2000/svg"><path d="M4 1a1 1 0 0 1 1-1h14a1 1 0 1 1 0 2H5a1 1 0 0 1-1-1Zm0 4a1 1 0 0 1 1-1h14a1 1 0 1 1 0 2H5a1 1 0 0 1-1-1Z"/><path fill-rule="evenodd" clip-rule="evenodd" d="M9 19a1 1 0 1 0 2 0v-6a1 1 0 0 0-1-1H9a4 4 0 0 0-4 4v3a1 1 0 1 0 2 0v-1h2v1Zm-2-3a2 2 0 0 1 2-2v2H7Zm8-4h-1a1 1 0 0 0-1 1v6a1 1 0 0 0 1 1h1a4 4 0 0 0 0-8Zm0 6a2 2 0 1 0 0-4v4Z"/><path fill-rule="evenodd" clip-rule="evenodd" d="M2 8a1 1 0 0 0-1 1v14a1 1 0 0 0 1 1h20a1 1 0 0 0 1-1V9a1 1 0 0 0-1-1H2Zm1 14V10h18v12H3Z"/></svg>