<svg xmlns="http://www.w3.org/2000/svg" xlink="http://www.w3.org/1999/xlink" width="22" height="22" viewBox="0 0 22 22"><path d="M19,7 C20.104,7 21,7.896 21,9 L21,18 C21,19.104 20.104,20 19,20 L3,20 C1.896,20 1,19.104 1,18 L1,9 C1,7.896 1.896,7 3,7 L19,7 Z M18,18 L18,9 L16,9 L16,12 L15,12 C13.344,12 12,13.343 12,15 C12,16.657 13.344,18 15,18 L18,18 Z M10,18 L10,9 L8,9 C5.791,9 4,10.791 4,13 L4,15 L4,18 L6,18 L6,15 L8,15 L8,18 L10,18 Z M3,6 L3,5 L19,5 L19,6 L3,6 Z M4,4 L4,3 L18,3 L18,4 L4,4 Z M5,2 L5,1 L16.001,1 L16.001,2 L5,2 Z M14,15 C14,14.447 14.447,14 15,14 L16,14 L16,16 L15,16 C14.447,16 14,15.553 14,15 Z M6,13 C6,11.896 6.896,11 8,11 L8,13 L6,13 Z"/></svg>
