<svg xmlns="http://www.w3.org/2000/svg" xlink="http://www.w3.org/1999/xlink" width="16" height="16" viewBox="0 0 16 16"><path d="M13.393,5 C14.28,5 15,5.672 15,6.5 L15,13.5 C15,14.328 14.28,15 13.393,15 L1.607,15 C0.72,15 0,14.328 0,13.5 L0,6.5 C0,5.672 0.72,5 1.607,5 L13.393,5 Z M1,4 L1,3 L14.001,3 L14.001,4 L1,4 Z M2,2 L2,0.999 L13,0.999 L13,2 L2,2 Z M12,13 L12,7 L11,7 L11,9 L10,9 C8.897,9 8,9.896 8,11 C8,12.104 8.897,13 10,13 L12,13 Z M7,13 L7,7 L5,7 C3.897,7 3,7.896 3,9 L3,13 L4,13 L4,11 L6,11 L6,13 L7,13 Z M4,9 C4,8.449 4.448,8 5,8 L6,8 L6,10 L4,10 L4,9 Z M9,11 C9,10.449 9.448,10 10,10 L11,10 L11,12 L10,12 C9.448,12 9,11.551 9,11 Z"/></svg>
