<svg xmlns="http://www.w3.org/2000/svg" xlink="http://www.w3.org/1999/xlink" width="12" height="12" viewBox="0 0 12 12"><path d="M11,4 C11.553,4 12,4.447 12,5 L12,11 C12,11.553 11.553,12 11,12 L1,12 C0.447,12 0,11.553 0,11 L0,5 C0,4.447 0.447,4 1,4 L11,4 Z M1,3 L1,2 L11,2 L11,3 L1,3 Z M2,1 L2,0 L10,0 L10,1 L2,1 Z M10,11 L10,5 L9,5 L9,7 L8,7 C6.897,7 6,7.896 6,9 C6,10.104 6.897,11 8,11 L10,11 Z M5,11 L5,5 L4,5 C2.897,5 2,5.896 2,7 L2,11 L3,11 L3,9 L4,9 L4,11 L5,11 Z M3,7 C3,6.449 3.448,6 4,6 L4,8 L3,8 L3,7 Z M7,9 C7,8.449 7.448,8 8,8 L9,8 L9,10 L8,10 C7.448,10 7,9.551 7,9 Z"/></svg>
