<svg width="24" height="24" viewBox="0 0 24 24" fill="none" xmlns="http://www.w3.org/2000/svg">
<g clip-path="url(#clip0_6485_109)">
<path d="M19.7 1.00977H4.3C2.47746 1.00977 1 2.48723 1 4.30977V19.7098C1 21.5323 2.47746 23.0098 4.3 23.0098H19.7C21.5225 23.0098 23 21.5323 23 19.7098V4.30977C23 2.48723 21.5225 1.00977 19.7 1.00977Z" fill="#FFFC00"/>
<path d="M9.69565 18.7926C8.91304 18.211 8.30435 17.8978 6.82609 18.1662C6.6087 18.211 6.21739 18.3452 6.17391 17.9425C6.08696 17.6293 6.08696 17.1372 5.86957 17.0925C4.52174 16.9135 4.04348 16.645 3.82609 16.3766C3.73913 16.2871 3.69565 16.0634 3.86957 16.0187C6.17391 15.5713 7.26087 13.2895 7.47826 12.8421C7.73913 12.171 7.30435 11.7683 6.47826 11.4999C6.08696 11.3657 5.43478 11.1867 5.43478 10.7393C5.43478 10.5156 5.65217 10.3814 5.86957 10.2919C6.04348 10.2471 6.21739 10.2024 6.3913 10.2919C6.91304 10.5156 7.3913 10.6051 7.65217 10.3814C7.65217 9.17337 7.34783 7.65219 7.82609 6.39946C8.3913 5.0125 9.78261 3.75977 12 3.75977C14.2174 3.75977 15.6087 5.0125 16.1739 6.39946C16.6522 7.65219 16.3478 9.17337 16.3478 10.3814C16.6087 10.6051 17.087 10.5156 17.6087 10.2919C17.7826 10.2024 17.9565 10.2471 18.1304 10.2919C18.3478 10.3814 18.5652 10.5156 18.5652 10.7393C18.5652 11.1867 17.913 11.3657 17.5217 11.4999C16.6957 11.7683 16.2609 12.171 16.5217 12.8421C16.7391 13.2895 17.8261 15.5713 20.1304 16.0187C20.3043 16.0634 20.2609 16.2871 20.1739 16.3766C19.9565 16.645 19.4783 16.9135 18.1304 17.0925C17.913 17.1372 17.913 17.6293 17.8261 17.9425C17.7826 18.3452 17.3913 18.211 17.1739 18.1662C15.6957 17.8978 15.087 18.211 14.3043 18.7926C13.6639 19.3631 12.847 19.6803 12 19.6874C11.087 19.7321 10.3478 19.3295 9.69565 18.7926Z" fill="white"/>
<path fill-rule="evenodd" clip-rule="evenodd" d="M8.14588 6.52561C7.93187 7.08836 7.88751 7.72716 7.90344 8.39905C7.91074 8.70704 7.93033 9.01435 7.9499 9.32143C7.95165 9.34895 7.95341 9.37646 7.95515 9.40398C7.97615 9.73508 7.99592 10.067 7.99592 10.3814V10.5394L7.87594 10.6423C7.64401 10.8412 7.34732 10.8734 7.08438 10.8463C6.8181 10.8189 6.53193 10.7262 6.25584 10.6078L6.24476 10.6031L6.23404 10.5976C6.21453 10.5875 6.19263 10.582 6.1525 10.5846C6.10783 10.5875 6.05805 10.5986 5.97931 10.6186C5.89477 10.6549 5.83507 10.69 5.79945 10.7218C5.7875 10.7325 5.78143 10.74 5.77867 10.7439C5.78042 10.7736 5.8017 10.8396 5.97639 10.9364C6.12404 11.0182 6.30037 11.0773 6.4799 11.1376C6.5156 11.1496 6.55143 11.1616 6.58718 11.1738C7.01679 11.3137 7.40868 11.5065 7.65138 11.8017C7.77815 11.9558 7.86353 12.1373 7.88935 12.3445C7.91486 12.5493 7.87969 12.7582 7.79866 12.9666L7.79358 12.9797L7.78745 12.9923C7.78514 12.9971 7.78273 13.002 7.78022 13.0072C7.66227 13.2502 7.32185 13.9516 6.71711 14.6546C6.14975 15.3141 5.3345 15.9927 4.23363 16.2873C4.44596 16.4351 4.89523 16.6163 5.91481 16.7517L5.92691 16.7533L5.93886 16.7558C6.12963 16.795 6.23935 16.9295 6.29691 17.0328C6.35326 17.134 6.38491 17.2483 6.40589 17.3408C6.42445 17.4226 6.43953 17.5112 6.45271 17.5886C6.45486 17.6013 6.45697 17.6136 6.45902 17.6256C6.4748 17.7174 6.4886 17.791 6.50513 17.8506L6.51266 17.8777C6.52985 17.8759 6.55081 17.8734 6.57598 17.8688C6.60294 17.8638 6.63076 17.8577 6.66139 17.8507C6.66699 17.8495 6.67289 17.8481 6.679 17.8467C6.70356 17.8411 6.73144 17.8347 6.75679 17.8295L6.76465 17.8279C7.53409 17.6882 8.11097 17.6936 8.61138 17.8288C9.11077 17.9637 9.50115 18.2198 9.9007 18.5167L9.9144 18.5269C10.5354 19.0381 11.1919 19.3828 11.9832 19.3441L11.9971 19.3434C12.7597 19.337 13.4966 19.0517 14.0757 18.5359L14.0871 18.5258L14.0993 18.5167C14.4989 18.2198 14.8892 17.9637 15.3886 17.8288C15.889 17.6936 16.4659 17.6883 17.2353 17.828L17.2432 17.8294C17.2686 17.8347 17.2964 17.8411 17.321 17.8467C17.3271 17.8481 17.333 17.8495 17.3386 17.8507C17.3692 17.8577 17.3971 17.8638 17.424 17.8688C17.4492 17.8734 17.4701 17.8764 17.4873 17.8782L17.4949 17.8506C17.5114 17.791 17.5252 17.7174 17.541 17.6256C17.543 17.6136 17.5451 17.6013 17.5473 17.5887C17.5605 17.5113 17.5756 17.4226 17.5941 17.3408C17.6151 17.2483 17.6467 17.134 17.7031 17.0328C17.7607 16.9295 17.8704 16.795 18.0611 16.7558L18.0731 16.7533L18.0852 16.7517C19.1048 16.6163 19.554 16.4351 19.7664 16.2873C18.6655 15.9927 17.8503 15.3141 17.2829 14.6546C16.6782 13.9516 16.3377 13.2502 16.2198 13.0072L16.2064 12.9797L16.2013 12.9666C16.1203 12.7582 16.0851 12.5493 16.1107 12.3445C16.1365 12.1373 16.2219 11.9558 16.3486 11.8017C16.5913 11.5065 16.9832 11.3137 17.4128 11.1738C17.4486 11.1616 17.4844 11.1496 17.5201 11.1376C17.6996 11.0773 17.876 11.0182 18.0236 10.9364C18.1983 10.8396 18.2196 10.7736 18.2213 10.7439C18.2186 10.74 18.2125 10.7325 18.2006 10.7218C18.1649 10.69 18.1052 10.6549 18.0207 10.6186C17.9419 10.5986 17.8922 10.5875 17.8475 10.5846C17.8074 10.582 17.7855 10.5875 17.766 10.5976L17.7552 10.6031L17.7442 10.6078C17.4681 10.7262 17.1819 10.8189 16.9156 10.8463C16.6527 10.8734 16.356 10.8412 16.1241 10.6423L16.0041 10.5394V10.3814C16.0041 10.067 16.0238 9.73508 16.0448 9.40398C16.0466 9.37644 16.0484 9.3489 16.0501 9.32135C16.0697 9.0143 16.0893 8.70702 16.0966 8.39905C16.1125 7.72715 16.0681 7.08836 15.8541 6.5256C15.3368 5.25991 14.0657 4.10352 12 4.10352C9.93434 4.10352 8.66318 5.25992 8.14588 6.52561ZM7.50776 6.26973C8.12182 4.76291 9.63282 3.41602 12 3.41602C14.3672 3.41602 15.8782 4.76291 16.4922 6.26973L16.4951 6.27682C16.7582 6.96594 16.8005 7.71287 16.7839 8.41534C16.7762 8.73782 16.7558 9.05865 16.7363 9.36343C16.7345 9.39159 16.7327 9.41962 16.731 9.44749C16.715 9.69867 16.7007 9.93747 16.6947 10.1639C16.7336 10.1684 16.7829 10.1689 16.8452 10.1625C17.0116 10.1453 17.2221 10.0829 17.4639 9.97995C17.7522 9.83782 18.0359 9.91193 18.1929 9.95294C18.201 9.95505 18.2087 9.95707 18.2161 9.95898L18.2392 9.96492L18.2613 9.97401C18.3829 10.0241 18.5336 10.0977 18.6581 10.2087C18.7885 10.3249 18.909 10.501 18.909 10.7393C18.909 11.1596 18.5963 11.405 18.3568 11.5377C18.1481 11.6533 17.899 11.7363 17.7214 11.7954C17.6895 11.806 17.6599 11.8159 17.6333 11.825L17.628 11.8268C17.2326 11.9553 16.9951 12.0979 16.8796 12.2383C16.8271 12.3023 16.801 12.3641 16.7929 12.4295C16.7847 12.4952 16.7922 12.5845 16.8375 12.7054C16.9499 12.9369 17.2588 13.5724 17.8041 14.2062C18.3605 14.853 19.145 15.4772 20.196 15.6812L20.2061 15.6832L20.2161 15.6858C20.3355 15.7165 20.4397 15.7861 20.5092 15.8908C20.5748 15.9896 20.5938 16.0956 20.5938 16.1809C20.5938 16.3329 20.5339 16.4916 20.4329 16.6028C20.1308 16.9681 19.552 17.2396 18.2841 17.4184C18.2782 17.4374 18.2716 17.4618 18.2646 17.4928C18.2505 17.5549 18.239 17.6226 18.2255 17.7013C18.2233 17.7146 18.2209 17.7282 18.2185 17.7421C18.2044 17.8242 18.1875 17.9191 18.1642 18.0089C18.1435 18.1557 18.0862 18.2968 17.9716 18.4043C17.8511 18.5174 17.708 18.5549 17.5946 18.5646C17.4837 18.5741 17.3776 18.5594 17.2988 18.5448C17.2542 18.5365 17.1873 18.5214 17.1437 18.5116C17.1281 18.5081 17.1155 18.5052 17.108 18.5036C16.4017 18.3758 15.9363 18.393 15.5679 18.4925C15.2016 18.5914 14.8988 18.7799 14.5213 19.0597C13.823 19.6767 12.9336 20.0216 12.0098 20.0311C10.9817 20.0792 10.1643 19.6222 9.48389 19.0635C9.10397 18.7816 8.80011 18.5919 8.4321 18.4925C8.06373 18.393 7.59832 18.3758 6.89204 18.5036C6.88452 18.5052 6.8719 18.5081 6.85628 18.5116C6.8127 18.5214 6.74577 18.5365 6.70119 18.5448C6.6224 18.5594 6.51626 18.5741 6.40541 18.5646C6.29202 18.5549 6.1489 18.5174 6.02838 18.4043C5.9138 18.2968 5.85652 18.1557 5.83581 18.0089C5.81248 17.9191 5.79558 17.8242 5.78147 17.7421C5.77907 17.7281 5.77674 17.7145 5.77447 17.7012C5.76104 17.6225 5.74949 17.5549 5.73541 17.4928C5.72838 17.4618 5.72178 17.4374 5.71592 17.4184C4.44798 17.2396 3.8692 16.9681 3.56706 16.6028C3.46607 16.4916 3.40625 16.3329 3.40625 16.1809C3.40625 16.0956 3.42518 15.9896 3.49076 15.8908C3.56027 15.7861 3.66454 15.7165 3.78392 15.6858L3.79392 15.6832L3.80405 15.6812C4.85499 15.4772 5.63952 14.853 6.19593 14.2062C6.74122 13.5724 7.0501 12.9369 7.1625 12.7054C7.20779 12.5845 7.21531 12.4952 7.20712 12.4295C7.19897 12.3641 7.17294 12.3023 7.12036 12.2383C7.00487 12.0979 6.76745 11.9553 6.37203 11.8268L6.36671 11.8251C6.34007 11.8159 6.31047 11.806 6.27855 11.7954C6.10096 11.7363 5.85186 11.6533 5.64318 11.5377C5.40366 11.405 5.09103 11.1596 5.09103 10.7393C5.09103 10.501 5.21154 10.3249 5.34186 10.2087C5.46638 10.0977 5.61711 10.0241 5.73872 9.97401L5.7608 9.96492L5.78392 9.95898C5.79131 9.95707 5.79905 9.95505 5.80712 9.95294C5.96412 9.91193 6.24778 9.83782 6.53612 9.97995C6.77785 10.0829 6.98839 10.1453 7.15475 10.1625C7.2171 10.1689 7.26642 10.1684 7.30534 10.1639C7.29927 9.93747 7.28496 9.69867 7.26903 9.44749C7.26726 9.41961 7.26548 9.39158 7.26368 9.36341C7.24424 9.05864 7.22377 8.73782 7.21613 8.41534C7.19948 7.71287 7.24186 6.96597 7.50494 6.27685L7.50776 6.26973Z" fill="black"/>
</g>
<defs>
<clipPath id="clip0_6485_109">
<rect width="22" height="22" fill="white" transform="translate(1 1.00977)"/>
</clipPath>
</defs>
</svg>
