<svg xmlns="http://www.w3.org/2000/svg" width="16" height="16" fill="none" viewBox="0 0 16 16">
  <g clip-path="url(#a)">
    <path fill="#FFFC00" d="M13.6.01H2.4A2.4 2.4 0 0 0 0 2.41v11.2a2.4 2.4 0 0 0 2.4 2.4h11.2a2.4 2.4 0 0 0 2.4-2.4V2.41a2.4 2.4 0 0 0-2.4-2.4Z"/>
    <path fill="#fff" d="M6.324 12.943c-.57-.423-1.012-.651-2.087-.456-.158.033-.443.13-.474-.162-.063-.228-.063-.586-.221-.619-.98-.13-1.329-.325-1.487-.52-.063-.065-.095-.228.032-.26 1.676-.326 2.466-1.986 2.624-2.31.19-.489-.126-.782-.727-.977-.284-.098-.759-.228-.759-.553 0-.163.158-.26.317-.326.126-.032.252-.065.379 0 .38.163.727.228.917.065 0-.878-.221-1.984.126-2.895C5.375 2.92 6.387 2.01 8 2.01s2.624.91 3.036 1.92c.347.91.126 2.017.126 2.895.19.163.538.098.917-.065.127-.065.253-.032.38 0 .158.065.316.163.316.326 0 .325-.475.455-.76.553-.6.195-.916.488-.726.976.158.325.948 1.985 2.624 2.31.127.033.095.196.032.26-.158.196-.506.391-1.486.521-.159.033-.159.39-.222.619-.031.292-.316.195-.474.162-1.075-.195-1.518.033-2.087.456a2.551 2.551 0 0 1-1.676.65c-.664.033-1.202-.26-1.676-.65Z"/>
    <path fill="#000" fill-rule="evenodd" d="M5.197 4.021c-.156.41-.188.874-.176 1.363.005.224.02.447.033.67l.004.06c.016.241.03.483.03.711v.115L5 7.015c-.169.145-.385.168-.576.149a2.137 2.137 0 0 1-.603-.174l-.008-.003-.007-.004a.105.105 0 0 0-.06-.01.72.72 0 0 0-.126.025.5.5 0 0 0-.13.075.1.1 0 0 0-.016.016c.002.022.017.07.144.14.108.06.236.103.366.146l.078.027c.313.102.598.242.774.456a.764.764 0 0 1 .173.395.927.927 0 0 1-.066.453l-.003.01-.005.008a3.546 3.546 0 0 0-.005.011c-.086.177-.333.687-.773 1.198-.413.48-1.006.973-1.806 1.188.154.107.48.239 1.222.337l.01.002.008.001a.39.39 0 0 1 .26.202.852.852 0 0 1 .08.224 3.462 3.462 0 0 1 .038.207c.012.067.022.12.034.164l.005.02a.518.518 0 0 0 .108-.02l.013-.003.057-.013h.005c.56-.103.98-.099 1.344 0 .363.098.647.284.937.5l.01.007c.452.372.93.623 1.505.595h.01a2.301 2.301 0 0 0 1.512-.588l.008-.007.009-.007c.29-.216.574-.402.938-.5.363-.099.783-.102 1.342 0h.006l.057.013.013.003a1.66 1.66 0 0 0 .108.02l.005-.02c.012-.044.022-.097.034-.164l.004-.027c.01-.056.02-.12.034-.18a.853.853 0 0 1 .08-.224.39.39 0 0 1 .26-.202l.009-.001.009-.002c.741-.098 1.068-.23 1.222-.337-.8-.215-1.393-.708-1.806-1.188-.44-.511-.687-1.021-.773-1.198l-.01-.02-.003-.01a.927.927 0 0 1-.066-.452.763.763 0 0 1 .173-.395c.176-.214.461-.354.774-.456l.078-.027c.13-.043.258-.086.366-.146.127-.07.142-.118.144-.14a.098.098 0 0 0-.016-.016.5.5 0 0 0-.13-.075.72.72 0 0 0-.126-.025.105.105 0 0 0-.06.01l-.007.004-.008.003c-.201.086-.41.154-.603.174-.191.02-.407-.004-.576-.149l-.087-.075v-.115c0-.228.014-.47.03-.71l.003-.06c.015-.224.029-.447.034-.671.012-.489-.02-.953-.176-1.363-.376-.92-1.3-1.761-2.803-1.761-1.502 0-2.427.84-2.803 1.761Zm-.464-.186C5.18 2.74 6.278 1.76 8 1.76s2.82.98 3.267 2.075l.002.005c.191.502.222 1.045.21 1.556-.005.234-.02.468-.034.69l-.004.06c-.012.183-.022.357-.027.521a.512.512 0 0 0 .11 0 1.64 1.64 0 0 0 .45-.133c.21-.104.416-.05.53-.02l.017.004.017.005.016.006c.088.037.198.09.288.17a.512.512 0 0 1 .183.387c0 .305-.228.484-.402.58a2.795 2.795 0 0 1-.462.188 8.126 8.126 0 0 0-.064.021l-.004.002c-.287.093-.46.197-.544.299a.266.266 0 0 0-.063.139.425.425 0 0 0 .032.2c.082.17.307.631.703 1.092.405.47.975.925 1.74 1.073l.007.001.007.002a.36.36 0 0 1 .275.36c0 .11-.043.226-.117.307-.22.266-.64.463-1.563.593a2.8 2.8 0 0 0-.048.235c-.01.06-.022.13-.039.195a.475.475 0 0 1-.14.287.45.45 0 0 1-.274.117.81.81 0 0 1-.215-.014c-.033-.006-.081-.018-.113-.025l-.026-.005c-.514-.093-.852-.08-1.12-.008-.267.071-.487.209-.761.412a2.8 2.8 0 0 1-1.827.706c-.748.036-1.342-.297-1.837-.703-.276-.205-.497-.343-.765-.415-.268-.073-.606-.085-1.12.008a1.262 1.262 0 0 0-.026.005c-.032.008-.08.019-.113.024a.81.81 0 0 1-.215.015.45.45 0 0 1-.274-.117.475.475 0 0 1-.14-.287 2.385 2.385 0 0 1-.045-.224c-.01-.057-.018-.106-.028-.151a.74.74 0 0 0-.014-.055c-.922-.13-1.343-.327-1.563-.593a.469.469 0 0 1-.117-.307.36.36 0 0 1 .275-.36l.007-.002.007-.001c.765-.149 1.335-.602 1.74-1.073.396-.46.621-.923.703-1.091a.425.425 0 0 0 .032-.201.265.265 0 0 0-.063-.139c-.084-.102-.256-.206-.544-.3h-.004a7.813 7.813 0 0 0-.064-.022 2.798 2.798 0 0 1-.462-.188c-.174-.096-.402-.275-.402-.58 0-.174.088-.302.183-.386.09-.08.2-.134.288-.17l.016-.007.017-.005.017-.004c.114-.03.32-.084.53.02.176.074.33.12.45.132a.511.511 0 0 0 .11.001 14.504 14.504 0 0 0-.03-.582 17.24 17.24 0 0 1-.035-.69c-.012-.51.019-1.053.21-1.555l.002-.005Z" clip-rule="evenodd"/>
  </g>
  <defs>
    <clipPath id="a">
      <path fill="#fff" d="M0 .01h16v16H0z"/>
    </clipPath>
  </defs>
</svg>
