<svg xmlns="http://www.w3.org/2000/svg" width="24" height="24" fill="none" viewBox="0 0 24 24">
  <path fill="#388AED" fill-rule="evenodd" d="M22.368 14.143C21.3 18.992 16.979 22.62 11.81 22.62c-2.537 0-4.87-.874-6.714-2.337l.017.026-.184.254c-.294.41-.652.91-1.109 1.352-.494.479-1.097.94-1.41 1.058-.313.117-.744-.157-.666-.549.038-.19.076-.29.114-.39.04-.109.08-.216.121-.432.079-.418.243-1.434.274-2.154.032-.721-.352-2.599-.548-3.447 0 0-.253-.851-.353-1.41a6.914 6.914 0 0 1-.016-.095A10.83 10.83 0 0 1 1 11.81C1 5.84 5.84 1 11.81 1c5.79 0 10.517 4.552 10.797 10.273l-.006-.09c0 .13-.106.235-.235.235H13.22a.705.705 0 0 1-.705-.705V7.658a.94.94 0 0 0-.94-.94h-.078a.94.94 0 0 0-.94.94v9.4c0 .52.42.94.94.94h.078c.52 0 .94-.42.94-.94V14.16c0-.39.316-.705.705-.705h8.443c.384 0 .695.306.705.688ZM6.092 8.873a.666.666 0 1 1 1.331 0v5.013a.666.666 0 0 1-1.331 0V8.873Zm2.193 2.389a.705.705 0 1 1 1.41 0v3.995a.705.705 0 1 1-1.41 0v-3.995Z" clip-rule="evenodd"/>
  <path fill="#388AED" d="M22.43 13.842Z"/>
</svg>
