<svg xmlns="http://www.w3.org/2000/svg" width="16" height="16" fill="none" viewBox="0 0 16 16">
  <path fill="#388AED" fill-rule="evenodd" d="M15.54 9.558a7.865 7.865 0 0 1-12.56 4.466l.01.02-.132.183c-.214.299-.475.662-.807.984-.36.348-.798.684-1.026.769-.227.085-.54-.114-.484-.399.028-.137.055-.21.083-.284.03-.079.059-.157.088-.314.057-.304.177-1.043.2-1.567.022-.524-.257-1.89-.4-2.506 0 0-.183-.62-.256-1.026a5.055 5.055 0 0 1-.011-.069 7.862 7.862 0 1 1 15.47-2.344l-.006-.065a.17.17 0 0 1-.17.171H8.887a.513.513 0 0 1-.512-.513V4.842a.684.684 0 0 0-.684-.683h-.057a.684.684 0 0 0-.684.683v6.837c0 .377.306.684.684.684h.057a.684.684 0 0 0 .684-.684V9.57c0-.283.23-.513.512-.513h6.14c.28 0 .507.223.513.5ZM3.703 5.725a.484.484 0 1 1 .969 0v3.647a.484.484 0 0 1-.969 0V5.725Zm1.595 1.738a.513.513 0 1 1 1.026 0v2.905a.513.513 0 1 1-1.026 0V7.463Z" clip-rule="evenodd"/>
  <path fill="#388AED" d="M15.585 9.34Z"/>
</svg>
