<svg xmlns="http://www.w3.org/2000/svg" width="22" height="22" viewBox="0 0 22 22"><path fill="#0072C6" d="M13 1v19l-11-2.322v-14.535l11-2.143zm-2.947 9.437c.042-.841-.191-1.673-.664-2.364-.405-.578-1.066-.914-1.764-.898-.734-.019-1.43.332-1.858.94-.493.718-.738 1.584-.695 2.46-.036.83.206 1.648.685 2.322.415.576 1.081.911 1.785.896.719.015 1.398-.333 1.816-.928.491-.708.736-1.563.695-2.428zm-1.546-1.467c.252.475.371 1.012.342 1.552.027.519-.096 1.037-.353 1.488-.095.165-.231.302-.395.398-.518.3-1.177.118-1.473-.409-.259-.458-.381-.982-.352-1.509-.024-.524.098-1.043.352-1.499.194-.358.565-.577.966-.57.38-.001.73.209.913.549zm5.493 7.029v-4.979l1.184.8c.111.067.251.067.362 0l5.449-3.596v6.734c.053.52-.325.985-.843 1.038l-.163.003h-5.989zm6.352-9.999c.363.068.63.379.643.749l-5.562 3.709h-.136l-1.297-.799v-3.659h6.352z"/></svg>