<svg xmlns="http://www.w3.org/2000/svg" width="16" height="16" viewBox="0 0 16 16"><path fill="#0072C6" d="M8.999 1v14l-8-2v-10l8-2zm2.52 7.614l4.48-2.692v5.077c0 .553-.503 1.001-1.126 1.001h-4.874v-4.066l1.104.68c.127.07.287.07.416 0zm-.286-1.418l-1.234-.692v-2.504h4.874c.414 0 .758.207.954.501l-4.44 2.695h-.154zm-3.783.804c0-1.599-1.1-2.901-2.451-2.901-1.35 0-2.45 1.302-2.45 2.901 0 1.598 1.1 2.9 2.45 2.9 1.351 0 2.451-1.302 2.451-2.9zm-1.301 0c0 .867-.526 1.599-1.15 1.599-.623 0-1.149-.732-1.149-1.599s.526-1.6 1.149-1.6c.624 0 1.15.733 1.15 1.6z"/></svg>