<svg width="40" height="40" viewBox="0 0 40 40" fill="none" xmlns="http://www.w3.org/2000/svg">
  <path d="M28.45 4.37V1.3a.3.3 0 0 0-.46-.26 22.2 22.2 0 0 1-11.68 3.32h-4.76a7.19 7.19 0 0 0-7.2 7.19v16.88a7.19 7.19 0 0 0 7.2 7.2v3.05a.3.3 0 0 0 .46.27 22.2 22.2 0 0 1 11.68-3.33h4.76a7.19 7.19 0 0 0 7.2-7.19V11.56a7.19 7.19 0 0 0-7.2-7.2Z" fill="#6EDBFF"/>
  <path d="M20.23 19.54 8.2 3.38 6.5 5.68l.11 2.48 10.62 20.03-.46-4.45 2.45-.48 1.02-3.72Z" fill="#6EDBFF"/>
  <path d="M17.22 28.19 6.6 8.16l-.11-2.48 1.74-2.33 3.16-.95 2.33 1.3 15.63 15.25-4.27-1.43-1.25 2.18-3.58-.24-1.04 3.8-2.45.48.46 4.45Z" fill="#fff"/>
  <path d="m33.37 37.07-6.66-3.49h-.03a2.4 2.4 0 0 1-.94-.8 2.69 2.69 0 0 1-.16-2.6 4.11 4.11 0 0 1 1.47-1.77 4.2 4.2 0 0 1 2-.75 2.72 2.72 0 0 1 2.56 1.05c.2.3.33.62.38.97l.02.14 1.36 7.25Z" fill="#000"/>
  <path d="m26.68 33.57-7.11-3.25a5.13 5.13 0 0 1-2.35-2.14l-.44-4.22-.02-.22.09-.02.27-.05 2.1-.41 1.03-3.8.22.01 3.36.23 1.26-2.18 1.73.59 2.52.84a4.84 4.84 0 0 1 1.59 2.9l.05.4 1 7.43a2.36 2.36 0 0 0-1.22-1.72c-.34-.18-.7-.28-1.09-.3a3.82 3.82 0 0 0-2.7.8 4.11 4.11 0 0 0-1.4 1.72 2.69 2.69 0 0 0 .17 2.6c.24.34.56.62.94.8Z" fill="#6EDBFF"/>
  <path d="M32 29.68a2.37 2.37 0 0 0-.4-.97 1.95 1.95 0 0 0-1.93-1.05l-3.73-9.85s1.13.52.88.3l2.52.85a4.84 4.84 0 0 1 1.59 2.9l.05.4 1.01 7.42Z" fill="#fff"/>
  <path d="M11.4 2.4c.94.48 1.37.77 2.32 1.29M15.9 7.37 11.4 2.4l-3.16.95h0" stroke="#000" stroke-width=".5" stroke-linecap="round" stroke-linejoin="round"/>
  <path d="m16.76 23.74.02.22.44 4.23a.1.1 0 0 1-.02-.03l-.09-.16v-.02L6.6 8.16" fill="#fff"/>
  <path d="m16.76 23.74.02.22.44 4.23a.1.1 0 0 1-.02-.03l-.09-.16v-.02L6.6 8.16M13.72 3.7c.53.5 15.1 14.74 15.62 15.25M6.6 8.16l-.02-.52-.1-1.96M30.93 21.86a5.02 5.02 0 0 0-1.58-2.9M17.22 28.19l.25.4a5.13 5.13 0 0 0 2.1 1.73M32 29.68l.01.14 1.36 7.25-6.66-3.49h-.03a2.4 2.4 0 0 1-.94-.8 2.69 2.69 0 0 1-.16-2.6 4.11 4.11 0 0 1 1.47-1.77 4.2 4.2 0 0 1 2-.75 2.72 2.72 0 0 1 2.56 1.05c.2.3.33.62.38.97ZM33.37 37.07l-13.8-6.75M33.37 37.07 31 22.27l-.06-.41M20.25 19.46l3.58.24 1.25-2.18M17.22 28.19v0M15.9 7.37l9.18 10.15v0h.01l4.25 1.43h0M6.49 5.67h0l1.74-2.31M6.49 5.68h0v-.01M17.38 15.61l2.73 3.67.14.18M8.23 3.36l8.27 11.08" stroke="#000" stroke-width=".5" stroke-linecap="round" stroke-linejoin="round"/>
  <path d="m31.64 28.5 1.73 8.57-3.7-9.41 1.97.84Z" fill="#6EDBFF"/>
  <path d="m33.37 37.07-6.66-3.49h-.03a2.4 2.4 0 0 1-.94-.8 2.69 2.69 0 0 1-.16-2.6 4.11 4.11 0 0 1 1.47-1.77 4.2 4.2 0 0 1 2-.75 2.72 2.72 0 0 1 2.67 1.24c.3.54.51 1.13.6 1.74l1.05 6.43ZM8.54 9.29l5.27 9.27M6.49 5.67l1.42 2.5M16.76 23.74l2.45-.48 1.04-3.8" stroke="#000" stroke-width=".5" stroke-linecap="round" stroke-linejoin="round"/>
</svg>
