<svg width="40" height="40" viewBox="0 0 40 40" fill="none" xmlns="http://www.w3.org/2000/svg">
<path d="M35.3993 11.5508V28.4492C35.3993 29.0012 35.3402 29.5366 35.2219 30.0529C34.5202 33.2546 31.7402 35.6353 28.4064 35.6353H23.7875C19.787 35.6353 15.8402 36.7776 12.4338 38.9524C12.251 39.0842 11.9929 38.925 11.9929 38.6861V35.6353C10.3502 35.6353 8.84192 35.0559 7.6509 34.0866C6.20984 32.9169 5.23121 31.1732 5.03495 29.1879C5.01344 28.9462 5 28.6991 5 28.4492V11.5508C5 9.08492 6.20178 6.91289 8.03536 5.61956C8.59727 5.2214 9.22101 4.90562 9.88777 4.69143C10.2131 4.58709 10.5465 4.50471 10.8879 4.45254C11.2482 4.39213 11.6165 4.36192 11.9929 4.36192H16.6118C17.1172 4.36192 17.6227 4.3427 18.1281 4.307C20.2763 4.15323 22.3922 3.66995 24.3951 2.87363C25.6345 2.38485 26.8309 1.77251 27.9682 1.04758C28.1483 0.915778 28.4064 1.07504 28.4064 1.31394V4.36192C28.557 4.36192 28.7049 4.36741 28.85 4.37565C29.1861 4.39762 29.5141 4.4443 29.834 4.51295C30.4632 4.6475 31.06 4.86717 31.6139 5.16373C32.1381 5.44382 32.6247 5.78706 33.0603 6.18797C33.3211 6.42686 33.563 6.68498 33.7862 6.96232C34.7917 8.20348 35.3993 9.80161 35.3993 11.5508Z" fill="#6EDBFF"/>
<path d="M28.1306 18.3333C27.5073 13.9019 26.1316 9.81791 24.7631 7.65054C24.541 7.28871 24.1782 6.81583 23.9705 6.57223C23.6445 6.19249 23.4154 5.9169 23.0221 6.0277C23.0185 6.0277 23.0185 6.0277 23.0185 6.0277C23.0006 6.02053 22.9791 6.01695 22.9612 6.01695C22.9612 6.01695 22.9576 6.01695 22.954 6.01695C22.911 6.01695 22.868 6.02053 22.8286 6.03128C22.7211 6.08143 22.6387 6.18174 22.5743 6.32146C22.5707 6.32504 22.5707 6.32862 22.5707 6.3322C22.5384 6.40027 22.5134 6.48267 22.4919 6.57223C22.4883 6.59014 22.4847 6.60805 22.4811 6.62955C22.4274 6.90181 22.4131 7.25289 22.431 7.65054C22.474 8.62496 22.6961 9.87523 22.9361 10.9679C22.9361 10.9822 22.9397 10.9965 22.9468 11.0073C23.0651 11.5661 23.1869 12.0784 23.2908 12.4904C22.8716 10.975 22.3522 9.19762 21.7002 7.6321C21.0052 5.96627 20.2365 4.3923 19.495 3.71164C19.1152 3.36056 18.6766 3.36237 18.3291 3.48059C18.3112 3.48417 18.2968 3.49134 18.2825 3.50209C18.1607 3.5594 18.0783 3.68121 18.0353 3.85316C18.0317 3.85675 18.0317 3.85675 18.0317 3.86033C17.8634 4.53741 18.2324 5.99187 18.7339 7.65054C19.2139 9.23039 19.8086 10.9894 20.1633 12.4223C20.1633 12.4223 20.1633 12.4223 20.1633 12.4259C20.3173 13.0421 20.4248 13.601 20.4606 14.0559C20.2314 12.5477 19.3661 9.95404 18.2698 7.65054C17.5211 6.07427 16.6836 4.51959 15.9421 3.65981C15.3868 3.01497 14.8255 2.81068 14.4422 3.00771C14.4135 3.02204 14.3884 3.03637 14.3669 3.05786C14.3418 3.07578 14.3203 3.10085 14.2989 3.12951C14.2881 3.14026 14.2809 3.15459 14.2738 3.16534C14.2451 3.20474 14.2236 3.24773 14.2057 3.29789C14.1914 3.33729 14.1806 3.37312 14.1699 3.41969C14.1699 3.41969 14.1663 3.42327 14.1663 3.42685C14.1627 3.43402 14.1627 3.4376 14.1627 3.44118C14.1556 3.47343 14.1484 3.50567 14.1448 3.54149C14.1376 3.56657 14.1341 3.59523 14.1341 3.62031C14.1305 3.63105 14.1305 3.64538 14.1305 3.65971C14.1269 3.69554 14.1233 3.73136 14.1233 3.76719C14.1161 3.91048 14.1197 4.07169 14.1376 4.24723C14.1412 4.31171 14.1484 4.3762 14.1556 4.44426C14.1878 4.70936 14.238 5.00671 14.306 5.32554C14.3203 5.39719 14.3347 5.46884 14.3526 5.54049C14.3669 5.60855 14.3812 5.67662 14.3992 5.74469C14.4457 5.93814 14.4959 6.13875 14.5496 6.34653C14.5926 6.51133 14.6392 6.6797 14.6858 6.85166C14.6929 6.87315 14.6965 6.89106 14.7037 6.91256C14.7467 7.05944 14.7861 7.20632 14.8326 7.35678C14.872 7.49649 14.915 7.63979 14.958 7.78309C15.3521 9.09068 15.8286 10.5093 16.2477 11.8205C16.6131 12.9669 16.9391 14.0308 17.129 14.8727C17.1863 15.1342 17.2329 15.3707 17.2615 15.5856C16.0972 11.8886 14.919 9.50137 13.7368 8.12213C13.1278 7.40564 12.3612 6.75514 11.8991 6.52944C11.5086 6.33599 11.2144 6.51133 10.9959 6.60447C10.8848 6.65104 10.806 6.73344 10.7522 6.85166C10.7343 6.88748 10.72 6.93047 10.7093 6.97704C10.7093 6.98062 10.7093 6.98063 10.7093 6.98421C10.5839 7.49291 10.8131 8.39568 11.1606 9.35219V9.35578C11.5726 10.4878 12.1458 11.6879 12.4969 12.4044C12.762 12.9454 13.0128 13.4935 13.2277 14.0595C13.9155 15.8507 14.7646 18.0253 15.2625 19.9204V19.9239C15.2876 20.0207 15.3127 20.1138 15.3378 20.2105C14.6213 19.6159 13.7794 18.9746 12.9483 18.5555C11.655 17.9106 10.3116 17.3231 8.8858 17.298C8.73534 17.2909 8.58488 17.2944 8.43083 17.3052C7.99378 17.3338 7.47433 17.4664 7.32745 17.882C7.32745 17.8855 7.32386 17.8891 7.32386 17.8927C7.32386 17.8927 7.32386 17.8963 7.32386 17.8999C7.31312 17.9357 7.30595 17.9679 7.29879 18.0002C7.27013 18.2044 7.33461 18.4193 7.44567 18.5949C7.5818 18.8062 7.77525 18.971 7.96512 19.1286C9.32286 20.2643 10.6985 21.3927 11.913 22.6788C13.1274 23.9649 14.1878 25.4301 14.8147 27.0852C14.8362 27.139 14.8577 27.1927 14.8792 27.2464C14.89 27.2679 14.8971 27.293 14.9079 27.3145C14.9079 27.3181 14.9114 27.3217 14.9114 27.3252C14.9186 27.3467 14.9294 27.3646 14.9365 27.3861C14.9365 27.3897 14.9401 27.3897 14.9401 27.3933C14.9688 27.4685 15.001 27.5402 15.0368 27.6118C15.0691 27.6871 15.1049 27.7623 15.1407 27.8339C15.1945 27.945 15.2518 28.0525 15.3127 28.1599C15.3628 28.2495 15.413 28.3391 15.4667 28.425C15.5169 28.5039 15.567 28.5827 15.6208 28.6579C15.6566 28.7152 15.696 28.7725 15.739 28.8263C15.7963 28.9051 15.8572 28.9803 15.9181 29.0555C16.2549 29.4639 16.6525 29.8222 17.1218 30.1088C18.2539 30.8002 19.6009 31.0868 20.9263 31.0868C22.259 31.0904 23.6096 30.8145 24.7775 30.1661C25.9417 29.5213 27.0666 28.228 27.5323 26.9777C27.5323 26.9598 27.5288 26.9455 27.5288 26.9276C27.5252 26.9133 27.5252 26.8989 27.5216 26.881C27.5144 26.813 27.5073 26.7449 27.5037 26.6732C27.4894 26.5264 27.475 26.3795 27.4643 26.229C27.4428 25.9782 27.4285 25.7239 27.4141 25.466C27.4034 25.2797 27.3962 25.0934 27.3926 24.9035C27.3855 24.6671 27.3819 24.4306 27.3819 24.1906C27.3819 24.0903 27.3819 23.99 27.3855 23.8861C27.3891 23.7858 27.3926 23.6783 27.3962 23.5709C27.3962 23.5171 27.3998 23.4598 27.4034 23.4061C27.4105 23.2878 27.4177 23.1696 27.4249 23.0478C27.4356 22.8866 27.45 22.7218 27.4643 22.5534C27.4929 22.2597 27.5252 21.9588 27.5646 21.6507C27.5753 21.5539 27.5861 21.4536 27.604 21.3497C27.604 21.3283 27.6076 21.3068 27.6112 21.2853C27.6255 21.1885 27.6398 21.0954 27.6542 20.9987C27.6721 20.8804 27.69 20.7586 27.7079 20.6368C27.7222 20.533 27.7401 20.4255 27.758 20.3216C27.776 20.1962 27.7974 20.0672 27.8225 19.9347C27.9157 19.4152 28.0196 18.8886 28.1342 18.362C28.1342 18.3513 28.1306 18.3441 28.1306 18.3333ZM23.5272 13.3932C23.5021 13.3072 23.4627 13.1603 23.4126 12.9633C23.4591 13.1102 23.4949 13.2535 23.5272 13.3932Z" fill="#6EDBFF"/>
<path d="M20.0746 10.9165C19.591 9.20763 19.1683 7.48449 18.8136 5.74343C18.7312 5.34219 18.6524 4.92305 18.7706 4.52898C18.8853 4.1385 19.2614 3.78742 19.6662 3.84832C19.6018 3.5474 19.1283 3.46669 18.9999 3.25006C18.6954 3.19632 18.3093 3.20506 18.1481 3.46657C17.9547 3.77824 18.0541 4.31404 18.1151 4.67586C18.4805 6.90772 19.1074 8.87089 20.0746 10.9165Z" fill="white"/>
<path d="M16.3359 20.0103C16.0528 19.7738 15.691 20.2431 15.3722 20.0103C14.8671 18.2191 14.0084 15.7185 13.3707 14.0599C13.1558 13.4938 12.9007 12.8286 12.6356 12.2876C11.8797 10.7436 9.98063 6.84126 11.0303 6.4042C11.1951 6.33255 11.779 6.53675 12.0513 6.62989C11.1127 7.17442 12.8609 10.8858 13.6025 12.4048C13.8676 12.9457 14.1183 13.4938 14.3333 14.0599C15.0569 15.9442 15.8522 18.0507 16.3359 20.0103Z" fill="white"/>
<path d="M15.9192 29.0544C15.4822 28.5278 15.1454 27.908 14.8803 27.2453C14.8588 27.1916 14.9018 27.0941 14.8803 27.0403C14.2534 25.3852 13.1148 23.7425 11.9003 22.4564C10.6859 21.1703 9.46012 20.1616 8.10238 19.026C7.91251 18.8683 7.62594 18.6248 7.48981 18.4134C7.35726 18.202 7.24617 18.1173 7.32857 17.8808C7.47545 17.4653 7.91031 17.2169 8.34737 17.1882C8.50141 17.1775 8.80948 17.181 8.95994 17.1882C8.65902 17.6933 8.88334 18.7621 11.4054 20.5784C14.9806 23.1542 15.7079 27.0017 15.9192 29.0544Z" fill="#6EDBFF"/>
<path d="M16.4748 11.4479C16.3852 11.5626 16.31 11.6879 16.2491 11.8205C15.0597 8.10192 13.4485 3.37712 14.4731 2.85408C14.8564 2.65705 15.388 3.0669 15.9433 3.71174C15.6674 3.85145 15.3929 4.19349 15.2997 4.498C15.1636 4.93147 15.2209 5.40435 15.289 5.85574C15.5684 7.7401 15.9661 9.61013 16.4748 11.4479Z" fill="white"/>
<path d="M24.0409 6.65069C23.7221 6.67577 23.4427 6.88713 23.2671 7.15223C23.0916 7.41733 23.0056 7.73259 22.9447 8.04426C22.7978 8.83239 22.8086 9.64919 22.9734 10.4373C22.6331 9.37692 22.4503 8.1983 22.479 7.08417C22.4898 6.70443 22.5578 6.26021 22.891 6.0775C23.0988 5.96287 23.3603 5.98794 23.5716 6.09542C23.783 6.20289 23.9048 6.45724 24.0409 6.65069Z" fill="white"/>
<mask id="mask0_10142_192435" style="mask-type:alpha" maskUnits="userSpaceOnUse" x="5" y="1" width="31" height="38">
<path d="M35.3993 11.5508V28.4492C35.3993 29.0012 35.3402 29.5366 35.2219 30.0529C34.5202 33.2546 31.7402 35.6353 28.4064 35.6353H23.7875C19.787 35.6353 15.8402 36.7776 12.4338 38.9524C12.251 39.0842 11.9929 38.925 11.9929 38.6861V35.6353C10.3502 35.6353 8.84192 35.0559 7.6509 34.0866C6.20984 32.9169 5.23121 31.1732 5.03495 29.1879C5.01344 28.9462 5 28.6991 5 28.4492V11.5508C5 9.08492 6.20178 6.91289 8.03536 5.61956C8.59727 5.2214 9.22101 4.90562 9.88777 4.69143C10.2131 4.58709 10.5465 4.50471 10.8879 4.45254C11.2482 4.39213 11.6165 4.36192 11.9929 4.36192H16.6118C17.1172 4.36192 17.6227 4.3427 18.1281 4.307C20.2763 4.15323 22.3922 3.66995 24.3951 2.87363C25.6345 2.38485 26.8309 1.77251 27.9682 1.04758C28.1483 0.915778 28.4064 1.07504 28.4064 1.31394V4.36192C28.557 4.36192 28.7049 4.36741 28.85 4.37565C29.1861 4.39762 29.5141 4.4443 29.834 4.51295C30.4632 4.6475 31.06 4.86717 31.6139 5.16373C32.1381 5.44382 32.6247 5.78706 33.0603 6.18797C33.3211 6.42686 33.563 6.68498 33.7862 6.96232C34.7917 8.20348 35.3993 9.80161 35.3993 11.5508Z" fill="#B880FF"/>
</mask>
<g mask="url(#mask0_10142_192435)">
<path d="M26.3863 35.7058L15.3864 38.7058C15.3864 38.7058 15.6865 37.2058 15.6865 34.7058C15.6865 34.7058 14.9143 28.733 15.1866 28.0058C16.8862 30.7058 23.8865 33.2058 27.3865 27.2058C27.8863 29.2058 26.3863 35.7058 26.3863 35.7058Z" fill="black"/>
<path d="M14.8899 27.0549C15.2661 29.1542 15.8899 34.7058 15.3862 37.7058C14.5873 39.2283 14.029 38.7551 12.8862 40.0412C11.9441 41.098 8.5132 39.4214 7.2486 40.0412C6.97634 40.1773 6.70049 40.2956 6.41748 40.3995L9.01474 47.0269C9.5951 46.8478 10.1683 46.6472 10.7343 46.4323C16.3802 44.29 21.811 43.5743 25.3862 38.7058C26.6186 37.0292 27.3862 31.2058 27.5662 26.7758" stroke="black" stroke-width="0.4" stroke-miterlimit="10" stroke-linecap="round" stroke-linejoin="round"/>
</g>
<path d="M15.3721 20.0117C14.8884 18.0521 13.9857 15.745 13.262 13.8607C13.0471 13.2946 12.7963 12.7465 12.5312 12.2056C11.7753 10.6616 9.98051 6.84269 11.0302 6.40563C12.001 5.98291 15.0174 8.16102 17.2958 15.3868" stroke="black" stroke-width="0.4" stroke-miterlimit="10" stroke-linecap="round" stroke-linejoin="round"/>
<path d="M19.0728 20.2472C19.7892 20.4585 20.4806 20.763 21.1147 21.1571" stroke="black" stroke-width="0.4" stroke-miterlimit="10" stroke-linecap="round" stroke-linejoin="round"/>
<path d="M27.5669 26.7764C27.549 26.8265 27.5275 26.8767 27.506 26.9268C27.0117 28.1305 25.9298 29.345 24.812 29.9647C23.6442 30.6132 22.2936 30.889 20.9609 30.8854C19.6354 30.8854 18.2884 30.5988 17.1564 29.9074C16.1211 29.2769 15.444 28.3097 14.9783 27.1955C14.9532 27.1454 14.9353 27.0952 14.9138 27.0451C14.8923 26.9913 14.8708 26.9376 14.8493 26.8839C14.2224 25.2288 13.162 23.7636 11.9475 22.4775C10.7331 21.1914 9.35744 20.0629 7.9997 18.9273C7.80983 18.7696 7.61638 18.6049 7.48025 18.3935C7.3477 18.1821 7.27963 17.917 7.36202 17.6806C7.5089 17.265 8.02836 17.1325 8.46541 17.1038C10.0632 16.9963 11.5535 17.6412 12.9829 18.3541C13.814 18.7732 14.6559 19.4145 15.3723 20.0092C16.6047 19.8086 17.8765 19.8945 19.073 20.2456" stroke="black" stroke-width="0.4" stroke-miterlimit="10" stroke-linecap="round" stroke-linejoin="round"/>
<path d="M18.5308 15.784C20.3721 15.0281 22.3174 14.5302 24.2913 14.3045" stroke="black" stroke-width="0.4" stroke-miterlimit="10" stroke-linecap="round" stroke-linejoin="round"/>
<path d="M17.2979 16.3384C17.7027 16.1414 18.1146 15.9551 18.5338 15.7832" stroke="black" stroke-width="0.4" stroke-miterlimit="10" stroke-linecap="round" stroke-linejoin="round"/>
<path d="M17.2941 15.3844C16.8534 12.2497 13.0346 3.54085 14.4747 2.80645C16.1155 1.96458 19.9845 10.5409 20.4932 13.8547" stroke="black" stroke-width="0.4" stroke-miterlimit="10" stroke-linecap="round" stroke-linejoin="round"/>
<path d="M23.3896 12.5365C23.4756 12.884 23.5437 13.1312 23.5724 13.2315" stroke="black" stroke-width="0.4" stroke-miterlimit="10" stroke-linecap="round" stroke-linejoin="round"/>
<path d="M27.5662 26.7758C28.8862 18.7058 25.0868 7.51595 23.6215 6.16537C23.2239 5.79996 22.5683 6.02924 22.4931 6.56302C22.2996 7.92793 22.9409 10.7831 23.3242 12.2913" stroke="black" stroke-width="0.4" stroke-miterlimit="10" stroke-linecap="round" stroke-linejoin="round"/>
<path d="M23.5859 13.2797C23.5859 13.2761 23.5859 13.2726 23.5823 13.269C23.5787 13.2582 23.5751 13.2439 23.5716 13.2332C23.5178 13.011 23.4569 12.7782 23.3889 12.5382C23.3781 12.4808 23.3602 12.4199 23.3423 12.359C23.3387 12.3375 23.3315 12.3125 23.3244 12.291C22.2246 8.33597 20.0285 2.70798 18.3627 3.28117C16.9799 3.74688 20.2686 10.9117 20.4943 13.8565" stroke="black" stroke-width="0.4" stroke-miterlimit="10" stroke-linecap="round" stroke-linejoin="round"/>
<path d="M33.3862 9.20578L28.8862 13.7058" stroke="white" stroke-width="0.4" stroke-miterlimit="10" stroke-linecap="round" stroke-linejoin="round"/>
<path d="M28.3862 11.7058L30.8862 7.20578" stroke="white" stroke-width="0.4" stroke-miterlimit="10" stroke-linecap="round" stroke-linejoin="round"/>
</svg>
