<svg xmlns="http://www.w3.org/2000/svg" xlink="http://www.w3.org/1999/xlink" width="22" height="22" viewBox="0 0 22 22"><path d="M19.5,15 L19,15 L19,11.5 C19,10.673 18.327,10 17.5,10 L12,10 L12,7 L12.5,7 C13.328,7 14,6.329 14,5.5 L14,2.5 C14,1.671 13.328,1 12.5,1 L9.5,1 C8.672,1 8,1.671 8,2.5 L8,5.5 C8,6.329 8.672,7 9.5,7 L10,7 L10,10 L4.5,10 C3.673,10 3,10.673 3,11.5 L3,15 L2.5,15 C1.672,15 1,15.671 1,16.5 L1,19.5 C1,20.329 1.672,21 2.5,21 L5.5,21 C6.328,21 7,20.329 7,19.5 L7,16.5 C7,15.671 6.328,15 5.5,15 L5,15 L5,12 L10,12 L10,15 L9.5,15 C8.672,15 8,15.671 8,16.5 L8,19.5 C8,20.329 8.672,21 9.5,21 L12.5,21 C13.328,21 14,20.329 14,19.5 L14,16.5 C14,15.671 13.328,15 12.5,15 L12,15 L12,12 L17,12 L17,15 L16.5,15 C15.672,15 15,15.671 15,16.5 L15,19.5 C15,20.329 15.672,21 16.5,21 L19.5,21 C20.328,21 21,20.329 21,19.5 L21,16.5 C21,15.671 20.328,15 19.5,15"/></svg>
