<svg xmlns="http://www.w3.org/2000/svg" xlink="http://www.w3.org/1999/xlink" width="16" height="16" viewBox="0 0 16 16"><path d="M14.4004,11 L13.7504,11 L13.7504,8.5 C13.7504,7.811 13.1894,7.25 12.5004,7.25 L8.7504,7.25 L8.7504,5 L9.4004,5 C9.7304,5 10.0004,4.73 10.0004,4.4 L10.0004,1.6 C10.0004,1.27 9.7304,1 9.4004,1 L6.5994,1 C6.2694,1 6.0004,1.27 6.0004,1.6 L6.0004,4.4 C6.0004,4.73 6.2694,5 6.5994,5 L7.2504,5 L7.2504,7.25 L3.5004,7.25 C2.8104,7.25 2.2504,7.811 2.2504,8.5 L2.2504,11 L1.5994,11 C1.2694,11 1.0004,11.27 1.0004,11.6 L1.0004,14.4 C1.0004,14.73 1.2694,15 1.5994,15 L4.4004,15 C4.7304,15 5.0004,14.73 5.0004,14.4 L5.0004,11.6 C5.0004,11.27 4.7304,11 4.4004,11 L3.7504,11 L3.7504,8.75 L7.2504,8.75 L7.2504,11 L6.5994,11 C6.2694,11 6.0004,11.27 6.0004,11.6 L6.0004,14.4 C6.0004,14.73 6.2694,15 6.5994,15 L9.4004,15 C9.7304,15 10.0004,14.73 10.0004,14.4 L10.0004,11.6 C10.0004,11.27 9.7304,11 9.4004,11 L8.7504,11 L8.7504,8.75 L12.2504,8.75 L12.2504,11 L11.5994,11 C11.2694,11 11.0004,11.27 11.0004,11.6 L11.0004,14.4 C11.0004,14.73 11.2694,15 11.5994,15 L14.4004,15 C14.7304,15 15.0004,14.73 15.0004,14.4 L15.0004,11.6 C15.0004,11.27 14.7304,11 14.4004,11"/></svg>
