<svg xmlns="http://www.w3.org/2000/svg" xlink="http://www.w3.org/1999/xlink" width="12" height="12" viewBox="0 0 12 12"><path d="M10.5,8 L10,8 L10,5.5 C10,5.2 9.8,5 9.5,5 L6,5 L6,3 L6.5,3 C6.8,3 7,2.8 7,2.5 L7,0.5 C7,0.2 6.8,0 6.5,0 L4.5,0 C4.2,0 4,0.2 4,0.5 L4,2.5 C4,2.8 4.2,3 4.5,3 L5,3 L5,5 L1.5,5 C1.2,5 1,5.2 1,5.5 L1,8 L0.5,8 C0.2,8 0,8.2 0,8.5 L0,10.5 C0,10.8 0.2,11 0.5,11 L2.5,11 C2.8,11 3,10.8 3,10.5 L3,8.5 C3,8.2 2.8,8 2.5,8 L2,8 L2,6 L5,6 L5,8 L4.5,8 C4.2,8 4,8.2 4,8.5 L4,10.5 C4,10.8 4.2,11 4.5,11 L6.5,11 C6.8,11 7,10.8 7,10.5 L7,8.5 C7,8.2 6.8,8 6.5,8 L6,8 L6,6 L9,6 L9,8 L8.5,8 C8.2,8 8,8.2 8,8.5 L8,10.5 C8,10.8 8.2,11 8.5,11 L10.5,11 C10.8,11 11,10.8 11,10.5 L11,8.5 C11,8.2 10.8,8 10.5,8"/></svg>
