<svg width="24" height="24" viewBox="0 0 24 24" xmlns="http://www.w3.org/2000/svg"><path d="M10.985 3a1 1 0 0 1 1-1h.003a1 1 0 0 1 1 1l.01 6.586 1.293-1.293a1 1 0 0 1 1.414 1.414l-3 3a.997.997 0 0 1-.71.293.997.997 0 0 1-.708-.293l-2.994-3a1 1 0 1 1 1.414-1.414l1.287 1.293L10.985 3Z"/><path fill-rule="evenodd" clip-rule="evenodd" d="M8.293 13.293 10 15h4l1.707-1.707a1 1 0 0 1 .707-.293h3.305l-1.5-6H18a1 1 0 0 1 0-2h.98a.993.993 0 0 1 .633.21.996.996 0 0 1 .362.567l1.99 7.959a.997.997 0 0 1 .035.287V20a1 1 0 0 1-1 1H3a1 1 0 0 1-1-1v-5.977a.998.998 0 0 1 .035-.287l1.99-7.959a.993.993 0 0 1 .362-.567.996.996 0 0 1 .634-.21h.98a1 1 0 1 1 0 2h-.22l-1.5 6h3.305a1 1 0 0 1 .707.293Zm.293 3.121A2 2 0 0 0 10 17h4a2 2 0 0 0 1.415-.586L16.829 15H20v4H4v-4h3.172l1.414 1.414Z"/></svg>