<svg xmlns="http://www.w3.org/2000/svg" xlink="http://www.w3.org/1999/xlink" width="22" height="22" viewBox="0 0 22 22"><path d="M17.8013,2.587 L21.0003,11.813 L21.0003,18.667 C21.0003,19.403 20.4023,20 19.6663,20 L1.3343,20 C0.5973,20 0.0003,19.403 0.0003,18.667 L0.0003,11.813 L3.1993,2.587 C3.5743,1.623 4.4843,1 5.5183,1 L15.4813,1 C16.5153,1 17.4263,1.623 17.8013,2.587 Z M2.0723,12 L18.9273,12 L15.9373,3.312 C15.8633,3.122 15.6843,3 15.4813,3 L5.5183,3 C5.3153,3 5.1363,3.122 5.0623,3.312 L2.0723,12 Z M13.0003,16 C13.5523,16 14.0003,15.553 14.0003,15 C14.0003,14.447 13.5523,14 13.0003,14 L8.0003,14 C7.4473,14 7.0003,14.447 7.0003,15 C7.0003,15.553 7.4473,16 8.0003,16 L13.0003,16 Z M4,11 L4,10 L17,10 L17,11 L4,11 Z M5,9 L5,8 L16,8 L16,9 L5,9 Z M6,7 L6,6 L15,6 L15,7 L6,7 Z M7,5 L7,4 L14,4 L14,5 L7,5 Z"/></svg>
