<svg xmlns="http://www.w3.org/2000/svg" xlink="http://www.w3.org/1999/xlink" width="16" height="16" viewBox="0 0 16 16"><path d="M13.3694,1.982 L16.0004,9 L16.0004,13.75 C16.0004,14.44 15.4404,15 14.7504,15 L1.2504,15 C0.5594,15 0.0004,14.44 0.0004,13.75 L0.0004,9 L2.6304,1.982 C2.8534,1.392 3.4184,1 4.0484,1 L11.9514,1 C12.5824,1 13.1464,1.392 13.3694,1.982 Z M1.0684,9 L14.9314,9 L12.4314,2.334 C12.3574,2.133 12.1654,2 11.9514,2 L4.0484,2 C3.8354,2 3.6424,2.133 3.5684,2.334 L1.0684,9 Z M9.2504,12.25 C9.6644,12.25 10.0004,11.914 10.0004,11.5 C10.0004,11.086 9.6644,10.75 9.2504,10.75 L6.7504,10.75 C6.3364,10.75 6.0004,11.086 6.0004,11.5 C6.0004,11.914 6.3364,12.25 6.7504,12.25 L9.2504,12.25 Z M3,8 L3,7 L13,7 L13,8 L3,8 Z M4,6 L4,5 L12,5 L12,6 L4,6 Z M5,4 L5,3 L10.999,3 L10.999,4 L5,4 Z"/></svg>
