<svg xmlns="http://www.w3.org/2000/svg" xlink="http://www.w3.org/1999/xlink" width="12" height="12" viewBox="0 0 12 12"><path d="M10.2737,1.818 L11.9997,7 L11.9997,10 C11.9997,10.553 11.5527,11 10.9997,11 L0.9997,11 C0.4477,11 -0.0003,10.553 -0.0003,10 L-0.0003,7 L1.7267,1.818 C1.8907,1.329 2.3477,1 2.8627,1 L9.1377,1 C9.6527,1 10.1097,1.329 10.2737,1.818 Z M10.5957,7 C10.7677,7 10.8897,6.831 10.8347,6.668 L9.3247,2.135 C9.2967,2.054 9.2227,2 9.1377,2 L2.8637,2 C2.7777,2 2.7027,2.055 2.6757,2.135 L1.1647,6.668 C1.1107,6.831 1.2327,7 1.4047,7 L10.5957,7 Z M4.4997,9 L7.4997,9 L7.4997,8 L4.4997,8 L4.4997,9 Z M3,6 L3,5 L9,5 L9,6 L3,6 Z M4,4 L4,3 L8.001,3 L8.001,4 L4,4 Z"/></svg>
