<svg xmlns="http://www.w3.org/2000/svg" xlink="http://www.w3.org/1999/xlink" width="22" height="22" viewBox="0 0 22 22"><path d="M3.3574,1 L21.0004,18.643 L19.6424,20 L16.6454,17.002 C14.8424,19.715 12.9844,21.68 12.9844,21.68 C12.8724,21.801 12.6654,22 12.5004,22 C12.3354,22 12.1284,21.801 12.0154,21.68 C12.0154,21.68 5.7064,15.041 5.0654,9.289 C5.0264,8.986 5.0004,8.686 5.0004,8.37 C5.0004,7.475 5.1774,6.626 5.4764,5.834 L2.0004,2.357 L3.3574,1 Z M12.5,5 C11.809,5 11.168,5.207 10.625,5.553 L7.744,2.672 C9.039,1.628 10.694,1 12.5,1 C16.642,1 20,4.3 20,8.37 C20,8.686 19.974,8.986 19.935,9.289 C19.778,10.693 19.281,12.15 18.623,13.551 L15.446,10.375 C15.793,9.832 16,9.191 16,8.5 C16,6.567 14.433,5 12.5,5 Z"/></svg>
