<svg xmlns="http://www.w3.org/2000/svg" xlink="http://www.w3.org/1999/xlink" width="16" height="16" viewBox="0 0 16 16"><path d="M15,14 L14,15 L11.537,12.537 C11.418,12.724 11.3,12.915 11.183,13.088 C10.088,14.683 9.146,16 8.5,16 C7.854,16 6.912,14.683 5.817,13.088 C4.505,11.15 3,8.344 3,5.625 C3,5.126 3.068,4.646 3.187,4.187 L0,1 L1,0 L15,14 Z M8.5,3 C7.813,3 7.188,3.281 6.734,3.734 L4.627,1.628 C5.623,0.62 6.991,0 8.5,0 C11.531,0 14,2.5 14,5.625 C14,7.092 13.556,8.579 12.947,9.947 L10.266,7.266 C10.719,6.813 11,6.188 11,5.5 C11,4.125 9.875,3 8.5,3 Z"/></svg>
