<svg xmlns="http://www.w3.org/2000/svg" xlink="http://www.w3.org/1999/xlink" width="12" height="12" viewBox="0 0 12 12"><path d="M5.9995,1.9999 C5.5635,1.9999 5.1645,2.1429 4.8355,2.3789 L3.4495,0.9919 C4.1435,0.3819 5.0255,-0.0001 5.9995,-0.0001 C8.2085,-0.0001 9.9995,1.8859 9.9995,4.2109 C9.9995,4.3919 9.9855,4.5629 9.9655,4.7359 C9.8915,5.4449 9.6695,6.1869 9.3735,6.9159 L7.6205,5.1629 C7.8565,4.8349 7.9995,4.4359 7.9995,3.9999 C7.9995,2.8969 7.1055,1.9999 5.9995,1.9999 Z M11,10.5429 L10.293,11.2499 L8.207,9.1639 C7.523,10.2799 6.81,11.2009 6.395,11.6579 C6.208,11.8639 6.092,11.9999 6,11.9999 C5.908,11.9999 5.792,11.8639 5.605,11.6579 C4.692,10.6529 2.316,7.4429 2.035,4.7359 C2.014,4.5639 2,4.3919 2,4.2109 C2,3.8269 2.053,3.4569 2.148,3.1059 L0,0.9569 L0.707,0.2499 L11,10.5429 Z"/></svg>
