<svg width="16" height="16" viewBox="0 0 16 16" xmlns="http://www.w3.org/2000/svg"><path fill-rule="evenodd" clip-rule="evenodd" d="M4.5 3A2.5 2.5 0 0 0 2 5.5c0 1.922.97 3.821 2.311 5.337C5.582 12.274 7.037 13.201 8 13.472c.964-.271 2.418-1.198 3.688-2.635C13.03 9.321 14 7.422 14 5.5A2.5 2.5 0 0 0 11.5 3c-1.38 0-2 1-2.5 2-.316.632-.448 1-1 1s-.684-.368-1-1c-.5-1-1.12-2-2.5-2ZM8 3c-.825-1.02-2.086-2-3.5-2A4.5 4.5 0 0 0 0 5.5c0 2.577 1.28 4.929 2.813 6.662 1.515 1.713 3.445 3.01 4.99 3.318a1 1 0 0 0 .393 0c1.546-.309 3.476-1.605 4.99-3.318C14.72 10.43 16 8.078 16 5.5A4.5 4.5 0 0 0 11.5 1c-1.414 0-2.675.98-3.5 2Z"/></svg>