<svg xmlns="http://www.w3.org/2000/svg" width="24" height="24" viewBox="0 0 24 24">
  <path d="M11 8c0-.544.433-1 1-1s1 .456 1 1c0 .445-.182.82-.498 1.192-.255.299-.53.527-.827.774-.107.089-.217.18-.33.278a1 1 0 1 0 1.31 1.512c.056-.05.127-.108.208-.175.315-.26.782-.646 1.162-1.093C14.534 9.89 15 9.07 15 8c0-1.605-1.285-3-3-3S9 6.395 9 8a1 1 0 0 0 2 0ZM13 14a1 1 0 1 1-2 0 1 1 0 0 1 2 0Z"/>
  <path fill-rule="evenodd" d="M3.003 2.019h18.045a1.003 1.003 0 0 1 .952 1v14.012a1 1 0 0 1-1.003 1.001H8.707l-5.153 3.803a1.003 1.003 0 0 1-1.003.09 1.001 1.001 0 0 1-.551-.89V3.02a1 1 0 0 1 1.003-1.001ZM8.426 16.03h11.62V4.04H4.004v15.013l3.83-2.822c.17-.128.378-.198.591-.2Z" clip-rule="evenodd"/>
</svg>
