<svg width="16" height="16" viewBox="0 0 16 16" xmlns="http://www.w3.org/2000/svg"><path d="M9.163 5.999c-.35.292-.487.675-.562 1.001H7.4c0-.55.194-1.023.652-1.401.459-.379.683-.587.683-.846 0-.413-.088-.78-.734-.78s-.797.58-.797.972H6C6 3.873 6.897 3 8 3c1.253 0 2 .655 2 1.753 0 .59-.367.876-.688 1.128l-.149.118ZM8 9a.75.75 0 1 0 0-1.5A.75.75 0 0 0 8 9Z"/><path fill-rule="evenodd" clip-rule="evenodd" d="M2.004 0h12.043A1.005 1.005 0 0 1 15 1.001v10.01a1 1 0 0 1-1.004 1.002H6.36l-3.803 2.803a1.006 1.006 0 0 1-1.004.09 1.003 1.003 0 0 1-.552-.89V1a1 1 0 0 1 1.003-1Zm4.074 10.01h6.965V2.022H3.007v10.01l2.469-1.821c.174-.13.385-.2.602-.2Z"/></svg>