<svg xmlns="http://www.w3.org/2000/svg" xlink="http://www.w3.org/1999/xlink" width="22" height="22" viewBox="0 0 22 22"><path d="M17.5036,-0.0001 C18.8826,-0.0001 19.9996,1.1179 19.9996,2.4959 L19.9996,15.5039 C19.9996,16.8819 18.8826,17.9999 17.5036,17.9999 L11.9996,17.9999 L6.7996,21.8749 C6.4776,22.1719 5.9996,21.9069 5.9996,21.4309 L5.9996,17.9999 L4.4956,17.9999 C3.1176,17.9999 1.9996,16.8819 1.9996,15.5039 L1.9996,2.4959 C1.9996,1.1179 3.1176,-0.0001 4.4956,-0.0001 L17.5036,-0.0001 Z M13.5156,9.5869 C14.3066,9.0029 15.4996,7.9489 15.4996,6.2469 C15.4996,3.8549 13.6916,2.4999 10.9996,2.4999 C8.5186,2.4999 6.4996,4.5189 6.4996,6.9999 L9.0816,6.9999 C9.0816,5.8969 9.8976,4.6519 10.9996,4.6519 C11.9116,4.6519 12.7496,5.0539 12.7496,6.2939 C12.7496,6.9569 11.6426,7.6689 10.9416,8.5119 C10.1486,9.4659 9.7496,10.5889 9.7496,11.9999 L12.2496,11.9999 C12.2496,10.6029 12.6876,10.1989 13.5156,9.5869 Z M10.9996,15.9999 C11.8286,15.9999 12.4996,15.3289 12.4996,14.4999 C12.4996,13.6709 11.8286,12.9999 10.9996,12.9999 C10.1716,12.9999 9.4996,13.6709 9.4996,14.4999 C9.4996,15.3289 10.1716,15.9999 10.9996,15.9999 Z"/></svg>
