<svg xmlns="http://www.w3.org/2000/svg" xlink="http://www.w3.org/1999/xlink" width="16" height="16" viewBox="0 0 16 16"><path d="M9.7451,6.6236 C9.2201,7.0736 9.0141,7.4966 8.9021,7.9996 L7.0981,7.9996 C7.0981,7.1506 7.3901,6.5896 8.0771,6.0066 C8.7651,5.4236 9.1011,5.1026 9.1011,4.7036 C9.1011,4.0666 8.9691,3.5016 8.0001,3.5016 C7.0311,3.5016 6.8041,4.3956 6.8041,4.9996 L5.0001,4.9996 C5.0001,3.3456 6.3461,1.9996 8.0001,1.9996 C9.8791,1.9996 11.0001,3.0106 11.0001,4.7036 C11.0001,5.7566 10.2611,6.1826 9.7451,6.6236 M8.0001,11.2496 C7.3091,11.2496 6.7501,10.6906 6.7501,9.9996 C6.7501,9.3096 7.3091,8.7496 8.0001,8.7496 C8.6901,8.7496 9.2501,9.3096 9.2501,9.9996 C9.2501,10.6906 8.6901,11.2496 8.0001,11.2496 M12.7501,-0.0004 L3.2501,-0.0004 C2.0081,-0.0004 1.0001,1.0076 1.0001,2.2506 L1.0001,10.7496 C1.0001,11.9926 2.0081,12.9996 3.2501,12.9996 L4.0001,12.9996 L4.0001,15.5336 C4.0001,15.9166 4.4381,16.1366 4.7461,15.9056 L8.5001,12.9996 L12.7501,12.9996 C13.9921,12.9996 15.0001,11.9926 15.0001,10.7496 L15.0001,2.2506 C15.0001,1.0076 13.9921,-0.0004 12.7501,-0.0004"/></svg>
