<svg xmlns="http://www.w3.org/2000/svg" xlink="http://www.w3.org/1999/xlink" width="12" height="12" viewBox="0 0 12 12"><path d="M9.2465,0.0003 C10.2145,0.0003 10.9995,0.7853 10.9995,1.7543 L10.9995,8.2453 C10.9995,9.2153 10.2145,10.0003 9.2465,10.0003 L6.7495,10.0003 L4.0045,11.8863 C3.5755,12.1823 2.9995,11.8643 2.9995,11.3323 L2.9995,10.0003 L2.7535,10.0003 C1.7855,10.0003 0.9995,9.2153 0.9995,8.2453 L0.9995,1.7543 C0.9995,0.7853 1.7855,0.0003 2.7535,0.0003 L9.2465,0.0003 Z M7.3955,5.0713 C7.8345,4.7733 8.4995,4.1853 8.4995,3.3063 C8.4995,2.5773 7.8865,1.2503 5.9995,1.2503 C4.6215,1.2503 3.4995,2.3713 3.4995,3.7503 L4.9995,3.7503 C4.9995,2.9973 5.4485,2.4523 5.9995,2.4523 C6.8825,2.4523 7.0115,3.3133 6.8625,3.6193 C6.7125,3.9253 6.3175,4.1143 5.8415,4.6743 C5.3655,5.2323 5.2495,5.6003 5.2495,6.2503 L6.6545,6.2503 C6.6545,5.6633 6.9655,5.3633 7.3955,5.0713 Z M5.9995,8.7503 C6.5525,8.7503 6.9995,8.3023 6.9995,7.7503 C6.9995,7.1973 6.5525,6.7503 5.9995,6.7503 C5.4475,6.7503 4.9995,7.1973 4.9995,7.7503 C4.9995,8.3023 5.4475,8.7503 5.9995,8.7503 Z"/></svg>
