<svg xmlns="http://www.w3.org/2000/svg" xlink="http://www.w3.org/1999/xlink" width="22" height="22" viewBox="0 0 22 22"><path d="M20.2646,12.7012 C21.2516,14.4372 21.2436,16.5672 20.2446,18.2972 C19.2456,20.0262 17.4056,21.0972 15.4086,21.1102 C14.4356,21.1122 13.4796,20.8572 12.6366,20.3722 C9.6016,20.9072 6.4976,19.9242 4.3246,17.7392 C2.1516,15.5552 1.1856,12.4442 1.7376,9.4132 C0.7476,7.6762 0.7546,5.5452 1.7536,3.8142 C2.7526,2.0832 4.5956,1.0132 6.5936,1.0002 C7.5676,0.9982 8.5246,1.2532 9.3686,1.7382 C12.1146,1.2562 14.9316,2.0152 17.0636,3.8112 C19.1946,5.6082 20.4186,8.2582 20.4076,11.0452 C20.4086,11.6002 20.3606,12.1542 20.2646,12.7012 Z M11.0406,17.1072 L11.0366,17.1072 C14.2156,17.1072 15.8276,15.4982 15.8276,13.4162 C15.8276,12.0612 15.1856,10.6482 12.7756,10.1042 L10.5766,9.6082 C9.7436,9.4262 8.7926,9.1542 8.7926,8.3532 C8.7926,7.5532 9.4346,6.9792 10.6566,6.9792 C13.1136,6.9792 12.9086,8.6942 14.1296,8.6942 C14.7726,8.6942 15.3256,8.3402 15.3256,7.6782 C15.3256,6.1412 12.8816,5.0062 10.8256,5.0062 C8.5936,5.0062 6.2496,5.9332 6.2496,8.4962 C6.2496,9.7302 6.6666,11.0612 9.0606,11.6712 L12.0406,12.4232 C12.9416,12.6352 13.2056,13.1642 13.2056,13.6282 C13.2056,14.3992 12.4046,15.2212 11.0406,15.2212 C8.3716,15.2212 8.7456,13.0752 7.3156,13.0752 C7.0186,13.0582 6.7276,13.1652 6.5116,13.3702 C6.2956,13.5752 6.1726,13.8592 6.1736,14.1572 C6.1736,15.4052 7.7006,17.1072 11.0406,17.1072 Z"/></svg>
