<svg xmlns="http://www.w3.org/2000/svg" xlink="http://www.w3.org/1999/xlink" width="16" height="16" viewBox="0 0 16 16"><path d="M15.1832,8.9269 C15.6952,9.6569 16.0002,10.5409 16.0002,11.4999 C16.0002,13.9849 13.9852,15.9999 11.5002,15.9999 C10.5412,15.9999 9.6562,15.6949 8.9272,15.1849 C8.6232,15.2229 8.3142,15.2499 8.0002,15.2499 C3.9962,15.2499 0.7502,12.0039 0.7502,7.9999 C0.7502,7.6859 0.7772,7.3769 0.8162,7.0729 C0.3042,6.3429 0.0002,5.4589 0.0002,4.4999 C0.0002,2.0149 2.0142,-0.0001 4.5002,-0.0001 C5.4592,-0.0001 6.3442,0.3049 7.0732,0.8159 C7.3772,0.7769 7.6852,0.7499 8.0002,0.7499 C12.0042,0.7499 15.2502,3.9959 15.2502,7.9999 C15.2502,8.3149 15.2222,8.6229 15.1832,8.9269 Z M8.0312,12.7979 C10.5722,12.7969 11.8622,11.5099 11.8622,9.8449 C11.8622,8.7609 11.3482,7.6299 9.4202,7.1949 L7.6622,6.7989 C6.9942,6.6519 6.2342,6.4359 6.2342,5.7949 C6.2342,5.1529 6.7482,4.6949 7.7242,4.6949 C9.6902,4.6949 9.5262,6.0679 10.5042,6.0679 C11.0172,6.0679 11.4602,5.7839 11.4602,5.2539 C11.4602,4.0259 9.5062,3.1159 7.8602,3.1159 C6.0752,3.1159 4.1992,3.8589 4.1992,5.9079 C4.1992,6.8969 4.5332,7.9609 6.4492,8.4479 L8.8322,9.0499 C9.5522,9.2189 9.7642,9.6429 9.7642,10.0139 C9.7642,10.6309 9.1242,11.2879 8.0332,11.2879 C5.8972,11.2879 6.1972,9.5709 5.0522,9.5709 C4.8142,9.5589 4.5822,9.6439 4.4092,9.8079 C4.2362,9.9719 4.1382,10.1989 4.1382,10.4379 C4.1382,11.4359 5.3592,12.7969 8.0312,12.7979 L8.0292,12.7979 L8.0332,12.7979 L8.0312,12.7979 Z"/></svg>
