<svg xmlns="http://www.w3.org/2000/svg" xlink="http://www.w3.org/1999/xlink" width="12" height="12" viewBox="0 0 12 12"><path d="M11.1874,6.621 C11.6874,7.192 12.0004,7.931 12.0004,8.75 C12.0004,10.545 10.5454,12 8.7504,12 C7.9314,12 7.1924,11.687 6.6214,11.187 C6.4154,11.212 6.2124,11.25 6.0004,11.25 C3.1004,11.25 0.7504,8.899 0.7504,6 C0.7504,5.787 0.7884,5.585 0.8124,5.379 C0.3124,4.808 0.0004,4.069 0.0004,3.25 C0.0004,1.455 1.4554,0 3.2504,0 C4.0684,0 4.8074,0.313 5.3784,0.812 C5.5854,0.788 5.7874,0.75 6.0004,0.75 C8.8994,0.75 11.2504,3.101 11.2504,6 C11.2504,6.213 11.2114,6.415 11.1874,6.621 Z M6.0244,9.728 C7.9994,9.728 9.0004,8.728 9.0004,7.434 C9.0004,6.592 8.6014,5.714 7.1034,5.376 L5.7374,5.067 C5.2184,4.955 4.6284,4.786 4.6284,4.288 C4.6284,3.79 5.0274,3.434 5.7874,3.434 C7.3134,3.434 7.1854,4.5 7.9454,4.5 C8.3434,4.5 8.6874,4.28 8.6874,3.868 C8.6874,2.913 7.1704,2.207 5.8914,2.207 C4.5044,2.207 3.0474,2.784 3.0474,4.376 C3.0474,5.144 3.3064,5.971 4.7954,6.35 L6.6464,6.816 C7.2064,6.948 7.3714,7.277 7.3714,7.565 C7.3714,8.045 6.8734,8.555 6.0254,8.555 C4.3674,8.555 4.5994,7.222 3.7114,7.222 C3.5254,7.212 3.3444,7.278 3.2114,7.405 C3.0764,7.533 3.0004,7.71 3.0004,7.895 C3.0004,8.67 3.9494,9.728 6.0244,9.728 L6.0234,9.728 L6.0254,9.728 L6.0244,9.728 Z"/></svg>
