<svg xmlns="http://www.w3.org/2000/svg" xlink="http://www.w3.org/1999/xlink" width="44" height="44" viewBox="0 0 44 44"><path d="M26,2 L37,13 L37,40 C37,41.1 36.1,42 35,42 L9,42 C7.9,42 7,41.1 7,40 L7,4 C7,2.9 7.9,2 9,2 L26,2 Z M34,39 L34,16 L25,16 C23.9,16 23,15.1 23,14 L23,5 L10,5 L10,39 L34,39 Z M26,6.2 L26,13 L32.8,13 L26,6.2 Z M22,34 C19.2,34 17,31.8 17,29 L27,29 C27,31.8 24.8,34 22,34 Z M27.5,25 C26.672,25 26,24.328 26,23.5 C26,22.672 26.672,22 27.5,22 C28.328,22 29,22.672 29,23.5 C29,24.328 28.328,25 27.5,25 Z M18,23.5 C18,24.328 17.329,25 16.5,25 C15.671,25 15,24.328 15,23.5 C15,22.672 15.671,22 16.5,22 C17.329,22 18,22.672 18,23.5 Z"/></svg>
