<svg xmlns="http://www.w3.org/2000/svg" xlink="http://www.w3.org/1999/xlink" width="16" height="16" viewBox="0 0 16 16"><path d="M10.9998,-0.0002 L14.9998,3.9998 L14.9998,14.5028 C14.9998,15.3298 14.3298,15.9998 13.5018,15.9998 L2.4978,15.9998 C1.6698,15.9998 0.9998,15.3298 0.9998,14.5028 L0.9998,1.4978 C0.9998,0.6708 1.6698,-0.0002 2.4978,-0.0002 L10.9998,-0.0002 Z M13.3398,14.3398 L13.3398,4.9998 L9.9998,4.9998 L9.9998,1.6598 L2.6598,1.6598 L2.6598,14.3398 L13.3398,14.3398 Z M6,9 C5.447,9 5,8.552 5,8 C5,7.448 5.447,7 6,7 C6.553,7 7,7.448 7,8 C7,8.552 6.553,9 6,9 Z M9,8 C9,7.448 9.447,7 10,7 C10.553,7 11,7.448 11,8 C11,8.552 10.553,9 10,9 C9.447,9 9,8.552 9,8 Z M8,13 C6.344,13 5,11.657 5,10 L11,10 C11,11.657 9.656,13 8,13 Z"/></svg>
