<svg xmlns="http://www.w3.org/2000/svg" xlink="http://www.w3.org/1999/xlink" width="16" height="16" viewBox="0 0 16 16"><path d="M12.6201,12.0601 C11.3611,11.5001 9.4001,11.0801 9.4001,9.9601 L9.4001,9.5391 C10.9391,8.7001 12.0001,6.8801 12.0001,4.9181 C12.0001,2.5401 10.2401,1.0001 8.0001,1.0001 C5.7601,1.0001 4.0001,2.5401 4.0001,4.9181 C4.0001,6.8801 5.2001,8.7001 6.5991,9.5391 L6.5991,9.9601 C6.5991,10.9381 4.6411,11.5001 3.3801,11.9181 C1.9801,12.4801 1.0001,13.2001 1.0001,14.6001 L1.0001,15.0001 L15.0001,15.0001 L15.0001,14.6001 C15.0001,13.2001 14.0191,12.4801 12.6201,12.0601"/></svg>
