<svg width="16" height="16" xmlns="http://www.w3.org/2000/svg">
  <path d="M9.5 4 3 7.67v4.4h13v-4.4L9.5 4Z" fill="#0A2767"/>
  <rect x="4" width="11" height="11" rx="1" fill="#0364B8"/>
  <path d="M11.33 2H7.67v3.77h3.66v3.76H15V5.77h-3.67V2Z" fill="#28A8EA"/>
  <path fill="#50D9FF" d="M11.33 2H15v3.77h-3.67z"/>
  <path d="M4 2h3.67v3.77H4V2Zm7.33 7.53V5.77H7.67v3.76h3.66Zm0 0v3.77H15V9.53h-3.67Z" fill="#0078D4"/>
  <path opacity=".4" d="m14.02 13.15 1.96 1.1a.92.92 0 0 1-.33.55.89.89 0 0 1-.55.2H3.89a.89.89 0 0 1-.56-.2.92.92 0 0 1-.33-.54l1.97-1.11L3 11.33V7.67l.65-.37 5.84 3.3 5.84-3.3.65.37v3.66l-1.96 1.82Z" fill="#0A2767"/>
  <path d="M3.35 14.8 16 7.67v6.41a.91.91 0 0 1-.9.92H3.9a.89.89 0 0 1-.55-.2Z" fill="#1490DF"/>
  <path opacity=".2" d="M8.06 15h7.04a.89.89 0 0 0 .55-.2.92.92 0 0 0 .33-.54l-5.83-3.3-2.1 1.1V15Z" fill="#0A2767"/>
  <path d="M15.65 14.8 3 7.67v6.41a.91.91 0 0 0 .9.92h11.2a.89.89 0 0 0 .55-.2Z" fill="#28A8EA"/>
  <path opacity=".4" d="M3 3h4.5C8.33 3 9 3.62 9 4.38v6.24C9 11.38 8.33 12 7.5 12H3V3Z"/>
  <path d="M.73 3a.73.73 0 0 0-.73.73v6.54c0 .4.33.73.73.73h6.54a.73.73 0 0 0 .73-.73V3.73A.73.73 0 0 0 7.27 3H.73Z" fill="#0078D4"/>
  <path d="M2.21 5.93A2 2 0 0 1 3 5.06a2.34 2.34 0 0 1 1.24-.31 2.18 2.18 0 0 1 1.15.3c.32.2.59.48.75.82.19.38.28.8.27 1.22 0 .44-.09.88-.27 1.28a2.02 2.02 0 0 1-.79.86 2.27 2.27 0 0 1-1.18.3 2.23 2.23 0 0 1-1.17-.3 2 2 0 0 1-.77-.83 2.63 2.63 0 0 1-.27-1.2 2.92 2.92 0 0 1 .26-1.27Zm.83 2.04c.1.23.25.42.44.57.2.14.44.21.69.2.26.02.51-.06.73-.2.2-.15.34-.35.42-.58a2.23 2.23 0 0 0 .14-.8 2.44 2.44 0 0 0-.13-.8 1.27 1.27 0 0 0-.41-.6 1.13 1.13 0 0 0-.73-.22 1.18 1.18 0 0 0-.7.2c-.2.15-.35.35-.44.58a2.3 2.3 0 0 0 0 1.65Z" fill="#fff"/>
</svg>
