<svg xmlns="http://www.w3.org/2000/svg" xlink="http://www.w3.org/1999/xlink" width="44" height="44" viewBox="0 0 44 44"><path d="M10,28 L10,36 L23,36 L23,38 L8,38 L8,0 L34,0 L34,28 L10,28 Z M32,30 C35.866,30 39,33.134 39,37 C39,40.866 35.866,44 32,44 C28.134,44 25,40.866 25,37 C25,33.134 28.134,30 32,30 Z M36,38 L36,36 L33,36 L33,33 L31,33 L31,36 L28,36 L28,38 L31,38 L31,41 L33,41 L33,38 L36,38 Z M10,26 L32,26 L32,18 L10,18 L10,26 Z M10,16 L32,16 L32,8 L10,8 L10,16 Z M10,6 L32,6 L32,2 L10,2 L10,6 Z M18,33 L18,32 L23,32 L23,33 L18,33 Z M25,31 L18,31 L18,30 L26,30 L25,31 Z M12,34 L12,30 L16,30 L16,34 L12,34 Z M18,23 L18,22 L23,22 L23,23 L18,23 Z M18,21 L18,20 L29,20 L29,21 L18,21 Z M12,24 L12,20 L16,20 L16,24 L12,24 Z M18,13 L18,12 L23,12 L23,13 L18,13 Z M18,11 L18,10 L29,10 L29,11 L18,11 Z M12,14 L12,10 L16,10 L16,14 L12,14 Z"/></svg>
