<svg xmlns="http://www.w3.org/2000/svg" xlink="http://www.w3.org/1999/xlink" width="22" height="22" viewBox="0 0 22 22"><path d="M16.5,13 C18.985,13 21,15.015 21,17.5 C21,19.985 18.985,22 16.5,22 C14.015,22 12,19.985 12,17.5 C12,15.015 14.015,13 16.5,13 Z M19,18 L19,17 L17,17 L17,15 L16,15 L16,17 L14,17 L14,18 L16,18 L16,20 L17,20 L17,18 L19,18 Z M4,13 L4,18 L10,18 L10,19 L3,19 L3,0 L17,0 L17,11 L16,11 L16,7 L4,7 L4,12 L13,12 L12,13 L4,13 Z M4,6 L16,6 L16,1 L4,1 L4,6 Z M5,5 L5,2 L8,2 L8,5 L5,5 Z M9,3 L9,2 L14.999,2 L14.999,3 L9,3 Z M9,5 L9,4 L13,4 L13,5 L9,5 Z M5,11 L5,8 L8,8 L8,11 L5,11 Z M9,9 L9,7.999 L14.999,7.999 L14.999,9 L9,9 Z M9,11 L9,10 L13,10 L13,11 L9,11 Z M9,15 L9,14 L11,14 L11,15 L9,15 Z M9,17 L9,16 L10,16 L10,17 L9,17 Z M5,17 L5,14 L8,14 L8,17 L5,17 Z"/></svg>
