<svg width="24" height="24" xmlns="http://www.w3.org/2000/svg">
  <path d="M23 21a2.98 2.98 0 0 1-1.01 2.24 3.07 3.07 0 0 1-2.38.73 3.12 3.12 0 0 1-1.91-1.06 3.03 3.03 0 0 1-.73-2.04V3.12a3.03 3.03 0 0 1 .73-2.05A3.12 3.12 0 0 1 19.62.02 3.07 3.07 0 0 1 22 .76 2.98 2.98 0 0 1 23 3v18Z" fill="#F9AB00"/>
  <path d="M4.01 18.06c.8 0 1.57.31 2.14.87a2.95 2.95 0 0 1 .88 2.1 2.95 2.95 0 0 1-.88 2.1A3.04 3.04 0 0 1 4 24c-.8 0-1.56-.31-2.13-.87a2.95 2.95 0 0 1-.88-2.1c0-.79.32-1.55.88-2.1a3.04 3.04 0 0 1 2.14-.87Zm7.94-9.02a3.13 3.13 0 0 0-2.11.98A3.04 3.04 0 0 0 9 12.17v7.99c.01 2.16.98 3.48 2.4 3.76a3.07 3.07 0 0 0 2.51-.62 2.97 2.97 0 0 0 1.1-2.31v-8.95a2.94 2.94 0 0 0-.23-1.16 2.98 2.98 0 0 0-.66-.98 3.06 3.06 0 0 0-2.18-.86Z" fill="#E37400"/>
</svg>
