<svg width="24" height="24" viewBox="0 0 24 24" xmlns="http://www.w3.org/2000/svg"><path fill-rule="evenodd" clip-rule="evenodd" d="M2 5.708c0-.442.29-.833.713-.96l9-2.706a.997.997 0 0 1 .574 0l9 2.706c.423.127.713.518.713.96V7.97a1 1 0 0 1-1 1.002h-2v7.016h2c.552 0 1 .449 1 1.002v4.009C22 21.55 21.552 22 21 22H3c-.552 0-1-.449-1-1.002v-4.009c0-.553.448-1.002 1-1.002h2V8.97H3a1 1 0 0 1-1-1.002V5.71Zm10-1.66 8 2.406v.513H4v-.513l8-2.405Zm-1 4.923v7.016h2V8.97h-2Zm-4 0h2v7.016H7V8.97Zm10 7.016h-2V8.97h2v7.016Zm3 2.004v2.005H4V17.99h16Z"/></svg>