<svg xmlns="http://www.w3.org/2000/svg" xlink="http://www.w3.org/1999/xlink" width="22" height="22" viewBox="0 0 22 22"><path d="M20.926,3.138 C21.568,3.36 22,3.966 22,4.646 L22,6 L-6.77626358e-20,6 L-6.77626358e-20,4.646 C-6.77626358e-20,3.966 0.432,3.36 1.074,3.138 L9.337,0.279 C10.414,-0.093 11.586,-0.093 12.663,0.279 L20.926,3.138 Z M11,4.75 C11.69,4.75 12.25,4.19 12.25,3.5 C12.25,2.81 11.69,2.25 11,2.25 C10.31,2.25 9.75,2.81 9.75,3.5 C9.75,4.19 10.31,4.75 11,4.75 Z M2,8 L4,8 L4,15 L6,15 L6,8 L8,8 L8,15 L10,15 L10,8 L12,8 L12,15 L14,15 L14,8 L16,8 L16,15 L18,15 L18,8 L20,8 L20,15 C20.553,15 21,15.447 21,16 L21,17 L1,17 L1,16 C1,15.447 1.447,15 2,15 L2,8 Z M20.6719,18 C21.4049,18 21.9999,18.595 21.9999,19.328 L21.9999,21 L-0.0001,21 L-0.0001,19.328 C-0.0001,18.595 0.5949,18 1.3279,18 L20.6719,18 Z"/></svg>
