<svg xmlns="http://www.w3.org/2000/svg" xlink="http://www.w3.org/1999/xlink" width="12" height="12" viewBox="0 0 12 12"><path d="M5.5,0 L11,2.5 L11,4 L0,4 L0,2.5 L5.5,0 Z M5.5,3.25 C5.914,3.25 6.25,2.914 6.25,2.5 C6.25,2.086 5.914,1.75 5.5,1.75 C5.086,1.75 4.75,2.086 4.75,2.5 C4.75,2.914 5.086,3.25 5.5,3.25 Z M10,9 C10.553,9 11,9.447 11,10 L11,11 L0,11 L0,10 C0,9.447 0.447,9 1,9 L1.17,9 L1.17,5 L1.83,5 L1.83,9 L3.17,9 L3.17,5 L3.83,5 L3.83,9 L5.17,9 L5.17,5 L5.83,5 L5.83,9 L7.17,9 L7.17,5 L7.83,5 L7.83,9 L9.17,9 L9.17,5 L9.83,5 L9.83,9 L10,9 Z"/></svg>
