<svg xmlns="http://www.w3.org/2000/svg" xlink="http://www.w3.org/1999/xlink" width="22" height="22" viewBox="0 0 22 22"><path d="M11,1 C16.514,1 21,5.486 21,11 C21,16.514 16.514,21 11,21 C5.486,21 1,16.514 1,11 C1,5.486 5.486,1 11,1 Z M11,19 C15.411,19 19,15.411 19,11 C19,6.589 15.411,3 11,3 C6.589,3 3,6.589 3,11 C3,15.411 6.589,19 11,19 Z M8.702,7.051 L14.951,10.319 C15.351,10.529 15.351,11.208 14.951,11.417 L8.702,14.685 C8.371,14.858 8,14.568 8,14.136 L8,7.6 C8,7.168 8.371,6.878 8.702,7.051 Z"/></svg>
