<svg xmlns="http://www.w3.org/2000/svg" xlink="http://www.w3.org/1999/xlink" width="16" height="16" viewBox="0 0 16 16"><path d="M8,8.8817842e-16 C12.411,8.8817842e-16 16,3.589 16,8 C16,12.411 12.411,16 8,16 C3.589,16 0,12.411 0,8 C0,3.589 3.589,8.8817842e-16 8,8.8817842e-16 Z M8,14 C11.309,14 14,11.309 14,8 C14,4.691 11.309,2 8,2 C4.691,2 2,4.691 2,8 C2,11.309 4.691,14 8,14 Z M6.543,5.0391 L11.368,7.5741 C11.678,7.7361 11.678,8.2641 11.368,8.4261 L6.543,10.9611 C6.287,11.0951 6,10.8701 6,10.5351 L6,5.4651 C6,5.1301 6.287,4.9051 6.543,5.0391 Z"/></svg>
