<svg xmlns="http://www.w3.org/2000/svg" xlink="http://www.w3.org/1999/xlink" width="12" height="12" viewBox="0 0 12 12"><path d="M6,0 C9.313,0 12,2.687 12,6 C12,9.313 9.313,12 6,12 C2.687,12 0,9.313 0,6 C0,2.687 2.687,0 6,0 Z M6,11 C8.757,11 11,8.757 11,6 C11,3.243 8.757,1 6,1 C3.243,1 1,3.243 1,6 C1,8.757 3.243,11 6,11 Z M8.4102,5.6738 C8.6642,5.7978 8.6642,6.2018 8.4102,6.3258 L4.4452,8.2698 C4.2352,8.3728 4.0002,8.1998 4.0002,7.9438 L4.0002,4.0568 C4.0002,3.7998 4.2352,3.6268 4.4452,3.7308 L8.4102,5.6738 Z"/></svg>
