<svg xmlns="http://www.w3.org/2000/svg" xlink="http://www.w3.org/1999/xlink" width="16" height="16" viewBox="0 0 16 16"><path d="M12.502,12 C12.777,12 13,12.223 13,12.498 L13,13.502 C13,13.777 12.777,14 12.502,14 L0.498,14 C0.223,14 0,13.777 0,13.502 L0,12.498 C0,12.223 0.223,12 0.498,12 L12.502,12 Z M0.498,10 C0.223,10 0,9.777 0,9.502 L0,8.498 C0,8.223 0.223,8 0.498,8 L8.502,8 C8.777,8 9,8.223 9,8.498 L9,9.502 C9,9.777 8.777,10 8.502,10 L0.498,10 Z M0.498,6 C0.223,6 0,5.777 0,5.502 L0,4.498 C0,4.223 0.223,4 0.498,4 L5.502,4 C5.777,4 6,4.223 6,4.498 L6,5.502 C6,5.777 5.777,6 5.502,6 L0.498,6 Z M16,4 L16,6 L13,6 L13,9 L11,9 L11,6 L8,6 L8,4 L11,4 L11,1 L13,1 L13,4 L16,4 Z"/></svg>
