<svg xmlns="http://www.w3.org/2000/svg" xlink="http://www.w3.org/1999/xlink" width="12" height="12" viewBox="0 0 12 12"><path d="M4.5,5 L0.5,5 C0.225,5 0,4.775 0,4.5 L0,3.5 C0,3.225 0.225,3 0.5,3 L4.5,3 C4.775,3 5,3.225 5,3.5 L5,4.5 C5,4.775 4.775,5 4.5,5 Z M0.5,6 L6.5,6 C6.775,6 7,6.225 7,6.5 L7,7.5 C7,7.775 6.775,8 6.5,8 L0.5,8 C0.225,8 0,7.775 0,7.5 L0,6.5 C0,6.225 0.225,6 0.5,6 Z M0.5,9 L9.5,9 C9.775,9 10,9.225 10,9.5 L10,10.5 C10,10.775 9.775,11 9.5,11 L0.5,11 C0.225,11 0,10.775 0,10.5 L0,9.5 C0,9.225 0.225,9 0.5,9 Z M10,5 L10,7 L8,7 L8,5 L6,5 L6,3 L8,3 L8,1 L10,1 L10,3 L12,3 L12,5 L10,5 Z"/></svg>
