<svg xmlns="http://www.w3.org/2000/svg" xlink="http://www.w3.org/1999/xlink" width="22" height="22" viewBox="0 0 22 22"><path d="M11,1 C16.523,1 21,5.478 21,11 C21,16.522 16.523,21 11,21 C5.477,21 1,16.522 1,11 C1,5.478 5.477,1 11,1 Z M11,18.5 C15.136,18.5 18.5,15.136 18.5,11 C18.5,6.864 15.136,3.5 11,3.5 C6.864,3.5 3.5,6.864 3.5,11 C3.5,15.136 6.864,18.5 11,18.5 Z M8.5,10 C7.672,10 7,9.328 7,8.5 C7,7.672 7.672,7 8.5,7 C9.328,7 10,7.672 10,8.5 C10,9.328 9.328,10 8.5,10 Z M13.5,7 C14.328,7 15,7.672 15,8.5 C15,9.328 14.328,10 13.5,10 C12.672,10 12,9.328 12,8.5 C12,7.672 12.672,7 13.5,7 Z M7,14 L7,12 L15,12 L15,14 L7,14 Z"/></svg>
