<svg xmlns="http://www.w3.org/2000/svg" xlink="http://www.w3.org/1999/xlink" width="16" height="16" viewBox="0 0 16 16"><path d="M8,0 C3.589,0 0,3.589 0,8 C0,12.411 3.589,16 8,16 C12.411,16 16,12.411 16,8 C16,3.589 12.411,0 8,0 M8,14 C4.691,14 2,11.309 2,8 C2,4.691 4.691,2 8,2 C11.309,2 14,4.691 14,8 C14,11.309 11.309,14 8,14 Z M6,7 C6.552,7 7,6.553 7,6 C7,5.447 6.552,5 6,5 C5.448,5 5,5.447 5,6 C5,6.553 5.448,7 6,7 Z M10,7 C10.552,7 11,6.553 11,6 C11,5.447 10.552,5 10,5 C9.448,5 9,5.447 9,6 C9,6.553 9.448,7 10,7 Z M4,10 L12,10 L12,9 L4,9 L4,10 Z"/></svg>
