<svg xmlns="http://www.w3.org/2000/svg" xlink="http://www.w3.org/1999/xlink" width="12" height="12" viewBox="0 0 12 12"><path d="M6,0 C9.313,0 12,2.687 12,6 C12,9.313 9.313,12 6,12 C2.687,12 0,9.313 0,6 C0,2.687 2.687,0 6,0 Z M6,11 C8.757,11 11,8.757 11,6 C11,3.243 8.757,1 6,1 C3.243,1 1,3.243 1,6 C1,8.757 3.243,11 6,11 Z M4,6 C3.447,6 3,5.552 3,5 C3,4.448 3.447,4 4,4 C4.553,4 5,4.448 5,5 C5,5.552 4.553,6 4,6 Z M8,4 C8.553,4 9,4.448 9,5 C9,5.552 8.553,6 8,6 C7.447,6 7,5.552 7,5 C7,4.448 7.447,4 8,4 Z M3,8 L3,7 L9,7 L9,8 L3,8 Z"/></svg>
