<svg xmlns="http://www.w3.org/2000/svg" xlink="http://www.w3.org/1999/xlink" width="44" height="44" viewBox="0 0 44 44"><path d="M22,1 C26.209,1 36,2.169 36,13 C36,18.344 32.295,21.088 29.843,22.812 C27.446,24.498 26,26.419 26,31 L18,31 C18,24.94 19.625,21.885 21.939,19.858 C24.564,17.561 27.064,16.221 27.064,13 C27.064,11.125 26.594,7.75 22,7.75 C18.691,7.75 16,11.691 16,15 L8,15 C8,7.28 14.28,1 22,1 Z M23.0029,34 C25.2109,34 26.9999,35.79 26.9999,37.997 L26.9999,40.003 C26.9999,42.21 25.2109,44 23.0029,44 L20.9969,44 C18.7889,44 16.9999,42.21 16.9999,40.003 L16.9999,37.997 C16.9999,35.79 18.7889,34 20.9969,34 L23.0029,34 Z"/></svg>
