<svg xmlns="http://www.w3.org/2000/svg" xlink="http://www.w3.org/1999/xlink" width="22" height="22" viewBox="0 0 22 22"><path d="M11,16.5 C12.519,16.5 13.75,17.731 13.75,19.25 C13.75,20.769 12.519,22 11,22 C9.481,22 8.25,20.769 8.25,19.25 C8.25,17.731 9.481,16.5 11,16.5 Z M11,0 C15.187,0 18,2.611 18,6.497 C18,9.295 16.214,10.203 15.031,11.016 C13.809,11.857 12.75,12.732 12.75,15 L9,15 C9,10.628 11.266,9.07 12.766,8.04 C13.873,7.278 14,6.847 14,6.224 C14,4.16 12.368,3.5 11,3.5 C9.346,3.5 8,5.346 8,7 L4,7 C4,3.14 7.141,0 11,0 Z"/></svg>
