<svg xmlns="http://www.w3.org/2000/svg" width="24" height="24" fill="none" viewBox="0 0 24 24">
  <g>
    <path fill="#EE1D52" d="m2.764 20.084.073.207a4.826 4.826 0 0 1-.073-.207Zm2.893-4.678c.129-1.11.565-1.73 1.386-2.367 1.176-.862 2.645-.374 2.645-.374V9.77c.357-.01.714.013 1.067.066v3.724s-1.468-.488-2.644.375c-.821.636-1.258 1.257-1.386 2.367-.004.602.104 1.39.603 2.07a4.824 4.824 0 0 1-.377-.225c-1.099-.77-1.3-1.925-1.294-2.742ZM16.82 4.421c-.809-.925-1.115-1.858-1.225-2.514h1.017s-.203 1.72 1.276 3.41l.02.023a5.92 5.92 0 0 1-1.088-.92Zm4.901 2.621v3.65s-1.298-.054-2.259-.309c-1.341-.356-2.204-.904-2.204-.904s-.595-.39-.644-.417v7.535c0 .42-.11 1.467-.445 2.341-.439 1.143-1.115 1.894-1.24 2.047 0 0-.822 1.014-2.273 1.697-1.308.617-2.457.6-2.8.617 0 0-1.985.082-3.772-1.13a7.562 7.562 0 0 1-1.077-.903l.009.007c1.787 1.21 3.772 1.129 3.772 1.129.343-.016 1.492 0 2.8-.616 1.45-.683 2.273-1.698 2.273-1.698.123-.153.803-.903 1.24-2.047.334-.873.445-1.922.445-2.341V8.166c.048.028.644.418.644.418s.862.547 2.204.903c.961.256 2.259.309 2.259.309v-2.86c.444.104.822.132 1.068.106Z"/>
    <path fill="#000" d="M20.652 6.936v2.859s-1.297-.053-2.259-.308c-1.341-.357-2.204-.904-2.204-.904s-.595-.39-.643-.418v7.536c0 .42-.11 1.468-.446 2.341-.438 1.144-1.115 1.894-1.24 2.047 0 0-.822 1.015-2.273 1.698-1.308.616-2.456.6-2.8.616 0 0-1.985.082-3.772-1.13l-.009-.006a7.023 7.023 0 0 1-.532-.603c-.57-.725-.92-1.583-1.007-1.828a.01.01 0 0 1 0-.003c-.142-.425-.438-1.447-.398-2.436.072-1.746.66-2.817.816-3.085a7.26 7.26 0 0 1 1.584-1.936 6.616 6.616 0 0 1 1.882-1.114 6.313 6.313 0 0 1 2.337-.491v2.894s-1.469-.486-2.644.374c-.822.637-1.258 1.258-1.386 2.367-.006.816.195 1.972 1.293 2.742.128.085.253.16.377.226.192.26.425.487.69.67 1.074.71 1.972.759 3.122.299.766-.308 1.343-1.001 1.61-1.77.169-.48.166-.962.166-1.462V1.907h2.676c.11.656.416 1.59 1.225 2.514.324.349.69.658 1.088.92.118.126.72.754 1.492 1.14.4.2.821.352 1.255.455Z"/>
    <path fill="#69C9D0" d="M2.402 17.948v.002l.066.188c-.007-.022-.032-.089-.066-.19Z"/>
    <path fill="#69C9D0" d="M7.351 10.262a6.616 6.616 0 0 0-1.882 1.114 7.26 7.26 0 0 0-1.584 1.94c-.155.267-.744 1.34-.815 3.085-.041.99.256 2.01.397 2.436a.01.01 0 0 0 0 .003c.09.243.438 1.1 1.008 1.828.165.211.343.412.532.603a7.43 7.43 0 0 1-1.6-1.5c-.565-.719-.914-1.568-1.005-1.818V17.944c-.142-.425-.44-1.447-.398-2.437.072-1.746.66-2.817.816-3.086a7.254 7.254 0 0 1 1.583-1.94 6.604 6.604 0 0 1 1.883-1.114 6.448 6.448 0 0 1 1.328-.39 6.599 6.599 0 0 1 2.076-.03v.824a6.314 6.314 0 0 0-2.339.49Z"/>
    <path fill="#69C9D0" d="M15.594 1.907h-2.675v14.205c0 .5 0 .98-.166 1.462-.27.768-.845 1.46-1.611 1.769-1.15.462-2.049.41-3.12-.298-.267-.184-.501-.41-.694-.669.914.487 1.731.479 2.744.072.766-.307 1.342-1 1.61-1.769.17-.48.167-.962.167-1.461V1.01h3.694s-.041.353.05.897Zm5.058 4.239v.79a5.823 5.823 0 0 1-1.252-.455c-.773-.385-1.375-1.014-1.493-1.14.137.089.279.17.425.244.94.469 1.864.609 2.32.56Z"/>
  </g>
  <defs>
      <path fill="#fff" d="M1 1.01h22v22H1z"/>
  </defs>
</svg>
