<svg xmlns="http://www.w3.org/2000/svg" width="16" height="16" fill="none" viewBox="0 0 16 16">
  <g>
    <path fill="#EE1D52" d="m1.543 13.573.052.147a3.434 3.434 0 0 1-.052-.147Zm2.058-3.326c.09-.79.4-1.23.985-1.684.836-.613 1.88-.266 1.88-.266V6.24c.254-.007.508.009.76.047v2.647s-1.045-.346-1.88.267c-.585.452-.895.894-.986 1.683-.003.428.074.988.429 1.473a3.426 3.426 0 0 1-.268-.16c-.782-.548-.924-1.37-.92-1.95Zm7.937-7.812a3.629 3.629 0 0 1-.872-1.788h.724s-.145 1.223.907 2.426l.014.016a4.21 4.21 0 0 1-.774-.654ZM15.022 4.3v2.595s-.924-.038-1.607-.22c-.954-.253-1.567-.642-1.567-.642s-.423-.277-.458-.296v5.357c0 .299-.078 1.044-.317 1.665-.311.813-.792 1.347-.88 1.456 0 0-.586.72-1.618 1.207-.93.438-1.746.427-1.99.438 0 0-1.412.058-2.683-.803a5.381 5.381 0 0 1-.766-.643l.007.005c1.27.862 2.682.803 2.682.803.244-.01 1.06 0 1.99-.438 1.032-.486 1.618-1.207 1.618-1.207.087-.109.57-.643.88-1.456a5.41 5.41 0 0 0 .318-1.664V5.098c.034.02.457.297.457.297s.614.39 1.568.643c.683.181 1.606.22 1.606.22V4.223c.316.074.585.094.76.075Z"/>
    <path fill="#000" d="M14.263 4.224v2.032s-.922-.037-1.606-.219c-.954-.253-1.567-.642-1.567-.642s-.424-.278-.458-.297v5.358c0 .299-.078 1.044-.317 1.665-.311.813-.792 1.347-.88 1.456 0 0-.586.721-1.618 1.207-.93.438-1.746.427-1.99.438 0 0-1.412.058-2.683-.803l-.006-.005a4.986 4.986 0 0 1-.378-.429 5.152 5.152 0 0 1-.717-1.302c-.1-.302-.312-1.028-.283-1.732.051-1.241.47-2.003.58-2.194.293-.52.675-.986 1.127-1.376.399-.337.851-.605 1.338-.793a4.49 4.49 0 0 1 1.662-.348v2.057s-1.045-.345-1.88.266c-.585.453-.895.895-.986 1.684-.004.58.138 1.402.92 1.95.09.06.18.113.268.16.136.185.302.346.491.477.763.504 1.402.539 2.22.212.544-.219.954-.712 1.145-1.258.12-.341.118-.685.118-1.04V.648h1.902c.078.466.296 1.13.871 1.787.23.248.49.468.774.654.084.09.512.537 1.061.811.284.142.583.25.892.324Z"/>
    <path fill="#69C9D0" d="M1.286 12.054v.001l.047.134c-.006-.016-.023-.063-.047-.135ZM4.805 6.589c-.487.188-.94.456-1.338.792a5.163 5.163 0 0 0-1.126 1.38c-.111.19-.53.952-.58 2.193-.03.704.182 1.43.282 1.733v.002c.064.172.311.782.717 1.3.118.15.244.293.378.428A5.284 5.284 0 0 1 2 13.351a5.167 5.167 0 0 1-.714-1.297v-.002c-.1-.303-.313-1.03-.283-1.734.05-1.24.47-2.003.58-2.194a5.158 5.158 0 0 1 1.126-1.379 4.696 4.696 0 0 1 1.339-.792c.303-.126.62-.22.944-.278a4.692 4.692 0 0 1 1.476-.022v.587a4.49 4.49 0 0 0-1.663.349Z"/>
    <path fill="#69C9D0" d="M10.666.648H8.764v10.1c0 .356 0 .698-.118 1.04-.192.546-.6 1.04-1.145 1.258-.818.328-1.457.292-2.22-.212a2.088 2.088 0 0 1-.492-.475c.65.346 1.23.34 1.951.05.545-.218.954-.71 1.145-1.257.12-.341.119-.685.119-1.04V.01h2.626s-.03.25.036.638Zm3.597 3.014v.562a4.141 4.141 0 0 1-.89-.324c-.55-.274-.978-.72-1.062-.81.098.063.198.12.302.173.668.333 1.326.433 1.65.399Z"/>
  </g>
  <defs>
      <path fill="#fff" d="M0 .01h16v16H0z"/>
  </defs>
</svg>
