<svg xmlns="http://www.w3.org/2000/svg" xlink="http://www.w3.org/1999/xlink" width="22" height="22" viewBox="0 0 22 22"><path d="M17.0723,13.8569 C17.6333,14.6769 18.2753,15.1979 19.0003,15.4219 C18.6823,16.4579 18.1813,17.4919 17.4993,18.5269 C16.4493,20.1509 15.4043,20.9619 14.3633,20.9619 C13.9643,20.9619 13.3943,20.8299 12.6543,20.5649 C11.9553,20.2999 11.3403,20.0159 10.8113,20.0159 C10.3143,20.0159 9.7373,20.3049 9.0783,20.5779 C8.4203,20.8589 7.8833,20.9999 7.4673,20.9999 C6.2303,20.9999 5.0063,19.9269 3.7943,17.7829 C2.5973,15.6209 2.0003,13.5379 2.0003,11.5339 C2.0003,9.6459 2.4603,8.0979 3.3793,6.8889 C4.2913,5.6959 5.4453,5.0999 6.8453,5.0999 C8.2853,5.0999 9.2533,6.0509 10.6893,6.0509 C12.1263,6.0509 13.2613,4.9999 14.5463,4.9999 C15.5133,4.9999 16.3813,5.2689 17.1443,5.8069 C17.5683,6.1059 17.9913,6.5199 18.4143,7.0489 C17.7713,7.6049 17.3073,8.0929 17.0233,8.5149 C16.4943,9.2939 16.2303,10.1509 16.2303,11.0869 C16.2303,12.1129 16.5103,13.0369 17.0723,13.8569 Z M15,0.4961 C15,2.9691 13.012,4.9731 10.55,5.0001 C10.531,4.8351 10.5,4.6741 10.5,4.5041 C10.5,2.0311 12.488,0.0271 14.95,0.0001 C14.969,0.1651 15,0.3261 15,0.4961 Z"/></svg>
