<svg xmlns="http://www.w3.org/2000/svg" xlink="http://www.w3.org/1999/xlink" width="16" height="16" viewBox="0 0 16 16"><path d="M11.9109,8.5859 C11.9109,10.9849 13.9999,11.7479 13.9999,11.7479 C13.9999,11.9269 13.6019,13.0809 12.8329,14.1349 C12.0749,15.1739 11.3649,15.9999 10.3979,15.9999 C9.2909,15.9999 8.9789,14.9999 7.7789,14.9999 C6.5779,14.9999 6.1419,15.9999 5.1599,15.9999 C4.0679,15.9999 3.3039,14.9099 2.6489,13.9289 C1.7689,12.6089 0.9999,10.5519 0.9999,8.6159 C0.9999,7.6429 1.2019,6.7559 1.6669,5.9699 C2.3219,4.7699 3.5219,4.0069 4.9409,4.0069 C5.9239,4.0069 6.9059,4.9999 7.5599,4.9999 C8.2159,4.9999 9.2389,3.9999 10.3689,3.9999 C11.4199,3.9999 12.5809,4.2249 13.5629,5.5329 C13.4539,5.6429 11.9109,6.6239 11.9109,8.5859 Z M10.9998,0 C10.9978,0.862 10.5858,1.813 9.9498,2.45 C9.3118,3.088 8.3708,3.5 7.4998,3.5 C7.5018,2.638 7.9138,1.687 8.5498,1.05 C9.1878,0.412 10.1288,0 10.9998,0 Z"/></svg>
