<svg xmlns="http://www.w3.org/2000/svg" xlink="http://www.w3.org/1999/xlink" width="12" height="12" viewBox="0 0 12 12"><path d="M8.5,0 C7.9,0 7.2,0.3 6.8,0.7 C6.3,1.2 6,1.9 6,2.5 C6.6,2.5 7.3,2.2 7.8,1.7 C8.2,1.3 8.5,0.6 8.5,0 M9.4,6.4 C9.4,4.9 10.6,4.2 10.7,4.1 C9.9,3.2 9,3 8.2,3 C7.3,3 6.5,3.8 6,3.8 C5.5,3.8 4.8,3 4,3 C2.9,3 2,3.6 1.5,4.5 C1.2,5.1 1,5.7 1,6.5 C1,8 1.6,9.5 2.3,10.5 C2.8,11.2 3.4,12 4.2,12 C5,12 5.3,11.2 6.2,11.2 C7.1,11.2 7.4,12 8.2,12 C8.9,12 9.5,11.4 10.1,10.6 C10.7,9.8 11,8.9 11,8.8 C11,8.8 9.4,8.2 9.4,6.4"/></svg>
