<svg width="24" height="24" viewBox="0 0 24 24" xmlns="http://www.w3.org/2000/svg"><path d="M10.222 9.07c.142.238.062.542-.149.722a2.957 2.957 0 0 0-.983 1.667c-.056.275-.289.497-.57.483l-4.045-.201a.477.477 0 0 1-.46-.5c.071-1.179.403-2.105.985-3.141.578-1.029 1.185-1.709 2.15-2.39.227-.16.644-.084.788.155l2.284 3.206ZM17 5.8c-.677-.5-1.11-.161-1.252.065l-2.011 3.188c-.153.243-.068.562.155.743.513.418.883 1 1.028 1.667.055.254.261.46.521.468l4.028.106a.475.475 0 0 0 .495-.516C19.847 10.364 19.607 9.2 19 8.2c-.607-1.001-1.323-1.9-2-2.4Zm-3.31 9.19c-.128-.248-.437-.337-.702-.246a3.026 3.026 0 0 1-2.046-.025c-.263-.098-.574-.016-.71.23l-1.964 3.575a.477.477 0 0 0 .2.662 8.077 8.077 0 0 0 6.89.085.477.477 0 0 0 .215-.659l-1.882-3.621ZM14 12a2 2 0 1 1-4 0 2 2 0 0 1 4 0Z"/><path fill-rule="evenodd" clip-rule="evenodd" d="M23 12c0 6.075-4.925 11-11 11S1 18.075 1 12 5.925 1 12 1s11 4.925 11 11Zm-2 0a9 9 0 1 1-18 0 9 9 0 0 1 18 0Z"/></svg>