<svg xmlns="http://www.w3.org/2000/svg" xlink="http://www.w3.org/1999/xlink" width="22" height="22" viewBox="0 0 22 22"><path d="M14,10 C14,11.657 12.657,13 11,13 C9.343,13 8,11.657 8,10 C8,8.343 9.343,7 11,7 C12.657,7 14,8.343 14,10 Z M11,21 C9.373,21 7.833,20.642 6.444,20.005 C5.929,19.769 5.723,19.141 6.007,18.648 L8.128,14.974 C8.333,14.619 8.767,14.47 9.146,14.626 C9.718,14.863 10.341,15 11,15 C11.659,15 12.282,14.863 12.854,14.626 C13.233,14.47 13.667,14.619 13.872,14.974 L15.993,18.648 C16.277,19.141 16.071,19.769 15.556,20.005 C14.167,20.642 12.627,21 11,21 Z M15.9639,1.5645 C16.2969,0.9865 17.0649,0.8205 17.6009,1.2165 C19.9899,2.9855 21.6399,5.6955 21.9929,8.8005 C22.0679,9.4655 21.5429,10.0525 20.8739,10.0525 L16.8179,10.0525 C16.4169,10.0525 16.0709,9.7625 16.0159,9.3665 C15.8329,8.0515 15.1319,6.9085 14.1299,6.1285 C13.8119,5.8805 13.7279,5.4365 13.9299,5.0865 L15.9639,1.5645 Z M6.0361,1.5645 L8.0701,5.0865 C8.2721,5.4365 8.1881,5.8805 7.8701,6.1285 C6.8681,6.9085 6.1671,8.0515 5.9841,9.3665 C5.9291,9.7625 5.5831,10.0525 5.1821,10.0525 L1.1261,10.0525 C0.4571,10.0525 -0.0679,9.4655 0.0071,8.8005 C0.3601,5.6955 2.0101,2.9855 4.3991,1.2165 C4.9351,0.8205 5.7031,0.9865 6.0361,1.5645 Z"/></svg>
