<svg xmlns="http://www.w3.org/2000/svg" xlink="http://www.w3.org/1999/xlink" width="16" height="16" viewBox="0 0 16 16"><path d="M8,6 C9.104,6 10,6.896 10,8 C10,9.104 9.104,10 8,10 C6.896,10 6,9.104 6,8 C6,6.896 6.896,6 8,6 Z M10,11.5 L11.6,14.4 C11.8,14.7 11.7,15.1 11.4,15.2 C10.4,15.7 9.2,16 8,16 C6.8,16 5.6,15.7 4.5,15.2 C4.2,15.1 4.1,14.7 4.3,14.4 L6,11.5 C6.1,11.2 6.4,11.1 6.7,11.2 C7.1,11.4 7.5,11.5 8,11.5 C8.5,11.5 8.9,11.4 9.3,11.2 C9.5,11.1 9.9,11.2 10,11.5 Z M10,4.3 L11.7,1.3 C11.8,1.1 12,1 12.2,1 C12.3,1 12.4,1 12.5,1.1 C14.4,2.5 15.8,4.7 16,7.3 C16,7.7 15.7,8 15.4,8 L12.1,8 C11.8,8 11.6,7.8 11.5,7.5 C11.4,6.5 10.9,5.7 10.2,5.2 C9.9,4.9 9.9,4.6 10,4.3 Z M6,4.3 C6.1,4.6 6.1,4.9 5.8,5.2 C5.1,5.7 4.6,6.5 4.5,7.5 C4.4,7.8 4.2,8 3.9,8 L0.6,8 C0.3,8 0,7.7 0,7.3 C0.2,4.8 1.5,2.5 3.5,1.1 C3.6,1 3.7,1 3.8,1 C4,1 4.2,1.1 4.3,1.3 L6,4.3 Z"/></svg>
