<svg xmlns="http://www.w3.org/2000/svg" xlink="http://www.w3.org/1999/xlink" width="12" height="12" viewBox="0 0 12 12"><path d="M7.4998,6.0008 C7.4998,6.8288 6.8278,7.5008 5.9998,7.5008 C5.1718,7.5008 4.4998,6.8288 4.4998,6.0008 C4.4998,5.1728 5.1718,4.5008 5.9998,4.5008 C6.8278,4.5008 7.4998,5.1728 7.4998,6.0008 Z M8.7781,10.8133 C8.8971,11.0193 8.8251,11.2943 8.6101,11.3983 C7.8211,11.7833 6.9361,12.0003 6.0001,12.0003 C5.0631,12.0003 4.1781,11.7833 3.3891,11.3983 C3.1741,11.2943 3.1021,11.0193 3.2211,10.8133 L4.3401,8.8763 C4.4331,8.7143 4.6321,8.6633 4.8021,8.7403 C5.1691,8.9043 5.5711,9.0013 6.0001,9.0013 C6.4281,9.0013 6.8311,8.9043 7.1971,8.7403 C7.3681,8.6633 7.5661,8.7143 7.6601,8.8763 L8.7781,10.8133 Z M4.3543,3.201 C4.4343,3.339 4.3873,3.508 4.2563,3.598 C3.5663,4.083 3.0883,4.843 3.0043,5.721 C2.9893,5.877 2.8693,6.001 2.7113,6.001 L0.3283,6.001 C0.1443,6.001 -0.0097,5.846 0.0003,5.663 C0.1113,3.731 1.1623,2.05 2.7063,1.05 C2.8603,0.95 3.0703,1.007 3.1633,1.165 L4.3543,3.201 Z M7.6453,3.201 L8.8363,1.165 C8.9293,1.007 9.1393,0.95 9.2933,1.05 C10.8373,2.05 11.8883,3.731 11.9993,5.663 C12.0093,5.846 11.8553,6.001 11.6713,6.001 L9.2883,6.001 C9.1303,6.001 9.0103,5.877 8.9953,5.721 C8.9113,4.843 8.4333,4.083 7.7433,3.598 C7.6123,3.508 7.5653,3.339 7.6453,3.201 Z"/></svg>
