<svg width="24" height="24" viewBox="0 0 24 24" xmlns="http://www.w3.org/2000/svg"><path fill-rule="evenodd" clip-rule="evenodd" d="m22.707 2.707-.97.97a5.002 5.002 0 0 1-2.795 8.234 7.068 7.068 0 0 0-.034-2.05 3.001 3.001 0 0 0 1.41-4.765l-3.787 3.787a5 5 0 0 1-6.648 6.648L7.414 18H15a4 4 0 0 1 4 4v1h-2v-1a2 2 0 0 0-2-2H5.414l-2.707 2.707a1 1 0 0 1-1.414-1.414l20-20a1 1 0 1 1 1.414 1.414ZM11.462 13.952l3.49-3.49a3 3 0 0 1-3.49 3.49Z"/><path d="m1 19 1-1a2 2 0 0 1 2-2l1.782-1.782A7.017 7.017 0 0 1 5.674 14H4a4 4 0 0 0-4 4v1h1ZM12 6a4.99 4.99 0 0 1 1.703.297L12 8a3 3 0 0 0-3 3l-1.703 1.703A5 5 0 0 1 12 6Zm6-4c-1.742 0-3.276.89-4.17 2.241.485.132.95.314 1.388.54L18 2Z"/><path d="M1 7a5 5 0 0 1 9.17-2.759 6.962 6.962 0 0 0-1.88.822A3 3 0 1 0 5.093 9.86a7.05 7.05 0 0 0-.033 2.05A5.002 5.002 0 0 1 1 7Zm19 9h-3.101a7.018 7.018 0 0 0 1.427-2H20a4 4 0 0 1 4 4v1h-2v-1a2 2 0 0 0-2-2Z"/></svg>