<svg xmlns="http://www.w3.org/2000/svg" xlink="http://www.w3.org/1999/xlink" width="22" height="22" viewBox="0 0 22 22"><path d="M0,1.6211 L1.622,0.0001 L22,20.3791 L20.378,22.0001 L16.931,18.5521 L16,20.0001 L5,20.0001 L5,18.4441 C5,16.0081 8.98,16.1641 9.552,13.6321 C8.344,13.0021 7.5,11.6171 7.5,10.0001 C7.5,9.7241 7.529,9.4571 7.576,9.1981 L5.971,7.5921 C5.669,8.3281 5.5,9.1421 5.5,10.0001 C5.5,11.4521 5.992,12.8351 6.835,13.9071 C6.643,14.0211 6.422,14.1441 6.179,14.2771 C5.258,14.7801 3.867,15.5521 3.283,17.0011 L0,17.0011 L0,15.4451 C0,13.0091 3.98,13.1641 4.552,10.6321 C3.344,10.0021 2.5,8.6171 2.5,7.0001 C2.5,6.1591 2.733,5.3851 3.123,4.7441 L0,1.6211 Z M17.4482,10.6318 C18.0192,13.1638 22.0002,13.0078 22.0002,15.4438 L22.0002,16.9998 L12.5352,7.5348 C12.5132,7.3598 12.5002,7.1818 12.5002,6.9998 C12.5002,4.7908 14.0662,2.9998 16.0002,2.9998 C17.9332,2.9998 19.5002,4.7908 19.5002,6.9998 C19.5002,8.6168 18.6562,10.0018 17.4482,10.6318 Z"/></svg>
