<svg xmlns="http://www.w3.org/2000/svg" xlink="http://www.w3.org/1999/xlink" width="16" height="16" viewBox="0 0 16 16"><path d="M12.94,7.024 C13.759,6.617 14.334,5.697 14.334,4.625 C14.333,3.175 13.289,2 12,2 C10.711,2 9.667,3.175 9.667,4.625 C9.667,5.698 10.241,6.617 11.06,7.024 C11.027,7.267 10.933,7.469 10.806,7.647 L14.159,11 L16,11 L16,10.067 C16,8.557 13.175,8.703 12.94,7.024 L12.94,7.024 Z M0.892,-3.15544362e-30 L3.15544362e-30,0.892 L2.154,3.047 C1.856,3.488 1.667,4.027 1.667,4.625 C1.667,5.698 2.241,6.617 3.061,7.024 C2.824,8.703 3.15544362e-30,8.557 3.15544362e-30,10.067 L3.15544362e-30,11 L3.547,11 C3.956,10.676 4.405,10.447 4.759,10.274 L4.982,10.163 C4.464,9.45 4.167,8.56 4.167,7.625 C4.167,6.878 4.373,6.192 4.7,5.592 L5.828,6.72 C5.732,7.003 5.667,7.303 5.667,7.625 C5.667,8.698 6.241,9.617 7.061,10.024 C6.824,11.703 4,11.557 4,13.067 L4,14 L12,14 L12,12.892 L15.108,16 L16,15.108 L0.892,-3.15544362e-30 Z"/></svg>
