<svg xmlns="http://www.w3.org/2000/svg" xlink="http://www.w3.org/1999/xlink" width="12" height="12" viewBox="0 0 12 12"><path d="M0,0.8926 L0.894,-0.0004 L12,11.1076 L11.106,11.9996 L9.107,9.9996 L3,10.0006 L3,9.3006 C3,8.1686 5.117,8.2776 5.295,7.0186 C4.682,6.7136 4.25,6.0236 4.25,5.2196 C4.25,5.1956 4.256,5.1726 4.256,5.1486 L3.003,3.8956 C2.841,4.3026 2.75,4.7476 2.75,5.2186 C2.75,5.8466 2.91,6.4486 3.198,6.9716 C2.871,7.1396 2.451,7.3836 2.111,7.7496 L0,7.7496 L0,7.0506 C0,5.9176 1.822,6.2596 2,4.9996 C1.385,4.6946 1.25,3.7736 1.25,2.9686 C1.25,2.7206 1.305,2.4906 1.38,2.2716 L0,0.8926 Z M9.7051,4.7681 C9.8821,6.0271 12.0001,5.9181 12.0001,7.0501 L12.0001,7.7501 L11.2501,7.7501 L7.5321,4.0321 C7.3551,3.7261 7.2501,3.3621 7.2501,2.9691 C7.2501,1.8811 8.0331,1.0001 9.0001,1.0001 C9.9671,1.0001 10.7501,1.8811 10.7501,2.9691 C10.7501,3.7721 10.3201,4.4631 9.7051,4.7681 Z"/></svg>
