<svg width="24" height="24" viewBox="0 0 24 24" xmlns="http://www.w3.org/2000/svg"><path d="M19.665 2.49C18.865 1.582 17.8 1.004 16.5 1c-2-.007-2.741.722-3.5 1.479-1.172 1.294-1.165 2.837-.864 4.042-3.953-.126-7.444-2.07-9.682-5.04a7.273 7.273 0 0 0-.374 2.292 7.212 7.212 0 0 0 4.403 6.655c-1.391 0-3.357-.398-4.483-1.048.24 2.56 2.586 4.713 4.882 5.597A11.973 11.973 0 0 1 1 16.527a12.546 12.546 0 0 0 7.137 2.22c6.984 0 12.646-5.696 12.66-12.727C22.116 5.21 23 3.465 23 3.465s-1.021.503-2.333.79c1.122-.659 1.833-2.762 1.833-2.762s-1.345.796-2.654 1.22a5.47 5.47 0 0 0-.181-.223ZM4 21a1 1 0 1 0 0 2h8a1 1 0 1 0 0-2H4ZM15 22a1 1 0 1 1 2 0 1 1 0 0 1-2 0ZM20 21a1 1 0 1 0 0 2 1 1 0 0 0 0-2Z"/></svg>