<svg width="16" height="16" viewBox="0 0 16 16" xmlns="http://www.w3.org/2000/svg"><path d="M10.864 0c.827.003 1.505.361 2.014.923.04.046.079.092.115.139.833-.263 1.689-.756 1.689-.756s-.453 1.303-1.167 1.712C14.35 1.84 15 1.528 15 1.528s-.563 1.082-1.401 1.583C13.589 7.47 9.986 11 5.542 11A8.132 8.132 0 0 1 1 9.624a7.778 7.778 0 0 0 3.743-.96C3.282 8.114 1.79 6.78 1.636 5.193c.717.403 1.968.65 2.853.65-1.644-.674-2.802-2.267-2.802-4.125 0-.497.087-.974.238-1.42a8.084 8.084 0 0 0 6.162 3.123c-.192-.747-.196-1.703.55-2.505.482-.47.954-.921 2.227-.917ZM3 13a1 1 0 1 0 0 2h4a1 1 0 1 0 0-2H3ZM9 14a1 1 0 1 1 2 0 1 1 0 0 1-2 0ZM13 13a1 1 0 1 0 0 2 1 1 0 0 0 0-2Z"/></svg>