<svg xmlns="http://www.w3.org/2000/svg" xlink="http://www.w3.org/1999/xlink" width="22" height="22" viewBox="0 0 22 22"><path d="M21.588,9.46 C21.862,9.88 22,10.44 22,11 C22,11.56 21.862,12.12 21.588,12.54 C18.425,16.6 14.438,18 11,18 C7.562,18 3.575,16.6 0.412,12.54 C0.138,12.12 0,11.56 0,11 C0,10.44 0.138,9.88 0.412,9.46 C3.575,5.4 7.562,4 11,4 C14.438,4 18.425,5.4 21.588,9.46 Z M11,16.5 C14.037,16.5 16.5,14.038 16.5,11 C16.5,7.962 14.037,5.5 11,5.5 C7.963,5.5 5.5,7.962 5.5,11 C5.5,14.038 7.963,16.5 11,16.5 Z M11,8 C12.656,8 14,9.343 14,11 C14,12.657 12.656,14 11,14 C9.344,14 8,12.657 8,11 C8,9.343 9.344,8 11,8 Z"/></svg>
