<svg xmlns="http://www.w3.org/2000/svg" xlink="http://www.w3.org/1999/xlink" width="22" height="22" viewBox="0 0 22 22"><path d="M11,14 C9.344,14 8,12.657 8,11 L8,3 C8,1.343 9.344,0 11,0 C12.656,0 14,1.343 14,3 L14,11 C14,12.657 12.656,14 11,14 Z M18,11 C18,14.344 15.641,17.145 12.5,17.834 L12.5,18.696 C12.5,19.692 13.308,20.5 14.305,20.5 C14.688,20.5 15,20.812 15,21.196 L15,22 L7,22 L7,21.196 C7,20.812 7.312,20.5 7.695,20.5 C8.692,20.5 9.5,19.692 9.5,18.696 L9.5,17.834 C6.359,17.145 4,14.344 4,11 C4,10.31 4.56,9.75 5.25,9.75 C5.94,9.75 6.5,10.31 6.5,11 C6.5,13.481 8.519,15.5 11,15.5 C13.481,15.5 15.5,13.481 15.5,11 C15.5,10.31 16.06,9.75 16.75,9.75 C17.44,9.75 18,10.31 18,11 Z"/></svg>
