<svg xmlns="http://www.w3.org/2000/svg" xlink="http://www.w3.org/1999/xlink" width="12" height="12" viewBox="0 0 12 12"><path d="M5.5,7 C4.672,7 4,6.329 4,5.5 L4,1.5 C4,0.671 4.672,0 5.5,0 C6.328,0 7,0.671 7,1.5 L7,5.5 C7,6.329 6.328,7 5.5,7 Z M9.75,5.5 C9.75,7.567 8.265,9.29 6.307,9.668 C6.494,10.432 7.179,11 8,11 L8,12 L3,12 L3,11 C3.821,11 4.506,10.432 4.693,9.668 C2.735,9.29 1.25,7.567 1.25,5.5 C1.25,5.086 1.586,4.75 2,4.75 C2.414,4.75 2.75,5.086 2.75,5.5 C2.75,7.017 3.983,8.25 5.5,8.25 C7.017,8.25 8.25,7.017 8.25,5.5 C8.25,5.086 8.586,4.75 9,4.75 C9.414,4.75 9.75,5.086 9.75,5.5 Z"/></svg>
