<svg xmlns="http://www.w3.org/2000/svg" width="24" height="24" viewBox="0 0 24 24"><path d="M4 1.004a1 1 0 0 1 1-1h14a1 1 0 1 1 0 2H5a1 1 0 0 1-1-1ZM4 23.004a1 1 0 0 1 1-1h14a1 1 0 1 1 0 2H5a1 1 0 0 1-1-1Z"/><path fill-rule="evenodd" d="M9 15.004a1 1 0 1 0 2 0v-6a1 1 0 0 0-1-1H9a4 4 0 0 0-4 4v3a1 1 0 1 0 2 0v-1h2v1Zm-2-3a2 2 0 0 1 2-2v2H7ZM15 8.004h-1a1 1 0 0 0-1 1v6a1 1 0 0 0 1 1h1a4 4 0 0 0 0-8Zm0 6a2 2 0 1 0 0-4v4Z" clip-rule="evenodd"/><path fill-rule="evenodd" d="M2 4.004a1 1 0 0 0-1 1v14a1 1 0 0 0 1 1h20a1 1 0 0 0 1-1v-14a1 1 0 0 0-1-1H2Zm1 14v-12h18v12H3Z" clip-rule="evenodd"/></svg>