<svg xmlns="http://www.w3.org/2000/svg" xlink="http://www.w3.org/1999/xlink" width="22" height="22" viewBox="0 0 22 22"><path d="M21.5654,7.9092 C21.5654,8.4102 21.4624,8.8892 21.2554,9.3512 C21.0514,9.8112 20.7814,10.2562 20.4534,10.6832 C20.1214,11.1122 19.7514,11.5212 19.3344,11.9172 C18.9234,12.3122 18.5164,12.6862 18.1174,13.0442 L17.4444,13.6672 L16.7534,14.3672 L16.1664,15.0282 C15.9924,15.2332 15.8854,15.4012 15.8454,15.5322 L22.0004,15.5322 L22.0004,18.0002 L12.4564,18.0002 L12.4154,17.4472 L12.4154,16.9742 C12.4154,16.3432 12.5214,15.7632 12.7344,15.2352 C12.9504,14.7082 13.2274,14.2182 13.5744,13.7642 C13.9174,13.3092 14.3054,12.8872 14.7404,12.4912 L16.0304,11.3062 L16.9604,10.4472 C17.2504,10.1762 17.5034,9.9152 17.7224,9.6582 C17.9444,9.3982 18.1174,9.1432 18.2414,8.8862 C18.3644,8.6292 18.4264,8.3702 18.4264,8.1072 C18.4264,7.5282 18.2524,7.1202 17.9104,6.8822 C17.5654,6.6462 17.1374,6.5272 16.6314,6.5272 C16.2554,6.5272 15.9094,6.5832 15.5864,6.6952 C15.2624,6.8062 14.9654,6.9382 14.6984,7.0912 C14.4294,7.2432 14.1994,7.3932 14.0064,7.5462 L13.5724,7.9092 L12.0414,5.8562 C12.6504,5.3162 13.3554,4.8712 14.1614,4.5232 C14.9654,4.1752 15.8314,4.0002 16.7534,4.0002 C17.5924,4.0002 18.3184,4.0912 18.9234,4.2762 C19.5304,4.4622 20.0274,4.7212 20.4214,5.0562 C20.8114,5.3922 21.1034,5.8012 21.2904,6.2822 C21.4734,6.7622 21.5654,7.3042 21.5654,7.9092 Z M9.1944,4.3152 L9.1944,12.5312 L10.7214,12.5312 L10.7214,14.9392 L9.1944,14.9392 L9.1944,18.0002 L6.1764,18.0002 L6.1764,14.9392 L0.0004,14.9392 L0.0004,12.7882 C0.3024,12.2072 0.6814,11.5532 1.1364,10.8232 C1.5914,10.0922 2.0974,9.3432 2.6584,8.5712 C3.2134,7.8012 3.8034,7.0492 4.4214,6.3112 C5.0424,5.5752 5.6634,4.9102 6.2834,4.3162 L9.1944,4.3162 L9.1944,4.3152 Z M6.1764,7.9092 C5.6394,8.5812 5.0674,9.3112 4.4614,10.1022 C3.8554,10.8912 3.3474,11.7002 2.9334,12.5312 L6.1764,12.5312 L6.1764,7.9092 Z"/></svg>
