<svg xmlns="http://www.w3.org/2000/svg" xlink="http://www.w3.org/1999/xlink" width="16" height="16" viewBox="0 0 16 16"><path d="M15.6836,5.793 C15.6836,6.15 15.6096,6.492 15.4586,6.822 C15.3106,7.151 15.1136,7.469 14.8746,7.773 C14.6336,8.08 14.3646,8.372 14.0616,8.655 C13.7626,8.938 13.4666,9.205 13.1756,9.46 L12.6866,9.905 L12.1836,10.405 L11.7576,10.878 C11.6306,11.023 11.5536,11.144 11.5246,11.237 L15.9996,11.237 L15.9996,13 L9.0586,13 L9.0296,12.605 L9.0296,12.268 C9.0296,11.816 9.1066,11.402 9.2616,11.025 C9.4186,10.648 9.6206,10.299 9.8716,9.975 C10.1216,9.65 10.4046,9.348 10.7196,9.065 L11.6586,8.219 L12.3346,7.605 C12.5446,7.411 12.7296,7.225 12.8896,7.041 C13.0506,6.856 13.1756,6.674 13.2666,6.49 C13.3566,6.307 13.4016,6.121 13.4016,5.934 C13.4016,5.52 13.2746,5.229 13.0256,5.059 C12.7746,4.89 12.4636,4.805 12.0956,4.805 C11.8226,4.805 11.5706,4.845 11.3356,4.925 C11.0996,5.005 10.8836,5.099 10.6896,5.207 C10.4956,5.316 10.3276,5.424 10.1866,5.532 L9.8716,5.793 L8.7576,4.326 C9.2006,3.94 9.7126,3.622 10.2986,3.374 C10.8836,3.125 11.5136,3 12.1836,3 C12.7946,3 13.3226,3.065 13.7626,3.197 C14.2046,3.33 14.5656,3.515 14.8516,3.755 C15.1356,3.995 15.3476,4.286 15.4846,4.63 C15.6176,4.973 15.6836,5.36 15.6836,5.793 Z M6.6866,3.225 L6.6866,9.094 L7.7966,9.094 L7.7966,10.814 L6.6866,10.814 L6.6866,13 L4.4926,13 L4.4926,10.814 L-0.0004,10.814 L-0.0004,9.277 C0.2196,8.862 0.4956,8.395 0.8276,7.874 C1.1576,7.352 1.5256,6.816 1.9336,6.265 C2.3366,5.715 2.7666,5.178 3.2156,4.651 C3.6666,4.125 4.1196,3.65 4.5696,3.227 L6.6866,3.227 L6.6866,3.225 Z M4.4926,5.793 C4.1016,6.272 3.6856,6.794 3.2456,7.358 C2.8036,7.923 2.4346,8.5 2.1336,9.094 L4.4926,9.094 L4.4926,5.793 Z"/></svg>
