<svg xmlns="http://www.w3.org/2000/svg" xlink="http://www.w3.org/1999/xlink" width="12" height="12" viewBox="0 0 12 12"><path d="M11.7627,4.2344 C11.7627,4.5194 11.7067,4.7944 11.5937,5.0574 C11.4837,5.3214 11.3347,5.5754 11.1567,5.8194 C10.9747,6.0644 10.7737,6.2974 10.5457,6.5244 C10.3227,6.7504 10.0997,6.9634 9.8817,7.1684 L9.5147,7.5244 L9.1377,7.9234 L8.8187,8.3014 C8.7227,8.4194 8.6647,8.5144 8.6427,8.5894 L11.9997,8.5894 L11.9997,10.0004 L6.7937,10.0004 L6.7727,9.6834 L6.7727,9.4144 C6.7727,9.0524 6.8297,8.7214 6.9467,8.4204 C7.0647,8.1194 7.2147,7.8384 7.4047,7.5804 C7.5907,7.3204 7.8027,7.0784 8.0397,6.8514 L8.7437,6.1744 L9.2507,5.6834 C9.4087,5.5294 9.5467,5.3804 9.6667,5.2334 C9.7877,5.0854 9.8817,4.9394 9.9507,4.7924 C10.0167,4.6444 10.0507,4.4974 10.0507,4.3464 C10.0507,4.0154 9.9557,3.7834 9.7687,3.6474 C9.5807,3.5114 9.3477,3.4444 9.0727,3.4444 C8.8667,3.4444 8.6777,3.4754 8.5017,3.5404 C8.3247,3.6034 8.1627,3.6784 8.0167,3.7654 C7.8707,3.8524 7.7447,3.9394 7.6397,4.0264 L7.4037,4.2344 L6.5687,3.0604 C6.9007,2.7524 7.2847,2.4984 7.7237,2.2984 C8.1627,2.0994 8.6347,2.0004 9.1377,2.0004 C9.5957,2.0004 9.9917,2.0514 10.3227,2.1584 C10.6537,2.2634 10.9237,2.4124 11.1387,2.6034 C11.3517,2.7964 11.5107,3.0294 11.6137,3.3034 C11.7127,3.5784 11.7627,3.8874 11.7627,4.2344 Z M5.0147,2.1794 L5.0147,6.8754 L5.8477,6.8754 L5.8477,8.2514 L5.0147,8.2514 L5.0147,10.0004 L3.3687,10.0004 L3.3687,8.2514 L-0.0003,8.2514 L-0.0003,7.0224 C0.1647,6.6904 0.3717,6.3164 0.6197,5.8994 C0.8677,5.4814 1.1437,5.0524 1.4497,4.6124 C1.7527,4.1724 2.0747,3.7424 2.4117,3.3214 C2.7497,2.9004 3.0887,2.5194 3.4267,2.1804 L5.0147,2.1804 L5.0147,2.1794 Z M3.3687,4.2344 C3.0757,4.6184 2.7637,5.0354 2.4337,5.4874 C2.1027,5.9384 1.8257,6.4004 1.5997,6.8754 L3.3687,6.8754 L3.3687,4.2344 Z"/></svg>
