<svg width="16" height="16" viewBox="0 0 16 16" xmlns="http://www.w3.org/2000/svg"><path d="M10.057 1.926a.996.996 0 0 1 1.276-.618C14.051 2.282 16 4.908 16 8c0 3.091-1.95 5.718-4.667 6.692a.997.997 0 0 1-1.276-.618 1.017 1.017 0 0 1 .61-1.294A5.067 5.067 0 0 0 14 8a5.067 5.067 0 0 0-3.333-4.78 1.017 1.017 0 0 1-.61-1.294Zm-3.947.26L3 6H1.5A1.5 1.5 0 0 0 0 7.5v1A1.5 1.5 0 0 0 1.5 10H3l3.11 3.814c.295.364.89.158.89-.309V2.495c0-.467-.595-.673-.89-.309Z"/><path d="M10.5 5.402a1 1 0 0 0-1 1.731 1 1 0 0 1 0 1.734 1 1 0 0 0 1 1.731 3 3 0 0 0 0-5.196Z"/></svg>