<svg xmlns="http://www.w3.org/2000/svg" xlink="http://www.w3.org/1999/xlink" width="22" height="22" viewBox="0 0 22 22"><path d="M18.4507,3.4065 C20.1187,5.6685 20.9997,8.2945 20.9997,11.0005 C20.9997,13.7065 20.1187,16.3315 18.4507,18.5935 C18.2577,18.8555 17.9637,19.0005 17.6577,19.0005 C17.4477,19.0005 17.2347,18.9395 17.0527,18.8045 C16.7847,18.6065 16.6457,18.2985 16.6457,17.9915 C16.6457,17.7875 16.7107,17.5825 16.8417,17.4055 C18.2537,15.4905 18.9997,13.2755 18.9997,11.0005 C18.9997,8.7245 18.2537,6.5105 16.8417,4.5945 C16.7107,4.4185 16.6457,4.2135 16.6457,4.0095 C16.6457,3.7015 16.7847,3.3935 17.0527,3.1955 C17.2347,3.0605 17.4477,3.0005 17.6577,3.0005 C17.9637,3.0005 18.2577,3.1445 18.4507,3.4065 Z M14.1094,5.9973 C14.4034,6.0203 14.6964,6.1393 14.8894,6.3923 C15.9424,7.7783 16.5004,9.3723 16.5004,11.0003 C16.5004,12.6283 15.9424,14.2213 14.8894,15.6073 C14.6964,15.8613 14.4034,15.9793 14.1094,16.0023 C13.8934,16.0193 13.6734,15.9403 13.4884,15.7993 C13.2284,15.6013 13.0934,15.3033 13.0934,15.0003 C13.0934,14.7903 13.1604,14.5783 13.2974,14.3973 C14.0844,13.3623 14.5004,12.1863 14.5004,11.0003 C14.5004,9.8123 14.0844,8.6383 13.2974,7.6013 C13.1604,7.4223 13.0934,7.2103 13.0934,6.9993 C13.0934,6.6963 13.2284,6.3973 13.4884,6.2003 C13.6734,6.0593 13.8934,5.9803 14.1094,5.9973 Z M9.6748,4.2023 C10.1888,3.7473 10.9998,4.1103 10.9998,4.7953 L10.9998,17.2053 C10.9998,17.8903 10.1888,18.2533 9.6748,17.7983 L5.3868,14.0003 L1.9998,14.0003 C1.4478,14.0003 0.9998,13.5523 0.9998,13.0003 L0.9998,9.0003 C0.9998,8.4473 1.4478,8.0003 1.9998,8.0003 L5.3868,8.0003 L9.6748,4.2023 Z"/></svg>
