<svg xmlns="http://www.w3.org/2000/svg" xlink="http://www.w3.org/1999/xlink" width="16" height="16" viewBox="0 0 16 16"><path d="M13.9448,2.2726 C15.2708,3.8796 16.0008,5.9136 16.0008,7.9986 C16.0008,10.0836 15.2708,12.1166 13.9448,13.7236 C13.7978,13.9036 13.5828,13.9966 13.3668,13.9966 C13.1988,13.9966 13.0288,13.9406 12.8888,13.8246 C12.5698,13.5616 12.5248,13.0886 12.7888,12.7686 C13.8918,11.4296 14.5008,9.7356 14.5008,7.9986 C14.5008,6.2606 13.8918,4.5666 12.7888,3.2276 C12.5248,2.9076 12.5698,2.4346 12.8888,2.1716 C13.2078,1.9086 13.6828,1.9526 13.9448,2.2726 Z M10.188,4.3986 C10.505,4.1346 10.979,4.1786 11.244,4.4996 C12.054,5.4816 12.501,6.7236 12.501,7.9986 C12.501,9.2726 12.054,10.5146 11.244,11.4976 C11.095,11.6766 10.881,11.7696 10.666,11.7696 C10.497,11.7696 10.328,11.7126 10.188,11.5976 C9.869,11.3346 9.824,10.8616 10.087,10.5426 C10.676,9.8286 11,8.9246 11,7.9986 C11,7.0716 10.676,6.1686 10.087,5.4546 C9.824,5.1346 9.869,4.6626 10.188,4.3986 Z M7.25,3.0753 C7.581,2.8613 8,3.1183 8,3.5353 L8,12.4613 C8,12.8783 7.581,13.1363 7.25,12.9213 L3,9.9983 L1,9.9983 C0.451,9.9983 0,9.5483 0,8.9983 L0,6.9983 C0,6.4483 0.451,5.9983 1,5.9983 L3,5.9983 L7.25,3.0753 Z"/></svg>
