<svg xmlns="http://www.w3.org/2000/svg" xlink="http://www.w3.org/1999/xlink" width="12" height="12" viewBox="0 0 12 12"><path d="M10.3994,1.1998 C11.4464,2.5918 12.0004,4.2518 12.0004,5.9998 C12.0004,7.7478 11.4464,9.4078 10.3994,10.8008 C10.3014,10.9308 10.1514,10.9998 10.0004,10.9998 C9.8944,10.9998 9.7904,10.9678 9.6994,10.8998 C9.4784,10.7338 9.4344,10.4208 9.6004,10.1998 C10.5154,8.9818 11.0004,7.5298 11.0004,5.9998 C11.0004,4.4708 10.5154,3.0188 9.6004,1.8008 C9.4344,1.5798 9.4784,1.2658 9.6994,1.1008 C9.9204,0.9338 10.2344,0.9788 10.3994,1.1998 Z M7.7197,3.0851 C7.9487,2.9321 8.2597,2.9911 8.4137,3.2201 C8.9707,4.0441 9.2647,5.0051 9.2647,6.0001 C9.2647,6.9951 8.9707,7.9561 8.4137,8.7801 C8.3177,8.9231 8.1597,9.0001 7.9997,9.0001 C7.9037,9.0001 7.8057,8.9731 7.7197,8.9151 C7.4907,8.7601 7.4307,8.4491 7.5857,8.2201 C8.0307,7.5631 8.2647,6.7941 8.2647,6.0001 C8.2647,5.2061 8.0307,4.4381 7.5857,3.7791 C7.4307,3.5511 7.4907,3.2401 7.7197,3.0851 Z M5.1953,2.1193 C5.5093,1.8483 6.0003,2.0703 6.0003,2.4853 L6.0003,9.5153 C6.0003,9.9303 5.5093,10.1523 5.1953,9.8813 L3.0003,8.0003 L0.9963,8.0003 C0.4463,8.0003 0.0003,7.5543 0.0003,7.0033 L0.0003,4.9963 C0.0003,4.4463 0.4463,4.0003 0.9963,4.0003 L3.0003,4.0003 L5.1953,2.1193 Z"/></svg>
