<svg xmlns="http://www.w3.org/2000/svg" width="24" height="25" viewBox="0 0 24 25"><path d="M7.02 6.021a1 1 0 0 1 .998-1h7.99a1 1 0 0 1 0 2h-7.99a1 1 0 0 1-.998-1ZM8.018 9.021a1 1 0 0 0 0 2h7.993a1 1 0 0 0 0-2H8.018Z"/><path fill-rule="evenodd" d="M3.026 2.021a1 1 0 0 1 .998-1h15.978a1 1 0 0 1 .998 1v16a1 1 0 0 1-.998 1H4.024a1 1 0 0 1-.998-1v-16Zm1.996 15v-14h13.982v14H5.022Z" clip-rule="evenodd"/><path d="M3.998 21.021a1 1 0 0 0 0 2h7.993a1 1 0 0 0 0-2H3.998ZM14.985 22.021a1 1 0 1 1 1.998-.002 1 1 0 0 1-1.998.002ZM18.978 22.021a.999.999 0 1 1 1.998-.002.999.999 0 0 1-1.998.002ZM8.018 13.021a1 1 0 0 0 0 2h3.993a1 1 0 0 0 0-2H8.018Z"/></svg>