<svg xmlns="http://www.w3.org/2000/svg" width="16" height="17" viewBox="0 0 16 17"><path d="M4.02 5.021a1 1 0 0 1 .998-1h5.99a1 1 0 0 1 0 2h-5.99a1 1 0 0 1-.998-1ZM5.018 7.021a1 1 0 0 0 0 2h3.993a1 1 0 0 0 0-2H5.018Z"/><path fill-rule="evenodd" d="M1.026 1.021a1 1 0 0 1 .998-1h11.978a1 1 0 0 1 .998 1v11a1 1 0 0 1-.998 1H2.024a1 1 0 0 1-.998-1v-11Zm1.996 10v-9h9.982v9H3.022Z" clip-rule="evenodd"/><path d="M1.998 14.021a1 1 0 0 0 0 2h3.993a1 1 0 0 0 0-2H1.998ZM8.985 15.021a1 1 0 1 1 1.998-.002 1 1 0 0 1-1.998.002ZM12.978 15.021a.999.999 0 1 1 1.998-.002.999.999 0 0 1-1.998.002Z"/></svg>