<svg xmlns="http://www.w3.org/2000/svg" xlink="http://www.w3.org/1999/xlink" width="22" height="22" viewBox="0 0 22 22"><path d="M4,3.0001 L4,17.0001 L7,20.0001 L4,20.0001 C2.346,20.0001 1,18.6541 1,17.0001 L1,3.0001 C1,1.3461 2.346,0.0001 4,0.0001 L12,0.0001 C12.397,0.0001 12.779,0.1581 13.061,0.4391 L17.561,4.9391 C17.842,5.2211 18,5.6021 18,6.0001 L18,8.5001 L15,11.5001 L15,9.0001 L9,9.0001 L9,3.0001 L4,3.0001 Z M11,2.6001 L11,7.0001 L15.4,7.0001 L11,2.6001 Z M18.8965,10.9141 L21.0005,13.0171 L12.0175,22.0001 L7.0005,16.9831 L9.1035,14.8801 L12.0175,17.7941 L18.8965,10.9141 Z"/></svg>
