<svg xmlns="http://www.w3.org/2000/svg" xlink="http://www.w3.org/1999/xlink" width="16" height="16" viewBox="0 0 16 16"><path d="M2,12.0001 L2.5,12.0001 L4.5,14.0001 L2,14.0001 C0.897,14.0001 0,13.1031 0,12.0001 L0,2.0001 C0,0.8971 0.897,0.0001 2,0.0001 L7,0.0001 C7.266,0.0001 7.52,0.1051 7.707,0.2931 L11.707,4.2931 C11.895,4.4801 12,4.7351 12,5.0001 L12,6.5001 L10,8.5001 L10.004,7.0001 L5,7.0001 L5,2.0001 L2,2.0001 L2,12.0001 Z M7,2.4141 L7,5.0001 L9.586,5.0001 L7,2.4141 Z M8.9676,12.3883 L14.1936,7.1623 L16.0006,8.9673 L8.9676,16.0003 L5.0006,12.0323 L6.8056,10.2263 L8.9676,12.3883 Z"/></svg>
