<svg xmlns="http://www.w3.org/2000/svg" xlink="http://www.w3.org/1999/xlink" width="22" height="22" viewBox="0 0 22 22"><path d="M20.7849,7.0134 C21.0129,7.5934 21.0819,8.2544 20.8829,8.9534 C20.5189,10.2234 19.3109,11.1434 18.0039,11.1334 C17.0569,11.1254 16.1549,10.7474 15.6309,10.0194 C15.0859,10.6944 14.2699,11.1334 13.3439,11.1334 C12.3849,11.1334 11.5429,10.6664 10.9999,9.9524 C10.4569,10.6664 9.6149,11.1334 8.6559,11.1334 C7.7309,11.1334 6.9119,10.6944 6.3689,10.0194 C5.8459,10.7474 4.9429,11.1254 3.9949,11.1334 C2.6899,11.1434 1.4819,10.2234 1.1169,8.9534 C0.9179,8.2544 0.9869,7.5934 1.2149,7.0134 L3.0359,2.2204 C3.3159,1.4854 4.0119,1.0004 4.7909,1.0004 L17.2089,1.0004 C17.9879,1.0004 18.6839,1.4854 18.9629,2.2204 L20.7849,7.0134 Z M19.5879,8.8244 C19.7929,8.3994 19.8019,7.9344 19.6239,7.4834 L17.9499,3.0814 C17.7649,2.5904 17.3009,2.2664 16.7809,2.2664 L15.0449,2.2664 C15.4849,4.3444 16.2379,7.9034 16.4529,8.8504 C16.5879,9.4514 17.1019,9.7424 17.6369,9.8334 C18.4509,9.9724 19.2239,9.5774 19.5879,8.8244 Z M10.3749,8.1254 L10.3749,2.2664 L8.7769,2.2664 L7.0549,7.5214 C6.9739,7.7584 6.9379,7.9474 6.9379,8.1254 C6.9379,9.0854 7.7089,9.8664 8.6559,9.8664 C9.6039,9.8664 10.3749,9.0854 10.3749,8.1254 Z M13.7754,13.7092 C13.5754,13.9102 13.4234,14.1512 13.3324,14.4162 C13.2014,14.7942 13.2014,15.2032 13.3334,15.5812 L13.3304,15.5832 L13.3304,15.5862 C13.3394,15.6132 13.3494,15.6402 13.3594,15.6662 C13.4954,16.0032 13.7284,16.2952 14.0294,16.5052 C14.2344,16.6472 14.4664,16.7442 14.7114,16.7942 C14.9524,16.8402 15.2004,16.8412 15.4414,16.7972 C15.6824,16.7592 15.9124,16.6702 16.1174,16.5392 C16.1184,16.5392 16.1184,16.5462 16.1184,16.5462 C16.4374,16.3342 16.6574,16.0052 16.7284,15.6332 L15.0604,15.6332 C15.0624,15.2382 15.0624,14.8082 15.0624,14.4122 L17.9414,14.4122 C17.9634,14.5572 17.9794,14.6692 17.9884,14.7922 C18.0224,15.2072 17.9804,15.6242 17.8644,16.0242 C17.7244,16.4972 17.4604,16.9422 17.0894,17.2762 C16.7344,17.5922 16.3024,17.8122 15.8364,17.9152 C15.3224,18.0292 14.7794,18.0322 14.2694,17.8982 C12.7094,17.4882 11.7424,15.9592 12.0604,14.4062 C12.1144,14.1442 12.2044,13.8902 12.3274,13.6512 C12.6754,12.9772 13.2694,12.4552 13.9924,12.1882 C14.0144,12.1802 14.0384,12.1722 14.0614,12.1642 C14.7304,11.9392 15.4584,11.9452 16.1234,12.1822 C16.4884,12.3162 16.8244,12.5202 17.1094,12.7802 C17.0134,12.8822 16.9104,12.9782 16.8104,13.0752 L16.2484,13.6272 C16.0624,13.4512 15.8364,13.3212 15.5874,13.2462 C14.9434,13.0562 14.2434,13.2342 13.7754,13.7092 Z M19,17.9914 L19,12.0004 L20,12.0004 L20,17.9964 C20,19.1024 19.103,20.0004 17.996,20.0004 L4.004,20.0004 C2.897,20.0004 2,19.1024 2,17.9964 L2,12.0004 L3,12.0004 L3,17.9914 C3,18.5484 3.451,19.0004 4.01,19.0004 L17.99,19.0004 C18.549,19.0004 19,18.5484 19,17.9914 Z"/></svg>
