<svg xmlns="http://www.w3.org/2000/svg" xlink="http://www.w3.org/1999/xlink" width="16" height="16" viewBox="0 0 16 16"><path d="M15.8278,4.7478 C16.0098,5.2048 16.0648,5.7268 15.9058,6.2798 C15.6148,7.2818 14.6478,8.0078 13.6028,7.9998 C12.8458,7.9938 12.1248,7.6958 11.7048,7.1208 C11.2688,7.6548 10.6158,7.9998 9.8748,7.9998 C9.1078,7.9998 8.4338,7.6308 7.9998,7.0688 C7.5658,7.6308 6.8918,7.9998 6.1248,7.9998 C5.3848,7.9998 4.7298,7.6548 4.2948,7.1208 C3.8768,7.6958 3.1548,7.9938 2.3958,7.9998 C1.3508,8.0078 0.3848,7.2818 0.0938,6.2798 C-0.0662,5.7268 -0.0102,5.2048 0.1718,4.7478 L1.6288,0.9638 C1.8518,0.3828 2.4098,-0.0002 3.0328,-0.0002 L12.9668,-0.0002 C13.5898,-0.0002 14.1468,0.3828 14.3708,0.9638 L15.8278,4.7478 Z M14.8708,6.1768 C15.0348,5.8418 15.0408,5.4748 14.8988,5.1188 L13.5598,1.6428 C13.4118,1.2548 13.0408,0.9998 12.6248,0.9998 L11.2358,0.9998 C11.5878,2.6398 12.1908,5.4498 12.3618,6.1978 C12.4708,6.6718 12.8808,6.9028 13.3088,6.9738 C13.9608,7.0838 14.5788,6.7718 14.8708,6.1768 Z M7.4998,5.6248 L7.4998,0.9998 L6.2228,0.9998 L4.8438,5.1498 C4.7788,5.3348 4.7498,5.4858 4.7498,5.6248 C4.7498,6.3828 5.3668,6.9998 6.1248,6.9998 C6.8828,6.9998 7.4998,6.3828 7.4998,5.6248 Z M7.9997,14 L7.9997,15 L2.9997,15 C1.8957,15 0.9997,14.104 0.9997,13 L0.9997,9 L1.9997,9 L1.9997,13 C1.9997,13.552 2.4477,14 2.9997,14 L7.9997,14 Z M11.9997,12.5 L11.9997,11.5 L14.9997,11.5 L14.9997,12 C14.9997,13.654 13.6537,15 11.9997,15 C10.3457,15 8.9997,13.654 8.9997,12 C8.9997,10.346 10.3457,9 11.9997,9 C12.5267,9 13.0467,9.139 13.5007,9.402 L12.9987,10.268 C12.6967,10.093 12.3517,10 11.9997,10 C10.8967,10 9.9997,10.897 9.9997,12 C9.9997,13.103 10.8967,14 11.9997,14 C12.9307,14 13.7137,13.361 13.9367,12.5 L11.9997,12.5 Z"/></svg>
