<svg xmlns="http://www.w3.org/2000/svg" xlink="http://www.w3.org/1999/xlink" width="12" height="12" viewBox="0 0 12 12"><path d="M11.871,3.561 C12.007,3.904 12.049,4.295 11.929,4.709 C11.712,5.462 10.986,6.006 10.203,6 C9.633,5.996 9.093,5.771 8.779,5.341 C8.452,5.74 7.962,6 7.407,6 C6.831,6 6.326,5.723 6.001,5.301 C5.674,5.723 5.17,6 4.594,6 C4.038,6 3.548,5.74 3.221,5.341 C2.907,5.771 2.366,5.996 1.798,6 C1.013,6.006 0.289,5.462 0.07,4.709 C-0.049,4.295 -0.007,3.904 0.129,3.561 L1.221,0.723 C1.389,0.287 1.807,0 2.275,0 L9.725,0 C10.193,0 10.611,0.287 10.778,0.723 L11.871,3.561 Z M11.153,4.633 C11.276,4.382 11.281,4.106 11.174,3.839 L10.171,1.232 C10.059,0.941 9.78,0.75 9.469,0.75 L8.427,0.75 C8.691,1.98 9.143,4.088 9.272,4.649 C9.352,5.004 9.661,5.176 9.982,5.231 C10.471,5.313 10.934,5.079 11.153,4.633 Z M5.626,4.219 L5.626,0.75 L4.667,0.75 L3.633,3.862 C3.585,4.001 3.563,4.114 3.563,4.219 C3.563,4.787 4.025,5.25 4.594,5.25 C5.163,5.25 5.626,4.787 5.626,4.219 Z M2.6442,11.0002 L4.9992,11.0002 L5.9992,12.0002 L2.4982,12.0002 C1.6702,12.0002 0.9992,11.3292 0.9992,10.5012 L0.9992,7.0002 L1.9992,7.0002 L1.9992,10.3552 C1.9992,10.7112 2.2892,11.0002 2.6442,11.0002 Z M8.4997,12.0002 C7.1207,12.0002 5.9997,10.8782 5.9997,9.5002 C5.9997,8.1222 7.1207,7.0002 8.4997,7.0002 C9.0437,7.0002 9.5607,7.1712 9.9947,7.4962 L9.3957,8.2972 C9.1357,8.1032 8.8257,8.0002 8.4997,8.0002 C7.6727,8.0002 6.9997,8.6732 6.9997,9.5002 C6.9997,10.3272 7.6727,11.0002 8.4997,11.0002 C9.1517,11.0002 9.7077,10.5822 9.9137,10.0002 L8.4997,10.0002 L8.4997,9.0002 L10.9997,9.0002 L10.9997,9.5002 C10.9997,10.8782 9.8787,12.0002 8.4997,12.0002 Z"/></svg>
