<svg xmlns="http://www.w3.org/2000/svg" xlink="http://www.w3.org/1999/xlink" width="22" height="22" viewBox="0 0 22 22"><path d="M17.801,2.587 L21,11.813 L21,18.667 C21,19.403 20.402,20 19.666,20 L1.334,20 C0.598,20 0,19.403 0,18.667 L0,11.813 L3.199,2.587 C3.574,1.623 4.484,1 5.519,1 L15.481,1 C16.516,1 17.426,1.623 17.801,2.587 Z M14,13.125 C14,12.504 14.504,12 15.125,12 L18.928,12 L15.937,3.312 C15.864,3.124 15.684,3 15.481,3 L5.519,3 C5.316,3 5.136,3.124 5.062,3.312 L2.072,12 L5.875,12 C6.496,12 7,12.504 7,13.125 L7,14.656 C7,15.398 7.602,16 8.344,16 L12.656,16 C13.398,16 14,15.398 14,14.656 L14,13.125 Z"/></svg>
