<svg xmlns="http://www.w3.org/2000/svg" xlink="http://www.w3.org/1999/xlink" width="16" height="16" viewBox="0 0 16 16"><path d="M13.3694,1.982 L16.0004,9 L16.0004,13.75 C16.0004,14.44 15.4404,15 14.7504,15 L1.2504,15 C0.5594,15 0.0004,14.44 0.0004,13.75 L0.0004,9 L2.6314,1.982 C2.8534,1.392 3.4184,1 4.0484,1 L11.9514,1 C12.5824,1 13.1464,1.392 13.3694,1.982 Z M3.5684,2.334 L1.0684,9 L4.5004,9 C4.7764,9 5.0004,9.224 5.0004,9.5 L5.0004,11.5 C5.0004,11.776 5.2234,12 5.5004,12 L10.5004,12 C10.7764,12 11.0004,11.776 11.0004,11.5 L11.0004,9.5 C11.0004,9.224 11.2234,9 11.5004,9 L14.9314,9 L12.4314,2.334 C12.3564,2.133 12.1654,2 11.9514,2 L4.0494,2 C3.8354,2 3.6434,2.133 3.5684,2.334 Z"/></svg>
