<svg xmlns="http://www.w3.org/2000/svg" width="24" height="24" fill="none" viewBox="0 0 24 24">
  <path fill="#0081FB" d="M2.592 14.562c0 .919.202 1.626.465 2.053.344.559.858.796 1.382.796.676 0 1.294-.168 2.486-1.823.955-1.326 2.08-3.186 2.837-4.354l1.282-1.977c.89-1.373 1.92-2.899 3.103-3.933.964-.844 2.005-1.314 3.053-1.314 1.758 0 3.434 1.023 4.716 2.94C23.319 9.053 24 11.699 24 14.429c0 1.624-.32 2.817-.861 3.759-.524.911-1.546 1.822-3.265 1.822V17.41c1.472 0 1.839-1.357 1.839-2.91 0-2.212-.515-4.668-1.647-6.423-.803-1.245-1.845-2.006-2.991-2.006-1.24 0-2.237.938-3.358 2.611-.596.888-1.208 1.972-1.894 3.194l-.756 1.345c-1.52 2.703-1.904 3.318-2.663 4.334-1.33 1.779-2.468 2.454-3.964 2.454-1.775 0-2.897-.771-3.593-1.934C.28 17.128 0 15.885 0 14.468l2.592.094Z"/>
  <path fill="url(#a)" d="M2 7.134C3.189 5.296 4.904 4.01 6.871 4.01c1.14 0 2.272.34 3.454 1.308 1.294 1.06 2.672 2.804 4.393 5.68l.617 1.032c1.49 2.49 2.336 3.77 2.831 4.375.638.775 1.084 1.006 1.665 1.006 1.471 0 1.838-1.357 1.838-2.91l2.286-.072c0 1.624-.319 2.816-.861 3.759-.524.911-1.546 1.822-3.264 1.822-1.068 0-2.015-.233-3.061-1.224-.805-.76-1.745-2.111-2.469-3.326l-2.152-3.609c-1.08-1.811-2.07-3.161-2.644-3.773-.617-.657-1.41-1.45-2.675-1.45-1.024 0-1.894.72-2.622 1.824L2 7.134Z"/>
  <path fill="url(#b)" d="M6.873 6.626c-1.024 0-1.894.721-2.622 1.825-1.03 1.559-1.659 3.88-1.659 6.11 0 .92.202 1.627.465 2.054l-2.21 1.46C.279 17.129 0 15.886 0 14.469c0-2.575.704-5.26 2.044-7.334C3.232 5.296 4.948 4.01 6.914 4.01l-.041 2.616Z"/>
  <defs>
    <linearGradient id="a" x1="5.159" x2="21.683" y1="11.595" y2="12.426" gradientUnits="userSpaceOnUse">
      <stop stop-color="#0064E1"/>
      <stop offset=".4" stop-color="#0064E1"/>
      <stop offset=".83" stop-color="#0073EE"/>
      <stop offset="1" stop-color="#0082FB"/>
    </linearGradient>
    <linearGradient id="b" x1="3.457" x2="3.457" y1="15.653" y2="9.539" gradientUnits="userSpaceOnUse">
      <stop stop-color="#0082FB"/>
      <stop offset="1" stop-color="#0064E0"/>
    </linearGradient>
  </defs>
</svg>
