<svg xmlns="http://www.w3.org/2000/svg" width="16" height="16" fill="none" viewBox="0 0 16 16">
  <g clip-path="url(#a)">
    <path fill="#0081FB" d="M1.728 10.264c0 .632.135 1.118.31 1.412.23.384.572.547.922.547.45 0 .862-.116 1.657-1.253.636-.912 1.387-2.19 1.891-2.993l.855-1.36c.593-.943 1.28-1.993 2.068-2.704.643-.58 1.337-.903 2.036-.903 1.172 0 2.289.703 3.143 2.022.936 1.444 1.39 3.263 1.39 5.14 0 1.117-.213 1.937-.574 2.585-.35.626-1.03 1.252-2.176 1.252v-1.786c.98 0 1.225-.933 1.225-2 0-1.522-.343-3.21-1.098-4.417-.535-.856-1.23-1.379-1.994-1.379-.826 0-1.49.645-2.238 1.795-.397.61-.805 1.356-1.263 2.196l-.504.924c-1.013 1.859-1.27 2.281-1.775 2.98-.888 1.223-1.645 1.687-2.643 1.687-1.183 0-1.931-.53-2.395-1.33C.185 12.03 0 11.175 0 10.2l1.728.065Z"/>
    <path fill="url(#b)" d="M1.363 5.159C2.155 3.895 3.298 3.01 4.61 3.01c.76 0 1.514.233 2.303.899.862.728 1.781 1.927 2.928 3.905l.412.71c.992 1.711 1.557 2.591 1.887 3.007.425.533.723.692 1.11.692.98 0 1.225-.933 1.225-2l1.524-.05c0 1.116-.212 1.936-.574 2.584-.35.626-1.03 1.252-2.176 1.252-.712 0-1.343-.16-2.04-.841-.537-.523-1.164-1.452-1.646-2.287l-1.435-2.48c-.72-1.246-1.38-2.174-1.763-2.594-.411-.452-.94-.998-1.783-.998-.683 0-1.263.495-1.748 1.254L1.363 5.16Z"/>
    <path fill="url(#c)" d="M4.582 4.809c-.683 0-1.263.495-1.748 1.254-.686 1.072-1.106 2.668-1.106 4.201 0 .632.135 1.118.31 1.412L.564 12.68C.186 12.03 0 11.174 0 10.2c0-1.77.47-3.616 1.363-5.042C2.155 3.894 3.298 3.01 4.61 3.01L4.582 4.81Z"/>
  </g>
  <defs>
    <linearGradient id="b" x1="3.468" x2="14.486" y1="8.225" y2="8.762" gradientUnits="userSpaceOnUse">
      <stop stop-color="#0064E1"/>
      <stop offset=".4" stop-color="#0064E1"/>
      <stop offset=".83" stop-color="#0073EE"/>
      <stop offset="1" stop-color="#0082FB"/>
    </linearGradient>
    <linearGradient id="c" x1="2.305" x2="2.305" y1="11.015" y2="6.811" gradientUnits="userSpaceOnUse">
      <stop stop-color="#0082FB"/>
      <stop offset="1" stop-color="#0064E0"/>
    </linearGradient>
    <clipPath id="a">
      <path fill="#fff" d="M0 3.01h16v11H0z"/>
    </clipPath>
  </defs>
</svg>
