<svg xmlns="http://www.w3.org/2000/svg" xlink="http://www.w3.org/1999/xlink" width="22" height="22" viewBox="0 0 22 22"><path d="M8,9 C8,6.791 10.91,5 14.5,5 C18.09,5 21,6.791 21,9 C21,11.209 18.09,12.75 14.5,12.75 C10.91,12.75 8,11.209 8,9 Z M20.6748,15.7725 C20.8548,15.7725 20.9998,15.9195 20.9998,16.1025 L20.9998,17.0005 C20.9998,19.2095 18.0898,21.0005 14.4998,21.0005 C10.9098,21.0005 7.9998,19.2095 7.9998,17.0005 L7.9998,16.1025 C7.9998,15.9195 8.1458,15.7725 8.3248,15.7725 C8.4278,15.7725 8.5308,15.8325 8.5798,15.8985 C9.5978,17.2905 11.8598,18.2505 14.4998,18.2505 C17.1408,18.2505 19.4028,17.2905 20.4198,15.8985 C20.4688,15.8325 20.5718,15.7725 20.6748,15.7725 Z M20.6748,11.7725 C20.8548,11.7725 20.9998,11.9195 20.9998,12.1025 L20.9998,12.3755 L20.9998,12.7505 C20.9998,14.9595 18.0898,16.7505 14.4998,16.7505 C10.9098,16.7505 7.9998,14.9595 7.9998,12.7505 L7.9998,12.3755 L7.9998,12.1025 C7.9998,11.9195 8.1458,11.7725 8.3248,11.7725 C8.4278,11.7725 8.5308,11.8325 8.5798,11.8985 C8.5878,11.9095 8.5988,11.9185 8.6078,11.9295 C8.7148,12.0725 8.8358,12.2105 8.9688,12.3435 C8.9788,12.3535 8.9868,12.3655 8.9958,12.3755 L8.9998,12.3755 C10.1508,13.5005 12.1808,14.2505 14.4998,14.2505 C16.8198,14.2505 18.8498,13.5005 19.9998,12.3755 L20.0038,12.3755 C20.0138,12.3655 20.0218,12.3535 20.0308,12.3435 C20.1638,12.2105 20.2848,12.0725 20.3928,11.9295 C20.4018,11.9185 20.4118,11.9095 20.4198,11.8985 C20.4688,11.8325 20.5718,11.7725 20.6748,11.7725 Z M14.9473,3.5146 C14.7993,3.5096 14.6513,3.4996 14.5003,3.4996 C10.7113,3.4996 7.6253,5.2256 6.7543,7.6186 C4.0133,7.2076 2.0003,5.8356 2.0003,3.9996 C2.0003,1.7906 4.9103,-0.0004 8.5003,-0.0004 C11.8223,-0.0004 14.5583,1.5356 14.9473,3.5146 Z M2.9961,7.375 L3.0001,7.375 C3.8031,8.16 5.0411,8.756 6.5001,9.048 L6.5001,11.555 C3.8901,11.035 2.0001,9.529 2.0001,7.75 L2.0001,7.375 L2.0001,7.103 C2.0001,6.92 2.1451,6.772 2.3251,6.772 C2.4281,6.772 2.5311,6.832 2.5801,6.898 C2.5881,6.909 2.5991,6.919 2.6071,6.93 C2.7151,7.072 2.8361,7.211 2.9691,7.344 C2.9781,7.354 2.9861,7.365 2.9961,7.375 Z M2.5801,10.8984 C3.3281,11.9204 4.7511,12.7074 6.5001,13.0534 L6.5001,15.8044 C3.8901,15.2854 2.0001,13.7794 2.0001,12.0004 L2.0001,11.1024 C2.0001,10.9194 2.1451,10.7724 2.3251,10.7724 C2.4281,10.7724 2.5311,10.8324 2.5801,10.8984 Z"/></svg>
