<svg xmlns="http://www.w3.org/2000/svg" xlink="http://www.w3.org/1999/xlink" width="16" height="16" viewBox="0 0 16 16"><path d="M10,3 C7.183,3 4.883,4.234 4.207,5.952 C1.825,5.723 0,4.494 0,3 C0,1.343 2.238,0 5,0 C7.762,0 10,1.343 10,3 Z M0.2754,4.9839 C0.8504,5.9719 2.2654,6.7209 4.0044,6.9339 C4.0044,6.9559 4.0004,6.9779 4.0004,6.9999 L4.0004,8.9399 C1.7174,8.6619 0.0004,7.4519 0.0004,5.9999 L0.0004,5.0489 C0.0004,4.9679 0.0664,4.9019 0.1464,4.9019 C0.2034,4.9019 0.2384,4.9219 0.2754,4.9839 Z M0.2754,7.9839 C0.8494,8.9709 2.2624,9.7199 4.0004,9.9329 L4.0004,11.9399 C1.7174,11.6619 0.0004,10.4519 0.0004,8.9999 L0.0004,8.0489 C0.0004,7.9679 0.0664,7.9019 0.1464,7.9019 C0.2034,7.9019 0.2384,7.9219 0.2754,7.9839 Z M5,7 C5,5.343 7.238,4 10,4 C12.762,4 15,5.343 15,7 C15,8.657 12.762,10 10,10 C7.238,10 5,8.657 5,7 Z M14.8535,8.9019 C14.9335,8.9019 14.9995,8.9679 14.9995,9.0489 L14.9995,9.9999 C14.9995,11.6569 12.7615,12.9999 9.9995,12.9999 C7.2385,12.9999 4.9995,11.6569 4.9995,9.9999 L4.9995,9.0489 C4.9995,8.9679 5.0665,8.9019 5.1465,8.9019 C5.2035,8.9019 5.2385,8.9219 5.2755,8.9839 C5.9575,10.1559 7.8125,10.9999 9.9995,10.9999 C12.1875,10.9999 14.0425,10.1559 14.7245,8.9839 C14.7615,8.9219 14.7965,8.9019 14.8535,8.9019 Z M14.8535,11.9019 C14.9335,11.9019 14.9995,11.9679 14.9995,12.0489 L14.9995,12.9999 C14.9995,14.6569 12.7615,15.9999 9.9995,15.9999 C7.2385,15.9999 4.9995,14.6569 4.9995,12.9999 L4.9995,12.0489 C4.9995,11.9679 5.0665,11.9019 5.1465,11.9019 C5.2035,11.9019 5.2385,11.9219 5.2755,11.9839 C5.9575,13.1559 7.8125,13.9999 9.9995,13.9999 C12.1875,13.9999 14.0425,13.1559 14.7245,11.9839 C14.7615,11.9219 14.7965,11.9019 14.8535,11.9019 Z"/></svg>
