<svg xmlns="http://www.w3.org/2000/svg" xlink="http://www.w3.org/1999/xlink" width="12" height="12" viewBox="0 0 12 12"><path d="M7,2 C7,2.011 6.994,2.021 6.994,2.032 C5.211,2.155 3.811,2.91 3.264,3.986 C1.443,3.916 0,3.058 0,2 C0,0.896 1.566,0 3.5,0 C5.434,0 7,0.896 7,2 Z M0.2012,3.7998 C0.2572,3.7998 0.3072,3.8188 0.3442,3.8618 C0.8402,4.4528 1.8262,4.8828 3.0032,4.9798 C3.0032,4.9868 3.0002,4.9928 3.0002,4.9998 L3.0002,6.4708 C1.3062,6.3318 0.0002,5.5068 0.0002,4.4998 L0.0002,3.9998 C0.0002,3.8898 0.0902,3.7998 0.2012,3.7998 Z M0.2012,6.2998 C0.2572,6.2998 0.3072,6.3188 0.3442,6.3618 C0.8402,6.9518 1.8252,7.3828 3.0002,7.4788 L3.0002,8.9708 C1.3062,8.8318 0.0002,8.0068 0.0002,6.9998 L0.0002,6.4998 C0.0002,6.3898 0.0902,6.2998 0.2012,6.2998 Z M7.5,7 C5.566,7 4,6.104 4,5 C4,3.896 5.566,3 7.5,3 C9.434,3 11,3.896 11,5 C11,6.104 9.434,7 7.5,7 Z M10.7998,9.2998 C10.9098,9.2998 10.9998,9.3898 10.9998,9.4998 L10.9998,9.9998 C10.9998,11.1048 9.4338,11.9998 7.4998,11.9998 C5.5678,11.9998 3.9998,11.1048 3.9998,9.9998 L3.9998,9.4998 C3.9998,9.3898 4.0898,9.2998 4.2008,9.2998 C4.2568,9.2998 4.3078,9.3188 4.3438,9.3618 C4.9078,10.0338 6.1088,10.4998 7.4998,10.4998 C8.8928,10.4998 10.0918,10.0338 10.6568,9.3618 C10.6938,9.3188 10.7438,9.2998 10.7998,9.2998 Z M10.7998,6.7998 C10.9098,6.7998 10.9998,6.8898 10.9998,6.9998 L10.9998,7.4998 C10.9998,8.6048 9.4338,9.4998 7.4998,9.4998 C5.5678,9.4998 3.9998,8.6048 3.9998,7.4998 L3.9998,6.9998 C3.9998,6.8898 4.0898,6.7998 4.2008,6.7998 C4.2568,6.7998 4.3078,6.8188 4.3438,6.8618 C4.9078,7.5338 6.1088,7.9998 7.4998,7.9998 C8.8928,7.9998 10.0918,7.5338 10.6568,6.8618 C10.6938,6.8188 10.7438,6.7998 10.7998,6.7998 Z"/></svg>
