<svg xmlns="http://www.w3.org/2000/svg" width="22" height="22" viewBox="0 0 22 22"><path fill="#508FF5" fill-rule="evenodd" d="M16.328 21H5.672A1.673 1.673 0 014 19.328V2.672C4 1.749 4.749 1 5.672 1H12l2 4 4 2v12.328c0 .923-.749 1.672-1.672 1.672"/><path fill="#FFF" fill-rule="evenodd" d="M7 17h5v-1H7v1zm0-2h8v-1H7v1zm0-2h8v-1H7v1zm0-2h8v-1H7v1z"/><path fill="#A1C2FA" fill-rule="evenodd" d="M13.499 7h4.5l-6-6v4.501A1.501 1.501 0 0013.5 7"/><path fill="#3F7EEC" fill-rule="evenodd" d="M13 7h5v5z"/></svg>