<svg width="24" height="24" viewBox="0 0 24 24" xmlns="http://www.w3.org/2000/svg"><g clip-path="url(#a)"><path d="M13.69 2.018a1 1 0 0 1 .792 1.173l-3.5 18a1 1 0 1 1-1.964-.382l3.5-18a1 1 0 0 1 1.173-.79Zm3.603 4.275a1 1 0 0 1 1.414 0l5 5a1 1 0 0 1 0 1.414l-5 5a1 1 0 1 1-1.414-1.414L21.586 12l-4.293-4.293a1 1 0 0 1 0-1.414ZM6.707 7.707a1 1 0 0 0-1.414-1.414l-5 5a1 1 0 0 0 0 1.414l5 5a1 1 0 1 0 1.414-1.414L2.414 12l4.293-4.293Z"/></g><defs><clipPath id="a"><path fill="#fff" d="M0 0h24v24H0z"/></clipPath></defs></svg>