<svg xmlns="http://www.w3.org/2000/svg" xlink="http://www.w3.org/1999/xlink" width="22" height="22" viewBox="0 0 22 22"><path d="M18.5,0.9998 C19.879,0.9998 21,2.1208 21,3.4998 L21,18.4998 C21,19.8788 19.879,20.9998 18.5,20.9998 L3.5,20.9998 C2.121,20.9998 1,19.8788 1,18.4998 L1,3.4998 C1,2.1208 2.121,0.9998 3.5,0.9998 L18.5,0.9998 Z M18,5.2998 C18.718,5.2998 19.3,4.7178 19.3,3.9998 C19.3,3.2818 18.718,2.6998 18,2.6998 C17.282,2.6998 16.7,3.2818 16.7,3.9998 C16.7,4.7178 17.282,5.2998 18,5.2998 Z M3,4.9998 L16,4.9998 L16,2.9998 L3,2.9998 L3,4.9998 Z M19,18.4998 L19,6.9998 L3,6.9998 L3,18.4998 C3,18.7758 3.225,18.9998 3.5,18.9998 L18.5,18.9998 C18.775,18.9998 19,18.7758 19,18.4998 Z M5,17 L5,15.999 L10,15.999 L10,17 L5,17 Z M5,10 L5,9 L14,9 L14,10 L5,10 Z M5,12 L5,11 L10,11 L10,12 L5,12 Z M5,15 L5,14 L14,14 L14,15 L5,15 Z"/></svg>
