<svg xmlns="http://www.w3.org/2000/svg" xlink="http://www.w3.org/1999/xlink" width="16" height="16" viewBox="0 0 16 16"><path d="M14.5,0 C15.328,0 16,0.672 16,1.5 L16,14.5 C16,15.328 15.328,16 14.5,16 L1.5,16 C0.672,16 0,15.328 0,14.5 L0,1.5 C0,0.672 0.672,0 1.5,0 L14.5,0 Z M15,14.5 L15,3 L1,3 L1,14.5 C1,14.775 1.225,15 1.5,15 L14.5,15 C14.775,15 15,14.775 15,14.5 Z M3,6 L3,5 L11,5 L11,6 L3,6 Z M3,8 L3,7 L7.001,7 L7.001,8 L3,8 Z M3,11 L3,10 L11,10 L11,11 L3,11 Z M3,13 L3,12 L7.001,12 L7.001,13 L3,13 Z M14.5,2.125 C14.846,2.125 15.125,1.845 15.125,1.5 C15.125,1.154 14.846,0.875 14.5,0.875 C14.154,0.875 13.875,1.154 13.875,1.5 C13.875,1.845 14.154,2.125 14.5,2.125 Z M1,2 L11,2 L11,1 L1,1 L1,2 Z M12.5,0.875 C12.154,0.875 11.875,1.154 11.875,1.5 C11.875,1.845 12.154,2.125 12.5,2.125 C12.846,2.125 13.125,1.845 13.125,1.5 C13.125,1.154 12.846,0.875 12.5,0.875 Z"/></svg>
