<svg xmlns="http://www.w3.org/2000/svg" xlink="http://www.w3.org/1999/xlink" width="12" height="12" viewBox="0 0 12 12"><path d="M10.5,1 C11.328,1 12,1.672 12,2.5 L12,10.5 C12,11.328 11.328,12 10.5,12 L1.5,12 C0.672,12 0,11.328 0,10.5 L0,2.5 C0,1.672 0.672,1 1.5,1 L10.5,1 Z M10.5,3.25 C10.914,3.25 11.25,2.914 11.25,2.5 C11.25,2.086 10.914,1.75 10.5,1.75 C10.086,1.75 9.75,2.086 9.75,2.5 C9.75,2.914 10.086,3.25 10.5,3.25 Z M11,10.5 L11,4 L1,4 L1,10.5 C1,10.775 1.225,11 1.5,11 L10.5,11 C10.775,11 11,10.775 11,10.5 Z M1,3 L9,3 L9,2 L1,2 L1,3 Z M3,6 L3,5 L9,5 L9,6 L3,6 Z M3,8 L3,7 L6,7 L6,8 L3,8 Z M3,10 L3,9 L9,9 L9,10 L3,10 Z"/></svg>
