<svg width="24" height="24" viewBox="0 0 24 24" xmlns="http://www.w3.org/2000/svg">
  <path d="M21.55 2h-5.1a1.45 1.45 0 0 0-1.02.43L13 5l-9.57 9.43A1.45 1.45 0 0 0 3 15.46v5.09A1.46 1.46 0 0 0 4.45 22h5.1a1.45 1.45 0 0 0 1.02-.43l12-12c.28-.27.43-.64.43-1.03V3.45A1.45 1.45 0 0 0 21.55 2Z" fill="#28A8EA"/>
  <path d="M4.46 2h5.1c.4 0 .76.15 1.04.43L13 5l.04 4.4a2.6 2.6 0 0 1-.77 1.84 2.61 2.61 0 0 1-1.84.76H5.87L3.43 9.57A1.45 1.45 0 0 1 3 8.54V3.45c0-.38.15-.75.43-1.02A1.46 1.46 0 0 1 4.46 2Z" fill="#50D9FF"/>
  <path opacity=".4" d="M3 6h7a2 2 0 0 1 2 2v8a2 2 0 0 1-2 2H3V6Z"/>
  <path d="M1 6a1 1 0 0 0-1 1v9a1 1 0 0 0 1 1h9a1 1 0 0 0 1-1V7a1 1 0 0 0-1-1H1Zm15.46 16h5.09A1.45 1.45 0 0 0 23 20.55v-5.09c0-.39-.15-.76-.43-1.03L20.14 12H15.6a2.6 2.6 0 0 0-2.6 2.6v4.54l2.43 2.43c.27.28.64.43 1.03.43Z" fill="#0078D4"/>
  <path d="M4 9v5h3v-1H5v-1h2v-1H5v-1h2V9H4Z" fill="#fff"/>
</svg>
