<svg width="24" height="24" xmlns="http://www.w3.org/2000/svg">
  <path d="m14 7-9 5v6h18v-6l-9-5Z" fill="#0A2767"/>
  <rect x="7" y="1" width="15" height="16" rx="1" fill="#0364B8"/>
  <path d="M17 4h-5v5h5v5h5V9h-5V4Z" fill="#28A8EA"/>
  <path fill="#50D9FF" d="M17 4h5v5h-5z"/>
  <path d="M7 4h5v5H7V4Zm10 10V9h-5v5h5Zm0 0v5h5v-5h-5Z" fill="#0078D4"/>
  <path opacity=".4" d="m20.25 19.48 2.73 1.5A1.25 1.25 0 0 1 21.75 22H6.23A1.25 1.25 0 0 1 5 20.99l2.72-1.51L5 17v-5l.9-.5 8.09 4.5 8.09-4.5.9.5v5l-2.73 2.48Z" fill="#0A2767"/>
  <path d="M5.48 21.73 23 12v8.75c0 .69-.56 1.25-1.25 1.25H6.25c-.29 0-.56-.1-.77-.27Z" fill="#1490DF"/>
  <path opacity=".2" d="M12 22h9.75a1.25 1.25 0 0 0 1.23-1.01L14.9 16.5 12 18v4Z" fill="#0A2767"/>
  <path d="M22.52 21.73 5 12v8.75c0 .69.56 1.25 1.25 1.25h15.5c.29 0 .56-.1.77-.27Z" fill="#28A8EA"/>
  <path opacity=".4" d="M5 5h6a2 2 0 0 1 2 2v9a2 2 0 0 1-2 2H5V5Z"/>
  <path d="M1.09 5A1.09 1.09 0 0 0 0 6.09v9.82C0 16.51.49 17 1.09 17h9.82A1.09 1.09 0 0 0 12 15.91V6.09A1.09 1.09 0 0 0 10.91 5H1.09Z" fill="#0078D4"/>
  <path d="M3.18 9.3A2.82 2.82 0 0 1 4.3 8.1a3.44 3.44 0 0 1 1.78-.44 3.2 3.2 0 0 1 1.65.42c.47.27.85.67 1.09 1.16.26.53.39 1.11.38 1.7a3.89 3.89 0 0 1-.4 1.79 2.86 2.86 0 0 1-1.12 1.2c-.52.3-1.1.44-1.7.42a3.27 3.27 0 0 1-1.69-.42 2.84 2.84 0 0 1-1.1-1.16 3.6 3.6 0 0 1-.39-1.68 4 4 0 0 1 .38-1.78Zm1.2 2.85a1.67 1.67 0 0 0 1.61 1.09c.37.02.74-.09 1.05-.3.28-.2.5-.48.61-.8.14-.35.2-.73.2-1.11a3.34 3.34 0 0 0-.19-1.13 1.78 1.78 0 0 0-.59-.83c-.3-.22-.67-.33-1.04-.32a1.72 1.72 0 0 0-1 .3c-.3.2-.52.48-.65.8a3.15 3.15 0 0 0 0 2.3Z" fill="#fff"/>
</svg>
