<svg xmlns="http://www.w3.org/2000/svg" xlink="http://www.w3.org/1999/xlink" width="22" height="22" viewBox="0 0 22 22"><path d="M17.0004,18.1833 C18.1624,18.5973 19.0004,19.6963 19.0004,21.0003 L3.0004,21.0003 C3.0004,19.6963 3.8374,18.5973 5.0004,18.1833 L5.0004,16.0003 C5.0004,15.2393 5.3434,14.2073 5.7994,13.6003 L7.6004,11.1993 C7.6314,11.1583 7.6234,11.0373 7.5864,11.0003 L6.0004,9.4143 C5.4204,8.8353 5.0004,7.8193 5.0004,7.0003 L5.0004,3.8163 C3.8374,3.4033 3.0004,2.3043 3.0004,1.0003 L19.0004,1.0003 C19.0004,2.3043 18.1624,3.4033 17.0004,3.8163 L17.0004,7.0003 C17.0004,7.8193 16.5794,8.8353 16.0004,9.4143 L14.4144,11.0003 C14.3774,11.0373 14.3684,11.1583 14.3994,11.1993 L16.2004,13.6003 C16.6564,14.2073 17.0004,15.2393 17.0004,16.0003 L17.0004,18.1833 Z M7.3994,14.8003 C7.1984,15.0693 7.0004,15.6633 7.0004,16.0003 L7.0004,18.0003 L15.0004,18.0003 L15.0004,16.0003 C15.0004,15.6633 14.8014,15.0693 14.6004,14.8003 L12.7994,12.4003 C12.1714,11.5623 12.2594,10.3263 13.0004,9.5863 L14.5864,8.0003 C14.7874,7.7993 15.0004,7.2843 15.0004,7.0003 L15.0004,4.0003 L7.0004,4.0003 L7.0004,7.0003 C7.0004,7.2843 7.2124,7.7993 7.4144,8.0003 L9.0004,9.5863 C9.7404,10.3263 9.8284,11.5623 9.2004,12.4003 L7.3994,14.8003 Z M11.707,14.7075 L14,16.9995 L8,16.9995 L10.293,14.7075 C10.684,14.3165 11.316,14.3165 11.707,14.7075 Z M11.707,7.2925 C11.316,7.6835 10.684,7.6835 10.293,7.2925 L8,5.0005 L14,5.0005 L11.707,7.2925 Z"/></svg>
