<svg xmlns="http://www.w3.org/2000/svg" xlink="http://www.w3.org/1999/xlink" width="16" height="16" viewBox="0 0 16 16"><path d="M13,14.3 C13.6,14.6 14,15.3 14,16 L2,16 C2,15.3 2.4,14.6 3,14.3 L3,12 C3,11.2 3.4,10.2 4,9.6 L5.6,8 L4,6.4 C3.4,5.8 3,4.8 3,4 L3,1.7 C2.4,1.4 2,0.7 2,0 L14,0 C14,0.7 13.6,1.4 13,1.7 L13,4 C13,4.8 12.6,5.8 12,6.4 L10.4,8 L12,9.6 C12.6,10.2 13,11.2 13,12 L13,14.3 Z M5,14 L11,14 L11,12 C11,11.7 10.8,11.2 10.6,11 L9,9.4 C8.2,8.6 8.2,7.4 9,6.6 L10.6,5 C10.8,4.8 11,4.3 11,4 L11,2 L5,2 L5,4 C5,4.3 5.2,4.8 5.4,5 L7,6.6 C7.8,7.4 7.8,8.6 7,9.4 L5.4,11 C5.2,11.2 5,11.7 5,12 L5,14 Z M10,3 L8,5 L6,3 L10,3 Z M6,13 L8,11 L10,13 L6,13 Z"/></svg>
