<svg xmlns="http://www.w3.org/2000/svg" xlink="http://www.w3.org/1999/xlink" width="12" height="12" viewBox="0 0 12 12"><path d="M10,3 C10,3.819 9.58,4.834 9,5.414 L8.414,6 L9,6.586 C9.58,7.165 10,8.181 10,9 L10,11 L11,11 L11,12 L1,12 L1,11 L2,11 L2,9 C2,8.181 2.42,7.165 3,6.586 L3.586,6 L3,5.414 C2.42,4.834 2,3.819 2,3 L2,1 L1,1 L1,0 L11,0 L11,1 L10,1 L10,3 Z M7.707,6.707 C7.318,6.318 7.318,5.682 7.707,5.293 L8.293,4.707 C8.682,4.318 9,3.55 9,3 L9,1 L3,1 L3,3 C3,3.55 3.318,4.318 3.707,4.707 L4.293,5.293 C4.682,5.682 4.682,6.318 4.293,6.707 L3.707,7.293 C3.318,7.682 3,8.45 3,9 L3,11 L9,11 L9,9 C9,8.45 8.682,7.682 8.293,7.293 L7.707,6.707 Z M4,10 L6,8 L8,10 L4,10 Z M4,2 L8,2 L6,4 L4,2 Z"/></svg>
