<svg xmlns="http://www.w3.org/2000/svg" xlink="http://www.w3.org/1999/xlink" width="22" height="22" viewBox="0 0 22 22"><path d="M16.2681,9.2676 L19.2681,6.2676 C19.7401,5.7946 19.9991,5.1676 19.9991,4.4996 C19.9991,3.8316 19.7421,3.2046 19.2681,2.7326 C18.7951,2.2596 18.1681,1.9996 17.4991,1.9996 C16.8311,1.9996 16.2051,2.2596 15.7341,2.7326 L12.7341,5.7326 C12.3481,6.1176 12.1131,6.6076 12.0371,7.1356 L10.2491,8.9216 C10.0981,8.4676 9.9991,7.9936 9.9991,7.4996 C9.9991,6.2976 10.4681,5.1676 11.3201,4.3186 L14.3201,1.3186 C15.1681,0.4686 16.2981,-0.0004 17.4991,-0.0004 C18.7031,-0.0004 19.8311,0.4686 20.6821,1.3186 C21.5311,2.1676 21.9991,3.2976 21.9991,4.4996 C21.9991,5.7026 21.5311,6.8316 20.6821,7.6816 L17.6821,10.6816 C16.8311,11.5316 15.7031,11.9996 14.4991,11.9996 C14.0071,11.9996 13.5331,11.9026 13.0781,11.7506 L14.8881,9.9416 C15.4021,9.8666 15.8901,9.6466 16.2681,9.2676 Z M9.9653,14.8643 L11.7493,13.0783 C11.9023,13.5323 11.9993,14.0073 11.9993,14.5003 C11.9993,15.7023 11.5303,16.8323 10.6823,17.6813 L7.6823,20.6813 C6.8313,21.5313 5.7023,22.0003 4.4993,22.0003 C3.2983,22.0003 2.1673,21.5323 1.3193,20.6813 C0.4693,19.8323 -0.0007,18.7023 -0.0007,17.5003 C-0.0007,16.2983 0.4683,15.1683 1.3193,14.3183 L4.3193,11.3183 C5.1683,10.4683 6.2983,10.0003 7.4993,10.0003 C7.9933,10.0003 8.4683,10.0973 8.9223,10.2493 L7.1363,12.0353 C6.6083,12.1123 6.1163,12.3463 5.7333,12.7323 L2.7333,15.7323 C2.2603,16.2053 1.9993,16.8323 1.9993,17.5003 C1.9993,18.1683 2.2603,18.7953 2.7343,19.2673 C3.6783,20.2133 5.3233,20.2133 6.2683,19.2673 L9.2683,16.2673 C9.6533,15.8833 9.8883,15.3923 9.9653,14.8643 Z M7,5 L7,-1.62630326e-19 L8,-1.62630326e-19 L8,5 L7,5 Z M0,8 L0,7 L5,7 L5,8 L0,8 Z M5.353,4.6465 L4.646,5.3535 L0.646,1.3535 L1.353,0.6465 L5.353,4.6465 Z M13.777,22 L13.777,17 L14.777,17 L14.777,22 L13.777,22 Z M16.777,15 L16.777,14 L21.777,14 L21.777,15 L16.777,15 Z M16.4233,17.3535 L17.1303,16.6465 L21.1303,20.6465 L20.4233,21.3535 L16.4233,17.3535 Z"/></svg>
