<svg xmlns="http://www.w3.org/2000/svg" xlink="http://www.w3.org/1999/xlink" width="16" height="16" viewBox="0 0 16 16"><path d="M12.2998,7.2998 L14.2998,5.2998 C14.6998,4.7998 14.9998,4.1998 14.9998,3.4998 C14.9998,2.7998 14.6998,2.1998 14.2998,1.6998 C13.7998,1.2998 13.1998,0.9998 12.4998,0.9998 C11.7998,0.9998 11.1998,1.1998 10.6998,1.5998 L8.6998,3.5998 C8.2998,4.0998 7.9998,4.6998 7.9998,5.3998 L7.9998,5.7998 L7.1998,6.6998 C7.0998,6.2998 6.9998,5.8998 6.9998,5.4998 C6.9998,4.5998 7.3998,3.6998 7.9998,2.9998 L9.9998,0.9998 C10.6998,0.2998 11.5998,-0.0002 12.4998,-0.0002 C13.3998,-0.0002 14.2998,0.2998 14.9998,0.9998 C15.5998,1.6998 15.9998,2.5998 15.9998,3.4998 C15.9998,4.4998 15.6998,5.2998 14.9998,5.9998 L12.9998,7.9998 C12.2998,8.5998 11.3998,8.9998 10.4998,8.9998 C10.0998,8.9998 9.6998,8.8998 9.2998,8.7998 L10.1998,7.9998 L10.4998,7.9998 C11.0998,7.9998 11.7998,7.6998 12.2998,7.2998 Z M8,10.2002 L8.8,9.3002 C8.9,9.7002 9,10.1002 9,10.5002 C9,11.5002 8.7,12.3002 8,13.0002 L6,15.0002 C5.3,15.6002 4.5,16.0002 3.5,16.0002 C2.5,16.0002 1.7,15.7002 1,15.0002 C0.4,14.3002 0,13.5002 0,12.5002 C0,11.5002 0.3,10.7002 1,10.0002 L3,8.0002 C3.7,7.3002 4.6,7.0002 5.5,7.0002 C5.9,7.0002 6.3,7.1002 6.7,7.2002 L5.9,8.0002 L5.5,8.0002 C4.8,8.0002 4.2,8.2002 3.7,8.7002 L1.7,10.7002 C1.3,11.2002 1,11.8002 1,12.5002 C1,13.2002 1.3,13.8002 1.7,14.3002 C2.2,14.8002 2.9,15.0002 3.5,15.0002 C4.1,15.0002 4.8,14.7002 5.3,14.3002 L7.3,12.3002 C7.7,11.8002 8,11.2002 8,10.5002 L8,10.2002 Z M11.8701,12.1582 L12.2241,11.8042 L15.1941,14.7742 L14.8401,15.1282 L11.8701,12.1582 Z M10.2,16 L10.2,12 L10.7,12 L10.7,16 L10.2,16 Z M12,10.8 L12,10.3 L16,10.3 L16,10.8 L12,10.8 Z M5.2,4 L5.2,-8.13151629e-20 L5.7,-8.13151629e-20 L5.7,4 L5.2,4 Z M0,5.8 L0,5.3 L4,5.3 L4,5.8 L0,5.8 Z M0.8701,1.1582 L1.2241,0.8042 L4.1941,3.7742 L3.8401,4.1282 L0.8701,1.1582 Z"/></svg>
