<svg xmlns="http://www.w3.org/2000/svg" xlink="http://www.w3.org/1999/xlink" width="12" height="12" viewBox="0 0 12 12"><path d="M11.1943,4.6943 L9.6943,6.1943 C9.1583,6.7313 8.4533,7.0003 7.7503,7.0003 C7.5603,7.0003 7.3713,6.9763 7.1833,6.9373 L8.1813,5.9403 C8.4823,5.8633 8.7613,5.7133 8.9873,5.4873 L10.4873,3.9873 C10.8183,3.6573 11.0003,3.2173 11.0003,2.7503 C11.0003,2.2823 10.8183,1.8423 10.4873,1.5123 C10.1563,1.1813 9.7163,1.0003 9.2503,1.0003 C8.7833,1.0003 8.3433,1.1813 8.0123,1.5123 L6.5123,3.0123 C6.2873,3.2383 6.1363,3.5173 6.0603,3.8193 L5.0623,4.8163 C4.8793,3.9373 5.1233,2.9873 5.8053,2.3053 L7.3053,0.8053 C7.8413,0.2683 8.5473,0.0003 9.2503,0.0003 C9.9533,0.0003 10.6583,0.2683 11.1943,0.8053 C12.2683,1.8793 12.2683,3.6203 11.1943,4.6943 Z M5.9395,8.1807 L6.9375,7.1837 C7.1215,8.0627 6.8765,9.0127 6.1945,9.6947 L4.6945,11.1947 C4.1585,11.7317 3.4535,11.9997 2.7505,11.9997 C2.0465,11.9997 1.3415,11.7317 0.8055,11.1947 C-0.2685,10.1207 -0.2685,8.3797 0.8055,7.3057 L2.3055,5.8057 C2.8415,5.2687 3.5465,4.9997 4.2505,4.9997 C4.4395,4.9997 4.6285,5.0237 4.8165,5.0627 L3.8185,6.0597 C3.5175,6.1367 3.2385,6.2867 3.0125,6.5127 L1.5125,8.0127 C1.1815,8.3427 1.0005,8.7827 1.0005,9.2497 C1.0005,9.7177 1.1815,10.1577 1.5125,10.4877 C1.8435,10.8187 2.2835,10.9997 2.7505,10.9997 C3.2165,10.9997 3.6565,10.8187 3.9875,10.4877 L5.4875,8.9877 C5.7125,8.7617 5.8635,8.4827 5.9395,8.1807 Z M3.1416,2.8584 L2.8586,3.1414 L0.3586,0.6414 L0.6416,0.3584 L3.1416,2.8584 Z M0,4.2 L0,3.8 L3,3.8 L3,4.2 L0,4.2 Z M3.8,3 L3.8,0 L4.2,0 L4.2,3 L3.8,3 Z M8.8584,9.1416 L9.1414,8.8586 L11.6414,11.3586 L11.3584,11.6416 L8.8584,9.1416 Z M9,8.2 L9,7.8 L12,7.8 L12,8.2 L9,8.2 Z M7.8,12 L7.8,9 L8.2,9 L8.2,12 L7.8,12 Z"/></svg>
