<svg xmlns="http://www.w3.org/2000/svg" xlink="http://www.w3.org/1999/xlink" width="22" height="22" viewBox="0 0 22 22"><path d="M17.5,2 C18.879,2 20,3.121 20,4.5 L20,19.5 C20,20.879 18.879,22 17.5,22 L4.5,22 C3.121,22 2,20.879 2,19.5 L2,4.5 C2,3.121 3.121,2 4.5,2 L6,2 L6,4 L4.5,4 C4.225,4 4,4.225 4,4.5 L4,19.5 C4,19.775 4.225,20 4.5,20 L17.5,20 C17.775,20 18,19.775 18,19.5 L18,4.5 C18,4.225 17.775,4 17.5,4 L16,4 L16,2 L17.5,2 Z M7.5,5 C7.224,5 7,4.776 7,4.5 L7,2 L8.5,2 C9.053,2 9.5,1.553 9.5,1 C9.5,0.447 9.947,0 10.5,0 L11.5,0 C12.053,0 12.5,0.447 12.5,1 C12.5,1.553 12.947,2 13.5,2 L15,2 L15,4.5 C15,4.776 14.776,5 14.5,5 L7.5,5 Z M6,9 L6,8 L16,8 L16,9 L6,9 Z M6,11 L6,10 L14,10 L14,11 L6,11 Z M6,13 L6,12 L16,12 L16,13 L6,13 Z M6,15 L6,14 L14,14 L14,15 L6,15 Z M6,17 L6,16 L11,16 L11,17 L6,17 Z"/></svg>
