<svg xmlns="http://www.w3.org/2000/svg" xlink="http://www.w3.org/1999/xlink" width="22" height="22" viewBox="0 0 22 22"><path d="M15.5,0 C19.09,0 22,2.91 22,6.5 C22,10.09 19.09,13 15.5,13 C14.747,13 14.027,12.865 13.355,12.63 L9.966,16 L8,16 L8,17.955 L6.949,19 L5,19 L5,20.938 L4.937,21 L1,21 L1,17.063 L9.37,8.646 C9.135,7.973 9,7.253 9,6.5 C9,2.91 11.91,0 15.5,0 Z M17.5,6 C18.328,6 19,5.328 19,4.5 C19,3.672 18.328,3 17.5,3 C16.672,3 16,3.672 16,4.5 C16,5.328 16.672,6 17.5,6 Z M2.867,18.5 L10.684,10.684 L9.816,9.816 L2,17.633 L2.867,18.5 Z"/></svg>
