<svg xmlns="http://www.w3.org/2000/svg" xlink="http://www.w3.org/1999/xlink" width="12" height="12" viewBox="0 0 12 12"><path d="M8.5,0 C10.434,0 12,1.567 12,3.5 C12,5.433 10.434,7 8.5,7 C8.168,7 7.853,6.938 7.548,6.853 L5.4,9 L4,9 L4,10.4 L3.4,11 L2,11 L2,12 L0,12 L0,9.6 L5.148,4.452 C5.061,4.147 5,3.832 5,3.5 C5,1.567 6.566,0 8.5,0 Z M9.5,3.5 C10.053,3.5 10.5,3.053 10.5,2.5 C10.5,1.947 10.053,1.5 9.5,1.5 C8.947,1.5 8.5,1.947 8.5,2.5 C8.5,3.053 8.947,3.5 9.5,3.5 Z M1.424,10 L6,5.424 L5.576,5 L1,9.576 L1.424,10 Z"/></svg>
