<svg width="144" height="80" viewBox="0 0 144 80" fill="none" xmlns="http://www.w3.org/2000/svg">
<g opacity="0.2">
<path fill-rule="evenodd" clip-rule="evenodd" d="M2.1582 71.7595V80C14.6384 80 25.0792 44.6383 48.0002 44.6383V43.6957C25.0792 43.6957 17.8346 71.5407 2.1582 71.7595Z" fill="#2BB3FF"/>
<path fill-rule="evenodd" clip-rule="evenodd" d="M2.1582 21.3058V0C14.6384 0 25.0792 35.0436 48.0002 35.0436V38.4765C23.5015 38.6739 20.7651 21.3058 2.1582 21.3058Z" fill="#2BB3FF"/>
<path fill-rule="evenodd" clip-rule="evenodd" d="M2.1582 58.6963V69.1304C16.7231 69.1304 23.5401 43.8065 48.0002 43.8065V42.8283C22.9759 42.6018 22.9759 58.4756 2.1582 58.6963Z" fill="#2BB3FF"/>
<path fill-rule="evenodd" clip-rule="evenodd" d="M2.1582 40.8696V23.9131C14.497 23.9131 20.5228 37.4895 48.0002 38.4885V41.1785C21.8896 41.1785 30.7876 40.1085 2.1582 40.8696Z" fill="#2BB3FF"/>
<path fill-rule="evenodd" clip-rule="evenodd" d="M2.1582 56.0869V43.4848C34.35 43.4938 20.2782 41.0869 48.0002 41.0869V42.8326C21.1078 42.8417 19.0593 56.0869 2.1582 56.0869Z" fill="#2BB3FF"/>
</g>
<rect width="2.1224" height="21.3043" transform="matrix(-1 0 0 1 2.15527 0)" fill="#2BB3FF"/>
<rect width="2.1224" height="16.9565" transform="matrix(-1 0 0 1 2.15527 23.9131)" fill="#2BB3FF"/>
<rect width="2.12379" height="12.6087" transform="matrix(-1 0 0 1 2.12402 43.4783)" fill="#2BB3FF"/>
<rect width="2.12379" height="10.4348" transform="matrix(-1 0 0 1 2.12402 58.6956)" fill="#2BB3FF"/>
<rect width="2.1224" height="8.26087" transform="matrix(-1 0 0 1 2.12402 71.739)" fill="#2BB3FF"/>
<path d="M48 35C48 33.3431 49.3431 32 51 32H93C94.6569 32 96 33.3431 96 35V45C96 46.6569 94.6569 48 93 48H51C49.3431 48 48 46.6569 48 45V35Z" fill="#2BB3FF"/>
<g opacity="0.2">
<path fill-rule="evenodd" clip-rule="evenodd" d="M141.852 71.7595V80C129.369 80 118.926 44.6383 96.0002 44.6383V43.6957C118.926 43.6957 126.172 71.5407 141.852 71.7595Z" fill="#2BB3FF"/>
<path fill-rule="evenodd" clip-rule="evenodd" d="M141.852 21.3058V0C129.369 0 118.926 35.0436 96.0002 35.0436V38.4765C120.504 38.6739 123.241 21.3058 141.852 21.3058Z" fill="#2BB3FF"/>
<path fill-rule="evenodd" clip-rule="evenodd" d="M141.852 58.6963V69.1304C127.284 69.1304 120.465 43.8065 96.0002 43.8065V42.8283C121.03 42.6018 121.03 58.4756 141.852 58.6963Z" fill="#2BB3FF"/>
<path fill-rule="evenodd" clip-rule="evenodd" d="M141.852 40.8696V23.9131C129.51 23.9131 123.483 37.4895 96.0002 38.4885V41.1785C122.116 41.1785 113.216 40.1085 141.852 40.8696Z" fill="#2BB3FF"/>
<path fill-rule="evenodd" clip-rule="evenodd" d="M141.852 56.0869V43.4848C109.653 43.4938 123.728 41.0869 96.0002 41.0869V42.8326C122.898 42.8417 124.947 56.0869 141.852 56.0869Z" fill="#2BB3FF"/>
</g>
<rect x="141.876" width="2.12412" height="21.3043" fill="#2BB3FF"/>
<rect x="141.816" y="23.9131" width="2.12825" height="16.9565" fill="#2BB3FF"/>
<rect x="141.869" y="43.4783" width="2.12378" height="12.6087" fill="#2BB3FF"/>
<rect x="141.869" y="58.6956" width="2.12378" height="10.4348" fill="#2BB3FF"/>
<rect x="141.869" y="71.739" width="2.12378" height="8.26087" fill="#2BB3FF"/>
</svg>
