<svg width="144" height="80" viewBox="0 0 144 80" fill="none" xmlns="http://www.w3.org/2000/svg">
<path d="M0 50C0 48.8954 0.895431 48 2 48H6C7.10457 48 8 48.8954 8 50V80H0V50Z" fill="#2BB3FF"/>
<g clip-path="url(#clip0_751_30771)">
<path d="M12.3638 20C12.3638 18.8954 13.2592 18 14.3638 18H18.3638C19.4683 18 20.3638 18.8954 20.3638 20V80H12.3638V20Z" fill="#2BB3FF"/>
</g>
<g clip-path="url(#clip1_751_30771)">
<path d="M24.7271 23C24.7271 21.8954 25.6225 21 26.7271 21H30.7271C31.8316 21 32.7271 21.8954 32.7271 23V80H24.7271V23Z" fill="#2BB3FF"/>
</g>
<g clip-path="url(#clip2_751_30771)">
<path d="M37.0908 39C37.0908 37.8954 37.9863 37 39.0908 37H43.0908C44.1954 37 45.0908 37.8954 45.0908 39V80H37.0908V39Z" fill="#2BB3FF"/>
</g>
<g clip-path="url(#clip3_751_30771)">
<path d="M49.4546 26C49.4546 24.8954 50.35 24 51.4546 24H55.4546C56.5592 24 57.4546 24.8954 57.4546 26V80H49.4546V26Z" fill="#2BB3FF"/>
</g>
<g clip-path="url(#clip4_751_30771)">
<path d="M61.8184 64C61.8184 62.8954 62.7138 62 63.8184 62H67.8184C68.9229 62 69.8184 62.8954 69.8184 64V80H61.8184V64Z" fill="#2BB3FF"/>
</g>
<g clip-path="url(#clip5_751_30771)">
<path d="M74.1816 20C74.1816 18.8954 75.0771 18 76.1816 18H80.1816C81.2862 18 82.1816 18.8954 82.1816 20V98H74.1816V20Z" fill="#2BB3FF"/>
</g>
<g clip-path="url(#clip6_751_30771)">
<path d="M86.5454 33C86.5454 31.8954 87.4408 31 88.5454 31H92.5454C93.65 31 94.5454 31.8954 94.5454 33V80H86.5454V33Z" fill="#2BB3FF"/>
</g>
<g clip-path="url(#clip7_751_30771)">
<path d="M98.9092 20C98.9092 18.8954 99.8046 18 100.909 18H104.909C106.014 18 106.909 18.8954 106.909 20V80H98.9092V20Z" fill="#2BB3FF"/>
</g>
<g clip-path="url(#clip8_751_30771)">
<path d="M111.273 56C111.273 54.8954 112.168 54 113.273 54H117.273C118.378 54 119.273 54.8954 119.273 56V80H111.273V56Z" fill="#2BB3FF"/>
</g>
<g clip-path="url(#clip9_751_30771)">
<path d="M123.636 20C123.636 18.8954 124.532 18 125.636 18H129.636C130.741 18 131.636 18.8954 131.636 20V80H123.636V20Z" fill="#2BB3FF"/>
</g>
<path d="M136 56C136 54.8954 136.895 54 138 54H142C143.105 54 144 54.8954 144 56V80H136V56Z" fill="#2BB3FF"/>
<defs>
<clipPath id="clip0_751_30771">
<path d="M12.3638 20C12.3638 18.8954 13.2592 18 14.3638 18H18.3638C19.4683 18 20.3638 18.8954 20.3638 20V80H12.3638V20Z" fill="white"/>
</clipPath>
<clipPath id="clip1_751_30771">
<path d="M24.7271 23C24.7271 21.8954 25.6225 21 26.7271 21H30.7271C31.8316 21 32.7271 21.8954 32.7271 23V80H24.7271V23Z" fill="white"/>
</clipPath>
<clipPath id="clip2_751_30771">
<path d="M37.0908 39C37.0908 37.8954 37.9863 37 39.0908 37H43.0908C44.1954 37 45.0908 37.8954 45.0908 39V80H37.0908V39Z" fill="white"/>
</clipPath>
<clipPath id="clip3_751_30771">
<path d="M49.4546 26C49.4546 24.8954 50.35 24 51.4546 24H55.4546C56.5592 24 57.4546 24.8954 57.4546 26V80H49.4546V26Z" fill="white"/>
</clipPath>
<clipPath id="clip4_751_30771">
<path d="M61.8184 64C61.8184 62.8954 62.7138 62 63.8184 62H67.8184C68.9229 62 69.8184 62.8954 69.8184 64V80H61.8184V64Z" fill="white"/>
</clipPath>
<clipPath id="clip5_751_30771">
<path d="M74.1816 20C74.1816 18.8954 75.0771 18 76.1816 18H80.1816C81.2862 18 82.1816 18.8954 82.1816 20V80H74.1816V20Z" fill="white"/>
</clipPath>
<clipPath id="clip6_751_30771">
<path d="M86.5454 33C86.5454 31.8954 87.4408 31 88.5454 31H92.5454C93.65 31 94.5454 31.8954 94.5454 33V80H86.5454V33Z" fill="white"/>
</clipPath>
<clipPath id="clip7_751_30771">
<path d="M98.9092 20C98.9092 18.8954 99.8046 18 100.909 18H104.909C106.014 18 106.909 18.8954 106.909 20V80H98.9092V20Z" fill="white"/>
</clipPath>
<clipPath id="clip8_751_30771">
<path d="M111.273 56C111.273 54.8954 112.168 54 113.273 54H117.273C118.378 54 119.273 54.8954 119.273 56V80H111.273V56Z" fill="white"/>
</clipPath>
<clipPath id="clip9_751_30771">
<path d="M123.636 20C123.636 18.8954 124.532 18 125.636 18H129.636C130.741 18 131.636 18.8954 131.636 20V80H123.636V20Z" fill="white"/>
</clipPath>
</defs>
</svg>
