<svg width="148" height="80" viewBox="0 0 148 80" fill="none" xmlns="http://www.w3.org/2000/svg">
<path opacity="0.2" d="M141.2 51.8971L146 55.643V80.0001H2V33.9167H6.8L11.6 38.5189L16.4 33.9167L21.2 38.5189L26 41.4086L30.8 43.9772H35.6L40.4 49.0074H45.2H50L54.8 43.9772H59.6L64.4 41.4086L69.2 43.9772H74H78.8L83.6 41.4086L88.4 46.8669L93.2 43.9772H98H102.8L107.6 51.8971L112.4 46.8669L117.2 51.8971L122 46.8669H126.8L131.6 51.8971L136.4 55.643L141.2 51.8971Z" fill="#2BB3FF"/>
<path d="M146 55.5001L141.2 51.7788L136.4 55.5001L131.6 51.7788L126.8 46.7817H122L117.2 51.7788L112.4 46.7817L107.6 51.7788L102.8 43.911H98H93.2L88.4 46.7817L83.6 41.3593L78.8 43.911H74H69.2L64.4 41.3593L59.6 43.911H54.8L50 48.9081H45.2H40.4L35.6 43.911H30.8L26 41.3593L21.2 38.4886L16.4 33.9167L11.6 38.4886L6.79999 33.9167H2" stroke="#2BB3FF" stroke-width="3" stroke-linecap="round"/>
<path d="M2 41.2764L6.8 38.5434L11.6 41.2764L16.4 38.5434L21.2 34.8734H26L30.8 38.5434L35.6 34.8734L40.4 38.5434L45.2 32.7651H50H54.8L59.6 34.8734L64.4 30.891L69.2 32.7651H74H78.8L83.6 30.891L88.4 32.7651H93.2L98 36.4351H102.8H107.6L112.4 32.7651H117.2L122 30.891L126.8 28.7827L131.6 25.425L136.4 28.7827L141.2 25.425H146" stroke="#FF622D" stroke-width="3" stroke-linecap="round"/>
</svg>
