<svg width="144" height="80" viewBox="0 0 144 80" fill="none" xmlns="http://www.w3.org/2000/svg">
<rect width="144" height="80" fill="white"/>
<rect width="20" height="10" fill="#008FF8"/>
<rect x="21" width="19" height="10" fill="#8ECDFF"/>
<rect x="41" width="20" height="10" fill="#C4E5FE"/>
<rect x="62" width="20" height="10" fill="#C4E5FE"/>
<rect x="83" width="20" height="10" fill="#C4E5FE"/>
<rect x="104" width="19" height="10" fill="#008FF8"/>
<rect x="124" width="20" height="10" fill="#008FF8"/>
<rect y="11" width="20" height="11" fill="#008FF8"/>
<rect x="21" y="11" width="19" height="11" fill="#8ECDFF"/>
<rect x="41" y="11" width="20" height="11" fill="#8ECDFF"/>
<rect x="62" y="11" width="20" height="11" fill="#C4E5FE"/>
<rect x="83" y="11" width="20" height="11" fill="#8ECDFF"/>
<rect x="104" y="11" width="19" height="11" fill="#008FF8"/>
<rect x="124" y="11" width="20" height="11" fill="#2BB3FF"/>
<rect y="23" width="20" height="10" fill="#2BB3FF"/>
<rect x="21" y="23" width="19" height="10" fill="#8ECDFF"/>
<rect x="41" y="23" width="20" height="10" fill="#C4E5FE"/>
<rect x="62" y="23" width="20" height="10" fill="#C4E5FE"/>
<rect x="83" y="23" width="20" height="10" fill="#8ECDFF"/>
<rect x="104" y="23" width="19" height="10" fill="#2BB3FF"/>
<rect x="124" y="23" width="20" height="10" fill="#008FF8"/>
<rect y="34" width="20" height="12" fill="#2BB3FF"/>
<rect x="21" y="34" width="19" height="12" fill="#2BB3FF"/>
<rect x="41" y="34" width="20" height="12" fill="#8ECDFF"/>
<rect x="62" y="34" width="20" height="12" fill="#C4E5FE"/>
<rect x="83" y="34" width="20" height="12" fill="#8ECDFF"/>
<rect x="104" y="34" width="19" height="12" fill="#8ECDFF"/>
<rect x="124" y="34" width="20" height="12" fill="#2BB3FF"/>
<rect y="47" width="20" height="10" fill="#2BB3FF"/>
<rect x="21" y="47" width="19" height="10" fill="#008FF8"/>
<rect x="41" y="47" width="20" height="10" fill="#8ECDFF"/>
<rect x="62" y="47" width="20" height="10" fill="#C4E5FE"/>
<rect x="83" y="47" width="20" height="10" fill="#C4E5FE"/>
<rect x="104" y="47" width="19" height="10" fill="#8ECDFF"/>
<rect x="124" y="47" width="20" height="10" fill="#2BB3FF"/>
<rect y="58" width="20" height="11" fill="#008FF8"/>
<rect x="21" y="58" width="19" height="11" fill="#008FF8"/>
<rect x="41" y="58" width="20" height="11" fill="#C4E5FE"/>
<rect x="62" y="58" width="20" height="11" fill="#8ECDFF"/>
<rect x="83" y="58" width="20" height="11" fill="#C4E5FE"/>
<rect x="104" y="58" width="19" height="11" fill="#008FF8"/>
<rect x="124" y="58" width="20" height="11" fill="#008FF8"/>
<rect y="70" width="20" height="10" fill="#008FF8"/>
<rect x="21" y="70" width="19" height="10" fill="#008FF8"/>
<rect x="41" y="70" width="20" height="10" fill="#C4E5FE"/>
<rect x="62" y="70" width="20" height="10" fill="#C4E5FE"/>
<rect x="83" y="70" width="20" height="10" fill="#C4E5FE"/>
<rect x="104" y="70" width="19" height="10" fill="#008FF8"/>
<rect x="124" y="70" width="20" height="10" fill="#008FF8"/>
</svg>
