<svg width="144" height="80" viewBox="0 0 144 80" fill="none" xmlns="http://www.w3.org/2000/svg">
<g clip-path="url(#clip0_751_30779)">
<path d="M8 50C8 48.8954 8.89543 48 10 48H25.6667C26.7712 48 27.6667 48.8954 27.6667 50V80H8V50Z" fill="#2BB3FF"/>
</g>
<g clip-path="url(#clip1_751_30779)">
<path d="M29.6665 20C29.6665 18.8954 30.5619 18 31.6665 18H47.3332C48.4377 18 49.3332 18.8954 49.3332 20V80H29.6665V20Z" fill="#2BB3FF"/>
</g>
<g clip-path="url(#clip2_751_30779)">
<path d="M51.3335 23C51.3335 21.8954 52.2289 21 53.3335 21H69.0002C70.1047 21 71.0002 21.8954 71.0002 23V80H51.3335V23Z" fill="#2BB3FF"/>
</g>
<g clip-path="url(#clip3_751_30779)">
<path d="M73 39C73 37.8954 73.8954 37 75 37H90.6667C91.7712 37 92.6667 37.8954 92.6667 39V80H73V39Z" fill="#2BB3FF"/>
</g>
<g clip-path="url(#clip4_751_30779)">
<path d="M94.6665 26C94.6665 24.8954 95.5619 24 96.6665 24H112.333C113.438 24 114.333 24.8954 114.333 26V80H94.6665V26Z" fill="#2BB3FF"/>
</g>
<g clip-path="url(#clip5_751_30779)">
<path d="M116.333 64C116.333 62.8954 117.229 62 118.333 62H134C135.105 62 136 62.8954 136 64V80H116.333V64Z" fill="#2BB3FF"/>
</g>
<defs>
<clipPath id="clip0_751_30779">
<path d="M8 50C8 48.8954 8.89543 48 10 48H25.6667C26.7712 48 27.6667 48.8954 27.6667 50V80H8V50Z" fill="white"/>
</clipPath>
<clipPath id="clip1_751_30779">
<path d="M29.6665 20C29.6665 18.8954 30.5619 18 31.6665 18H47.3332C48.4377 18 49.3332 18.8954 49.3332 20V80H29.6665V20Z" fill="white"/>
</clipPath>
<clipPath id="clip2_751_30779">
<path d="M51.3335 23C51.3335 21.8954 52.2289 21 53.3335 21H69.0002C70.1047 21 71.0002 21.8954 71.0002 23V80H51.3335V23Z" fill="white"/>
</clipPath>
<clipPath id="clip3_751_30779">
<path d="M73 39C73 37.8954 73.8954 37 75 37H90.6667C91.7712 37 92.6667 37.8954 92.6667 39V80H73V39Z" fill="white"/>
</clipPath>
<clipPath id="clip4_751_30779">
<path d="M94.6665 26C94.6665 24.8954 95.5619 24 96.6665 24H112.333C113.438 24 114.333 24.8954 114.333 26V80H94.6665V26Z" fill="white"/>
</clipPath>
<clipPath id="clip5_751_30779">
<path d="M116.333 64C116.333 62.8954 117.229 62 118.333 62H134C135.105 62 136 62.8954 136 64V80H116.333V64Z" fill="white"/>
</clipPath>
</defs>
</svg>
