<svg width="144" height="80" viewBox="0 0 144 80" fill="none" xmlns="http://www.w3.org/2000/svg">
<circle cx="14.5" cy="4.5" r="4.5" fill="#2BB3FF"/>
<rect x="14" y="9" width="1" height="71" fill="#2BB3FF"/>
<circle cx="41.5" cy="4.5" r="4.5" fill="#2BB3FF"/>
<rect x="41" y="9" width="1" height="71" fill="#2BB3FF"/>
<circle cx="57.5" cy="35.5" r="4.5" fill="#2BB3FF"/>
<rect x="57" y="40" width="1" height="40" fill="#2BB3FF"/>
<circle cx="74.5" cy="41.5" r="4.5" fill="#2BB3FF"/>
<rect x="74" y="46" width="1" height="34" fill="#2BB3FF"/>
<circle cx="83.5" cy="4.5" r="4.5" fill="#2BB3FF"/>
<rect x="83" y="9" width="1" height="71" fill="#2BB3FF"/>
<circle cx="101.5" cy="4.5" r="4.5" fill="#2BB3FF"/>
<rect x="101" y="9" width="1" height="71" fill="#2BB3FF"/>
<circle cx="110.5" cy="22.5" r="4.5" fill="#2BB3FF"/>
<rect x="110" y="27" width="1" height="53" fill="#2BB3FF"/>
<circle cx="126.5" cy="25.5" r="4.5" fill="#2BB3FF"/>
<rect x="126" y="30" width="1" height="50" fill="#2BB3FF"/>
<circle cx="135.5" cy="38.5" r="4.5" fill="#2BB3FF"/>
<rect x="135" y="43" width="1" height="37" fill="#2BB3FF"/>
</svg>
