<svg width="144" height="80" viewBox="0 0 144 80" fill="none" xmlns="http://www.w3.org/2000/svg">
<rect x="33" y="38" width="16" height="4" rx="2" fill="#C4C7CF"/>
<rect width="23.9999" height="1" transform="matrix(0.92388 0.382683 -0.382649 0.923894 52.2778 44.1304)" fill="#008FF8"/>
<rect width="4" height="4" rx="2" transform="matrix(0.92388 0.382683 -0.382671 0.923885 75.0249 51.929)" fill="#008FF8"/>
<rect width="23.9999" height="1" transform="matrix(0.707107 0.707107 -0.707081 0.707133 49.8389 48.1316)" fill="#008FF8"/>
<rect width="4" height="4" rx="2" transform="matrix(0.707107 0.707107 -0.707098 0.707116 67.8701 64.0415)" fill="#008FF8"/>
<rect width="23.9999" height="1" transform="matrix(0.382683 0.92388 -0.923865 0.382717 46.0542 50.8953)" fill="#008FF8"/>
<rect width="4" height="4" rx="2" transform="matrix(0.382683 0.92388 -0.923875 0.382696 56.624 72.4941)" fill="#008FF8"/>
<rect width="23.9999" height="1" transform="matrix(0 1 -1 3.68975e-05 41.5 52)" fill="#008FF8"/>
<rect width="4" height="4" rx="2" transform="matrix(0 1 -1 1.31594e-05 43 76)" fill="#008FF8"/>
<rect width="23.9999" height="1" transform="matrix(-0.382683 0.92388 -0.923894 -0.382649 36.8701 51.2778)" fill="#008FF8"/>
<rect width="4" height="4" rx="2" transform="matrix(-0.382683 0.92388 -0.923885 -0.382671 29.0713 74.0249)" fill="#008FF8"/>
<rect width="23.9999" height="1" transform="matrix(-0.707107 0.707107 -0.707133 -0.707081 32.8682 48.8389)" fill="#008FF8"/>
<rect width="4" height="4" rx="2" transform="matrix(-0.707107 0.707107 -0.707116 -0.707098 16.9585 66.8699)" fill="#008FF8"/>
<rect width="23.9999" height="1" transform="matrix(-0.92388 0.382683 -0.382717 -0.923865 30.1045 45.0542)" fill="#008FF8"/>
<rect width="4" height="4" rx="2" transform="matrix(-0.92388 0.382683 -0.382696 -0.923875 8.50537 55.6245)" fill="#008FF8"/>
<rect width="23.9999" height="1" transform="matrix(-1 0 -3.68975e-05 -1 29 40.5)" fill="#008FF8"/>
<rect width="4" height="4" rx="2" transform="matrix(-1 0 -1.31594e-05 -1 5 42)" fill="#008FF8"/>
<rect width="23.9999" height="1" transform="matrix(-0.92388 -0.382683 0.382649 -0.923894 29.7222 35.8696)" fill="#FF4953"/>
<rect width="4" height="4" rx="2" transform="matrix(-0.92388 -0.382683 0.382671 -0.923885 6.9751 28.071)" fill="#FF4953"/>
<rect width="23.9999" height="1" transform="matrix(-0.707107 -0.707107 0.707081 -0.707133 32.1611 31.8684)" fill="#FF4953"/>
<rect width="4" height="4" rx="2" transform="matrix(-0.707107 -0.707107 0.707098 -0.707116 14.1299 15.9585)" fill="#FF4953"/>
<rect width="23.9999" height="1" transform="matrix(-0.382683 -0.92388 0.923865 -0.382717 35.9458 29.1047)" fill="#FF4953"/>
<rect width="4" height="4" rx="2" transform="matrix(-0.382683 -0.92388 0.923875 -0.382696 25.376 7.50586)" fill="#FF4953"/>
<rect width="23.9999" height="1" transform="matrix(0 -1 1 -3.68975e-05 40.5 28)" fill="#009F81"/>
<rect width="4" height="4" rx="2" transform="matrix(0 -1 1 -1.31594e-05 39 4)" fill="#009F81"/>
<rect width="23.9999" height="1" transform="matrix(0.382683 -0.92388 0.923894 0.382649 45.1299 28.7222)" fill="#009F81"/>
<rect width="4" height="4" rx="2" transform="matrix(0.382683 -0.92388 0.923885 0.382671 52.9287 5.9751)" fill="#009F81"/>
<rect width="23.9999" height="1" transform="matrix(0.707107 -0.707107 0.707133 0.707081 49.1318 31.1611)" fill="#009F81"/>
<rect width="4" height="4" rx="2" transform="matrix(0.707107 -0.707107 0.707116 0.707097 65.0415 13.1301)" fill="#009F81"/>
<rect width="23.9999" height="1" transform="matrix(0.92388 -0.382683 0.382718 0.923865 51.8955 34.9458)" fill="#009F81"/>
<rect width="4" height="4" rx="2" transform="matrix(0.92388 -0.382683 0.382696 0.923874 73.4946 24.3755)" fill="#009F81"/>
<rect width="23.9999" height="1" transform="matrix(1 0 3.68975e-05 1 53 39.5)" fill="#009F81"/>
<rect width="4" height="4" rx="2" transform="matrix(1 0 1.31594e-05 1 77 38)" fill="#009F81"/>
</svg>
