<svg xmlns="http://www.w3.org/2000/svg" xlink="http://www.w3.org/1999/xlink" width="22" height="22" viewBox="0 0 22 22"><path d="M20.562,18.439 C21.146,19.025 21.146,19.975 20.562,20.561 C20.268,20.854 19.885,21 19.5,21 C19.116,21 18.732,20.854 18.439,20.561 L12.939,15.061 C12.883,15.004 12.857,14.931 12.812,14.867 C11.715,15.581 10.406,16 9,16 C5.135,16 2,12.866 2,9 C2,5.134 5.135,2 9,2 C12.866,2 16,5.134 16,9 C16,10.406 15.581,11.714 14.867,12.811 C14.932,12.857 15.004,12.883 15.062,12.939 L20.562,18.439 Z M9,14 C11.758,14 14,11.757 14,9 C14,6.243 11.758,4 9,4 C6.243,4 4,6.243 4,9 C4,11.757 6.243,14 9,14 Z M10,6 L10,8 L12,8 L12,10 L10,10 L10,12 L8,12 L8,10 L6,10 L6,8 L8,8 L8,6 L10,6 Z"/></svg>
