<svg xmlns="http://www.w3.org/2000/svg" xlink="http://www.w3.org/1999/xlink" width="16" height="16" viewBox="0 0 16 16"><path d="M14.707,13.293 C15.098,13.684 15.098,14.316 14.707,14.707 C14.512,14.902 14.256,15 14,15 C13.744,15 13.488,14.902 13.293,14.707 L9.615,11.03 C8.729,11.641 7.658,12 6.5,12 C3.462,12 1,9.537 1,6.5 C1,3.463 3.462,1 6.5,1 C9.537,1 12,3.463 12,6.5 C12,7.657 11.641,8.73 11.029,9.616 L14.707,13.293 Z M6.5,10.5 C8.705,10.5 10.5,8.706 10.5,6.5 C10.5,4.294 8.705,2.5 6.5,2.5 C4.294,2.5 2.5,4.294 2.5,6.5 C2.5,8.706 4.294,10.5 6.5,10.5 Z M7,4 L7,6 L9,6 L9,7 L7,7 L7,9 L6,9 L6,7 L4,7 L4,6 L6,6 L6,4 L7,4 Z"/></svg>
