<svg width="24" height="24" viewBox="0 0 24 24" xmlns="http://www.w3.org/2000/svg"><path d="M1 2a1 1 0 0 0-1 1v18a1 1 0 0 0 1 1h21a1 1 0 0 0 0-2H2V3a1 1 0 0 0-1-1Z"/><path fill-rule="evenodd" clip-rule="evenodd" d="M13.737 16.881a6.544 6.544 0 0 1-2.134.059 4.98 4.98 0 0 0 .39-1.94v-.027A5.003 5.003 0 0 0 6 10.097a6.461 6.461 0 0 1 .479-2.079A6.508 6.508 0 0 1 12.494 4 6.503 6.503 0 0 1 19 10.5a6.504 6.504 0 0 1-5.263 6.381Zm.252-2.135A4.503 4.503 0 0 0 17 10.5a4.51 4.51 0 0 0-8.376-2.308 7.005 7.005 0 0 1 5.365 6.554Z"/><path fill-rule="evenodd" clip-rule="evenodd" d="M10 15a3 3 0 1 1-6 0 3 3 0 0 1 6 0Zm-2 0a1 1 0 1 1-2 0 1 1 0 0 1 2 0Z"/></svg>