<svg width="16" height="16" viewBox="0 0 16 16" xmlns="http://www.w3.org/2000/svg">
  <path fill-rule="evenodd" clip-rule="evenodd" d="M4.55.1a.23.23 0 0 0-.4.1L2 13.06a.23.23 0 0 0 .13.24l.04.02a.21.21 0 0 0 .03.02l5.7 2.63a.22.22 0 0 0 .2 0l5.68-2.62a.23.23 0 0 0 .01 0l.02-.02a.23.23 0 0 0 .1-.31L8.4 2.33a.23.23 0 0 0-.4 0l-.8 1.43L4.56.1ZM7.2 3.75l-5.1 9.26a.23.23 0 0 0 .07.31l5.74 2.65a.22.22 0 0 0 .19 0l5.7-2.63a.23.23 0 0 0 .07-.34L7.2 3.76Z" fill="#F9AB00"/>
  <path d="m7.2 3.76 6.67 9.25a.23.23 0 0 1-.09.35L8.1 15.98a.22.22 0 0 1-.19 0l-5.74-2.65a.23.23 0 0 1-.08-.3L7.2 3.76Z" fill="#E78936"/>
  <path d="M11.85 3.4a.23.23 0 0 1 .38.12L14 13.06a.23.23 0 0 1-.13.26l-5.78 2.66a.22.22 0 0 1-.18 0l-5.64-2.6a.23.23 0 0 1-.06-.37l9.64-9.6Z" fill="#F8CD54"/>
</svg>
