<svg xmlns="http://www.w3.org/2000/svg" width="144" height="80" fill="none" viewBox="0 0 144 80">
  <g fill="#2BB3FF" fill-rule="evenodd" clip-rule="evenodd" opacity=".2">
    <path d="M2.158 71.76V80C14.638 80 25.08 44.638 48 44.638v-.942c-22.92 0-30.165 27.845-45.842 28.064ZM2.158 21.306V0C14.638 0 25.08 35.044 48 35.044v3.433c-24.498.197-27.235-17.171-45.842-17.171Z"/>
    <path d="M2.158 58.696V69.13C16.723 69.13 23.54 43.807 48 43.807v-.979c-25.024-.226-25.024 15.648-45.842 15.868ZM2.158 40.87V23.913C14.497 23.913 20.523 37.49 48 38.49v2.69c-26.11 0-17.212-1.07-45.842-.31Z"/>
    <path d="M2.158 56.087V43.485c32.192.009 18.12-2.398 45.842-2.398v1.746c-26.892.009-28.94 13.254-45.842 13.254Z"/>
  </g>
  <path fill="#2BB3FF" d="M2.155 0H.033v21.304h2.122zM2.155 23.913H.033V40.87h2.122zM2.124 43.478H0v12.61h2.124zM2.124 58.696H0V69.13h2.124zM2.124 71.739H.002V80h2.122zM48 35a3 3 0 0 1 3-3h42a3 3 0 0 1 3 3v10a3 3 0 0 1-3 3H51a3 3 0 0 1-3-3V35Z"/>
  <g fill="#2BB3FF" fill-rule="evenodd" clip-rule="evenodd" opacity=".2">
    <path d="M141.852 71.76V80C129.369 80 118.926 44.638 96 44.638v-.942c22.926 0 30.172 27.845 45.852 28.064ZM141.852 21.306V0C129.369 0 118.926 35.044 96 35.044v3.433c24.504.197 27.241-17.171 45.852-17.171Z"/>
    <path d="M141.852 58.696V69.13c-14.568 0-21.387-25.323-45.852-25.323v-.979c25.03-.226 25.03 15.648 45.852 15.868ZM141.852 40.87V23.913C129.51 23.913 123.483 37.49 96 38.49v2.69c26.116 0 17.216-1.07 45.852-.31Z"/>
    <path d="M141.852 56.087V43.485c-32.199.009-18.124-2.398-45.852-2.398v1.746c26.898.009 28.947 13.254 45.852 13.254Z"/>
  </g>
  <path fill="#2BB3FF" d="M141.876 0H144v21.304h-2.124zM141.816 23.913h2.128v16.956h-2.128zM141.869 43.478h2.124v12.609h-2.124zM141.869 58.696h2.124v10.435h-2.124zM141.869 71.739h2.124V80h-2.124z"/>
</svg>
