<svg width="144" height="80" viewBox="0 0 144 80" fill="none" xmlns="http://www.w3.org/2000/svg">
<g clip-path="url(#clip0_430_18793)">
<rect width="144" height="80" fill="white"/>
<path opacity="0.2" d="M139.2 51.8971L144 55.643V80.0001H0V33.9167H4.8L9.60001 38.5189L14.4 33.9167L19.2 38.5189L24 41.4086L28.8 43.9772H33.6L38.4 49.0074H43.2H48L52.8 43.9772H57.6L62.4 41.4086L67.2 43.9772H72H76.8L81.6 41.4086L86.4 46.8669L91.2 43.9772H96H100.8L105.6 51.8971L110.4 46.8669L115.2 51.8971L120 46.8669H124.8L129.6 51.8971L134.4 55.643L139.2 51.8971Z" fill="#2BB3FF"/>
<path d="M144 55.5001L139.2 51.7788L134.4 55.5001L129.6 51.7788L124.8 46.7817H120L115.2 51.7788L110.4 46.7817L105.6 51.7788L100.8 43.911H96H91.2L86.4 46.7817L81.6 41.3593L76.8 43.911H72H67.2L62.4 41.3593L57.6 43.911H52.8L48 48.9081H43.2H38.4L33.6 43.911H28.8L24 41.3593L19.2 38.4886L14.4 33.9167L9.6 38.4886L4.79999 33.9167H-1.83284e-06" stroke="#2BB3FF" stroke-width="3" stroke-linecap="round"/>
</g>
<defs>
<clipPath id="clip0_430_18793">
<rect width="144" height="80" fill="white"/>
</clipPath>
</defs>
</svg>
