<svg xmlns="http://www.w3.org/2000/svg" width="148" height="80" fill="none" viewBox="0 0 148 80">
  <path fill="#2BB3FF" d="m141.2 46.897 4.8 3.746V75H2V28.917h4.8l4.8 4.602 4.8-4.602 4.8 4.602 4.8 2.89 4.8 2.568h4.8l4.8 5.03H50l4.8-5.03h4.8l4.8-2.568 4.8 2.568h9.6l4.8-2.568 4.8 5.458 4.8-2.89h9.6l4.8 7.92 4.8-5.03 4.8 5.03 4.8-5.03h4.8l4.8 5.03 4.8 3.746 4.8-3.746Z" opacity=".2"/>
  <path stroke="#2BB3FF" stroke-linecap="round" stroke-width="3" d="m146 50.5-4.8-3.721-4.8 3.721-4.8-3.721-4.8-4.997H122l-4.8 4.997-4.8-4.997-4.8 4.997-4.8-7.868h-9.6l-4.8 2.87-4.8-5.422-4.8 2.552h-9.6l-4.8-2.552-4.8 2.552h-4.8L50 43.908h-9.6l-4.8-4.997h-4.8L26 36.359l-4.8-2.87-4.8-4.572-4.8 4.572-4.8-4.572H2"/>
</svg>
