<svg xmlns="http://www.w3.org/2000/svg" width="144" height="80" fill="none" viewBox="0 0 144 80">
  <g clip-path="url(#a)">
    <path fill="#2BB3FF" d="M8 50a2 2 0 0 1 2-2h4a2 2 0 0 1 2 2v30H8V50Z"/>
  </g>
  <g clip-path="url(#b)">
    <path fill="#2BB3FF" d="M18.91 20a2 2 0 0 1 2-2h4a2 2 0 0 1 2 2v60h-8V20Z"/>
  </g>
  <g clip-path="url(#c)">
    <path fill="#2BB3FF" d="M29.818 23a2 2 0 0 1 2-2h4a2 2 0 0 1 2 2v57h-8V23Z"/>
  </g>
  <g clip-path="url(#d)">
    <path fill="#2BB3FF" d="M40.727 39a2 2 0 0 1 2-2h4a2 2 0 0 1 2 2v41h-8V39Z"/>
  </g>
  <g clip-path="url(#e)">
    <path fill="#2BB3FF" d="M51.636 26a2 2 0 0 1 2-2h4a2 2 0 0 1 2 2v54h-8V26Z"/>
  </g>
  <g clip-path="url(#f)">
    <path fill="#2BB3FF" d="M62.545 64a2 2 0 0 1 2-2h4a2 2 0 0 1 2 2v16h-8V64Z"/>
  </g>
  <g clip-path="url(#g)">
    <path fill="#2BB3FF" d="M73.455 20a2 2 0 0 1 2-2h4a2 2 0 0 1 2 2v78h-8V20Z"/>
  </g>
  <g clip-path="url(#h)">
    <path fill="#2BB3FF" d="M84.364 33a2 2 0 0 1 2-2h4a2 2 0 0 1 2 2v47h-8V33Z"/>
  </g>
  <g clip-path="url(#i)">
    <path fill="#2BB3FF" d="M95.273 20a2 2 0 0 1 2-2h4a2 2 0 0 1 2 2v60h-8V20Z"/>
  </g>
  <g clip-path="url(#j)">
    <path fill="#2BB3FF" d="M106.182 56a2 2 0 0 1 2-2h4a2 2 0 0 1 2 2v24h-8V56Z"/>
  </g>
  <g clip-path="url(#k)">
    <path fill="#2BB3FF" d="M117.091 20a2 2 0 0 1 2-2h4a2 2 0 0 1 2 2v60h-8V20Z"/>
  </g>
  <g clip-path="url(#l)">
    <path fill="#2BB3FF" d="M128 56a2 2 0 0 1 2-2h4a2 2 0 0 1 2 2v24h-8V56Z"/>
  </g>
  <defs>
    <clipPath id="a">
      <path fill="#fff" d="M8 50a2 2 0 0 1 2-2h4a2 2 0 0 1 2 2v30H8V50Z"/>
    </clipPath>
    <clipPath id="b">
      <path fill="#fff" d="M18.91 20a2 2 0 0 1 2-2h4a2 2 0 0 1 2 2v60h-8V20Z"/>
    </clipPath>
    <clipPath id="c">
      <path fill="#fff" d="M29.818 23a2 2 0 0 1 2-2h4a2 2 0 0 1 2 2v57h-8V23Z"/>
    </clipPath>
    <clipPath id="d">
      <path fill="#fff" d="M40.727 39a2 2 0 0 1 2-2h4a2 2 0 0 1 2 2v41h-8V39Z"/>
    </clipPath>
    <clipPath id="e">
      <path fill="#fff" d="M51.636 26a2 2 0 0 1 2-2h4a2 2 0 0 1 2 2v54h-8V26Z"/>
    </clipPath>
    <clipPath id="f">
      <path fill="#fff" d="M62.545 64a2 2 0 0 1 2-2h4a2 2 0 0 1 2 2v16h-8V64Z"/>
    </clipPath>
    <clipPath id="g">
      <path fill="#fff" d="M73.455 20a2 2 0 0 1 2-2h4a2 2 0 0 1 2 2v60h-8V20Z"/>
    </clipPath>
    <clipPath id="h">
      <path fill="#fff" d="M84.364 33a2 2 0 0 1 2-2h4a2 2 0 0 1 2 2v47h-8V33Z"/>
    </clipPath>
    <clipPath id="i">
      <path fill="#fff" d="M95.273 20a2 2 0 0 1 2-2h4a2 2 0 0 1 2 2v60h-8V20Z"/>
    </clipPath>
    <clipPath id="j">
      <path fill="#fff" d="M106.182 56a2 2 0 0 1 2-2h4a2 2 0 0 1 2 2v24h-8V56Z"/>
    </clipPath>
    <clipPath id="k">
      <path fill="#fff" d="M117.091 20a2 2 0 0 1 2-2h4a2 2 0 0 1 2 2v60h-8V20Z"/>
    </clipPath>
    <clipPath id="l">
      <path fill="#fff" d="M128 56a2 2 0 0 1 2-2h4a2 2 0 0 1 2 2v24h-8V56Z"/>
    </clipPath>
  </defs>
</svg>
