<svg xmlns="http://www.w3.org/2000/svg" width="146" height="80" fill="none" viewBox="0 0 146 80">
  <circle cx="7.5" cy="50.5" r="6.5" stroke="#fff" stroke-width="2" opacity=".5"/>
  <circle cx="7.5" cy="50.5" r="5.5" fill="#E14ADF" opacity=".5"/>
  <path fill="#E14ADF" d="M8 47H7v3H4v1h3v3h1v-3h3v-1H8v-3Z"/>
  <circle cx="16.5" cy="61.5" r="11.5" stroke="#fff" stroke-width="2" opacity=".5"/>
  <circle cx="16.5" cy="61.5" r="10.5" fill="#AB6CFE" opacity=".5"/>
  <path fill="#AB6CFE" d="M17 58h-1v3h-3v1h3v3h1v-3h3v-1h-3v-3Z"/>
  <circle cx="51.5" cy="30.5" r="18.5" stroke="#fff" stroke-width="2" opacity=".5"/>
  <circle cx="51.5" cy="30.5" r="17.5" fill="#FF4953" opacity=".5"/>
  <path fill="#FF4953" d="M52 27h-1v3h-3v1h3v3h1v-3h3v-1h-3v-3Z"/>
  <circle cx="108" cy="49" r="22" stroke="#fff" stroke-width="2" opacity=".5"/>
  <circle cx="108" cy="49" r="21" fill="#FF8C43" opacity=".5"/>
  <path fill="#FF8C43" d="M108 45h-1v3h-3v1h3v3h1v-3h3v-1h-3v-3Z"/>
  <circle cx="25.431" cy="23.5" r="11.5" stroke="#fff" stroke-width="2" opacity=".5"/>
  <circle cx="25.431" cy="23.5" r="10.5" fill="#66C030" opacity=".5"/>
  <path fill="#66C030" d="M25.93 20h-1v3h-3v1h3v3h1v-3h3v-1h-3v-3Z"/>
  <circle cx="55.5" cy="53.5" r="19.5" stroke="#fff" stroke-width="2" opacity=".5"/>
  <circle cx="55.5" cy="53.5" r="18.5" fill="#008FF8" opacity=".5"/>
  <path fill="#008FF8" d="M56 50h-1v3h-3v1h3v3h1v-3h3v-1h-3v-3Z"/>
</svg>
