<svg width="144" height="80" viewBox="0 0 144 80" fill="none" xmlns="http://www.w3.org/2000/svg">
<rect width="144" height="80" fill="white"/>
<circle opacity="0.5" cx="14.5" cy="50.5" r="6.5" stroke="white" stroke-width="2"/>
<circle opacity="0.5" cx="14.5" cy="50.5" r="5.5" fill="#E14ADF"/>
<path d="M15 47H14V50H11V51H14V54H15V51H18V50H15V47Z" fill="#E14ADF"/>
<circle opacity="0.5" cx="23.5" cy="61.5" r="11.5" stroke="white" stroke-width="2"/>
<circle opacity="0.5" cx="23.5" cy="61.5" r="10.5" fill="#AB6CFE"/>
<path d="M24 58H23V61H20V62H23V65H24V62H27V61H24V58Z" fill="#AB6CFE"/>
<circle opacity="0.5" cx="58.5" cy="30.5" r="18.5" stroke="white" stroke-width="2"/>
<circle opacity="0.5" cx="58.5" cy="30.5" r="17.5" fill="#FF4953"/>
<path d="M59 27H58V30H55V31H58V34H59V31H62V30H59V27Z" fill="#FF4953"/>
<circle opacity="0.5" cx="115" cy="49" r="22" stroke="white" stroke-width="2"/>
<circle opacity="0.5" cx="115" cy="49" r="21" fill="#FF8C43"/>
<path d="M115 45H114V48H111V49H114V52H115V49H118V48H115V45Z" fill="#FF8C43"/>
<circle opacity="0.5" cx="32.4307" cy="23.5" r="11.5" stroke="white" stroke-width="2"/>
<circle opacity="0.5" cx="32.4307" cy="23.5" r="10.5" fill="#66C030"/>
<path d="M32.9307 20H31.9307V23H28.9307V24H31.9307V27H32.9307V24H35.9307V23H32.9307V20Z" fill="#66C030"/>
<circle opacity="0.5" cx="62.5" cy="53.5" r="19.5" stroke="white" stroke-width="2"/>
<circle opacity="0.5" cx="62.5" cy="53.5" r="18.5" fill="#008FF8"/>
<path d="M63 50H62V53H59V54H62V57H63V54H66V53H63V50Z" fill="#008FF8"/>
</svg>
