<svg width="144" height="80" viewBox="0 0 144 80" fill="none" xmlns="http://www.w3.org/2000/svg">
<rect width="144" height="80" fill="white"/>
<path d="M90.9082 39.5169L91.0397 40.0416L92.5278 40.1728L92.6319 39.0962L92.9189 38.9397L92.9972 38.546L92.5278 38.6774L92.0057 39.466L90.9082 39.5169Z" fill="#8ECDFF"/>
<path d="M93.9438 33.8039L94.1838 35.6827L94.7815 35.8139L94.8374 36.1517L94.4087 36.5091L95.2072 37.153L96.7587 36.5951L96.8825 35.9347L97.8592 35.3258L98.2337 33.9144L98.513 33.6141L98.2233 33.1105L99.1683 32.5266L99.0476 32.3578L98.6114 32.3848L98.572 32.7859L97.9863 32.7801L97.9755 32.2449L97.7871 32.0203L97.4701 32.3079L97.4792 32.5722L97.0009 32.7529L96.1175 32.6972L94.9706 33.8975L93.9438 33.8039Z" fill="#8ECDFF"/>
<path d="M77.3252 31.1969V31.8919L77.5246 32.2672L77.6678 32.2505L77.9138 31.8029L77.7705 31.6023L77.7148 31.1062L77.5246 30.9297L77.3252 31.1969Z" fill="#8ECDFF"/>
<path d="M87.2416 31.2163L87.9661 32.1602L87.7534 32.4091L87.2402 32.3201L86.6035 31.7501L86.6377 31.3757L87.2416 31.2163Z" fill="#8ECDFF"/>
<path d="M87.4972 30.8892L87.3447 31.1484L88.0556 32.0803L88.3032 32.0004L88.7108 32.427L88.8873 31.6792L89.3296 31.7501L89.3115 31.5357L88.5842 30.8997L88.4454 31.2735L87.4972 30.8892Z" fill="#8ECDFF"/>
<path d="M75.9331 29.5653L75.8774 29.6572L76.8904 30.7005L77.2618 30.1546L77.2482 29.9393L76.9239 29.5458L75.9331 29.5653Z" fill="#8ECDFF"/>
<path d="M106.238 37.733L106.04 38.0904L106.553 39.0644L106.568 39.8244L106.662 40.0278L107.264 40.0385L107.605 39.7114L107.853 39.8605L107.902 40.3231L108.1 40.1996L108.112 39.6085L107.946 39.5889L107.842 39.0868L107.422 39.0718L107.318 38.7927L107.575 38.4504L107.579 38.2812H106.834L106.238 37.733Z" fill="#8ECDFF"/>
<path d="M70.9234 26.1848L70.8267 26.426L71.8651 27.1106L71.935 27.1195L72.0005 26.9287L72.1466 26.8261L71.9133 26.5647H71.7534L71.5342 26.3159L70.9234 26.1848Z" fill="#8ECDFF"/>
<path d="M69.26 43.9407L69.8093 43.8971L70.7104 45.1696L69.8741 45.7998L69.2689 45.6442L68.4552 45.655L68.3238 46.1312L67.6416 46.1644L67.4546 45.9095L67.6964 45.1347L69.26 43.9407Z" fill="#8ECDFF"/>
<path d="M78.4448 30.0855L78.4691 30.8364L78.7226 31.3641L79.675 31.3806L80.1037 31.0777L80.5249 30.9104L80.4222 30.4307L80.5174 30.1744L80.303 30.0626L80.0084 30.0869L79.7773 30.3192L78.8084 30.3267L78.4448 30.0855Z" fill="#8ECDFF"/>
<path d="M82.1837 51.7709L82.8282 51.7573L82.6607 52.321L82.4975 52.4627H82.298L82.1562 52.0812L82.1837 51.7709Z" fill="#8ECDFF"/>
<path d="M70.4854 47.742H70.8055L70.8237 46.8342L71.2279 46.2476L71.2098 45.2268L70.8427 45.2177L70.2134 45.7089L70.476 46.2095L70.4854 47.742Z" fill="#8ECDFF"/>
<path d="M118.947 47.7057L118.513 48.2321L118.869 48.3439L119.07 48.0634L118.947 47.7057Z" fill="#8ECDFF"/>
<path d="M40.2974 55.7787L41.5396 55.2372L41.9501 55.2767L42.2234 56.4164L44.1161 57.0451L44.4287 58.0085L45.2091 58.1065L45.5412 58.9314L45.3072 59.6776L44.0377 59.7757L43.5697 60.9744L42.5735 60.9548L42.261 60.896L41.6859 61.4537L41.4022 61.4265L40.4255 59.1664L40.6957 58.7624L40.7908 57.164L40.5493 56.2125L40.2974 55.7787Z" fill="#8ECDFF"/>
<path d="M48.6789 65.7393L49.6222 63.9268L49.6567 62.404L51.4167 61.27H52.4025L53.1769 59.9597L53.3173 57.4447L53.0004 56.7722L54.866 55.0713L54.9369 53.1942L52.4025 51.9549L49.3414 50.999L47.8983 50.8574L48.2862 50.0429L48.1807 48.8037L47.865 48.6998L47.3986 49.6257L47.1541 49.9316L46.5263 49.6543L44.4147 50.3975L43.7113 49.5126L43.8244 48.5883L43.1602 49.2637L42.4266 48.8686L42.3526 48.9728L42.3541 49.2939L42.9866 49.6332L42.0372 50.6327L41.4379 50.6267L40.8311 50.0101L40.1443 50.0312L40.0598 50.7639L40.4538 51.2416L39.9887 52.7299L39.4453 52.7719L38.5804 53.3179L38.3691 54.39L39.1193 55.1922L39.2567 55.037L39.7836 54.8953L40.2334 55.6524L41.521 55.1005L42.0206 55.1292L42.3648 56.3461L44.2018 56.9282L44.5187 57.8987L45.3007 57.9924L45.6735 58.9193L45.4215 59.7442L45.7505 60.1758L45.7023 60.8182L46.5838 60.735L47.3914 61.7544L47.328 62.4704L47.8065 62.8744L46.6592 64.61L48.6789 65.7393Z" fill="#006DCA"/>
<path d="M75.0001 53.354L75.5149 55.2733L75.5028 55.88L74.7497 56.6881L74.6367 58.0011L77.5349 58.0268L78.477 58.3676L79.254 58.2664L78.8011 57.6993L78.8028 56.0802L79.6935 56.0424V55.4108L78.9703 55.3808L78.8255 53.885L78.5206 53.8892L78.356 53.7413L78.1766 53.7507L77.9383 54.2122H77.0206L76.8076 53.9982L76.871 53.695L76.6202 53.3286L75.0001 53.354Z" fill="#8ECDFF"/>
<path d="M74.6875 52.8293L74.9501 53.17L75.2898 52.8487L75.1901 52.5157L75.1057 52.5096L74.6875 52.8293Z" fill="#8ECDFF"/>
<path d="M47.3549 62.6255L47.6478 62.8996L46.5352 64.5509L46.1443 64.9834L46.28 66.8695L47.1387 67.9116L46.4172 69.1691L45.8708 69.4046H45.2459L45.421 70.3861L44.4443 70.721L44.6783 71.5459L44.0927 73.4125L44.8158 74.0021L44.4248 74.9641L43.7605 76.0064L44.1122 76.7329L43.2534 76.87L42.5501 76.0064L42.4324 73.3145L41.3396 68.7428L41.6702 67.1444L40.9668 65.1013L41.4348 62.4492L41.8649 61.9379L41.7592 61.5503L42.3117 61.0466L43.5435 61.1308L44.2318 61.8652L45.0272 61.8788L45.8424 62.3765L45.6023 62.9376L45.6597 63.5045L46.8143 63.4501L47.3549 62.6255Z" fill="#8ECDFF"/>
<path d="M44.8569 77.7927L44.8962 78.6563L45.5603 78.5975L46.1264 78.2236L45.1695 78.0275L44.8569 77.7927Z" fill="#8ECDFF"/>
<path d="M73.7944 28.2353L73.6963 28.4388L73.7806 28.5836L74.1325 28.5112H74.4313L74.7555 28.7854L75.4453 28.6604L75.9524 28.3588L76.0821 28.1552L76.0626 27.8928L75.6066 27.552L74.9953 27.5581L74.9439 27.9049L74.3008 28.2183L73.7944 28.2353Z" fill="#8ECDFF"/>
<path d="M116.14 64.1002L116.087 67.9269L115.498 68.3581L115.445 68.7351L116.248 69.2734L118.23 68.8964H119.247L119.622 68.3565L121.871 67.9253L123.477 68.411L123.37 69.0578L123.584 69.7046L124.816 69.489L124.869 69.8118L124.066 70.4042L124.333 70.6198L124.922 70.4042L124.762 72.1834L125.886 73.0458L126.529 72.8302L126.851 73.1533L128.725 72.8833L130.493 70.0259L131.136 69.8645L132.421 67.4929L132.742 65.4452L131.939 64.4215L132.261 64.2059L131.617 62.2111L130.922 61.7256L131.029 59.031L130.386 58.5457L130.226 57.0365H129.904L128.832 60.5935L128.244 60.648L126.905 59.2999L127.655 57.3049L126.263 57.0351L124.71 57.4663L124.281 58.7055L123.586 58.8668L123.532 58.0044L120.695 59.7294L120.748 60.3762L120.319 60.9687H119.247L116.944 61.9386L116.14 64.1002Z" fill="#8ECDFF"/>
<path d="M125.886 74.3956L125.619 75.4737L125.672 76.2276L126.475 76.1732L127.385 74.7725L125.886 74.3956Z" fill="#8ECDFF"/>
<path d="M37.4142 38.6407L37.224 38.5819L37.209 38.9484L37.443 39.1837L37.6031 38.9484L37.4142 38.6407Z" fill="#8ECDFF"/>
<path d="M37.7929 39.2137L37.5303 39.3599L37.7777 39.7125L37.909 39.5361L37.7929 39.2137Z" fill="#8ECDFF"/>
<path d="M38.6396 39.4776L38.3618 39.4625L38.3906 39.639L38.5944 39.9333L38.7694 39.7416L38.6396 39.4776Z" fill="#8ECDFF"/>
<path d="M38.5085 39.1263L38.0557 38.9346L37.9683 38.4795L38.1432 38.4054L38.3184 38.7583L38.4933 38.8908L38.5085 39.1263Z" fill="#8ECDFF"/>
<path d="M38.0707 38.2004L37.8367 38.1416L37.7928 37.8475L37.5454 37.7602L37.7055 37.5986L37.9968 37.7012L38.2156 37.8341L38.0707 38.2004Z" fill="#8ECDFF"/>
<path d="M106.212 36.9747L106.446 37.2944L107.237 37.3003L107.157 36.863L106.212 36.9747Z" fill="#8ECDFF"/>
<path d="M78.0024 61.5747L78.3269 61.6742L78.2815 62.6011L78.6152 62.6464L79.3819 61.9559L80.3027 62.0553L80.547 61.4369L81.7122 60.3738L80.313 58.765L80.2948 58.5009L80.1407 58.4555L79.7163 58.8462L78.6145 58.8731L78.4601 60.2452L78.0272 60.3446L78.0024 61.5747Z" fill="#8ECDFF"/>
<path d="M78.3271 24.6422L78.5536 25.0146L78.463 25.3117L78.478 25.547L78.5611 25.8289L79.0291 25.5636L79.6104 25.5786L80.018 25.7459H81.0521L81.354 25.0235L81.5351 24.7507V24.5684L80.886 23.6562L80.3124 23.4285L79.8444 23.3757L79.4367 23.5053L79.452 23.9154L78.8861 24.6302L78.3271 24.6422Z" fill="#8ECDFF"/>
<path d="M32.1237 42.1496L32.1162 42.6998H32.243L32.6746 41.8948H32.3818L32.1237 42.1496Z" fill="#8ECDFF"/>
<path d="M25.1291 6.90601L25.4294 7.35988L25.5803 7.96604L26.3321 8.1546L26.8589 7.58769L27.3103 7.8155L28.5887 7.92836L29.4913 7.54984L29.6421 8.79826H30.169V8.26903L30.6958 8.30671L32.0121 9.85829L32.877 10.3877L32.4258 11.1069L32.6145 11.2955L34.3036 11.6361L34.3413 12.3932L34.7927 12.4687L34.9059 11.3331L35.6199 11.1447L36.1467 11.9395L37.2743 12.4687L37.8388 12.5816L38.2146 12.1277L38.2523 11.4083L38.9286 10.9919L39.1535 11.5983L38.5513 12.6583L38.6267 13.1874L38.9649 12.6583L39.6412 12.0521L39.6789 11.2574L39.3032 10.6511L39.4163 10.1597L40.3189 9.70566L40.7326 10.0088L40.808 12.6581L41.4466 12.0912L41.8224 12.3189L41.2956 13.2266L41.9719 13.3775L42.9501 11.8636L43.7773 12.7333L43.4392 14.2849L42.612 14.7389L41.8226 14.3606L40.3947 14.6634L40.5456 15.155L40.1698 15.7613L39.0046 16.0266L37.6883 17.0488L36.523 18.6006L36.3722 19.0919L37.1616 19.3949L37.462 20.1518L38.5518 21.2495L40.2816 22.0064L39.9058 23.7464L39.8681 24.2379L40.3194 24.5407L40.9217 23.7462L40.9972 22.2323L41.9375 22.1946L42.3887 21.3245L42.4643 20.0007L43.6673 17.6546L45.1706 18.1838L45.96 19.2815L45.6218 20.3791L46.224 20.7199L47.6898 19.7351L48.1033 22.4221L49.4573 24.049L49.495 24.8812L47.9917 25.2597L47.2779 26.0164L45.7746 25.6758L45.0228 25.6379L43.7066 26.6601L44.496 26.4715L45.4741 26.2831L45.6628 26.5108L45.4002 27.343L45.4379 28.1L45.8893 28.4029L46.3405 28.2898L46.5668 27.9492H46.8672L46.3781 28.8571L45.4377 28.8946L45.0242 29.5009H44.4974L44.3465 29.0469L45.0983 28.2902L44.1957 28.5932L44.155 27.3069L43.8953 27.1564L43.1059 27.497L43.0304 28.1409H41.2252L39.683 29.2014L37.6151 29.8831L37.3902 29.5799L38.4316 28.0271L37.84 27.4583L37.4642 26.7375L36.6989 26.1539L35.8778 26.086L34.4061 25.0562L23.733 23.3043L23.5565 22.5818L22.5782 21.6741V20.9172L22.7293 20.2357L22.6537 19.8575L22.2779 19.4788L22.2025 18.8727L23.1807 18.191L22.5784 14.9373L21.7513 14.8994L20.9995 13.9147L25.1291 6.90601Z" fill="#8ECDFF"/>
<path d="M21.4476 18.9306L21.1909 19.4222L21.28 19.7703L21.4474 19.8746L21.4081 20.0163L21.2285 20.0676L21.2798 20.5848L21.4729 20.7792L21.6269 20.612L21.4338 20.1084L21.5485 19.7074L21.8307 19.332L21.6255 18.9836L21.4476 18.9306Z" fill="#8ECDFF"/>
<path d="M22.296 21.877L22.0649 21.9677L22.4891 22.4592L22.5918 23.0411L23.0159 23.4933L23.3753 23.4285V22.8344L22.9391 22.5628L22.296 21.877Z" fill="#8ECDFF"/>
<path d="M45.4517 9.46167L45.1846 9.73152L45.4186 10.1024L46.5236 10.2367L45.8202 9.49498L45.4517 9.46167Z" fill="#8ECDFF"/>
<path d="M31.9985 4.98044L32.0317 5.5866L30.8271 6.83344L31.1291 7.84359L31.9985 7.60846L32.5011 6.86659L33.7719 6.39457L34.8088 6.32671L34.0058 5.45071L33.6043 5.7537L33.3024 5.65271L33.1349 5.28186L32.7667 4.91101L31.9985 4.98044Z" fill="#8ECDFF"/>
<path d="M33.5714 3.19514L33.3042 3.66716L34.6098 4.13918L35.0778 3.43185L35.2786 3.90404H35.6137L36.2492 3.19671L35.4793 2.99472L35.1773 2.75958L34.7759 3.16357L33.5714 3.19514Z" fill="#8ECDFF"/>
<path d="M35.8474 4.13879L34.8105 4.57627V4.91258L36.1494 5.41774L35.8474 5.75405L36.0483 6.19135L36.8845 5.82051H37.5879L37.923 6.35881L38.4921 5.7858L38.3576 5.24593L37.8896 5.41478L37.8233 4.74094L38.0572 4.33695H37.8233L37.455 4.57226L37.2875 4.7064L37.3886 5.17859L37.1215 5.38059L36.72 5.34745L36.6189 4.74111L35.8474 4.13879Z" fill="#8ECDFF"/>
<path d="M37.2193 3.09412L37.1182 3.43025L37.7536 3.73341L38.2216 3.46356L38.1884 3.26157L37.2193 3.09412Z" fill="#8ECDFF"/>
<path d="M37.7207 2.52112L37.2529 2.68997L37.2861 2.92545L38.323 2.8576L38.2898 2.62229L37.7207 2.52112Z" fill="#8ECDFF"/>
<path d="M39.9638 3.0941L39.8974 3.32924L39.73 3.56455V3.90103L40.3654 3.80004L41.0342 4.37305H41.2682V3.80004L40.5994 3.05817L39.9638 3.0941Z" fill="#8ECDFF"/>
<path d="M41.6709 3.76781L41.9381 4.07098L41.7041 4.47497L41.8715 4.91228L42.6081 4.50811V4.20529L42.1733 3.70013L41.6709 3.76781Z" fill="#8ECDFF"/>
<path d="M42.6416 2.99318L42.6748 3.53149H43.579L43.813 3.73348L43.7798 3.96862L42.9767 4.06979L43.5458 4.8448L44.3157 4.97911L45.3858 4.50727L43.8461 2.18207L43.3782 2.48523L43.4113 2.88922L42.8754 2.68723L42.6416 2.99318Z" fill="#8ECDFF"/>
<path d="M34.8437 6.80029L33.5728 7.1366L32.8361 7.7773L32.9025 8.48445L34.2413 8.88862L33.9394 9.56263L32.9688 8.95612L32.7017 9.46128L33.3371 9.89859L33.3039 10.6057L34.2745 10.8756L35.4458 10.8077L35.6464 10.4369L36.5159 11.4139L37.1181 11.2121L37.2192 10.5381L37.6541 10.8411L37.7204 10.167L37.1847 9.83073L37.2179 7.70927L36.7499 7.33842L36.2487 8.01243L34.8437 6.80029Z" fill="#8ECDFF"/>
<path d="M38.9269 8.2825L38.4923 8.0805L38.2583 8.38349L38.7263 9.12536L38.7595 9.83252L39.7633 9.22636V8.35035L40.1316 7.9795L39.7633 7.70966H39.1611L38.9269 8.2825Z" fill="#8ECDFF"/>
<path d="M41.0686 7.97931L40.3652 8.55232L40.5327 9.25948H40.9675L41.1681 8.88863L41.4701 9.19162L41.772 9.15848L42.5751 8.48447L41.0686 7.97931Z" fill="#8ECDFF"/>
<path d="M41.0005 6.86658L40.833 7.20289L41.5696 7.47291L41.7704 7.16974L41.0005 6.86658Z" fill="#8ECDFF"/>
<path d="M40.5659 5.58643L39.8293 5.68742L39.3945 6.09123L40.1976 6.12438L39.9636 6.73053L40.1311 7.00056L40.3651 6.96742L40.9342 6.05827L40.5659 5.58643Z" fill="#8ECDFF"/>
<path d="M41.8385 5.3515L41.437 5.48582L41.5034 6.02412L42.1722 6.46142L42.2053 6.79756L42.0047 6.99973L42.1058 7.67374L44.6823 8.51503L45.3857 8.75034L46.0891 8.14419L45.2528 7.47017L44.4829 7.67217L43.4128 7.57117L43.0114 7.16718L42.9103 6.05587L42.2415 5.71956L41.8385 5.3515Z" fill="#8ECDFF"/>
<path d="M43.9455 8.85532L43.209 8.78729L42.3396 9.12343L41.8716 9.7629L42.0059 11.5147L43.4444 11.5828L44.8164 12.2568L45.7871 13.3681L46.5236 13.335L46.3228 14.3782L45.6542 15.4896L44.9177 15.8255L44.3817 15.7247L44.1146 15.4896L43.7131 16.0279L43.8806 16.5662L44.4497 16.5991L45.153 16.2628L45.7553 17.8128L47.2616 18.7902L48.2985 17.4769L47.429 16.0626L47.9316 15.4897L48.635 16.6686L49.9058 15.5572L49.672 15.0521L48.8024 15.3221L48.2003 13.6709L48.7694 12.7284L47.6312 11.5163L46.9958 11.9536L46.3935 10.6403L45.1228 10.8092L44.7877 9.22599L43.7508 9.93332L43.6497 10.8092H43.0807L43.147 10.0341L43.9455 8.85532Z" fill="#C4E5FE"/>
<path d="M44.3816 5.6543V5.95746L43.645 6.12631L43.8457 6.46245L44.6819 6.79875L45.6193 6.89993L46.2882 7.37177L46.9569 7.00075L46.4887 6.5289H47.091L47.4592 6.12492L48.3634 5.9906V5.78861L47.8609 5.4523L47.9271 5.08128L49.3324 5.31642L51.4079 4.50827L50.6378 4.27313L50.8387 4.00328H52.4446L52.712 3.73343L49.4653 2.58757L48.6952 2.31773L47.8589 2.92406L46.9216 2.14905L46.419 2.11591L46.3179 2.75695L45.6827 2.18393L44.9461 2.41925L45.0804 2.79009L46.1854 3.02558L46.119 3.56388L46.7213 3.93455L48.1947 3.56388L48.2279 4.06904L47.0234 4.64206L46.2868 4.06904L45.618 4.1369L46.2868 5.08075L45.9517 5.24978L45.4492 4.8123L45.0809 5.04744L45.416 5.68691H45.9851L45.8508 6.29307L45.3828 6.22521L44.7806 5.58435L44.3816 5.6543Z" fill="#8ECDFF"/>
<path d="M41.3991 14.926L40.7605 15.7282L40.7212 16.6117L41.2796 16.2906H41.9573L42.4358 16.7324L42.875 16.3703L41.3991 14.926Z" fill="#8ECDFF"/>
<path d="M49.1739 25.3602L47.5786 26.8862L47.7386 27.248L49.6919 27.9703L49.9711 27.4892L49.8111 26.687L49.1725 26.7669L48.8134 26.3658L49.4111 25.7642L49.1739 25.3602Z" fill="#8ECDFF"/>
<path d="M75.1152 53.2033L76.6714 53.1763L76.9872 53.624L76.9751 53.9543L77.0912 54.0598H77.8641L78.086 53.6239H78.4017L78.5299 53.7533L78.9628 53.7413L79.0911 55.2613L79.8397 55.2855V55.4033L81.8515 56.3095L81.9451 56.486H82.3661L82.3193 55.8497L81.5587 55.4847L81.6057 55.0022L81.9333 54.2361L82.6819 54.2119L82.0387 52.0796L82.0506 51.1734L83.0679 49.5843L83.0798 49.3614L82.9272 49.2782L82.9333 48.847L82.7479 48.8304L82.5607 48.5922L79.4891 48.4535L78.9258 49.0009L78.0038 48.3947L77.6793 48.5937L77.444 50.5736L76.8613 51.0227L76.6861 51.421L76.7174 52.0107L75.6667 52.8686L75.3873 52.7419L75.425 52.9059L75.1152 53.2033Z" fill="#2BB3FF"/>
<path d="M76.0629 48.4294L76.7663 49.1893L77.0439 48.8305L77.4861 48.8486L77.5811 48.4987L78.0159 48.2273L78.9185 48.8486L79.4392 48.333L81.4602 48.4219L79.5855 46.4889L79.8375 46.3324L79.8721 45.9916L79.4463 45.7911H78.8212L77.8143 46.788L77.7799 47.1981L76.9814 47.1727L76.9559 47.3476L76.4352 47.2944L75.9658 48.1854L76.0629 48.4294Z" fill="#8ECDFF"/>
<path d="M75.3599 49.7066L75.3508 49.9255L76.0721 49.9437L76.0976 51.815L75.4381 51.7969L75.0562 51.4998L74.7606 51.6657L74.7469 51.7487L74.8994 51.8225L74.9432 52.207L74.5356 52.5569L74.6231 52.7412L75.0745 52.3913H75.2917L75.3609 52.6007L75.648 52.7227L76.5684 51.9448L76.5502 51.3763L76.7421 50.9135L77.3324 50.4762L77.4907 48.9972L77.0713 48.9988L76.5853 49.6637L75.3599 49.7066Z" fill="#8ECDFF"/>
<path d="M72.6292 28.1238L71.9707 28.8234L71.9843 28.8941L72.2545 28.8098L72.4977 29.1477L72.9084 29.0029L73.1922 29.2232L73.3086 29.1569L73.6588 28.6082L73.5695 28.5238L73.224 28.5149L73.0565 28.1724L72.6292 28.1238Z" fill="#8ECDFF"/>
<path d="M66.4646 48.8364L67.1102 48.3799L67.9134 48.2393L68.7329 48.416L68.3147 47.7842L68.1923 47.3982L68.3147 46.2567L67.5827 46.2912L67.2509 45.9748L66.5535 45.9929L66.2216 46.046L66.2561 46.8178L66.0812 46.8887L65.8711 47.275L66.4115 47.9065L66.4646 48.8364Z" fill="#8ECDFF"/>
<path d="M44.2715 77.0856L43.627 78.5001L44.7395 78.6176L44.759 77.6752L44.2715 77.0856Z" fill="#8ECDFF"/>
<path d="M44.0527 76.8639L43.5681 77.399L43.5092 78.0277L42.5719 77.4969L41.5757 76.0628L41.2828 75.5514L41.6934 75.0206L41.6541 74.3525L41.1861 74.1565L40.8149 73.8823L40.8933 73.5083L41.3808 73.371L41.4789 71.2103L40.7183 70.7777L40.2217 59.5307L40.35 59.3078L41.3221 61.5468L41.6331 61.5529L41.7342 61.9103L41.3206 62.4106L40.8451 65.1053L41.5214 67.1802L41.2088 68.7513L42.3107 73.3712L42.427 76.0731L43.2164 76.9853L44.0527 76.8639Z" fill="#006DCA"/>
<path d="M40.8363 71.2111L40.6416 71.5052L40.7397 72.0167L40.9344 72.0362L41.0326 71.3876L40.8363 71.2111Z" fill="#8ECDFF"/>
<path d="M73.3701 48.4641L73.8561 48.9108L73.8213 49.6014L76.4871 49.5397L76.7045 49.2956L75.9405 48.4739L75.8274 48.1768L76.3135 47.2677L75.983 46.6645L75.7051 46.5153V46.2092L76.0266 45.9995L76.0448 45.0466L75.7898 45.018L75.7856 45.5186L74.6656 47.6069L73.9802 47.6417L73.5109 47.9644L73.3701 48.4641Z" fill="#8ECDFF"/>
<path d="M102.439 25.2121L101.917 26.524L101.196 26.4862L100.437 28.1464L101.082 28.9664L99.7534 30.7987L99.0712 30.6839L98.6152 31.2569L98.7284 31.6007L99.2598 31.6386L99.5254 32.2491L100.057 32.3639L101.689 34.4641V35.5332L102.485 36.0293L103.358 35.877L104.458 36.5257L105.786 36.9072L106.431 36.8306L107.152 36.7537L108.669 35.7615L109.163 35.8383L109.352 36.286L109.77 36.4113L110.339 37.2508L109.96 38.0906L110.189 38.6636L110.833 38.8924L110.946 39.58L111.705 39.6566L111.818 39.3128L112.919 38.7398L113.601 38.7776L114.398 39.655L114.929 39.4262L115.27 39.4639L115.423 39.8846L115.689 39.9223L116.067 39.3885L117.584 38.8155L118.95 37.1736L119.406 35.6082L119.368 34.5769L118.799 34.4625L119.14 34.0808L119.064 33.4702L117.623 32.0199V31.2948L118.04 30.7607L118.457 30.5691L118.494 30.1484H117.432L117.242 30.7214L116.748 30.607L116.141 29.9585L116.52 28.9663L117.051 28.3933L117.545 28.4311L117.469 29.3087L117.735 29.5377L118.379 28.8894L118.607 28.8517L118.532 28.3556L119.139 27.6303L119.594 27.668L119.86 26.8284L120.171 26.6641L120.203 26.1408L119.901 25.8242L119.875 24.9981L120.457 24.9602L120.419 22.8297L120.011 23.0739L119.86 23.6199L119.18 23.6183L117.207 22.51L115.782 20.7941L114.336 20.7791L113.968 21.0988L114.436 22.1693L114.273 23.1737L113.691 23.4149L113.363 23.3893L113.339 24.3829L113.68 24.4598L114.287 24.1929L115.084 24.5744V24.956L114.514 24.9937L114.058 25.9859L113.642 26.0234L112.162 27.9701L110.608 28.6575L109.545 28.7345L108.825 28.2384L107.8 28.7735L106.7 28.4297L106.434 27.7044L104.576 27.5898L103.59 25.9871H103.173L102.838 25.2437L102.439 25.2121Z" fill="#2BB3FF"/>
<path d="M115.937 40.3054L115.577 40.4064L115.317 40.7261L115.533 41.1466L115.85 41.1751L116.211 40.8555L116.297 40.435L115.937 40.3054Z" fill="#8ECDFF"/>
<path d="M39.5455 44.7702L39.2345 44.7384L37.1787 46.4316L36.9613 47.0271L36.6805 47.0589L36.8057 48.3752L36.0889 50.1317L36.8677 50.7904L37.8654 50.8537L38.5507 51.8579L39.5469 51.8898L39.5151 52.642H39.8879L40.2923 51.2624L39.9179 50.7925L40.0115 49.9149L40.7903 49.8516L40.6967 47.8128L38.9518 47.249L38.5473 46.1513L39.5455 44.7702Z" fill="#8ECDFF"/>
<path d="M34.0588 45.554L34.2687 45.9643L34.4393 46.1905L34.2098 46.8705L33.7721 46.5628L33.0566 45.9083V45.4757L34.0588 45.554Z" fill="#8ECDFF"/>
<path d="M34.5825 39.8154V40.0073L35.3856 40.0223L35.7643 39.8019L35.8232 39.9635L36.6111 40.155L37.3115 40.7868L37.1514 41.0069L37.1802 41.2574L37.7643 41.4038L38.3484 41.1397L38.611 40.8758L38.2322 40.6842L36.2776 39.5384L35.5923 39.4644L34.5825 39.8154Z" fill="#8ECDFF"/>
<path d="M59.7462 43.377L59.4595 43.5413L59.6647 43.7054L59.9107 43.5819L59.7462 43.377Z" fill="#8ECDFF"/>
<path d="M60.4512 43.7086L60.2642 43.8744L60.3972 44.1202L60.7171 43.977L60.4512 43.7086Z" fill="#8ECDFF"/>
<path d="M60.0419 44.1744L59.8018 44.3177L60.06 44.6629L60.264 44.5561L60.0419 44.1744Z" fill="#8ECDFF"/>
<path d="M83.2403 34.2244L83.4257 34.3589L82.8505 34.903L82.5759 34.8939L82.3721 34.7507L82.3993 34.484L82.816 34.4569L83.2403 34.2244Z" fill="#8ECDFF"/>
<path d="M74.9714 27.4436H75.4196H75.6402L75.998 27.6985L76.6607 27.1481L76.0175 26.6899L75.3805 26.382L74.9443 26.4605L74.3525 26.8404L74.9714 27.4436Z" fill="#8ECDFF"/>
<path d="M72.3621 24.8817L72.9009 24.7945V24.4146L73.3522 24.3405L73.5998 24.5894L73.8608 24.618L74.2684 24.4414L74.6321 24.544L74.952 24.8217L74.9959 25.8605L75.3158 26.2857L74.8947 26.3445L74.1957 26.7832L74.2548 26.9296L74.8797 27.5146L74.8359 27.8071L74.2548 28.0997L73.7161 28.1147L73.5846 28.392H73.3085L73.1772 28.0997L72.6972 27.9819L72.6818 27.4993L72.4391 27.365L72.459 27.0403L72.3881 26.8087L72.042 26.4905L72.1143 25.9927L72.4916 25.8163L72.3621 24.8817Z" fill="#006DCA"/>
<path d="M73.2114 22.4121L72.5852 23.1043L72.5625 23.555L72.848 24.2986L73.2949 24.2142L73.2392 23.6066L73.5472 23.2628L73.5413 22.9928L73.3238 22.4306L73.2114 22.4121Z" fill="#8ECDFF"/>
<path d="M73.5355 23.6816L73.3501 23.7216V23.9977L73.5471 24.1503L73.7212 24.1067L73.6787 23.8446L73.5355 23.6816Z" fill="#8ECDFF"/>
<path d="M74.1162 23.4189L73.9505 23.4591L73.7661 23.6279L73.8443 23.9688L74.0699 24.0572L73.837 24.1505L73.7925 24.27H74.1426L74.2477 24.0783L74.1136 24.0124L74.1573 23.8446L74.3172 23.6344L74.2736 23.4526L74.1162 23.4189Z" fill="#8ECDFF"/>
<path d="M87.5075 45.0353L87.4214 45.5417L88.0193 45.5326L88.0284 44.7876L87.8096 44.6533L87.5075 45.0353Z" fill="#8ECDFF"/>
<path d="M43.3702 42.5234L43.2373 42.8053L43.3974 43.0195L43.5967 42.8461L43.3702 42.5234Z" fill="#8ECDFF"/>
<path d="M40.9612 41.8539L40.1627 41.3322L39.6585 41.1541L39.5576 42.1172L39.6585 42.109L39.7914 42.3638L39.965 42.1632L40.4707 42.0289L40.91 42.1224L40.9612 41.8539Z" fill="#8ECDFF"/>
<path d="M72.7754 33.8703L72.1597 33.6635L69.5968 34.1445L69.0383 34.5682L69.3794 36.3279L68.3605 36.3686L67.7477 37.3534L66.2881 37.7032L66.2925 38.4192L71.1001 42.0907L71.9194 42.1601L74.6529 40.0266L74.3796 39.6828L73.8666 39.6134L73.5586 39.0979V36.9641L73.353 36.7576L73.3878 36.2072L72.8412 35.6569L72.7733 35.0718L73.0118 34.8998L72.9088 34.2801L72.7754 33.8703Z" fill="#8ECDFF"/>
<path d="M35.9935 50.2088L35.2797 50.652L35.2283 51.3098L35.085 51.5251L35.5348 51.9564L35.3401 52.1691L35.3853 52.7121L36.1898 52.9036L37.4079 51.4635L37.405 50.9615L36.8209 50.9238L35.9935 50.2088Z" fill="#006DCA"/>
<path d="M30.6759 50.5599L30.5823 50.9747L30.4087 51.1495L30.528 51.3637L30.8342 51.2434L30.9806 50.9885L30.887 50.7204L30.6759 50.5599Z" fill="#8ECDFF"/>
<path d="M79.3996 21.23L78.5545 21.1998L78.0187 21.5269L78.0112 21.7697L78.3582 22.0968L79.4377 22.2794L79.3996 21.23Z" fill="#8ECDFF"/>
<path d="M77.5966 21.3596L77.3682 21.4364L77.5966 21.4758L77.7005 21.5962L77.8246 21.4475L77.7008 21.2356L77.5966 21.3596Z" fill="#8ECDFF"/>
<path d="M77.6938 21.6649L77.3686 21.8102L77.2563 22.004L77.3686 22.1299L77.7811 21.9773L77.9796 21.8461L77.6938 21.6649Z" fill="#8ECDFF"/>
<path d="M80.0283 36.2178L80.4313 36.2286L81.2163 36.4456L81.5891 36.4563L82.0511 36.0703H82.2666L82.6593 36.2874H83.1561L83.2452 36.2813L83.5591 37.1831L83.6482 37.4741L83.7315 37.9098L83.5831 38.0183L83.3279 37.8903L83.0335 36.9313L82.7679 36.9119L82.7485 37.2376L82.9253 37.8013L84.3397 39.5504L84.3699 40.3013L83.958 40.7763L80.0879 40.7325L80.0283 36.2178Z" fill="#8ECDFF"/>
<path d="M85.278 44.004L85.2402 43.1157L85.838 42.4193L85.9997 42.543L86.2941 43.5263L87.7069 44.5769L87.4502 44.8923L86.4161 44.0042L85.278 44.004Z" fill="#8ECDFF"/>
<path d="M68.9235 30.479H67.0002L66.6122 30.3038L66.4252 30.3174L66.1987 30.7877L66.2787 31.2718L67.0139 31.3396L67.1075 31.6485L66.7874 33.4504L66.801 33.7733L67.3215 34.0554L67.9221 34.0958L69.1236 33.8004L69.7109 33.062L69.7243 32.3096L70.7659 31.3686L70.8186 30.9524L69.8708 30.9388L68.9235 30.479Z" fill="#8ECDFF"/>
<path d="M63.9815 37.8265L63.7173 37.9788L63.8395 38.1024L63.9815 37.8265Z" fill="#8ECDFF"/>
<path d="M63.0637 37.855L62.7363 37.9381L62.8996 38.1854H63.1453L63.0637 37.855Z" fill="#8ECDFF"/>
<path d="M62.2849 37.6079L62.0796 37.8144L62.3665 38.0618L62.5298 37.6909L62.2849 37.6079Z" fill="#8ECDFF"/>
<path d="M70.8465 32.3201L70.6064 32.4016L70.6595 32.617H71.0067L71.1532 32.4557L70.8465 32.3201Z" fill="#8ECDFF"/>
<path d="M84.1882 46.5764L85.2869 44.1335L86.3783 44.1396L87.3459 44.9793L87.2778 45.6715H88.028L88.1048 46.0877L89.3184 46.8128L90.0668 46.8506L88.6437 48.378L86.689 48.9796H86.2047L85.3414 48.2437L85.0004 48.1006L84.3393 47.128L83.9029 47.1341L83.8516 46.6877L84.1882 46.5764Z" fill="#8ECDFF"/>
<path d="M77.7426 17.2011L78.0552 17.3382L78.248 17.7L78.0552 17.9504L77.086 19.0089L76.9198 19.5669L77.1417 20.3751L77.8888 20.9331L78.8851 20.4595L79.6881 20.3479L80.4352 19.1492L79.8812 17.8388L79.3542 16.5843L79.4375 15.7761L79.1055 15.7203L79.0196 15.1307L78.5728 14.4025L78.0775 14.7447L77.883 15.5394L77.3577 15.2242L76.627 15.0461L76.4639 15.2363L76.7445 15.4897L77.2563 15.4805L77.6682 16.1454L77.7426 17.2011Z" fill="#8ECDFF"/>
<path d="M47.7294 76.1931L47.3325 76.1495L46.937 76.4148L47.2237 76.7255L47.7294 76.1931Z" fill="#8ECDFF"/>
<path d="M48.1248 75.994L47.9935 76.4145L47.6191 76.7461L47.6418 76.8562L48.2801 76.612L48.5443 76.2804L48.1248 75.994Z" fill="#8ECDFF"/>
<path d="M70.7406 26.5134L70.4071 26.5949L69.7401 27.3202L69.5394 27.3338L69.2723 27.1452L69.0989 27.1859L68.9658 27.6021L67.9907 27.6291L68.018 27.8447L68.685 28.2883L69.4594 28.9063L69.446 29.6452L69.0325 30.3703L69.9276 30.8001L70.8363 30.827L71.1168 30.5043L71.6906 30.5179L71.8505 30.6658L72.4241 30.6252L72.7185 30.248L72.344 29.8048L72.3169 29.5229L72.3969 29.214L72.2099 28.9456L71.8898 29.0389L71.8493 28.7976L72.5572 28.0181V27.5476L72.1472 27.4139L71.8971 27.2417L70.7406 26.5134Z" fill="#2BB3FF"/>
<path d="M46.851 48.0903L47.7343 48.6405L47.2722 49.5571L47.1048 49.7682L46.6143 49.4865L46.628 48.4987L46.851 48.0903Z" fill="#8ECDFF"/>
<path d="M92.926 60.2388L92.5816 60.2613L92.5591 60.5616L92.7884 60.6086L93.1327 60.4472L92.926 60.2388Z" fill="#8ECDFF"/>
<path d="M88.8809 56.0063L88.9954 56.2612H89.1796L89.2715 55.9373L88.8809 56.0063Z" fill="#8ECDFF"/>
<path d="M43.8227 43.2999L43.6626 43.4476L43.7819 43.6889L44.0082 43.6226L43.8227 43.2999Z" fill="#8ECDFF"/>
<path d="M73.3713 30.7745L73.0767 31.0701L73.0498 31.3384L73.2897 31.4862L73.3833 31.4729L73.4362 31.0822L73.3713 30.7745Z" fill="#8ECDFF"/>
<path d="M42.9973 42.2957L42.771 42.389L42.851 42.5894L43.1166 42.416L43.0637 42.3618L42.9973 42.2957Z" fill="#8ECDFF"/>
<path d="M74.6636 49.7232L74.6454 50.0984L73.7942 50.0802L73.2734 51.086L74.4979 52.4234L74.801 52.1699L74.7919 51.9078L74.5838 51.8111V51.6268L75.0532 51.33L75.47 51.6452L75.9306 51.6543L75.9212 50.0727L75.192 50.0385L75.1829 49.7066L74.6636 49.7232Z" fill="#8ECDFF"/>
<path d="M68.5855 22.0472L68.3092 22.465L68.4194 22.6322H69.0564V22.9113L68.8902 23.1343L69.0006 23.7193L69.3599 24.416L69.636 25.0565L70.0783 25.2238L70.2713 25.5587L70.2442 25.8648L69.9679 26.0321L69.9407 26.1708L70.1338 26.2824L69.9678 26.5055L69.5799 26.6728L68.8327 26.5896L67.6691 27.119L67.2812 26.9245L68.3892 26.2837L68.2502 26.2005L67.6691 26.1446L68.0284 25.6156L68.0841 25.169L68.5549 25.1134L68.472 24.2494L67.9177 24.2224L67.7519 24.0279L67.7789 23.387L67.447 23.4142L67.7789 22.2999L68.3887 21.8534L68.5855 22.0472Z" fill="#006DCA"/>
<path d="M67.4234 23.9152L66.9252 23.971L66.8979 24.4176L67.2299 24.6405L67.5893 24.5577L67.7283 24.3072L67.4234 23.9152Z" fill="#8ECDFF"/>
<path d="M85.0894 30.3524L85.583 30.9962L86.1989 31.2796L86.5776 31.2779L87.2283 31.1017L87.3915 30.8469L85.4671 30.1277L85.0894 30.3524Z" fill="#8ECDFF"/>
<path d="M68.3169 47.3741L68.4859 47.7706L68.9267 48.4612L69.1711 48.4521L69.838 48.0734L69.7912 45.9185L69.2749 45.7678L68.5518 45.7873L68.3169 47.3741Z" fill="#8ECDFF"/>
<path d="M49.719 7.11814L49.5137 7.44554L49.8835 7.81482L49.719 8.18427L50.2534 8.88096L50.9101 8.67583L51.772 8.59454L52.7576 9.6605L53.4143 11.423L52.8816 12.5298L53.6197 12.4063L54.0307 12.652L54.0712 13.1858L53.1688 13.2265L53.6609 13.7178L54.2766 13.8415L52.9226 15.645L52.7581 16.7518L53.045 17.6534L52.8397 18.1872L53.2095 19.3346L53.9068 20.1141L54.1121 20.0737L54.5633 19.95L54.604 20.6059L54.8907 21.0161L55.4237 20.9753L55.8346 19.4586L57.0662 17.9416L58.9138 17.2042L60.0625 15.7688L60.595 16.0144H61.703L62.6058 15.113L63.7139 14.6622L63.8376 13.9655L63.1403 13.3503L62.5246 13.1453L62.1954 12.2842L62.9758 11.8334L64.2076 12.4893L64.6185 12.0386L63.9617 11.6693L65.358 9.78313L65.1119 8.96294L64.4552 8.92248L64.7011 8.18497L65.5223 7.81552L67.2051 6.33964L66.7134 5.80709L64.825 5.97123L63.8393 6.95608L64.4147 5.68499L63.7578 5.52067L63.3881 6.17672L62.8553 5.7258L61.3773 5.88994L61.7882 5.23407L64.2093 5.15261L63.5934 4.33243L60.9672 3.84105L59.9002 4.00519L59.9409 4.53913L58.833 4.16968L58.8735 3.80023L58.0929 3.96437L57.9284 4.37481L58.7497 4.66123L57.8877 5.27646L57.2719 4.57978L56.4099 4.33417L56.2861 4.99004H55.424L55.0949 4.29336L53.7409 4.08822L53.0026 4.45749L52.9619 4.94905L52.0186 4.82538L51.4434 5.07115L51.4843 5.64556V5.93233L50.4172 6.13747L49.9251 5.81005L49.5959 6.34242L50.0882 6.87619L51.1146 6.75252L51.1961 7.08133L50.4158 7.45078L49.719 7.11814Z" fill="#8ECDFF"/>
<path d="M53.0036 13.5143L53.2496 13.8839L53.126 14.3346H52.8799L52.5508 13.965L52.6323 13.6784L53.0036 13.5143Z" fill="#8ECDFF"/>
<path d="M63.2648 12.4891L63.962 12.6943L63.9212 13.2687L63.1831 12.8992L63.0186 12.6941L63.2648 12.4891Z" fill="#8ECDFF"/>
<path d="M62.6639 44.553L62.6445 44.7202L63.6888 44.7052L63.7418 44.5498L63.7191 44.3932L63.4186 44.5153L62.6639 44.553Z" fill="#8ECDFF"/>
<path d="M63.1968 46.0004L63.6559 46.7062L64.2536 46.1874L64.8667 46.1604L65.3769 46.8374L65.81 47.1226L65.9729 46.8058L66.1178 46.7245L66.1072 46.028L65.819 45.2017L64.9346 45.2997L63.8403 45.2124L63.8343 45.4925L63.1968 46.0004Z" fill="#8ECDFF"/>
<path d="M73.2225 48.9362L73.1533 49.2332L73.3613 49.3463L73.5609 49.1971L73.4916 48.891L73.2225 48.9362Z" fill="#8ECDFF"/>
<path d="M73.8488 49.7321L73.8394 49.9418L74.5246 49.9763L74.5155 49.7398L73.8488 49.7321Z" fill="#8ECDFF"/>
<path d="M77.7311 32.3787L77.7144 32.5793L78.4134 32.9306L78.7471 33.0587L78.5719 33.2427L78.1825 33.2823L78.1268 33.4585L78.2614 33.7616L78.6976 33.9936L78.888 34.0104L78.9121 33.4904L79.1976 33.1464L78.4188 32.2268L78.5216 31.9147L78.7043 31.9072L78.9821 32.1303L79.1571 32.0429L79.2128 31.7307L79.8645 31.8238L80.0625 31.2589L79.7214 31.4987L78.7207 31.4743L78.0701 31.8108L77.7311 32.3787Z" fill="#8ECDFF"/>
<path d="M79.2478 34.3374L79.4936 34.3449L79.5965 34.4972H79.9544L80.1924 34.4098L80.2726 34.5063L80.1142 34.7142L79.4154 34.7384L79.2883 34.5711L79.1538 34.4913L79.2478 34.3374Z" fill="#8ECDFF"/>
<path d="M30.6626 43.5245L31.5577 44.179L32.4603 43.0586L32.3065 42.8265L31.9984 42.8156V42.1596L31.7676 42.0193L31.0688 42.2273L31.3359 42.8423L30.6626 43.5245Z" fill="#8ECDFF"/>
<path d="M62.9219 45.4862L63.1333 45.904L63.7264 45.3943L63.7325 45.2375L63.0335 45.1365L62.9219 45.4862Z" fill="#8ECDFF"/>
<path d="M44.273 46.9337L45.3628 47.9196L44.9296 48.4202L44.8948 48.7172L45.4639 49.3037L45.4503 49.8675L44.4602 50.2442L43.867 49.4436L43.9938 48.4816L43.7402 47.7655L44.273 46.9337Z" fill="#8ECDFF"/>
<path d="M32.5749 43.1114L33.9696 43.0586L34.3833 43.55L34.1252 43.491L33.6286 43.5121L32.9795 44.1212L32.7019 44.738L32.5192 44.6412L32.5177 43.9658L32.1162 43.6974L32.5749 43.1114Z" fill="#8ECDFF"/>
<path d="M76.0571 28.9952L75.5244 29.4339H74.9839L74.9189 29.8139L75.1666 29.8787L75.2904 29.6947L75.4849 29.8651L75.6405 30.408L76.7072 30.9056L76.8129 30.7851L75.7308 29.6694L75.8409 29.466L76.8691 29.4266L76.9732 29.0994L76.303 29.1187L76.0571 28.9952Z" fill="#006DCA"/>
<path d="M39.112 41.091L39.6313 41.1453L39.5695 41.7816L39.5181 42.1163L38.9129 42.0832L38.8057 42.2447L38.6201 42.2313L38.5537 41.8829L39.1921 41.8299L39.1528 41.4683L38.86 41.3478L39.112 41.091Z" fill="#8ECDFF"/>
<path d="M76.2259 28.1569L76.0508 28.4313L76.0644 28.8504L76.3436 28.9935L77.2026 29.0191L78.3994 28.0119L78.4054 27.7888L78.2758 27.7241L77.4109 28.1163L76.2259 28.1569Z" fill="#8ECDFF"/>
<path d="M110.3 47.4524L110.258 47.7962L111.283 49.5165H111.581L113.717 53.0856L114.572 53.1714L114.999 51.9245L114.315 51.4947L114.187 50.8073L110.3 47.4524Z" fill="#8ECDFF"/>
<path d="M120.42 52.208L120.762 52.6259L120.54 53.2532V53.3725H121.044L121.222 51.8045L121.385 51.8499L121.681 53.2823L121.963 53.358L122.23 52.7454L121.963 51.8195L121.741 51.4166L122.438 50.9088L122.275 50.6841L121.608 51.1167H121.43L121.104 50.6388L121.208 50.4293L121.758 50.1608L122.588 50.4143L122.84 50.3987L123.463 49.817L123.211 49.5639L122.633 50.0113H122.261L121.698 49.7431L121.299 49.7581L120.853 50.4743L120.571 51.7136L120.42 52.208Z" fill="#8ECDFF"/>
<path d="M124.143 49.402L123.86 50.0884L124.305 50.6705H124.454L124.647 50.2828L124.751 50.1484L124.558 49.9389L124.276 49.8348L124.143 49.402Z" fill="#8ECDFF"/>
<path d="M125.018 51.6564L124.41 51.7908L124.232 51.9852L124.38 52.2387L124.78 52.0896L125.032 51.9404L125.403 52.239L125.566 52.1046L125.271 51.7457L125.018 51.6564Z" fill="#8ECDFF"/>
<path d="M114.932 53.597L114.517 53.8804L114.606 54.1184L115.927 54.417L116.594 54.5363L116.876 54.8349L117.632 54.8951L117.989 55.1936L118.315 55.1182L118.612 54.8498L118.062 54.5965L117.588 54.1939L116.357 53.8951L114.932 53.597Z" fill="#8ECDFF"/>
<path d="M119.249 54.895L118.924 55.0744L119.117 55.284L119.591 55.1048L119.249 54.895Z" fill="#8ECDFF"/>
<path d="M119.812 54.7608L119.871 55.0443L120.212 55.1333L120.345 54.9689L120.197 54.7443L119.812 54.7608Z" fill="#8ECDFF"/>
<path d="M120.629 55.5072L120.214 55.5677L120.585 55.8814H120.881L120.629 55.5072Z" fill="#8ECDFF"/>
<path d="M120.746 55.0143L120.657 55.1934L121.324 55.2974L121.844 54.9989L121.548 54.9098L121.074 55.0443L120.896 54.895L120.746 55.0143Z" fill="#8ECDFF"/>
<path d="M122.928 55.1196L122.157 55.7621L122.231 55.9264L122.556 55.8662L122.941 55.5071L123.698 55.4029L123.55 55.1496L122.928 55.1196Z" fill="#8ECDFF"/>
<path d="M126.821 50.7349L126.191 50.8057L125.787 51.101L125.955 51.439L126.64 51.5657V51.6925L126.207 52.044L126.417 52.7752L126.626 52.7888L126.807 52.071H127.143L127.283 52.7735L128.918 54.1246L128.96 55.1801L129.518 55.7849L129.77 55.7715L129.826 52.044L128.876 51.3838L127.981 51.9885L127.66 52.186L127.128 51.8481L127.115 50.7792L126.821 50.7349Z" fill="#8ECDFF"/>
<path d="M119.235 48.4822L118.887 49.791L116.995 50.4287L116.429 49.7652L116.155 49.8407L116.668 51.8188L117.436 51.9048L118.461 52.2924V52.68L118.93 52.594L119.614 51.6486V50.875L119.999 50.1013L120.426 50.187L119.913 49.112L119.834 48.4198L119.235 48.4822Z" fill="#2BB3FF"/>
<path d="M67.5875 24.6813L67.4503 25.5861L66.2323 26.0327H65.8441L65.5679 25.8382V25.6707L66.1776 25.2803L66.0116 24.9454L66.0388 24.472L66.5658 24.499L66.8073 23.9321L66.7754 24.4357L67.1847 24.7598L67.5875 24.6813Z" fill="#8ECDFF"/>
<path d="M83.5587 35.4637L83.3203 36.2222L83.6296 37.1315L83.9842 35.803V35.5182L83.5587 35.4637Z" fill="#8ECDFF"/>
<path d="M102.526 46.7651L103.217 46.4271L103.628 44.9435L103.61 43.1223L105.962 40.586V39.9847L106.446 39.7962L106.428 39.1012L105.905 38.0865L106.204 37.5421L106.858 38.1438L107.697 38.1814V38.5195L107.436 38.8014L107.492 38.9519L107.94 38.9701L108.034 39.4766H108.165L108.502 38.875L108.669 37.2978L109.229 36.9027L109.247 36.3584L109.024 35.9257L108.669 35.9075L107.281 36.8243L107.368 37.4139L106.393 37.4106L106.049 36.9902L105.862 37.0143L105.925 37.5994L103.817 37.4488L102.51 36.8667L102.44 36.1505L101.569 35.6108L101.559 34.4995L100.961 33.8164L99.5874 33.9476L99.7367 34.5448L100.41 35.0891L99.2458 37.4685L98.467 37.5273L98.3388 37.8141L99.1058 38.5226L99.0681 39.2387L98.2847 39.2266L98.2002 39.5825L98.851 39.5539L98.8692 39.8358L98.4028 40.08L98.7015 40.6437L99.2799 40.8321L99.6345 40.5698L99.802 40.1009L100.008 40.0076L100.251 40.2514L100.177 40.8531L100.009 41.1351L100.047 41.6235L102.526 46.7651Z" fill="#8ECDFF"/>
<path d="M86.425 33.4993L86.1896 34.6617L85.2144 35.4729L85.2762 35.8557L86.2287 35.9204L87.7458 37.1537L88.594 37.1296L88.6167 36.8446L88.9275 36.5114L89.3623 36.7572L89.4197 36.7028L88.5789 35.5855L88.1805 35.5613L87.6508 34.8813L87.7563 34.3811L87.918 34.36L87.9737 34.1383L87.2522 33.3798L86.425 33.4993Z" fill="#2BB3FF"/>
<path d="M87.231 32.4316L87.0464 32.6231L87.0645 32.9263L87.294 33.2476L88.1074 34.1374L87.9836 34.4932H87.8418L87.7709 34.849L88.2314 35.4371L88.6557 35.4732L89.5052 36.6475L89.9823 36.6837L90.3535 36.9504L90.3717 37.4846L91.8404 38.3393H92.3885L92.725 38.0543L93.1493 38.0361L93.397 38.6062L94.9834 38.8263L95.0305 38.2442L95.5556 38.0543L95.5799 37.8462L95.1617 37.2761L94.2302 36.5283L94.7194 36.0835L94.6848 35.8874L94.0717 35.7926L93.8122 33.7267L93.782 33.2517L92.12 32.6166L91.3834 32.7825L90.9713 33.2877L90.606 33.2634L90.5005 33.3526L89.6868 33.2997L88.6604 32.5517L88.2783 32.1342L88.1032 32.176L87.7875 32.5364L87.231 32.4316Z" fill="#8ECDFF"/>
<path d="M62.5838 17.2567L62.2881 17.0894L61.8895 17.3411L61.5469 17.6575L61.556 17.8342L61.9997 17.8899L61.9724 18.2065L61.8156 18.3649L61.8535 18.4674L62.2972 18.496V19.0085L62.9356 19.1203L63.3146 19.3347L63.7401 19.3529L64.4711 18.9895L65.0352 18.2445L65.0445 17.7409L64.7017 17.4514L64.415 17.2086L64.2853 17.3021L64.0906 17.5538L63.8686 17.5251L63.6467 17.2822L63.3599 17.3094L62.9433 17.6546L62.6924 17.9244L62.5536 17.8041L62.5443 17.5054L62.6831 17.4119L62.5838 17.2567Z" fill="#8ECDFF"/>
<path d="M72.5324 29.27L72.439 29.5065L72.4645 29.7643L72.825 30.185L73.3926 30.1653L74.6455 31.6191L75.4276 31.8453L75.8896 32.281L75.9998 33.2744L76.2472 33.13L76.4619 32.5886L76.409 32.1997L76.7758 32.1666L76.8289 31.9463L75.7948 31.4519L74.8136 30.4886L74.4228 29.9124L74.3277 29.3652L74.8272 29.2459L74.6991 28.8855L74.3926 28.6277L74.1284 28.6157L73.7603 28.7168L73.4128 29.2019L73.2031 29.3406L72.8787 29.1416L72.5324 29.27Z" fill="#8ECDFF"/>
<path d="M75.5767 33.1959L75.3579 33.0784L74.6108 33.1959L74.6363 33.3979L75.3081 33.7358L75.4092 33.8459L75.5859 33.8715L75.5767 33.1959Z" fill="#2BB3FF"/>
<path d="M73.3309 31.7426L72.9312 31.9445L72.9841 32.7241L73.3041 32.7783L73.5441 32.5495V31.8108L73.3309 31.7426Z" fill="#8ECDFF"/>
<path d="M37.3114 41.7258L36.7861 41.8585V42.005L37.0926 42.1814H37.4141L37.6178 41.9461L37.3114 41.7258Z" fill="#8ECDFF"/>
<path d="M84.0989 35.8741L83.7277 37.1677L83.7109 37.3653H84.2952L84.9488 36.7891L84.9652 36.5706L84.6982 36.2978L85.1765 35.9014L85.1074 35.5336L84.976 35.5637L84.5776 35.8489L84.0989 35.8741Z" fill="#8ECDFF"/>
<path d="M122.488 32.2008L122.242 32.4482L122.343 32.7963L122.559 32.8113L122.704 33.567L122.877 33.7554L123.181 33.4794L123.207 32.6468L122.858 32.2762L122.488 32.2008Z" fill="#8ECDFF"/>
<path d="M123.776 31.5022L123.311 31.8783L123.208 32.3526L123.524 32.5706L123.983 32.0909L124.047 31.5568L123.776 31.5022Z" fill="#8ECDFF"/>
<path d="M123.239 30.7774L122.502 31.6203V32.0253L122.957 31.9709L123.67 31.3443L124.147 31.2568L124.263 31.3927L124.265 31.8073L124.385 32.0253H124.605L124.912 31.6489L125.042 31.1542L125.662 31.1392L126.269 30.4125L125.953 29.2061L125.808 28.567L126.125 28.3061L125.403 27.2174L125.238 27.0876L124.911 27.2174L124.827 27.6682V28.0315L125 28.2351L125.058 29.1941L124.61 29.746L124.351 29.5861L124.149 30.0368L124.105 30.4575L124.264 30.7049L124.163 30.8933L123.83 30.6173H123.6L123.398 30.7335L123.239 30.7774Z" fill="#8ECDFF"/>
<path d="M124.481 24.2123L124.25 24.416L124.366 24.8518L124.569 25.0551L124.554 25.7232L124.294 25.824L124.092 26.2748L124.683 27.0875L125.073 26.9563L125.145 26.7527L124.727 26.3758L124.987 26.041L125.261 26.0847L125.86 26.4867L125.925 26.036L126.209 25.5163L126.608 25.1131L126.176 24.9168L126.012 24.6027L125.796 24.7474L125.609 24.9796L125.204 24.8922L124.786 24.6163L124.481 24.2123Z" fill="#8ECDFF"/>
<path d="M126.659 23.7615L126.254 24.3284L126.283 24.6044L126.485 24.5168L126.961 23.9213L126.659 23.7615Z" fill="#8ECDFF"/>
<path d="M127.194 22.9337L127.049 23.3258L127.064 23.5867L127.31 23.4266L127.541 22.9623V22.7889L127.194 22.9337Z" fill="#8ECDFF"/>
<path d="M84.3907 48.802L84.7924 49.5842L84.3106 50.593L84.2476 50.8989L86.6521 52.3844L87.3979 51.2143L87.0205 50.9083L87.013 49.3672L87.4854 48.8516L86.7322 49.1019L86.1631 49.1096L85.2726 48.3586L84.9918 48.2379L84.4714 48.2861L84.3796 48.4401L84.3907 48.802Z" fill="#8ECDFF"/>
<path d="M97.3684 29.6057L97.3216 29.9874L97.3594 30.2229L98.6727 30.663L97.5195 31.1273L97.3883 31.0186L97.1392 31.1786L97.151 31.266L97.2839 31.3263L98.0933 31.3474L98.5038 31.2238L99.0308 30.5604L99.6902 30.6748L100.486 29.574L98.3577 29.2844L98.0632 29.9975L97.6918 29.5996L97.3684 29.6057Z" fill="#8ECDFF"/>
<path d="M113.017 44.7232L113.634 45.3819L114.782 44.5315L114.883 43.1898L114.29 43.5985L113.982 43.4266L113.564 43.3708L113.33 43.2067L113.216 43.2128L112.91 43.7148L112.96 43.9471L113.271 44.1205L113.233 44.5924L113.017 44.7232Z" fill="#8ECDFF"/>
<path d="M88.4448 55.5436L88.514 55.774L88.8127 55.8209L88.9273 55.5209L88.4448 55.5436Z" fill="#8ECDFF"/>
<path d="M118.723 28.8611L119 28.9773L119.085 29.9482L119.636 29.9801L120.155 29.3726L119.975 29.2128L119.996 28.5614L120.473 27.9853L120.23 27.5481L120.389 27.3669L120.476 26.9148L120.2 26.7894L119.964 26.9087L119.673 27.792L119.202 27.7515L118.657 28.3938L118.723 28.8611Z" fill="#8ECDFF"/>
<path d="M120.241 29.4535L121.174 30.2133L121.332 30.9494L121.3 31.3443L120.845 31.857L120.452 31.8779L120.007 30.9175L119.838 30.4589L120.017 30.3202L119.975 30.1285L119.753 30.0293L120.241 29.4535Z" fill="#8ECDFF"/>
<path d="M89.29 36.8374L88.9504 36.6532L88.7148 36.8897L88.7403 37.3633L89.2885 37.5728L89.29 36.8374Z" fill="#8ECDFF"/>
<path d="M88.2938 28.0092L88.9126 27.7452L89.6039 27.721L89.6521 28.7765H89.2475L88.9381 29.2803L89.3427 29.9513L89.9389 30.2876L89.9932 30.6722L90.2123 30.5997L90.4144 30.3598L90.7479 30.4324L90.9155 30.7687H91.3442V30.3373L91.0816 29.5698L90.9621 28.9473L91.7242 28.6108L92.749 28.7781L93.3923 29.425L94.8457 29.2818L95.6566 30.4326L96.6092 30.4804L96.8718 30.0492L97.2053 29.9766L97.2532 29.4973L97.7529 29.473L98.0154 29.7851L98.2782 29.1623L100.541 29.4744L100.921 28.9708L100.278 28.1794L101.135 26.3097L101.827 26.3576L102.304 25.2074L101.351 25.1108L100.803 24.5833L99.2936 24.7581L97.3494 22.8808L96.6638 23.4882L94.5855 22.5459L92.0359 23.7928L91.9652 24.6794L92.5611 25.3745L91.399 26.0304L89.891 25.9972L89.5755 25.5345L88.3935 25.4694L87.2735 26.1886L87.249 27.1721L88.2938 28.0092Z" fill="#8ECDFF"/>
<path d="M112.26 39.2137L111.895 39.399L111.592 40.2825L112.099 40.9277L112.014 41.6412L112.099 41.6754L112.943 41.2668L114.075 42.5303L114.047 43.3262L114.293 43.4591L114.901 42.966L114.852 42.5756L113.096 40.9094L113.113 40.6546L113.332 40.5023L113.179 40.077L112.453 39.9577L112.26 39.2137Z" fill="#2BB3FF"/>
<path d="M83.6915 34.6163L83.7008 34.9104L83.5771 35.357L84.0029 35.3933L84.0301 34.7599L83.6915 34.6163Z" fill="#2BB3FF"/>
<path d="M43.8099 43.903L43.7026 44.1308L43.8762 44.3176L44.1025 44.1971L43.8099 43.903Z" fill="#8ECDFF"/>
<path d="M103.97 46.017L104.007 46.4271L104.045 46.7257L103.823 46.7634L103.935 47.4346L104.268 47.6213L104.786 47.3228L104.638 46.6157L104.676 46.3549L104.195 45.9085L103.97 46.017Z" fill="#8ECDFF"/>
<path d="M64.6685 47.6965L66.3258 48.8033L66.2861 47.9651L65.7852 47.3755L65.296 46.9427L64.6685 47.6965Z" fill="#8ECDFF"/>
<path d="M80.8555 63.7098L81.3159 63.3553L81.5333 63.3646L81.7958 63.6916L81.7687 64.0191L81.3264 64.182V64.309L80.8389 64.2818L80.7212 63.9275L80.8555 63.7098Z" fill="#8ECDFF"/>
<path d="M77.5803 23.3122L77.2056 23.3755L77.2358 23.7287L77.8216 23.7723L78.0434 23.9541L78.1015 24.2698L78.2821 24.5215L78.818 24.4989L79.331 23.846L79.301 23.4584L78.3348 23.3071L77.5803 23.3122Z" fill="#006DCA"/>
<path d="M72.042 27.2101L72.1747 27.3285L72.3284 27.343L72.3622 27.0405L72.3181 26.8706L72.1043 26.9723L72.042 27.2101Z" fill="#8ECDFF"/>
<path d="M79.4458 22.3926L78.3348 22.2117L78.1452 22.7041L77.8251 22.7997L77.6577 22.5951L77.4897 22.2792L77.3084 22.4121L77.2056 22.9584V23.2563L77.5971 23.1909L78.4117 23.2054L79.3925 23.3875L79.7852 23.2729L79.7625 22.8327L79.4458 22.3926Z" fill="#8ECDFF"/>
<path d="M73.7066 36.9672L73.9423 36.9279L74.0116 36.3851H74.1293L74.6109 35.5953L75.799 35.9405L76.1231 36.4441L77.2913 36.9782L77.8994 36.7218L77.8403 36.4652L77.5747 36.2089L77.6049 36.0308L78.0368 35.6657H78.8914L79.2155 36.0999L79.9024 36.1993L79.9917 41.7619L79.4814 41.7423L76.3992 40.1408L76.0657 40.3294L74.7992 40.013L74.455 39.5589L73.9538 39.4897L73.6992 39.0356L73.7066 36.9672Z" fill="#006DCA"/>
<path d="M68.9131 34.5923H67.17L66.8288 35.3492L66.0423 35.7277L65.3929 37.4828L64.1281 38.24L62.3516 41.1637L64.0948 41.129L64.1627 40.2696H64.6064V39.0995H66.1448L66.1791 37.5856L67.6494 37.2416L68.2651 36.2433L69.222 36.2088L68.9131 34.5923Z" fill="#8ECDFF"/>
<path d="M79.8501 27.8719L80.3182 28.591L80.2788 28.9982L80.4464 29.0057L80.8431 28.3346L80.3663 27.7435L80.0961 27.6318L79.8501 27.8719Z" fill="#8ECDFF"/>
<path d="M77.1508 30.5409L76.9297 30.853L76.9929 31.0447L77.2555 31.0926L77.4623 30.8123L77.1508 30.5409Z" fill="#8ECDFF"/>
<path d="M90.65 55.7984L90.3283 56.5614L89.7776 57.5323L88.8132 57.6013L88.3995 58.0868L88.4688 59.5674L87.8711 60.2611L87.9402 61.4404L88.4461 62.018L89.0438 61.9489L89.6416 61.5086L89.5041 60.8149L90.8826 58.4327L90.6063 58.1327L90.8826 57.5549L91.1814 57.6467L91.2732 57.4161L90.997 56.2369L90.8356 55.7513L90.65 55.7984Z" fill="#8ECDFF"/>
<path d="M78.3664 30.9329L77.8579 31.1001L77.8822 31.5315L78.0015 31.6838L78.6053 31.4037L78.3664 30.9329Z" fill="#8ECDFF"/>
<path d="M64.561 44.176L65.0259 43.8581L67.6101 43.8429L67.0123 39.6903L67.6946 39.6708L70.9954 42.1875L71.4391 42.2506L71.2717 43.6498L69.1961 43.8382L67.5947 45.0325L67.3033 45.8499L66.1909 45.8968L65.9072 45.081L65.0543 45.1414L65.0873 44.8745L64.561 44.176Z" fill="#8ECDFF"/>
<path d="M111.35 45.3537L110.932 44.6842L111.235 44.2589L110.949 43.7325L110.678 43.6812L110.627 42.7978L110.223 42.0153L110.105 42.2022L109.835 42.6606L109.496 42.7118L109.327 42.4901L109.243 41.8946L108.989 41.4184L107.957 40.4458L108.21 40.2785L108.257 39.5743L108.635 38.9409L108.798 37.3655L109.344 36.9929L109.362 36.4185L109.69 36.527L110.206 37.2734L109.823 38.0934L110.081 38.7372L110.72 38.9875L110.836 39.6889L111.693 39.8217L111.456 40.2304L110.376 40.6556L110.258 41.3521L111.052 42.3715L111.085 42.9158L110.9 43.1028L110.916 43.2732L111.508 44.1403L111.525 45.0404L111.35 45.3537Z" fill="#8ECDFF"/>
<path d="M102.952 25.2273L103.83 24.0633L104.886 24.5503L105.603 24.7418L106.481 23.9368L105.885 23.4978L106.277 22.9445L107.448 23.3577L107.854 24.0226L108.588 24.0422L108.971 23.7571L109.761 23.7254L109.933 24.0181L111.244 24.0844L112.074 23.2386L113.223 23.3589L113.157 24.5109L113.659 24.6253L114.277 24.3452L114.93 24.6679L114.915 24.831L114.441 24.8446L113.947 25.879L113.564 25.9166L112.073 27.8633L110.55 28.5344L109.597 28.6083L108.806 28.0985L107.795 28.6383L106.799 28.3294L106.516 27.6071L104.63 27.4742L103.664 25.8385L103.194 25.8081L102.952 25.2273Z" fill="#8ECDFF"/>
<path d="M62.3633 41.2841L62.6924 41.7137L62.6245 43.5715L63.103 43.2275L63.4438 43.1582L63.9225 43.33L64.4687 44.0871L64.9819 43.7433L67.4769 43.7086L66.8612 39.5455L67.5223 39.5424L66.2905 38.6001L66.2921 39.2124L64.7327 39.2141L64.7252 40.3825L64.2769 40.3809L64.2197 41.2433L62.3633 41.2841Z" fill="#8ECDFF"/>
<path d="M75.6026 34.3195L75.3506 34.3707L75.3597 34.6498L75.5862 34.7254L75.6873 34.6409L75.6026 34.3195Z" fill="#8ECDFF"/>
<path d="M93.776 59.7291L93.5469 60.0293L93.5921 60.3532L94.0754 59.9597L93.776 59.7291Z" fill="#8ECDFF"/>
<path d="M100.325 47.9335L100.371 48.327L100.622 48.4189L100.668 48.072L100.325 47.9335Z" fill="#8ECDFF"/>
<path d="M100.647 48.7655L100.624 49.2511L100.808 49.3427L100.97 49.019L100.647 48.7655Z" fill="#8ECDFF"/>
<path d="M100.694 49.7142L100.532 49.8756L100.717 50.0369L100.946 49.8756L100.694 49.7142Z" fill="#8ECDFF"/>
<path d="M83.8366 56.7752L84.3062 57.2654L84.2969 57.8928L84.3877 58.1569L85.0111 57.4845L84.9388 56.6299L84.605 56.3752L84.3079 54.8746L83.793 54.8564L84.027 55.9372L83.8366 56.7752Z" fill="#8ECDFF"/>
<path d="M22 33.5595L22.729 35.8526L22.3894 36.0425L22.4271 36.4978L23.0687 36.9909V37.903L23.8611 38.6629L23.5215 36.4219L23.0687 34.9398L23.1818 33.9146L23.5592 33.9525L23.7102 34.2947L23.5592 35.1677L25.5214 39.0035V40.3713L27.1064 42.2318L28.8421 43.0295L29.5591 42.6115L30.578 43.4469L31.1819 42.8393L30.9177 42.1547L31.7855 41.8894L32.0497 42.0417L32.3139 41.7763H32.729L33.4837 40.4465L33.1063 40.1042L31.6346 40.4465L31.295 41.4341L30.427 41.5866L29.4082 41.1686L28.9555 39.7259L29.2981 37.9058L28.5977 37.4701L28.2641 35.7223L27.9849 35.6031L27.4747 36.1203L26.889 35.8083L26.6597 34.6427L24.3397 34.3997L23.1413 33.4996L22 33.5595Z" fill="#2BB3FF"/>
<path d="M111.844 47.1328L112.147 47.8128L112.215 48.6961L112.621 49.3248L113.511 49.8626L113.685 49.7246L113.941 49.6743L113.904 49.3412L113.583 48.5601L113.112 47.5604L113.072 47.7353L112.505 47.7099L112.097 47.1248L111.844 47.1328Z" fill="#8ECDFF"/>
<path d="M116.588 49.7668L117.044 50.2932L118.792 49.6885L119.138 48.3553L119.916 48.2996L120.629 47.784L119.705 47.1117L119.494 46.7421L119.038 47.582L119.205 48.0645L118.927 48.4675L118.404 48.333L117.134 49.2632L117.167 49.8015L116.588 49.7668Z" fill="#8ECDFF"/>
<path d="M82.9325 61.8835L83.3387 62.2198L84.2954 61.6381L84.4493 60.7741V59.3476L85.9843 58.0932L86.2473 58.1024L87.1767 57.2116L87.0321 55.375L84.6206 55.679L84.7112 56.2613L85.0639 56.5678L85.1635 57.5675L84.333 58.3772L84.1337 57.9231L84.1699 57.3231L83.6914 56.8045L82.5171 57.3505L83.6099 57.9055L83.6464 59.5232L82.9233 60.5953L82.9325 61.8835Z" fill="#8ECDFF"/>
<path d="M76.1974 63.1925L76.7033 63.2287L77.0005 63.5288L77.7054 63.5378L77.8773 61.5385V60.2297L78.3287 60.139L78.5008 58.7667L79.6479 58.7308L80.0536 58.3947L79.3668 58.3675L78.4369 58.4941L77.4348 58.1309H74.6182L74.6906 58.9298L75.6294 60.311L75.4663 61.0195L75.4755 61.3921L76.1974 63.1925Z" fill="#8ECDFF"/>
<path d="M138.097 62.968L138.044 63.2378L138.74 64.2075L139.115 64.369L139.167 63.9921L138.097 62.968Z" fill="#8ECDFF"/>
<path d="M70.8145 45.1049L71.1994 45.0956L71.5465 44.5756L72.1291 44.4715L72.7495 44.85L74.0731 44.8877L75.0966 44.4715L75.4814 44.1411L75.5101 43.707L76.2239 42.9878L76.4125 41.3997L75.9431 40.4166L74.7417 40.1241L71.9613 42.2893L71.5673 42.2515L71.3981 43.7546L69.9795 43.8964L70.8145 45.1049Z" fill="#8ECDFF"/>
<path d="M70.9175 47.724L71.5093 47.7526L72.2231 48.5475L72.5701 48.6424L72.8421 48.5097L73.2555 48.4525L73.396 47.8763L73.9592 47.507L74.569 47.4786L75.6858 45.4262L75.6677 44.9634L75.1517 44.567L74.1191 45.021L72.7381 45.0016L72.0798 44.5854L71.6104 44.6894L71.3659 45.1147L71.3477 46.3148L70.9538 46.8726L70.9175 47.724Z" fill="#8ECDFF"/>
<path d="M34.1128 43.6135L34.4434 43.6799L34.454 44.3569L34.0692 45.4546L33.0323 45.3521L32.8013 44.8228L33.1093 44.1806L33.6934 43.6377L34.1128 43.6135Z" fill="#8ECDFF"/>
<path d="M72.2031 24.9407L71.5195 25.277L71.6643 25.4082L71.6796 25.7445L71.5349 25.7159L71.3747 25.4671L70.9927 26.0719L71.5799 26.1938L71.7987 26.4246L71.915 26.4275L71.9918 25.906L72.3615 25.7506L72.2031 24.9407Z" fill="#8ECDFF"/>
<path d="M79.0518 14.9696L79.3569 14.7465L79.3294 14.4962L79.1363 14.3843L79.1637 14.0784H79.3296V13.9109L78.6097 13.7166L77.5303 13.8282L77.4201 14.3017L77.1708 14.2185L77.0047 13.9395L76.4779 13.9666L76.422 14.4956L76.173 14.6074L76.0342 14.3284L74.9262 15.2195L75.1482 15.47L74.7329 15.6645L73.7912 17.5311L73.4592 17.7542L73.4863 17.9215L73.8181 18.0888L73.7351 18.4506L73.1811 18.422L73.0148 18.2275L72.6556 18.6452L72.4337 18.8125L72.3778 19.2032L72.1849 19.3149L71.6865 19.4265L71.4375 20.2078L71.6036 21.4896L71.7967 22.0746L72.0186 22.2977L72.5168 22.2705L73.237 21.5738L73.513 21.1006L73.5965 21.7969L74.0675 20.9615L74.0943 18.6199L74.4776 18.3787L74.5924 17.0865L75.7544 15.4144L76.3085 15.2199L76.5577 14.9137L77.3878 15.1082L77.8029 15.3586L77.9419 14.6622L78.6348 14.2443L79.0518 14.9696Z" fill="#2BB3FF"/>
<path d="M74.9462 7.7049L74.6972 7.45459L74.1447 7.72304H73.1303L72.9702 8.3142L73.5395 8.81622L73.7883 8.77994L74.1445 8.17099L74.4465 8.38642L74.2318 8.81622L74.1246 9.44348L74.3738 9.837L74.9082 8.94129L75.603 8.09843L75.3356 7.86643L74.9462 7.7049Z" fill="#8ECDFF"/>
<path d="M75.248 6.63006L74.8027 7.04155L75.0697 7.45304H75.5498L75.746 7.72149L76.3333 8.02605L77.0092 7.63253L77.4727 7.23901L77.3127 6.91631L76.8493 6.64785L76.5109 6.95241L76.2802 6.66564L76.1019 6.68378L75.8711 7.18581L75.533 6.84496L75.4967 6.61279L75.248 6.63006Z" fill="#8ECDFF"/>
<path d="M76.2626 8.4754L75.9064 8.79828L75.6045 9.03063L75.7463 9.28094L76.032 9.37008L76.4951 9.15447L76.7097 8.88602L76.5134 8.56332L76.2626 8.4754Z" fill="#8ECDFF"/>
<path d="M102.558 36.1423L102.627 36.7861L103.847 37.3377L105.801 37.4825L105.727 37.0106L104.422 36.6516L103.314 35.9928L102.558 36.1423Z" fill="#2BB3FF"/>
<path d="M139.061 72.2396L139.221 74.0187L139.006 74.827L138.203 75.4194L138.256 76.1206V76.8745L138.471 77.1445L140.667 75.2582V74.827H140.131L139.381 72.294L139.061 72.2396Z" fill="#8ECDFF"/>
<path d="M137.454 76.1208L137.883 76.9289L136.704 78.0614L136.597 78.6537L135.794 78.7607L134.455 79.9998L133.223 79.4075L133.116 78.9759L135.365 78.0064L137.454 76.1208Z" fill="#8ECDFF"/>
<path d="M91.5679 41.9143L92.6833 41.2719L92.8812 40.3296L92.6369 40.1893L92.738 39.179L92.9509 39.0554L93.1789 39.4128L94.5359 40.1213V40.5152L92.8922 42.9318L92.1359 42.9574L91.5679 41.9143Z" fill="#8ECDFF"/>
<path d="M34.5431 46.2523L34.3228 46.9397L35.0504 47.128L35.5016 47.2173L35.5786 46.6849L36.0632 46.4407L36.4933 46.6624L36.6623 46.9322L36.8675 46.9082L37.029 46.418L36.4915 46.1963L36.084 45.9746L35.6766 46.252L35.192 46.4962L34.697 46.2971L34.5431 46.2523Z" fill="#8ECDFF"/>
<path d="M35.2132 52.2699L34.9204 52.5656L34.9401 53.0371L37.4971 57.6934L40.1522 59.4032L40.5627 58.7158L40.6609 57.2036L40.4464 56.2613L39.7233 55.0431L39.2932 55.1802L39.0985 55.3958L38.2398 54.4127L38.4542 53.2532L39.4504 52.6048L39.372 51.9957L38.3576 51.9563L37.8308 51.0729L37.538 50.9749L37.5577 51.5059L36.2505 53.0575L35.2738 52.8222L35.2132 52.2699Z" fill="#8ECDFF"/>
<path d="M129.965 52.0845L129.909 55.7696L130.441 55.741L131.14 54.9253L131.726 54.9539L132.104 55.2918L132.229 56.3321L133.431 56.9655L133.739 56.8525V56.4724L132.774 55.6701L132.299 54.5724L132.676 54.3898L132.397 53.7852L131.838 53.7716L131.698 53.1246L130.217 52.1265L129.965 52.0845Z" fill="#8ECDFF"/>
<path d="M134.513 53.1005L134.37 53.1338L134.282 53.5214L134.007 53.6995L133.182 53.8443L133.215 54.1546L134.084 54.1112L134.635 53.7672L134.602 53.1686L134.513 53.1005Z" fill="#8ECDFF"/>
<path d="M134.149 52.1917L134.016 52.3801L134.742 53.0225L134.842 53.3995L135.04 53.3768L135.062 52.9894L134.842 52.7905L134.149 52.1917Z" fill="#8ECDFF"/>
<path d="M120.396 44.4309L120.266 44.6783L120.194 44.9828L119.473 45.8979L119.516 46.0865L119.82 46.0427L120.757 44.9962L120.396 44.4309Z" fill="#8ECDFF"/>
<path d="M121.565 44.0825L121.549 44.838L121.824 45.1139L121.925 45.6507L122.2 45.7095L122.329 45.3747L122.114 45.2149L122.056 44.2711L121.565 44.0825Z" fill="#8ECDFF"/>
<path d="M122.345 44.3737L122.33 45.0416L122.488 45.3023L122.762 44.9828L122.69 44.4023L122.345 44.3737Z" fill="#8ECDFF"/>
<path d="M122.517 43.7916L122.791 44.155L122.921 44.5033H123.167L123.123 43.9076L122.849 43.7192L122.517 43.7916Z" fill="#8ECDFF"/>
<path d="M123.051 45.1576L123.108 45.5933L122.603 46.0005L122.184 46.0442L121.737 46.5238L121.752 46.7422L122.171 46.6111L122.459 46.4228L122.705 47.0469L123.138 47.3516L123.312 47.2927L123.47 47.1043L123.124 46.7559L123.327 46.5961L123.558 46.7845L123.716 46.5238L123.558 46.204L123.529 45.4923L123.051 45.1576Z" fill="#8ECDFF"/>
<path d="M120.7 40.7277L120.31 41.0034L120.267 41.8751L120.874 43.0511L121.076 43.2107L121.335 43.0358L121.782 43.1082L121.868 43.5003L122.2 43.5289L122.359 43.3117L122.157 43.0358L121.91 42.8036L121.391 42.7466L121.116 42.2956L121.434 41.8161L121.462 41.3956L121.246 40.8588L120.7 40.7277Z" fill="#8ECDFF"/>
<path d="M120.902 43.3273L121.017 43.7346L121.219 43.8657L121.364 43.6772L121.133 43.3576L120.902 43.3273Z" fill="#8ECDFF"/>
<path d="M95.3035 37.24L95.696 37.8221L95.6583 38.1221L95.136 38.329L95.0981 38.8176H95.696L95.9012 38.6485H97.0396L98.066 39.5504L98.1973 39.1176H98.9627L98.9808 38.5734L98.1975 37.8224L98.3651 37.4092L99.168 37.3537L100.25 35.0993L99.6524 34.6305L99.4292 33.8419L100.884 33.7107L100.026 32.4896L99.5682 32.366L99.3814 32.5922L99.2408 32.6028L98.3819 33.1471L98.6627 33.6174L98.3457 33.9552L97.953 35.4013L96.9825 36.021L96.8512 36.6982L95.3035 37.24Z" fill="#8ECDFF"/>
<path d="M78.4477 25.9196L78.5757 26.1548L78.6061 26.4051L78.5006 26.6479L78.2591 27.1126L78.0554 27.2043L77.791 27.0897L77.6324 27.0972L77.2476 27.242L76.81 27.1126L76.1007 26.6104L75.406 26.238L75.1266 25.8127L75.0737 24.8097L75.6171 24.3379L76.3265 24.1024L76.5584 24.0783L76.6134 24.254L76.9146 24.3747L77.7468 24.3904L78.0035 24.3829L78.4263 25.0297L78.3208 25.295L78.366 25.607L78.4477 25.9196Z" fill="#2BB3FF"/>
<path d="M42.1595 41.9473L41.761 41.813L41.4409 42.0134L41.601 42.2002L42.146 42.2801L42.1595 41.9473Z" fill="#8ECDFF"/>
<path d="M66.2924 31.4199L66.1988 32.7243L65.9316 32.9657L65.9589 33.1133L66.1459 33.4224L66.0252 33.7991L66.2259 33.8672L66.6939 33.8127L66.6668 33.436L66.9734 31.6881L66.9067 31.4469L66.2924 31.4199Z" fill="#8ECDFF"/>
<path d="M62.8584 35.2164L62.6953 35.4231L62.8584 35.6298L63.1043 35.5062L62.8584 35.2164Z" fill="#8ECDFF"/>
<path d="M57.4937 32.2915L57.2886 32.498L57.6565 32.7047L57.6974 32.4171L57.4937 32.2915Z" fill="#8ECDFF"/>
<path d="M58.6004 32.1678L58.3545 32.332L58.5597 32.4961L58.8873 32.4131L58.6004 32.1678Z" fill="#8ECDFF"/>
<path d="M58.7633 32.7452L58.6411 33.0753L58.8044 33.282L59.0096 33.1178L58.7633 32.7452Z" fill="#8ECDFF"/>
<path d="M59.7461 33.4042L59.6646 33.6108L59.787 33.7344L60.1144 33.5279L59.7461 33.4042Z" fill="#8ECDFF"/>
<path d="M45.2856 59.8076L45.6177 60.1693L45.5784 60.9354L46.5353 60.8765L47.2584 61.8008L47.1996 62.6257L46.7314 63.3329L45.7747 63.3721L45.7354 62.9786L46.0085 62.33L45.0711 61.7405H44.2908L43.7051 61.1118L44.1308 59.8963L45.2856 59.8076Z" fill="#8ECDFF"/>
<path d="M90.7 38.6244L90.6216 39.2291L90.854 39.4056L91.0651 39.3861L91.1437 38.6247L90.9609 38.4935L90.7 38.6244Z" fill="#8ECDFF"/>
<path d="M78.5565 27.8553L78.517 28.0784L77.6431 28.8051L78.3737 29.8756L78.842 30.203H79.6842L79.962 29.9709L80.3348 29.9227L80.6127 30.09L81.1047 29.5306L81.0096 29.2503L80.51 29.1223L80.1689 29.1057L80.1854 28.6262L79.7326 27.9145L78.5565 27.8553Z" fill="#8ECDFF"/>
<path d="M77.556 28.9016L77.2465 29.1339H77.0958L76.9932 29.4535L77.3585 29.8773L77.3827 30.2136L77.2287 30.431L77.7645 30.9886L78.3437 30.8121L78.2958 29.9886L77.556 28.9016Z" fill="#8ECDFF"/>
<path d="M124.713 10.5653L124.979 11.4821L125.511 11.6344L126.042 10.7947L125.739 10.2216L125.852 9.72537H126.648L126.458 10.107L126.534 11.4821L125.396 14.3077L125.509 14.9184L125.471 15.9497L127.595 19.0422L128.011 19.1568L128.049 16.6375L128.466 16.2558L128.01 15.2636L128.389 14.8429L127.554 13.736L127.098 13.7738L126.947 11.9417L128.123 11.6356L128.199 11.1004L128.806 10.9482L129.147 11.2545L129.564 9.57449L130.284 8.35345L130.853 8.04714L131.347 8.085V7.51198L130.55 7.3597L129.449 6.44288L129.981 5.83236L129.525 4.80094L129.904 4.41945L130.36 5.02997L131.498 5.45053L132.749 5.56513L132.902 5.03118L132.257 4.38282L132.977 3.39064L131.346 2.81762L130.929 3.65735L130.398 2.9699L127.401 1.93848L124.556 2.43457L124.139 2.66377V2.8928L124.746 3.19911L124.67 3.92423L123.57 3.46582L121.143 4.4205L120.726 3.54292H119.057L118.297 4.34514L115.604 3.73445L113.14 4.23054L112.836 4.99368L113.215 5.10811L113.178 5.68113L110.788 5.94783L110.94 6.71098L108.739 6.32932L109.271 5.33714L107.033 5.22254L107.223 6.25397L106.503 6.59778L105.896 6.02476L103.431 6.44549L102.483 7.32307L102.445 7.85684L101.838 7.89452L101.762 7.284L103.698 5.60438V4.45835L102.446 4.11454L100.814 4.64848L100.132 3.96086H99.8289L99.4498 4.72383L99.7533 5.06764L97.5901 6.25152L95.7318 7.66444L94.5935 9.22946V9.87783L95.8069 10.3741L95.2001 10.8323L93.9111 10.3741L93.3795 10.8323L92.5827 9.9155L92.4303 10.2595L93.3027 13.0082L93.5306 13.085L94.1379 12.779L94.441 13.008V13.5041L93.8719 13.2751L93.5306 13.5418L93.759 14.0379L93.5686 15.3362L92.3927 15.4508L92.3173 15.0301L92.9995 14.6095L93.152 13.4635L92.3926 12.4713L92.127 10.7538L90.9137 10.5623L90.8005 11.1728L91.0284 11.4788L90.5351 11.8995L90.7253 13.0455L91.4454 13.3517L91.5979 14.1914L90.8762 13.7332L89.018 13.3892L88.79 14L87.3104 14.5338L87.0825 14.1523L85.1474 15.2211L85.1097 15.9464L84.3504 16.061L84.5785 15.5272V14.9933L83.8191 14.7266L83.3256 14.9181L83.7422 15.7203L84.0456 16.2541V16.6748L83.4763 16.5604L83.3633 16.4458L82.794 17.0565L83.0974 17.5904L81.8081 17.5526L82.225 18.0879L82.112 18.3169H81.4297L80.9361 17.9731L80.8231 17.0186L80.0263 16.7125V16.331L81.6959 16.675L82.6062 16.7517L82.9851 16.1787L82.6439 15.568L80.2168 14.6135L79.379 14.8215L79.0923 15.0674L79.1815 15.6326L79.5376 15.6943L79.4544 16.5841L80.5533 19.1624L79.7592 20.4199L79.7047 20.7034L80.1079 20.9868L79.744 21.2267L79.5025 21.2312L79.5479 22.3394L79.8814 22.8114L79.8859 23.2696L80.3131 23.3089L80.9663 23.5576L81.6576 24.5076L81.6655 24.7579L81.4406 25.1425L81.9567 25.1139L82.4593 25.2587L83.1387 26.2191L84.8111 26.3714L84.7386 27.5143L84.1622 28.0074L84.2815 28.2002L83.7122 28.811L83.5613 29.3839L83.9025 29.8801L85.0028 30.2616L85.4587 29.9947L88.3796 31.1017L88.4928 30.7954L87.8858 30.2227V29.4974L87.5067 29.3828L87.5825 28.7723L88.1895 28.047L87.1014 27.2329L87.1768 26.1005L88.3407 25.336L89.7066 25.4129L89.9346 25.8336L91.3386 25.9104L92.3634 25.3375L91.8319 24.7645L91.9448 23.6954L94.5999 22.3973L96.6421 23.3169L97.3243 22.7064L99.3349 24.615L100.852 24.4627L101.384 24.9965L102.825 25.1488L103.773 23.8508L104.986 24.386L105.631 24.5008L106.276 23.9278L105.706 23.5461L106.2 22.7831L107.604 23.2415L107.907 23.8522L108.514 23.8899L108.893 23.6232L109.918 23.5853L110.031 23.8522L111.206 23.929L112.003 23.0893L113.635 23.2808L114.129 23.0893L114.279 22.1724L113.786 21.0655L114.279 20.6449H115.834L117.313 22.4013L119.209 23.4704H119.779L119.854 23.0122L120.536 22.5914L120.612 25.0733L120.005 25.1109V25.7215L120.346 26.1422L120.283 26.688L120.535 26.7923L120.687 26.4106L120.915 26.4876L121.066 26.6399L121.748 26.4876L122.431 24.5016L122.506 22.0196L121.634 20.0337L120.534 18.6981L120.002 18.7748V19.1955L118.713 18.6993L119.206 17.6304L119.623 14.8047L121.368 14.2709L122.203 13.7372H123.113L122.884 14.0431L123.112 14.4248L123.909 13.5851L124.364 13.6226L124.289 13.1265L123.567 12.9742L124.061 11.1798L124.713 10.5653Z" fill="#C4E5FE"/>
<path d="M77.2253 23.8445L76.999 24.2625L77.8136 24.27H77.9795L77.9482 24.0342L77.8211 23.8852L77.2253 23.8445Z" fill="#8ECDFF"/>
<path d="M128.045 19.4764L127.858 19.7087L127.873 20.0721L128.046 20.0571L128.335 19.5489L128.045 19.4764Z" fill="#8ECDFF"/>
<path d="M134.271 5.35724L133.915 5.58941L133.831 5.8849L133.998 6.07486L134.375 5.94822L134.753 6.07486L134.962 6.13818L134.941 5.44149L134.271 5.35724Z" fill="#8ECDFF"/>
<path d="M83.9361 5.41736L84.1957 5.52167L84.0131 5.8353V6.2801L83.6237 6.51559H83.2086L82.9746 6.2276L83.0001 5.91397L83.1828 5.67848H83.5467L83.9361 5.41736Z" fill="#8ECDFF"/>
<path d="M84.9233 5.12959V5.44322L85.1828 5.65289L85.5466 5.62743L85.8588 5.33944V5.12977H85.5735L85.3395 5.20809L85.1568 4.9986L84.9233 5.12959Z" fill="#8ECDFF"/>
<path d="M86.4058 5.15644L86.5884 5.54856L86.9523 5.57421L87.2118 5.47024L87.0822 5.10376L86.744 5.02509L86.4058 5.15644Z" fill="#8ECDFF"/>
<path d="M87.8865 4.63348L87.601 4.58063L87.3413 4.84298L87.4712 5.07829L87.5496 5.44477L87.8879 5.18381L87.9663 4.896L87.8865 4.63348Z" fill="#8ECDFF"/>
<path d="M89.4714 7.40643L89.3928 7.77274L88.7949 8.29605L87.5212 8.58404L86.481 10.3104L86.2983 10.8081L87.3386 11.0706L87.4938 10.4431L87.8064 9.47522L88.6122 9.05605L89.2884 8.53275L89.7818 8.32326H90.0415V7.6175L89.4714 7.40643Z" fill="#8ECDFF"/>
<path d="M86.1187 11.2257L86.8205 11.3042L87.0549 12.1151L87.6526 12.7426L87.4443 13.1616H87.0805L86.7423 12.7694L85.9892 12.744L85.6768 12.3248V12.0368L86.1451 11.9056L86.1187 11.2257Z" fill="#8ECDFF"/>
<path d="M97.0879 2.30567L96.7495 2.09583H96.3601L96.2819 2.33131L95.8668 2.5668L95.5543 2.67076L95.5029 2.98439L96.2306 3.03724L97.0879 2.30567Z" fill="#8ECDFF"/>
<path d="M97.8927 2.38379L97.7099 2.77574L97.3461 2.75027L96.7741 3.16926L96.6187 3.69257H96.9824L97.1907 3.3519L97.6842 3.71838L98.1524 3.50871L98.4906 3.2209L98.3607 2.77592L98.178 2.46228L97.8927 2.38379Z" fill="#8ECDFF"/>
<path d="M98.647 2.67181L98.8296 3.40461L99.115 4.08438L99.4275 3.53561L100.025 3.40444V3.01231L99.636 2.72432L98.647 2.67181Z" fill="#8ECDFF"/>
<path d="M112.908 1.49893L113.314 1.83959L113.602 1.72046L113.687 1.24251L113.095 0.833984L112.706 1.09023L111.758 1.17622V1.60272L110.758 1.61946V2.31754L111.927 3.18605L112.232 2.96434L112.163 2.35051L112.909 2.16369L112.757 1.87413L112.487 1.60149L112.908 1.49893Z" fill="#8ECDFF"/>
<path d="M113.992 1.09L114.262 1.60144L115.313 1.48213L115.601 1.10675L115.533 0.782824L115.245 0.663513L114.974 0.868646L114.195 1.03924L113.992 1.09Z" fill="#8ECDFF"/>
<path d="M113.924 3.08347L113.398 2.94794L113.095 3.27186L112.959 3.7151L113.67 3.64724L114.212 3.37443L113.924 3.08347Z" fill="#8ECDFF"/>
<path d="M127.537 0.135709L127.097 0L126.59 0.186991L126.336 0.562198L126.658 0.988863L127.504 0.613656L127.674 0.426665L127.537 0.135709Z" fill="#8ECDFF"/>
<path d="M127.699 20.363V21.0023L127.901 21.0747L128.046 20.8424V20.3492L127.699 20.363Z" fill="#8ECDFF"/>
<path d="M121.795 18.053L121.782 18.9833L122.95 20.7852L123.369 22.3532L124.105 23.748L124.393 23.8491L124.639 23.6454L124.754 23.3108L123.701 22.1634L123.729 21.5675L123.96 21.4667L124.018 21.1184L121.954 18.1992L121.795 18.053Z" fill="#8ECDFF"/>
<path d="M129.936 15.1627L129.648 15.1913L129.821 15.4386L130.182 15.686L130.283 15.5698L129.936 15.1627Z" fill="#8ECDFF"/>
<path d="M130.498 15.3378L130.541 15.5848L130.988 15.7159L131.032 15.5412L130.498 15.3378Z" fill="#8ECDFF"/>
<path d="M132.95 16.286L133.139 16.6239L133.453 16.6028L133.516 16.3704L132.95 16.286Z" fill="#8ECDFF"/>
<path d="M136.116 16.8135L136.368 17.2779L136.556 17.067V16.7504L136.116 16.8135Z" fill="#8ECDFF"/>
<path d="M82.427 50.8195L82.8511 51.2099L82.833 51.6278L82.1748 51.6413V51.1797L82.427 50.8195Z" fill="#8ECDFF"/>
<path d="M89.3969 37.7527L90.4553 39.2255L90.7963 39.4972L90.9489 40.1575L92.5776 40.2855L92.7618 40.3821L92.5792 41.1962L91.5089 41.8264L89.9436 42.3L89.109 43.1143L88.1173 42.5366L87.5168 43.0614L86.6802 41.6968L86.1067 41.4345L85.8986 41.1193V40.4362L83.8112 37.9153L83.7324 37.4686H84.3331L85.0637 36.8387L85.0892 36.5233L84.8811 36.3138L85.2993 35.9731L86.1871 36.026L87.7008 37.2865L88.5944 37.246L88.6518 37.4663L89.3969 37.7527Z" fill="#8ECDFF"/>
<path d="M135.492 53.7764L135.679 54.2963L136.01 54.6176L136.109 54.5287L136.076 54.1847L135.702 53.7307L135.492 53.7764Z" fill="#8ECDFF"/>
<path d="M136.405 54.5511L136.428 54.895L136.638 55.094L136.836 54.9719L136.659 54.6052L136.405 54.5511Z" fill="#8ECDFF"/>
<path d="M136.669 55.4048L136.493 55.5934L136.68 55.937L136.9 56.0035L136.89 55.7713L136.669 55.4048Z" fill="#8ECDFF"/>
<path d="M137.1 55.2057L137.254 55.5826L137.551 55.9367L137.715 55.6714L137.495 55.2945L137.1 55.2057Z" fill="#8ECDFF"/>
<path d="M137.871 55.771L137.959 56.2369L138.169 56.5247L138.345 56.1598L137.871 55.771Z" fill="#8ECDFF"/>
<path d="M138.112 56.813L138.036 56.9456L138.289 57.279L138.466 57.2898L138.356 56.8568L138.112 56.813Z" fill="#8ECDFF"/>
<path d="M137.551 57.4764L137.287 57.5985L137.518 57.92L137.715 57.8084L137.551 57.4764Z" fill="#8ECDFF"/>
<path d="M92.1674 53.5998L92.0757 53.785L92.3275 53.993L92.5119 53.785L92.1674 53.5998Z" fill="#8ECDFF"/>
<path d="M93.455 52.2129L93.1787 52.3981L93.3858 52.7221H93.6621L93.455 52.2129Z" fill="#8ECDFF"/>
<path d="M93.5695 53.0225L93.3853 53.2306L93.5225 53.4385L93.7743 53.4854L93.797 53.0455L93.5695 53.0225Z" fill="#8ECDFF"/>
<path d="M80.0256 45.9535L79.5803 45.6912L79.1743 44.8905L79.197 44.1455L79.76 43.662L79.7871 41.8779L80.1585 41.8887L80.1162 40.8979L84.0106 40.9324L84.5675 40.3716L85.769 42.2911L85.1107 43.0659V44.2495L84.3076 45.9748L84.126 46.376L83.4783 45.4487L83.0055 46.0489L82.4713 46.1944L80.7354 46.02L79.9788 46.2888L80.0256 45.9535Z" fill="#8ECDFF"/>
<path d="M76.374 15.3378L76.6697 15.6104H77.2237L77.5286 16.1955L77.6119 17.1981L76.8649 17.7275V18.2566L76.3381 18.9819L76.0332 19.0087L75.6179 19.7054L75.645 20.3749L76.3651 20.9043L76.3094 21.2103L76.0332 21.6282L75.6181 21.99L75.6452 23.1887L75.0083 23.4118L74.7864 23.885H74.4813L74.3156 23.0497L73.6226 21.9884L74.1918 21.0369L74.2311 18.686L74.6237 18.4704L74.7188 17.1257L75.8373 15.5258L76.374 15.3378Z" fill="#006DCA"/>
<path d="M76.4904 22.2117L76.1719 22.4634L76.332 22.8328L76.6142 22.5584L76.4904 22.2117Z" fill="#8ECDFF"/>
<path d="M113.582 49.9079L113.702 49.9758L113.972 49.9538L113.949 49.7502L113.729 49.785L113.582 49.9079Z" fill="#8ECDFF"/>
<path d="M75.9332 28.5173L75.5499 28.7465L74.8345 28.9031L74.9777 29.3162L75.4788 29.3221L75.9409 28.9361L75.9332 28.5173Z" fill="#8ECDFF"/>
<path d="M76.0898 27.7845L76.1941 27.8765L76.2075 28.0331L77.3593 28.0076L78.2106 27.641L78.1972 27.2686L78.0341 27.3409L77.8001 27.2157L77.6567 27.2096L77.2794 27.3605L76.7663 27.2368L76.0898 27.7845Z" fill="#006DCA"/>
<path d="M63.7266 46.7829L64.5794 47.6063L65.1876 46.8689L64.8071 46.2733L64.2833 46.3261L63.7266 46.7829Z" fill="#8ECDFF"/>
<path d="M63.6602 44.8609L62.6488 44.8363L62.836 45.2903L62.9401 45.01L64.2098 45.1427L64.3505 45.1379L64.9451 45.1588L64.9662 44.8964L64.423 44.2453L63.8176 43.4267L63.4418 43.27L63.1517 43.344L62.5572 43.7752L62.4217 44.0166L62.3794 44.2578L62.5982 44.4147L63.329 44.404L63.7984 44.277L63.8513 44.5076L63.8092 44.8122L63.6602 44.8609Z" fill="#8ECDFF"/>
<path d="M90.6002 45.4138L91.2597 45.1605L91.4937 45.3008L91.468 45.8858L90.86 47.6167L87.5677 51.1385L87.1858 50.8764L87.1602 49.39L87.6552 48.8214L88.7061 48.4974L90.2469 46.8721L90.6503 46.5131L90.7633 45.9884L90.6002 45.4138Z" fill="#8ECDFF"/>
<path d="M45.4928 47.9909L45.8007 48.2728L46.2775 47.9773L46.7123 47.9909L46.6565 48.1597L46.4738 48.5398L46.4452 49.4854L45.5773 49.8382L45.6196 49.2318L45.0596 48.7101L45.0882 48.4418L45.4928 47.9909Z" fill="#8ECDFF"/>
<path d="M84.0752 46.474L83.719 46.6307L83.832 47.2504H84.2759L84.878 48.1233L84.3948 48.185L84.271 48.4097L84.2589 48.7336L82.8099 48.7082L82.6619 48.4835L81.6491 48.4263L79.7896 46.5141L79.9752 46.4025L80.7639 46.1646L82.4921 46.2961L83.0799 46.1646L83.4702 45.642L84.0752 46.474Z" fill="#8ECDFF"/>
<path d="M72.3018 50.4049L72.4752 50.3173L72.6049 50.4227L72.4752 50.6229L72.3182 50.5612L72.3018 50.4049Z" fill="#8ECDFF"/>
<path d="M72.6504 49.8544L72.9116 49.8106L72.9991 49.9765L72.8694 50.1169L72.7396 50.0988L72.6504 49.8544Z" fill="#8ECDFF"/>
<path d="M31.6846 44.2409L32.3939 44.5936L32.3832 44.0342L32.0195 43.8125L31.6846 44.2409Z" fill="#8ECDFF"/>
<path d="M83.7627 34.1173L83.71 34.5004L84.1355 34.6785L84.1173 35.7401L84.5431 35.7308L84.9688 35.4095L85.1288 35.3825L86.0947 34.6153L86.2893 33.5007L84.3587 33.6969L84.1549 34.1433L83.7627 34.1173Z" fill="#8ECDFF"/>
<path d="M82.8868 61.9923L82.508 62.0553L82.3447 62.5004L82.6344 62.7644H82.9863L83.2835 62.3377L82.8868 61.9923Z" fill="#8ECDFF"/>
<path d="M75.6297 44.2001L75.6493 43.7549L76.3649 43.0602L76.5568 41.3533L76.0799 40.4426L76.4136 40.2719L79.6437 41.9532L79.624 43.6027L79.0549 44.0867V44.9371L79.4279 45.6578H78.7696L77.6799 46.7346L77.6511 47.0603L76.847 47.0496L76.8363 47.1972L76.3774 47.137L76.0635 46.5445L75.8276 46.4283L75.858 46.2474L76.1536 46.0212V44.9631L75.7444 44.8997L75.251 44.5331L75.6297 44.2001Z" fill="#8ECDFF"/>
<path d="M69.9587 48.0074L70.3631 47.7709L70.3539 46.2104L70.0912 45.7852L69.9224 45.9268L69.9587 48.0074Z" fill="#8ECDFF"/>
<path d="M111.439 40.3507L111.928 40.9794V41.7441L112.097 41.8282L112.875 41.4542L113.027 41.5055L113.956 42.5761L113.922 43.3074L113.619 43.2561L113.349 43.0853L113.146 43.1022L112.792 43.696L112.86 44.0189L113.147 44.1712L113.13 44.5286L112.928 44.6311L112.235 44.1548V43.7295L111.948 43.7129L111.83 43.8996L111.77 45.8025L112.218 46.6199L113.012 47.3844L112.979 47.6061L112.556 47.5897L112.168 47.0122H111.762L111.256 46.6031L111.103 46.178L111.322 45.8206L111.397 45.4977L111.636 45.0754L111.625 44.1047L111.043 43.2634L111.018 43.1608L111.207 42.9709L111.163 42.3028L110.388 41.3213L110.478 40.7559L111.439 40.3507Z" fill="#8ECDFF"/>
<path d="M96.3691 31.5102L96.9894 30.7413H97.2234L97.3049 30.913L97.0182 31.1209V31.2927L97.207 31.4283L98.1141 31.4827L98.4098 31.3559L98.5442 31.3827L98.635 31.6723L99.1737 31.7267L99.444 32.2966L99.3625 32.4684L99.2553 32.4776L99.1484 32.2605L98.9142 32.2423L98.51 32.2968L98.4827 32.677L98.0783 32.65L98.0965 32.1703L97.8007 31.8811L97.351 32.2518L97.3603 32.496L96.9648 32.6317H96.7306L96.7488 31.7902L96.3691 31.5102Z" fill="#8ECDFF"/>
<path d="M90.884 30.8695L90.7906 31.266H90.1641V31.8029L90.837 32.2462L90.6291 32.8535V33.134L90.9083 33.1809L91.2797 32.6906L92.116 32.504L93.903 33.1809L93.9255 33.6709L94.9233 33.7644L96.0374 32.5961L95.8984 32.2219L95.1557 32.0588L93.0666 30.7033L92.9732 30.2131H92.1837L91.835 30.8678H91.4863L90.884 30.8695Z" fill="#2BB3FF"/>
<path d="M72.9308 33.8459L73.7655 33.5098L74.04 33.6877L74.0506 33.9047L73.9224 34.072L73.9418 34.369L74.0702 34.4381V34.972L73.9223 35.2194L73.9416 35.3778L74.5016 35.5752L74.0504 36.2765L73.8737 36.2658L73.8435 36.8296L73.6472 36.8599L73.4798 36.7118L73.5191 36.139L72.9697 35.6051L72.9004 35.1407L73.166 34.9328L72.9308 33.8459Z" fill="#8ECDFF"/>
<path d="M81.1898 31.453L80.7873 31.2042L80.5653 31.0275L80.192 31.1873L79.9341 31.8397L80.3216 31.7525L80.5943 31.5452L81.1947 31.7089L80.8549 32.0363L79.9512 31.9927L79.6177 32.3578V32.5359L79.8307 32.714V32.9098L79.7415 33.1422L79.8307 33.3381L80.1145 33.1964L80.3982 33.4994L80.3273 33.7136L80.2219 33.8567L80.3802 34.0348L81.1592 34.1945L81.7074 33.9624V33.6245L81.9729 33.6774L82.61 34.0513L83.2994 33.9442L83.5999 33.6594L83.7944 33.7302V34.0513H84.06L84.2893 33.6065L86.306 33.3922L87.1861 33.2852L86.9536 32.9807L86.9493 32.5692L87.1258 32.3581L86.4829 31.8425L86.5173 31.3975H86.1642L85.5785 31.1109L85.2417 31.4669L84.004 31.4305L83.2613 30.9858L82.5485 31.0497L81.755 31.5257L81.1898 31.453Z" fill="#2BB3FF"/>
<path d="M43.8488 45.5239L43.6887 45.6716L43.5151 45.6987V45.9129L43.8352 46.2071L43.9679 45.9927L44.0479 45.7515L44.0207 45.5511L43.8488 45.5239Z" fill="#8ECDFF"/>
<path d="M120.108 37.0094L119.574 37.4165L119.545 38.2004L120.007 38.7373L120.122 38.6362L120.108 37.0094Z" fill="#8ECDFF"/>
<path d="M84.5786 55.5442L86.9879 55.2494L86.395 54.1035L86.3633 53.006L86.555 52.4811L84.0462 50.9072L83.2601 51.0368L82.987 51.2388L82.9627 51.6988L82.786 52.3365L82.6018 52.5551L82.3374 52.5797L82.8279 54.2225L83.6689 54.7176L84.4014 54.735L84.5786 55.5442Z" fill="#8ECDFF"/>
<path d="M79.068 25.6766L78.6303 25.9224L78.7389 26.3869L78.3345 27.2389L78.338 27.6141L78.5281 27.7346L79.7475 27.7949L80.0887 27.5132L80.454 27.6352L80.9777 28.3332L80.5946 29.0209L81.0503 29.1536L81.6465 28.4676L81.9877 28.5293L82.3046 28.7494L82.0251 29.1173L82.4024 29.7053H82.8039L83.0108 29.3132L83.4365 29.227L83.4486 28.9091L82.6577 28.787L82.6822 28.4445H83.4489L84.2761 27.7827L84.6414 27.4646L84.7016 26.4604L83.0714 26.3142L82.4028 25.3719L81.9407 25.2135L81.3807 25.2377L81.1287 25.8603L79.9815 25.8755L79.6087 25.7035L79.068 25.6766Z" fill="#8ECDFF"/>
<path d="M82.4995 50.6972L82.9568 51.1253L83.2437 50.943L84.0194 50.816L84.1525 50.8298L84.2021 50.5353L84.64 49.6157L84.2717 48.8496L83.0778 48.8573L83.0703 49.1727L83.2305 49.3265L83.2062 49.6417L82.4995 50.6972Z" fill="#8ECDFF"/>
<path d="M23.7011 23.4435L23.55 24.0497L23.0232 23.7089H22.7606L22.6095 24.3527L20.7666 28.478L21.2557 32.0724L21.858 32.3754L21.9711 33.3601H23.2118L24.4148 34.2678L26.783 34.4955L27.0456 35.7062L27.4214 35.9715L27.9482 35.4425L28.3619 35.6309L28.7377 37.371L29.3761 37.7872L29.9029 36.8025L31.5195 35.6293L32.5716 36.1207L33.4742 36.1962L33.5119 35.6293L35.3912 35.6672L35.767 36.0833L35.8424 37.0288L35.6175 37.558L35.8801 38.4656H36.4447L37.009 37.5957L36.7841 37.1795L36.5592 36.2717L36.8973 35.2496L38.4385 33.9256L39.6037 33.5849L39.4528 32.4872L41.0695 30.7459L42.6861 30.4805L42.4235 29.5747L44.0024 28.6668V27.4562L43.8513 27.3807L43.2868 27.5694L43.2114 28.3111L41.3351 28.3336L39.865 29.3094L37.557 30.0633L37.1887 29.6122L38.2363 28.0291L37.7185 27.5361L37.3668 26.8666L36.6378 26.2816L35.8454 26.2153L34.348 25.1945L23.7011 23.4435Z" fill="#2BB3FF"/>
<path d="M11.6875 7.61279L12.2098 8.58857L12.5449 8.51322V8.17517L11.6875 7.61279Z" fill="#8ECDFF"/>
<path d="M8.74247 16.1939L8.7168 16.6478L9.04281 16.5724V16.3704L8.74247 16.1939Z" fill="#8ECDFF"/>
<path d="M8.24138 16.3959L7.58936 16.7247L7.69046 17.0774L7.94104 16.8754L8.4422 16.6476L8.24138 16.3959Z" fill="#8ECDFF"/>
<path d="M5.53202 16.8243L5.08081 16.7233L5.00537 16.9253L5.05514 17.3036L5.53202 16.8243Z" fill="#8ECDFF"/>
<path d="M4.57817 16.7998L4.15105 16.6237L4 16.901L4.27625 17.1785L4.57817 16.7998Z" fill="#8ECDFF"/>
<path d="M15.3011 6.33733L14.0347 6.63753L14.296 8.06231L15.6741 8.43751L15.7479 8.73754L13.6996 9.37544L12.5449 11.2872L12.954 13.3122L13.6242 13.7616L14.1465 13.2744L14.296 13.5746L13.6621 14.324L11.2031 15.4489L9.63782 15.8241L9.6001 16.3866L13.2137 15.3372L14.7035 14.924L16.0816 13.2365L17.6092 12.2248L16.8273 13.5367L17.6846 13.6496L19.1382 13.0119L19.3994 14.0614L20.4047 14.2861L21.4477 15.2978L21.5216 16.0472L21.3723 16.2342L21.5579 16.9459H21.8191L21.8568 15.7456H22.1542L22.2281 18.7069L22.9739 18.069L22.4516 14.9946H21.6696L20.8123 13.9078L25.022 6.78318L20.85 3.52197L16.1934 4.42222L16.0078 5.847L17.0131 6.44687L16.6402 7.42266L15.3011 6.33733Z" fill="#2BB3FF"/>
<path d="M46.584 64.6957L46.2744 65.0261L46.4028 66.8023L47.3747 67.084L48.611 65.8461L46.584 64.6957Z" fill="#8ECDFF"/>
<path d="M96.1775 32.5992L96.6423 32.6233V31.8286L96.2019 31.5721L96.9446 30.6375H97.2465L97.5484 30.989L98.3379 30.6858L97.2465 30.3119L97.2043 30.0856L96.9449 30.1489L96.6898 30.5922L95.5894 30.5561L94.7818 29.4147L93.363 29.5548L92.6868 28.8853L91.7512 28.7273L91.0718 29.0032L91.4659 30.3119L91.4701 30.7521L91.757 30.7582L92.1087 30.0886L93.0445 30.1004L93.1835 30.6145L95.1893 31.9446L95.965 32.1226L96.1775 32.5992Z" fill="#C4E5FE"/>
<path d="M43.8228 44.479L43.6372 44.6133L43.7837 44.8818L44.0236 44.7475L43.8228 44.479Z" fill="#8ECDFF"/>
<path d="M43.5964 45.0007L43.4229 45.1741L43.4892 45.2809H43.7021L43.7684 45.1059L43.5964 45.0007Z" fill="#8ECDFF"/>
<path d="M39.0518 45.6959L39.1182 46.0864L39.6087 46.242L39.7204 45.5226L40.2382 44.9875L40.7559 45.5936L41.9468 45.9179L42.9551 45.7067L43.6419 46.5525L44.1596 46.8766L43.5921 47.7406L43.7823 48.395L43.4578 48.7961L43.1212 49.078L42.3921 48.7113L42.2247 48.8803V49.4019L42.7576 49.6552L42.365 50.079L41.9725 50.5029L41.4548 50.4607L40.934 49.8894L40.8239 47.7394L39.0457 47.133L38.7227 46.1876L39.0518 45.6959Z" fill="#8ECDFF"/>
<path d="M113.708 45.4742L113.888 45.7561L113.921 46.0789L114.393 46.1302L114.967 45.3657L115.507 45.2134L115.794 44.4323L115.66 43.1748L115.103 42.4101L114.516 41.9412L113.769 40.6593L114.304 39.7636L113.537 38.8846L112.923 38.8577L112.371 39.1546L112.535 39.8647L113.272 39.9943L113.47 40.5417L113.21 40.7107L113.227 40.8463L114.955 42.5353L115.023 43.0314L114.919 44.5994L113.708 45.4742Z" fill="#8ECDFF"/>
<path d="M140.245 59.4623L140.058 59.7127L140.137 59.9945L140.23 60.0577L140.401 59.8375L140.245 59.4623Z" fill="#8ECDFF"/>
<path d="M140.339 60.2299L140.354 60.4334L140.556 60.4967L140.697 60.4184L140.556 60.1979L140.339 60.2299Z" fill="#8ECDFF"/>
<path d="M140.635 62.0482L140.541 62.1898L140.681 62.3463L140.915 62.2681L140.635 62.0482Z" fill="#8ECDFF"/>
<path d="M87.5845 43.1793L87.8017 43.8247V44.4549L88.324 44.9284L92.0039 43.431L92.0385 43.0195L91.4481 41.9612L89.9675 42.4333L89.1178 43.2683L88.1321 42.6864L87.5845 43.1793Z" fill="#8ECDFF"/>
<path d="M91.7549 44.7504L92.0765 45.1096L92.5112 44.8472L92.6678 44.7942L92.4685 44.6014L92.0865 44.7143L91.7549 44.7504Z" fill="#8ECDFF"/>
<path d="M81.8743 60.4289L80.6818 61.5297L80.398 62.2097L79.4531 62.0921L78.6668 62.7902L78.1445 62.7389L78.1866 61.7741L78.0012 61.7092L77.8714 63.6828L76.9446 63.6737L76.6652 63.3447L76.2559 63.3405L76.629 64.4096L77.2947 65.0383L76.8192 65.5916L77.1272 66.2853L77.8397 66.5571L78.4072 66.0744L80.0331 66.0837L80.1495 65.9389L80.8711 65.8119L83.3119 63.3843L83.3026 62.62L83.0416 62.9578H82.6508L82.1753 62.5598L82.4168 61.9597L82.832 61.8756L82.7941 60.6422L81.8743 60.4289Z" fill="#8ECDFF"/>
<path d="M81.3021 63.2182L81.5302 63.2092L81.9 63.6102L81.8894 64.0745L81.4561 64.2931L81.4291 64.4471L80.7681 64.4546L80.561 63.957L80.7498 63.592L81.3021 63.2182Z" fill="#8ECDFF"/>
<path d="M78.9141 57.5744L79.3923 58.2376L80.1334 58.2832L80.3961 58.4278L81.1719 58.437L81.8405 57.5008L83.7093 56.6655L83.8724 55.9295L83.6552 54.8754L82.6801 54.3206L82.0293 54.3659L81.705 55.0835L81.7143 55.4108L82.481 55.7834L82.5264 56.5931L81.8672 56.6294L81.704 56.3565L79.8713 55.5753L79.817 56.1753L78.9506 56.2023L78.9141 57.5744Z" fill="#8ECDFF"/>
<path d="M80.4405 58.7205L81.7947 60.248L82.833 60.5119L83.5286 59.4221L83.4742 57.9776L82.3453 57.3955L81.9208 57.587L81.2886 58.5506L80.4131 58.5414L80.4405 58.7205Z" fill="#8ECDFF"/>
</svg>
