<svg xmlns="http://www.w3.org/2000/svg" width="144" height="80" fill="none" viewBox="0 0 144 80">
  <path fill="#8ECDFF" d="m90.908 39.517.132.524 1.488.132.104-1.077.287-.156.078-.394-.47.131-.521.789-1.098.05ZM93.944 33.804l.24 1.879.597.13.056.339-.428.357.798.644 1.552-.558.123-.66.977-.61.375-1.41.279-.3-.29-.505.945-.583-.12-.17-.437.028-.039.4-.586-.005-.01-.535-.189-.225-.317.288.01.264-.48.18-.882-.055-1.147 1.2-1.027-.093ZM77.325 31.197v.695l.2.375.143-.017.246-.447-.144-.2-.055-.497-.19-.176-.2.267ZM87.242 31.216l.724.944-.213.25-.513-.09-.636-.57.034-.374.604-.16ZM87.497 30.89l-.152.258.71.932.248-.08.408.427.176-.748.443.071-.019-.214-.727-.636-.139.373-.948-.384ZM75.933 29.565l-.056.092L76.89 30.7l.372-.546-.014-.215-.324-.393-.99.02ZM106.238 37.733l-.198.357.513.974.015.76.094.204.602.01.341-.327.248.15.049.462.198-.123.012-.592-.166-.02-.104-.501-.42-.015-.104-.28.257-.342.004-.169h-.745l-.596-.548ZM70.923 26.185l-.096.241 1.038.685.07.009.066-.191.146-.103-.234-.261h-.16l-.219-.249-.61-.131ZM69.26 43.94l.55-.043.9 1.273-.836.63-.605-.156-.814.011-.131.476-.682.033-.187-.254.241-.775 1.564-1.194ZM78.445 30.085l.024.751.254.528.952.017.429-.303.42-.168-.102-.48.095-.256-.214-.111-.295.024-.23.232-.97.008-.363-.242ZM82.184 51.77l.644-.013-.167.564-.163.142h-.2l-.142-.382.028-.31ZM70.485 47.742h.32l.019-.908.404-.586-.018-1.021-.367-.01-.63.492.263.5.01 1.533ZM118.947 47.706l-.434.526.356.112.201-.28-.123-.358ZM40.297 55.779l1.243-.542.41.04.273 1.14 1.893.628.313.963.78.099.332.825-.234.746-1.27.098-.467 1.198-.996-.02-.313-.058-.575.558-.284-.027-.977-2.26.27-.405.096-1.598-.242-.951-.252-.434Z"/>
  <path fill="#006DCA" d="m48.679 65.74.943-1.813.035-1.523 1.76-1.134h.986l.774-1.31.14-2.515-.317-.673 1.866-1.7.07-1.878-2.533-1.24L49.34 51l-1.443-.142.388-.814-.105-1.24-.316-.103-.466.926-.245.306-.628-.278-2.111.744-.704-.885.113-.925-.664.676-.733-.395-.074.104.001.321.633.34-.95.999-.6-.006-.606-.617-.687.021-.084.733.394.478-.465 1.488-.544.042-.865.546-.21 1.072.75.802.137-.155.527-.142.45.757 1.287-.552.5.03.344 1.216 1.837.582.317.97.782.094.372.927-.252.825.33.432-.049.642.882-.083.807 1.02-.063.715.478.404-1.147 1.736 2.02 1.13Z"/>
  <path fill="#8ECDFF" d="m75 53.354.515 1.92-.012.606-.753.808-.113 1.313 2.898.026.942.34.777-.1-.453-.568.002-1.619.89-.038v-.631l-.723-.03-.144-1.496-.305.004-.165-.148-.18.01-.238.461h-.917l-.213-.214.063-.303-.25-.367-1.62.026ZM74.688 52.83l.262.34.34-.321-.1-.333-.084-.006-.418.32ZM47.355 62.626l.293.274-1.113 1.651-.39.432.135 1.887.859 1.042-.722 1.257-.546.236h-.625l.175.981-.977.335.234.825-.585 1.867.723.59-.391.961-.664 1.042.351.727-.859.137-.703-.864-.118-2.691-1.092-4.572.33-1.599-.703-2.043.468-2.652.43-.511-.106-.388.553-.503 1.232.084.688.734.795.014.815.498-.24.56.058.568 1.154-.055.54-.824ZM44.857 77.793l.04.863.663-.059.566-.373-.956-.197-.313-.234ZM73.794 28.235l-.098.204.085.145.351-.073h.3l.323.274.69-.125.507-.301.13-.204-.02-.262-.455-.341-.612.006-.051.347-.643.313-.507.017ZM116.14 64.1l-.053 3.827-.589.431-.053.377.803.538 1.982-.376h1.017l.375-.54 2.249-.432 1.606.486-.107.647.214.647 1.232-.216.053.323-.803.592.267.216.589-.216-.16 1.78 1.124.862.643-.216.322.323 1.874-.27 1.768-2.857.643-.161 1.285-2.372.321-2.048-.803-1.023.322-.216-.644-1.995-.695-.485.107-2.695-.643-.485-.16-1.51h-.322l-1.072 3.558-.588.054-1.339-1.348.75-1.995-1.392-.27-1.553.431-.429 1.24-.695.16-.054-.861-2.837 1.724.053.647-.429.593h-1.072l-2.303.97-.804 2.161ZM125.886 74.396l-.267 1.078.053.754.803-.055.91-1.4-1.499-.377ZM37.414 38.64l-.19-.058-.015.367.234.235.16-.235-.189-.308ZM37.793 39.214l-.263.146.248.352.131-.176-.116-.322ZM38.64 39.478l-.278-.016.029.177.203.294.175-.191-.13-.264ZM38.508 39.126l-.452-.191-.088-.456.175-.074.175.353.175.133.015.235ZM38.07 38.2l-.233-.058-.044-.295-.248-.087.16-.161.292.102.219.133-.145.366ZM106.212 36.975l.234.32.791.005-.08-.437-.945.112ZM78.002 61.575l.325.1-.046.926.334.046.767-.691.92.1.245-.619 1.165-1.063-1.399-1.609-.018-.264-.154-.045-.425.39-1.101.027-.155 1.372-.433.1-.025 1.23ZM78.327 24.642l.227.373-.091.297.015.235.083.282.468-.265.581.015.408.167h1.034l.302-.722.181-.273v-.183l-.649-.912-.574-.227-.468-.053-.407.13.015.41-.566.714-.559.012ZM32.124 42.15l-.008.55h.127l.432-.805h-.293l-.258.255ZM25.13 6.906l.3.454.15.606.752.189.527-.567.451.228 1.279.112.902-.378.151 1.248h.527V8.27l.527.038 1.316 1.551.865.53-.451.719.188.189 1.69.34.037.757.452.076.113-1.136.714-.188.527.795 1.127.529.565.113.376-.454.037-.72.677-.416.224.606-.602 1.06.076.53.338-.53.676-.606.038-.795-.376-.606.113-.491.903-.454.414.303.075 2.65.639-.568.375.228-.526.908.676.15.978-1.513.827.87-.338 1.55-.827.455-.79-.378-1.427.302.15.492-.375.606-1.165.266-1.317 1.022-1.165 1.552-.15.49.789.304.3.757 1.09 1.098 1.73.756-.376 1.74-.038.492.451.303.603-.795.075-1.514.94-.037.452-.87.075-1.324 1.203-2.346 1.504.529.789 1.098-.338 1.097.602.34 1.466-.984.413 2.687 1.354 1.627.038.832-1.503.379-.714.756-1.503-.34-.752-.038-1.316 1.022.789-.189.978-.188.189.228-.263.832.038.757.451.303.451-.113.227-.34h.3l-.489.907-.94.038-.414.606h-.527l-.15-.454.751-.757-.902.303-.041-1.286-.26-.15-.79.34-.075.644h-1.805l-1.542 1.06-2.068.682-.225-.303 1.042-1.553-.592-.569-.376-.72-.765-.584-.821-.068-1.472-1.03-10.673-1.752-.177-.722-.978-.908v-.757l.151-.681-.075-.378-.376-.38-.075-.605.978-.682-.603-3.254-.827-.038-.752-.984 4.13-7.009ZM21.448 18.93l-.257.492.089.348.167.105-.039.141-.18.052.052.517.193.194.154-.167-.193-.504.114-.4.283-.376-.205-.348-.178-.053ZM22.296 21.877l-.231.09.424.492.103.582.424.452.36-.064v-.595l-.437-.271-.643-.686ZM45.452 9.462l-.267.27.234.37 1.105.135-.704-.742-.368-.033ZM31.998 4.98l.034.607-1.205 1.247.302 1.01.87-.235.502-.742 1.27-.472 1.038-.068-.803-.876-.402.303-.302-.101-.167-.371-.368-.37-.769.069ZM33.571 3.195l-.267.472 1.306.472.468-.707.2.472h.336l.635-.707-.77-.202-.302-.235-.401.404-1.205.031ZM35.847 4.139l-1.037.437v.337l1.34.505-.303.336.201.437.837-.37h.703l.335.538.57-.573-.135-.54-.468.169-.067-.674.234-.404h-.234l-.368.235-.167.135.1.472-.267.202-.401-.033-.101-.607-.772-.602ZM37.22 3.094l-.102.336.636.304.468-.27-.034-.202-.969-.168ZM37.72 2.521l-.467.17.033.235 1.037-.068-.033-.236-.57-.1ZM39.964 3.094l-.067.235-.167.236V3.9l.635-.1.67.572h.233V3.8l-.669-.742-.635.036ZM41.67 3.768l.268.303-.234.404.167.437.737-.404v-.303l-.435-.505-.502.068ZM42.642 2.993l.033.539h.904l.234.202-.033.235-.803.1.569.776.77.134 1.07-.472-1.54-2.325-.468.303.033.404-.536-.202-.233.306Z"/>
  <path fill="#8ECDFF" d="m34.844 6.8-1.271.337-.737.64.067.707 1.338.405-.302.674-.97-.607-.267.505.635.438-.033.707.97.27 1.172-.068.2-.371.87.977.602-.202.101-.674.435.303.066-.674-.535-.336.033-2.122-.468-.37-.501.673L34.844 6.8ZM38.927 8.283l-.435-.202-.234.303.468.741.034.708 1.003-.607V8.35l.369-.37-.369-.27h-.602l-.234.573ZM41.069 7.98l-.704.573.168.707h.434l.201-.371.302.303.302-.033.803-.674-1.506-.506ZM41 6.867l-.167.336.736.27.201-.303-.77-.303ZM40.566 5.586l-.737.101-.434.404.803.033-.234.607.167.27.234-.034.57-.909-.37-.472ZM41.839 5.352l-.402.134.066.538.67.437.032.337-.2.202.1.674 2.577.841.704.235.703-.606-.836-.674-.77.202-1.07-.1-.402-.405-.1-1.111-.67-.336-.402-.368Z"/>
  <path fill="#C4E5FE" d="m43.946 8.855-.737-.068-.87.336-.467.64.134 1.752 1.438.068 1.372.674.971 1.111.737-.033-.201 1.043-.669 1.112-.736.336-.536-.101-.267-.235-.402.538.168.538.569.033.703-.336.602 1.55 1.507.977 1.036-1.313-.869-1.414.503-.573.703 1.179 1.27-1.112-.233-.505-.87.27-.602-1.651.57-.942-1.139-1.213-.635.438-.602-1.314-1.271.17-.335-1.584-1.037.707-.101.876h-.57l.067-.775.799-1.179Z"/>
  <path fill="#8ECDFF" d="M44.382 5.654v.304l-.737.168.2.337.837.336.937.101.67.472.668-.371-.468-.472h.602l.368-.404.904-.134v-.202l-.502-.337.066-.37 1.405.234 2.076-.808-.77-.235.2-.27h1.607l.267-.27-3.247-1.145-.77-.27-.836.606-.937-.775-.503-.033-.101.641-.635-.573-.737.235.134.371 1.105.236-.066.538.602.37 1.474-.37.033.505-1.205.573-.736-.573-.669.068.669.944-.335.169-.503-.438-.368.236.335.639h.57l-.135.606-.468-.068-.602-.64-.4.07ZM41.4 14.926l-.64.802-.039.884.559-.321h.677l.479.442.439-.363-1.476-1.444ZM49.174 25.36l-1.595 1.526.16.362 1.953.722.28-.48-.16-.803-.64.08-.359-.401.598-.602-.237-.404Z"/>
  <path fill="#2BB3FF" d="m75.115 53.203 1.556-.027.316.448-.012.33.116.106h.773l.222-.436h.316l.128.13.433-.013.128 1.52.749.025v.117l2.011.907.094.176h.421l-.047-.636-.76-.365.047-.483.327-.766.749-.024-.643-2.132.012-.907 1.017-1.589.012-.223-.153-.083.006-.43-.185-.017-.187-.239-3.072-.138-.563.547-.922-.606-.325.199-.235 1.98-.583.449-.175.398.031.59-1.05.858-.28-.127.038.164-.31.297Z"/>
  <path fill="#8ECDFF" d="m76.063 48.43.703.76.278-.36.442.019.095-.35.435-.272.902.622.521-.516 2.021.089-1.874-1.933.252-.157.034-.34-.426-.201h-.625l-1.007.997-.034.41-.799-.026-.025.175-.52-.053-.47.891.097.244Z"/>
  <path fill="#8ECDFF" d="m75.36 49.707-.01.219.722.018.026 1.871-.66-.018-.382-.297-.295.166-.014.083.152.074.044.384-.407.35.087.184.451-.35h.218l.069.21.287.122.92-.778-.018-.569.192-.462.59-.438.159-1.479-.42.002-.486.665-1.225.043ZM72.63 28.124l-.66.7.014.07.27-.084.244.338.41-.145.284.22.117-.066.35-.549-.09-.084-.345-.01-.168-.342-.427-.048ZM66.465 48.836l.645-.456.803-.14.82.176-.418-.632-.123-.386.123-1.141-.732.034-.332-.316-.698.018-.331.053.034.772-.175.07-.21.387.54.632.054.93ZM44.272 77.086l-.645 1.414 1.112.118.02-.943-.487-.59Z"/>
  <path fill="#006DCA" d="m44.053 76.864-.485.535-.059.629-.937-.531-.996-1.434-.293-.511.41-.531-.039-.668-.468-.197-.371-.274.078-.374.488-.137.098-2.16-.76-.433-.497-11.247.128-.223.972 2.239.311.006.101.357-.413.5-.476 2.695.676 2.075-.312 1.571 1.102 4.62.116 2.702.79.912.836-.121Z"/>
  <path fill="#8ECDFF" d="m40.836 71.211-.194.294.098.512.194.02.099-.65-.197-.176ZM73.37 48.464l.486.447-.035.69 2.666-.061.218-.244-.764-.822-.114-.297.487-.91-.331-.603-.278-.149v-.306l.322-.21.018-.952-.255-.029-.004.5-1.12 2.089-.686.035-.47.322-.14.5Z"/>
  <path fill="#2BB3FF" d="m102.439 25.212-.522 1.312-.721-.038-.759 1.66.645.82-1.329 1.833-.682-.115-.456.573.113.344.532.038.265.61.532.115 1.632 2.1v1.07l.796.495.873-.152 1.1.649 1.328.381.645-.076.721-.077 1.517-.992.494.076.189.448.418.125.569.84-.379.84.229.573.644.228.113.688.759.077.113-.344 1.101-.573.682.038.797.877.531-.229.341.038.153.42.266.038.378-.533 1.517-.574 1.366-1.641.456-1.566-.038-1.031-.569-.114.341-.382-.076-.61-1.441-1.451v-.725l.417-.534.417-.192.037-.42h-1.062l-.19.572-.494-.114-.607-.648.379-.993.531-.573.494.038-.076.878.266.229.644-.649.228-.037-.075-.496.607-.726.455.038.266-.84.311-.164.032-.523-.302-.317-.026-.826.582-.038-.038-2.13-.408.244-.151.546-.68-.002-1.973-1.108-1.425-1.716-1.446-.015-.368.32.468 1.07-.163 1.005-.582.24-.328-.025-.024.994.341.077.607-.267.797.381v.382l-.57.038-.456.992-.416.037-1.48 1.947-1.554.688-1.063.076-.72-.496-1.025.535-1.1-.343-.266-.726-1.858-.114-.986-1.603h-.417l-.335-.743-.399-.032Z"/>
  <path fill="#8ECDFF" d="m115.937 40.305-.36.101-.26.32.216.42.317.03.361-.32.086-.421-.36-.13ZM39.545 44.77l-.31-.032-2.056 1.694-.218.595-.28.032.125 1.316-.717 1.757.779.658.997.064.686 1.004.996.032-.032.752h.373l.404-1.38-.374-.47.093-.877.78-.063-.094-2.04-1.745-.563-.405-1.098.998-1.381ZM34.059 45.554l.21.41.17.227-.23.68-.437-.308-.715-.655v-.432l1.002.078ZM34.583 39.815v.192l.803.015.378-.22.06.161.787.192.7.632-.16.22.03.25.583.147.584-.264.263-.264-.379-.192-1.954-1.146-.686-.074-1.01.351ZM59.746 43.377l-.287.164.206.164.246-.123-.165-.205ZM60.451 43.709l-.187.165.133.246.32-.143-.266-.268ZM60.042 44.175l-.24.143.258.345.204-.107-.222-.381ZM83.24 34.224l.186.135-.576.544-.274-.01-.204-.142.027-.267.417-.027.424-.233ZM74.971 27.444h.669l.358.255.663-.55-.644-.459-.636-.308-.437.079-.591.38.618.603Z"/>
  <path fill="#006DCA" d="m72.362 24.882.539-.087v-.38l.451-.074.248.248.26.03.408-.177.364.102.32.278.044 1.039.32.425-.421.059-.7.438.06.147.625.585-.044.292-.581.293-.539.015-.131.277h-.276l-.132-.292-.48-.118-.015-.483-.243-.134.02-.324-.07-.232-.347-.318.072-.498.378-.176-.13-.935Z"/>
  <path fill="#8ECDFF" d="m73.211 22.412-.626.692-.022.451.285.744.447-.085-.056-.607.308-.344-.006-.27-.217-.562-.113-.019Z"/>
  <path fill="#8ECDFF" d="m73.535 23.682-.185.04v.276l.197.152.174-.043-.042-.262-.144-.163ZM74.116 23.419l-.165.04-.185.169.078.34.226.09-.233.093-.044.119h.35l.105-.192-.134-.066.043-.167.16-.21-.043-.182-.158-.034ZM87.507 45.035l-.086.507.598-.01.01-.744-.22-.135-.302.382ZM43.37 42.523l-.133.282.16.215.2-.174-.227-.323ZM40.961 41.854l-.798-.522-.505-.178-.1.963.1-.008.133.255.174-.2.506-.135.439.093.051-.268ZM72.775 33.87l-.615-.207-2.563.481-.559.424.341 1.76-1.019.04-.612.985-1.46.35.005.716 4.807 3.672.82.069 2.733-2.133-.273-.344-.513-.07-.308-.515v-2.134l-.206-.207.035-.55-.547-.55-.068-.585.239-.172-.103-.62-.134-.41Z"/>
  <path fill="#006DCA" d="m35.993 50.209-.713.443-.052.658-.143.215.45.431-.195.213.045.543.805.192 1.218-1.44-.003-.503-.584-.037-.828-.715Z"/>
  <path fill="#8ECDFF" d="m30.676 50.56-.094.415-.173.174.119.215.306-.12.147-.256-.094-.268-.211-.16ZM79.4 21.23l-.846-.03-.535.327-.008.243.347.327 1.08.182-.038-1.05ZM77.597 21.36l-.229.076.229.04.104.12.124-.148-.124-.212-.104.124ZM77.694 21.665l-.325.145-.113.194.113.126.412-.153.199-.131-.286-.181ZM80.028 36.218l.403.01.785.218.373.01.462-.386h.216l.392.218h.497l.09-.007.313.902.09.291.082.436-.148.108-.255-.128-.294-.959-.266-.019-.02.326.177.563 1.415 1.75.03.75-.412.475-3.87-.043-.06-4.515ZM85.278 44.004l-.038-.889.598-.696.162.124.294.983 1.413 1.05-.257.316-1.034-.888h-1.138ZM68.924 30.48H67l-.388-.176-.187.014-.226.47.08.484.735.068.094.309-.32 1.802.013.322.52.282.601.041 1.202-.295.587-.739.013-.752 1.042-.941.053-.416-.948-.014-.947-.46ZM63.981 37.827l-.264.152.123.124.141-.276ZM63.064 37.855l-.328.083.164.248h.245l-.081-.33ZM62.285 37.608l-.205.206.287.248.163-.371-.245-.083ZM70.847 32.32l-.24.082.052.215h.348l.146-.161-.306-.136Z"/>
  <path fill="#8ECDFF" d="m84.188 46.577 1.099-2.444 1.091.007.968.84-.068.692h.75l.077.416 1.213.725.749.038-1.423 1.527-1.955.602h-.484l-.864-.736-.34-.143-.662-.973-.436.006-.051-.446.336-.111ZM77.743 17.201l.312.137.193.362-.193.25-.969 1.059-.166.558.222.808.747.558.996-.474.803-.111.747-1.199-.554-1.31-.527-1.255.084-.808-.332-.056-.086-.59-.447-.728-.495.343-.195.794-.525-.315-.731-.178-.163.19.28.254.512-.01.412.665.075 1.056ZM47.73 76.193l-.397-.044-.396.266.287.31.505-.532ZM48.125 75.994l-.132.42-.374.332.023.11.638-.244.264-.332-.42-.286Z"/>
  <path fill="#2BB3FF" d="m70.74 26.513-.333.082-.667.725-.2.014-.268-.189-.173.04-.133.417-.975.027.027.216.667.443.774.618-.013.74-.413.724.895.43.908.027.28-.323.575.014.16.148.573-.04.295-.378-.375-.443-.027-.282.08-.309-.187-.268-.32.093-.04-.241.707-.78v-.47l-.41-.134-.25-.172-1.156-.729Z"/>
  <path fill="#8ECDFF" d="m46.851 48.09.883.55-.462.917-.167.211-.49-.282.013-.987.223-.409ZM92.926 60.239l-.344.022-.023.3.23.048.344-.162-.207-.208ZM88.88 56.006l.115.255h.185l.091-.324-.39.07ZM43.823 43.3l-.16.148.119.24.226-.066-.185-.322ZM73.371 30.774l-.294.296-.027.268.24.148.093-.013.053-.39-.065-.309ZM42.997 42.296l-.226.093.08.2.266-.173-.053-.054-.067-.066ZM74.664 49.723l-.019.375-.85-.018-.522 1.006 1.225 1.337.303-.253-.01-.262-.207-.097v-.184l.47-.297.416.315.46.01-.009-1.582-.729-.035-.01-.331-.518.016Z"/>
  <path fill="#006DCA" d="m68.585 22.047-.276.418.11.167h.637v.28l-.166.222.11.585.36.697.276.64.442.168.193.335-.027.306-.276.167-.027.139.193.112-.166.223-.388.167-.747-.083-1.164.53-.388-.195 1.108-.641-.139-.083-.58-.056.358-.53.056-.446.47-.056-.082-.863-.554-.027-.166-.195.027-.64-.332.026.332-1.114.61-.447.197.194Z"/>
  <path fill="#8ECDFF" d="m67.423 23.915-.498.056-.027.447.332.223.36-.083.138-.25-.305-.393ZM85.09 30.352l.493.644.616.284.379-.002.65-.176.163-.255-1.924-.72-.378.225ZM68.317 47.374l.169.397.44.69.245-.009.667-.378-.047-2.155-.516-.151-.723.02-.235 1.586ZM49.719 7.118l-.205.328.37.369-.165.37.534.696.657-.205.862-.081.986 1.066.656 1.762-.532 1.107.738-.124.41.246.041.534-.902.04.492.492.616.124-1.354 1.803-.165 1.107.287.902-.205.533.37 1.148.697.78.205-.041.451-.124.041.656.287.41.533-.04.41-1.517 1.232-1.517 1.848-.738 1.148-1.435.533.246h1.108l.903-.902 1.108-.45.124-.697-.698-.616-.615-.205-.33-.86.78-.451 1.233.655.41-.45-.656-.37 1.396-1.886-.246-.82-.657-.04.246-.738.821-.37 1.683-1.475-.492-.533-1.888.164-.986.985.576-1.271-.657-.164-.37.656-.533-.451-1.478.164.411-.656 2.421-.081-.616-.82-2.626-.492-1.067.164.04.534-1.107-.37.04-.369-.78.164-.165.41.822.287-.862.616-.616-.697-.862-.246-.124.656h-.862l-.33-.697-1.353-.205-.738.37-.041.491-.943-.124-.576.246.041.575v.286l-1.067.206-.492-.328-.33.532.493.534 1.027-.123.081.328-.78.37-.697-.333Z"/>
  <path fill="#8ECDFF" d="m53.004 13.514.246.37-.124.45h-.246l-.33-.369.082-.287.372-.164ZM63.265 12.49l.697.204-.04.575-.739-.37-.164-.205.246-.205ZM62.664 44.553l-.02.167 1.045-.015.053-.155-.023-.157-.3.122-.755.038ZM63.197 46l.459.706.598-.519.613-.027.51.677.433.285.163-.316.145-.081-.01-.697-.289-.826-.884.098-1.095-.088-.006.28-.637.508ZM73.222 48.936l-.069.297.208.113.2-.149-.07-.306-.269.045ZM73.849 49.732l-.01.21.686.034-.01-.236-.666-.008ZM77.731 32.379l-.017.2.7.352.333.128-.175.184-.39.04-.055.175.134.304.437.232.19.016.024-.52.286-.344-.78-.92.104-.311.182-.008.278.223.175-.087.056-.312.652.093.198-.565-.342.24-1-.025-.65.337-.34.568ZM79.248 34.337l.246.008.103.152h.358l.237-.087.08.096-.158.208-.699.024-.127-.167-.134-.08.094-.154ZM30.663 43.525l.895.654.902-1.12-.154-.233-.308-.01v-.657l-.23-.14-.7.208.268.615-.673.683Z"/>
  <path fill="#8ECDFF" d="m62.922 45.486.211.418.593-.51.007-.157-.7-.1-.111.35ZM44.273 46.934l1.09.986-.433.5-.035.297.569.587-.014.563-.99.377-.593-.8.127-.963-.254-.715.533-.832ZM32.575 43.111l1.395-.052.413.491-.258-.059-.496.021-.65.61-.277.616-.183-.097-.001-.675-.402-.269.459-.586Z"/>
  <path fill="#006DCA" d="m76.057 28.995-.533.439h-.54l-.065.38.248.065.123-.184.195.17.156.543 1.066.497.106-.12-1.082-1.116.11-.203 1.028-.04.104-.327-.67.02-.246-.124Z"/>
  <path fill="#8ECDFF" d="m39.112 41.091.52.054-.063.637-.05.334-.606-.033-.107.162-.186-.014-.066-.348.638-.053-.04-.362-.292-.12.252-.257ZM76.226 28.157l-.175.274.013.42.28.143.859.025 1.196-1.007.006-.223-.13-.065-.864.392-1.185.04ZM110.3 47.452l-.042.344 1.025 1.72h.298l2.136 3.57.855.085.427-1.246-.684-.43-.128-.688-3.887-3.355ZM120.42 52.208l.342.418-.222.627v.12h.504l.178-1.568.163.045.296 1.432.282.076.267-.612-.267-.926-.222-.403.697-.508-.163-.225-.667.433h-.178l-.326-.478.104-.21.55-.268.83.253.252-.015.623-.582-.252-.253-.578.447h-.372l-.563-.268-.399.015-.446.716-.282 1.24-.151.494ZM124.143 49.402l-.283.687.445.582h.149l.193-.388.104-.135-.193-.209-.282-.104-.133-.433ZM125.018 51.657l-.608.134-.178.194.148.254.4-.15.252-.148.371.298.163-.134-.295-.36-.253-.088ZM114.932 53.597l-.415.283.089.238 1.321.299.667.12.282.298.756.06.357.298.326-.075.297-.268-.55-.254-.474-.402-1.231-.299-1.425-.298ZM119.249 54.895l-.325.18.193.209.474-.18-.342-.209ZM119.812 54.76l.059.284.341.09.133-.165-.148-.225-.385.017ZM120.629 55.507l-.415.06.371.315h.296l-.252-.375ZM120.746 55.014l-.089.18.667.103.52-.298-.296-.09-.474.135-.178-.149-.15.12ZM122.928 55.12l-.771.642.074.164.325-.06.385-.359.757-.104-.148-.253-.622-.03ZM126.821 50.735l-.63.07-.404.296.168.338.685.127v.127l-.433.351.21.731.209.014.181-.718h.336l.14.703 1.635 1.35.042 1.056.558.605.252-.013.056-3.728-.95-.66-.895.605-.321.197-.532-.338-.013-1.069-.294-.044Z"/>
  <path fill="#2BB3FF" d="m119.235 48.482-.348 1.31-1.892.637-.566-.664-.274.076.513 1.978.768.086 1.025.387v.388l.469-.086.684-.945v-.774l.385-.773.427.085-.513-1.075-.079-.692-.599.062Z"/>
  <path fill="#8ECDFF" d="m67.588 24.681-.138.905-1.218.447h-.388l-.276-.195v-.167l.61-.39-.166-.336.027-.473.527.027.241-.567-.032.504.41.324.403-.079ZM83.559 35.464l-.239.758.31.91.354-1.329v-.285l-.425-.054ZM102.526 46.765l.691-.338.411-1.483-.018-1.822 2.352-2.536v-.601l.484-.189-.018-.695-.523-1.014.299-.545.654.602.839.037v.339l-.261.281.056.15.448.02.094.506h.131l.337-.602.167-1.577.56-.395.018-.545-.223-.432-.355-.019-1.388.917.087.59-.975-.003-.344-.42-.187.023.063.585-2.108-.15-1.307-.582-.07-.716-.871-.54-.01-1.111-.598-.684-1.374.132.15.597.673.544-1.164 2.38-.779.058-.128.287.767.709-.038.716-.783-.012-.085.356.651-.03.018.283-.466.244.298.564.579.188.355-.262.167-.47.206-.092.243.243-.074.602-.168.282.038.489 2.479 5.141Z"/>
  <path fill="#2BB3FF" d="m86.425 33.5-.235 1.162-.976.81.062.384.953.064 1.517 1.234.848-.024.023-.285.31-.334.435.246.058-.054-.841-1.117-.399-.025-.53-.68.106-.5.162-.021.056-.222-.722-.758-.827.12Z"/>
  <path fill="#8ECDFF" d="m87.231 32.432-.185.191.018.303.23.322.813.89-.123.355h-.142l-.071.356.46.588.425.036.85 1.175.476.036.371.267.019.534 1.468.854h.548l.337-.285.424-.018.248.57 1.586.22.047-.582.526-.19.024-.208-.418-.57-.932-.748.49-.444-.035-.196-.613-.095-.26-2.066-.03-.475-1.662-.635-.737.166-.412.505-.365-.024-.105.089-.814-.053-1.027-.748-.382-.418-.175.042-.316.36-.556-.104ZM62.584 17.257l-.296-.168-.398.252-.343.316.009.177.444.056-.028.316-.156.159.037.102.444.029v.513l.639.111.379.215.425.018.731-.364.564-.745.01-.503-.343-.29-.287-.242-.13.093-.194.252-.222-.029-.222-.243-.287.027-.417.345-.25.27-.14-.12-.009-.299.14-.093-.1-.155ZM72.532 29.27l-.093.237.026.257.36.421.568-.02 1.252 1.454.783.226.462.436.11.994.247-.145.215-.541-.053-.39.367-.032.053-.22-1.034-.495-.981-.963-.391-.576-.095-.548.5-.12-.129-.36-.306-.257-.265-.012-.368.1-.347.486-.21.139-.324-.2-.347.129Z"/>
  <path fill="#2BB3FF" d="m75.577 33.196-.22-.118-.746.118.025.202.672.338.101.11.177.026-.01-.676Z"/>
  <path fill="#8ECDFF" d="m73.33 31.743-.399.202.053.78.32.053.24-.228v-.74l-.213-.067ZM37.311 41.726l-.525.133v.146l.307.176h.321l.204-.235-.307-.22ZM84.099 35.874l-.371 1.293-.017.198h.584l.654-.576.016-.218-.267-.273.479-.397-.07-.368-.13.03-.4.286-.478.025ZM122.488 32.2l-.246.248.101.348.216.015.145.756.173.188.304-.276.026-.832-.349-.371-.37-.075ZM123.776 31.502l-.465.376-.103.475.316.218.459-.48.064-.534-.271-.055Z"/>
  <path fill="#8ECDFF" d="m123.239 30.777-.737.843v.405l.455-.054.713-.627.477-.087.116.136.002.414.12.218h.22l.307-.376.13-.495.62-.015.607-.726-.316-1.207-.145-.639.317-.26-.722-1.09-.165-.13-.327.13-.084.451v.364l.173.203.058.96-.447.551-.26-.16-.202.45-.044.421.159.248-.101.188-.333-.276h-.23l-.202.116-.159.044ZM124.481 24.212l-.231.204.116.436.203.203-.015.668-.26.1-.202.452.591.812.39-.13.072-.204-.418-.377.26-.335.274.043.599.403.065-.451.284-.52.399-.403-.432-.196-.164-.315-.216.145-.187.233-.405-.088-.418-.276-.305-.404ZM126.659 23.762l-.405.566.029.276.202-.087.476-.596-.302-.16ZM127.194 22.934l-.145.392.015.26.246-.16.231-.464v-.173l-.347.145ZM84.39 48.802l.402.782-.481 1.009-.063.306 2.404 1.485.746-1.17-.377-.306-.008-1.54.472-.517-.753.25-.569.008-.89-.75-.281-.121-.52.048-.092.154.01.362ZM97.368 29.606l-.046.381.037.236 1.314.44-1.154.464-.13-.108-.25.16.012.087.133.06.81.021.41-.123.527-.664.66.115.795-1.101-2.128-.29-.295.713-.371-.397-.324.006ZM113.017 44.723l.617.659 1.148-.85.101-1.342-.593.408-.308-.171-.418-.056-.234-.164-.114.006-.306.502.05.232.311.173-.038.472-.216.131ZM88.445 55.543l.069.23.299.048.114-.3-.482.022ZM118.723 28.861l.277.116.085.971.551.032.519-.608-.18-.16.021-.65.477-.577-.243-.437.159-.181.087-.452-.276-.126-.236.12-.291.883-.471-.04-.545.642.066.467ZM120.241 29.453l.933.76.158.736-.032.395-.455.513-.393.02-.445-.96-.169-.458.179-.139-.042-.192-.222-.099.488-.576ZM89.29 36.837l-.34-.184-.235.237.025.473.549.21.001-.736Z"/>
  <path fill="#8ECDFF" d="m88.294 28.01.619-.265.69-.024.05 1.055h-.406l-.309.504.405.671.596.337.054.384.22-.072.201-.24.334.072.167.337h.43v-.432l-.263-.767-.12-.623.762-.336 1.025.167.643.647 1.454-.143.81 1.15.953.048.263-.43.333-.073.048-.48.5-.024.262.312.263-.623 2.263.312.38-.503-.643-.792.858-1.87.691.049.477-1.15-.953-.097-.548-.528-1.51.175-1.944-1.877-.685.607-2.079-.942-2.55 1.247-.07.886.596.696-1.162.655-1.508-.033-.316-.462-1.181-.066-1.12.72-.025.983 1.045.837Z"/>
  <path fill="#2BB3FF" d="m112.26 39.214-.365.185-.303.883.507.646-.085.713.085.034.844-.408 1.132 1.263-.028.796.246.133.608-.493-.049-.39-1.756-1.667.017-.255.219-.152-.153-.425-.726-.12-.193-.743ZM83.692 34.617l.009.294-.124.446.426.036.027-.633-.338-.143Z"/>
  <path fill="#8ECDFF" d="m43.81 43.903-.107.228.173.187.227-.12-.293-.295ZM103.97 46.017l.037.41.038.299-.222.037.112.672.333.186.518-.298-.148-.707.038-.261-.481-.447-.225.109ZM64.668 47.696l1.658 1.107-.04-.838-.5-.59-.49-.432-.628.753ZM80.856 63.71l.46-.355.217.01.263.327-.027.327-.443.163v.127l-.487-.027-.118-.354.135-.218Z"/>
  <path fill="#006DCA" d="m77.58 23.312-.374.063.03.354.586.043.221.182.058.316.181.252.536-.023.513-.653-.03-.388-.966-.15-.755.004Z"/>
  <path fill="#8ECDFF" d="m72.042 27.21.133.118.153.015.034-.302-.044-.17-.214.101-.062.238ZM79.446 22.393l-1.111-.181-.19.492-.32.096-.167-.205-.168-.316-.182.133-.102.546v.298l.391-.065.815.014.98.183.393-.115-.022-.44-.317-.44Z"/>
  <path fill="#006DCA" d="m73.707 36.967.235-.04.07-.542h.117l.482-.79 1.188.345.324.504 1.168.534.608-.256-.059-.257-.265-.256.03-.178.432-.365h.854l.325.434.686.1.09 5.562-.51-.02-3.083-1.601-.333.188-1.267-.316-.344-.454-.501-.07-.255-.453.008-2.069Z"/>
  <path fill="#8ECDFF" d="M68.913 34.592H67.17l-.341.757-.787.379-.65 1.755-1.264.757-1.776 2.924 1.743-.035.068-.86h.443V39.1h1.539l.034-1.513 1.47-.344.616-.999.957-.034-.309-1.617ZM79.85 27.872l.468.719-.04.407.168.008.397-.671-.477-.591-.27-.112-.246.24ZM77.15 30.541l-.22.312.063.192.263.048.206-.28-.311-.272ZM90.65 55.798l-.322.763-.55.971-.965.07-.413.485.069 1.48-.598.694.07 1.18.505.577.598-.07.598-.44-.138-.693 1.379-2.382-.277-.3.277-.578.298.092.092-.231-.276-1.18-.161-.485-.186.047ZM78.366 30.933l-.508.167.024.431.12.153.603-.28-.239-.471ZM64.561 44.176l.465-.318 2.584-.015-.598-4.153.683-.02 3.3 2.517.444.064-.167 1.399-2.076.188-1.601 1.194-.292.818-1.112.047-.284-.816-.853.06.033-.267-.526-.698ZM111.35 45.354l-.418-.67.303-.425-.286-.526-.271-.052-.051-.883-.404-.783-.118.187-.27.459-.339.05-.169-.22-.084-.596-.254-.477-1.032-.972.253-.167.047-.705.378-.633.163-1.576.546-.372.018-.575.328.109.516.746-.383.82.258.644.639.25.116.702.857.133-.237.408-1.08.426-.118.696.794 1.02.033.544-.185.187.016.17.592.867.017.9-.175.314ZM102.952 25.227l.878-1.164 1.056.487.717.192.878-.805-.596-.44.392-.552 1.171.413.406.665.734.02.383-.286.79-.032.172.293 1.311.066.83-.845 1.149.12-.066 1.152.502.114.618-.28.653.323-.015.163-.474.014-.494 1.034-.383.038-1.491 1.946-1.523.672-.953.073-.791-.51-1.011.54-.996-.309-.283-.722-1.886-.133-.966-1.635-.47-.03-.242-.582Z"/>
  <path fill="#8ECDFF" d="m62.363 41.284.33.43-.069 1.858.479-.345.34-.069.48.172.546.757.513-.344 2.495-.034-.616-4.164.661-.003-1.232-.942.002.612-1.56.002-.007 1.169-.448-.002-.057.862-1.857.041ZM75.603 34.32l-.252.05.009.28.226.075.101-.084-.084-.321ZM93.776 59.729l-.23.3.046.324.483-.393-.299-.231ZM100.325 47.934l.046.393.251.092.046-.347-.343-.138ZM100.647 48.766l-.023.485.184.092.162-.324-.323-.253ZM100.694 49.714l-.162.162.185.161.229-.161-.252-.162ZM83.836 56.775l.47.49-.01.628.091.264.624-.672-.073-.855-.334-.255-.297-1.5-.514-.019.233 1.081-.19.838Z"/>
  <path fill="#2BB3FF" d="m22 33.56.729 2.293-.34.19.038.455.642.493v.912l.792.76-.34-2.241-.452-1.482.113-1.025.377.038.151.342-.15.873 1.961 3.836v1.367l1.585 1.86 1.736.799.717-.418 1.019.835.604-.608-.264-.684.867-.266.265.153.264-.266h.415l.755-1.33-.378-.342-1.471.343-.34.987-.868.153-1.019-.418-.453-1.443.343-1.82-.7-.436-.334-1.748-.28-.119-.51.517-.585-.312-.23-1.165-2.32-.243-1.198-.9-1.141.06Z"/>
  <path fill="#8ECDFF" d="m111.844 47.133.303.68.068.883.406.629.89.538.174-.138.256-.05-.037-.334-.321-.78-.471-1-.04.175-.567-.026-.408-.585-.253.008ZM116.588 49.767l.456.526 1.748-.605.346-1.333.778-.055.713-.516-.924-.672-.211-.37-.456.84.167.483-.278.403-.523-.135-1.27.93.033.539-.579-.035ZM82.933 61.883l.406.337.956-.582.154-.864v-1.426l1.535-1.255.263.01.93-.891-.145-1.837-2.411.304.09.582.353.307.1 1-.831.81-.2-.455.037-.6-.479-.519-1.174.546 1.093.556.036 1.617-.723 1.072.01 1.288ZM76.197 63.192l.506.037.297.3.705.009.172-2V60.23l.452-.091.172-1.372 1.147-.036.406-.336-.687-.028-.93.127-1.002-.363h-2.817l.073.799.938 1.38-.163.71.01.372.721 1.8ZM138.097 62.968l-.053.27.696.97.375.161.052-.377-1.07-1.024ZM70.814 45.105l.385-.01.347-.52.583-.104.62.379 1.324.038 1.024-.417.384-.33.03-.434.713-.72.188-1.587-.469-.983-1.201-.293-2.78 2.165-.395-.038-.169 1.504-1.418.141.834 1.209Z"/>
  <path fill="#8ECDFF" d="m70.918 47.724.591.029.714.794.347.095.272-.132.413-.058.141-.576.563-.369.61-.029 1.117-2.052-.018-.463-.516-.396-1.033.454-1.38-.02-.66-.416-.469.104-.244.426-.018 1.2-.394.558-.036.851ZM34.113 43.614l.33.066.011.677-.385 1.098-1.037-.103-.23-.53.307-.641.584-.543.42-.024ZM72.203 24.94l-.684.337.145.131.016.336-.145-.028-.16-.249-.382.605.587.122.219.23.116.003.077-.521.37-.155-.159-.81Z"/>
  <path fill="#2BB3FF" d="m79.052 14.97.305-.224-.028-.25-.193-.112.028-.306h.166v-.167l-.72-.194-1.08.111-.11.474-.25-.084-.165-.278-.527.027-.056.529-.249.111-.139-.279-1.108.892.222.25-.415.194-.942 1.867-.332.223.027.167.332.168-.083.362-.554-.03-.166-.194-.36.418-.221.168-.056.39-.193.112-.499.111-.249.782.167 1.282.193.585.222.223.498-.028.72-.696.276-.474.084.697.47-.835.027-2.342.384-.241.114-1.293 1.162-1.672.554-.194.25-.306.83.194.415.25.139-.696.693-.418.417.726Z"/>
  <path fill="#8ECDFF" d="m74.946 7.705-.249-.25-.552.268H73.13l-.16.591.57.502.248-.036.356-.609.302.215-.214.43-.107.627.249.394.534-.896.695-.843-.267-.232-.39-.161ZM75.248 6.63l-.445.412.267.411h.48l.196.268.587.305.676-.393.464-.394-.16-.323-.464-.268-.338.304-.23-.286-.18.018-.23.502-.338-.341-.036-.232-.249.017ZM76.263 8.475l-.357.323-.302.233.142.25.286.089.463-.216.215-.268-.197-.323-.25-.088Z"/>
  <path fill="#2BB3FF" d="m102.558 36.142.069.644 1.22.552 1.954.145-.074-.472-1.305-.36-1.108-.658-.756.15Z"/>
  <path fill="#8ECDFF" d="m139.061 72.24.16 1.779-.215.808-.803.592.053.702v.753l.215.27 2.196-1.886v-.431h-.536l-.75-2.533-.32-.054ZM137.454 76.12l.429.809-1.179 1.132-.107.593-.803.106-1.339 1.24-1.232-.593-.107-.431 2.249-.97 2.089-1.885ZM91.568 41.914l1.115-.642.198-.942-.244-.14.101-1.01.213-.125.228.358 1.357.708v.394l-1.644 2.417-.756.026-.568-1.044ZM34.543 46.252l-.22.688.727.188.452.09.077-.533.484-.244.43.221.17.27.205-.024.161-.49-.538-.222-.407-.221-.407.277-.485.244-.495-.199-.154-.045ZM35.213 52.27l-.293.295.02.472 2.557 4.656 2.655 1.71.41-.687.099-1.513-.215-.942-.723-1.218-.43.137-.194.216-.86-.983.215-1.16.996-.648-.078-.61-1.014-.039-.527-.883-.293-.098.02.53-1.307 1.552-.977-.235-.06-.552ZM129.965 52.084l-.056 3.686.532-.029.699-.816.586.029.378.338.125 1.04 1.202.633.308-.113v-.38l-.965-.802-.475-1.098.377-.182-.279-.605-.559-.013-.14-.647-1.481-.998-.252-.043ZM134.513 53.1l-.143.034-.088.388-.275.178-.825.144.033.31.869-.043.551-.344-.033-.598-.089-.068ZM134.149 52.192l-.133.188.726.642.1.377.198-.022.022-.388-.22-.198-.693-.6ZM120.396 44.43l-.13.248-.072.305-.721.915.043.188.304-.044.937-1.046-.361-.565ZM121.565 44.083l-.016.755.275.276.101.537.275.058.129-.334-.216-.16-.057-.944-.491-.188ZM122.345 44.373l-.015.668.158.261.274-.32-.072-.58-.345-.029ZM122.517 43.791l.274.364.13.348h.246l-.044-.596-.274-.188-.332.072ZM123.051 45.157l.057.436-.505.407-.419.044-.447.48.015.218.419-.131.288-.188.246.624.433.305.174-.06.158-.188-.346-.348.203-.16.231.188.158-.26-.158-.32-.029-.712-.478-.334ZM120.7 40.727l-.39.276-.043.872.607 1.176.202.16.259-.175.447.072.086.392.332.029.159-.217-.202-.276-.247-.233-.519-.057-.275-.45.318-.48.028-.42-.216-.537-.546-.132ZM120.902 43.327l.115.407.202.132.145-.189-.231-.32-.231-.03ZM95.303 37.24l.393.582-.038.3-.522.207-.038.489h.598l.205-.17h1.139l1.026.902.131-.432h.766l.018-.545-.783-.75.167-.414.803-.055 1.082-2.255-.598-.468-.223-.79 1.455-.13-.858-1.221-.458-.124-.187.226-.14.01-.86.545.282.47-.317.338-.393 1.446-.97.62-.132.677-1.547.542Z"/>
  <path fill="#2BB3FF" d="m78.448 25.92.128.235.03.25-.105.243-.242.465-.204.091-.264-.114-.159.007-.384.145-.438-.13-.71-.502-.694-.372-.28-.425-.052-1.003.543-.472.71-.236.231-.024.055.176.302.12.832.016.257-.007.422.647-.105.265.045.312.082.313Z"/>
  <path fill="#8ECDFF" d="m42.16 41.947-.399-.134-.32.2.16.187.545.08.014-.333ZM66.292 31.42l-.093 1.304-.267.242.027.147.187.31-.12.376.2.068.468-.054-.027-.377.306-1.748-.066-.241-.615-.027ZM62.858 35.217l-.163.206.163.207.246-.124-.246-.29ZM57.494 32.291l-.205.207.367.207.041-.288-.203-.126ZM58.6 32.168l-.245.164.205.164.327-.083-.287-.245ZM58.763 32.745l-.122.33.163.207.206-.164-.247-.373ZM59.746 33.404l-.081.207.122.123.327-.206-.368-.124ZM45.286 59.808l.332.361-.04.767.957-.06.723.925-.058.825-.469.707-.956.04-.04-.394.273-.649-.937-.59h-.78l-.586-.628.426-1.216 1.155-.088ZM90.7 38.624l-.078.605.232.177.211-.02.079-.761-.183-.132-.261.131ZM78.556 27.855l-.039.223-.874.727.73 1.07.469.328h.842l.278-.232.373-.048.278.167.492-.56-.095-.28-.5-.128-.341-.016.016-.48-.452-.712-1.177-.059ZM77.556 28.902l-.31.232h-.15l-.103.32.366.423.024.337-.154.217.535.558.58-.177-.048-.823-.74-1.087Z"/>
  <path fill="#C4E5FE" d="m124.713 10.565.266.917.532.152.531-.84-.303-.572.113-.497h.796l-.19.382.076 1.375-1.138 2.826.113.61-.038 1.032 2.124 3.092.416.115.038-2.52.417-.381-.456-.992.379-.421-.835-1.107-.456.038-.151-1.832 1.176-.306.076-.536.607-.152.341.306.417-1.68.72-1.22.569-.307.494.038v-.573l-.797-.152-1.101-.917.532-.61-.456-1.032.379-.382.456.611 1.138.42 1.251.115.153-.534-.645-.648.72-.992-1.631-.573-.417.84-.531-.688-2.997-1.032-2.845.497-.417.229v.229l.607.306-.076.725-1.1-.458-2.427.954-.417-.877h-1.669l-.76.802-2.693-.61-2.464.496-.304.763.379.114-.037.573-2.39.267.152.763-2.201-.382.532-.992-2.238-.114.19 1.031-.72.344-.607-.573-2.465.42-.948.878-.038.534-.607.038-.076-.611 1.936-1.68V4.458l-1.252-.343-1.632.533-.682-.687h-.303l-.38.763.304.344-2.163 1.184-1.858 1.412-1.138 1.565v.649l1.213.496-.607.458-1.289-.458-.532.458-.796-.917-.153.345.873 2.748.228.077.607-.306.303.229v.496l-.57-.229-.34.267.228.496-.19 1.298-1.176.115-.076-.42.683-.421.152-1.146-.76-.993-.265-1.717-1.213-.192-.114.61.228.307-.493.42.19 1.147.72.306.153.84-.722-.459-1.858-.344-.228.611-1.48.534-.228-.382-1.935 1.07-.037.724-.76.115.229-.534v-.534l-.76-.266-.493.191.416.802.304.534v.42l-.57-.114-.113-.114-.569.61.303.534-1.289-.037.417.535-.113.229h-.682l-.494-.344-.113-.954-.797-.306v-.382l1.67.344.91.077.38-.573-.342-.611-2.427-.954-.838.207-.287.246.09.566.356.061-.084.89 1.1 2.578-.795 1.258-.054.283.403.284-.364.24-.242.004.046 1.108.333.472.005.459.427.039.653.249.692.95.007.25-.224.384.516-.028.502.145.68.96 1.672.152-.072 1.143-.577.493.12.193-.57.611-.15.573.34.496 1.1.382.457-.267 2.92 1.107.114-.307-.607-.572v-.726l-.38-.114.076-.61.608-.726-1.089-.814.076-1.133 1.164-.764 1.366.077.228.42 1.404.077 1.024-.573-.531-.572.113-1.07 2.655-1.298 2.042.92.682-.61 2.01 1.908 1.518-.152.532.534 1.441.152.948-1.298 1.213.535.645.115.645-.573-.57-.382.494-.763 1.404.458.303.611.607.038.379-.267 1.025-.038.113.267 1.175.077.797-.84 1.632.192.494-.192.15-.917-.493-1.107.493-.42h1.555l1.479 1.756 1.896 1.07h.57l.075-.459.682-.42.076 2.481-.607.038v.61l.341.421-.063.546.252.104.152-.381.228.077.151.152.682-.152.683-1.986.075-2.482-.872-1.986-1.1-1.336-.532.077v.42l-1.289-.496.493-1.069.417-2.825 1.745-.534.835-.534h.91l-.229.306.228.382.797-.84.455.038-.075-.496-.722-.153.494-1.794.652-.615Z"/>
  <path fill="#8ECDFF" d="m77.225 23.845-.226.417.815.008h.166l-.032-.236-.127-.149-.596-.04ZM128.045 19.476l-.187.233.015.363.173-.015.289-.508-.29-.073ZM134.271 5.357l-.356.232-.084.296.167.19.377-.127.378.127.209.063-.021-.697-.67-.084ZM83.936 5.417l.26.105-.183.313v.445l-.39.236h-.414l-.234-.288.025-.314.183-.235h.364l.39-.262ZM84.923 5.13v.313l.26.21.364-.026.312-.288v-.21h-.285l-.234.079-.183-.21-.234.132ZM86.406 5.157l.182.392.364.025.26-.104-.13-.366-.338-.079-.338.131ZM87.886 4.633l-.285-.052-.26.262.13.235.079.367.338-.261.078-.288-.08-.263ZM89.471 7.406l-.078.367-.598.523-1.274.288-1.04 1.726-.183.498 1.04.263.156-.628.312-.968.806-.419.676-.523.494-.21h.26v-.705l-.57-.212ZM86.119 11.226l.701.078.235.811.597.627-.208.42h-.364l-.338-.393-.753-.025-.312-.42v-.287l.468-.132-.026-.68ZM97.088 2.306l-.338-.21h-.39l-.078.235-.415.236-.313.104-.051.313.728.053.857-.731ZM97.893 2.384l-.183.392-.364-.026-.572.42-.155.523h.363l.209-.341.493.366.468-.21.339-.287-.13-.445-.183-.314-.285-.078ZM98.647 2.672l.183.733.285.68.313-.55.597-.13v-.393l-.389-.288-.989-.052ZM112.908 1.499l.406.34.288-.119.085-.477-.592-.409-.389.256-.948.086v.427l-1 .016v.699l1.169.868.305-.222-.069-.613.746-.187-.152-.29-.27-.273.421-.102ZM113.992 1.09l.27.511 1.051-.119.288-.375-.068-.324-.288-.12-.271.206-.779.17-.203.051ZM113.924 3.084l-.526-.136-.303.324-.136.443.711-.068.542-.273-.288-.29ZM127.537.136l-.44-.136-.507.187-.254.375.322.427.846-.375.17-.187-.137-.291ZM127.699 20.363v.64l.202.072.145-.232v-.494l-.347.014ZM121.795 18.053l-.013.93 1.168 1.802.419 1.568.736 1.395.288.101.246-.204.115-.334-1.053-1.148.028-.596.231-.1.058-.349-2.064-2.919-.159-.146ZM129.936 15.163l-.288.028.173.248.361.247.101-.116-.347-.407ZM130.498 15.338l.043.247.447.131.044-.175-.534-.203ZM132.95 16.286l.189.338.314-.021.063-.233-.566-.084ZM136.116 16.813l.252.465.188-.211v-.317l-.44.063ZM82.427 50.82l.424.39-.018.418-.658.013v-.461l.252-.36ZM89.397 37.753l1.058 1.472.341.272.153.66 1.629.129.184.096-.183.814-1.07.63-1.565.474-.835.814-.992-.577-.6.524-.837-1.364-.573-.263-.208-.315v-.683l-2.088-2.52-.079-.447h.601l.73-.63.026-.316-.208-.21.418-.34.888.053 1.514 1.26.893-.04.058.22.745.287ZM135.492 53.776l.187.52.331.322.099-.09-.033-.343-.374-.454-.21.045ZM136.405 54.551l.023.344.21.2.198-.123-.177-.367-.254-.054ZM136.669 55.405l-.176.189.187.343.22.067-.01-.232-.221-.367ZM137.1 55.206l.154.377.297.354.164-.265-.22-.377-.395-.09ZM137.871 55.771l.088.466.21.288.176-.365-.474-.389ZM138.112 56.813l-.076.133.253.333.177.011-.11-.433-.244-.044ZM137.551 57.477l-.264.122.231.321.197-.111-.164-.332ZM92.167 53.6l-.091.185.252.208.184-.208-.345-.185ZM93.455 52.213l-.276.185.207.324h.276l-.207-.51ZM93.57 53.023l-.185.208.137.207.252.047.023-.44-.227-.023ZM80.026 45.953l-.446-.262-.406-.8.023-.745.563-.484.027-1.784.371.01-.042-.99 3.895.034.556-.56 1.202 1.92-.658.774v1.183l-.803 1.726-.182.4-.648-.926-.472.6-.535.145-1.736-.174-.756.269.047-.336Z"/>
  <path fill="#006DCA" d="m76.374 15.338.296.273h.554l.305.585.083 1.002-.747.53v.529l-.527.725-.305.027-.415.697.027.669.72.53-.056.305-.276.418-.415.362.027 1.199-.637.223-.222.473h-.305l-.165-.835-.693-1.062.569-.951.04-2.35.392-.216.095-1.345 1.118-1.6.537-.188Z"/>
  <path fill="#8ECDFF" d="m76.49 22.212-.318.252.16.37.282-.275-.124-.347ZM113.582 49.908l.12.068.27-.022-.023-.204-.22.035-.147.123ZM75.933 28.517l-.383.23-.715.156.143.413.5.006.463-.386-.008-.419Z"/>
  <path fill="#006DCA" d="m76.09 27.784.104.092.013.157 1.152-.026.852-.366-.014-.373-.163.073-.234-.125-.143-.007-.378.151-.513-.123-.676.547Z"/>
  <path fill="#8ECDFF" d="m63.727 46.783.852.823.609-.737-.38-.596-.525.053-.556.457ZM63.66 44.86l-1.011-.024.187.454.104-.28 1.27.133.14-.005.595.02.021-.262-.543-.65-.605-.82-.376-.156-.29.074-.595.431-.135.242-.043.24.22.158.73-.011.47-.127.052.23-.042.305-.149.049ZM90.6 45.414l.66-.253.234.14-.026.585-.608 1.73-3.292 3.523-.382-.263-.026-1.486.495-.569 1.051-.323 1.54-1.626.404-.359.113-.524-.163-.575ZM45.493 47.99l.308.283.477-.296.434.014-.056.169-.182.38-.029.945-.868.353.043-.606-.56-.522.028-.268.405-.451ZM84.075 46.474l-.356.157.113.62h.444l.602.872-.483.062-.124.225-.012.324-1.45-.026-.147-.224-1.013-.058-1.86-1.912.186-.111.789-.238 1.728.131.588-.131.39-.523.605.832ZM72.302 50.405l.173-.088.13.106-.13.2-.157-.062-.016-.156ZM72.65 49.854l.262-.044.087.166-.13.14-.13-.017-.089-.245ZM31.685 44.24l.709.354-.01-.56-.364-.221-.335.428ZM83.763 34.117l-.053.383.425.178-.018 1.062.426-.01.426-.32.16-.027.966-.768.194-1.114-1.93.196-.204.446-.392-.026ZM82.887 61.992l-.379.063-.163.446.29.264h.351l.297-.427-.396-.346ZM75.63 44.2l.02-.445.715-.695.192-1.707-.477-.91.334-.171 3.23 1.681-.02 1.65-.57.484v.85l.374.721h-.658l-1.09 1.077-.029.325-.804-.01-.01.147-.46-.06-.313-.592-.236-.117.03-.18.296-.227v-1.058l-.41-.063-.493-.367.379-.333ZM69.959 48.007l.404-.236-.01-1.56-.262-.426-.169.142.037 2.08ZM111.439 40.35l.489.63v.764l.169.084.778-.374.152.051.929 1.071-.034.731-.303-.051-.27-.17-.202.016-.355.594.068.323.287.152-.017.357-.202.103-.693-.476v-.426l-.287-.016-.118.186-.06 1.903.448.818.794.764-.033.222-.423-.016-.388-.578h-.406l-.506-.409-.153-.425.219-.357.075-.323.239-.423-.011-.97-.582-.842-.025-.102.189-.19-.044-.668-.775-.982.09-.565.961-.405ZM96.37 31.51l.62-.769h.233l.082.172-.287.208v.172l.189.135.907.055.296-.127.134.027.091.29.539.054.27.57-.082.171-.107.01-.107-.218-.234-.018-.404.055-.027.38-.405-.027.019-.48-.296-.289-.45.37.01.245-.396.136h-.234l.018-.842-.38-.28Z"/>
  <path fill="#2BB3FF" d="m90.884 30.87-.093.396h-.627v.537l.673.443-.208.607v.281l.28.047.37-.49.837-.187 1.787.677.022.49.998.093 1.114-1.168-.139-.374-.742-.163-2.09-1.356-.093-.49h-.79l-.348.655h-.349l-.602.002Z"/>
  <path fill="#8ECDFF" d="m72.93 33.846.835-.336.275.178.01.217-.128.167.02.297.128.07v.533l-.148.247.02.159.56.197-.452.701-.176-.01-.03.564-.197.03-.167-.148.04-.573-.55-.534-.07-.464.266-.208-.235-1.087Z"/>
  <path fill="#2BB3FF" d="m81.19 31.453-.403-.249-.222-.177-.373.16-.258.653.388-.087.272-.208.6.164-.34.327-.903-.043-.333.365v.178l.213.178v.196l-.09.232.09.196.284-.142.283.303-.07.215-.106.143.158.178.78.16.547-.233v-.338l.266.053.637.374.69-.107.3-.285.194.071v.321h.266l.23-.445 2.016-.214.88-.107-.232-.304-.005-.412.177-.21-.643-.517.034-.444h-.353l-.585-.287-.337.356-1.238-.037-.743-.444-.712.064-.794.476-.565-.073Z"/>
  <path fill="#8ECDFF" d="m43.849 45.524-.16.148-.174.027v.214l.32.294.133-.214.08-.241-.027-.2-.172-.028ZM120.108 37.01l-.534.407-.029.784.462.536.115-.1-.014-1.627ZM84.579 55.544l2.409-.295-.593-1.146-.032-1.097.192-.525-2.509-1.574-.786.13-.273.202-.024.46-.177.638-.184.218-.265.025.49 1.642.842.496.732.017.178.81ZM79.068 25.677l-.438.245.109.465-.404.852.003.375.19.12 1.22.061.34-.282.366.122.524.698-.383.688.455.133.597-.686.34.061.318.22-.28.368.377.588h.402l.207-.392.425-.086.013-.318-.791-.122.024-.342h.767l.827-.662.365-.318.06-1.005-1.63-.146-.668-.942-.462-.158-.56.024-.252.622-1.148.016-.372-.172-.541-.027Z"/>
  <path fill="#8ECDFF" d="m82.5 50.697.457.428.287-.182.775-.127.133.014.05-.295.438-.92-.368-.765-1.194.007-.008.316.16.154-.024.315-.707 1.055Z"/>
  <path fill="#2BB3FF" d="m23.701 23.444-.151.606-.527-.341h-.262l-.151.644-1.843 4.125.489 3.594.602.303.113.985h1.24l1.204.908 2.368.228.263 1.21.375.266.527-.53.414.189.376 1.74.638.416.527-.984 1.617-1.174 1.052.492.902.075.038-.567 1.88.038.375.416.075.946-.224.53.262.907h.565l.564-.87-.225-.416-.225-.908.338-1.022 1.541-1.324 1.166-.341-.151-1.098 1.616-1.741 1.617-.265-.263-.906 1.58-.908v-1.21l-.152-.076-.564.189-.076.741-1.876.023-1.47.976-2.308.753-.368-.45 1.047-1.584-.517-.493-.352-.67-.73-.584-.792-.067-1.497-1.02-10.647-1.751Z"/>
  <path fill="#8ECDFF" d="m11.688 7.613.522.976.335-.076v-.338l-.857-.562ZM8.742 16.194l-.025.454.326-.076v-.202l-.3-.176ZM8.241 16.396l-.652.329.101.352.251-.202.501-.227-.2-.252ZM5.532 16.824l-.451-.1-.076.201.05.379.477-.48ZM4.578 16.8l-.427-.176L4 16.9l.276.278.302-.379Z"/>
  <path fill="#2BB3FF" d="m15.301 6.337-1.266.3.261 1.425 1.378.376.074.3-2.048.637-1.155 1.912.409 2.025.67.45.522-.488.15.3-.634.75-2.459 1.125-1.565.375-.038.563 3.614-1.05 1.49-.413 1.378-1.688 1.527-1.011-.782 1.312.858.113 1.453-.638.261 1.05 1.006.224 1.043 1.012.074.75-.15.186.186.712h.261l.038-1.2h.297l.074 2.96.746-.637-.522-3.074h-.782l-.858-1.087 4.21-7.125-4.172-3.261-4.657.9-.185 1.425 1.005.6-.373.976-1.339-1.086Z"/>
  <path fill="#8ECDFF" d="m46.584 64.696-.31.33.129 1.776.972.282 1.236-1.238-2.027-1.15Z"/>
  <path fill="#C4E5FE" d="m96.177 32.6.465.023v-.794l-.44-.257.743-.934h.302l.301.351.79-.303-1.091-.374-.043-.226-.26.063-.254.443-1.1-.036-.808-1.141-1.419.14-.676-.67-.936-.158-.68.276.395 1.309.004.44.287.006.352-.67.936.012.138.514 2.006 1.33.776.179.212.476Z"/>
  <path fill="#8ECDFF" d="m43.823 44.479-.186.134.147.269.24-.134-.201-.269ZM43.596 45l-.173.174.066.107h.213l.066-.175-.172-.105ZM39.052 45.696l.066.39.49.156.112-.72.518-.535.518.607 1.19.324 1.01-.211.686.846.518.324-.568.864.19.654-.324.401-.337.282-.729-.367-.167.17v.52l.533.254-.393.424-.393.424-.517-.042-.521-.572-.11-2.15-1.778-.606-.323-.945.329-.492ZM113.708 45.474l.18.282.033.323.472.051.574-.764.54-.153.287-.78-.134-1.258-.557-.765-.587-.469-.747-1.282.535-.895-.767-.88-.614-.026-.552.297.164.71.737.13.198.547-.26.169.017.135 1.728 1.69.068.495-.104 1.568-1.211.875ZM140.245 59.462l-.187.25.079.283.093.063.171-.22-.156-.376ZM140.339 60.23l.015.204.202.063.141-.078-.141-.221-.217.032ZM140.635 62.048l-.094.142.14.156.234-.078-.28-.22ZM87.585 43.18l.217.645v.63l.522.473 3.68-1.497.034-.411-.59-1.059-1.48.472-.85.835-.986-.582-.547.493ZM91.755 44.75l.322.36.434-.263.157-.053-.2-.193-.382.113-.331.036ZM81.874 60.429l-1.192 1.1-.284.68-.945-.117-.786.698-.523-.051.043-.965L78 61.71l-.13 1.974-.926-.01-.28-.328-.41-.004.374 1.069.666.628-.476.554.308.693.713.272.567-.483 1.626.01.117-.145.721-.127 2.44-2.428-.008-.764-.261.338h-.391l-.476-.398.242-.6.415-.084-.038-1.234-.92-.213Z"/>
  <path fill="#8ECDFF" d="m81.302 63.218.228-.009.37.401-.01.465-.434.218-.027.154-.66.008-.208-.498.189-.365.552-.374ZM78.914 57.574l.478.664.741.045.263.145.776.009.669-.936 1.868-.835.163-.736-.217-1.055-.975-.554-.65.045-.325.718.01.327.766.372.045.81-.659.036-.163-.273-1.833-.78-.054.6-.866.026-.037 1.372Z"/>
  <path fill="#8ECDFF" d="m80.44 58.72 1.355 1.528 1.038.264.696-1.09-.055-1.444-1.129-.583-.424.192-.632.964-.876-.01.028.18Z"/>
</svg>
