<svg xmlns="http://www.w3.org/2000/svg" width="145" height="80" fill="none" viewBox="0 0 145 80">
  <mask id="a" width="72" height="72" x="0" y="4" fill="#000" maskUnits="userSpaceOnUse">
    <path fill="#fff" d="M0 4h72v72H0z"/>
    <path d="M71 40c0 19.33-15.67 35-35 35S1 59.33 1 40 16.67 5 36 5s35 15.67 35 35Zm-58.1 0c0 12.758 10.342 23.1 23.1 23.1 12.758 0 23.1-10.342 23.1-23.1 0-12.758-10.342-23.1-23.1-23.1-12.758 0-23.1 10.342-23.1 23.1Z"/>
  </mask>
  <path fill="#C4C7CF" d="M71 40c0 19.33-15.67 35-35 35S1 59.33 1 40 16.67 5 36 5s35 15.67 35 35Zm-58.1 0c0 12.758 10.342 23.1 23.1 23.1 12.758 0 23.1-10.342 23.1-23.1 0-12.758-10.342-23.1-23.1-23.1-12.758 0-23.1 10.342-23.1 23.1Z"/>
  <path stroke="#fff" stroke-width="2" d="M71 40c0 19.33-15.67 35-35 35S1 59.33 1 40 16.67 5 36 5s35 15.67 35 35Zm-58.1 0c0 12.758 10.342 23.1 23.1 23.1 12.758 0 23.1-10.342 23.1-23.1 0-12.758-10.342-23.1-23.1-23.1-12.758 0-23.1 10.342-23.1 23.1Z" mask="url(#a)"/>
  <mask id="b" width="73" height="73" x="-1" y="4" fill="#000" maskUnits="userSpaceOnUse">
    <path fill="#fff" d="M-1 4h73v73H-1z"/>
    <path d="M36 5a35 35 0 1 1-8.704 1.1l2.96 11.526A23.1 23.1 0 1 0 36 16.9V5Z"/>
  </mask>
  <path fill="#FDC23C" d="M36 5a35 35 0 1 1-8.704 1.1l2.96 11.526A23.1 23.1 0 1 0 36 16.9V5Z"/>
  <path stroke="#fff" stroke-width="2" d="M36 5a35 35 0 1 1-8.704 1.1l2.96 11.526A23.1 23.1 0 1 0 36 16.9V5Z" mask="url(#b)"/>
  <mask id="c" width="72" height="72" x="0" y="4" fill="#000" maskUnits="userSpaceOnUse">
    <path fill="#fff" d="M0 4h72v72H0z"/>
    <path d="M36 5a35 35 0 1 1-14.902 3.331l5.067 10.768A23.1 23.1 0 1 0 36 16.9V5Z"/>
  </mask>
  <path fill="#F67CF2" d="M36 5a35 35 0 1 1-14.902 3.331l5.067 10.768A23.1 23.1 0 1 0 36 16.9V5Z"/>
  <path stroke="#fff" stroke-width="2" d="M36 5a35 35 0 1 1-14.902 3.331l5.067 10.768A23.1 23.1 0 1 0 36 16.9V5Z" mask="url(#c)"/>
  <mask id="d" width="72" height="72" x="0" y="4" fill="#000" maskUnits="userSpaceOnUse">
    <path fill="#fff" d="M0 4h72v72H0z"/>
    <path d="M36 5A35 35 0 1 1 7.684 19.427l9.628 6.995A23.1 23.1 0 1 0 36 16.9V5Z"/>
  </mask>
  <path fill="#FF622D" d="M36 5A35 35 0 1 1 7.684 19.427l9.628 6.995A23.1 23.1 0 1 0 36 16.9V5Z"/>
  <path stroke="#fff" stroke-width="2" d="M36 5A35 35 0 1 1 7.684 19.427l9.628 6.995A23.1 23.1 0 1 0 36 16.9V5Z" mask="url(#d)"/>
  <mask id="e" width="37" height="72" x="35" y="4" fill="#000" maskUnits="userSpaceOnUse">
    <path fill="#fff" d="M35 4h37v72H35z"/>
    <path d="M36 5a35 35 0 1 1 0 70V63.1a23.1 23.1 0 1 0 0-46.2V5Z"/>
  </mask>
  <path fill="#59DDAA" d="M36 5a35 35 0 1 1 0 70V63.1a23.1 23.1 0 1 0 0-46.2V5Z"/>
  <path stroke="#fff" stroke-width="2" d="M36 5a35 35 0 1 1 0 70V63.1a23.1 23.1 0 1 0 0-46.2V5Z" mask="url(#e)"/>
  <mask id="f" width="37" height="37" x="35" y="4" fill="#000" maskUnits="userSpaceOnUse">
    <path fill="#fff" d="M35 4h37v37H35z"/>
    <path d="M36 5a35 35 0 0 1 35 35H59.1A23.1 23.1 0 0 0 36 16.9V5Z"/>
  </mask>
  <path fill="#2BB3FF" d="M36 5a35 35 0 0 1 35 35H59.1A23.1 23.1 0 0 0 36 16.9V5Z"/>
  <path stroke="#fff" stroke-width="2" d="M36 5a35 35 0 0 1 35 35H59.1A23.1 23.1 0 0 0 36 16.9V5Z" mask="url(#f)"/>
</svg>
