<svg width="144" height="80" viewBox="0 0 144 80" fill="none" xmlns="http://www.w3.org/2000/svg">
<rect width="144" height="80" fill="white"/>
<mask id="path-1-outside-1_430_18853" maskUnits="userSpaceOnUse" x="36" y="4" width="72" height="72" fill="black">
<rect fill="white" x="36" y="4" width="72" height="72"/>
<path d="M107 40C107 59.33 91.33 75 72 75C52.67 75 37 59.33 37 40C37 20.67 52.67 5 72 5C91.33 5 107 20.67 107 40ZM48.9 40C48.9 52.7578 59.2422 63.1 72 63.1C84.7578 63.1 95.1 52.7578 95.1 40C95.1 27.2422 84.7578 16.9 72 16.9C59.2422 16.9 48.9 27.2422 48.9 40Z"/>
</mask>
<path d="M107 40C107 59.33 91.33 75 72 75C52.67 75 37 59.33 37 40C37 20.67 52.67 5 72 5C91.33 5 107 20.67 107 40ZM48.9 40C48.9 52.7578 59.2422 63.1 72 63.1C84.7578 63.1 95.1 52.7578 95.1 40C95.1 27.2422 84.7578 16.9 72 16.9C59.2422 16.9 48.9 27.2422 48.9 40Z" fill="#C4C7CF"/>
<path d="M107 40C107 59.33 91.33 75 72 75C52.67 75 37 59.33 37 40C37 20.67 52.67 5 72 5C91.33 5 107 20.67 107 40ZM48.9 40C48.9 52.7578 59.2422 63.1 72 63.1C84.7578 63.1 95.1 52.7578 95.1 40C95.1 27.2422 84.7578 16.9 72 16.9C59.2422 16.9 48.9 27.2422 48.9 40Z" stroke="white" stroke-width="2" mask="url(#path-1-outside-1_430_18853)"/>
<mask id="path-2-outside-2_430_18853" maskUnits="userSpaceOnUse" x="35" y="4" width="73" height="73" fill="black">
<rect fill="white" x="35" y="4" width="73" height="73"/>
<path d="M72 5C80.9021 5 89.4698 8.39216 95.9592 14.4861C102.449 20.58 106.372 28.9178 106.931 37.8023C107.49 46.6869 104.642 55.4506 98.968 62.3098C93.2935 69.1691 85.2186 73.6083 76.3867 74.724C67.5547 75.8397 58.6295 73.5481 51.4275 68.3156C44.2255 63.083 39.288 55.3028 37.6199 46.5583C35.9519 37.8139 37.6785 28.7624 42.4485 21.246C47.2185 13.7297 54.6734 8.31345 63.2959 6.09958L66.2553 17.6257C60.5644 19.0869 55.6442 22.6616 52.496 27.6224C49.3478 32.5832 48.2082 38.5572 49.3092 44.3285C50.4101 50.0998 53.6688 55.2348 58.4222 58.6883C63.1755 62.1418 69.0661 63.6542 74.8952 62.9179C80.7243 62.1815 86.0537 59.2516 89.7989 54.7245C93.544 50.1974 95.4233 44.4134 95.0544 38.5495C94.6855 32.6857 92.096 27.1828 87.813 23.1608C83.53 19.1388 77.8754 16.9 72 16.9V5Z"/>
</mask>
<path d="M72 5C80.9021 5 89.4698 8.39216 95.9592 14.4861C102.449 20.58 106.372 28.9178 106.931 37.8023C107.49 46.6869 104.642 55.4506 98.968 62.3098C93.2935 69.1691 85.2186 73.6083 76.3867 74.724C67.5547 75.8397 58.6295 73.5481 51.4275 68.3156C44.2255 63.083 39.288 55.3028 37.6199 46.5583C35.9519 37.8139 37.6785 28.7624 42.4485 21.246C47.2185 13.7297 54.6734 8.31345 63.2959 6.09958L66.2553 17.6257C60.5644 19.0869 55.6442 22.6616 52.496 27.6224C49.3478 32.5832 48.2082 38.5572 49.3092 44.3285C50.4101 50.0998 53.6688 55.2348 58.4222 58.6883C63.1755 62.1418 69.0661 63.6542 74.8952 62.9179C80.7243 62.1815 86.0537 59.2516 89.7989 54.7245C93.544 50.1974 95.4233 44.4134 95.0544 38.5495C94.6855 32.6857 92.096 27.1828 87.813 23.1608C83.53 19.1388 77.8754 16.9 72 16.9V5Z" fill="#FDC23C"/>
<path d="M72 5C80.9021 5 89.4698 8.39216 95.9592 14.4861C102.449 20.58 106.372 28.9178 106.931 37.8023C107.49 46.6869 104.642 55.4506 98.968 62.3098C93.2935 69.1691 85.2186 73.6083 76.3867 74.724C67.5547 75.8397 58.6295 73.5481 51.4275 68.3156C44.2255 63.083 39.288 55.3028 37.6199 46.5583C35.9519 37.8139 37.6785 28.7624 42.4485 21.246C47.2185 13.7297 54.6734 8.31345 63.2959 6.09958L66.2553 17.6257C60.5644 19.0869 55.6442 22.6616 52.496 27.6224C49.3478 32.5832 48.2082 38.5572 49.3092 44.3285C50.4101 50.0998 53.6688 55.2348 58.4222 58.6883C63.1755 62.1418 69.0661 63.6542 74.8952 62.9179C80.7243 62.1815 86.0537 59.2516 89.7989 54.7245C93.544 50.1974 95.4233 44.4134 95.0544 38.5495C94.6855 32.6857 92.096 27.1828 87.813 23.1608C83.53 19.1388 77.8754 16.9 72 16.9V5Z" stroke="white" stroke-width="2" mask="url(#path-2-outside-2_430_18853)"/>
<mask id="path-3-outside-3_430_18853" maskUnits="userSpaceOnUse" x="36" y="4" width="72" height="72" fill="black">
<rect fill="white" x="36" y="4" width="72" height="72"/>
<path d="M72 5C80.6176 5 88.9322 8.17922 95.3514 13.9287C101.771 19.6782 105.843 27.5938 106.789 36.1593C107.734 44.7248 105.487 53.3381 100.476 60.3495C95.4659 67.3608 88.045 72.2772 79.635 74.1571C71.225 76.0369 62.417 74.7481 54.8982 70.5374C47.3795 66.3266 41.6784 59.4901 38.887 51.3371C36.0956 43.1841 36.4102 34.288 39.7704 26.3525C43.1306 18.4171 49.3003 12.0002 57.0977 8.33105L62.1645 19.0985C57.0182 21.5201 52.9462 25.7553 50.7285 30.9927C48.5107 36.2301 48.3031 42.1015 50.1454 47.4825C51.9877 52.8634 55.7504 57.3756 60.7128 60.1547C65.6752 62.9337 71.4885 63.7844 77.0391 62.5437C82.5897 61.303 87.4875 58.0581 90.7944 53.4306C94.1012 48.8032 95.5846 43.1184 94.9605 37.4651C94.3364 31.8119 91.6486 26.5876 87.4119 22.7929C83.1753 18.9983 77.6876 16.9 72 16.9V5Z"/>
</mask>
<path d="M72 5C80.6176 5 88.9322 8.17922 95.3514 13.9287C101.771 19.6782 105.843 27.5938 106.789 36.1593C107.734 44.7248 105.487 53.3381 100.476 60.3495C95.4659 67.3608 88.045 72.2772 79.635 74.1571C71.225 76.0369 62.417 74.7481 54.8982 70.5374C47.3795 66.3266 41.6784 59.4901 38.887 51.3371C36.0956 43.1841 36.4102 34.288 39.7704 26.3525C43.1306 18.4171 49.3003 12.0002 57.0977 8.33105L62.1645 19.0985C57.0182 21.5201 52.9462 25.7553 50.7285 30.9927C48.5107 36.2301 48.3031 42.1015 50.1454 47.4825C51.9877 52.8634 55.7504 57.3756 60.7128 60.1547C65.6752 62.9337 71.4885 63.7844 77.0391 62.5437C82.5897 61.303 87.4875 58.0581 90.7944 53.4306C94.1012 48.8032 95.5846 43.1184 94.9605 37.4651C94.3364 31.8119 91.6486 26.5876 87.4119 22.7929C83.1753 18.9983 77.6876 16.9 72 16.9V5Z" fill="#F67CF2"/>
<path d="M72 5C80.6176 5 88.9322 8.17922 95.3514 13.9287C101.771 19.6782 105.843 27.5938 106.789 36.1593C107.734 44.7248 105.487 53.3381 100.476 60.3495C95.4659 67.3608 88.045 72.2772 79.635 74.1571C71.225 76.0369 62.417 74.7481 54.8982 70.5374C47.3795 66.3266 41.6784 59.4901 38.887 51.3371C36.0956 43.1841 36.4102 34.288 39.7704 26.3525C43.1306 18.4171 49.3003 12.0002 57.0977 8.33105L62.1645 19.0985C57.0182 21.5201 52.9462 25.7553 50.7285 30.9927C48.5107 36.2301 48.3031 42.1015 50.1454 47.4825C51.9877 52.8634 55.7504 57.3756 60.7128 60.1547C65.6752 62.9337 71.4885 63.7844 77.0391 62.5437C82.5897 61.303 87.4875 58.0581 90.7944 53.4306C94.1012 48.8032 95.5846 43.1184 94.9605 37.4651C94.3364 31.8119 91.6486 26.5876 87.4119 22.7929C83.1753 18.9983 77.6876 16.9 72 16.9V5Z" stroke="white" stroke-width="2" mask="url(#path-3-outside-3_430_18853)"/>
<mask id="path-4-outside-4_430_18853" maskUnits="userSpaceOnUse" x="36" y="4" width="72" height="72" fill="black">
<rect fill="white" x="36" y="4" width="72" height="72"/>
<path d="M72 5C79.8617 5 87.4944 7.6468 93.6683 12.5139C99.8422 17.381 104.198 24.185 106.033 31.8294C107.868 39.4739 107.076 47.5136 103.785 54.6531C100.494 61.7926 94.8945 67.6161 87.8897 71.1852C80.8849 74.7543 72.8824 75.8612 65.1718 74.3275C57.4612 72.7937 50.4915 68.7087 45.3858 62.7307C40.28 56.7526 37.3356 49.2297 37.027 41.3741C36.7183 33.5185 39.0634 25.7877 43.6844 19.4275L53.3117 26.4222C50.2619 30.6199 48.7141 35.7222 48.9178 40.9069C49.1215 46.0916 51.0648 51.0567 54.4346 55.0022C57.8044 58.9478 62.4044 61.6439 67.4934 62.6561C72.5824 63.6684 77.864 62.9379 82.4872 60.5823C87.1103 58.2266 90.8058 54.3831 92.9781 49.671C95.1504 44.959 95.673 39.6527 94.4617 34.6074C93.2505 29.5621 90.3758 25.0715 86.3011 21.8592C82.2263 18.6469 77.1887 16.9 72 16.9V5Z"/>
</mask>
<path d="M72 5C79.8617 5 87.4944 7.6468 93.6683 12.5139C99.8422 17.381 104.198 24.185 106.033 31.8294C107.868 39.4739 107.076 47.5136 103.785 54.6531C100.494 61.7926 94.8945 67.6161 87.8897 71.1852C80.8849 74.7543 72.8824 75.8612 65.1718 74.3275C57.4612 72.7937 50.4915 68.7087 45.3858 62.7307C40.28 56.7526 37.3356 49.2297 37.027 41.3741C36.7183 33.5185 39.0634 25.7877 43.6844 19.4275L53.3117 26.4222C50.2619 30.6199 48.7141 35.7222 48.9178 40.9069C49.1215 46.0916 51.0648 51.0567 54.4346 55.0022C57.8044 58.9478 62.4044 61.6439 67.4934 62.6561C72.5824 63.6684 77.864 62.9379 82.4872 60.5823C87.1103 58.2266 90.8058 54.3831 92.9781 49.671C95.1504 44.959 95.673 39.6527 94.4617 34.6074C93.2505 29.5621 90.3758 25.0715 86.3011 21.8592C82.2263 18.6469 77.1887 16.9 72 16.9V5Z" fill="#FF622D"/>
<path d="M72 5C79.8617 5 87.4944 7.6468 93.6683 12.5139C99.8422 17.381 104.198 24.185 106.033 31.8294C107.868 39.4739 107.076 47.5136 103.785 54.6531C100.494 61.7926 94.8945 67.6161 87.8897 71.1852C80.8849 74.7543 72.8824 75.8612 65.1718 74.3275C57.4612 72.7937 50.4915 68.7087 45.3858 62.7307C40.28 56.7526 37.3356 49.2297 37.027 41.3741C36.7183 33.5185 39.0634 25.7877 43.6844 19.4275L53.3117 26.4222C50.2619 30.6199 48.7141 35.7222 48.9178 40.9069C49.1215 46.0916 51.0648 51.0567 54.4346 55.0022C57.8044 58.9478 62.4044 61.6439 67.4934 62.6561C72.5824 63.6684 77.864 62.9379 82.4872 60.5823C87.1103 58.2266 90.8058 54.3831 92.9781 49.671C95.1504 44.959 95.673 39.6527 94.4617 34.6074C93.2505 29.5621 90.3758 25.0715 86.3011 21.8592C82.2263 18.6469 77.1887 16.9 72 16.9V5Z" stroke="white" stroke-width="2" mask="url(#path-4-outside-4_430_18853)"/>
<mask id="path-5-outside-5_430_18853" maskUnits="userSpaceOnUse" x="71" y="4" width="37" height="72" fill="black">
<rect fill="white" x="71" y="4" width="37" height="72"/>
<path d="M72 5C76.5963 5 81.1475 5.9053 85.3939 7.66422C89.6403 9.42313 93.4987 12.0012 96.7487 15.2513C99.9988 18.5013 102.577 22.3597 104.336 26.6061C106.095 30.8525 107 35.4037 107 40C107 44.5963 106.095 49.1475 104.336 53.3939C102.577 57.6403 99.9988 61.4987 96.7487 64.7487C93.4987 67.9988 89.6403 70.5769 85.3939 72.3358C81.1475 74.0947 76.5963 75 72 75L72 63.1C75.0335 63.1 78.0374 62.5025 80.84 61.3416C83.6426 60.1807 86.1891 58.4792 88.3342 56.3342C90.4792 54.1891 92.1807 51.6426 93.3416 48.84C94.5025 46.0374 95.1 43.0335 95.1 40C95.1 36.9665 94.5025 33.9626 93.3416 31.16C92.1807 28.3574 90.4792 25.8109 88.3342 23.6658C86.1891 21.5208 83.6426 19.8193 80.84 18.6584C78.0374 17.4975 75.0335 16.9 72 16.9V5Z"/>
</mask>
<path d="M72 5C76.5963 5 81.1475 5.9053 85.3939 7.66422C89.6403 9.42313 93.4987 12.0012 96.7487 15.2513C99.9988 18.5013 102.577 22.3597 104.336 26.6061C106.095 30.8525 107 35.4037 107 40C107 44.5963 106.095 49.1475 104.336 53.3939C102.577 57.6403 99.9988 61.4987 96.7487 64.7487C93.4987 67.9988 89.6403 70.5769 85.3939 72.3358C81.1475 74.0947 76.5963 75 72 75L72 63.1C75.0335 63.1 78.0374 62.5025 80.84 61.3416C83.6426 60.1807 86.1891 58.4792 88.3342 56.3342C90.4792 54.1891 92.1807 51.6426 93.3416 48.84C94.5025 46.0374 95.1 43.0335 95.1 40C95.1 36.9665 94.5025 33.9626 93.3416 31.16C92.1807 28.3574 90.4792 25.8109 88.3342 23.6658C86.1891 21.5208 83.6426 19.8193 80.84 18.6584C78.0374 17.4975 75.0335 16.9 72 16.9V5Z" fill="#59DDAA"/>
<path d="M72 5C76.5963 5 81.1475 5.9053 85.3939 7.66422C89.6403 9.42313 93.4987 12.0012 96.7487 15.2513C99.9988 18.5013 102.577 22.3597 104.336 26.6061C106.095 30.8525 107 35.4037 107 40C107 44.5963 106.095 49.1475 104.336 53.3939C102.577 57.6403 99.9988 61.4987 96.7487 64.7487C93.4987 67.9988 89.6403 70.5769 85.3939 72.3358C81.1475 74.0947 76.5963 75 72 75L72 63.1C75.0335 63.1 78.0374 62.5025 80.84 61.3416C83.6426 60.1807 86.1891 58.4792 88.3342 56.3342C90.4792 54.1891 92.1807 51.6426 93.3416 48.84C94.5025 46.0374 95.1 43.0335 95.1 40C95.1 36.9665 94.5025 33.9626 93.3416 31.16C92.1807 28.3574 90.4792 25.8109 88.3342 23.6658C86.1891 21.5208 83.6426 19.8193 80.84 18.6584C78.0374 17.4975 75.0335 16.9 72 16.9V5Z" stroke="white" stroke-width="2" mask="url(#path-5-outside-5_430_18853)"/>
<mask id="path-6-outside-6_430_18853" maskUnits="userSpaceOnUse" x="71" y="4" width="37" height="37" fill="black">
<rect fill="white" x="71" y="4" width="37" height="37"/>
<path d="M72 5C76.5963 5 81.1475 5.9053 85.3939 7.66422C89.6403 9.42313 93.4987 12.0012 96.7487 15.2513C99.9988 18.5013 102.577 22.3597 104.336 26.6061C106.095 30.8525 107 35.4037 107 40L95.1 40C95.1 36.9665 94.5025 33.9626 93.3416 31.16C92.1807 28.3574 90.4792 25.8109 88.3342 23.6658C86.1891 21.5208 83.6426 19.8193 80.84 18.6584C78.0374 17.4975 75.0335 16.9 72 16.9V5Z"/>
</mask>
<path d="M72 5C76.5963 5 81.1475 5.9053 85.3939 7.66422C89.6403 9.42313 93.4987 12.0012 96.7487 15.2513C99.9988 18.5013 102.577 22.3597 104.336 26.6061C106.095 30.8525 107 35.4037 107 40L95.1 40C95.1 36.9665 94.5025 33.9626 93.3416 31.16C92.1807 28.3574 90.4792 25.8109 88.3342 23.6658C86.1891 21.5208 83.6426 19.8193 80.84 18.6584C78.0374 17.4975 75.0335 16.9 72 16.9V5Z" fill="#2BB3FF"/>
<path d="M72 5C76.5963 5 81.1475 5.9053 85.3939 7.66422C89.6403 9.42313 93.4987 12.0012 96.7487 15.2513C99.9988 18.5013 102.577 22.3597 104.336 26.6061C106.095 30.8525 107 35.4037 107 40L95.1 40C95.1 36.9665 94.5025 33.9626 93.3416 31.16C92.1807 28.3574 90.4792 25.8109 88.3342 23.6658C86.1891 21.5208 83.6426 19.8193 80.84 18.6584C78.0374 17.4975 75.0335 16.9 72 16.9V5Z" stroke="white" stroke-width="2" mask="url(#path-6-outside-6_430_18853)"/>
</svg>
