<svg xmlns="http://www.w3.org/2000/svg" width="144" height="80" fill="none" viewBox="0 0 144 80">
  <g clip-path="url(#a)">
    <path fill="#2BB3FF" d="M8 50a2 2 0 0 1 2-2h15.667a2 2 0 0 1 2 2v30H8V50Z"/>
  </g>
  <g clip-path="url(#b)">
    <path fill="#2BB3FF" d="M29.666 20a2 2 0 0 1 2-2h15.667a2 2 0 0 1 2 2v60H29.667V20Z"/>
  </g>
  <g clip-path="url(#c)">
    <path fill="#2BB3FF" d="M51.334 23a2 2 0 0 1 2-2H69a2 2 0 0 1 2 2v57H51.334V23Z"/>
  </g>
  <g clip-path="url(#d)">
    <path fill="#2BB3FF" d="M73 39a2 2 0 0 1 2-2h15.667a2 2 0 0 1 2 2v41H73V39Z"/>
  </g>
  <g clip-path="url(#e)">
    <path fill="#2BB3FF" d="M94.666 26a2 2 0 0 1 2-2h15.667a2 2 0 0 1 2 2v54H94.667V26Z"/>
  </g>
  <g clip-path="url(#f)">
    <path fill="#2BB3FF" d="M116.333 64a2 2 0 0 1 2-2H134a2 2 0 0 1 2 2v16h-19.667V64Z"/>
  </g>
  <defs>
    <clipPath id="a">
      <path fill="#fff" d="M8 50a2 2 0 0 1 2-2h15.667a2 2 0 0 1 2 2v30H8V50Z"/>
    </clipPath>
    <clipPath id="b">
      <path fill="#fff" d="M29.666 20a2 2 0 0 1 2-2h15.667a2 2 0 0 1 2 2v60H29.667V20Z"/>
    </clipPath>
    <clipPath id="c">
      <path fill="#fff" d="M51.334 23a2 2 0 0 1 2-2H69a2 2 0 0 1 2 2v57H51.334V23Z"/>
    </clipPath>
    <clipPath id="d">
      <path fill="#fff" d="M73 39a2 2 0 0 1 2-2h15.667a2 2 0 0 1 2 2v41H73V39Z"/>
    </clipPath>
    <clipPath id="e">
      <path fill="#fff" d="M94.666 26a2 2 0 0 1 2-2h15.667a2 2 0 0 1 2 2v54H94.667V26Z"/>
    </clipPath>
    <clipPath id="f">
      <path fill="#fff" d="M116.333 64a2 2 0 0 1 2-2H134a2 2 0 0 1 2 2v16h-19.667V64Z"/>
    </clipPath>
  </defs>
</svg>
