<svg xmlns="http://www.w3.org/2000/svg" width="144" height="80" fill="none" viewBox="0 0 144 80">
  <path fill="#fff" d="M0 0h144v80H0z"/>
  <path fill="#191B23" d="M8 14.966v7.273h4.261v-.781h-3.38v-6.492H8Z"/>
  <path fill="#191B23" fill-rule="evenodd" d="M19.26 14.966v7.273h.81v-.838h.099c.061.1.149.225.263.376.113.15.275.283.486.402.21.116.491.174.842.174.454 0 .856-.115 1.204-.345.348-.232.62-.558.816-.98.197-.424.295-.924.295-1.502 0-.573-.098-1.07-.295-1.491a2.292 2.292 0 0 0-.82-.977 2.164 2.164 0 0 0-1.214-.345c-.356 0-.637.06-.846.178a1.5 1.5 0 0 0-.476.398 7.436 7.436 0 0 0-.255.362h-.071v-2.685h-.838Zm1.005 5.636a3.033 3.033 0 0 1-.181-1.09c0-.407.059-.764.177-1.07.119-.307.294-.546.526-.716.232-.173.518-.26.86-.26.354 0 .649.091.883.274.237.18.413.425.53.735.118.308.177.653.177 1.037 0 .388-.06.74-.181 1.058a1.693 1.693 0 0 1-.533.753c-.234.185-.526.277-.877.277-.336 0-.62-.088-.852-.263a1.646 1.646 0 0 1-.53-.735Z" clip-rule="evenodd"/>
  <path fill="#191B23" d="M32.015 14.966v7.273h-.838v-7.273h.838Z"/>
  <path fill="#191B23" fill-rule="evenodd" d="M27.644 22.353c-.525 0-.979-.116-1.36-.348a2.336 2.336 0 0 1-.877-.98c-.204-.422-.305-.912-.305-1.47 0-.56.101-1.052.305-1.478a2.41 2.41 0 0 1 .86-1.001c.369-.242.8-.363 1.292-.363.284 0 .565.048.842.143.277.094.529.248.756.461.227.21.408.49.543.838.135.348.203.777.203 1.286v.355h-3.961c.011.363.082.674.21.934.145.284.345.5.6.65.257.146.554.22.892.22.22 0 .42-.03.597-.092a1.28 1.28 0 0 0 .465-.284c.13-.128.23-.287.302-.476l.81.227a1.796 1.796 0 0 1-.43.724c-.201.206-.45.367-.746.483-.296.114-.628.17-.998.17Zm-1.51-3.999a1.866 1.866 0 0 0-.19.718h3.106c0-.308-.061-.583-.184-.824a1.392 1.392 0 0 0-.519-.572 1.452 1.452 0 0 0-.788-.21c-.334 0-.623.083-.867.249a1.635 1.635 0 0 0-.557.64ZM15.117 22.367c-.346 0-.66-.065-.941-.195a1.615 1.615 0 0 1-.672-.572c-.165-.251-.248-.554-.248-.91 0-.312.061-.565.184-.76.124-.196.288-.35.494-.46.206-.112.433-.195.682-.25.25-.056.503-.101.756-.134.332-.043.6-.075.806-.096.209-.024.36-.063.455-.117.097-.055.146-.15.146-.285v-.028c0-.35-.096-.622-.288-.817-.19-.194-.477-.29-.863-.29-.4 0-.714.087-.941.262a1.553 1.553 0 0 0-.48.561l-.795-.284a1.91 1.91 0 0 1 .568-.774c.24-.187.5-.317.781-.39.285-.077.564-.114.839-.114.175 0 .376.02.603.064.23.04.451.124.664.252.216.127.395.32.537.578.142.258.213.604.213 1.037v3.594h-.838V21.5h-.043a1.475 1.475 0 0 1-.284.38 1.64 1.64 0 0 1-.53.345c-.22.095-.488.142-.805.142Zm.127-.753c.332 0 .611-.065.839-.195a1.33 1.33 0 0 0 .696-1.154v-.767c-.036.042-.114.081-.235.117a3.957 3.957 0 0 1-.412.089 18.409 18.409 0 0 1-.802.106 3.203 3.203 0 0 0-.611.139 1.053 1.053 0 0 0-.455.28c-.113.123-.17.291-.17.504 0 .292.108.512.323.66.218.148.494.221.828.221Z" clip-rule="evenodd"/>
  <g clip-path="url(#a)">
    <g clip-path="url(#b)">
      <path fill="#E0E1E9" d="M40.015 10.667H136v16H40.015z"/>
      <path fill="#2BB3FF" d="M40.015 10.667h76.788v16H40.015z"/>
    </g>
  </g>
  <path fill="#191B23" d="M8 36.3v7.272h4.261v-.78h-3.38V36.3H8Z"/>
  <path fill="#191B23" fill-rule="evenodd" d="M19.26 36.3v7.272h.81v-.838h.099c.061.1.149.225.263.377.113.149.275.283.486.401.21.116.491.174.842.174.454 0 .856-.115 1.204-.344.348-.232.62-.56.816-.98.197-.424.295-.925.295-1.503 0-.573-.098-1.07-.295-1.491a2.292 2.292 0 0 0-.82-.977 2.165 2.165 0 0 0-1.214-.344c-.356 0-.637.059-.846.177a1.5 1.5 0 0 0-.476.398 7.436 7.436 0 0 0-.255.362h-.071V36.3h-.838Zm1.005 5.635a3.033 3.033 0 0 1-.181-1.09c0-.407.059-.763.177-1.069.119-.308.294-.547.526-.717.232-.173.518-.26.86-.26.354 0 .649.092.883.274.237.18.413.425.53.735.118.308.177.654.177 1.037 0 .388-.06.741-.181 1.058a1.693 1.693 0 0 1-.533.753c-.234.185-.526.277-.877.277-.336 0-.62-.087-.852-.263a1.646 1.646 0 0 1-.53-.735Z" clip-rule="evenodd"/>
  <path fill="#191B23" d="M32.015 36.3v7.272h-.838V36.3h.838Z"/>
  <path fill="#191B23" fill-rule="evenodd" d="M27.644 43.686c-.525 0-.979-.116-1.36-.348a2.336 2.336 0 0 1-.877-.98c-.204-.421-.305-.912-.305-1.47 0-.559.101-1.051.305-1.478.206-.428.492-.762.86-1.001.369-.241.8-.362 1.292-.362.284 0 .565.047.842.142.277.095.529.248.756.462.227.21.408.49.543.838.135.348.203.776.203 1.285v.355h-3.961c.011.363.082.674.21.934.145.284.345.5.6.65.257.147.554.22.892.22.22 0 .42-.03.597-.092.18-.064.335-.159.465-.284.13-.128.23-.287.302-.476l.81.227a1.796 1.796 0 0 1-.43.725c-.201.206-.45.367-.746.483-.296.113-.628.17-.998.17Zm-1.51-3.999a1.866 1.866 0 0 0-.19.718h3.106c0-.308-.061-.583-.184-.824a1.391 1.391 0 0 0-.519-.572 1.452 1.452 0 0 0-.788-.21c-.334 0-.623.084-.867.25a1.637 1.637 0 0 0-.557.638ZM15.117 43.7c-.346 0-.66-.065-.941-.195a1.616 1.616 0 0 1-.672-.572c-.165-.25-.248-.554-.248-.909 0-.312.061-.566.184-.76.124-.196.288-.35.494-.462.206-.11.433-.194.682-.248.25-.057.503-.102.756-.135.332-.043.6-.075.806-.096.209-.024.36-.063.455-.117.097-.055.146-.15.146-.284v-.029c0-.35-.096-.622-.288-.816-.19-.194-.477-.292-.863-.292-.4 0-.714.088-.941.263a1.553 1.553 0 0 0-.48.561l-.795-.284a1.91 1.91 0 0 1 .568-.774c.24-.187.5-.317.781-.39.285-.076.564-.114.839-.114.175 0 .376.021.603.064.23.04.451.124.664.252.216.128.395.32.537.579.142.258.213.603.213 1.037v3.593h-.838v-.738h-.043a1.473 1.473 0 0 1-.284.38 1.64 1.64 0 0 1-.53.344c-.22.095-.488.142-.805.142Zm.127-.753c.332 0 .611-.065.839-.195a1.33 1.33 0 0 0 .696-1.154v-.767c-.036.042-.114.082-.235.117a3.983 3.983 0 0 1-.412.089 18.907 18.907 0 0 1-.802.106 3.203 3.203 0 0 0-.611.139 1.054 1.054 0 0 0-.455.28c-.113.123-.17.292-.17.505 0 .29.108.511.323.66.218.147.494.22.828.22Z" clip-rule="evenodd"/>
  <g clip-path="url(#c)">
    <g clip-path="url(#d)">
      <path fill="#E0E1E9" d="M40.015 32H136v16H40.015z"/>
      <path fill="#2BB3FF" d="M40.015 32h67.19v16h-67.19z"/>
    </g>
  </g>
  <path fill="#191B23" d="M8 57.633v7.273h4.261v-.782h-3.38v-6.49H8Z"/>
  <path fill="#191B23" fill-rule="evenodd" d="M19.26 57.633v7.273h.81v-.838h.099c.061.1.149.225.263.376.113.15.275.283.486.401.21.116.491.174.842.174.454 0 .856-.114 1.204-.344.348-.232.62-.559.816-.98.197-.424.295-.925.295-1.502 0-.573-.098-1.07-.295-1.492a2.291 2.291 0 0 0-.82-.976 2.164 2.164 0 0 0-1.214-.345c-.356 0-.637.06-.846.178a1.5 1.5 0 0 0-.476.398 7.436 7.436 0 0 0-.255.362h-.071v-2.685h-.838Zm1.005 5.636a3.034 3.034 0 0 1-.181-1.09c0-.408.059-.764.177-1.07.119-.307.294-.546.526-.717.232-.173.518-.259.86-.259.354 0 .649.091.883.273.237.18.413.425.53.736.118.307.177.653.177 1.036 0 .389-.06.742-.181 1.059a1.693 1.693 0 0 1-.533.753c-.234.184-.526.277-.877.277-.336 0-.62-.088-.852-.263a1.646 1.646 0 0 1-.53-.735Z" clip-rule="evenodd"/>
  <path fill="#191B23" d="M32.015 57.633v7.273h-.838v-7.273h.838Z"/>
  <path fill="#191B23" fill-rule="evenodd" d="M27.644 65.02c-.525 0-.979-.117-1.36-.349a2.336 2.336 0 0 1-.877-.98c-.204-.421-.305-.911-.305-1.47 0-.559.101-1.051.305-1.477.206-.429.492-.763.86-1.002.369-.241.8-.362 1.292-.362.284 0 .565.047.842.142.277.095.529.249.756.462.227.21.408.49.543.838.135.348.203.776.203 1.285v.356h-3.961c.011.362.082.674.21.934.145.284.345.5.6.65.257.146.554.22.892.22.22 0 .42-.031.597-.093.18-.064.335-.158.465-.284.13-.128.23-.286.302-.476l.81.228a1.797 1.797 0 0 1-.43.724c-.201.206-.45.367-.746.483-.296.114-.628.17-.998.17Zm-1.51-4a1.866 1.866 0 0 0-.19.718h3.106c0-.308-.061-.582-.184-.824a1.392 1.392 0 0 0-.519-.572 1.453 1.453 0 0 0-.788-.209c-.334 0-.623.083-.867.249a1.636 1.636 0 0 0-.557.639ZM15.117 65.034c-.346 0-.66-.066-.941-.196a1.616 1.616 0 0 1-.672-.571c-.165-.251-.248-.554-.248-.91 0-.312.061-.565.184-.76.124-.196.288-.35.494-.461.206-.111.433-.194.682-.249a8.33 8.33 0 0 1 .756-.135c.332-.042.6-.074.806-.096.209-.023.36-.062.455-.117.097-.054.146-.149.146-.284v-.028c0-.35-.096-.623-.288-.817-.19-.194-.477-.291-.863-.291-.4 0-.714.087-.941.263a1.553 1.553 0 0 0-.48.56l-.795-.283a1.91 1.91 0 0 1 .568-.775c.24-.187.5-.317.781-.39.285-.076.564-.114.839-.114.175 0 .376.021.603.064.23.04.451.124.664.252.216.128.395.321.537.58.142.257.213.603.213 1.036v3.594h-.838v-.739h-.043a1.475 1.475 0 0 1-.284.38c-.133.135-.31.25-.53.345a2.04 2.04 0 0 1-.805.142Zm.127-.753c.332 0 .611-.065.839-.196a1.33 1.33 0 0 0 .696-1.154v-.767c-.036.043-.114.082-.235.117a3.959 3.959 0 0 1-.412.09 18.917 18.917 0 0 1-.802.106 3.203 3.203 0 0 0-.611.138 1.052 1.052 0 0 0-.455.28c-.113.124-.17.292-.17.505 0 .291.108.511.323.66.218.147.494.22.828.22Z" clip-rule="evenodd"/>
  <g clip-path="url(#e)">
    <g clip-path="url(#f)">
      <path fill="#E0E1E9" d="M40.015 53.333H136v16H40.015z"/>
      <path fill="#2BB3FF" d="M40.015 53.333h47.992v16H40.015z"/>
    </g>
  </g>
  <defs>
    <clipPath id="a">
      <path fill="#fff" d="M40.015 10.667H134a2 2 0 0 1 2 2v12a2 2 0 0 1-2 2H40.015v-16Z"/>
    </clipPath>
    <clipPath id="b">
      <path fill="#fff" d="M40.015 10.667H136v16H40.015z"/>
    </clipPath>
    <clipPath id="c">
      <path fill="#fff" d="M40.015 32H134a2 2 0 0 1 2 2v12a2 2 0 0 1-2 2H40.015V32Z"/>
    </clipPath>
    <clipPath id="d">
      <path fill="#fff" d="M40.015 32H136v16H40.015z"/>
    </clipPath>
    <clipPath id="e">
      <path fill="#fff" d="M40.015 53.333H134a2 2 0 0 1 2 2v12a2 2 0 0 1-2 2H40.015v-16Z"/>
    </clipPath>
    <clipPath id="f">
      <path fill="#fff" d="M40.015 53.333H136v16H40.015z"/>
    </clipPath>
  </defs>
</svg>
