<svg xmlns="http://www.w3.org/2000/svg" width="144" height="80" fill="none" viewBox="0 0 144 80">
  <path fill="#AB6CFE" d="M0 14h1v66H0zM17 14h1v2h-1zM35 19h1v2h-1zM52 24h1v56h-1zM0 11h18v3H0zM17 16h19v3H17zM35 21h18v3H35z"/>
  <path fill="#FDC23C" d="M55 15h1v65h-1zM70 15h1v65h-1zM55 11h16v4H55z"/>
  <path fill="#2BB3FF" d="M56 15h14v4H56z"/>
  <path fill="#59DDAA" d="M73 15h1v65h-1zM90 15h1v65h-1zM73 11h18v4H73z"/>
  <path fill="#FDC23C" d="M74 15h16v4H74zM90 33h1v47h-1zM107 33h1v47h-1zM90 30h18v3H90z"/>
  <path fill="#AB6CFE" d="M91 33h16v3H91z"/>
  <path fill="#FF8786" d="M110 14h1v66h-1zM126 14h1v18h-1zM143 32h1v48h-1zM110 11h17v3h-17zM126 32h17v3h-17z"/>
</svg>
