<svg xmlns="http://www.w3.org/2000/svg" width="148" height="80" fill="none" viewBox="0 0 148 80">
  <path stroke="#2BB3FF" stroke-linecap="round" stroke-width="3" d="m146 41.419-4.8-3.751-4.8 3.75-4.8-3.75-4.8-5.038H122l-4.8 5.038-4.8-5.038-4.8 5.038-4.8-7.931h-9.6l-4.8 2.893-4.8-5.466-4.8 2.573h-9.6l-4.8-2.573-4.8 2.573h-4.8L50 34.774h-9.6l-4.8-5.037h-4.8L26 27.164l-4.8-2.893-4.8-4.609-4.8 4.609-4.8-4.609H2"/>
  <path stroke="#59DDAA" stroke-linecap="round" stroke-width="3" d="m2 67.906 4.8-2.447 4.8 2.447 4.8-2.447 4.8-3.285H26l4.8 3.285 4.8-3.285 4.8 3.285 4.8-5.172h9.6l4.8 1.887 4.8-3.565 4.8 1.678h9.6l4.8-1.678 4.8 1.678h4.8l4.8 3.285h9.6l4.8-3.285h4.8l4.8-1.678 4.8-1.887 4.8-3.006 4.8 3.006 4.8-3.006h4.8"/>
  <path stroke="#FF622D" stroke-linecap="round" stroke-width="3" d="m2 48.986 4.8-7.013 4.8 7.014 4.8-7.014 4.8-9.417H26l4.8 9.417 4.8-9.417 4.8 9.417 4.8-14.827h9.6l4.8 5.41 4.8-10.22 4.8 4.81h9.6l4.8-4.81 4.8 4.81h4.8l4.8 9.417h9.6l4.8-9.417h4.8l4.8-4.81 4.8-5.41 4.8-8.615 4.8 8.616 4.8-8.616h4.8"/>
  <path stroke="#F67CF2" stroke-linecap="round" stroke-width="3" d="m2 46.621 4.8 2.284 4.8-2.284 4.8 2.284 4.8 3.066H26l4.8-3.066 4.8 3.066 4.8-3.066 4.8 4.827h9.6l4.8-1.761 4.8 3.327 4.8-1.566h9.6l4.8 1.566 4.8-1.566h4.8l4.8-3.066h9.6l4.8 3.066h4.8l4.8 1.566 4.8 1.761 4.8 2.806 4.8-2.806 4.8 2.806h4.8"/>
</svg>
