<svg width="144" height="80" viewBox="0 0 144 80" fill="none" xmlns="http://www.w3.org/2000/svg">
<g clip-path="url(#clip0_430_18788)">
<rect width="144" height="80" fill="white"/>
<path d="M144 41.4189L139.2 37.6677L134.4 41.4189L129.6 37.6677L124.8 32.6304H120L115.2 37.6677L110.4 32.6304L105.6 37.6677L100.8 29.7367H96H91.2L86.4 32.6304L81.6 27.1644L76.8 29.7367H72H67.2L62.4 27.1644L57.6 29.7367H52.8L48 34.7739H43.2H38.4L33.6 29.7367H28.8L24 27.1644L19.2 24.2707L14.4 19.6621L9.6 24.2707L4.79999 19.6621H-1.83284e-06" stroke="#2BB3FF" stroke-width="3" stroke-linecap="round"/>
<path d="M0 67.9055L4.8 65.4591L9.6 67.9055L14.4 65.4591L19.2 62.1739H24L28.8 65.4591L33.6 62.1739L38.4 65.4591L43.2 60.2867H48H52.8L57.6 62.1739L62.4 58.6091L67.2 60.2867H72H76.8L81.6 58.6091L86.4 60.2867H91.2L96 63.5718H100.8H105.6L110.4 60.2867H115.2L120 58.6091L124.8 56.7219L129.6 53.7163L134.4 56.7219L139.2 53.7163H144" stroke="#59DDAA" stroke-width="3" stroke-linecap="round"/>
<path d="M0 48.9865L4.8 41.9734L9.6 48.9865L14.4 41.9734L19.2 32.5559H24L28.8 41.9734L33.6 32.5559L38.4 41.9734L43.2 27.1458H48H52.8L57.6 32.5559L62.4 22.3369L67.2 27.1458H72H76.8L81.6 22.3369L86.4 27.1458H91.2L96 36.5634H100.8H105.6L110.4 27.1458H115.2L120 22.3369L124.8 16.9268L129.6 8.31079L134.4 16.9268L139.2 8.31079H144" stroke="#FF622D" stroke-width="3" stroke-linecap="round"/>
<path d="M0 46.6215L4.8 48.9048L9.6 46.6215L14.4 48.9048L19.2 51.971H24L28.8 48.9048L33.6 51.971L38.4 48.9048L43.2 53.7324H48H52.8L57.6 51.971L62.4 55.2981L67.2 53.7324H72H76.8L81.6 55.2981L86.4 53.7324H91.2L96 50.6662H100.8H105.6L110.4 53.7324H115.2L120 55.2981L124.8 57.0595L129.6 59.8647L134.4 57.0595L139.2 59.8647H144" stroke="#F67CF2" stroke-width="3" stroke-linecap="round"/>
</g>
<defs>
<clipPath id="clip0_430_18788">
<rect width="144" height="80" fill="white"/>
</clipPath>
</defs>
</svg>
