<svg width="144" height="80" viewBox="0 0 144 80" fill="none" xmlns="http://www.w3.org/2000/svg">
<rect width="144" height="80" fill="white"/>
<circle cx="14.5" cy="20.5" r="4.5" fill="#2BB3FF"/>
<rect x="14" y="25" width="1" height="55" fill="#2BB3FF"/>
<circle cx="41.5" cy="20.5" r="4.5" fill="#2BB3FF"/>
<rect x="41" y="25" width="1" height="55" fill="#2BB3FF"/>
<circle cx="57.5" cy="35.5" r="4.5" fill="#2BB3FF"/>
<rect x="57" y="40" width="1" height="40" fill="#2BB3FF"/>
<circle cx="74.5" cy="57.5" r="4.5" fill="#2BB3FF"/>
<rect x="74" y="62" width="1" height="18" fill="#2BB3FF"/>
<circle cx="83.5" cy="20.5" r="4.5" fill="#2BB3FF"/>
<rect x="83" y="25" width="1" height="55" fill="#2BB3FF"/>
<circle cx="101.5" cy="20.5" r="4.5" fill="#2BB3FF"/>
<rect x="101" y="25" width="1" height="55" fill="#2BB3FF"/>
<circle cx="110.5" cy="38.5" r="4.5" fill="#2BB3FF"/>
<rect x="110" y="43" width="1" height="37" fill="#2BB3FF"/>
<circle cx="126.5" cy="41.5" r="4.5" fill="#2BB3FF"/>
<rect x="126" y="46" width="1" height="34" fill="#2BB3FF"/>
<circle cx="135.5" cy="38.5" r="4.5" fill="#2BB3FF"/>
<rect x="135" y="43" width="1" height="37" fill="#2BB3FF"/>
</svg>
