<svg xmlns="http://www.w3.org/2000/svg" width="144" height="80" fill="none" viewBox="0 0 144 80">
  <mask id="a" width="31" height="41" x="10" y="0" maskUnits="userSpaceOnUse" style="mask-type:alpha">
    <path fill="#fff" fill-rule="evenodd" d="M40.884 0 23.917 2.987 10.12 17.377l30.764 22.904V0Z" clip-rule="evenodd"/>
  </mask>
  <g mask="url(#a)">
    <path stroke="#2BB3FF" stroke-width="2" d="M77.703 40.28c0 20.04-16.353 36.295-36.539 36.295S4.625 60.319 4.625 40.28c0-20.039 16.353-36.294 36.54-36.294 20.185 0 36.538 16.255 36.538 36.294Z" opacity=".5"/>
  </g>
  <g opacity=".5">
    <mask id="b" width="41" height="24" x="0" y="17" maskUnits="userSpaceOnUse" style="mask-type:alpha">
      <path fill="#fff" fill-rule="evenodd" d="M.778 34.804 8.724 17.64l32.16 22.642L.778 34.804Z" clip-rule="evenodd"/>
    </mask>
    <g mask="url(#b)">
      <path stroke="#FDC23C" stroke-width="2" d="M77.663 40.28c0 20.04-16.336 36.295-36.499 36.295-20.163 0-36.499-16.255-36.499-36.294 0-20.04 16.336-36.294 36.5-36.294 20.162 0 36.498 16.254 36.498 36.294Z"/>
    </g>
  </g>
  <g opacity=".5">
    <mask id="c" width="41" height="34" x="0" y="36" maskUnits="userSpaceOnUse" style="mask-type:alpha">
      <path fill="#fff" fill-rule="evenodd" d="M0 36.053 9.732 69.2l31.152-28.881L0 36.054Z" clip-rule="evenodd"/>
    </mask>
    <g mask="url(#c)">
      <path stroke="#AB6CFE" stroke-width="2" d="M77.65 40.275c0 20.165-16.347 36.512-36.513 36.512-20.166 0-36.513-16.347-36.513-36.512S20.97 3.763 41.137 3.763c20.166 0 36.513 16.347 36.513 36.512Z"/>
    </g>
  </g>
  <mask id="d" width="71" height="42" x="11" y="38" maskUnits="userSpaceOnUse" style="mask-type:alpha">
    <path fill="#fff" fill-rule="evenodd" d="m81.839 38.38-9.916 29.724S52.566 79.78 42.152 79.996c-10.414.216-31.059-10.63-31.059-10.63L40.856 40.36l40.983-1.98Z" clip-rule="evenodd"/>
  </mask>
  <g mask="url(#d)">
    <path stroke="#FF622D" stroke-width="2" d="M77.693 40.36c0 20.058-16.36 36.329-36.556 36.329C20.94 76.689 4.58 60.418 4.58 40.36S20.941 4.031 41.137 4.031c20.195 0 36.556 16.271 36.556 36.33Z" opacity=".5"/>
  </g>
  <mask id="e" width="42" height="41" x="40" y="0" maskUnits="userSpaceOnUse" style="mask-type:alpha">
    <path fill="#fff" fill-rule="evenodd" d="m41.986 0 25.13 7.019 11.678 14.867 2.946 15.052-40.797 3.343L41.986 0Z" clip-rule="evenodd"/>
  </mask>
  <g mask="url(#e)">
    <path stroke="#59DDAA" stroke-width="2" d="M77.794 40.28c0 20.038-16.366 36.295-36.57 36.295S4.654 60.318 4.654 40.28c0-20.038 16.366-36.294 36.57-36.294s36.57 16.256 36.57 36.294Z" opacity=".5"/>
  </g>
  <g clip-path="url(#f)">
    <ellipse cx="41.336" cy="39.911" fill="#FDC23C" opacity=".01" rx="33.341" ry="33.12"/>
    <mask id="g" width="68" height="68" x="7" y="6" maskUnits="userSpaceOnUse" style="mask-type:alpha">
      <ellipse cx="41.336" cy="39.911" fill="#fff" rx="33.341" ry="33.12"/>
    </mask>
    <g fill-rule="evenodd" clip-rule="evenodd" mask="url(#g)">
      <path fill="#2BB3FF" d="M41.21 39.91V-.735l-30.447 19.57L41.21 39.912Z" opacity=".2"/>
      <path fill="#59DDAA" d="m41.239 39.91 52.813-3.37L40.958-2.242l.281 42.152Z" opacity=".3"/>
      <path fill="#FF622D" d="M41.297 40.053 7.995 71.88l57.969 3.409 11.732-37.636-36.4 2.4Z" opacity=".2"/>
      <path fill="#AB6CFE" d="M41.462 40.003 11.68 68.22 4.976 35.896l36.486 4.107Z" opacity=".2"/>
      <path fill="#FDC23C" d="M41.21 39.911 11.923 19.337 7.492 36.072l33.718 3.839Z" opacity=".2"/>
    </g>
    <g stroke="#C4C7CF" opacity=".5">
      <path d="M74.177 40.197c0 18.138-14.704 32.84-32.841 32.84s-32.84-14.702-32.84-32.84c0-18.137 14.702-32.84 32.84-32.84 18.138 0 32.84 14.703 32.84 32.84Z"/>
      <path d="M66.556 40.197c0 13.929-11.291 25.22-25.22 25.22-13.929 0-25.22-11.291-25.22-25.22 0-13.929 11.291-25.22 25.22-25.22 13.928 0 25.22 11.291 25.22 25.22Z"/>
      <path d="M58.935 40.197c0 9.72-7.879 17.6-17.599 17.6s-17.6-7.88-17.6-17.6c0-9.72 7.88-17.6 17.6-17.6 9.72 0 17.6 7.88 17.6 17.6Z"/>
      <path d="M51.315 40.197c0 5.511-4.468 9.979-9.979 9.979-5.511 0-9.979-4.468-9.979-9.979 0-5.51 4.468-9.979 9.979-9.979 5.511 0 9.979 4.468 9.979 9.98Z"/>
    </g>
    <g clip-path="url(#h)" opacity=".5">
      <circle r="2.5" fill="#FDC23C" stroke="#fff" transform="matrix(-1 0 0 1 25.238 34.005)"/>
    </g>
    <circle r="2.5" stroke="#fff" transform="matrix(-1 0 0 1 25.238 34.005)"/>
    <g clip-path="url(#i)" opacity=".5">
      <circle r="1.5" fill="#FDC23C" stroke="#fff" transform="matrix(-1 0 0 1 14.997 29.956)"/>
    </g>
    <circle r="1.5" stroke="#fff" transform="matrix(-1 0 0 1 14.997 29.956)"/>
    <g clip-path="url(#j)" opacity=".5">
      <circle cx="28.785" cy="17.549" r="3.5" fill="#2BB3FF" stroke="#fff" stroke-width="2"/>
    </g>
    <circle cx="28.785" cy="17.549" r="3" stroke="#fff"/>
    <g clip-path="url(#k)" opacity=".5">
      <circle cx="22.641" cy="18.454" r="2.5" fill="#2BB3FF" stroke="#fff" stroke-width="2"/>
    </g>
    <circle cx="22.641" cy="18.454" r="2" stroke="#fff"/>
    <path fill="#2BB3FF" stroke="#fff" d="M36.021 29.622c1.771 0 3.187-1.467 3.187-3.251 0-1.784-1.416-3.25-3.187-3.25-1.77 0-3.187 1.466-3.187 3.25s1.416 3.25 3.187 3.25Z" opacity=".7"/>
    <g clip-path="url(#l)" opacity=".5">
      <circle cx="15.02" cy="49.127" r="2" fill="#AB6CFE" stroke="#fff"/>
    </g>
    <circle cx="15.02" cy="49.127" r="2" stroke="#fff"/>
    <g opacity=".7">
      <g clip-path="url(#m)">
        <ellipse cx="22.043" cy="45.123" fill="#AB6CFE" rx="2.616" ry="2.639"/>
      </g>
      <path stroke="#fff" d="M22.043 48.262c1.725 0 3.116-1.41 3.116-3.14 0-1.729-1.391-3.139-3.116-3.139-1.726 0-3.117 1.41-3.117 3.14 0 1.73 1.391 3.14 3.117 3.14Z"/>
      <path fill="#AB6CFE" fill-rule="evenodd" d="M22.513 44.77h-.267v.533h-.534v.267h.534v.533h.267v-.533h.533v-.267h-.533v-.533Z" clip-rule="evenodd"/>
    </g>
    <g clip-path="url(#n)" opacity=".5">
      <circle cx="16.02" cy="42.507" r="3" fill="#AB6CFE" stroke="#fff"/>
    </g>
    <circle cx="16.02" cy="42.507" r="3" stroke="#fff"/>
    <g clip-path="url(#o)" opacity=".5">
      <circle cx="49.195" cy="68.251" r="1.5" fill="#FF622D" stroke="#fff"/>
    </g>
    <circle cx="49.195" cy="68.251" r="1.5" stroke="#fff"/>
    <g clip-path="url(#p)" opacity=".5">
      <circle cx="31.714" cy="64.297" r="2.5" fill="#FF622D" stroke="#fff"/>
    </g>
    <circle cx="31.714" cy="64.297" r="2.5" stroke="#fff"/>
    <g opacity=".7">
      <g clip-path="url(#q)">
        <ellipse cx="41.343" cy="56.942" fill="#FF622D" rx="4.769" ry="4.933"/>
      </g>
      <path stroke="#fff" d="M41.343 62.375c2.925 0 5.269-2.448 5.269-5.433 0-2.984-2.343-5.433-5.27-5.433-2.925 0-5.269 2.449-5.269 5.433 0 2.985 2.344 5.433 5.27 5.433Z"/>
      <path fill="#FF622D" fill-rule="evenodd" d="M41.946 56.582h-.267v.533h-.534v.267h.534v.533h.267v-.533h.533v-.267h-.533v-.533Z" clip-rule="evenodd"/>
    </g>
    <g clip-path="url(#r)" opacity=".5">
      <circle cx="54.053" cy="56.724" r="3.5" fill="#FF622D" stroke="#fff"/>
    </g>
    <circle cx="54.053" cy="56.724" r="3.5" stroke="#fff"/>
    <g clip-path="url(#s)" opacity=".5">
      <circle cx="62.388" cy="55.152" r="2.5" fill="#FF622D" stroke="#fff"/>
    </g>
    <circle cx="62.388" cy="55.152" r="2.5" stroke="#fff"/>
    <g clip-path="url(#t)" opacity=".5">
      <circle cx="61.102" cy="28.527" r="3.5" fill="#59DDAA" stroke="#fff"/>
    </g>
    <circle cx="61.102" cy="28.527" r="3.5" stroke="#fff"/>
    <g clip-path="url(#u)" opacity=".5">
      <circle cx="58.649" cy="17.12" r="2" fill="#59DDAA" stroke="#fff"/>
    </g>
    <circle cx="58.649" cy="17.12" r="2" stroke="#fff"/>
    <g opacity=".7">
      <g clip-path="url(#v)">
        <ellipse cx="48.705" cy="23.323" fill="#59DDAA" rx="3.558" ry="3.511"/>
      </g>
      <path stroke="#fff" d="M48.542 27.882c2.136 0 3.895-1.68 3.895-3.785 0-2.106-1.76-3.786-3.895-3.786-2.136 0-3.895 1.68-3.895 3.786s1.76 3.785 3.895 3.785Z"/>
    </g>
  </g>
  <defs>
    <clipPath id="f">
      <path fill="#fff" d="M7.995 6.666h66.682v66.872H7.995z"/>
    </clipPath>
    <clipPath id="h">
      <path fill="#fff" d="M27.238 32.005h-4v4h4z"/>
    </clipPath>
    <clipPath id="i">
      <path fill="#fff" d="M15.997 28.956h-2v2h2z"/>
    </clipPath>
    <clipPath id="j">
      <path fill="#fff" d="M26.285 15.049h5v5h-5z"/>
    </clipPath>
    <clipPath id="k">
      <path fill="#fff" d="M21.141 16.954h3v3h-3z"/>
    </clipPath>
    <clipPath id="l">
      <path fill="#fff" d="M13.52 47.627h3v3h-3z"/>
    </clipPath>
    <clipPath id="m">
      <path fill="#fff" d="M19.426 42.483h6v6h-6z"/>
    </clipPath>
    <clipPath id="n">
      <path fill="#fff" d="M13.52 40.007h5v5h-5z"/>
    </clipPath>
    <clipPath id="o">
      <path fill="#fff" d="M48.195 67.25h2v2h-2z"/>
    </clipPath>
    <clipPath id="p">
      <path fill="#fff" d="M29.714 62.297h4v4h-4z"/>
    </clipPath>
    <clipPath id="q">
      <path fill="#fff" d="M36.573 52.01h10v10h-10z"/>
    </clipPath>
    <clipPath id="r">
      <path fill="#fff" d="M51.053 53.724h6v6h-6z"/>
    </clipPath>
    <clipPath id="s">
      <path fill="#fff" d="M60.388 53.152h4v4h-4z"/>
    </clipPath>
    <clipPath id="t">
      <path fill="#fff" d="M58.102 25.527h6v6h-6z"/>
    </clipPath>
    <clipPath id="u">
      <path fill="#fff" d="M57.15 15.62h3v3h-3z"/>
    </clipPath>
    <clipPath id="v">
      <path fill="#fff" d="M45.147 19.811h8v8h-8z"/>
    </clipPath>
  </defs>
</svg>
