<svg width="144" height="80" viewBox="0 0 144 80" fill="none" xmlns="http://www.w3.org/2000/svg">
<rect width="144" height="80" fill="white"/>
<mask id="mask0_430_18922" style="mask-type:luminance" maskUnits="userSpaceOnUse" x="41" y="0" width="31" height="41">
<path fill-rule="evenodd" clip-rule="evenodd" d="M71.8836 0L54.9167 2.9868L41.1201 17.3779L71.8836 40.2808V0Z" fill="white"/>
</mask>
<g mask="url(#mask0_430_18922)">
<path opacity="0.5" d="M108.703 40.2808C108.703 60.3193 92.3504 76.5748 72.1642 76.5748C51.978 76.5748 35.625 60.3193 35.625 40.2808C35.625 20.2424 51.978 3.98682 72.1642 3.98682C92.3504 3.98682 108.703 20.2424 108.703 40.2808Z" stroke="#2BB3FF" stroke-width="2"/>
</g>
<g opacity="0.5">
<mask id="mask1_430_18922" style="mask-type:luminance" maskUnits="userSpaceOnUse" x="31" y="17" width="41" height="24">
<path fill-rule="evenodd" clip-rule="evenodd" d="M31.7783 34.804L39.724 17.639L71.8837 40.2808L31.7783 34.804Z" fill="white"/>
</mask>
<g mask="url(#mask1_430_18922)">
<path d="M108.663 40.2808C108.663 60.3202 92.3272 76.5747 72.1641 76.5747C52.001 76.5747 35.665 60.3202 35.665 40.2808C35.665 20.2413 52.001 3.98676 72.1641 3.98676C92.3272 3.98676 108.663 20.2413 108.663 40.2808Z" stroke="#FDC23C" stroke-width="2"/>
</g>
</g>
<g opacity="0.5">
<mask id="mask2_430_18922" style="mask-type:luminance" maskUnits="userSpaceOnUse" x="31" y="36" width="41" height="34">
<path fill-rule="evenodd" clip-rule="evenodd" d="M31 36.0535L40.7322 69.1994L71.8838 40.3177L31 36.0535Z" fill="white"/>
</mask>
<g mask="url(#mask2_430_18922)">
<path d="M108.65 40.275C108.65 60.4398 92.3028 76.7866 72.137 76.7866C51.9711 76.7866 35.6235 60.4398 35.6235 40.275C35.6235 20.1103 51.9711 3.76349 72.137 3.76349C92.3028 3.76349 108.65 20.1103 108.65 40.275Z" stroke="#AB6CFE" stroke-width="2"/>
</g>
</g>
<mask id="mask3_430_18922" style="mask-type:luminance" maskUnits="userSpaceOnUse" x="42" y="38" width="71" height="42">
<path fill-rule="evenodd" clip-rule="evenodd" d="M112.839 38.3795L102.923 68.1044C102.923 68.1044 83.5657 79.78 73.152 79.9958C62.7383 80.2117 42.0933 69.3653 42.0933 69.3653L71.856 40.3602L112.839 38.3795Z" fill="white"/>
</mask>
<g mask="url(#mask3_430_18922)">
<path opacity="0.5" d="M108.693 40.3602C108.693 60.4182 92.3322 76.6887 72.1368 76.6887C51.9413 76.6887 35.5801 60.4182 35.5801 40.3602C35.5801 20.3022 51.9413 4.03162 72.1368 4.03162C92.3322 4.03162 108.693 20.3022 108.693 40.3602Z" stroke="#FF622D" stroke-width="2"/>
</g>
<mask id="mask4_430_18922" style="mask-type:luminance" maskUnits="userSpaceOnUse" x="71" y="0" width="42" height="41">
<path fill-rule="evenodd" clip-rule="evenodd" d="M72.9855 0L98.1167 7.01858L109.794 21.8858L112.74 36.9383L71.9429 40.2808L72.9855 0Z" fill="white"/>
</mask>
<g mask="url(#mask4_430_18922)">
<path opacity="0.5" d="M108.794 40.2808C108.794 60.3185 92.4278 76.5748 72.2238 76.5748C52.0198 76.5748 35.6538 60.3185 35.6538 40.2808C35.6538 20.2431 52.0198 3.98682 72.2238 3.98682C92.4278 3.98682 108.794 20.2431 108.794 40.2808Z" stroke="#59DDAA" stroke-width="2"/>
</g>
<g clip-path="url(#clip0_430_18922)">
<ellipse opacity="0.01" cx="72.336" cy="39.9109" rx="33.3409" ry="33.1196" fill="#FDC23C"/>
<mask id="mask5_430_18922" style="mask-type:luminance" maskUnits="userSpaceOnUse" x="38" y="6" width="68" height="68">
<ellipse cx="72.336" cy="39.9109" rx="33.3409" ry="33.1196" fill="white"/>
</mask>
<g mask="url(#mask5_430_18922)">
<path opacity="0.2" fill-rule="evenodd" clip-rule="evenodd" d="M72.2103 39.9109V-0.735901L41.7632 18.8348L72.2103 39.9109Z" fill="#2BB3FF"/>
<path opacity="0.3" fill-rule="evenodd" clip-rule="evenodd" d="M72.239 39.9109L125.052 36.5394L71.9585 -2.24133L72.239 39.9109Z" fill="#59DDAA"/>
<path opacity="0.2" fill-rule="evenodd" clip-rule="evenodd" d="M72.2967 40.0532L38.9951 71.8797L96.964 75.2886L108.696 37.6527L72.2967 40.0532Z" fill="#FF622D"/>
<path opacity="0.2" fill-rule="evenodd" clip-rule="evenodd" d="M72.4618 40.003L42.6807 68.2198L35.9756 35.8964L72.4618 40.003Z" fill="#AB6CFE"/>
<path opacity="0.2" fill-rule="evenodd" clip-rule="evenodd" d="M72.21 39.9108L42.9232 19.3365L38.4917 36.0721L72.21 39.9108Z" fill="#FDC23C"/>
</g>
<g opacity="0.5">
<path d="M105.177 40.1972C105.177 58.3347 90.4735 73.038 72.336 73.038C54.1985 73.038 39.4951 58.3347 39.4951 40.1972C39.4951 22.0597 54.1985 7.35632 72.336 7.35632C90.4735 7.35632 105.177 22.0597 105.177 40.1972Z" stroke="#C4C7CF"/>
<path d="M97.5559 40.1972C97.5559 54.1259 86.2645 65.4173 72.3358 65.4173C58.4071 65.4173 47.1157 54.1259 47.1157 40.1972C47.1157 26.2685 58.4071 14.9771 72.3358 14.9771C86.2645 14.9771 97.5559 26.2685 97.5559 40.1972Z" stroke="#C4C7CF"/>
<path d="M89.9355 40.1972C89.9355 49.917 82.056 57.7965 72.3361 57.7965C62.6163 57.7965 54.7368 49.917 54.7368 40.1972C54.7368 30.4773 62.6163 22.5978 72.3361 22.5978C82.056 22.5978 89.9355 30.4773 89.9355 40.1972Z" stroke="#C4C7CF"/>
<path d="M82.3145 40.1972C82.3145 45.7082 77.847 50.1757 72.336 50.1757C66.825 50.1757 62.3574 45.7082 62.3574 40.1972C62.3574 34.6862 66.825 30.2186 72.336 30.2186C77.847 30.2186 82.3145 34.6862 82.3145 40.1972Z" stroke="#C4C7CF"/>
</g>
<g opacity="0.5" clip-path="url(#clip1_430_18922)">
<circle cx="2" cy="2" r="2.5" transform="matrix(-1 0 0 1 58.2378 32.0048)" fill="#FDC23C" stroke="white"/>
</g>
<circle cx="2" cy="2" r="2.5" transform="matrix(-1 0 0 1 58.2378 32.0048)" stroke="white"/>
<g opacity="0.5" clip-path="url(#clip2_430_18922)">
<circle cx="1" cy="1" r="1.5" transform="matrix(-1 0 0 1 46.9971 28.9565)" fill="#FDC23C" stroke="white"/>
</g>
<circle cx="1" cy="1" r="1.5" transform="matrix(-1 0 0 1 46.9971 28.9565)" stroke="white"/>
<g opacity="0.5" clip-path="url(#clip3_430_18922)">
<circle cx="59.7852" cy="17.5487" r="3.5" fill="#2BB3FF" stroke="white" stroke-width="2"/>
</g>
<circle cx="59.7852" cy="17.5487" r="3" stroke="white"/>
<g opacity="0.5" clip-path="url(#clip4_430_18922)">
<circle cx="53.6411" cy="18.4539" r="2.5" fill="#2BB3FF" stroke="white" stroke-width="2"/>
</g>
<circle cx="53.6411" cy="18.4539" r="2" stroke="white"/>
<g opacity="0.7">
<path d="M67.021 29.6218C68.792 29.6218 70.2076 28.1552 70.2076 26.371C70.2076 24.5869 68.792 23.1202 67.021 23.1202C65.2501 23.1202 63.8345 24.5869 63.8345 26.371C63.8345 28.1552 65.2501 29.6218 67.021 29.6218Z" fill="#2BB3FF" stroke="white"/>
</g>
<g opacity="0.5" clip-path="url(#clip5_430_18922)">
<circle cx="46.02" cy="49.1275" r="2" fill="#AB6CFE" stroke="white"/>
</g>
<circle cx="46.02" cy="49.1275" r="2" stroke="white"/>
<g opacity="0.7">
<g clip-path="url(#clip6_430_18922)">
<ellipse cx="53.0426" cy="45.1228" rx="2.61635" ry="2.63939" fill="#AB6CFE"/>
</g>
<path d="M53.0426 48.2622C54.7679 48.2622 56.159 46.8525 56.159 45.1228C56.159 43.3932 54.7679 41.9835 53.0426 41.9835C51.3174 41.9835 49.9263 43.3932 49.9263 45.1228C49.9263 46.8525 51.3174 48.2622 53.0426 48.2622Z" stroke="white"/>
<path fill-rule="evenodd" clip-rule="evenodd" d="M53.5126 44.7697H53.2459V45.3032H52.7124V45.5699H53.2459V46.1033H53.5126V45.5699H54.046V45.3032H53.5126V44.7697Z" fill="#AB6CFE"/>
</g>
<g opacity="0.5" clip-path="url(#clip7_430_18922)">
<circle cx="47.02" cy="42.5067" r="3" fill="#AB6CFE" stroke="white"/>
</g>
<circle cx="47.02" cy="42.5067" r="3" stroke="white"/>
<g opacity="0.5" clip-path="url(#clip8_430_18922)">
<circle cx="80.1948" cy="68.2509" r="1.5" fill="#FF622D" stroke="white"/>
</g>
<circle cx="80.1948" cy="68.2509" r="1.5" stroke="white"/>
<g opacity="0.5" clip-path="url(#clip9_430_18922)">
<circle cx="62.7144" cy="64.2974" r="2.5" fill="#FF622D" stroke="white"/>
</g>
<circle cx="62.7144" cy="64.2974" r="2.5" stroke="white"/>
<g opacity="0.7">
<g clip-path="url(#clip10_430_18922)">
<ellipse cx="72.3426" cy="56.9423" rx="4.76931" ry="4.93293" fill="#FF622D"/>
</g>
<path d="M72.3426 62.3753C75.2685 62.3753 77.6119 59.9268 77.6119 56.9423C77.6119 53.9578 75.2685 51.5094 72.3426 51.5094C69.4166 51.5094 67.0732 53.9578 67.0732 56.9423C67.0732 59.9268 69.4166 62.3753 72.3426 62.3753Z" stroke="white"/>
<path fill-rule="evenodd" clip-rule="evenodd" d="M72.9457 56.5818H72.679V57.1153H72.1455V57.382H72.679V57.9155H72.9457V57.382H73.4791V57.1153H72.9457V56.5818Z" fill="#FF622D"/>
</g>
<g opacity="0.5" clip-path="url(#clip11_430_18922)">
<circle cx="85.0527" cy="56.7241" r="3.5" fill="#FF622D" stroke="white"/>
</g>
<circle cx="85.0527" cy="56.7241" r="3.5" stroke="white"/>
<g opacity="0.5" clip-path="url(#clip12_430_18922)">
<circle cx="93.3882" cy="55.1525" r="2.5" fill="#FF622D" stroke="white"/>
</g>
<circle cx="93.3882" cy="55.1525" r="2.5" stroke="white"/>
<g opacity="0.5" clip-path="url(#clip13_430_18922)">
<circle cx="92.1016" cy="28.5272" r="3.5" fill="#59DDAA" stroke="white"/>
</g>
<circle cx="92.1016" cy="28.5272" r="3.5" stroke="white"/>
<g opacity="0.5" clip-path="url(#clip14_430_18922)">
<circle cx="89.6494" cy="17.1202" r="2" fill="#59DDAA" stroke="white"/>
</g>
<circle cx="89.6494" cy="17.1202" r="2" stroke="white"/>
<g opacity="0.7">
<g clip-path="url(#clip15_430_18922)">
<ellipse cx="79.7046" cy="23.3228" rx="3.55814" ry="3.51111" fill="#59DDAA"/>
</g>
<path d="M79.5418 27.8823C81.6775 27.8823 83.4372 26.2029 83.4372 24.097C83.4372 21.991 81.6775 20.3116 79.5418 20.3116C77.4061 20.3116 75.6465 21.991 75.6465 24.097C75.6465 26.2029 77.4061 27.8823 79.5418 27.8823Z" stroke="white"/>
</g>
</g>
<defs>
<clipPath id="clip0_430_18922">
<rect width="66.6817" height="66.8722" fill="white" transform="translate(38.9951 6.66583)"/>
</clipPath>
<clipPath id="clip1_430_18922">
<rect width="4" height="4" fill="white" transform="matrix(-1 0 0 1 58.2378 32.0048)"/>
</clipPath>
<clipPath id="clip2_430_18922">
<rect width="2" height="2" fill="white" transform="matrix(-1 0 0 1 46.9971 28.9565)"/>
</clipPath>
<clipPath id="clip3_430_18922">
<rect width="5" height="5" fill="white" transform="translate(57.2852 15.0487)"/>
</clipPath>
<clipPath id="clip4_430_18922">
<rect width="3" height="3" fill="white" transform="translate(52.1411 16.9539)"/>
</clipPath>
<clipPath id="clip5_430_18922">
<rect width="3" height="3" fill="white" transform="translate(44.52 47.6275)"/>
</clipPath>
<clipPath id="clip6_430_18922">
<rect width="6" height="6" fill="white" transform="translate(50.4263 42.4835)"/>
</clipPath>
<clipPath id="clip7_430_18922">
<rect width="5" height="5" fill="white" transform="translate(44.52 40.0067)"/>
</clipPath>
<clipPath id="clip8_430_18922">
<rect width="2" height="2" fill="white" transform="translate(79.1948 67.2509)"/>
</clipPath>
<clipPath id="clip9_430_18922">
<rect width="4" height="4" fill="white" transform="translate(60.7144 62.2974)"/>
</clipPath>
<clipPath id="clip10_430_18922">
<rect width="10" height="10" fill="white" transform="translate(67.5732 52.0094)"/>
</clipPath>
<clipPath id="clip11_430_18922">
<rect width="6" height="6" fill="white" transform="translate(82.0527 53.7241)"/>
</clipPath>
<clipPath id="clip12_430_18922">
<rect width="4" height="4" fill="white" transform="translate(91.3882 53.1525)"/>
</clipPath>
<clipPath id="clip13_430_18922">
<rect width="6" height="6" fill="white" transform="translate(89.1016 25.5272)"/>
</clipPath>
<clipPath id="clip14_430_18922">
<rect width="3" height="3" fill="white" transform="translate(88.1494 15.6202)"/>
</clipPath>
<clipPath id="clip15_430_18922">
<rect width="8" height="8" fill="white" transform="translate(76.1465 19.8116)"/>
</clipPath>
</defs>
</svg>
