<svg width="144" height="80" viewBox="0 0 144 80" fill="none" xmlns="http://www.w3.org/2000/svg">
<rect width="144" height="80" fill="white"/>
<path d="M35.1331 31.0213L71.9998 4.23607L108.866 31.0213L94.7846 74.3607H49.2149L35.1331 31.0213Z" stroke="#C4C7CF" stroke-width="2"/>
<path d="M69.5035 16.8138L71.1678 15.6046L71.4617 16.0091L72 15.618L72.5383 16.0091L72.8322 15.6046L74.4965 16.8138L74.2026 17.2183L75.867 18.4276L76.1609 18.023L77.8252 19.2323L77.5313 19.6368L79.1957 20.846L79.4896 20.4415L81.1539 21.6507L80.86 22.0552L82.5244 23.2644L82.8183 22.8599L84.4826 24.0692L84.1887 24.4737L85.8531 25.6829L86.147 25.2784L87.8113 26.4876L87.5174 26.8921L89.1818 28.1013L89.4757 27.6968L91.14 28.906L90.8461 29.3105L92.5105 30.5198L92.8044 30.1153L94.4687 31.3245L94.1748 31.729L95.8392 32.9382L96.1331 32.5337L97.7974 33.7429L97.5035 34.1474L98.0418 34.5385L97.8362 35.1713L98.3117 35.3258L97.676 37.2824L97.2005 37.1278L96.5647 39.0844L97.0403 39.2389L96.4045 41.1955L95.929 41.041L95.2933 42.9975L95.7688 43.152L95.1331 45.1086L94.6576 44.9541L94.0218 46.9107L94.4974 47.0652L93.8616 49.0217L93.3861 48.8672L92.7504 50.8238L93.2259 50.9783L92.5902 52.9348L92.1147 52.7803L91.4789 54.7369L91.9545 54.8914L91.3187 56.848L90.8432 56.6934L90.2075 58.65L90.683 58.8045L90.0473 60.7611L89.5718 60.6066L88.936 62.5631L89.4116 62.7176L88.7758 64.6742L88.3003 64.5197L88.0947 65.1525H87.4294V65.6525H85.3721V65.1525H83.3149V65.6525H81.2576V65.1525H79.2004V65.6525H77.1431V65.1525H75.0859V65.6525H73.0286V65.1525H70.9714V65.6525H68.9141V65.1525H66.8569V65.6525H64.7996V65.1525H62.7424V65.6525H60.6851V65.1525H58.6279V65.6525H56.5706V65.1525H55.9053L55.6997 64.5197L55.2242 64.6742L54.5884 62.7176L55.064 62.5631L54.4282 60.6066L53.9527 60.7611L53.317 58.8045L53.7925 58.65L53.1568 56.6935L52.6813 56.848L52.0455 54.8914L52.5211 54.7369L51.8853 52.7803L51.4098 52.9348L50.7741 50.9783L51.2496 50.8238L50.6139 48.8672L50.1384 49.0217L49.5026 47.0652L49.9782 46.9107L49.3424 44.9541L48.8669 45.1086L48.2312 43.152L48.7067 42.9975L48.071 41.041L47.5955 41.1955L46.9597 39.2389L47.4353 39.0844L46.7995 37.1279L46.324 37.2824L45.6883 35.3258L46.1638 35.1713L45.9582 34.5385L46.4965 34.1474L46.2026 33.7429L47.8669 32.5337L48.1608 32.9382L49.8252 31.729L49.5313 31.3245L51.1956 30.1153L51.4895 30.5198L53.1539 29.3105L52.86 28.906L54.5243 27.6968L54.8182 28.1013L56.4826 26.8921L56.1887 26.4876L57.853 25.2784L58.1469 25.6829L59.8113 24.4737L59.5174 24.0692L61.1817 22.8599L61.4756 23.2644L63.14 22.0552L62.8461 21.6507L64.5104 20.4415L64.8043 20.846L66.4687 19.6368L66.1748 19.2323L67.8391 18.0231L68.133 18.4276L69.7974 17.2183L69.5035 16.8138Z" stroke="#C4C7CF" stroke-dasharray="2 2"/>
<path d="M69.7175 28.6584L71.2392 27.5528L71.533 27.9573L72 27.618L72.467 27.9573L72.7608 27.5528L74.2825 28.6584L73.9886 29.0629L75.5103 30.1684L75.8042 29.7639L77.3259 30.8695L77.032 31.274L78.5537 32.3796L78.8476 31.9751L80.3693 33.0807L80.0754 33.4852L81.5971 34.5907L81.891 34.1862L83.4127 35.2918L83.1188 35.6963L84.6405 36.8019L84.9344 36.3974L86.4561 37.5029L86.1622 37.9074L86.6291 38.2467L86.4508 38.7956L86.9263 38.9502L86.3451 40.739L85.8695 40.5845L85.2883 42.3734L85.7638 42.5279L85.1826 44.3167L84.7071 44.1622L84.1258 45.9511L84.6014 46.1056L84.0201 47.8944L83.5446 47.7399L82.9634 49.5288L83.4389 49.6833L82.8576 51.4721L82.3821 51.3176L81.8009 53.1065L82.2764 53.261L81.6952 55.0498L81.2197 54.8953L81.0413 55.4443H80.4641V55.9443H78.5832V55.4443H76.7023V55.9443H74.8214V55.4443H72.9405V55.9443H71.0595V55.4443H69.1786V55.9443H67.2977V55.4443H65.4168V55.9443H63.5359V55.4443H62.9587L62.7803 54.8953L62.3048 55.0498L61.7236 53.261L62.1991 53.1065L61.6179 51.3176L61.1424 51.4721L60.5611 49.6833L61.0366 49.5288L60.4554 47.7399L59.9799 47.8944L59.3986 46.1056L59.8742 45.9511L59.2929 44.1622L58.8174 44.3167L58.2362 42.5279L58.7117 42.3734L58.1305 40.5845L57.6549 40.739L57.0737 38.9502L57.5492 38.7956L57.3709 38.2467L57.8378 37.9074L57.5439 37.5029L59.0656 36.3974L59.3595 36.8019L60.8812 35.6963L60.5873 35.2918L62.109 34.1862L62.4029 34.5907L63.9246 33.4852L63.6307 33.0807L65.1524 31.9751L65.4463 32.3796L66.968 31.274L66.6741 30.8695L68.1958 29.7639L68.4897 30.1684L70.0114 29.0629L69.7175 28.6584Z" stroke="#C4C7CF" stroke-dasharray="2 2"/>
<path d="M72 75V4" stroke="#C4C7CF" stroke-dasharray="2 2"/>
<path d="M36.5 31.5L72 43.5L108.5 31.5" stroke="#C4C7CF" stroke-dasharray="2 2"/>
<path d="M49.5 74.5L72 43.5L95 74.5" stroke="#C4C7CF" stroke-dasharray="2 2"/>
<path d="M80.4106 55.6858L50.7014 72.9207L66.9097 37.4153L66.9626 37.2993L66.9848 37.1738L72.7064 4.74953L108.449 30.7184L80.4106 55.6858Z" stroke="#AB6CFE" stroke-width="2"/>
<path d="M36.8608 31.8191L72.2973 33.9896L85.6546 38.7599L93.9804 73.2791L64.5873 55.6861L36.8608 31.8191Z" stroke="#FDC23C" stroke-width="2"/>
<circle cx="72" cy="5" r="3.5" fill="#AB6CFE" stroke="white"/>
<circle cx="108" cy="32" r="3.5" fill="#AB6CFE" stroke="white"/>
<circle cx="80" cy="56" r="3.5" fill="#AB6CFE" stroke="white"/>
<circle cx="64" cy="42" r="3.5" fill="#AB6CFE" stroke="white"/>
<circle cx="49" cy="75" r="3.5" fill="#AB6CFE" stroke="white"/>
<circle cx="36" cy="32" r="3.5" fill="#FDC23C" stroke="white"/>
<circle cx="71" cy="34" r="3.5" fill="#FDC23C" stroke="white"/>
<circle cx="85" cy="39" r="3.5" fill="#FDC23C" stroke="white"/>
<circle cx="94" cy="74" r="3.5" fill="#FDC23C" stroke="white"/>
<circle cx="64" cy="54" r="3.5" fill="#FDC23C" stroke="white"/>
</svg>
