<svg width="144" height="80" viewBox="0 0 144 80" fill="none" xmlns="http://www.w3.org/2000/svg">
<path d="M3.13309 31.0213L39.9998 4.23607L76.8665 31.0213L62.7846 74.3607H17.2149L3.13309 31.0213Z" stroke="#C4C7CF" stroke-width="2"/>
<path d="M37.5035 16.8138L39.1678 15.6046L39.4617 16.0091L40 15.618L40.5383 16.0091L40.8322 15.6046L42.4965 16.8138L42.2026 17.2183L43.867 18.4276L44.1609 18.023L45.8252 19.2323L45.5313 19.6368L47.1957 20.846L47.4896 20.4415L49.1539 21.6507L48.86 22.0552L50.5244 23.2644L50.8183 22.8599L52.4826 24.0692L52.1887 24.4737L53.8531 25.6829L54.147 25.2784L55.8113 26.4876L55.5174 26.8921L57.1818 28.1013L57.4757 27.6968L59.14 28.906L58.8461 29.3105L60.5105 30.5198L60.8044 30.1153L62.4687 31.3245L62.1748 31.729L63.8392 32.9382L64.1331 32.5337L65.7974 33.7429L65.5035 34.1474L66.0418 34.5385L65.8362 35.1713L66.3117 35.3258L65.676 37.2824L65.2005 37.1278L64.5647 39.0844L65.0403 39.2389L64.4045 41.1955L63.929 41.041L63.2933 42.9975L63.7688 43.152L63.1331 45.1086L62.6576 44.9541L62.0218 46.9107L62.4974 47.0652L61.8616 49.0217L61.3861 48.8672L60.7504 50.8238L61.2259 50.9783L60.5902 52.9348L60.1147 52.7803L59.4789 54.7369L59.9545 54.8914L59.3187 56.848L58.8432 56.6934L58.2075 58.65L58.683 58.8045L58.0473 60.7611L57.5718 60.6066L56.936 62.5631L57.4116 62.7176L56.7758 64.6742L56.3003 64.5197L56.0947 65.1525H55.4294V65.6525H53.3721V65.1525H51.3149V65.6525H49.2576V65.1525H47.2004V65.6525H45.1431V65.1525H43.0859V65.6525H41.0286V65.1525H38.9714V65.6525H36.9141V65.1525H34.8569V65.6525H32.7996V65.1525H30.7424V65.6525H28.6851V65.1525H26.6279V65.6525H24.5706V65.1525H23.9053L23.6997 64.5197L23.2242 64.6742L22.5884 62.7176L23.064 62.5631L22.4282 60.6066L21.9527 60.7611L21.317 58.8045L21.7925 58.65L21.1568 56.6935L20.6813 56.848L20.0455 54.8914L20.5211 54.7369L19.8853 52.7803L19.4098 52.9348L18.7741 50.9783L19.2496 50.8238L18.6139 48.8672L18.1384 49.0217L17.5026 47.0652L17.9782 46.9107L17.3424 44.9541L16.8669 45.1086L16.2312 43.152L16.7067 42.9975L16.071 41.041L15.5955 41.1955L14.9597 39.2389L15.4353 39.0844L14.7995 37.1279L14.324 37.2824L13.6883 35.3258L14.1638 35.1713L13.9582 34.5385L14.4965 34.1474L14.2026 33.7429L15.8669 32.5337L16.1608 32.9382L17.8252 31.729L17.5313 31.3245L19.1956 30.1153L19.4895 30.5198L21.1539 29.3105L20.86 28.906L22.5243 27.6968L22.8182 28.1013L24.4826 26.8921L24.1887 26.4876L25.853 25.2784L26.1469 25.6829L27.8113 24.4737L27.5174 24.0692L29.1817 22.8599L29.4756 23.2644L31.14 22.0552L30.8461 21.6507L32.5104 20.4415L32.8043 20.846L34.4687 19.6368L34.1748 19.2323L35.8391 18.0231L36.133 18.4276L37.7974 17.2183L37.5035 16.8138Z" stroke="#C4C7CF" stroke-dasharray="2 2"/>
<path d="M37.7175 28.6584L39.2392 27.5528L39.533 27.9573L40 27.618L40.467 27.9573L40.7608 27.5528L42.2825 28.6584L41.9886 29.0629L43.5103 30.1684L43.8042 29.7639L45.3259 30.8695L45.032 31.274L46.5537 32.3796L46.8476 31.9751L48.3693 33.0807L48.0754 33.4852L49.5971 34.5907L49.891 34.1862L51.4127 35.2918L51.1188 35.6963L52.6405 36.8019L52.9344 36.3974L54.4561 37.5029L54.1622 37.9074L54.6291 38.2467L54.4508 38.7956L54.9263 38.9502L54.3451 40.739L53.8695 40.5845L53.2883 42.3734L53.7638 42.5279L53.1826 44.3167L52.7071 44.1622L52.1258 45.9511L52.6014 46.1056L52.0201 47.8944L51.5446 47.7399L50.9634 49.5288L51.4389 49.6833L50.8576 51.4721L50.3821 51.3176L49.8009 53.1065L50.2764 53.261L49.6952 55.0498L49.2197 54.8953L49.0413 55.4443H48.4641V55.9443H46.5832V55.4443H44.7023V55.9443H42.8214V55.4443H40.9405V55.9443H39.0595V55.4443H37.1786V55.9443H35.2977V55.4443H33.4168V55.9443H31.5359V55.4443H30.9587L30.7803 54.8953L30.3048 55.0498L29.7236 53.261L30.1991 53.1065L29.6179 51.3176L29.1424 51.4721L28.5611 49.6833L29.0366 49.5288L28.4554 47.7399L27.9799 47.8944L27.3986 46.1056L27.8742 45.9511L27.2929 44.1622L26.8174 44.3167L26.2362 42.5279L26.7117 42.3734L26.1305 40.5845L25.6549 40.739L25.0737 38.9502L25.5492 38.7956L25.3709 38.2467L25.8378 37.9074L25.5439 37.5029L27.0656 36.3974L27.3595 36.8019L28.8812 35.6963L28.5873 35.2918L30.109 34.1862L30.4029 34.5907L31.9246 33.4852L31.6307 33.0807L33.1524 31.9751L33.4463 32.3796L34.968 31.274L34.6741 30.8695L36.1958 29.7639L36.4897 30.1684L38.0114 29.0629L37.7175 28.6584Z" stroke="#C4C7CF" stroke-dasharray="2 2"/>
<path d="M40 75V4" stroke="#C4C7CF" stroke-dasharray="2 2"/>
<path d="M40 43.5L39.8399 43.9737L39.9978 44.0271L40.1562 43.975L40 43.5ZM4.33989 31.9737L5.326 32.307L5.64622 31.3597L4.66011 31.0263L4.33989 31.9737ZM7.29822 32.9737L9.27044 33.6403L9.59067 32.693L7.61845 32.0263L7.29822 32.9737ZM11.2427 34.307L13.2149 34.9737L13.5351 34.0263L11.5629 33.3597L11.2427 34.307ZM15.1871 35.6403L17.1593 36.307L17.4796 35.3597L15.5073 34.693L15.1871 35.6403ZM19.1316 36.9737L21.1038 37.6403L21.424 36.693L19.4518 36.0263L19.1316 36.9737ZM23.076 38.307L25.0482 38.9737L25.3684 38.0263L23.3962 37.3597L23.076 38.307ZM27.0204 39.6403L28.9927 40.307L29.3129 39.3597L27.3407 38.693L27.0204 39.6403ZM30.9649 40.9737L32.9371 41.6403L33.2573 40.693L31.2851 40.0263L30.9649 40.9737ZM34.9093 42.307L36.8816 42.9737L37.2018 42.0263L35.2296 41.3597L34.9093 42.307ZM38.8538 43.6403L39.8399 43.9737L40.1601 43.0263L39.174 42.693L38.8538 43.6403ZM40.1562 43.975L41.0687 43.675L40.7563 42.725L39.8438 43.025L40.1562 43.975ZM42.8937 43.075L44.7187 42.475L44.4063 41.525L42.5813 42.125L42.8937 43.075ZM46.5437 41.875L48.3687 41.275L48.0563 40.325L46.2313 40.925L46.5437 41.875ZM50.1937 40.675L52.0187 40.075L51.7063 39.125L49.8813 39.725L50.1937 40.675ZM53.8437 39.475L55.6687 38.875L55.3563 37.925L53.5313 38.525L53.8437 39.475ZM57.4937 38.275L59.3187 37.675L59.0063 36.725L57.1813 37.325L57.4937 38.275ZM61.1437 37.075L62.9687 36.475L62.6563 35.525L60.8313 36.125L61.1437 37.075ZM64.7937 35.875L66.6187 35.275L66.3063 34.325L64.4813 34.925L64.7937 35.875ZM68.4437 34.675L70.2687 34.075L69.9563 33.125L68.1313 33.725L68.4437 34.675ZM72.0937 33.475L73.9187 32.875L73.6063 31.925L71.7813 32.525L72.0937 33.475ZM75.7437 32.275L76.6562 31.975L76.3438 31.025L75.4313 31.325L75.7437 32.275Z" fill="#C4C7CF"/>
<path d="M17.5 74.5L40 43.5L63 74.5" stroke="#C4C7CF" stroke-dasharray="2 2"/>
<path d="M48.4106 55.6858L18.7014 72.9207L34.9097 37.4153L34.9626 37.2993L34.9848 37.1738L40.7064 4.74953L76.4495 30.7184L48.4106 55.6858Z" stroke="#AB6CFE" stroke-width="2"/>
<path d="M4.86082 31.8191L40.2973 33.9896L53.6546 38.7599L61.9804 73.2791L32.5873 55.6861L4.86082 31.8191Z" stroke="#FDC23C" stroke-width="2"/>
<circle cx="40" cy="5" r="3.5" fill="#AB6CFE" stroke="white"/>
<circle cx="76" cy="32" r="3.5" fill="#AB6CFE" stroke="white"/>
<circle cx="48" cy="56" r="3.5" fill="#AB6CFE" stroke="white"/>
<circle cx="32" cy="42" r="3.5" fill="#AB6CFE" stroke="white"/>
<circle cx="17" cy="75" r="3.5" fill="#AB6CFE" stroke="white"/>
<circle cx="4" cy="32" r="3.5" fill="#FDC23C" stroke="white"/>
<circle cx="39" cy="34" r="3.5" fill="#FDC23C" stroke="white"/>
<circle cx="53" cy="39" r="3.5" fill="#FDC23C" stroke="white"/>
<circle cx="62" cy="74" r="3.5" fill="#FDC23C" stroke="white"/>
<circle cx="32" cy="54" r="3.5" fill="#FDC23C" stroke="white"/>
</svg>
