<svg width="144" height="80" viewBox="0 0 144 80" fill="none" xmlns="http://www.w3.org/2000/svg">
<g clip-path="url(#clip0_430_19068)">
<rect width="144" height="80" fill="white"/>
<rect x="64" y="38" width="16" height="4" rx="2" fill="#C4C7CF"/>
<rect width="23.9999" height="1" transform="matrix(0.92388 0.382683 -0.382649 0.923894 83.2778 44.1304)" fill="#008FF8"/>
<rect width="4" height="4" rx="2" transform="matrix(0.92388 0.382683 -0.382671 0.923885 106.025 51.929)" fill="#008FF8"/>
<rect width="23.9999" height="1" transform="matrix(0.707107 0.707107 -0.707081 0.707133 80.8389 48.1317)" fill="#008FF8"/>
<rect width="4" height="4" rx="2" transform="matrix(0.707107 0.707107 -0.707098 0.707116 98.8701 64.0415)" fill="#008FF8"/>
<rect width="23.9999" height="1" transform="matrix(0.382683 0.92388 -0.923865 0.382717 77.0542 50.8951)" fill="#008FF8"/>
<rect width="4" height="4" rx="2" transform="matrix(0.382683 0.92388 -0.923875 0.382696 87.624 72.4941)" fill="#008FF8"/>
<rect width="23.9999" height="1" transform="matrix(0 1 -1 3.68975e-05 72.5 52)" fill="#008FF8"/>
<rect width="4" height="4" rx="2" transform="matrix(0 1 -1 1.31594e-05 74 76)" fill="#008FF8"/>
<rect width="23.9999" height="1" transform="matrix(-0.382683 0.92388 -0.923894 -0.382649 67.8701 51.278)" fill="#008FF8"/>
<rect width="4" height="4" rx="2" transform="matrix(-0.382683 0.92388 -0.923885 -0.382671 60.0713 74.025)" fill="#008FF8"/>
<rect width="23.9999" height="1" transform="matrix(-0.707107 0.707107 -0.707133 -0.707081 63.8682 48.8387)" fill="#008FF8"/>
<rect width="4" height="4" rx="2" transform="matrix(-0.707107 0.707107 -0.707116 -0.707098 47.9585 66.87)" fill="#008FF8"/>
<rect width="23.9999" height="1" transform="matrix(-0.92388 0.382683 -0.382717 -0.923865 61.1045 45.0542)" fill="#008FF8"/>
<rect width="4" height="4" rx="2" transform="matrix(-0.92388 0.382683 -0.382696 -0.923875 39.5054 55.6244)" fill="#008FF8"/>
<rect width="23.9999" height="1" transform="matrix(-1 0 -3.68975e-05 -1 60 40.5)" fill="#008FF8"/>
<rect width="4" height="4" rx="2" transform="matrix(-1 0 -1.31594e-05 -1 36 42)" fill="#008FF8"/>
<rect width="23.9999" height="1" transform="matrix(-0.92388 -0.382683 0.382649 -0.923894 60.7222 35.8696)" fill="#FF4953"/>
<rect width="4" height="4" rx="2" transform="matrix(-0.92388 -0.382683 0.382671 -0.923885 37.9751 28.0711)" fill="#FF4953"/>
<rect width="23.9999" height="1" transform="matrix(-0.707107 -0.707107 0.707081 -0.707133 63.1611 31.8683)" fill="#FF4953"/>
<rect width="4" height="4" rx="2" transform="matrix(-0.707107 -0.707107 0.707098 -0.707116 45.1299 15.9584)" fill="#FF4953"/>
<rect width="23.9999" height="1" transform="matrix(-0.382683 -0.92388 0.923865 -0.382717 66.9458 29.1049)" fill="#FF4953"/>
<rect width="4" height="4" rx="2" transform="matrix(-0.382683 -0.92388 0.923875 -0.382696 56.376 7.5058)" fill="#FF4953"/>
<rect width="23.9999" height="1" transform="matrix(0 -1 1 -3.68975e-05 71.5 28)" fill="#009F81"/>
<rect width="4" height="4" rx="2" transform="matrix(0 -1 1 -1.31594e-05 70 4.00006)" fill="#009F81"/>
<rect width="23.9999" height="1" transform="matrix(0.382683 -0.92388 0.923894 0.382649 76.1299 28.7221)" fill="#009F81"/>
<rect width="4" height="4" rx="2" transform="matrix(0.382683 -0.92388 0.923885 0.382671 83.9287 5.97498)" fill="#009F81"/>
<rect width="23.9999" height="1" transform="matrix(0.707107 -0.707107 0.707133 0.707081 80.1318 31.1613)" fill="#009F81"/>
<rect width="4" height="4" rx="2" transform="matrix(0.707107 -0.707107 0.707116 0.707097 96.0415 13.1301)" fill="#009F81"/>
<rect width="23.9999" height="1" transform="matrix(0.92388 -0.382683 0.382718 0.923865 82.8955 34.9458)" fill="#009F81"/>
<rect width="4" height="4" rx="2" transform="matrix(0.92388 -0.382683 0.382696 0.923874 104.495 24.3756)" fill="#009F81"/>
<rect width="23.9999" height="1" transform="matrix(1 0 3.68975e-05 1 84 39.5)" fill="#009F81"/>
<rect width="4" height="4" rx="2" transform="matrix(1 0 1.31594e-05 1 108 38)" fill="#009F81"/>
</g>
<defs>
<clipPath id="clip0_430_19068">
<rect width="144" height="80" fill="white"/>
</clipPath>
</defs>
</svg>
