<svg xmlns="http://www.w3.org/2000/svg" width="144" height="80" fill="none" viewBox="0 0 144 80">
  <circle cx="15.5" cy="53.5" r="5.5" fill="#2BB3FF" opacity=".5"/>
  <circle cx="49.818" cy="46.5" r="5.5" fill="#2BB3FF" opacity=".5"/>
  <circle cx="61.289" cy="21.5" r="5.5" fill="#2BB3FF" opacity=".5"/>
  <circle cx="77.759" cy="15.5" r="5.5" fill="#2BB3FF" opacity=".5"/>
  <circle cx="115.258" cy="44.5" r="5.5" fill="#2BB3FF" opacity=".5"/>
  <circle cx="35.5" cy="33.5" r="5.5" fill="#59DDAA" opacity=".5"/>
  <circle cx="63.565" cy="56.5" r="5.5" fill="#59DDAA" opacity=".5"/>
  <circle cx="33.081" cy="25.5" r="5.5" fill="#59DDAA" opacity=".5"/>
  <circle cx="113.858" cy="10.5" r="5.5" fill="#59DDAA" opacity=".5"/>
  <circle cx="98.074" cy="54.5" r="5.5" fill="#59DDAA" opacity=".5"/>
  <circle cx="136.642" cy="65.5" r="5.5" fill="#59DDAA" opacity=".5"/>
  <circle cx="46.381" cy="66.5" r="5.5" fill="#AB6CFE" opacity=".5"/>
  <circle cx="96.674" cy="20.5" r="5.5" fill="#AB6CFE" opacity=".5"/>
  <circle cx="80.89" cy="64.5" r="5.5" fill="#AB6CFE" opacity=".5"/>
  <circle cx="96.642" cy="45.5" r="5.5" fill="#AB6CFE" opacity=".5"/>
  <circle cx="15.981" cy="19.031" r="5.5" fill="#FDC23C" opacity=".5"/>
  <circle cx="15.451" cy="46.5" r="5.5" fill="#FDC23C" opacity=".5"/>
  <circle cx="86.364" cy="10.5" r="5.5" fill="#FDC23C" opacity=".5"/>
  <circle cx="23.642" cy="18.5" r="5.5" fill="#FDC23C" opacity=".5"/>
  <circle cx="45.981" cy="25.226" r="5.5" fill="#FF622D" opacity=".5"/>
  <circle cx="117.295" cy="60.5" r="5.5" fill="#FF622D" opacity=".5"/>
  <circle cx="70.58" cy="34.5" r="5.5" fill="#FF622D" opacity=".5"/>
</svg>
