<svg xmlns="http://www.w3.org/2000/svg" width="148" height="80" fill="none" viewBox="0 0 148 80">
  <path fill="#2BB3FF" d="m146 41.419-4.8-3.751-4.8 3.75-4.8-3.75-4.8-5.038H122l-4.8 5.038-4.8-5.038-4.8 5.038-4.8-7.931h-9.6l-4.8 2.893-4.8-5.466-4.8 2.573h-9.6l-4.8-2.573-4.8 2.573h-4.8L50 34.774h-9.6l-4.8-5.037h-4.8L26 27.164l-4.8-2.893-4.8-4.609-4.8 4.609-4.8-4.609H2v48.243l4.8-2.446 4.8 2.446 4.8-2.446 4.8-3.285H26l4.8 3.285 4.8-3.285 4.8 3.285 4.8-5.173h9.6l4.8 1.888 4.8-3.565 4.8 1.677h9.6l4.8-1.677 4.8 1.677h4.8l4.8 3.286h9.6l4.8-3.286h4.8l4.8-1.677 4.8-1.887 4.8-3.006 4.8 3.006 4.8-3.006h4.8V41.42Z" opacity=".2"/>
  <path stroke="#2BB3FF" stroke-linecap="round" stroke-width="3" d="m146 41.419-4.8-3.751-4.8 3.75-4.8-3.75-4.8-5.038H122l-4.8 5.038-4.8-5.038-4.8 5.038-4.8-7.931h-9.6l-4.8 2.893-4.8-5.466-4.8 2.573h-9.6l-4.8-2.573-4.8 2.573h-4.8L50 34.774h-9.6l-4.8-5.037h-4.8L26 27.164l-4.8-2.893-4.8-4.609-4.8 4.609-4.8-4.609H2"/>
  <path fill="#59DDAA" d="M6.8 65.46 2 67.905V75h144V53.716h-4.8l-4.8 3.006-4.8-3.006-4.8 3.006-4.8 1.887-4.8 1.678h-4.8l-4.8 3.285H98l-4.8-3.285h-4.8l-4.8-1.678-4.8 1.678h-9.6l-4.8-1.678-4.8 3.565-4.8-1.887h-9.6l-4.8 5.172-4.8-3.285-4.8 3.285-4.8-3.285h-4.8l-4.8 3.285-4.8 2.447-4.8-2.447Z" opacity=".2"/>
  <path stroke="#59DDAA" stroke-linecap="round" stroke-width="3" d="m2 67.906 4.8-2.447 4.8 2.447 4.8-2.447 4.8-3.285H26l4.8 3.285 4.8-3.285 4.8 3.285 4.8-5.172h9.6l4.8 1.887 4.8-3.565 4.8 1.678h9.6l4.8-1.678 4.8 1.678h4.8l4.8 3.285h9.6l4.8-3.285h4.8l4.8-1.678 4.8-1.887 4.8-3.006 4.8 3.006 4.8-3.006h4.8"/>
</svg>
