<svg xmlns="http://www.w3.org/2000/svg" width="144" height="80" fill="none" viewBox="0 0 144 80">
  <g clip-path="url(#a)">
    <path fill="#fff" d="M0 5h142a2 2 0 0 1 2 2v12a2 2 0 0 1-2 2H0V5Z"/>
    <path fill="#2BB3FF" fill-rule="evenodd" d="M0 5h1v16H0V5Z" clip-rule="evenodd"/>
    <path fill="#8ECDFF" fill-rule="evenodd" d="M2 5h48v16H2V5Z" clip-rule="evenodd"/>
    <path fill="#C4E5FE" fill-rule="evenodd" d="M51 5h1v16h-1V5Z" clip-rule="evenodd"/>
    <path fill="#FDC23C" fill-rule="evenodd" d="M53 5h67v16H53V5Z" clip-rule="evenodd"/>
    <path fill="#FCE081" fill-rule="evenodd" d="M121 5h71v16h-71V5Z" clip-rule="evenodd"/>
  </g>
  <g clip-path="url(#b)">
    <path fill="#fff" d="M0 32h142a2 2 0 0 1 2 2v12a2 2 0 0 1-2 2H0V32Z"/>
    <path fill="#2BB3FF" fill-rule="evenodd" d="M0 32h71v16H0V32Z" clip-rule="evenodd"/>
    <path fill="#8ECDFF" fill-rule="evenodd" d="M72 32h1v16h-1V32Z" clip-rule="evenodd"/>
    <path fill="#C4E5FE" fill-rule="evenodd" d="M74 32h1v16h-1V32Z" clip-rule="evenodd"/>
    <path fill="#FDC23C" fill-rule="evenodd" d="M76 32h1v16h-1V32Z" clip-rule="evenodd"/>
    <path fill="#FCE081" fill-rule="evenodd" d="M78 32h71v16H78V32Z" clip-rule="evenodd"/>
  </g>
  <g clip-path="url(#c)">
    <path fill="#fff" d="M0 59h142a2 2 0 0 1 2 2v12a2 2 0 0 1-2 2H0V59Z"/>
    <path fill="#2BB3FF" fill-rule="evenodd" d="M0 59h71v16H0V59Z" clip-rule="evenodd"/>
    <path fill="#8ECDFF" fill-rule="evenodd" d="M72 59h48v16H72V59Z" clip-rule="evenodd"/>
    <path fill="#C4E5FE" fill-rule="evenodd" d="M121 59h1v16h-1V59Z" clip-rule="evenodd"/>
    <path fill="#FDC23C" fill-rule="evenodd" d="M123 59h67v16h-67V59Z" clip-rule="evenodd"/>
  </g>
  <defs>
    <clipPath id="a">
      <path fill="#fff" d="M0 5h142a2 2 0 0 1 2 2v12a2 2 0 0 1-2 2H0V5Z"/>
    </clipPath>
    <clipPath id="b">
      <path fill="#fff" d="M0 32h142a2 2 0 0 1 2 2v12a2 2 0 0 1-2 2H0V32Z"/>
    </clipPath>
    <clipPath id="c">
      <path fill="#fff" d="M0 59h142a2 2 0 0 1 2 2v12a2 2 0 0 1-2 2H0V59Z"/>
    </clipPath>
  </defs>
</svg>
