<svg xmlns="http://www.w3.org/2000/svg" width="144" height="80" fill="none" viewBox="0 0 144 80">
  <g clip-path="url(#a)">
    <path fill="#FDC23C" d="M8 50a2 2 0 0 1 2-2h15.667a2 2 0 0 1 2 2v26H8V50Z"/>
    <path fill="#008FF8" d="M8 76h19.667v1H8z"/>
    <path fill="#8ECDFF" d="M8 77h19.667v1H8z"/>
    <path fill="#C4C7CF" d="M8 78h19.667v7H8z"/>
  </g>
  <g clip-path="url(#b)">
    <path fill="#FDC23C" d="M29.666 20a2 2 0 0 1 2-2h15.667a2 2 0 0 1 2 2v26H29.667V20Z"/>
    <path fill="#008FF8" d="M29.666 46h19.667v13.5H29.666z"/>
    <path fill="#8ECDFF" d="M29.666 59.5h19.667V73H29.666z"/>
    <path fill="#C4C7CF" d="M29.666 73h19.667v7H29.666z"/>
  </g>
  <g clip-path="url(#c)">
    <path fill="#FDC23C" d="M51.334 23a2 2 0 0 1 2-2H69a2 2 0 0 1 2 2v26H51.334V23Z"/>
    <path fill="#008FF8" d="M51.334 49h19.667v12H51.334z"/>
    <path fill="#8ECDFF" d="M51.334 61h19.667v12H51.334z"/>
    <path fill="#C4C7CF" d="M51.334 73h19.667v7H51.334z"/>
  </g>
  <g clip-path="url(#d)">
    <path fill="#FDC23C" d="M73 39a2 2 0 0 1 2-2h15.667a2 2 0 0 1 2 2v26H73V39Z"/>
    <path fill="#008FF8" d="M73 65h19.667v4H73z"/>
    <path fill="#8ECDFF" d="M73 69h19.667v4H73z"/>
    <path fill="#C4C7CF" d="M73 73h19.667v7H73z"/>
  </g>
  <g clip-path="url(#e)">
    <path fill="#FDC23C" d="M94.666 26a2 2 0 0 1 2-2h15.667a2 2 0 0 1 2 2v26H94.667V26Z"/>
    <path fill="#008FF8" d="M94.666 52h19.667v10.5H94.666z"/>
    <path fill="#8ECDFF" d="M94.666 62.5h19.667V73H94.666z"/>
    <path fill="#C4C7CF" d="M94.666 73h19.667v7H94.666z"/>
  </g>
  <g clip-path="url(#f)">
    <path fill="#FDC23C" d="M116.333 64a2 2 0 0 1 2-2H134a2 2 0 0 1 2 2v26h-19.667V64Z"/>
  </g>
  <defs>
    <clipPath id="a">
      <path fill="#fff" d="M8 50a2 2 0 0 1 2-2h15.667a2 2 0 0 1 2 2v30H8V50Z"/>
    </clipPath>
    <clipPath id="b">
      <path fill="#fff" d="M29.666 20a2 2 0 0 1 2-2h15.667a2 2 0 0 1 2 2v60H29.667V20Z"/>
    </clipPath>
    <clipPath id="c">
      <path fill="#fff" d="M51.334 23a2 2 0 0 1 2-2H69a2 2 0 0 1 2 2v57H51.334V23Z"/>
    </clipPath>
    <clipPath id="d">
      <path fill="#fff" d="M73 39a2 2 0 0 1 2-2h15.667a2 2 0 0 1 2 2v41H73V39Z"/>
    </clipPath>
    <clipPath id="e">
      <path fill="#fff" d="M94.666 26a2 2 0 0 1 2-2h15.667a2 2 0 0 1 2 2v54H94.667V26Z"/>
    </clipPath>
    <clipPath id="f">
      <path fill="#fff" d="M116.333 64a2 2 0 0 1 2-2H134a2 2 0 0 1 2 2v16h-19.667V64Z"/>
    </clipPath>
  </defs>
</svg>
