<svg width="144" height="80" viewBox="0 0 144 80" fill="none" xmlns="http://www.w3.org/2000/svg">
<g clip-path="url(#clip0_430_18796)">
<rect width="144" height="80" fill="white"/>
<path opacity="0.2" d="M144 46.4189L139.2 42.6677L134.4 46.4189L129.6 42.6677L124.8 37.6304H120L115.2 42.6677L110.4 37.6304L105.6 42.6677L100.8 34.7367H91.2L86.4 37.6304L81.6 32.1644L76.8 34.7367H67.2L62.4 32.1644L57.6 34.7367H52.8L48 39.7739H38.4L33.6 34.7367H28.8L24 32.1644L19.2 29.2707L14.4 24.6621L9.60001 29.2707L4.8 24.6621H0V72.9053L4.8 70.4589L9.6 72.9053L14.4 70.4589L19.2 67.1738H24L28.8 70.4589L33.6 67.1738L38.4 70.4589L43.2 65.2865H52.8L57.6 67.1738L62.4 63.609L67.2 65.2865H76.8L81.6 63.609L86.4 65.2865H91.2L96 68.5717H105.6L110.4 65.2865H115.2L120 63.609L124.8 61.7218L129.6 58.7162L134.4 61.7218L139.2 58.7162H144V46.4189Z" fill="#2BB3FF"/>
<path d="M144 46.4189L139.2 42.6677L134.4 46.4189L129.6 42.6677L124.8 37.6304H120L115.2 42.6677L110.4 37.6304L105.6 42.6677L100.8 34.7367H96H91.2L86.4 37.6304L81.6 32.1644L76.8 34.7367H72H67.2L62.4 32.1644L57.6 34.7367H52.8L48 39.7739H43.2H38.4L33.6 34.7367H28.8L24 32.1644L19.2 29.2707L14.4 24.6621L9.6 29.2707L4.79999 24.6621H-1.83284e-06" stroke="#2BB3FF" stroke-width="3" stroke-linecap="round"/>
<path opacity="0.2" d="M4.8 70.4591L0 72.9055V80.0001H144V58.7163H139.2L134.4 61.7219L129.6 58.7163L124.8 61.7219L120 63.6091L115.2 65.2867H110.4L105.6 68.5719H100.8H96L91.2 65.2867H86.4L81.6 63.6091L76.8 65.2867H72H67.2L62.4 63.6091L57.6 67.1739L52.8 65.2867H48H43.2L38.4 70.4591L33.6 67.1739L28.8 70.4591L24 67.1739H19.2L14.4 70.4591L9.6 72.9055L4.8 70.4591Z" fill="#59DDAA"/>
<path d="M0 72.9055L4.8 70.4591L9.6 72.9055L14.4 70.4591L19.2 67.1739H24L28.8 70.4591L33.6 67.1739L38.4 70.4591L43.2 65.2867H48H52.8L57.6 67.1739L62.4 63.6091L67.2 65.2867H72H76.8L81.6 63.6091L86.4 65.2867H91.2L96 68.5718H100.8H105.6L110.4 65.2867H115.2L120 63.6091L124.8 61.7219L129.6 58.7163L134.4 61.7219L139.2 58.7163H144" stroke="#59DDAA" stroke-width="3" stroke-linecap="round"/>
</g>
<defs>
<clipPath id="clip0_430_18796">
<rect width="144" height="80" fill="white"/>
</clipPath>
</defs>
</svg>
