<svg xmlns="http://www.w3.org/2000/svg" width="144" height="80" fill="none" viewBox="0 0 144 80">
  <g clip-path="url(#a)">
    <path fill="#FDC23C" d="M8 50a2 2 0 0 1 2-2h8a2 2 0 0 1 2 2v26H8V50Z"/>
    <path fill="#008FF8" d="M8 76h12v1H8z"/>
    <path fill="#8ECDFF" d="M8 77h12v1H8z"/>
    <path fill="#C4C7CF" d="M8 78h12v7H8z"/>
  </g>
  <path fill="#FDC23C" d="M31.2 20a2 2 0 0 1 2-2h8a2 2 0 0 1 2 2v26h-12V20Z"/>
  <path fill="#008FF8" d="M31.2 46h12v13.5h-12z"/>
  <path fill="#8ECDFF" d="M31.2 59.5h12V73h-12z"/>
  <path fill="#C4C7CF" d="M31.2 73h12v7h-12z"/>
  <path fill="#FDC23C" d="M54.4 23a2 2 0 0 1 2-2h8a2 2 0 0 1 2 2v26h-12V23Z"/>
  <path fill="#008FF8" d="M54.4 49h12v12h-12z"/>
  <path fill="#8ECDFF" d="M54.4 61h12v12h-12z"/>
  <path fill="#C4C7CF" d="M54.4 73h12v7h-12z"/>
  <path fill="#FDC23C" d="M77.6 39a2 2 0 0 1 2-2h8a2 2 0 0 1 2 2v26h-12V39Z"/>
  <path fill="#008FF8" d="M77.6 65h12v4h-12z"/>
  <path fill="#8ECDFF" d="M77.6 69h12v4h-12z"/>
  <path fill="#C4C7CF" d="M77.6 73h12v7h-12z"/>
  <path fill="#FDC23C" d="M100.8 26a2 2 0 0 1 2-2h8a2 2 0 0 1 2 2v26h-12V26Z"/>
  <path fill="#008FF8" d="M100.8 52h12v10.5h-12z"/>
  <path fill="#8ECDFF" d="M100.8 62.5h12V73h-12z"/>
  <path fill="#C4C7CF" d="M100.8 73h12v7h-12z"/>
  <g clip-path="url(#b)">
    <path fill="#FDC23C" d="M124 64a2 2 0 0 1 2-2h8a2 2 0 0 1 2 2v26h-12V64Z"/>
  </g>
  <defs>
    <clipPath id="a">
      <path fill="#fff" d="M0 50a2 2 0 0 1 2-2h24a2 2 0 0 1 2 2v30H0V50Z"/>
    </clipPath>
    <clipPath id="b">
      <path fill="#fff" d="M116 64a2 2 0 0 1 2-2h24a2 2 0 0 1 2 2v16h-28V64Z"/>
    </clipPath>
  </defs>
</svg>
