<svg xmlns="http://www.w3.org/2000/svg" width="146" height="80" fill="none" viewBox="0 0 146 80">
  <path fill="#2BB3FF" fill-rule="evenodd" d="M60.33 13.91C51.582 19.3 45.75 28.97 45.75 40s5.832 20.7 14.58 26.09A34.87 34.87 0 0 1 37 75C17.67 75 2 59.33 2 40S17.67 5 37 5a34.87 34.87 0 0 1 23.33 8.91Z" clip-rule="evenodd" opacity=".5"/>
  <path fill="#59DDAA" fill-rule="evenodd" d="M60.33 66.09C67.492 59.683 72 50.368 72 40c0-10.367-4.508-19.682-11.67-26.09a30.482 30.482 0 0 1 16.045-4.535C93.288 9.375 107 23.086 107 40S93.288 70.625 76.375 70.625a30.48 30.48 0 0 1-16.045-4.534Z" clip-rule="evenodd" opacity=".5"/>
  <g opacity=".5">
    <mask id="a" width="31" height="58" x="43.75" y="10.909" fill="#000" maskUnits="userSpaceOnUse">
      <path fill="#fff" d="M43.75 10.909h31v58h-31z"/>
      <path fill-rule="evenodd" d="M60.33 66.09C67.493 59.683 72 50.368 72 40c0-10.367-4.507-19.682-11.67-26.09C51.582 19.3 45.75 28.97 45.75 40s5.832 20.7 14.58 26.09Z" clip-rule="evenodd"/>
    </mask>
    <path fill="#59DDAA" fill-rule="evenodd" d="M60.33 66.09C67.493 59.683 72 50.368 72 40c0-10.367-4.507-19.682-11.67-26.09C51.582 19.3 45.75 28.97 45.75 40s5.832 20.7 14.58 26.09Z" clip-rule="evenodd"/>
    <path fill="#fff" d="m60.33 66.09-1.049 1.703 1.27.783 1.113-.995-1.334-1.49Zm0-52.18 1.334-1.491-1.112-.995-1.271.783 1.05 1.702ZM70 40c0 9.775-4.247 18.555-11.003 24.6l2.667 2.981C69.232 60.81 74 50.96 74 40.001h-4ZM58.997 15.4C65.753 21.445 70 30.225 70 40h4c0-10.96-4.768-20.809-12.336-27.581l-2.667 2.98ZM47.75 40c0-10.308 5.447-19.345 13.63-24.388l-2.099-3.405C49.966 17.947 43.75 28.247 43.75 40h4Zm13.63 24.388C53.197 59.345 47.75 50.308 47.75 40h-4c0 11.753 6.216 22.053 15.531 27.793l2.099-3.405Z" mask="url(#a)"/>
  </g>
  <g opacity=".5">
    <mask id="b" width="31" height="58" x="43.75" y="10.909" fill="#000" maskUnits="userSpaceOnUse">
      <path fill="#fff" d="M43.75 10.909h31v58h-31z"/>
      <path fill-rule="evenodd" d="M60.33 66.09C67.493 59.683 72 50.368 72 40c0-10.367-4.507-19.682-11.67-26.09C51.582 19.3 45.75 28.97 45.75 40s5.832 20.7 14.58 26.09Z" clip-rule="evenodd"/>
    </mask>
    <path fill="#2BB3FF" fill-rule="evenodd" d="M60.33 66.09C67.493 59.683 72 50.368 72 40c0-10.367-4.507-19.682-11.67-26.09C51.582 19.3 45.75 28.97 45.75 40s5.832 20.7 14.58 26.09Z" clip-rule="evenodd"/>
    <path fill="#fff" d="m60.33 66.09-1.049 1.703 1.27.783 1.113-.995-1.334-1.49Zm0-52.18 1.334-1.491-1.112-.995-1.271.783 1.05 1.702ZM70 40c0 9.775-4.247 18.555-11.003 24.6l2.667 2.981C69.232 60.81 74 50.96 74 40.001h-4ZM58.997 15.4C65.753 21.445 70 30.225 70 40h4c0-10.96-4.768-20.809-12.336-27.581l-2.667 2.98ZM47.75 40c0-10.308 5.447-19.345 13.63-24.388l-2.099-3.405C49.966 17.947 43.75 28.247 43.75 40h4Zm13.63 24.388C53.197 59.345 47.75 50.308 47.75 40h-4c0 11.753 6.216 22.053 15.531 27.793l2.099-3.405Z" mask="url(#b)"/>
  </g>
  <circle cx="37" cy="40" r="36" stroke="#fff" stroke-width="2"/>
  <circle cx="37" cy="40" r="35" fill="#2BB3FF" opacity=".5"/>
  <circle cx="76.375" cy="40" r="31.625" stroke="#fff" stroke-width="2"/>
  <circle cx="76.25" cy="39.875" r="30.5" fill="#59DDAA" opacity=".5"/>
</svg>
