<svg width="24" height="24" viewBox="0 0 24 24" fill="none" xmlns="http://www.w3.org/2000/svg">
<path d="M20.964 8.73404C20.4771 7.01477 19.4994 5.50096 18.1869 4.34375L15.2829 7.21524C16.3421 8.06769 17.0564 9.32233 17.1865 10.7425V11.6842C17.2029 11.6842 17.2181 11.6792 17.2345 11.6792C18.7011 11.6792 20 12.8595 20 14.3097C20 15.7598 18.7017 17 17.2352 17C17.2188 17 17.2036 16.9956 17.1872 16.995V17H12.9764H12V21H17.1865V20.9975C17.2029 20.9975 17.2181 21 17.2345 21C20.9653 21 24 17.9986 24 14.3103C24 11.984 22.7912 9.9331 20.964 8.73404Z" fill="#1976D2"/>
<path d="M3.02454 8.74065C4.11928 4.85746 7.7286 2 12 2C14.3754 2 16.5398 2.89117 18.1869 4.34378L15.2829 7.21527C14.3861 6.49396 13.2436 6 12 6C10.494 6 9.10114 6.68537 8.1351 7.76069C7.69215 7.67035 7.23345 7.62292 6.76357 7.62292C5.38291 7.62292 4.09669 8.03459 3.02454 8.74065Z" fill="#FF3D00"/>
<path d="M6.76551 17H6.76425C6.37836 17 5.99098 16.9174 5.66003 16.77L2.70825 19.6492C3.84067 20.4929 5.24278 21 6.76425 21H6.76551H12V17H6.76551Z" fill="#4CAF50"/>
<path d="M4 14.3115C4 12.8627 5.29895 11.6824 6.76421 11.6824C7.83979 11.6824 8.77137 12.3212 9.19011 13.2399L12.1693 10.2941C10.9307 8.6691 8.97031 7.62305 6.76358 7.62305C3.03789 7.62305 0 10.6207 0 14.3115C0 16.4917 1.068 18.427 2.70821 19.6492L5.66 16.7701C4.73284 16.3592 4 15.3788 4 14.3115Z" fill="#FFC107"/>
</svg>
