<svg width="16" height="16" viewBox="0 0 16 16" fill="none" xmlns="http://www.w3.org/2000/svg">
<path d="M13.976 5.60741C13.6514 4.43106 12.9996 3.3953 12.1246 2.60352L10.1886 4.56822C10.8947 5.15148 11.3709 6.00992 11.4577 6.98159V7.62595C11.4686 7.62595 11.4787 7.62254 11.4897 7.62254C12.4674 7.62254 13.3333 8.43013 13.3333 9.42231C13.3333 10.4145 12.4678 11.2631 11.4901 11.2631C11.4792 11.2631 11.4691 11.2601 11.4581 11.2597V11.2631H8.65095H8V13.9999H11.4577V13.9982C11.4686 13.9982 11.4787 13.9999 11.4897 13.9999C13.9768 13.9999 16 11.9463 16 9.42274C16 7.83106 15.1941 6.42782 13.976 5.60741Z" fill="#1976D2"/>
<path d="M2.01636 5.61203C2.74619 2.95511 5.1524 1 7.99999 1C9.58357 1 11.0265 1.60975 12.1246 2.60364L10.1886 4.56835C9.59073 4.07482 8.82904 3.73685 7.99999 3.73685C6.99603 3.73685 6.06743 4.20579 5.4234 4.94154C5.1281 4.87972 4.8223 4.84727 4.50905 4.84727C3.5886 4.84727 2.73113 5.12894 2.01636 5.61203Z" fill="#FF3D00"/>
<path d="M4.51032 11.2633H4.50948C4.25222 11.2633 3.99396 11.2068 3.77333 11.106L1.80548 13.0759C2.56043 13.6532 3.49516 14.0002 4.50948 14.0002H4.51032H8.00001V11.2633H4.51032Z" fill="#4CAF50"/>
<path d="M2.66667 9.42351C2.66667 8.43218 3.53263 7.62459 4.50947 7.62459C5.22653 7.62459 5.84758 8.06172 6.12674 8.69027L8.11284 6.67471C7.28716 5.56289 5.98021 4.84717 4.50905 4.84717C2.02526 4.84717 0 6.89819 0 9.42351C0 10.9152 0.712 12.2394 1.80547 13.0756L3.77333 11.1057C3.15523 10.8245 2.66667 10.1538 2.66667 9.42351Z" fill="#FFC107"/>
</svg>
